<?xml version="1.0" encoding="UTF-8"?>
<!DOCTYPE xmeml>
<xmeml version="4">
	<sequence id="sequence-1" TL.SQAudioVisibleBase="0" TL.SQVideoVisibleBase="0" TL.SQVisibleBaseTime="0" TL.SQAVDividerPosition="0.5" TL.SQHideShyTracks="0" TL.SQHeaderWidth="236" Monitor.ProgramZoomOut="1249504047792000" Monitor.ProgramZoomIn="0" TL.SQTimePerPixel="0.048830314063089846" MZ.EditLine="0" MZ.Sequence.PreviewFrameSizeHeight="2160" MZ.Sequence.PreviewFrameSizeWidth="4096" MZ.Sequence.AudioTimeDisplayFormat="200" MZ.Sequence.PreviewRenderingClassID="1061109567" MZ.Sequence.PreviewRenderingPresetCodec="1634755443" MZ.Sequence.PreviewRenderingPresetPath="EncoderPresets\SequencePreview\9678af98-a7b7-4bdb-b477-7ac9c8df4a4e\QuickTime.epr" MZ.Sequence.PreviewUseMaxRenderQuality="false" MZ.Sequence.PreviewUseMaxBitDepth="false" MZ.Sequence.EditingModeGUID="9678af98-a7b7-4bdb-b477-7ac9c8df4a4e" MZ.Sequence.VideoTimeDisplayFormat="110" MZ.WorkOutPoint="1249504047792000" MZ.WorkInPoint="0" MZ.ZeroPoint="914863517568000" explodedTracks="true">
		<uuid>e15335e0-5dff-4971-82c5-4bc6e49bd30d</uuid>
		<duration>117938</duration>
		<rate>
			<timebase>24</timebase>
			<ntsc>TRUE</ntsc>
		</rate>
		<name>_allComps_PictureLockV03</name>
		<media>
			<video>
				<format>
					<samplecharacteristics>
						<rate>
							<timebase>24</timebase>
							<ntsc>TRUE</ntsc>
						</rate>
						<codec>
							<name>Apple ProRes 422</name>
							<appspecificdata>
								<appname>Final Cut Pro</appname>
								<appmanufacturer>Apple Inc.</appmanufacturer>
								<appversion>7.0</appversion>
								<data>
									<qtcodec>
										<codecname>Apple ProRes 422</codecname>
										<codectypename>Apple ProRes 422</codectypename>
										<codectypecode>apcn</codectypecode>
										<codecvendorcode>appl</codecvendorcode>
										<spatialquality>1024</spatialquality>
										<temporalquality>0</temporalquality>
										<keyframerate>0</keyframerate>
										<datarate>0</datarate>
									</qtcodec>
								</data>
							</appspecificdata>
						</codec>
						<width>4096</width>
						<height>2160</height>
						<anamorphic>FALSE</anamorphic>
						<pixelaspectratio>square</pixelaspectratio>
						<fielddominance>none</fielddominance>
						<colordepth>24</colordepth>
					</samplecharacteristics>
				</format>
				<track TL.SQTrackShy="0" TL.SQTrackExpandedHeight="25" TL.SQTrackExpanded="0" MZ.TrackTargeted="1">
					<clipitem id="clipitem-1">
						<masterclipid>masterclip-1</masterclipid>
						<name>TKO_001_INT_Sh00010.mov</name>
						<enabled>TRUE</enabled>
						<duration>194</duration>
						<rate>
							<timebase>24</timebase>
							<ntsc>TRUE</ntsc>
						</rate>
						<start>48</start>
						<end>234</end>
						<in>4</in>
						<out>190</out>
						<pproTicksIn>42378336000</pproTicksIn>
						<pproTicksOut>2012970960000</pproTicksOut>
						<alphatype>none</alphatype>
						<pixelaspectratio>square</pixelaspectratio>
						<anamorphic>FALSE</anamorphic>
						<file id="file-1">
							<name>TKO_001_INT_Sh00010.mov</name>
							<pathurl>file://tri-stor01/Projects/TKO/SHOTS/_Refs_Movs_Burnin_FrameCounter/TKO_001_INT_Sh00010.mov</pathurl>
							<rate>
								<timebase>24</timebase>
								<ntsc>TRUE</ntsc>
							</rate>
							<duration>194</duration>
							<timecode>
								<rate>
									<timebase>24</timebase>
									<ntsc>TRUE</ntsc>
								</rate>
								<string>00:00:00:01</string>
								<frame>1</frame>
								<displayformat>NDF</displayformat>
							</timecode>
							<media>
								<video>
									<samplecharacteristics>
										<rate>
											<timebase>24</timebase>
											<ntsc>TRUE</ntsc>
										</rate>
										<width>1280</width>
										<height>720</height>
										<anamorphic>FALSE</anamorphic>
										<pixelaspectratio>square</pixelaspectratio>
										<fielddominance>none</fielddominance>
									</samplecharacteristics>
								</video>
							</media>
						</file>
						<logginginfo>
							<description></description>
							<scene></scene>
							<shottake></shottake>
							<lognote></lognote>
							<good></good>
							<originalvideofilename></originalvideofilename>
							<originalaudiofilename></originalaudiofilename>
						</logginginfo>
						<colorinfo>
							<lut></lut>
							<lut1></lut1>
							<asc_sop></asc_sop>
							<asc_sat></asc_sat>
							<lut2></lut2>
						</colorinfo>
						<labels>
							<label2>Violet</label2>
						</labels>
					</clipitem>
					<clipitem id="clipitem-2">
						<masterclipid>masterclip-2</masterclipid>
						<name>TKO_001_INT_Sh00020.mov</name>
						<enabled>TRUE</enabled>
						<duration>109</duration>
						<rate>
							<timebase>24</timebase>
							<ntsc>TRUE</ntsc>
						</rate>
						<start>234</start>
						<end>335</end>
						<in>4</in>
						<out>105</out>
						<pproTicksIn>42378336000</pproTicksIn>
						<pproTicksOut>1112431320000</pproTicksOut>
						<alphatype>none</alphatype>
						<pixelaspectratio>square</pixelaspectratio>
						<anamorphic>FALSE</anamorphic>
						<file id="file-2">
							<name>TKO_001_INT_Sh00020.mov</name>
							<pathurl>file://tri-stor01/Projects/TKO/SHOTS/_Refs_Movs_Burnin_FrameCounter/TKO_001_INT_Sh00020.mov</pathurl>
							<rate>
								<timebase>24</timebase>
								<ntsc>TRUE</ntsc>
							</rate>
							<duration>109</duration>
							<timecode>
								<rate>
									<timebase>24</timebase>
									<ntsc>TRUE</ntsc>
								</rate>
								<string>00:00:00:00</string>
								<frame>0</frame>
								<displayformat>NDF</displayformat>
							</timecode>
							<media>
								<video>
									<samplecharacteristics>
										<rate>
											<timebase>24</timebase>
											<ntsc>TRUE</ntsc>
										</rate>
										<width>4096</width>
										<height>2160</height>
										<anamorphic>FALSE</anamorphic>
										<pixelaspectratio>square</pixelaspectratio>
										<fielddominance>none</fielddominance>
									</samplecharacteristics>
								</video>
							</media>
						</file>
						<logginginfo>
							<description></description>
							<scene></scene>
							<shottake></shottake>
							<lognote></lognote>
							<good></good>
							<originalvideofilename></originalvideofilename>
							<originalaudiofilename></originalaudiofilename>
						</logginginfo>
						<colorinfo>
							<lut></lut>
							<lut1></lut1>
							<asc_sop></asc_sop>
							<asc_sat></asc_sat>
							<lut2></lut2>
						</colorinfo>
						<labels>
							<label2>Violet</label2>
						</labels>
					</clipitem>
					<clipitem id="clipitem-3">
						<masterclipid>masterclip-3</masterclipid>
						<name>TKO_001_INT_Sh00030.mov</name>
						<enabled>TRUE</enabled>
						<duration>75</duration>
						<rate>
							<timebase>24</timebase>
							<ntsc>TRUE</ntsc>
						</rate>
						<start>335</start>
						<end>402</end>
						<in>4</in>
						<out>71</out>
						<pproTicksIn>42378336000</pproTicksIn>
						<pproTicksOut>752215464000</pproTicksOut>
						<alphatype>none</alphatype>
						<pixelaspectratio>square</pixelaspectratio>
						<anamorphic>FALSE</anamorphic>
						<file id="file-3">
							<name>TKO_001_INT_Sh00030.mov</name>
							<pathurl>file://tri-stor01/Projects/TKO/SHOTS/_Refs_Movs_Burnin_FrameCounter/TKO_001_INT_Sh00030.mov</pathurl>
							<rate>
								<timebase>24</timebase>
								<ntsc>TRUE</ntsc>
							</rate>
							<duration>75</duration>
							<timecode>
								<rate>
									<timebase>24</timebase>
									<ntsc>TRUE</ntsc>
								</rate>
								<string>00:00:07:19</string>
								<frame>187</frame>
								<displayformat>NDF</displayformat>
							</timecode>
							<media>
								<video>
									<samplecharacteristics>
										<rate>
											<timebase>24</timebase>
											<ntsc>TRUE</ntsc>
										</rate>
										<width>1280</width>
										<height>720</height>
										<anamorphic>FALSE</anamorphic>
										<pixelaspectratio>square</pixelaspectratio>
										<fielddominance>none</fielddominance>
									</samplecharacteristics>
								</video>
							</media>
						</file>
						<logginginfo>
							<description></description>
							<scene></scene>
							<shottake></shottake>
							<lognote></lognote>
							<good></good>
							<originalvideofilename></originalvideofilename>
							<originalaudiofilename></originalaudiofilename>
						</logginginfo>
						<colorinfo>
							<lut></lut>
							<lut1></lut1>
							<asc_sop></asc_sop>
							<asc_sat></asc_sat>
							<lut2></lut2>
						</colorinfo>
						<labels>
							<label2>Violet</label2>
						</labels>
					</clipitem>
					<clipitem id="clipitem-4">
						<masterclipid>masterclip-4</masterclipid>
						<name>TKO_001_INT_Sh00040.mov</name>
						<enabled>TRUE</enabled>
						<duration>89</duration>
						<rate>
							<timebase>24</timebase>
							<ntsc>TRUE</ntsc>
						</rate>
						<start>402</start>
						<end>483</end>
						<in>4</in>
						<out>85</out>
						<pproTicksIn>42378336000</pproTicksIn>
						<pproTicksOut>900539640000</pproTicksOut>
						<alphatype>none</alphatype>
						<pixelaspectratio>square</pixelaspectratio>
						<anamorphic>FALSE</anamorphic>
						<file id="file-4">
							<name>TKO_001_INT_Sh00040.mov</name>
							<pathurl>file://tri-stor01/Projects/TKO/SHOTS/_Refs_Movs_Burnin_FrameCounter/TKO_001_INT_Sh00040.mov</pathurl>
							<rate>
								<timebase>24</timebase>
								<ntsc>TRUE</ntsc>
							</rate>
							<duration>89</duration>
							<timecode>
								<rate>
									<timebase>24</timebase>
									<ntsc>TRUE</ntsc>
								</rate>
								<string>00:00:10:14</string>
								<frame>254</frame>
								<displayformat>NDF</displayformat>
							</timecode>
							<media>
								<video>
									<samplecharacteristics>
										<rate>
											<timebase>24</timebase>
											<ntsc>TRUE</ntsc>
										</rate>
										<width>1280</width>
										<height>720</height>
										<anamorphic>FALSE</anamorphic>
										<pixelaspectratio>square</pixelaspectratio>
										<fielddominance>none</fielddominance>
									</samplecharacteristics>
								</video>
							</media>
						</file>
						<logginginfo>
							<description></description>
							<scene></scene>
							<shottake></shottake>
							<lognote></lognote>
							<good></good>
							<originalvideofilename></originalvideofilename>
							<originalaudiofilename></originalaudiofilename>
						</logginginfo>
						<colorinfo>
							<lut></lut>
							<lut1></lut1>
							<asc_sop></asc_sop>
							<asc_sat></asc_sat>
							<lut2></lut2>
						</colorinfo>
						<labels>
							<label2>Violet</label2>
						</labels>
					</clipitem>
					<clipitem id="clipitem-5">
						<masterclipid>masterclip-5</masterclipid>
						<name>TKO_001_INT_Sh00050.mov</name>
						<enabled>TRUE</enabled>
						<duration>383</duration>
						<rate>
							<timebase>24</timebase>
							<ntsc>TRUE</ntsc>
						</rate>
						<start>483</start>
						<end>858</end>
						<in>4</in>
						<out>379</out>
						<pproTicksIn>42378336000</pproTicksIn>
						<pproTicksOut>4015347336000</pproTicksOut>
						<alphatype>none</alphatype>
						<pixelaspectratio>square</pixelaspectratio>
						<anamorphic>FALSE</anamorphic>
						<file id="file-5">
							<name>TKO_001_INT_Sh00050.mov</name>
							<pathurl>file://tri-stor01/Projects/TKO/SHOTS/_Refs_Movs_Burnin_FrameCounter/TKO_001_INT_Sh00050.mov</pathurl>
							<rate>
								<timebase>24</timebase>
								<ntsc>TRUE</ntsc>
							</rate>
							<duration>383</duration>
							<timecode>
								<rate>
									<timebase>24</timebase>
									<ntsc>TRUE</ntsc>
								</rate>
								<string>16:07:36:15</string>
								<frame>1393359</frame>
								<displayformat>NDF</displayformat>
								<reel>
									<name>A0180020</name>
								</reel>
							</timecode>
							<media>
								<video>
									<samplecharacteristics>
										<rate>
											<timebase>24</timebase>
											<ntsc>TRUE</ntsc>
										</rate>
										<width>4096</width>
										<height>2160</height>
										<anamorphic>FALSE</anamorphic>
										<pixelaspectratio>square</pixelaspectratio>
										<fielddominance>none</fielddominance>
									</samplecharacteristics>
								</video>
							</media>
						</file>
						<logginginfo>
							<description></description>
							<scene></scene>
							<shottake></shottake>
							<lognote></lognote>
							<good></good>
							<originalvideofilename></originalvideofilename>
							<originalaudiofilename></originalaudiofilename>
						</logginginfo>
						<colorinfo>
							<lut></lut>
							<lut1></lut1>
							<asc_sop></asc_sop>
							<asc_sat></asc_sat>
							<lut2></lut2>
						</colorinfo>
						<labels>
							<label2>Violet</label2>
						</labels>
					</clipitem>
					<clipitem id="clipitem-6">
						<masterclipid>masterclip-6</masterclipid>
						<name>TKO_001_INT_Sh00060.mov</name>
						<enabled>TRUE</enabled>
						<duration>61</duration>
						<rate>
							<timebase>24</timebase>
							<ntsc>TRUE</ntsc>
						</rate>
						<start>858</start>
						<end>911</end>
						<in>4</in>
						<out>57</out>
						<pproTicksIn>42378336000</pproTicksIn>
						<pproTicksOut>603891288000</pproTicksOut>
						<alphatype>none</alphatype>
						<pixelaspectratio>square</pixelaspectratio>
						<anamorphic>FALSE</anamorphic>
						<file id="file-6">
							<name>TKO_001_INT_Sh00060.mov</name>
							<pathurl>file://tri-stor01/Projects/TKO/SHOTS/_Refs_Movs_Burnin_FrameCounter/TKO_001_INT_Sh00060.mov</pathurl>
							<rate>
								<timebase>24</timebase>
								<ntsc>TRUE</ntsc>
							</rate>
							<duration>61</duration>
							<timecode>
								<rate>
									<timebase>24</timebase>
									<ntsc>TRUE</ntsc>
								</rate>
								<string>05:13:37:21</string>
								<frame>451629</frame>
								<displayformat>NDF</displayformat>
								<reel>
									<name>C0110001</name>
								</reel>
							</timecode>
							<media>
								<video>
									<samplecharacteristics>
										<rate>
											<timebase>24</timebase>
											<ntsc>TRUE</ntsc>
										</rate>
										<width>3840</width>
										<height>2160</height>
										<anamorphic>FALSE</anamorphic>
										<pixelaspectratio>square</pixelaspectratio>
										<fielddominance>none</fielddominance>
									</samplecharacteristics>
								</video>
							</media>
						</file>
						<logginginfo>
							<description></description>
							<scene></scene>
							<shottake></shottake>
							<lognote></lognote>
							<good></good>
							<originalvideofilename></originalvideofilename>
							<originalaudiofilename></originalaudiofilename>
						</logginginfo>
						<colorinfo>
							<lut></lut>
							<lut1></lut1>
							<asc_sop></asc_sop>
							<asc_sat></asc_sat>
							<lut2></lut2>
						</colorinfo>
						<labels>
							<label2>Violet</label2>
						</labels>
					</clipitem>
					<clipitem id="clipitem-7">
						<masterclipid>masterclip-7</masterclipid>
						<name>TKO_001_INT_Sh00070.mov</name>
						<enabled>TRUE</enabled>
						<duration>54</duration>
						<rate>
							<timebase>24</timebase>
							<ntsc>TRUE</ntsc>
						</rate>
						<start>911</start>
						<end>957</end>
						<in>4</in>
						<out>50</out>
						<pproTicksIn>42378336000</pproTicksIn>
						<pproTicksOut>529729200000</pproTicksOut>
						<alphatype>none</alphatype>
						<pixelaspectratio>square</pixelaspectratio>
						<anamorphic>FALSE</anamorphic>
						<file id="file-7">
							<name>TKO_001_INT_Sh00070.mov</name>
							<pathurl>file://tri-stor01/Projects/TKO/SHOTS/_Refs_Movs_Burnin_FrameCounter/TKO_001_INT_Sh00070.mov</pathurl>
							<rate>
								<timebase>24</timebase>
								<ntsc>TRUE</ntsc>
							</rate>
							<duration>54</duration>
							<timecode>
								<rate>
									<timebase>24</timebase>
									<ntsc>TRUE</ntsc>
								</rate>
								<string>16:07:54:08</string>
								<frame>1393784</frame>
								<displayformat>NDF</displayformat>
								<reel>
									<name>A0180020</name>
								</reel>
							</timecode>
							<media>
								<video>
									<samplecharacteristics>
										<rate>
											<timebase>24</timebase>
											<ntsc>TRUE</ntsc>
										</rate>
										<width>4096</width>
										<height>2160</height>
										<anamorphic>FALSE</anamorphic>
										<pixelaspectratio>square</pixelaspectratio>
										<fielddominance>none</fielddominance>
									</samplecharacteristics>
								</video>
							</media>
						</file>
						<logginginfo>
							<description></description>
							<scene></scene>
							<shottake></shottake>
							<lognote></lognote>
							<good></good>
							<originalvideofilename></originalvideofilename>
							<originalaudiofilename></originalaudiofilename>
						</logginginfo>
						<colorinfo>
							<lut></lut>
							<lut1></lut1>
							<asc_sop></asc_sop>
							<asc_sat></asc_sat>
							<lut2></lut2>
						</colorinfo>
						<labels>
							<label2>Violet</label2>
						</labels>
					</clipitem>
					<clipitem id="clipitem-8">
						<masterclipid>masterclip-8</masterclipid>
						<name>TKO_001_INT_Sh00080.mov</name>
						<enabled>TRUE</enabled>
						<duration>32</duration>
						<rate>
							<timebase>24</timebase>
							<ntsc>TRUE</ntsc>
						</rate>
						<start>957</start>
						<end>981</end>
						<in>4</in>
						<out>28</out>
						<pproTicksIn>42378336000</pproTicksIn>
						<pproTicksOut>296648352000</pproTicksOut>
						<alphatype>none</alphatype>
						<pixelaspectratio>square</pixelaspectratio>
						<anamorphic>FALSE</anamorphic>
						<file id="file-8">
							<name>TKO_001_INT_Sh00080.mov</name>
							<pathurl>file://tri-stor01/Projects/TKO/SHOTS/_Refs_Movs_Burnin_FrameCounter/TKO_001_INT_Sh00080.mov</pathurl>
							<rate>
								<timebase>24</timebase>
								<ntsc>TRUE</ntsc>
							</rate>
							<duration>32</duration>
							<timecode>
								<rate>
									<timebase>24</timebase>
									<ntsc>TRUE</ntsc>
								</rate>
								<string>00:00:00:00</string>
								<frame>0</frame>
								<displayformat>NDF</displayformat>
							</timecode>
							<media>
								<video>
									<samplecharacteristics>
										<rate>
											<timebase>24</timebase>
											<ntsc>TRUE</ntsc>
										</rate>
										<width>4096</width>
										<height>2160</height>
										<anamorphic>FALSE</anamorphic>
										<pixelaspectratio>square</pixelaspectratio>
										<fielddominance>none</fielddominance>
									</samplecharacteristics>
								</video>
							</media>
						</file>
						<logginginfo>
							<description></description>
							<scene></scene>
							<shottake></shottake>
							<lognote></lognote>
							<good></good>
							<originalvideofilename></originalvideofilename>
							<originalaudiofilename></originalaudiofilename>
						</logginginfo>
						<colorinfo>
							<lut></lut>
							<lut1></lut1>
							<asc_sop></asc_sop>
							<asc_sat></asc_sat>
							<lut2></lut2>
						</colorinfo>
						<labels>
							<label2>Violet</label2>
						</labels>
					</clipitem>
					<clipitem id="clipitem-9">
						<masterclipid>masterclip-9</masterclipid>
						<name>TKO_001_INT_Sh00090.mov</name>
						<enabled>TRUE</enabled>
						<duration>30</duration>
						<rate>
							<timebase>24</timebase>
							<ntsc>TRUE</ntsc>
						</rate>
						<start>981</start>
						<end>1003</end>
						<in>4</in>
						<out>26</out>
						<pproTicksIn>42378336000</pproTicksIn>
						<pproTicksOut>275459184000</pproTicksOut>
						<alphatype>none</alphatype>
						<pixelaspectratio>square</pixelaspectratio>
						<anamorphic>FALSE</anamorphic>
						<file id="file-9">
							<name>TKO_001_INT_Sh00090.mov</name>
							<pathurl>file://tri-stor01/Projects/TKO/SHOTS/_Refs_Movs_Burnin_FrameCounter/TKO_001_INT_Sh00090.mov</pathurl>
							<rate>
								<timebase>24</timebase>
								<ntsc>TRUE</ntsc>
							</rate>
							<duration>30</duration>
							<timecode>
								<rate>
									<timebase>24</timebase>
									<ntsc>TRUE</ntsc>
								</rate>
								<string>05:12:30:00</string>
								<frame>450000</frame>
								<displayformat>NDF</displayformat>
								<reel>
									<name>C0110001</name>
								</reel>
							</timecode>
							<media>
								<video>
									<samplecharacteristics>
										<rate>
											<timebase>24</timebase>
											<ntsc>TRUE</ntsc>
										</rate>
										<width>3840</width>
										<height>2160</height>
										<anamorphic>FALSE</anamorphic>
										<pixelaspectratio>square</pixelaspectratio>
										<fielddominance>none</fielddominance>
									</samplecharacteristics>
								</video>
							</media>
						</file>
						<logginginfo>
							<description></description>
							<scene></scene>
							<shottake></shottake>
							<lognote></lognote>
							<good></good>
							<originalvideofilename></originalvideofilename>
							<originalaudiofilename></originalaudiofilename>
						</logginginfo>
						<colorinfo>
							<lut></lut>
							<lut1></lut1>
							<asc_sop></asc_sop>
							<asc_sat></asc_sat>
							<lut2></lut2>
						</colorinfo>
						<labels>
							<label2>Violet</label2>
						</labels>
					</clipitem>
					<clipitem id="clipitem-10">
						<masterclipid>masterclip-10</masterclipid>
						<name>TKO_001_INT_Sh00100.mov</name>
						<enabled>TRUE</enabled>
						<duration>38</duration>
						<rate>
							<timebase>24</timebase>
							<ntsc>TRUE</ntsc>
						</rate>
						<start>1003</start>
						<end>1033</end>
						<in>4</in>
						<out>34</out>
						<pproTicksIn>42378336000</pproTicksIn>
						<pproTicksOut>360215856000</pproTicksOut>
						<alphatype>none</alphatype>
						<pixelaspectratio>square</pixelaspectratio>
						<anamorphic>FALSE</anamorphic>
						<file id="file-10">
							<name>TKO_001_INT_Sh00100.mov</name>
							<pathurl>file://tri-stor01/Projects/TKO/SHOTS/_Refs_Movs_Burnin_FrameCounter/TKO_001_INT_Sh00100.mov</pathurl>
							<rate>
								<timebase>24</timebase>
								<ntsc>TRUE</ntsc>
							</rate>
							<duration>38</duration>
							<timecode>
								<rate>
									<timebase>24</timebase>
									<ntsc>TRUE</ntsc>
								</rate>
								<string>16:07:58:17</string>
								<frame>1393889</frame>
								<displayformat>NDF</displayformat>
								<reel>
									<name>A0180020</name>
								</reel>
							</timecode>
							<media>
								<video>
									<samplecharacteristics>
										<rate>
											<timebase>24</timebase>
											<ntsc>TRUE</ntsc>
										</rate>
										<width>4096</width>
										<height>2160</height>
										<anamorphic>FALSE</anamorphic>
										<pixelaspectratio>square</pixelaspectratio>
										<fielddominance>none</fielddominance>
									</samplecharacteristics>
								</video>
							</media>
						</file>
						<logginginfo>
							<description></description>
							<scene></scene>
							<shottake></shottake>
							<lognote></lognote>
							<good></good>
							<originalvideofilename></originalvideofilename>
							<originalaudiofilename></originalaudiofilename>
						</logginginfo>
						<colorinfo>
							<lut></lut>
							<lut1></lut1>
							<asc_sop></asc_sop>
							<asc_sat></asc_sat>
							<lut2></lut2>
						</colorinfo>
						<labels>
							<label2>Violet</label2>
						</labels>
					</clipitem>
					<clipitem id="clipitem-11">
						<masterclipid>masterclip-11</masterclipid>
						<name>TKO_001_INT_Sh00110.mov</name>
						<enabled>TRUE</enabled>
						<duration>18</duration>
						<rate>
							<timebase>24</timebase>
							<ntsc>TRUE</ntsc>
						</rate>
						<start>1033</start>
						<end>1043</end>
						<in>4</in>
						<out>14</out>
						<pproTicksIn>42378336000</pproTicksIn>
						<pproTicksOut>148324176000</pproTicksOut>
						<alphatype>none</alphatype>
						<pixelaspectratio>square</pixelaspectratio>
						<anamorphic>FALSE</anamorphic>
						<file id="file-11">
							<name>TKO_001_INT_Sh00110.mov</name>
							<pathurl>file://tri-stor01/Projects/TKO/SHOTS/_Refs_Movs_Burnin_FrameCounter/TKO_001_INT_Sh00110.mov</pathurl>
							<rate>
								<timebase>24</timebase>
								<ntsc>TRUE</ntsc>
							</rate>
							<duration>18</duration>
							<timecode>
								<rate>
									<timebase>24</timebase>
									<ntsc>TRUE</ntsc>
								</rate>
								<string>07:21:22:00</string>
								<frame>635568</frame>
								<displayformat>NDF</displayformat>
								<reel>
									<name>C0180004</name>
								</reel>
							</timecode>
							<media>
								<video>
									<samplecharacteristics>
										<rate>
											<timebase>24</timebase>
											<ntsc>TRUE</ntsc>
										</rate>
										<width>3840</width>
										<height>2160</height>
										<anamorphic>FALSE</anamorphic>
										<pixelaspectratio>square</pixelaspectratio>
										<fielddominance>none</fielddominance>
									</samplecharacteristics>
								</video>
							</media>
						</file>
						<logginginfo>
							<description></description>
							<scene></scene>
							<shottake></shottake>
							<lognote></lognote>
							<good></good>
							<originalvideofilename></originalvideofilename>
							<originalaudiofilename></originalaudiofilename>
						</logginginfo>
						<colorinfo>
							<lut></lut>
							<lut1></lut1>
							<asc_sop></asc_sop>
							<asc_sat></asc_sat>
							<lut2></lut2>
						</colorinfo>
						<labels>
							<label2>Violet</label2>
						</labels>
					</clipitem>
					<clipitem id="clipitem-12">
						<masterclipid>masterclip-12</masterclipid>
						<name>TKO_001_INT_Sh00120.mov</name>
						<enabled>TRUE</enabled>
						<duration>18</duration>
						<rate>
							<timebase>24</timebase>
							<ntsc>TRUE</ntsc>
						</rate>
						<start>1043</start>
						<end>1053</end>
						<in>4</in>
						<out>14</out>
						<pproTicksIn>42378336000</pproTicksIn>
						<pproTicksOut>148324176000</pproTicksOut>
						<alphatype>none</alphatype>
						<pixelaspectratio>square</pixelaspectratio>
						<anamorphic>FALSE</anamorphic>
						<file id="file-12">
							<name>TKO_001_INT_Sh00120.mov</name>
							<pathurl>file://tri-stor01/Projects/TKO/SHOTS/_Refs_Movs_Burnin_FrameCounter/TKO_001_INT_Sh00120.mov</pathurl>
							<rate>
								<timebase>24</timebase>
								<ntsc>TRUE</ntsc>
							</rate>
							<duration>18</duration>
							<timecode>
								<rate>
									<timebase>24</timebase>
									<ntsc>TRUE</ntsc>
								</rate>
								<string>07:23:47:19</string>
								<frame>639067</frame>
								<displayformat>NDF</displayformat>
								<reel>
									<name>C0180005</name>
								</reel>
							</timecode>
							<media>
								<video>
									<samplecharacteristics>
										<rate>
											<timebase>24</timebase>
											<ntsc>TRUE</ntsc>
										</rate>
										<width>3840</width>
										<height>2160</height>
										<anamorphic>FALSE</anamorphic>
										<pixelaspectratio>square</pixelaspectratio>
										<fielddominance>none</fielddominance>
									</samplecharacteristics>
								</video>
							</media>
						</file>
						<logginginfo>
							<description></description>
							<scene></scene>
							<shottake></shottake>
							<lognote></lognote>
							<good></good>
							<originalvideofilename></originalvideofilename>
							<originalaudiofilename></originalaudiofilename>
						</logginginfo>
						<colorinfo>
							<lut></lut>
							<lut1></lut1>
							<asc_sop></asc_sop>
							<asc_sat></asc_sat>
							<lut2></lut2>
						</colorinfo>
						<labels>
							<label2>Violet</label2>
						</labels>
					</clipitem>
					<clipitem id="clipitem-13">
						<masterclipid>masterclip-13</masterclipid>
						<name>TKO_001_INT_Sh00130.mov</name>
						<enabled>TRUE</enabled>
						<duration>14</duration>
						<rate>
							<timebase>24</timebase>
							<ntsc>TRUE</ntsc>
						</rate>
						<start>1053</start>
						<end>1059</end>
						<in>4</in>
						<out>10</out>
						<pproTicksIn>42378336000</pproTicksIn>
						<pproTicksOut>105945840000</pproTicksOut>
						<alphatype>none</alphatype>
						<pixelaspectratio>square</pixelaspectratio>
						<anamorphic>FALSE</anamorphic>
						<file id="file-13">
							<name>TKO_001_INT_Sh00130.mov</name>
							<pathurl>file://tri-stor01/Projects/TKO/SHOTS/_Refs_Movs_Burnin_FrameCounter/TKO_001_INT_Sh00130.mov</pathurl>
							<rate>
								<timebase>24</timebase>
								<ntsc>TRUE</ntsc>
							</rate>
							<duration>14</duration>
							<timecode>
								<rate>
									<timebase>24</timebase>
									<ntsc>TRUE</ntsc>
								</rate>
								<string>07:21:35:19</string>
								<frame>635899</frame>
								<displayformat>NDF</displayformat>
								<reel>
									<name>C0180004</name>
								</reel>
							</timecode>
							<media>
								<video>
									<samplecharacteristics>
										<rate>
											<timebase>24</timebase>
											<ntsc>TRUE</ntsc>
										</rate>
										<width>3840</width>
										<height>2160</height>
										<anamorphic>FALSE</anamorphic>
										<pixelaspectratio>square</pixelaspectratio>
										<fielddominance>none</fielddominance>
									</samplecharacteristics>
								</video>
							</media>
						</file>
						<logginginfo>
							<description></description>
							<scene></scene>
							<shottake></shottake>
							<lognote></lognote>
							<good></good>
							<originalvideofilename></originalvideofilename>
							<originalaudiofilename></originalaudiofilename>
						</logginginfo>
						<colorinfo>
							<lut></lut>
							<lut1></lut1>
							<asc_sop></asc_sop>
							<asc_sat></asc_sat>
							<lut2></lut2>
						</colorinfo>
						<labels>
							<label2>Violet</label2>
						</labels>
					</clipitem>
					<clipitem id="clipitem-14">
						<masterclipid>masterclip-14</masterclipid>
						<name>TKO_001_INT_Sh00140.mov</name>
						<enabled>TRUE</enabled>
						<duration>16</duration>
						<rate>
							<timebase>24</timebase>
							<ntsc>TRUE</ntsc>
						</rate>
						<start>1059</start>
						<end>1067</end>
						<in>4</in>
						<out>12</out>
						<pproTicksIn>42378336000</pproTicksIn>
						<pproTicksOut>127135008000</pproTicksOut>
						<alphatype>none</alphatype>
						<pixelaspectratio>square</pixelaspectratio>
						<anamorphic>FALSE</anamorphic>
						<file id="file-14">
							<name>TKO_001_INT_Sh00140.mov</name>
							<pathurl>file://tri-stor01/Projects/TKO/SHOTS/_Refs_Movs_Burnin_FrameCounter/TKO_001_INT_Sh00140.mov</pathurl>
							<rate>
								<timebase>24</timebase>
								<ntsc>TRUE</ntsc>
							</rate>
							<duration>16</duration>
							<timecode>
								<rate>
									<timebase>24</timebase>
									<ntsc>TRUE</ntsc>
								</rate>
								<string>16:08:01:20</string>
								<frame>1393964</frame>
								<displayformat>NDF</displayformat>
								<reel>
									<name>A0180020</name>
								</reel>
							</timecode>
							<media>
								<video>
									<samplecharacteristics>
										<rate>
											<timebase>24</timebase>
											<ntsc>TRUE</ntsc>
										</rate>
										<width>4096</width>
										<height>2160</height>
										<anamorphic>FALSE</anamorphic>
										<pixelaspectratio>square</pixelaspectratio>
										<fielddominance>none</fielddominance>
									</samplecharacteristics>
								</video>
							</media>
						</file>
							<marker>
								<comment></comment>
								<name></name>
								<in>4</in>
								<out>-1</out>
							</marker>
							<marker>
								<comment></comment>
								<name></name>
								<in>5</in>
								<out>-1</out>
							</marker>
						<logginginfo>
							<description></description>
							<scene></scene>
							<shottake></shottake>
							<lognote></lognote>
							<good></good>
							<originalvideofilename></originalvideofilename>
							<originalaudiofilename></originalaudiofilename>
						</logginginfo>
						<colorinfo>
							<lut></lut>
							<lut1></lut1>
							<asc_sop></asc_sop>
							<asc_sat></asc_sat>
							<lut2></lut2>
						</colorinfo>
						<labels>
							<label2>Violet</label2>
						</labels>
					</clipitem>
					<clipitem id="clipitem-15">
						<masterclipid>masterclip-15</masterclipid>
						<name>TKO_001_INT_Sh00150.mov</name>
						<enabled>TRUE</enabled>
						<duration>308</duration>
						<rate>
							<timebase>24</timebase>
							<ntsc>TRUE</ntsc>
						</rate>
						<start>1067</start>
						<end>1371</end>
						<in>4</in>
						<out>308</out>
						<pproTicksIn>42378336000</pproTicksIn>
						<pproTicksOut>3263131872000</pproTicksOut>
						<alphatype>none</alphatype>
						<pixelaspectratio>square</pixelaspectratio>
						<anamorphic>FALSE</anamorphic>
						<file id="file-15">
							<name>TKO_001_INT_Sh00150.mov</name>
							<pathurl>file://tri-stor01/Projects/TKO/SHOTS/_Refs_Movs_Burnin_FrameCounter/TKO_001_INT_Sh00150.mov</pathurl>
							<rate>
								<timebase>24</timebase>
								<ntsc>TRUE</ntsc>
							</rate>
							<duration>308</duration>
							<timecode>
								<rate>
									<timebase>24</timebase>
									<ntsc>TRUE</ntsc>
								</rate>
								<string>00:00:00:00</string>
								<frame>0</frame>
								<displayformat>NDF</displayformat>
							</timecode>
							<media>
								<video>
									<samplecharacteristics>
										<rate>
											<timebase>24</timebase>
											<ntsc>TRUE</ntsc>
										</rate>
										<width>4096</width>
										<height>2160</height>
										<anamorphic>FALSE</anamorphic>
										<pixelaspectratio>square</pixelaspectratio>
										<fielddominance>none</fielddominance>
									</samplecharacteristics>
								</video>
							</media>
						</file>
						<logginginfo>
							<description></description>
							<scene></scene>
							<shottake></shottake>
							<lognote></lognote>
							<good></good>
							<originalvideofilename></originalvideofilename>
							<originalaudiofilename></originalaudiofilename>
						</logginginfo>
						<colorinfo>
							<lut></lut>
							<lut1></lut1>
							<asc_sop></asc_sop>
							<asc_sat></asc_sat>
							<lut2></lut2>
						</colorinfo>
						<labels>
							<label2>Violet</label2>
						</labels>
					</clipitem>
					<clipitem id="clipitem-16">
						<masterclipid>masterclip-16</masterclipid>
						<name>Black Video</name>
						<enabled>TRUE</enabled>
						<duration>1035764</duration>
						<rate>
							<timebase>24</timebase>
							<ntsc>TRUE</ntsc>
						</rate>
						<start>1371</start>
						<end>1400</end>
						<in>86313</in>
						<out>86342</out>
						<pproTicksIn>914450328792000</pproTicksIn>
						<pproTicksOut>914757571728000</pproTicksOut>
						<alphatype>none</alphatype>
						<pixelaspectratio>square</pixelaspectratio>
						<anamorphic>FALSE</anamorphic>
						<file id="file-16">
							<name>Black Video</name>
							<mediaSource>Slug</mediaSource>
							<rate>
								<timebase>30</timebase>
								<ntsc>TRUE</ntsc>
							</rate>
							<timecode>
								<rate>
									<timebase>30</timebase>
									<ntsc>TRUE</ntsc>
								</rate>
								<string>00;00;00;00</string>
								<frame>0</frame>
								<displayformat>DF</displayformat>
							</timecode>
							<media>
								<video>
									<samplecharacteristics>
										<rate>
											<timebase>30</timebase>
											<ntsc>TRUE</ntsc>
										</rate>
										<width>4096</width>
										<height>2160</height>
										<anamorphic>FALSE</anamorphic>
										<pixelaspectratio>square</pixelaspectratio>
										<fielddominance>none</fielddominance>
									</samplecharacteristics>
								</video>
							</media>
						</file>
						<logginginfo>
							<description></description>
							<scene></scene>
							<shottake></shottake>
							<lognote></lognote>
							<good></good>
							<originalvideofilename></originalvideofilename>
							<originalaudiofilename></originalaudiofilename>
						</logginginfo>
						<colorinfo>
							<lut></lut>
							<lut1></lut1>
							<asc_sop></asc_sop>
							<asc_sat></asc_sat>
							<lut2></lut2>
						</colorinfo>
						<labels>
							<label2>Lavender</label2>
						</labels>
					</clipitem>
					<clipitem id="clipitem-17">
						<masterclipid>masterclip-17</masterclipid>
						<name>TKO_001_INT_Sh00160.mov</name>
						<enabled>TRUE</enabled>
						<duration>206</duration>
						<rate>
							<timebase>24</timebase>
							<ntsc>TRUE</ntsc>
						</rate>
						<start>1400</start>
						<end>1598</end>
						<in>4</in>
						<out>202</out>
						<pproTicksIn>42378336000</pproTicksIn>
						<pproTicksOut>2140105968000</pproTicksOut>
						<alphatype>none</alphatype>
						<pixelaspectratio>square</pixelaspectratio>
						<anamorphic>FALSE</anamorphic>
						<file id="file-17">
							<name>TKO_001_INT_Sh00160.mov</name>
							<pathurl>file://tri-stor01/Projects/TKO/SHOTS/_Refs_Movs_Burnin_FrameCounter/TKO_001_INT_Sh00160.mov</pathurl>
							<rate>
								<timebase>24</timebase>
								<ntsc>TRUE</ntsc>
							</rate>
							<duration>206</duration>
							<timecode>
								<rate>
									<timebase>24</timebase>
									<ntsc>TRUE</ntsc>
								</rate>
								<string>00:00:00:00</string>
								<frame>0</frame>
								<displayformat>NDF</displayformat>
							</timecode>
							<media>
								<video>
									<samplecharacteristics>
										<rate>
											<timebase>24</timebase>
											<ntsc>TRUE</ntsc>
										</rate>
										<width>4096</width>
										<height>2160</height>
										<anamorphic>FALSE</anamorphic>
										<pixelaspectratio>square</pixelaspectratio>
										<fielddominance>none</fielddominance>
									</samplecharacteristics>
								</video>
							</media>
						</file>
						<logginginfo>
							<description></description>
							<scene></scene>
							<shottake></shottake>
							<lognote></lognote>
							<good></good>
							<originalvideofilename></originalvideofilename>
							<originalaudiofilename></originalaudiofilename>
						</logginginfo>
						<colorinfo>
							<lut></lut>
							<lut1></lut1>
							<asc_sop></asc_sop>
							<asc_sat></asc_sat>
							<lut2></lut2>
						</colorinfo>
						<labels>
							<label2>Violet</label2>
						</labels>
					</clipitem>
					<clipitem id="clipitem-18">
						<masterclipid>masterclip-16</masterclipid>
						<name>Black Video</name>
						<enabled>TRUE</enabled>
						<duration>1035764</duration>
						<rate>
							<timebase>24</timebase>
							<ntsc>TRUE</ntsc>
						</rate>
						<start>1598</start>
						<end>1609</end>
						<in>86313</in>
						<out>86324</out>
						<pproTicksIn>914450328792000</pproTicksIn>
						<pproTicksOut>914566869216000</pproTicksOut>
						<alphatype>none</alphatype>
						<file id="file-16"/>
						<logginginfo>
							<description></description>
							<scene></scene>
							<shottake></shottake>
							<lognote></lognote>
							<good></good>
							<originalvideofilename></originalvideofilename>
							<originalaudiofilename></originalaudiofilename>
						</logginginfo>
						<colorinfo>
							<lut></lut>
							<lut1></lut1>
							<asc_sop></asc_sop>
							<asc_sat></asc_sat>
							<lut2></lut2>
						</colorinfo>
						<labels>
							<label2>Lavender</label2>
						</labels>
					</clipitem>
					<clipitem id="clipitem-19">
						<masterclipid>masterclip-18</masterclipid>
						<name>TKO_002_FAN_Sh00170.mov</name>
						<enabled>TRUE</enabled>
						<duration>148</duration>
						<rate>
							<timebase>24</timebase>
							<ntsc>TRUE</ntsc>
						</rate>
						<start>1609</start>
						<end>1676</end>
						<in>76</in>
						<out>143</out>
						<pproTicksIn>805188384000</pproTicksIn>
						<pproTicksOut>1515025512000</pproTicksOut>
						<alphatype>none</alphatype>
						<pixelaspectratio>square</pixelaspectratio>
						<anamorphic>FALSE</anamorphic>
						<file id="file-18">
							<name>TKO_002_FAN_Sh00170.mov</name>
							<pathurl>file://tri-stor01/Projects/TKO/SHOTS/_Refs_Movs_Burnin_FrameCounter/TKO_002_FAN_Sh00170.mov</pathurl>
							<rate>
								<timebase>24</timebase>
								<ntsc>TRUE</ntsc>
							</rate>
							<duration>148</duration>
							<timecode>
								<rate>
									<timebase>24</timebase>
									<ntsc>TRUE</ntsc>
								</rate>
								<string>00:00:50:14</string>
								<frame>1214</frame>
								<displayformat>NDF</displayformat>
							</timecode>
							<media>
								<video>
									<samplecharacteristics>
										<rate>
											<timebase>24</timebase>
											<ntsc>TRUE</ntsc>
										</rate>
										<width>1280</width>
										<height>720</height>
										<anamorphic>FALSE</anamorphic>
										<pixelaspectratio>square</pixelaspectratio>
										<fielddominance>none</fielddominance>
									</samplecharacteristics>
								</video>
							</media>
						</file>
						<logginginfo>
							<description></description>
							<scene></scene>
							<shottake></shottake>
							<lognote></lognote>
							<good></good>
							<originalvideofilename></originalvideofilename>
							<originalaudiofilename></originalaudiofilename>
						</logginginfo>
						<colorinfo>
							<lut></lut>
							<lut1></lut1>
							<asc_sop></asc_sop>
							<asc_sat></asc_sat>
							<lut2></lut2>
						</colorinfo>
						<labels>
							<label2>Violet</label2>
						</labels>
					</clipitem>
					<clipitem id="clipitem-20">
						<masterclipid>masterclip-19</masterclipid>
						<name>TKO_002_FAN_Sh00180.mov</name>
						<enabled>TRUE</enabled>
						<duration>58</duration>
						<rate>
							<timebase>24</timebase>
							<ntsc>TRUE</ntsc>
						</rate>
						<start>1676</start>
						<end>1727</end>
						<in>4</in>
						<out>55</out>
						<pproTicksIn>42378336000</pproTicksIn>
						<pproTicksOut>582702120000</pproTicksOut>
						<alphatype>none</alphatype>
						<pixelaspectratio>square</pixelaspectratio>
						<anamorphic>FALSE</anamorphic>
						<file id="file-19">
							<name>TKO_002_FAN_Sh00180.mov</name>
							<pathurl>file://tri-stor01/Projects/TKO/SHOTS/_Refs_Movs_Burnin_FrameCounter/TKO_002_FAN_Sh00180.mov</pathurl>
							<rate>
								<timebase>24</timebase>
								<ntsc>FALSE</ntsc>
							</rate>
							<duration>59</duration>
							<timecode>
								<rate>
									<timebase>24</timebase>
									<ntsc>FALSE</ntsc>
								</rate>
								<string>00:00:01:20</string>
								<frame>44</frame>
								<displayformat>NDF</displayformat>
							</timecode>
							<media>
								<video>
									<samplecharacteristics>
										<rate>
											<timebase>24</timebase>
											<ntsc>FALSE</ntsc>
										</rate>
										<width>1280</width>
										<height>720</height>
										<anamorphic>FALSE</anamorphic>
										<pixelaspectratio>square</pixelaspectratio>
										<fielddominance>none</fielddominance>
									</samplecharacteristics>
								</video>
							</media>
						</file>
						<logginginfo>
							<description></description>
							<scene></scene>
							<shottake></shottake>
							<lognote></lognote>
							<good></good>
							<originalvideofilename></originalvideofilename>
							<originalaudiofilename></originalaudiofilename>
						</logginginfo>
						<colorinfo>
							<lut></lut>
							<lut1></lut1>
							<asc_sop></asc_sop>
							<asc_sat></asc_sat>
							<lut2></lut2>
						</colorinfo>
						<labels>
							<label2>Violet</label2>
						</labels>
					</clipitem>
					<clipitem id="clipitem-21">
						<masterclipid>masterclip-20</masterclipid>
						<name>TKO_002_FAN_Sh00190.mov</name>
						<enabled>TRUE</enabled>
						<duration>66</duration>
						<rate>
							<timebase>24</timebase>
							<ntsc>TRUE</ntsc>
						</rate>
						<start>1727</start>
						<end>1786</end>
						<in>4</in>
						<out>63</out>
						<pproTicksIn>42378336000</pproTicksIn>
						<pproTicksOut>667458792000</pproTicksOut>
						<alphatype>none</alphatype>
						<pixelaspectratio>square</pixelaspectratio>
						<anamorphic>FALSE</anamorphic>
						<file id="file-20">
							<name>TKO_002_FAN_Sh00190.mov</name>
							<pathurl>file://tri-stor01/Projects/TKO/SHOTS/_Refs_Movs_Burnin_FrameCounter/TKO_002_FAN_Sh00190.mov</pathurl>
							<rate>
								<timebase>24</timebase>
								<ntsc>FALSE</ntsc>
							</rate>
							<duration>67</duration>
							<timecode>
								<rate>
									<timebase>24</timebase>
									<ntsc>FALSE</ntsc>
								</rate>
								<string>00:00:03:23</string>
								<frame>95</frame>
								<displayformat>NDF</displayformat>
							</timecode>
							<media>
								<video>
									<samplecharacteristics>
										<rate>
											<timebase>24</timebase>
											<ntsc>FALSE</ntsc>
										</rate>
										<width>1280</width>
										<height>720</height>
										<anamorphic>FALSE</anamorphic>
										<pixelaspectratio>square</pixelaspectratio>
										<fielddominance>none</fielddominance>
									</samplecharacteristics>
								</video>
							</media>
						</file>
						<logginginfo>
							<description></description>
							<scene></scene>
							<shottake></shottake>
							<lognote></lognote>
							<good></good>
							<originalvideofilename></originalvideofilename>
							<originalaudiofilename></originalaudiofilename>
						</logginginfo>
						<colorinfo>
							<lut></lut>
							<lut1></lut1>
							<asc_sop></asc_sop>
							<asc_sat></asc_sat>
							<lut2></lut2>
						</colorinfo>
						<labels>
							<label2>Violet</label2>
						</labels>
					</clipitem>
					<clipitem id="clipitem-22">
						<masterclipid>masterclip-21</masterclipid>
						<name>TKO_002_FAN_Sh00200.mov</name>
						<enabled>TRUE</enabled>
						<duration>59</duration>
						<rate>
							<timebase>24</timebase>
							<ntsc>TRUE</ntsc>
						</rate>
						<start>1786</start>
						<end>1838</end>
						<in>4</in>
						<out>56</out>
						<pproTicksIn>42378336000</pproTicksIn>
						<pproTicksOut>593296704000</pproTicksOut>
						<alphatype>none</alphatype>
						<pixelaspectratio>square</pixelaspectratio>
						<anamorphic>FALSE</anamorphic>
						<file id="file-21">
							<name>TKO_002_FAN_Sh00200.mov</name>
							<pathurl>file://tri-stor01/Projects/TKO/SHOTS/_Refs_Movs_Burnin_FrameCounter/TKO_002_FAN_Sh00200.mov</pathurl>
							<rate>
								<timebase>24</timebase>
								<ntsc>FALSE</ntsc>
							</rate>
							<duration>60</duration>
							<timecode>
								<rate>
									<timebase>24</timebase>
									<ntsc>FALSE</ntsc>
								</rate>
								<string>00:00:06:10</string>
								<frame>154</frame>
								<displayformat>NDF</displayformat>
							</timecode>
							<media>
								<video>
									<samplecharacteristics>
										<rate>
											<timebase>24</timebase>
											<ntsc>FALSE</ntsc>
										</rate>
										<width>1280</width>
										<height>720</height>
										<anamorphic>FALSE</anamorphic>
										<pixelaspectratio>square</pixelaspectratio>
										<fielddominance>none</fielddominance>
									</samplecharacteristics>
								</video>
							</media>
						</file>
						<logginginfo>
							<description></description>
							<scene></scene>
							<shottake></shottake>
							<lognote></lognote>
							<good></good>
							<originalvideofilename></originalvideofilename>
							<originalaudiofilename></originalaudiofilename>
						</logginginfo>
						<colorinfo>
							<lut></lut>
							<lut1></lut1>
							<asc_sop></asc_sop>
							<asc_sat></asc_sat>
							<lut2></lut2>
						</colorinfo>
						<labels>
							<label2>Violet</label2>
						</labels>
					</clipitem>
					<clipitem id="clipitem-23">
						<masterclipid>masterclip-22</masterclipid>
						<name>TKO_002_FAN_Sh00210.mov</name>
						<enabled>TRUE</enabled>
						<duration>75</duration>
						<rate>
							<timebase>24</timebase>
							<ntsc>TRUE</ntsc>
						</rate>
						<start>1838</start>
						<end>1906</end>
						<in>4</in>
						<out>72</out>
						<pproTicksIn>42378336000</pproTicksIn>
						<pproTicksOut>762810048000</pproTicksOut>
						<alphatype>none</alphatype>
						<pixelaspectratio>square</pixelaspectratio>
						<anamorphic>FALSE</anamorphic>
						<file id="file-22">
							<name>TKO_002_FAN_Sh00210.mov</name>
							<pathurl>file://tri-stor01/Projects/TKO/SHOTS/_Refs_Movs_Burnin_FrameCounter/TKO_002_FAN_Sh00210.mov</pathurl>
							<rate>
								<timebase>24</timebase>
								<ntsc>FALSE</ntsc>
							</rate>
							<duration>76</duration>
							<timecode>
								<rate>
									<timebase>24</timebase>
									<ntsc>FALSE</ntsc>
								</rate>
								<string>00:00:08:14</string>
								<frame>206</frame>
								<displayformat>NDF</displayformat>
							</timecode>
							<media>
								<video>
									<samplecharacteristics>
										<rate>
											<timebase>24</timebase>
											<ntsc>FALSE</ntsc>
										</rate>
										<width>1280</width>
										<height>720</height>
										<anamorphic>FALSE</anamorphic>
										<pixelaspectratio>square</pixelaspectratio>
										<fielddominance>none</fielddominance>
									</samplecharacteristics>
								</video>
							</media>
						</file>
						<logginginfo>
							<description></description>
							<scene></scene>
							<shottake></shottake>
							<lognote></lognote>
							<good></good>
							<originalvideofilename></originalvideofilename>
							<originalaudiofilename></originalaudiofilename>
						</logginginfo>
						<colorinfo>
							<lut></lut>
							<lut1></lut1>
							<asc_sop></asc_sop>
							<asc_sat></asc_sat>
							<lut2></lut2>
						</colorinfo>
						<labels>
							<label2>Violet</label2>
						</labels>
					</clipitem>
					<clipitem id="clipitem-24">
						<masterclipid>masterclip-23</masterclipid>
						<name>TKO_002_FAN_Sh00220.mov</name>
						<enabled>TRUE</enabled>
						<duration>86</duration>
						<rate>
							<timebase>24</timebase>
							<ntsc>TRUE</ntsc>
						</rate>
						<start>1906</start>
						<end>1985</end>
						<in>4</in>
						<out>83</out>
						<pproTicksIn>42378336000</pproTicksIn>
						<pproTicksOut>879350472000</pproTicksOut>
						<alphatype>none</alphatype>
						<pixelaspectratio>square</pixelaspectratio>
						<anamorphic>FALSE</anamorphic>
						<file id="file-23">
							<name>TKO_002_FAN_Sh00220.mov</name>
							<pathurl>file://tri-stor01/Projects/TKO/SHOTS/_Refs_Movs_Burnin_FrameCounter/TKO_002_FAN_Sh00220.mov</pathurl>
							<rate>
								<timebase>24</timebase>
								<ntsc>FALSE</ntsc>
							</rate>
							<duration>87</duration>
							<timecode>
								<rate>
									<timebase>24</timebase>
									<ntsc>FALSE</ntsc>
								</rate>
								<string>00:00:11:10</string>
								<frame>274</frame>
								<displayformat>NDF</displayformat>
							</timecode>
							<media>
								<video>
									<samplecharacteristics>
										<rate>
											<timebase>24</timebase>
											<ntsc>FALSE</ntsc>
										</rate>
										<width>1280</width>
										<height>720</height>
										<anamorphic>FALSE</anamorphic>
										<pixelaspectratio>square</pixelaspectratio>
										<fielddominance>none</fielddominance>
									</samplecharacteristics>
								</video>
							</media>
						</file>
						<logginginfo>
							<description></description>
							<scene></scene>
							<shottake></shottake>
							<lognote></lognote>
							<good></good>
							<originalvideofilename></originalvideofilename>
							<originalaudiofilename></originalaudiofilename>
						</logginginfo>
						<colorinfo>
							<lut></lut>
							<lut1></lut1>
							<asc_sop></asc_sop>
							<asc_sat></asc_sat>
							<lut2></lut2>
						</colorinfo>
						<labels>
							<label2>Violet</label2>
						</labels>
					</clipitem>
					<clipitem id="clipitem-25">
						<masterclipid>masterclip-24</masterclipid>
						<name>TKO_002_FAN_Sh00230.mov</name>
						<enabled>TRUE</enabled>
						<duration>77</duration>
						<rate>
							<timebase>24</timebase>
							<ntsc>TRUE</ntsc>
						</rate>
						<start>1985</start>
						<end>2055</end>
						<in>4</in>
						<out>74</out>
						<pproTicksIn>42378336000</pproTicksIn>
						<pproTicksOut>783999216000</pproTicksOut>
						<alphatype>none</alphatype>
						<pixelaspectratio>square</pixelaspectratio>
						<anamorphic>FALSE</anamorphic>
						<file id="file-24">
							<name>TKO_002_FAN_Sh00230.mov</name>
							<pathurl>file://tri-stor01/Projects/TKO/SHOTS/_Refs_Movs_Burnin_FrameCounter/TKO_002_FAN_Sh00230.mov</pathurl>
							<rate>
								<timebase>24</timebase>
								<ntsc>FALSE</ntsc>
							</rate>
							<duration>78</duration>
							<timecode>
								<rate>
									<timebase>24</timebase>
									<ntsc>FALSE</ntsc>
								</rate>
								<string>00:00:14:17</string>
								<frame>353</frame>
								<displayformat>NDF</displayformat>
							</timecode>
							<media>
								<video>
									<samplecharacteristics>
										<rate>
											<timebase>24</timebase>
											<ntsc>FALSE</ntsc>
										</rate>
										<width>1280</width>
										<height>720</height>
										<anamorphic>FALSE</anamorphic>
										<pixelaspectratio>square</pixelaspectratio>
										<fielddominance>none</fielddominance>
									</samplecharacteristics>
								</video>
							</media>
						</file>
						<logginginfo>
							<description></description>
							<scene></scene>
							<shottake></shottake>
							<lognote></lognote>
							<good></good>
							<originalvideofilename></originalvideofilename>
							<originalaudiofilename></originalaudiofilename>
						</logginginfo>
						<colorinfo>
							<lut></lut>
							<lut1></lut1>
							<asc_sop></asc_sop>
							<asc_sat></asc_sat>
							<lut2></lut2>
						</colorinfo>
						<labels>
							<label2>Violet</label2>
						</labels>
					</clipitem>
					<clipitem id="clipitem-26">
						<masterclipid>masterclip-25</masterclipid>
						<name>TKO_002_FAN_Sh00240.mov</name>
						<enabled>TRUE</enabled>
						<duration>100</duration>
						<rate>
							<timebase>24</timebase>
							<ntsc>TRUE</ntsc>
						</rate>
						<start>2055</start>
						<end>2151</end>
						<in>2</in>
						<out>98</out>
						<pproTicksIn>21189168000</pproTicksIn>
						<pproTicksOut>1038269232000</pproTicksOut>
						<alphatype>none</alphatype>
						<pixelaspectratio>square</pixelaspectratio>
						<anamorphic>FALSE</anamorphic>
						<file id="file-25">
							<name>TKO_002_FAN_Sh00240.mov</name>
							<pathurl>file://tri-stor01/Projects/TKO/SHOTS/_Refs_Movs_Burnin_FrameCounter/TKO_002_FAN_Sh00240.mov</pathurl>
							<rate>
								<timebase>24</timebase>
								<ntsc>FALSE</ntsc>
							</rate>
							<duration>101</duration>
							<timecode>
								<rate>
									<timebase>24</timebase>
									<ntsc>FALSE</ntsc>
								</rate>
								<string>00:00:17:15</string>
								<frame>423</frame>
								<displayformat>NDF</displayformat>
							</timecode>
							<media>
								<video>
									<samplecharacteristics>
										<rate>
											<timebase>24</timebase>
											<ntsc>FALSE</ntsc>
										</rate>
										<width>1280</width>
										<height>720</height>
										<anamorphic>FALSE</anamorphic>
										<pixelaspectratio>square</pixelaspectratio>
										<fielddominance>none</fielddominance>
									</samplecharacteristics>
								</video>
							</media>
						</file>
						<logginginfo>
							<description></description>
							<scene></scene>
							<shottake></shottake>
							<lognote></lognote>
							<good></good>
							<originalvideofilename></originalvideofilename>
							<originalaudiofilename></originalaudiofilename>
						</logginginfo>
						<colorinfo>
							<lut></lut>
							<lut1></lut1>
							<asc_sop></asc_sop>
							<asc_sat></asc_sat>
							<lut2></lut2>
						</colorinfo>
						<labels>
							<label2>Violet</label2>
						</labels>
					</clipitem>
					<clipitem id="clipitem-27">
						<masterclipid>masterclip-26</masterclipid>
						<name>TKO_002_FAN_Sh00250.mov</name>
						<enabled>TRUE</enabled>
						<duration>332</duration>
						<rate>
							<timebase>24</timebase>
							<ntsc>TRUE</ntsc>
						</rate>
						<start>2151</start>
						<end>2475</end>
						<in>4</in>
						<out>328</out>
						<pproTicksIn>42378336000</pproTicksIn>
						<pproTicksOut>3475023552000</pproTicksOut>
						<alphatype>none</alphatype>
						<pixelaspectratio>square</pixelaspectratio>
						<anamorphic>FALSE</anamorphic>
						<file id="file-26">
							<name>TKO_002_FAN_Sh00250.mov</name>
							<pathurl>file://tri-stor01/Projects/TKO/SHOTS/_Refs_Movs_Burnin_FrameCounter/TKO_002_FAN_Sh00250.mov</pathurl>
							<rate>
								<timebase>24</timebase>
								<ntsc>TRUE</ntsc>
							</rate>
							<duration>332</duration>
							<timecode>
								<rate>
									<timebase>24</timebase>
									<ntsc>TRUE</ntsc>
								</rate>
								<string>12:11:45:21</string>
								<frame>1053741</frame>
								<displayformat>NDF</displayformat>
								<reel>
									<name>A0110009</name>
								</reel>
							</timecode>
							<media>
								<video>
									<samplecharacteristics>
										<rate>
											<timebase>24</timebase>
											<ntsc>TRUE</ntsc>
										</rate>
										<width>4096</width>
										<height>2160</height>
										<anamorphic>FALSE</anamorphic>
										<pixelaspectratio>square</pixelaspectratio>
										<fielddominance>none</fielddominance>
									</samplecharacteristics>
								</video>
							</media>
						</file>
						<logginginfo>
							<description></description>
							<scene></scene>
							<shottake></shottake>
							<lognote></lognote>
							<good></good>
							<originalvideofilename></originalvideofilename>
							<originalaudiofilename></originalaudiofilename>
						</logginginfo>
						<colorinfo>
							<lut></lut>
							<lut1></lut1>
							<asc_sop></asc_sop>
							<asc_sat></asc_sat>
							<lut2></lut2>
						</colorinfo>
						<labels>
							<label2>Violet</label2>
						</labels>
					</clipitem>
					<clipitem id="clipitem-28">
						<masterclipid>masterclip-27</masterclipid>
						<name>TKO_002_FAN_Sh00260.mov</name>
						<enabled>TRUE</enabled>
						<duration>368</duration>
						<rate>
							<timebase>24</timebase>
							<ntsc>TRUE</ntsc>
						</rate>
						<start>2475</start>
						<end>2835</end>
						<in>4</in>
						<out>364</out>
						<pproTicksIn>42378336000</pproTicksIn>
						<pproTicksOut>3856428576000</pproTicksOut>
						<alphatype>none</alphatype>
						<pixelaspectratio>square</pixelaspectratio>
						<anamorphic>FALSE</anamorphic>
						<file id="file-27">
							<name>TKO_002_FAN_Sh00260.mov</name>
							<pathurl>file://tri-stor01/Projects/TKO/SHOTS/_Refs_Movs_Burnin_FrameCounter/TKO_002_FAN_Sh00260.mov</pathurl>
							<rate>
								<timebase>24</timebase>
								<ntsc>TRUE</ntsc>
							</rate>
							<duration>368</duration>
							<timecode>
								<rate>
									<timebase>24</timebase>
									<ntsc>TRUE</ntsc>
								</rate>
								<string>13:10:11:16</string>
								<frame>1137880</frame>
								<displayformat>NDF</displayformat>
								<reel>
									<name>A0110012</name>
								</reel>
							</timecode>
							<media>
								<video>
									<samplecharacteristics>
										<rate>
											<timebase>24</timebase>
											<ntsc>TRUE</ntsc>
										</rate>
										<width>4096</width>
										<height>2160</height>
										<anamorphic>FALSE</anamorphic>
										<pixelaspectratio>square</pixelaspectratio>
										<fielddominance>none</fielddominance>
									</samplecharacteristics>
								</video>
							</media>
						</file>
						<logginginfo>
							<description></description>
							<scene></scene>
							<shottake></shottake>
							<lognote></lognote>
							<good></good>
							<originalvideofilename></originalvideofilename>
							<originalaudiofilename></originalaudiofilename>
						</logginginfo>
						<colorinfo>
							<lut></lut>
							<lut1></lut1>
							<asc_sop></asc_sop>
							<asc_sat></asc_sat>
							<lut2></lut2>
						</colorinfo>
						<labels>
							<label2>Violet</label2>
						</labels>
					</clipitem>
					<clipitem id="clipitem-29">
						<masterclipid>masterclip-28</masterclipid>
						<name>TKO_002_FAN_Sh00270.mov</name>
						<enabled>TRUE</enabled>
						<duration>113</duration>
						<rate>
							<timebase>24</timebase>
							<ntsc>TRUE</ntsc>
						</rate>
						<start>2835</start>
						<end>2940</end>
						<in>4</in>
						<out>109</out>
						<pproTicksIn>42378336000</pproTicksIn>
						<pproTicksOut>1154809656000</pproTicksOut>
						<alphatype>none</alphatype>
						<pixelaspectratio>square</pixelaspectratio>
						<anamorphic>FALSE</anamorphic>
						<file id="file-28">
							<name>TKO_002_FAN_Sh00270.mov</name>
							<pathurl>file://tri-stor01/Projects/TKO/SHOTS/_Refs_Movs_Burnin_FrameCounter/TKO_002_FAN_Sh00270.mov</pathurl>
							<rate>
								<timebase>24</timebase>
								<ntsc>TRUE</ntsc>
							</rate>
							<duration>113</duration>
							<timecode>
								<rate>
									<timebase>24</timebase>
									<ntsc>TRUE</ntsc>
								</rate>
								<string>13:10:27:21</string>
								<frame>1138269</frame>
								<displayformat>NDF</displayformat>
								<reel>
									<name>B0080008</name>
								</reel>
							</timecode>
							<media>
								<video>
									<samplecharacteristics>
										<rate>
											<timebase>24</timebase>
											<ntsc>TRUE</ntsc>
										</rate>
										<width>4096</width>
										<height>2160</height>
										<anamorphic>FALSE</anamorphic>
										<pixelaspectratio>square</pixelaspectratio>
										<fielddominance>none</fielddominance>
									</samplecharacteristics>
								</video>
							</media>
						</file>
						<logginginfo>
							<description></description>
							<scene></scene>
							<shottake></shottake>
							<lognote></lognote>
							<good></good>
							<originalvideofilename></originalvideofilename>
							<originalaudiofilename></originalaudiofilename>
						</logginginfo>
						<colorinfo>
							<lut></lut>
							<lut1></lut1>
							<asc_sop></asc_sop>
							<asc_sat></asc_sat>
							<lut2></lut2>
						</colorinfo>
						<labels>
							<label2>Violet</label2>
						</labels>
					</clipitem>
					<clipitem id="clipitem-30">
						<masterclipid>masterclip-29</masterclipid>
						<name>TKO_002_FAN_Sh00280.mov</name>
						<enabled>TRUE</enabled>
						<duration>51</duration>
						<rate>
							<timebase>24</timebase>
							<ntsc>TRUE</ntsc>
						</rate>
						<start>2940</start>
						<end>2983</end>
						<in>4</in>
						<out>47</out>
						<pproTicksIn>42378336000</pproTicksIn>
						<pproTicksOut>497945448000</pproTicksOut>
						<alphatype>none</alphatype>
						<pixelaspectratio>square</pixelaspectratio>
						<anamorphic>FALSE</anamorphic>
						<file id="file-29">
							<name>TKO_002_FAN_Sh00280.mov</name>
							<pathurl>file://tri-stor01/Projects/TKO/SHOTS/_Refs_Movs_Burnin_FrameCounter/TKO_002_FAN_Sh00280.mov</pathurl>
							<rate>
								<timebase>24</timebase>
								<ntsc>TRUE</ntsc>
							</rate>
							<duration>51</duration>
							<timecode>
								<rate>
									<timebase>24</timebase>
									<ntsc>TRUE</ntsc>
								</rate>
								<string>00:02:15:20</string>
								<frame>3260</frame>
								<displayformat>NDF</displayformat>
							</timecode>
							<media>
								<video>
									<samplecharacteristics>
										<rate>
											<timebase>24</timebase>
											<ntsc>TRUE</ntsc>
										</rate>
										<width>1280</width>
										<height>720</height>
										<anamorphic>FALSE</anamorphic>
										<pixelaspectratio>square</pixelaspectratio>
										<fielddominance>none</fielddominance>
									</samplecharacteristics>
								</video>
							</media>
						</file>
						<logginginfo>
							<description></description>
							<scene></scene>
							<shottake></shottake>
							<lognote></lognote>
							<good></good>
							<originalvideofilename></originalvideofilename>
							<originalaudiofilename></originalaudiofilename>
						</logginginfo>
						<colorinfo>
							<lut></lut>
							<lut1></lut1>
							<asc_sop></asc_sop>
							<asc_sat></asc_sat>
							<lut2></lut2>
						</colorinfo>
						<labels>
							<label2>Violet</label2>
						</labels>
					</clipitem>
					<clipitem id="clipitem-31">
						<masterclipid>masterclip-30</masterclipid>
						<name>TKO_002_FAN_Sh00290.mov</name>
						<enabled>TRUE</enabled>
						<duration>80</duration>
						<rate>
							<timebase>24</timebase>
							<ntsc>TRUE</ntsc>
						</rate>
						<start>2983</start>
						<end>3055</end>
						<in>4</in>
						<out>76</out>
						<pproTicksIn>42378336000</pproTicksIn>
						<pproTicksOut>805188384000</pproTicksOut>
						<alphatype>none</alphatype>
						<pixelaspectratio>square</pixelaspectratio>
						<anamorphic>FALSE</anamorphic>
						<file id="file-30">
							<name>TKO_002_FAN_Sh00290.mov</name>
							<pathurl>file://tri-stor01/Projects/TKO/SHOTS/_Refs_Movs_Burnin_FrameCounter/TKO_002_FAN_Sh00290.mov</pathurl>
							<rate>
								<timebase>24</timebase>
								<ntsc>TRUE</ntsc>
							</rate>
							<duration>80</duration>
							<timecode>
								<rate>
									<timebase>24</timebase>
									<ntsc>TRUE</ntsc>
								</rate>
								<string>15:33:41:13</string>
								<frame>1344517</frame>
								<displayformat>NDF</displayformat>
								<reel>
									<name>A0510015</name>
								</reel>
							</timecode>
							<media>
								<video>
									<samplecharacteristics>
										<rate>
											<timebase>24</timebase>
											<ntsc>TRUE</ntsc>
										</rate>
										<width>4096</width>
										<height>2160</height>
										<anamorphic>FALSE</anamorphic>
										<pixelaspectratio>square</pixelaspectratio>
										<fielddominance>none</fielddominance>
									</samplecharacteristics>
								</video>
							</media>
						</file>
						<logginginfo>
							<description></description>
							<scene></scene>
							<shottake></shottake>
							<lognote></lognote>
							<good></good>
							<originalvideofilename></originalvideofilename>
							<originalaudiofilename></originalaudiofilename>
						</logginginfo>
						<colorinfo>
							<lut></lut>
							<lut1></lut1>
							<asc_sop></asc_sop>
							<asc_sat></asc_sat>
							<lut2></lut2>
						</colorinfo>
						<labels>
							<label2>Violet</label2>
						</labels>
					</clipitem>
					<clipitem id="clipitem-32">
						<masterclipid>masterclip-31</masterclipid>
						<name>TKO_002_FAN_Sh00300.mov</name>
						<enabled>TRUE</enabled>
						<duration>60</duration>
						<rate>
							<timebase>24</timebase>
							<ntsc>TRUE</ntsc>
						</rate>
						<start>3055</start>
						<end>3107</end>
						<in>4</in>
						<out>56</out>
						<pproTicksIn>42378336000</pproTicksIn>
						<pproTicksOut>593296704000</pproTicksOut>
						<alphatype>none</alphatype>
						<pixelaspectratio>square</pixelaspectratio>
						<anamorphic>FALSE</anamorphic>
						<file id="file-31">
							<name>TKO_002_FAN_Sh00300.mov</name>
							<pathurl>file://tri-stor01/Projects/TKO/SHOTS/_Refs_Movs_Burnin_FrameCounter/TKO_002_FAN_Sh00300.mov</pathurl>
							<rate>
								<timebase>24</timebase>
								<ntsc>TRUE</ntsc>
							</rate>
							<duration>60</duration>
							<timecode>
								<rate>
									<timebase>24</timebase>
									<ntsc>TRUE</ntsc>
								</rate>
								<string>15:33:44:13</string>
								<frame>1344589</frame>
								<displayformat>NDF</displayformat>
								<reel>
									<name>B0440014</name>
								</reel>
							</timecode>
							<media>
								<video>
									<samplecharacteristics>
										<rate>
											<timebase>24</timebase>
											<ntsc>TRUE</ntsc>
										</rate>
										<width>4096</width>
										<height>2160</height>
										<anamorphic>FALSE</anamorphic>
										<pixelaspectratio>square</pixelaspectratio>
										<fielddominance>none</fielddominance>
									</samplecharacteristics>
								</video>
							</media>
						</file>
						<logginginfo>
							<description></description>
							<scene></scene>
							<shottake></shottake>
							<lognote></lognote>
							<good></good>
							<originalvideofilename></originalvideofilename>
							<originalaudiofilename></originalaudiofilename>
						</logginginfo>
						<colorinfo>
							<lut></lut>
							<lut1></lut1>
							<asc_sop></asc_sop>
							<asc_sat></asc_sat>
							<lut2></lut2>
						</colorinfo>
						<labels>
							<label2>Violet</label2>
						</labels>
					</clipitem>
					<clipitem id="clipitem-33">
						<masterclipid>masterclip-32</masterclipid>
						<name>TKO_002_FAN_Sh00310.mov</name>
						<enabled>TRUE</enabled>
						<duration>51</duration>
						<rate>
							<timebase>24</timebase>
							<ntsc>TRUE</ntsc>
						</rate>
						<start>3107</start>
						<end>3150</end>
						<in>4</in>
						<out>47</out>
						<pproTicksIn>42378336000</pproTicksIn>
						<pproTicksOut>497945448000</pproTicksOut>
						<alphatype>none</alphatype>
						<pixelaspectratio>square</pixelaspectratio>
						<anamorphic>FALSE</anamorphic>
						<file id="file-32">
							<name>TKO_002_FAN_Sh00310.mov</name>
							<pathurl>file://tri-stor01/Projects/TKO/SHOTS/_Refs_Movs_Burnin_FrameCounter/TKO_002_FAN_Sh00310.mov</pathurl>
							<rate>
								<timebase>24</timebase>
								<ntsc>TRUE</ntsc>
							</rate>
							<duration>51</duration>
							<timecode>
								<rate>
									<timebase>24</timebase>
									<ntsc>TRUE</ntsc>
								</rate>
								<string>15:33:46:17</string>
								<frame>1344641</frame>
								<displayformat>NDF</displayformat>
								<reel>
									<name>A0510015</name>
								</reel>
							</timecode>
							<media>
								<video>
									<samplecharacteristics>
										<rate>
											<timebase>24</timebase>
											<ntsc>TRUE</ntsc>
										</rate>
										<width>4096</width>
										<height>2160</height>
										<anamorphic>FALSE</anamorphic>
										<pixelaspectratio>square</pixelaspectratio>
										<fielddominance>none</fielddominance>
									</samplecharacteristics>
								</video>
							</media>
						</file>
						<logginginfo>
							<description></description>
							<scene></scene>
							<shottake></shottake>
							<lognote></lognote>
							<good></good>
							<originalvideofilename></originalvideofilename>
							<originalaudiofilename></originalaudiofilename>
						</logginginfo>
						<colorinfo>
							<lut></lut>
							<lut1></lut1>
							<asc_sop></asc_sop>
							<asc_sat></asc_sat>
							<lut2></lut2>
						</colorinfo>
						<labels>
							<label2>Violet</label2>
						</labels>
					</clipitem>
					<clipitem id="clipitem-34">
						<masterclipid>masterclip-33</masterclipid>
						<name>TKO_002_FAN_Sh00320.mov</name>
						<enabled>TRUE</enabled>
						<duration>71</duration>
						<rate>
							<timebase>24</timebase>
							<ntsc>TRUE</ntsc>
						</rate>
						<start>3150</start>
						<end>3214</end>
						<in>4</in>
						<out>68</out>
						<pproTicksIn>42378336000</pproTicksIn>
						<pproTicksOut>720431712000</pproTicksOut>
						<alphatype>none</alphatype>
						<pixelaspectratio>square</pixelaspectratio>
						<anamorphic>FALSE</anamorphic>
						<file id="file-33">
							<name>TKO_002_FAN_Sh00320.mov</name>
							<pathurl>file://tri-stor01/Projects/TKO/SHOTS/_Refs_Movs_Burnin_FrameCounter/TKO_002_FAN_Sh00320.mov</pathurl>
							<rate>
								<timebase>24</timebase>
								<ntsc>FALSE</ntsc>
							</rate>
							<duration>72</duration>
							<timecode>
								<rate>
									<timebase>24</timebase>
									<ntsc>FALSE</ntsc>
								</rate>
								<string>00:00:05:14</string>
								<frame>134</frame>
								<displayformat>NDF</displayformat>
							</timecode>
							<media>
								<video>
									<samplecharacteristics>
										<rate>
											<timebase>24</timebase>
											<ntsc>FALSE</ntsc>
										</rate>
										<width>1280</width>
										<height>720</height>
										<anamorphic>FALSE</anamorphic>
										<pixelaspectratio>square</pixelaspectratio>
										<fielddominance>none</fielddominance>
									</samplecharacteristics>
								</video>
							</media>
						</file>
						<logginginfo>
							<description></description>
							<scene></scene>
							<shottake></shottake>
							<lognote></lognote>
							<good></good>
							<originalvideofilename></originalvideofilename>
							<originalaudiofilename></originalaudiofilename>
						</logginginfo>
						<colorinfo>
							<lut></lut>
							<lut1></lut1>
							<asc_sop></asc_sop>
							<asc_sat></asc_sat>
							<lut2></lut2>
						</colorinfo>
						<labels>
							<label2>Violet</label2>
						</labels>
					</clipitem>
					<clipitem id="clipitem-35">
						<masterclipid>masterclip-34</masterclipid>
						<name>TKO_002_FAN_Sh00330.mov</name>
						<enabled>TRUE</enabled>
						<duration>40</duration>
						<rate>
							<timebase>24</timebase>
							<ntsc>TRUE</ntsc>
						</rate>
						<start>3214</start>
						<end>3246</end>
						<in>4</in>
						<out>36</out>
						<pproTicksIn>42378336000</pproTicksIn>
						<pproTicksOut>381405024000</pproTicksOut>
						<alphatype>none</alphatype>
						<pixelaspectratio>square</pixelaspectratio>
						<anamorphic>FALSE</anamorphic>
						<file id="file-34">
							<name>TKO_002_FAN_Sh00330.mov</name>
							<pathurl>file://tri-stor01/Projects/TKO/SHOTS/_Refs_Movs_Burnin_FrameCounter/TKO_002_FAN_Sh00330.mov</pathurl>
							<rate>
								<timebase>24</timebase>
								<ntsc>TRUE</ntsc>
							</rate>
							<duration>40</duration>
							<timecode>
								<rate>
									<timebase>24</timebase>
									<ntsc>TRUE</ntsc>
								</rate>
								<string>00:00:00:00</string>
								<frame>0</frame>
								<displayformat>NDF</displayformat>
							</timecode>
							<media>
								<video>
									<samplecharacteristics>
										<rate>
											<timebase>24</timebase>
											<ntsc>TRUE</ntsc>
										</rate>
										<width>4096</width>
										<height>2160</height>
										<anamorphic>FALSE</anamorphic>
										<pixelaspectratio>square</pixelaspectratio>
										<fielddominance>none</fielddominance>
									</samplecharacteristics>
								</video>
							</media>
						</file>
						<logginginfo>
							<description></description>
							<scene></scene>
							<shottake></shottake>
							<lognote></lognote>
							<good></good>
							<originalvideofilename></originalvideofilename>
							<originalaudiofilename></originalaudiofilename>
						</logginginfo>
						<colorinfo>
							<lut></lut>
							<lut1></lut1>
							<asc_sop></asc_sop>
							<asc_sat></asc_sat>
							<lut2></lut2>
						</colorinfo>
						<labels>
							<label2>Violet</label2>
						</labels>
					</clipitem>
					<clipitem id="clipitem-36">
						<masterclipid>masterclip-35</masterclipid>
						<name>TKO_002_FAN_Sh00340.mov</name>
						<enabled>TRUE</enabled>
						<duration>96</duration>
						<rate>
							<timebase>24</timebase>
							<ntsc>TRUE</ntsc>
						</rate>
						<start>3246</start>
						<end>3334</end>
						<in>4</in>
						<out>92</out>
						<pproTicksIn>42378336000</pproTicksIn>
						<pproTicksOut>974701728000</pproTicksOut>
						<alphatype>none</alphatype>
						<pixelaspectratio>square</pixelaspectratio>
						<anamorphic>FALSE</anamorphic>
						<file id="file-35">
							<name>TKO_002_FAN_Sh00340.mov</name>
							<pathurl>file://tri-stor01/Projects/TKO/SHOTS/_Refs_Movs_Burnin_FrameCounter/TKO_002_FAN_Sh00340.mov</pathurl>
							<rate>
								<timebase>24</timebase>
								<ntsc>TRUE</ntsc>
							</rate>
							<duration>96</duration>
							<timecode>
								<rate>
									<timebase>24</timebase>
									<ntsc>TRUE</ntsc>
								</rate>
								<string>13:10:25:12</string>
								<frame>1138212</frame>
								<displayformat>NDF</displayformat>
								<reel>
									<name>C0330002</name>
								</reel>
							</timecode>
							<media>
								<video>
									<samplecharacteristics>
										<rate>
											<timebase>24</timebase>
											<ntsc>TRUE</ntsc>
										</rate>
										<width>3840</width>
										<height>2160</height>
										<anamorphic>FALSE</anamorphic>
										<pixelaspectratio>square</pixelaspectratio>
										<fielddominance>none</fielddominance>
									</samplecharacteristics>
								</video>
							</media>
						</file>
						<logginginfo>
							<description></description>
							<scene></scene>
							<shottake></shottake>
							<lognote></lognote>
							<good></good>
							<originalvideofilename></originalvideofilename>
							<originalaudiofilename></originalaudiofilename>
						</logginginfo>
						<colorinfo>
							<lut></lut>
							<lut1></lut1>
							<asc_sop></asc_sop>
							<asc_sat></asc_sat>
							<lut2></lut2>
						</colorinfo>
						<labels>
							<label2>Violet</label2>
						</labels>
					</clipitem>
					<clipitem id="clipitem-37">
						<masterclipid>masterclip-36</masterclipid>
						<name>TKO_002_FAN_Sh00350.mov</name>
						<enabled>TRUE</enabled>
						<duration>116</duration>
						<rate>
							<timebase>24</timebase>
							<ntsc>TRUE</ntsc>
						</rate>
						<start>3334</start>
						<end>3447</end>
						<in>4</in>
						<out>117</out>
						<pproTicksIn>42378336000</pproTicksIn>
						<pproTicksOut>1239566328000</pproTicksOut>
						<alphatype>none</alphatype>
						<pixelaspectratio>square</pixelaspectratio>
						<anamorphic>FALSE</anamorphic>
						<file id="file-36">
							<name>TKO_002_FAN_Sh00350.mov</name>
							<pathurl>file://tri-stor01/Projects/TKO/SHOTS/_Refs_Movs_Burnin_FrameCounter/TKO_002_FAN_Sh00350.mov</pathurl>
							<rate>
								<timebase>24</timebase>
								<ntsc>FALSE</ntsc>
							</rate>
							<duration>117</duration>
							<timecode>
								<rate>
									<timebase>24</timebase>
									<ntsc>FALSE</ntsc>
								</rate>
								<string>00:00:09:23</string>
								<frame>239</frame>
								<displayformat>NDF</displayformat>
							</timecode>
							<media>
								<video>
									<samplecharacteristics>
										<rate>
											<timebase>24</timebase>
											<ntsc>FALSE</ntsc>
										</rate>
										<width>1280</width>
										<height>720</height>
										<anamorphic>FALSE</anamorphic>
										<pixelaspectratio>square</pixelaspectratio>
										<fielddominance>none</fielddominance>
									</samplecharacteristics>
								</video>
							</media>
						</file>
						<logginginfo>
							<description></description>
							<scene></scene>
							<shottake></shottake>
							<lognote></lognote>
							<good></good>
							<originalvideofilename></originalvideofilename>
							<originalaudiofilename></originalaudiofilename>
						</logginginfo>
						<colorinfo>
							<lut></lut>
							<lut1></lut1>
							<asc_sop></asc_sop>
							<asc_sat></asc_sat>
							<lut2></lut2>
						</colorinfo>
						<labels>
							<label2>Violet</label2>
						</labels>
					</clipitem>
					<clipitem id="clipitem-38">
						<masterclipid>masterclip-37</masterclipid>
						<name>TKO_002_FAN_Sh00360.mov</name>
						<enabled>TRUE</enabled>
						<duration>128</duration>
						<rate>
							<timebase>24</timebase>
							<ntsc>TRUE</ntsc>
						</rate>
						<start>3447</start>
						<end>3568</end>
						<in>4</in>
						<out>125</out>
						<pproTicksIn>42378336000</pproTicksIn>
						<pproTicksOut>1324323000000</pproTicksOut>
						<alphatype>none</alphatype>
						<pixelaspectratio>square</pixelaspectratio>
						<anamorphic>FALSE</anamorphic>
						<file id="file-37">
							<name>TKO_002_FAN_Sh00360.mov</name>
							<pathurl>file://tri-stor01/Projects/TKO/SHOTS/_Refs_Movs_Burnin_FrameCounter/TKO_002_FAN_Sh00360.mov</pathurl>
							<rate>
								<timebase>24</timebase>
								<ntsc>FALSE</ntsc>
							</rate>
							<duration>129</duration>
							<timecode>
								<rate>
									<timebase>24</timebase>
									<ntsc>FALSE</ntsc>
								</rate>
								<string>00:00:02:01</string>
								<frame>49</frame>
								<displayformat>NDF</displayformat>
							</timecode>
							<media>
								<video>
									<samplecharacteristics>
										<rate>
											<timebase>24</timebase>
											<ntsc>FALSE</ntsc>
										</rate>
										<width>1280</width>
										<height>720</height>
										<anamorphic>FALSE</anamorphic>
										<pixelaspectratio>square</pixelaspectratio>
										<fielddominance>none</fielddominance>
									</samplecharacteristics>
								</video>
							</media>
						</file>
						<logginginfo>
							<description></description>
							<scene></scene>
							<shottake></shottake>
							<lognote></lognote>
							<good></good>
							<originalvideofilename></originalvideofilename>
							<originalaudiofilename></originalaudiofilename>
						</logginginfo>
						<colorinfo>
							<lut></lut>
							<lut1></lut1>
							<asc_sop></asc_sop>
							<asc_sat></asc_sat>
							<lut2></lut2>
						</colorinfo>
						<labels>
							<label2>Violet</label2>
						</labels>
					</clipitem>
					<clipitem id="clipitem-39">
						<masterclipid>masterclip-38</masterclipid>
						<name>TKO_002_FAN_Sh00370.mov</name>
						<enabled>TRUE</enabled>
						<duration>34</duration>
						<rate>
							<timebase>24</timebase>
							<ntsc>TRUE</ntsc>
						</rate>
						<start>3568</start>
						<end>3594</end>
						<in>4</in>
						<out>30</out>
						<pproTicksIn>42378336000</pproTicksIn>
						<pproTicksOut>317837520000</pproTicksOut>
						<alphatype>none</alphatype>
						<pixelaspectratio>square</pixelaspectratio>
						<anamorphic>FALSE</anamorphic>
						<file id="file-38">
							<name>TKO_002_FAN_Sh00370.mov</name>
							<pathurl>file://tri-stor01/Projects/TKO/SHOTS/_Refs_Movs_Burnin_FrameCounter/TKO_002_FAN_Sh00370.mov</pathurl>
							<rate>
								<timebase>24</timebase>
								<ntsc>TRUE</ntsc>
							</rate>
							<duration>34</duration>
							<timecode>
								<rate>
									<timebase>24</timebase>
									<ntsc>TRUE</ntsc>
								</rate>
								<string>13:23:34:19</string>
								<frame>1157155</frame>
								<displayformat>NDF</displayformat>
								<reel>
									<name>C0340009</name>
								</reel>
							</timecode>
							<media>
								<video>
									<samplecharacteristics>
										<rate>
											<timebase>24</timebase>
											<ntsc>TRUE</ntsc>
										</rate>
										<width>3840</width>
										<height>2160</height>
										<anamorphic>FALSE</anamorphic>
										<pixelaspectratio>square</pixelaspectratio>
										<fielddominance>none</fielddominance>
									</samplecharacteristics>
								</video>
							</media>
						</file>
						<logginginfo>
							<description></description>
							<scene></scene>
							<shottake></shottake>
							<lognote></lognote>
							<good></good>
							<originalvideofilename></originalvideofilename>
							<originalaudiofilename></originalaudiofilename>
						</logginginfo>
						<colorinfo>
							<lut></lut>
							<lut1></lut1>
							<asc_sop></asc_sop>
							<asc_sat></asc_sat>
							<lut2></lut2>
						</colorinfo>
						<labels>
							<label2>Violet</label2>
						</labels>
					</clipitem>
					<clipitem id="clipitem-40">
						<masterclipid>masterclip-39</masterclipid>
						<name>TKO_002_FAN_Sh00380.mov</name>
						<enabled>TRUE</enabled>
						<duration>28</duration>
						<rate>
							<timebase>24</timebase>
							<ntsc>TRUE</ntsc>
						</rate>
						<start>3594</start>
						<end>3614</end>
						<in>4</in>
						<out>24</out>
						<pproTicksIn>42378336000</pproTicksIn>
						<pproTicksOut>254270016000</pproTicksOut>
						<alphatype>none</alphatype>
						<pixelaspectratio>square</pixelaspectratio>
						<anamorphic>FALSE</anamorphic>
						<file id="file-39">
							<name>TKO_002_FAN_Sh00380.mov</name>
							<pathurl>file://tri-stor01/Projects/TKO/SHOTS/_Refs_Movs_Burnin_FrameCounter/TKO_002_FAN_Sh00380.mov</pathurl>
							<rate>
								<timebase>24</timebase>
								<ntsc>TRUE</ntsc>
							</rate>
							<duration>28</duration>
							<timecode>
								<rate>
									<timebase>24</timebase>
									<ntsc>TRUE</ntsc>
								</rate>
								<string>13:23:52:08</string>
								<frame>1157576</frame>
								<displayformat>NDF</displayformat>
								<reel>
									<name>C0340009</name>
								</reel>
							</timecode>
							<media>
								<video>
									<samplecharacteristics>
										<rate>
											<timebase>24</timebase>
											<ntsc>TRUE</ntsc>
										</rate>
										<width>3840</width>
										<height>2160</height>
										<anamorphic>FALSE</anamorphic>
										<pixelaspectratio>square</pixelaspectratio>
										<fielddominance>none</fielddominance>
									</samplecharacteristics>
								</video>
							</media>
						</file>
						<logginginfo>
							<description></description>
							<scene></scene>
							<shottake></shottake>
							<lognote></lognote>
							<good></good>
							<originalvideofilename></originalvideofilename>
							<originalaudiofilename></originalaudiofilename>
						</logginginfo>
						<colorinfo>
							<lut></lut>
							<lut1></lut1>
							<asc_sop></asc_sop>
							<asc_sat></asc_sat>
							<lut2></lut2>
						</colorinfo>
						<labels>
							<label2>Violet</label2>
						</labels>
					</clipitem>
					<clipitem id="clipitem-41">
						<masterclipid>masterclip-40</masterclipid>
						<name>TKO_002_FAN_Sh00390.mov</name>
						<enabled>TRUE</enabled>
						<duration>38</duration>
						<rate>
							<timebase>24</timebase>
							<ntsc>TRUE</ntsc>
						</rate>
						<start>3614</start>
						<end>3644</end>
						<in>4</in>
						<out>34</out>
						<pproTicksIn>42378336000</pproTicksIn>
						<pproTicksOut>360215856000</pproTicksOut>
						<alphatype>none</alphatype>
						<pixelaspectratio>square</pixelaspectratio>
						<anamorphic>FALSE</anamorphic>
						<file id="file-40">
							<name>TKO_002_FAN_Sh00390.mov</name>
							<pathurl>file://tri-stor01/Projects/TKO/SHOTS/_Refs_Movs_Burnin_FrameCounter/TKO_002_FAN_Sh00390.mov</pathurl>
							<rate>
								<timebase>24</timebase>
								<ntsc>TRUE</ntsc>
							</rate>
							<duration>38</duration>
							<timecode>
								<rate>
									<timebase>24</timebase>
									<ntsc>TRUE</ntsc>
								</rate>
								<string>13:23:27:14</string>
								<frame>1156982</frame>
								<displayformat>NDF</displayformat>
								<reel>
									<name>C0340009</name>
								</reel>
							</timecode>
							<media>
								<video>
									<samplecharacteristics>
										<rate>
											<timebase>24</timebase>
											<ntsc>TRUE</ntsc>
										</rate>
										<width>3840</width>
										<height>2160</height>
										<anamorphic>FALSE</anamorphic>
										<pixelaspectratio>square</pixelaspectratio>
										<fielddominance>none</fielddominance>
									</samplecharacteristics>
								</video>
							</media>
						</file>
						<logginginfo>
							<description></description>
							<scene></scene>
							<shottake></shottake>
							<lognote></lognote>
							<good></good>
							<originalvideofilename></originalvideofilename>
							<originalaudiofilename></originalaudiofilename>
						</logginginfo>
						<colorinfo>
							<lut></lut>
							<lut1></lut1>
							<asc_sop></asc_sop>
							<asc_sat></asc_sat>
							<lut2></lut2>
						</colorinfo>
						<labels>
							<label2>Violet</label2>
						</labels>
					</clipitem>
					<clipitem id="clipitem-42">
						<masterclipid>masterclip-41</masterclipid>
						<name>TKO_002_FAN_Sh00400.mov</name>
						<enabled>TRUE</enabled>
						<duration>56</duration>
						<rate>
							<timebase>24</timebase>
							<ntsc>TRUE</ntsc>
						</rate>
						<start>3644</start>
						<end>3692</end>
						<in>4</in>
						<out>52</out>
						<pproTicksIn>42378336000</pproTicksIn>
						<pproTicksOut>550918368000</pproTicksOut>
						<alphatype>none</alphatype>
						<pixelaspectratio>square</pixelaspectratio>
						<anamorphic>FALSE</anamorphic>
						<file id="file-41">
							<name>TKO_002_FAN_Sh00400.mov</name>
							<pathurl>file://tri-stor01/Projects/TKO/SHOTS/_Refs_Movs_Burnin_FrameCounter/TKO_002_FAN_Sh00400.mov</pathurl>
							<rate>
								<timebase>24</timebase>
								<ntsc>TRUE</ntsc>
							</rate>
							<duration>56</duration>
							<timecode>
								<rate>
									<timebase>24</timebase>
									<ntsc>TRUE</ntsc>
								</rate>
								<string>13:24:36:16</string>
								<frame>1158640</frame>
								<displayformat>NDF</displayformat>
								<reel>
									<name>C0340009</name>
								</reel>
							</timecode>
							<media>
								<video>
									<samplecharacteristics>
										<rate>
											<timebase>24</timebase>
											<ntsc>TRUE</ntsc>
										</rate>
										<width>3840</width>
										<height>2160</height>
										<anamorphic>FALSE</anamorphic>
										<pixelaspectratio>square</pixelaspectratio>
										<fielddominance>none</fielddominance>
									</samplecharacteristics>
								</video>
							</media>
						</file>
						<logginginfo>
							<description></description>
							<scene></scene>
							<shottake></shottake>
							<lognote></lognote>
							<good></good>
							<originalvideofilename></originalvideofilename>
							<originalaudiofilename></originalaudiofilename>
						</logginginfo>
						<colorinfo>
							<lut></lut>
							<lut1></lut1>
							<asc_sop></asc_sop>
							<asc_sat></asc_sat>
							<lut2></lut2>
						</colorinfo>
						<labels>
							<label2>Violet</label2>
						</labels>
					</clipitem>
					<clipitem id="clipitem-43">
						<masterclipid>masterclip-42</masterclipid>
						<name>TKO_002_FAN_Sh00410.mov</name>
						<enabled>TRUE</enabled>
						<duration>63</duration>
						<rate>
							<timebase>24</timebase>
							<ntsc>TRUE</ntsc>
						</rate>
						<start>3692</start>
						<end>3748</end>
						<in>4</in>
						<out>60</out>
						<pproTicksIn>42378336000</pproTicksIn>
						<pproTicksOut>635675040000</pproTicksOut>
						<alphatype>none</alphatype>
						<pixelaspectratio>square</pixelaspectratio>
						<anamorphic>FALSE</anamorphic>
						<file id="file-42">
							<name>TKO_002_FAN_Sh00410.mov</name>
							<pathurl>file://tri-stor01/Projects/TKO/SHOTS/_Refs_Movs_Burnin_FrameCounter/TKO_002_FAN_Sh00410.mov</pathurl>
							<rate>
								<timebase>24</timebase>
								<ntsc>FALSE</ntsc>
							</rate>
							<duration>64</duration>
							<timecode>
								<rate>
									<timebase>24</timebase>
									<ntsc>FALSE</ntsc>
								</rate>
								<string>00:00:11:06</string>
								<frame>270</frame>
								<displayformat>NDF</displayformat>
							</timecode>
							<media>
								<video>
									<samplecharacteristics>
										<rate>
											<timebase>24</timebase>
											<ntsc>FALSE</ntsc>
										</rate>
										<width>1280</width>
										<height>720</height>
										<anamorphic>FALSE</anamorphic>
										<pixelaspectratio>square</pixelaspectratio>
										<fielddominance>none</fielddominance>
									</samplecharacteristics>
								</video>
							</media>
						</file>
						<logginginfo>
							<description></description>
							<scene></scene>
							<shottake></shottake>
							<lognote></lognote>
							<good></good>
							<originalvideofilename></originalvideofilename>
							<originalaudiofilename></originalaudiofilename>
						</logginginfo>
						<colorinfo>
							<lut></lut>
							<lut1></lut1>
							<asc_sop></asc_sop>
							<asc_sat></asc_sat>
							<lut2></lut2>
						</colorinfo>
						<labels>
							<label2>Violet</label2>
						</labels>
					</clipitem>
					<clipitem id="clipitem-44">
						<masterclipid>masterclip-43</masterclipid>
						<name>TKO_002_FAN_Sh00420.mov</name>
						<enabled>TRUE</enabled>
						<duration>21</duration>
						<rate>
							<timebase>24</timebase>
							<ntsc>TRUE</ntsc>
						</rate>
						<start>3748</start>
						<end>3761</end>
						<in>4</in>
						<out>17</out>
						<pproTicksIn>42378336000</pproTicksIn>
						<pproTicksOut>180107928000</pproTicksOut>
						<alphatype>none</alphatype>
						<pixelaspectratio>square</pixelaspectratio>
						<anamorphic>FALSE</anamorphic>
						<file id="file-43">
							<name>TKO_002_FAN_Sh00420.mov</name>
							<pathurl>file://tri-stor01/Projects/TKO/SHOTS/_Refs_Movs_Burnin_FrameCounter/TKO_002_FAN_Sh00420.mov</pathurl>
							<rate>
								<timebase>24</timebase>
								<ntsc>TRUE</ntsc>
							</rate>
							<duration>21</duration>
							<timecode>
								<rate>
									<timebase>24</timebase>
									<ntsc>TRUE</ntsc>
								</rate>
								<string>13:31:38:21</string>
								<frame>1168773</frame>
								<displayformat>NDF</displayformat>
								<reel>
									<name>C0360001</name>
								</reel>
							</timecode>
							<media>
								<video>
									<samplecharacteristics>
										<rate>
											<timebase>24</timebase>
											<ntsc>TRUE</ntsc>
										</rate>
										<width>3840</width>
										<height>2160</height>
										<anamorphic>FALSE</anamorphic>
										<pixelaspectratio>square</pixelaspectratio>
										<fielddominance>none</fielddominance>
									</samplecharacteristics>
								</video>
							</media>
						</file>
						<logginginfo>
							<description></description>
							<scene></scene>
							<shottake></shottake>
							<lognote></lognote>
							<good></good>
							<originalvideofilename></originalvideofilename>
							<originalaudiofilename></originalaudiofilename>
						</logginginfo>
						<colorinfo>
							<lut></lut>
							<lut1></lut1>
							<asc_sop></asc_sop>
							<asc_sat></asc_sat>
							<lut2></lut2>
						</colorinfo>
						<labels>
							<label2>Violet</label2>
						</labels>
					</clipitem>
					<clipitem id="clipitem-45">
						<masterclipid>masterclip-44</masterclipid>
						<name>TKO_002_FAN_Sh00430.mov</name>
						<enabled>TRUE</enabled>
						<duration>25</duration>
						<rate>
							<timebase>24</timebase>
							<ntsc>TRUE</ntsc>
						</rate>
						<start>3761</start>
						<end>3778</end>
						<in>4</in>
						<out>21</out>
						<pproTicksIn>42378336000</pproTicksIn>
						<pproTicksOut>222486264000</pproTicksOut>
						<alphatype>none</alphatype>
						<pixelaspectratio>square</pixelaspectratio>
						<anamorphic>FALSE</anamorphic>
						<file id="file-44">
							<name>TKO_002_FAN_Sh00430.mov</name>
							<pathurl>file://tri-stor01/Projects/TKO/SHOTS/_Refs_Movs_Burnin_FrameCounter/TKO_002_FAN_Sh00430.mov</pathurl>
							<rate>
								<timebase>24</timebase>
								<ntsc>TRUE</ntsc>
							</rate>
							<duration>25</duration>
							<timecode>
								<rate>
									<timebase>24</timebase>
									<ntsc>TRUE</ntsc>
								</rate>
								<string>13:32:23:03</string>
								<frame>1169835</frame>
								<displayformat>NDF</displayformat>
								<reel>
									<name>C0360001</name>
								</reel>
							</timecode>
							<media>
								<video>
									<samplecharacteristics>
										<rate>
											<timebase>24</timebase>
											<ntsc>TRUE</ntsc>
										</rate>
										<width>3840</width>
										<height>2160</height>
										<anamorphic>FALSE</anamorphic>
										<pixelaspectratio>square</pixelaspectratio>
										<fielddominance>none</fielddominance>
									</samplecharacteristics>
								</video>
							</media>
						</file>
						<logginginfo>
							<description></description>
							<scene></scene>
							<shottake></shottake>
							<lognote></lognote>
							<good></good>
							<originalvideofilename></originalvideofilename>
							<originalaudiofilename></originalaudiofilename>
						</logginginfo>
						<colorinfo>
							<lut></lut>
							<lut1></lut1>
							<asc_sop></asc_sop>
							<asc_sat></asc_sat>
							<lut2></lut2>
						</colorinfo>
						<labels>
							<label2>Violet</label2>
						</labels>
					</clipitem>
					<clipitem id="clipitem-46">
						<masterclipid>masterclip-45</masterclipid>
						<name>TKO_002_FAN_Sh00440.mov</name>
						<enabled>TRUE</enabled>
						<duration>35</duration>
						<rate>
							<timebase>24</timebase>
							<ntsc>TRUE</ntsc>
						</rate>
						<start>3778</start>
						<end>3805</end>
						<in>4</in>
						<out>31</out>
						<pproTicksIn>42378336000</pproTicksIn>
						<pproTicksOut>328432104000</pproTicksOut>
						<alphatype>none</alphatype>
						<pixelaspectratio>square</pixelaspectratio>
						<anamorphic>FALSE</anamorphic>
						<file id="file-45">
							<name>TKO_002_FAN_Sh00440.mov</name>
							<pathurl>file://tri-stor01/Projects/TKO/SHOTS/_Refs_Movs_Burnin_FrameCounter/TKO_002_FAN_Sh00440.mov</pathurl>
							<rate>
								<timebase>24</timebase>
								<ntsc>TRUE</ntsc>
							</rate>
							<duration>35</duration>
							<timecode>
								<rate>
									<timebase>24</timebase>
									<ntsc>TRUE</ntsc>
								</rate>
								<string>13:32:53:16</string>
								<frame>1170568</frame>
								<displayformat>NDF</displayformat>
								<reel>
									<name>C0360001</name>
								</reel>
							</timecode>
							<media>
								<video>
									<samplecharacteristics>
										<rate>
											<timebase>24</timebase>
											<ntsc>TRUE</ntsc>
										</rate>
										<width>3840</width>
										<height>2160</height>
										<anamorphic>FALSE</anamorphic>
										<pixelaspectratio>square</pixelaspectratio>
										<fielddominance>none</fielddominance>
									</samplecharacteristics>
								</video>
							</media>
						</file>
						<logginginfo>
							<description></description>
							<scene></scene>
							<shottake></shottake>
							<lognote></lognote>
							<good></good>
							<originalvideofilename></originalvideofilename>
							<originalaudiofilename></originalaudiofilename>
						</logginginfo>
						<colorinfo>
							<lut></lut>
							<lut1></lut1>
							<asc_sop></asc_sop>
							<asc_sat></asc_sat>
							<lut2></lut2>
						</colorinfo>
						<labels>
							<label2>Violet</label2>
						</labels>
					</clipitem>
					<clipitem id="clipitem-47">
						<masterclipid>masterclip-46</masterclipid>
						<name>TKO_002_FAN_Sh00450.mov</name>
						<enabled>TRUE</enabled>
						<duration>28</duration>
						<rate>
							<timebase>24</timebase>
							<ntsc>TRUE</ntsc>
						</rate>
						<start>3805</start>
						<end>3825</end>
						<in>4</in>
						<out>24</out>
						<pproTicksIn>42378336000</pproTicksIn>
						<pproTicksOut>254270016000</pproTicksOut>
						<alphatype>none</alphatype>
						<pixelaspectratio>square</pixelaspectratio>
						<anamorphic>FALSE</anamorphic>
						<file id="file-46">
							<name>TKO_002_FAN_Sh00450.mov</name>
							<pathurl>file://tri-stor01/Projects/TKO/SHOTS/_Refs_Movs_Burnin_FrameCounter/TKO_002_FAN_Sh00450.mov</pathurl>
							<rate>
								<timebase>24</timebase>
								<ntsc>TRUE</ntsc>
							</rate>
							<duration>28</duration>
							<timecode>
								<rate>
									<timebase>24</timebase>
									<ntsc>TRUE</ntsc>
								</rate>
								<string>13:31:44:17</string>
								<frame>1168913</frame>
								<displayformat>NDF</displayformat>
								<reel>
									<name>C0360001</name>
								</reel>
							</timecode>
							<media>
								<video>
									<samplecharacteristics>
										<rate>
											<timebase>24</timebase>
											<ntsc>TRUE</ntsc>
										</rate>
										<width>3840</width>
										<height>2160</height>
										<anamorphic>FALSE</anamorphic>
										<pixelaspectratio>square</pixelaspectratio>
										<fielddominance>none</fielddominance>
									</samplecharacteristics>
								</video>
							</media>
						</file>
						<logginginfo>
							<description></description>
							<scene></scene>
							<shottake></shottake>
							<lognote></lognote>
							<good></good>
							<originalvideofilename></originalvideofilename>
							<originalaudiofilename></originalaudiofilename>
						</logginginfo>
						<colorinfo>
							<lut></lut>
							<lut1></lut1>
							<asc_sop></asc_sop>
							<asc_sat></asc_sat>
							<lut2></lut2>
						</colorinfo>
						<labels>
							<label2>Violet</label2>
						</labels>
					</clipitem>
					<clipitem id="clipitem-48">
						<masterclipid>masterclip-47</masterclipid>
						<name>TKO_002_FAN_Sh00460.mov</name>
						<enabled>TRUE</enabled>
						<duration>33</duration>
						<rate>
							<timebase>24</timebase>
							<ntsc>TRUE</ntsc>
						</rate>
						<start>3825</start>
						<end>3850</end>
						<in>4</in>
						<out>29</out>
						<pproTicksIn>42378336000</pproTicksIn>
						<pproTicksOut>307242936000</pproTicksOut>
						<alphatype>none</alphatype>
						<pixelaspectratio>square</pixelaspectratio>
						<anamorphic>FALSE</anamorphic>
						<file id="file-47">
							<name>TKO_002_FAN_Sh00460.mov</name>
							<pathurl>file://tri-stor01/Projects/TKO/SHOTS/_Refs_Movs_Burnin_FrameCounter/TKO_002_FAN_Sh00460.mov</pathurl>
							<rate>
								<timebase>24</timebase>
								<ntsc>TRUE</ntsc>
							</rate>
							<duration>33</duration>
							<timecode>
								<rate>
									<timebase>24</timebase>
									<ntsc>TRUE</ntsc>
								</rate>
								<string>13:32:13:17</string>
								<frame>1169609</frame>
								<displayformat>NDF</displayformat>
								<reel>
									<name>C0360001</name>
								</reel>
							</timecode>
							<media>
								<video>
									<samplecharacteristics>
										<rate>
											<timebase>24</timebase>
											<ntsc>TRUE</ntsc>
										</rate>
										<width>3840</width>
										<height>2160</height>
										<anamorphic>FALSE</anamorphic>
										<pixelaspectratio>square</pixelaspectratio>
										<fielddominance>none</fielddominance>
									</samplecharacteristics>
								</video>
							</media>
						</file>
						<logginginfo>
							<description></description>
							<scene></scene>
							<shottake></shottake>
							<lognote></lognote>
							<good></good>
							<originalvideofilename></originalvideofilename>
							<originalaudiofilename></originalaudiofilename>
						</logginginfo>
						<colorinfo>
							<lut></lut>
							<lut1></lut1>
							<asc_sop></asc_sop>
							<asc_sat></asc_sat>
							<lut2></lut2>
						</colorinfo>
						<labels>
							<label2>Violet</label2>
						</labels>
					</clipitem>
					<clipitem id="clipitem-49">
						<masterclipid>masterclip-48</masterclipid>
						<name>TKO_002_FAN_Sh00470.mov</name>
						<enabled>TRUE</enabled>
						<duration>31</duration>
						<rate>
							<timebase>24</timebase>
							<ntsc>TRUE</ntsc>
						</rate>
						<start>3850</start>
						<end>3874</end>
						<in>4</in>
						<out>28</out>
						<pproTicksIn>42378336000</pproTicksIn>
						<pproTicksOut>296648352000</pproTicksOut>
						<alphatype>none</alphatype>
						<pixelaspectratio>square</pixelaspectratio>
						<anamorphic>FALSE</anamorphic>
						<file id="file-48">
							<name>TKO_002_FAN_Sh00470.mov</name>
							<pathurl>file://tri-stor01/Projects/TKO/SHOTS/_Refs_Movs_Burnin_FrameCounter/TKO_002_FAN_Sh00470.mov</pathurl>
							<rate>
								<timebase>24</timebase>
								<ntsc>FALSE</ntsc>
							</rate>
							<duration>32</duration>
							<timecode>
								<rate>
									<timebase>24</timebase>
									<ntsc>FALSE</ntsc>
								</rate>
								<string>00:00:14:18</string>
								<frame>354</frame>
								<displayformat>NDF</displayformat>
							</timecode>
							<media>
								<video>
									<samplecharacteristics>
										<rate>
											<timebase>24</timebase>
											<ntsc>FALSE</ntsc>
										</rate>
										<width>1280</width>
										<height>720</height>
										<anamorphic>FALSE</anamorphic>
										<pixelaspectratio>square</pixelaspectratio>
										<fielddominance>none</fielddominance>
									</samplecharacteristics>
								</video>
							</media>
						</file>
						<logginginfo>
							<description></description>
							<scene></scene>
							<shottake></shottake>
							<lognote></lognote>
							<good></good>
							<originalvideofilename></originalvideofilename>
							<originalaudiofilename></originalaudiofilename>
						</logginginfo>
						<colorinfo>
							<lut></lut>
							<lut1></lut1>
							<asc_sop></asc_sop>
							<asc_sat></asc_sat>
							<lut2></lut2>
						</colorinfo>
						<labels>
							<label2>Violet</label2>
						</labels>
					</clipitem>
					<clipitem id="clipitem-50">
						<masterclipid>masterclip-49</masterclipid>
						<name>TKO_002_FAN_Sh00480.mov</name>
						<enabled>TRUE</enabled>
						<duration>45</duration>
						<rate>
							<timebase>24</timebase>
							<ntsc>TRUE</ntsc>
						</rate>
						<start>3874</start>
						<end>3912</end>
						<in>4</in>
						<out>42</out>
						<pproTicksIn>42378336000</pproTicksIn>
						<pproTicksOut>444972528000</pproTicksOut>
						<alphatype>none</alphatype>
						<pixelaspectratio>square</pixelaspectratio>
						<anamorphic>FALSE</anamorphic>
						<file id="file-49">
							<name>TKO_002_FAN_Sh00480.mov</name>
							<pathurl>file://tri-stor01/Projects/TKO/SHOTS/_Refs_Movs_Burnin_FrameCounter/TKO_002_FAN_Sh00480.mov</pathurl>
							<rate>
								<timebase>24</timebase>
								<ntsc>FALSE</ntsc>
							</rate>
							<duration>46</duration>
							<timecode>
								<rate>
									<timebase>24</timebase>
									<ntsc>FALSE</ntsc>
								</rate>
								<string>00:00:15:18</string>
								<frame>378</frame>
								<displayformat>NDF</displayformat>
							</timecode>
							<media>
								<video>
									<samplecharacteristics>
										<rate>
											<timebase>24</timebase>
											<ntsc>FALSE</ntsc>
										</rate>
										<width>1280</width>
										<height>720</height>
										<anamorphic>FALSE</anamorphic>
										<pixelaspectratio>square</pixelaspectratio>
										<fielddominance>none</fielddominance>
									</samplecharacteristics>
								</video>
							</media>
						</file>
						<logginginfo>
							<description></description>
							<scene></scene>
							<shottake></shottake>
							<lognote></lognote>
							<good></good>
							<originalvideofilename></originalvideofilename>
							<originalaudiofilename></originalaudiofilename>
						</logginginfo>
						<colorinfo>
							<lut></lut>
							<lut1></lut1>
							<asc_sop></asc_sop>
							<asc_sat></asc_sat>
							<lut2></lut2>
						</colorinfo>
						<labels>
							<label2>Violet</label2>
						</labels>
					</clipitem>
					<clipitem id="clipitem-51">
						<masterclipid>masterclip-50</masterclipid>
						<name>TKO_002_FAN_Sh00490.mov</name>
						<enabled>TRUE</enabled>
						<duration>34</duration>
						<rate>
							<timebase>24</timebase>
							<ntsc>TRUE</ntsc>
						</rate>
						<start>3912</start>
						<end>3938</end>
						<in>4</in>
						<out>30</out>
						<pproTicksIn>42378336000</pproTicksIn>
						<pproTicksOut>317837520000</pproTicksOut>
						<alphatype>none</alphatype>
						<pixelaspectratio>square</pixelaspectratio>
						<anamorphic>FALSE</anamorphic>
						<file id="file-50">
							<name>TKO_002_FAN_Sh00490.mov</name>
							<pathurl>file://tri-stor01/Projects/TKO/SHOTS/_Refs_Movs_Burnin_FrameCounter/TKO_002_FAN_Sh00490.mov</pathurl>
							<rate>
								<timebase>24</timebase>
								<ntsc>TRUE</ntsc>
							</rate>
							<duration>34</duration>
							<timecode>
								<rate>
									<timebase>24</timebase>
									<ntsc>TRUE</ntsc>
								</rate>
								<string>17:59:57:14</string>
								<frame>1555142</frame>
								<displayformat>NDF</displayformat>
								<reel>
									<name>A0520001</name>
								</reel>
							</timecode>
							<media>
								<video>
									<samplecharacteristics>
										<rate>
											<timebase>24</timebase>
											<ntsc>TRUE</ntsc>
										</rate>
										<width>4096</width>
										<height>2160</height>
										<anamorphic>FALSE</anamorphic>
										<pixelaspectratio>square</pixelaspectratio>
										<fielddominance>none</fielddominance>
									</samplecharacteristics>
								</video>
							</media>
						</file>
						<logginginfo>
							<description></description>
							<scene></scene>
							<shottake></shottake>
							<lognote></lognote>
							<good></good>
							<originalvideofilename></originalvideofilename>
							<originalaudiofilename></originalaudiofilename>
						</logginginfo>
						<colorinfo>
							<lut></lut>
							<lut1></lut1>
							<asc_sop></asc_sop>
							<asc_sat></asc_sat>
							<lut2></lut2>
						</colorinfo>
						<labels>
							<label2>Violet</label2>
						</labels>
					</clipitem>
					<clipitem id="clipitem-52">
						<masterclipid>masterclip-51</masterclipid>
						<name>TKO_002_FAN_Sh00500.mov</name>
						<enabled>TRUE</enabled>
						<duration>33</duration>
						<rate>
							<timebase>24</timebase>
							<ntsc>TRUE</ntsc>
						</rate>
						<start>3938</start>
						<end>3963</end>
						<in>4</in>
						<out>29</out>
						<pproTicksIn>42378336000</pproTicksIn>
						<pproTicksOut>307242936000</pproTicksOut>
						<alphatype>none</alphatype>
						<pixelaspectratio>square</pixelaspectratio>
						<anamorphic>FALSE</anamorphic>
						<file id="file-51">
							<name>TKO_002_FAN_Sh00500.mov</name>
							<pathurl>file://tri-stor01/Projects/TKO/SHOTS/_Refs_Movs_Burnin_FrameCounter/TKO_002_FAN_Sh00500.mov</pathurl>
							<rate>
								<timebase>24</timebase>
								<ntsc>TRUE</ntsc>
							</rate>
							<duration>33</duration>
							<timecode>
								<rate>
									<timebase>24</timebase>
									<ntsc>TRUE</ntsc>
								</rate>
								<string>18:00:00:11</string>
								<frame>1555211</frame>
								<displayformat>NDF</displayformat>
								<reel>
									<name>A0520001</name>
								</reel>
							</timecode>
							<media>
								<video>
									<samplecharacteristics>
										<rate>
											<timebase>24</timebase>
											<ntsc>TRUE</ntsc>
										</rate>
										<width>4096</width>
										<height>2160</height>
										<anamorphic>FALSE</anamorphic>
										<pixelaspectratio>square</pixelaspectratio>
										<fielddominance>none</fielddominance>
									</samplecharacteristics>
								</video>
							</media>
						</file>
						<logginginfo>
							<description></description>
							<scene></scene>
							<shottake></shottake>
							<lognote></lognote>
							<good></good>
							<originalvideofilename></originalvideofilename>
							<originalaudiofilename></originalaudiofilename>
						</logginginfo>
						<colorinfo>
							<lut></lut>
							<lut1></lut1>
							<asc_sop></asc_sop>
							<asc_sat></asc_sat>
							<lut2></lut2>
						</colorinfo>
						<labels>
							<label2>Violet</label2>
						</labels>
					</clipitem>
					<clipitem id="clipitem-53">
						<masterclipid>masterclip-52</masterclipid>
						<name>TKO_002_FAN_Sh00510.mov</name>
						<enabled>TRUE</enabled>
						<duration>54</duration>
						<rate>
							<timebase>24</timebase>
							<ntsc>TRUE</ntsc>
						</rate>
						<start>3963</start>
						<end>4009</end>
						<in>4</in>
						<out>50</out>
						<pproTicksIn>42378336000</pproTicksIn>
						<pproTicksOut>529729200000</pproTicksOut>
						<alphatype>none</alphatype>
						<pixelaspectratio>square</pixelaspectratio>
						<anamorphic>FALSE</anamorphic>
						<file id="file-52">
							<name>TKO_002_FAN_Sh00510.mov</name>
							<pathurl>file://tri-stor01/Projects/TKO/SHOTS/_Refs_Movs_Burnin_FrameCounter/TKO_002_FAN_Sh00510.mov</pathurl>
							<rate>
								<timebase>24</timebase>
								<ntsc>TRUE</ntsc>
							</rate>
							<duration>54</duration>
							<timecode>
								<rate>
									<timebase>24</timebase>
									<ntsc>TRUE</ntsc>
								</rate>
								<string>18:00:02:14</string>
								<frame>1555262</frame>
								<displayformat>NDF</displayformat>
								<reel>
									<name>A0520001</name>
								</reel>
							</timecode>
							<media>
								<video>
									<samplecharacteristics>
										<rate>
											<timebase>24</timebase>
											<ntsc>TRUE</ntsc>
										</rate>
										<width>4096</width>
										<height>2160</height>
										<anamorphic>FALSE</anamorphic>
										<pixelaspectratio>square</pixelaspectratio>
										<fielddominance>none</fielddominance>
									</samplecharacteristics>
								</video>
							</media>
						</file>
						<logginginfo>
							<description></description>
							<scene></scene>
							<shottake></shottake>
							<lognote></lognote>
							<good></good>
							<originalvideofilename></originalvideofilename>
							<originalaudiofilename></originalaudiofilename>
						</logginginfo>
						<colorinfo>
							<lut></lut>
							<lut1></lut1>
							<asc_sop></asc_sop>
							<asc_sat></asc_sat>
							<lut2></lut2>
						</colorinfo>
						<labels>
							<label2>Violet</label2>
						</labels>
					</clipitem>
					<clipitem id="clipitem-54">
						<masterclipid>masterclip-53</masterclipid>
						<name>TKO_002_FAN_Sh00520.mov</name>
						<enabled>TRUE</enabled>
						<duration>106</duration>
						<rate>
							<timebase>24</timebase>
							<ntsc>TRUE</ntsc>
						</rate>
						<start>4009</start>
						<end>4107</end>
						<in>4</in>
						<out>102</out>
						<pproTicksIn>42378336000</pproTicksIn>
						<pproTicksOut>1080647568000</pproTicksOut>
						<alphatype>none</alphatype>
						<pixelaspectratio>square</pixelaspectratio>
						<anamorphic>FALSE</anamorphic>
						<file id="file-53">
							<name>TKO_002_FAN_Sh00520.mov</name>
							<pathurl>file://tri-stor01/Projects/TKO/SHOTS/_Refs_Movs_Burnin_FrameCounter/TKO_002_FAN_Sh00520.mov</pathurl>
							<rate>
								<timebase>24</timebase>
								<ntsc>TRUE</ntsc>
							</rate>
							<duration>106</duration>
							<timecode>
								<rate>
									<timebase>24</timebase>
									<ntsc>TRUE</ntsc>
								</rate>
								<string>13:13:01:00</string>
								<frame>1141944</frame>
								<displayformat>NDF</displayformat>
								<reel>
									<name>C0340003</name>
								</reel>
							</timecode>
							<media>
								<video>
									<samplecharacteristics>
										<rate>
											<timebase>24</timebase>
											<ntsc>TRUE</ntsc>
										</rate>
										<width>3840</width>
										<height>2160</height>
										<anamorphic>FALSE</anamorphic>
										<pixelaspectratio>square</pixelaspectratio>
										<fielddominance>none</fielddominance>
									</samplecharacteristics>
								</video>
							</media>
						</file>
						<logginginfo>
							<description></description>
							<scene></scene>
							<shottake></shottake>
							<lognote></lognote>
							<good></good>
							<originalvideofilename></originalvideofilename>
							<originalaudiofilename></originalaudiofilename>
						</logginginfo>
						<colorinfo>
							<lut></lut>
							<lut1></lut1>
							<asc_sop></asc_sop>
							<asc_sat></asc_sat>
							<lut2></lut2>
						</colorinfo>
						<labels>
							<label2>Violet</label2>
						</labels>
					</clipitem>
					<clipitem id="clipitem-55">
						<masterclipid>masterclip-54</masterclipid>
						<name>TKO_002_FAN_Sh00530.mov</name>
						<enabled>TRUE</enabled>
						<duration>58</duration>
						<rate>
							<timebase>24</timebase>
							<ntsc>TRUE</ntsc>
						</rate>
						<start>4107</start>
						<end>4157</end>
						<in>4</in>
						<out>54</out>
						<pproTicksIn>42378336000</pproTicksIn>
						<pproTicksOut>572107536000</pproTicksOut>
						<alphatype>none</alphatype>
						<pixelaspectratio>square</pixelaspectratio>
						<anamorphic>FALSE</anamorphic>
						<file id="file-54">
							<name>TKO_002_FAN_Sh00530.mov</name>
							<pathurl>file://tri-stor01/Projects/TKO/SHOTS/_Refs_Movs_Burnin_FrameCounter/TKO_002_FAN_Sh00530.mov</pathurl>
							<rate>
								<timebase>24</timebase>
								<ntsc>TRUE</ntsc>
							</rate>
							<duration>58</duration>
							<timecode>
								<rate>
									<timebase>24</timebase>
									<ntsc>TRUE</ntsc>
								</rate>
								<string>18:00:09:16</string>
								<frame>1555432</frame>
								<displayformat>NDF</displayformat>
								<reel>
									<name>B0450001</name>
								</reel>
							</timecode>
							<media>
								<video>
									<samplecharacteristics>
										<rate>
											<timebase>24</timebase>
											<ntsc>TRUE</ntsc>
										</rate>
										<width>4096</width>
										<height>2160</height>
										<anamorphic>FALSE</anamorphic>
										<pixelaspectratio>square</pixelaspectratio>
										<fielddominance>none</fielddominance>
									</samplecharacteristics>
								</video>
							</media>
						</file>
						<logginginfo>
							<description></description>
							<scene></scene>
							<shottake></shottake>
							<lognote></lognote>
							<good></good>
							<originalvideofilename></originalvideofilename>
							<originalaudiofilename></originalaudiofilename>
						</logginginfo>
						<colorinfo>
							<lut></lut>
							<lut1></lut1>
							<asc_sop></asc_sop>
							<asc_sat></asc_sat>
							<lut2></lut2>
						</colorinfo>
						<labels>
							<label2>Violet</label2>
						</labels>
					</clipitem>
					<clipitem id="clipitem-56">
						<masterclipid>masterclip-55</masterclipid>
						<name>TKO_002_FAN_Sh00540.mov</name>
						<enabled>TRUE</enabled>
						<duration>47</duration>
						<rate>
							<timebase>24</timebase>
							<ntsc>TRUE</ntsc>
						</rate>
						<start>4157</start>
						<end>4196</end>
						<in>4</in>
						<out>43</out>
						<pproTicksIn>42378336000</pproTicksIn>
						<pproTicksOut>455567112000</pproTicksOut>
						<alphatype>none</alphatype>
						<pixelaspectratio>square</pixelaspectratio>
						<anamorphic>FALSE</anamorphic>
						<file id="file-55">
							<name>TKO_002_FAN_Sh00540.mov</name>
							<pathurl>file://tri-stor01/Projects/TKO/SHOTS/_Refs_Movs_Burnin_FrameCounter/TKO_002_FAN_Sh00540.mov</pathurl>
							<rate>
								<timebase>24</timebase>
								<ntsc>TRUE</ntsc>
							</rate>
							<duration>47</duration>
							<timecode>
								<rate>
									<timebase>24</timebase>
									<ntsc>TRUE</ntsc>
								</rate>
								<string>13:13:06:07</string>
								<frame>1142071</frame>
								<displayformat>NDF</displayformat>
								<reel>
									<name>C0340003</name>
								</reel>
							</timecode>
							<media>
								<video>
									<samplecharacteristics>
										<rate>
											<timebase>24</timebase>
											<ntsc>TRUE</ntsc>
										</rate>
										<width>3840</width>
										<height>2160</height>
										<anamorphic>FALSE</anamorphic>
										<pixelaspectratio>square</pixelaspectratio>
										<fielddominance>none</fielddominance>
									</samplecharacteristics>
								</video>
							</media>
						</file>
						<logginginfo>
							<description></description>
							<scene></scene>
							<shottake></shottake>
							<lognote></lognote>
							<good></good>
							<originalvideofilename></originalvideofilename>
							<originalaudiofilename></originalaudiofilename>
						</logginginfo>
						<colorinfo>
							<lut></lut>
							<lut1></lut1>
							<asc_sop></asc_sop>
							<asc_sat></asc_sat>
							<lut2></lut2>
						</colorinfo>
						<labels>
							<label2>Violet</label2>
						</labels>
					</clipitem>
					<clipitem id="clipitem-57">
						<masterclipid>masterclip-56</masterclipid>
						<name>TKO_002_FAN_Sh00550.mov</name>
						<enabled>TRUE</enabled>
						<duration>45</duration>
						<rate>
							<timebase>24</timebase>
							<ntsc>TRUE</ntsc>
						</rate>
						<start>4196</start>
						<end>4233</end>
						<in>4</in>
						<out>41</out>
						<pproTicksIn>42378336000</pproTicksIn>
						<pproTicksOut>434377944000</pproTicksOut>
						<alphatype>none</alphatype>
						<pixelaspectratio>square</pixelaspectratio>
						<anamorphic>FALSE</anamorphic>
						<file id="file-56">
							<name>TKO_002_FAN_Sh00550.mov</name>
							<pathurl>file://tri-stor01/Projects/TKO/SHOTS/_Refs_Movs_Burnin_FrameCounter/TKO_002_FAN_Sh00550.mov</pathurl>
							<rate>
								<timebase>24</timebase>
								<ntsc>TRUE</ntsc>
							</rate>
							<duration>45</duration>
							<timecode>
								<rate>
									<timebase>24</timebase>
									<ntsc>TRUE</ntsc>
								</rate>
								<string>19:30:26:10</string>
								<frame>1685434</frame>
								<displayformat>NDF</displayformat>
								<reel>
									<name>A0520003</name>
								</reel>
							</timecode>
							<media>
								<video>
									<samplecharacteristics>
										<rate>
											<timebase>24</timebase>
											<ntsc>TRUE</ntsc>
										</rate>
										<width>4096</width>
										<height>2160</height>
										<anamorphic>FALSE</anamorphic>
										<pixelaspectratio>square</pixelaspectratio>
										<fielddominance>none</fielddominance>
									</samplecharacteristics>
								</video>
							</media>
						</file>
						<logginginfo>
							<description></description>
							<scene></scene>
							<shottake></shottake>
							<lognote></lognote>
							<good></good>
							<originalvideofilename></originalvideofilename>
							<originalaudiofilename></originalaudiofilename>
						</logginginfo>
						<colorinfo>
							<lut></lut>
							<lut1></lut1>
							<asc_sop></asc_sop>
							<asc_sat></asc_sat>
							<lut2></lut2>
						</colorinfo>
						<labels>
							<label2>Violet</label2>
						</labels>
					</clipitem>
					<clipitem id="clipitem-58">
						<masterclipid>masterclip-57</masterclipid>
						<name>TKO_002_FAN_Sh00560.mov</name>
						<enabled>TRUE</enabled>
						<duration>58</duration>
						<rate>
							<timebase>24</timebase>
							<ntsc>TRUE</ntsc>
						</rate>
						<start>4233</start>
						<end>4283</end>
						<in>4</in>
						<out>54</out>
						<pproTicksIn>42378336000</pproTicksIn>
						<pproTicksOut>572107536000</pproTicksOut>
						<alphatype>none</alphatype>
						<pixelaspectratio>square</pixelaspectratio>
						<anamorphic>FALSE</anamorphic>
						<file id="file-57">
							<name>TKO_002_FAN_Sh00560.mov</name>
							<pathurl>file://tri-stor01/Projects/TKO/SHOTS/_Refs_Movs_Burnin_FrameCounter/TKO_002_FAN_Sh00560.mov</pathurl>
							<rate>
								<timebase>24</timebase>
								<ntsc>TRUE</ntsc>
							</rate>
							<duration>58</duration>
							<timecode>
								<rate>
									<timebase>24</timebase>
									<ntsc>TRUE</ntsc>
								</rate>
								<string>19:29:35:10</string>
								<frame>1684210</frame>
								<displayformat>NDF</displayformat>
								<reel>
									<name>B0450006</name>
								</reel>
							</timecode>
							<media>
								<video>
									<samplecharacteristics>
										<rate>
											<timebase>24</timebase>
											<ntsc>TRUE</ntsc>
										</rate>
										<width>4096</width>
										<height>2160</height>
										<anamorphic>FALSE</anamorphic>
										<pixelaspectratio>square</pixelaspectratio>
										<fielddominance>none</fielddominance>
									</samplecharacteristics>
								</video>
							</media>
						</file>
						<logginginfo>
							<description></description>
							<scene></scene>
							<shottake></shottake>
							<lognote></lognote>
							<good></good>
							<originalvideofilename></originalvideofilename>
							<originalaudiofilename></originalaudiofilename>
						</logginginfo>
						<colorinfo>
							<lut></lut>
							<lut1></lut1>
							<asc_sop></asc_sop>
							<asc_sat></asc_sat>
							<lut2></lut2>
						</colorinfo>
						<labels>
							<label2>Violet</label2>
						</labels>
					</clipitem>
					<clipitem id="clipitem-59">
						<masterclipid>masterclip-58</masterclipid>
						<name>TKO_002_FAN_Sh00570.mov</name>
						<enabled>TRUE</enabled>
						<duration>38</duration>
						<rate>
							<timebase>24</timebase>
							<ntsc>TRUE</ntsc>
						</rate>
						<start>4283</start>
						<end>4313</end>
						<in>4</in>
						<out>34</out>
						<pproTicksIn>42378336000</pproTicksIn>
						<pproTicksOut>360215856000</pproTicksOut>
						<alphatype>none</alphatype>
						<pixelaspectratio>square</pixelaspectratio>
						<anamorphic>FALSE</anamorphic>
						<file id="file-58">
							<name>TKO_002_FAN_Sh00570.mov</name>
							<pathurl>file://tri-stor01/Projects/TKO/SHOTS/_Refs_Movs_Burnin_FrameCounter/TKO_002_FAN_Sh00570.mov</pathurl>
							<rate>
								<timebase>24</timebase>
								<ntsc>TRUE</ntsc>
							</rate>
							<duration>38</duration>
							<timecode>
								<rate>
									<timebase>24</timebase>
									<ntsc>TRUE</ntsc>
								</rate>
								<string>13:13:10:18</string>
								<frame>1142178</frame>
								<displayformat>NDF</displayformat>
								<reel>
									<name>C0340003</name>
								</reel>
							</timecode>
							<media>
								<video>
									<samplecharacteristics>
										<rate>
											<timebase>24</timebase>
											<ntsc>TRUE</ntsc>
										</rate>
										<width>3840</width>
										<height>2160</height>
										<anamorphic>FALSE</anamorphic>
										<pixelaspectratio>square</pixelaspectratio>
										<fielddominance>none</fielddominance>
									</samplecharacteristics>
								</video>
							</media>
						</file>
						<logginginfo>
							<description></description>
							<scene></scene>
							<shottake></shottake>
							<lognote></lognote>
							<good></good>
							<originalvideofilename></originalvideofilename>
							<originalaudiofilename></originalaudiofilename>
						</logginginfo>
						<colorinfo>
							<lut></lut>
							<lut1></lut1>
							<asc_sop></asc_sop>
							<asc_sat></asc_sat>
							<lut2></lut2>
						</colorinfo>
						<labels>
							<label2>Violet</label2>
						</labels>
					</clipitem>
					<clipitem id="clipitem-60">
						<masterclipid>masterclip-59</masterclipid>
						<name>TKO_002_FAN_Sh00580.mov</name>
						<enabled>TRUE</enabled>
						<duration>39</duration>
						<rate>
							<timebase>24</timebase>
							<ntsc>TRUE</ntsc>
						</rate>
						<start>4313</start>
						<end>4344</end>
						<in>4</in>
						<out>35</out>
						<pproTicksIn>42378336000</pproTicksIn>
						<pproTicksOut>370810440000</pproTicksOut>
						<alphatype>none</alphatype>
						<pixelaspectratio>square</pixelaspectratio>
						<anamorphic>FALSE</anamorphic>
						<file id="file-59">
							<name>TKO_002_FAN_Sh00580.mov</name>
							<pathurl>file://tri-stor01/Projects/TKO/SHOTS/_Refs_Movs_Burnin_FrameCounter/TKO_002_FAN_Sh00580.mov</pathurl>
							<rate>
								<timebase>24</timebase>
								<ntsc>TRUE</ntsc>
							</rate>
							<duration>39</duration>
							<timecode>
								<rate>
									<timebase>24</timebase>
									<ntsc>TRUE</ntsc>
								</rate>
								<string>13:14:08:01</string>
								<frame>1143553</frame>
								<displayformat>NDF</displayformat>
								<reel>
									<name>C0340004</name>
								</reel>
							</timecode>
							<media>
								<video>
									<samplecharacteristics>
										<rate>
											<timebase>24</timebase>
											<ntsc>TRUE</ntsc>
										</rate>
										<width>3840</width>
										<height>2160</height>
										<anamorphic>FALSE</anamorphic>
										<pixelaspectratio>square</pixelaspectratio>
										<fielddominance>none</fielddominance>
									</samplecharacteristics>
								</video>
							</media>
						</file>
						<logginginfo>
							<description></description>
							<scene></scene>
							<shottake></shottake>
							<lognote></lognote>
							<good></good>
							<originalvideofilename></originalvideofilename>
							<originalaudiofilename></originalaudiofilename>
						</logginginfo>
						<colorinfo>
							<lut></lut>
							<lut1></lut1>
							<asc_sop></asc_sop>
							<asc_sat></asc_sat>
							<lut2></lut2>
						</colorinfo>
						<labels>
							<label2>Violet</label2>
						</labels>
					</clipitem>
					<clipitem id="clipitem-61">
						<masterclipid>masterclip-60</masterclipid>
						<name>TKO_002_FAN_Sh00590.mov</name>
						<enabled>TRUE</enabled>
						<duration>51</duration>
						<rate>
							<timebase>24</timebase>
							<ntsc>TRUE</ntsc>
						</rate>
						<start>4344</start>
						<end>4387</end>
						<in>4</in>
						<out>47</out>
						<pproTicksIn>42378336000</pproTicksIn>
						<pproTicksOut>497945448000</pproTicksOut>
						<alphatype>none</alphatype>
						<pixelaspectratio>square</pixelaspectratio>
						<anamorphic>FALSE</anamorphic>
						<file id="file-60">
							<name>TKO_002_FAN_Sh00590.mov</name>
							<pathurl>file://tri-stor01/Projects/TKO/SHOTS/_Refs_Movs_Burnin_FrameCounter/TKO_002_FAN_Sh00590.mov</pathurl>
							<rate>
								<timebase>24</timebase>
								<ntsc>TRUE</ntsc>
							</rate>
							<duration>51</duration>
							<timecode>
								<rate>
									<timebase>24</timebase>
									<ntsc>TRUE</ntsc>
								</rate>
								<string>13:13:13:10</string>
								<frame>1142242</frame>
								<displayformat>NDF</displayformat>
								<reel>
									<name>C0340003</name>
								</reel>
							</timecode>
							<media>
								<video>
									<samplecharacteristics>
										<rate>
											<timebase>24</timebase>
											<ntsc>TRUE</ntsc>
										</rate>
										<width>3840</width>
										<height>2160</height>
										<anamorphic>FALSE</anamorphic>
										<pixelaspectratio>square</pixelaspectratio>
										<fielddominance>none</fielddominance>
									</samplecharacteristics>
								</video>
							</media>
						</file>
						<logginginfo>
							<description></description>
							<scene></scene>
							<shottake></shottake>
							<lognote></lognote>
							<good></good>
							<originalvideofilename></originalvideofilename>
							<originalaudiofilename></originalaudiofilename>
						</logginginfo>
						<colorinfo>
							<lut></lut>
							<lut1></lut1>
							<asc_sop></asc_sop>
							<asc_sat></asc_sat>
							<lut2></lut2>
						</colorinfo>
						<labels>
							<label2>Violet</label2>
						</labels>
					</clipitem>
					<clipitem id="clipitem-62">
						<masterclipid>masterclip-61</masterclipid>
						<name>TKO_002_FAN_Sh00600.mov</name>
						<enabled>TRUE</enabled>
						<duration>40</duration>
						<rate>
							<timebase>24</timebase>
							<ntsc>TRUE</ntsc>
						</rate>
						<start>4387</start>
						<end>4419</end>
						<in>4</in>
						<out>36</out>
						<pproTicksIn>42378336000</pproTicksIn>
						<pproTicksOut>381405024000</pproTicksOut>
						<alphatype>none</alphatype>
						<pixelaspectratio>square</pixelaspectratio>
						<anamorphic>FALSE</anamorphic>
						<file id="file-61">
							<name>TKO_002_FAN_Sh00600.mov</name>
							<pathurl>file://tri-stor01/Projects/TKO/SHOTS/_Refs_Movs_Burnin_FrameCounter/TKO_002_FAN_Sh00600.mov</pathurl>
							<rate>
								<timebase>24</timebase>
								<ntsc>TRUE</ntsc>
							</rate>
							<duration>40</duration>
							<timecode>
								<rate>
									<timebase>24</timebase>
									<ntsc>TRUE</ntsc>
								</rate>
								<string>19:30:34:09</string>
								<frame>1685625</frame>
								<displayformat>NDF</displayformat>
								<reel>
									<name>B0450006</name>
								</reel>
							</timecode>
							<media>
								<video>
									<samplecharacteristics>
										<rate>
											<timebase>24</timebase>
											<ntsc>TRUE</ntsc>
										</rate>
										<width>4096</width>
										<height>2160</height>
										<anamorphic>FALSE</anamorphic>
										<pixelaspectratio>square</pixelaspectratio>
										<fielddominance>none</fielddominance>
									</samplecharacteristics>
								</video>
							</media>
						</file>
						<logginginfo>
							<description></description>
							<scene></scene>
							<shottake></shottake>
							<lognote></lognote>
							<good></good>
							<originalvideofilename></originalvideofilename>
							<originalaudiofilename></originalaudiofilename>
						</logginginfo>
						<colorinfo>
							<lut></lut>
							<lut1></lut1>
							<asc_sop></asc_sop>
							<asc_sat></asc_sat>
							<lut2></lut2>
						</colorinfo>
						<labels>
							<label2>Violet</label2>
						</labels>
					</clipitem>
					<clipitem id="clipitem-63">
						<masterclipid>masterclip-62</masterclipid>
						<name>TKO_002_FAN_Sh00610.mov</name>
						<enabled>TRUE</enabled>
						<duration>113</duration>
						<rate>
							<timebase>24</timebase>
							<ntsc>TRUE</ntsc>
						</rate>
						<start>4419</start>
						<end>4528</end>
						<in>2</in>
						<out>111</out>
						<pproTicksIn>21189168000</pproTicksIn>
						<pproTicksOut>1175998824000</pproTicksOut>
						<alphatype>none</alphatype>
						<pixelaspectratio>square</pixelaspectratio>
						<anamorphic>FALSE</anamorphic>
						<file id="file-62">
							<name>TKO_002_FAN_Sh00610.mov</name>
							<pathurl>file://tri-stor01/Projects/TKO/SHOTS/_Refs_Movs_Burnin_FrameCounter/TKO_002_FAN_Sh00610.mov</pathurl>
							<rate>
								<timebase>24</timebase>
								<ntsc>FALSE</ntsc>
							</rate>
							<duration>114</duration>
							<timecode>
								<rate>
									<timebase>24</timebase>
									<ntsc>FALSE</ntsc>
								</rate>
								<string>00:00:43:19</string>
								<frame>1051</frame>
								<displayformat>NDF</displayformat>
							</timecode>
							<media>
								<video>
									<samplecharacteristics>
										<rate>
											<timebase>24</timebase>
											<ntsc>FALSE</ntsc>
										</rate>
										<width>1280</width>
										<height>720</height>
										<anamorphic>FALSE</anamorphic>
										<pixelaspectratio>square</pixelaspectratio>
										<fielddominance>none</fielddominance>
									</samplecharacteristics>
								</video>
							</media>
						</file>
						<logginginfo>
							<description></description>
							<scene></scene>
							<shottake></shottake>
							<lognote></lognote>
							<good></good>
							<originalvideofilename></originalvideofilename>
							<originalaudiofilename></originalaudiofilename>
						</logginginfo>
						<colorinfo>
							<lut></lut>
							<lut1></lut1>
							<asc_sop></asc_sop>
							<asc_sat></asc_sat>
							<lut2></lut2>
						</colorinfo>
						<labels>
							<label2>Violet</label2>
						</labels>
					</clipitem>
					<clipitem id="clipitem-64">
						<masterclipid>masterclip-63</masterclipid>
						<name>TKO_002_FAN_Sh00620.mov</name>
						<enabled>TRUE</enabled>
						<duration>223</duration>
						<rate>
							<timebase>24</timebase>
							<ntsc>TRUE</ntsc>
						</rate>
						<start>4528</start>
						<end>4743</end>
						<in>4</in>
						<out>219</out>
						<pproTicksIn>42378336000</pproTicksIn>
						<pproTicksOut>2320213896000</pproTicksOut>
						<alphatype>none</alphatype>
						<pixelaspectratio>square</pixelaspectratio>
						<anamorphic>FALSE</anamorphic>
						<file id="file-63">
							<name>TKO_002_FAN_Sh00620.mov</name>
							<pathurl>file://tri-stor01/Projects/TKO/SHOTS/_Refs_Movs_Burnin_FrameCounter/TKO_002_FAN_Sh00620.mov</pathurl>
							<rate>
								<timebase>24</timebase>
								<ntsc>TRUE</ntsc>
							</rate>
							<duration>223</duration>
							<timecode>
								<rate>
									<timebase>24</timebase>
									<ntsc>TRUE</ntsc>
								</rate>
								<string>13:10:33:16</string>
								<frame>1138408</frame>
								<displayformat>NDF</displayformat>
								<reel>
									<name>B0080008</name>
								</reel>
							</timecode>
							<media>
								<video>
									<samplecharacteristics>
										<rate>
											<timebase>24</timebase>
											<ntsc>TRUE</ntsc>
										</rate>
										<width>4096</width>
										<height>2160</height>
										<anamorphic>FALSE</anamorphic>
										<pixelaspectratio>square</pixelaspectratio>
										<fielddominance>none</fielddominance>
									</samplecharacteristics>
								</video>
							</media>
						</file>
						<logginginfo>
							<description></description>
							<scene></scene>
							<shottake></shottake>
							<lognote></lognote>
							<good></good>
							<originalvideofilename></originalvideofilename>
							<originalaudiofilename></originalaudiofilename>
						</logginginfo>
						<colorinfo>
							<lut></lut>
							<lut1></lut1>
							<asc_sop></asc_sop>
							<asc_sat></asc_sat>
							<lut2></lut2>
						</colorinfo>
						<labels>
							<label2>Violet</label2>
						</labels>
					</clipitem>
					<clipitem id="clipitem-65">
						<masterclipid>masterclip-64</masterclipid>
						<name>TKO_002_FAN_Sh00630.mov</name>
						<enabled>TRUE</enabled>
						<duration>187</duration>
						<rate>
							<timebase>24</timebase>
							<ntsc>TRUE</ntsc>
						</rate>
						<start>4743</start>
						<end>4922</end>
						<in>4</in>
						<out>183</out>
						<pproTicksIn>42378336000</pproTicksIn>
						<pproTicksOut>1938808872000</pproTicksOut>
						<alphatype>none</alphatype>
						<pixelaspectratio>square</pixelaspectratio>
						<anamorphic>FALSE</anamorphic>
						<file id="file-64">
							<name>TKO_002_FAN_Sh00630.mov</name>
							<pathurl>file://tri-stor01/Projects/TKO/SHOTS/_Refs_Movs_Burnin_FrameCounter/TKO_002_FAN_Sh00630.mov</pathurl>
							<rate>
								<timebase>24</timebase>
								<ntsc>TRUE</ntsc>
							</rate>
							<duration>187</duration>
							<timecode>
								<rate>
									<timebase>24</timebase>
									<ntsc>TRUE</ntsc>
								</rate>
								<string>12:12:58:18</string>
								<frame>1055490</frame>
								<displayformat>NDF</displayformat>
								<reel>
									<name>B0080006</name>
								</reel>
							</timecode>
							<media>
								<video>
									<samplecharacteristics>
										<rate>
											<timebase>24</timebase>
											<ntsc>TRUE</ntsc>
										</rate>
										<width>4096</width>
										<height>2160</height>
										<anamorphic>FALSE</anamorphic>
										<pixelaspectratio>square</pixelaspectratio>
										<fielddominance>none</fielddominance>
									</samplecharacteristics>
								</video>
							</media>
						</file>
						<logginginfo>
							<description></description>
							<scene></scene>
							<shottake></shottake>
							<lognote></lognote>
							<good></good>
							<originalvideofilename></originalvideofilename>
							<originalaudiofilename></originalaudiofilename>
						</logginginfo>
						<colorinfo>
							<lut></lut>
							<lut1></lut1>
							<asc_sop></asc_sop>
							<asc_sat></asc_sat>
							<lut2></lut2>
						</colorinfo>
						<labels>
							<label2>Violet</label2>
						</labels>
					</clipitem>
					<clipitem id="clipitem-66">
						<masterclipid>masterclip-65</masterclipid>
						<name>TKO_002_FAN_Sh00640.mov</name>
						<enabled>TRUE</enabled>
						<duration>160</duration>
						<rate>
							<timebase>24</timebase>
							<ntsc>TRUE</ntsc>
						</rate>
						<start>4922</start>
						<end>5074</end>
						<in>4</in>
						<out>156</out>
						<pproTicksIn>42378336000</pproTicksIn>
						<pproTicksOut>1652755104000</pproTicksOut>
						<alphatype>none</alphatype>
						<pixelaspectratio>square</pixelaspectratio>
						<anamorphic>FALSE</anamorphic>
						<file id="file-65">
							<name>TKO_002_FAN_Sh00640.mov</name>
							<pathurl>file://tri-stor01/Projects/TKO/SHOTS/_Refs_Movs_Burnin_FrameCounter/TKO_002_FAN_Sh00640.mov</pathurl>
							<rate>
								<timebase>24</timebase>
								<ntsc>TRUE</ntsc>
							</rate>
							<duration>160</duration>
							<timecode>
								<rate>
									<timebase>24</timebase>
									<ntsc>TRUE</ntsc>
								</rate>
								<string>13:10:51:11</string>
								<frame>1138835</frame>
								<displayformat>NDF</displayformat>
								<reel>
									<name>B0080008</name>
								</reel>
							</timecode>
							<media>
								<video>
									<samplecharacteristics>
										<rate>
											<timebase>24</timebase>
											<ntsc>TRUE</ntsc>
										</rate>
										<width>4096</width>
										<height>2160</height>
										<anamorphic>FALSE</anamorphic>
										<pixelaspectratio>square</pixelaspectratio>
										<fielddominance>none</fielddominance>
									</samplecharacteristics>
								</video>
							</media>
						</file>
						<logginginfo>
							<description></description>
							<scene></scene>
							<shottake></shottake>
							<lognote></lognote>
							<good></good>
							<originalvideofilename></originalvideofilename>
							<originalaudiofilename></originalaudiofilename>
						</logginginfo>
						<colorinfo>
							<lut></lut>
							<lut1></lut1>
							<asc_sop></asc_sop>
							<asc_sat></asc_sat>
							<lut2></lut2>
						</colorinfo>
						<labels>
							<label2>Violet</label2>
						</labels>
					</clipitem>
					<clipitem id="clipitem-67">
						<masterclipid>masterclip-66</masterclipid>
						<name>TKO_002_FAN_Sh00650.mov</name>
						<enabled>TRUE</enabled>
						<duration>112</duration>
						<rate>
							<timebase>24</timebase>
							<ntsc>TRUE</ntsc>
						</rate>
						<start>5074</start>
						<end>5178</end>
						<in>4</in>
						<out>108</out>
						<pproTicksIn>42378336000</pproTicksIn>
						<pproTicksOut>1144215072000</pproTicksOut>
						<alphatype>none</alphatype>
						<pixelaspectratio>square</pixelaspectratio>
						<anamorphic>FALSE</anamorphic>
						<file id="file-66">
							<name>TKO_002_FAN_Sh00650.mov</name>
							<pathurl>file://tri-stor01/Projects/TKO/SHOTS/_Refs_Movs_Burnin_FrameCounter/TKO_002_FAN_Sh00650.mov</pathurl>
							<rate>
								<timebase>24</timebase>
								<ntsc>TRUE</ntsc>
							</rate>
							<duration>112</duration>
							<timecode>
								<rate>
									<timebase>24</timebase>
									<ntsc>TRUE</ntsc>
								</rate>
								<string>13:10:57:19</string>
								<frame>1138987</frame>
								<displayformat>NDF</displayformat>
								<reel>
									<name>A0110012</name>
								</reel>
							</timecode>
							<media>
								<video>
									<samplecharacteristics>
										<rate>
											<timebase>24</timebase>
											<ntsc>TRUE</ntsc>
										</rate>
										<width>4096</width>
										<height>2160</height>
										<anamorphic>FALSE</anamorphic>
										<pixelaspectratio>square</pixelaspectratio>
										<fielddominance>none</fielddominance>
									</samplecharacteristics>
								</video>
							</media>
						</file>
						<logginginfo>
							<description></description>
							<scene></scene>
							<shottake></shottake>
							<lognote></lognote>
							<good></good>
							<originalvideofilename></originalvideofilename>
							<originalaudiofilename></originalaudiofilename>
						</logginginfo>
						<colorinfo>
							<lut></lut>
							<lut1></lut1>
							<asc_sop></asc_sop>
							<asc_sat></asc_sat>
							<lut2></lut2>
						</colorinfo>
						<labels>
							<label2>Violet</label2>
						</labels>
					</clipitem>
					<clipitem id="clipitem-68">
						<masterclipid>masterclip-67</masterclipid>
						<name>TKO_002_FAN_Sh00660.mov</name>
						<enabled>TRUE</enabled>
						<duration>152</duration>
						<rate>
							<timebase>24</timebase>
							<ntsc>TRUE</ntsc>
						</rate>
						<start>5178</start>
						<end>5322</end>
						<in>4</in>
						<out>148</out>
						<pproTicksIn>42378336000</pproTicksIn>
						<pproTicksOut>1567998432000</pproTicksOut>
						<alphatype>none</alphatype>
						<pixelaspectratio>square</pixelaspectratio>
						<anamorphic>FALSE</anamorphic>
						<file id="file-67">
							<name>TKO_002_FAN_Sh00660.mov</name>
							<pathurl>file://tri-stor01/Projects/TKO/SHOTS/_Refs_Movs_Burnin_FrameCounter/TKO_002_FAN_Sh00660.mov</pathurl>
							<rate>
								<timebase>24</timebase>
								<ntsc>TRUE</ntsc>
							</rate>
							<duration>152</duration>
							<timecode>
								<rate>
									<timebase>24</timebase>
									<ntsc>TRUE</ntsc>
								</rate>
								<string>13:11:02:03</string>
								<frame>1139091</frame>
								<displayformat>NDF</displayformat>
								<reel>
									<name>B0080008</name>
								</reel>
							</timecode>
							<media>
								<video>
									<samplecharacteristics>
										<rate>
											<timebase>24</timebase>
											<ntsc>TRUE</ntsc>
										</rate>
										<width>4096</width>
										<height>2160</height>
										<anamorphic>FALSE</anamorphic>
										<pixelaspectratio>square</pixelaspectratio>
										<fielddominance>none</fielddominance>
									</samplecharacteristics>
								</video>
							</media>
						</file>
						<logginginfo>
							<description></description>
							<scene></scene>
							<shottake></shottake>
							<lognote></lognote>
							<good></good>
							<originalvideofilename></originalvideofilename>
							<originalaudiofilename></originalaudiofilename>
						</logginginfo>
						<colorinfo>
							<lut></lut>
							<lut1></lut1>
							<asc_sop></asc_sop>
							<asc_sat></asc_sat>
							<lut2></lut2>
						</colorinfo>
						<labels>
							<label2>Violet</label2>
						</labels>
					</clipitem>
					<clipitem id="clipitem-69">
						<masterclipid>masterclip-68</masterclipid>
						<name>TKO_002_FAN_Sh00670.mov</name>
						<enabled>TRUE</enabled>
						<duration>63</duration>
						<rate>
							<timebase>24</timebase>
							<ntsc>TRUE</ntsc>
						</rate>
						<start>5322</start>
						<end>5378</end>
						<in>4</in>
						<out>60</out>
						<pproTicksIn>42378336000</pproTicksIn>
						<pproTicksOut>635675040000</pproTicksOut>
						<alphatype>none</alphatype>
						<pixelaspectratio>square</pixelaspectratio>
						<anamorphic>FALSE</anamorphic>
						<file id="file-68">
							<name>TKO_002_FAN_Sh00670.mov</name>
							<pathurl>file://tri-stor01/Projects/TKO/SHOTS/_Refs_Movs_Burnin_FrameCounter/TKO_002_FAN_Sh00670.mov</pathurl>
							<rate>
								<timebase>24</timebase>
								<ntsc>FALSE</ntsc>
							</rate>
							<duration>64</duration>
							<timecode>
								<rate>
									<timebase>24</timebase>
									<ntsc>FALSE</ntsc>
								</rate>
								<string>00:00:01:16</string>
								<frame>40</frame>
								<displayformat>NDF</displayformat>
							</timecode>
							<media>
								<video>
									<samplecharacteristics>
										<rate>
											<timebase>24</timebase>
											<ntsc>FALSE</ntsc>
										</rate>
										<width>1280</width>
										<height>720</height>
										<anamorphic>FALSE</anamorphic>
										<pixelaspectratio>square</pixelaspectratio>
										<fielddominance>none</fielddominance>
									</samplecharacteristics>
								</video>
							</media>
						</file>
						<logginginfo>
							<description></description>
							<scene></scene>
							<shottake></shottake>
							<lognote></lognote>
							<good></good>
							<originalvideofilename></originalvideofilename>
							<originalaudiofilename></originalaudiofilename>
						</logginginfo>
						<colorinfo>
							<lut></lut>
							<lut1></lut1>
							<asc_sop></asc_sop>
							<asc_sat></asc_sat>
							<lut2></lut2>
						</colorinfo>
						<labels>
							<label2>Violet</label2>
						</labels>
					</clipitem>
					<clipitem id="clipitem-70">
						<masterclipid>masterclip-69</masterclipid>
						<name>TKO_002_FAN_Sh00680.mov</name>
						<enabled>TRUE</enabled>
						<duration>109</duration>
						<rate>
							<timebase>24</timebase>
							<ntsc>TRUE</ntsc>
						</rate>
						<start>5378</start>
						<end>5479</end>
						<in>4</in>
						<out>105</out>
						<pproTicksIn>42378336000</pproTicksIn>
						<pproTicksOut>1112431320000</pproTicksOut>
						<alphatype>none</alphatype>
						<pixelaspectratio>square</pixelaspectratio>
						<anamorphic>FALSE</anamorphic>
						<file id="file-69">
							<name>TKO_002_FAN_Sh00680.mov</name>
							<pathurl>file://tri-stor01/Projects/TKO/SHOTS/_Refs_Movs_Burnin_FrameCounter/TKO_002_FAN_Sh00680.mov</pathurl>
							<rate>
								<timebase>24</timebase>
								<ntsc>TRUE</ntsc>
							</rate>
							<duration>109</duration>
							<timecode>
								<rate>
									<timebase>24</timebase>
									<ntsc>TRUE</ntsc>
								</rate>
								<string>13:22:30:00</string>
								<frame>1155600</frame>
								<displayformat>NDF</displayformat>
								<reel>
									<name>C0340008</name>
								</reel>
							</timecode>
							<media>
								<video>
									<samplecharacteristics>
										<rate>
											<timebase>24</timebase>
											<ntsc>TRUE</ntsc>
										</rate>
										<width>3840</width>
										<height>2160</height>
										<anamorphic>FALSE</anamorphic>
										<pixelaspectratio>square</pixelaspectratio>
										<fielddominance>none</fielddominance>
									</samplecharacteristics>
								</video>
							</media>
						</file>
						<logginginfo>
							<description></description>
							<scene></scene>
							<shottake></shottake>
							<lognote></lognote>
							<good></good>
							<originalvideofilename></originalvideofilename>
							<originalaudiofilename></originalaudiofilename>
						</logginginfo>
						<colorinfo>
							<lut></lut>
							<lut1></lut1>
							<asc_sop></asc_sop>
							<asc_sat></asc_sat>
							<lut2></lut2>
						</colorinfo>
						<labels>
							<label2>Violet</label2>
						</labels>
					</clipitem>
					<clipitem id="clipitem-71">
						<masterclipid>masterclip-70</masterclipid>
						<name>TKO_002_FAN_Sh00690.mov</name>
						<enabled>TRUE</enabled>
						<duration>130</duration>
						<rate>
							<timebase>24</timebase>
							<ntsc>TRUE</ntsc>
						</rate>
						<start>5479</start>
						<end>5570</end>
						<in>6</in>
						<out>91</out>
						<pproTicksIn>105945840000</pproTicksIn>
						<pproTicksOut>1801079280000</pproTicksOut>
						<alphatype>none</alphatype>
						<pixelaspectratio>square</pixelaspectratio>
						<anamorphic>FALSE</anamorphic>
						<file id="file-70">
							<name>TKO_002_FAN_Sh00690.mov</name>
							<pathurl>file://tri-stor01/Projects/TKO/SHOTS/_Refs_Movs_Burnin_FrameCounter/TKO_002_FAN_Sh00690.mov</pathurl>
							<rate>
								<timebase>24</timebase>
								<ntsc>TRUE</ntsc>
							</rate>
							<duration>243</duration>
							<timecode>
								<rate>
									<timebase>24</timebase>
									<ntsc>TRUE</ntsc>
								</rate>
								<string>00:00:00:00</string>
								<frame>0</frame>
								<displayformat>NDF</displayformat>
							</timecode>
							<media>
								<video>
									<samplecharacteristics>
										<rate>
											<timebase>24</timebase>
											<ntsc>TRUE</ntsc>
										</rate>
										<width>4096</width>
										<height>2160</height>
										<anamorphic>FALSE</anamorphic>
										<pixelaspectratio>square</pixelaspectratio>
										<fielddominance>none</fielddominance>
									</samplecharacteristics>
								</video>
							</media>
						</file>
						<filter>
							<effect>
								<name>Time Remap</name>
								<effectid>timeremap</effectid>
								<effectcategory>motion</effectcategory>
								<effecttype>motion</effecttype>
								<mediatype>video</mediatype>
								<parameter authoringApp="PremierePro">
									<parameterid>variablespeed</parameterid>
									<name>variablespeed</name>
									<valuemin>0</valuemin>
									<valuemax>1</valuemax>
									<value>0</value>
								</parameter>
								<parameter authoringApp="PremierePro">
									<parameterid>speed</parameterid>
									<name>speed</name>
									<valuemin>-100000</valuemin>
									<valuemax>100000</valuemax>
									<value>186.813</value>
								</parameter>
								<parameter authoringApp="PremierePro">
									<parameterid>reverse</parameterid>
									<name>reverse</name>
									<value>FALSE</value>
								</parameter>
								<parameter authoringApp="PremierePro">
									<parameterid>frameblending</parameterid>
									<name>frameblending</name>
									<value>FALSE</value>
								</parameter>
								<parameter authoringApp="PremierePro">
									<parameterid>graphdict</parameterid>
									<name>graphdict</name>
									<valuemin>0</valuemin>
									<valuemax>242</valuemax>
									<value>0</value>
									<keyframe>
										<when>0</when>
										<value>0</value>
										<speedvirtualkf>TRUE</speedvirtualkf>
										<speedkfstart>TRUE</speedkfstart>
									</keyframe>
									<keyframe>
										<when>6</when>
										<value>11</value>
										<speedvirtualkf>TRUE</speedvirtualkf>
										<speedkfin>TRUE</speedkfin>
									</keyframe>
									<keyframe>
										<when>91</when>
										<value>169</value>
										<speedvirtualkf>TRUE</speedvirtualkf>
										<speedkfout>TRUE</speedkfout>
									</keyframe>
									<keyframe>
										<when>130</when>
										<value>242</value>
										<speedvirtualkf>TRUE</speedvirtualkf>
										<speedkfend>TRUE</speedkfend>
									</keyframe>
									<interpolation>
										<name>FCPCurve</name>
									</interpolation>
								</parameter>
							</effect>
						</filter>
						<logginginfo>
							<description></description>
							<scene></scene>
							<shottake></shottake>
							<lognote></lognote>
							<good></good>
							<originalvideofilename></originalvideofilename>
							<originalaudiofilename></originalaudiofilename>
						</logginginfo>
						<colorinfo>
							<lut></lut>
							<lut1></lut1>
							<asc_sop></asc_sop>
							<asc_sat></asc_sat>
							<lut2></lut2>
						</colorinfo>
						<labels>
							<label2>Violet</label2>
						</labels>
					</clipitem>
					<clipitem id="clipitem-72">
						<masterclipid>masterclip-70</masterclipid>
						<name>TKO_002_FAN_Sh00690.mov</name>
						<enabled>TRUE</enabled>
						<duration>243</duration>
						<rate>
							<timebase>24</timebase>
							<ntsc>TRUE</ntsc>
						</rate>
						<start>5570</start>
						<end>5633</end>
						<in>176</in>
						<out>239</out>
						<pproTicksIn>1864646784000</pproTicksIn>
						<pproTicksOut>2532105576000</pproTicksOut>
						<alphatype>none</alphatype>
						<file id="file-70"/>
						<logginginfo>
							<description></description>
							<scene></scene>
							<shottake></shottake>
							<lognote></lognote>
							<good></good>
							<originalvideofilename></originalvideofilename>
							<originalaudiofilename></originalaudiofilename>
						</logginginfo>
						<colorinfo>
							<lut></lut>
							<lut1></lut1>
							<asc_sop></asc_sop>
							<asc_sat></asc_sat>
							<lut2></lut2>
						</colorinfo>
						<labels>
							<label2>Violet</label2>
						</labels>
					</clipitem>
					<clipitem id="clipitem-73">
						<masterclipid>masterclip-71</masterclipid>
						<name>TKO_002_FAN_Sh00700.mov</name>
						<enabled>TRUE</enabled>
						<duration>126</duration>
						<rate>
							<timebase>24</timebase>
							<ntsc>TRUE</ntsc>
						</rate>
						<start>5633</start>
						<end>5751</end>
						<in>4</in>
						<out>122</out>
						<pproTicksIn>42378336000</pproTicksIn>
						<pproTicksOut>1292539248000</pproTicksOut>
						<alphatype>none</alphatype>
						<pixelaspectratio>square</pixelaspectratio>
						<anamorphic>FALSE</anamorphic>
						<file id="file-71">
							<name>TKO_002_FAN_Sh00700.mov</name>
							<pathurl>file://tri-stor01/Projects/TKO/SHOTS/_Refs_Movs_Burnin_FrameCounter/TKO_002_FAN_Sh00700.mov</pathurl>
							<rate>
								<timebase>24</timebase>
								<ntsc>TRUE</ntsc>
							</rate>
							<duration>126</duration>
							<timecode>
								<rate>
									<timebase>24</timebase>
									<ntsc>TRUE</ntsc>
								</rate>
								<string>19:58:24:21</string>
								<frame>1725717</frame>
								<displayformat>NDF</displayformat>
								<reel>
									<name>B0450008</name>
								</reel>
							</timecode>
							<media>
								<video>
									<samplecharacteristics>
										<rate>
											<timebase>24</timebase>
											<ntsc>TRUE</ntsc>
										</rate>
										<width>4096</width>
										<height>2160</height>
										<anamorphic>FALSE</anamorphic>
										<pixelaspectratio>square</pixelaspectratio>
										<fielddominance>none</fielddominance>
									</samplecharacteristics>
								</video>
							</media>
						</file>
						<logginginfo>
							<description></description>
							<scene></scene>
							<shottake></shottake>
							<lognote></lognote>
							<good></good>
							<originalvideofilename></originalvideofilename>
							<originalaudiofilename></originalaudiofilename>
						</logginginfo>
						<colorinfo>
							<lut></lut>
							<lut1></lut1>
							<asc_sop></asc_sop>
							<asc_sat></asc_sat>
							<lut2></lut2>
						</colorinfo>
						<labels>
							<label2>Violet</label2>
						</labels>
					</clipitem>
					<clipitem id="clipitem-74">
						<masterclipid>masterclip-72</masterclipid>
						<name>TKO_002_FAN_Sh00710.mov</name>
						<enabled>TRUE</enabled>
						<duration>80</duration>
						<rate>
							<timebase>24</timebase>
							<ntsc>TRUE</ntsc>
						</rate>
						<start>5751</start>
						<end>5822</end>
						<in>4</in>
						<out>75</out>
						<pproTicksIn>42378336000</pproTicksIn>
						<pproTicksOut>794593800000</pproTicksOut>
						<alphatype>none</alphatype>
						<pixelaspectratio>square</pixelaspectratio>
						<anamorphic>FALSE</anamorphic>
						<file id="file-72">
							<name>TKO_002_FAN_Sh00710.mov</name>
							<pathurl>file://tri-stor01/Projects/TKO/SHOTS/_Refs_Movs_Burnin_FrameCounter/TKO_002_FAN_Sh00710.mov</pathurl>
							<rate>
								<timebase>24</timebase>
								<ntsc>TRUE</ntsc>
							</rate>
							<duration>80</duration>
							<timecode>
								<rate>
									<timebase>24</timebase>
									<ntsc>TRUE</ntsc>
								</rate>
								<string>13:20:58:14</string>
								<frame>1153406</frame>
								<displayformat>NDF</displayformat>
								<reel>
									<name>C0340007</name>
								</reel>
							</timecode>
							<media>
								<video>
									<samplecharacteristics>
										<rate>
											<timebase>24</timebase>
											<ntsc>TRUE</ntsc>
										</rate>
										<width>3840</width>
										<height>2160</height>
										<anamorphic>FALSE</anamorphic>
										<pixelaspectratio>square</pixelaspectratio>
										<fielddominance>none</fielddominance>
									</samplecharacteristics>
								</video>
							</media>
						</file>
						<logginginfo>
							<description></description>
							<scene></scene>
							<shottake></shottake>
							<lognote></lognote>
							<good></good>
							<originalvideofilename></originalvideofilename>
							<originalaudiofilename></originalaudiofilename>
						</logginginfo>
						<colorinfo>
							<lut></lut>
							<lut1></lut1>
							<asc_sop></asc_sop>
							<asc_sat></asc_sat>
							<lut2></lut2>
						</colorinfo>
						<labels>
							<label2>Violet</label2>
						</labels>
					</clipitem>
					<clipitem id="clipitem-75">
						<masterclipid>masterclip-73</masterclipid>
						<name>TKO_002_FAN_Sh00730.mov</name>
						<enabled>TRUE</enabled>
						<duration>119</duration>
						<rate>
							<timebase>24</timebase>
							<ntsc>TRUE</ntsc>
						</rate>
						<start>5822</start>
						<end>5933</end>
						<in>4</in>
						<out>115</out>
						<pproTicksIn>42378336000</pproTicksIn>
						<pproTicksOut>1218377160000</pproTicksOut>
						<alphatype>none</alphatype>
						<pixelaspectratio>square</pixelaspectratio>
						<anamorphic>FALSE</anamorphic>
						<file id="file-73">
							<name>TKO_002_FAN_Sh00730.mov</name>
							<pathurl>file://tri-stor01/Projects/TKO/SHOTS/_Refs_Movs_Burnin_FrameCounter/TKO_002_FAN_Sh00730.mov</pathurl>
							<rate>
								<timebase>24</timebase>
								<ntsc>TRUE</ntsc>
							</rate>
							<duration>119</duration>
							<timecode>
								<rate>
									<timebase>24</timebase>
									<ntsc>TRUE</ntsc>
								</rate>
								<string>00:00:00:00</string>
								<frame>0</frame>
								<displayformat>NDF</displayformat>
							</timecode>
							<media>
								<video>
									<samplecharacteristics>
										<rate>
											<timebase>24</timebase>
											<ntsc>TRUE</ntsc>
										</rate>
										<width>4096</width>
										<height>2160</height>
										<anamorphic>FALSE</anamorphic>
										<pixelaspectratio>square</pixelaspectratio>
										<fielddominance>none</fielddominance>
									</samplecharacteristics>
								</video>
							</media>
						</file>
						<logginginfo>
							<description></description>
							<scene></scene>
							<shottake></shottake>
							<lognote></lognote>
							<good></good>
							<originalvideofilename></originalvideofilename>
							<originalaudiofilename></originalaudiofilename>
						</logginginfo>
						<colorinfo>
							<lut></lut>
							<lut1></lut1>
							<asc_sop></asc_sop>
							<asc_sat></asc_sat>
							<lut2></lut2>
						</colorinfo>
						<labels>
							<label2>Violet</label2>
						</labels>
					</clipitem>
					<clipitem id="clipitem-76">
						<masterclipid>masterclip-74</masterclipid>
						<name>TKO_002_FAN_Sh00740.mov</name>
						<enabled>TRUE</enabled>
						<duration>124</duration>
						<rate>
							<timebase>24</timebase>
							<ntsc>TRUE</ntsc>
						</rate>
						<start>5933</start>
						<end>6049</end>
						<in>4</in>
						<out>120</out>
						<pproTicksIn>42378336000</pproTicksIn>
						<pproTicksOut>1271350080000</pproTicksOut>
						<alphatype>none</alphatype>
						<pixelaspectratio>square</pixelaspectratio>
						<anamorphic>FALSE</anamorphic>
						<file id="file-74">
							<name>TKO_002_FAN_Sh00740.mov</name>
							<pathurl>file://tri-stor01/Projects/TKO/SHOTS/_Refs_Movs_Burnin_FrameCounter/TKO_002_FAN_Sh00740.mov</pathurl>
							<rate>
								<timebase>24</timebase>
								<ntsc>TRUE</ntsc>
							</rate>
							<duration>124</duration>
							<timecode>
								<rate>
									<timebase>24</timebase>
									<ntsc>TRUE</ntsc>
								</rate>
								<string>09:10:00:07</string>
								<frame>792007</frame>
								<displayformat>NDF</displayformat>
								<reel>
									<name>B0050001</name>
								</reel>
							</timecode>
							<media>
								<video>
									<samplecharacteristics>
										<rate>
											<timebase>24</timebase>
											<ntsc>TRUE</ntsc>
										</rate>
										<width>4096</width>
										<height>2160</height>
										<anamorphic>FALSE</anamorphic>
										<pixelaspectratio>square</pixelaspectratio>
										<fielddominance>none</fielddominance>
									</samplecharacteristics>
								</video>
							</media>
						</file>
						<logginginfo>
							<description></description>
							<scene></scene>
							<shottake></shottake>
							<lognote></lognote>
							<good></good>
							<originalvideofilename></originalvideofilename>
							<originalaudiofilename></originalaudiofilename>
						</logginginfo>
						<colorinfo>
							<lut></lut>
							<lut1></lut1>
							<asc_sop></asc_sop>
							<asc_sat></asc_sat>
							<lut2></lut2>
						</colorinfo>
						<labels>
							<label2>Violet</label2>
						</labels>
					</clipitem>
					<clipitem id="clipitem-77">
						<masterclipid>masterclip-75</masterclipid>
						<name>TKO_002_FAN_Sh00750.mov</name>
						<enabled>TRUE</enabled>
						<duration>82</duration>
						<rate>
							<timebase>24</timebase>
							<ntsc>TRUE</ntsc>
						</rate>
						<start>6049</start>
						<end>6123</end>
						<in>4</in>
						<out>78</out>
						<pproTicksIn>42378336000</pproTicksIn>
						<pproTicksOut>826377552000</pproTicksOut>
						<alphatype>none</alphatype>
						<pixelaspectratio>square</pixelaspectratio>
						<anamorphic>FALSE</anamorphic>
						<file id="file-75">
							<name>TKO_002_FAN_Sh00750.mov</name>
							<pathurl>file://tri-stor01/Projects/TKO/SHOTS/_Refs_Movs_Burnin_FrameCounter/TKO_002_FAN_Sh00750.mov</pathurl>
							<rate>
								<timebase>24</timebase>
								<ntsc>TRUE</ntsc>
							</rate>
							<duration>82</duration>
							<timecode>
								<rate>
									<timebase>24</timebase>
									<ntsc>TRUE</ntsc>
								</rate>
								<string>01:46:30:17</string>
								<frame>153377</frame>
								<displayformat>NDF</displayformat>
								<reel>
									<name>C0030002</name>
								</reel>
							</timecode>
							<media>
								<video>
									<samplecharacteristics>
										<rate>
											<timebase>24</timebase>
											<ntsc>TRUE</ntsc>
										</rate>
										<width>3840</width>
										<height>2160</height>
										<anamorphic>FALSE</anamorphic>
										<pixelaspectratio>square</pixelaspectratio>
										<fielddominance>none</fielddominance>
									</samplecharacteristics>
								</video>
							</media>
						</file>
						<logginginfo>
							<description></description>
							<scene></scene>
							<shottake></shottake>
							<lognote></lognote>
							<good></good>
							<originalvideofilename></originalvideofilename>
							<originalaudiofilename></originalaudiofilename>
						</logginginfo>
						<colorinfo>
							<lut></lut>
							<lut1></lut1>
							<asc_sop></asc_sop>
							<asc_sat></asc_sat>
							<lut2></lut2>
						</colorinfo>
						<labels>
							<label2>Violet</label2>
						</labels>
					</clipitem>
					<clipitem id="clipitem-78">
						<masterclipid>masterclip-76</masterclipid>
						<name>TKO_002_FAN_Sh00760.mov</name>
						<enabled>TRUE</enabled>
						<duration>124</duration>
						<rate>
							<timebase>24</timebase>
							<ntsc>TRUE</ntsc>
						</rate>
						<start>6123</start>
						<end>6239</end>
						<in>4</in>
						<out>120</out>
						<pproTicksIn>42378336000</pproTicksIn>
						<pproTicksOut>1271350080000</pproTicksOut>
						<alphatype>none</alphatype>
						<pixelaspectratio>square</pixelaspectratio>
						<anamorphic>FALSE</anamorphic>
						<file id="file-76">
							<name>TKO_002_FAN_Sh00760.mov</name>
							<pathurl>file://tri-stor01/Projects/TKO/SHOTS/_Refs_Movs_Burnin_FrameCounter/TKO_002_FAN_Sh00760.mov</pathurl>
							<rate>
								<timebase>24</timebase>
								<ntsc>TRUE</ntsc>
							</rate>
							<duration>124</duration>
							<timecode>
								<rate>
									<timebase>24</timebase>
									<ntsc>TRUE</ntsc>
								</rate>
								<string>09:11:49:08</string>
								<frame>794624</frame>
								<displayformat>NDF</displayformat>
								<reel>
									<name>A0080002</name>
								</reel>
							</timecode>
							<media>
								<video>
									<samplecharacteristics>
										<rate>
											<timebase>24</timebase>
											<ntsc>TRUE</ntsc>
										</rate>
										<width>4096</width>
										<height>2160</height>
										<anamorphic>FALSE</anamorphic>
										<pixelaspectratio>square</pixelaspectratio>
										<fielddominance>none</fielddominance>
									</samplecharacteristics>
								</video>
							</media>
						</file>
						<logginginfo>
							<description></description>
							<scene></scene>
							<shottake></shottake>
							<lognote></lognote>
							<good></good>
							<originalvideofilename></originalvideofilename>
							<originalaudiofilename></originalaudiofilename>
						</logginginfo>
						<colorinfo>
							<lut></lut>
							<lut1></lut1>
							<asc_sop></asc_sop>
							<asc_sat></asc_sat>
							<lut2></lut2>
						</colorinfo>
						<labels>
							<label2>Violet</label2>
						</labels>
					</clipitem>
					<clipitem id="clipitem-79">
						<masterclipid>masterclip-77</masterclipid>
						<name>TKO_002_FAN_Sh00770.mov</name>
						<enabled>TRUE</enabled>
						<duration>106</duration>
						<rate>
							<timebase>24</timebase>
							<ntsc>TRUE</ntsc>
						</rate>
						<start>6239</start>
						<end>6337</end>
						<in>4</in>
						<out>102</out>
						<pproTicksIn>42378336000</pproTicksIn>
						<pproTicksOut>1080647568000</pproTicksOut>
						<alphatype>none</alphatype>
						<pixelaspectratio>square</pixelaspectratio>
						<anamorphic>FALSE</anamorphic>
						<file id="file-77">
							<name>TKO_002_FAN_Sh00770.mov</name>
							<pathurl>file://tri-stor01/Projects/TKO/SHOTS/_Refs_Movs_Burnin_FrameCounter/TKO_002_FAN_Sh00770.mov</pathurl>
							<rate>
								<timebase>24</timebase>
								<ntsc>TRUE</ntsc>
							</rate>
							<duration>106</duration>
							<timecode>
								<rate>
									<timebase>24</timebase>
									<ntsc>TRUE</ntsc>
								</rate>
								<string>13:17:25:11</string>
								<frame>1148291</frame>
								<displayformat>NDF</displayformat>
								<reel>
									<name>C0340005</name>
								</reel>
							</timecode>
							<media>
								<video>
									<samplecharacteristics>
										<rate>
											<timebase>24</timebase>
											<ntsc>TRUE</ntsc>
										</rate>
										<width>3840</width>
										<height>2160</height>
										<anamorphic>FALSE</anamorphic>
										<pixelaspectratio>square</pixelaspectratio>
										<fielddominance>none</fielddominance>
									</samplecharacteristics>
								</video>
							</media>
						</file>
						<logginginfo>
							<description></description>
							<scene></scene>
							<shottake></shottake>
							<lognote></lognote>
							<good></good>
							<originalvideofilename></originalvideofilename>
							<originalaudiofilename></originalaudiofilename>
						</logginginfo>
						<colorinfo>
							<lut></lut>
							<lut1></lut1>
							<asc_sop></asc_sop>
							<asc_sat></asc_sat>
							<lut2></lut2>
						</colorinfo>
						<labels>
							<label2>Violet</label2>
						</labels>
					</clipitem>
					<clipitem id="clipitem-80">
						<masterclipid>masterclip-78</masterclipid>
						<name>TKO_002_FAN_Sh00780.mov</name>
						<enabled>TRUE</enabled>
						<duration>23</duration>
						<rate>
							<timebase>24</timebase>
							<ntsc>TRUE</ntsc>
						</rate>
						<start>6337</start>
						<end>6352</end>
						<in>4</in>
						<out>19</out>
						<pproTicksIn>42378336000</pproTicksIn>
						<pproTicksOut>201297096000</pproTicksOut>
						<alphatype>none</alphatype>
						<pixelaspectratio>square</pixelaspectratio>
						<anamorphic>FALSE</anamorphic>
						<file id="file-78">
							<name>TKO_002_FAN_Sh00780.mov</name>
							<pathurl>file://tri-stor01/Projects/TKO/SHOTS/_Refs_Movs_Burnin_FrameCounter/TKO_002_FAN_Sh00780.mov</pathurl>
							<rate>
								<timebase>24</timebase>
								<ntsc>TRUE</ntsc>
							</rate>
							<duration>23</duration>
							<timecode>
								<rate>
									<timebase>24</timebase>
									<ntsc>TRUE</ntsc>
								</rate>
								<string>13:20:02:18</string>
								<frame>1152066</frame>
								<displayformat>NDF</displayformat>
								<reel>
									<name>C0340006</name>
								</reel>
							</timecode>
							<media>
								<video>
									<samplecharacteristics>
										<rate>
											<timebase>24</timebase>
											<ntsc>TRUE</ntsc>
										</rate>
										<width>3840</width>
										<height>2160</height>
										<anamorphic>FALSE</anamorphic>
										<pixelaspectratio>square</pixelaspectratio>
										<fielddominance>none</fielddominance>
									</samplecharacteristics>
								</video>
							</media>
						</file>
						<logginginfo>
							<description></description>
							<scene></scene>
							<shottake></shottake>
							<lognote></lognote>
							<good></good>
							<originalvideofilename></originalvideofilename>
							<originalaudiofilename></originalaudiofilename>
						</logginginfo>
						<colorinfo>
							<lut></lut>
							<lut1></lut1>
							<asc_sop></asc_sop>
							<asc_sat></asc_sat>
							<lut2></lut2>
						</colorinfo>
						<labels>
							<label2>Violet</label2>
						</labels>
					</clipitem>
					<clipitem id="clipitem-81">
						<masterclipid>masterclip-79</masterclipid>
						<name>TKO_002_FAN_Sh00790.mov</name>
						<enabled>TRUE</enabled>
						<duration>60</duration>
						<rate>
							<timebase>24</timebase>
							<ntsc>TRUE</ntsc>
						</rate>
						<start>6352</start>
						<end>6405</end>
						<in>4</in>
						<out>57</out>
						<pproTicksIn>42378336000</pproTicksIn>
						<pproTicksOut>603891288000</pproTicksOut>
						<alphatype>none</alphatype>
						<pixelaspectratio>square</pixelaspectratio>
						<anamorphic>FALSE</anamorphic>
						<file id="file-79">
							<name>TKO_002_FAN_Sh00790.mov</name>
							<pathurl>file://tri-stor01/Projects/TKO/SHOTS/_Refs_Movs_Burnin_FrameCounter/TKO_002_FAN_Sh00790.mov</pathurl>
							<rate>
								<timebase>24</timebase>
								<ntsc>FALSE</ntsc>
							</rate>
							<duration>61</duration>
							<timecode>
								<rate>
									<timebase>24</timebase>
									<ntsc>FALSE</ntsc>
								</rate>
								<string>00:00:05:22</string>
								<frame>142</frame>
								<displayformat>NDF</displayformat>
							</timecode>
							<media>
								<video>
									<samplecharacteristics>
										<rate>
											<timebase>24</timebase>
											<ntsc>FALSE</ntsc>
										</rate>
										<width>1280</width>
										<height>720</height>
										<anamorphic>FALSE</anamorphic>
										<pixelaspectratio>square</pixelaspectratio>
										<fielddominance>none</fielddominance>
									</samplecharacteristics>
								</video>
							</media>
						</file>
						<logginginfo>
							<description></description>
							<scene></scene>
							<shottake></shottake>
							<lognote></lognote>
							<good></good>
							<originalvideofilename></originalvideofilename>
							<originalaudiofilename></originalaudiofilename>
						</logginginfo>
						<colorinfo>
							<lut></lut>
							<lut1></lut1>
							<asc_sop></asc_sop>
							<asc_sat></asc_sat>
							<lut2></lut2>
						</colorinfo>
						<labels>
							<label2>Violet</label2>
						</labels>
					</clipitem>
					<clipitem id="clipitem-82">
						<masterclipid>masterclip-80</masterclipid>
						<name>TKO_002_FAN_Sh00800.mov</name>
						<enabled>TRUE</enabled>
						<duration>53</duration>
						<rate>
							<timebase>24</timebase>
							<ntsc>TRUE</ntsc>
						</rate>
						<start>6405</start>
						<end>6450</end>
						<in>4</in>
						<out>49</out>
						<pproTicksIn>42378336000</pproTicksIn>
						<pproTicksOut>519134616000</pproTicksOut>
						<alphatype>none</alphatype>
						<pixelaspectratio>square</pixelaspectratio>
						<anamorphic>FALSE</anamorphic>
						<file id="file-80">
							<name>TKO_002_FAN_Sh00800.mov</name>
							<pathurl>file://tri-stor01/Projects/TKO/SHOTS/_Refs_Movs_Burnin_FrameCounter/TKO_002_FAN_Sh00800.mov</pathurl>
							<rate>
								<timebase>24</timebase>
								<ntsc>TRUE</ntsc>
							</rate>
							<duration>53</duration>
							<timecode>
								<rate>
									<timebase>24</timebase>
									<ntsc>TRUE</ntsc>
								</rate>
								<string>13:18:45:21</string>
								<frame>1150221</frame>
								<displayformat>NDF</displayformat>
								<reel>
									<name>C0340005</name>
								</reel>
							</timecode>
							<media>
								<video>
									<samplecharacteristics>
										<rate>
											<timebase>24</timebase>
											<ntsc>TRUE</ntsc>
										</rate>
										<width>3840</width>
										<height>2160</height>
										<anamorphic>FALSE</anamorphic>
										<pixelaspectratio>square</pixelaspectratio>
										<fielddominance>none</fielddominance>
									</samplecharacteristics>
								</video>
							</media>
						</file>
						<logginginfo>
							<description></description>
							<scene></scene>
							<shottake></shottake>
							<lognote></lognote>
							<good></good>
							<originalvideofilename></originalvideofilename>
							<originalaudiofilename></originalaudiofilename>
						</logginginfo>
						<colorinfo>
							<lut></lut>
							<lut1></lut1>
							<asc_sop></asc_sop>
							<asc_sat></asc_sat>
							<lut2></lut2>
						</colorinfo>
						<labels>
							<label2>Violet</label2>
						</labels>
					</clipitem>
					<clipitem id="clipitem-83">
						<masterclipid>masterclip-81</masterclipid>
						<name>TKO_002_FAN_Sh00810.mov</name>
						<enabled>TRUE</enabled>
						<duration>39</duration>
						<rate>
							<timebase>24</timebase>
							<ntsc>TRUE</ntsc>
						</rate>
						<start>6450</start>
						<end>6481</end>
						<in>4</in>
						<out>35</out>
						<pproTicksIn>42378336000</pproTicksIn>
						<pproTicksOut>370810440000</pproTicksOut>
						<alphatype>none</alphatype>
						<pixelaspectratio>square</pixelaspectratio>
						<anamorphic>FALSE</anamorphic>
						<file id="file-81">
							<name>TKO_002_FAN_Sh00810.mov</name>
							<pathurl>file://tri-stor01/Projects/TKO/SHOTS/_Refs_Movs_Burnin_FrameCounter/TKO_002_FAN_Sh00810.mov</pathurl>
							<rate>
								<timebase>24</timebase>
								<ntsc>TRUE</ntsc>
							</rate>
							<duration>39</duration>
							<timecode>
								<rate>
									<timebase>24</timebase>
									<ntsc>TRUE</ntsc>
								</rate>
								<string>13:19:23:08</string>
								<frame>1151120</frame>
								<displayformat>NDF</displayformat>
								<reel>
									<name>C0340006</name>
								</reel>
							</timecode>
							<media>
								<video>
									<samplecharacteristics>
										<rate>
											<timebase>24</timebase>
											<ntsc>TRUE</ntsc>
										</rate>
										<width>3840</width>
										<height>2160</height>
										<anamorphic>FALSE</anamorphic>
										<pixelaspectratio>square</pixelaspectratio>
										<fielddominance>none</fielddominance>
									</samplecharacteristics>
								</video>
							</media>
						</file>
						<logginginfo>
							<description></description>
							<scene></scene>
							<shottake></shottake>
							<lognote></lognote>
							<good></good>
							<originalvideofilename></originalvideofilename>
							<originalaudiofilename></originalaudiofilename>
						</logginginfo>
						<colorinfo>
							<lut></lut>
							<lut1></lut1>
							<asc_sop></asc_sop>
							<asc_sat></asc_sat>
							<lut2></lut2>
						</colorinfo>
						<labels>
							<label2>Violet</label2>
						</labels>
					</clipitem>
					<clipitem id="clipitem-84">
						<masterclipid>masterclip-82</masterclipid>
						<name>TKO_002_FAN_Sh00820.mov</name>
						<enabled>TRUE</enabled>
						<duration>55</duration>
						<rate>
							<timebase>24</timebase>
							<ntsc>TRUE</ntsc>
						</rate>
						<start>6481</start>
						<end>6528</end>
						<in>4</in>
						<out>51</out>
						<pproTicksIn>42378336000</pproTicksIn>
						<pproTicksOut>540323784000</pproTicksOut>
						<alphatype>none</alphatype>
						<pixelaspectratio>square</pixelaspectratio>
						<anamorphic>FALSE</anamorphic>
						<file id="file-82">
							<name>TKO_002_FAN_Sh00820.mov</name>
							<pathurl>file://tri-stor01/Projects/TKO/SHOTS/_Refs_Movs_Burnin_FrameCounter/TKO_002_FAN_Sh00820.mov</pathurl>
							<rate>
								<timebase>24</timebase>
								<ntsc>TRUE</ntsc>
							</rate>
							<duration>55</duration>
							<timecode>
								<rate>
									<timebase>24</timebase>
									<ntsc>TRUE</ntsc>
								</rate>
								<string>13:17:42:14</string>
								<frame>1148702</frame>
								<displayformat>NDF</displayformat>
								<reel>
									<name>C0340005</name>
								</reel>
							</timecode>
							<media>
								<video>
									<samplecharacteristics>
										<rate>
											<timebase>24</timebase>
											<ntsc>TRUE</ntsc>
										</rate>
										<width>3840</width>
										<height>2160</height>
										<anamorphic>FALSE</anamorphic>
										<pixelaspectratio>square</pixelaspectratio>
										<fielddominance>none</fielddominance>
									</samplecharacteristics>
								</video>
							</media>
						</file>
						<logginginfo>
							<description></description>
							<scene></scene>
							<shottake></shottake>
							<lognote></lognote>
							<good></good>
							<originalvideofilename></originalvideofilename>
							<originalaudiofilename></originalaudiofilename>
						</logginginfo>
						<colorinfo>
							<lut></lut>
							<lut1></lut1>
							<asc_sop></asc_sop>
							<asc_sat></asc_sat>
							<lut2></lut2>
						</colorinfo>
						<labels>
							<label2>Violet</label2>
						</labels>
					</clipitem>
					<clipitem id="clipitem-85">
						<masterclipid>masterclip-83</masterclipid>
						<name>TKO_002_FAN_Sh00830.mov</name>
						<enabled>TRUE</enabled>
						<duration>30</duration>
						<rate>
							<timebase>24</timebase>
							<ntsc>TRUE</ntsc>
						</rate>
						<start>6528</start>
						<end>6550</end>
						<in>4</in>
						<out>26</out>
						<pproTicksIn>42378336000</pproTicksIn>
						<pproTicksOut>275459184000</pproTicksOut>
						<alphatype>none</alphatype>
						<pixelaspectratio>square</pixelaspectratio>
						<anamorphic>FALSE</anamorphic>
						<file id="file-83">
							<name>TKO_002_FAN_Sh00830.mov</name>
							<pathurl>file://tri-stor01/Projects/TKO/SHOTS/_Refs_Movs_Burnin_FrameCounter/TKO_002_FAN_Sh00830.mov</pathurl>
							<rate>
								<timebase>24</timebase>
								<ntsc>TRUE</ntsc>
							</rate>
							<duration>30</duration>
							<timecode>
								<rate>
									<timebase>24</timebase>
									<ntsc>TRUE</ntsc>
								</rate>
								<string>13:17:51:09</string>
								<frame>1148913</frame>
								<displayformat>NDF</displayformat>
								<reel>
									<name>C0340005</name>
								</reel>
							</timecode>
							<media>
								<video>
									<samplecharacteristics>
										<rate>
											<timebase>24</timebase>
											<ntsc>TRUE</ntsc>
										</rate>
										<width>3840</width>
										<height>2160</height>
										<anamorphic>FALSE</anamorphic>
										<pixelaspectratio>square</pixelaspectratio>
										<fielddominance>none</fielddominance>
									</samplecharacteristics>
								</video>
							</media>
						</file>
						<logginginfo>
							<description></description>
							<scene></scene>
							<shottake></shottake>
							<lognote></lognote>
							<good></good>
							<originalvideofilename></originalvideofilename>
							<originalaudiofilename></originalaudiofilename>
						</logginginfo>
						<colorinfo>
							<lut></lut>
							<lut1></lut1>
							<asc_sop></asc_sop>
							<asc_sat></asc_sat>
							<lut2></lut2>
						</colorinfo>
						<labels>
							<label2>Violet</label2>
						</labels>
					</clipitem>
					<clipitem id="clipitem-86">
						<masterclipid>masterclip-84</masterclipid>
						<name>TKO_002_FAN_Sh00840.mov</name>
						<enabled>TRUE</enabled>
						<duration>72</duration>
						<rate>
							<timebase>24</timebase>
							<ntsc>TRUE</ntsc>
						</rate>
						<start>6550</start>
						<end>6615</end>
						<in>4</in>
						<out>69</out>
						<pproTicksIn>42378336000</pproTicksIn>
						<pproTicksOut>731026296000</pproTicksOut>
						<alphatype>none</alphatype>
						<pixelaspectratio>square</pixelaspectratio>
						<anamorphic>FALSE</anamorphic>
						<file id="file-84">
							<name>TKO_002_FAN_Sh00840.mov</name>
							<pathurl>file://tri-stor01/Projects/TKO/SHOTS/_Refs_Movs_Burnin_FrameCounter/TKO_002_FAN_Sh00840.mov</pathurl>
							<rate>
								<timebase>24</timebase>
								<ntsc>FALSE</ntsc>
							</rate>
							<duration>73</duration>
							<timecode>
								<rate>
									<timebase>24</timebase>
									<ntsc>FALSE</ntsc>
								</rate>
								<string>00:00:12:03</string>
								<frame>291</frame>
								<displayformat>NDF</displayformat>
							</timecode>
							<media>
								<video>
									<samplecharacteristics>
										<rate>
											<timebase>24</timebase>
											<ntsc>FALSE</ntsc>
										</rate>
										<width>1280</width>
										<height>720</height>
										<anamorphic>FALSE</anamorphic>
										<pixelaspectratio>square</pixelaspectratio>
										<fielddominance>none</fielddominance>
									</samplecharacteristics>
								</video>
							</media>
						</file>
						<logginginfo>
							<description></description>
							<scene></scene>
							<shottake></shottake>
							<lognote></lognote>
							<good></good>
							<originalvideofilename></originalvideofilename>
							<originalaudiofilename></originalaudiofilename>
						</logginginfo>
						<colorinfo>
							<lut></lut>
							<lut1></lut1>
							<asc_sop></asc_sop>
							<asc_sat></asc_sat>
							<lut2></lut2>
						</colorinfo>
						<labels>
							<label2>Violet</label2>
						</labels>
					</clipitem>
					<clipitem id="clipitem-87">
						<masterclipid>masterclip-85</masterclipid>
						<name>TKO_002_FAN_Sh00850.mov</name>
						<enabled>TRUE</enabled>
						<duration>86</duration>
						<rate>
							<timebase>24</timebase>
							<ntsc>TRUE</ntsc>
						</rate>
						<start>6615</start>
						<end>6694</end>
						<in>4</in>
						<out>83</out>
						<pproTicksIn>42378336000</pproTicksIn>
						<pproTicksOut>879350472000</pproTicksOut>
						<alphatype>none</alphatype>
						<pixelaspectratio>square</pixelaspectratio>
						<anamorphic>FALSE</anamorphic>
						<file id="file-85">
							<name>TKO_002_FAN_Sh00850.mov</name>
							<pathurl>file://tri-stor01/Projects/TKO/SHOTS/_Refs_Movs_Burnin_FrameCounter/TKO_002_FAN_Sh00850.mov</pathurl>
							<rate>
								<timebase>24</timebase>
								<ntsc>FALSE</ntsc>
							</rate>
							<duration>87</duration>
							<timecode>
								<rate>
									<timebase>24</timebase>
									<ntsc>FALSE</ntsc>
								</rate>
								<string>00:00:18:05</string>
								<frame>437</frame>
								<displayformat>NDF</displayformat>
							</timecode>
							<media>
								<video>
									<samplecharacteristics>
										<rate>
											<timebase>24</timebase>
											<ntsc>FALSE</ntsc>
										</rate>
										<width>1280</width>
										<height>720</height>
										<anamorphic>FALSE</anamorphic>
										<pixelaspectratio>square</pixelaspectratio>
										<fielddominance>none</fielddominance>
									</samplecharacteristics>
								</video>
							</media>
						</file>
						<logginginfo>
							<description></description>
							<scene></scene>
							<shottake></shottake>
							<lognote></lognote>
							<good></good>
							<originalvideofilename></originalvideofilename>
							<originalaudiofilename></originalaudiofilename>
						</logginginfo>
						<colorinfo>
							<lut></lut>
							<lut1></lut1>
							<asc_sop></asc_sop>
							<asc_sat></asc_sat>
							<lut2></lut2>
						</colorinfo>
						<labels>
							<label2>Violet</label2>
						</labels>
					</clipitem>
					<clipitem id="clipitem-88">
						<masterclipid>masterclip-86</masterclipid>
						<name>TKO_002_FAN_Sh00860.mov</name>
						<enabled>TRUE</enabled>
						<duration>109</duration>
						<rate>
							<timebase>24</timebase>
							<ntsc>TRUE</ntsc>
						</rate>
						<start>6694</start>
						<end>6800</end>
						<in>1</in>
						<out>107</out>
						<pproTicksIn>10594584000</pproTicksIn>
						<pproTicksOut>1133620488000</pproTicksOut>
						<alphatype>none</alphatype>
						<pixelaspectratio>square</pixelaspectratio>
						<anamorphic>FALSE</anamorphic>
						<file id="file-86">
							<name>TKO_002_FAN_Sh00860.mov</name>
							<pathurl>file://tri-stor01/Projects/TKO/SHOTS/_Refs_Movs_Burnin_FrameCounter/TKO_002_FAN_Sh00860.mov</pathurl>
							<rate>
								<timebase>24</timebase>
								<ntsc>FALSE</ntsc>
							</rate>
							<duration>110</duration>
							<timecode>
								<rate>
									<timebase>24</timebase>
									<ntsc>FALSE</ntsc>
								</rate>
								<string>00:00:21:12</string>
								<frame>516</frame>
								<displayformat>NDF</displayformat>
							</timecode>
							<media>
								<video>
									<samplecharacteristics>
										<rate>
											<timebase>24</timebase>
											<ntsc>FALSE</ntsc>
										</rate>
										<width>1280</width>
										<height>720</height>
										<anamorphic>FALSE</anamorphic>
										<pixelaspectratio>square</pixelaspectratio>
										<fielddominance>none</fielddominance>
									</samplecharacteristics>
								</video>
							</media>
						</file>
						<logginginfo>
							<description></description>
							<scene></scene>
							<shottake></shottake>
							<lognote></lognote>
							<good></good>
							<originalvideofilename></originalvideofilename>
							<originalaudiofilename></originalaudiofilename>
						</logginginfo>
						<colorinfo>
							<lut></lut>
							<lut1></lut1>
							<asc_sop></asc_sop>
							<asc_sat></asc_sat>
							<lut2></lut2>
						</colorinfo>
						<labels>
							<label2>Violet</label2>
						</labels>
					</clipitem>
					<clipitem id="clipitem-89">
						<masterclipid>masterclip-87</masterclipid>
						<name>TKO_002_FAN_Sh00890.mov</name>
						<enabled>TRUE</enabled>
						<duration>123</duration>
						<rate>
							<timebase>24</timebase>
							<ntsc>TRUE</ntsc>
						</rate>
						<start>6800</start>
						<end>6830</end>
						<in>89</in>
						<out>119</out>
						<pproTicksIn>942917976000</pproTicksIn>
						<pproTicksOut>1260755496000</pproTicksOut>
						<alphatype>none</alphatype>
						<pixelaspectratio>square</pixelaspectratio>
						<anamorphic>FALSE</anamorphic>
						<file id="file-87">
							<name>TKO_002_FAN_Sh00890.mov</name>
							<pathurl>file://tri-stor01/Projects/TKO/SHOTS/_Refs_Movs_Burnin_FrameCounter/TKO_002_FAN_Sh00890.mov</pathurl>
							<rate>
								<timebase>24</timebase>
								<ntsc>TRUE</ntsc>
							</rate>
							<duration>123</duration>
							<timecode>
								<rate>
									<timebase>24</timebase>
									<ntsc>TRUE</ntsc>
								</rate>
								<string>09:38:39:21</string>
								<frame>833277</frame>
								<displayformat>NDF</displayformat>
								<reel>
									<name>B0050007</name>
								</reel>
							</timecode>
							<media>
								<video>
									<samplecharacteristics>
										<rate>
											<timebase>24</timebase>
											<ntsc>TRUE</ntsc>
										</rate>
										<width>4096</width>
										<height>2160</height>
										<anamorphic>FALSE</anamorphic>
										<pixelaspectratio>square</pixelaspectratio>
										<fielddominance>none</fielddominance>
									</samplecharacteristics>
								</video>
							</media>
						</file>
						<logginginfo>
							<description></description>
							<scene></scene>
							<shottake></shottake>
							<lognote></lognote>
							<good></good>
							<originalvideofilename></originalvideofilename>
							<originalaudiofilename></originalaudiofilename>
						</logginginfo>
						<colorinfo>
							<lut></lut>
							<lut1></lut1>
							<asc_sop></asc_sop>
							<asc_sat></asc_sat>
							<lut2></lut2>
						</colorinfo>
						<labels>
							<label2>Violet</label2>
						</labels>
					</clipitem>
					<clipitem id="clipitem-90">
						<masterclipid>masterclip-88</masterclipid>
						<name>TKO_002_FAN_Sh00900.mov</name>
						<enabled>TRUE</enabled>
						<duration>54</duration>
						<rate>
							<timebase>24</timebase>
							<ntsc>TRUE</ntsc>
						</rate>
						<start>6830</start>
						<end>6876</end>
						<in>4</in>
						<out>50</out>
						<pproTicksIn>42378336000</pproTicksIn>
						<pproTicksOut>529729200000</pproTicksOut>
						<alphatype>none</alphatype>
						<pixelaspectratio>square</pixelaspectratio>
						<anamorphic>FALSE</anamorphic>
						<file id="file-88">
							<name>TKO_002_FAN_Sh00900.mov</name>
							<pathurl>file://tri-stor01/Projects/TKO/SHOTS/_Refs_Movs_Burnin_FrameCounter/TKO_002_FAN_Sh00900.mov</pathurl>
							<rate>
								<timebase>24</timebase>
								<ntsc>TRUE</ntsc>
							</rate>
							<duration>54</duration>
							<timecode>
								<rate>
									<timebase>24</timebase>
									<ntsc>TRUE</ntsc>
								</rate>
								<string>00:04:27:07</string>
								<frame>6415</frame>
								<displayformat>NDF</displayformat>
							</timecode>
							<media>
								<video>
									<samplecharacteristics>
										<rate>
											<timebase>24</timebase>
											<ntsc>TRUE</ntsc>
										</rate>
										<width>1280</width>
										<height>720</height>
										<anamorphic>FALSE</anamorphic>
										<pixelaspectratio>square</pixelaspectratio>
										<fielddominance>none</fielddominance>
									</samplecharacteristics>
								</video>
							</media>
						</file>
						<logginginfo>
							<description></description>
							<scene></scene>
							<shottake></shottake>
							<lognote></lognote>
							<good></good>
							<originalvideofilename></originalvideofilename>
							<originalaudiofilename></originalaudiofilename>
						</logginginfo>
						<colorinfo>
							<lut></lut>
							<lut1></lut1>
							<asc_sop></asc_sop>
							<asc_sat></asc_sat>
							<lut2></lut2>
						</colorinfo>
						<labels>
							<label2>Violet</label2>
						</labels>
					</clipitem>
					<clipitem id="clipitem-91">
						<masterclipid>masterclip-89</masterclipid>
						<name>TKO_002_FAN_Sh00910.mov</name>
						<enabled>TRUE</enabled>
						<duration>114</duration>
						<rate>
							<timebase>24</timebase>
							<ntsc>TRUE</ntsc>
						</rate>
						<start>6876</start>
						<end>6982</end>
						<in>4</in>
						<out>110</out>
						<pproTicksIn>42378336000</pproTicksIn>
						<pproTicksOut>1165404240000</pproTicksOut>
						<alphatype>none</alphatype>
						<pixelaspectratio>square</pixelaspectratio>
						<anamorphic>FALSE</anamorphic>
						<file id="file-89">
							<name>TKO_002_FAN_Sh00910.mov</name>
							<pathurl>file://tri-stor01/Projects/TKO/SHOTS/_Refs_Movs_Burnin_FrameCounter/TKO_002_FAN_Sh00910.mov</pathurl>
							<rate>
								<timebase>24</timebase>
								<ntsc>TRUE</ntsc>
							</rate>
							<duration>114</duration>
							<timecode>
								<rate>
									<timebase>24</timebase>
									<ntsc>TRUE</ntsc>
								</rate>
								<string>09:38:45:22</string>
								<frame>833422</frame>
								<displayformat>NDF</displayformat>
								<reel>
									<name>A0080006</name>
								</reel>
							</timecode>
							<media>
								<video>
									<samplecharacteristics>
										<rate>
											<timebase>24</timebase>
											<ntsc>TRUE</ntsc>
										</rate>
										<width>4096</width>
										<height>2160</height>
										<anamorphic>FALSE</anamorphic>
										<pixelaspectratio>square</pixelaspectratio>
										<fielddominance>none</fielddominance>
									</samplecharacteristics>
								</video>
							</media>
						</file>
						<logginginfo>
							<description></description>
							<scene></scene>
							<shottake></shottake>
							<lognote></lognote>
							<good></good>
							<originalvideofilename></originalvideofilename>
							<originalaudiofilename></originalaudiofilename>
						</logginginfo>
						<colorinfo>
							<lut></lut>
							<lut1></lut1>
							<asc_sop></asc_sop>
							<asc_sat></asc_sat>
							<lut2></lut2>
						</colorinfo>
						<labels>
							<label2>Violet</label2>
						</labels>
					</clipitem>
					<clipitem id="clipitem-92">
						<masterclipid>masterclip-90</masterclipid>
						<name>TKO_002_FAN_Sh00920.mov</name>
						<enabled>TRUE</enabled>
						<duration>132</duration>
						<rate>
							<timebase>24</timebase>
							<ntsc>TRUE</ntsc>
						</rate>
						<start>6982</start>
						<end>7106</end>
						<in>4</in>
						<out>128</out>
						<pproTicksIn>42378336000</pproTicksIn>
						<pproTicksOut>1356106752000</pproTicksOut>
						<alphatype>none</alphatype>
						<pixelaspectratio>square</pixelaspectratio>
						<anamorphic>FALSE</anamorphic>
						<file id="file-90">
							<name>TKO_002_FAN_Sh00920.mov</name>
							<pathurl>file://tri-stor01/Projects/TKO/SHOTS/_Refs_Movs_Burnin_FrameCounter/TKO_002_FAN_Sh00920.mov</pathurl>
							<rate>
								<timebase>24</timebase>
								<ntsc>TRUE</ntsc>
							</rate>
							<duration>132</duration>
							<timecode>
								<rate>
									<timebase>24</timebase>
									<ntsc>TRUE</ntsc>
								</rate>
								<string>19:04:40:10</string>
								<frame>1648330</frame>
								<displayformat>NDF</displayformat>
								<reel>
									<name>A0550001</name>
								</reel>
							</timecode>
							<media>
								<video>
									<samplecharacteristics>
										<rate>
											<timebase>24</timebase>
											<ntsc>TRUE</ntsc>
										</rate>
										<width>4096</width>
										<height>2160</height>
										<anamorphic>FALSE</anamorphic>
										<pixelaspectratio>square</pixelaspectratio>
										<fielddominance>none</fielddominance>
									</samplecharacteristics>
								</video>
							</media>
						</file>
						<logginginfo>
							<description></description>
							<scene></scene>
							<shottake></shottake>
							<lognote></lognote>
							<good></good>
							<originalvideofilename></originalvideofilename>
							<originalaudiofilename></originalaudiofilename>
						</logginginfo>
						<colorinfo>
							<lut></lut>
							<lut1></lut1>
							<asc_sop></asc_sop>
							<asc_sat></asc_sat>
							<lut2></lut2>
						</colorinfo>
						<labels>
							<label2>Violet</label2>
						</labels>
					</clipitem>
					<clipitem id="clipitem-93">
						<masterclipid>masterclip-91</masterclipid>
						<name>TKO_002_FAN_Sh00930.mov</name>
						<enabled>TRUE</enabled>
						<duration>27</duration>
						<rate>
							<timebase>24</timebase>
							<ntsc>TRUE</ntsc>
						</rate>
						<start>7106</start>
						<end>7119</end>
						<in>4</in>
						<out>17</out>
						<pproTicksIn>42378336000</pproTicksIn>
						<pproTicksOut>180107928000</pproTicksOut>
						<alphatype>none</alphatype>
						<pixelaspectratio>square</pixelaspectratio>
						<anamorphic>FALSE</anamorphic>
						<file id="file-91">
							<name>TKO_002_FAN_Sh00930.mov</name>
							<pathurl>file://tri-stor01/Projects/TKO/SHOTS/_Refs_Movs_Burnin_FrameCounter/TKO_002_FAN_Sh00930.mov</pathurl>
							<rate>
								<timebase>24</timebase>
								<ntsc>TRUE</ntsc>
							</rate>
							<duration>27</duration>
							<timecode>
								<rate>
									<timebase>24</timebase>
									<ntsc>TRUE</ntsc>
								</rate>
								<string>18:47:30:17</string>
								<frame>1623617</frame>
								<displayformat>NDF</displayformat>
								<reel>
									<name>A0540026</name>
								</reel>
							</timecode>
							<media>
								<video>
									<samplecharacteristics>
										<rate>
											<timebase>24</timebase>
											<ntsc>TRUE</ntsc>
										</rate>
										<width>4096</width>
										<height>2160</height>
										<anamorphic>FALSE</anamorphic>
										<pixelaspectratio>square</pixelaspectratio>
										<fielddominance>none</fielddominance>
									</samplecharacteristics>
								</video>
							</media>
						</file>
						<logginginfo>
							<description></description>
							<scene></scene>
							<shottake></shottake>
							<lognote></lognote>
							<good></good>
							<originalvideofilename></originalvideofilename>
							<originalaudiofilename></originalaudiofilename>
						</logginginfo>
						<colorinfo>
							<lut></lut>
							<lut1></lut1>
							<asc_sop></asc_sop>
							<asc_sat></asc_sat>
							<lut2></lut2>
						</colorinfo>
						<labels>
							<label2>Violet</label2>
						</labels>
					</clipitem>
					<clipitem id="clipitem-94">
						<masterclipid>masterclip-92</masterclipid>
						<name>TKO_002_FAN_Sh00940.mov</name>
						<enabled>TRUE</enabled>
						<duration>22</duration>
						<rate>
							<timebase>24</timebase>
							<ntsc>TRUE</ntsc>
						</rate>
						<start>7119</start>
						<end>7133</end>
						<in>4</in>
						<out>18</out>
						<pproTicksIn>42378336000</pproTicksIn>
						<pproTicksOut>190702512000</pproTicksOut>
						<alphatype>none</alphatype>
						<pixelaspectratio>square</pixelaspectratio>
						<anamorphic>FALSE</anamorphic>
						<file id="file-92">
							<name>TKO_002_FAN_Sh00940.mov</name>
							<pathurl>file://tri-stor01/Projects/TKO/SHOTS/_Refs_Movs_Burnin_FrameCounter/TKO_002_FAN_Sh00940.mov</pathurl>
							<rate>
								<timebase>24</timebase>
								<ntsc>TRUE</ntsc>
							</rate>
							<duration>22</duration>
							<timecode>
								<rate>
									<timebase>24</timebase>
									<ntsc>TRUE</ntsc>
								</rate>
								<string>06:07:34:00</string>
								<frame>529296</frame>
								<displayformat>NDF</displayformat>
								<reel>
									<name>B0470024</name>
								</reel>
							</timecode>
							<media>
								<video>
									<samplecharacteristics>
										<rate>
											<timebase>24</timebase>
											<ntsc>TRUE</ntsc>
										</rate>
										<width>4096</width>
										<height>2160</height>
										<anamorphic>FALSE</anamorphic>
										<pixelaspectratio>square</pixelaspectratio>
										<fielddominance>none</fielddominance>
									</samplecharacteristics>
								</video>
							</media>
						</file>
						<logginginfo>
							<description></description>
							<scene></scene>
							<shottake></shottake>
							<lognote></lognote>
							<good></good>
							<originalvideofilename></originalvideofilename>
							<originalaudiofilename></originalaudiofilename>
						</logginginfo>
						<colorinfo>
							<lut></lut>
							<lut1></lut1>
							<asc_sop></asc_sop>
							<asc_sat></asc_sat>
							<lut2></lut2>
						</colorinfo>
						<labels>
							<label2>Violet</label2>
						</labels>
					</clipitem>
					<clipitem id="clipitem-95">
						<masterclipid>masterclip-93</masterclipid>
						<name>TKO_002_FAN_Sh00950.mov</name>
						<enabled>TRUE</enabled>
						<duration>86</duration>
						<rate>
							<timebase>24</timebase>
							<ntsc>TRUE</ntsc>
						</rate>
						<start>7133</start>
						<end>7211</end>
						<in>4</in>
						<out>82</out>
						<pproTicksIn>42378336000</pproTicksIn>
						<pproTicksOut>868755888000</pproTicksOut>
						<alphatype>none</alphatype>
						<pixelaspectratio>square</pixelaspectratio>
						<anamorphic>FALSE</anamorphic>
						<file id="file-93">
							<name>TKO_002_FAN_Sh00950.mov</name>
							<pathurl>file://tri-stor01/Projects/TKO/SHOTS/_Refs_Movs_Burnin_FrameCounter/TKO_002_FAN_Sh00950.mov</pathurl>
							<rate>
								<timebase>24</timebase>
								<ntsc>TRUE</ntsc>
							</rate>
							<duration>86</duration>
							<timecode>
								<rate>
									<timebase>24</timebase>
									<ntsc>TRUE</ntsc>
								</rate>
								<string>18:27:43:15</string>
								<frame>1595127</frame>
								<displayformat>NDF</displayformat>
								<reel>
									<name>A0540023</name>
								</reel>
							</timecode>
							<media>
								<video>
									<samplecharacteristics>
										<rate>
											<timebase>24</timebase>
											<ntsc>TRUE</ntsc>
										</rate>
										<width>4096</width>
										<height>2160</height>
										<anamorphic>FALSE</anamorphic>
										<pixelaspectratio>square</pixelaspectratio>
										<fielddominance>none</fielddominance>
									</samplecharacteristics>
								</video>
							</media>
						</file>
						<logginginfo>
							<description></description>
							<scene></scene>
							<shottake></shottake>
							<lognote></lognote>
							<good></good>
							<originalvideofilename></originalvideofilename>
							<originalaudiofilename></originalaudiofilename>
						</logginginfo>
						<colorinfo>
							<lut></lut>
							<lut1></lut1>
							<asc_sop></asc_sop>
							<asc_sat></asc_sat>
							<lut2></lut2>
						</colorinfo>
						<labels>
							<label2>Violet</label2>
						</labels>
					</clipitem>
					<clipitem id="clipitem-96">
						<masterclipid>masterclip-94</masterclipid>
						<name>TKO_002_FAN_Sh00960.mov</name>
						<enabled>TRUE</enabled>
						<duration>28</duration>
						<rate>
							<timebase>24</timebase>
							<ntsc>TRUE</ntsc>
						</rate>
						<start>7211</start>
						<end>7222</end>
						<in>4</in>
						<out>15</out>
						<pproTicksIn>42378336000</pproTicksIn>
						<pproTicksOut>158918760000</pproTicksOut>
						<alphatype>none</alphatype>
						<pixelaspectratio>square</pixelaspectratio>
						<anamorphic>FALSE</anamorphic>
						<file id="file-94">
							<name>TKO_002_FAN_Sh00960.mov</name>
							<pathurl>file://tri-stor01/Projects/TKO/SHOTS/_Refs_Movs_Burnin_FrameCounter/TKO_002_FAN_Sh00960.mov</pathurl>
							<rate>
								<timebase>24</timebase>
								<ntsc>TRUE</ntsc>
							</rate>
							<duration>28</duration>
							<timecode>
								<rate>
									<timebase>24</timebase>
									<ntsc>TRUE</ntsc>
								</rate>
								<string>06:25:07:05</string>
								<frame>554573</frame>
								<displayformat>NDF</displayformat>
								<reel>
									<name>B0470026</name>
								</reel>
							</timecode>
							<media>
								<video>
									<samplecharacteristics>
										<rate>
											<timebase>24</timebase>
											<ntsc>TRUE</ntsc>
										</rate>
										<width>4096</width>
										<height>2160</height>
										<anamorphic>FALSE</anamorphic>
										<pixelaspectratio>square</pixelaspectratio>
										<fielddominance>none</fielddominance>
									</samplecharacteristics>
								</video>
							</media>
						</file>
						<logginginfo>
							<description></description>
							<scene></scene>
							<shottake></shottake>
							<lognote></lognote>
							<good></good>
							<originalvideofilename></originalvideofilename>
							<originalaudiofilename></originalaudiofilename>
						</logginginfo>
						<colorinfo>
							<lut></lut>
							<lut1></lut1>
							<asc_sop></asc_sop>
							<asc_sat></asc_sat>
							<lut2></lut2>
						</colorinfo>
						<labels>
							<label2>Violet</label2>
						</labels>
					</clipitem>
					<clipitem id="clipitem-97">
						<masterclipid>masterclip-95</masterclipid>
						<name>TKO_002_FAN_Sh00970.mov</name>
						<enabled>TRUE</enabled>
						<duration>28</duration>
						<rate>
							<timebase>24</timebase>
							<ntsc>TRUE</ntsc>
						</rate>
						<start>7222</start>
						<end>7242</end>
						<in>4</in>
						<out>24</out>
						<pproTicksIn>42378336000</pproTicksIn>
						<pproTicksOut>254270016000</pproTicksOut>
						<alphatype>none</alphatype>
						<pixelaspectratio>square</pixelaspectratio>
						<anamorphic>FALSE</anamorphic>
						<file id="file-95">
							<name>TKO_002_FAN_Sh00970.mov</name>
							<pathurl>file://tri-stor01/Projects/TKO/SHOTS/_Refs_Movs_Burnin_FrameCounter/TKO_002_FAN_Sh00970.mov</pathurl>
							<rate>
								<timebase>24</timebase>
								<ntsc>TRUE</ntsc>
							</rate>
							<duration>28</duration>
							<timecode>
								<rate>
									<timebase>24</timebase>
									<ntsc>TRUE</ntsc>
								</rate>
								<string>19:07:00:21</string>
								<frame>1651701</frame>
								<displayformat>NDF</displayformat>
								<reel>
									<name>A0550002</name>
								</reel>
							</timecode>
							<media>
								<video>
									<samplecharacteristics>
										<rate>
											<timebase>24</timebase>
											<ntsc>TRUE</ntsc>
										</rate>
										<width>4096</width>
										<height>2160</height>
										<anamorphic>FALSE</anamorphic>
										<pixelaspectratio>square</pixelaspectratio>
										<fielddominance>none</fielddominance>
									</samplecharacteristics>
								</video>
							</media>
						</file>
						<logginginfo>
							<description></description>
							<scene></scene>
							<shottake></shottake>
							<lognote></lognote>
							<good></good>
							<originalvideofilename></originalvideofilename>
							<originalaudiofilename></originalaudiofilename>
						</logginginfo>
						<colorinfo>
							<lut></lut>
							<lut1></lut1>
							<asc_sop></asc_sop>
							<asc_sat></asc_sat>
							<lut2></lut2>
						</colorinfo>
						<labels>
							<label2>Violet</label2>
						</labels>
					</clipitem>
					<clipitem id="clipitem-98">
						<masterclipid>masterclip-96</masterclipid>
						<name>TKO_002_FAN_Sh00980.mov</name>
						<enabled>TRUE</enabled>
						<duration>59</duration>
						<rate>
							<timebase>24</timebase>
							<ntsc>TRUE</ntsc>
						</rate>
						<start>7242</start>
						<end>7293</end>
						<in>4</in>
						<out>55</out>
						<pproTicksIn>42378336000</pproTicksIn>
						<pproTicksOut>582702120000</pproTicksOut>
						<alphatype>none</alphatype>
						<pixelaspectratio>square</pixelaspectratio>
						<anamorphic>FALSE</anamorphic>
						<file id="file-96">
							<name>TKO_002_FAN_Sh00980.mov</name>
							<pathurl>file://tri-stor01/Projects/TKO/SHOTS/_Refs_Movs_Burnin_FrameCounter/TKO_002_FAN_Sh00980.mov</pathurl>
							<rate>
								<timebase>24</timebase>
								<ntsc>TRUE</ntsc>
							</rate>
							<duration>59</duration>
							<timecode>
								<rate>
									<timebase>24</timebase>
									<ntsc>TRUE</ntsc>
								</rate>
								<string>03:05:50:18</string>
								<frame>267618</frame>
								<displayformat>NDF</displayformat>
								<reel>
									<name>C0050002</name>
								</reel>
							</timecode>
							<media>
								<video>
									<samplecharacteristics>
										<rate>
											<timebase>24</timebase>
											<ntsc>TRUE</ntsc>
										</rate>
										<width>3840</width>
										<height>2160</height>
										<anamorphic>FALSE</anamorphic>
										<pixelaspectratio>square</pixelaspectratio>
										<fielddominance>none</fielddominance>
									</samplecharacteristics>
								</video>
							</media>
						</file>
						<logginginfo>
							<description></description>
							<scene></scene>
							<shottake></shottake>
							<lognote></lognote>
							<good></good>
							<originalvideofilename></originalvideofilename>
							<originalaudiofilename></originalaudiofilename>
						</logginginfo>
						<colorinfo>
							<lut></lut>
							<lut1></lut1>
							<asc_sop></asc_sop>
							<asc_sat></asc_sat>
							<lut2></lut2>
						</colorinfo>
						<labels>
							<label2>Violet</label2>
						</labels>
					</clipitem>
					<clipitem id="clipitem-99">
						<masterclipid>masterclip-97</masterclipid>
						<name>TKO_002_FAN_Sh00990.mov</name>
						<enabled>TRUE</enabled>
						<duration>65</duration>
						<rate>
							<timebase>24</timebase>
							<ntsc>TRUE</ntsc>
						</rate>
						<start>7293</start>
						<end>7350</end>
						<in>4</in>
						<out>61</out>
						<pproTicksIn>42378336000</pproTicksIn>
						<pproTicksOut>646269624000</pproTicksOut>
						<alphatype>none</alphatype>
						<pixelaspectratio>square</pixelaspectratio>
						<anamorphic>FALSE</anamorphic>
						<file id="file-97">
							<name>TKO_002_FAN_Sh00990.mov</name>
							<pathurl>file://tri-stor01/Projects/TKO/SHOTS/_Refs_Movs_Burnin_FrameCounter/TKO_002_FAN_Sh00990.mov</pathurl>
							<rate>
								<timebase>24</timebase>
								<ntsc>TRUE</ntsc>
							</rate>
							<duration>65</duration>
							<timecode>
								<rate>
									<timebase>24</timebase>
									<ntsc>TRUE</ntsc>
								</rate>
								<string>10:28:40:04</string>
								<frame>905284</frame>
								<displayformat>NDF</displayformat>
								<reel>
									<name>A0110003</name>
								</reel>
							</timecode>
							<media>
								<video>
									<samplecharacteristics>
										<rate>
											<timebase>24</timebase>
											<ntsc>TRUE</ntsc>
										</rate>
										<width>4096</width>
										<height>2160</height>
										<anamorphic>FALSE</anamorphic>
										<pixelaspectratio>square</pixelaspectratio>
										<fielddominance>none</fielddominance>
									</samplecharacteristics>
								</video>
							</media>
						</file>
						<logginginfo>
							<description></description>
							<scene></scene>
							<shottake></shottake>
							<lognote></lognote>
							<good></good>
							<originalvideofilename></originalvideofilename>
							<originalaudiofilename></originalaudiofilename>
						</logginginfo>
						<colorinfo>
							<lut></lut>
							<lut1></lut1>
							<asc_sop></asc_sop>
							<asc_sat></asc_sat>
							<lut2></lut2>
						</colorinfo>
						<labels>
							<label2>Violet</label2>
						</labels>
					</clipitem>
					<clipitem id="clipitem-100">
						<masterclipid>masterclip-98</masterclipid>
						<name>TKO_002_FAN_Sh01000.mov</name>
						<enabled>TRUE</enabled>
						<duration>52</duration>
						<rate>
							<timebase>24</timebase>
							<ntsc>TRUE</ntsc>
						</rate>
						<start>7350</start>
						<end>7394</end>
						<in>4</in>
						<out>48</out>
						<pproTicksIn>42378336000</pproTicksIn>
						<pproTicksOut>508540032000</pproTicksOut>
						<alphatype>none</alphatype>
						<pixelaspectratio>square</pixelaspectratio>
						<anamorphic>FALSE</anamorphic>
						<file id="file-98">
							<name>TKO_002_FAN_Sh01000.mov</name>
							<pathurl>file://tri-stor01/Projects/TKO/SHOTS/_Refs_Movs_Burnin_FrameCounter/TKO_002_FAN_Sh01000.mov</pathurl>
							<rate>
								<timebase>24</timebase>
								<ntsc>TRUE</ntsc>
							</rate>
							<duration>52</duration>
							<timecode>
								<rate>
									<timebase>24</timebase>
									<ntsc>TRUE</ntsc>
								</rate>
								<string>10:48:06:03</string>
								<frame>933267</frame>
								<displayformat>NDF</displayformat>
								<reel>
									<name>A0110005</name>
								</reel>
							</timecode>
							<media>
								<video>
									<samplecharacteristics>
										<rate>
											<timebase>24</timebase>
											<ntsc>TRUE</ntsc>
										</rate>
										<width>4096</width>
										<height>2160</height>
										<anamorphic>FALSE</anamorphic>
										<pixelaspectratio>square</pixelaspectratio>
										<fielddominance>none</fielddominance>
									</samplecharacteristics>
								</video>
							</media>
						</file>
						<logginginfo>
							<description></description>
							<scene></scene>
							<shottake></shottake>
							<lognote></lognote>
							<good></good>
							<originalvideofilename></originalvideofilename>
							<originalaudiofilename></originalaudiofilename>
						</logginginfo>
						<colorinfo>
							<lut></lut>
							<lut1></lut1>
							<asc_sop></asc_sop>
							<asc_sat></asc_sat>
							<lut2></lut2>
						</colorinfo>
						<labels>
							<label2>Violet</label2>
						</labels>
					</clipitem>
					<clipitem id="clipitem-101">
						<masterclipid>masterclip-99</masterclipid>
						<name>TKO_002_FAN_Sh01010.mov</name>
						<enabled>TRUE</enabled>
						<duration>77</duration>
						<rate>
							<timebase>24</timebase>
							<ntsc>TRUE</ntsc>
						</rate>
						<start>7394</start>
						<end>7463</end>
						<in>4</in>
						<out>73</out>
						<pproTicksIn>42378336000</pproTicksIn>
						<pproTicksOut>773404632000</pproTicksOut>
						<alphatype>none</alphatype>
						<pixelaspectratio>square</pixelaspectratio>
						<anamorphic>FALSE</anamorphic>
						<file id="file-99">
							<name>TKO_002_FAN_Sh01010.mov</name>
							<pathurl>file://tri-stor01/Projects/TKO/SHOTS/_Refs_Movs_Burnin_FrameCounter/TKO_002_FAN_Sh01010.mov</pathurl>
							<rate>
								<timebase>24</timebase>
								<ntsc>TRUE</ntsc>
							</rate>
							<duration>77</duration>
							<timecode>
								<rate>
									<timebase>24</timebase>
									<ntsc>TRUE</ntsc>
								</rate>
								<string>10:28:43:15</string>
								<frame>905367</frame>
								<displayformat>NDF</displayformat>
								<reel>
									<name>A0110003</name>
								</reel>
							</timecode>
							<media>
								<video>
									<samplecharacteristics>
										<rate>
											<timebase>24</timebase>
											<ntsc>TRUE</ntsc>
										</rate>
										<width>4096</width>
										<height>2160</height>
										<anamorphic>FALSE</anamorphic>
										<pixelaspectratio>square</pixelaspectratio>
										<fielddominance>none</fielddominance>
									</samplecharacteristics>
								</video>
							</media>
						</file>
						<logginginfo>
							<description></description>
							<scene></scene>
							<shottake></shottake>
							<lognote></lognote>
							<good></good>
							<originalvideofilename></originalvideofilename>
							<originalaudiofilename></originalaudiofilename>
						</logginginfo>
						<colorinfo>
							<lut></lut>
							<lut1></lut1>
							<asc_sop></asc_sop>
							<asc_sat></asc_sat>
							<lut2></lut2>
						</colorinfo>
						<labels>
							<label2>Violet</label2>
						</labels>
					</clipitem>
					<clipitem id="clipitem-102">
						<masterclipid>masterclip-100</masterclipid>
						<name>TKO_002_FAN_Sh01020.mov</name>
						<enabled>TRUE</enabled>
						<duration>57</duration>
						<rate>
							<timebase>24</timebase>
							<ntsc>TRUE</ntsc>
						</rate>
						<start>7463</start>
						<end>7512</end>
						<in>4</in>
						<out>53</out>
						<pproTicksIn>42378336000</pproTicksIn>
						<pproTicksOut>561512952000</pproTicksOut>
						<alphatype>none</alphatype>
						<pixelaspectratio>square</pixelaspectratio>
						<anamorphic>FALSE</anamorphic>
						<file id="file-100">
							<name>TKO_002_FAN_Sh01020.mov</name>
							<pathurl>file://tri-stor01/Projects/TKO/SHOTS/_Refs_Movs_Burnin_FrameCounter/TKO_002_FAN_Sh01020.mov</pathurl>
							<rate>
								<timebase>24</timebase>
								<ntsc>TRUE</ntsc>
							</rate>
							<duration>57</duration>
							<timecode>
								<rate>
									<timebase>24</timebase>
									<ntsc>TRUE</ntsc>
								</rate>
								<string>10:48:11:03</string>
								<frame>933387</frame>
								<displayformat>NDF</displayformat>
								<reel>
									<name>A0110005</name>
								</reel>
							</timecode>
							<media>
								<video>
									<samplecharacteristics>
										<rate>
											<timebase>24</timebase>
											<ntsc>TRUE</ntsc>
										</rate>
										<width>4096</width>
										<height>2160</height>
										<anamorphic>FALSE</anamorphic>
										<pixelaspectratio>square</pixelaspectratio>
										<fielddominance>none</fielddominance>
									</samplecharacteristics>
								</video>
							</media>
						</file>
						<logginginfo>
							<description></description>
							<scene></scene>
							<shottake></shottake>
							<lognote></lognote>
							<good></good>
							<originalvideofilename></originalvideofilename>
							<originalaudiofilename></originalaudiofilename>
						</logginginfo>
						<colorinfo>
							<lut></lut>
							<lut1></lut1>
							<asc_sop></asc_sop>
							<asc_sat></asc_sat>
							<lut2></lut2>
						</colorinfo>
						<labels>
							<label2>Violet</label2>
						</labels>
					</clipitem>
					<clipitem id="clipitem-103">
						<masterclipid>masterclip-101</masterclipid>
						<name>TKO_003_HER_Sh01030.mov</name>
						<enabled>TRUE</enabled>
						<duration>41</duration>
						<rate>
							<timebase>24</timebase>
							<ntsc>TRUE</ntsc>
						</rate>
						<start>7512</start>
						<end>7545</end>
						<in>4</in>
						<out>37</out>
						<pproTicksIn>42378336000</pproTicksIn>
						<pproTicksOut>391999608000</pproTicksOut>
						<alphatype>none</alphatype>
						<pixelaspectratio>square</pixelaspectratio>
						<anamorphic>FALSE</anamorphic>
						<file id="file-101">
							<name>TKO_003_HER_Sh01030.mov</name>
							<pathurl>file://tri-stor01/Projects/TKO/SHOTS/_Refs_Movs_Burnin_FrameCounter/TKO_003_HER_Sh01030.mov</pathurl>
							<rate>
								<timebase>24</timebase>
								<ntsc>TRUE</ntsc>
							</rate>
							<duration>41</duration>
							<timecode>
								<rate>
									<timebase>24</timebase>
									<ntsc>TRUE</ntsc>
								</rate>
								<string>17:34:52:14</string>
								<frame>1519022</frame>
								<displayformat>NDF</displayformat>
								<reel>
									<name>A0280001</name>
								</reel>
							</timecode>
							<media>
								<video>
									<samplecharacteristics>
										<rate>
											<timebase>24</timebase>
											<ntsc>TRUE</ntsc>
										</rate>
										<width>4096</width>
										<height>2160</height>
										<anamorphic>FALSE</anamorphic>
										<pixelaspectratio>square</pixelaspectratio>
										<fielddominance>none</fielddominance>
									</samplecharacteristics>
								</video>
							</media>
						</file>
						<logginginfo>
							<description></description>
							<scene></scene>
							<shottake></shottake>
							<lognote></lognote>
							<good></good>
							<originalvideofilename></originalvideofilename>
							<originalaudiofilename></originalaudiofilename>
						</logginginfo>
						<colorinfo>
							<lut></lut>
							<lut1></lut1>
							<asc_sop></asc_sop>
							<asc_sat></asc_sat>
							<lut2></lut2>
						</colorinfo>
						<labels>
							<label2>Violet</label2>
						</labels>
					</clipitem>
					<clipitem id="clipitem-104">
						<masterclipid>masterclip-102</masterclipid>
						<name>TKO_003_HER_Sh01040.mov</name>
						<enabled>TRUE</enabled>
						<duration>31</duration>
						<rate>
							<timebase>24</timebase>
							<ntsc>TRUE</ntsc>
						</rate>
						<start>7545</start>
						<end>7568</end>
						<in>4</in>
						<out>27</out>
						<pproTicksIn>42378336000</pproTicksIn>
						<pproTicksOut>286053768000</pproTicksOut>
						<alphatype>none</alphatype>
						<pixelaspectratio>square</pixelaspectratio>
						<anamorphic>FALSE</anamorphic>
						<file id="file-102">
							<name>TKO_003_HER_Sh01040.mov</name>
							<pathurl>file://tri-stor01/Projects/TKO/SHOTS/_Refs_Movs_Burnin_FrameCounter/TKO_003_HER_Sh01040.mov</pathurl>
							<rate>
								<timebase>24</timebase>
								<ntsc>TRUE</ntsc>
							</rate>
							<duration>31</duration>
							<timecode>
								<rate>
									<timebase>24</timebase>
									<ntsc>TRUE</ntsc>
								</rate>
								<string>18:20:38:00</string>
								<frame>1584912</frame>
								<displayformat>NDF</displayformat>
								<reel>
									<name>A0280005</name>
								</reel>
							</timecode>
							<media>
								<video>
									<samplecharacteristics>
										<rate>
											<timebase>24</timebase>
											<ntsc>TRUE</ntsc>
										</rate>
										<width>4096</width>
										<height>2160</height>
										<anamorphic>FALSE</anamorphic>
										<pixelaspectratio>square</pixelaspectratio>
										<fielddominance>none</fielddominance>
									</samplecharacteristics>
								</video>
							</media>
						</file>
						<logginginfo>
							<description></description>
							<scene></scene>
							<shottake></shottake>
							<lognote></lognote>
							<good></good>
							<originalvideofilename></originalvideofilename>
							<originalaudiofilename></originalaudiofilename>
						</logginginfo>
						<colorinfo>
							<lut></lut>
							<lut1></lut1>
							<asc_sop></asc_sop>
							<asc_sat></asc_sat>
							<lut2></lut2>
						</colorinfo>
						<labels>
							<label2>Violet</label2>
						</labels>
					</clipitem>
					<clipitem id="clipitem-105">
						<masterclipid>masterclip-103</masterclipid>
						<name>TKO_003_HER_Sh01050.mov</name>
						<enabled>TRUE</enabled>
						<duration>26</duration>
						<rate>
							<timebase>24</timebase>
							<ntsc>TRUE</ntsc>
						</rate>
						<start>7568</start>
						<end>7586</end>
						<in>4</in>
						<out>22</out>
						<pproTicksIn>42378336000</pproTicksIn>
						<pproTicksOut>233080848000</pproTicksOut>
						<alphatype>none</alphatype>
						<pixelaspectratio>square</pixelaspectratio>
						<anamorphic>FALSE</anamorphic>
						<file id="file-103">
							<name>TKO_003_HER_Sh01050.mov</name>
							<pathurl>file://tri-stor01/Projects/TKO/SHOTS/_Refs_Movs_Burnin_FrameCounter/TKO_003_HER_Sh01050.mov</pathurl>
							<rate>
								<timebase>24</timebase>
								<ntsc>TRUE</ntsc>
							</rate>
							<duration>26</duration>
							<timecode>
								<rate>
									<timebase>24</timebase>
									<ntsc>TRUE</ntsc>
								</rate>
								<string>08:05:24:22</string>
								<frame>698998</frame>
								<displayformat>NDF</displayformat>
								<reel>
									<name>C0200007</name>
								</reel>
							</timecode>
							<media>
								<video>
									<samplecharacteristics>
										<rate>
											<timebase>24</timebase>
											<ntsc>TRUE</ntsc>
										</rate>
										<width>3840</width>
										<height>2160</height>
										<anamorphic>FALSE</anamorphic>
										<pixelaspectratio>square</pixelaspectratio>
										<fielddominance>none</fielddominance>
									</samplecharacteristics>
								</video>
							</media>
						</file>
						<logginginfo>
							<description></description>
							<scene></scene>
							<shottake></shottake>
							<lognote></lognote>
							<good></good>
							<originalvideofilename></originalvideofilename>
							<originalaudiofilename></originalaudiofilename>
						</logginginfo>
						<colorinfo>
							<lut></lut>
							<lut1></lut1>
							<asc_sop></asc_sop>
							<asc_sat></asc_sat>
							<lut2></lut2>
						</colorinfo>
						<labels>
							<label2>Violet</label2>
						</labels>
					</clipitem>
					<clipitem id="clipitem-106">
						<masterclipid>masterclip-104</masterclipid>
						<name>TKO_003_HER_Sh01060.mov</name>
						<enabled>TRUE</enabled>
						<duration>671</duration>
						<rate>
							<timebase>24</timebase>
							<ntsc>TRUE</ntsc>
						</rate>
						<start>7586</start>
						<end>8249</end>
						<in>4</in>
						<out>667</out>
						<pproTicksIn>42378336000</pproTicksIn>
						<pproTicksOut>7066587528000</pproTicksOut>
						<alphatype>none</alphatype>
						<pixelaspectratio>square</pixelaspectratio>
						<anamorphic>FALSE</anamorphic>
						<file id="file-104">
							<name>TKO_003_HER_Sh01060.mov</name>
							<pathurl>file://tri-stor01/Projects/TKO/SHOTS/_Refs_Movs_Burnin_FrameCounter/TKO_003_HER_Sh01060.mov</pathurl>
							<rate>
								<timebase>24</timebase>
								<ntsc>TRUE</ntsc>
							</rate>
							<duration>671</duration>
							<timecode>
								<rate>
									<timebase>24</timebase>
									<ntsc>TRUE</ntsc>
								</rate>
								<string>17:50:21:06</string>
								<frame>1541310</frame>
								<displayformat>NDF</displayformat>
								<reel>
									<name>A0280003</name>
								</reel>
							</timecode>
							<media>
								<video>
									<samplecharacteristics>
										<rate>
											<timebase>24</timebase>
											<ntsc>TRUE</ntsc>
										</rate>
										<width>4096</width>
										<height>2160</height>
										<anamorphic>FALSE</anamorphic>
										<pixelaspectratio>square</pixelaspectratio>
										<fielddominance>none</fielddominance>
									</samplecharacteristics>
								</video>
							</media>
						</file>
						<logginginfo>
							<description></description>
							<scene></scene>
							<shottake></shottake>
							<lognote></lognote>
							<good></good>
							<originalvideofilename></originalvideofilename>
							<originalaudiofilename></originalaudiofilename>
						</logginginfo>
						<colorinfo>
							<lut></lut>
							<lut1></lut1>
							<asc_sop></asc_sop>
							<asc_sat></asc_sat>
							<lut2></lut2>
						</colorinfo>
						<labels>
							<label2>Violet</label2>
						</labels>
					</clipitem>
					<clipitem id="clipitem-107">
						<masterclipid>masterclip-105</masterclipid>
						<name>TKO_003_HER_Sh01070.mov</name>
						<enabled>TRUE</enabled>
						<duration>247</duration>
						<rate>
							<timebase>24</timebase>
							<ntsc>TRUE</ntsc>
						</rate>
						<start>8249</start>
						<end>8488</end>
						<in>4</in>
						<out>243</out>
						<pproTicksIn>42378336000</pproTicksIn>
						<pproTicksOut>2574483912000</pproTicksOut>
						<alphatype>none</alphatype>
						<pixelaspectratio>square</pixelaspectratio>
						<anamorphic>FALSE</anamorphic>
						<file id="file-105">
							<name>TKO_003_HER_Sh01070.mov</name>
							<pathurl>file://tri-stor01/Projects/TKO/SHOTS/_Refs_Movs_Burnin_FrameCounter/TKO_003_HER_Sh01070.mov</pathurl>
							<rate>
								<timebase>24</timebase>
								<ntsc>TRUE</ntsc>
							</rate>
							<duration>247</duration>
							<timecode>
								<rate>
									<timebase>24</timebase>
									<ntsc>TRUE</ntsc>
								</rate>
								<string>18:07:21:09</string>
								<frame>1565793</frame>
								<displayformat>NDF</displayformat>
								<reel>
									<name>B0240004</name>
								</reel>
							</timecode>
							<media>
								<video>
									<samplecharacteristics>
										<rate>
											<timebase>24</timebase>
											<ntsc>TRUE</ntsc>
										</rate>
										<width>4096</width>
										<height>2160</height>
										<anamorphic>FALSE</anamorphic>
										<pixelaspectratio>square</pixelaspectratio>
										<fielddominance>none</fielddominance>
									</samplecharacteristics>
								</video>
							</media>
						</file>
						<logginginfo>
							<description></description>
							<scene></scene>
							<shottake></shottake>
							<lognote></lognote>
							<good></good>
							<originalvideofilename></originalvideofilename>
							<originalaudiofilename></originalaudiofilename>
						</logginginfo>
						<colorinfo>
							<lut></lut>
							<lut1></lut1>
							<asc_sop></asc_sop>
							<asc_sat></asc_sat>
							<lut2></lut2>
						</colorinfo>
						<labels>
							<label2>Violet</label2>
						</labels>
					</clipitem>
					<clipitem id="clipitem-108">
						<masterclipid>masterclip-106</masterclipid>
						<name>TKO_003_HER_Sh01080.mov</name>
						<enabled>TRUE</enabled>
						<duration>44</duration>
						<rate>
							<timebase>24</timebase>
							<ntsc>TRUE</ntsc>
						</rate>
						<start>8488</start>
						<end>8524</end>
						<in>4</in>
						<out>40</out>
						<pproTicksIn>42378336000</pproTicksIn>
						<pproTicksOut>423783360000</pproTicksOut>
						<alphatype>none</alphatype>
						<pixelaspectratio>square</pixelaspectratio>
						<anamorphic>FALSE</anamorphic>
						<file id="file-106">
							<name>TKO_003_HER_Sh01080.mov</name>
							<pathurl>file://tri-stor01/Projects/TKO/SHOTS/_Refs_Movs_Burnin_FrameCounter/TKO_003_HER_Sh01080.mov</pathurl>
							<rate>
								<timebase>24</timebase>
								<ntsc>TRUE</ntsc>
							</rate>
							<duration>44</duration>
							<timecode>
								<rate>
									<timebase>24</timebase>
									<ntsc>TRUE</ntsc>
								</rate>
								<string>18:09:15:12</string>
								<frame>1568532</frame>
								<displayformat>NDF</displayformat>
								<reel>
									<name>A0280004</name>
								</reel>
							</timecode>
							<media>
								<video>
									<samplecharacteristics>
										<rate>
											<timebase>24</timebase>
											<ntsc>TRUE</ntsc>
										</rate>
										<width>4096</width>
										<height>2160</height>
										<anamorphic>FALSE</anamorphic>
										<pixelaspectratio>square</pixelaspectratio>
										<fielddominance>none</fielddominance>
									</samplecharacteristics>
								</video>
							</media>
						</file>
						<logginginfo>
							<description></description>
							<scene></scene>
							<shottake></shottake>
							<lognote></lognote>
							<good></good>
							<originalvideofilename></originalvideofilename>
							<originalaudiofilename></originalaudiofilename>
						</logginginfo>
						<colorinfo>
							<lut></lut>
							<lut1></lut1>
							<asc_sop></asc_sop>
							<asc_sat></asc_sat>
							<lut2></lut2>
						</colorinfo>
						<labels>
							<label2>Violet</label2>
						</labels>
					</clipitem>
					<clipitem id="clipitem-109">
						<masterclipid>masterclip-107</masterclipid>
						<name>TKO_003_HER_Sh01090.mov</name>
						<enabled>TRUE</enabled>
						<duration>61</duration>
						<rate>
							<timebase>24</timebase>
							<ntsc>TRUE</ntsc>
						</rate>
						<start>8524</start>
						<end>8577</end>
						<in>4</in>
						<out>57</out>
						<pproTicksIn>42378336000</pproTicksIn>
						<pproTicksOut>603891288000</pproTicksOut>
						<alphatype>none</alphatype>
						<pixelaspectratio>square</pixelaspectratio>
						<anamorphic>FALSE</anamorphic>
						<file id="file-107">
							<name>TKO_003_HER_Sh01090.mov</name>
							<pathurl>file://tri-stor01/Projects/TKO/SHOTS/_Refs_Movs_Burnin_FrameCounter/TKO_003_HER_Sh01090.mov</pathurl>
							<rate>
								<timebase>24</timebase>
								<ntsc>TRUE</ntsc>
							</rate>
							<duration>61</duration>
							<timecode>
								<rate>
									<timebase>24</timebase>
									<ntsc>TRUE</ntsc>
								</rate>
								<string>08:03:33:12</string>
								<frame>696324</frame>
								<displayformat>NDF</displayformat>
								<reel>
									<name>C0200006</name>
								</reel>
							</timecode>
							<media>
								<video>
									<samplecharacteristics>
										<rate>
											<timebase>24</timebase>
											<ntsc>TRUE</ntsc>
										</rate>
										<width>3840</width>
										<height>2160</height>
										<anamorphic>FALSE</anamorphic>
										<pixelaspectratio>square</pixelaspectratio>
										<fielddominance>none</fielddominance>
									</samplecharacteristics>
								</video>
							</media>
						</file>
						<logginginfo>
							<description></description>
							<scene></scene>
							<shottake></shottake>
							<lognote></lognote>
							<good></good>
							<originalvideofilename></originalvideofilename>
							<originalaudiofilename></originalaudiofilename>
						</logginginfo>
						<colorinfo>
							<lut></lut>
							<lut1></lut1>
							<asc_sop></asc_sop>
							<asc_sat></asc_sat>
							<lut2></lut2>
						</colorinfo>
						<labels>
							<label2>Violet</label2>
						</labels>
					</clipitem>
					<clipitem id="clipitem-110">
						<masterclipid>masterclip-108</masterclipid>
						<name>TKO_003_HER_Sh01100.mov</name>
						<enabled>TRUE</enabled>
						<duration>137</duration>
						<rate>
							<timebase>24</timebase>
							<ntsc>TRUE</ntsc>
						</rate>
						<start>8577</start>
						<end>8706</end>
						<in>4</in>
						<out>133</out>
						<pproTicksIn>42378336000</pproTicksIn>
						<pproTicksOut>1409079672000</pproTicksOut>
						<alphatype>none</alphatype>
						<pixelaspectratio>square</pixelaspectratio>
						<anamorphic>FALSE</anamorphic>
						<file id="file-108">
							<name>TKO_003_HER_Sh01100.mov</name>
							<pathurl>file://tri-stor01/Projects/TKO/SHOTS/_Refs_Movs_Burnin_FrameCounter/TKO_003_HER_Sh01100.mov</pathurl>
							<rate>
								<timebase>24</timebase>
								<ntsc>TRUE</ntsc>
							</rate>
							<duration>137</duration>
							<timecode>
								<rate>
									<timebase>24</timebase>
									<ntsc>TRUE</ntsc>
								</rate>
								<string>18:07:33:02</string>
								<frame>1566074</frame>
								<displayformat>NDF</displayformat>
								<reel>
									<name>B0240004</name>
								</reel>
							</timecode>
							<media>
								<video>
									<samplecharacteristics>
										<rate>
											<timebase>24</timebase>
											<ntsc>TRUE</ntsc>
										</rate>
										<width>4096</width>
										<height>2160</height>
										<anamorphic>FALSE</anamorphic>
										<pixelaspectratio>square</pixelaspectratio>
										<fielddominance>none</fielddominance>
									</samplecharacteristics>
								</video>
							</media>
						</file>
						<logginginfo>
							<description></description>
							<scene></scene>
							<shottake></shottake>
							<lognote></lognote>
							<good></good>
							<originalvideofilename></originalvideofilename>
							<originalaudiofilename></originalaudiofilename>
						</logginginfo>
						<colorinfo>
							<lut></lut>
							<lut1></lut1>
							<asc_sop></asc_sop>
							<asc_sat></asc_sat>
							<lut2></lut2>
						</colorinfo>
						<labels>
							<label2>Violet</label2>
						</labels>
					</clipitem>
					<clipitem id="clipitem-111">
						<masterclipid>masterclip-109</masterclipid>
						<name>TKO_003_HER_Sh01110.mov</name>
						<enabled>TRUE</enabled>
						<duration>39</duration>
						<rate>
							<timebase>24</timebase>
							<ntsc>TRUE</ntsc>
						</rate>
						<start>8706</start>
						<end>8737</end>
						<in>4</in>
						<out>35</out>
						<pproTicksIn>42378336000</pproTicksIn>
						<pproTicksOut>370810440000</pproTicksOut>
						<alphatype>none</alphatype>
						<pixelaspectratio>square</pixelaspectratio>
						<anamorphic>FALSE</anamorphic>
						<file id="file-109">
							<name>TKO_003_HER_Sh01110.mov</name>
							<pathurl>file://tri-stor01/Projects/TKO/SHOTS/_Refs_Movs_Burnin_FrameCounter/TKO_003_HER_Sh01110.mov</pathurl>
							<rate>
								<timebase>24</timebase>
								<ntsc>TRUE</ntsc>
							</rate>
							<duration>39</duration>
							<timecode>
								<rate>
									<timebase>24</timebase>
									<ntsc>TRUE</ntsc>
								</rate>
								<string>08:01:53:17</string>
								<frame>693929</frame>
								<displayformat>NDF</displayformat>
								<reel>
									<name>C0200006</name>
								</reel>
							</timecode>
							<media>
								<video>
									<samplecharacteristics>
										<rate>
											<timebase>24</timebase>
											<ntsc>TRUE</ntsc>
										</rate>
										<width>3840</width>
										<height>2160</height>
										<anamorphic>FALSE</anamorphic>
										<pixelaspectratio>square</pixelaspectratio>
										<fielddominance>none</fielddominance>
									</samplecharacteristics>
								</video>
							</media>
						</file>
						<logginginfo>
							<description></description>
							<scene></scene>
							<shottake></shottake>
							<lognote></lognote>
							<good></good>
							<originalvideofilename></originalvideofilename>
							<originalaudiofilename></originalaudiofilename>
						</logginginfo>
						<colorinfo>
							<lut></lut>
							<lut1></lut1>
							<asc_sop></asc_sop>
							<asc_sat></asc_sat>
							<lut2></lut2>
						</colorinfo>
						<labels>
							<label2>Violet</label2>
						</labels>
					</clipitem>
					<clipitem id="clipitem-112">
						<masterclipid>masterclip-110</masterclipid>
						<name>TKO_003_HER_Sh01120.mov</name>
						<enabled>TRUE</enabled>
						<duration>139</duration>
						<rate>
							<timebase>24</timebase>
							<ntsc>TRUE</ntsc>
						</rate>
						<start>8737</start>
						<end>8868</end>
						<in>4</in>
						<out>135</out>
						<pproTicksIn>42378336000</pproTicksIn>
						<pproTicksOut>1430268840000</pproTicksOut>
						<alphatype>none</alphatype>
						<pixelaspectratio>square</pixelaspectratio>
						<anamorphic>FALSE</anamorphic>
						<file id="file-110">
							<name>TKO_003_HER_Sh01120.mov</name>
							<pathurl>file://tri-stor01/Projects/TKO/SHOTS/_Refs_Movs_Burnin_FrameCounter/TKO_003_HER_Sh01120.mov</pathurl>
							<rate>
								<timebase>24</timebase>
								<ntsc>TRUE</ntsc>
							</rate>
							<duration>139</duration>
							<timecode>
								<rate>
									<timebase>24</timebase>
									<ntsc>TRUE</ntsc>
								</rate>
								<string>18:07:39:18</string>
								<frame>1566234</frame>
								<displayformat>NDF</displayformat>
								<reel>
									<name>B0240004</name>
								</reel>
							</timecode>
							<media>
								<video>
									<samplecharacteristics>
										<rate>
											<timebase>24</timebase>
											<ntsc>TRUE</ntsc>
										</rate>
										<width>4096</width>
										<height>2160</height>
										<anamorphic>FALSE</anamorphic>
										<pixelaspectratio>square</pixelaspectratio>
										<fielddominance>none</fielddominance>
									</samplecharacteristics>
								</video>
							</media>
						</file>
						<logginginfo>
							<description></description>
							<scene></scene>
							<shottake></shottake>
							<lognote></lognote>
							<good></good>
							<originalvideofilename></originalvideofilename>
							<originalaudiofilename></originalaudiofilename>
						</logginginfo>
						<colorinfo>
							<lut></lut>
							<lut1></lut1>
							<asc_sop></asc_sop>
							<asc_sat></asc_sat>
							<lut2></lut2>
						</colorinfo>
						<labels>
							<label2>Violet</label2>
						</labels>
					</clipitem>
					<clipitem id="clipitem-113">
						<masterclipid>masterclip-111</masterclipid>
						<name>TKO_003_HER_Sh01130.mov</name>
						<enabled>TRUE</enabled>
						<duration>44</duration>
						<rate>
							<timebase>24</timebase>
							<ntsc>TRUE</ntsc>
						</rate>
						<start>8868</start>
						<end>8904</end>
						<in>4</in>
						<out>40</out>
						<pproTicksIn>42378336000</pproTicksIn>
						<pproTicksOut>423783360000</pproTicksOut>
						<alphatype>none</alphatype>
						<pixelaspectratio>square</pixelaspectratio>
						<anamorphic>FALSE</anamorphic>
						<file id="file-111">
							<name>TKO_003_HER_Sh01130.mov</name>
							<pathurl>file://tri-stor01/Projects/TKO/SHOTS/_Refs_Movs_Burnin_FrameCounter/TKO_003_HER_Sh01130.mov</pathurl>
							<rate>
								<timebase>24</timebase>
								<ntsc>TRUE</ntsc>
							</rate>
							<duration>44</duration>
							<timecode>
								<rate>
									<timebase>24</timebase>
									<ntsc>TRUE</ntsc>
								</rate>
								<string>08:03:45:23</string>
								<frame>696623</frame>
								<displayformat>NDF</displayformat>
								<reel>
									<name>C0200006</name>
								</reel>
							</timecode>
							<media>
								<video>
									<samplecharacteristics>
										<rate>
											<timebase>24</timebase>
											<ntsc>TRUE</ntsc>
										</rate>
										<width>3840</width>
										<height>2160</height>
										<anamorphic>FALSE</anamorphic>
										<pixelaspectratio>square</pixelaspectratio>
										<fielddominance>none</fielddominance>
									</samplecharacteristics>
								</video>
							</media>
						</file>
						<logginginfo>
							<description></description>
							<scene></scene>
							<shottake></shottake>
							<lognote></lognote>
							<good></good>
							<originalvideofilename></originalvideofilename>
							<originalaudiofilename></originalaudiofilename>
						</logginginfo>
						<colorinfo>
							<lut></lut>
							<lut1></lut1>
							<asc_sop></asc_sop>
							<asc_sat></asc_sat>
							<lut2></lut2>
						</colorinfo>
						<labels>
							<label2>Violet</label2>
						</labels>
					</clipitem>
					<clipitem id="clipitem-114">
						<masterclipid>masterclip-112</masterclipid>
						<name>TKO_003_HER_Sh01140.mov</name>
						<enabled>TRUE</enabled>
						<duration>103</duration>
						<rate>
							<timebase>24</timebase>
							<ntsc>TRUE</ntsc>
						</rate>
						<start>8904</start>
						<end>8999</end>
						<in>4</in>
						<out>99</out>
						<pproTicksIn>42378336000</pproTicksIn>
						<pproTicksOut>1048863816000</pproTicksOut>
						<alphatype>none</alphatype>
						<pixelaspectratio>square</pixelaspectratio>
						<anamorphic>FALSE</anamorphic>
						<file id="file-112">
							<name>TKO_003_HER_Sh01140.mov</name>
							<pathurl>file://tri-stor01/Projects/TKO/SHOTS/_Refs_Movs_Burnin_FrameCounter/TKO_003_HER_Sh01140.mov</pathurl>
							<rate>
								<timebase>24</timebase>
								<ntsc>TRUE</ntsc>
							</rate>
							<duration>103</duration>
							<timecode>
								<rate>
									<timebase>24</timebase>
									<ntsc>TRUE</ntsc>
								</rate>
								<string>18:09:32:18</string>
								<frame>1568946</frame>
								<displayformat>NDF</displayformat>
								<reel>
									<name>B0240004</name>
								</reel>
							</timecode>
							<media>
								<video>
									<samplecharacteristics>
										<rate>
											<timebase>24</timebase>
											<ntsc>TRUE</ntsc>
										</rate>
										<width>4096</width>
										<height>2160</height>
										<anamorphic>FALSE</anamorphic>
										<pixelaspectratio>square</pixelaspectratio>
										<fielddominance>none</fielddominance>
									</samplecharacteristics>
								</video>
							</media>
						</file>
						<logginginfo>
							<description></description>
							<scene></scene>
							<shottake></shottake>
							<lognote></lognote>
							<good></good>
							<originalvideofilename></originalvideofilename>
							<originalaudiofilename></originalaudiofilename>
						</logginginfo>
						<colorinfo>
							<lut></lut>
							<lut1></lut1>
							<asc_sop></asc_sop>
							<asc_sat></asc_sat>
							<lut2></lut2>
						</colorinfo>
						<labels>
							<label2>Violet</label2>
						</labels>
					</clipitem>
					<clipitem id="clipitem-115">
						<masterclipid>masterclip-113</masterclipid>
						<name>TKO_003_HER_Sh01150.mov</name>
						<enabled>TRUE</enabled>
						<duration>60</duration>
						<rate>
							<timebase>24</timebase>
							<ntsc>TRUE</ntsc>
						</rate>
						<start>8999</start>
						<end>9051</end>
						<in>4</in>
						<out>56</out>
						<pproTicksIn>42378336000</pproTicksIn>
						<pproTicksOut>593296704000</pproTicksOut>
						<alphatype>none</alphatype>
						<pixelaspectratio>square</pixelaspectratio>
						<anamorphic>FALSE</anamorphic>
						<file id="file-113">
							<name>TKO_003_HER_Sh01150.mov</name>
							<pathurl>file://tri-stor01/Projects/TKO/SHOTS/_Refs_Movs_Burnin_FrameCounter/TKO_003_HER_Sh01150.mov</pathurl>
							<rate>
								<timebase>24</timebase>
								<ntsc>TRUE</ntsc>
							</rate>
							<duration>60</duration>
							<timecode>
								<rate>
									<timebase>24</timebase>
									<ntsc>TRUE</ntsc>
								</rate>
								<string>08:03:52:14</string>
								<frame>696782</frame>
								<displayformat>NDF</displayformat>
								<reel>
									<name>C0200006</name>
								</reel>
							</timecode>
							<media>
								<video>
									<samplecharacteristics>
										<rate>
											<timebase>24</timebase>
											<ntsc>TRUE</ntsc>
										</rate>
										<width>3840</width>
										<height>2160</height>
										<anamorphic>FALSE</anamorphic>
										<pixelaspectratio>square</pixelaspectratio>
										<fielddominance>none</fielddominance>
									</samplecharacteristics>
								</video>
							</media>
						</file>
						<logginginfo>
							<description></description>
							<scene></scene>
							<shottake></shottake>
							<lognote></lognote>
							<good></good>
							<originalvideofilename></originalvideofilename>
							<originalaudiofilename></originalaudiofilename>
						</logginginfo>
						<colorinfo>
							<lut></lut>
							<lut1></lut1>
							<asc_sop></asc_sop>
							<asc_sat></asc_sat>
							<lut2></lut2>
						</colorinfo>
						<labels>
							<label2>Violet</label2>
						</labels>
					</clipitem>
					<clipitem id="clipitem-116">
						<masterclipid>masterclip-114</masterclipid>
						<name>TKO_003_HER_Sh01160.mov</name>
						<enabled>TRUE</enabled>
						<duration>31</duration>
						<rate>
							<timebase>24</timebase>
							<ntsc>TRUE</ntsc>
						</rate>
						<start>9051</start>
						<end>9074</end>
						<in>4</in>
						<out>27</out>
						<pproTicksIn>42378336000</pproTicksIn>
						<pproTicksOut>286053768000</pproTicksOut>
						<alphatype>none</alphatype>
						<pixelaspectratio>square</pixelaspectratio>
						<anamorphic>FALSE</anamorphic>
						<file id="file-114">
							<name>TKO_003_HER_Sh01160.mov</name>
							<pathurl>file://tri-stor01/Projects/TKO/SHOTS/_Refs_Movs_Burnin_FrameCounter/TKO_003_HER_Sh01160.mov</pathurl>
							<rate>
								<timebase>24</timebase>
								<ntsc>TRUE</ntsc>
							</rate>
							<duration>31</duration>
							<timecode>
								<rate>
									<timebase>24</timebase>
									<ntsc>TRUE</ntsc>
								</rate>
								<string>17:40:38:01</string>
								<frame>1527313</frame>
								<displayformat>NDF</displayformat>
								<reel>
									<name>B0240002</name>
								</reel>
							</timecode>
							<media>
								<video>
									<samplecharacteristics>
										<rate>
											<timebase>24</timebase>
											<ntsc>TRUE</ntsc>
										</rate>
										<width>4096</width>
										<height>2160</height>
										<anamorphic>FALSE</anamorphic>
										<pixelaspectratio>square</pixelaspectratio>
										<fielddominance>none</fielddominance>
									</samplecharacteristics>
								</video>
							</media>
						</file>
						<logginginfo>
							<description></description>
							<scene></scene>
							<shottake></shottake>
							<lognote></lognote>
							<good></good>
							<originalvideofilename></originalvideofilename>
							<originalaudiofilename></originalaudiofilename>
						</logginginfo>
						<colorinfo>
							<lut></lut>
							<lut1></lut1>
							<asc_sop></asc_sop>
							<asc_sat></asc_sat>
							<lut2></lut2>
						</colorinfo>
						<labels>
							<label2>Violet</label2>
						</labels>
					</clipitem>
					<clipitem id="clipitem-117">
						<masterclipid>masterclip-115</masterclipid>
						<name>TKO_004_PRI_Sh01170.mov</name>
						<enabled>TRUE</enabled>
						<duration>121</duration>
						<rate>
							<timebase>24</timebase>
							<ntsc>TRUE</ntsc>
						</rate>
						<start>9074</start>
						<end>9187</end>
						<in>4</in>
						<out>117</out>
						<pproTicksIn>42378336000</pproTicksIn>
						<pproTicksOut>1239566328000</pproTicksOut>
						<alphatype>none</alphatype>
						<pixelaspectratio>square</pixelaspectratio>
						<anamorphic>FALSE</anamorphic>
						<file id="file-115">
							<name>TKO_004_PRI_Sh01170.mov</name>
							<pathurl>file://tri-stor01/Projects/TKO/SHOTS/_Refs_Movs_Burnin_FrameCounter/TKO_004_PRI_Sh01170.mov</pathurl>
							<rate>
								<timebase>24</timebase>
								<ntsc>TRUE</ntsc>
							</rate>
							<duration>121</duration>
							<timecode>
								<rate>
									<timebase>24</timebase>
									<ntsc>TRUE</ntsc>
								</rate>
								<string>00:05:26:02</string>
								<frame>7826</frame>
								<displayformat>NDF</displayformat>
							</timecode>
							<media>
								<video>
									<samplecharacteristics>
										<rate>
											<timebase>24</timebase>
											<ntsc>TRUE</ntsc>
										</rate>
										<width>1280</width>
										<height>720</height>
										<anamorphic>FALSE</anamorphic>
										<pixelaspectratio>square</pixelaspectratio>
										<fielddominance>none</fielddominance>
									</samplecharacteristics>
								</video>
							</media>
						</file>
						<logginginfo>
							<description></description>
							<scene></scene>
							<shottake></shottake>
							<lognote></lognote>
							<good></good>
							<originalvideofilename></originalvideofilename>
							<originalaudiofilename></originalaudiofilename>
						</logginginfo>
						<colorinfo>
							<lut></lut>
							<lut1></lut1>
							<asc_sop></asc_sop>
							<asc_sat></asc_sat>
							<lut2></lut2>
						</colorinfo>
						<labels>
							<label2>Violet</label2>
						</labels>
					</clipitem>
					<clipitem id="clipitem-118">
						<masterclipid>masterclip-116</masterclipid>
						<name>TKO_004_PRI_Sh01180.mov</name>
						<enabled>TRUE</enabled>
						<duration>57</duration>
						<rate>
							<timebase>24</timebase>
							<ntsc>TRUE</ntsc>
						</rate>
						<start>9187</start>
						<end>9236</end>
						<in>4</in>
						<out>53</out>
						<pproTicksIn>42378336000</pproTicksIn>
						<pproTicksOut>561512952000</pproTicksOut>
						<alphatype>none</alphatype>
						<pixelaspectratio>square</pixelaspectratio>
						<anamorphic>FALSE</anamorphic>
						<file id="file-116">
							<name>TKO_004_PRI_Sh01180.mov</name>
							<pathurl>file://tri-stor01/Projects/TKO/SHOTS/_Refs_Movs_Burnin_FrameCounter/TKO_004_PRI_Sh01180.mov</pathurl>
							<rate>
								<timebase>24</timebase>
								<ntsc>TRUE</ntsc>
							</rate>
							<duration>57</duration>
							<timecode>
								<rate>
									<timebase>24</timebase>
									<ntsc>TRUE</ntsc>
								</rate>
								<string>16:27:39:06</string>
								<frame>1422222</frame>
								<displayformat>NDF</displayformat>
								<reel>
									<name>A0020014</name>
								</reel>
							</timecode>
							<media>
								<video>
									<samplecharacteristics>
										<rate>
											<timebase>24</timebase>
											<ntsc>TRUE</ntsc>
										</rate>
										<width>4096</width>
										<height>2160</height>
										<anamorphic>FALSE</anamorphic>
										<pixelaspectratio>square</pixelaspectratio>
										<fielddominance>none</fielddominance>
									</samplecharacteristics>
								</video>
							</media>
						</file>
						<logginginfo>
							<description></description>
							<scene></scene>
							<shottake></shottake>
							<lognote></lognote>
							<good></good>
							<originalvideofilename></originalvideofilename>
							<originalaudiofilename></originalaudiofilename>
						</logginginfo>
						<colorinfo>
							<lut></lut>
							<lut1></lut1>
							<asc_sop></asc_sop>
							<asc_sat></asc_sat>
							<lut2></lut2>
						</colorinfo>
						<labels>
							<label2>Violet</label2>
						</labels>
					</clipitem>
					<clipitem id="clipitem-119">
						<masterclipid>masterclip-117</masterclipid>
						<name>TKO_004_PRI_Sh01190.mov</name>
						<enabled>TRUE</enabled>
						<duration>60</duration>
						<rate>
							<timebase>24</timebase>
							<ntsc>TRUE</ntsc>
						</rate>
						<start>9236</start>
						<end>9288</end>
						<in>4</in>
						<out>56</out>
						<pproTicksIn>42378336000</pproTicksIn>
						<pproTicksOut>593296704000</pproTicksOut>
						<alphatype>none</alphatype>
						<pixelaspectratio>square</pixelaspectratio>
						<anamorphic>FALSE</anamorphic>
						<file id="file-117">
							<name>TKO_004_PRI_Sh01190.mov</name>
							<pathurl>file://tri-stor01/Projects/TKO/SHOTS/_Refs_Movs_Burnin_FrameCounter/TKO_004_PRI_Sh01190.mov</pathurl>
							<rate>
								<timebase>24</timebase>
								<ntsc>TRUE</ntsc>
							</rate>
							<duration>60</duration>
							<timecode>
								<rate>
									<timebase>24</timebase>
									<ntsc>TRUE</ntsc>
								</rate>
								<string>16:48:42:15</string>
								<frame>1452543</frame>
								<displayformat>NDF</displayformat>
								<reel>
									<name>A0020017</name>
								</reel>
							</timecode>
							<media>
								<video>
									<samplecharacteristics>
										<rate>
											<timebase>24</timebase>
											<ntsc>TRUE</ntsc>
										</rate>
										<width>4096</width>
										<height>2160</height>
										<anamorphic>FALSE</anamorphic>
										<pixelaspectratio>square</pixelaspectratio>
										<fielddominance>none</fielddominance>
									</samplecharacteristics>
								</video>
							</media>
						</file>
						<logginginfo>
							<description></description>
							<scene></scene>
							<shottake></shottake>
							<lognote></lognote>
							<good></good>
							<originalvideofilename></originalvideofilename>
							<originalaudiofilename></originalaudiofilename>
						</logginginfo>
						<colorinfo>
							<lut></lut>
							<lut1></lut1>
							<asc_sop></asc_sop>
							<asc_sat></asc_sat>
							<lut2></lut2>
						</colorinfo>
						<labels>
							<label2>Violet</label2>
						</labels>
					</clipitem>
					<clipitem id="clipitem-120">
						<masterclipid>masterclip-118</masterclipid>
						<name>TKO_004_PRI_Sh01200.mov</name>
						<enabled>TRUE</enabled>
						<duration>64</duration>
						<rate>
							<timebase>24</timebase>
							<ntsc>TRUE</ntsc>
						</rate>
						<start>9288</start>
						<end>9344</end>
						<in>4</in>
						<out>60</out>
						<pproTicksIn>42378336000</pproTicksIn>
						<pproTicksOut>635675040000</pproTicksOut>
						<alphatype>none</alphatype>
						<pixelaspectratio>square</pixelaspectratio>
						<anamorphic>FALSE</anamorphic>
						<file id="file-118">
							<name>TKO_004_PRI_Sh01200.mov</name>
							<pathurl>file://tri-stor01/Projects/TKO/SHOTS/_Refs_Movs_Burnin_FrameCounter/TKO_004_PRI_Sh01200.mov</pathurl>
							<rate>
								<timebase>24</timebase>
								<ntsc>TRUE</ntsc>
							</rate>
							<duration>64</duration>
							<timecode>
								<rate>
									<timebase>24</timebase>
									<ntsc>TRUE</ntsc>
								</rate>
								<string>15:49:43:03</string>
								<frame>1367595</frame>
								<displayformat>NDF</displayformat>
								<reel>
									<name>B0020009</name>
								</reel>
							</timecode>
							<media>
								<video>
									<samplecharacteristics>
										<rate>
											<timebase>24</timebase>
											<ntsc>TRUE</ntsc>
										</rate>
										<width>4096</width>
										<height>2160</height>
										<anamorphic>FALSE</anamorphic>
										<pixelaspectratio>square</pixelaspectratio>
										<fielddominance>none</fielddominance>
									</samplecharacteristics>
								</video>
							</media>
						</file>
						<logginginfo>
							<description></description>
							<scene></scene>
							<shottake></shottake>
							<lognote></lognote>
							<good></good>
							<originalvideofilename></originalvideofilename>
							<originalaudiofilename></originalaudiofilename>
						</logginginfo>
						<colorinfo>
							<lut></lut>
							<lut1></lut1>
							<asc_sop></asc_sop>
							<asc_sat></asc_sat>
							<lut2></lut2>
						</colorinfo>
						<labels>
							<label2>Violet</label2>
						</labels>
					</clipitem>
					<clipitem id="clipitem-121">
						<masterclipid>masterclip-119</masterclipid>
						<name>TKO_004_PRI_Sh01210.mov</name>
						<enabled>TRUE</enabled>
						<duration>69</duration>
						<rate>
							<timebase>24</timebase>
							<ntsc>TRUE</ntsc>
						</rate>
						<start>9344</start>
						<end>9405</end>
						<in>4</in>
						<out>65</out>
						<pproTicksIn>42378336000</pproTicksIn>
						<pproTicksOut>688647960000</pproTicksOut>
						<alphatype>none</alphatype>
						<pixelaspectratio>square</pixelaspectratio>
						<anamorphic>FALSE</anamorphic>
						<file id="file-119">
							<name>TKO_004_PRI_Sh01210.mov</name>
							<pathurl>file://tri-stor01/Projects/TKO/SHOTS/_Refs_Movs_Burnin_FrameCounter/TKO_004_PRI_Sh01210.mov</pathurl>
							<rate>
								<timebase>24</timebase>
								<ntsc>TRUE</ntsc>
							</rate>
							<duration>69</duration>
							<timecode>
								<rate>
									<timebase>24</timebase>
									<ntsc>TRUE</ntsc>
								</rate>
								<string>15:28:36:03</string>
								<frame>1337187</frame>
								<displayformat>NDF</displayformat>
								<reel>
									<name>A0020007</name>
								</reel>
							</timecode>
							<media>
								<video>
									<samplecharacteristics>
										<rate>
											<timebase>24</timebase>
											<ntsc>TRUE</ntsc>
										</rate>
										<width>4096</width>
										<height>2160</height>
										<anamorphic>FALSE</anamorphic>
										<pixelaspectratio>square</pixelaspectratio>
										<fielddominance>none</fielddominance>
									</samplecharacteristics>
								</video>
							</media>
						</file>
						<logginginfo>
							<description></description>
							<scene></scene>
							<shottake></shottake>
							<lognote></lognote>
							<good></good>
							<originalvideofilename></originalvideofilename>
							<originalaudiofilename></originalaudiofilename>
						</logginginfo>
						<colorinfo>
							<lut></lut>
							<lut1></lut1>
							<asc_sop></asc_sop>
							<asc_sat></asc_sat>
							<lut2></lut2>
						</colorinfo>
						<labels>
							<label2>Violet</label2>
						</labels>
					</clipitem>
					<clipitem id="clipitem-122">
						<masterclipid>masterclip-120</masterclipid>
						<name>TKO_004_PRI_Sh01220.mov</name>
						<enabled>TRUE</enabled>
						<duration>103</duration>
						<rate>
							<timebase>24</timebase>
							<ntsc>TRUE</ntsc>
						</rate>
						<start>9405</start>
						<end>9500</end>
						<in>4</in>
						<out>99</out>
						<pproTicksIn>42378336000</pproTicksIn>
						<pproTicksOut>1048863816000</pproTicksOut>
						<alphatype>none</alphatype>
						<pixelaspectratio>square</pixelaspectratio>
						<anamorphic>FALSE</anamorphic>
						<file id="file-120">
							<name>TKO_004_PRI_Sh01220.mov</name>
							<pathurl>file://tri-stor01/Projects/TKO/SHOTS/_Refs_Movs_Burnin_FrameCounter/TKO_004_PRI_Sh01220.mov</pathurl>
							<rate>
								<timebase>24</timebase>
								<ntsc>TRUE</ntsc>
							</rate>
							<duration>103</duration>
							<timecode>
								<rate>
									<timebase>24</timebase>
									<ntsc>TRUE</ntsc>
								</rate>
								<string>15:25:27:02</string>
								<frame>1332650</frame>
								<displayformat>NDF</displayformat>
								<reel>
									<name>B0020006</name>
								</reel>
							</timecode>
							<media>
								<video>
									<samplecharacteristics>
										<rate>
											<timebase>24</timebase>
											<ntsc>TRUE</ntsc>
										</rate>
										<width>4096</width>
										<height>2160</height>
										<anamorphic>FALSE</anamorphic>
										<pixelaspectratio>square</pixelaspectratio>
										<fielddominance>none</fielddominance>
									</samplecharacteristics>
								</video>
							</media>
						</file>
						<logginginfo>
							<description></description>
							<scene></scene>
							<shottake></shottake>
							<lognote></lognote>
							<good></good>
							<originalvideofilename></originalvideofilename>
							<originalaudiofilename></originalaudiofilename>
						</logginginfo>
						<colorinfo>
							<lut></lut>
							<lut1></lut1>
							<asc_sop></asc_sop>
							<asc_sat></asc_sat>
							<lut2></lut2>
						</colorinfo>
						<labels>
							<label2>Violet</label2>
						</labels>
					</clipitem>
					<clipitem id="clipitem-123">
						<masterclipid>masterclip-121</masterclipid>
						<name>TKO_004_PRI_Sh01230.mov</name>
						<enabled>TRUE</enabled>
						<duration>113</duration>
						<rate>
							<timebase>24</timebase>
							<ntsc>TRUE</ntsc>
						</rate>
						<start>9500</start>
						<end>9605</end>
						<in>4</in>
						<out>109</out>
						<pproTicksIn>42378336000</pproTicksIn>
						<pproTicksOut>1154809656000</pproTicksOut>
						<alphatype>none</alphatype>
						<pixelaspectratio>square</pixelaspectratio>
						<anamorphic>FALSE</anamorphic>
						<file id="file-121">
							<name>TKO_004_PRI_Sh01230.mov</name>
							<pathurl>file://tri-stor01/Projects/TKO/SHOTS/_Refs_Movs_Burnin_FrameCounter/TKO_004_PRI_Sh01230.mov</pathurl>
							<rate>
								<timebase>24</timebase>
								<ntsc>TRUE</ntsc>
							</rate>
							<duration>113</duration>
							<timecode>
								<rate>
									<timebase>24</timebase>
									<ntsc>TRUE</ntsc>
								</rate>
								<string>15:52:18:14</string>
								<frame>1371326</frame>
								<displayformat>NDF</displayformat>
								<reel>
									<name>A0020010</name>
								</reel>
							</timecode>
							<media>
								<video>
									<samplecharacteristics>
										<rate>
											<timebase>24</timebase>
											<ntsc>TRUE</ntsc>
										</rate>
										<width>4096</width>
										<height>2160</height>
										<anamorphic>FALSE</anamorphic>
										<pixelaspectratio>square</pixelaspectratio>
										<fielddominance>none</fielddominance>
									</samplecharacteristics>
								</video>
							</media>
						</file>
						<logginginfo>
							<description></description>
							<scene></scene>
							<shottake></shottake>
							<lognote></lognote>
							<good></good>
							<originalvideofilename></originalvideofilename>
							<originalaudiofilename></originalaudiofilename>
						</logginginfo>
						<colorinfo>
							<lut></lut>
							<lut1></lut1>
							<asc_sop></asc_sop>
							<asc_sat></asc_sat>
							<lut2></lut2>
						</colorinfo>
						<labels>
							<label2>Violet</label2>
						</labels>
					</clipitem>
					<clipitem id="clipitem-124">
						<masterclipid>masterclip-122</masterclipid>
						<name>TKO_004_PRI_Sh01240.mov</name>
						<enabled>TRUE</enabled>
						<duration>57</duration>
						<rate>
							<timebase>24</timebase>
							<ntsc>TRUE</ntsc>
						</rate>
						<start>9605</start>
						<end>9654</end>
						<in>4</in>
						<out>53</out>
						<pproTicksIn>42378336000</pproTicksIn>
						<pproTicksOut>561512952000</pproTicksOut>
						<alphatype>none</alphatype>
						<pixelaspectratio>square</pixelaspectratio>
						<anamorphic>FALSE</anamorphic>
						<file id="file-122">
							<name>TKO_004_PRI_Sh01240.mov</name>
							<pathurl>file://tri-stor01/Projects/TKO/SHOTS/_Refs_Movs_Burnin_FrameCounter/TKO_004_PRI_Sh01240.mov</pathurl>
							<rate>
								<timebase>24</timebase>
								<ntsc>TRUE</ntsc>
							</rate>
							<duration>57</duration>
							<timecode>
								<rate>
									<timebase>24</timebase>
									<ntsc>TRUE</ntsc>
								</rate>
								<string>15:49:48:17</string>
								<frame>1367729</frame>
								<displayformat>NDF</displayformat>
								<reel>
									<name>B0020009</name>
								</reel>
							</timecode>
							<media>
								<video>
									<samplecharacteristics>
										<rate>
											<timebase>24</timebase>
											<ntsc>TRUE</ntsc>
										</rate>
										<width>4096</width>
										<height>2160</height>
										<anamorphic>FALSE</anamorphic>
										<pixelaspectratio>square</pixelaspectratio>
										<fielddominance>none</fielddominance>
									</samplecharacteristics>
								</video>
							</media>
						</file>
						<logginginfo>
							<description></description>
							<scene></scene>
							<shottake></shottake>
							<lognote></lognote>
							<good></good>
							<originalvideofilename></originalvideofilename>
							<originalaudiofilename></originalaudiofilename>
						</logginginfo>
						<colorinfo>
							<lut></lut>
							<lut1></lut1>
							<asc_sop></asc_sop>
							<asc_sat></asc_sat>
							<lut2></lut2>
						</colorinfo>
						<labels>
							<label2>Violet</label2>
						</labels>
					</clipitem>
					<clipitem id="clipitem-125">
						<masterclipid>masterclip-123</masterclipid>
						<name>TKO_004_PRI_Sh01250.mov</name>
						<enabled>TRUE</enabled>
						<duration>69</duration>
						<rate>
							<timebase>24</timebase>
							<ntsc>TRUE</ntsc>
						</rate>
						<start>9654</start>
						<end>9715</end>
						<in>4</in>
						<out>65</out>
						<pproTicksIn>42378336000</pproTicksIn>
						<pproTicksOut>688647960000</pproTicksOut>
						<alphatype>none</alphatype>
						<pixelaspectratio>square</pixelaspectratio>
						<anamorphic>FALSE</anamorphic>
						<file id="file-123">
							<name>TKO_004_PRI_Sh01250.mov</name>
							<pathurl>file://tri-stor01/Projects/TKO/SHOTS/_Refs_Movs_Burnin_FrameCounter/TKO_004_PRI_Sh01250.mov</pathurl>
							<rate>
								<timebase>24</timebase>
								<ntsc>TRUE</ntsc>
							</rate>
							<duration>69</duration>
							<timecode>
								<rate>
									<timebase>24</timebase>
									<ntsc>TRUE</ntsc>
								</rate>
								<string>15:28:50:10</string>
								<frame>1337530</frame>
								<displayformat>NDF</displayformat>
								<reel>
									<name>A0020007</name>
								</reel>
							</timecode>
							<media>
								<video>
									<samplecharacteristics>
										<rate>
											<timebase>24</timebase>
											<ntsc>TRUE</ntsc>
										</rate>
										<width>4096</width>
										<height>2160</height>
										<anamorphic>FALSE</anamorphic>
										<pixelaspectratio>square</pixelaspectratio>
										<fielddominance>none</fielddominance>
									</samplecharacteristics>
								</video>
							</media>
						</file>
						<logginginfo>
							<description></description>
							<scene></scene>
							<shottake></shottake>
							<lognote></lognote>
							<good></good>
							<originalvideofilename></originalvideofilename>
							<originalaudiofilename></originalaudiofilename>
						</logginginfo>
						<colorinfo>
							<lut></lut>
							<lut1></lut1>
							<asc_sop></asc_sop>
							<asc_sat></asc_sat>
							<lut2></lut2>
						</colorinfo>
						<labels>
							<label2>Violet</label2>
						</labels>
					</clipitem>
					<clipitem id="clipitem-126">
						<masterclipid>masterclip-124</masterclipid>
						<name>TKO_004_PRI_Sh01260.mov</name>
						<enabled>TRUE</enabled>
						<duration>88</duration>
						<rate>
							<timebase>24</timebase>
							<ntsc>TRUE</ntsc>
						</rate>
						<start>9715</start>
						<end>9795</end>
						<in>4</in>
						<out>84</out>
						<pproTicksIn>42378336000</pproTicksIn>
						<pproTicksOut>889945056000</pproTicksOut>
						<alphatype>none</alphatype>
						<pixelaspectratio>square</pixelaspectratio>
						<anamorphic>FALSE</anamorphic>
						<file id="file-124">
							<name>TKO_004_PRI_Sh01260.mov</name>
							<pathurl>file://tri-stor01/Projects/TKO/SHOTS/_Refs_Movs_Burnin_FrameCounter/TKO_004_PRI_Sh01260.mov</pathurl>
							<rate>
								<timebase>24</timebase>
								<ntsc>TRUE</ntsc>
							</rate>
							<duration>88</duration>
							<timecode>
								<rate>
									<timebase>24</timebase>
									<ntsc>TRUE</ntsc>
								</rate>
								<string>15:50:01:16</string>
								<frame>1368040</frame>
								<displayformat>NDF</displayformat>
								<reel>
									<name>B0020009</name>
								</reel>
							</timecode>
							<media>
								<video>
									<samplecharacteristics>
										<rate>
											<timebase>24</timebase>
											<ntsc>TRUE</ntsc>
										</rate>
										<width>4096</width>
										<height>2160</height>
										<anamorphic>FALSE</anamorphic>
										<pixelaspectratio>square</pixelaspectratio>
										<fielddominance>none</fielddominance>
									</samplecharacteristics>
								</video>
							</media>
						</file>
						<logginginfo>
							<description></description>
							<scene></scene>
							<shottake></shottake>
							<lognote></lognote>
							<good></good>
							<originalvideofilename></originalvideofilename>
							<originalaudiofilename></originalaudiofilename>
						</logginginfo>
						<colorinfo>
							<lut></lut>
							<lut1></lut1>
							<asc_sop></asc_sop>
							<asc_sat></asc_sat>
							<lut2></lut2>
						</colorinfo>
						<labels>
							<label2>Violet</label2>
						</labels>
					</clipitem>
					<clipitem id="clipitem-127">
						<masterclipid>masterclip-125</masterclipid>
						<name>TKO_004_PRI_Sh01270.mov</name>
						<enabled>TRUE</enabled>
						<duration>73</duration>
						<rate>
							<timebase>24</timebase>
							<ntsc>TRUE</ntsc>
						</rate>
						<start>9795</start>
						<end>9860</end>
						<in>4</in>
						<out>69</out>
						<pproTicksIn>42378336000</pproTicksIn>
						<pproTicksOut>731026296000</pproTicksOut>
						<alphatype>none</alphatype>
						<pixelaspectratio>square</pixelaspectratio>
						<anamorphic>FALSE</anamorphic>
						<file id="file-125">
							<name>TKO_004_PRI_Sh01270.mov</name>
							<pathurl>file://tri-stor01/Projects/TKO/SHOTS/_Refs_Movs_Burnin_FrameCounter/TKO_004_PRI_Sh01270.mov</pathurl>
							<rate>
								<timebase>24</timebase>
								<ntsc>TRUE</ntsc>
							</rate>
							<duration>73</duration>
							<timecode>
								<rate>
									<timebase>24</timebase>
									<ntsc>TRUE</ntsc>
								</rate>
								<string>15:52:29:13</string>
								<frame>1371589</frame>
								<displayformat>NDF</displayformat>
								<reel>
									<name>A0020010</name>
								</reel>
							</timecode>
							<media>
								<video>
									<samplecharacteristics>
										<rate>
											<timebase>24</timebase>
											<ntsc>TRUE</ntsc>
										</rate>
										<width>4096</width>
										<height>2160</height>
										<anamorphic>FALSE</anamorphic>
										<pixelaspectratio>square</pixelaspectratio>
										<fielddominance>none</fielddominance>
									</samplecharacteristics>
								</video>
							</media>
						</file>
						<logginginfo>
							<description></description>
							<scene></scene>
							<shottake></shottake>
							<lognote></lognote>
							<good></good>
							<originalvideofilename></originalvideofilename>
							<originalaudiofilename></originalaudiofilename>
						</logginginfo>
						<colorinfo>
							<lut></lut>
							<lut1></lut1>
							<asc_sop></asc_sop>
							<asc_sat></asc_sat>
							<lut2></lut2>
						</colorinfo>
						<labels>
							<label2>Violet</label2>
						</labels>
					</clipitem>
					<clipitem id="clipitem-128">
						<masterclipid>masterclip-126</masterclipid>
						<name>TKO_004_PRI_Sh01280.mov</name>
						<enabled>TRUE</enabled>
						<duration>77</duration>
						<rate>
							<timebase>24</timebase>
							<ntsc>TRUE</ntsc>
						</rate>
						<start>9860</start>
						<end>9929</end>
						<in>4</in>
						<out>73</out>
						<pproTicksIn>42378336000</pproTicksIn>
						<pproTicksOut>773404632000</pproTicksOut>
						<alphatype>none</alphatype>
						<pixelaspectratio>square</pixelaspectratio>
						<anamorphic>FALSE</anamorphic>
						<file id="file-126">
							<name>TKO_004_PRI_Sh01280.mov</name>
							<pathurl>file://tri-stor01/Projects/TKO/SHOTS/_Refs_Movs_Burnin_FrameCounter/TKO_004_PRI_Sh01280.mov</pathurl>
							<rate>
								<timebase>24</timebase>
								<ntsc>TRUE</ntsc>
							</rate>
							<duration>77</duration>
							<timecode>
								<rate>
									<timebase>24</timebase>
									<ntsc>TRUE</ntsc>
								</rate>
								<string>15:52:31:10</string>
								<frame>1371634</frame>
								<displayformat>NDF</displayformat>
								<reel>
									<name>B0020010</name>
								</reel>
							</timecode>
							<media>
								<video>
									<samplecharacteristics>
										<rate>
											<timebase>24</timebase>
											<ntsc>TRUE</ntsc>
										</rate>
										<width>4096</width>
										<height>2160</height>
										<anamorphic>FALSE</anamorphic>
										<pixelaspectratio>square</pixelaspectratio>
										<fielddominance>none</fielddominance>
									</samplecharacteristics>
								</video>
							</media>
						</file>
						<logginginfo>
							<description></description>
							<scene></scene>
							<shottake></shottake>
							<lognote></lognote>
							<good></good>
							<originalvideofilename></originalvideofilename>
							<originalaudiofilename></originalaudiofilename>
						</logginginfo>
						<colorinfo>
							<lut></lut>
							<lut1></lut1>
							<asc_sop></asc_sop>
							<asc_sat></asc_sat>
							<lut2></lut2>
						</colorinfo>
						<labels>
							<label2>Violet</label2>
						</labels>
					</clipitem>
					<clipitem id="clipitem-129">
						<masterclipid>masterclip-127</masterclipid>
						<name>TKO_004_PRI_Sh01290.mov</name>
						<enabled>TRUE</enabled>
						<duration>43</duration>
						<rate>
							<timebase>24</timebase>
							<ntsc>TRUE</ntsc>
						</rate>
						<start>9929</start>
						<end>9964</end>
						<in>4</in>
						<out>39</out>
						<pproTicksIn>42378336000</pproTicksIn>
						<pproTicksOut>413188776000</pproTicksOut>
						<alphatype>none</alphatype>
						<pixelaspectratio>square</pixelaspectratio>
						<anamorphic>FALSE</anamorphic>
						<file id="file-127">
							<name>TKO_004_PRI_Sh01290.mov</name>
							<pathurl>file://tri-stor01/Projects/TKO/SHOTS/_Refs_Movs_Burnin_FrameCounter/TKO_004_PRI_Sh01290.mov</pathurl>
							<rate>
								<timebase>24</timebase>
								<ntsc>TRUE</ntsc>
							</rate>
							<duration>43</duration>
							<timecode>
								<rate>
									<timebase>24</timebase>
									<ntsc>TRUE</ntsc>
								</rate>
								<string>16:49:12:20</string>
								<frame>1453268</frame>
								<displayformat>NDF</displayformat>
								<reel>
									<name>B0020016</name>
								</reel>
							</timecode>
							<media>
								<video>
									<samplecharacteristics>
										<rate>
											<timebase>24</timebase>
											<ntsc>TRUE</ntsc>
										</rate>
										<width>4096</width>
										<height>2160</height>
										<anamorphic>FALSE</anamorphic>
										<pixelaspectratio>square</pixelaspectratio>
										<fielddominance>none</fielddominance>
									</samplecharacteristics>
								</video>
							</media>
						</file>
						<logginginfo>
							<description></description>
							<scene></scene>
							<shottake></shottake>
							<lognote></lognote>
							<good></good>
							<originalvideofilename></originalvideofilename>
							<originalaudiofilename></originalaudiofilename>
						</logginginfo>
						<colorinfo>
							<lut></lut>
							<lut1></lut1>
							<asc_sop></asc_sop>
							<asc_sat></asc_sat>
							<lut2></lut2>
						</colorinfo>
						<labels>
							<label2>Violet</label2>
						</labels>
					</clipitem>
					<clipitem id="clipitem-130">
						<masterclipid>masterclip-128</masterclipid>
						<name>TKO_004_PRI_Sh01300.mov</name>
						<enabled>TRUE</enabled>
						<duration>55</duration>
						<rate>
							<timebase>24</timebase>
							<ntsc>TRUE</ntsc>
						</rate>
						<start>9964</start>
						<end>10011</end>
						<in>4</in>
						<out>51</out>
						<pproTicksIn>42378336000</pproTicksIn>
						<pproTicksOut>540323784000</pproTicksOut>
						<alphatype>none</alphatype>
						<pixelaspectratio>square</pixelaspectratio>
						<anamorphic>FALSE</anamorphic>
						<file id="file-128">
							<name>TKO_004_PRI_Sh01300.mov</name>
							<pathurl>file://tri-stor01/Projects/TKO/SHOTS/_Refs_Movs_Burnin_FrameCounter/TKO_004_PRI_Sh01300.mov</pathurl>
							<rate>
								<timebase>24</timebase>
								<ntsc>TRUE</ntsc>
							</rate>
							<duration>55</duration>
							<timecode>
								<rate>
									<timebase>24</timebase>
									<ntsc>TRUE</ntsc>
								</rate>
								<string>15:52:36:23</string>
								<frame>1371767</frame>
								<displayformat>NDF</displayformat>
								<reel>
									<name>A0020010</name>
								</reel>
							</timecode>
							<media>
								<video>
									<samplecharacteristics>
										<rate>
											<timebase>24</timebase>
											<ntsc>TRUE</ntsc>
										</rate>
										<width>4096</width>
										<height>2160</height>
										<anamorphic>FALSE</anamorphic>
										<pixelaspectratio>square</pixelaspectratio>
										<fielddominance>none</fielddominance>
									</samplecharacteristics>
								</video>
							</media>
						</file>
						<logginginfo>
							<description></description>
							<scene></scene>
							<shottake></shottake>
							<lognote></lognote>
							<good></good>
							<originalvideofilename></originalvideofilename>
							<originalaudiofilename></originalaudiofilename>
						</logginginfo>
						<colorinfo>
							<lut></lut>
							<lut1></lut1>
							<asc_sop></asc_sop>
							<asc_sat></asc_sat>
							<lut2></lut2>
						</colorinfo>
						<labels>
							<label2>Violet</label2>
						</labels>
					</clipitem>
					<clipitem id="clipitem-131">
						<masterclipid>masterclip-129</masterclipid>
						<name>TKO_004_PRI_Sh01310.mov</name>
						<enabled>TRUE</enabled>
						<duration>53</duration>
						<rate>
							<timebase>24</timebase>
							<ntsc>TRUE</ntsc>
						</rate>
						<start>10011</start>
						<end>10056</end>
						<in>4</in>
						<out>49</out>
						<pproTicksIn>42378336000</pproTicksIn>
						<pproTicksOut>519134616000</pproTicksOut>
						<alphatype>none</alphatype>
						<pixelaspectratio>square</pixelaspectratio>
						<anamorphic>FALSE</anamorphic>
						<file id="file-129">
							<name>TKO_004_PRI_Sh01310.mov</name>
							<pathurl>file://tri-stor01/Projects/TKO/SHOTS/_Refs_Movs_Burnin_FrameCounter/TKO_004_PRI_Sh01310.mov</pathurl>
							<rate>
								<timebase>24</timebase>
								<ntsc>TRUE</ntsc>
							</rate>
							<duration>53</duration>
							<timecode>
								<rate>
									<timebase>24</timebase>
									<ntsc>TRUE</ntsc>
								</rate>
								<string>16:49:15:22</string>
								<frame>1453342</frame>
								<displayformat>NDF</displayformat>
								<reel>
									<name>B0020016</name>
								</reel>
							</timecode>
							<media>
								<video>
									<samplecharacteristics>
										<rate>
											<timebase>24</timebase>
											<ntsc>TRUE</ntsc>
										</rate>
										<width>4096</width>
										<height>2160</height>
										<anamorphic>FALSE</anamorphic>
										<pixelaspectratio>square</pixelaspectratio>
										<fielddominance>none</fielddominance>
									</samplecharacteristics>
								</video>
							</media>
						</file>
						<logginginfo>
							<description></description>
							<scene></scene>
							<shottake></shottake>
							<lognote></lognote>
							<good></good>
							<originalvideofilename></originalvideofilename>
							<originalaudiofilename></originalaudiofilename>
						</logginginfo>
						<colorinfo>
							<lut></lut>
							<lut1></lut1>
							<asc_sop></asc_sop>
							<asc_sat></asc_sat>
							<lut2></lut2>
						</colorinfo>
						<labels>
							<label2>Violet</label2>
						</labels>
					</clipitem>
					<clipitem id="clipitem-132">
						<masterclipid>masterclip-130</masterclipid>
						<name>TKO_004_PRI_Sh01320.mov</name>
						<enabled>TRUE</enabled>
						<duration>58</duration>
						<rate>
							<timebase>24</timebase>
							<ntsc>TRUE</ntsc>
						</rate>
						<start>10056</start>
						<end>10106</end>
						<in>4</in>
						<out>54</out>
						<pproTicksIn>42378336000</pproTicksIn>
						<pproTicksOut>572107536000</pproTicksOut>
						<alphatype>none</alphatype>
						<pixelaspectratio>square</pixelaspectratio>
						<anamorphic>FALSE</anamorphic>
						<file id="file-130">
							<name>TKO_004_PRI_Sh01320.mov</name>
							<pathurl>file://tri-stor01/Projects/TKO/SHOTS/_Refs_Movs_Burnin_FrameCounter/TKO_004_PRI_Sh01320.mov</pathurl>
							<rate>
								<timebase>24</timebase>
								<ntsc>TRUE</ntsc>
							</rate>
							<duration>58</duration>
							<timecode>
								<rate>
									<timebase>24</timebase>
									<ntsc>TRUE</ntsc>
								</rate>
								<string>16:49:17:01</string>
								<frame>1453369</frame>
								<displayformat>NDF</displayformat>
								<reel>
									<name>A0020017</name>
								</reel>
							</timecode>
							<media>
								<video>
									<samplecharacteristics>
										<rate>
											<timebase>24</timebase>
											<ntsc>TRUE</ntsc>
										</rate>
										<width>4096</width>
										<height>2160</height>
										<anamorphic>FALSE</anamorphic>
										<pixelaspectratio>square</pixelaspectratio>
										<fielddominance>none</fielddominance>
									</samplecharacteristics>
								</video>
							</media>
						</file>
						<logginginfo>
							<description></description>
							<scene></scene>
							<shottake></shottake>
							<lognote></lognote>
							<good></good>
							<originalvideofilename></originalvideofilename>
							<originalaudiofilename></originalaudiofilename>
						</logginginfo>
						<colorinfo>
							<lut></lut>
							<lut1></lut1>
							<asc_sop></asc_sop>
							<asc_sat></asc_sat>
							<lut2></lut2>
						</colorinfo>
						<labels>
							<label2>Violet</label2>
						</labels>
					</clipitem>
					<clipitem id="clipitem-133">
						<masterclipid>masterclip-131</masterclipid>
						<name>TKO_004_PRI_Sh01330.mov</name>
						<enabled>TRUE</enabled>
						<duration>50</duration>
						<rate>
							<timebase>24</timebase>
							<ntsc>TRUE</ntsc>
						</rate>
						<start>10106</start>
						<end>10148</end>
						<in>4</in>
						<out>46</out>
						<pproTicksIn>42378336000</pproTicksIn>
						<pproTicksOut>487350864000</pproTicksOut>
						<alphatype>none</alphatype>
						<pixelaspectratio>square</pixelaspectratio>
						<anamorphic>FALSE</anamorphic>
						<file id="file-131">
							<name>TKO_004_PRI_Sh01330.mov</name>
							<pathurl>file://tri-stor01/Projects/TKO/SHOTS/_Refs_Movs_Burnin_FrameCounter/TKO_004_PRI_Sh01330.mov</pathurl>
							<rate>
								<timebase>24</timebase>
								<ntsc>TRUE</ntsc>
							</rate>
							<duration>50</duration>
							<timecode>
								<rate>
									<timebase>24</timebase>
									<ntsc>TRUE</ntsc>
								</rate>
								<string>15:50:19:21</string>
								<frame>1368477</frame>
								<displayformat>NDF</displayformat>
								<reel>
									<name>A0020009</name>
								</reel>
							</timecode>
							<media>
								<video>
									<samplecharacteristics>
										<rate>
											<timebase>24</timebase>
											<ntsc>TRUE</ntsc>
										</rate>
										<width>4096</width>
										<height>2160</height>
										<anamorphic>FALSE</anamorphic>
										<pixelaspectratio>square</pixelaspectratio>
										<fielddominance>none</fielddominance>
									</samplecharacteristics>
								</video>
							</media>
						</file>
						<logginginfo>
							<description></description>
							<scene></scene>
							<shottake></shottake>
							<lognote></lognote>
							<good></good>
							<originalvideofilename></originalvideofilename>
							<originalaudiofilename></originalaudiofilename>
						</logginginfo>
						<colorinfo>
							<lut></lut>
							<lut1></lut1>
							<asc_sop></asc_sop>
							<asc_sat></asc_sat>
							<lut2></lut2>
						</colorinfo>
						<labels>
							<label2>Violet</label2>
						</labels>
					</clipitem>
					<clipitem id="clipitem-134">
						<masterclipid>masterclip-132</masterclipid>
						<name>TKO_004_PRI_Sh01340.mov</name>
						<enabled>TRUE</enabled>
						<duration>189</duration>
						<rate>
							<timebase>24</timebase>
							<ntsc>TRUE</ntsc>
						</rate>
						<start>10148</start>
						<end>10329</end>
						<in>4</in>
						<out>185</out>
						<pproTicksIn>42378336000</pproTicksIn>
						<pproTicksOut>1959998040000</pproTicksOut>
						<alphatype>none</alphatype>
						<pixelaspectratio>square</pixelaspectratio>
						<anamorphic>FALSE</anamorphic>
						<file id="file-132">
							<name>TKO_004_PRI_Sh01340.mov</name>
							<pathurl>file://tri-stor01/Projects/TKO/SHOTS/_Refs_Movs_Burnin_FrameCounter/TKO_004_PRI_Sh01340.mov</pathurl>
							<rate>
								<timebase>24</timebase>
								<ntsc>TRUE</ntsc>
							</rate>
							<duration>189</duration>
							<timecode>
								<rate>
									<timebase>24</timebase>
									<ntsc>TRUE</ntsc>
								</rate>
								<string>15:23:02:20</string>
								<frame>1329188</frame>
								<displayformat>NDF</displayformat>
								<reel>
									<name>B0020005</name>
								</reel>
							</timecode>
							<media>
								<video>
									<samplecharacteristics>
										<rate>
											<timebase>24</timebase>
											<ntsc>TRUE</ntsc>
										</rate>
										<width>4096</width>
										<height>2160</height>
										<anamorphic>FALSE</anamorphic>
										<pixelaspectratio>square</pixelaspectratio>
										<fielddominance>none</fielddominance>
									</samplecharacteristics>
								</video>
							</media>
						</file>
						<logginginfo>
							<description></description>
							<scene></scene>
							<shottake></shottake>
							<lognote></lognote>
							<good></good>
							<originalvideofilename></originalvideofilename>
							<originalaudiofilename></originalaudiofilename>
						</logginginfo>
						<colorinfo>
							<lut></lut>
							<lut1></lut1>
							<asc_sop></asc_sop>
							<asc_sat></asc_sat>
							<lut2></lut2>
						</colorinfo>
						<labels>
							<label2>Violet</label2>
						</labels>
					</clipitem>
					<clipitem id="clipitem-135">
						<masterclipid>masterclip-133</masterclipid>
						<name>TKO_004_PRI_Sh01350.mov</name>
						<enabled>TRUE</enabled>
						<duration>60</duration>
						<rate>
							<timebase>24</timebase>
							<ntsc>TRUE</ntsc>
						</rate>
						<start>10329</start>
						<end>10381</end>
						<in>4</in>
						<out>56</out>
						<pproTicksIn>42378336000</pproTicksIn>
						<pproTicksOut>593296704000</pproTicksOut>
						<alphatype>none</alphatype>
						<pixelaspectratio>square</pixelaspectratio>
						<anamorphic>FALSE</anamorphic>
						<file id="file-133">
							<name>TKO_004_PRI_Sh01350.mov</name>
							<pathurl>file://tri-stor01/Projects/TKO/SHOTS/_Refs_Movs_Burnin_FrameCounter/TKO_004_PRI_Sh01350.mov</pathurl>
							<rate>
								<timebase>24</timebase>
								<ntsc>TRUE</ntsc>
							</rate>
							<duration>60</duration>
							<timecode>
								<rate>
									<timebase>24</timebase>
									<ntsc>TRUE</ntsc>
								</rate>
								<string>15:50:28:20</string>
								<frame>1368692</frame>
								<displayformat>NDF</displayformat>
								<reel>
									<name>A0020009</name>
								</reel>
							</timecode>
							<media>
								<video>
									<samplecharacteristics>
										<rate>
											<timebase>24</timebase>
											<ntsc>TRUE</ntsc>
										</rate>
										<width>4096</width>
										<height>2160</height>
										<anamorphic>FALSE</anamorphic>
										<pixelaspectratio>square</pixelaspectratio>
										<fielddominance>none</fielddominance>
									</samplecharacteristics>
								</video>
							</media>
						</file>
						<logginginfo>
							<description></description>
							<scene></scene>
							<shottake></shottake>
							<lognote></lognote>
							<good></good>
							<originalvideofilename></originalvideofilename>
							<originalaudiofilename></originalaudiofilename>
						</logginginfo>
						<colorinfo>
							<lut></lut>
							<lut1></lut1>
							<asc_sop></asc_sop>
							<asc_sat></asc_sat>
							<lut2></lut2>
						</colorinfo>
						<labels>
							<label2>Violet</label2>
						</labels>
					</clipitem>
					<clipitem id="clipitem-136">
						<masterclipid>masterclip-134</masterclipid>
						<name>TKO_004_PRI_Sh01360.mov</name>
						<enabled>TRUE</enabled>
						<duration>83</duration>
						<rate>
							<timebase>24</timebase>
							<ntsc>TRUE</ntsc>
						</rate>
						<start>10381</start>
						<end>10456</end>
						<in>4</in>
						<out>79</out>
						<pproTicksIn>42378336000</pproTicksIn>
						<pproTicksOut>836972136000</pproTicksOut>
						<alphatype>none</alphatype>
						<pixelaspectratio>square</pixelaspectratio>
						<anamorphic>FALSE</anamorphic>
						<file id="file-134">
							<name>TKO_004_PRI_Sh01360.mov</name>
							<pathurl>file://tri-stor01/Projects/TKO/SHOTS/_Refs_Movs_Burnin_FrameCounter/TKO_004_PRI_Sh01360.mov</pathurl>
							<rate>
								<timebase>24</timebase>
								<ntsc>TRUE</ntsc>
							</rate>
							<duration>83</duration>
							<timecode>
								<rate>
									<timebase>24</timebase>
									<ntsc>TRUE</ntsc>
								</rate>
								<string>16:12:28:11</string>
								<frame>1400363</frame>
								<displayformat>NDF</displayformat>
								<reel>
									<name>A0020012</name>
								</reel>
							</timecode>
							<media>
								<video>
									<samplecharacteristics>
										<rate>
											<timebase>24</timebase>
											<ntsc>TRUE</ntsc>
										</rate>
										<width>4096</width>
										<height>2160</height>
										<anamorphic>FALSE</anamorphic>
										<pixelaspectratio>square</pixelaspectratio>
										<fielddominance>none</fielddominance>
									</samplecharacteristics>
								</video>
							</media>
						</file>
						<logginginfo>
							<description></description>
							<scene></scene>
							<shottake></shottake>
							<lognote></lognote>
							<good></good>
							<originalvideofilename></originalvideofilename>
							<originalaudiofilename></originalaudiofilename>
						</logginginfo>
						<colorinfo>
							<lut></lut>
							<lut1></lut1>
							<asc_sop></asc_sop>
							<asc_sat></asc_sat>
							<lut2></lut2>
						</colorinfo>
						<labels>
							<label2>Violet</label2>
						</labels>
					</clipitem>
					<clipitem id="clipitem-137">
						<masterclipid>masterclip-135</masterclipid>
						<name>TKO_004_PRI_Sh01370.mov</name>
						<enabled>TRUE</enabled>
						<duration>121</duration>
						<rate>
							<timebase>24</timebase>
							<ntsc>TRUE</ntsc>
						</rate>
						<start>10456</start>
						<end>10569</end>
						<in>4</in>
						<out>117</out>
						<pproTicksIn>42378336000</pproTicksIn>
						<pproTicksOut>1239566328000</pproTicksOut>
						<alphatype>none</alphatype>
						<pixelaspectratio>square</pixelaspectratio>
						<anamorphic>FALSE</anamorphic>
						<file id="file-135">
							<name>TKO_004_PRI_Sh01370.mov</name>
							<pathurl>file://tri-stor01/Projects/TKO/SHOTS/_Refs_Movs_Burnin_FrameCounter/TKO_004_PRI_Sh01370.mov</pathurl>
							<rate>
								<timebase>24</timebase>
								<ntsc>TRUE</ntsc>
							</rate>
							<duration>121</duration>
							<timecode>
								<rate>
									<timebase>24</timebase>
									<ntsc>TRUE</ntsc>
								</rate>
								<string>15:50:36:19</string>
								<frame>1368883</frame>
								<displayformat>NDF</displayformat>
								<reel>
									<name>A0020009</name>
								</reel>
							</timecode>
							<media>
								<video>
									<samplecharacteristics>
										<rate>
											<timebase>24</timebase>
											<ntsc>TRUE</ntsc>
										</rate>
										<width>4096</width>
										<height>2160</height>
										<anamorphic>FALSE</anamorphic>
										<pixelaspectratio>square</pixelaspectratio>
										<fielddominance>none</fielddominance>
									</samplecharacteristics>
								</video>
							</media>
						</file>
						<logginginfo>
							<description></description>
							<scene></scene>
							<shottake></shottake>
							<lognote></lognote>
							<good></good>
							<originalvideofilename></originalvideofilename>
							<originalaudiofilename></originalaudiofilename>
						</logginginfo>
						<colorinfo>
							<lut></lut>
							<lut1></lut1>
							<asc_sop></asc_sop>
							<asc_sat></asc_sat>
							<lut2></lut2>
						</colorinfo>
						<labels>
							<label2>Violet</label2>
						</labels>
					</clipitem>
					<clipitem id="clipitem-138">
						<masterclipid>masterclip-136</masterclipid>
						<name>TKO_004_PRI_Sh01380.mov</name>
						<enabled>TRUE</enabled>
						<duration>86</duration>
						<rate>
							<timebase>24</timebase>
							<ntsc>TRUE</ntsc>
						</rate>
						<start>10569</start>
						<end>10647</end>
						<in>4</in>
						<out>82</out>
						<pproTicksIn>42378336000</pproTicksIn>
						<pproTicksOut>868755888000</pproTicksOut>
						<alphatype>none</alphatype>
						<pixelaspectratio>square</pixelaspectratio>
						<anamorphic>FALSE</anamorphic>
						<file id="file-136">
							<name>TKO_004_PRI_Sh01380.mov</name>
							<pathurl>file://tri-stor01/Projects/TKO/SHOTS/_Refs_Movs_Burnin_FrameCounter/TKO_004_PRI_Sh01380.mov</pathurl>
							<rate>
								<timebase>24</timebase>
								<ntsc>TRUE</ntsc>
							</rate>
							<duration>86</duration>
							<timecode>
								<rate>
									<timebase>24</timebase>
									<ntsc>TRUE</ntsc>
								</rate>
								<string>15:23:16:03</string>
								<frame>1329507</frame>
								<displayformat>NDF</displayformat>
								<reel>
									<name>B0020005</name>
								</reel>
							</timecode>
							<media>
								<video>
									<samplecharacteristics>
										<rate>
											<timebase>24</timebase>
											<ntsc>TRUE</ntsc>
										</rate>
										<width>4096</width>
										<height>2160</height>
										<anamorphic>FALSE</anamorphic>
										<pixelaspectratio>square</pixelaspectratio>
										<fielddominance>none</fielddominance>
									</samplecharacteristics>
								</video>
							</media>
						</file>
						<logginginfo>
							<description></description>
							<scene></scene>
							<shottake></shottake>
							<lognote></lognote>
							<good></good>
							<originalvideofilename></originalvideofilename>
							<originalaudiofilename></originalaudiofilename>
						</logginginfo>
						<colorinfo>
							<lut></lut>
							<lut1></lut1>
							<asc_sop></asc_sop>
							<asc_sat></asc_sat>
							<lut2></lut2>
						</colorinfo>
						<labels>
							<label2>Violet</label2>
						</labels>
					</clipitem>
					<clipitem id="clipitem-139">
						<masterclipid>masterclip-137</masterclipid>
						<name>TKO_004_PRI_Sh01390.mov</name>
						<enabled>TRUE</enabled>
						<duration>151</duration>
						<rate>
							<timebase>24</timebase>
							<ntsc>TRUE</ntsc>
						</rate>
						<start>10647</start>
						<end>10790</end>
						<in>4</in>
						<out>147</out>
						<pproTicksIn>42378336000</pproTicksIn>
						<pproTicksOut>1557403848000</pproTicksOut>
						<alphatype>none</alphatype>
						<pixelaspectratio>square</pixelaspectratio>
						<anamorphic>FALSE</anamorphic>
						<file id="file-137">
							<name>TKO_004_PRI_Sh01390.mov</name>
							<pathurl>file://tri-stor01/Projects/TKO/SHOTS/_Refs_Movs_Burnin_FrameCounter/TKO_004_PRI_Sh01390.mov</pathurl>
							<rate>
								<timebase>24</timebase>
								<ntsc>TRUE</ntsc>
							</rate>
							<duration>151</duration>
							<timecode>
								<rate>
									<timebase>24</timebase>
									<ntsc>TRUE</ntsc>
								</rate>
								<string>00:00:00:00</string>
								<frame>0</frame>
								<displayformat>NDF</displayformat>
							</timecode>
							<media>
								<video>
									<samplecharacteristics>
										<rate>
											<timebase>24</timebase>
											<ntsc>TRUE</ntsc>
										</rate>
										<width>4096</width>
										<height>2160</height>
										<anamorphic>FALSE</anamorphic>
										<pixelaspectratio>square</pixelaspectratio>
										<fielddominance>none</fielddominance>
									</samplecharacteristics>
								</video>
							</media>
						</file>
						<logginginfo>
							<description></description>
							<scene></scene>
							<shottake></shottake>
							<lognote></lognote>
							<good></good>
							<originalvideofilename></originalvideofilename>
							<originalaudiofilename></originalaudiofilename>
						</logginginfo>
						<colorinfo>
							<lut></lut>
							<lut1></lut1>
							<asc_sop></asc_sop>
							<asc_sat></asc_sat>
							<lut2></lut2>
						</colorinfo>
						<labels>
							<label2>Violet</label2>
						</labels>
					</clipitem>
					<clipitem id="clipitem-140">
						<masterclipid>masterclip-138</masterclipid>
						<name>TKO_004_PRI_Sh01400.mov</name>
						<enabled>TRUE</enabled>
						<duration>78</duration>
						<rate>
							<timebase>24</timebase>
							<ntsc>TRUE</ntsc>
						</rate>
						<start>10790</start>
						<end>10860</end>
						<in>4</in>
						<out>74</out>
						<pproTicksIn>42378336000</pproTicksIn>
						<pproTicksOut>783999216000</pproTicksOut>
						<alphatype>none</alphatype>
						<pixelaspectratio>square</pixelaspectratio>
						<anamorphic>FALSE</anamorphic>
						<file id="file-138">
							<name>TKO_004_PRI_Sh01400.mov</name>
							<pathurl>file://tri-stor01/Projects/TKO/SHOTS/_Refs_Movs_Burnin_FrameCounter/TKO_004_PRI_Sh01400.mov</pathurl>
							<rate>
								<timebase>24</timebase>
								<ntsc>TRUE</ntsc>
							</rate>
							<duration>78</duration>
							<timecode>
								<rate>
									<timebase>24</timebase>
									<ntsc>TRUE</ntsc>
								</rate>
								<string>00:00:00:00</string>
								<frame>0</frame>
								<displayformat>NDF</displayformat>
							</timecode>
							<media>
								<video>
									<samplecharacteristics>
										<rate>
											<timebase>24</timebase>
											<ntsc>TRUE</ntsc>
										</rate>
										<width>4096</width>
										<height>2160</height>
										<anamorphic>FALSE</anamorphic>
										<pixelaspectratio>square</pixelaspectratio>
										<fielddominance>none</fielddominance>
									</samplecharacteristics>
								</video>
							</media>
						</file>
						<logginginfo>
							<description></description>
							<scene></scene>
							<shottake></shottake>
							<lognote></lognote>
							<good></good>
							<originalvideofilename></originalvideofilename>
							<originalaudiofilename></originalaudiofilename>
						</logginginfo>
						<colorinfo>
							<lut></lut>
							<lut1></lut1>
							<asc_sop></asc_sop>
							<asc_sat></asc_sat>
							<lut2></lut2>
						</colorinfo>
						<labels>
							<label2>Violet</label2>
						</labels>
					</clipitem>
					<clipitem id="clipitem-141">
						<masterclipid>masterclip-139</masterclipid>
						<name>TKO_004_PRI_Sh01410.mov</name>
						<enabled>TRUE</enabled>
						<duration>644</duration>
						<rate>
							<timebase>24</timebase>
							<ntsc>TRUE</ntsc>
						</rate>
						<start>10860</start>
						<end>11496</end>
						<in>4</in>
						<out>640</out>
						<pproTicksIn>42378336000</pproTicksIn>
						<pproTicksOut>6780533760000</pproTicksOut>
						<alphatype>none</alphatype>
						<pixelaspectratio>square</pixelaspectratio>
						<anamorphic>FALSE</anamorphic>
						<file id="file-139">
							<name>TKO_004_PRI_Sh01410.mov</name>
							<pathurl>file://tri-stor01/Projects/TKO/SHOTS/_Refs_Movs_Burnin_FrameCounter/TKO_004_PRI_Sh01410.mov</pathurl>
							<rate>
								<timebase>24</timebase>
								<ntsc>TRUE</ntsc>
							</rate>
							<duration>644</duration>
							<timecode>
								<rate>
									<timebase>24</timebase>
									<ntsc>TRUE</ntsc>
								</rate>
								<string>21:12:30:18</string>
								<frame>1832418</frame>
								<displayformat>NDF</displayformat>
								<reel>
									<name>A0370006</name>
								</reel>
							</timecode>
							<media>
								<video>
									<samplecharacteristics>
										<rate>
											<timebase>24</timebase>
											<ntsc>TRUE</ntsc>
										</rate>
										<width>4096</width>
										<height>2160</height>
										<anamorphic>FALSE</anamorphic>
										<pixelaspectratio>square</pixelaspectratio>
										<fielddominance>none</fielddominance>
									</samplecharacteristics>
								</video>
							</media>
						</file>
						<logginginfo>
							<description></description>
							<scene></scene>
							<shottake></shottake>
							<lognote></lognote>
							<good></good>
							<originalvideofilename></originalvideofilename>
							<originalaudiofilename></originalaudiofilename>
						</logginginfo>
						<colorinfo>
							<lut></lut>
							<lut1></lut1>
							<asc_sop></asc_sop>
							<asc_sat></asc_sat>
							<lut2></lut2>
						</colorinfo>
						<labels>
							<label2>Violet</label2>
						</labels>
					</clipitem>
					<clipitem id="clipitem-142">
						<masterclipid>masterclip-140</masterclipid>
						<name>TKO_004_PRI_Sh01420.mov</name>
						<enabled>TRUE</enabled>
						<duration>106</duration>
						<rate>
							<timebase>24</timebase>
							<ntsc>TRUE</ntsc>
						</rate>
						<start>11496</start>
						<end>11594</end>
						<in>4</in>
						<out>102</out>
						<pproTicksIn>42378336000</pproTicksIn>
						<pproTicksOut>1080647568000</pproTicksOut>
						<alphatype>none</alphatype>
						<pixelaspectratio>square</pixelaspectratio>
						<anamorphic>FALSE</anamorphic>
						<file id="file-140">
							<name>TKO_004_PRI_Sh01420.mov</name>
							<pathurl>file://tri-stor01/Projects/TKO/SHOTS/_Refs_Movs_Burnin_FrameCounter/TKO_004_PRI_Sh01420.mov</pathurl>
							<rate>
								<timebase>24</timebase>
								<ntsc>TRUE</ntsc>
							</rate>
							<duration>106</duration>
							<timecode>
								<rate>
									<timebase>24</timebase>
									<ntsc>TRUE</ntsc>
								</rate>
								<string>21:25:25:23</string>
								<frame>1851023</frame>
								<displayformat>NDF</displayformat>
								<reel>
									<name>A0370008</name>
								</reel>
							</timecode>
							<media>
								<video>
									<samplecharacteristics>
										<rate>
											<timebase>24</timebase>
											<ntsc>TRUE</ntsc>
										</rate>
										<width>4096</width>
										<height>2160</height>
										<anamorphic>FALSE</anamorphic>
										<pixelaspectratio>square</pixelaspectratio>
										<fielddominance>none</fielddominance>
									</samplecharacteristics>
								</video>
							</media>
						</file>
						<logginginfo>
							<description></description>
							<scene></scene>
							<shottake></shottake>
							<lognote></lognote>
							<good></good>
							<originalvideofilename></originalvideofilename>
							<originalaudiofilename></originalaudiofilename>
						</logginginfo>
						<colorinfo>
							<lut></lut>
							<lut1></lut1>
							<asc_sop></asc_sop>
							<asc_sat></asc_sat>
							<lut2></lut2>
						</colorinfo>
						<labels>
							<label2>Violet</label2>
						</labels>
					</clipitem>
					<clipitem id="clipitem-143">
						<masterclipid>masterclip-141</masterclipid>
						<name>TKO_004_PRI_Sh01430.mov</name>
						<enabled>TRUE</enabled>
						<duration>94</duration>
						<rate>
							<timebase>24</timebase>
							<ntsc>TRUE</ntsc>
						</rate>
						<start>11594</start>
						<end>11680</end>
						<in>4</in>
						<out>90</out>
						<pproTicksIn>42378336000</pproTicksIn>
						<pproTicksOut>953512560000</pproTicksOut>
						<alphatype>none</alphatype>
						<pixelaspectratio>square</pixelaspectratio>
						<anamorphic>FALSE</anamorphic>
						<file id="file-141">
							<name>TKO_004_PRI_Sh01430.mov</name>
							<pathurl>file://tri-stor01/Projects/TKO/SHOTS/_Refs_Movs_Burnin_FrameCounter/TKO_004_PRI_Sh01430.mov</pathurl>
							<rate>
								<timebase>24</timebase>
								<ntsc>TRUE</ntsc>
							</rate>
							<duration>94</duration>
							<timecode>
								<rate>
									<timebase>24</timebase>
									<ntsc>TRUE</ntsc>
								</rate>
								<string>20:32:46:00</string>
								<frame>1775184</frame>
								<displayformat>NDF</displayformat>
								<reel>
									<name>B0310001</name>
								</reel>
							</timecode>
							<media>
								<video>
									<samplecharacteristics>
										<rate>
											<timebase>24</timebase>
											<ntsc>TRUE</ntsc>
										</rate>
										<width>4096</width>
										<height>2160</height>
										<anamorphic>FALSE</anamorphic>
										<pixelaspectratio>square</pixelaspectratio>
										<fielddominance>none</fielddominance>
									</samplecharacteristics>
								</video>
							</media>
						</file>
						<logginginfo>
							<description></description>
							<scene></scene>
							<shottake></shottake>
							<lognote></lognote>
							<good></good>
							<originalvideofilename></originalvideofilename>
							<originalaudiofilename></originalaudiofilename>
						</logginginfo>
						<colorinfo>
							<lut></lut>
							<lut1></lut1>
							<asc_sop></asc_sop>
							<asc_sat></asc_sat>
							<lut2></lut2>
						</colorinfo>
						<labels>
							<label2>Violet</label2>
						</labels>
					</clipitem>
					<clipitem id="clipitem-144">
						<masterclipid>masterclip-142</masterclipid>
						<name>TKO_004_PRI_Sh01440.mov</name>
						<enabled>TRUE</enabled>
						<duration>99</duration>
						<rate>
							<timebase>24</timebase>
							<ntsc>TRUE</ntsc>
						</rate>
						<start>11680</start>
						<end>11771</end>
						<in>4</in>
						<out>95</out>
						<pproTicksIn>42378336000</pproTicksIn>
						<pproTicksOut>1006485480000</pproTicksOut>
						<alphatype>none</alphatype>
						<pixelaspectratio>square</pixelaspectratio>
						<anamorphic>FALSE</anamorphic>
						<file id="file-142">
							<name>TKO_004_PRI_Sh01440.mov</name>
							<pathurl>file://tri-stor01/Projects/TKO/SHOTS/_Refs_Movs_Burnin_FrameCounter/TKO_004_PRI_Sh01440.mov</pathurl>
							<rate>
								<timebase>24</timebase>
								<ntsc>TRUE</ntsc>
							</rate>
							<duration>99</duration>
							<timecode>
								<rate>
									<timebase>24</timebase>
									<ntsc>TRUE</ntsc>
								</rate>
								<string>21:25:28:20</string>
								<frame>1851092</frame>
								<displayformat>NDF</displayformat>
								<reel>
									<name>B0310004</name>
								</reel>
							</timecode>
							<media>
								<video>
									<samplecharacteristics>
										<rate>
											<timebase>24</timebase>
											<ntsc>TRUE</ntsc>
										</rate>
										<width>4096</width>
										<height>2160</height>
										<anamorphic>FALSE</anamorphic>
										<pixelaspectratio>square</pixelaspectratio>
										<fielddominance>none</fielddominance>
									</samplecharacteristics>
								</video>
							</media>
						</file>
						<logginginfo>
							<description></description>
							<scene></scene>
							<shottake></shottake>
							<lognote></lognote>
							<good></good>
							<originalvideofilename></originalvideofilename>
							<originalaudiofilename></originalaudiofilename>
						</logginginfo>
						<colorinfo>
							<lut></lut>
							<lut1></lut1>
							<asc_sop></asc_sop>
							<asc_sat></asc_sat>
							<lut2></lut2>
						</colorinfo>
						<labels>
							<label2>Violet</label2>
						</labels>
					</clipitem>
					<clipitem id="clipitem-145">
						<masterclipid>masterclip-143</masterclipid>
						<name>TKO_004_PRI_Sh01450_MERGED.mov</name>
						<enabled>TRUE</enabled>
						<duration>183</duration>
						<rate>
							<timebase>24</timebase>
							<ntsc>TRUE</ntsc>
						</rate>
						<start>11771</start>
						<end>11946</end>
						<in>4</in>
						<out>179</out>
						<pproTicksIn>42378336000</pproTicksIn>
						<pproTicksOut>1896430536000</pproTicksOut>
						<alphatype>none</alphatype>
						<pixelaspectratio>square</pixelaspectratio>
						<anamorphic>FALSE</anamorphic>
						<file id="file-143">
							<name>TKO_004_PRI_Sh01450_MERGED.mov</name>
							<pathurl>file://tri-stor01/Projects/TKO/SHOTS/_Refs_Movs_Burnin_FrameCounter/TKO_004_PRI_Sh01450_MERGED.mov</pathurl>
							<rate>
								<timebase>24</timebase>
								<ntsc>TRUE</ntsc>
							</rate>
							<duration>183</duration>
							<timecode>
								<rate>
									<timebase>24</timebase>
									<ntsc>TRUE</ntsc>
								</rate>
								<string>00:00:00:00</string>
								<frame>0</frame>
								<displayformat>NDF</displayformat>
							</timecode>
							<media>
								<video>
									<samplecharacteristics>
										<rate>
											<timebase>24</timebase>
											<ntsc>TRUE</ntsc>
										</rate>
										<width>1920</width>
										<height>1080</height>
										<anamorphic>FALSE</anamorphic>
										<pixelaspectratio>square</pixelaspectratio>
										<fielddominance>none</fielddominance>
									</samplecharacteristics>
								</video>
								<audio>
									<samplecharacteristics>
										<depth>16</depth>
										<samplerate>48000</samplerate>
									</samplecharacteristics>
									<channelcount>2</channelcount>
								</audio>
							</media>
						</file>
						<logginginfo>
							<description></description>
							<scene></scene>
							<shottake></shottake>
							<lognote></lognote>
							<good></good>
							<originalvideofilename></originalvideofilename>
							<originalaudiofilename></originalaudiofilename>
						</logginginfo>
						<colorinfo>
							<lut></lut>
							<lut1></lut1>
							<asc_sop></asc_sop>
							<asc_sat></asc_sat>
							<lut2></lut2>
						</colorinfo>
						<labels>
							<label2>Iris</label2>
						</labels>
					</clipitem>
					<clipitem id="clipitem-146">
						<masterclipid>masterclip-144</masterclipid>
						<name>TKO_004_PRI_Sh01460.mov</name>
						<enabled>TRUE</enabled>
						<duration>149</duration>
						<rate>
							<timebase>24</timebase>
							<ntsc>TRUE</ntsc>
						</rate>
						<start>11946</start>
						<end>12087</end>
						<in>4</in>
						<out>145</out>
						<pproTicksIn>42378336000</pproTicksIn>
						<pproTicksOut>1536214680000</pproTicksOut>
						<alphatype>none</alphatype>
						<pixelaspectratio>square</pixelaspectratio>
						<anamorphic>FALSE</anamorphic>
						<file id="file-144">
							<name>TKO_004_PRI_Sh01460.mov</name>
							<pathurl>file://tri-stor01/Projects/TKO/SHOTS/_Refs_Movs_Burnin_FrameCounter/TKO_004_PRI_Sh01460.mov</pathurl>
							<rate>
								<timebase>24</timebase>
								<ntsc>TRUE</ntsc>
							</rate>
							<duration>149</duration>
							<timecode>
								<rate>
									<timebase>24</timebase>
									<ntsc>TRUE</ntsc>
								</rate>
								<string>21:25:38:02</string>
								<frame>1851314</frame>
								<displayformat>NDF</displayformat>
								<reel>
									<name>A0370008</name>
								</reel>
							</timecode>
							<media>
								<video>
									<samplecharacteristics>
										<rate>
											<timebase>24</timebase>
											<ntsc>TRUE</ntsc>
										</rate>
										<width>4096</width>
										<height>2160</height>
										<anamorphic>FALSE</anamorphic>
										<pixelaspectratio>square</pixelaspectratio>
										<fielddominance>none</fielddominance>
									</samplecharacteristics>
								</video>
							</media>
						</file>
						<logginginfo>
							<description></description>
							<scene></scene>
							<shottake></shottake>
							<lognote></lognote>
							<good></good>
							<originalvideofilename></originalvideofilename>
							<originalaudiofilename></originalaudiofilename>
						</logginginfo>
						<colorinfo>
							<lut></lut>
							<lut1></lut1>
							<asc_sop></asc_sop>
							<asc_sat></asc_sat>
							<lut2></lut2>
						</colorinfo>
						<labels>
							<label2>Violet</label2>
						</labels>
					</clipitem>
					<clipitem id="clipitem-147">
						<masterclipid>masterclip-145</masterclipid>
						<name>TKO_004_PRI_Sh01470.mov</name>
						<enabled>TRUE</enabled>
						<duration>132</duration>
						<rate>
							<timebase>24</timebase>
							<ntsc>TRUE</ntsc>
						</rate>
						<start>12087</start>
						<end>12211</end>
						<in>4</in>
						<out>128</out>
						<pproTicksIn>42378336000</pproTicksIn>
						<pproTicksOut>1356106752000</pproTicksOut>
						<alphatype>none</alphatype>
						<pixelaspectratio>square</pixelaspectratio>
						<anamorphic>FALSE</anamorphic>
						<file id="file-145">
							<name>TKO_004_PRI_Sh01470.mov</name>
							<pathurl>file://tri-stor01/Projects/TKO/SHOTS/_Refs_Movs_Burnin_FrameCounter/TKO_004_PRI_Sh01470.mov</pathurl>
							<rate>
								<timebase>24</timebase>
								<ntsc>TRUE</ntsc>
							</rate>
							<duration>132</duration>
							<timecode>
								<rate>
									<timebase>24</timebase>
									<ntsc>TRUE</ntsc>
								</rate>
								<string>21:25:43:23</string>
								<frame>1851455</frame>
								<displayformat>NDF</displayformat>
								<reel>
									<name>B0310004</name>
								</reel>
							</timecode>
							<media>
								<video>
									<samplecharacteristics>
										<rate>
											<timebase>24</timebase>
											<ntsc>TRUE</ntsc>
										</rate>
										<width>4096</width>
										<height>2160</height>
										<anamorphic>FALSE</anamorphic>
										<pixelaspectratio>square</pixelaspectratio>
										<fielddominance>none</fielddominance>
									</samplecharacteristics>
								</video>
							</media>
						</file>
						<logginginfo>
							<description></description>
							<scene></scene>
							<shottake></shottake>
							<lognote></lognote>
							<good></good>
							<originalvideofilename></originalvideofilename>
							<originalaudiofilename></originalaudiofilename>
						</logginginfo>
						<colorinfo>
							<lut></lut>
							<lut1></lut1>
							<asc_sop></asc_sop>
							<asc_sat></asc_sat>
							<lut2></lut2>
						</colorinfo>
						<labels>
							<label2>Violet</label2>
						</labels>
					</clipitem>
					<clipitem id="clipitem-148">
						<masterclipid>masterclip-146</masterclipid>
						<name>TKO_004_PRI_Sh01480.mov</name>
						<enabled>TRUE</enabled>
						<duration>218</duration>
						<rate>
							<timebase>24</timebase>
							<ntsc>TRUE</ntsc>
						</rate>
						<start>12211</start>
						<end>12421</end>
						<in>4</in>
						<out>214</out>
						<pproTicksIn>42378336000</pproTicksIn>
						<pproTicksOut>2267240976000</pproTicksOut>
						<alphatype>none</alphatype>
						<pixelaspectratio>square</pixelaspectratio>
						<anamorphic>FALSE</anamorphic>
						<file id="file-146">
							<name>TKO_004_PRI_Sh01480.mov</name>
							<pathurl>file://tri-stor01/Projects/TKO/SHOTS/_Refs_Movs_Burnin_FrameCounter/TKO_004_PRI_Sh01480.mov</pathurl>
							<rate>
								<timebase>24</timebase>
								<ntsc>TRUE</ntsc>
							</rate>
							<duration>218</duration>
							<timecode>
								<rate>
									<timebase>24</timebase>
									<ntsc>TRUE</ntsc>
								</rate>
								<string>20:52:13:18</string>
								<frame>1803210</frame>
								<displayformat>NDF</displayformat>
								<reel>
									<name>A0370004</name>
								</reel>
							</timecode>
							<media>
								<video>
									<samplecharacteristics>
										<rate>
											<timebase>24</timebase>
											<ntsc>TRUE</ntsc>
										</rate>
										<width>4096</width>
										<height>2160</height>
										<anamorphic>FALSE</anamorphic>
										<pixelaspectratio>square</pixelaspectratio>
										<fielddominance>none</fielddominance>
									</samplecharacteristics>
								</video>
							</media>
						</file>
						<logginginfo>
							<description></description>
							<scene></scene>
							<shottake></shottake>
							<lognote></lognote>
							<good></good>
							<originalvideofilename></originalvideofilename>
							<originalaudiofilename></originalaudiofilename>
						</logginginfo>
						<colorinfo>
							<lut></lut>
							<lut1></lut1>
							<asc_sop></asc_sop>
							<asc_sat></asc_sat>
							<lut2></lut2>
						</colorinfo>
						<labels>
							<label2>Violet</label2>
						</labels>
					</clipitem>
					<clipitem id="clipitem-149">
						<masterclipid>masterclip-147</masterclipid>
						<name>TKO_004_PRI_Sh01490.mov</name>
						<enabled>TRUE</enabled>
						<duration>133</duration>
						<rate>
							<timebase>24</timebase>
							<ntsc>TRUE</ntsc>
						</rate>
						<start>12421</start>
						<end>12546</end>
						<in>4</in>
						<out>129</out>
						<pproTicksIn>42378336000</pproTicksIn>
						<pproTicksOut>1366701336000</pproTicksOut>
						<alphatype>none</alphatype>
						<pixelaspectratio>square</pixelaspectratio>
						<anamorphic>FALSE</anamorphic>
						<file id="file-147">
							<name>TKO_004_PRI_Sh01490.mov</name>
							<pathurl>file://tri-stor01/Projects/TKO/SHOTS/_Refs_Movs_Burnin_FrameCounter/TKO_004_PRI_Sh01490.mov</pathurl>
							<rate>
								<timebase>24</timebase>
								<ntsc>TRUE</ntsc>
							</rate>
							<duration>133</duration>
							<timecode>
								<rate>
									<timebase>24</timebase>
									<ntsc>TRUE</ntsc>
								</rate>
								<string>00:00:00:00</string>
								<frame>0</frame>
								<displayformat>NDF</displayformat>
							</timecode>
							<media>
								<video>
									<samplecharacteristics>
										<rate>
											<timebase>24</timebase>
											<ntsc>TRUE</ntsc>
										</rate>
										<width>4096</width>
										<height>2160</height>
										<anamorphic>FALSE</anamorphic>
										<pixelaspectratio>square</pixelaspectratio>
										<fielddominance>none</fielddominance>
									</samplecharacteristics>
								</video>
							</media>
						</file>
						<logginginfo>
							<description></description>
							<scene></scene>
							<shottake></shottake>
							<lognote></lognote>
							<good></good>
							<originalvideofilename></originalvideofilename>
							<originalaudiofilename></originalaudiofilename>
						</logginginfo>
						<colorinfo>
							<lut></lut>
							<lut1></lut1>
							<asc_sop></asc_sop>
							<asc_sat></asc_sat>
							<lut2></lut2>
						</colorinfo>
						<labels>
							<label2>Violet</label2>
						</labels>
					</clipitem>
					<clipitem id="clipitem-150">
						<masterclipid>masterclip-148</masterclipid>
						<name>TKO_005_GHQ_Sh01500.mov</name>
						<enabled>TRUE</enabled>
						<duration>151</duration>
						<rate>
							<timebase>24</timebase>
							<ntsc>TRUE</ntsc>
						</rate>
						<start>12546</start>
						<end>12689</end>
						<in>4</in>
						<out>147</out>
						<pproTicksIn>42378336000</pproTicksIn>
						<pproTicksOut>1557403848000</pproTicksOut>
						<alphatype>none</alphatype>
						<pixelaspectratio>square</pixelaspectratio>
						<anamorphic>FALSE</anamorphic>
						<file id="file-148">
							<name>TKO_005_GHQ_Sh01500.mov</name>
							<pathurl>file://tri-stor01/Projects/TKO/SHOTS/_Refs_Movs_Burnin_FrameCounter/TKO_005_GHQ_Sh01500.mov</pathurl>
							<rate>
								<timebase>24</timebase>
								<ntsc>TRUE</ntsc>
							</rate>
							<duration>151</duration>
							<timecode>
								<rate>
									<timebase>24</timebase>
									<ntsc>TRUE</ntsc>
								</rate>
								<string>20:24:59:09</string>
								<frame>1763985</frame>
								<displayformat>NDF</displayformat>
								<reel>
									<name>A0150006</name>
								</reel>
							</timecode>
							<media>
								<video>
									<samplecharacteristics>
										<rate>
											<timebase>24</timebase>
											<ntsc>TRUE</ntsc>
										</rate>
										<width>4096</width>
										<height>2160</height>
										<anamorphic>FALSE</anamorphic>
										<pixelaspectratio>square</pixelaspectratio>
										<fielddominance>none</fielddominance>
									</samplecharacteristics>
								</video>
							</media>
						</file>
						<logginginfo>
							<description></description>
							<scene></scene>
							<shottake></shottake>
							<lognote></lognote>
							<good></good>
							<originalvideofilename></originalvideofilename>
							<originalaudiofilename></originalaudiofilename>
						</logginginfo>
						<colorinfo>
							<lut></lut>
							<lut1></lut1>
							<asc_sop></asc_sop>
							<asc_sat></asc_sat>
							<lut2></lut2>
						</colorinfo>
						<labels>
							<label2>Violet</label2>
						</labels>
					</clipitem>
					<clipitem id="clipitem-151">
						<masterclipid>masterclip-149</masterclipid>
						<name>TKO_005_GHQ_Sh01510.mov</name>
						<enabled>TRUE</enabled>
						<duration>153</duration>
						<rate>
							<timebase>24</timebase>
							<ntsc>TRUE</ntsc>
						</rate>
						<start>12689</start>
						<end>12834</end>
						<in>4</in>
						<out>149</out>
						<pproTicksIn>42378336000</pproTicksIn>
						<pproTicksOut>1578593016000</pproTicksOut>
						<alphatype>none</alphatype>
						<pixelaspectratio>square</pixelaspectratio>
						<anamorphic>FALSE</anamorphic>
						<file id="file-149">
							<name>TKO_005_GHQ_Sh01510.mov</name>
							<pathurl>file://tri-stor01/Projects/TKO/SHOTS/_Refs_Movs_Burnin_FrameCounter/TKO_005_GHQ_Sh01510.mov</pathurl>
							<rate>
								<timebase>24</timebase>
								<ntsc>TRUE</ntsc>
							</rate>
							<duration>153</duration>
							<timecode>
								<rate>
									<timebase>24</timebase>
									<ntsc>TRUE</ntsc>
								</rate>
								<string>20:09:36:19</string>
								<frame>1741843</frame>
								<displayformat>NDF</displayformat>
								<reel>
									<name>A0150005</name>
								</reel>
							</timecode>
							<media>
								<video>
									<samplecharacteristics>
										<rate>
											<timebase>24</timebase>
											<ntsc>TRUE</ntsc>
										</rate>
										<width>4096</width>
										<height>2160</height>
										<anamorphic>FALSE</anamorphic>
										<pixelaspectratio>square</pixelaspectratio>
										<fielddominance>none</fielddominance>
									</samplecharacteristics>
								</video>
							</media>
						</file>
						<logginginfo>
							<description></description>
							<scene></scene>
							<shottake></shottake>
							<lognote></lognote>
							<good></good>
							<originalvideofilename></originalvideofilename>
							<originalaudiofilename></originalaudiofilename>
						</logginginfo>
						<colorinfo>
							<lut></lut>
							<lut1></lut1>
							<asc_sop></asc_sop>
							<asc_sat></asc_sat>
							<lut2></lut2>
						</colorinfo>
						<labels>
							<label2>Violet</label2>
						</labels>
					</clipitem>
					<clipitem id="clipitem-152">
						<masterclipid>masterclip-150</masterclipid>
						<name>TKO_005_GHQ_Sh01520.mov</name>
						<enabled>TRUE</enabled>
						<duration>88</duration>
						<rate>
							<timebase>24</timebase>
							<ntsc>TRUE</ntsc>
						</rate>
						<start>12834</start>
						<end>12914</end>
						<in>4</in>
						<out>84</out>
						<pproTicksIn>42378336000</pproTicksIn>
						<pproTicksOut>889945056000</pproTicksOut>
						<alphatype>none</alphatype>
						<pixelaspectratio>square</pixelaspectratio>
						<anamorphic>FALSE</anamorphic>
						<file id="file-150">
							<name>TKO_005_GHQ_Sh01520.mov</name>
							<pathurl>file://tri-stor01/Projects/TKO/SHOTS/_Refs_Movs_Burnin_FrameCounter/TKO_005_GHQ_Sh01520.mov</pathurl>
							<rate>
								<timebase>24</timebase>
								<ntsc>TRUE</ntsc>
							</rate>
							<duration>88</duration>
							<timecode>
								<rate>
									<timebase>24</timebase>
									<ntsc>TRUE</ntsc>
								</rate>
								<string>20:25:13:22</string>
								<frame>1764334</frame>
								<displayformat>NDF</displayformat>
								<reel>
									<name>B0120005</name>
								</reel>
							</timecode>
							<media>
								<video>
									<samplecharacteristics>
										<rate>
											<timebase>24</timebase>
											<ntsc>TRUE</ntsc>
										</rate>
										<width>4096</width>
										<height>2160</height>
										<anamorphic>FALSE</anamorphic>
										<pixelaspectratio>square</pixelaspectratio>
										<fielddominance>none</fielddominance>
									</samplecharacteristics>
								</video>
							</media>
						</file>
						<logginginfo>
							<description></description>
							<scene></scene>
							<shottake></shottake>
							<lognote></lognote>
							<good></good>
							<originalvideofilename></originalvideofilename>
							<originalaudiofilename></originalaudiofilename>
						</logginginfo>
						<colorinfo>
							<lut></lut>
							<lut1></lut1>
							<asc_sop></asc_sop>
							<asc_sat></asc_sat>
							<lut2></lut2>
						</colorinfo>
						<labels>
							<label2>Violet</label2>
						</labels>
					</clipitem>
					<clipitem id="clipitem-153">
						<masterclipid>masterclip-151</masterclipid>
						<name>TKO_005_GHQ_Sh01530.mov</name>
						<enabled>TRUE</enabled>
						<duration>75</duration>
						<rate>
							<timebase>24</timebase>
							<ntsc>TRUE</ntsc>
						</rate>
						<start>12914</start>
						<end>12981</end>
						<in>4</in>
						<out>71</out>
						<pproTicksIn>42378336000</pproTicksIn>
						<pproTicksOut>752215464000</pproTicksOut>
						<alphatype>none</alphatype>
						<pixelaspectratio>square</pixelaspectratio>
						<anamorphic>FALSE</anamorphic>
						<file id="file-151">
							<name>TKO_005_GHQ_Sh01530.mov</name>
							<pathurl>file://tri-stor01/Projects/TKO/SHOTS/_Refs_Movs_Burnin_FrameCounter/TKO_005_GHQ_Sh01530.mov</pathurl>
							<rate>
								<timebase>24</timebase>
								<ntsc>TRUE</ntsc>
							</rate>
							<duration>75</duration>
							<timecode>
								<rate>
									<timebase>24</timebase>
									<ntsc>TRUE</ntsc>
								</rate>
								<string>20:25:17:23</string>
								<frame>1764431</frame>
								<displayformat>NDF</displayformat>
								<reel>
									<name>A0150006</name>
								</reel>
							</timecode>
							<media>
								<video>
									<samplecharacteristics>
										<rate>
											<timebase>24</timebase>
											<ntsc>TRUE</ntsc>
										</rate>
										<width>4096</width>
										<height>2160</height>
										<anamorphic>FALSE</anamorphic>
										<pixelaspectratio>square</pixelaspectratio>
										<fielddominance>none</fielddominance>
									</samplecharacteristics>
								</video>
							</media>
						</file>
						<logginginfo>
							<description></description>
							<scene></scene>
							<shottake></shottake>
							<lognote></lognote>
							<good></good>
							<originalvideofilename></originalvideofilename>
							<originalaudiofilename></originalaudiofilename>
						</logginginfo>
						<colorinfo>
							<lut></lut>
							<lut1></lut1>
							<asc_sop></asc_sop>
							<asc_sat></asc_sat>
							<lut2></lut2>
						</colorinfo>
						<labels>
							<label2>Violet</label2>
						</labels>
					</clipitem>
					<clipitem id="clipitem-154">
						<masterclipid>masterclip-152</masterclipid>
						<name>TKO_005_GHQ_Sh01540.mov</name>
						<enabled>TRUE</enabled>
						<duration>29</duration>
						<rate>
							<timebase>24</timebase>
							<ntsc>TRUE</ntsc>
						</rate>
						<start>12981</start>
						<end>13002</end>
						<in>4</in>
						<out>25</out>
						<pproTicksIn>42378336000</pproTicksIn>
						<pproTicksOut>264864600000</pproTicksOut>
						<alphatype>none</alphatype>
						<pixelaspectratio>square</pixelaspectratio>
						<anamorphic>FALSE</anamorphic>
						<file id="file-152">
							<name>TKO_005_GHQ_Sh01540.mov</name>
							<pathurl>file://tri-stor01/Projects/TKO/SHOTS/_Refs_Movs_Burnin_FrameCounter/TKO_005_GHQ_Sh01540.mov</pathurl>
							<rate>
								<timebase>24</timebase>
								<ntsc>TRUE</ntsc>
							</rate>
							<duration>29</duration>
							<timecode>
								<rate>
									<timebase>24</timebase>
									<ntsc>TRUE</ntsc>
								</rate>
								<string>20:25:19:16</string>
								<frame>1764472</frame>
								<displayformat>NDF</displayformat>
								<reel>
									<name>B0120005</name>
								</reel>
							</timecode>
							<media>
								<video>
									<samplecharacteristics>
										<rate>
											<timebase>24</timebase>
											<ntsc>TRUE</ntsc>
										</rate>
										<width>4096</width>
										<height>2160</height>
										<anamorphic>FALSE</anamorphic>
										<pixelaspectratio>square</pixelaspectratio>
										<fielddominance>none</fielddominance>
									</samplecharacteristics>
								</video>
							</media>
						</file>
						<logginginfo>
							<description></description>
							<scene></scene>
							<shottake></shottake>
							<lognote></lognote>
							<good></good>
							<originalvideofilename></originalvideofilename>
							<originalaudiofilename></originalaudiofilename>
						</logginginfo>
						<colorinfo>
							<lut></lut>
							<lut1></lut1>
							<asc_sop></asc_sop>
							<asc_sat></asc_sat>
							<lut2></lut2>
						</colorinfo>
						<labels>
							<label2>Violet</label2>
						</labels>
					</clipitem>
					<clipitem id="clipitem-155">
						<masterclipid>masterclip-153</masterclipid>
						<name>TKO_005_GHQ_Sh01550.mov</name>
						<enabled>TRUE</enabled>
						<duration>33</duration>
						<rate>
							<timebase>24</timebase>
							<ntsc>TRUE</ntsc>
						</rate>
						<start>13002</start>
						<end>13027</end>
						<in>4</in>
						<out>29</out>
						<pproTicksIn>42378336000</pproTicksIn>
						<pproTicksOut>307242936000</pproTicksOut>
						<alphatype>none</alphatype>
						<pixelaspectratio>square</pixelaspectratio>
						<anamorphic>FALSE</anamorphic>
						<file id="file-153">
							<name>TKO_005_GHQ_Sh01550.mov</name>
							<pathurl>file://tri-stor01/Projects/TKO/SHOTS/_Refs_Movs_Burnin_FrameCounter/TKO_005_GHQ_Sh01550.mov</pathurl>
							<rate>
								<timebase>24</timebase>
								<ntsc>TRUE</ntsc>
							</rate>
							<duration>33</duration>
							<timecode>
								<rate>
									<timebase>24</timebase>
									<ntsc>TRUE</ntsc>
								</rate>
								<string>20:25:22:03</string>
								<frame>1764531</frame>
								<displayformat>NDF</displayformat>
								<reel>
									<name>A0150006</name>
								</reel>
							</timecode>
							<media>
								<video>
									<samplecharacteristics>
										<rate>
											<timebase>24</timebase>
											<ntsc>TRUE</ntsc>
										</rate>
										<width>4096</width>
										<height>2160</height>
										<anamorphic>FALSE</anamorphic>
										<pixelaspectratio>square</pixelaspectratio>
										<fielddominance>none</fielddominance>
									</samplecharacteristics>
								</video>
							</media>
						</file>
						<logginginfo>
							<description></description>
							<scene></scene>
							<shottake></shottake>
							<lognote></lognote>
							<good></good>
							<originalvideofilename></originalvideofilename>
							<originalaudiofilename></originalaudiofilename>
						</logginginfo>
						<colorinfo>
							<lut></lut>
							<lut1></lut1>
							<asc_sop></asc_sop>
							<asc_sat></asc_sat>
							<lut2></lut2>
						</colorinfo>
						<labels>
							<label2>Violet</label2>
						</labels>
					</clipitem>
					<clipitem id="clipitem-156">
						<masterclipid>masterclip-154</masterclipid>
						<name>TKO_005_GHQ_Sh01560.mov</name>
						<enabled>TRUE</enabled>
						<duration>144</duration>
						<rate>
							<timebase>24</timebase>
							<ntsc>TRUE</ntsc>
						</rate>
						<start>13027</start>
						<end>13163</end>
						<in>4</in>
						<out>140</out>
						<pproTicksIn>42378336000</pproTicksIn>
						<pproTicksOut>1483241760000</pproTicksOut>
						<alphatype>none</alphatype>
						<pixelaspectratio>square</pixelaspectratio>
						<anamorphic>FALSE</anamorphic>
						<file id="file-154">
							<name>TKO_005_GHQ_Sh01560.mov</name>
							<pathurl>file://tri-stor01/Projects/TKO/SHOTS/_Refs_Movs_Burnin_FrameCounter/TKO_005_GHQ_Sh01560.mov</pathurl>
							<rate>
								<timebase>24</timebase>
								<ntsc>TRUE</ntsc>
							</rate>
							<duration>144</duration>
							<timecode>
								<rate>
									<timebase>24</timebase>
									<ntsc>TRUE</ntsc>
								</rate>
								<string>20:09:51:19</string>
								<frame>1742203</frame>
								<displayformat>NDF</displayformat>
								<reel>
									<name>A0150005</name>
								</reel>
							</timecode>
							<media>
								<video>
									<samplecharacteristics>
										<rate>
											<timebase>24</timebase>
											<ntsc>TRUE</ntsc>
										</rate>
										<width>4096</width>
										<height>2160</height>
										<anamorphic>FALSE</anamorphic>
										<pixelaspectratio>square</pixelaspectratio>
										<fielddominance>none</fielddominance>
									</samplecharacteristics>
								</video>
							</media>
						</file>
						<logginginfo>
							<description></description>
							<scene></scene>
							<shottake></shottake>
							<lognote></lognote>
							<good></good>
							<originalvideofilename></originalvideofilename>
							<originalaudiofilename></originalaudiofilename>
						</logginginfo>
						<colorinfo>
							<lut></lut>
							<lut1></lut1>
							<asc_sop></asc_sop>
							<asc_sat></asc_sat>
							<lut2></lut2>
						</colorinfo>
						<labels>
							<label2>Violet</label2>
						</labels>
					</clipitem>
					<clipitem id="clipitem-157">
						<masterclipid>masterclip-155</masterclipid>
						<name>TKO_005_GHQ_Sh01570.mov</name>
						<enabled>TRUE</enabled>
						<duration>143</duration>
						<rate>
							<timebase>24</timebase>
							<ntsc>TRUE</ntsc>
						</rate>
						<start>13163</start>
						<end>13298</end>
						<in>4</in>
						<out>139</out>
						<pproTicksIn>42378336000</pproTicksIn>
						<pproTicksOut>1472647176000</pproTicksOut>
						<alphatype>none</alphatype>
						<pixelaspectratio>square</pixelaspectratio>
						<anamorphic>FALSE</anamorphic>
						<file id="file-155">
							<name>TKO_005_GHQ_Sh01570.mov</name>
							<pathurl>file://tri-stor01/Projects/TKO/SHOTS/_Refs_Movs_Burnin_FrameCounter/TKO_005_GHQ_Sh01570.mov</pathurl>
							<rate>
								<timebase>24</timebase>
								<ntsc>TRUE</ntsc>
							</rate>
							<duration>143</duration>
							<timecode>
								<rate>
									<timebase>24</timebase>
									<ntsc>TRUE</ntsc>
								</rate>
								<string>20:28:54:06</string>
								<frame>1769622</frame>
								<displayformat>NDF</displayformat>
								<reel>
									<name>A0150006</name>
								</reel>
							</timecode>
							<media>
								<video>
									<samplecharacteristics>
										<rate>
											<timebase>24</timebase>
											<ntsc>TRUE</ntsc>
										</rate>
										<width>4096</width>
										<height>2160</height>
										<anamorphic>FALSE</anamorphic>
										<pixelaspectratio>square</pixelaspectratio>
										<fielddominance>none</fielddominance>
									</samplecharacteristics>
								</video>
							</media>
						</file>
						<logginginfo>
							<description></description>
							<scene></scene>
							<shottake></shottake>
							<lognote></lognote>
							<good></good>
							<originalvideofilename></originalvideofilename>
							<originalaudiofilename></originalaudiofilename>
						</logginginfo>
						<colorinfo>
							<lut></lut>
							<lut1></lut1>
							<asc_sop></asc_sop>
							<asc_sat></asc_sat>
							<lut2></lut2>
						</colorinfo>
						<labels>
							<label2>Violet</label2>
						</labels>
					</clipitem>
					<clipitem id="clipitem-158">
						<masterclipid>masterclip-156</masterclipid>
						<name>TKO_005_GHQ_Sh01580.mov</name>
						<enabled>TRUE</enabled>
						<duration>44</duration>
						<rate>
							<timebase>24</timebase>
							<ntsc>TRUE</ntsc>
						</rate>
						<start>13298</start>
						<end>13334</end>
						<in>4</in>
						<out>40</out>
						<pproTicksIn>42378336000</pproTicksIn>
						<pproTicksOut>423783360000</pproTicksOut>
						<alphatype>none</alphatype>
						<pixelaspectratio>square</pixelaspectratio>
						<anamorphic>FALSE</anamorphic>
						<file id="file-156">
							<name>TKO_005_GHQ_Sh01580.mov</name>
							<pathurl>file://tri-stor01/Projects/TKO/SHOTS/_Refs_Movs_Burnin_FrameCounter/TKO_005_GHQ_Sh01580.mov</pathurl>
							<rate>
								<timebase>24</timebase>
								<ntsc>TRUE</ntsc>
							</rate>
							<duration>44</duration>
							<timecode>
								<rate>
									<timebase>24</timebase>
									<ntsc>TRUE</ntsc>
								</rate>
								<string>20:29:00:10</string>
								<frame>1769770</frame>
								<displayformat>NDF</displayformat>
								<reel>
									<name>B0120005</name>
								</reel>
							</timecode>
							<media>
								<video>
									<samplecharacteristics>
										<rate>
											<timebase>24</timebase>
											<ntsc>TRUE</ntsc>
										</rate>
										<width>4096</width>
										<height>2160</height>
										<anamorphic>FALSE</anamorphic>
										<pixelaspectratio>square</pixelaspectratio>
										<fielddominance>none</fielddominance>
									</samplecharacteristics>
								</video>
							</media>
						</file>
						<logginginfo>
							<description></description>
							<scene></scene>
							<shottake></shottake>
							<lognote></lognote>
							<good></good>
							<originalvideofilename></originalvideofilename>
							<originalaudiofilename></originalaudiofilename>
						</logginginfo>
						<colorinfo>
							<lut></lut>
							<lut1></lut1>
							<asc_sop></asc_sop>
							<asc_sat></asc_sat>
							<lut2></lut2>
						</colorinfo>
						<labels>
							<label2>Violet</label2>
						</labels>
					</clipitem>
					<clipitem id="clipitem-159">
						<masterclipid>masterclip-157</masterclipid>
						<name>TKO_005_GHQ_Sh01590.mov</name>
						<enabled>TRUE</enabled>
						<duration>160</duration>
						<rate>
							<timebase>24</timebase>
							<ntsc>TRUE</ntsc>
						</rate>
						<start>13334</start>
						<end>13486</end>
						<in>4</in>
						<out>156</out>
						<pproTicksIn>42378336000</pproTicksIn>
						<pproTicksOut>1652755104000</pproTicksOut>
						<alphatype>none</alphatype>
						<pixelaspectratio>square</pixelaspectratio>
						<anamorphic>FALSE</anamorphic>
						<file id="file-157">
							<name>TKO_005_GHQ_Sh01590.mov</name>
							<pathurl>file://tri-stor01/Projects/TKO/SHOTS/_Refs_Movs_Burnin_FrameCounter/TKO_005_GHQ_Sh01590.mov</pathurl>
							<rate>
								<timebase>24</timebase>
								<ntsc>TRUE</ntsc>
							</rate>
							<duration>160</duration>
							<timecode>
								<rate>
									<timebase>24</timebase>
									<ntsc>TRUE</ntsc>
								</rate>
								<string>04:24:42:20</string>
								<frame>381188</frame>
								<displayformat>NDF</displayformat>
								<reel>
									<name>C0080005</name>
								</reel>
							</timecode>
							<media>
								<video>
									<samplecharacteristics>
										<rate>
											<timebase>24</timebase>
											<ntsc>TRUE</ntsc>
										</rate>
										<width>3840</width>
										<height>2160</height>
										<anamorphic>FALSE</anamorphic>
										<pixelaspectratio>square</pixelaspectratio>
										<fielddominance>none</fielddominance>
									</samplecharacteristics>
								</video>
							</media>
						</file>
						<logginginfo>
							<description></description>
							<scene></scene>
							<shottake></shottake>
							<lognote></lognote>
							<good></good>
							<originalvideofilename></originalvideofilename>
							<originalaudiofilename></originalaudiofilename>
						</logginginfo>
						<colorinfo>
							<lut></lut>
							<lut1></lut1>
							<asc_sop></asc_sop>
							<asc_sat></asc_sat>
							<lut2></lut2>
						</colorinfo>
						<labels>
							<label2>Violet</label2>
						</labels>
					</clipitem>
					<clipitem id="clipitem-160">
						<masterclipid>masterclip-158</masterclipid>
						<name>TKO_005_GHQ_Sh01600.mov</name>
						<enabled>TRUE</enabled>
						<duration>70</duration>
						<rate>
							<timebase>24</timebase>
							<ntsc>TRUE</ntsc>
						</rate>
						<start>13486</start>
						<end>13548</end>
						<in>4</in>
						<out>66</out>
						<pproTicksIn>42378336000</pproTicksIn>
						<pproTicksOut>699242544000</pproTicksOut>
						<alphatype>none</alphatype>
						<pixelaspectratio>square</pixelaspectratio>
						<anamorphic>FALSE</anamorphic>
						<file id="file-158">
							<name>TKO_005_GHQ_Sh01600.mov</name>
							<pathurl>file://tri-stor01/Projects/TKO/SHOTS/_Refs_Movs_Burnin_FrameCounter/TKO_005_GHQ_Sh01600.mov</pathurl>
							<rate>
								<timebase>24</timebase>
								<ntsc>TRUE</ntsc>
							</rate>
							<duration>70</duration>
							<timecode>
								<rate>
									<timebase>24</timebase>
									<ntsc>TRUE</ntsc>
								</rate>
								<string>20:29:05:10</string>
								<frame>1769890</frame>
								<displayformat>NDF</displayformat>
								<reel>
									<name>B0120005</name>
								</reel>
							</timecode>
							<media>
								<video>
									<samplecharacteristics>
										<rate>
											<timebase>24</timebase>
											<ntsc>TRUE</ntsc>
										</rate>
										<width>4096</width>
										<height>2160</height>
										<anamorphic>FALSE</anamorphic>
										<pixelaspectratio>square</pixelaspectratio>
										<fielddominance>none</fielddominance>
									</samplecharacteristics>
								</video>
							</media>
						</file>
						<logginginfo>
							<description></description>
							<scene></scene>
							<shottake></shottake>
							<lognote></lognote>
							<good></good>
							<originalvideofilename></originalvideofilename>
							<originalaudiofilename></originalaudiofilename>
						</logginginfo>
						<colorinfo>
							<lut></lut>
							<lut1></lut1>
							<asc_sop></asc_sop>
							<asc_sat></asc_sat>
							<lut2></lut2>
						</colorinfo>
						<labels>
							<label2>Violet</label2>
						</labels>
					</clipitem>
					<clipitem id="clipitem-161">
						<masterclipid>masterclip-159</masterclipid>
						<name>TKO_005_GHQ_Sh01610.mov</name>
						<enabled>TRUE</enabled>
						<duration>103</duration>
						<rate>
							<timebase>24</timebase>
							<ntsc>TRUE</ntsc>
						</rate>
						<start>13548</start>
						<end>13643</end>
						<in>4</in>
						<out>99</out>
						<pproTicksIn>42378336000</pproTicksIn>
						<pproTicksOut>1048863816000</pproTicksOut>
						<alphatype>none</alphatype>
						<pixelaspectratio>square</pixelaspectratio>
						<anamorphic>FALSE</anamorphic>
						<file id="file-159">
							<name>TKO_005_GHQ_Sh01610.mov</name>
							<pathurl>file://tri-stor01/Projects/TKO/SHOTS/_Refs_Movs_Burnin_FrameCounter/TKO_005_GHQ_Sh01610.mov</pathurl>
							<rate>
								<timebase>24</timebase>
								<ntsc>TRUE</ntsc>
							</rate>
							<duration>103</duration>
							<timecode>
								<rate>
									<timebase>24</timebase>
									<ntsc>TRUE</ntsc>
								</rate>
								<string>04:21:30:20</string>
								<frame>376580</frame>
								<displayformat>NDF</displayformat>
								<reel>
									<name>C0080005</name>
								</reel>
							</timecode>
							<media>
								<video>
									<samplecharacteristics>
										<rate>
											<timebase>24</timebase>
											<ntsc>TRUE</ntsc>
										</rate>
										<width>3840</width>
										<height>2160</height>
										<anamorphic>FALSE</anamorphic>
										<pixelaspectratio>square</pixelaspectratio>
										<fielddominance>none</fielddominance>
									</samplecharacteristics>
								</video>
							</media>
						</file>
						<logginginfo>
							<description></description>
							<scene></scene>
							<shottake></shottake>
							<lognote></lognote>
							<good></good>
							<originalvideofilename></originalvideofilename>
							<originalaudiofilename></originalaudiofilename>
						</logginginfo>
						<colorinfo>
							<lut></lut>
							<lut1></lut1>
							<asc_sop></asc_sop>
							<asc_sat></asc_sat>
							<lut2></lut2>
						</colorinfo>
						<labels>
							<label2>Violet</label2>
						</labels>
					</clipitem>
					<clipitem id="clipitem-162">
						<masterclipid>masterclip-160</masterclipid>
						<name>TKO_005_GHQ_Sh01620.mov</name>
						<enabled>TRUE</enabled>
						<duration>41</duration>
						<rate>
							<timebase>24</timebase>
							<ntsc>TRUE</ntsc>
						</rate>
						<start>13643</start>
						<end>13676</end>
						<in>4</in>
						<out>37</out>
						<pproTicksIn>42378336000</pproTicksIn>
						<pproTicksOut>391999608000</pproTicksOut>
						<alphatype>none</alphatype>
						<pixelaspectratio>square</pixelaspectratio>
						<anamorphic>FALSE</anamorphic>
						<file id="file-160">
							<name>TKO_005_GHQ_Sh01620.mov</name>
							<pathurl>file://tri-stor01/Projects/TKO/SHOTS/_Refs_Movs_Burnin_FrameCounter/TKO_005_GHQ_Sh01620.mov</pathurl>
							<rate>
								<timebase>24</timebase>
								<ntsc>TRUE</ntsc>
							</rate>
							<duration>41</duration>
							<timecode>
								<rate>
									<timebase>24</timebase>
									<ntsc>TRUE</ntsc>
								</rate>
								<string>20:29:16:18</string>
								<frame>1770162</frame>
								<displayformat>NDF</displayformat>
								<reel>
									<name>B0120005</name>
								</reel>
							</timecode>
							<media>
								<video>
									<samplecharacteristics>
										<rate>
											<timebase>24</timebase>
											<ntsc>TRUE</ntsc>
										</rate>
										<width>4096</width>
										<height>2160</height>
										<anamorphic>FALSE</anamorphic>
										<pixelaspectratio>square</pixelaspectratio>
										<fielddominance>none</fielddominance>
									</samplecharacteristics>
								</video>
							</media>
						</file>
						<logginginfo>
							<description></description>
							<scene></scene>
							<shottake></shottake>
							<lognote></lognote>
							<good></good>
							<originalvideofilename></originalvideofilename>
							<originalaudiofilename></originalaudiofilename>
						</logginginfo>
						<colorinfo>
							<lut></lut>
							<lut1></lut1>
							<asc_sop></asc_sop>
							<asc_sat></asc_sat>
							<lut2></lut2>
						</colorinfo>
						<labels>
							<label2>Violet</label2>
						</labels>
					</clipitem>
					<clipitem id="clipitem-163">
						<masterclipid>masterclip-161</masterclipid>
						<name>TKO_005_GHQ_Sh01630_MERGED.mov</name>
						<enabled>TRUE</enabled>
						<duration>30</duration>
						<rate>
							<timebase>24</timebase>
							<ntsc>TRUE</ntsc>
						</rate>
						<start>13676</start>
						<end>13698</end>
						<in>4</in>
						<out>26</out>
						<pproTicksIn>42378336000</pproTicksIn>
						<pproTicksOut>275459184000</pproTicksOut>
						<alphatype>none</alphatype>
						<pixelaspectratio>square</pixelaspectratio>
						<anamorphic>FALSE</anamorphic>
						<file id="file-161">
							<name>TKO_005_GHQ_Sh01630_MERGED.mov</name>
							<pathurl>file://tri-stor01/Projects/TKO/SHOTS/_Refs_Movs_Burnin_FrameCounter/TKO_005_GHQ_Sh01630_MERGED.mov</pathurl>
							<rate>
								<timebase>24</timebase>
								<ntsc>TRUE</ntsc>
							</rate>
							<duration>30</duration>
							<timecode>
								<rate>
									<timebase>24</timebase>
									<ntsc>TRUE</ntsc>
								</rate>
								<string>00:00:00:00</string>
								<frame>0</frame>
								<displayformat>NDF</displayformat>
							</timecode>
							<media>
								<video>
									<samplecharacteristics>
										<rate>
											<timebase>24</timebase>
											<ntsc>TRUE</ntsc>
										</rate>
										<width>1920</width>
										<height>1080</height>
										<anamorphic>FALSE</anamorphic>
										<pixelaspectratio>square</pixelaspectratio>
										<fielddominance>none</fielddominance>
									</samplecharacteristics>
								</video>
								<audio>
									<samplecharacteristics>
										<depth>16</depth>
										<samplerate>48000</samplerate>
									</samplecharacteristics>
									<channelcount>2</channelcount>
								</audio>
							</media>
						</file>
						<logginginfo>
							<description></description>
							<scene></scene>
							<shottake></shottake>
							<lognote></lognote>
							<good></good>
							<originalvideofilename></originalvideofilename>
							<originalaudiofilename></originalaudiofilename>
						</logginginfo>
						<colorinfo>
							<lut></lut>
							<lut1></lut1>
							<asc_sop></asc_sop>
							<asc_sat></asc_sat>
							<lut2></lut2>
						</colorinfo>
						<labels>
							<label2>Iris</label2>
						</labels>
					</clipitem>
					<clipitem id="clipitem-164">
						<masterclipid>masterclip-162</masterclipid>
						<name>TKO_005_GHQ_Sh01640_MERGED.mov</name>
						<enabled>TRUE</enabled>
						<duration>135</duration>
						<rate>
							<timebase>24</timebase>
							<ntsc>TRUE</ntsc>
						</rate>
						<start>13698</start>
						<end>13825</end>
						<in>4</in>
						<out>131</out>
						<pproTicksIn>42378336000</pproTicksIn>
						<pproTicksOut>1387890504000</pproTicksOut>
						<alphatype>none</alphatype>
						<pixelaspectratio>square</pixelaspectratio>
						<anamorphic>FALSE</anamorphic>
						<file id="file-162">
							<name>TKO_005_GHQ_Sh01640_MERGED.mov</name>
							<pathurl>file://tri-stor01/Projects/TKO/SHOTS/_Refs_Movs_Burnin_FrameCounter/TKO_005_GHQ_Sh01640_MERGED.mov</pathurl>
							<rate>
								<timebase>24</timebase>
								<ntsc>TRUE</ntsc>
							</rate>
							<duration>135</duration>
							<timecode>
								<rate>
									<timebase>24</timebase>
									<ntsc>TRUE</ntsc>
								</rate>
								<string>00:00:00:00</string>
								<frame>0</frame>
								<displayformat>NDF</displayformat>
							</timecode>
							<media>
								<video>
									<samplecharacteristics>
										<rate>
											<timebase>24</timebase>
											<ntsc>TRUE</ntsc>
										</rate>
										<width>1920</width>
										<height>1080</height>
										<anamorphic>FALSE</anamorphic>
										<pixelaspectratio>square</pixelaspectratio>
										<fielddominance>none</fielddominance>
									</samplecharacteristics>
								</video>
								<audio>
									<samplecharacteristics>
										<depth>16</depth>
										<samplerate>48000</samplerate>
									</samplecharacteristics>
									<channelcount>2</channelcount>
								</audio>
							</media>
						</file>
						<logginginfo>
							<description></description>
							<scene></scene>
							<shottake></shottake>
							<lognote></lognote>
							<good></good>
							<originalvideofilename></originalvideofilename>
							<originalaudiofilename></originalaudiofilename>
						</logginginfo>
						<colorinfo>
							<lut></lut>
							<lut1></lut1>
							<asc_sop></asc_sop>
							<asc_sat></asc_sat>
							<lut2></lut2>
						</colorinfo>
						<labels>
							<label2>Iris</label2>
						</labels>
					</clipitem>
					<clipitem id="clipitem-165">
						<masterclipid>masterclip-163</masterclipid>
						<name>TKO_005_GHQ_Sh01650.mov</name>
						<enabled>TRUE</enabled>
						<duration>62</duration>
						<rate>
							<timebase>24</timebase>
							<ntsc>TRUE</ntsc>
						</rate>
						<start>13825</start>
						<end>13879</end>
						<in>4</in>
						<out>58</out>
						<pproTicksIn>42378336000</pproTicksIn>
						<pproTicksOut>614485872000</pproTicksOut>
						<alphatype>none</alphatype>
						<pixelaspectratio>square</pixelaspectratio>
						<anamorphic>FALSE</anamorphic>
						<file id="file-163">
							<name>TKO_005_GHQ_Sh01650.mov</name>
							<pathurl>file://tri-stor01/Projects/TKO/SHOTS/_Refs_Movs_Burnin_FrameCounter/TKO_005_GHQ_Sh01650.mov</pathurl>
							<rate>
								<timebase>24</timebase>
								<ntsc>TRUE</ntsc>
							</rate>
							<duration>62</duration>
							<timecode>
								<rate>
									<timebase>24</timebase>
									<ntsc>TRUE</ntsc>
								</rate>
								<string>04:17:03:04</string>
								<frame>370156</frame>
								<displayformat>NDF</displayformat>
								<reel>
									<name>C0080004</name>
								</reel>
							</timecode>
							<media>
								<video>
									<samplecharacteristics>
										<rate>
											<timebase>24</timebase>
											<ntsc>TRUE</ntsc>
										</rate>
										<width>3840</width>
										<height>2160</height>
										<anamorphic>FALSE</anamorphic>
										<pixelaspectratio>square</pixelaspectratio>
										<fielddominance>none</fielddominance>
									</samplecharacteristics>
								</video>
							</media>
						</file>
						<logginginfo>
							<description></description>
							<scene></scene>
							<shottake></shottake>
							<lognote></lognote>
							<good></good>
							<originalvideofilename></originalvideofilename>
							<originalaudiofilename></originalaudiofilename>
						</logginginfo>
						<colorinfo>
							<lut></lut>
							<lut1></lut1>
							<asc_sop></asc_sop>
							<asc_sat></asc_sat>
							<lut2></lut2>
						</colorinfo>
						<labels>
							<label2>Violet</label2>
						</labels>
					</clipitem>
					<clipitem id="clipitem-166">
						<masterclipid>masterclip-164</masterclipid>
						<name>TKO_005_GHQ_Sh01660.mov</name>
						<enabled>TRUE</enabled>
						<duration>92</duration>
						<rate>
							<timebase>24</timebase>
							<ntsc>TRUE</ntsc>
						</rate>
						<start>13879</start>
						<end>13963</end>
						<in>4</in>
						<out>88</out>
						<pproTicksIn>42378336000</pproTicksIn>
						<pproTicksOut>932323392000</pproTicksOut>
						<alphatype>none</alphatype>
						<pixelaspectratio>square</pixelaspectratio>
						<anamorphic>FALSE</anamorphic>
						<file id="file-164">
							<name>TKO_005_GHQ_Sh01660.mov</name>
							<pathurl>file://tri-stor01/Projects/TKO/SHOTS/_Refs_Movs_Burnin_FrameCounter/TKO_005_GHQ_Sh01660.mov</pathurl>
							<rate>
								<timebase>24</timebase>
								<ntsc>TRUE</ntsc>
							</rate>
							<duration>92</duration>
							<timecode>
								<rate>
									<timebase>24</timebase>
									<ntsc>TRUE</ntsc>
								</rate>
								<string>20:29:20:16</string>
								<frame>1770256</frame>
								<displayformat>NDF</displayformat>
								<reel>
									<name>B0120005</name>
								</reel>
							</timecode>
							<media>
								<video>
									<samplecharacteristics>
										<rate>
											<timebase>24</timebase>
											<ntsc>TRUE</ntsc>
										</rate>
										<width>4096</width>
										<height>2160</height>
										<anamorphic>FALSE</anamorphic>
										<pixelaspectratio>square</pixelaspectratio>
										<fielddominance>none</fielddominance>
									</samplecharacteristics>
								</video>
							</media>
						</file>
						<logginginfo>
							<description></description>
							<scene></scene>
							<shottake></shottake>
							<lognote></lognote>
							<good></good>
							<originalvideofilename></originalvideofilename>
							<originalaudiofilename></originalaudiofilename>
						</logginginfo>
						<colorinfo>
							<lut></lut>
							<lut1></lut1>
							<asc_sop></asc_sop>
							<asc_sat></asc_sat>
							<lut2></lut2>
						</colorinfo>
						<labels>
							<label2>Violet</label2>
						</labels>
					</clipitem>
					<clipitem id="clipitem-167">
						<masterclipid>masterclip-165</masterclipid>
						<name>TKO_005_GHQ_Sh01670.mov</name>
						<enabled>TRUE</enabled>
						<duration>53</duration>
						<rate>
							<timebase>24</timebase>
							<ntsc>TRUE</ntsc>
						</rate>
						<start>13963</start>
						<end>14008</end>
						<in>4</in>
						<out>49</out>
						<pproTicksIn>42378336000</pproTicksIn>
						<pproTicksOut>519134616000</pproTicksOut>
						<alphatype>none</alphatype>
						<pixelaspectratio>square</pixelaspectratio>
						<anamorphic>FALSE</anamorphic>
						<file id="file-165">
							<name>TKO_005_GHQ_Sh01670.mov</name>
							<pathurl>file://tri-stor01/Projects/TKO/SHOTS/_Refs_Movs_Burnin_FrameCounter/TKO_005_GHQ_Sh01670.mov</pathurl>
							<rate>
								<timebase>24</timebase>
								<ntsc>TRUE</ntsc>
							</rate>
							<duration>53</duration>
							<timecode>
								<rate>
									<timebase>24</timebase>
									<ntsc>TRUE</ntsc>
								</rate>
								<string>20:29:23:20</string>
								<frame>1770332</frame>
								<displayformat>NDF</displayformat>
								<reel>
									<name>A0150006</name>
								</reel>
							</timecode>
							<media>
								<video>
									<samplecharacteristics>
										<rate>
											<timebase>24</timebase>
											<ntsc>TRUE</ntsc>
										</rate>
										<width>4096</width>
										<height>2160</height>
										<anamorphic>FALSE</anamorphic>
										<pixelaspectratio>square</pixelaspectratio>
										<fielddominance>none</fielddominance>
									</samplecharacteristics>
								</video>
							</media>
						</file>
						<logginginfo>
							<description></description>
							<scene></scene>
							<shottake></shottake>
							<lognote></lognote>
							<good></good>
							<originalvideofilename></originalvideofilename>
							<originalaudiofilename></originalaudiofilename>
						</logginginfo>
						<colorinfo>
							<lut></lut>
							<lut1></lut1>
							<asc_sop></asc_sop>
							<asc_sat></asc_sat>
							<lut2></lut2>
						</colorinfo>
						<labels>
							<label2>Violet</label2>
						</labels>
					</clipitem>
					<clipitem id="clipitem-168">
						<masterclipid>masterclip-166</masterclipid>
						<name>TKO_005_GHQ_Sh01680.mov</name>
						<enabled>TRUE</enabled>
						<duration>97</duration>
						<rate>
							<timebase>24</timebase>
							<ntsc>TRUE</ntsc>
						</rate>
						<start>14008</start>
						<end>14097</end>
						<in>4</in>
						<out>93</out>
						<pproTicksIn>42378336000</pproTicksIn>
						<pproTicksOut>985296312000</pproTicksOut>
						<alphatype>none</alphatype>
						<pixelaspectratio>square</pixelaspectratio>
						<anamorphic>FALSE</anamorphic>
						<file id="file-166">
							<name>TKO_005_GHQ_Sh01680.mov</name>
							<pathurl>file://tri-stor01/Projects/TKO/SHOTS/_Refs_Movs_Burnin_FrameCounter/TKO_005_GHQ_Sh01680.mov</pathurl>
							<rate>
								<timebase>24</timebase>
								<ntsc>TRUE</ntsc>
							</rate>
							<duration>97</duration>
							<timecode>
								<rate>
									<timebase>24</timebase>
									<ntsc>TRUE</ntsc>
								</rate>
								<string>20:29:27:05</string>
								<frame>1770413</frame>
								<displayformat>NDF</displayformat>
								<reel>
									<name>B0120005</name>
								</reel>
							</timecode>
							<media>
								<video>
									<samplecharacteristics>
										<rate>
											<timebase>24</timebase>
											<ntsc>TRUE</ntsc>
										</rate>
										<width>4096</width>
										<height>2160</height>
										<anamorphic>FALSE</anamorphic>
										<pixelaspectratio>square</pixelaspectratio>
										<fielddominance>none</fielddominance>
									</samplecharacteristics>
								</video>
							</media>
						</file>
						<logginginfo>
							<description></description>
							<scene></scene>
							<shottake></shottake>
							<lognote></lognote>
							<good></good>
							<originalvideofilename></originalvideofilename>
							<originalaudiofilename></originalaudiofilename>
						</logginginfo>
						<colorinfo>
							<lut></lut>
							<lut1></lut1>
							<asc_sop></asc_sop>
							<asc_sat></asc_sat>
							<lut2></lut2>
						</colorinfo>
						<labels>
							<label2>Violet</label2>
						</labels>
					</clipitem>
					<clipitem id="clipitem-169">
						<masterclipid>masterclip-167</masterclipid>
						<name>TKO_005_GHQ_Sh01690.mov</name>
						<enabled>TRUE</enabled>
						<duration>29</duration>
						<rate>
							<timebase>24</timebase>
							<ntsc>TRUE</ntsc>
						</rate>
						<start>14097</start>
						<end>14118</end>
						<in>4</in>
						<out>25</out>
						<pproTicksIn>42378336000</pproTicksIn>
						<pproTicksOut>264864600000</pproTicksOut>
						<alphatype>none</alphatype>
						<pixelaspectratio>square</pixelaspectratio>
						<anamorphic>FALSE</anamorphic>
						<file id="file-167">
							<name>TKO_005_GHQ_Sh01690.mov</name>
							<pathurl>file://tri-stor01/Projects/TKO/SHOTS/_Refs_Movs_Burnin_FrameCounter/TKO_005_GHQ_Sh01690.mov</pathurl>
							<rate>
								<timebase>24</timebase>
								<ntsc>TRUE</ntsc>
							</rate>
							<duration>29</duration>
							<timecode>
								<rate>
									<timebase>24</timebase>
									<ntsc>TRUE</ntsc>
								</rate>
								<string>20:29:30:02</string>
								<frame>1770482</frame>
								<displayformat>NDF</displayformat>
								<reel>
									<name>A0150006</name>
								</reel>
							</timecode>
							<media>
								<video>
									<samplecharacteristics>
										<rate>
											<timebase>24</timebase>
											<ntsc>TRUE</ntsc>
										</rate>
										<width>4096</width>
										<height>2160</height>
										<anamorphic>FALSE</anamorphic>
										<pixelaspectratio>square</pixelaspectratio>
										<fielddominance>none</fielddominance>
									</samplecharacteristics>
								</video>
							</media>
						</file>
						<logginginfo>
							<description></description>
							<scene></scene>
							<shottake></shottake>
							<lognote></lognote>
							<good></good>
							<originalvideofilename></originalvideofilename>
							<originalaudiofilename></originalaudiofilename>
						</logginginfo>
						<colorinfo>
							<lut></lut>
							<lut1></lut1>
							<asc_sop></asc_sop>
							<asc_sat></asc_sat>
							<lut2></lut2>
						</colorinfo>
						<labels>
							<label2>Violet</label2>
						</labels>
					</clipitem>
					<clipitem id="clipitem-170">
						<masterclipid>masterclip-168</masterclipid>
						<name>TKO_005_GHQ_Sh01700.mov</name>
						<enabled>TRUE</enabled>
						<duration>32</duration>
						<rate>
							<timebase>24</timebase>
							<ntsc>TRUE</ntsc>
						</rate>
						<start>14118</start>
						<end>14142</end>
						<in>4</in>
						<out>28</out>
						<pproTicksIn>42378336000</pproTicksIn>
						<pproTicksOut>296648352000</pproTicksOut>
						<alphatype>none</alphatype>
						<pixelaspectratio>square</pixelaspectratio>
						<anamorphic>FALSE</anamorphic>
						<file id="file-168">
							<name>TKO_005_GHQ_Sh01700.mov</name>
							<pathurl>file://tri-stor01/Projects/TKO/SHOTS/_Refs_Movs_Burnin_FrameCounter/TKO_005_GHQ_Sh01700.mov</pathurl>
							<rate>
								<timebase>24</timebase>
								<ntsc>TRUE</ntsc>
							</rate>
							<duration>32</duration>
							<timecode>
								<rate>
									<timebase>24</timebase>
									<ntsc>TRUE</ntsc>
								</rate>
								<string>20:29:31:13</string>
								<frame>1770517</frame>
								<displayformat>NDF</displayformat>
								<reel>
									<name>B0120005</name>
								</reel>
							</timecode>
							<media>
								<video>
									<samplecharacteristics>
										<rate>
											<timebase>24</timebase>
											<ntsc>TRUE</ntsc>
										</rate>
										<width>4096</width>
										<height>2160</height>
										<anamorphic>FALSE</anamorphic>
										<pixelaspectratio>square</pixelaspectratio>
										<fielddominance>none</fielddominance>
									</samplecharacteristics>
								</video>
							</media>
						</file>
						<logginginfo>
							<description></description>
							<scene></scene>
							<shottake></shottake>
							<lognote></lognote>
							<good></good>
							<originalvideofilename></originalvideofilename>
							<originalaudiofilename></originalaudiofilename>
						</logginginfo>
						<colorinfo>
							<lut></lut>
							<lut1></lut1>
							<asc_sop></asc_sop>
							<asc_sat></asc_sat>
							<lut2></lut2>
						</colorinfo>
						<labels>
							<label2>Violet</label2>
						</labels>
					</clipitem>
					<clipitem id="clipitem-171">
						<masterclipid>masterclip-169</masterclipid>
						<name>TKO_005_GHQ_Sh01710.mov</name>
						<enabled>TRUE</enabled>
						<duration>36</duration>
						<rate>
							<timebase>24</timebase>
							<ntsc>TRUE</ntsc>
						</rate>
						<start>14142</start>
						<end>14170</end>
						<in>4</in>
						<out>32</out>
						<pproTicksIn>42378336000</pproTicksIn>
						<pproTicksOut>339026688000</pproTicksOut>
						<alphatype>none</alphatype>
						<pixelaspectratio>square</pixelaspectratio>
						<anamorphic>FALSE</anamorphic>
						<file id="file-169">
							<name>TKO_005_GHQ_Sh01710.mov</name>
							<pathurl>file://tri-stor01/Projects/TKO/SHOTS/_Refs_Movs_Burnin_FrameCounter/TKO_005_GHQ_Sh01710.mov</pathurl>
							<rate>
								<timebase>24</timebase>
								<ntsc>TRUE</ntsc>
							</rate>
							<duration>36</duration>
							<timecode>
								<rate>
									<timebase>24</timebase>
									<ntsc>TRUE</ntsc>
								</rate>
								<string>04:25:13:04</string>
								<frame>381916</frame>
								<displayformat>NDF</displayformat>
								<reel>
									<name>C0080005</name>
								</reel>
							</timecode>
							<media>
								<video>
									<samplecharacteristics>
										<rate>
											<timebase>24</timebase>
											<ntsc>TRUE</ntsc>
										</rate>
										<width>3840</width>
										<height>2160</height>
										<anamorphic>FALSE</anamorphic>
										<pixelaspectratio>square</pixelaspectratio>
										<fielddominance>none</fielddominance>
									</samplecharacteristics>
								</video>
							</media>
						</file>
						<logginginfo>
							<description></description>
							<scene></scene>
							<shottake></shottake>
							<lognote></lognote>
							<good></good>
							<originalvideofilename></originalvideofilename>
							<originalaudiofilename></originalaudiofilename>
						</logginginfo>
						<colorinfo>
							<lut></lut>
							<lut1></lut1>
							<asc_sop></asc_sop>
							<asc_sat></asc_sat>
							<lut2></lut2>
						</colorinfo>
						<labels>
							<label2>Violet</label2>
						</labels>
					</clipitem>
					<clipitem id="clipitem-172">
						<masterclipid>masterclip-170</masterclipid>
						<name>TKO_005_GHQ_Sh01720.mov</name>
						<enabled>TRUE</enabled>
						<duration>38</duration>
						<rate>
							<timebase>24</timebase>
							<ntsc>TRUE</ntsc>
						</rate>
						<start>14170</start>
						<end>14200</end>
						<in>4</in>
						<out>34</out>
						<pproTicksIn>42378336000</pproTicksIn>
						<pproTicksOut>360215856000</pproTicksOut>
						<alphatype>none</alphatype>
						<pixelaspectratio>square</pixelaspectratio>
						<anamorphic>FALSE</anamorphic>
						<file id="file-170">
							<name>TKO_005_GHQ_Sh01720.mov</name>
							<pathurl>file://tri-stor01/Projects/TKO/SHOTS/_Refs_Movs_Burnin_FrameCounter/TKO_005_GHQ_Sh01720.mov</pathurl>
							<rate>
								<timebase>24</timebase>
								<ntsc>TRUE</ntsc>
							</rate>
							<duration>38</duration>
							<timecode>
								<rate>
									<timebase>24</timebase>
									<ntsc>TRUE</ntsc>
								</rate>
								<string>20:29:32:22</string>
								<frame>1770550</frame>
								<displayformat>NDF</displayformat>
								<reel>
									<name>A0150006</name>
								</reel>
							</timecode>
							<media>
								<video>
									<samplecharacteristics>
										<rate>
											<timebase>24</timebase>
											<ntsc>TRUE</ntsc>
										</rate>
										<width>4096</width>
										<height>2160</height>
										<anamorphic>FALSE</anamorphic>
										<pixelaspectratio>square</pixelaspectratio>
										<fielddominance>none</fielddominance>
									</samplecharacteristics>
								</video>
							</media>
						</file>
						<logginginfo>
							<description></description>
							<scene></scene>
							<shottake></shottake>
							<lognote></lognote>
							<good></good>
							<originalvideofilename></originalvideofilename>
							<originalaudiofilename></originalaudiofilename>
						</logginginfo>
						<colorinfo>
							<lut></lut>
							<lut1></lut1>
							<asc_sop></asc_sop>
							<asc_sat></asc_sat>
							<lut2></lut2>
						</colorinfo>
						<labels>
							<label2>Violet</label2>
						</labels>
					</clipitem>
					<clipitem id="clipitem-173">
						<masterclipid>masterclip-171</masterclipid>
						<name>TKO_006_FOS_Sh01760.mov</name>
						<enabled>TRUE</enabled>
						<duration>265</duration>
						<rate>
							<timebase>24</timebase>
							<ntsc>TRUE</ntsc>
						</rate>
						<start>14200</start>
						<end>14457</end>
						<in>4</in>
						<out>261</out>
						<pproTicksIn>42378336000</pproTicksIn>
						<pproTicksOut>2765186424000</pproTicksOut>
						<alphatype>none</alphatype>
						<pixelaspectratio>square</pixelaspectratio>
						<anamorphic>FALSE</anamorphic>
						<file id="file-171">
							<name>TKO_006_FOS_Sh01760.mov</name>
							<pathurl>file://tri-stor01/Projects/TKO/SHOTS/_Refs_Movs_Burnin_FrameCounter/TKO_006_FOS_Sh01760.mov</pathurl>
							<rate>
								<timebase>24</timebase>
								<ntsc>TRUE</ntsc>
							</rate>
							<duration>265</duration>
							<timecode>
								<rate>
									<timebase>24</timebase>
									<ntsc>TRUE</ntsc>
								</rate>
								<string>11:34:08:07</string>
								<frame>999559</frame>
								<displayformat>NDF</displayformat>
								<reel>
									<name>A0430008</name>
								</reel>
							</timecode>
							<media>
								<video>
									<samplecharacteristics>
										<rate>
											<timebase>24</timebase>
											<ntsc>TRUE</ntsc>
										</rate>
										<width>4096</width>
										<height>2160</height>
										<anamorphic>FALSE</anamorphic>
										<pixelaspectratio>square</pixelaspectratio>
										<fielddominance>none</fielddominance>
									</samplecharacteristics>
								</video>
							</media>
						</file>
						<logginginfo>
							<description></description>
							<scene></scene>
							<shottake></shottake>
							<lognote></lognote>
							<good></good>
							<originalvideofilename></originalvideofilename>
							<originalaudiofilename></originalaudiofilename>
						</logginginfo>
						<colorinfo>
							<lut></lut>
							<lut1></lut1>
							<asc_sop></asc_sop>
							<asc_sat></asc_sat>
							<lut2></lut2>
						</colorinfo>
						<labels>
							<label2>Violet</label2>
						</labels>
					</clipitem>
					<clipitem id="clipitem-174">
						<masterclipid>masterclip-172</masterclipid>
						<name>TKO_006_FOS_Sh01770.mov</name>
						<enabled>TRUE</enabled>
						<duration>33</duration>
						<rate>
							<timebase>24</timebase>
							<ntsc>TRUE</ntsc>
						</rate>
						<start>14457</start>
						<end>14482</end>
						<in>4</in>
						<out>29</out>
						<pproTicksIn>42378336000</pproTicksIn>
						<pproTicksOut>307242936000</pproTicksOut>
						<alphatype>none</alphatype>
						<pixelaspectratio>square</pixelaspectratio>
						<anamorphic>FALSE</anamorphic>
						<file id="file-172">
							<name>TKO_006_FOS_Sh01770.mov</name>
							<pathurl>file://tri-stor01/Projects/TKO/SHOTS/_Refs_Movs_Burnin_FrameCounter/TKO_006_FOS_Sh01770.mov</pathurl>
							<rate>
								<timebase>24</timebase>
								<ntsc>TRUE</ntsc>
							</rate>
							<duration>33</duration>
							<timecode>
								<rate>
									<timebase>24</timebase>
									<ntsc>TRUE</ntsc>
								</rate>
								<string>12:50:28:14</string>
								<frame>1109486</frame>
								<displayformat>NDF</displayformat>
								<reel>
									<name>B0370017</name>
								</reel>
							</timecode>
							<media>
								<video>
									<samplecharacteristics>
										<rate>
											<timebase>24</timebase>
											<ntsc>TRUE</ntsc>
										</rate>
										<width>4096</width>
										<height>2160</height>
										<anamorphic>FALSE</anamorphic>
										<pixelaspectratio>square</pixelaspectratio>
										<fielddominance>none</fielddominance>
									</samplecharacteristics>
								</video>
							</media>
						</file>
						<logginginfo>
							<description></description>
							<scene></scene>
							<shottake></shottake>
							<lognote></lognote>
							<good></good>
							<originalvideofilename></originalvideofilename>
							<originalaudiofilename></originalaudiofilename>
						</logginginfo>
						<colorinfo>
							<lut></lut>
							<lut1></lut1>
							<asc_sop></asc_sop>
							<asc_sat></asc_sat>
							<lut2></lut2>
						</colorinfo>
						<labels>
							<label2>Violet</label2>
						</labels>
					</clipitem>
					<clipitem id="clipitem-175">
						<masterclipid>masterclip-173</masterclipid>
						<name>TKO_006_FOS_Sh01780.mov</name>
						<enabled>TRUE</enabled>
						<duration>97</duration>
						<rate>
							<timebase>24</timebase>
							<ntsc>TRUE</ntsc>
						</rate>
						<start>14482</start>
						<end>14571</end>
						<in>4</in>
						<out>93</out>
						<pproTicksIn>42378336000</pproTicksIn>
						<pproTicksOut>985296312000</pproTicksOut>
						<alphatype>none</alphatype>
						<pixelaspectratio>square</pixelaspectratio>
						<anamorphic>FALSE</anamorphic>
						<file id="file-173">
							<name>TKO_006_FOS_Sh01780.mov</name>
							<pathurl>file://tri-stor01/Projects/TKO/SHOTS/_Refs_Movs_Burnin_FrameCounter/TKO_006_FOS_Sh01780.mov</pathurl>
							<rate>
								<timebase>24</timebase>
								<ntsc>TRUE</ntsc>
							</rate>
							<duration>97</duration>
							<timecode>
								<rate>
									<timebase>24</timebase>
									<ntsc>TRUE</ntsc>
								</rate>
								<string>12:23:15:17</string>
								<frame>1070297</frame>
								<displayformat>NDF</displayformat>
								<reel>
									<name>B0370013</name>
								</reel>
							</timecode>
							<media>
								<video>
									<samplecharacteristics>
										<rate>
											<timebase>24</timebase>
											<ntsc>TRUE</ntsc>
										</rate>
										<width>4096</width>
										<height>2160</height>
										<anamorphic>FALSE</anamorphic>
										<pixelaspectratio>square</pixelaspectratio>
										<fielddominance>none</fielddominance>
									</samplecharacteristics>
								</video>
							</media>
						</file>
						<logginginfo>
							<description></description>
							<scene></scene>
							<shottake></shottake>
							<lognote></lognote>
							<good></good>
							<originalvideofilename></originalvideofilename>
							<originalaudiofilename></originalaudiofilename>
						</logginginfo>
						<colorinfo>
							<lut></lut>
							<lut1></lut1>
							<asc_sop></asc_sop>
							<asc_sat></asc_sat>
							<lut2></lut2>
						</colorinfo>
						<labels>
							<label2>Violet</label2>
						</labels>
					</clipitem>
					<clipitem id="clipitem-176">
						<masterclipid>masterclip-174</masterclipid>
						<name>TKO_006_FOS_Sh01790.mov</name>
						<enabled>TRUE</enabled>
						<duration>110</duration>
						<rate>
							<timebase>24</timebase>
							<ntsc>TRUE</ntsc>
						</rate>
						<start>14571</start>
						<end>14673</end>
						<in>4</in>
						<out>106</out>
						<pproTicksIn>42378336000</pproTicksIn>
						<pproTicksOut>1123025904000</pproTicksOut>
						<alphatype>none</alphatype>
						<pixelaspectratio>square</pixelaspectratio>
						<anamorphic>FALSE</anamorphic>
						<file id="file-174">
							<name>TKO_006_FOS_Sh01790.mov</name>
							<pathurl>file://tri-stor01/Projects/TKO/SHOTS/_Refs_Movs_Burnin_FrameCounter/TKO_006_FOS_Sh01790.mov</pathurl>
							<rate>
								<timebase>24</timebase>
								<ntsc>TRUE</ntsc>
							</rate>
							<duration>110</duration>
							<timecode>
								<rate>
									<timebase>24</timebase>
									<ntsc>TRUE</ntsc>
								</rate>
								<string>12:50:32:21</string>
								<frame>1109589</frame>
								<displayformat>NDF</displayformat>
								<reel>
									<name>B0370017</name>
								</reel>
							</timecode>
							<media>
								<video>
									<samplecharacteristics>
										<rate>
											<timebase>24</timebase>
											<ntsc>TRUE</ntsc>
										</rate>
										<width>4096</width>
										<height>2160</height>
										<anamorphic>FALSE</anamorphic>
										<pixelaspectratio>square</pixelaspectratio>
										<fielddominance>none</fielddominance>
									</samplecharacteristics>
								</video>
							</media>
						</file>
						<logginginfo>
							<description></description>
							<scene></scene>
							<shottake></shottake>
							<lognote></lognote>
							<good></good>
							<originalvideofilename></originalvideofilename>
							<originalaudiofilename></originalaudiofilename>
						</logginginfo>
						<colorinfo>
							<lut></lut>
							<lut1></lut1>
							<asc_sop></asc_sop>
							<asc_sat></asc_sat>
							<lut2></lut2>
						</colorinfo>
						<labels>
							<label2>Violet</label2>
						</labels>
					</clipitem>
					<clipitem id="clipitem-177">
						<masterclipid>masterclip-175</masterclipid>
						<name>TKO_006_FOS_Sh01800.mov</name>
						<enabled>TRUE</enabled>
						<duration>70</duration>
						<rate>
							<timebase>24</timebase>
							<ntsc>TRUE</ntsc>
						</rate>
						<start>14673</start>
						<end>14735</end>
						<in>4</in>
						<out>66</out>
						<pproTicksIn>42378336000</pproTicksIn>
						<pproTicksOut>699242544000</pproTicksOut>
						<alphatype>none</alphatype>
						<pixelaspectratio>square</pixelaspectratio>
						<anamorphic>FALSE</anamorphic>
						<file id="file-175">
							<name>TKO_006_FOS_Sh01800.mov</name>
							<pathurl>file://tri-stor01/Projects/TKO/SHOTS/_Refs_Movs_Burnin_FrameCounter/TKO_006_FOS_Sh01800.mov</pathurl>
							<rate>
								<timebase>24</timebase>
								<ntsc>TRUE</ntsc>
							</rate>
							<duration>70</duration>
							<timecode>
								<rate>
									<timebase>24</timebase>
									<ntsc>TRUE</ntsc>
								</rate>
								<string>11:34:26:03</string>
								<frame>999987</frame>
								<displayformat>NDF</displayformat>
								<reel>
									<name>A0430008</name>
								</reel>
							</timecode>
							<media>
								<video>
									<samplecharacteristics>
										<rate>
											<timebase>24</timebase>
											<ntsc>TRUE</ntsc>
										</rate>
										<width>4096</width>
										<height>2160</height>
										<anamorphic>FALSE</anamorphic>
										<pixelaspectratio>square</pixelaspectratio>
										<fielddominance>none</fielddominance>
									</samplecharacteristics>
								</video>
							</media>
						</file>
						<logginginfo>
							<description></description>
							<scene></scene>
							<shottake></shottake>
							<lognote></lognote>
							<good></good>
							<originalvideofilename></originalvideofilename>
							<originalaudiofilename></originalaudiofilename>
						</logginginfo>
						<colorinfo>
							<lut></lut>
							<lut1></lut1>
							<asc_sop></asc_sop>
							<asc_sat></asc_sat>
							<lut2></lut2>
						</colorinfo>
						<labels>
							<label2>Violet</label2>
						</labels>
					</clipitem>
					<clipitem id="clipitem-178">
						<masterclipid>masterclip-176</masterclipid>
						<name>TKO_006_FOS_Sh01810.mov</name>
						<enabled>TRUE</enabled>
						<duration>54</duration>
						<rate>
							<timebase>24</timebase>
							<ntsc>TRUE</ntsc>
						</rate>
						<start>14735</start>
						<end>14781</end>
						<in>4</in>
						<out>50</out>
						<pproTicksIn>42378336000</pproTicksIn>
						<pproTicksOut>529729200000</pproTicksOut>
						<alphatype>none</alphatype>
						<pixelaspectratio>square</pixelaspectratio>
						<anamorphic>FALSE</anamorphic>
						<file id="file-176">
							<name>TKO_006_FOS_Sh01810.mov</name>
							<pathurl>file://tri-stor01/Projects/TKO/SHOTS/_Refs_Movs_Burnin_FrameCounter/TKO_006_FOS_Sh01810.mov</pathurl>
							<rate>
								<timebase>24</timebase>
								<ntsc>TRUE</ntsc>
							</rate>
							<duration>54</duration>
							<timecode>
								<rate>
									<timebase>24</timebase>
									<ntsc>TRUE</ntsc>
								</rate>
								<string>14:01:44:23</string>
								<frame>1212119</frame>
								<displayformat>NDF</displayformat>
								<reel>
									<name>B0380001</name>
								</reel>
							</timecode>
							<media>
								<video>
									<samplecharacteristics>
										<rate>
											<timebase>24</timebase>
											<ntsc>TRUE</ntsc>
										</rate>
										<width>4096</width>
										<height>2160</height>
										<anamorphic>FALSE</anamorphic>
										<pixelaspectratio>square</pixelaspectratio>
										<fielddominance>none</fielddominance>
									</samplecharacteristics>
								</video>
							</media>
						</file>
						<logginginfo>
							<description></description>
							<scene></scene>
							<shottake></shottake>
							<lognote></lognote>
							<good></good>
							<originalvideofilename></originalvideofilename>
							<originalaudiofilename></originalaudiofilename>
						</logginginfo>
						<colorinfo>
							<lut></lut>
							<lut1></lut1>
							<asc_sop></asc_sop>
							<asc_sat></asc_sat>
							<lut2></lut2>
						</colorinfo>
						<labels>
							<label2>Violet</label2>
						</labels>
					</clipitem>
					<clipitem id="clipitem-179">
						<masterclipid>masterclip-177</masterclipid>
						<name>TKO_006_FOS_Sh01820.mov</name>
						<enabled>TRUE</enabled>
						<duration>111</duration>
						<rate>
							<timebase>24</timebase>
							<ntsc>TRUE</ntsc>
						</rate>
						<start>14781</start>
						<end>14884</end>
						<in>4</in>
						<out>107</out>
						<pproTicksIn>42378336000</pproTicksIn>
						<pproTicksOut>1133620488000</pproTicksOut>
						<alphatype>none</alphatype>
						<pixelaspectratio>square</pixelaspectratio>
						<anamorphic>FALSE</anamorphic>
						<file id="file-177">
							<name>TKO_006_FOS_Sh01820.mov</name>
							<pathurl>file://tri-stor01/Projects/TKO/SHOTS/_Refs_Movs_Burnin_FrameCounter/TKO_006_FOS_Sh01820.mov</pathurl>
							<rate>
								<timebase>24</timebase>
								<ntsc>TRUE</ntsc>
							</rate>
							<duration>111</duration>
							<timecode>
								<rate>
									<timebase>24</timebase>
									<ntsc>TRUE</ntsc>
								</rate>
								<string>12:50:41:01</string>
								<frame>1109785</frame>
								<displayformat>NDF</displayformat>
								<reel>
									<name>B0370017</name>
								</reel>
							</timecode>
							<media>
								<video>
									<samplecharacteristics>
										<rate>
											<timebase>24</timebase>
											<ntsc>TRUE</ntsc>
										</rate>
										<width>4096</width>
										<height>2160</height>
										<anamorphic>FALSE</anamorphic>
										<pixelaspectratio>square</pixelaspectratio>
										<fielddominance>none</fielddominance>
									</samplecharacteristics>
								</video>
							</media>
						</file>
						<logginginfo>
							<description></description>
							<scene></scene>
							<shottake></shottake>
							<lognote></lognote>
							<good></good>
							<originalvideofilename></originalvideofilename>
							<originalaudiofilename></originalaudiofilename>
						</logginginfo>
						<colorinfo>
							<lut></lut>
							<lut1></lut1>
							<asc_sop></asc_sop>
							<asc_sat></asc_sat>
							<lut2></lut2>
						</colorinfo>
						<labels>
							<label2>Violet</label2>
						</labels>
					</clipitem>
					<clipitem id="clipitem-180">
						<masterclipid>masterclip-178</masterclipid>
						<name>TKO_006_FOS_Sh01830.mov</name>
						<enabled>TRUE</enabled>
						<duration>108</duration>
						<rate>
							<timebase>24</timebase>
							<ntsc>TRUE</ntsc>
						</rate>
						<start>14884</start>
						<end>14984</end>
						<in>4</in>
						<out>104</out>
						<pproTicksIn>42378336000</pproTicksIn>
						<pproTicksOut>1101836736000</pproTicksOut>
						<alphatype>none</alphatype>
						<pixelaspectratio>square</pixelaspectratio>
						<anamorphic>FALSE</anamorphic>
						<file id="file-178">
							<name>TKO_006_FOS_Sh01830.mov</name>
							<pathurl>file://tri-stor01/Projects/TKO/SHOTS/_Refs_Movs_Burnin_FrameCounter/TKO_006_FOS_Sh01830.mov</pathurl>
							<rate>
								<timebase>24</timebase>
								<ntsc>TRUE</ntsc>
							</rate>
							<duration>108</duration>
							<timecode>
								<rate>
									<timebase>24</timebase>
									<ntsc>TRUE</ntsc>
								</rate>
								<string>12:47:01:18</string>
								<frame>1104522</frame>
								<displayformat>NDF</displayformat>
								<reel>
									<name>A0430013</name>
								</reel>
							</timecode>
							<media>
								<video>
									<samplecharacteristics>
										<rate>
											<timebase>24</timebase>
											<ntsc>TRUE</ntsc>
										</rate>
										<width>4096</width>
										<height>2160</height>
										<anamorphic>FALSE</anamorphic>
										<pixelaspectratio>square</pixelaspectratio>
										<fielddominance>none</fielddominance>
									</samplecharacteristics>
								</video>
							</media>
						</file>
						<logginginfo>
							<description></description>
							<scene></scene>
							<shottake></shottake>
							<lognote></lognote>
							<good></good>
							<originalvideofilename></originalvideofilename>
							<originalaudiofilename></originalaudiofilename>
						</logginginfo>
						<colorinfo>
							<lut></lut>
							<lut1></lut1>
							<asc_sop></asc_sop>
							<asc_sat></asc_sat>
							<lut2></lut2>
						</colorinfo>
						<labels>
							<label2>Violet</label2>
						</labels>
					</clipitem>
					<clipitem id="clipitem-181">
						<masterclipid>masterclip-179</masterclipid>
						<name>TKO_006_FOS_Sh01840.mov</name>
						<enabled>TRUE</enabled>
						<duration>145</duration>
						<rate>
							<timebase>24</timebase>
							<ntsc>TRUE</ntsc>
						</rate>
						<start>14984</start>
						<end>15121</end>
						<in>4</in>
						<out>141</out>
						<pproTicksIn>42378336000</pproTicksIn>
						<pproTicksOut>1493836344000</pproTicksOut>
						<alphatype>none</alphatype>
						<pixelaspectratio>square</pixelaspectratio>
						<anamorphic>FALSE</anamorphic>
						<file id="file-179">
							<name>TKO_006_FOS_Sh01840.mov</name>
							<pathurl>file://tri-stor01/Projects/TKO/SHOTS/_Refs_Movs_Burnin_FrameCounter/TKO_006_FOS_Sh01840.mov</pathurl>
							<rate>
								<timebase>24</timebase>
								<ntsc>TRUE</ntsc>
							</rate>
							<duration>145</duration>
							<timecode>
								<rate>
									<timebase>24</timebase>
									<ntsc>TRUE</ntsc>
								</rate>
								<string>12:50:49:14</string>
								<frame>1109990</frame>
								<displayformat>NDF</displayformat>
								<reel>
									<name>B0370017</name>
								</reel>
							</timecode>
							<media>
								<video>
									<samplecharacteristics>
										<rate>
											<timebase>24</timebase>
											<ntsc>TRUE</ntsc>
										</rate>
										<width>4096</width>
										<height>2160</height>
										<anamorphic>FALSE</anamorphic>
										<pixelaspectratio>square</pixelaspectratio>
										<fielddominance>none</fielddominance>
									</samplecharacteristics>
								</video>
							</media>
						</file>
						<logginginfo>
							<description></description>
							<scene></scene>
							<shottake></shottake>
							<lognote></lognote>
							<good></good>
							<originalvideofilename></originalvideofilename>
							<originalaudiofilename></originalaudiofilename>
						</logginginfo>
						<colorinfo>
							<lut></lut>
							<lut1></lut1>
							<asc_sop></asc_sop>
							<asc_sat></asc_sat>
							<lut2></lut2>
						</colorinfo>
						<labels>
							<label2>Violet</label2>
						</labels>
					</clipitem>
					<clipitem id="clipitem-182">
						<masterclipid>masterclip-180</masterclipid>
						<name>TKO_006_FOS_Sh01850.mov</name>
						<enabled>TRUE</enabled>
						<duration>52</duration>
						<rate>
							<timebase>24</timebase>
							<ntsc>TRUE</ntsc>
						</rate>
						<start>15121</start>
						<end>15165</end>
						<in>4</in>
						<out>48</out>
						<pproTicksIn>42378336000</pproTicksIn>
						<pproTicksOut>508540032000</pproTicksOut>
						<alphatype>none</alphatype>
						<pixelaspectratio>square</pixelaspectratio>
						<anamorphic>FALSE</anamorphic>
						<file id="file-180">
							<name>TKO_006_FOS_Sh01850.mov</name>
							<pathurl>file://tri-stor01/Projects/TKO/SHOTS/_Refs_Movs_Burnin_FrameCounter/TKO_006_FOS_Sh01850.mov</pathurl>
							<rate>
								<timebase>24</timebase>
								<ntsc>TRUE</ntsc>
							</rate>
							<duration>52</duration>
							<timecode>
								<rate>
									<timebase>24</timebase>
									<ntsc>TRUE</ntsc>
								</rate>
								<string>12:47:13:15</string>
								<frame>1104807</frame>
								<displayformat>NDF</displayformat>
								<reel>
									<name>A0430013</name>
								</reel>
							</timecode>
							<media>
								<video>
									<samplecharacteristics>
										<rate>
											<timebase>24</timebase>
											<ntsc>TRUE</ntsc>
										</rate>
										<width>4096</width>
										<height>2160</height>
										<anamorphic>FALSE</anamorphic>
										<pixelaspectratio>square</pixelaspectratio>
										<fielddominance>none</fielddominance>
									</samplecharacteristics>
								</video>
							</media>
						</file>
						<logginginfo>
							<description></description>
							<scene></scene>
							<shottake></shottake>
							<lognote></lognote>
							<good></good>
							<originalvideofilename></originalvideofilename>
							<originalaudiofilename></originalaudiofilename>
						</logginginfo>
						<colorinfo>
							<lut></lut>
							<lut1></lut1>
							<asc_sop></asc_sop>
							<asc_sat></asc_sat>
							<lut2></lut2>
						</colorinfo>
						<labels>
							<label2>Violet</label2>
						</labels>
					</clipitem>
					<clipitem id="clipitem-183">
						<masterclipid>masterclip-181</masterclipid>
						<name>TKO_006_FOS_Sh01860.mov</name>
						<enabled>TRUE</enabled>
						<duration>48</duration>
						<rate>
							<timebase>24</timebase>
							<ntsc>TRUE</ntsc>
						</rate>
						<start>15165</start>
						<end>15205</end>
						<in>4</in>
						<out>44</out>
						<pproTicksIn>42378336000</pproTicksIn>
						<pproTicksOut>466161696000</pproTicksOut>
						<alphatype>none</alphatype>
						<pixelaspectratio>square</pixelaspectratio>
						<anamorphic>FALSE</anamorphic>
						<file id="file-181">
							<name>TKO_006_FOS_Sh01860.mov</name>
							<pathurl>file://tri-stor01/Projects/TKO/SHOTS/_Refs_Movs_Burnin_FrameCounter/TKO_006_FOS_Sh01860.mov</pathurl>
							<rate>
								<timebase>24</timebase>
								<ntsc>TRUE</ntsc>
							</rate>
							<duration>48</duration>
							<timecode>
								<rate>
									<timebase>24</timebase>
									<ntsc>TRUE</ntsc>
								</rate>
								<string>12:47:14:09</string>
								<frame>1104825</frame>
								<displayformat>NDF</displayformat>
								<reel>
									<name>B0370016</name>
								</reel>
							</timecode>
							<media>
								<video>
									<samplecharacteristics>
										<rate>
											<timebase>24</timebase>
											<ntsc>TRUE</ntsc>
										</rate>
										<width>4096</width>
										<height>2160</height>
										<anamorphic>FALSE</anamorphic>
										<pixelaspectratio>square</pixelaspectratio>
										<fielddominance>none</fielddominance>
									</samplecharacteristics>
								</video>
							</media>
						</file>
						<logginginfo>
							<description></description>
							<scene></scene>
							<shottake></shottake>
							<lognote></lognote>
							<good></good>
							<originalvideofilename></originalvideofilename>
							<originalaudiofilename></originalaudiofilename>
						</logginginfo>
						<colorinfo>
							<lut></lut>
							<lut1></lut1>
							<asc_sop></asc_sop>
							<asc_sat></asc_sat>
							<lut2></lut2>
						</colorinfo>
						<labels>
							<label2>Violet</label2>
						</labels>
					</clipitem>
					<clipitem id="clipitem-184">
						<masterclipid>masterclip-182</masterclipid>
						<name>TKO_006_FOS_Sh01870.mov</name>
						<enabled>TRUE</enabled>
						<duration>75</duration>
						<rate>
							<timebase>24</timebase>
							<ntsc>TRUE</ntsc>
						</rate>
						<start>15205</start>
						<end>15272</end>
						<in>4</in>
						<out>71</out>
						<pproTicksIn>42378336000</pproTicksIn>
						<pproTicksOut>752215464000</pproTicksOut>
						<alphatype>none</alphatype>
						<pixelaspectratio>square</pixelaspectratio>
						<anamorphic>FALSE</anamorphic>
						<file id="file-182">
							<name>TKO_006_FOS_Sh01870.mov</name>
							<pathurl>file://tri-stor01/Projects/TKO/SHOTS/_Refs_Movs_Burnin_FrameCounter/TKO_006_FOS_Sh01870.mov</pathurl>
							<rate>
								<timebase>24</timebase>
								<ntsc>TRUE</ntsc>
							</rate>
							<duration>75</duration>
							<timecode>
								<rate>
									<timebase>24</timebase>
									<ntsc>TRUE</ntsc>
								</rate>
								<string>12:47:16:13</string>
								<frame>1104877</frame>
								<displayformat>NDF</displayformat>
								<reel>
									<name>A0430013</name>
								</reel>
							</timecode>
							<media>
								<video>
									<samplecharacteristics>
										<rate>
											<timebase>24</timebase>
											<ntsc>TRUE</ntsc>
										</rate>
										<width>4096</width>
										<height>2160</height>
										<anamorphic>FALSE</anamorphic>
										<pixelaspectratio>square</pixelaspectratio>
										<fielddominance>none</fielddominance>
									</samplecharacteristics>
								</video>
							</media>
						</file>
						<logginginfo>
							<description></description>
							<scene></scene>
							<shottake></shottake>
							<lognote></lognote>
							<good></good>
							<originalvideofilename></originalvideofilename>
							<originalaudiofilename></originalaudiofilename>
						</logginginfo>
						<colorinfo>
							<lut></lut>
							<lut1></lut1>
							<asc_sop></asc_sop>
							<asc_sat></asc_sat>
							<lut2></lut2>
						</colorinfo>
						<labels>
							<label2>Violet</label2>
						</labels>
					</clipitem>
					<clipitem id="clipitem-185">
						<masterclipid>masterclip-183</masterclipid>
						<name>TKO_006_FOS_Sh01880.mov</name>
						<enabled>TRUE</enabled>
						<duration>46</duration>
						<rate>
							<timebase>24</timebase>
							<ntsc>TRUE</ntsc>
						</rate>
						<start>15272</start>
						<end>15310</end>
						<in>4</in>
						<out>42</out>
						<pproTicksIn>42378336000</pproTicksIn>
						<pproTicksOut>444972528000</pproTicksOut>
						<alphatype>none</alphatype>
						<pixelaspectratio>square</pixelaspectratio>
						<anamorphic>FALSE</anamorphic>
						<file id="file-183">
							<name>TKO_006_FOS_Sh01880.mov</name>
							<pathurl>file://tri-stor01/Projects/TKO/SHOTS/_Refs_Movs_Burnin_FrameCounter/TKO_006_FOS_Sh01880.mov</pathurl>
							<rate>
								<timebase>24</timebase>
								<ntsc>TRUE</ntsc>
							</rate>
							<duration>46</duration>
							<timecode>
								<rate>
									<timebase>24</timebase>
									<ntsc>TRUE</ntsc>
								</rate>
								<string>12:51:06:05</string>
								<frame>1110389</frame>
								<displayformat>NDF</displayformat>
								<reel>
									<name>B0370017</name>
								</reel>
							</timecode>
							<media>
								<video>
									<samplecharacteristics>
										<rate>
											<timebase>24</timebase>
											<ntsc>TRUE</ntsc>
										</rate>
										<width>4096</width>
										<height>2160</height>
										<anamorphic>FALSE</anamorphic>
										<pixelaspectratio>square</pixelaspectratio>
										<fielddominance>none</fielddominance>
									</samplecharacteristics>
								</video>
							</media>
						</file>
						<logginginfo>
							<description></description>
							<scene></scene>
							<shottake></shottake>
							<lognote></lognote>
							<good></good>
							<originalvideofilename></originalvideofilename>
							<originalaudiofilename></originalaudiofilename>
						</logginginfo>
						<colorinfo>
							<lut></lut>
							<lut1></lut1>
							<asc_sop></asc_sop>
							<asc_sat></asc_sat>
							<lut2></lut2>
						</colorinfo>
						<labels>
							<label2>Violet</label2>
						</labels>
					</clipitem>
					<clipitem id="clipitem-186">
						<masterclipid>masterclip-184</masterclipid>
						<name>TKO_006_FOS_Sh01890.mov</name>
						<enabled>TRUE</enabled>
						<duration>56</duration>
						<rate>
							<timebase>24</timebase>
							<ntsc>TRUE</ntsc>
						</rate>
						<start>15310</start>
						<end>15358</end>
						<in>4</in>
						<out>52</out>
						<pproTicksIn>42378336000</pproTicksIn>
						<pproTicksOut>550918368000</pproTicksOut>
						<alphatype>none</alphatype>
						<pixelaspectratio>square</pixelaspectratio>
						<anamorphic>FALSE</anamorphic>
						<file id="file-184">
							<name>TKO_006_FOS_Sh01890.mov</name>
							<pathurl>file://tri-stor01/Projects/TKO/SHOTS/_Refs_Movs_Burnin_FrameCounter/TKO_006_FOS_Sh01890.mov</pathurl>
							<rate>
								<timebase>24</timebase>
								<ntsc>TRUE</ntsc>
							</rate>
							<duration>56</duration>
							<timecode>
								<rate>
									<timebase>24</timebase>
									<ntsc>TRUE</ntsc>
								</rate>
								<string>12:51:08:10</string>
								<frame>1110442</frame>
								<displayformat>NDF</displayformat>
								<reel>
									<name>A0430014</name>
								</reel>
							</timecode>
							<media>
								<video>
									<samplecharacteristics>
										<rate>
											<timebase>24</timebase>
											<ntsc>TRUE</ntsc>
										</rate>
										<width>4096</width>
										<height>2160</height>
										<anamorphic>FALSE</anamorphic>
										<pixelaspectratio>square</pixelaspectratio>
										<fielddominance>none</fielddominance>
									</samplecharacteristics>
								</video>
							</media>
						</file>
						<logginginfo>
							<description></description>
							<scene></scene>
							<shottake></shottake>
							<lognote></lognote>
							<good></good>
							<originalvideofilename></originalvideofilename>
							<originalaudiofilename></originalaudiofilename>
						</logginginfo>
						<colorinfo>
							<lut></lut>
							<lut1></lut1>
							<asc_sop></asc_sop>
							<asc_sat></asc_sat>
							<lut2></lut2>
						</colorinfo>
						<labels>
							<label2>Violet</label2>
						</labels>
					</clipitem>
					<clipitem id="clipitem-187">
						<masterclipid>masterclip-185</masterclipid>
						<name>TKO_006_FOS_Sh01900.mov</name>
						<enabled>TRUE</enabled>
						<duration>44</duration>
						<rate>
							<timebase>24</timebase>
							<ntsc>TRUE</ntsc>
						</rate>
						<start>15358</start>
						<end>15394</end>
						<in>4</in>
						<out>40</out>
						<pproTicksIn>42378336000</pproTicksIn>
						<pproTicksOut>423783360000</pproTicksOut>
						<alphatype>none</alphatype>
						<pixelaspectratio>square</pixelaspectratio>
						<anamorphic>FALSE</anamorphic>
						<file id="file-185">
							<name>TKO_006_FOS_Sh01900.mov</name>
							<pathurl>file://tri-stor01/Projects/TKO/SHOTS/_Refs_Movs_Burnin_FrameCounter/TKO_006_FOS_Sh01900.mov</pathurl>
							<rate>
								<timebase>24</timebase>
								<ntsc>TRUE</ntsc>
							</rate>
							<duration>44</duration>
							<timecode>
								<rate>
									<timebase>24</timebase>
									<ntsc>TRUE</ntsc>
								</rate>
								<string>12:51:10:02</string>
								<frame>1110482</frame>
								<displayformat>NDF</displayformat>
								<reel>
									<name>B0370017</name>
								</reel>
							</timecode>
							<media>
								<video>
									<samplecharacteristics>
										<rate>
											<timebase>24</timebase>
											<ntsc>TRUE</ntsc>
										</rate>
										<width>4096</width>
										<height>2160</height>
										<anamorphic>FALSE</anamorphic>
										<pixelaspectratio>square</pixelaspectratio>
										<fielddominance>none</fielddominance>
									</samplecharacteristics>
								</video>
							</media>
						</file>
						<logginginfo>
							<description></description>
							<scene></scene>
							<shottake></shottake>
							<lognote></lognote>
							<good></good>
							<originalvideofilename></originalvideofilename>
							<originalaudiofilename></originalaudiofilename>
						</logginginfo>
						<colorinfo>
							<lut></lut>
							<lut1></lut1>
							<asc_sop></asc_sop>
							<asc_sat></asc_sat>
							<lut2></lut2>
						</colorinfo>
						<labels>
							<label2>Violet</label2>
						</labels>
					</clipitem>
					<clipitem id="clipitem-188">
						<masterclipid>masterclip-186</masterclipid>
						<name>TKO_006_FOS_Sh01910.mov</name>
						<enabled>TRUE</enabled>
						<duration>35</duration>
						<rate>
							<timebase>24</timebase>
							<ntsc>TRUE</ntsc>
						</rate>
						<start>15394</start>
						<end>15421</end>
						<in>4</in>
						<out>31</out>
						<pproTicksIn>42378336000</pproTicksIn>
						<pproTicksOut>328432104000</pproTicksOut>
						<alphatype>none</alphatype>
						<pixelaspectratio>square</pixelaspectratio>
						<anamorphic>FALSE</anamorphic>
						<file id="file-186">
							<name>TKO_006_FOS_Sh01910.mov</name>
							<pathurl>file://tri-stor01/Projects/TKO/SHOTS/_Refs_Movs_Burnin_FrameCounter/TKO_006_FOS_Sh01910.mov</pathurl>
							<rate>
								<timebase>24</timebase>
								<ntsc>TRUE</ntsc>
							</rate>
							<duration>35</duration>
							<timecode>
								<rate>
									<timebase>24</timebase>
									<ntsc>TRUE</ntsc>
								</rate>
								<string>12:51:11:22</string>
								<frame>1110526</frame>
								<displayformat>NDF</displayformat>
								<reel>
									<name>A0430014</name>
								</reel>
							</timecode>
							<media>
								<video>
									<samplecharacteristics>
										<rate>
											<timebase>24</timebase>
											<ntsc>TRUE</ntsc>
										</rate>
										<width>4096</width>
										<height>2160</height>
										<anamorphic>FALSE</anamorphic>
										<pixelaspectratio>square</pixelaspectratio>
										<fielddominance>none</fielddominance>
									</samplecharacteristics>
								</video>
							</media>
						</file>
						<logginginfo>
							<description></description>
							<scene></scene>
							<shottake></shottake>
							<lognote></lognote>
							<good></good>
							<originalvideofilename></originalvideofilename>
							<originalaudiofilename></originalaudiofilename>
						</logginginfo>
						<colorinfo>
							<lut></lut>
							<lut1></lut1>
							<asc_sop></asc_sop>
							<asc_sat></asc_sat>
							<lut2></lut2>
						</colorinfo>
						<labels>
							<label2>Violet</label2>
						</labels>
					</clipitem>
					<clipitem id="clipitem-189">
						<masterclipid>masterclip-187</masterclipid>
						<name>TKO_006_FOS_Sh01920.mov</name>
						<enabled>TRUE</enabled>
						<duration>84</duration>
						<rate>
							<timebase>24</timebase>
							<ntsc>TRUE</ntsc>
						</rate>
						<start>15421</start>
						<end>15497</end>
						<in>4</in>
						<out>80</out>
						<pproTicksIn>42378336000</pproTicksIn>
						<pproTicksOut>847566720000</pproTicksOut>
						<alphatype>none</alphatype>
						<pixelaspectratio>square</pixelaspectratio>
						<anamorphic>FALSE</anamorphic>
						<file id="file-187">
							<name>TKO_006_FOS_Sh01920.mov</name>
							<pathurl>file://tri-stor01/Projects/TKO/SHOTS/_Refs_Movs_Burnin_FrameCounter/TKO_006_FOS_Sh01920.mov</pathurl>
							<rate>
								<timebase>24</timebase>
								<ntsc>TRUE</ntsc>
							</rate>
							<duration>84</duration>
							<timecode>
								<rate>
									<timebase>24</timebase>
									<ntsc>TRUE</ntsc>
								</rate>
								<string>12:51:13:10</string>
								<frame>1110562</frame>
								<displayformat>NDF</displayformat>
								<reel>
									<name>B0370017</name>
								</reel>
							</timecode>
							<media>
								<video>
									<samplecharacteristics>
										<rate>
											<timebase>24</timebase>
											<ntsc>TRUE</ntsc>
										</rate>
										<width>4096</width>
										<height>2160</height>
										<anamorphic>FALSE</anamorphic>
										<pixelaspectratio>square</pixelaspectratio>
										<fielddominance>none</fielddominance>
									</samplecharacteristics>
								</video>
							</media>
						</file>
						<logginginfo>
							<description></description>
							<scene></scene>
							<shottake></shottake>
							<lognote></lognote>
							<good></good>
							<originalvideofilename></originalvideofilename>
							<originalaudiofilename></originalaudiofilename>
						</logginginfo>
						<colorinfo>
							<lut></lut>
							<lut1></lut1>
							<asc_sop></asc_sop>
							<asc_sat></asc_sat>
							<lut2></lut2>
						</colorinfo>
						<labels>
							<label2>Violet</label2>
						</labels>
					</clipitem>
					<clipitem id="clipitem-190">
						<masterclipid>masterclip-188</masterclipid>
						<name>TKO_006_FOS_Sh01930.mov</name>
						<enabled>TRUE</enabled>
						<duration>101</duration>
						<rate>
							<timebase>24</timebase>
							<ntsc>TRUE</ntsc>
						</rate>
						<start>15497</start>
						<end>15590</end>
						<in>4</in>
						<out>97</out>
						<pproTicksIn>42378336000</pproTicksIn>
						<pproTicksOut>1027674648000</pproTicksOut>
						<alphatype>none</alphatype>
						<pixelaspectratio>square</pixelaspectratio>
						<anamorphic>FALSE</anamorphic>
						<file id="file-188">
							<name>TKO_006_FOS_Sh01930.mov</name>
							<pathurl>file://tri-stor01/Projects/TKO/SHOTS/_Refs_Movs_Burnin_FrameCounter/TKO_006_FOS_Sh01930.mov</pathurl>
							<rate>
								<timebase>24</timebase>
								<ntsc>TRUE</ntsc>
							</rate>
							<duration>101</duration>
							<timecode>
								<rate>
									<timebase>24</timebase>
									<ntsc>TRUE</ntsc>
								</rate>
								<string>12:51:15:13</string>
								<frame>1110613</frame>
								<displayformat>NDF</displayformat>
								<reel>
									<name>A0430014</name>
								</reel>
							</timecode>
							<media>
								<video>
									<samplecharacteristics>
										<rate>
											<timebase>24</timebase>
											<ntsc>TRUE</ntsc>
										</rate>
										<width>4096</width>
										<height>2160</height>
										<anamorphic>FALSE</anamorphic>
										<pixelaspectratio>square</pixelaspectratio>
										<fielddominance>none</fielddominance>
									</samplecharacteristics>
								</video>
							</media>
						</file>
						<logginginfo>
							<description></description>
							<scene></scene>
							<shottake></shottake>
							<lognote></lognote>
							<good></good>
							<originalvideofilename></originalvideofilename>
							<originalaudiofilename></originalaudiofilename>
						</logginginfo>
						<colorinfo>
							<lut></lut>
							<lut1></lut1>
							<asc_sop></asc_sop>
							<asc_sat></asc_sat>
							<lut2></lut2>
						</colorinfo>
						<labels>
							<label2>Violet</label2>
						</labels>
					</clipitem>
					<clipitem id="clipitem-191">
						<masterclipid>masterclip-189</masterclipid>
						<name>TKO_006_FOS_Sh01940.mov</name>
						<enabled>TRUE</enabled>
						<duration>48</duration>
						<rate>
							<timebase>24</timebase>
							<ntsc>TRUE</ntsc>
						</rate>
						<start>15590</start>
						<end>15630</end>
						<in>4</in>
						<out>44</out>
						<pproTicksIn>42378336000</pproTicksIn>
						<pproTicksOut>466161696000</pproTicksOut>
						<alphatype>none</alphatype>
						<pixelaspectratio>square</pixelaspectratio>
						<anamorphic>FALSE</anamorphic>
						<file id="file-189">
							<name>TKO_006_FOS_Sh01940.mov</name>
							<pathurl>file://tri-stor01/Projects/TKO/SHOTS/_Refs_Movs_Burnin_FrameCounter/TKO_006_FOS_Sh01940.mov</pathurl>
							<rate>
								<timebase>24</timebase>
								<ntsc>TRUE</ntsc>
							</rate>
							<duration>48</duration>
							<timecode>
								<rate>
									<timebase>24</timebase>
									<ntsc>TRUE</ntsc>
								</rate>
								<string>12:51:21:00</string>
								<frame>1110744</frame>
								<displayformat>NDF</displayformat>
								<reel>
									<name>B0370017</name>
								</reel>
							</timecode>
							<media>
								<video>
									<samplecharacteristics>
										<rate>
											<timebase>24</timebase>
											<ntsc>TRUE</ntsc>
										</rate>
										<width>4096</width>
										<height>2160</height>
										<anamorphic>FALSE</anamorphic>
										<pixelaspectratio>square</pixelaspectratio>
										<fielddominance>none</fielddominance>
									</samplecharacteristics>
								</video>
							</media>
						</file>
						<logginginfo>
							<description></description>
							<scene></scene>
							<shottake></shottake>
							<lognote></lognote>
							<good></good>
							<originalvideofilename></originalvideofilename>
							<originalaudiofilename></originalaudiofilename>
						</logginginfo>
						<colorinfo>
							<lut></lut>
							<lut1></lut1>
							<asc_sop></asc_sop>
							<asc_sat></asc_sat>
							<lut2></lut2>
						</colorinfo>
						<labels>
							<label2>Violet</label2>
						</labels>
					</clipitem>
					<clipitem id="clipitem-192">
						<masterclipid>masterclip-190</masterclipid>
						<name>TKO_006_FOS_Sh01950.mov</name>
						<enabled>TRUE</enabled>
						<duration>53</duration>
						<rate>
							<timebase>24</timebase>
							<ntsc>TRUE</ntsc>
						</rate>
						<start>15630</start>
						<end>15675</end>
						<in>4</in>
						<out>49</out>
						<pproTicksIn>42378336000</pproTicksIn>
						<pproTicksOut>519134616000</pproTicksOut>
						<alphatype>none</alphatype>
						<pixelaspectratio>square</pixelaspectratio>
						<anamorphic>FALSE</anamorphic>
						<file id="file-190">
							<name>TKO_006_FOS_Sh01950.mov</name>
							<pathurl>file://tri-stor01/Projects/TKO/SHOTS/_Refs_Movs_Burnin_FrameCounter/TKO_006_FOS_Sh01950.mov</pathurl>
							<rate>
								<timebase>24</timebase>
								<ntsc>TRUE</ntsc>
							</rate>
							<duration>53</duration>
							<timecode>
								<rate>
									<timebase>24</timebase>
									<ntsc>TRUE</ntsc>
								</rate>
								<string>12:29:20:21</string>
								<frame>1079061</frame>
								<displayformat>NDF</displayformat>
								<reel>
									<name>B0370014</name>
								</reel>
							</timecode>
							<media>
								<video>
									<samplecharacteristics>
										<rate>
											<timebase>24</timebase>
											<ntsc>TRUE</ntsc>
										</rate>
										<width>4096</width>
										<height>2160</height>
										<anamorphic>FALSE</anamorphic>
										<pixelaspectratio>square</pixelaspectratio>
										<fielddominance>none</fielddominance>
									</samplecharacteristics>
								</video>
							</media>
						</file>
						<logginginfo>
							<description></description>
							<scene></scene>
							<shottake></shottake>
							<lognote></lognote>
							<good></good>
							<originalvideofilename></originalvideofilename>
							<originalaudiofilename></originalaudiofilename>
						</logginginfo>
						<colorinfo>
							<lut></lut>
							<lut1></lut1>
							<asc_sop></asc_sop>
							<asc_sat></asc_sat>
							<lut2></lut2>
						</colorinfo>
						<labels>
							<label2>Violet</label2>
						</labels>
					</clipitem>
					<clipitem id="clipitem-193">
						<masterclipid>masterclip-191</masterclipid>
						<name>TKO_006_FOS_Sh01960.mov</name>
						<enabled>TRUE</enabled>
						<duration>52</duration>
						<rate>
							<timebase>24</timebase>
							<ntsc>TRUE</ntsc>
						</rate>
						<start>15675</start>
						<end>15719</end>
						<in>4</in>
						<out>48</out>
						<pproTicksIn>42378336000</pproTicksIn>
						<pproTicksOut>508540032000</pproTicksOut>
						<alphatype>none</alphatype>
						<pixelaspectratio>square</pixelaspectratio>
						<anamorphic>FALSE</anamorphic>
						<file id="file-191">
							<name>TKO_006_FOS_Sh01960.mov</name>
							<pathurl>file://tri-stor01/Projects/TKO/SHOTS/_Refs_Movs_Burnin_FrameCounter/TKO_006_FOS_Sh01960.mov</pathurl>
							<rate>
								<timebase>24</timebase>
								<ntsc>TRUE</ntsc>
							</rate>
							<duration>52</duration>
							<timecode>
								<rate>
									<timebase>24</timebase>
									<ntsc>TRUE</ntsc>
								</rate>
								<string>12:51:22:23</string>
								<frame>1110791</frame>
								<displayformat>NDF</displayformat>
								<reel>
									<name>A0430014</name>
								</reel>
							</timecode>
							<media>
								<video>
									<samplecharacteristics>
										<rate>
											<timebase>24</timebase>
											<ntsc>TRUE</ntsc>
										</rate>
										<width>4096</width>
										<height>2160</height>
										<anamorphic>FALSE</anamorphic>
										<pixelaspectratio>square</pixelaspectratio>
										<fielddominance>none</fielddominance>
									</samplecharacteristics>
								</video>
							</media>
						</file>
						<logginginfo>
							<description></description>
							<scene></scene>
							<shottake></shottake>
							<lognote></lognote>
							<good></good>
							<originalvideofilename></originalvideofilename>
							<originalaudiofilename></originalaudiofilename>
						</logginginfo>
						<colorinfo>
							<lut></lut>
							<lut1></lut1>
							<asc_sop></asc_sop>
							<asc_sat></asc_sat>
							<lut2></lut2>
						</colorinfo>
						<labels>
							<label2>Violet</label2>
						</labels>
					</clipitem>
					<clipitem id="clipitem-194">
						<masterclipid>masterclip-192</masterclipid>
						<name>TKO_006_FOS_Sh01970.mov</name>
						<enabled>TRUE</enabled>
						<duration>95</duration>
						<rate>
							<timebase>24</timebase>
							<ntsc>TRUE</ntsc>
						</rate>
						<start>15719</start>
						<end>15806</end>
						<in>4</in>
						<out>91</out>
						<pproTicksIn>42378336000</pproTicksIn>
						<pproTicksOut>964107144000</pproTicksOut>
						<alphatype>none</alphatype>
						<pixelaspectratio>square</pixelaspectratio>
						<anamorphic>FALSE</anamorphic>
						<file id="file-192">
							<name>TKO_006_FOS_Sh01970.mov</name>
							<pathurl>file://tri-stor01/Projects/TKO/SHOTS/_Refs_Movs_Burnin_FrameCounter/TKO_006_FOS_Sh01970.mov</pathurl>
							<rate>
								<timebase>24</timebase>
								<ntsc>TRUE</ntsc>
							</rate>
							<duration>95</duration>
							<timecode>
								<rate>
									<timebase>24</timebase>
									<ntsc>TRUE</ntsc>
								</rate>
								<string>12:51:24:19</string>
								<frame>1110835</frame>
								<displayformat>NDF</displayformat>
								<reel>
									<name>B0370017</name>
								</reel>
							</timecode>
							<media>
								<video>
									<samplecharacteristics>
										<rate>
											<timebase>24</timebase>
											<ntsc>TRUE</ntsc>
										</rate>
										<width>4096</width>
										<height>2160</height>
										<anamorphic>FALSE</anamorphic>
										<pixelaspectratio>square</pixelaspectratio>
										<fielddominance>none</fielddominance>
									</samplecharacteristics>
								</video>
							</media>
						</file>
						<logginginfo>
							<description></description>
							<scene></scene>
							<shottake></shottake>
							<lognote></lognote>
							<good></good>
							<originalvideofilename></originalvideofilename>
							<originalaudiofilename></originalaudiofilename>
						</logginginfo>
						<colorinfo>
							<lut></lut>
							<lut1></lut1>
							<asc_sop></asc_sop>
							<asc_sat></asc_sat>
							<lut2></lut2>
						</colorinfo>
						<labels>
							<label2>Violet</label2>
						</labels>
					</clipitem>
					<clipitem id="clipitem-195">
						<masterclipid>masterclip-193</masterclipid>
						<name>TKO_006_FOS_Sh01980.mov</name>
						<enabled>TRUE</enabled>
						<duration>147</duration>
						<rate>
							<timebase>24</timebase>
							<ntsc>TRUE</ntsc>
						</rate>
						<start>15806</start>
						<end>15945</end>
						<in>4</in>
						<out>143</out>
						<pproTicksIn>42378336000</pproTicksIn>
						<pproTicksOut>1515025512000</pproTicksOut>
						<alphatype>none</alphatype>
						<pixelaspectratio>square</pixelaspectratio>
						<anamorphic>FALSE</anamorphic>
						<file id="file-193">
							<name>TKO_006_FOS_Sh01980.mov</name>
							<pathurl>file://tri-stor01/Projects/TKO/SHOTS/_Refs_Movs_Burnin_FrameCounter/TKO_006_FOS_Sh01980.mov</pathurl>
							<rate>
								<timebase>24</timebase>
								<ntsc>TRUE</ntsc>
							</rate>
							<duration>147</duration>
							<timecode>
								<rate>
									<timebase>24</timebase>
									<ntsc>TRUE</ntsc>
								</rate>
								<string>12:24:19:20</string>
								<frame>1071836</frame>
								<displayformat>NDF</displayformat>
								<reel>
									<name>A0430011</name>
								</reel>
							</timecode>
							<media>
								<video>
									<samplecharacteristics>
										<rate>
											<timebase>24</timebase>
											<ntsc>TRUE</ntsc>
										</rate>
										<width>4096</width>
										<height>2160</height>
										<anamorphic>FALSE</anamorphic>
										<pixelaspectratio>square</pixelaspectratio>
										<fielddominance>none</fielddominance>
									</samplecharacteristics>
								</video>
							</media>
						</file>
						<logginginfo>
							<description></description>
							<scene></scene>
							<shottake></shottake>
							<lognote></lognote>
							<good></good>
							<originalvideofilename></originalvideofilename>
							<originalaudiofilename></originalaudiofilename>
						</logginginfo>
						<colorinfo>
							<lut></lut>
							<lut1></lut1>
							<asc_sop></asc_sop>
							<asc_sat></asc_sat>
							<lut2></lut2>
						</colorinfo>
						<labels>
							<label2>Violet</label2>
						</labels>
					</clipitem>
					<clipitem id="clipitem-196">
						<masterclipid>masterclip-194</masterclipid>
						<name>TKO_006_FOS_Sh01990.mov</name>
						<enabled>TRUE</enabled>
						<duration>67</duration>
						<rate>
							<timebase>24</timebase>
							<ntsc>TRUE</ntsc>
						</rate>
						<start>15945</start>
						<end>16004</end>
						<in>4</in>
						<out>63</out>
						<pproTicksIn>42378336000</pproTicksIn>
						<pproTicksOut>667458792000</pproTicksOut>
						<alphatype>none</alphatype>
						<pixelaspectratio>square</pixelaspectratio>
						<anamorphic>FALSE</anamorphic>
						<file id="file-194">
							<name>TKO_006_FOS_Sh01990.mov</name>
							<pathurl>file://tri-stor01/Projects/TKO/SHOTS/_Refs_Movs_Burnin_FrameCounter/TKO_006_FOS_Sh01990.mov</pathurl>
							<rate>
								<timebase>24</timebase>
								<ntsc>TRUE</ntsc>
							</rate>
							<duration>67</duration>
							<timecode>
								<rate>
									<timebase>24</timebase>
									<ntsc>TRUE</ntsc>
								</rate>
								<string>12:51:34:09</string>
								<frame>1111065</frame>
								<displayformat>NDF</displayformat>
								<reel>
									<name>A0430014</name>
								</reel>
							</timecode>
							<media>
								<video>
									<samplecharacteristics>
										<rate>
											<timebase>24</timebase>
											<ntsc>TRUE</ntsc>
										</rate>
										<width>4096</width>
										<height>2160</height>
										<anamorphic>FALSE</anamorphic>
										<pixelaspectratio>square</pixelaspectratio>
										<fielddominance>none</fielddominance>
									</samplecharacteristics>
								</video>
							</media>
						</file>
						<logginginfo>
							<description></description>
							<scene></scene>
							<shottake></shottake>
							<lognote></lognote>
							<good></good>
							<originalvideofilename></originalvideofilename>
							<originalaudiofilename></originalaudiofilename>
						</logginginfo>
						<colorinfo>
							<lut></lut>
							<lut1></lut1>
							<asc_sop></asc_sop>
							<asc_sat></asc_sat>
							<lut2></lut2>
						</colorinfo>
						<labels>
							<label2>Violet</label2>
						</labels>
					</clipitem>
					<clipitem id="clipitem-197">
						<masterclipid>masterclip-195</masterclipid>
						<name>TKO_006_FOS_Sh02000.mov</name>
						<enabled>TRUE</enabled>
						<duration>149</duration>
						<rate>
							<timebase>24</timebase>
							<ntsc>TRUE</ntsc>
						</rate>
						<start>16004</start>
						<end>16145</end>
						<in>4</in>
						<out>145</out>
						<pproTicksIn>42378336000</pproTicksIn>
						<pproTicksOut>1536214680000</pproTicksOut>
						<alphatype>none</alphatype>
						<pixelaspectratio>square</pixelaspectratio>
						<anamorphic>FALSE</anamorphic>
						<file id="file-195">
							<name>TKO_006_FOS_Sh02000.mov</name>
							<pathurl>file://tri-stor01/Projects/TKO/SHOTS/_Refs_Movs_Burnin_FrameCounter/TKO_006_FOS_Sh02000.mov</pathurl>
							<rate>
								<timebase>24</timebase>
								<ntsc>TRUE</ntsc>
							</rate>
							<duration>149</duration>
							<timecode>
								<rate>
									<timebase>24</timebase>
									<ntsc>TRUE</ntsc>
								</rate>
								<string>12:24:28:03</string>
								<frame>1072035</frame>
								<displayformat>NDF</displayformat>
								<reel>
									<name>B0370013</name>
								</reel>
							</timecode>
							<media>
								<video>
									<samplecharacteristics>
										<rate>
											<timebase>24</timebase>
											<ntsc>TRUE</ntsc>
										</rate>
										<width>4096</width>
										<height>2160</height>
										<anamorphic>FALSE</anamorphic>
										<pixelaspectratio>square</pixelaspectratio>
										<fielddominance>none</fielddominance>
									</samplecharacteristics>
								</video>
							</media>
						</file>
						<logginginfo>
							<description></description>
							<scene></scene>
							<shottake></shottake>
							<lognote></lognote>
							<good></good>
							<originalvideofilename></originalvideofilename>
							<originalaudiofilename></originalaudiofilename>
						</logginginfo>
						<colorinfo>
							<lut></lut>
							<lut1></lut1>
							<asc_sop></asc_sop>
							<asc_sat></asc_sat>
							<lut2></lut2>
						</colorinfo>
						<labels>
							<label2>Violet</label2>
						</labels>
					</clipitem>
					<clipitem id="clipitem-198">
						<masterclipid>masterclip-196</masterclipid>
						<name>TKO_006_FOS_Sh02010.mov</name>
						<enabled>TRUE</enabled>
						<duration>49</duration>
						<rate>
							<timebase>24</timebase>
							<ntsc>TRUE</ntsc>
						</rate>
						<start>16145</start>
						<end>16186</end>
						<in>4</in>
						<out>45</out>
						<pproTicksIn>42378336000</pproTicksIn>
						<pproTicksOut>476756280000</pproTicksOut>
						<alphatype>none</alphatype>
						<pixelaspectratio>square</pixelaspectratio>
						<anamorphic>FALSE</anamorphic>
						<file id="file-196">
							<name>TKO_006_FOS_Sh02010.mov</name>
							<pathurl>file://tri-stor01/Projects/TKO/SHOTS/_Refs_Movs_Burnin_FrameCounter/TKO_006_FOS_Sh02010.mov</pathurl>
							<rate>
								<timebase>24</timebase>
								<ntsc>TRUE</ntsc>
							</rate>
							<duration>49</duration>
							<timecode>
								<rate>
									<timebase>24</timebase>
									<ntsc>TRUE</ntsc>
								</rate>
								<string>12:51:45:06</string>
								<frame>1111326</frame>
								<displayformat>NDF</displayformat>
								<reel>
									<name>B0370017</name>
								</reel>
							</timecode>
							<media>
								<video>
									<samplecharacteristics>
										<rate>
											<timebase>24</timebase>
											<ntsc>TRUE</ntsc>
										</rate>
										<width>4096</width>
										<height>2160</height>
										<anamorphic>FALSE</anamorphic>
										<pixelaspectratio>square</pixelaspectratio>
										<fielddominance>none</fielddominance>
									</samplecharacteristics>
								</video>
							</media>
						</file>
						<logginginfo>
							<description></description>
							<scene></scene>
							<shottake></shottake>
							<lognote></lognote>
							<good></good>
							<originalvideofilename></originalvideofilename>
							<originalaudiofilename></originalaudiofilename>
						</logginginfo>
						<colorinfo>
							<lut></lut>
							<lut1></lut1>
							<asc_sop></asc_sop>
							<asc_sat></asc_sat>
							<lut2></lut2>
						</colorinfo>
						<labels>
							<label2>Violet</label2>
						</labels>
					</clipitem>
					<clipitem id="clipitem-199">
						<masterclipid>masterclip-197</masterclipid>
						<name>TKO_006_FOS_Sh02020.mov</name>
						<enabled>TRUE</enabled>
						<duration>40</duration>
						<rate>
							<timebase>24</timebase>
							<ntsc>TRUE</ntsc>
						</rate>
						<start>16186</start>
						<end>16218</end>
						<in>4</in>
						<out>36</out>
						<pproTicksIn>42378336000</pproTicksIn>
						<pproTicksOut>381405024000</pproTicksOut>
						<alphatype>none</alphatype>
						<pixelaspectratio>square</pixelaspectratio>
						<anamorphic>FALSE</anamorphic>
						<file id="file-197">
							<name>TKO_006_FOS_Sh02020.mov</name>
							<pathurl>file://tri-stor01/Projects/TKO/SHOTS/_Refs_Movs_Burnin_FrameCounter/TKO_006_FOS_Sh02020.mov</pathurl>
							<rate>
								<timebase>24</timebase>
								<ntsc>TRUE</ntsc>
							</rate>
							<duration>40</duration>
							<timecode>
								<rate>
									<timebase>24</timebase>
									<ntsc>TRUE</ntsc>
								</rate>
								<string>12:51:45:02</string>
								<frame>1111322</frame>
								<displayformat>NDF</displayformat>
								<reel>
									<name>A0430014</name>
								</reel>
							</timecode>
							<media>
								<video>
									<samplecharacteristics>
										<rate>
											<timebase>24</timebase>
											<ntsc>TRUE</ntsc>
										</rate>
										<width>4096</width>
										<height>2160</height>
										<anamorphic>FALSE</anamorphic>
										<pixelaspectratio>square</pixelaspectratio>
										<fielddominance>none</fielddominance>
									</samplecharacteristics>
								</video>
							</media>
						</file>
						<logginginfo>
							<description></description>
							<scene></scene>
							<shottake></shottake>
							<lognote></lognote>
							<good></good>
							<originalvideofilename></originalvideofilename>
							<originalaudiofilename></originalaudiofilename>
						</logginginfo>
						<colorinfo>
							<lut></lut>
							<lut1></lut1>
							<asc_sop></asc_sop>
							<asc_sat></asc_sat>
							<lut2></lut2>
						</colorinfo>
						<labels>
							<label2>Violet</label2>
						</labels>
					</clipitem>
					<clipitem id="clipitem-200">
						<masterclipid>masterclip-198</masterclipid>
						<name>TKO_006_FOS_Sh02030.mov</name>
						<enabled>TRUE</enabled>
						<duration>72</duration>
						<rate>
							<timebase>24</timebase>
							<ntsc>TRUE</ntsc>
						</rate>
						<start>16218</start>
						<end>16282</end>
						<in>4</in>
						<out>68</out>
						<pproTicksIn>42378336000</pproTicksIn>
						<pproTicksOut>720431712000</pproTicksOut>
						<alphatype>none</alphatype>
						<pixelaspectratio>square</pixelaspectratio>
						<anamorphic>FALSE</anamorphic>
						<file id="file-198">
							<name>TKO_006_FOS_Sh02030.mov</name>
							<pathurl>file://tri-stor01/Projects/TKO/SHOTS/_Refs_Movs_Burnin_FrameCounter/TKO_006_FOS_Sh02030.mov</pathurl>
							<rate>
								<timebase>24</timebase>
								<ntsc>TRUE</ntsc>
							</rate>
							<duration>72</duration>
							<timecode>
								<rate>
									<timebase>24</timebase>
									<ntsc>TRUE</ntsc>
								</rate>
								<string>11:35:36:21</string>
								<frame>1001685</frame>
								<displayformat>NDF</displayformat>
								<reel>
									<name>B0370010</name>
								</reel>
							</timecode>
							<media>
								<video>
									<samplecharacteristics>
										<rate>
											<timebase>24</timebase>
											<ntsc>TRUE</ntsc>
										</rate>
										<width>4096</width>
										<height>2160</height>
										<anamorphic>FALSE</anamorphic>
										<pixelaspectratio>square</pixelaspectratio>
										<fielddominance>none</fielddominance>
									</samplecharacteristics>
								</video>
							</media>
						</file>
						<logginginfo>
							<description></description>
							<scene></scene>
							<shottake></shottake>
							<lognote></lognote>
							<good></good>
							<originalvideofilename></originalvideofilename>
							<originalaudiofilename></originalaudiofilename>
						</logginginfo>
						<colorinfo>
							<lut></lut>
							<lut1></lut1>
							<asc_sop></asc_sop>
							<asc_sat></asc_sat>
							<lut2></lut2>
						</colorinfo>
						<labels>
							<label2>Violet</label2>
						</labels>
					</clipitem>
					<clipitem id="clipitem-201">
						<masterclipid>masterclip-199</masterclipid>
						<name>TKO_006_FOS_Sh02040.mov</name>
						<enabled>TRUE</enabled>
						<duration>158</duration>
						<rate>
							<timebase>24</timebase>
							<ntsc>TRUE</ntsc>
						</rate>
						<start>16282</start>
						<end>16432</end>
						<in>4</in>
						<out>154</out>
						<pproTicksIn>42378336000</pproTicksIn>
						<pproTicksOut>1631565936000</pproTicksOut>
						<alphatype>none</alphatype>
						<pixelaspectratio>square</pixelaspectratio>
						<anamorphic>FALSE</anamorphic>
						<file id="file-199">
							<name>TKO_006_FOS_Sh02040.mov</name>
							<pathurl>file://tri-stor01/Projects/TKO/SHOTS/_Refs_Movs_Burnin_FrameCounter/TKO_006_FOS_Sh02040.mov</pathurl>
							<rate>
								<timebase>24</timebase>
								<ntsc>TRUE</ntsc>
							</rate>
							<duration>158</duration>
							<timecode>
								<rate>
									<timebase>24</timebase>
									<ntsc>TRUE</ntsc>
								</rate>
								<string>12:06:58:06</string>
								<frame>1046838</frame>
								<displayformat>NDF</displayformat>
								<reel>
									<name>A0430010</name>
								</reel>
							</timecode>
							<media>
								<video>
									<samplecharacteristics>
										<rate>
											<timebase>24</timebase>
											<ntsc>TRUE</ntsc>
										</rate>
										<width>4096</width>
										<height>2160</height>
										<anamorphic>FALSE</anamorphic>
										<pixelaspectratio>square</pixelaspectratio>
										<fielddominance>none</fielddominance>
									</samplecharacteristics>
								</video>
							</media>
						</file>
						<logginginfo>
							<description></description>
							<scene></scene>
							<shottake></shottake>
							<lognote></lognote>
							<good></good>
							<originalvideofilename></originalvideofilename>
							<originalaudiofilename></originalaudiofilename>
						</logginginfo>
						<colorinfo>
							<lut></lut>
							<lut1></lut1>
							<asc_sop></asc_sop>
							<asc_sat></asc_sat>
							<lut2></lut2>
						</colorinfo>
						<labels>
							<label2>Violet</label2>
						</labels>
					</clipitem>
					<clipitem id="clipitem-202">
						<masterclipid>masterclip-200</masterclipid>
						<name>TKO_006_FOS_Sh02050.mov</name>
						<enabled>TRUE</enabled>
						<duration>64</duration>
						<rate>
							<timebase>24</timebase>
							<ntsc>TRUE</ntsc>
						</rate>
						<start>16432</start>
						<end>16488</end>
						<in>4</in>
						<out>60</out>
						<pproTicksIn>42378336000</pproTicksIn>
						<pproTicksOut>635675040000</pproTicksOut>
						<alphatype>none</alphatype>
						<pixelaspectratio>square</pixelaspectratio>
						<anamorphic>FALSE</anamorphic>
						<file id="file-200">
							<name>TKO_006_FOS_Sh02050.mov</name>
							<pathurl>file://tri-stor01/Projects/TKO/SHOTS/_Refs_Movs_Burnin_FrameCounter/TKO_006_FOS_Sh02050.mov</pathurl>
							<rate>
								<timebase>24</timebase>
								<ntsc>TRUE</ntsc>
							</rate>
							<duration>64</duration>
							<timecode>
								<rate>
									<timebase>24</timebase>
									<ntsc>TRUE</ntsc>
								</rate>
								<string>12:04:10:16</string>
								<frame>1042816</frame>
								<displayformat>NDF</displayformat>
								<reel>
									<name>B0370011</name>
								</reel>
							</timecode>
							<media>
								<video>
									<samplecharacteristics>
										<rate>
											<timebase>24</timebase>
											<ntsc>TRUE</ntsc>
										</rate>
										<width>4096</width>
										<height>2160</height>
										<anamorphic>FALSE</anamorphic>
										<pixelaspectratio>square</pixelaspectratio>
										<fielddominance>none</fielddominance>
									</samplecharacteristics>
								</video>
							</media>
						</file>
						<logginginfo>
							<description></description>
							<scene></scene>
							<shottake></shottake>
							<lognote></lognote>
							<good></good>
							<originalvideofilename></originalvideofilename>
							<originalaudiofilename></originalaudiofilename>
						</logginginfo>
						<colorinfo>
							<lut></lut>
							<lut1></lut1>
							<asc_sop></asc_sop>
							<asc_sat></asc_sat>
							<lut2></lut2>
						</colorinfo>
						<labels>
							<label2>Violet</label2>
						</labels>
					</clipitem>
					<clipitem id="clipitem-203">
						<masterclipid>masterclip-201</masterclipid>
						<name>TKO_006_FOS_Sh02060.mov</name>
						<enabled>TRUE</enabled>
						<duration>238</duration>
						<rate>
							<timebase>24</timebase>
							<ntsc>TRUE</ntsc>
						</rate>
						<start>16488</start>
						<end>16718</end>
						<in>4</in>
						<out>234</out>
						<pproTicksIn>42378336000</pproTicksIn>
						<pproTicksOut>2479132656000</pproTicksOut>
						<alphatype>none</alphatype>
						<pixelaspectratio>square</pixelaspectratio>
						<anamorphic>FALSE</anamorphic>
						<file id="file-201">
							<name>TKO_006_FOS_Sh02060.mov</name>
							<pathurl>file://tri-stor01/Projects/TKO/SHOTS/_Refs_Movs_Burnin_FrameCounter/TKO_006_FOS_Sh02060.mov</pathurl>
							<rate>
								<timebase>24</timebase>
								<ntsc>TRUE</ntsc>
							</rate>
							<duration>238</duration>
							<timecode>
								<rate>
									<timebase>24</timebase>
									<ntsc>TRUE</ntsc>
								</rate>
								<string>19:33:02:23</string>
								<frame>1689191</frame>
								<displayformat>NDF</displayformat>
								<reel>
									<name>A0360014</name>
								</reel>
							</timecode>
							<media>
								<video>
									<samplecharacteristics>
										<rate>
											<timebase>24</timebase>
											<ntsc>TRUE</ntsc>
										</rate>
										<width>4096</width>
										<height>2160</height>
										<anamorphic>FALSE</anamorphic>
										<pixelaspectratio>square</pixelaspectratio>
										<fielddominance>none</fielddominance>
									</samplecharacteristics>
								</video>
							</media>
						</file>
						<logginginfo>
							<description></description>
							<scene></scene>
							<shottake></shottake>
							<lognote></lognote>
							<good></good>
							<originalvideofilename></originalvideofilename>
							<originalaudiofilename></originalaudiofilename>
						</logginginfo>
						<colorinfo>
							<lut></lut>
							<lut1></lut1>
							<asc_sop></asc_sop>
							<asc_sat></asc_sat>
							<lut2></lut2>
						</colorinfo>
						<labels>
							<label2>Violet</label2>
						</labels>
					</clipitem>
					<clipitem id="clipitem-204">
						<masterclipid>masterclip-202</masterclipid>
						<name>TKO_006_FOS_Sh02070.mov</name>
						<enabled>TRUE</enabled>
						<duration>186</duration>
						<rate>
							<timebase>24</timebase>
							<ntsc>TRUE</ntsc>
						</rate>
						<start>16718</start>
						<end>16896</end>
						<in>4</in>
						<out>182</out>
						<pproTicksIn>42378336000</pproTicksIn>
						<pproTicksOut>1928214288000</pproTicksOut>
						<alphatype>none</alphatype>
						<pixelaspectratio>square</pixelaspectratio>
						<anamorphic>FALSE</anamorphic>
						<file id="file-202">
							<name>TKO_006_FOS_Sh02070.mov</name>
							<pathurl>file://tri-stor01/Projects/TKO/SHOTS/_Refs_Movs_Burnin_FrameCounter/TKO_006_FOS_Sh02070.mov</pathurl>
							<rate>
								<timebase>24</timebase>
								<ntsc>TRUE</ntsc>
							</rate>
							<duration>186</duration>
							<timecode>
								<rate>
									<timebase>24</timebase>
									<ntsc>TRUE</ntsc>
								</rate>
								<string>19:33:14:10</string>
								<frame>1689466</frame>
								<displayformat>NDF</displayformat>
								<reel>
									<name>B0300012</name>
								</reel>
							</timecode>
							<media>
								<video>
									<samplecharacteristics>
										<rate>
											<timebase>24</timebase>
											<ntsc>TRUE</ntsc>
										</rate>
										<width>4096</width>
										<height>2160</height>
										<anamorphic>FALSE</anamorphic>
										<pixelaspectratio>square</pixelaspectratio>
										<fielddominance>none</fielddominance>
									</samplecharacteristics>
								</video>
							</media>
						</file>
						<logginginfo>
							<description></description>
							<scene></scene>
							<shottake></shottake>
							<lognote></lognote>
							<good></good>
							<originalvideofilename></originalvideofilename>
							<originalaudiofilename></originalaudiofilename>
						</logginginfo>
						<colorinfo>
							<lut></lut>
							<lut1></lut1>
							<asc_sop></asc_sop>
							<asc_sat></asc_sat>
							<lut2></lut2>
						</colorinfo>
						<labels>
							<label2>Violet</label2>
						</labels>
					</clipitem>
					<clipitem id="clipitem-205">
						<masterclipid>masterclip-203</masterclipid>
						<name>TKO_006_FOS_Sh02080.mov</name>
						<enabled>TRUE</enabled>
						<duration>198</duration>
						<rate>
							<timebase>24</timebase>
							<ntsc>TRUE</ntsc>
						</rate>
						<start>16896</start>
						<end>16947</end>
						<in>143</in>
						<out>194</out>
						<pproTicksIn>1515025512000</pproTicksIn>
						<pproTicksOut>2055349296000</pproTicksOut>
						<alphatype>none</alphatype>
						<pixelaspectratio>square</pixelaspectratio>
						<anamorphic>FALSE</anamorphic>
						<file id="file-203">
							<name>TKO_006_FOS_Sh02080.mov</name>
							<pathurl>file://tri-stor01/Projects/TKO/SHOTS/_Refs_Movs_Burnin_FrameCounter/TKO_006_FOS_Sh02080.mov</pathurl>
							<rate>
								<timebase>24</timebase>
								<ntsc>TRUE</ntsc>
							</rate>
							<duration>198</duration>
							<timecode>
								<rate>
									<timebase>24</timebase>
									<ntsc>TRUE</ntsc>
								</rate>
								<string>19:55:32:13</string>
								<frame>1721581</frame>
								<displayformat>NDF</displayformat>
								<reel>
									<name>A0360016</name>
								</reel>
							</timecode>
							<media>
								<video>
									<samplecharacteristics>
										<rate>
											<timebase>24</timebase>
											<ntsc>TRUE</ntsc>
										</rate>
										<width>4096</width>
										<height>2160</height>
										<anamorphic>FALSE</anamorphic>
										<pixelaspectratio>square</pixelaspectratio>
										<fielddominance>none</fielddominance>
									</samplecharacteristics>
								</video>
							</media>
						</file>
						<logginginfo>
							<description></description>
							<scene></scene>
							<shottake></shottake>
							<lognote></lognote>
							<good></good>
							<originalvideofilename></originalvideofilename>
							<originalaudiofilename></originalaudiofilename>
						</logginginfo>
						<colorinfo>
							<lut></lut>
							<lut1></lut1>
							<asc_sop></asc_sop>
							<asc_sat></asc_sat>
							<lut2></lut2>
						</colorinfo>
						<labels>
							<label2>Violet</label2>
						</labels>
					</clipitem>
					<clipitem id="clipitem-206">
						<masterclipid>masterclip-204</masterclipid>
						<name>TKO_006_FOS_Sh02090.mov</name>
						<enabled>TRUE</enabled>
						<duration>52</duration>
						<rate>
							<timebase>24</timebase>
							<ntsc>TRUE</ntsc>
						</rate>
						<start>16947</start>
						<end>16991</end>
						<in>4</in>
						<out>48</out>
						<pproTicksIn>42378336000</pproTicksIn>
						<pproTicksOut>508540032000</pproTicksOut>
						<alphatype>none</alphatype>
						<pixelaspectratio>square</pixelaspectratio>
						<anamorphic>FALSE</anamorphic>
						<file id="file-204">
							<name>TKO_006_FOS_Sh02090.mov</name>
							<pathurl>file://tri-stor01/Projects/TKO/SHOTS/_Refs_Movs_Burnin_FrameCounter/TKO_006_FOS_Sh02090.mov</pathurl>
							<rate>
								<timebase>24</timebase>
								<ntsc>TRUE</ntsc>
							</rate>
							<duration>52</duration>
							<timecode>
								<rate>
									<timebase>24</timebase>
									<ntsc>TRUE</ntsc>
								</rate>
								<string>19:55:40:11</string>
								<frame>1721771</frame>
								<displayformat>NDF</displayformat>
								<reel>
									<name>B0300014</name>
								</reel>
							</timecode>
							<media>
								<video>
									<samplecharacteristics>
										<rate>
											<timebase>24</timebase>
											<ntsc>TRUE</ntsc>
										</rate>
										<width>4096</width>
										<height>2160</height>
										<anamorphic>FALSE</anamorphic>
										<pixelaspectratio>square</pixelaspectratio>
										<fielddominance>none</fielddominance>
									</samplecharacteristics>
								</video>
							</media>
						</file>
						<logginginfo>
							<description></description>
							<scene></scene>
							<shottake></shottake>
							<lognote></lognote>
							<good></good>
							<originalvideofilename></originalvideofilename>
							<originalaudiofilename></originalaudiofilename>
						</logginginfo>
						<colorinfo>
							<lut></lut>
							<lut1></lut1>
							<asc_sop></asc_sop>
							<asc_sat></asc_sat>
							<lut2></lut2>
						</colorinfo>
						<labels>
							<label2>Violet</label2>
						</labels>
					</clipitem>
					<clipitem id="clipitem-207">
						<masterclipid>masterclip-205</masterclipid>
						<name>TKO_006_FOS_Sh02100.mov</name>
						<enabled>TRUE</enabled>
						<duration>112</duration>
						<rate>
							<timebase>24</timebase>
							<ntsc>TRUE</ntsc>
						</rate>
						<start>16991</start>
						<end>17095</end>
						<in>4</in>
						<out>108</out>
						<pproTicksIn>42378336000</pproTicksIn>
						<pproTicksOut>1144215072000</pproTicksOut>
						<alphatype>none</alphatype>
						<pixelaspectratio>square</pixelaspectratio>
						<anamorphic>FALSE</anamorphic>
						<file id="file-205">
							<name>TKO_006_FOS_Sh02100.mov</name>
							<pathurl>file://tri-stor01/Projects/TKO/SHOTS/_Refs_Movs_Burnin_FrameCounter/TKO_006_FOS_Sh02100.mov</pathurl>
							<rate>
								<timebase>24</timebase>
								<ntsc>TRUE</ntsc>
							</rate>
							<duration>112</duration>
							<timecode>
								<rate>
									<timebase>24</timebase>
									<ntsc>TRUE</ntsc>
								</rate>
								<string>19:55:42:19</string>
								<frame>1721827</frame>
								<displayformat>NDF</displayformat>
								<reel>
									<name>A0360016</name>
								</reel>
							</timecode>
							<media>
								<video>
									<samplecharacteristics>
										<rate>
											<timebase>24</timebase>
											<ntsc>TRUE</ntsc>
										</rate>
										<width>4096</width>
										<height>2160</height>
										<anamorphic>FALSE</anamorphic>
										<pixelaspectratio>square</pixelaspectratio>
										<fielddominance>none</fielddominance>
									</samplecharacteristics>
								</video>
							</media>
						</file>
						<logginginfo>
							<description></description>
							<scene></scene>
							<shottake></shottake>
							<lognote></lognote>
							<good></good>
							<originalvideofilename></originalvideofilename>
							<originalaudiofilename></originalaudiofilename>
						</logginginfo>
						<colorinfo>
							<lut></lut>
							<lut1></lut1>
							<asc_sop></asc_sop>
							<asc_sat></asc_sat>
							<lut2></lut2>
						</colorinfo>
						<labels>
							<label2>Violet</label2>
						</labels>
					</clipitem>
					<clipitem id="clipitem-208">
						<masterclipid>masterclip-206</masterclipid>
						<name>TKO_006_FOS_Sh02110.mov</name>
						<enabled>TRUE</enabled>
						<duration>100</duration>
						<rate>
							<timebase>24</timebase>
							<ntsc>TRUE</ntsc>
						</rate>
						<start>17095</start>
						<end>17187</end>
						<in>4</in>
						<out>96</out>
						<pproTicksIn>42378336000</pproTicksIn>
						<pproTicksOut>1017080064000</pproTicksOut>
						<alphatype>none</alphatype>
						<pixelaspectratio>square</pixelaspectratio>
						<anamorphic>FALSE</anamorphic>
						<file id="file-206">
							<name>TKO_006_FOS_Sh02110.mov</name>
							<pathurl>file://tri-stor01/Projects/TKO/SHOTS/_Refs_Movs_Burnin_FrameCounter/TKO_006_FOS_Sh02110.mov</pathurl>
							<rate>
								<timebase>24</timebase>
								<ntsc>TRUE</ntsc>
							</rate>
							<duration>100</duration>
							<timecode>
								<rate>
									<timebase>24</timebase>
									<ntsc>TRUE</ntsc>
								</rate>
								<string>19:55:47:03</string>
								<frame>1721931</frame>
								<displayformat>NDF</displayformat>
								<reel>
									<name>B0300014</name>
								</reel>
							</timecode>
							<media>
								<video>
									<samplecharacteristics>
										<rate>
											<timebase>24</timebase>
											<ntsc>TRUE</ntsc>
										</rate>
										<width>4096</width>
										<height>2160</height>
										<anamorphic>FALSE</anamorphic>
										<pixelaspectratio>square</pixelaspectratio>
										<fielddominance>none</fielddominance>
									</samplecharacteristics>
								</video>
							</media>
						</file>
						<logginginfo>
							<description></description>
							<scene></scene>
							<shottake></shottake>
							<lognote></lognote>
							<good></good>
							<originalvideofilename></originalvideofilename>
							<originalaudiofilename></originalaudiofilename>
						</logginginfo>
						<colorinfo>
							<lut></lut>
							<lut1></lut1>
							<asc_sop></asc_sop>
							<asc_sat></asc_sat>
							<lut2></lut2>
						</colorinfo>
						<labels>
							<label2>Violet</label2>
						</labels>
					</clipitem>
					<clipitem id="clipitem-209">
						<masterclipid>masterclip-207</masterclipid>
						<name>TKO_006_FOS_Sh02120.mov</name>
						<enabled>TRUE</enabled>
						<duration>98</duration>
						<rate>
							<timebase>24</timebase>
							<ntsc>TRUE</ntsc>
						</rate>
						<start>17187</start>
						<end>17218</end>
						<in>63</in>
						<out>94</out>
						<pproTicksIn>667458792000</pproTicksIn>
						<pproTicksOut>995890896000</pproTicksOut>
						<alphatype>none</alphatype>
						<pixelaspectratio>square</pixelaspectratio>
						<anamorphic>FALSE</anamorphic>
						<file id="file-207">
							<name>TKO_006_FOS_Sh02120.mov</name>
							<pathurl>file://tri-stor01/Projects/TKO/SHOTS/_Refs_Movs_Burnin_FrameCounter/TKO_006_FOS_Sh02120.mov</pathurl>
							<rate>
								<timebase>24</timebase>
								<ntsc>TRUE</ntsc>
							</rate>
							<duration>98</duration>
							<timecode>
								<rate>
									<timebase>24</timebase>
									<ntsc>TRUE</ntsc>
								</rate>
								<string>19:55:51:19</string>
								<frame>1722043</frame>
								<displayformat>NDF</displayformat>
								<reel>
									<name>A0360016</name>
								</reel>
							</timecode>
							<media>
								<video>
									<samplecharacteristics>
										<rate>
											<timebase>24</timebase>
											<ntsc>TRUE</ntsc>
										</rate>
										<width>4096</width>
										<height>2160</height>
										<anamorphic>FALSE</anamorphic>
										<pixelaspectratio>square</pixelaspectratio>
										<fielddominance>none</fielddominance>
									</samplecharacteristics>
								</video>
							</media>
						</file>
						<logginginfo>
							<description></description>
							<scene></scene>
							<shottake></shottake>
							<lognote></lognote>
							<good></good>
							<originalvideofilename></originalvideofilename>
							<originalaudiofilename></originalaudiofilename>
						</logginginfo>
						<colorinfo>
							<lut></lut>
							<lut1></lut1>
							<asc_sop></asc_sop>
							<asc_sat></asc_sat>
							<lut2></lut2>
						</colorinfo>
						<labels>
							<label2>Violet</label2>
						</labels>
					</clipitem>
					<clipitem id="clipitem-210">
						<masterclipid>masterclip-208</masterclipid>
						<name>TKO_006_FOS_Sh02130.mov</name>
						<enabled>TRUE</enabled>
						<duration>94</duration>
						<rate>
							<timebase>24</timebase>
							<ntsc>TRUE</ntsc>
						</rate>
						<start>17218</start>
						<end>17304</end>
						<in>4</in>
						<out>90</out>
						<pproTicksIn>42378336000</pproTicksIn>
						<pproTicksOut>953512560000</pproTicksOut>
						<alphatype>none</alphatype>
						<pixelaspectratio>square</pixelaspectratio>
						<anamorphic>FALSE</anamorphic>
						<file id="file-208">
							<name>TKO_006_FOS_Sh02130.mov</name>
							<pathurl>file://tri-stor01/Projects/TKO/SHOTS/_Refs_Movs_Burnin_FrameCounter/TKO_006_FOS_Sh02130.mov</pathurl>
							<rate>
								<timebase>24</timebase>
								<ntsc>TRUE</ntsc>
							</rate>
							<duration>94</duration>
							<timecode>
								<rate>
									<timebase>24</timebase>
									<ntsc>TRUE</ntsc>
								</rate>
								<string>19:55:55:13</string>
								<frame>1722133</frame>
								<displayformat>NDF</displayformat>
								<reel>
									<name>B0300014</name>
								</reel>
							</timecode>
							<media>
								<video>
									<samplecharacteristics>
										<rate>
											<timebase>24</timebase>
											<ntsc>TRUE</ntsc>
										</rate>
										<width>4096</width>
										<height>2160</height>
										<anamorphic>FALSE</anamorphic>
										<pixelaspectratio>square</pixelaspectratio>
										<fielddominance>none</fielddominance>
									</samplecharacteristics>
								</video>
							</media>
						</file>
						<logginginfo>
							<description></description>
							<scene></scene>
							<shottake></shottake>
							<lognote></lognote>
							<good></good>
							<originalvideofilename></originalvideofilename>
							<originalaudiofilename></originalaudiofilename>
						</logginginfo>
						<colorinfo>
							<lut></lut>
							<lut1></lut1>
							<asc_sop></asc_sop>
							<asc_sat></asc_sat>
							<lut2></lut2>
						</colorinfo>
						<labels>
							<label2>Violet</label2>
						</labels>
					</clipitem>
					<clipitem id="clipitem-211">
						<masterclipid>masterclip-209</masterclipid>
						<name>TKO_006_FOS_Sh02140.mov</name>
						<enabled>TRUE</enabled>
						<duration>159</duration>
						<rate>
							<timebase>24</timebase>
							<ntsc>TRUE</ntsc>
						</rate>
						<start>17304</start>
						<end>17455</end>
						<in>4</in>
						<out>155</out>
						<pproTicksIn>42378336000</pproTicksIn>
						<pproTicksOut>1642160520000</pproTicksOut>
						<alphatype>none</alphatype>
						<pixelaspectratio>square</pixelaspectratio>
						<anamorphic>FALSE</anamorphic>
						<file id="file-209">
							<name>TKO_006_FOS_Sh02140.mov</name>
							<pathurl>file://tri-stor01/Projects/TKO/SHOTS/_Refs_Movs_Burnin_FrameCounter/TKO_006_FOS_Sh02140.mov</pathurl>
							<rate>
								<timebase>24</timebase>
								<ntsc>TRUE</ntsc>
							</rate>
							<duration>159</duration>
							<timecode>
								<rate>
									<timebase>24</timebase>
									<ntsc>TRUE</ntsc>
								</rate>
								<string>19:55:59:03</string>
								<frame>1722219</frame>
								<displayformat>NDF</displayformat>
								<reel>
									<name>A0360016</name>
								</reel>
							</timecode>
							<media>
								<video>
									<samplecharacteristics>
										<rate>
											<timebase>24</timebase>
											<ntsc>TRUE</ntsc>
										</rate>
										<width>4096</width>
										<height>2160</height>
										<anamorphic>FALSE</anamorphic>
										<pixelaspectratio>square</pixelaspectratio>
										<fielddominance>none</fielddominance>
									</samplecharacteristics>
								</video>
							</media>
						</file>
						<logginginfo>
							<description></description>
							<scene></scene>
							<shottake></shottake>
							<lognote></lognote>
							<good></good>
							<originalvideofilename></originalvideofilename>
							<originalaudiofilename></originalaudiofilename>
						</logginginfo>
						<colorinfo>
							<lut></lut>
							<lut1></lut1>
							<asc_sop></asc_sop>
							<asc_sat></asc_sat>
							<lut2></lut2>
						</colorinfo>
						<labels>
							<label2>Violet</label2>
						</labels>
					</clipitem>
					<clipitem id="clipitem-212">
						<masterclipid>masterclip-210</masterclipid>
						<name>TKO_006_FOS_Sh02150.mov</name>
						<enabled>TRUE</enabled>
						<duration>74</duration>
						<rate>
							<timebase>24</timebase>
							<ntsc>TRUE</ntsc>
						</rate>
						<start>17455</start>
						<end>17521</end>
						<in>4</in>
						<out>70</out>
						<pproTicksIn>42378336000</pproTicksIn>
						<pproTicksOut>741620880000</pproTicksOut>
						<alphatype>none</alphatype>
						<pixelaspectratio>square</pixelaspectratio>
						<anamorphic>FALSE</anamorphic>
						<file id="file-210">
							<name>TKO_006_FOS_Sh02150.mov</name>
							<pathurl>file://tri-stor01/Projects/TKO/SHOTS/_Refs_Movs_Burnin_FrameCounter/TKO_006_FOS_Sh02150.mov</pathurl>
							<rate>
								<timebase>24</timebase>
								<ntsc>TRUE</ntsc>
							</rate>
							<duration>74</duration>
							<timecode>
								<rate>
									<timebase>24</timebase>
									<ntsc>TRUE</ntsc>
								</rate>
								<string>19:56:05:06</string>
								<frame>1722366</frame>
								<displayformat>NDF</displayformat>
								<reel>
									<name>B0300014</name>
								</reel>
							</timecode>
							<media>
								<video>
									<samplecharacteristics>
										<rate>
											<timebase>24</timebase>
											<ntsc>TRUE</ntsc>
										</rate>
										<width>4096</width>
										<height>2160</height>
										<anamorphic>FALSE</anamorphic>
										<pixelaspectratio>square</pixelaspectratio>
										<fielddominance>none</fielddominance>
									</samplecharacteristics>
								</video>
							</media>
						</file>
						<logginginfo>
							<description></description>
							<scene></scene>
							<shottake></shottake>
							<lognote></lognote>
							<good></good>
							<originalvideofilename></originalvideofilename>
							<originalaudiofilename></originalaudiofilename>
						</logginginfo>
						<colorinfo>
							<lut></lut>
							<lut1></lut1>
							<asc_sop></asc_sop>
							<asc_sat></asc_sat>
							<lut2></lut2>
						</colorinfo>
						<labels>
							<label2>Violet</label2>
						</labels>
					</clipitem>
					<clipitem id="clipitem-213">
						<masterclipid>masterclip-211</masterclipid>
						<name>TKO_006_FOS_Sh02160.mov</name>
						<enabled>TRUE</enabled>
						<duration>122</duration>
						<rate>
							<timebase>24</timebase>
							<ntsc>TRUE</ntsc>
						</rate>
						<start>17521</start>
						<end>17635</end>
						<in>4</in>
						<out>118</out>
						<pproTicksIn>42378336000</pproTicksIn>
						<pproTicksOut>1250160912000</pproTicksOut>
						<alphatype>none</alphatype>
						<pixelaspectratio>square</pixelaspectratio>
						<anamorphic>FALSE</anamorphic>
						<file id="file-211">
							<name>TKO_006_FOS_Sh02160.mov</name>
							<pathurl>file://tri-stor01/Projects/TKO/SHOTS/_Refs_Movs_Burnin_FrameCounter/TKO_006_FOS_Sh02160.mov</pathurl>
							<rate>
								<timebase>24</timebase>
								<ntsc>TRUE</ntsc>
							</rate>
							<duration>122</duration>
							<timecode>
								<rate>
									<timebase>24</timebase>
									<ntsc>TRUE</ntsc>
								</rate>
								<string>19:34:04:00</string>
								<frame>1690656</frame>
								<displayformat>NDF</displayformat>
								<reel>
									<name>B0300012</name>
								</reel>
							</timecode>
							<media>
								<video>
									<samplecharacteristics>
										<rate>
											<timebase>24</timebase>
											<ntsc>TRUE</ntsc>
										</rate>
										<width>4096</width>
										<height>2160</height>
										<anamorphic>FALSE</anamorphic>
										<pixelaspectratio>square</pixelaspectratio>
										<fielddominance>none</fielddominance>
									</samplecharacteristics>
								</video>
							</media>
						</file>
						<logginginfo>
							<description></description>
							<scene></scene>
							<shottake></shottake>
							<lognote></lognote>
							<good></good>
							<originalvideofilename></originalvideofilename>
							<originalaudiofilename></originalaudiofilename>
						</logginginfo>
						<colorinfo>
							<lut></lut>
							<lut1></lut1>
							<asc_sop></asc_sop>
							<asc_sat></asc_sat>
							<lut2></lut2>
						</colorinfo>
						<labels>
							<label2>Violet</label2>
						</labels>
					</clipitem>
					<clipitem id="clipitem-214">
						<masterclipid>masterclip-212</masterclipid>
						<name>TKO_006_FOS_Sh02170.mov</name>
						<enabled>TRUE</enabled>
						<duration>52</duration>
						<rate>
							<timebase>24</timebase>
							<ntsc>TRUE</ntsc>
						</rate>
						<start>17635</start>
						<end>17679</end>
						<in>4</in>
						<out>48</out>
						<pproTicksIn>42378336000</pproTicksIn>
						<pproTicksOut>508540032000</pproTicksOut>
						<alphatype>none</alphatype>
						<pixelaspectratio>square</pixelaspectratio>
						<anamorphic>FALSE</anamorphic>
						<file id="file-212">
							<name>TKO_006_FOS_Sh02170.mov</name>
							<pathurl>file://tri-stor01/Projects/TKO/SHOTS/_Refs_Movs_Burnin_FrameCounter/TKO_006_FOS_Sh02170.mov</pathurl>
							<rate>
								<timebase>24</timebase>
								<ntsc>TRUE</ntsc>
							</rate>
							<duration>52</duration>
							<timecode>
								<rate>
									<timebase>24</timebase>
									<ntsc>TRUE</ntsc>
								</rate>
								<string>19:56:12:11</string>
								<frame>1722539</frame>
								<displayformat>NDF</displayformat>
								<reel>
									<name>B0300014</name>
								</reel>
							</timecode>
							<media>
								<video>
									<samplecharacteristics>
										<rate>
											<timebase>24</timebase>
											<ntsc>TRUE</ntsc>
										</rate>
										<width>4096</width>
										<height>2160</height>
										<anamorphic>FALSE</anamorphic>
										<pixelaspectratio>square</pixelaspectratio>
										<fielddominance>none</fielddominance>
									</samplecharacteristics>
								</video>
							</media>
						</file>
						<logginginfo>
							<description></description>
							<scene></scene>
							<shottake></shottake>
							<lognote></lognote>
							<good></good>
							<originalvideofilename></originalvideofilename>
							<originalaudiofilename></originalaudiofilename>
						</logginginfo>
						<colorinfo>
							<lut></lut>
							<lut1></lut1>
							<asc_sop></asc_sop>
							<asc_sat></asc_sat>
							<lut2></lut2>
						</colorinfo>
						<labels>
							<label2>Violet</label2>
						</labels>
					</clipitem>
					<clipitem id="clipitem-215">
						<masterclipid>masterclip-213</masterclipid>
						<name>TKO_006_FOS_Sh02180.mov</name>
						<enabled>TRUE</enabled>
						<duration>39</duration>
						<rate>
							<timebase>24</timebase>
							<ntsc>TRUE</ntsc>
						</rate>
						<start>17679</start>
						<end>17710</end>
						<in>4</in>
						<out>35</out>
						<pproTicksIn>42378336000</pproTicksIn>
						<pproTicksOut>370810440000</pproTicksOut>
						<alphatype>none</alphatype>
						<pixelaspectratio>square</pixelaspectratio>
						<anamorphic>FALSE</anamorphic>
						<file id="file-213">
							<name>TKO_006_FOS_Sh02180.mov</name>
							<pathurl>file://tri-stor01/Projects/TKO/SHOTS/_Refs_Movs_Burnin_FrameCounter/TKO_006_FOS_Sh02180.mov</pathurl>
							<rate>
								<timebase>24</timebase>
								<ntsc>TRUE</ntsc>
							</rate>
							<duration>39</duration>
							<timecode>
								<rate>
									<timebase>24</timebase>
									<ntsc>TRUE</ntsc>
								</rate>
								<string>19:34:16:03</string>
								<frame>1690947</frame>
								<displayformat>NDF</displayformat>
								<reel>
									<name>A0360014</name>
								</reel>
							</timecode>
							<media>
								<video>
									<samplecharacteristics>
										<rate>
											<timebase>24</timebase>
											<ntsc>TRUE</ntsc>
										</rate>
										<width>4096</width>
										<height>2160</height>
										<anamorphic>FALSE</anamorphic>
										<pixelaspectratio>square</pixelaspectratio>
										<fielddominance>none</fielddominance>
									</samplecharacteristics>
								</video>
							</media>
						</file>
						<logginginfo>
							<description></description>
							<scene></scene>
							<shottake></shottake>
							<lognote></lognote>
							<good></good>
							<originalvideofilename></originalvideofilename>
							<originalaudiofilename></originalaudiofilename>
						</logginginfo>
						<colorinfo>
							<lut></lut>
							<lut1></lut1>
							<asc_sop></asc_sop>
							<asc_sat></asc_sat>
							<lut2></lut2>
						</colorinfo>
						<labels>
							<label2>Violet</label2>
						</labels>
					</clipitem>
					<clipitem id="clipitem-216">
						<masterclipid>masterclip-214</masterclipid>
						<name>TKO_006_FOS_Sh02190.mov</name>
						<enabled>TRUE</enabled>
						<duration>49</duration>
						<rate>
							<timebase>24</timebase>
							<ntsc>TRUE</ntsc>
						</rate>
						<start>17710</start>
						<end>17751</end>
						<in>4</in>
						<out>45</out>
						<pproTicksIn>42378336000</pproTicksIn>
						<pproTicksOut>476756280000</pproTicksOut>
						<alphatype>none</alphatype>
						<pixelaspectratio>square</pixelaspectratio>
						<anamorphic>FALSE</anamorphic>
						<file id="file-214">
							<name>TKO_006_FOS_Sh02190.mov</name>
							<pathurl>file://tri-stor01/Projects/TKO/SHOTS/_Refs_Movs_Burnin_FrameCounter/TKO_006_FOS_Sh02190.mov</pathurl>
							<rate>
								<timebase>24</timebase>
								<ntsc>TRUE</ntsc>
							</rate>
							<duration>49</duration>
							<timecode>
								<rate>
									<timebase>24</timebase>
									<ntsc>TRUE</ntsc>
								</rate>
								<string>19:34:17:10</string>
								<frame>1690978</frame>
								<displayformat>NDF</displayformat>
								<reel>
									<name>B0300012</name>
								</reel>
							</timecode>
							<media>
								<video>
									<samplecharacteristics>
										<rate>
											<timebase>24</timebase>
											<ntsc>TRUE</ntsc>
										</rate>
										<width>4096</width>
										<height>2160</height>
										<anamorphic>FALSE</anamorphic>
										<pixelaspectratio>square</pixelaspectratio>
										<fielddominance>none</fielddominance>
									</samplecharacteristics>
								</video>
							</media>
						</file>
						<logginginfo>
							<description></description>
							<scene></scene>
							<shottake></shottake>
							<lognote></lognote>
							<good></good>
							<originalvideofilename></originalvideofilename>
							<originalaudiofilename></originalaudiofilename>
						</logginginfo>
						<colorinfo>
							<lut></lut>
							<lut1></lut1>
							<asc_sop></asc_sop>
							<asc_sat></asc_sat>
							<lut2></lut2>
						</colorinfo>
						<labels>
							<label2>Violet</label2>
						</labels>
					</clipitem>
					<clipitem id="clipitem-217">
						<masterclipid>masterclip-215</masterclipid>
						<name>TKO_006_FOS_Sh02200.mov</name>
						<enabled>TRUE</enabled>
						<duration>99</duration>
						<rate>
							<timebase>24</timebase>
							<ntsc>TRUE</ntsc>
						</rate>
						<start>17751</start>
						<end>17842</end>
						<in>4</in>
						<out>95</out>
						<pproTicksIn>42378336000</pproTicksIn>
						<pproTicksOut>1006485480000</pproTicksOut>
						<alphatype>none</alphatype>
						<pixelaspectratio>square</pixelaspectratio>
						<anamorphic>FALSE</anamorphic>
						<file id="file-215">
							<name>TKO_006_FOS_Sh02200.mov</name>
							<pathurl>file://tri-stor01/Projects/TKO/SHOTS/_Refs_Movs_Burnin_FrameCounter/TKO_006_FOS_Sh02200.mov</pathurl>
							<rate>
								<timebase>24</timebase>
								<ntsc>TRUE</ntsc>
							</rate>
							<duration>99</duration>
							<timecode>
								<rate>
									<timebase>24</timebase>
									<ntsc>TRUE</ntsc>
								</rate>
								<string>19:56:19:17</string>
								<frame>1722713</frame>
								<displayformat>NDF</displayformat>
								<reel>
									<name>B0300014</name>
								</reel>
							</timecode>
							<media>
								<video>
									<samplecharacteristics>
										<rate>
											<timebase>24</timebase>
											<ntsc>TRUE</ntsc>
										</rate>
										<width>4096</width>
										<height>2160</height>
										<anamorphic>FALSE</anamorphic>
										<pixelaspectratio>square</pixelaspectratio>
										<fielddominance>none</fielddominance>
									</samplecharacteristics>
								</video>
							</media>
						</file>
						<logginginfo>
							<description></description>
							<scene></scene>
							<shottake></shottake>
							<lognote></lognote>
							<good></good>
							<originalvideofilename></originalvideofilename>
							<originalaudiofilename></originalaudiofilename>
						</logginginfo>
						<colorinfo>
							<lut></lut>
							<lut1></lut1>
							<asc_sop></asc_sop>
							<asc_sat></asc_sat>
							<lut2></lut2>
						</colorinfo>
						<labels>
							<label2>Violet</label2>
						</labels>
					</clipitem>
					<clipitem id="clipitem-218">
						<masterclipid>masterclip-216</masterclipid>
						<name>TKO_006_FOS_Sh02210.mov</name>
						<enabled>TRUE</enabled>
						<duration>179</duration>
						<rate>
							<timebase>24</timebase>
							<ntsc>TRUE</ntsc>
						</rate>
						<start>17842</start>
						<end>17973</end>
						<in>44</in>
						<out>175</out>
						<pproTicksIn>466161696000</pproTicksIn>
						<pproTicksOut>1854052200000</pproTicksOut>
						<alphatype>none</alphatype>
						<pixelaspectratio>square</pixelaspectratio>
						<anamorphic>FALSE</anamorphic>
						<file id="file-216">
							<name>TKO_006_FOS_Sh02210.mov</name>
							<pathurl>file://tri-stor01/Projects/TKO/SHOTS/_Refs_Movs_Burnin_FrameCounter/TKO_006_FOS_Sh02210.mov</pathurl>
							<rate>
								<timebase>24</timebase>
								<ntsc>TRUE</ntsc>
							</rate>
							<duration>179</duration>
							<timecode>
								<rate>
									<timebase>24</timebase>
									<ntsc>TRUE</ntsc>
								</rate>
								<string>19:56:23:12</string>
								<frame>1722804</frame>
								<displayformat>NDF</displayformat>
								<reel>
									<name>A0360016</name>
								</reel>
							</timecode>
							<media>
								<video>
									<samplecharacteristics>
										<rate>
											<timebase>24</timebase>
											<ntsc>TRUE</ntsc>
										</rate>
										<width>4096</width>
										<height>2160</height>
										<anamorphic>FALSE</anamorphic>
										<pixelaspectratio>square</pixelaspectratio>
										<fielddominance>none</fielddominance>
									</samplecharacteristics>
								</video>
							</media>
						</file>
						<logginginfo>
							<description></description>
							<scene></scene>
							<shottake></shottake>
							<lognote></lognote>
							<good></good>
							<originalvideofilename></originalvideofilename>
							<originalaudiofilename></originalaudiofilename>
						</logginginfo>
						<colorinfo>
							<lut></lut>
							<lut1></lut1>
							<asc_sop></asc_sop>
							<asc_sat></asc_sat>
							<lut2></lut2>
						</colorinfo>
						<labels>
							<label2>Violet</label2>
						</labels>
					</clipitem>
					<clipitem id="clipitem-219">
						<masterclipid>masterclip-217</masterclipid>
						<name>TKO_006_FOS_Sh02220.mov</name>
						<enabled>TRUE</enabled>
						<duration>83</duration>
						<rate>
							<timebase>24</timebase>
							<ntsc>TRUE</ntsc>
						</rate>
						<start>17973</start>
						<end>18048</end>
						<in>4</in>
						<out>79</out>
						<pproTicksIn>42378336000</pproTicksIn>
						<pproTicksOut>836972136000</pproTicksOut>
						<alphatype>none</alphatype>
						<pixelaspectratio>square</pixelaspectratio>
						<anamorphic>FALSE</anamorphic>
						<file id="file-217">
							<name>TKO_006_FOS_Sh02220.mov</name>
							<pathurl>file://tri-stor01/Projects/TKO/SHOTS/_Refs_Movs_Burnin_FrameCounter/TKO_006_FOS_Sh02220.mov</pathurl>
							<rate>
								<timebase>24</timebase>
								<ntsc>TRUE</ntsc>
							</rate>
							<duration>83</duration>
							<timecode>
								<rate>
									<timebase>24</timebase>
									<ntsc>TRUE</ntsc>
								</rate>
								<string>19:56:31:15</string>
								<frame>1722999</frame>
								<displayformat>NDF</displayformat>
								<reel>
									<name>B0300014</name>
								</reel>
							</timecode>
							<media>
								<video>
									<samplecharacteristics>
										<rate>
											<timebase>24</timebase>
											<ntsc>TRUE</ntsc>
										</rate>
										<width>4096</width>
										<height>2160</height>
										<anamorphic>FALSE</anamorphic>
										<pixelaspectratio>square</pixelaspectratio>
										<fielddominance>none</fielddominance>
									</samplecharacteristics>
								</video>
							</media>
						</file>
						<logginginfo>
							<description></description>
							<scene></scene>
							<shottake></shottake>
							<lognote></lognote>
							<good></good>
							<originalvideofilename></originalvideofilename>
							<originalaudiofilename></originalaudiofilename>
						</logginginfo>
						<colorinfo>
							<lut></lut>
							<lut1></lut1>
							<asc_sop></asc_sop>
							<asc_sat></asc_sat>
							<lut2></lut2>
						</colorinfo>
						<labels>
							<label2>Violet</label2>
						</labels>
					</clipitem>
					<clipitem id="clipitem-220">
						<masterclipid>masterclip-218</masterclipid>
						<name>TKO_006_FOS_Sh02230.mov</name>
						<enabled>TRUE</enabled>
						<duration>111</duration>
						<rate>
							<timebase>24</timebase>
							<ntsc>TRUE</ntsc>
						</rate>
						<start>18048</start>
						<end>18059</end>
						<in>4</in>
						<out>15</out>
						<pproTicksIn>42378336000</pproTicksIn>
						<pproTicksOut>158918760000</pproTicksOut>
						<alphatype>none</alphatype>
						<pixelaspectratio>square</pixelaspectratio>
						<anamorphic>FALSE</anamorphic>
						<file id="file-218">
							<name>TKO_006_FOS_Sh02230.mov</name>
							<pathurl>file://tri-stor01/Projects/TKO/SHOTS/_Refs_Movs_Burnin_FrameCounter/TKO_006_FOS_Sh02230.mov</pathurl>
							<rate>
								<timebase>24</timebase>
								<ntsc>TRUE</ntsc>
							</rate>
							<duration>111</duration>
							<timecode>
								<rate>
									<timebase>24</timebase>
									<ntsc>TRUE</ntsc>
								</rate>
								<string>19:34:38:16</string>
								<frame>1691488</frame>
								<displayformat>NDF</displayformat>
								<reel>
									<name>B0300012</name>
								</reel>
							</timecode>
							<media>
								<video>
									<samplecharacteristics>
										<rate>
											<timebase>24</timebase>
											<ntsc>TRUE</ntsc>
										</rate>
										<width>4096</width>
										<height>2160</height>
										<anamorphic>FALSE</anamorphic>
										<pixelaspectratio>square</pixelaspectratio>
										<fielddominance>none</fielddominance>
									</samplecharacteristics>
								</video>
							</media>
						</file>
						<logginginfo>
							<description></description>
							<scene></scene>
							<shottake></shottake>
							<lognote></lognote>
							<good></good>
							<originalvideofilename></originalvideofilename>
							<originalaudiofilename></originalaudiofilename>
						</logginginfo>
						<colorinfo>
							<lut></lut>
							<lut1></lut1>
							<asc_sop></asc_sop>
							<asc_sat></asc_sat>
							<lut2></lut2>
						</colorinfo>
						<labels>
							<label2>Violet</label2>
						</labels>
					</clipitem>
					<clipitem id="clipitem-221">
						<masterclipid>masterclip-218</masterclipid>
						<name>TKO_006_FOS_Sh02230.mov</name>
						<enabled>TRUE</enabled>
						<duration>111</duration>
						<rate>
							<timebase>24</timebase>
							<ntsc>TRUE</ntsc>
						</rate>
						<start>18059</start>
						<end>18151</end>
						<in>15</in>
						<out>107</out>
						<pproTicksIn>158918760000</pproTicksIn>
						<pproTicksOut>1133620488000</pproTicksOut>
						<alphatype>none</alphatype>
						<file id="file-218"/>
						<logginginfo>
							<description></description>
							<scene></scene>
							<shottake></shottake>
							<lognote></lognote>
							<good></good>
							<originalvideofilename></originalvideofilename>
							<originalaudiofilename></originalaudiofilename>
						</logginginfo>
						<colorinfo>
							<lut></lut>
							<lut1></lut1>
							<asc_sop></asc_sop>
							<asc_sat></asc_sat>
							<lut2></lut2>
						</colorinfo>
						<labels>
							<label2>Violet</label2>
						</labels>
					</clipitem>
					<clipitem id="clipitem-222">
						<masterclipid>masterclip-219</masterclipid>
						<name>TKO_006_FOS_Sh02240.mov</name>
						<enabled>TRUE</enabled>
						<duration>193</duration>
						<rate>
							<timebase>24</timebase>
							<ntsc>TRUE</ntsc>
						</rate>
						<start>18151</start>
						<end>18336</end>
						<in>4</in>
						<out>189</out>
						<pproTicksIn>42378336000</pproTicksIn>
						<pproTicksOut>2002376376000</pproTicksOut>
						<alphatype>none</alphatype>
						<pixelaspectratio>square</pixelaspectratio>
						<anamorphic>FALSE</anamorphic>
						<file id="file-219">
							<name>TKO_006_FOS_Sh02240.mov</name>
							<pathurl>file://tri-stor01/Projects/TKO/SHOTS/_Refs_Movs_Burnin_FrameCounter/TKO_006_FOS_Sh02240.mov</pathurl>
							<rate>
								<timebase>24</timebase>
								<ntsc>TRUE</ntsc>
							</rate>
							<duration>193</duration>
							<timecode>
								<rate>
									<timebase>24</timebase>
									<ntsc>TRUE</ntsc>
								</rate>
								<string>19:34:42:23</string>
								<frame>1691591</frame>
								<displayformat>NDF</displayformat>
								<reel>
									<name>A0360014</name>
								</reel>
							</timecode>
							<media>
								<video>
									<samplecharacteristics>
										<rate>
											<timebase>24</timebase>
											<ntsc>TRUE</ntsc>
										</rate>
										<width>4096</width>
										<height>2160</height>
										<anamorphic>FALSE</anamorphic>
										<pixelaspectratio>square</pixelaspectratio>
										<fielddominance>none</fielddominance>
									</samplecharacteristics>
								</video>
							</media>
						</file>
						<logginginfo>
							<description></description>
							<scene></scene>
							<shottake></shottake>
							<lognote></lognote>
							<good></good>
							<originalvideofilename></originalvideofilename>
							<originalaudiofilename></originalaudiofilename>
						</logginginfo>
						<colorinfo>
							<lut></lut>
							<lut1></lut1>
							<asc_sop></asc_sop>
							<asc_sat></asc_sat>
							<lut2></lut2>
						</colorinfo>
						<labels>
							<label2>Violet</label2>
						</labels>
					</clipitem>
					<clipitem id="clipitem-223">
						<masterclipid>masterclip-220</masterclipid>
						<name>TKO_006_FOS_Sh02250.mov</name>
						<enabled>TRUE</enabled>
						<duration>30</duration>
						<rate>
							<timebase>24</timebase>
							<ntsc>TRUE</ntsc>
						</rate>
						<start>18336</start>
						<end>18358</end>
						<in>4</in>
						<out>26</out>
						<pproTicksIn>42378336000</pproTicksIn>
						<pproTicksOut>275459184000</pproTicksOut>
						<alphatype>none</alphatype>
						<pixelaspectratio>square</pixelaspectratio>
						<anamorphic>FALSE</anamorphic>
						<file id="file-220">
							<name>TKO_006_FOS_Sh02250.mov</name>
							<pathurl>file://tri-stor01/Projects/TKO/SHOTS/_Refs_Movs_Burnin_FrameCounter/TKO_006_FOS_Sh02250.mov</pathurl>
							<rate>
								<timebase>24</timebase>
								<ntsc>TRUE</ntsc>
							</rate>
							<duration>30</duration>
							<timecode>
								<rate>
									<timebase>24</timebase>
									<ntsc>TRUE</ntsc>
								</rate>
								<string>19:51:06:08</string>
								<frame>1715192</frame>
								<displayformat>NDF</displayformat>
								<reel>
									<name>B0300013</name>
								</reel>
							</timecode>
							<media>
								<video>
									<samplecharacteristics>
										<rate>
											<timebase>24</timebase>
											<ntsc>TRUE</ntsc>
										</rate>
										<width>4096</width>
										<height>2160</height>
										<anamorphic>FALSE</anamorphic>
										<pixelaspectratio>square</pixelaspectratio>
										<fielddominance>none</fielddominance>
									</samplecharacteristics>
								</video>
							</media>
						</file>
						<logginginfo>
							<description></description>
							<scene></scene>
							<shottake></shottake>
							<lognote></lognote>
							<good></good>
							<originalvideofilename></originalvideofilename>
							<originalaudiofilename></originalaudiofilename>
						</logginginfo>
						<colorinfo>
							<lut></lut>
							<lut1></lut1>
							<asc_sop></asc_sop>
							<asc_sat></asc_sat>
							<lut2></lut2>
						</colorinfo>
						<labels>
							<label2>Violet</label2>
						</labels>
					</clipitem>
					<clipitem id="clipitem-224">
						<masterclipid>masterclip-221</masterclipid>
						<name>TKO_006_FOS_Sh02260.mov</name>
						<enabled>TRUE</enabled>
						<duration>85</duration>
						<rate>
							<timebase>24</timebase>
							<ntsc>TRUE</ntsc>
						</rate>
						<start>18358</start>
						<end>18435</end>
						<in>4</in>
						<out>81</out>
						<pproTicksIn>42378336000</pproTicksIn>
						<pproTicksOut>858161304000</pproTicksOut>
						<alphatype>none</alphatype>
						<pixelaspectratio>square</pixelaspectratio>
						<anamorphic>FALSE</anamorphic>
						<file id="file-221">
							<name>TKO_006_FOS_Sh02260.mov</name>
							<pathurl>file://tri-stor01/Projects/TKO/SHOTS/_Refs_Movs_Burnin_FrameCounter/TKO_006_FOS_Sh02260.mov</pathurl>
							<rate>
								<timebase>24</timebase>
								<ntsc>TRUE</ntsc>
							</rate>
							<duration>85</duration>
							<timecode>
								<rate>
									<timebase>24</timebase>
									<ntsc>TRUE</ntsc>
								</rate>
								<string>19:51:07:06</string>
								<frame>1715214</frame>
								<displayformat>NDF</displayformat>
								<reel>
									<name>A0360015</name>
								</reel>
							</timecode>
							<media>
								<video>
									<samplecharacteristics>
										<rate>
											<timebase>24</timebase>
											<ntsc>TRUE</ntsc>
										</rate>
										<width>4096</width>
										<height>2160</height>
										<anamorphic>FALSE</anamorphic>
										<pixelaspectratio>square</pixelaspectratio>
										<fielddominance>none</fielddominance>
									</samplecharacteristics>
								</video>
							</media>
						</file>
						<logginginfo>
							<description></description>
							<scene></scene>
							<shottake></shottake>
							<lognote></lognote>
							<good></good>
							<originalvideofilename></originalvideofilename>
							<originalaudiofilename></originalaudiofilename>
						</logginginfo>
						<colorinfo>
							<lut></lut>
							<lut1></lut1>
							<asc_sop></asc_sop>
							<asc_sat></asc_sat>
							<lut2></lut2>
						</colorinfo>
						<labels>
							<label2>Violet</label2>
						</labels>
					</clipitem>
					<clipitem id="clipitem-225">
						<masterclipid>masterclip-222</masterclipid>
						<name>TKO_006_FOS_Sh02270.mov</name>
						<enabled>TRUE</enabled>
						<duration>52</duration>
						<rate>
							<timebase>24</timebase>
							<ntsc>TRUE</ntsc>
						</rate>
						<start>18435</start>
						<end>18479</end>
						<in>4</in>
						<out>48</out>
						<pproTicksIn>42378336000</pproTicksIn>
						<pproTicksOut>508540032000</pproTicksOut>
						<alphatype>none</alphatype>
						<pixelaspectratio>square</pixelaspectratio>
						<anamorphic>FALSE</anamorphic>
						<file id="file-222">
							<name>TKO_006_FOS_Sh02270.mov</name>
							<pathurl>file://tri-stor01/Projects/TKO/SHOTS/_Refs_Movs_Burnin_FrameCounter/TKO_006_FOS_Sh02270.mov</pathurl>
							<rate>
								<timebase>24</timebase>
								<ntsc>TRUE</ntsc>
							</rate>
							<duration>52</duration>
							<timecode>
								<rate>
									<timebase>24</timebase>
									<ntsc>TRUE</ntsc>
								</rate>
								<string>19:51:13:10</string>
								<frame>1715362</frame>
								<displayformat>NDF</displayformat>
								<reel>
									<name>B0300013</name>
								</reel>
							</timecode>
							<media>
								<video>
									<samplecharacteristics>
										<rate>
											<timebase>24</timebase>
											<ntsc>TRUE</ntsc>
										</rate>
										<width>4096</width>
										<height>2160</height>
										<anamorphic>FALSE</anamorphic>
										<pixelaspectratio>square</pixelaspectratio>
										<fielddominance>none</fielddominance>
									</samplecharacteristics>
								</video>
							</media>
						</file>
						<logginginfo>
							<description></description>
							<scene></scene>
							<shottake></shottake>
							<lognote></lognote>
							<good></good>
							<originalvideofilename></originalvideofilename>
							<originalaudiofilename></originalaudiofilename>
						</logginginfo>
						<colorinfo>
							<lut></lut>
							<lut1></lut1>
							<asc_sop></asc_sop>
							<asc_sat></asc_sat>
							<lut2></lut2>
						</colorinfo>
						<labels>
							<label2>Violet</label2>
						</labels>
					</clipitem>
					<clipitem id="clipitem-226">
						<masterclipid>masterclip-223</masterclipid>
						<name>TKO_006_FOS_Sh02280.mov</name>
						<enabled>TRUE</enabled>
						<duration>182</duration>
						<rate>
							<timebase>24</timebase>
							<ntsc>TRUE</ntsc>
						</rate>
						<start>18479</start>
						<end>18653</end>
						<in>4</in>
						<out>178</out>
						<pproTicksIn>42378336000</pproTicksIn>
						<pproTicksOut>1885835952000</pproTicksOut>
						<alphatype>none</alphatype>
						<pixelaspectratio>square</pixelaspectratio>
						<anamorphic>FALSE</anamorphic>
						<file id="file-223">
							<name>TKO_006_FOS_Sh02280.mov</name>
							<pathurl>file://tri-stor01/Projects/TKO/SHOTS/_Refs_Movs_Burnin_FrameCounter/TKO_006_FOS_Sh02280.mov</pathurl>
							<rate>
								<timebase>24</timebase>
								<ntsc>TRUE</ntsc>
							</rate>
							<duration>182</duration>
							<timecode>
								<rate>
									<timebase>24</timebase>
									<ntsc>TRUE</ntsc>
								</rate>
								<string>19:34:55:21</string>
								<frame>1691901</frame>
								<displayformat>NDF</displayformat>
								<reel>
									<name>B0300012</name>
								</reel>
							</timecode>
							<media>
								<video>
									<samplecharacteristics>
										<rate>
											<timebase>24</timebase>
											<ntsc>TRUE</ntsc>
										</rate>
										<width>4096</width>
										<height>2160</height>
										<anamorphic>FALSE</anamorphic>
										<pixelaspectratio>square</pixelaspectratio>
										<fielddominance>none</fielddominance>
									</samplecharacteristics>
								</video>
							</media>
						</file>
						<logginginfo>
							<description></description>
							<scene></scene>
							<shottake></shottake>
							<lognote></lognote>
							<good></good>
							<originalvideofilename></originalvideofilename>
							<originalaudiofilename></originalaudiofilename>
						</logginginfo>
						<colorinfo>
							<lut></lut>
							<lut1></lut1>
							<asc_sop></asc_sop>
							<asc_sat></asc_sat>
							<lut2></lut2>
						</colorinfo>
						<labels>
							<label2>Violet</label2>
						</labels>
					</clipitem>
					<clipitem id="clipitem-227">
						<masterclipid>masterclip-224</masterclipid>
						<name>TKO_006_FOS_Sh02290.mov</name>
						<enabled>TRUE</enabled>
						<duration>96</duration>
						<rate>
							<timebase>24</timebase>
							<ntsc>TRUE</ntsc>
						</rate>
						<start>18653</start>
						<end>18741</end>
						<in>4</in>
						<out>92</out>
						<pproTicksIn>42378336000</pproTicksIn>
						<pproTicksOut>974701728000</pproTicksOut>
						<alphatype>none</alphatype>
						<pixelaspectratio>square</pixelaspectratio>
						<anamorphic>FALSE</anamorphic>
						<file id="file-224">
							<name>TKO_006_FOS_Sh02290.mov</name>
							<pathurl>file://tri-stor01/Projects/TKO/SHOTS/_Refs_Movs_Burnin_FrameCounter/TKO_006_FOS_Sh02290.mov</pathurl>
							<rate>
								<timebase>24</timebase>
								<ntsc>TRUE</ntsc>
							</rate>
							<duration>96</duration>
							<timecode>
								<rate>
									<timebase>24</timebase>
									<ntsc>TRUE</ntsc>
								</rate>
								<string>19:35:03:03</string>
								<frame>1692075</frame>
								<displayformat>NDF</displayformat>
								<reel>
									<name>A0360014</name>
								</reel>
							</timecode>
							<media>
								<video>
									<samplecharacteristics>
										<rate>
											<timebase>24</timebase>
											<ntsc>TRUE</ntsc>
										</rate>
										<width>4096</width>
										<height>2160</height>
										<anamorphic>FALSE</anamorphic>
										<pixelaspectratio>square</pixelaspectratio>
										<fielddominance>none</fielddominance>
									</samplecharacteristics>
								</video>
							</media>
						</file>
						<logginginfo>
							<description></description>
							<scene></scene>
							<shottake></shottake>
							<lognote></lognote>
							<good></good>
							<originalvideofilename></originalvideofilename>
							<originalaudiofilename></originalaudiofilename>
						</logginginfo>
						<colorinfo>
							<lut></lut>
							<lut1></lut1>
							<asc_sop></asc_sop>
							<asc_sat></asc_sat>
							<lut2></lut2>
						</colorinfo>
						<labels>
							<label2>Violet</label2>
						</labels>
					</clipitem>
					<clipitem id="clipitem-228">
						<masterclipid>masterclip-225</masterclipid>
						<name>TKO_007_FRE_Sh02300.mov</name>
						<enabled>TRUE</enabled>
						<duration>62</duration>
						<rate>
							<timebase>24</timebase>
							<ntsc>TRUE</ntsc>
						</rate>
						<start>18741</start>
						<end>18795</end>
						<in>4</in>
						<out>58</out>
						<pproTicksIn>42378336000</pproTicksIn>
						<pproTicksOut>614485872000</pproTicksOut>
						<alphatype>none</alphatype>
						<pixelaspectratio>square</pixelaspectratio>
						<anamorphic>FALSE</anamorphic>
						<file id="file-225">
							<name>TKO_007_FRE_Sh02300.mov</name>
							<pathurl>file://tri-stor01/Projects/TKO/SHOTS/_Refs_Movs_Burnin_FrameCounter/TKO_007_FRE_Sh02300.mov</pathurl>
							<rate>
								<timebase>24</timebase>
								<ntsc>TRUE</ntsc>
							</rate>
							<duration>62</duration>
							<timecode>
								<rate>
									<timebase>24</timebase>
									<ntsc>TRUE</ntsc>
								</rate>
								<string>10:24:43:08</string>
								<frame>899600</frame>
								<displayformat>NDF</displayformat>
								<reel>
									<name>C0250003</name>
								</reel>
							</timecode>
							<media>
								<video>
									<samplecharacteristics>
										<rate>
											<timebase>24</timebase>
											<ntsc>TRUE</ntsc>
										</rate>
										<width>3840</width>
										<height>2160</height>
										<anamorphic>FALSE</anamorphic>
										<pixelaspectratio>square</pixelaspectratio>
										<fielddominance>none</fielddominance>
									</samplecharacteristics>
								</video>
							</media>
						</file>
						<logginginfo>
							<description></description>
							<scene></scene>
							<shottake></shottake>
							<lognote></lognote>
							<good></good>
							<originalvideofilename></originalvideofilename>
							<originalaudiofilename></originalaudiofilename>
						</logginginfo>
						<colorinfo>
							<lut></lut>
							<lut1></lut1>
							<asc_sop></asc_sop>
							<asc_sat></asc_sat>
							<lut2></lut2>
						</colorinfo>
						<labels>
							<label2>Violet</label2>
						</labels>
					</clipitem>
					<clipitem id="clipitem-229">
						<masterclipid>masterclip-226</masterclipid>
						<name>TKO_007_FRE_Sh02310.mov</name>
						<enabled>TRUE</enabled>
						<duration>154</duration>
						<rate>
							<timebase>24</timebase>
							<ntsc>TRUE</ntsc>
						</rate>
						<start>18795</start>
						<end>18941</end>
						<in>4</in>
						<out>150</out>
						<pproTicksIn>42378336000</pproTicksIn>
						<pproTicksOut>1589187600000</pproTicksOut>
						<alphatype>none</alphatype>
						<pixelaspectratio>square</pixelaspectratio>
						<anamorphic>FALSE</anamorphic>
						<file id="file-226">
							<name>TKO_007_FRE_Sh02310.mov</name>
							<pathurl>file://tri-stor01/Projects/TKO/SHOTS/_Refs_Movs_Burnin_FrameCounter/TKO_007_FRE_Sh02310.mov</pathurl>
							<rate>
								<timebase>24</timebase>
								<ntsc>TRUE</ntsc>
							</rate>
							<duration>154</duration>
							<timecode>
								<rate>
									<timebase>24</timebase>
									<ntsc>TRUE</ntsc>
								</rate>
								<string>11:42:15:02</string>
								<frame>1011242</frame>
								<displayformat>NDF</displayformat>
								<reel>
									<name>A0350001</name>
								</reel>
							</timecode>
							<media>
								<video>
									<samplecharacteristics>
										<rate>
											<timebase>24</timebase>
											<ntsc>TRUE</ntsc>
										</rate>
										<width>4096</width>
										<height>2160</height>
										<anamorphic>FALSE</anamorphic>
										<pixelaspectratio>square</pixelaspectratio>
										<fielddominance>none</fielddominance>
									</samplecharacteristics>
								</video>
							</media>
						</file>
						<logginginfo>
							<description></description>
							<scene></scene>
							<shottake></shottake>
							<lognote></lognote>
							<good></good>
							<originalvideofilename></originalvideofilename>
							<originalaudiofilename></originalaudiofilename>
						</logginginfo>
						<colorinfo>
							<lut></lut>
							<lut1></lut1>
							<asc_sop></asc_sop>
							<asc_sat></asc_sat>
							<lut2></lut2>
						</colorinfo>
						<labels>
							<label2>Violet</label2>
						</labels>
					</clipitem>
					<clipitem id="clipitem-230">
						<masterclipid>masterclip-227</masterclipid>
						<name>TKO_007_FRE_Sh02320.mov</name>
						<enabled>TRUE</enabled>
						<duration>72</duration>
						<rate>
							<timebase>24</timebase>
							<ntsc>TRUE</ntsc>
						</rate>
						<start>18941</start>
						<end>19005</end>
						<in>4</in>
						<out>68</out>
						<pproTicksIn>42378336000</pproTicksIn>
						<pproTicksOut>720431712000</pproTicksOut>
						<alphatype>none</alphatype>
						<pixelaspectratio>square</pixelaspectratio>
						<anamorphic>FALSE</anamorphic>
						<file id="file-227">
							<name>TKO_007_FRE_Sh02320.mov</name>
							<pathurl>file://tri-stor01/Projects/TKO/SHOTS/_Refs_Movs_Burnin_FrameCounter/TKO_007_FRE_Sh02320.mov</pathurl>
							<rate>
								<timebase>24</timebase>
								<ntsc>TRUE</ntsc>
							</rate>
							<duration>72</duration>
							<timecode>
								<rate>
									<timebase>24</timebase>
									<ntsc>TRUE</ntsc>
								</rate>
								<string>10:39:35:17</string>
								<frame>921017</frame>
								<displayformat>NDF</displayformat>
								<reel>
									<name>C0250009</name>
								</reel>
							</timecode>
							<media>
								<video>
									<samplecharacteristics>
										<rate>
											<timebase>24</timebase>
											<ntsc>TRUE</ntsc>
										</rate>
										<width>3840</width>
										<height>2160</height>
										<anamorphic>FALSE</anamorphic>
										<pixelaspectratio>square</pixelaspectratio>
										<fielddominance>none</fielddominance>
									</samplecharacteristics>
								</video>
							</media>
						</file>
						<logginginfo>
							<description></description>
							<scene></scene>
							<shottake></shottake>
							<lognote></lognote>
							<good></good>
							<originalvideofilename></originalvideofilename>
							<originalaudiofilename></originalaudiofilename>
						</logginginfo>
						<colorinfo>
							<lut></lut>
							<lut1></lut1>
							<asc_sop></asc_sop>
							<asc_sat></asc_sat>
							<lut2></lut2>
						</colorinfo>
						<labels>
							<label2>Violet</label2>
						</labels>
					</clipitem>
					<clipitem id="clipitem-231">
						<masterclipid>masterclip-228</masterclipid>
						<name>TKO_007_FRE_Sh02330.mov</name>
						<enabled>TRUE</enabled>
						<duration>82</duration>
						<rate>
							<timebase>24</timebase>
							<ntsc>TRUE</ntsc>
						</rate>
						<start>19005</start>
						<end>19079</end>
						<in>4</in>
						<out>78</out>
						<pproTicksIn>42378336000</pproTicksIn>
						<pproTicksOut>826377552000</pproTicksOut>
						<alphatype>none</alphatype>
						<pixelaspectratio>square</pixelaspectratio>
						<anamorphic>FALSE</anamorphic>
						<file id="file-228">
							<name>TKO_007_FRE_Sh02330.mov</name>
							<pathurl>file://tri-stor01/Projects/TKO/SHOTS/_Refs_Movs_Burnin_FrameCounter/TKO_007_FRE_Sh02330.mov</pathurl>
							<rate>
								<timebase>24</timebase>
								<ntsc>TRUE</ntsc>
							</rate>
							<duration>82</duration>
							<timecode>
								<rate>
									<timebase>24</timebase>
									<ntsc>TRUE</ntsc>
								</rate>
								<string>11:42:23:17</string>
								<frame>1011449</frame>
								<displayformat>NDF</displayformat>
								<reel>
									<name>B0290002</name>
								</reel>
							</timecode>
							<media>
								<video>
									<samplecharacteristics>
										<rate>
											<timebase>24</timebase>
											<ntsc>TRUE</ntsc>
										</rate>
										<width>4096</width>
										<height>2160</height>
										<anamorphic>FALSE</anamorphic>
										<pixelaspectratio>square</pixelaspectratio>
										<fielddominance>none</fielddominance>
									</samplecharacteristics>
								</video>
							</media>
						</file>
						<logginginfo>
							<description></description>
							<scene></scene>
							<shottake></shottake>
							<lognote></lognote>
							<good></good>
							<originalvideofilename></originalvideofilename>
							<originalaudiofilename></originalaudiofilename>
						</logginginfo>
						<colorinfo>
							<lut></lut>
							<lut1></lut1>
							<asc_sop></asc_sop>
							<asc_sat></asc_sat>
							<lut2></lut2>
						</colorinfo>
						<labels>
							<label2>Violet</label2>
						</labels>
					</clipitem>
					<clipitem id="clipitem-232">
						<masterclipid>masterclip-229</masterclipid>
						<name>TKO_007_FRE_Sh02340.mov</name>
						<enabled>TRUE</enabled>
						<duration>113</duration>
						<rate>
							<timebase>24</timebase>
							<ntsc>TRUE</ntsc>
						</rate>
						<start>19079</start>
						<end>19184</end>
						<in>4</in>
						<out>109</out>
						<pproTicksIn>42378336000</pproTicksIn>
						<pproTicksOut>1154809656000</pproTicksOut>
						<alphatype>none</alphatype>
						<pixelaspectratio>square</pixelaspectratio>
						<anamorphic>FALSE</anamorphic>
						<file id="file-229">
							<name>TKO_007_FRE_Sh02340.mov</name>
							<pathurl>file://tri-stor01/Projects/TKO/SHOTS/_Refs_Movs_Burnin_FrameCounter/TKO_007_FRE_Sh02340.mov</pathurl>
							<rate>
								<timebase>24</timebase>
								<ntsc>TRUE</ntsc>
							</rate>
							<duration>113</duration>
							<timecode>
								<rate>
									<timebase>24</timebase>
									<ntsc>TRUE</ntsc>
								</rate>
								<string>10:34:54:01</string>
								<frame>914257</frame>
								<displayformat>NDF</displayformat>
								<reel>
									<name>C0250007</name>
								</reel>
							</timecode>
							<media>
								<video>
									<samplecharacteristics>
										<rate>
											<timebase>24</timebase>
											<ntsc>TRUE</ntsc>
										</rate>
										<width>3840</width>
										<height>2160</height>
										<anamorphic>FALSE</anamorphic>
										<pixelaspectratio>square</pixelaspectratio>
										<fielddominance>none</fielddominance>
									</samplecharacteristics>
								</video>
							</media>
						</file>
						<logginginfo>
							<description></description>
							<scene></scene>
							<shottake></shottake>
							<lognote></lognote>
							<good></good>
							<originalvideofilename></originalvideofilename>
							<originalaudiofilename></originalaudiofilename>
						</logginginfo>
						<colorinfo>
							<lut></lut>
							<lut1></lut1>
							<asc_sop></asc_sop>
							<asc_sat></asc_sat>
							<lut2></lut2>
						</colorinfo>
						<labels>
							<label2>Violet</label2>
						</labels>
					</clipitem>
					<clipitem id="clipitem-233">
						<masterclipid>masterclip-230</masterclipid>
						<name>TKO_007_FRE_Sh02350.mov</name>
						<enabled>TRUE</enabled>
						<duration>167</duration>
						<rate>
							<timebase>24</timebase>
							<ntsc>TRUE</ntsc>
						</rate>
						<start>19184</start>
						<end>19343</end>
						<in>4</in>
						<out>163</out>
						<pproTicksIn>42378336000</pproTicksIn>
						<pproTicksOut>1726917192000</pproTicksOut>
						<alphatype>none</alphatype>
						<pixelaspectratio>square</pixelaspectratio>
						<anamorphic>FALSE</anamorphic>
						<file id="file-230">
							<name>TKO_007_FRE_Sh02350.mov</name>
							<pathurl>file://tri-stor01/Projects/TKO/SHOTS/_Refs_Movs_Burnin_FrameCounter/TKO_007_FRE_Sh02350.mov</pathurl>
							<rate>
								<timebase>24</timebase>
								<ntsc>TRUE</ntsc>
							</rate>
							<duration>167</duration>
							<timecode>
								<rate>
									<timebase>24</timebase>
									<ntsc>TRUE</ntsc>
								</rate>
								<string>12:21:37:23</string>
								<frame>1067951</frame>
								<displayformat>NDF</displayformat>
								<reel>
									<name>B0290006</name>
								</reel>
							</timecode>
							<media>
								<video>
									<samplecharacteristics>
										<rate>
											<timebase>24</timebase>
											<ntsc>TRUE</ntsc>
										</rate>
										<width>4096</width>
										<height>2160</height>
										<anamorphic>FALSE</anamorphic>
										<pixelaspectratio>square</pixelaspectratio>
										<fielddominance>none</fielddominance>
									</samplecharacteristics>
								</video>
							</media>
						</file>
						<logginginfo>
							<description></description>
							<scene></scene>
							<shottake></shottake>
							<lognote></lognote>
							<good></good>
							<originalvideofilename></originalvideofilename>
							<originalaudiofilename></originalaudiofilename>
						</logginginfo>
						<colorinfo>
							<lut></lut>
							<lut1></lut1>
							<asc_sop></asc_sop>
							<asc_sat></asc_sat>
							<lut2></lut2>
						</colorinfo>
						<labels>
							<label2>Violet</label2>
						</labels>
					</clipitem>
					<clipitem id="clipitem-234">
						<masterclipid>masterclip-231</masterclipid>
						<name>TKO_007_FRE_Sh02360.mov</name>
						<enabled>TRUE</enabled>
						<duration>50</duration>
						<rate>
							<timebase>24</timebase>
							<ntsc>TRUE</ntsc>
						</rate>
						<start>19343</start>
						<end>19385</end>
						<in>4</in>
						<out>46</out>
						<pproTicksIn>42378336000</pproTicksIn>
						<pproTicksOut>487350864000</pproTicksOut>
						<alphatype>none</alphatype>
						<pixelaspectratio>square</pixelaspectratio>
						<anamorphic>FALSE</anamorphic>
						<file id="file-231">
							<name>TKO_007_FRE_Sh02360.mov</name>
							<pathurl>file://tri-stor01/Projects/TKO/SHOTS/_Refs_Movs_Burnin_FrameCounter/TKO_007_FRE_Sh02360.mov</pathurl>
							<rate>
								<timebase>24</timebase>
								<ntsc>TRUE</ntsc>
							</rate>
							<duration>50</duration>
							<timecode>
								<rate>
									<timebase>24</timebase>
									<ntsc>TRUE</ntsc>
								</rate>
								<string>10:35:06:06</string>
								<frame>914550</frame>
								<displayformat>NDF</displayformat>
								<reel>
									<name>C0250007</name>
								</reel>
							</timecode>
							<media>
								<video>
									<samplecharacteristics>
										<rate>
											<timebase>24</timebase>
											<ntsc>TRUE</ntsc>
										</rate>
										<width>3840</width>
										<height>2160</height>
										<anamorphic>FALSE</anamorphic>
										<pixelaspectratio>square</pixelaspectratio>
										<fielddominance>none</fielddominance>
									</samplecharacteristics>
								</video>
							</media>
						</file>
						<logginginfo>
							<description></description>
							<scene></scene>
							<shottake></shottake>
							<lognote></lognote>
							<good></good>
							<originalvideofilename></originalvideofilename>
							<originalaudiofilename></originalaudiofilename>
						</logginginfo>
						<colorinfo>
							<lut></lut>
							<lut1></lut1>
							<asc_sop></asc_sop>
							<asc_sat></asc_sat>
							<lut2></lut2>
						</colorinfo>
						<labels>
							<label2>Violet</label2>
						</labels>
					</clipitem>
					<clipitem id="clipitem-235">
						<masterclipid>masterclip-232</masterclipid>
						<name>TKO_007_FRE_Sh02370.mov</name>
						<enabled>TRUE</enabled>
						<duration>99</duration>
						<rate>
							<timebase>24</timebase>
							<ntsc>TRUE</ntsc>
						</rate>
						<start>19385</start>
						<end>19476</end>
						<in>4</in>
						<out>95</out>
						<pproTicksIn>42378336000</pproTicksIn>
						<pproTicksOut>1006485480000</pproTicksOut>
						<alphatype>none</alphatype>
						<pixelaspectratio>square</pixelaspectratio>
						<anamorphic>FALSE</anamorphic>
						<file id="file-232">
							<name>TKO_007_FRE_Sh02370.mov</name>
							<pathurl>file://tri-stor01/Projects/TKO/SHOTS/_Refs_Movs_Burnin_FrameCounter/TKO_007_FRE_Sh02370.mov</pathurl>
							<rate>
								<timebase>24</timebase>
								<ntsc>TRUE</ntsc>
							</rate>
							<duration>99</duration>
							<timecode>
								<rate>
									<timebase>24</timebase>
									<ntsc>TRUE</ntsc>
								</rate>
								<string>12:21:46:08</string>
								<frame>1068152</frame>
								<displayformat>NDF</displayformat>
								<reel>
									<name>B0290006</name>
								</reel>
							</timecode>
							<media>
								<video>
									<samplecharacteristics>
										<rate>
											<timebase>24</timebase>
											<ntsc>TRUE</ntsc>
										</rate>
										<width>4096</width>
										<height>2160</height>
										<anamorphic>FALSE</anamorphic>
										<pixelaspectratio>square</pixelaspectratio>
										<fielddominance>none</fielddominance>
									</samplecharacteristics>
								</video>
							</media>
						</file>
						<logginginfo>
							<description></description>
							<scene></scene>
							<shottake></shottake>
							<lognote></lognote>
							<good></good>
							<originalvideofilename></originalvideofilename>
							<originalaudiofilename></originalaudiofilename>
						</logginginfo>
						<colorinfo>
							<lut></lut>
							<lut1></lut1>
							<asc_sop></asc_sop>
							<asc_sat></asc_sat>
							<lut2></lut2>
						</colorinfo>
						<labels>
							<label2>Violet</label2>
						</labels>
					</clipitem>
					<clipitem id="clipitem-236">
						<masterclipid>masterclip-233</masterclipid>
						<name>TKO_007_FRE_Sh02380.mov</name>
						<enabled>TRUE</enabled>
						<duration>136</duration>
						<rate>
							<timebase>24</timebase>
							<ntsc>TRUE</ntsc>
						</rate>
						<start>19476</start>
						<end>19604</end>
						<in>4</in>
						<out>132</out>
						<pproTicksIn>42378336000</pproTicksIn>
						<pproTicksOut>1398485088000</pproTicksOut>
						<alphatype>none</alphatype>
						<pixelaspectratio>square</pixelaspectratio>
						<anamorphic>FALSE</anamorphic>
						<file id="file-233">
							<name>TKO_007_FRE_Sh02380.mov</name>
							<pathurl>file://tri-stor01/Projects/TKO/SHOTS/_Refs_Movs_Burnin_FrameCounter/TKO_007_FRE_Sh02380.mov</pathurl>
							<rate>
								<timebase>24</timebase>
								<ntsc>TRUE</ntsc>
							</rate>
							<duration>136</duration>
							<timecode>
								<rate>
									<timebase>24</timebase>
									<ntsc>TRUE</ntsc>
								</rate>
								<string>10:35:11:21</string>
								<frame>914685</frame>
								<displayformat>NDF</displayformat>
								<reel>
									<name>C0250007</name>
								</reel>
							</timecode>
							<media>
								<video>
									<samplecharacteristics>
										<rate>
											<timebase>24</timebase>
											<ntsc>TRUE</ntsc>
										</rate>
										<width>3840</width>
										<height>2160</height>
										<anamorphic>FALSE</anamorphic>
										<pixelaspectratio>square</pixelaspectratio>
										<fielddominance>none</fielddominance>
									</samplecharacteristics>
								</video>
							</media>
						</file>
						<logginginfo>
							<description></description>
							<scene></scene>
							<shottake></shottake>
							<lognote></lognote>
							<good></good>
							<originalvideofilename></originalvideofilename>
							<originalaudiofilename></originalaudiofilename>
						</logginginfo>
						<colorinfo>
							<lut></lut>
							<lut1></lut1>
							<asc_sop></asc_sop>
							<asc_sat></asc_sat>
							<lut2></lut2>
						</colorinfo>
						<labels>
							<label2>Violet</label2>
						</labels>
					</clipitem>
					<clipitem id="clipitem-237">
						<masterclipid>masterclip-234</masterclipid>
						<name>TKO_007_FRE_Sh02390.mov</name>
						<enabled>TRUE</enabled>
						<duration>125</duration>
						<rate>
							<timebase>24</timebase>
							<ntsc>TRUE</ntsc>
						</rate>
						<start>19604</start>
						<end>19721</end>
						<in>4</in>
						<out>121</out>
						<pproTicksIn>42378336000</pproTicksIn>
						<pproTicksOut>1281944664000</pproTicksOut>
						<alphatype>none</alphatype>
						<pixelaspectratio>square</pixelaspectratio>
						<anamorphic>FALSE</anamorphic>
						<file id="file-234">
							<name>TKO_007_FRE_Sh02390.mov</name>
							<pathurl>file://tri-stor01/Projects/TKO/SHOTS/_Refs_Movs_Burnin_FrameCounter/TKO_007_FRE_Sh02390.mov</pathurl>
							<rate>
								<timebase>24</timebase>
								<ntsc>TRUE</ntsc>
							</rate>
							<duration>125</duration>
							<timecode>
								<rate>
									<timebase>24</timebase>
									<ntsc>TRUE</ntsc>
								</rate>
								<string>12:18:07:07</string>
								<frame>1062895</frame>
								<displayformat>NDF</displayformat>
								<reel>
									<name>B0290005</name>
								</reel>
							</timecode>
							<media>
								<video>
									<samplecharacteristics>
										<rate>
											<timebase>24</timebase>
											<ntsc>TRUE</ntsc>
										</rate>
										<width>4096</width>
										<height>2160</height>
										<anamorphic>FALSE</anamorphic>
										<pixelaspectratio>square</pixelaspectratio>
										<fielddominance>none</fielddominance>
									</samplecharacteristics>
								</video>
							</media>
						</file>
						<logginginfo>
							<description></description>
							<scene></scene>
							<shottake></shottake>
							<lognote></lognote>
							<good></good>
							<originalvideofilename></originalvideofilename>
							<originalaudiofilename></originalaudiofilename>
						</logginginfo>
						<colorinfo>
							<lut></lut>
							<lut1></lut1>
							<asc_sop></asc_sop>
							<asc_sat></asc_sat>
							<lut2></lut2>
						</colorinfo>
						<labels>
							<label2>Violet</label2>
						</labels>
					</clipitem>
					<clipitem id="clipitem-238">
						<masterclipid>masterclip-235</masterclipid>
						<name>TKO_007_FRE_Sh02400.mov</name>
						<enabled>TRUE</enabled>
						<duration>68</duration>
						<rate>
							<timebase>24</timebase>
							<ntsc>TRUE</ntsc>
						</rate>
						<start>19721</start>
						<end>19781</end>
						<in>4</in>
						<out>64</out>
						<pproTicksIn>42378336000</pproTicksIn>
						<pproTicksOut>678053376000</pproTicksOut>
						<alphatype>none</alphatype>
						<pixelaspectratio>square</pixelaspectratio>
						<anamorphic>FALSE</anamorphic>
						<file id="file-235">
							<name>TKO_007_FRE_Sh02400.mov</name>
							<pathurl>file://tri-stor01/Projects/TKO/SHOTS/_Refs_Movs_Burnin_FrameCounter/TKO_007_FRE_Sh02400.mov</pathurl>
							<rate>
								<timebase>24</timebase>
								<ntsc>TRUE</ntsc>
							</rate>
							<duration>68</duration>
							<timecode>
								<rate>
									<timebase>24</timebase>
									<ntsc>TRUE</ntsc>
								</rate>
								<string>10:35:22:10</string>
								<frame>914938</frame>
								<displayformat>NDF</displayformat>
								<reel>
									<name>C0250007</name>
								</reel>
							</timecode>
							<media>
								<video>
									<samplecharacteristics>
										<rate>
											<timebase>24</timebase>
											<ntsc>TRUE</ntsc>
										</rate>
										<width>3840</width>
										<height>2160</height>
										<anamorphic>FALSE</anamorphic>
										<pixelaspectratio>square</pixelaspectratio>
										<fielddominance>none</fielddominance>
									</samplecharacteristics>
								</video>
							</media>
						</file>
						<logginginfo>
							<description></description>
							<scene></scene>
							<shottake></shottake>
							<lognote></lognote>
							<good></good>
							<originalvideofilename></originalvideofilename>
							<originalaudiofilename></originalaudiofilename>
						</logginginfo>
						<colorinfo>
							<lut></lut>
							<lut1></lut1>
							<asc_sop></asc_sop>
							<asc_sat></asc_sat>
							<lut2></lut2>
						</colorinfo>
						<labels>
							<label2>Violet</label2>
						</labels>
					</clipitem>
					<clipitem id="clipitem-239">
						<masterclipid>masterclip-236</masterclipid>
						<name>TKO_007_FRE_Sh02410.mov</name>
						<enabled>TRUE</enabled>
						<duration>70</duration>
						<rate>
							<timebase>24</timebase>
							<ntsc>TRUE</ntsc>
						</rate>
						<start>19781</start>
						<end>19843</end>
						<in>4</in>
						<out>66</out>
						<pproTicksIn>42378336000</pproTicksIn>
						<pproTicksOut>699242544000</pproTicksOut>
						<alphatype>none</alphatype>
						<pixelaspectratio>square</pixelaspectratio>
						<anamorphic>FALSE</anamorphic>
						<file id="file-236">
							<name>TKO_007_FRE_Sh02410.mov</name>
							<pathurl>file://tri-stor01/Projects/TKO/SHOTS/_Refs_Movs_Burnin_FrameCounter/TKO_007_FRE_Sh02410.mov</pathurl>
							<rate>
								<timebase>24</timebase>
								<ntsc>TRUE</ntsc>
							</rate>
							<duration>70</duration>
							<timecode>
								<rate>
									<timebase>24</timebase>
									<ntsc>TRUE</ntsc>
								</rate>
								<string>12:22:03:06</string>
								<frame>1068558</frame>
								<displayformat>NDF</displayformat>
								<reel>
									<name>B0290006</name>
								</reel>
							</timecode>
							<media>
								<video>
									<samplecharacteristics>
										<rate>
											<timebase>24</timebase>
											<ntsc>TRUE</ntsc>
										</rate>
										<width>4096</width>
										<height>2160</height>
										<anamorphic>FALSE</anamorphic>
										<pixelaspectratio>square</pixelaspectratio>
										<fielddominance>none</fielddominance>
									</samplecharacteristics>
								</video>
							</media>
						</file>
						<logginginfo>
							<description></description>
							<scene></scene>
							<shottake></shottake>
							<lognote></lognote>
							<good></good>
							<originalvideofilename></originalvideofilename>
							<originalaudiofilename></originalaudiofilename>
						</logginginfo>
						<colorinfo>
							<lut></lut>
							<lut1></lut1>
							<asc_sop></asc_sop>
							<asc_sat></asc_sat>
							<lut2></lut2>
						</colorinfo>
						<labels>
							<label2>Violet</label2>
						</labels>
					</clipitem>
					<clipitem id="clipitem-240">
						<masterclipid>masterclip-237</masterclipid>
						<name>TKO_007_FRE_Sh02420.mov</name>
						<enabled>TRUE</enabled>
						<duration>161</duration>
						<rate>
							<timebase>24</timebase>
							<ntsc>TRUE</ntsc>
						</rate>
						<start>19843</start>
						<end>19996</end>
						<in>4</in>
						<out>157</out>
						<pproTicksIn>42378336000</pproTicksIn>
						<pproTicksOut>1663349688000</pproTicksOut>
						<alphatype>none</alphatype>
						<pixelaspectratio>square</pixelaspectratio>
						<anamorphic>FALSE</anamorphic>
						<file id="file-237">
							<name>TKO_007_FRE_Sh02420.mov</name>
							<pathurl>file://tri-stor01/Projects/TKO/SHOTS/_Refs_Movs_Burnin_FrameCounter/TKO_007_FRE_Sh02420.mov</pathurl>
							<rate>
								<timebase>24</timebase>
								<ntsc>TRUE</ntsc>
							</rate>
							<duration>161</duration>
							<timecode>
								<rate>
									<timebase>24</timebase>
									<ntsc>TRUE</ntsc>
								</rate>
								<string>10:35:27:12</string>
								<frame>915060</frame>
								<displayformat>NDF</displayformat>
								<reel>
									<name>C0250007</name>
								</reel>
							</timecode>
							<media>
								<video>
									<samplecharacteristics>
										<rate>
											<timebase>24</timebase>
											<ntsc>TRUE</ntsc>
										</rate>
										<width>3840</width>
										<height>2160</height>
										<anamorphic>FALSE</anamorphic>
										<pixelaspectratio>square</pixelaspectratio>
										<fielddominance>none</fielddominance>
									</samplecharacteristics>
								</video>
							</media>
						</file>
						<logginginfo>
							<description></description>
							<scene></scene>
							<shottake></shottake>
							<lognote></lognote>
							<good></good>
							<originalvideofilename></originalvideofilename>
							<originalaudiofilename></originalaudiofilename>
						</logginginfo>
						<colorinfo>
							<lut></lut>
							<lut1></lut1>
							<asc_sop></asc_sop>
							<asc_sat></asc_sat>
							<lut2></lut2>
						</colorinfo>
						<labels>
							<label2>Violet</label2>
						</labels>
					</clipitem>
					<clipitem id="clipitem-241">
						<masterclipid>masterclip-238</masterclipid>
						<name>TKO_007_FRE_Sh02430.mov</name>
						<enabled>TRUE</enabled>
						<duration>58</duration>
						<rate>
							<timebase>24</timebase>
							<ntsc>TRUE</ntsc>
						</rate>
						<start>19996</start>
						<end>20046</end>
						<in>4</in>
						<out>54</out>
						<pproTicksIn>42378336000</pproTicksIn>
						<pproTicksOut>572107536000</pproTicksOut>
						<alphatype>none</alphatype>
						<pixelaspectratio>square</pixelaspectratio>
						<anamorphic>FALSE</anamorphic>
						<file id="file-238">
							<name>TKO_007_FRE_Sh02430.mov</name>
							<pathurl>file://tri-stor01/Projects/TKO/SHOTS/_Refs_Movs_Burnin_FrameCounter/TKO_007_FRE_Sh02430.mov</pathurl>
							<rate>
								<timebase>24</timebase>
								<ntsc>TRUE</ntsc>
							</rate>
							<duration>58</duration>
							<timecode>
								<rate>
									<timebase>24</timebase>
									<ntsc>TRUE</ntsc>
								</rate>
								<string>12:22:10:10</string>
								<frame>1068730</frame>
								<displayformat>NDF</displayformat>
								<reel>
									<name>B0290006</name>
								</reel>
							</timecode>
							<media>
								<video>
									<samplecharacteristics>
										<rate>
											<timebase>24</timebase>
											<ntsc>TRUE</ntsc>
										</rate>
										<width>4096</width>
										<height>2160</height>
										<anamorphic>FALSE</anamorphic>
										<pixelaspectratio>square</pixelaspectratio>
										<fielddominance>none</fielddominance>
									</samplecharacteristics>
								</video>
							</media>
						</file>
						<logginginfo>
							<description></description>
							<scene></scene>
							<shottake></shottake>
							<lognote></lognote>
							<good></good>
							<originalvideofilename></originalvideofilename>
							<originalaudiofilename></originalaudiofilename>
						</logginginfo>
						<colorinfo>
							<lut></lut>
							<lut1></lut1>
							<asc_sop></asc_sop>
							<asc_sat></asc_sat>
							<lut2></lut2>
						</colorinfo>
						<labels>
							<label2>Violet</label2>
						</labels>
					</clipitem>
					<clipitem id="clipitem-242">
						<masterclipid>masterclip-239</masterclipid>
						<name>TKO_007_FRE_Sh02440.mov</name>
						<enabled>TRUE</enabled>
						<duration>85</duration>
						<rate>
							<timebase>24</timebase>
							<ntsc>TRUE</ntsc>
						</rate>
						<start>20046</start>
						<end>20123</end>
						<in>4</in>
						<out>81</out>
						<pproTicksIn>42378336000</pproTicksIn>
						<pproTicksOut>858161304000</pproTicksOut>
						<alphatype>none</alphatype>
						<pixelaspectratio>square</pixelaspectratio>
						<anamorphic>FALSE</anamorphic>
						<file id="file-239">
							<name>TKO_007_FRE_Sh02440.mov</name>
							<pathurl>file://tri-stor01/Projects/TKO/SHOTS/_Refs_Movs_Burnin_FrameCounter/TKO_007_FRE_Sh02440.mov</pathurl>
							<rate>
								<timebase>24</timebase>
								<ntsc>TRUE</ntsc>
							</rate>
							<duration>85</duration>
							<timecode>
								<rate>
									<timebase>24</timebase>
									<ntsc>TRUE</ntsc>
								</rate>
								<string>10:35:38:16</string>
								<frame>915328</frame>
								<displayformat>NDF</displayformat>
								<reel>
									<name>C0250007</name>
								</reel>
							</timecode>
							<media>
								<video>
									<samplecharacteristics>
										<rate>
											<timebase>24</timebase>
											<ntsc>TRUE</ntsc>
										</rate>
										<width>3840</width>
										<height>2160</height>
										<anamorphic>FALSE</anamorphic>
										<pixelaspectratio>square</pixelaspectratio>
										<fielddominance>none</fielddominance>
									</samplecharacteristics>
								</video>
							</media>
						</file>
						<logginginfo>
							<description></description>
							<scene></scene>
							<shottake></shottake>
							<lognote></lognote>
							<good></good>
							<originalvideofilename></originalvideofilename>
							<originalaudiofilename></originalaudiofilename>
						</logginginfo>
						<colorinfo>
							<lut></lut>
							<lut1></lut1>
							<asc_sop></asc_sop>
							<asc_sat></asc_sat>
							<lut2></lut2>
						</colorinfo>
						<labels>
							<label2>Violet</label2>
						</labels>
					</clipitem>
					<clipitem id="clipitem-243">
						<masterclipid>masterclip-240</masterclipid>
						<name>TKO_007_FRE_Sh02450.mov</name>
						<enabled>TRUE</enabled>
						<duration>51</duration>
						<rate>
							<timebase>24</timebase>
							<ntsc>TRUE</ntsc>
						</rate>
						<start>20123</start>
						<end>20166</end>
						<in>4</in>
						<out>47</out>
						<pproTicksIn>42378336000</pproTicksIn>
						<pproTicksOut>497945448000</pproTicksOut>
						<alphatype>none</alphatype>
						<pixelaspectratio>square</pixelaspectratio>
						<anamorphic>FALSE</anamorphic>
						<file id="file-240">
							<name>TKO_007_FRE_Sh02450.mov</name>
							<pathurl>file://tri-stor01/Projects/TKO/SHOTS/_Refs_Movs_Burnin_FrameCounter/TKO_007_FRE_Sh02450.mov</pathurl>
							<rate>
								<timebase>24</timebase>
								<ntsc>TRUE</ntsc>
							</rate>
							<duration>51</duration>
							<timecode>
								<rate>
									<timebase>24</timebase>
									<ntsc>TRUE</ntsc>
								</rate>
								<string>12:22:40:10</string>
								<frame>1069450</frame>
								<displayformat>NDF</displayformat>
								<reel>
									<name>B0290006</name>
								</reel>
							</timecode>
							<media>
								<video>
									<samplecharacteristics>
										<rate>
											<timebase>24</timebase>
											<ntsc>TRUE</ntsc>
										</rate>
										<width>4096</width>
										<height>2160</height>
										<anamorphic>FALSE</anamorphic>
										<pixelaspectratio>square</pixelaspectratio>
										<fielddominance>none</fielddominance>
									</samplecharacteristics>
								</video>
							</media>
						</file>
						<logginginfo>
							<description></description>
							<scene></scene>
							<shottake></shottake>
							<lognote></lognote>
							<good></good>
							<originalvideofilename></originalvideofilename>
							<originalaudiofilename></originalaudiofilename>
						</logginginfo>
						<colorinfo>
							<lut></lut>
							<lut1></lut1>
							<asc_sop></asc_sop>
							<asc_sat></asc_sat>
							<lut2></lut2>
						</colorinfo>
						<labels>
							<label2>Violet</label2>
						</labels>
					</clipitem>
					<clipitem id="clipitem-244">
						<masterclipid>masterclip-241</masterclipid>
						<name>TKO_007_FRE_Sh02460.mov</name>
						<enabled>TRUE</enabled>
						<duration>58</duration>
						<rate>
							<timebase>24</timebase>
							<ntsc>TRUE</ntsc>
						</rate>
						<start>20166</start>
						<end>20216</end>
						<in>4</in>
						<out>54</out>
						<pproTicksIn>42378336000</pproTicksIn>
						<pproTicksOut>572107536000</pproTicksOut>
						<alphatype>none</alphatype>
						<pixelaspectratio>square</pixelaspectratio>
						<anamorphic>FALSE</anamorphic>
						<file id="file-241">
							<name>TKO_007_FRE_Sh02460.mov</name>
							<pathurl>file://tri-stor01/Projects/TKO/SHOTS/_Refs_Movs_Burnin_FrameCounter/TKO_007_FRE_Sh02460.mov</pathurl>
							<rate>
								<timebase>24</timebase>
								<ntsc>TRUE</ntsc>
							</rate>
							<duration>58</duration>
							<timecode>
								<rate>
									<timebase>24</timebase>
									<ntsc>TRUE</ntsc>
								</rate>
								<string>10:36:03:21</string>
								<frame>915933</frame>
								<displayformat>NDF</displayformat>
								<reel>
									<name>C0250007</name>
								</reel>
							</timecode>
							<media>
								<video>
									<samplecharacteristics>
										<rate>
											<timebase>24</timebase>
											<ntsc>TRUE</ntsc>
										</rate>
										<width>3840</width>
										<height>2160</height>
										<anamorphic>FALSE</anamorphic>
										<pixelaspectratio>square</pixelaspectratio>
										<fielddominance>none</fielddominance>
									</samplecharacteristics>
								</video>
							</media>
						</file>
						<logginginfo>
							<description></description>
							<scene></scene>
							<shottake></shottake>
							<lognote></lognote>
							<good></good>
							<originalvideofilename></originalvideofilename>
							<originalaudiofilename></originalaudiofilename>
						</logginginfo>
						<colorinfo>
							<lut></lut>
							<lut1></lut1>
							<asc_sop></asc_sop>
							<asc_sat></asc_sat>
							<lut2></lut2>
						</colorinfo>
						<labels>
							<label2>Violet</label2>
						</labels>
					</clipitem>
					<clipitem id="clipitem-245">
						<masterclipid>masterclip-242</masterclipid>
						<name>TKO_007_FRE_Sh02470.mov</name>
						<enabled>TRUE</enabled>
						<duration>97</duration>
						<rate>
							<timebase>24</timebase>
							<ntsc>TRUE</ntsc>
						</rate>
						<start>20216</start>
						<end>20305</end>
						<in>4</in>
						<out>93</out>
						<pproTicksIn>42378336000</pproTicksIn>
						<pproTicksOut>985296312000</pproTicksOut>
						<alphatype>none</alphatype>
						<pixelaspectratio>square</pixelaspectratio>
						<anamorphic>FALSE</anamorphic>
						<file id="file-242">
							<name>TKO_007_FRE_Sh02470.mov</name>
							<pathurl>file://tri-stor01/Projects/TKO/SHOTS/_Refs_Movs_Burnin_FrameCounter/TKO_007_FRE_Sh02470.mov</pathurl>
							<rate>
								<timebase>24</timebase>
								<ntsc>TRUE</ntsc>
							</rate>
							<duration>97</duration>
							<timecode>
								<rate>
									<timebase>24</timebase>
									<ntsc>TRUE</ntsc>
								</rate>
								<string>12:22:44:07</string>
								<frame>1069543</frame>
								<displayformat>NDF</displayformat>
								<reel>
									<name>B0290006</name>
								</reel>
							</timecode>
							<media>
								<video>
									<samplecharacteristics>
										<rate>
											<timebase>24</timebase>
											<ntsc>TRUE</ntsc>
										</rate>
										<width>4096</width>
										<height>2160</height>
										<anamorphic>FALSE</anamorphic>
										<pixelaspectratio>square</pixelaspectratio>
										<fielddominance>none</fielddominance>
									</samplecharacteristics>
								</video>
							</media>
						</file>
						<logginginfo>
							<description></description>
							<scene></scene>
							<shottake></shottake>
							<lognote></lognote>
							<good></good>
							<originalvideofilename></originalvideofilename>
							<originalaudiofilename></originalaudiofilename>
						</logginginfo>
						<colorinfo>
							<lut></lut>
							<lut1></lut1>
							<asc_sop></asc_sop>
							<asc_sat></asc_sat>
							<lut2></lut2>
						</colorinfo>
						<labels>
							<label2>Violet</label2>
						</labels>
					</clipitem>
					<clipitem id="clipitem-246">
						<masterclipid>masterclip-243</masterclipid>
						<name>TKO_007_FRE_Sh02480.mov</name>
						<enabled>TRUE</enabled>
						<duration>70</duration>
						<rate>
							<timebase>24</timebase>
							<ntsc>TRUE</ntsc>
						</rate>
						<start>20305</start>
						<end>20367</end>
						<in>4</in>
						<out>66</out>
						<pproTicksIn>42378336000</pproTicksIn>
						<pproTicksOut>699242544000</pproTicksOut>
						<alphatype>none</alphatype>
						<pixelaspectratio>square</pixelaspectratio>
						<anamorphic>FALSE</anamorphic>
						<file id="file-243">
							<name>TKO_007_FRE_Sh02480.mov</name>
							<pathurl>file://tri-stor01/Projects/TKO/SHOTS/_Refs_Movs_Burnin_FrameCounter/TKO_007_FRE_Sh02480.mov</pathurl>
							<rate>
								<timebase>24</timebase>
								<ntsc>TRUE</ntsc>
							</rate>
							<duration>70</duration>
							<timecode>
								<rate>
									<timebase>24</timebase>
									<ntsc>TRUE</ntsc>
								</rate>
								<string>12:22:48:11</string>
								<frame>1069643</frame>
								<displayformat>NDF</displayformat>
								<reel>
									<name>A0350005</name>
								</reel>
							</timecode>
							<media>
								<video>
									<samplecharacteristics>
										<rate>
											<timebase>24</timebase>
											<ntsc>TRUE</ntsc>
										</rate>
										<width>4096</width>
										<height>2160</height>
										<anamorphic>FALSE</anamorphic>
										<pixelaspectratio>square</pixelaspectratio>
										<fielddominance>none</fielddominance>
									</samplecharacteristics>
								</video>
							</media>
						</file>
						<logginginfo>
							<description></description>
							<scene></scene>
							<shottake></shottake>
							<lognote></lognote>
							<good></good>
							<originalvideofilename></originalvideofilename>
							<originalaudiofilename></originalaudiofilename>
						</logginginfo>
						<colorinfo>
							<lut></lut>
							<lut1></lut1>
							<asc_sop></asc_sop>
							<asc_sat></asc_sat>
							<lut2></lut2>
						</colorinfo>
						<labels>
							<label2>Violet</label2>
						</labels>
					</clipitem>
					<clipitem id="clipitem-247">
						<masterclipid>masterclip-244</masterclipid>
						<name>TKO_007_FRE_Sh02490.mov</name>
						<enabled>TRUE</enabled>
						<duration>74</duration>
						<rate>
							<timebase>24</timebase>
							<ntsc>TRUE</ntsc>
						</rate>
						<start>20367</start>
						<end>20433</end>
						<in>4</in>
						<out>70</out>
						<pproTicksIn>42378336000</pproTicksIn>
						<pproTicksOut>741620880000</pproTicksOut>
						<alphatype>none</alphatype>
						<pixelaspectratio>square</pixelaspectratio>
						<anamorphic>FALSE</anamorphic>
						<file id="file-244">
							<name>TKO_007_FRE_Sh02490.mov</name>
							<pathurl>file://tri-stor01/Projects/TKO/SHOTS/_Refs_Movs_Burnin_FrameCounter/TKO_007_FRE_Sh02490.mov</pathurl>
							<rate>
								<timebase>24</timebase>
								<ntsc>TRUE</ntsc>
							</rate>
							<duration>74</duration>
							<timecode>
								<rate>
									<timebase>24</timebase>
									<ntsc>TRUE</ntsc>
								</rate>
								<string>12:22:51:03</string>
								<frame>1069707</frame>
								<displayformat>NDF</displayformat>
								<reel>
									<name>B0290006</name>
								</reel>
							</timecode>
							<media>
								<video>
									<samplecharacteristics>
										<rate>
											<timebase>24</timebase>
											<ntsc>TRUE</ntsc>
										</rate>
										<width>4096</width>
										<height>2160</height>
										<anamorphic>FALSE</anamorphic>
										<pixelaspectratio>square</pixelaspectratio>
										<fielddominance>none</fielddominance>
									</samplecharacteristics>
								</video>
							</media>
						</file>
						<logginginfo>
							<description></description>
							<scene></scene>
							<shottake></shottake>
							<lognote></lognote>
							<good></good>
							<originalvideofilename></originalvideofilename>
							<originalaudiofilename></originalaudiofilename>
						</logginginfo>
						<colorinfo>
							<lut></lut>
							<lut1></lut1>
							<asc_sop></asc_sop>
							<asc_sat></asc_sat>
							<lut2></lut2>
						</colorinfo>
						<labels>
							<label2>Violet</label2>
						</labels>
					</clipitem>
					<clipitem id="clipitem-248">
						<masterclipid>masterclip-245</masterclipid>
						<name>TKO_007_FRE_Sh02500.mov</name>
						<enabled>TRUE</enabled>
						<duration>38</duration>
						<rate>
							<timebase>24</timebase>
							<ntsc>TRUE</ntsc>
						</rate>
						<start>20433</start>
						<end>20463</end>
						<in>4</in>
						<out>34</out>
						<pproTicksIn>42378336000</pproTicksIn>
						<pproTicksOut>360215856000</pproTicksOut>
						<alphatype>none</alphatype>
						<pixelaspectratio>square</pixelaspectratio>
						<anamorphic>FALSE</anamorphic>
						<file id="file-245">
							<name>TKO_007_FRE_Sh02500.mov</name>
							<pathurl>file://tri-stor01/Projects/TKO/SHOTS/_Refs_Movs_Burnin_FrameCounter/TKO_007_FRE_Sh02500.mov</pathurl>
							<rate>
								<timebase>24</timebase>
								<ntsc>TRUE</ntsc>
							</rate>
							<duration>38</duration>
							<timecode>
								<rate>
									<timebase>24</timebase>
									<ntsc>TRUE</ntsc>
								</rate>
								<string>10:36:15:13</string>
								<frame>916213</frame>
								<displayformat>NDF</displayformat>
								<reel>
									<name>C0250007</name>
								</reel>
							</timecode>
							<media>
								<video>
									<samplecharacteristics>
										<rate>
											<timebase>24</timebase>
											<ntsc>TRUE</ntsc>
										</rate>
										<width>3840</width>
										<height>2160</height>
										<anamorphic>FALSE</anamorphic>
										<pixelaspectratio>square</pixelaspectratio>
										<fielddominance>none</fielddominance>
									</samplecharacteristics>
								</video>
							</media>
						</file>
						<logginginfo>
							<description></description>
							<scene></scene>
							<shottake></shottake>
							<lognote></lognote>
							<good></good>
							<originalvideofilename></originalvideofilename>
							<originalaudiofilename></originalaudiofilename>
						</logginginfo>
						<colorinfo>
							<lut></lut>
							<lut1></lut1>
							<asc_sop></asc_sop>
							<asc_sat></asc_sat>
							<lut2></lut2>
						</colorinfo>
						<labels>
							<label2>Violet</label2>
						</labels>
					</clipitem>
					<clipitem id="clipitem-249">
						<masterclipid>masterclip-246</masterclipid>
						<name>TKO_007_FRE_Sh02510.mov</name>
						<enabled>TRUE</enabled>
						<duration>55</duration>
						<rate>
							<timebase>24</timebase>
							<ntsc>TRUE</ntsc>
						</rate>
						<start>20463</start>
						<end>20510</end>
						<in>4</in>
						<out>51</out>
						<pproTicksIn>42378336000</pproTicksIn>
						<pproTicksOut>540323784000</pproTicksOut>
						<alphatype>none</alphatype>
						<pixelaspectratio>square</pixelaspectratio>
						<anamorphic>FALSE</anamorphic>
						<file id="file-246">
							<name>TKO_007_FRE_Sh02510.mov</name>
							<pathurl>file://tri-stor01/Projects/TKO/SHOTS/_Refs_Movs_Burnin_FrameCounter/TKO_007_FRE_Sh02510.mov</pathurl>
							<rate>
								<timebase>24</timebase>
								<ntsc>TRUE</ntsc>
							</rate>
							<duration>55</duration>
							<timecode>
								<rate>
									<timebase>24</timebase>
									<ntsc>TRUE</ntsc>
								</rate>
								<string>10:43:03:07</string>
								<frame>925999</frame>
								<displayformat>NDF</displayformat>
								<reel>
									<name>C0250011</name>
								</reel>
							</timecode>
							<media>
								<video>
									<samplecharacteristics>
										<rate>
											<timebase>24</timebase>
											<ntsc>TRUE</ntsc>
										</rate>
										<width>3840</width>
										<height>2160</height>
										<anamorphic>FALSE</anamorphic>
										<pixelaspectratio>square</pixelaspectratio>
										<fielddominance>none</fielddominance>
									</samplecharacteristics>
								</video>
							</media>
						</file>
						<logginginfo>
							<description></description>
							<scene></scene>
							<shottake></shottake>
							<lognote></lognote>
							<good></good>
							<originalvideofilename></originalvideofilename>
							<originalaudiofilename></originalaudiofilename>
						</logginginfo>
						<colorinfo>
							<lut></lut>
							<lut1></lut1>
							<asc_sop></asc_sop>
							<asc_sat></asc_sat>
							<lut2></lut2>
						</colorinfo>
						<labels>
							<label2>Violet</label2>
						</labels>
					</clipitem>
					<clipitem id="clipitem-250">
						<masterclipid>masterclip-247</masterclipid>
						<name>TKO_007_FRE_Sh02520.mov</name>
						<enabled>TRUE</enabled>
						<duration>37</duration>
						<rate>
							<timebase>24</timebase>
							<ntsc>TRUE</ntsc>
						</rate>
						<start>20510</start>
						<end>20539</end>
						<in>4</in>
						<out>33</out>
						<pproTicksIn>42378336000</pproTicksIn>
						<pproTicksOut>349621272000</pproTicksOut>
						<alphatype>none</alphatype>
						<pixelaspectratio>square</pixelaspectratio>
						<anamorphic>FALSE</anamorphic>
						<file id="file-247">
							<name>TKO_007_FRE_Sh02520.mov</name>
							<pathurl>file://tri-stor01/Projects/TKO/SHOTS/_Refs_Movs_Burnin_FrameCounter/TKO_007_FRE_Sh02520.mov</pathurl>
							<rate>
								<timebase>24</timebase>
								<ntsc>TRUE</ntsc>
							</rate>
							<duration>37</duration>
							<timecode>
								<rate>
									<timebase>24</timebase>
									<ntsc>TRUE</ntsc>
								</rate>
								<string>10:36:18:18</string>
								<frame>916290</frame>
								<displayformat>NDF</displayformat>
								<reel>
									<name>C0250007</name>
								</reel>
							</timecode>
							<media>
								<video>
									<samplecharacteristics>
										<rate>
											<timebase>24</timebase>
											<ntsc>TRUE</ntsc>
										</rate>
										<width>3840</width>
										<height>2160</height>
										<anamorphic>FALSE</anamorphic>
										<pixelaspectratio>square</pixelaspectratio>
										<fielddominance>none</fielddominance>
									</samplecharacteristics>
								</video>
							</media>
						</file>
						<logginginfo>
							<description></description>
							<scene></scene>
							<shottake></shottake>
							<lognote></lognote>
							<good></good>
							<originalvideofilename></originalvideofilename>
							<originalaudiofilename></originalaudiofilename>
						</logginginfo>
						<colorinfo>
							<lut></lut>
							<lut1></lut1>
							<asc_sop></asc_sop>
							<asc_sat></asc_sat>
							<lut2></lut2>
						</colorinfo>
						<labels>
							<label2>Violet</label2>
						</labels>
					</clipitem>
					<clipitem id="clipitem-251">
						<masterclipid>masterclip-248</masterclipid>
						<name>TKO_007_FRE_Sh02530.mov</name>
						<enabled>TRUE</enabled>
						<duration>47</duration>
						<rate>
							<timebase>24</timebase>
							<ntsc>TRUE</ntsc>
						</rate>
						<start>20539</start>
						<end>20578</end>
						<in>4</in>
						<out>43</out>
						<pproTicksIn>42378336000</pproTicksIn>
						<pproTicksOut>455567112000</pproTicksOut>
						<alphatype>none</alphatype>
						<pixelaspectratio>square</pixelaspectratio>
						<anamorphic>FALSE</anamorphic>
						<file id="file-248">
							<name>TKO_007_FRE_Sh02530.mov</name>
							<pathurl>file://tri-stor01/Projects/TKO/SHOTS/_Refs_Movs_Burnin_FrameCounter/TKO_007_FRE_Sh02530.mov</pathurl>
							<rate>
								<timebase>24</timebase>
								<ntsc>TRUE</ntsc>
							</rate>
							<duration>47</duration>
							<timecode>
								<rate>
									<timebase>24</timebase>
									<ntsc>TRUE</ntsc>
								</rate>
								<string>13:13:36:22</string>
								<frame>1142806</frame>
								<displayformat>NDF</displayformat>
								<reel>
									<name>A0350009</name>
								</reel>
							</timecode>
							<media>
								<video>
									<samplecharacteristics>
										<rate>
											<timebase>24</timebase>
											<ntsc>TRUE</ntsc>
										</rate>
										<width>4096</width>
										<height>2160</height>
										<anamorphic>FALSE</anamorphic>
										<pixelaspectratio>square</pixelaspectratio>
										<fielddominance>none</fielddominance>
									</samplecharacteristics>
								</video>
							</media>
						</file>
						<logginginfo>
							<description></description>
							<scene></scene>
							<shottake></shottake>
							<lognote></lognote>
							<good></good>
							<originalvideofilename></originalvideofilename>
							<originalaudiofilename></originalaudiofilename>
						</logginginfo>
						<colorinfo>
							<lut></lut>
							<lut1></lut1>
							<asc_sop></asc_sop>
							<asc_sat></asc_sat>
							<lut2></lut2>
						</colorinfo>
						<labels>
							<label2>Violet</label2>
						</labels>
					</clipitem>
					<clipitem id="clipitem-252">
						<masterclipid>masterclip-249</masterclipid>
						<name>TKO_007_FRE_Sh02540.mov</name>
						<enabled>TRUE</enabled>
						<duration>48</duration>
						<rate>
							<timebase>24</timebase>
							<ntsc>TRUE</ntsc>
						</rate>
						<start>20578</start>
						<end>20618</end>
						<in>4</in>
						<out>44</out>
						<pproTicksIn>42378336000</pproTicksIn>
						<pproTicksOut>466161696000</pproTicksOut>
						<alphatype>none</alphatype>
						<pixelaspectratio>square</pixelaspectratio>
						<anamorphic>FALSE</anamorphic>
						<file id="file-249">
							<name>TKO_007_FRE_Sh02540.mov</name>
							<pathurl>file://tri-stor01/Projects/TKO/SHOTS/_Refs_Movs_Burnin_FrameCounter/TKO_007_FRE_Sh02540.mov</pathurl>
							<rate>
								<timebase>24</timebase>
								<ntsc>TRUE</ntsc>
							</rate>
							<duration>48</duration>
							<timecode>
								<rate>
									<timebase>24</timebase>
									<ntsc>TRUE</ntsc>
								</rate>
								<string>11:49:46:17</string>
								<frame>1022081</frame>
								<displayformat>NDF</displayformat>
								<reel>
									<name>B0290003</name>
								</reel>
							</timecode>
							<media>
								<video>
									<samplecharacteristics>
										<rate>
											<timebase>24</timebase>
											<ntsc>TRUE</ntsc>
										</rate>
										<width>4096</width>
										<height>2160</height>
										<anamorphic>FALSE</anamorphic>
										<pixelaspectratio>square</pixelaspectratio>
										<fielddominance>none</fielddominance>
									</samplecharacteristics>
								</video>
							</media>
						</file>
						<logginginfo>
							<description></description>
							<scene></scene>
							<shottake></shottake>
							<lognote></lognote>
							<good></good>
							<originalvideofilename></originalvideofilename>
							<originalaudiofilename></originalaudiofilename>
						</logginginfo>
						<colorinfo>
							<lut></lut>
							<lut1></lut1>
							<asc_sop></asc_sop>
							<asc_sat></asc_sat>
							<lut2></lut2>
						</colorinfo>
						<labels>
							<label2>Violet</label2>
						</labels>
					</clipitem>
					<clipitem id="clipitem-253">
						<masterclipid>masterclip-250</masterclipid>
						<name>TKO_007_FRE_Sh02550.mov</name>
						<enabled>TRUE</enabled>
						<duration>66</duration>
						<rate>
							<timebase>24</timebase>
							<ntsc>TRUE</ntsc>
						</rate>
						<start>20618</start>
						<end>20676</end>
						<in>4</in>
						<out>62</out>
						<pproTicksIn>42378336000</pproTicksIn>
						<pproTicksOut>656864208000</pproTicksOut>
						<alphatype>none</alphatype>
						<pixelaspectratio>square</pixelaspectratio>
						<anamorphic>FALSE</anamorphic>
						<file id="file-250">
							<name>TKO_007_FRE_Sh02550.mov</name>
							<pathurl>file://tri-stor01/Projects/TKO/SHOTS/_Refs_Movs_Burnin_FrameCounter/TKO_007_FRE_Sh02550.mov</pathurl>
							<rate>
								<timebase>24</timebase>
								<ntsc>TRUE</ntsc>
							</rate>
							<duration>66</duration>
							<timecode>
								<rate>
									<timebase>24</timebase>
									<ntsc>TRUE</ntsc>
								</rate>
								<string>13:13:41:08</string>
								<frame>1142912</frame>
								<displayformat>NDF</displayformat>
								<reel>
									<name>A0350009</name>
								</reel>
							</timecode>
							<media>
								<video>
									<samplecharacteristics>
										<rate>
											<timebase>24</timebase>
											<ntsc>TRUE</ntsc>
										</rate>
										<width>4096</width>
										<height>2160</height>
										<anamorphic>FALSE</anamorphic>
										<pixelaspectratio>square</pixelaspectratio>
										<fielddominance>none</fielddominance>
									</samplecharacteristics>
								</video>
							</media>
						</file>
						<logginginfo>
							<description></description>
							<scene></scene>
							<shottake></shottake>
							<lognote></lognote>
							<good></good>
							<originalvideofilename></originalvideofilename>
							<originalaudiofilename></originalaudiofilename>
						</logginginfo>
						<colorinfo>
							<lut></lut>
							<lut1></lut1>
							<asc_sop></asc_sop>
							<asc_sat></asc_sat>
							<lut2></lut2>
						</colorinfo>
						<labels>
							<label2>Violet</label2>
						</labels>
					</clipitem>
					<clipitem id="clipitem-254">
						<masterclipid>masterclip-251</masterclipid>
						<name>TKO_007_FRE_Sh02560.mov</name>
						<enabled>TRUE</enabled>
						<duration>142</duration>
						<rate>
							<timebase>24</timebase>
							<ntsc>TRUE</ntsc>
						</rate>
						<start>20676</start>
						<end>20810</end>
						<in>4</in>
						<out>138</out>
						<pproTicksIn>42378336000</pproTicksIn>
						<pproTicksOut>1462052592000</pproTicksOut>
						<alphatype>none</alphatype>
						<pixelaspectratio>square</pixelaspectratio>
						<anamorphic>FALSE</anamorphic>
						<file id="file-251">
							<name>TKO_007_FRE_Sh02560.mov</name>
							<pathurl>file://tri-stor01/Projects/TKO/SHOTS/_Refs_Movs_Burnin_FrameCounter/TKO_007_FRE_Sh02560.mov</pathurl>
							<rate>
								<timebase>24</timebase>
								<ntsc>TRUE</ntsc>
							</rate>
							<duration>142</duration>
							<timecode>
								<rate>
									<timebase>24</timebase>
									<ntsc>TRUE</ntsc>
								</rate>
								<string>13:13:44:12</string>
								<frame>1142988</frame>
								<displayformat>NDF</displayformat>
								<reel>
									<name>B0290011</name>
								</reel>
							</timecode>
							<media>
								<video>
									<samplecharacteristics>
										<rate>
											<timebase>24</timebase>
											<ntsc>TRUE</ntsc>
										</rate>
										<width>4096</width>
										<height>2160</height>
										<anamorphic>FALSE</anamorphic>
										<pixelaspectratio>square</pixelaspectratio>
										<fielddominance>none</fielddominance>
									</samplecharacteristics>
								</video>
							</media>
						</file>
						<logginginfo>
							<description></description>
							<scene></scene>
							<shottake></shottake>
							<lognote></lognote>
							<good></good>
							<originalvideofilename></originalvideofilename>
							<originalaudiofilename></originalaudiofilename>
						</logginginfo>
						<colorinfo>
							<lut></lut>
							<lut1></lut1>
							<asc_sop></asc_sop>
							<asc_sat></asc_sat>
							<lut2></lut2>
						</colorinfo>
						<labels>
							<label2>Violet</label2>
						</labels>
					</clipitem>
					<clipitem id="clipitem-255">
						<masterclipid>masterclip-252</masterclipid>
						<name>TKO_007_FRE_Sh02570.mov</name>
						<enabled>TRUE</enabled>
						<duration>35</duration>
						<rate>
							<timebase>24</timebase>
							<ntsc>TRUE</ntsc>
						</rate>
						<start>20810</start>
						<end>20837</end>
						<in>4</in>
						<out>31</out>
						<pproTicksIn>42378336000</pproTicksIn>
						<pproTicksOut>328432104000</pproTicksOut>
						<alphatype>none</alphatype>
						<pixelaspectratio>square</pixelaspectratio>
						<anamorphic>FALSE</anamorphic>
						<file id="file-252">
							<name>TKO_007_FRE_Sh02570.mov</name>
							<pathurl>file://tri-stor01/Projects/TKO/SHOTS/_Refs_Movs_Burnin_FrameCounter/TKO_007_FRE_Sh02570.mov</pathurl>
							<rate>
								<timebase>24</timebase>
								<ntsc>TRUE</ntsc>
							</rate>
							<duration>35</duration>
							<timecode>
								<rate>
									<timebase>24</timebase>
									<ntsc>TRUE</ntsc>
								</rate>
								<string>11:49:58:11</string>
								<frame>1022363</frame>
								<displayformat>NDF</displayformat>
								<reel>
									<name>B0290003</name>
								</reel>
							</timecode>
							<media>
								<video>
									<samplecharacteristics>
										<rate>
											<timebase>24</timebase>
											<ntsc>TRUE</ntsc>
										</rate>
										<width>4096</width>
										<height>2160</height>
										<anamorphic>FALSE</anamorphic>
										<pixelaspectratio>square</pixelaspectratio>
										<fielddominance>none</fielddominance>
									</samplecharacteristics>
								</video>
							</media>
						</file>
						<logginginfo>
							<description></description>
							<scene></scene>
							<shottake></shottake>
							<lognote></lognote>
							<good></good>
							<originalvideofilename></originalvideofilename>
							<originalaudiofilename></originalaudiofilename>
						</logginginfo>
						<colorinfo>
							<lut></lut>
							<lut1></lut1>
							<asc_sop></asc_sop>
							<asc_sat></asc_sat>
							<lut2></lut2>
						</colorinfo>
						<labels>
							<label2>Violet</label2>
						</labels>
					</clipitem>
					<clipitem id="clipitem-256">
						<masterclipid>masterclip-253</masterclipid>
						<name>TKO_007_FRE_Sh02580.mov</name>
						<enabled>TRUE</enabled>
						<duration>107</duration>
						<rate>
							<timebase>24</timebase>
							<ntsc>TRUE</ntsc>
						</rate>
						<start>20837</start>
						<end>20936</end>
						<in>4</in>
						<out>103</out>
						<pproTicksIn>42378336000</pproTicksIn>
						<pproTicksOut>1091242152000</pproTicksOut>
						<alphatype>none</alphatype>
						<pixelaspectratio>square</pixelaspectratio>
						<anamorphic>FALSE</anamorphic>
						<file id="file-253">
							<name>TKO_007_FRE_Sh02580.mov</name>
							<pathurl>file://tri-stor01/Projects/TKO/SHOTS/_Refs_Movs_Burnin_FrameCounter/TKO_007_FRE_Sh02580.mov</pathurl>
							<rate>
								<timebase>24</timebase>
								<ntsc>TRUE</ntsc>
							</rate>
							<duration>107</duration>
							<timecode>
								<rate>
									<timebase>24</timebase>
									<ntsc>TRUE</ntsc>
								</rate>
								<string>13:13:50:04</string>
								<frame>1143124</frame>
								<displayformat>NDF</displayformat>
								<reel>
									<name>B0290011</name>
								</reel>
							</timecode>
							<media>
								<video>
									<samplecharacteristics>
										<rate>
											<timebase>24</timebase>
											<ntsc>TRUE</ntsc>
										</rate>
										<width>4096</width>
										<height>2160</height>
										<anamorphic>FALSE</anamorphic>
										<pixelaspectratio>square</pixelaspectratio>
										<fielddominance>none</fielddominance>
									</samplecharacteristics>
								</video>
							</media>
						</file>
						<logginginfo>
							<description></description>
							<scene></scene>
							<shottake></shottake>
							<lognote></lognote>
							<good></good>
							<originalvideofilename></originalvideofilename>
							<originalaudiofilename></originalaudiofilename>
						</logginginfo>
						<colorinfo>
							<lut></lut>
							<lut1></lut1>
							<asc_sop></asc_sop>
							<asc_sat></asc_sat>
							<lut2></lut2>
						</colorinfo>
						<labels>
							<label2>Violet</label2>
						</labels>
					</clipitem>
					<clipitem id="clipitem-257">
						<masterclipid>masterclip-254</masterclipid>
						<name>TKO_007_FRE_Sh02590.mov</name>
						<enabled>TRUE</enabled>
						<duration>113</duration>
						<rate>
							<timebase>24</timebase>
							<ntsc>TRUE</ntsc>
						</rate>
						<start>20936</start>
						<end>21041</end>
						<in>4</in>
						<out>109</out>
						<pproTicksIn>42378336000</pproTicksIn>
						<pproTicksOut>1154809656000</pproTicksOut>
						<alphatype>none</alphatype>
						<pixelaspectratio>square</pixelaspectratio>
						<anamorphic>FALSE</anamorphic>
						<file id="file-254">
							<name>TKO_007_FRE_Sh02590.mov</name>
							<pathurl>file://tri-stor01/Projects/TKO/SHOTS/_Refs_Movs_Burnin_FrameCounter/TKO_007_FRE_Sh02590.mov</pathurl>
							<rate>
								<timebase>24</timebase>
								<ntsc>TRUE</ntsc>
							</rate>
							<duration>113</duration>
							<timecode>
								<rate>
									<timebase>24</timebase>
									<ntsc>TRUE</ntsc>
								</rate>
								<string>11:43:52:03</string>
								<frame>1013571</frame>
								<displayformat>NDF</displayformat>
								<reel>
									<name>B0290002</name>
								</reel>
							</timecode>
							<media>
								<video>
									<samplecharacteristics>
										<rate>
											<timebase>24</timebase>
											<ntsc>TRUE</ntsc>
										</rate>
										<width>4096</width>
										<height>2160</height>
										<anamorphic>FALSE</anamorphic>
										<pixelaspectratio>square</pixelaspectratio>
										<fielddominance>none</fielddominance>
									</samplecharacteristics>
								</video>
							</media>
						</file>
						<logginginfo>
							<description></description>
							<scene></scene>
							<shottake></shottake>
							<lognote></lognote>
							<good></good>
							<originalvideofilename></originalvideofilename>
							<originalaudiofilename></originalaudiofilename>
						</logginginfo>
						<colorinfo>
							<lut></lut>
							<lut1></lut1>
							<asc_sop></asc_sop>
							<asc_sat></asc_sat>
							<lut2></lut2>
						</colorinfo>
						<labels>
							<label2>Violet</label2>
						</labels>
					</clipitem>
					<clipitem id="clipitem-258">
						<masterclipid>masterclip-255</masterclipid>
						<name>TKO_007_FRE_Sh02600.mov</name>
						<enabled>TRUE</enabled>
						<duration>143</duration>
						<rate>
							<timebase>24</timebase>
							<ntsc>TRUE</ntsc>
						</rate>
						<start>21041</start>
						<end>21176</end>
						<in>4</in>
						<out>139</out>
						<pproTicksIn>42378336000</pproTicksIn>
						<pproTicksOut>1472647176000</pproTicksOut>
						<alphatype>none</alphatype>
						<pixelaspectratio>square</pixelaspectratio>
						<anamorphic>FALSE</anamorphic>
						<file id="file-255">
							<name>TKO_007_FRE_Sh02600.mov</name>
							<pathurl>file://tri-stor01/Projects/TKO/SHOTS/_Refs_Movs_Burnin_FrameCounter/TKO_007_FRE_Sh02600.mov</pathurl>
							<rate>
								<timebase>24</timebase>
								<ntsc>TRUE</ntsc>
							</rate>
							<duration>143</duration>
							<timecode>
								<rate>
									<timebase>24</timebase>
									<ntsc>TRUE</ntsc>
								</rate>
								<string>13:13:59:15</string>
								<frame>1143351</frame>
								<displayformat>NDF</displayformat>
								<reel>
									<name>B0290011</name>
								</reel>
							</timecode>
							<media>
								<video>
									<samplecharacteristics>
										<rate>
											<timebase>24</timebase>
											<ntsc>TRUE</ntsc>
										</rate>
										<width>4096</width>
										<height>2160</height>
										<anamorphic>FALSE</anamorphic>
										<pixelaspectratio>square</pixelaspectratio>
										<fielddominance>none</fielddominance>
									</samplecharacteristics>
								</video>
							</media>
						</file>
						<logginginfo>
							<description></description>
							<scene></scene>
							<shottake></shottake>
							<lognote></lognote>
							<good></good>
							<originalvideofilename></originalvideofilename>
							<originalaudiofilename></originalaudiofilename>
						</logginginfo>
						<colorinfo>
							<lut></lut>
							<lut1></lut1>
							<asc_sop></asc_sop>
							<asc_sat></asc_sat>
							<lut2></lut2>
						</colorinfo>
						<labels>
							<label2>Violet</label2>
						</labels>
					</clipitem>
					<clipitem id="clipitem-259">
						<masterclipid>masterclip-256</masterclipid>
						<name>TKO_007_FRE_Sh02610.mov</name>
						<enabled>TRUE</enabled>
						<duration>145</duration>
						<rate>
							<timebase>24</timebase>
							<ntsc>TRUE</ntsc>
						</rate>
						<start>21176</start>
						<end>21313</end>
						<in>4</in>
						<out>141</out>
						<pproTicksIn>42378336000</pproTicksIn>
						<pproTicksOut>1493836344000</pproTicksOut>
						<alphatype>none</alphatype>
						<pixelaspectratio>square</pixelaspectratio>
						<anamorphic>FALSE</anamorphic>
						<file id="file-256">
							<name>TKO_007_FRE_Sh02610.mov</name>
							<pathurl>file://tri-stor01/Projects/TKO/SHOTS/_Refs_Movs_Burnin_FrameCounter/TKO_007_FRE_Sh02610.mov</pathurl>
							<rate>
								<timebase>24</timebase>
								<ntsc>TRUE</ntsc>
							</rate>
							<duration>145</duration>
							<timecode>
								<rate>
									<timebase>24</timebase>
									<ntsc>TRUE</ntsc>
								</rate>
								<string>13:14:05:09</string>
								<frame>1143489</frame>
								<displayformat>NDF</displayformat>
								<reel>
									<name>A0350009</name>
								</reel>
							</timecode>
							<media>
								<video>
									<samplecharacteristics>
										<rate>
											<timebase>24</timebase>
											<ntsc>TRUE</ntsc>
										</rate>
										<width>4096</width>
										<height>2160</height>
										<anamorphic>FALSE</anamorphic>
										<pixelaspectratio>square</pixelaspectratio>
										<fielddominance>none</fielddominance>
									</samplecharacteristics>
								</video>
							</media>
						</file>
						<logginginfo>
							<description></description>
							<scene></scene>
							<shottake></shottake>
							<lognote></lognote>
							<good></good>
							<originalvideofilename></originalvideofilename>
							<originalaudiofilename></originalaudiofilename>
						</logginginfo>
						<colorinfo>
							<lut></lut>
							<lut1></lut1>
							<asc_sop></asc_sop>
							<asc_sat></asc_sat>
							<lut2></lut2>
						</colorinfo>
						<labels>
							<label2>Violet</label2>
						</labels>
					</clipitem>
					<clipitem id="clipitem-260">
						<masterclipid>masterclip-257</masterclipid>
						<name>TKO_008_GAR_Sh02620.mov</name>
						<enabled>TRUE</enabled>
						<duration>165</duration>
						<rate>
							<timebase>24</timebase>
							<ntsc>TRUE</ntsc>
						</rate>
						<start>21313</start>
						<end>21470</end>
						<in>4</in>
						<out>161</out>
						<pproTicksIn>42378336000</pproTicksIn>
						<pproTicksOut>1705728024000</pproTicksOut>
						<alphatype>none</alphatype>
						<pixelaspectratio>square</pixelaspectratio>
						<anamorphic>FALSE</anamorphic>
						<file id="file-257">
							<name>TKO_008_GAR_Sh02620.mov</name>
							<pathurl>file://tri-stor01/Projects/TKO/SHOTS/_Refs_Movs_Burnin_FrameCounter/TKO_008_GAR_Sh02620.mov</pathurl>
							<rate>
								<timebase>24</timebase>
								<ntsc>TRUE</ntsc>
							</rate>
							<duration>165</duration>
							<timecode>
								<rate>
									<timebase>24</timebase>
									<ntsc>TRUE</ntsc>
								</rate>
								<string>18:44:49:15</string>
								<frame>1619751</frame>
								<displayformat>NDF</displayformat>
								<reel>
									<name>A0490014</name>
								</reel>
							</timecode>
							<media>
								<video>
									<samplecharacteristics>
										<rate>
											<timebase>24</timebase>
											<ntsc>TRUE</ntsc>
										</rate>
										<width>4096</width>
										<height>2160</height>
										<anamorphic>FALSE</anamorphic>
										<pixelaspectratio>square</pixelaspectratio>
										<fielddominance>none</fielddominance>
									</samplecharacteristics>
								</video>
							</media>
						</file>
						<logginginfo>
							<description></description>
							<scene></scene>
							<shottake></shottake>
							<lognote></lognote>
							<good></good>
							<originalvideofilename></originalvideofilename>
							<originalaudiofilename></originalaudiofilename>
						</logginginfo>
						<colorinfo>
							<lut></lut>
							<lut1></lut1>
							<asc_sop></asc_sop>
							<asc_sat></asc_sat>
							<lut2></lut2>
						</colorinfo>
						<labels>
							<label2>Violet</label2>
						</labels>
					</clipitem>
					<clipitem id="clipitem-261">
						<masterclipid>masterclip-258</masterclipid>
						<name>TKO_008_GAR_Sh02630.mov</name>
						<enabled>TRUE</enabled>
						<duration>219</duration>
						<rate>
							<timebase>24</timebase>
							<ntsc>TRUE</ntsc>
						</rate>
						<start>21470</start>
						<end>21681</end>
						<in>4</in>
						<out>215</out>
						<pproTicksIn>42378336000</pproTicksIn>
						<pproTicksOut>2277835560000</pproTicksOut>
						<alphatype>none</alphatype>
						<pixelaspectratio>square</pixelaspectratio>
						<anamorphic>FALSE</anamorphic>
						<file id="file-258">
							<name>TKO_008_GAR_Sh02630.mov</name>
							<pathurl>file://tri-stor01/Projects/TKO/SHOTS/_Refs_Movs_Burnin_FrameCounter/TKO_008_GAR_Sh02630.mov</pathurl>
							<rate>
								<timebase>24</timebase>
								<ntsc>TRUE</ntsc>
							</rate>
							<duration>219</duration>
							<timecode>
								<rate>
									<timebase>24</timebase>
									<ntsc>TRUE</ntsc>
								</rate>
								<string>19:01:31:13</string>
								<frame>1643797</frame>
								<displayformat>NDF</displayformat>
								<reel>
									<name>A0500003</name>
								</reel>
							</timecode>
							<media>
								<video>
									<samplecharacteristics>
										<rate>
											<timebase>24</timebase>
											<ntsc>TRUE</ntsc>
										</rate>
										<width>4096</width>
										<height>2160</height>
										<anamorphic>FALSE</anamorphic>
										<pixelaspectratio>square</pixelaspectratio>
										<fielddominance>none</fielddominance>
									</samplecharacteristics>
								</video>
							</media>
						</file>
						<logginginfo>
							<description></description>
							<scene></scene>
							<shottake></shottake>
							<lognote></lognote>
							<good></good>
							<originalvideofilename></originalvideofilename>
							<originalaudiofilename></originalaudiofilename>
						</logginginfo>
						<colorinfo>
							<lut></lut>
							<lut1></lut1>
							<asc_sop></asc_sop>
							<asc_sat></asc_sat>
							<lut2></lut2>
						</colorinfo>
						<labels>
							<label2>Violet</label2>
						</labels>
					</clipitem>
					<clipitem id="clipitem-262">
						<masterclipid>masterclip-259</masterclipid>
						<name>TKO_008_GAR_Sh02640.mov</name>
						<enabled>TRUE</enabled>
						<duration>39</duration>
						<rate>
							<timebase>24</timebase>
							<ntsc>TRUE</ntsc>
						</rate>
						<start>21681</start>
						<end>21712</end>
						<in>4</in>
						<out>35</out>
						<pproTicksIn>42378336000</pproTicksIn>
						<pproTicksOut>370810440000</pproTicksOut>
						<alphatype>none</alphatype>
						<pixelaspectratio>square</pixelaspectratio>
						<anamorphic>FALSE</anamorphic>
						<file id="file-259">
							<name>TKO_008_GAR_Sh02640.mov</name>
							<pathurl>file://tri-stor01/Projects/TKO/SHOTS/_Refs_Movs_Burnin_FrameCounter/TKO_008_GAR_Sh02640.mov</pathurl>
							<rate>
								<timebase>24</timebase>
								<ntsc>TRUE</ntsc>
							</rate>
							<duration>39</duration>
							<timecode>
								<rate>
									<timebase>24</timebase>
									<ntsc>TRUE</ntsc>
								</rate>
								<string>19:01:39:17</string>
								<frame>1643993</frame>
								<displayformat>NDF</displayformat>
								<reel>
									<name>B0430003</name>
								</reel>
							</timecode>
							<media>
								<video>
									<samplecharacteristics>
										<rate>
											<timebase>24</timebase>
											<ntsc>TRUE</ntsc>
										</rate>
										<width>4096</width>
										<height>2160</height>
										<anamorphic>FALSE</anamorphic>
										<pixelaspectratio>square</pixelaspectratio>
										<fielddominance>none</fielddominance>
									</samplecharacteristics>
								</video>
							</media>
						</file>
						<logginginfo>
							<description></description>
							<scene></scene>
							<shottake></shottake>
							<lognote></lognote>
							<good></good>
							<originalvideofilename></originalvideofilename>
							<originalaudiofilename></originalaudiofilename>
						</logginginfo>
						<colorinfo>
							<lut></lut>
							<lut1></lut1>
							<asc_sop></asc_sop>
							<asc_sat></asc_sat>
							<lut2></lut2>
						</colorinfo>
						<labels>
							<label2>Violet</label2>
						</labels>
					</clipitem>
					<clipitem id="clipitem-263">
						<masterclipid>masterclip-260</masterclipid>
						<name>TKO_008_GAR_Sh02650.mov</name>
						<enabled>TRUE</enabled>
						<duration>38</duration>
						<rate>
							<timebase>24</timebase>
							<ntsc>TRUE</ntsc>
						</rate>
						<start>21712</start>
						<end>21742</end>
						<in>4</in>
						<out>34</out>
						<pproTicksIn>42378336000</pproTicksIn>
						<pproTicksOut>360215856000</pproTicksOut>
						<alphatype>none</alphatype>
						<pixelaspectratio>square</pixelaspectratio>
						<anamorphic>FALSE</anamorphic>
						<file id="file-260">
							<name>TKO_008_GAR_Sh02650.mov</name>
							<pathurl>file://tri-stor01/Projects/TKO/SHOTS/_Refs_Movs_Burnin_FrameCounter/TKO_008_GAR_Sh02650.mov</pathurl>
							<rate>
								<timebase>24</timebase>
								<ntsc>TRUE</ntsc>
							</rate>
							<duration>38</duration>
							<timecode>
								<rate>
									<timebase>24</timebase>
									<ntsc>TRUE</ntsc>
								</rate>
								<string>19:01:40:21</string>
								<frame>1644021</frame>
								<displayformat>NDF</displayformat>
								<reel>
									<name>A0500003</name>
								</reel>
							</timecode>
							<media>
								<video>
									<samplecharacteristics>
										<rate>
											<timebase>24</timebase>
											<ntsc>TRUE</ntsc>
										</rate>
										<width>4096</width>
										<height>2160</height>
										<anamorphic>FALSE</anamorphic>
										<pixelaspectratio>square</pixelaspectratio>
										<fielddominance>none</fielddominance>
									</samplecharacteristics>
								</video>
							</media>
						</file>
						<logginginfo>
							<description></description>
							<scene></scene>
							<shottake></shottake>
							<lognote></lognote>
							<good></good>
							<originalvideofilename></originalvideofilename>
							<originalaudiofilename></originalaudiofilename>
						</logginginfo>
						<colorinfo>
							<lut></lut>
							<lut1></lut1>
							<asc_sop></asc_sop>
							<asc_sat></asc_sat>
							<lut2></lut2>
						</colorinfo>
						<labels>
							<label2>Violet</label2>
						</labels>
					</clipitem>
					<clipitem id="clipitem-264">
						<masterclipid>masterclip-261</masterclipid>
						<name>TKO_008_GAR_Sh02660.mov</name>
						<enabled>TRUE</enabled>
						<duration>52</duration>
						<rate>
							<timebase>24</timebase>
							<ntsc>TRUE</ntsc>
						</rate>
						<start>21742</start>
						<end>21786</end>
						<in>4</in>
						<out>48</out>
						<pproTicksIn>42378336000</pproTicksIn>
						<pproTicksOut>508540032000</pproTicksOut>
						<alphatype>none</alphatype>
						<pixelaspectratio>square</pixelaspectratio>
						<anamorphic>FALSE</anamorphic>
						<file id="file-261">
							<name>TKO_008_GAR_Sh02660.mov</name>
							<pathurl>file://tri-stor01/Projects/TKO/SHOTS/_Refs_Movs_Burnin_FrameCounter/TKO_008_GAR_Sh02660.mov</pathurl>
							<rate>
								<timebase>24</timebase>
								<ntsc>TRUE</ntsc>
							</rate>
							<duration>52</duration>
							<timecode>
								<rate>
									<timebase>24</timebase>
									<ntsc>TRUE</ntsc>
								</rate>
								<string>18:45:04:02</string>
								<frame>1620098</frame>
								<displayformat>NDF</displayformat>
								<reel>
									<name>A0490014</name>
								</reel>
							</timecode>
							<media>
								<video>
									<samplecharacteristics>
										<rate>
											<timebase>24</timebase>
											<ntsc>TRUE</ntsc>
										</rate>
										<width>4096</width>
										<height>2160</height>
										<anamorphic>FALSE</anamorphic>
										<pixelaspectratio>square</pixelaspectratio>
										<fielddominance>none</fielddominance>
									</samplecharacteristics>
								</video>
							</media>
						</file>
						<logginginfo>
							<description></description>
							<scene></scene>
							<shottake></shottake>
							<lognote></lognote>
							<good></good>
							<originalvideofilename></originalvideofilename>
							<originalaudiofilename></originalaudiofilename>
						</logginginfo>
						<colorinfo>
							<lut></lut>
							<lut1></lut1>
							<asc_sop></asc_sop>
							<asc_sat></asc_sat>
							<lut2></lut2>
						</colorinfo>
						<labels>
							<label2>Violet</label2>
						</labels>
					</clipitem>
					<clipitem id="clipitem-265">
						<masterclipid>masterclip-262</masterclipid>
						<name>TKO_008_GAR_Sh02670.mov</name>
						<enabled>TRUE</enabled>
						<duration>56</duration>
						<rate>
							<timebase>24</timebase>
							<ntsc>TRUE</ntsc>
						</rate>
						<start>21786</start>
						<end>21834</end>
						<in>4</in>
						<out>52</out>
						<pproTicksIn>42378336000</pproTicksIn>
						<pproTicksOut>550918368000</pproTicksOut>
						<alphatype>none</alphatype>
						<pixelaspectratio>square</pixelaspectratio>
						<anamorphic>FALSE</anamorphic>
						<file id="file-262">
							<name>TKO_008_GAR_Sh02670.mov</name>
							<pathurl>file://tri-stor01/Projects/TKO/SHOTS/_Refs_Movs_Burnin_FrameCounter/TKO_008_GAR_Sh02670.mov</pathurl>
							<rate>
								<timebase>24</timebase>
								<ntsc>TRUE</ntsc>
							</rate>
							<duration>56</duration>
							<timecode>
								<rate>
									<timebase>24</timebase>
									<ntsc>TRUE</ntsc>
								</rate>
								<string>17:33:31:16</string>
								<frame>1517080</frame>
								<displayformat>NDF</displayformat>
								<reel>
									<name>A0490006</name>
								</reel>
							</timecode>
							<media>
								<video>
									<samplecharacteristics>
										<rate>
											<timebase>24</timebase>
											<ntsc>TRUE</ntsc>
										</rate>
										<width>4096</width>
										<height>2160</height>
										<anamorphic>FALSE</anamorphic>
										<pixelaspectratio>square</pixelaspectratio>
										<fielddominance>none</fielddominance>
									</samplecharacteristics>
								</video>
							</media>
						</file>
						<logginginfo>
							<description></description>
							<scene></scene>
							<shottake></shottake>
							<lognote></lognote>
							<good></good>
							<originalvideofilename></originalvideofilename>
							<originalaudiofilename></originalaudiofilename>
						</logginginfo>
						<colorinfo>
							<lut></lut>
							<lut1></lut1>
							<asc_sop></asc_sop>
							<asc_sat></asc_sat>
							<lut2></lut2>
						</colorinfo>
						<labels>
							<label2>Violet</label2>
						</labels>
					</clipitem>
					<clipitem id="clipitem-266">
						<masterclipid>masterclip-263</masterclipid>
						<name>TKO_008_GAR_Sh02680.mov</name>
						<enabled>TRUE</enabled>
						<duration>38</duration>
						<rate>
							<timebase>24</timebase>
							<ntsc>TRUE</ntsc>
						</rate>
						<start>21834</start>
						<end>21864</end>
						<in>4</in>
						<out>34</out>
						<pproTicksIn>42378336000</pproTicksIn>
						<pproTicksOut>360215856000</pproTicksOut>
						<alphatype>none</alphatype>
						<pixelaspectratio>square</pixelaspectratio>
						<anamorphic>FALSE</anamorphic>
						<file id="file-263">
							<name>TKO_008_GAR_Sh02680.mov</name>
							<pathurl>file://tri-stor01/Projects/TKO/SHOTS/_Refs_Movs_Burnin_FrameCounter/TKO_008_GAR_Sh02680.mov</pathurl>
							<rate>
								<timebase>24</timebase>
								<ntsc>TRUE</ntsc>
							</rate>
							<duration>38</duration>
							<timecode>
								<rate>
									<timebase>24</timebase>
									<ntsc>TRUE</ntsc>
								</rate>
								<string>17:04:48:18</string>
								<frame>1475730</frame>
								<displayformat>NDF</displayformat>
								<reel>
									<name>B0420003</name>
								</reel>
							</timecode>
							<media>
								<video>
									<samplecharacteristics>
										<rate>
											<timebase>24</timebase>
											<ntsc>TRUE</ntsc>
										</rate>
										<width>4096</width>
										<height>2160</height>
										<anamorphic>FALSE</anamorphic>
										<pixelaspectratio>square</pixelaspectratio>
										<fielddominance>none</fielddominance>
									</samplecharacteristics>
								</video>
							</media>
						</file>
						<logginginfo>
							<description></description>
							<scene></scene>
							<shottake></shottake>
							<lognote></lognote>
							<good></good>
							<originalvideofilename></originalvideofilename>
							<originalaudiofilename></originalaudiofilename>
						</logginginfo>
						<colorinfo>
							<lut></lut>
							<lut1></lut1>
							<asc_sop></asc_sop>
							<asc_sat></asc_sat>
							<lut2></lut2>
						</colorinfo>
						<labels>
							<label2>Violet</label2>
						</labels>
					</clipitem>
					<clipitem id="clipitem-267">
						<masterclipid>masterclip-264</masterclipid>
						<name>TKO_008_GAR_Sh02690.mov</name>
						<enabled>TRUE</enabled>
						<duration>94</duration>
						<rate>
							<timebase>24</timebase>
							<ntsc>TRUE</ntsc>
						</rate>
						<start>21864</start>
						<end>21950</end>
						<in>4</in>
						<out>90</out>
						<pproTicksIn>42378336000</pproTicksIn>
						<pproTicksOut>953512560000</pproTicksOut>
						<alphatype>none</alphatype>
						<pixelaspectratio>square</pixelaspectratio>
						<anamorphic>FALSE</anamorphic>
						<file id="file-264">
							<name>TKO_008_GAR_Sh02690.mov</name>
							<pathurl>file://tri-stor01/Projects/TKO/SHOTS/_Refs_Movs_Burnin_FrameCounter/TKO_008_GAR_Sh02690.mov</pathurl>
							<rate>
								<timebase>24</timebase>
								<ntsc>TRUE</ntsc>
							</rate>
							<duration>94</duration>
							<timecode>
								<rate>
									<timebase>24</timebase>
									<ntsc>TRUE</ntsc>
								</rate>
								<string>17:04:50:09</string>
								<frame>1475769</frame>
								<displayformat>NDF</displayformat>
								<reel>
									<name>A0490003</name>
								</reel>
							</timecode>
							<media>
								<video>
									<samplecharacteristics>
										<rate>
											<timebase>24</timebase>
											<ntsc>TRUE</ntsc>
										</rate>
										<width>4096</width>
										<height>2160</height>
										<anamorphic>FALSE</anamorphic>
										<pixelaspectratio>square</pixelaspectratio>
										<fielddominance>none</fielddominance>
									</samplecharacteristics>
								</video>
							</media>
						</file>
						<logginginfo>
							<description></description>
							<scene></scene>
							<shottake></shottake>
							<lognote></lognote>
							<good></good>
							<originalvideofilename></originalvideofilename>
							<originalaudiofilename></originalaudiofilename>
						</logginginfo>
						<colorinfo>
							<lut></lut>
							<lut1></lut1>
							<asc_sop></asc_sop>
							<asc_sat></asc_sat>
							<lut2></lut2>
						</colorinfo>
						<labels>
							<label2>Violet</label2>
						</labels>
					</clipitem>
					<clipitem id="clipitem-268">
						<masterclipid>masterclip-265</masterclipid>
						<name>TKO_008_GAR_Sh02700.mov</name>
						<enabled>TRUE</enabled>
						<duration>43</duration>
						<rate>
							<timebase>24</timebase>
							<ntsc>TRUE</ntsc>
						</rate>
						<start>21950</start>
						<end>21985</end>
						<in>4</in>
						<out>39</out>
						<pproTicksIn>42378336000</pproTicksIn>
						<pproTicksOut>413188776000</pproTicksOut>
						<alphatype>none</alphatype>
						<pixelaspectratio>square</pixelaspectratio>
						<anamorphic>FALSE</anamorphic>
						<file id="file-265">
							<name>TKO_008_GAR_Sh02700.mov</name>
							<pathurl>file://tri-stor01/Projects/TKO/SHOTS/_Refs_Movs_Burnin_FrameCounter/TKO_008_GAR_Sh02700.mov</pathurl>
							<rate>
								<timebase>24</timebase>
								<ntsc>TRUE</ntsc>
							</rate>
							<duration>43</duration>
							<timecode>
								<rate>
									<timebase>24</timebase>
									<ntsc>TRUE</ntsc>
								</rate>
								<string>17:04:53:23</string>
								<frame>1475855</frame>
								<displayformat>NDF</displayformat>
								<reel>
									<name>B0420003</name>
								</reel>
							</timecode>
							<media>
								<video>
									<samplecharacteristics>
										<rate>
											<timebase>24</timebase>
											<ntsc>TRUE</ntsc>
										</rate>
										<width>4096</width>
										<height>2160</height>
										<anamorphic>FALSE</anamorphic>
										<pixelaspectratio>square</pixelaspectratio>
										<fielddominance>none</fielddominance>
									</samplecharacteristics>
								</video>
							</media>
						</file>
						<logginginfo>
							<description></description>
							<scene></scene>
							<shottake></shottake>
							<lognote></lognote>
							<good></good>
							<originalvideofilename></originalvideofilename>
							<originalaudiofilename></originalaudiofilename>
						</logginginfo>
						<colorinfo>
							<lut></lut>
							<lut1></lut1>
							<asc_sop></asc_sop>
							<asc_sat></asc_sat>
							<lut2></lut2>
						</colorinfo>
						<labels>
							<label2>Violet</label2>
						</labels>
					</clipitem>
					<clipitem id="clipitem-269">
						<masterclipid>masterclip-266</masterclipid>
						<name>TKO_008_GAR_Sh02710.mov</name>
						<enabled>TRUE</enabled>
						<duration>190</duration>
						<rate>
							<timebase>24</timebase>
							<ntsc>TRUE</ntsc>
						</rate>
						<start>21985</start>
						<end>22167</end>
						<in>4</in>
						<out>186</out>
						<pproTicksIn>42378336000</pproTicksIn>
						<pproTicksOut>1970592624000</pproTicksOut>
						<alphatype>none</alphatype>
						<pixelaspectratio>square</pixelaspectratio>
						<anamorphic>FALSE</anamorphic>
						<file id="file-266">
							<name>TKO_008_GAR_Sh02710.mov</name>
							<pathurl>file://tri-stor01/Projects/TKO/SHOTS/_Refs_Movs_Burnin_FrameCounter/TKO_008_GAR_Sh02710.mov</pathurl>
							<rate>
								<timebase>24</timebase>
								<ntsc>TRUE</ntsc>
							</rate>
							<duration>190</duration>
							<timecode>
								<rate>
									<timebase>24</timebase>
									<ntsc>TRUE</ntsc>
								</rate>
								<string>19:13:35:15</string>
								<frame>1661175</frame>
								<displayformat>NDF</displayformat>
								<reel>
									<name>A0500004</name>
								</reel>
							</timecode>
							<media>
								<video>
									<samplecharacteristics>
										<rate>
											<timebase>24</timebase>
											<ntsc>TRUE</ntsc>
										</rate>
										<width>4096</width>
										<height>2160</height>
										<anamorphic>FALSE</anamorphic>
										<pixelaspectratio>square</pixelaspectratio>
										<fielddominance>none</fielddominance>
									</samplecharacteristics>
								</video>
							</media>
						</file>
						<logginginfo>
							<description></description>
							<scene></scene>
							<shottake></shottake>
							<lognote></lognote>
							<good></good>
							<originalvideofilename></originalvideofilename>
							<originalaudiofilename></originalaudiofilename>
						</logginginfo>
						<colorinfo>
							<lut></lut>
							<lut1></lut1>
							<asc_sop></asc_sop>
							<asc_sat></asc_sat>
							<lut2></lut2>
						</colorinfo>
						<labels>
							<label2>Violet</label2>
						</labels>
					</clipitem>
					<clipitem id="clipitem-270">
						<masterclipid>masterclip-267</masterclipid>
						<name>TKO_008_GAR_Sh02720.mov</name>
						<enabled>TRUE</enabled>
						<duration>66</duration>
						<rate>
							<timebase>24</timebase>
							<ntsc>TRUE</ntsc>
						</rate>
						<start>22167</start>
						<end>22225</end>
						<in>4</in>
						<out>62</out>
						<pproTicksIn>42378336000</pproTicksIn>
						<pproTicksOut>656864208000</pproTicksOut>
						<alphatype>none</alphatype>
						<pixelaspectratio>square</pixelaspectratio>
						<anamorphic>FALSE</anamorphic>
						<file id="file-267">
							<name>TKO_008_GAR_Sh02720.mov</name>
							<pathurl>file://tri-stor01/Projects/TKO/SHOTS/_Refs_Movs_Burnin_FrameCounter/TKO_008_GAR_Sh02720.mov</pathurl>
							<rate>
								<timebase>24</timebase>
								<ntsc>TRUE</ntsc>
							</rate>
							<duration>66</duration>
							<timecode>
								<rate>
									<timebase>24</timebase>
									<ntsc>TRUE</ntsc>
								</rate>
								<string>17:04:56:15</string>
								<frame>1475919</frame>
								<displayformat>NDF</displayformat>
								<reel>
									<name>A0490003</name>
								</reel>
							</timecode>
							<media>
								<video>
									<samplecharacteristics>
										<rate>
											<timebase>24</timebase>
											<ntsc>TRUE</ntsc>
										</rate>
										<width>4096</width>
										<height>2160</height>
										<anamorphic>FALSE</anamorphic>
										<pixelaspectratio>square</pixelaspectratio>
										<fielddominance>none</fielddominance>
									</samplecharacteristics>
								</video>
							</media>
						</file>
						<logginginfo>
							<description></description>
							<scene></scene>
							<shottake></shottake>
							<lognote></lognote>
							<good></good>
							<originalvideofilename></originalvideofilename>
							<originalaudiofilename></originalaudiofilename>
						</logginginfo>
						<colorinfo>
							<lut></lut>
							<lut1></lut1>
							<asc_sop></asc_sop>
							<asc_sat></asc_sat>
							<lut2></lut2>
						</colorinfo>
						<labels>
							<label2>Violet</label2>
						</labels>
					</clipitem>
					<clipitem id="clipitem-271">
						<masterclipid>masterclip-268</masterclipid>
						<name>TKO_008_GAR_Sh02730.mov</name>
						<enabled>TRUE</enabled>
						<duration>179</duration>
						<rate>
							<timebase>24</timebase>
							<ntsc>TRUE</ntsc>
						</rate>
						<start>22225</start>
						<end>22396</end>
						<in>4</in>
						<out>175</out>
						<pproTicksIn>42378336000</pproTicksIn>
						<pproTicksOut>1854052200000</pproTicksOut>
						<alphatype>none</alphatype>
						<pixelaspectratio>square</pixelaspectratio>
						<anamorphic>FALSE</anamorphic>
						<file id="file-268">
							<name>TKO_008_GAR_Sh02730.mov</name>
							<pathurl>file://tri-stor01/Projects/TKO/SHOTS/_Refs_Movs_Burnin_FrameCounter/TKO_008_GAR_Sh02730.mov</pathurl>
							<rate>
								<timebase>24</timebase>
								<ntsc>TRUE</ntsc>
							</rate>
							<duration>179</duration>
							<timecode>
								<rate>
									<timebase>24</timebase>
									<ntsc>TRUE</ntsc>
								</rate>
								<string>17:33:47:10</string>
								<frame>1517458</frame>
								<displayformat>NDF</displayformat>
								<reel>
									<name>A0490006</name>
								</reel>
							</timecode>
							<media>
								<video>
									<samplecharacteristics>
										<rate>
											<timebase>24</timebase>
											<ntsc>TRUE</ntsc>
										</rate>
										<width>4096</width>
										<height>2160</height>
										<anamorphic>FALSE</anamorphic>
										<pixelaspectratio>square</pixelaspectratio>
										<fielddominance>none</fielddominance>
									</samplecharacteristics>
								</video>
							</media>
						</file>
						<logginginfo>
							<description></description>
							<scene></scene>
							<shottake></shottake>
							<lognote></lognote>
							<good></good>
							<originalvideofilename></originalvideofilename>
							<originalaudiofilename></originalaudiofilename>
						</logginginfo>
						<colorinfo>
							<lut></lut>
							<lut1></lut1>
							<asc_sop></asc_sop>
							<asc_sat></asc_sat>
							<lut2></lut2>
						</colorinfo>
						<labels>
							<label2>Violet</label2>
						</labels>
					</clipitem>
					<clipitem id="clipitem-272">
						<masterclipid>masterclip-269</masterclipid>
						<name>TKO_008_GAR_Sh02740.mov</name>
						<enabled>TRUE</enabled>
						<duration>59</duration>
						<rate>
							<timebase>24</timebase>
							<ntsc>TRUE</ntsc>
						</rate>
						<start>22396</start>
						<end>22447</end>
						<in>4</in>
						<out>55</out>
						<pproTicksIn>42378336000</pproTicksIn>
						<pproTicksOut>582702120000</pproTicksOut>
						<alphatype>none</alphatype>
						<pixelaspectratio>square</pixelaspectratio>
						<anamorphic>FALSE</anamorphic>
						<file id="file-269">
							<name>TKO_008_GAR_Sh02740.mov</name>
							<pathurl>file://tri-stor01/Projects/TKO/SHOTS/_Refs_Movs_Burnin_FrameCounter/TKO_008_GAR_Sh02740.mov</pathurl>
							<rate>
								<timebase>24</timebase>
								<ntsc>TRUE</ntsc>
							</rate>
							<duration>59</duration>
							<timecode>
								<rate>
									<timebase>24</timebase>
									<ntsc>TRUE</ntsc>
								</rate>
								<string>17:33:51:16</string>
								<frame>1517560</frame>
								<displayformat>NDF</displayformat>
								<reel>
									<name>B0420006</name>
								</reel>
							</timecode>
							<media>
								<video>
									<samplecharacteristics>
										<rate>
											<timebase>24</timebase>
											<ntsc>TRUE</ntsc>
										</rate>
										<width>4096</width>
										<height>2160</height>
										<anamorphic>FALSE</anamorphic>
										<pixelaspectratio>square</pixelaspectratio>
										<fielddominance>none</fielddominance>
									</samplecharacteristics>
								</video>
							</media>
						</file>
						<logginginfo>
							<description></description>
							<scene></scene>
							<shottake></shottake>
							<lognote></lognote>
							<good></good>
							<originalvideofilename></originalvideofilename>
							<originalaudiofilename></originalaudiofilename>
						</logginginfo>
						<colorinfo>
							<lut></lut>
							<lut1></lut1>
							<asc_sop></asc_sop>
							<asc_sat></asc_sat>
							<lut2></lut2>
						</colorinfo>
						<labels>
							<label2>Violet</label2>
						</labels>
					</clipitem>
					<clipitem id="clipitem-273">
						<masterclipid>masterclip-270</masterclipid>
						<name>TKO_008_GAR_Sh02750.mov</name>
						<enabled>TRUE</enabled>
						<duration>115</duration>
						<rate>
							<timebase>24</timebase>
							<ntsc>TRUE</ntsc>
						</rate>
						<start>22447</start>
						<end>22554</end>
						<in>4</in>
						<out>111</out>
						<pproTicksIn>42378336000</pproTicksIn>
						<pproTicksOut>1175998824000</pproTicksOut>
						<alphatype>none</alphatype>
						<pixelaspectratio>square</pixelaspectratio>
						<anamorphic>FALSE</anamorphic>
						<file id="file-270">
							<name>TKO_008_GAR_Sh02750.mov</name>
							<pathurl>file://tri-stor01/Projects/TKO/SHOTS/_Refs_Movs_Burnin_FrameCounter/TKO_008_GAR_Sh02750.mov</pathurl>
							<rate>
								<timebase>24</timebase>
								<ntsc>TRUE</ntsc>
							</rate>
							<duration>115</duration>
							<timecode>
								<rate>
									<timebase>24</timebase>
									<ntsc>TRUE</ntsc>
								</rate>
								<string>17:33:56:16</string>
								<frame>1517680</frame>
								<displayformat>NDF</displayformat>
								<reel>
									<name>A0490006</name>
								</reel>
							</timecode>
							<media>
								<video>
									<samplecharacteristics>
										<rate>
											<timebase>24</timebase>
											<ntsc>TRUE</ntsc>
										</rate>
										<width>4096</width>
										<height>2160</height>
										<anamorphic>FALSE</anamorphic>
										<pixelaspectratio>square</pixelaspectratio>
										<fielddominance>none</fielddominance>
									</samplecharacteristics>
								</video>
							</media>
						</file>
						<logginginfo>
							<description></description>
							<scene></scene>
							<shottake></shottake>
							<lognote></lognote>
							<good></good>
							<originalvideofilename></originalvideofilename>
							<originalaudiofilename></originalaudiofilename>
						</logginginfo>
						<colorinfo>
							<lut></lut>
							<lut1></lut1>
							<asc_sop></asc_sop>
							<asc_sat></asc_sat>
							<lut2></lut2>
						</colorinfo>
						<labels>
							<label2>Violet</label2>
						</labels>
					</clipitem>
					<clipitem id="clipitem-274">
						<masterclipid>masterclip-271</masterclipid>
						<name>TKO_008_GAR_Sh02760.mov</name>
						<enabled>TRUE</enabled>
						<duration>112</duration>
						<rate>
							<timebase>24</timebase>
							<ntsc>TRUE</ntsc>
						</rate>
						<start>22554</start>
						<end>22658</end>
						<in>4</in>
						<out>108</out>
						<pproTicksIn>42378336000</pproTicksIn>
						<pproTicksOut>1144215072000</pproTicksOut>
						<alphatype>none</alphatype>
						<pixelaspectratio>square</pixelaspectratio>
						<anamorphic>FALSE</anamorphic>
						<file id="file-271">
							<name>TKO_008_GAR_Sh02760.mov</name>
							<pathurl>file://tri-stor01/Projects/TKO/SHOTS/_Refs_Movs_Burnin_FrameCounter/TKO_008_GAR_Sh02760.mov</pathurl>
							<rate>
								<timebase>24</timebase>
								<ntsc>TRUE</ntsc>
							</rate>
							<duration>112</duration>
							<timecode>
								<rate>
									<timebase>24</timebase>
									<ntsc>TRUE</ntsc>
								</rate>
								<string>17:05:12:09</string>
								<frame>1476297</frame>
								<displayformat>NDF</displayformat>
								<reel>
									<name>A0490003</name>
								</reel>
							</timecode>
							<media>
								<video>
									<samplecharacteristics>
										<rate>
											<timebase>24</timebase>
											<ntsc>TRUE</ntsc>
										</rate>
										<width>4096</width>
										<height>2160</height>
										<anamorphic>FALSE</anamorphic>
										<pixelaspectratio>square</pixelaspectratio>
										<fielddominance>none</fielddominance>
									</samplecharacteristics>
								</video>
							</media>
						</file>
						<logginginfo>
							<description></description>
							<scene></scene>
							<shottake></shottake>
							<lognote></lognote>
							<good></good>
							<originalvideofilename></originalvideofilename>
							<originalaudiofilename></originalaudiofilename>
						</logginginfo>
						<colorinfo>
							<lut></lut>
							<lut1></lut1>
							<asc_sop></asc_sop>
							<asc_sat></asc_sat>
							<lut2></lut2>
						</colorinfo>
						<labels>
							<label2>Violet</label2>
						</labels>
					</clipitem>
					<clipitem id="clipitem-275">
						<masterclipid>masterclip-272</masterclipid>
						<name>TKO_008_GAR_Sh02770.mov</name>
						<enabled>TRUE</enabled>
						<duration>143</duration>
						<rate>
							<timebase>24</timebase>
							<ntsc>TRUE</ntsc>
						</rate>
						<start>22658</start>
						<end>22793</end>
						<in>4</in>
						<out>139</out>
						<pproTicksIn>42378336000</pproTicksIn>
						<pproTicksOut>1472647176000</pproTicksOut>
						<alphatype>none</alphatype>
						<pixelaspectratio>square</pixelaspectratio>
						<anamorphic>FALSE</anamorphic>
						<file id="file-272">
							<name>TKO_008_GAR_Sh02770.mov</name>
							<pathurl>file://tri-stor01/Projects/TKO/SHOTS/_Refs_Movs_Burnin_FrameCounter/TKO_008_GAR_Sh02770.mov</pathurl>
							<rate>
								<timebase>24</timebase>
								<ntsc>TRUE</ntsc>
							</rate>
							<duration>143</duration>
							<timecode>
								<rate>
									<timebase>24</timebase>
									<ntsc>TRUE</ntsc>
								</rate>
								<string>17:05:16:17</string>
								<frame>1476401</frame>
								<displayformat>NDF</displayformat>
								<reel>
									<name>B0420003</name>
								</reel>
							</timecode>
							<media>
								<video>
									<samplecharacteristics>
										<rate>
											<timebase>24</timebase>
											<ntsc>TRUE</ntsc>
										</rate>
										<width>4096</width>
										<height>2160</height>
										<anamorphic>FALSE</anamorphic>
										<pixelaspectratio>square</pixelaspectratio>
										<fielddominance>none</fielddominance>
									</samplecharacteristics>
								</video>
							</media>
						</file>
						<logginginfo>
							<description></description>
							<scene></scene>
							<shottake></shottake>
							<lognote></lognote>
							<good></good>
							<originalvideofilename></originalvideofilename>
							<originalaudiofilename></originalaudiofilename>
						</logginginfo>
						<colorinfo>
							<lut></lut>
							<lut1></lut1>
							<asc_sop></asc_sop>
							<asc_sat></asc_sat>
							<lut2></lut2>
						</colorinfo>
						<labels>
							<label2>Violet</label2>
						</labels>
					</clipitem>
					<clipitem id="clipitem-276">
						<masterclipid>masterclip-273</masterclipid>
						<name>TKO_008_GAR_Sh02780.mov</name>
						<enabled>TRUE</enabled>
						<duration>128</duration>
						<rate>
							<timebase>24</timebase>
							<ntsc>TRUE</ntsc>
						</rate>
						<start>22793</start>
						<end>22913</end>
						<in>4</in>
						<out>124</out>
						<pproTicksIn>42378336000</pproTicksIn>
						<pproTicksOut>1313728416000</pproTicksOut>
						<alphatype>none</alphatype>
						<pixelaspectratio>square</pixelaspectratio>
						<anamorphic>FALSE</anamorphic>
						<file id="file-273">
							<name>TKO_008_GAR_Sh02780.mov</name>
							<pathurl>file://tri-stor01/Projects/TKO/SHOTS/_Refs_Movs_Burnin_FrameCounter/TKO_008_GAR_Sh02780.mov</pathurl>
							<rate>
								<timebase>24</timebase>
								<ntsc>TRUE</ntsc>
							</rate>
							<duration>128</duration>
							<timecode>
								<rate>
									<timebase>24</timebase>
									<ntsc>TRUE</ntsc>
								</rate>
								<string>00:14:01:05</string>
								<frame>20189</frame>
								<displayformat>NDF</displayformat>
							</timecode>
							<media>
								<video>
									<samplecharacteristics>
										<rate>
											<timebase>24</timebase>
											<ntsc>TRUE</ntsc>
										</rate>
										<width>1280</width>
										<height>720</height>
										<anamorphic>FALSE</anamorphic>
										<pixelaspectratio>square</pixelaspectratio>
										<fielddominance>none</fielddominance>
									</samplecharacteristics>
								</video>
							</media>
						</file>
						<logginginfo>
							<description></description>
							<scene></scene>
							<shottake></shottake>
							<lognote></lognote>
							<good></good>
							<originalvideofilename></originalvideofilename>
							<originalaudiofilename></originalaudiofilename>
						</logginginfo>
						<colorinfo>
							<lut></lut>
							<lut1></lut1>
							<asc_sop></asc_sop>
							<asc_sat></asc_sat>
							<lut2></lut2>
						</colorinfo>
						<labels>
							<label2>Violet</label2>
						</labels>
					</clipitem>
					<clipitem id="clipitem-277">
						<masterclipid>masterclip-274</masterclipid>
						<name>TKO_008_GAR_Sh02790.mov</name>
						<enabled>TRUE</enabled>
						<duration>53</duration>
						<rate>
							<timebase>24</timebase>
							<ntsc>TRUE</ntsc>
						</rate>
						<start>22913</start>
						<end>22958</end>
						<in>4</in>
						<out>49</out>
						<pproTicksIn>42378336000</pproTicksIn>
						<pproTicksOut>519134616000</pproTicksOut>
						<alphatype>none</alphatype>
						<pixelaspectratio>square</pixelaspectratio>
						<anamorphic>FALSE</anamorphic>
						<file id="file-274">
							<name>TKO_008_GAR_Sh02790.mov</name>
							<pathurl>file://tri-stor01/Projects/TKO/SHOTS/_Refs_Movs_Burnin_FrameCounter/TKO_008_GAR_Sh02790.mov</pathurl>
							<rate>
								<timebase>24</timebase>
								<ntsc>TRUE</ntsc>
							</rate>
							<duration>53</duration>
							<timecode>
								<rate>
									<timebase>24</timebase>
									<ntsc>TRUE</ntsc>
								</rate>
								<string>17:34:12:06</string>
								<frame>1518054</frame>
								<displayformat>NDF</displayformat>
								<reel>
									<name>B0420006</name>
								</reel>
							</timecode>
							<media>
								<video>
									<samplecharacteristics>
										<rate>
											<timebase>24</timebase>
											<ntsc>TRUE</ntsc>
										</rate>
										<width>4096</width>
										<height>2160</height>
										<anamorphic>FALSE</anamorphic>
										<pixelaspectratio>square</pixelaspectratio>
										<fielddominance>none</fielddominance>
									</samplecharacteristics>
								</video>
							</media>
						</file>
						<logginginfo>
							<description></description>
							<scene></scene>
							<shottake></shottake>
							<lognote></lognote>
							<good></good>
							<originalvideofilename></originalvideofilename>
							<originalaudiofilename></originalaudiofilename>
						</logginginfo>
						<colorinfo>
							<lut></lut>
							<lut1></lut1>
							<asc_sop></asc_sop>
							<asc_sat></asc_sat>
							<lut2></lut2>
						</colorinfo>
						<labels>
							<label2>Violet</label2>
						</labels>
					</clipitem>
					<clipitem id="clipitem-278">
						<masterclipid>masterclip-275</masterclipid>
						<name>TKO_008_GAR_Sh02800.mov</name>
						<enabled>TRUE</enabled>
						<duration>159</duration>
						<rate>
							<timebase>24</timebase>
							<ntsc>TRUE</ntsc>
						</rate>
						<start>22958</start>
						<end>23109</end>
						<in>4</in>
						<out>155</out>
						<pproTicksIn>42378336000</pproTicksIn>
						<pproTicksOut>1642160520000</pproTicksOut>
						<alphatype>none</alphatype>
						<pixelaspectratio>square</pixelaspectratio>
						<anamorphic>FALSE</anamorphic>
						<file id="file-275">
							<name>TKO_008_GAR_Sh02800.mov</name>
							<pathurl>file://tri-stor01/Projects/TKO/SHOTS/_Refs_Movs_Burnin_FrameCounter/TKO_008_GAR_Sh02800.mov</pathurl>
							<rate>
								<timebase>24</timebase>
								<ntsc>TRUE</ntsc>
							</rate>
							<duration>159</duration>
							<timecode>
								<rate>
									<timebase>24</timebase>
									<ntsc>TRUE</ntsc>
								</rate>
								<string>17:34:14:03</string>
								<frame>1518099</frame>
								<displayformat>NDF</displayformat>
								<reel>
									<name>A0490006</name>
								</reel>
							</timecode>
							<media>
								<video>
									<samplecharacteristics>
										<rate>
											<timebase>24</timebase>
											<ntsc>TRUE</ntsc>
										</rate>
										<width>4096</width>
										<height>2160</height>
										<anamorphic>FALSE</anamorphic>
										<pixelaspectratio>square</pixelaspectratio>
										<fielddominance>none</fielddominance>
									</samplecharacteristics>
								</video>
							</media>
						</file>
						<logginginfo>
							<description></description>
							<scene></scene>
							<shottake></shottake>
							<lognote></lognote>
							<good></good>
							<originalvideofilename></originalvideofilename>
							<originalaudiofilename></originalaudiofilename>
						</logginginfo>
						<colorinfo>
							<lut></lut>
							<lut1></lut1>
							<asc_sop></asc_sop>
							<asc_sat></asc_sat>
							<lut2></lut2>
						</colorinfo>
						<labels>
							<label2>Violet</label2>
						</labels>
					</clipitem>
					<clipitem id="clipitem-279">
						<masterclipid>masterclip-276</masterclipid>
						<name>TKO_008_GAR_Sh02810.mov</name>
						<enabled>TRUE</enabled>
						<duration>147</duration>
						<rate>
							<timebase>24</timebase>
							<ntsc>TRUE</ntsc>
						</rate>
						<start>23109</start>
						<end>23248</end>
						<in>4</in>
						<out>143</out>
						<pproTicksIn>42378336000</pproTicksIn>
						<pproTicksOut>1515025512000</pproTicksOut>
						<alphatype>none</alphatype>
						<pixelaspectratio>square</pixelaspectratio>
						<anamorphic>FALSE</anamorphic>
						<file id="file-276">
							<name>TKO_008_GAR_Sh02810.mov</name>
							<pathurl>file://tri-stor01/Projects/TKO/SHOTS/_Refs_Movs_Burnin_FrameCounter/TKO_008_GAR_Sh02810.mov</pathurl>
							<rate>
								<timebase>24</timebase>
								<ntsc>TRUE</ntsc>
							</rate>
							<duration>147</duration>
							<timecode>
								<rate>
									<timebase>24</timebase>
									<ntsc>TRUE</ntsc>
								</rate>
								<string>17:05:42:07</string>
								<frame>1477015</frame>
								<displayformat>NDF</displayformat>
								<reel>
									<name>A0490003</name>
								</reel>
							</timecode>
							<media>
								<video>
									<samplecharacteristics>
										<rate>
											<timebase>24</timebase>
											<ntsc>TRUE</ntsc>
										</rate>
										<width>4096</width>
										<height>2160</height>
										<anamorphic>FALSE</anamorphic>
										<pixelaspectratio>square</pixelaspectratio>
										<fielddominance>none</fielddominance>
									</samplecharacteristics>
								</video>
							</media>
						</file>
						<logginginfo>
							<description></description>
							<scene></scene>
							<shottake></shottake>
							<lognote></lognote>
							<good></good>
							<originalvideofilename></originalvideofilename>
							<originalaudiofilename></originalaudiofilename>
						</logginginfo>
						<colorinfo>
							<lut></lut>
							<lut1></lut1>
							<asc_sop></asc_sop>
							<asc_sat></asc_sat>
							<lut2></lut2>
						</colorinfo>
						<labels>
							<label2>Violet</label2>
						</labels>
					</clipitem>
					<clipitem id="clipitem-280">
						<masterclipid>masterclip-277</masterclipid>
						<name>TKO_008_GAR_Sh02820.mov</name>
						<enabled>TRUE</enabled>
						<duration>92</duration>
						<rate>
							<timebase>24</timebase>
							<ntsc>TRUE</ntsc>
						</rate>
						<start>23248</start>
						<end>23332</end>
						<in>4</in>
						<out>88</out>
						<pproTicksIn>42378336000</pproTicksIn>
						<pproTicksOut>932323392000</pproTicksOut>
						<alphatype>none</alphatype>
						<pixelaspectratio>square</pixelaspectratio>
						<anamorphic>FALSE</anamorphic>
						<file id="file-277">
							<name>TKO_008_GAR_Sh02820.mov</name>
							<pathurl>file://tri-stor01/Projects/TKO/SHOTS/_Refs_Movs_Burnin_FrameCounter/TKO_008_GAR_Sh02820.mov</pathurl>
							<rate>
								<timebase>24</timebase>
								<ntsc>TRUE</ntsc>
							</rate>
							<duration>92</duration>
							<timecode>
								<rate>
									<timebase>24</timebase>
									<ntsc>TRUE</ntsc>
								</rate>
								<string>17:05:48:02</string>
								<frame>1477154</frame>
								<displayformat>NDF</displayformat>
								<reel>
									<name>B0420003</name>
								</reel>
							</timecode>
							<media>
								<video>
									<samplecharacteristics>
										<rate>
											<timebase>24</timebase>
											<ntsc>TRUE</ntsc>
										</rate>
										<width>4096</width>
										<height>2160</height>
										<anamorphic>FALSE</anamorphic>
										<pixelaspectratio>square</pixelaspectratio>
										<fielddominance>none</fielddominance>
									</samplecharacteristics>
								</video>
							</media>
						</file>
						<logginginfo>
							<description></description>
							<scene></scene>
							<shottake></shottake>
							<lognote></lognote>
							<good></good>
							<originalvideofilename></originalvideofilename>
							<originalaudiofilename></originalaudiofilename>
						</logginginfo>
						<colorinfo>
							<lut></lut>
							<lut1></lut1>
							<asc_sop></asc_sop>
							<asc_sat></asc_sat>
							<lut2></lut2>
						</colorinfo>
						<labels>
							<label2>Violet</label2>
						</labels>
					</clipitem>
					<clipitem id="clipitem-281">
						<masterclipid>masterclip-278</masterclipid>
						<name>TKO_008_GAR_Sh02830.mov</name>
						<enabled>TRUE</enabled>
						<duration>61</duration>
						<rate>
							<timebase>24</timebase>
							<ntsc>TRUE</ntsc>
						</rate>
						<start>23332</start>
						<end>23385</end>
						<in>4</in>
						<out>57</out>
						<pproTicksIn>42378336000</pproTicksIn>
						<pproTicksOut>603891288000</pproTicksOut>
						<alphatype>none</alphatype>
						<pixelaspectratio>square</pixelaspectratio>
						<anamorphic>FALSE</anamorphic>
						<file id="file-278">
							<name>TKO_008_GAR_Sh02830.mov</name>
							<pathurl>file://tri-stor01/Projects/TKO/SHOTS/_Refs_Movs_Burnin_FrameCounter/TKO_008_GAR_Sh02830.mov</pathurl>
							<rate>
								<timebase>24</timebase>
								<ntsc>TRUE</ntsc>
							</rate>
							<duration>61</duration>
							<timecode>
								<rate>
									<timebase>24</timebase>
									<ntsc>TRUE</ntsc>
								</rate>
								<string>00:00:00:00</string>
								<frame>0</frame>
								<displayformat>NDF</displayformat>
							</timecode>
							<media>
								<video>
									<samplecharacteristics>
										<rate>
											<timebase>24</timebase>
											<ntsc>TRUE</ntsc>
										</rate>
										<width>4096</width>
										<height>2160</height>
										<anamorphic>FALSE</anamorphic>
										<pixelaspectratio>square</pixelaspectratio>
										<fielddominance>none</fielddominance>
									</samplecharacteristics>
								</video>
							</media>
						</file>
						<logginginfo>
							<description></description>
							<scene></scene>
							<shottake></shottake>
							<lognote></lognote>
							<good></good>
							<originalvideofilename></originalvideofilename>
							<originalaudiofilename></originalaudiofilename>
						</logginginfo>
						<colorinfo>
							<lut></lut>
							<lut1></lut1>
							<asc_sop></asc_sop>
							<asc_sat></asc_sat>
							<lut2></lut2>
						</colorinfo>
						<labels>
							<label2>Violet</label2>
						</labels>
					</clipitem>
					<clipitem id="clipitem-282">
						<masterclipid>masterclip-279</masterclipid>
						<name>TKO_008_GAR_Sh02840.mov</name>
						<enabled>TRUE</enabled>
						<duration>109</duration>
						<rate>
							<timebase>24</timebase>
							<ntsc>TRUE</ntsc>
						</rate>
						<start>23385</start>
						<end>23486</end>
						<in>4</in>
						<out>105</out>
						<pproTicksIn>42378336000</pproTicksIn>
						<pproTicksOut>1112431320000</pproTicksOut>
						<alphatype>none</alphatype>
						<pixelaspectratio>square</pixelaspectratio>
						<anamorphic>FALSE</anamorphic>
						<file id="file-279">
							<name>TKO_008_GAR_Sh02840.mov</name>
							<pathurl>file://tri-stor01/Projects/TKO/SHOTS/_Refs_Movs_Burnin_FrameCounter/TKO_008_GAR_Sh02840.mov</pathurl>
							<rate>
								<timebase>24</timebase>
								<ntsc>TRUE</ntsc>
							</rate>
							<duration>109</duration>
							<timecode>
								<rate>
									<timebase>24</timebase>
									<ntsc>TRUE</ntsc>
								</rate>
								<string>00:00:00:00</string>
								<frame>0</frame>
								<displayformat>NDF</displayformat>
							</timecode>
							<media>
								<video>
									<samplecharacteristics>
										<rate>
											<timebase>24</timebase>
											<ntsc>TRUE</ntsc>
										</rate>
										<width>4096</width>
										<height>2160</height>
										<anamorphic>FALSE</anamorphic>
										<pixelaspectratio>square</pixelaspectratio>
										<fielddominance>none</fielddominance>
									</samplecharacteristics>
								</video>
							</media>
						</file>
						<logginginfo>
							<description></description>
							<scene></scene>
							<shottake></shottake>
							<lognote></lognote>
							<good></good>
							<originalvideofilename></originalvideofilename>
							<originalaudiofilename></originalaudiofilename>
						</logginginfo>
						<colorinfo>
							<lut></lut>
							<lut1></lut1>
							<asc_sop></asc_sop>
							<asc_sat></asc_sat>
							<lut2></lut2>
						</colorinfo>
						<labels>
							<label2>Violet</label2>
						</labels>
					</clipitem>
					<clipitem id="clipitem-283">
						<masterclipid>masterclip-280</masterclipid>
						<name>TKO_008_GAR_Sh02850.mov</name>
						<enabled>TRUE</enabled>
						<duration>196</duration>
						<rate>
							<timebase>24</timebase>
							<ntsc>TRUE</ntsc>
						</rate>
						<start>23486</start>
						<end>23674</end>
						<in>4</in>
						<out>192</out>
						<pproTicksIn>42378336000</pproTicksIn>
						<pproTicksOut>2034160128000</pproTicksOut>
						<alphatype>none</alphatype>
						<pixelaspectratio>square</pixelaspectratio>
						<anamorphic>FALSE</anamorphic>
						<file id="file-280">
							<name>TKO_008_GAR_Sh02850.mov</name>
							<pathurl>file://tri-stor01/Projects/TKO/SHOTS/_Refs_Movs_Burnin_FrameCounter/TKO_008_GAR_Sh02850.mov</pathurl>
							<rate>
								<timebase>24</timebase>
								<ntsc>TRUE</ntsc>
							</rate>
							<duration>196</duration>
							<timecode>
								<rate>
									<timebase>24</timebase>
									<ntsc>TRUE</ntsc>
								</rate>
								<string>17:05:53:11</string>
								<frame>1477283</frame>
								<displayformat>NDF</displayformat>
								<reel>
									<name>A0490003</name>
								</reel>
							</timecode>
							<media>
								<video>
									<samplecharacteristics>
										<rate>
											<timebase>24</timebase>
											<ntsc>TRUE</ntsc>
										</rate>
										<width>4096</width>
										<height>2160</height>
										<anamorphic>FALSE</anamorphic>
										<pixelaspectratio>square</pixelaspectratio>
										<fielddominance>none</fielddominance>
									</samplecharacteristics>
								</video>
							</media>
						</file>
						<logginginfo>
							<description></description>
							<scene></scene>
							<shottake></shottake>
							<lognote></lognote>
							<good></good>
							<originalvideofilename></originalvideofilename>
							<originalaudiofilename></originalaudiofilename>
						</logginginfo>
						<colorinfo>
							<lut></lut>
							<lut1></lut1>
							<asc_sop></asc_sop>
							<asc_sat></asc_sat>
							<lut2></lut2>
						</colorinfo>
						<labels>
							<label2>Violet</label2>
						</labels>
					</clipitem>
					<clipitem id="clipitem-284">
						<masterclipid>masterclip-281</masterclipid>
						<name>TKO_008_GAR_Sh02860.mov</name>
						<enabled>TRUE</enabled>
						<duration>147</duration>
						<rate>
							<timebase>24</timebase>
							<ntsc>TRUE</ntsc>
						</rate>
						<start>23674</start>
						<end>23813</end>
						<in>4</in>
						<out>143</out>
						<pproTicksIn>42378336000</pproTicksIn>
						<pproTicksOut>1515025512000</pproTicksOut>
						<alphatype>none</alphatype>
						<pixelaspectratio>square</pixelaspectratio>
						<anamorphic>FALSE</anamorphic>
						<file id="file-281">
							<name>TKO_008_GAR_Sh02860.mov</name>
							<pathurl>file://tri-stor01/Projects/TKO/SHOTS/_Refs_Movs_Burnin_FrameCounter/TKO_008_GAR_Sh02860.mov</pathurl>
							<rate>
								<timebase>24</timebase>
								<ntsc>TRUE</ntsc>
							</rate>
							<duration>147</duration>
							<timecode>
								<rate>
									<timebase>24</timebase>
									<ntsc>TRUE</ntsc>
								</rate>
								<string>17:27:26:11</string>
								<frame>1508315</frame>
								<displayformat>NDF</displayformat>
								<reel>
									<name>A0490005</name>
								</reel>
							</timecode>
							<media>
								<video>
									<samplecharacteristics>
										<rate>
											<timebase>24</timebase>
											<ntsc>TRUE</ntsc>
										</rate>
										<width>4096</width>
										<height>2160</height>
										<anamorphic>FALSE</anamorphic>
										<pixelaspectratio>square</pixelaspectratio>
										<fielddominance>none</fielddominance>
									</samplecharacteristics>
								</video>
							</media>
						</file>
						<logginginfo>
							<description></description>
							<scene></scene>
							<shottake></shottake>
							<lognote></lognote>
							<good></good>
							<originalvideofilename></originalvideofilename>
							<originalaudiofilename></originalaudiofilename>
						</logginginfo>
						<colorinfo>
							<lut></lut>
							<lut1></lut1>
							<asc_sop></asc_sop>
							<asc_sat></asc_sat>
							<lut2></lut2>
						</colorinfo>
						<labels>
							<label2>Violet</label2>
						</labels>
					</clipitem>
					<clipitem id="clipitem-285">
						<masterclipid>masterclip-282</masterclipid>
						<name>TKO_008_GAR_Sh02870.mov</name>
						<enabled>TRUE</enabled>
						<duration>85</duration>
						<rate>
							<timebase>24</timebase>
							<ntsc>TRUE</ntsc>
						</rate>
						<start>23813</start>
						<end>23890</end>
						<in>4</in>
						<out>81</out>
						<pproTicksIn>42378336000</pproTicksIn>
						<pproTicksOut>858161304000</pproTicksOut>
						<alphatype>none</alphatype>
						<pixelaspectratio>square</pixelaspectratio>
						<anamorphic>FALSE</anamorphic>
						<file id="file-282">
							<name>TKO_008_GAR_Sh02870.mov</name>
							<pathurl>file://tri-stor01/Projects/TKO/SHOTS/_Refs_Movs_Burnin_FrameCounter/TKO_008_GAR_Sh02870.mov</pathurl>
							<rate>
								<timebase>24</timebase>
								<ntsc>TRUE</ntsc>
							</rate>
							<duration>85</duration>
							<timecode>
								<rate>
									<timebase>24</timebase>
									<ntsc>TRUE</ntsc>
								</rate>
								<string>17:06:05:22</string>
								<frame>1477582</frame>
								<displayformat>NDF</displayformat>
								<reel>
									<name>B0420003</name>
								</reel>
							</timecode>
							<media>
								<video>
									<samplecharacteristics>
										<rate>
											<timebase>24</timebase>
											<ntsc>TRUE</ntsc>
										</rate>
										<width>4096</width>
										<height>2160</height>
										<anamorphic>FALSE</anamorphic>
										<pixelaspectratio>square</pixelaspectratio>
										<fielddominance>none</fielddominance>
									</samplecharacteristics>
								</video>
							</media>
						</file>
						<logginginfo>
							<description></description>
							<scene></scene>
							<shottake></shottake>
							<lognote></lognote>
							<good></good>
							<originalvideofilename></originalvideofilename>
							<originalaudiofilename></originalaudiofilename>
						</logginginfo>
						<colorinfo>
							<lut></lut>
							<lut1></lut1>
							<asc_sop></asc_sop>
							<asc_sat></asc_sat>
							<lut2></lut2>
						</colorinfo>
						<labels>
							<label2>Violet</label2>
						</labels>
					</clipitem>
					<clipitem id="clipitem-286">
						<masterclipid>masterclip-283</masterclipid>
						<name>TKO_008_GAR_Sh02880.mov</name>
						<enabled>TRUE</enabled>
						<duration>94</duration>
						<rate>
							<timebase>24</timebase>
							<ntsc>TRUE</ntsc>
						</rate>
						<start>23890</start>
						<end>23976</end>
						<in>4</in>
						<out>90</out>
						<pproTicksIn>42378336000</pproTicksIn>
						<pproTicksOut>953512560000</pproTicksOut>
						<alphatype>none</alphatype>
						<pixelaspectratio>square</pixelaspectratio>
						<anamorphic>FALSE</anamorphic>
						<file id="file-283">
							<name>TKO_008_GAR_Sh02880.mov</name>
							<pathurl>file://tri-stor01/Projects/TKO/SHOTS/_Refs_Movs_Burnin_FrameCounter/TKO_008_GAR_Sh02880.mov</pathurl>
							<rate>
								<timebase>24</timebase>
								<ntsc>TRUE</ntsc>
							</rate>
							<duration>94</duration>
							<timecode>
								<rate>
									<timebase>24</timebase>
									<ntsc>TRUE</ntsc>
								</rate>
								<string>17:06:09:03</string>
								<frame>1477659</frame>
								<displayformat>NDF</displayformat>
								<reel>
									<name>A0490003</name>
								</reel>
							</timecode>
							<media>
								<video>
									<samplecharacteristics>
										<rate>
											<timebase>24</timebase>
											<ntsc>TRUE</ntsc>
										</rate>
										<width>4096</width>
										<height>2160</height>
										<anamorphic>FALSE</anamorphic>
										<pixelaspectratio>square</pixelaspectratio>
										<fielddominance>none</fielddominance>
									</samplecharacteristics>
								</video>
							</media>
						</file>
						<logginginfo>
							<description></description>
							<scene></scene>
							<shottake></shottake>
							<lognote></lognote>
							<good></good>
							<originalvideofilename></originalvideofilename>
							<originalaudiofilename></originalaudiofilename>
						</logginginfo>
						<colorinfo>
							<lut></lut>
							<lut1></lut1>
							<asc_sop></asc_sop>
							<asc_sat></asc_sat>
							<lut2></lut2>
						</colorinfo>
						<labels>
							<label2>Violet</label2>
						</labels>
					</clipitem>
					<clipitem id="clipitem-287">
						<masterclipid>masterclip-284</masterclipid>
						<name>TKO_008_GAR_Sh02890.mov</name>
						<enabled>TRUE</enabled>
						<duration>113</duration>
						<rate>
							<timebase>24</timebase>
							<ntsc>TRUE</ntsc>
						</rate>
						<start>23976</start>
						<end>24081</end>
						<in>4</in>
						<out>109</out>
						<pproTicksIn>42378336000</pproTicksIn>
						<pproTicksOut>1154809656000</pproTicksOut>
						<alphatype>none</alphatype>
						<pixelaspectratio>square</pixelaspectratio>
						<anamorphic>FALSE</anamorphic>
						<file id="file-284">
							<name>TKO_008_GAR_Sh02890.mov</name>
							<pathurl>file://tri-stor01/Projects/TKO/SHOTS/_Refs_Movs_Burnin_FrameCounter/TKO_008_GAR_Sh02890.mov</pathurl>
							<rate>
								<timebase>24</timebase>
								<ntsc>TRUE</ntsc>
							</rate>
							<duration>113</duration>
							<timecode>
								<rate>
									<timebase>24</timebase>
									<ntsc>TRUE</ntsc>
								</rate>
								<string>17:06:12:17</string>
								<frame>1477745</frame>
								<displayformat>NDF</displayformat>
								<reel>
									<name>B0420003</name>
								</reel>
							</timecode>
							<media>
								<video>
									<samplecharacteristics>
										<rate>
											<timebase>24</timebase>
											<ntsc>TRUE</ntsc>
										</rate>
										<width>4096</width>
										<height>2160</height>
										<anamorphic>FALSE</anamorphic>
										<pixelaspectratio>square</pixelaspectratio>
										<fielddominance>none</fielddominance>
									</samplecharacteristics>
								</video>
							</media>
						</file>
						<logginginfo>
							<description></description>
							<scene></scene>
							<shottake></shottake>
							<lognote></lognote>
							<good></good>
							<originalvideofilename></originalvideofilename>
							<originalaudiofilename></originalaudiofilename>
						</logginginfo>
						<colorinfo>
							<lut></lut>
							<lut1></lut1>
							<asc_sop></asc_sop>
							<asc_sat></asc_sat>
							<lut2></lut2>
						</colorinfo>
						<labels>
							<label2>Violet</label2>
						</labels>
					</clipitem>
					<clipitem id="clipitem-288">
						<masterclipid>masterclip-285</masterclipid>
						<name>TKO_008_GAR_Sh02900.mov</name>
						<enabled>TRUE</enabled>
						<duration>91</duration>
						<rate>
							<timebase>24</timebase>
							<ntsc>TRUE</ntsc>
						</rate>
						<start>24081</start>
						<end>24164</end>
						<in>4</in>
						<out>87</out>
						<pproTicksIn>42378336000</pproTicksIn>
						<pproTicksOut>921728808000</pproTicksOut>
						<alphatype>none</alphatype>
						<pixelaspectratio>square</pixelaspectratio>
						<anamorphic>FALSE</anamorphic>
						<file id="file-285">
							<name>TKO_008_GAR_Sh02900.mov</name>
							<pathurl>file://tri-stor01/Projects/TKO/SHOTS/_Refs_Movs_Burnin_FrameCounter/TKO_008_GAR_Sh02900.mov</pathurl>
							<rate>
								<timebase>24</timebase>
								<ntsc>TRUE</ntsc>
							</rate>
							<duration>91</duration>
							<timecode>
								<rate>
									<timebase>24</timebase>
									<ntsc>TRUE</ntsc>
								</rate>
								<string>17:35:06:19</string>
								<frame>1519363</frame>
								<displayformat>NDF</displayformat>
								<reel>
									<name>B0420006</name>
								</reel>
							</timecode>
							<media>
								<video>
									<samplecharacteristics>
										<rate>
											<timebase>24</timebase>
											<ntsc>TRUE</ntsc>
										</rate>
										<width>4096</width>
										<height>2160</height>
										<anamorphic>FALSE</anamorphic>
										<pixelaspectratio>square</pixelaspectratio>
										<fielddominance>none</fielddominance>
									</samplecharacteristics>
								</video>
							</media>
						</file>
						<logginginfo>
							<description></description>
							<scene></scene>
							<shottake></shottake>
							<lognote></lognote>
							<good></good>
							<originalvideofilename></originalvideofilename>
							<originalaudiofilename></originalaudiofilename>
						</logginginfo>
						<colorinfo>
							<lut></lut>
							<lut1></lut1>
							<asc_sop></asc_sop>
							<asc_sat></asc_sat>
							<lut2></lut2>
						</colorinfo>
						<labels>
							<label2>Violet</label2>
						</labels>
					</clipitem>
					<clipitem id="clipitem-289">
						<masterclipid>masterclip-286</masterclipid>
						<name>TKO_008_GAR_Sh02910.mov</name>
						<enabled>TRUE</enabled>
						<duration>44</duration>
						<rate>
							<timebase>24</timebase>
							<ntsc>TRUE</ntsc>
						</rate>
						<start>24164</start>
						<end>24200</end>
						<in>4</in>
						<out>40</out>
						<pproTicksIn>42378336000</pproTicksIn>
						<pproTicksOut>423783360000</pproTicksOut>
						<alphatype>none</alphatype>
						<pixelaspectratio>square</pixelaspectratio>
						<anamorphic>FALSE</anamorphic>
						<file id="file-286">
							<name>TKO_008_GAR_Sh02910.mov</name>
							<pathurl>file://tri-stor01/Projects/TKO/SHOTS/_Refs_Movs_Burnin_FrameCounter/TKO_008_GAR_Sh02910.mov</pathurl>
							<rate>
								<timebase>24</timebase>
								<ntsc>TRUE</ntsc>
							</rate>
							<duration>44</duration>
							<timecode>
								<rate>
									<timebase>24</timebase>
									<ntsc>TRUE</ntsc>
								</rate>
								<string>17:35:10:10</string>
								<frame>1519450</frame>
								<displayformat>NDF</displayformat>
								<reel>
									<name>A0490006</name>
								</reel>
							</timecode>
							<media>
								<video>
									<samplecharacteristics>
										<rate>
											<timebase>24</timebase>
											<ntsc>TRUE</ntsc>
										</rate>
										<width>4096</width>
										<height>2160</height>
										<anamorphic>FALSE</anamorphic>
										<pixelaspectratio>square</pixelaspectratio>
										<fielddominance>none</fielddominance>
									</samplecharacteristics>
								</video>
							</media>
						</file>
						<logginginfo>
							<description></description>
							<scene></scene>
							<shottake></shottake>
							<lognote></lognote>
							<good></good>
							<originalvideofilename></originalvideofilename>
							<originalaudiofilename></originalaudiofilename>
						</logginginfo>
						<colorinfo>
							<lut></lut>
							<lut1></lut1>
							<asc_sop></asc_sop>
							<asc_sat></asc_sat>
							<lut2></lut2>
						</colorinfo>
						<labels>
							<label2>Violet</label2>
						</labels>
					</clipitem>
					<clipitem id="clipitem-290">
						<masterclipid>masterclip-287</masterclipid>
						<name>TKO_008_GAR_Sh02920.mov</name>
						<enabled>TRUE</enabled>
						<duration>54</duration>
						<rate>
							<timebase>24</timebase>
							<ntsc>TRUE</ntsc>
						</rate>
						<start>24200</start>
						<end>24246</end>
						<in>4</in>
						<out>50</out>
						<pproTicksIn>42378336000</pproTicksIn>
						<pproTicksOut>529729200000</pproTicksOut>
						<alphatype>none</alphatype>
						<pixelaspectratio>square</pixelaspectratio>
						<anamorphic>FALSE</anamorphic>
						<file id="file-287">
							<name>TKO_008_GAR_Sh02920.mov</name>
							<pathurl>file://tri-stor01/Projects/TKO/SHOTS/_Refs_Movs_Burnin_FrameCounter/TKO_008_GAR_Sh02920.mov</pathurl>
							<rate>
								<timebase>24</timebase>
								<ntsc>TRUE</ntsc>
							</rate>
							<duration>54</duration>
							<timecode>
								<rate>
									<timebase>24</timebase>
									<ntsc>TRUE</ntsc>
								</rate>
								<string>17:35:11:22</string>
								<frame>1519486</frame>
								<displayformat>NDF</displayformat>
								<reel>
									<name>B0420006</name>
								</reel>
							</timecode>
							<media>
								<video>
									<samplecharacteristics>
										<rate>
											<timebase>24</timebase>
											<ntsc>TRUE</ntsc>
										</rate>
										<width>4096</width>
										<height>2160</height>
										<anamorphic>FALSE</anamorphic>
										<pixelaspectratio>square</pixelaspectratio>
										<fielddominance>none</fielddominance>
									</samplecharacteristics>
								</video>
							</media>
						</file>
						<logginginfo>
							<description></description>
							<scene></scene>
							<shottake></shottake>
							<lognote></lognote>
							<good></good>
							<originalvideofilename></originalvideofilename>
							<originalaudiofilename></originalaudiofilename>
						</logginginfo>
						<colorinfo>
							<lut></lut>
							<lut1></lut1>
							<asc_sop></asc_sop>
							<asc_sat></asc_sat>
							<lut2></lut2>
						</colorinfo>
						<labels>
							<label2>Violet</label2>
						</labels>
					</clipitem>
					<clipitem id="clipitem-291">
						<masterclipid>masterclip-288</masterclipid>
						<name>TKO_008_GAR_Sh02930.mov</name>
						<enabled>TRUE</enabled>
						<duration>61</duration>
						<rate>
							<timebase>24</timebase>
							<ntsc>TRUE</ntsc>
						</rate>
						<start>24246</start>
						<end>24299</end>
						<in>4</in>
						<out>57</out>
						<pproTicksIn>42378336000</pproTicksIn>
						<pproTicksOut>603891288000</pproTicksOut>
						<alphatype>none</alphatype>
						<pixelaspectratio>square</pixelaspectratio>
						<anamorphic>FALSE</anamorphic>
						<file id="file-288">
							<name>TKO_008_GAR_Sh02930.mov</name>
							<pathurl>file://tri-stor01/Projects/TKO/SHOTS/_Refs_Movs_Burnin_FrameCounter/TKO_008_GAR_Sh02930.mov</pathurl>
							<rate>
								<timebase>24</timebase>
								<ntsc>TRUE</ntsc>
							</rate>
							<duration>61</duration>
							<timecode>
								<rate>
									<timebase>24</timebase>
									<ntsc>TRUE</ntsc>
								</rate>
								<string>17:35:13:08</string>
								<frame>1519520</frame>
								<displayformat>NDF</displayformat>
								<reel>
									<name>A0490006</name>
								</reel>
							</timecode>
							<media>
								<video>
									<samplecharacteristics>
										<rate>
											<timebase>24</timebase>
											<ntsc>TRUE</ntsc>
										</rate>
										<width>4096</width>
										<height>2160</height>
										<anamorphic>FALSE</anamorphic>
										<pixelaspectratio>square</pixelaspectratio>
										<fielddominance>none</fielddominance>
									</samplecharacteristics>
								</video>
							</media>
						</file>
						<logginginfo>
							<description></description>
							<scene></scene>
							<shottake></shottake>
							<lognote></lognote>
							<good></good>
							<originalvideofilename></originalvideofilename>
							<originalaudiofilename></originalaudiofilename>
						</logginginfo>
						<colorinfo>
							<lut></lut>
							<lut1></lut1>
							<asc_sop></asc_sop>
							<asc_sat></asc_sat>
							<lut2></lut2>
						</colorinfo>
						<labels>
							<label2>Violet</label2>
						</labels>
					</clipitem>
					<clipitem id="clipitem-292">
						<masterclipid>masterclip-289</masterclipid>
						<name>TKO_008_GAR_Sh02940.mov</name>
						<enabled>TRUE</enabled>
						<duration>73</duration>
						<rate>
							<timebase>24</timebase>
							<ntsc>TRUE</ntsc>
						</rate>
						<start>24299</start>
						<end>24364</end>
						<in>4</in>
						<out>69</out>
						<pproTicksIn>42378336000</pproTicksIn>
						<pproTicksOut>731026296000</pproTicksOut>
						<alphatype>none</alphatype>
						<pixelaspectratio>square</pixelaspectratio>
						<anamorphic>FALSE</anamorphic>
						<file id="file-289">
							<name>TKO_008_GAR_Sh02940.mov</name>
							<pathurl>file://tri-stor01/Projects/TKO/SHOTS/_Refs_Movs_Burnin_FrameCounter/TKO_008_GAR_Sh02940.mov</pathurl>
							<rate>
								<timebase>24</timebase>
								<ntsc>TRUE</ntsc>
							</rate>
							<duration>73</duration>
							<timecode>
								<rate>
									<timebase>24</timebase>
									<ntsc>TRUE</ntsc>
								</rate>
								<string>00:14:58:12</string>
								<frame>21564</frame>
								<displayformat>NDF</displayformat>
							</timecode>
							<media>
								<video>
									<samplecharacteristics>
										<rate>
											<timebase>24</timebase>
											<ntsc>TRUE</ntsc>
										</rate>
										<width>1280</width>
										<height>720</height>
										<anamorphic>FALSE</anamorphic>
										<pixelaspectratio>square</pixelaspectratio>
										<fielddominance>none</fielddominance>
									</samplecharacteristics>
								</video>
							</media>
						</file>
						<logginginfo>
							<description></description>
							<scene></scene>
							<shottake></shottake>
							<lognote></lognote>
							<good></good>
							<originalvideofilename></originalvideofilename>
							<originalaudiofilename></originalaudiofilename>
						</logginginfo>
						<colorinfo>
							<lut></lut>
							<lut1></lut1>
							<asc_sop></asc_sop>
							<asc_sat></asc_sat>
							<lut2></lut2>
						</colorinfo>
						<labels>
							<label2>Violet</label2>
						</labels>
					</clipitem>
					<clipitem id="clipitem-293">
						<masterclipid>masterclip-290</masterclipid>
						<name>TKO_008_GAR_Sh02950.mov</name>
						<enabled>TRUE</enabled>
						<duration>41</duration>
						<rate>
							<timebase>24</timebase>
							<ntsc>TRUE</ntsc>
						</rate>
						<start>24364</start>
						<end>24397</end>
						<in>4</in>
						<out>37</out>
						<pproTicksIn>42378336000</pproTicksIn>
						<pproTicksOut>391999608000</pproTicksOut>
						<alphatype>none</alphatype>
						<pixelaspectratio>square</pixelaspectratio>
						<anamorphic>FALSE</anamorphic>
						<file id="file-290">
							<name>TKO_008_GAR_Sh02950.mov</name>
							<pathurl>file://tri-stor01/Projects/TKO/SHOTS/_Refs_Movs_Burnin_FrameCounter/TKO_008_GAR_Sh02950.mov</pathurl>
							<rate>
								<timebase>24</timebase>
								<ntsc>TRUE</ntsc>
							</rate>
							<duration>41</duration>
							<timecode>
								<rate>
									<timebase>24</timebase>
									<ntsc>TRUE</ntsc>
								</rate>
								<string>18:03:58:18</string>
								<frame>1560930</frame>
								<displayformat>NDF</displayformat>
								<reel>
									<name>B0420008</name>
								</reel>
							</timecode>
							<media>
								<video>
									<samplecharacteristics>
										<rate>
											<timebase>24</timebase>
											<ntsc>TRUE</ntsc>
										</rate>
										<width>4096</width>
										<height>2160</height>
										<anamorphic>FALSE</anamorphic>
										<pixelaspectratio>square</pixelaspectratio>
										<fielddominance>none</fielddominance>
									</samplecharacteristics>
								</video>
							</media>
						</file>
						<logginginfo>
							<description></description>
							<scene></scene>
							<shottake></shottake>
							<lognote></lognote>
							<good></good>
							<originalvideofilename></originalvideofilename>
							<originalaudiofilename></originalaudiofilename>
						</logginginfo>
						<colorinfo>
							<lut></lut>
							<lut1></lut1>
							<asc_sop></asc_sop>
							<asc_sat></asc_sat>
							<lut2></lut2>
						</colorinfo>
						<labels>
							<label2>Violet</label2>
						</labels>
					</clipitem>
					<clipitem id="clipitem-294">
						<masterclipid>masterclip-291</masterclipid>
						<name>TKO_008_GAR_Sh02960.mov</name>
						<enabled>TRUE</enabled>
						<duration>55</duration>
						<rate>
							<timebase>24</timebase>
							<ntsc>TRUE</ntsc>
						</rate>
						<start>24397</start>
						<end>24444</end>
						<in>4</in>
						<out>51</out>
						<pproTicksIn>42378336000</pproTicksIn>
						<pproTicksOut>540323784000</pproTicksOut>
						<alphatype>none</alphatype>
						<pixelaspectratio>square</pixelaspectratio>
						<anamorphic>FALSE</anamorphic>
						<file id="file-291">
							<name>TKO_008_GAR_Sh02960.mov</name>
							<pathurl>file://tri-stor01/Projects/TKO/SHOTS/_Refs_Movs_Burnin_FrameCounter/TKO_008_GAR_Sh02960.mov</pathurl>
							<rate>
								<timebase>24</timebase>
								<ntsc>TRUE</ntsc>
							</rate>
							<duration>55</duration>
							<timecode>
								<rate>
									<timebase>24</timebase>
									<ntsc>TRUE</ntsc>
								</rate>
								<string>17:28:00:03</string>
								<frame>1509123</frame>
								<displayformat>NDF</displayformat>
								<reel>
									<name>B0420005</name>
								</reel>
							</timecode>
							<media>
								<video>
									<samplecharacteristics>
										<rate>
											<timebase>24</timebase>
											<ntsc>TRUE</ntsc>
										</rate>
										<width>4096</width>
										<height>2160</height>
										<anamorphic>FALSE</anamorphic>
										<pixelaspectratio>square</pixelaspectratio>
										<fielddominance>none</fielddominance>
									</samplecharacteristics>
								</video>
							</media>
						</file>
						<logginginfo>
							<description></description>
							<scene></scene>
							<shottake></shottake>
							<lognote></lognote>
							<good></good>
							<originalvideofilename></originalvideofilename>
							<originalaudiofilename></originalaudiofilename>
						</logginginfo>
						<colorinfo>
							<lut></lut>
							<lut1></lut1>
							<asc_sop></asc_sop>
							<asc_sat></asc_sat>
							<lut2></lut2>
						</colorinfo>
						<labels>
							<label2>Violet</label2>
						</labels>
					</clipitem>
					<clipitem id="clipitem-295">
						<masterclipid>masterclip-292</masterclipid>
						<name>TKO_008_GAR_Sh02980.mov</name>
						<enabled>TRUE</enabled>
						<duration>25</duration>
						<rate>
							<timebase>24</timebase>
							<ntsc>TRUE</ntsc>
						</rate>
						<start>24444</start>
						<end>24461</end>
						<in>4</in>
						<out>21</out>
						<pproTicksIn>42378336000</pproTicksIn>
						<pproTicksOut>222486264000</pproTicksOut>
						<alphatype>none</alphatype>
						<pixelaspectratio>square</pixelaspectratio>
						<anamorphic>FALSE</anamorphic>
						<file id="file-292">
							<name>TKO_008_GAR_Sh02980.mov</name>
							<pathurl>file://tri-stor01/Projects/TKO/SHOTS/_Refs_Movs_Burnin_FrameCounter/TKO_008_GAR_Sh02980.mov</pathurl>
							<rate>
								<timebase>24</timebase>
								<ntsc>TRUE</ntsc>
							</rate>
							<duration>25</duration>
							<timecode>
								<rate>
									<timebase>24</timebase>
									<ntsc>TRUE</ntsc>
								</rate>
								<string>17:35:20:02</string>
								<frame>1519682</frame>
								<displayformat>NDF</displayformat>
								<reel>
									<name>A0490006</name>
								</reel>
							</timecode>
							<media>
								<video>
									<samplecharacteristics>
										<rate>
											<timebase>24</timebase>
											<ntsc>TRUE</ntsc>
										</rate>
										<width>4096</width>
										<height>2160</height>
										<anamorphic>FALSE</anamorphic>
										<pixelaspectratio>square</pixelaspectratio>
										<fielddominance>none</fielddominance>
									</samplecharacteristics>
								</video>
							</media>
						</file>
						<logginginfo>
							<description></description>
							<scene></scene>
							<shottake></shottake>
							<lognote></lognote>
							<good></good>
							<originalvideofilename></originalvideofilename>
							<originalaudiofilename></originalaudiofilename>
						</logginginfo>
						<colorinfo>
							<lut></lut>
							<lut1></lut1>
							<asc_sop></asc_sop>
							<asc_sat></asc_sat>
							<lut2></lut2>
						</colorinfo>
						<labels>
							<label2>Violet</label2>
						</labels>
					</clipitem>
					<clipitem id="clipitem-296">
						<masterclipid>masterclip-293</masterclipid>
						<name>TKO_008_GAR_Sh02990.mov</name>
						<enabled>TRUE</enabled>
						<duration>56</duration>
						<rate>
							<timebase>24</timebase>
							<ntsc>TRUE</ntsc>
						</rate>
						<start>24461</start>
						<end>24509</end>
						<in>4</in>
						<out>52</out>
						<pproTicksIn>42378336000</pproTicksIn>
						<pproTicksOut>550918368000</pproTicksOut>
						<alphatype>none</alphatype>
						<pixelaspectratio>square</pixelaspectratio>
						<anamorphic>FALSE</anamorphic>
						<file id="file-293">
							<name>TKO_008_GAR_Sh02990.mov</name>
							<pathurl>file://tri-stor01/Projects/TKO/SHOTS/_Refs_Movs_Burnin_FrameCounter/TKO_008_GAR_Sh02990.mov</pathurl>
							<rate>
								<timebase>24</timebase>
								<ntsc>TRUE</ntsc>
							</rate>
							<duration>56</duration>
							<timecode>
								<rate>
									<timebase>24</timebase>
									<ntsc>TRUE</ntsc>
								</rate>
								<string>00:00:00:00</string>
								<frame>0</frame>
								<displayformat>NDF</displayformat>
							</timecode>
							<media>
								<video>
									<samplecharacteristics>
										<rate>
											<timebase>24</timebase>
											<ntsc>TRUE</ntsc>
										</rate>
										<width>4096</width>
										<height>2160</height>
										<anamorphic>FALSE</anamorphic>
										<pixelaspectratio>square</pixelaspectratio>
										<fielddominance>none</fielddominance>
									</samplecharacteristics>
								</video>
							</media>
						</file>
						<logginginfo>
							<description></description>
							<scene></scene>
							<shottake></shottake>
							<lognote></lognote>
							<good></good>
							<originalvideofilename></originalvideofilename>
							<originalaudiofilename></originalaudiofilename>
						</logginginfo>
						<colorinfo>
							<lut></lut>
							<lut1></lut1>
							<asc_sop></asc_sop>
							<asc_sat></asc_sat>
							<lut2></lut2>
						</colorinfo>
						<labels>
							<label2>Violet</label2>
						</labels>
					</clipitem>
					<clipitem id="clipitem-297">
						<masterclipid>masterclip-294</masterclipid>
						<name>TKO_008_GAR_Sh03030.mov</name>
						<enabled>TRUE</enabled>
						<duration>93</duration>
						<rate>
							<timebase>24</timebase>
							<ntsc>TRUE</ntsc>
						</rate>
						<start>24509</start>
						<end>24594</end>
						<in>4</in>
						<out>89</out>
						<pproTicksIn>42378336000</pproTicksIn>
						<pproTicksOut>942917976000</pproTicksOut>
						<alphatype>none</alphatype>
						<pixelaspectratio>square</pixelaspectratio>
						<anamorphic>FALSE</anamorphic>
						<file id="file-294">
							<name>TKO_008_GAR_Sh03030.mov</name>
							<pathurl>file://tri-stor01/Projects/TKO/SHOTS/_Refs_Movs_Burnin_FrameCounter/TKO_008_GAR_Sh03030.mov</pathurl>
							<rate>
								<timebase>24</timebase>
								<ntsc>TRUE</ntsc>
							</rate>
							<duration>93</duration>
							<timecode>
								<rate>
									<timebase>24</timebase>
									<ntsc>TRUE</ntsc>
								</rate>
								<string>00:00:00:00</string>
								<frame>0</frame>
								<displayformat>NDF</displayformat>
							</timecode>
							<media>
								<video>
									<samplecharacteristics>
										<rate>
											<timebase>24</timebase>
											<ntsc>TRUE</ntsc>
										</rate>
										<width>4096</width>
										<height>2160</height>
										<anamorphic>FALSE</anamorphic>
										<pixelaspectratio>square</pixelaspectratio>
										<fielddominance>none</fielddominance>
									</samplecharacteristics>
								</video>
							</media>
						</file>
						<logginginfo>
							<description></description>
							<scene></scene>
							<shottake></shottake>
							<lognote></lognote>
							<good></good>
							<originalvideofilename></originalvideofilename>
							<originalaudiofilename></originalaudiofilename>
						</logginginfo>
						<colorinfo>
							<lut></lut>
							<lut1></lut1>
							<asc_sop></asc_sop>
							<asc_sat></asc_sat>
							<lut2></lut2>
						</colorinfo>
						<labels>
							<label2>Violet</label2>
						</labels>
					</clipitem>
					<clipitem id="clipitem-298">
						<masterclipid>masterclip-295</masterclipid>
						<name>TKO_008_GAR_Sh03040.mov</name>
						<enabled>TRUE</enabled>
						<duration>70</duration>
						<rate>
							<timebase>24</timebase>
							<ntsc>TRUE</ntsc>
						</rate>
						<start>24594</start>
						<end>24656</end>
						<in>4</in>
						<out>66</out>
						<pproTicksIn>42378336000</pproTicksIn>
						<pproTicksOut>699242544000</pproTicksOut>
						<alphatype>none</alphatype>
						<pixelaspectratio>square</pixelaspectratio>
						<anamorphic>FALSE</anamorphic>
						<file id="file-295">
							<name>TKO_008_GAR_Sh03040.mov</name>
							<pathurl>file://tri-stor01/Projects/TKO/SHOTS/_Refs_Movs_Burnin_FrameCounter/TKO_008_GAR_Sh03040.mov</pathurl>
							<rate>
								<timebase>24</timebase>
								<ntsc>TRUE</ntsc>
							</rate>
							<duration>70</duration>
							<timecode>
								<rate>
									<timebase>24</timebase>
									<ntsc>TRUE</ntsc>
								</rate>
								<string>00:00:00:00</string>
								<frame>0</frame>
								<displayformat>NDF</displayformat>
							</timecode>
							<media>
								<video>
									<samplecharacteristics>
										<rate>
											<timebase>24</timebase>
											<ntsc>TRUE</ntsc>
										</rate>
										<width>4096</width>
										<height>2160</height>
										<anamorphic>FALSE</anamorphic>
										<pixelaspectratio>square</pixelaspectratio>
										<fielddominance>none</fielddominance>
									</samplecharacteristics>
								</video>
							</media>
						</file>
						<logginginfo>
							<description></description>
							<scene></scene>
							<shottake></shottake>
							<lognote></lognote>
							<good></good>
							<originalvideofilename></originalvideofilename>
							<originalaudiofilename></originalaudiofilename>
						</logginginfo>
						<colorinfo>
							<lut></lut>
							<lut1></lut1>
							<asc_sop></asc_sop>
							<asc_sat></asc_sat>
							<lut2></lut2>
						</colorinfo>
						<labels>
							<label2>Violet</label2>
						</labels>
					</clipitem>
					<clipitem id="clipitem-299">
						<masterclipid>masterclip-296</masterclipid>
						<name>TKO_008_GAR_Sh03050.mov</name>
						<enabled>TRUE</enabled>
						<duration>62</duration>
						<rate>
							<timebase>24</timebase>
							<ntsc>TRUE</ntsc>
						</rate>
						<start>24656</start>
						<end>24710</end>
						<in>4</in>
						<out>58</out>
						<pproTicksIn>42378336000</pproTicksIn>
						<pproTicksOut>614485872000</pproTicksOut>
						<alphatype>none</alphatype>
						<pixelaspectratio>square</pixelaspectratio>
						<anamorphic>FALSE</anamorphic>
						<file id="file-296">
							<name>TKO_008_GAR_Sh03050.mov</name>
							<pathurl>file://tri-stor01/Projects/TKO/SHOTS/_Refs_Movs_Burnin_FrameCounter/TKO_008_GAR_Sh03050.mov</pathurl>
							<rate>
								<timebase>24</timebase>
								<ntsc>TRUE</ntsc>
							</rate>
							<duration>62</duration>
							<timecode>
								<rate>
									<timebase>24</timebase>
									<ntsc>TRUE</ntsc>
								</rate>
								<string>17:13:40:02</string>
								<frame>1488482</frame>
								<displayformat>NDF</displayformat>
								<reel>
									<name>A0490004</name>
								</reel>
							</timecode>
							<media>
								<video>
									<samplecharacteristics>
										<rate>
											<timebase>24</timebase>
											<ntsc>TRUE</ntsc>
										</rate>
										<width>4096</width>
										<height>2160</height>
										<anamorphic>FALSE</anamorphic>
										<pixelaspectratio>square</pixelaspectratio>
										<fielddominance>none</fielddominance>
									</samplecharacteristics>
								</video>
							</media>
						</file>
						<logginginfo>
							<description></description>
							<scene></scene>
							<shottake></shottake>
							<lognote></lognote>
							<good></good>
							<originalvideofilename></originalvideofilename>
							<originalaudiofilename></originalaudiofilename>
						</logginginfo>
						<colorinfo>
							<lut></lut>
							<lut1></lut1>
							<asc_sop></asc_sop>
							<asc_sat></asc_sat>
							<lut2></lut2>
						</colorinfo>
						<labels>
							<label2>Violet</label2>
						</labels>
					</clipitem>
					<clipitem id="clipitem-300">
						<masterclipid>masterclip-297</masterclipid>
						<name>TKO_008_GAR_Sh03060.mov</name>
						<enabled>TRUE</enabled>
						<duration>38</duration>
						<rate>
							<timebase>24</timebase>
							<ntsc>TRUE</ntsc>
						</rate>
						<start>24710</start>
						<end>24740</end>
						<in>4</in>
						<out>34</out>
						<pproTicksIn>42378336000</pproTicksIn>
						<pproTicksOut>360215856000</pproTicksOut>
						<alphatype>none</alphatype>
						<pixelaspectratio>square</pixelaspectratio>
						<anamorphic>FALSE</anamorphic>
						<file id="file-297">
							<name>TKO_008_GAR_Sh03060.mov</name>
							<pathurl>file://tri-stor01/Projects/TKO/SHOTS/_Refs_Movs_Burnin_FrameCounter/TKO_008_GAR_Sh03060.mov</pathurl>
							<rate>
								<timebase>24</timebase>
								<ntsc>TRUE</ntsc>
							</rate>
							<duration>38</duration>
							<timecode>
								<rate>
									<timebase>24</timebase>
									<ntsc>TRUE</ntsc>
								</rate>
								<string>17:13:45:23</string>
								<frame>1488623</frame>
								<displayformat>NDF</displayformat>
								<reel>
									<name>B0420004</name>
								</reel>
							</timecode>
							<media>
								<video>
									<samplecharacteristics>
										<rate>
											<timebase>24</timebase>
											<ntsc>TRUE</ntsc>
										</rate>
										<width>4096</width>
										<height>2160</height>
										<anamorphic>FALSE</anamorphic>
										<pixelaspectratio>square</pixelaspectratio>
										<fielddominance>none</fielddominance>
									</samplecharacteristics>
								</video>
							</media>
						</file>
						<logginginfo>
							<description></description>
							<scene></scene>
							<shottake></shottake>
							<lognote></lognote>
							<good></good>
							<originalvideofilename></originalvideofilename>
							<originalaudiofilename></originalaudiofilename>
						</logginginfo>
						<colorinfo>
							<lut></lut>
							<lut1></lut1>
							<asc_sop></asc_sop>
							<asc_sat></asc_sat>
							<lut2></lut2>
						</colorinfo>
						<labels>
							<label2>Violet</label2>
						</labels>
					</clipitem>
					<clipitem id="clipitem-301">
						<masterclipid>masterclip-298</masterclipid>
						<name>TKO_008_GAR_Sh03070.mov</name>
						<enabled>TRUE</enabled>
						<duration>45</duration>
						<rate>
							<timebase>24</timebase>
							<ntsc>TRUE</ntsc>
						</rate>
						<start>24740</start>
						<end>24777</end>
						<in>4</in>
						<out>41</out>
						<pproTicksIn>42378336000</pproTicksIn>
						<pproTicksOut>434377944000</pproTicksOut>
						<alphatype>none</alphatype>
						<pixelaspectratio>square</pixelaspectratio>
						<anamorphic>FALSE</anamorphic>
						<file id="file-298">
							<name>TKO_008_GAR_Sh03070.mov</name>
							<pathurl>file://tri-stor01/Projects/TKO/SHOTS/_Refs_Movs_Burnin_FrameCounter/TKO_008_GAR_Sh03070.mov</pathurl>
							<rate>
								<timebase>24</timebase>
								<ntsc>TRUE</ntsc>
							</rate>
							<duration>45</duration>
							<timecode>
								<rate>
									<timebase>24</timebase>
									<ntsc>TRUE</ntsc>
								</rate>
								<string>18:24:41:14</string>
								<frame>1590758</frame>
								<displayformat>NDF</displayformat>
								<reel>
									<name>A0490010</name>
								</reel>
							</timecode>
							<media>
								<video>
									<samplecharacteristics>
										<rate>
											<timebase>24</timebase>
											<ntsc>TRUE</ntsc>
										</rate>
										<width>4096</width>
										<height>2160</height>
										<anamorphic>FALSE</anamorphic>
										<pixelaspectratio>square</pixelaspectratio>
										<fielddominance>none</fielddominance>
									</samplecharacteristics>
								</video>
							</media>
						</file>
						<logginginfo>
							<description></description>
							<scene></scene>
							<shottake></shottake>
							<lognote></lognote>
							<good></good>
							<originalvideofilename></originalvideofilename>
							<originalaudiofilename></originalaudiofilename>
						</logginginfo>
						<colorinfo>
							<lut></lut>
							<lut1></lut1>
							<asc_sop></asc_sop>
							<asc_sat></asc_sat>
							<lut2></lut2>
						</colorinfo>
						<labels>
							<label2>Violet</label2>
						</labels>
					</clipitem>
					<clipitem id="clipitem-302">
						<masterclipid>masterclip-299</masterclipid>
						<name>TKO_008_GAR_Sh03080.mov</name>
						<enabled>TRUE</enabled>
						<duration>38</duration>
						<rate>
							<timebase>24</timebase>
							<ntsc>TRUE</ntsc>
						</rate>
						<start>24777</start>
						<end>24807</end>
						<in>4</in>
						<out>34</out>
						<pproTicksIn>42378336000</pproTicksIn>
						<pproTicksOut>360215856000</pproTicksOut>
						<alphatype>none</alphatype>
						<pixelaspectratio>square</pixelaspectratio>
						<anamorphic>FALSE</anamorphic>
						<file id="file-299">
							<name>TKO_008_GAR_Sh03080.mov</name>
							<pathurl>file://tri-stor01/Projects/TKO/SHOTS/_Refs_Movs_Burnin_FrameCounter/TKO_008_GAR_Sh03080.mov</pathurl>
							<rate>
								<timebase>24</timebase>
								<ntsc>TRUE</ntsc>
							</rate>
							<duration>38</duration>
							<timecode>
								<rate>
									<timebase>24</timebase>
									<ntsc>TRUE</ntsc>
								</rate>
								<string>18:24:43:03</string>
								<frame>1590795</frame>
								<displayformat>NDF</displayformat>
								<reel>
									<name>B0420012</name>
								</reel>
							</timecode>
							<media>
								<video>
									<samplecharacteristics>
										<rate>
											<timebase>24</timebase>
											<ntsc>TRUE</ntsc>
										</rate>
										<width>4096</width>
										<height>2160</height>
										<anamorphic>FALSE</anamorphic>
										<pixelaspectratio>square</pixelaspectratio>
										<fielddominance>none</fielddominance>
									</samplecharacteristics>
								</video>
							</media>
						</file>
						<logginginfo>
							<description></description>
							<scene></scene>
							<shottake></shottake>
							<lognote></lognote>
							<good></good>
							<originalvideofilename></originalvideofilename>
							<originalaudiofilename></originalaudiofilename>
						</logginginfo>
						<colorinfo>
							<lut></lut>
							<lut1></lut1>
							<asc_sop></asc_sop>
							<asc_sat></asc_sat>
							<lut2></lut2>
						</colorinfo>
						<labels>
							<label2>Violet</label2>
						</labels>
					</clipitem>
					<clipitem id="clipitem-303">
						<masterclipid>masterclip-300</masterclipid>
						<name>TKO_008_GAR_Sh03090.mov</name>
						<enabled>TRUE</enabled>
						<duration>34</duration>
						<rate>
							<timebase>24</timebase>
							<ntsc>TRUE</ntsc>
						</rate>
						<start>24807</start>
						<end>24833</end>
						<in>4</in>
						<out>30</out>
						<pproTicksIn>42378336000</pproTicksIn>
						<pproTicksOut>317837520000</pproTicksOut>
						<alphatype>none</alphatype>
						<pixelaspectratio>square</pixelaspectratio>
						<anamorphic>FALSE</anamorphic>
						<file id="file-300">
							<name>TKO_008_GAR_Sh03090.mov</name>
							<pathurl>file://tri-stor01/Projects/TKO/SHOTS/_Refs_Movs_Burnin_FrameCounter/TKO_008_GAR_Sh03090.mov</pathurl>
							<rate>
								<timebase>24</timebase>
								<ntsc>TRUE</ntsc>
							</rate>
							<duration>34</duration>
							<timecode>
								<rate>
									<timebase>24</timebase>
									<ntsc>TRUE</ntsc>
								</rate>
								<string>17:35:48:00</string>
								<frame>1520352</frame>
								<displayformat>NDF</displayformat>
								<reel>
									<name>B0420006</name>
								</reel>
							</timecode>
							<media>
								<video>
									<samplecharacteristics>
										<rate>
											<timebase>24</timebase>
											<ntsc>TRUE</ntsc>
										</rate>
										<width>4096</width>
										<height>2160</height>
										<anamorphic>FALSE</anamorphic>
										<pixelaspectratio>square</pixelaspectratio>
										<fielddominance>none</fielddominance>
									</samplecharacteristics>
								</video>
							</media>
						</file>
						<logginginfo>
							<description></description>
							<scene></scene>
							<shottake></shottake>
							<lognote></lognote>
							<good></good>
							<originalvideofilename></originalvideofilename>
							<originalaudiofilename></originalaudiofilename>
						</logginginfo>
						<colorinfo>
							<lut></lut>
							<lut1></lut1>
							<asc_sop></asc_sop>
							<asc_sat></asc_sat>
							<lut2></lut2>
						</colorinfo>
						<labels>
							<label2>Violet</label2>
						</labels>
					</clipitem>
					<clipitem id="clipitem-304">
						<masterclipid>masterclip-301</masterclipid>
						<name>TKO_008_GAR_Sh03100.mov</name>
						<enabled>TRUE</enabled>
						<duration>40</duration>
						<rate>
							<timebase>24</timebase>
							<ntsc>TRUE</ntsc>
						</rate>
						<start>24833</start>
						<end>24865</end>
						<in>4</in>
						<out>36</out>
						<pproTicksIn>42378336000</pproTicksIn>
						<pproTicksOut>381405024000</pproTicksOut>
						<alphatype>none</alphatype>
						<pixelaspectratio>square</pixelaspectratio>
						<anamorphic>FALSE</anamorphic>
						<file id="file-301">
							<name>TKO_008_GAR_Sh03100.mov</name>
							<pathurl>file://tri-stor01/Projects/TKO/SHOTS/_Refs_Movs_Burnin_FrameCounter/TKO_008_GAR_Sh03100.mov</pathurl>
							<rate>
								<timebase>24</timebase>
								<ntsc>TRUE</ntsc>
							</rate>
							<duration>40</duration>
							<timecode>
								<rate>
									<timebase>24</timebase>
									<ntsc>TRUE</ntsc>
								</rate>
								<string>17:13:54:23</string>
								<frame>1488839</frame>
								<displayformat>NDF</displayformat>
								<reel>
									<name>A0490004</name>
								</reel>
							</timecode>
							<media>
								<video>
									<samplecharacteristics>
										<rate>
											<timebase>24</timebase>
											<ntsc>TRUE</ntsc>
										</rate>
										<width>4096</width>
										<height>2160</height>
										<anamorphic>FALSE</anamorphic>
										<pixelaspectratio>square</pixelaspectratio>
										<fielddominance>none</fielddominance>
									</samplecharacteristics>
								</video>
							</media>
						</file>
						<logginginfo>
							<description></description>
							<scene></scene>
							<shottake></shottake>
							<lognote></lognote>
							<good></good>
							<originalvideofilename></originalvideofilename>
							<originalaudiofilename></originalaudiofilename>
						</logginginfo>
						<colorinfo>
							<lut></lut>
							<lut1></lut1>
							<asc_sop></asc_sop>
							<asc_sat></asc_sat>
							<lut2></lut2>
						</colorinfo>
						<labels>
							<label2>Violet</label2>
						</labels>
					</clipitem>
					<clipitem id="clipitem-305">
						<masterclipid>masterclip-302</masterclipid>
						<name>TKO_008_GAR_Sh03110.mov</name>
						<enabled>TRUE</enabled>
						<duration>30</duration>
						<rate>
							<timebase>24</timebase>
							<ntsc>TRUE</ntsc>
						</rate>
						<start>24865</start>
						<end>24887</end>
						<in>4</in>
						<out>26</out>
						<pproTicksIn>42378336000</pproTicksIn>
						<pproTicksOut>275459184000</pproTicksOut>
						<alphatype>none</alphatype>
						<pixelaspectratio>square</pixelaspectratio>
						<anamorphic>FALSE</anamorphic>
						<file id="file-302">
							<name>TKO_008_GAR_Sh03110.mov</name>
							<pathurl>file://tri-stor01/Projects/TKO/SHOTS/_Refs_Movs_Burnin_FrameCounter/TKO_008_GAR_Sh03110.mov</pathurl>
							<rate>
								<timebase>24</timebase>
								<ntsc>TRUE</ntsc>
							</rate>
							<duration>30</duration>
							<timecode>
								<rate>
									<timebase>24</timebase>
									<ntsc>TRUE</ntsc>
								</rate>
								<string>17:35:51:23</string>
								<frame>1520447</frame>
								<displayformat>NDF</displayformat>
								<reel>
									<name>B0420006</name>
								</reel>
							</timecode>
							<media>
								<video>
									<samplecharacteristics>
										<rate>
											<timebase>24</timebase>
											<ntsc>TRUE</ntsc>
										</rate>
										<width>4096</width>
										<height>2160</height>
										<anamorphic>FALSE</anamorphic>
										<pixelaspectratio>square</pixelaspectratio>
										<fielddominance>none</fielddominance>
									</samplecharacteristics>
								</video>
							</media>
						</file>
						<logginginfo>
							<description></description>
							<scene></scene>
							<shottake></shottake>
							<lognote></lognote>
							<good></good>
							<originalvideofilename></originalvideofilename>
							<originalaudiofilename></originalaudiofilename>
						</logginginfo>
						<colorinfo>
							<lut></lut>
							<lut1></lut1>
							<asc_sop></asc_sop>
							<asc_sat></asc_sat>
							<lut2></lut2>
						</colorinfo>
						<labels>
							<label2>Violet</label2>
						</labels>
					</clipitem>
					<clipitem id="clipitem-306">
						<masterclipid>masterclip-303</masterclipid>
						<name>TKO_008_GAR_Sh03120.mov</name>
						<enabled>TRUE</enabled>
						<duration>46</duration>
						<rate>
							<timebase>24</timebase>
							<ntsc>TRUE</ntsc>
						</rate>
						<start>24887</start>
						<end>24925</end>
						<in>4</in>
						<out>42</out>
						<pproTicksIn>42378336000</pproTicksIn>
						<pproTicksOut>444972528000</pproTicksOut>
						<alphatype>none</alphatype>
						<pixelaspectratio>square</pixelaspectratio>
						<anamorphic>FALSE</anamorphic>
						<file id="file-303">
							<name>TKO_008_GAR_Sh03120.mov</name>
							<pathurl>file://tri-stor01/Projects/TKO/SHOTS/_Refs_Movs_Burnin_FrameCounter/TKO_008_GAR_Sh03120.mov</pathurl>
							<rate>
								<timebase>24</timebase>
								<ntsc>TRUE</ntsc>
							</rate>
							<duration>46</duration>
							<timecode>
								<rate>
									<timebase>24</timebase>
									<ntsc>TRUE</ntsc>
								</rate>
								<string>18:25:44:22</string>
								<frame>1592278</frame>
								<displayformat>NDF</displayformat>
								<reel>
									<name>B0420012</name>
								</reel>
							</timecode>
							<media>
								<video>
									<samplecharacteristics>
										<rate>
											<timebase>24</timebase>
											<ntsc>TRUE</ntsc>
										</rate>
										<width>4096</width>
										<height>2160</height>
										<anamorphic>FALSE</anamorphic>
										<pixelaspectratio>square</pixelaspectratio>
										<fielddominance>none</fielddominance>
									</samplecharacteristics>
								</video>
							</media>
						</file>
						<logginginfo>
							<description></description>
							<scene></scene>
							<shottake></shottake>
							<lognote></lognote>
							<good></good>
							<originalvideofilename></originalvideofilename>
							<originalaudiofilename></originalaudiofilename>
						</logginginfo>
						<colorinfo>
							<lut></lut>
							<lut1></lut1>
							<asc_sop></asc_sop>
							<asc_sat></asc_sat>
							<lut2></lut2>
						</colorinfo>
						<labels>
							<label2>Violet</label2>
						</labels>
					</clipitem>
					<clipitem id="clipitem-307">
						<masterclipid>masterclip-304</masterclipid>
						<name>TKO_008_GAR_Sh03130.mov</name>
						<enabled>TRUE</enabled>
						<duration>111</duration>
						<rate>
							<timebase>24</timebase>
							<ntsc>TRUE</ntsc>
						</rate>
						<start>24925</start>
						<end>25028</end>
						<in>4</in>
						<out>107</out>
						<pproTicksIn>42378336000</pproTicksIn>
						<pproTicksOut>1133620488000</pproTicksOut>
						<alphatype>none</alphatype>
						<pixelaspectratio>square</pixelaspectratio>
						<anamorphic>FALSE</anamorphic>
						<file id="file-304">
							<name>TKO_008_GAR_Sh03130.mov</name>
							<pathurl>file://tri-stor01/Projects/TKO/SHOTS/_Refs_Movs_Burnin_FrameCounter/TKO_008_GAR_Sh03130.mov</pathurl>
							<rate>
								<timebase>24</timebase>
								<ntsc>TRUE</ntsc>
							</rate>
							<duration>111</duration>
							<timecode>
								<rate>
									<timebase>24</timebase>
									<ntsc>TRUE</ntsc>
								</rate>
								<string>18:25:46:12</string>
								<frame>1592316</frame>
								<displayformat>NDF</displayformat>
								<reel>
									<name>A0490010</name>
								</reel>
							</timecode>
							<media>
								<video>
									<samplecharacteristics>
										<rate>
											<timebase>24</timebase>
											<ntsc>TRUE</ntsc>
										</rate>
										<width>4096</width>
										<height>2160</height>
										<anamorphic>FALSE</anamorphic>
										<pixelaspectratio>square</pixelaspectratio>
										<fielddominance>none</fielddominance>
									</samplecharacteristics>
								</video>
							</media>
						</file>
						<logginginfo>
							<description></description>
							<scene></scene>
							<shottake></shottake>
							<lognote></lognote>
							<good></good>
							<originalvideofilename></originalvideofilename>
							<originalaudiofilename></originalaudiofilename>
						</logginginfo>
						<colorinfo>
							<lut></lut>
							<lut1></lut1>
							<asc_sop></asc_sop>
							<asc_sat></asc_sat>
							<lut2></lut2>
						</colorinfo>
						<labels>
							<label2>Violet</label2>
						</labels>
					</clipitem>
					<clipitem id="clipitem-308">
						<masterclipid>masterclip-305</masterclipid>
						<name>TKO_008_GAR_Sh03140.mov</name>
						<enabled>TRUE</enabled>
						<duration>70</duration>
						<rate>
							<timebase>24</timebase>
							<ntsc>TRUE</ntsc>
						</rate>
						<start>25028</start>
						<end>25090</end>
						<in>4</in>
						<out>66</out>
						<pproTicksIn>42378336000</pproTicksIn>
						<pproTicksOut>699242544000</pproTicksOut>
						<alphatype>none</alphatype>
						<pixelaspectratio>square</pixelaspectratio>
						<anamorphic>FALSE</anamorphic>
						<file id="file-305">
							<name>TKO_008_GAR_Sh03140.mov</name>
							<pathurl>file://tri-stor01/Projects/TKO/SHOTS/_Refs_Movs_Burnin_FrameCounter/TKO_008_GAR_Sh03140.mov</pathurl>
							<rate>
								<timebase>24</timebase>
								<ntsc>TRUE</ntsc>
							</rate>
							<duration>70</duration>
							<timecode>
								<rate>
									<timebase>24</timebase>
									<ntsc>TRUE</ntsc>
								</rate>
								<string>00:00:00:00</string>
								<frame>0</frame>
								<displayformat>NDF</displayformat>
							</timecode>
							<media>
								<video>
									<samplecharacteristics>
										<rate>
											<timebase>24</timebase>
											<ntsc>TRUE</ntsc>
										</rate>
										<width>4096</width>
										<height>2160</height>
										<anamorphic>FALSE</anamorphic>
										<pixelaspectratio>square</pixelaspectratio>
										<fielddominance>none</fielddominance>
									</samplecharacteristics>
								</video>
							</media>
						</file>
						<logginginfo>
							<description></description>
							<scene></scene>
							<shottake></shottake>
							<lognote></lognote>
							<good></good>
							<originalvideofilename></originalvideofilename>
							<originalaudiofilename></originalaudiofilename>
						</logginginfo>
						<colorinfo>
							<lut></lut>
							<lut1></lut1>
							<asc_sop></asc_sop>
							<asc_sat></asc_sat>
							<lut2></lut2>
						</colorinfo>
						<labels>
							<label2>Violet</label2>
						</labels>
					</clipitem>
					<clipitem id="clipitem-309">
						<masterclipid>masterclip-306</masterclipid>
						<name>TKO_008_GAR_Sh03150.mov</name>
						<enabled>TRUE</enabled>
						<duration>456</duration>
						<rate>
							<timebase>24</timebase>
							<ntsc>TRUE</ntsc>
						</rate>
						<start>25090</start>
						<end>25538</end>
						<in>4</in>
						<out>452</out>
						<pproTicksIn>42378336000</pproTicksIn>
						<pproTicksOut>4788751968000</pproTicksOut>
						<alphatype>none</alphatype>
						<pixelaspectratio>square</pixelaspectratio>
						<anamorphic>FALSE</anamorphic>
						<file id="file-306">
							<name>TKO_008_GAR_Sh03150.mov</name>
							<pathurl>file://tri-stor01/Projects/TKO/SHOTS/_Refs_Movs_Burnin_FrameCounter/TKO_008_GAR_Sh03150.mov</pathurl>
							<rate>
								<timebase>24</timebase>
								<ntsc>TRUE</ntsc>
							</rate>
							<duration>456</duration>
							<timecode>
								<rate>
									<timebase>24</timebase>
									<ntsc>TRUE</ntsc>
								</rate>
								<string>20:28:06:22</string>
								<frame>1768486</frame>
								<displayformat>NDF</displayformat>
								<reel>
									<name>A0390009</name>
								</reel>
							</timecode>
							<media>
								<video>
									<samplecharacteristics>
										<rate>
											<timebase>24</timebase>
											<ntsc>TRUE</ntsc>
										</rate>
										<width>4096</width>
										<height>2160</height>
										<anamorphic>FALSE</anamorphic>
										<pixelaspectratio>square</pixelaspectratio>
										<fielddominance>none</fielddominance>
									</samplecharacteristics>
								</video>
							</media>
						</file>
							<marker>
								<comment></comment>
								<name></name>
								<in>80</in>
								<out>-1</out>
							</marker>
						<logginginfo>
							<description></description>
							<scene></scene>
							<shottake></shottake>
							<lognote></lognote>
							<good></good>
							<originalvideofilename></originalvideofilename>
							<originalaudiofilename></originalaudiofilename>
						</logginginfo>
						<colorinfo>
							<lut></lut>
							<lut1></lut1>
							<asc_sop></asc_sop>
							<asc_sat></asc_sat>
							<lut2></lut2>
						</colorinfo>
						<labels>
							<label2>Violet</label2>
						</labels>
					</clipitem>
					<clipitem id="clipitem-310">
						<masterclipid>masterclip-307</masterclipid>
						<name>TKO_008_GAR_Sh03160.mov</name>
						<enabled>TRUE</enabled>
						<duration>71</duration>
						<rate>
							<timebase>24</timebase>
							<ntsc>TRUE</ntsc>
						</rate>
						<start>25538</start>
						<end>25601</end>
						<in>4</in>
						<out>67</out>
						<pproTicksIn>42378336000</pproTicksIn>
						<pproTicksOut>709837128000</pproTicksOut>
						<alphatype>none</alphatype>
						<pixelaspectratio>square</pixelaspectratio>
						<anamorphic>FALSE</anamorphic>
						<file id="file-307">
							<name>TKO_008_GAR_Sh03160.mov</name>
							<pathurl>file://tri-stor01/Projects/TKO/SHOTS/_Refs_Movs_Burnin_FrameCounter/TKO_008_GAR_Sh03160.mov</pathurl>
							<rate>
								<timebase>24</timebase>
								<ntsc>TRUE</ntsc>
							</rate>
							<duration>71</duration>
							<timecode>
								<rate>
									<timebase>24</timebase>
									<ntsc>TRUE</ntsc>
								</rate>
								<string>20:28:25:22</string>
								<frame>1768942</frame>
								<displayformat>NDF</displayformat>
								<reel>
									<name>B0330009</name>
								</reel>
							</timecode>
							<media>
								<video>
									<samplecharacteristics>
										<rate>
											<timebase>24</timebase>
											<ntsc>TRUE</ntsc>
										</rate>
										<width>4096</width>
										<height>2160</height>
										<anamorphic>FALSE</anamorphic>
										<pixelaspectratio>square</pixelaspectratio>
										<fielddominance>none</fielddominance>
									</samplecharacteristics>
								</video>
							</media>
						</file>
						<logginginfo>
							<description></description>
							<scene></scene>
							<shottake></shottake>
							<lognote></lognote>
							<good></good>
							<originalvideofilename></originalvideofilename>
							<originalaudiofilename></originalaudiofilename>
						</logginginfo>
						<colorinfo>
							<lut></lut>
							<lut1></lut1>
							<asc_sop></asc_sop>
							<asc_sat></asc_sat>
							<lut2></lut2>
						</colorinfo>
						<labels>
							<label2>Violet</label2>
						</labels>
					</clipitem>
					<clipitem id="clipitem-311">
						<masterclipid>masterclip-308</masterclipid>
						<name>TKO_008_GAR_Sh03170.mov</name>
						<enabled>TRUE</enabled>
						<duration>56</duration>
						<rate>
							<timebase>24</timebase>
							<ntsc>TRUE</ntsc>
						</rate>
						<start>25601</start>
						<end>25649</end>
						<in>4</in>
						<out>52</out>
						<pproTicksIn>42378336000</pproTicksIn>
						<pproTicksOut>550918368000</pproTicksOut>
						<alphatype>none</alphatype>
						<pixelaspectratio>square</pixelaspectratio>
						<anamorphic>FALSE</anamorphic>
						<file id="file-308">
							<name>TKO_008_GAR_Sh03170.mov</name>
							<pathurl>file://tri-stor01/Projects/TKO/SHOTS/_Refs_Movs_Burnin_FrameCounter/TKO_008_GAR_Sh03170.mov</pathurl>
							<rate>
								<timebase>24</timebase>
								<ntsc>TRUE</ntsc>
							</rate>
							<duration>56</duration>
							<timecode>
								<rate>
									<timebase>24</timebase>
									<ntsc>TRUE</ntsc>
								</rate>
								<string>21:05:24:13</string>
								<frame>1822189</frame>
								<displayformat>NDF</displayformat>
								<reel>
									<name>A0400002</name>
								</reel>
							</timecode>
							<media>
								<video>
									<samplecharacteristics>
										<rate>
											<timebase>24</timebase>
											<ntsc>TRUE</ntsc>
										</rate>
										<width>4096</width>
										<height>2160</height>
										<anamorphic>FALSE</anamorphic>
										<pixelaspectratio>square</pixelaspectratio>
										<fielddominance>none</fielddominance>
									</samplecharacteristics>
								</video>
							</media>
						</file>
						<logginginfo>
							<description></description>
							<scene></scene>
							<shottake></shottake>
							<lognote></lognote>
							<good></good>
							<originalvideofilename></originalvideofilename>
							<originalaudiofilename></originalaudiofilename>
						</logginginfo>
						<colorinfo>
							<lut></lut>
							<lut1></lut1>
							<asc_sop></asc_sop>
							<asc_sat></asc_sat>
							<lut2></lut2>
						</colorinfo>
						<labels>
							<label2>Violet</label2>
						</labels>
					</clipitem>
					<clipitem id="clipitem-312">
						<masterclipid>masterclip-309</masterclipid>
						<name>TKO_008_GAR_Sh03180.mov</name>
						<enabled>TRUE</enabled>
						<duration>73</duration>
						<rate>
							<timebase>24</timebase>
							<ntsc>TRUE</ntsc>
						</rate>
						<start>25649</start>
						<end>25714</end>
						<in>4</in>
						<out>69</out>
						<pproTicksIn>42378336000</pproTicksIn>
						<pproTicksOut>731026296000</pproTicksOut>
						<alphatype>none</alphatype>
						<pixelaspectratio>square</pixelaspectratio>
						<anamorphic>FALSE</anamorphic>
						<file id="file-309">
							<name>TKO_008_GAR_Sh03180.mov</name>
							<pathurl>file://tri-stor01/Projects/TKO/SHOTS/_Refs_Movs_Burnin_FrameCounter/TKO_008_GAR_Sh03180.mov</pathurl>
							<rate>
								<timebase>24</timebase>
								<ntsc>TRUE</ntsc>
							</rate>
							<duration>73</duration>
							<timecode>
								<rate>
									<timebase>24</timebase>
									<ntsc>TRUE</ntsc>
								</rate>
								<string>20:28:31:06</string>
								<frame>1769070</frame>
								<displayformat>NDF</displayformat>
								<reel>
									<name>B0330009</name>
								</reel>
							</timecode>
							<media>
								<video>
									<samplecharacteristics>
										<rate>
											<timebase>24</timebase>
											<ntsc>TRUE</ntsc>
										</rate>
										<width>4096</width>
										<height>2160</height>
										<anamorphic>FALSE</anamorphic>
										<pixelaspectratio>square</pixelaspectratio>
										<fielddominance>none</fielddominance>
									</samplecharacteristics>
								</video>
							</media>
						</file>
						<logginginfo>
							<description></description>
							<scene></scene>
							<shottake></shottake>
							<lognote></lognote>
							<good></good>
							<originalvideofilename></originalvideofilename>
							<originalaudiofilename></originalaudiofilename>
						</logginginfo>
						<colorinfo>
							<lut></lut>
							<lut1></lut1>
							<asc_sop></asc_sop>
							<asc_sat></asc_sat>
							<lut2></lut2>
						</colorinfo>
						<labels>
							<label2>Violet</label2>
						</labels>
					</clipitem>
					<clipitem id="clipitem-313">
						<masterclipid>masterclip-310</masterclipid>
						<name>TKO_008_GAR_Sh03190.mov</name>
						<enabled>TRUE</enabled>
						<duration>96</duration>
						<rate>
							<timebase>24</timebase>
							<ntsc>TRUE</ntsc>
						</rate>
						<start>25714</start>
						<end>25802</end>
						<in>4</in>
						<out>92</out>
						<pproTicksIn>42378336000</pproTicksIn>
						<pproTicksOut>974701728000</pproTicksOut>
						<alphatype>none</alphatype>
						<pixelaspectratio>square</pixelaspectratio>
						<anamorphic>FALSE</anamorphic>
						<file id="file-310">
							<name>TKO_008_GAR_Sh03190.mov</name>
							<pathurl>file://tri-stor01/Projects/TKO/SHOTS/_Refs_Movs_Burnin_FrameCounter/TKO_008_GAR_Sh03190.mov</pathurl>
							<rate>
								<timebase>24</timebase>
								<ntsc>TRUE</ntsc>
							</rate>
							<duration>96</duration>
							<timecode>
								<rate>
									<timebase>24</timebase>
									<ntsc>TRUE</ntsc>
								</rate>
								<string>21:05:29:06</string>
								<frame>1822302</frame>
								<displayformat>NDF</displayformat>
								<reel>
									<name>A0400002</name>
								</reel>
							</timecode>
							<media>
								<video>
									<samplecharacteristics>
										<rate>
											<timebase>24</timebase>
											<ntsc>TRUE</ntsc>
										</rate>
										<width>4096</width>
										<height>2160</height>
										<anamorphic>FALSE</anamorphic>
										<pixelaspectratio>square</pixelaspectratio>
										<fielddominance>none</fielddominance>
									</samplecharacteristics>
								</video>
							</media>
						</file>
						<logginginfo>
							<description></description>
							<scene></scene>
							<shottake></shottake>
							<lognote></lognote>
							<good></good>
							<originalvideofilename></originalvideofilename>
							<originalaudiofilename></originalaudiofilename>
						</logginginfo>
						<colorinfo>
							<lut></lut>
							<lut1></lut1>
							<asc_sop></asc_sop>
							<asc_sat></asc_sat>
							<lut2></lut2>
						</colorinfo>
						<labels>
							<label2>Violet</label2>
						</labels>
					</clipitem>
					<clipitem id="clipitem-314">
						<masterclipid>masterclip-311</masterclipid>
						<name>TKO_008_GAR_Sh03200.mov</name>
						<enabled>TRUE</enabled>
						<duration>50</duration>
						<rate>
							<timebase>24</timebase>
							<ntsc>TRUE</ntsc>
						</rate>
						<start>25802</start>
						<end>25844</end>
						<in>4</in>
						<out>46</out>
						<pproTicksIn>42378336000</pproTicksIn>
						<pproTicksOut>487350864000</pproTicksOut>
						<alphatype>none</alphatype>
						<pixelaspectratio>square</pixelaspectratio>
						<anamorphic>FALSE</anamorphic>
						<file id="file-311">
							<name>TKO_008_GAR_Sh03200.mov</name>
							<pathurl>file://tri-stor01/Projects/TKO/SHOTS/_Refs_Movs_Burnin_FrameCounter/TKO_008_GAR_Sh03200.mov</pathurl>
							<rate>
								<timebase>24</timebase>
								<ntsc>TRUE</ntsc>
							</rate>
							<duration>50</duration>
							<timecode>
								<rate>
									<timebase>24</timebase>
									<ntsc>TRUE</ntsc>
								</rate>
								<string>20:28:37:11</string>
								<frame>1769219</frame>
								<displayformat>NDF</displayformat>
								<reel>
									<name>B0330009</name>
								</reel>
							</timecode>
							<media>
								<video>
									<samplecharacteristics>
										<rate>
											<timebase>24</timebase>
											<ntsc>TRUE</ntsc>
										</rate>
										<width>4096</width>
										<height>2160</height>
										<anamorphic>FALSE</anamorphic>
										<pixelaspectratio>square</pixelaspectratio>
										<fielddominance>none</fielddominance>
									</samplecharacteristics>
								</video>
							</media>
						</file>
						<logginginfo>
							<description></description>
							<scene></scene>
							<shottake></shottake>
							<lognote></lognote>
							<good></good>
							<originalvideofilename></originalvideofilename>
							<originalaudiofilename></originalaudiofilename>
						</logginginfo>
						<colorinfo>
							<lut></lut>
							<lut1></lut1>
							<asc_sop></asc_sop>
							<asc_sat></asc_sat>
							<lut2></lut2>
						</colorinfo>
						<labels>
							<label2>Violet</label2>
						</labels>
					</clipitem>
					<clipitem id="clipitem-315">
						<masterclipid>masterclip-312</masterclipid>
						<name>TKO_008_GAR_Sh03210.mov</name>
						<enabled>TRUE</enabled>
						<duration>141</duration>
						<rate>
							<timebase>24</timebase>
							<ntsc>TRUE</ntsc>
						</rate>
						<start>25844</start>
						<end>25977</end>
						<in>4</in>
						<out>137</out>
						<pproTicksIn>42378336000</pproTicksIn>
						<pproTicksOut>1451458008000</pproTicksOut>
						<alphatype>none</alphatype>
						<pixelaspectratio>square</pixelaspectratio>
						<anamorphic>FALSE</anamorphic>
						<file id="file-312">
							<name>TKO_008_GAR_Sh03210.mov</name>
							<pathurl>file://tri-stor01/Projects/TKO/SHOTS/_Refs_Movs_Burnin_FrameCounter/TKO_008_GAR_Sh03210.mov</pathurl>
							<rate>
								<timebase>24</timebase>
								<ntsc>TRUE</ntsc>
							</rate>
							<duration>141</duration>
							<timecode>
								<rate>
									<timebase>24</timebase>
									<ntsc>TRUE</ntsc>
								</rate>
								<string>20:28:39:05</string>
								<frame>1769261</frame>
								<displayformat>NDF</displayformat>
								<reel>
									<name>A0390009</name>
								</reel>
							</timecode>
							<media>
								<video>
									<samplecharacteristics>
										<rate>
											<timebase>24</timebase>
											<ntsc>TRUE</ntsc>
										</rate>
										<width>4096</width>
										<height>2160</height>
										<anamorphic>FALSE</anamorphic>
										<pixelaspectratio>square</pixelaspectratio>
										<fielddominance>none</fielddominance>
									</samplecharacteristics>
								</video>
							</media>
						</file>
						<logginginfo>
							<description></description>
							<scene></scene>
							<shottake></shottake>
							<lognote></lognote>
							<good></good>
							<originalvideofilename></originalvideofilename>
							<originalaudiofilename></originalaudiofilename>
						</logginginfo>
						<colorinfo>
							<lut></lut>
							<lut1></lut1>
							<asc_sop></asc_sop>
							<asc_sat></asc_sat>
							<lut2></lut2>
						</colorinfo>
						<labels>
							<label2>Violet</label2>
						</labels>
					</clipitem>
					<clipitem id="clipitem-316">
						<masterclipid>masterclip-313</masterclipid>
						<name>TKO_008_GAR_Sh03220.mov</name>
						<enabled>TRUE</enabled>
						<duration>86</duration>
						<rate>
							<timebase>24</timebase>
							<ntsc>TRUE</ntsc>
						</rate>
						<start>25977</start>
						<end>26055</end>
						<in>4</in>
						<out>82</out>
						<pproTicksIn>42378336000</pproTicksIn>
						<pproTicksOut>868755888000</pproTicksOut>
						<alphatype>none</alphatype>
						<pixelaspectratio>square</pixelaspectratio>
						<anamorphic>FALSE</anamorphic>
						<file id="file-313">
							<name>TKO_008_GAR_Sh03220.mov</name>
							<pathurl>file://tri-stor01/Projects/TKO/SHOTS/_Refs_Movs_Burnin_FrameCounter/TKO_008_GAR_Sh03220.mov</pathurl>
							<rate>
								<timebase>24</timebase>
								<ntsc>TRUE</ntsc>
							</rate>
							<duration>86</duration>
							<timecode>
								<rate>
									<timebase>24</timebase>
									<ntsc>TRUE</ntsc>
								</rate>
								<string>20:28:44:18</string>
								<frame>1769394</frame>
								<displayformat>NDF</displayformat>
								<reel>
									<name>B0330009</name>
								</reel>
							</timecode>
							<media>
								<video>
									<samplecharacteristics>
										<rate>
											<timebase>24</timebase>
											<ntsc>TRUE</ntsc>
										</rate>
										<width>4096</width>
										<height>2160</height>
										<anamorphic>FALSE</anamorphic>
										<pixelaspectratio>square</pixelaspectratio>
										<fielddominance>none</fielddominance>
									</samplecharacteristics>
								</video>
							</media>
						</file>
						<logginginfo>
							<description></description>
							<scene></scene>
							<shottake></shottake>
							<lognote></lognote>
							<good></good>
							<originalvideofilename></originalvideofilename>
							<originalaudiofilename></originalaudiofilename>
						</logginginfo>
						<colorinfo>
							<lut></lut>
							<lut1></lut1>
							<asc_sop></asc_sop>
							<asc_sat></asc_sat>
							<lut2></lut2>
						</colorinfo>
						<labels>
							<label2>Violet</label2>
						</labels>
					</clipitem>
					<clipitem id="clipitem-317">
						<masterclipid>masterclip-314</masterclipid>
						<name>TKO_008_GAR_Sh03230.mov</name>
						<enabled>TRUE</enabled>
						<duration>115</duration>
						<rate>
							<timebase>24</timebase>
							<ntsc>TRUE</ntsc>
						</rate>
						<start>26055</start>
						<end>26162</end>
						<in>4</in>
						<out>111</out>
						<pproTicksIn>42378336000</pproTicksIn>
						<pproTicksOut>1175998824000</pproTicksOut>
						<alphatype>none</alphatype>
						<pixelaspectratio>square</pixelaspectratio>
						<anamorphic>FALSE</anamorphic>
						<file id="file-314">
							<name>TKO_008_GAR_Sh03230.mov</name>
							<pathurl>file://tri-stor01/Projects/TKO/SHOTS/_Refs_Movs_Burnin_FrameCounter/TKO_008_GAR_Sh03230.mov</pathurl>
							<rate>
								<timebase>24</timebase>
								<ntsc>TRUE</ntsc>
							</rate>
							<duration>115</duration>
							<timecode>
								<rate>
									<timebase>24</timebase>
									<ntsc>TRUE</ntsc>
								</rate>
								<string>20:29:13:22</string>
								<frame>1770094</frame>
								<displayformat>NDF</displayformat>
								<reel>
									<name>A0390009</name>
								</reel>
							</timecode>
							<media>
								<video>
									<samplecharacteristics>
										<rate>
											<timebase>24</timebase>
											<ntsc>TRUE</ntsc>
										</rate>
										<width>4096</width>
										<height>2160</height>
										<anamorphic>FALSE</anamorphic>
										<pixelaspectratio>square</pixelaspectratio>
										<fielddominance>none</fielddominance>
									</samplecharacteristics>
								</video>
							</media>
						</file>
						<logginginfo>
							<description></description>
							<scene></scene>
							<shottake></shottake>
							<lognote></lognote>
							<good></good>
							<originalvideofilename></originalvideofilename>
							<originalaudiofilename></originalaudiofilename>
						</logginginfo>
						<colorinfo>
							<lut></lut>
							<lut1></lut1>
							<asc_sop></asc_sop>
							<asc_sat></asc_sat>
							<lut2></lut2>
						</colorinfo>
						<labels>
							<label2>Violet</label2>
						</labels>
					</clipitem>
					<clipitem id="clipitem-318">
						<masterclipid>masterclip-315</masterclipid>
						<name>TKO_008_GAR_Sh03240.mov</name>
						<enabled>TRUE</enabled>
						<duration>119</duration>
						<rate>
							<timebase>24</timebase>
							<ntsc>TRUE</ntsc>
						</rate>
						<start>26162</start>
						<end>26273</end>
						<in>4</in>
						<out>115</out>
						<pproTicksIn>42378336000</pproTicksIn>
						<pproTicksOut>1218377160000</pproTicksOut>
						<alphatype>none</alphatype>
						<pixelaspectratio>square</pixelaspectratio>
						<anamorphic>FALSE</anamorphic>
						<file id="file-315">
							<name>TKO_008_GAR_Sh03240.mov</name>
							<pathurl>file://tri-stor01/Projects/TKO/SHOTS/_Refs_Movs_Burnin_FrameCounter/TKO_008_GAR_Sh03240.mov</pathurl>
							<rate>
								<timebase>24</timebase>
								<ntsc>TRUE</ntsc>
							</rate>
							<duration>119</duration>
							<timecode>
								<rate>
									<timebase>24</timebase>
									<ntsc>TRUE</ntsc>
								</rate>
								<string>21:05:50:15</string>
								<frame>1822815</frame>
								<displayformat>NDF</displayformat>
								<reel>
									<name>A0400002</name>
								</reel>
							</timecode>
							<media>
								<video>
									<samplecharacteristics>
										<rate>
											<timebase>24</timebase>
											<ntsc>TRUE</ntsc>
										</rate>
										<width>4096</width>
										<height>2160</height>
										<anamorphic>FALSE</anamorphic>
										<pixelaspectratio>square</pixelaspectratio>
										<fielddominance>none</fielddominance>
									</samplecharacteristics>
								</video>
							</media>
						</file>
						<logginginfo>
							<description></description>
							<scene></scene>
							<shottake></shottake>
							<lognote></lognote>
							<good></good>
							<originalvideofilename></originalvideofilename>
							<originalaudiofilename></originalaudiofilename>
						</logginginfo>
						<colorinfo>
							<lut></lut>
							<lut1></lut1>
							<asc_sop></asc_sop>
							<asc_sat></asc_sat>
							<lut2></lut2>
						</colorinfo>
						<labels>
							<label2>Violet</label2>
						</labels>
					</clipitem>
					<clipitem id="clipitem-319">
						<masterclipid>masterclip-316</masterclipid>
						<name>TKO_008_GAR_Sh03250.mov</name>
						<enabled>TRUE</enabled>
						<duration>253</duration>
						<rate>
							<timebase>24</timebase>
							<ntsc>TRUE</ntsc>
						</rate>
						<start>26273</start>
						<end>26518</end>
						<in>4</in>
						<out>249</out>
						<pproTicksIn>42378336000</pproTicksIn>
						<pproTicksOut>2638051416000</pproTicksOut>
						<alphatype>none</alphatype>
						<pixelaspectratio>square</pixelaspectratio>
						<anamorphic>FALSE</anamorphic>
						<file id="file-316">
							<name>TKO_008_GAR_Sh03250.mov</name>
							<pathurl>file://tri-stor01/Projects/TKO/SHOTS/_Refs_Movs_Burnin_FrameCounter/TKO_008_GAR_Sh03250.mov</pathurl>
							<rate>
								<timebase>24</timebase>
								<ntsc>TRUE</ntsc>
							</rate>
							<duration>253</duration>
							<timecode>
								<rate>
									<timebase>24</timebase>
									<ntsc>TRUE</ntsc>
								</rate>
								<string>20:29:22:21</string>
								<frame>1770309</frame>
								<displayformat>NDF</displayformat>
								<reel>
									<name>B0330009</name>
								</reel>
							</timecode>
							<media>
								<video>
									<samplecharacteristics>
										<rate>
											<timebase>24</timebase>
											<ntsc>TRUE</ntsc>
										</rate>
										<width>4096</width>
										<height>2160</height>
										<anamorphic>FALSE</anamorphic>
										<pixelaspectratio>square</pixelaspectratio>
										<fielddominance>none</fielddominance>
									</samplecharacteristics>
								</video>
							</media>
						</file>
						<logginginfo>
							<description></description>
							<scene></scene>
							<shottake></shottake>
							<lognote></lognote>
							<good></good>
							<originalvideofilename></originalvideofilename>
							<originalaudiofilename></originalaudiofilename>
						</logginginfo>
						<colorinfo>
							<lut></lut>
							<lut1></lut1>
							<asc_sop></asc_sop>
							<asc_sat></asc_sat>
							<lut2></lut2>
						</colorinfo>
						<labels>
							<label2>Violet</label2>
						</labels>
					</clipitem>
					<clipitem id="clipitem-320">
						<masterclipid>masterclip-317</masterclipid>
						<name>TKO_008_GAR_Sh03260.mov</name>
						<enabled>TRUE</enabled>
						<duration>136</duration>
						<rate>
							<timebase>24</timebase>
							<ntsc>TRUE</ntsc>
						</rate>
						<start>26518</start>
						<end>26646</end>
						<in>4</in>
						<out>132</out>
						<pproTicksIn>42378336000</pproTicksIn>
						<pproTicksOut>1398485088000</pproTicksOut>
						<alphatype>none</alphatype>
						<pixelaspectratio>square</pixelaspectratio>
						<anamorphic>FALSE</anamorphic>
						<file id="file-317">
							<name>TKO_008_GAR_Sh03260.mov</name>
							<pathurl>file://tri-stor01/Projects/TKO/SHOTS/_Refs_Movs_Burnin_FrameCounter/TKO_008_GAR_Sh03260.mov</pathurl>
							<rate>
								<timebase>24</timebase>
								<ntsc>TRUE</ntsc>
							</rate>
							<duration>136</duration>
							<timecode>
								<rate>
									<timebase>24</timebase>
									<ntsc>TRUE</ntsc>
								</rate>
								<string>21:06:08:00</string>
								<frame>1823232</frame>
								<displayformat>NDF</displayformat>
								<reel>
									<name>A0400002</name>
								</reel>
							</timecode>
							<media>
								<video>
									<samplecharacteristics>
										<rate>
											<timebase>24</timebase>
											<ntsc>TRUE</ntsc>
										</rate>
										<width>4096</width>
										<height>2160</height>
										<anamorphic>FALSE</anamorphic>
										<pixelaspectratio>square</pixelaspectratio>
										<fielddominance>none</fielddominance>
									</samplecharacteristics>
								</video>
							</media>
						</file>
						<logginginfo>
							<description></description>
							<scene></scene>
							<shottake></shottake>
							<lognote></lognote>
							<good></good>
							<originalvideofilename></originalvideofilename>
							<originalaudiofilename></originalaudiofilename>
						</logginginfo>
						<colorinfo>
							<lut></lut>
							<lut1></lut1>
							<asc_sop></asc_sop>
							<asc_sat></asc_sat>
							<lut2></lut2>
						</colorinfo>
						<labels>
							<label2>Violet</label2>
						</labels>
					</clipitem>
					<clipitem id="clipitem-321">
						<masterclipid>masterclip-318</masterclipid>
						<name>TKO_008_GAR_Sh03270.mov</name>
						<enabled>TRUE</enabled>
						<duration>73</duration>
						<rate>
							<timebase>24</timebase>
							<ntsc>TRUE</ntsc>
						</rate>
						<start>26646</start>
						<end>26711</end>
						<in>4</in>
						<out>69</out>
						<pproTicksIn>42378336000</pproTicksIn>
						<pproTicksOut>731026296000</pproTicksOut>
						<alphatype>none</alphatype>
						<pixelaspectratio>square</pixelaspectratio>
						<anamorphic>FALSE</anamorphic>
						<file id="file-318">
							<name>TKO_008_GAR_Sh03270.mov</name>
							<pathurl>file://tri-stor01/Projects/TKO/SHOTS/_Refs_Movs_Burnin_FrameCounter/TKO_008_GAR_Sh03270.mov</pathurl>
							<rate>
								<timebase>24</timebase>
								<ntsc>TRUE</ntsc>
							</rate>
							<duration>73</duration>
							<timecode>
								<rate>
									<timebase>24</timebase>
									<ntsc>TRUE</ntsc>
								</rate>
								<string>21:06:13:16</string>
								<frame>1823368</frame>
								<displayformat>NDF</displayformat>
								<reel>
									<name>B0340002</name>
								</reel>
							</timecode>
							<media>
								<video>
									<samplecharacteristics>
										<rate>
											<timebase>24</timebase>
											<ntsc>TRUE</ntsc>
										</rate>
										<width>4096</width>
										<height>2160</height>
										<anamorphic>FALSE</anamorphic>
										<pixelaspectratio>square</pixelaspectratio>
										<fielddominance>none</fielddominance>
									</samplecharacteristics>
								</video>
							</media>
						</file>
						<logginginfo>
							<description></description>
							<scene></scene>
							<shottake></shottake>
							<lognote></lognote>
							<good></good>
							<originalvideofilename></originalvideofilename>
							<originalaudiofilename></originalaudiofilename>
						</logginginfo>
						<colorinfo>
							<lut></lut>
							<lut1></lut1>
							<asc_sop></asc_sop>
							<asc_sat></asc_sat>
							<lut2></lut2>
						</colorinfo>
						<labels>
							<label2>Violet</label2>
						</labels>
					</clipitem>
					<clipitem id="clipitem-322">
						<masterclipid>masterclip-319</masterclipid>
						<name>TKO_008_GAR_Sh03280.mov</name>
						<enabled>TRUE</enabled>
						<duration>128</duration>
						<rate>
							<timebase>24</timebase>
							<ntsc>TRUE</ntsc>
						</rate>
						<start>26711</start>
						<end>26831</end>
						<in>4</in>
						<out>124</out>
						<pproTicksIn>42378336000</pproTicksIn>
						<pproTicksOut>1313728416000</pproTicksOut>
						<alphatype>none</alphatype>
						<pixelaspectratio>square</pixelaspectratio>
						<anamorphic>FALSE</anamorphic>
						<file id="file-319">
							<name>TKO_008_GAR_Sh03280.mov</name>
							<pathurl>file://tri-stor01/Projects/TKO/SHOTS/_Refs_Movs_Burnin_FrameCounter/TKO_008_GAR_Sh03280.mov</pathurl>
							<rate>
								<timebase>24</timebase>
								<ntsc>TRUE</ntsc>
							</rate>
							<duration>128</duration>
							<timecode>
								<rate>
									<timebase>24</timebase>
									<ntsc>TRUE</ntsc>
								</rate>
								<string>21:06:17:14</string>
								<frame>1823462</frame>
								<displayformat>NDF</displayformat>
								<reel>
									<name>A0400002</name>
								</reel>
							</timecode>
							<media>
								<video>
									<samplecharacteristics>
										<rate>
											<timebase>24</timebase>
											<ntsc>TRUE</ntsc>
										</rate>
										<width>4096</width>
										<height>2160</height>
										<anamorphic>FALSE</anamorphic>
										<pixelaspectratio>square</pixelaspectratio>
										<fielddominance>none</fielddominance>
									</samplecharacteristics>
								</video>
							</media>
						</file>
						<logginginfo>
							<description></description>
							<scene></scene>
							<shottake></shottake>
							<lognote></lognote>
							<good></good>
							<originalvideofilename></originalvideofilename>
							<originalaudiofilename></originalaudiofilename>
						</logginginfo>
						<colorinfo>
							<lut></lut>
							<lut1></lut1>
							<asc_sop></asc_sop>
							<asc_sat></asc_sat>
							<lut2></lut2>
						</colorinfo>
						<labels>
							<label2>Violet</label2>
						</labels>
					</clipitem>
					<clipitem id="clipitem-323">
						<masterclipid>masterclip-320</masterclipid>
						<name>TKO_008_GAR_Sh03290.mov</name>
						<enabled>TRUE</enabled>
						<duration>148</duration>
						<rate>
							<timebase>24</timebase>
							<ntsc>TRUE</ntsc>
						</rate>
						<start>26831</start>
						<end>26971</end>
						<in>4</in>
						<out>144</out>
						<pproTicksIn>42378336000</pproTicksIn>
						<pproTicksOut>1525620096000</pproTicksOut>
						<alphatype>none</alphatype>
						<pixelaspectratio>square</pixelaspectratio>
						<anamorphic>FALSE</anamorphic>
						<file id="file-320">
							<name>TKO_008_GAR_Sh03290.mov</name>
							<pathurl>file://tri-stor01/Projects/TKO/SHOTS/_Refs_Movs_Burnin_FrameCounter/TKO_008_GAR_Sh03290.mov</pathurl>
							<rate>
								<timebase>24</timebase>
								<ntsc>TRUE</ntsc>
							</rate>
							<duration>148</duration>
							<timecode>
								<rate>
									<timebase>24</timebase>
									<ntsc>TRUE</ntsc>
								</rate>
								<string>21:06:24:00</string>
								<frame>1823616</frame>
								<displayformat>NDF</displayformat>
								<reel>
									<name>B0340002</name>
								</reel>
							</timecode>
							<media>
								<video>
									<samplecharacteristics>
										<rate>
											<timebase>24</timebase>
											<ntsc>TRUE</ntsc>
										</rate>
										<width>4096</width>
										<height>2160</height>
										<anamorphic>FALSE</anamorphic>
										<pixelaspectratio>square</pixelaspectratio>
										<fielddominance>none</fielddominance>
									</samplecharacteristics>
								</video>
							</media>
						</file>
						<logginginfo>
							<description></description>
							<scene></scene>
							<shottake></shottake>
							<lognote></lognote>
							<good></good>
							<originalvideofilename></originalvideofilename>
							<originalaudiofilename></originalaudiofilename>
						</logginginfo>
						<colorinfo>
							<lut></lut>
							<lut1></lut1>
							<asc_sop></asc_sop>
							<asc_sat></asc_sat>
							<lut2></lut2>
						</colorinfo>
						<labels>
							<label2>Violet</label2>
						</labels>
					</clipitem>
					<clipitem id="clipitem-324">
						<masterclipid>masterclip-321</masterclipid>
						<name>TKO_008_GAR_Sh03300.mov</name>
						<enabled>TRUE</enabled>
						<duration>88</duration>
						<rate>
							<timebase>24</timebase>
							<ntsc>TRUE</ntsc>
						</rate>
						<start>26971</start>
						<end>27051</end>
						<in>4</in>
						<out>84</out>
						<pproTicksIn>42378336000</pproTicksIn>
						<pproTicksOut>889945056000</pproTicksOut>
						<alphatype>none</alphatype>
						<pixelaspectratio>square</pixelaspectratio>
						<anamorphic>FALSE</anamorphic>
						<file id="file-321">
							<name>TKO_008_GAR_Sh03300.mov</name>
							<pathurl>file://tri-stor01/Projects/TKO/SHOTS/_Refs_Movs_Burnin_FrameCounter/TKO_008_GAR_Sh03300.mov</pathurl>
							<rate>
								<timebase>24</timebase>
								<ntsc>TRUE</ntsc>
							</rate>
							<duration>88</duration>
							<timecode>
								<rate>
									<timebase>24</timebase>
									<ntsc>TRUE</ntsc>
								</rate>
								<string>21:06:30:09</string>
								<frame>1823769</frame>
								<displayformat>NDF</displayformat>
								<reel>
									<name>A0400002</name>
								</reel>
							</timecode>
							<media>
								<video>
									<samplecharacteristics>
										<rate>
											<timebase>24</timebase>
											<ntsc>TRUE</ntsc>
										</rate>
										<width>4096</width>
										<height>2160</height>
										<anamorphic>FALSE</anamorphic>
										<pixelaspectratio>square</pixelaspectratio>
										<fielddominance>none</fielddominance>
									</samplecharacteristics>
								</video>
							</media>
						</file>
						<logginginfo>
							<description></description>
							<scene></scene>
							<shottake></shottake>
							<lognote></lognote>
							<good></good>
							<originalvideofilename></originalvideofilename>
							<originalaudiofilename></originalaudiofilename>
						</logginginfo>
						<colorinfo>
							<lut></lut>
							<lut1></lut1>
							<asc_sop></asc_sop>
							<asc_sat></asc_sat>
							<lut2></lut2>
						</colorinfo>
						<labels>
							<label2>Violet</label2>
						</labels>
					</clipitem>
					<clipitem id="clipitem-325">
						<masterclipid>masterclip-322</masterclipid>
						<name>TKO_008_GAR_Sh03310.mov</name>
						<enabled>TRUE</enabled>
						<duration>45</duration>
						<rate>
							<timebase>24</timebase>
							<ntsc>TRUE</ntsc>
						</rate>
						<start>27051</start>
						<end>27088</end>
						<in>4</in>
						<out>41</out>
						<pproTicksIn>42378336000</pproTicksIn>
						<pproTicksOut>434377944000</pproTicksOut>
						<alphatype>none</alphatype>
						<pixelaspectratio>square</pixelaspectratio>
						<anamorphic>FALSE</anamorphic>
						<file id="file-322">
							<name>TKO_008_GAR_Sh03310.mov</name>
							<pathurl>file://tri-stor01/Projects/TKO/SHOTS/_Refs_Movs_Burnin_FrameCounter/TKO_008_GAR_Sh03310.mov</pathurl>
							<rate>
								<timebase>24</timebase>
								<ntsc>TRUE</ntsc>
							</rate>
							<duration>45</duration>
							<timecode>
								<rate>
									<timebase>24</timebase>
									<ntsc>TRUE</ntsc>
								</rate>
								<string>12:17:25:06</string>
								<frame>1061886</frame>
								<displayformat>NDF</displayformat>
								<reel>
									<name>C0280006</name>
								</reel>
							</timecode>
							<media>
								<video>
									<samplecharacteristics>
										<rate>
											<timebase>24</timebase>
											<ntsc>TRUE</ntsc>
										</rate>
										<width>3840</width>
										<height>2160</height>
										<anamorphic>FALSE</anamorphic>
										<pixelaspectratio>square</pixelaspectratio>
										<fielddominance>none</fielddominance>
									</samplecharacteristics>
								</video>
							</media>
						</file>
						<logginginfo>
							<description></description>
							<scene></scene>
							<shottake></shottake>
							<lognote></lognote>
							<good></good>
							<originalvideofilename></originalvideofilename>
							<originalaudiofilename></originalaudiofilename>
						</logginginfo>
						<colorinfo>
							<lut></lut>
							<lut1></lut1>
							<asc_sop></asc_sop>
							<asc_sat></asc_sat>
							<lut2></lut2>
						</colorinfo>
						<labels>
							<label2>Violet</label2>
						</labels>
					</clipitem>
					<clipitem id="clipitem-326">
						<masterclipid>masterclip-323</masterclipid>
						<name>TKO_008_GAR_Sh03320.mov</name>
						<enabled>TRUE</enabled>
						<duration>51</duration>
						<rate>
							<timebase>24</timebase>
							<ntsc>TRUE</ntsc>
						</rate>
						<start>27088</start>
						<end>27131</end>
						<in>4</in>
						<out>47</out>
						<pproTicksIn>42378336000</pproTicksIn>
						<pproTicksOut>497945448000</pproTicksOut>
						<alphatype>none</alphatype>
						<pixelaspectratio>square</pixelaspectratio>
						<anamorphic>FALSE</anamorphic>
						<file id="file-323">
							<name>TKO_008_GAR_Sh03320.mov</name>
							<pathurl>file://tri-stor01/Projects/TKO/SHOTS/_Refs_Movs_Burnin_FrameCounter/TKO_008_GAR_Sh03320.mov</pathurl>
							<rate>
								<timebase>24</timebase>
								<ntsc>TRUE</ntsc>
							</rate>
							<duration>51</duration>
							<timecode>
								<rate>
									<timebase>24</timebase>
									<ntsc>TRUE</ntsc>
								</rate>
								<string>21:06:37:22</string>
								<frame>1823950</frame>
								<displayformat>NDF</displayformat>
								<reel>
									<name>B0340002</name>
								</reel>
							</timecode>
							<media>
								<video>
									<samplecharacteristics>
										<rate>
											<timebase>24</timebase>
											<ntsc>TRUE</ntsc>
										</rate>
										<width>4096</width>
										<height>2160</height>
										<anamorphic>FALSE</anamorphic>
										<pixelaspectratio>square</pixelaspectratio>
										<fielddominance>none</fielddominance>
									</samplecharacteristics>
								</video>
							</media>
						</file>
						<logginginfo>
							<description></description>
							<scene></scene>
							<shottake></shottake>
							<lognote></lognote>
							<good></good>
							<originalvideofilename></originalvideofilename>
							<originalaudiofilename></originalaudiofilename>
						</logginginfo>
						<colorinfo>
							<lut></lut>
							<lut1></lut1>
							<asc_sop></asc_sop>
							<asc_sat></asc_sat>
							<lut2></lut2>
						</colorinfo>
						<labels>
							<label2>Violet</label2>
						</labels>
					</clipitem>
					<clipitem id="clipitem-327">
						<masterclipid>masterclip-324</masterclipid>
						<name>TKO_008_GAR_Sh03390.mov</name>
						<enabled>TRUE</enabled>
						<duration>393</duration>
						<rate>
							<timebase>24</timebase>
							<ntsc>TRUE</ntsc>
						</rate>
						<start>27131</start>
						<end>27436</end>
						<in>84</in>
						<out>389</out>
						<pproTicksIn>889945056000</pproTicksIn>
						<pproTicksOut>4121293176000</pproTicksOut>
						<alphatype>none</alphatype>
						<pixelaspectratio>square</pixelaspectratio>
						<anamorphic>FALSE</anamorphic>
						<file id="file-324">
							<name>TKO_008_GAR_Sh03390.mov</name>
							<pathurl>file://tri-stor01/Projects/TKO/SHOTS/_Refs_Movs_Burnin_FrameCounter/TKO_008_GAR_Sh03390.mov</pathurl>
							<rate>
								<timebase>24</timebase>
								<ntsc>TRUE</ntsc>
							</rate>
							<duration>393</duration>
							<timecode>
								<rate>
									<timebase>24</timebase>
									<ntsc>TRUE</ntsc>
								</rate>
								<string>20:30:47:06</string>
								<frame>1772334</frame>
								<displayformat>NDF</displayformat>
								<reel>
									<name>A0390009</name>
								</reel>
							</timecode>
							<media>
								<video>
									<samplecharacteristics>
										<rate>
											<timebase>24</timebase>
											<ntsc>TRUE</ntsc>
										</rate>
										<width>4096</width>
										<height>2160</height>
										<anamorphic>FALSE</anamorphic>
										<pixelaspectratio>square</pixelaspectratio>
										<fielddominance>none</fielddominance>
									</samplecharacteristics>
								</video>
							</media>
						</file>
						<logginginfo>
							<description></description>
							<scene></scene>
							<shottake></shottake>
							<lognote></lognote>
							<good></good>
							<originalvideofilename></originalvideofilename>
							<originalaudiofilename></originalaudiofilename>
						</logginginfo>
						<colorinfo>
							<lut></lut>
							<lut1></lut1>
							<asc_sop></asc_sop>
							<asc_sat></asc_sat>
							<lut2></lut2>
						</colorinfo>
						<labels>
							<label2>Violet</label2>
						</labels>
					</clipitem>
					<clipitem id="clipitem-328">
						<masterclipid>masterclip-325</masterclipid>
						<name>TKO_008_GAR_Sh03400.mov</name>
						<enabled>TRUE</enabled>
						<duration>72</duration>
						<rate>
							<timebase>24</timebase>
							<ntsc>TRUE</ntsc>
						</rate>
						<start>27436</start>
						<end>27500</end>
						<in>4</in>
						<out>68</out>
						<pproTicksIn>42378336000</pproTicksIn>
						<pproTicksOut>720431712000</pproTicksOut>
						<alphatype>none</alphatype>
						<pixelaspectratio>square</pixelaspectratio>
						<anamorphic>FALSE</anamorphic>
						<file id="file-325">
							<name>TKO_008_GAR_Sh03400.mov</name>
							<pathurl>file://tri-stor01/Projects/TKO/SHOTS/_Refs_Movs_Burnin_FrameCounter/TKO_008_GAR_Sh03400.mov</pathurl>
							<rate>
								<timebase>24</timebase>
								<ntsc>TRUE</ntsc>
							</rate>
							<duration>72</duration>
							<timecode>
								<rate>
									<timebase>24</timebase>
									<ntsc>TRUE</ntsc>
								</rate>
								<string>21:07:42:00</string>
								<frame>1825488</frame>
								<displayformat>NDF</displayformat>
								<reel>
									<name>A0400002</name>
								</reel>
							</timecode>
							<media>
								<video>
									<samplecharacteristics>
										<rate>
											<timebase>24</timebase>
											<ntsc>TRUE</ntsc>
										</rate>
										<width>4096</width>
										<height>2160</height>
										<anamorphic>FALSE</anamorphic>
										<pixelaspectratio>square</pixelaspectratio>
										<fielddominance>none</fielddominance>
									</samplecharacteristics>
								</video>
							</media>
						</file>
						<logginginfo>
							<description></description>
							<scene></scene>
							<shottake></shottake>
							<lognote></lognote>
							<good></good>
							<originalvideofilename></originalvideofilename>
							<originalaudiofilename></originalaudiofilename>
						</logginginfo>
						<colorinfo>
							<lut></lut>
							<lut1></lut1>
							<asc_sop></asc_sop>
							<asc_sat></asc_sat>
							<lut2></lut2>
						</colorinfo>
						<labels>
							<label2>Violet</label2>
						</labels>
					</clipitem>
					<clipitem id="clipitem-329">
						<masterclipid>masterclip-326</masterclipid>
						<name>TKO_008_GAR_Sh03410.mov</name>
						<enabled>TRUE</enabled>
						<duration>35</duration>
						<rate>
							<timebase>24</timebase>
							<ntsc>TRUE</ntsc>
						</rate>
						<start>27500</start>
						<end>27527</end>
						<in>4</in>
						<out>31</out>
						<pproTicksIn>42378336000</pproTicksIn>
						<pproTicksOut>328432104000</pproTicksOut>
						<alphatype>none</alphatype>
						<pixelaspectratio>square</pixelaspectratio>
						<anamorphic>FALSE</anamorphic>
						<file id="file-326">
							<name>TKO_008_GAR_Sh03410.mov</name>
							<pathurl>file://tri-stor01/Projects/TKO/SHOTS/_Refs_Movs_Burnin_FrameCounter/TKO_008_GAR_Sh03410.mov</pathurl>
							<rate>
								<timebase>24</timebase>
								<ntsc>TRUE</ntsc>
							</rate>
							<duration>35</duration>
							<timecode>
								<rate>
									<timebase>24</timebase>
									<ntsc>TRUE</ntsc>
								</rate>
								<string>12:18:36:05</string>
								<frame>1063589</frame>
								<displayformat>NDF</displayformat>
								<reel>
									<name>C0280006</name>
								</reel>
							</timecode>
							<media>
								<video>
									<samplecharacteristics>
										<rate>
											<timebase>24</timebase>
											<ntsc>TRUE</ntsc>
										</rate>
										<width>3840</width>
										<height>2160</height>
										<anamorphic>FALSE</anamorphic>
										<pixelaspectratio>square</pixelaspectratio>
										<fielddominance>none</fielddominance>
									</samplecharacteristics>
								</video>
							</media>
						</file>
						<logginginfo>
							<description></description>
							<scene></scene>
							<shottake></shottake>
							<lognote></lognote>
							<good></good>
							<originalvideofilename></originalvideofilename>
							<originalaudiofilename></originalaudiofilename>
						</logginginfo>
						<colorinfo>
							<lut></lut>
							<lut1></lut1>
							<asc_sop></asc_sop>
							<asc_sat></asc_sat>
							<lut2></lut2>
						</colorinfo>
						<labels>
							<label2>Violet</label2>
						</labels>
					</clipitem>
					<clipitem id="clipitem-330">
						<masterclipid>masterclip-327</masterclipid>
						<name>TKO_008_GAR_Sh03420.mov</name>
						<enabled>TRUE</enabled>
						<duration>205</duration>
						<rate>
							<timebase>24</timebase>
							<ntsc>TRUE</ntsc>
						</rate>
						<start>27527</start>
						<end>27724</end>
						<in>4</in>
						<out>201</out>
						<pproTicksIn>42378336000</pproTicksIn>
						<pproTicksOut>2129511384000</pproTicksOut>
						<alphatype>none</alphatype>
						<pixelaspectratio>square</pixelaspectratio>
						<anamorphic>FALSE</anamorphic>
						<file id="file-327">
							<name>TKO_008_GAR_Sh03420.mov</name>
							<pathurl>file://tri-stor01/Projects/TKO/SHOTS/_Refs_Movs_Burnin_FrameCounter/TKO_008_GAR_Sh03420.mov</pathurl>
							<rate>
								<timebase>24</timebase>
								<ntsc>TRUE</ntsc>
							</rate>
							<duration>205</duration>
							<timecode>
								<rate>
									<timebase>24</timebase>
									<ntsc>TRUE</ntsc>
								</rate>
								<string>21:07:45:20</string>
								<frame>1825580</frame>
								<displayformat>NDF</displayformat>
								<reel>
									<name>B0340002</name>
								</reel>
							</timecode>
							<media>
								<video>
									<samplecharacteristics>
										<rate>
											<timebase>24</timebase>
											<ntsc>TRUE</ntsc>
										</rate>
										<width>4096</width>
										<height>2160</height>
										<anamorphic>FALSE</anamorphic>
										<pixelaspectratio>square</pixelaspectratio>
										<fielddominance>none</fielddominance>
									</samplecharacteristics>
								</video>
							</media>
						</file>
						<logginginfo>
							<description></description>
							<scene></scene>
							<shottake></shottake>
							<lognote></lognote>
							<good></good>
							<originalvideofilename></originalvideofilename>
							<originalaudiofilename></originalaudiofilename>
						</logginginfo>
						<colorinfo>
							<lut></lut>
							<lut1></lut1>
							<asc_sop></asc_sop>
							<asc_sat></asc_sat>
							<lut2></lut2>
						</colorinfo>
						<labels>
							<label2>Violet</label2>
						</labels>
					</clipitem>
					<clipitem id="clipitem-331">
						<masterclipid>masterclip-328</masterclipid>
						<name>TKO_008_GAR_Sh03430.mov</name>
						<enabled>TRUE</enabled>
						<duration>167</duration>
						<rate>
							<timebase>24</timebase>
							<ntsc>TRUE</ntsc>
						</rate>
						<start>27724</start>
						<end>27883</end>
						<in>4</in>
						<out>163</out>
						<pproTicksIn>42378336000</pproTicksIn>
						<pproTicksOut>1726917192000</pproTicksOut>
						<alphatype>none</alphatype>
						<pixelaspectratio>square</pixelaspectratio>
						<anamorphic>FALSE</anamorphic>
						<file id="file-328">
							<name>TKO_008_GAR_Sh03430.mov</name>
							<pathurl>file://tri-stor01/Projects/TKO/SHOTS/_Refs_Movs_Burnin_FrameCounter/TKO_008_GAR_Sh03430.mov</pathurl>
							<rate>
								<timebase>24</timebase>
								<ntsc>TRUE</ntsc>
							</rate>
							<duration>167</duration>
							<timecode>
								<rate>
									<timebase>24</timebase>
									<ntsc>TRUE</ntsc>
								</rate>
								<string>21:07:54:01</string>
								<frame>1825777</frame>
								<displayformat>NDF</displayformat>
								<reel>
									<name>A0400002</name>
								</reel>
							</timecode>
							<media>
								<video>
									<samplecharacteristics>
										<rate>
											<timebase>24</timebase>
											<ntsc>TRUE</ntsc>
										</rate>
										<width>4096</width>
										<height>2160</height>
										<anamorphic>FALSE</anamorphic>
										<pixelaspectratio>square</pixelaspectratio>
										<fielddominance>none</fielddominance>
									</samplecharacteristics>
								</video>
							</media>
						</file>
						<logginginfo>
							<description></description>
							<scene></scene>
							<shottake></shottake>
							<lognote></lognote>
							<good></good>
							<originalvideofilename></originalvideofilename>
							<originalaudiofilename></originalaudiofilename>
						</logginginfo>
						<colorinfo>
							<lut></lut>
							<lut1></lut1>
							<asc_sop></asc_sop>
							<asc_sat></asc_sat>
							<lut2></lut2>
						</colorinfo>
						<labels>
							<label2>Violet</label2>
						</labels>
					</clipitem>
					<clipitem id="clipitem-332">
						<masterclipid>masterclip-329</masterclipid>
						<name>TKO_008_GAR_Sh03440.mov</name>
						<enabled>TRUE</enabled>
						<duration>134</duration>
						<rate>
							<timebase>24</timebase>
							<ntsc>TRUE</ntsc>
						</rate>
						<start>27883</start>
						<end>28009</end>
						<in>4</in>
						<out>130</out>
						<pproTicksIn>42378336000</pproTicksIn>
						<pproTicksOut>1377295920000</pproTicksOut>
						<alphatype>none</alphatype>
						<pixelaspectratio>square</pixelaspectratio>
						<anamorphic>FALSE</anamorphic>
						<file id="file-329">
							<name>TKO_008_GAR_Sh03440.mov</name>
							<pathurl>file://tri-stor01/Projects/TKO/SHOTS/_Refs_Movs_Burnin_FrameCounter/TKO_008_GAR_Sh03440.mov</pathurl>
							<rate>
								<timebase>24</timebase>
								<ntsc>TRUE</ntsc>
							</rate>
							<duration>134</duration>
							<timecode>
								<rate>
									<timebase>24</timebase>
									<ntsc>TRUE</ntsc>
								</rate>
								<string>21:08:03:00</string>
								<frame>1825992</frame>
								<displayformat>NDF</displayformat>
								<reel>
									<name>B0340002</name>
								</reel>
							</timecode>
							<media>
								<video>
									<samplecharacteristics>
										<rate>
											<timebase>24</timebase>
											<ntsc>TRUE</ntsc>
										</rate>
										<width>4096</width>
										<height>2160</height>
										<anamorphic>FALSE</anamorphic>
										<pixelaspectratio>square</pixelaspectratio>
										<fielddominance>none</fielddominance>
									</samplecharacteristics>
								</video>
							</media>
						</file>
						<logginginfo>
							<description></description>
							<scene></scene>
							<shottake></shottake>
							<lognote></lognote>
							<good></good>
							<originalvideofilename></originalvideofilename>
							<originalaudiofilename></originalaudiofilename>
						</logginginfo>
						<colorinfo>
							<lut></lut>
							<lut1></lut1>
							<asc_sop></asc_sop>
							<asc_sat></asc_sat>
							<lut2></lut2>
						</colorinfo>
						<labels>
							<label2>Violet</label2>
						</labels>
					</clipitem>
					<clipitem id="clipitem-333">
						<masterclipid>masterclip-330</masterclipid>
						<name>TKO_008_GAR_Sh03450.mov</name>
						<enabled>TRUE</enabled>
						<duration>126</duration>
						<rate>
							<timebase>24</timebase>
							<ntsc>TRUE</ntsc>
						</rate>
						<start>28009</start>
						<end>28127</end>
						<in>4</in>
						<out>122</out>
						<pproTicksIn>42378336000</pproTicksIn>
						<pproTicksOut>1292539248000</pproTicksOut>
						<alphatype>none</alphatype>
						<pixelaspectratio>square</pixelaspectratio>
						<anamorphic>FALSE</anamorphic>
						<file id="file-330">
							<name>TKO_008_GAR_Sh03450.mov</name>
							<pathurl>file://tri-stor01/Projects/TKO/SHOTS/_Refs_Movs_Burnin_FrameCounter/TKO_008_GAR_Sh03450.mov</pathurl>
							<rate>
								<timebase>24</timebase>
								<ntsc>TRUE</ntsc>
							</rate>
							<duration>126</duration>
							<timecode>
								<rate>
									<timebase>24</timebase>
									<ntsc>TRUE</ntsc>
								</rate>
								<string>21:08:08:06</string>
								<frame>1826118</frame>
								<displayformat>NDF</displayformat>
								<reel>
									<name>A0400002</name>
								</reel>
							</timecode>
							<media>
								<video>
									<samplecharacteristics>
										<rate>
											<timebase>24</timebase>
											<ntsc>TRUE</ntsc>
										</rate>
										<width>4096</width>
										<height>2160</height>
										<anamorphic>FALSE</anamorphic>
										<pixelaspectratio>square</pixelaspectratio>
										<fielddominance>none</fielddominance>
									</samplecharacteristics>
								</video>
							</media>
						</file>
						<logginginfo>
							<description></description>
							<scene></scene>
							<shottake></shottake>
							<lognote></lognote>
							<good></good>
							<originalvideofilename></originalvideofilename>
							<originalaudiofilename></originalaudiofilename>
						</logginginfo>
						<colorinfo>
							<lut></lut>
							<lut1></lut1>
							<asc_sop></asc_sop>
							<asc_sat></asc_sat>
							<lut2></lut2>
						</colorinfo>
						<labels>
							<label2>Violet</label2>
						</labels>
					</clipitem>
					<clipitem id="clipitem-334">
						<masterclipid>masterclip-331</masterclipid>
						<name>TKO_008_GAR_Sh03460.mov</name>
						<enabled>TRUE</enabled>
						<duration>98</duration>
						<rate>
							<timebase>24</timebase>
							<ntsc>TRUE</ntsc>
						</rate>
						<start>28127</start>
						<end>28217</end>
						<in>4</in>
						<out>94</out>
						<pproTicksIn>42378336000</pproTicksIn>
						<pproTicksOut>995890896000</pproTicksOut>
						<alphatype>none</alphatype>
						<pixelaspectratio>square</pixelaspectratio>
						<anamorphic>FALSE</anamorphic>
						<file id="file-331">
							<name>TKO_008_GAR_Sh03460.mov</name>
							<pathurl>file://tri-stor01/Projects/TKO/SHOTS/_Refs_Movs_Burnin_FrameCounter/TKO_008_GAR_Sh03460.mov</pathurl>
							<rate>
								<timebase>24</timebase>
								<ntsc>TRUE</ntsc>
							</rate>
							<duration>98</duration>
							<timecode>
								<rate>
									<timebase>24</timebase>
									<ntsc>TRUE</ntsc>
								</rate>
								<string>21:08:13:09</string>
								<frame>1826241</frame>
								<displayformat>NDF</displayformat>
								<reel>
									<name>B0340002</name>
								</reel>
							</timecode>
							<media>
								<video>
									<samplecharacteristics>
										<rate>
											<timebase>24</timebase>
											<ntsc>TRUE</ntsc>
										</rate>
										<width>4096</width>
										<height>2160</height>
										<anamorphic>FALSE</anamorphic>
										<pixelaspectratio>square</pixelaspectratio>
										<fielddominance>none</fielddominance>
									</samplecharacteristics>
								</video>
							</media>
						</file>
						<logginginfo>
							<description></description>
							<scene></scene>
							<shottake></shottake>
							<lognote></lognote>
							<good></good>
							<originalvideofilename></originalvideofilename>
							<originalaudiofilename></originalaudiofilename>
						</logginginfo>
						<colorinfo>
							<lut></lut>
							<lut1></lut1>
							<asc_sop></asc_sop>
							<asc_sat></asc_sat>
							<lut2></lut2>
						</colorinfo>
						<labels>
							<label2>Violet</label2>
						</labels>
					</clipitem>
					<clipitem id="clipitem-335">
						<masterclipid>masterclip-332</masterclipid>
						<name>TKO_008_GAR_Sh03470.mov</name>
						<enabled>TRUE</enabled>
						<duration>63</duration>
						<rate>
							<timebase>24</timebase>
							<ntsc>TRUE</ntsc>
						</rate>
						<start>28217</start>
						<end>28272</end>
						<in>4</in>
						<out>59</out>
						<pproTicksIn>42378336000</pproTicksIn>
						<pproTicksOut>625080456000</pproTicksOut>
						<alphatype>none</alphatype>
						<pixelaspectratio>square</pixelaspectratio>
						<anamorphic>FALSE</anamorphic>
						<file id="file-332">
							<name>TKO_008_GAR_Sh03470.mov</name>
							<pathurl>file://tri-stor01/Projects/TKO/SHOTS/_Refs_Movs_Burnin_FrameCounter/TKO_008_GAR_Sh03470.mov</pathurl>
							<rate>
								<timebase>24</timebase>
								<ntsc>TRUE</ntsc>
							</rate>
							<duration>63</duration>
							<timecode>
								<rate>
									<timebase>24</timebase>
									<ntsc>TRUE</ntsc>
								</rate>
								<string>20:31:44:04</string>
								<frame>1773700</frame>
								<displayformat>NDF</displayformat>
								<reel>
									<name>A0390009</name>
								</reel>
							</timecode>
							<media>
								<video>
									<samplecharacteristics>
										<rate>
											<timebase>24</timebase>
											<ntsc>TRUE</ntsc>
										</rate>
										<width>4096</width>
										<height>2160</height>
										<anamorphic>FALSE</anamorphic>
										<pixelaspectratio>square</pixelaspectratio>
										<fielddominance>none</fielddominance>
									</samplecharacteristics>
								</video>
							</media>
						</file>
						<logginginfo>
							<description></description>
							<scene></scene>
							<shottake></shottake>
							<lognote></lognote>
							<good></good>
							<originalvideofilename></originalvideofilename>
							<originalaudiofilename></originalaudiofilename>
						</logginginfo>
						<colorinfo>
							<lut></lut>
							<lut1></lut1>
							<asc_sop></asc_sop>
							<asc_sat></asc_sat>
							<lut2></lut2>
						</colorinfo>
						<labels>
							<label2>Violet</label2>
						</labels>
					</clipitem>
					<clipitem id="clipitem-336">
						<masterclipid>masterclip-333</masterclipid>
						<name>TKO_008_GAR_Sh03480.mov</name>
						<enabled>TRUE</enabled>
						<duration>47</duration>
						<rate>
							<timebase>24</timebase>
							<ntsc>TRUE</ntsc>
						</rate>
						<start>28272</start>
						<end>28311</end>
						<in>4</in>
						<out>43</out>
						<pproTicksIn>42378336000</pproTicksIn>
						<pproTicksOut>455567112000</pproTicksOut>
						<alphatype>none</alphatype>
						<pixelaspectratio>square</pixelaspectratio>
						<anamorphic>FALSE</anamorphic>
						<file id="file-333">
							<name>TKO_008_GAR_Sh03480.mov</name>
							<pathurl>file://tri-stor01/Projects/TKO/SHOTS/_Refs_Movs_Burnin_FrameCounter/TKO_008_GAR_Sh03480.mov</pathurl>
							<rate>
								<timebase>24</timebase>
								<ntsc>TRUE</ntsc>
							</rate>
							<duration>47</duration>
							<timecode>
								<rate>
									<timebase>24</timebase>
									<ntsc>TRUE</ntsc>
								</rate>
								<string>12:19:11:10</string>
								<frame>1064434</frame>
								<displayformat>NDF</displayformat>
								<reel>
									<name>C0280006</name>
								</reel>
							</timecode>
							<media>
								<video>
									<samplecharacteristics>
										<rate>
											<timebase>24</timebase>
											<ntsc>TRUE</ntsc>
										</rate>
										<width>3840</width>
										<height>2160</height>
										<anamorphic>FALSE</anamorphic>
										<pixelaspectratio>square</pixelaspectratio>
										<fielddominance>none</fielddominance>
									</samplecharacteristics>
								</video>
							</media>
						</file>
						<logginginfo>
							<description></description>
							<scene></scene>
							<shottake></shottake>
							<lognote></lognote>
							<good></good>
							<originalvideofilename></originalvideofilename>
							<originalaudiofilename></originalaudiofilename>
						</logginginfo>
						<colorinfo>
							<lut></lut>
							<lut1></lut1>
							<asc_sop></asc_sop>
							<asc_sat></asc_sat>
							<lut2></lut2>
						</colorinfo>
						<labels>
							<label2>Violet</label2>
						</labels>
					</clipitem>
					<clipitem id="clipitem-337">
						<masterclipid>masterclip-334</masterclipid>
						<name>TKO_008_GAR_Sh03490.mov</name>
						<enabled>TRUE</enabled>
						<duration>126</duration>
						<rate>
							<timebase>24</timebase>
							<ntsc>TRUE</ntsc>
						</rate>
						<start>28311</start>
						<end>28429</end>
						<in>4</in>
						<out>122</out>
						<pproTicksIn>42378336000</pproTicksIn>
						<pproTicksOut>1292539248000</pproTicksOut>
						<alphatype>none</alphatype>
						<pixelaspectratio>square</pixelaspectratio>
						<anamorphic>FALSE</anamorphic>
						<file id="file-334">
							<name>TKO_008_GAR_Sh03490.mov</name>
							<pathurl>file://tri-stor01/Projects/TKO/SHOTS/_Refs_Movs_Burnin_FrameCounter/TKO_008_GAR_Sh03490.mov</pathurl>
							<rate>
								<timebase>24</timebase>
								<ntsc>TRUE</ntsc>
							</rate>
							<duration>126</duration>
							<timecode>
								<rate>
									<timebase>24</timebase>
									<ntsc>TRUE</ntsc>
								</rate>
								<string>20:31:48:02</string>
								<frame>1773794</frame>
								<displayformat>NDF</displayformat>
								<reel>
									<name>A0390009</name>
								</reel>
							</timecode>
							<media>
								<video>
									<samplecharacteristics>
										<rate>
											<timebase>24</timebase>
											<ntsc>TRUE</ntsc>
										</rate>
										<width>4096</width>
										<height>2160</height>
										<anamorphic>FALSE</anamorphic>
										<pixelaspectratio>square</pixelaspectratio>
										<fielddominance>none</fielddominance>
									</samplecharacteristics>
								</video>
							</media>
						</file>
						<logginginfo>
							<description></description>
							<scene></scene>
							<shottake></shottake>
							<lognote></lognote>
							<good></good>
							<originalvideofilename></originalvideofilename>
							<originalaudiofilename></originalaudiofilename>
						</logginginfo>
						<colorinfo>
							<lut></lut>
							<lut1></lut1>
							<asc_sop></asc_sop>
							<asc_sat></asc_sat>
							<lut2></lut2>
						</colorinfo>
						<labels>
							<label2>Violet</label2>
						</labels>
					</clipitem>
					<clipitem id="clipitem-338">
						<masterclipid>masterclip-335</masterclipid>
						<name>TKO_008_GAR_Sh03500.mov</name>
						<enabled>TRUE</enabled>
						<duration>129</duration>
						<rate>
							<timebase>24</timebase>
							<ntsc>TRUE</ntsc>
						</rate>
						<start>28429</start>
						<end>28550</end>
						<in>4</in>
						<out>125</out>
						<pproTicksIn>42378336000</pproTicksIn>
						<pproTicksOut>1324323000000</pproTicksOut>
						<alphatype>none</alphatype>
						<pixelaspectratio>square</pixelaspectratio>
						<anamorphic>FALSE</anamorphic>
						<file id="file-335">
							<name>TKO_008_GAR_Sh03500.mov</name>
							<pathurl>file://tri-stor01/Projects/TKO/SHOTS/_Refs_Movs_Burnin_FrameCounter/TKO_008_GAR_Sh03500.mov</pathurl>
							<rate>
								<timebase>24</timebase>
								<ntsc>TRUE</ntsc>
							</rate>
							<duration>129</duration>
							<timecode>
								<rate>
									<timebase>24</timebase>
									<ntsc>TRUE</ntsc>
								</rate>
								<string>21:08:26:19</string>
								<frame>1826563</frame>
								<displayformat>NDF</displayformat>
								<reel>
									<name>A0400002</name>
								</reel>
							</timecode>
							<media>
								<video>
									<samplecharacteristics>
										<rate>
											<timebase>24</timebase>
											<ntsc>TRUE</ntsc>
										</rate>
										<width>4096</width>
										<height>2160</height>
										<anamorphic>FALSE</anamorphic>
										<pixelaspectratio>square</pixelaspectratio>
										<fielddominance>none</fielddominance>
									</samplecharacteristics>
								</video>
							</media>
						</file>
						<logginginfo>
							<description></description>
							<scene></scene>
							<shottake></shottake>
							<lognote></lognote>
							<good></good>
							<originalvideofilename></originalvideofilename>
							<originalaudiofilename></originalaudiofilename>
						</logginginfo>
						<colorinfo>
							<lut></lut>
							<lut1></lut1>
							<asc_sop></asc_sop>
							<asc_sat></asc_sat>
							<lut2></lut2>
						</colorinfo>
						<labels>
							<label2>Violet</label2>
						</labels>
					</clipitem>
					<clipitem id="clipitem-339">
						<masterclipid>masterclip-336</masterclipid>
						<name>TKO_008_GAR_Sh03510.mov</name>
						<enabled>TRUE</enabled>
						<duration>83</duration>
						<rate>
							<timebase>24</timebase>
							<ntsc>TRUE</ntsc>
						</rate>
						<start>28550</start>
						<end>28625</end>
						<in>4</in>
						<out>79</out>
						<pproTicksIn>42378336000</pproTicksIn>
						<pproTicksOut>836972136000</pproTicksOut>
						<alphatype>none</alphatype>
						<pixelaspectratio>square</pixelaspectratio>
						<anamorphic>FALSE</anamorphic>
						<file id="file-336">
							<name>TKO_008_GAR_Sh03510.mov</name>
							<pathurl>file://tri-stor01/Projects/TKO/SHOTS/_Refs_Movs_Burnin_FrameCounter/TKO_008_GAR_Sh03510.mov</pathurl>
							<rate>
								<timebase>24</timebase>
								<ntsc>TRUE</ntsc>
							</rate>
							<duration>83</duration>
							<timecode>
								<rate>
									<timebase>24</timebase>
									<ntsc>TRUE</ntsc>
								</rate>
								<string>21:08:31:20</string>
								<frame>1826684</frame>
								<displayformat>NDF</displayformat>
								<reel>
									<name>B0340002</name>
								</reel>
							</timecode>
							<media>
								<video>
									<samplecharacteristics>
										<rate>
											<timebase>24</timebase>
											<ntsc>TRUE</ntsc>
										</rate>
										<width>4096</width>
										<height>2160</height>
										<anamorphic>FALSE</anamorphic>
										<pixelaspectratio>square</pixelaspectratio>
										<fielddominance>none</fielddominance>
									</samplecharacteristics>
								</video>
							</media>
						</file>
						<logginginfo>
							<description></description>
							<scene></scene>
							<shottake></shottake>
							<lognote></lognote>
							<good></good>
							<originalvideofilename></originalvideofilename>
							<originalaudiofilename></originalaudiofilename>
						</logginginfo>
						<colorinfo>
							<lut></lut>
							<lut1></lut1>
							<asc_sop></asc_sop>
							<asc_sat></asc_sat>
							<lut2></lut2>
						</colorinfo>
						<labels>
							<label2>Violet</label2>
						</labels>
					</clipitem>
					<clipitem id="clipitem-340">
						<masterclipid>masterclip-337</masterclipid>
						<name>TKO_008_GAR_Sh03520.mov</name>
						<enabled>TRUE</enabled>
						<duration>77</duration>
						<rate>
							<timebase>24</timebase>
							<ntsc>TRUE</ntsc>
						</rate>
						<start>28625</start>
						<end>28694</end>
						<in>4</in>
						<out>73</out>
						<pproTicksIn>42378336000</pproTicksIn>
						<pproTicksOut>773404632000</pproTicksOut>
						<alphatype>none</alphatype>
						<pixelaspectratio>square</pixelaspectratio>
						<anamorphic>FALSE</anamorphic>
						<file id="file-337">
							<name>TKO_008_GAR_Sh03520.mov</name>
							<pathurl>file://tri-stor01/Projects/TKO/SHOTS/_Refs_Movs_Burnin_FrameCounter/TKO_008_GAR_Sh03520.mov</pathurl>
							<rate>
								<timebase>24</timebase>
								<ntsc>TRUE</ntsc>
							</rate>
							<duration>77</duration>
							<timecode>
								<rate>
									<timebase>24</timebase>
									<ntsc>TRUE</ntsc>
								</rate>
								<string>20:32:02:07</string>
								<frame>1774135</frame>
								<displayformat>NDF</displayformat>
								<reel>
									<name>A0390009</name>
								</reel>
							</timecode>
							<media>
								<video>
									<samplecharacteristics>
										<rate>
											<timebase>24</timebase>
											<ntsc>TRUE</ntsc>
										</rate>
										<width>4096</width>
										<height>2160</height>
										<anamorphic>FALSE</anamorphic>
										<pixelaspectratio>square</pixelaspectratio>
										<fielddominance>none</fielddominance>
									</samplecharacteristics>
								</video>
							</media>
						</file>
						<logginginfo>
							<description></description>
							<scene></scene>
							<shottake></shottake>
							<lognote></lognote>
							<good></good>
							<originalvideofilename></originalvideofilename>
							<originalaudiofilename></originalaudiofilename>
						</logginginfo>
						<colorinfo>
							<lut></lut>
							<lut1></lut1>
							<asc_sop></asc_sop>
							<asc_sat></asc_sat>
							<lut2></lut2>
						</colorinfo>
						<labels>
							<label2>Violet</label2>
						</labels>
					</clipitem>
					<clipitem id="clipitem-341">
						<masterclipid>masterclip-338</masterclipid>
						<name>TKO_008_GAR_Sh03530.mov</name>
						<enabled>TRUE</enabled>
						<duration>94</duration>
						<rate>
							<timebase>24</timebase>
							<ntsc>TRUE</ntsc>
						</rate>
						<start>28694</start>
						<end>28735</end>
						<in>4</in>
						<out>45</out>
						<pproTicksIn>42378336000</pproTicksIn>
						<pproTicksOut>476756280000</pproTicksOut>
						<alphatype>none</alphatype>
						<pixelaspectratio>square</pixelaspectratio>
						<anamorphic>FALSE</anamorphic>
						<file id="file-338">
							<name>TKO_008_GAR_Sh03530.mov</name>
							<pathurl>file://tri-stor01/Projects/TKO/SHOTS/_Refs_Movs_Burnin_FrameCounter/TKO_008_GAR_Sh03530.mov</pathurl>
							<rate>
								<timebase>24</timebase>
								<ntsc>TRUE</ntsc>
							</rate>
							<duration>94</duration>
							<timecode>
								<rate>
									<timebase>24</timebase>
									<ntsc>TRUE</ntsc>
								</rate>
								<string>21:08:38:22</string>
								<frame>1826854</frame>
								<displayformat>NDF</displayformat>
								<reel>
									<name>A0400002</name>
								</reel>
							</timecode>
							<media>
								<video>
									<samplecharacteristics>
										<rate>
											<timebase>24</timebase>
											<ntsc>TRUE</ntsc>
										</rate>
										<width>4096</width>
										<height>2160</height>
										<anamorphic>FALSE</anamorphic>
										<pixelaspectratio>square</pixelaspectratio>
										<fielddominance>none</fielddominance>
									</samplecharacteristics>
								</video>
							</media>
						</file>
						<logginginfo>
							<description></description>
							<scene></scene>
							<shottake></shottake>
							<lognote></lognote>
							<good></good>
							<originalvideofilename></originalvideofilename>
							<originalaudiofilename></originalaudiofilename>
						</logginginfo>
						<colorinfo>
							<lut></lut>
							<lut1></lut1>
							<asc_sop></asc_sop>
							<asc_sat></asc_sat>
							<lut2></lut2>
						</colorinfo>
						<labels>
							<label2>Violet</label2>
						</labels>
					</clipitem>
					<clipitem id="clipitem-342">
						<masterclipid>masterclip-339</masterclipid>
						<name>TKO_008_GAR_Sh03540.mov</name>
						<enabled>TRUE</enabled>
						<duration>104</duration>
						<rate>
							<timebase>24</timebase>
							<ntsc>TRUE</ntsc>
						</rate>
						<start>28735</start>
						<end>28800</end>
						<in>35</in>
						<out>100</out>
						<pproTicksIn>370810440000</pproTicksIn>
						<pproTicksOut>1059458400000</pproTicksOut>
						<alphatype>none</alphatype>
						<pixelaspectratio>square</pixelaspectratio>
						<anamorphic>FALSE</anamorphic>
						<file id="file-339">
							<name>TKO_008_GAR_Sh03540.mov</name>
							<pathurl>file://tri-stor01/Projects/TKO/SHOTS/_Refs_Movs_Burnin_FrameCounter/TKO_008_GAR_Sh03540.mov</pathurl>
							<rate>
								<timebase>24</timebase>
								<ntsc>TRUE</ntsc>
							</rate>
							<duration>104</duration>
							<timecode>
								<rate>
									<timebase>24</timebase>
									<ntsc>TRUE</ntsc>
								</rate>
								<string>21:08:42:12</string>
								<frame>1826940</frame>
								<displayformat>NDF</displayformat>
								<reel>
									<name>B0340002</name>
								</reel>
							</timecode>
							<media>
								<video>
									<samplecharacteristics>
										<rate>
											<timebase>24</timebase>
											<ntsc>TRUE</ntsc>
										</rate>
										<width>4096</width>
										<height>2160</height>
										<anamorphic>FALSE</anamorphic>
										<pixelaspectratio>square</pixelaspectratio>
										<fielddominance>none</fielddominance>
									</samplecharacteristics>
								</video>
							</media>
						</file>
						<logginginfo>
							<description></description>
							<scene></scene>
							<shottake></shottake>
							<lognote></lognote>
							<good></good>
							<originalvideofilename></originalvideofilename>
							<originalaudiofilename></originalaudiofilename>
						</logginginfo>
						<colorinfo>
							<lut></lut>
							<lut1></lut1>
							<asc_sop></asc_sop>
							<asc_sat></asc_sat>
							<lut2></lut2>
						</colorinfo>
						<labels>
							<label2>Violet</label2>
						</labels>
					</clipitem>
					<clipitem id="clipitem-343">
						<masterclipid>masterclip-340</masterclipid>
						<name>TKO_008_GAR_Sh03550.mov</name>
						<enabled>TRUE</enabled>
						<duration>243</duration>
						<rate>
							<timebase>24</timebase>
							<ntsc>TRUE</ntsc>
						</rate>
						<start>28800</start>
						<end>29035</end>
						<in>4</in>
						<out>239</out>
						<pproTicksIn>42378336000</pproTicksIn>
						<pproTicksOut>2532105576000</pproTicksOut>
						<alphatype>none</alphatype>
						<pixelaspectratio>square</pixelaspectratio>
						<anamorphic>FALSE</anamorphic>
						<file id="file-340">
							<name>TKO_008_GAR_Sh03550.mov</name>
							<pathurl>file://tri-stor01/Projects/TKO/SHOTS/_Refs_Movs_Burnin_FrameCounter/TKO_008_GAR_Sh03550.mov</pathurl>
							<rate>
								<timebase>24</timebase>
								<ntsc>TRUE</ntsc>
							</rate>
							<duration>243</duration>
							<timecode>
								<rate>
									<timebase>24</timebase>
									<ntsc>TRUE</ntsc>
								</rate>
								<string>21:08:46:23</string>
								<frame>1827047</frame>
								<displayformat>NDF</displayformat>
								<reel>
									<name>A0400002</name>
								</reel>
							</timecode>
							<media>
								<video>
									<samplecharacteristics>
										<rate>
											<timebase>24</timebase>
											<ntsc>TRUE</ntsc>
										</rate>
										<width>4096</width>
										<height>2160</height>
										<anamorphic>FALSE</anamorphic>
										<pixelaspectratio>square</pixelaspectratio>
										<fielddominance>none</fielddominance>
									</samplecharacteristics>
								</video>
							</media>
						</file>
						<logginginfo>
							<description></description>
							<scene></scene>
							<shottake></shottake>
							<lognote></lognote>
							<good></good>
							<originalvideofilename></originalvideofilename>
							<originalaudiofilename></originalaudiofilename>
						</logginginfo>
						<colorinfo>
							<lut></lut>
							<lut1></lut1>
							<asc_sop></asc_sop>
							<asc_sat></asc_sat>
							<lut2></lut2>
						</colorinfo>
						<labels>
							<label2>Violet</label2>
						</labels>
					</clipitem>
					<clipitem id="clipitem-344">
						<masterclipid>masterclip-341</masterclipid>
						<name>TKO_008_GAR_Sh03560.mov</name>
						<enabled>TRUE</enabled>
						<duration>49</duration>
						<rate>
							<timebase>24</timebase>
							<ntsc>TRUE</ntsc>
						</rate>
						<start>29035</start>
						<end>29076</end>
						<in>4</in>
						<out>45</out>
						<pproTicksIn>42378336000</pproTicksIn>
						<pproTicksOut>476756280000</pproTicksOut>
						<alphatype>none</alphatype>
						<pixelaspectratio>square</pixelaspectratio>
						<anamorphic>FALSE</anamorphic>
						<file id="file-341">
							<name>TKO_008_GAR_Sh03560.mov</name>
							<pathurl>file://tri-stor01/Projects/TKO/SHOTS/_Refs_Movs_Burnin_FrameCounter/TKO_008_GAR_Sh03560.mov</pathurl>
							<rate>
								<timebase>24</timebase>
								<ntsc>TRUE</ntsc>
							</rate>
							<duration>49</duration>
							<timecode>
								<rate>
									<timebase>24</timebase>
									<ntsc>TRUE</ntsc>
								</rate>
								<string>12:19:48:07</string>
								<frame>1065319</frame>
								<displayformat>NDF</displayformat>
								<reel>
									<name>C0280006</name>
								</reel>
							</timecode>
							<media>
								<video>
									<samplecharacteristics>
										<rate>
											<timebase>24</timebase>
											<ntsc>TRUE</ntsc>
										</rate>
										<width>3840</width>
										<height>2160</height>
										<anamorphic>FALSE</anamorphic>
										<pixelaspectratio>square</pixelaspectratio>
										<fielddominance>none</fielddominance>
									</samplecharacteristics>
								</video>
							</media>
						</file>
						<logginginfo>
							<description></description>
							<scene></scene>
							<shottake></shottake>
							<lognote></lognote>
							<good></good>
							<originalvideofilename></originalvideofilename>
							<originalaudiofilename></originalaudiofilename>
						</logginginfo>
						<colorinfo>
							<lut></lut>
							<lut1></lut1>
							<asc_sop></asc_sop>
							<asc_sat></asc_sat>
							<lut2></lut2>
						</colorinfo>
						<labels>
							<label2>Violet</label2>
						</labels>
					</clipitem>
					<clipitem id="clipitem-345">
						<masterclipid>masterclip-342</masterclipid>
						<name>TKO_008_GAR_Sh03570.mov</name>
						<enabled>TRUE</enabled>
						<duration>43</duration>
						<rate>
							<timebase>24</timebase>
							<ntsc>TRUE</ntsc>
						</rate>
						<start>29076</start>
						<end>29111</end>
						<in>4</in>
						<out>39</out>
						<pproTicksIn>42378336000</pproTicksIn>
						<pproTicksOut>413188776000</pproTicksOut>
						<alphatype>none</alphatype>
						<pixelaspectratio>square</pixelaspectratio>
						<anamorphic>FALSE</anamorphic>
						<file id="file-342">
							<name>TKO_008_GAR_Sh03570.mov</name>
							<pathurl>file://tri-stor01/Projects/TKO/SHOTS/_Refs_Movs_Burnin_FrameCounter/TKO_008_GAR_Sh03570.mov</pathurl>
							<rate>
								<timebase>24</timebase>
								<ntsc>TRUE</ntsc>
							</rate>
							<duration>43</duration>
							<timecode>
								<rate>
									<timebase>24</timebase>
									<ntsc>TRUE</ntsc>
								</rate>
								<string>21:08:58:11</string>
								<frame>1827323</frame>
								<displayformat>NDF</displayformat>
								<reel>
									<name>A0400002</name>
								</reel>
							</timecode>
							<media>
								<video>
									<samplecharacteristics>
										<rate>
											<timebase>24</timebase>
											<ntsc>TRUE</ntsc>
										</rate>
										<width>4096</width>
										<height>2160</height>
										<anamorphic>FALSE</anamorphic>
										<pixelaspectratio>square</pixelaspectratio>
										<fielddominance>none</fielddominance>
									</samplecharacteristics>
								</video>
							</media>
						</file>
						<logginginfo>
							<description></description>
							<scene></scene>
							<shottake></shottake>
							<lognote></lognote>
							<good></good>
							<originalvideofilename></originalvideofilename>
							<originalaudiofilename></originalaudiofilename>
						</logginginfo>
						<colorinfo>
							<lut></lut>
							<lut1></lut1>
							<asc_sop></asc_sop>
							<asc_sat></asc_sat>
							<lut2></lut2>
						</colorinfo>
						<labels>
							<label2>Violet</label2>
						</labels>
					</clipitem>
					<clipitem id="clipitem-346">
						<masterclipid>masterclip-343</masterclipid>
						<name>TKO_008_GAR_Sh03580.mov</name>
						<enabled>TRUE</enabled>
						<duration>51</duration>
						<rate>
							<timebase>24</timebase>
							<ntsc>TRUE</ntsc>
						</rate>
						<start>29111</start>
						<end>29154</end>
						<in>4</in>
						<out>47</out>
						<pproTicksIn>42378336000</pproTicksIn>
						<pproTicksOut>497945448000</pproTicksOut>
						<alphatype>none</alphatype>
						<pixelaspectratio>square</pixelaspectratio>
						<anamorphic>FALSE</anamorphic>
						<file id="file-343">
							<name>TKO_008_GAR_Sh03580.mov</name>
							<pathurl>file://tri-stor01/Projects/TKO/SHOTS/_Refs_Movs_Burnin_FrameCounter/TKO_008_GAR_Sh03580.mov</pathurl>
							<rate>
								<timebase>24</timebase>
								<ntsc>TRUE</ntsc>
							</rate>
							<duration>51</duration>
							<timecode>
								<rate>
									<timebase>24</timebase>
									<ntsc>TRUE</ntsc>
								</rate>
								<string>21:08:59:22</string>
								<frame>1827358</frame>
								<displayformat>NDF</displayformat>
								<reel>
									<name>B0340002</name>
								</reel>
							</timecode>
							<media>
								<video>
									<samplecharacteristics>
										<rate>
											<timebase>24</timebase>
											<ntsc>TRUE</ntsc>
										</rate>
										<width>4096</width>
										<height>2160</height>
										<anamorphic>FALSE</anamorphic>
										<pixelaspectratio>square</pixelaspectratio>
										<fielddominance>none</fielddominance>
									</samplecharacteristics>
								</video>
							</media>
						</file>
						<logginginfo>
							<description></description>
							<scene></scene>
							<shottake></shottake>
							<lognote></lognote>
							<good></good>
							<originalvideofilename></originalvideofilename>
							<originalaudiofilename></originalaudiofilename>
						</logginginfo>
						<colorinfo>
							<lut></lut>
							<lut1></lut1>
							<asc_sop></asc_sop>
							<asc_sat></asc_sat>
							<lut2></lut2>
						</colorinfo>
						<labels>
							<label2>Violet</label2>
						</labels>
					</clipitem>
					<clipitem id="clipitem-347">
						<masterclipid>masterclip-344</masterclipid>
						<name>TKO_008_GAR_Sh03590.mov</name>
						<enabled>TRUE</enabled>
						<duration>125</duration>
						<rate>
							<timebase>24</timebase>
							<ntsc>TRUE</ntsc>
						</rate>
						<start>29154</start>
						<end>29271</end>
						<in>4</in>
						<out>121</out>
						<pproTicksIn>42378336000</pproTicksIn>
						<pproTicksOut>1281944664000</pproTicksOut>
						<alphatype>none</alphatype>
						<pixelaspectratio>square</pixelaspectratio>
						<anamorphic>FALSE</anamorphic>
						<file id="file-344">
							<name>TKO_008_GAR_Sh03590.mov</name>
							<pathurl>file://tri-stor01/Projects/TKO/SHOTS/_Refs_Movs_Burnin_FrameCounter/TKO_008_GAR_Sh03590.mov</pathurl>
							<rate>
								<timebase>24</timebase>
								<ntsc>TRUE</ntsc>
							</rate>
							<duration>125</duration>
							<timecode>
								<rate>
									<timebase>24</timebase>
									<ntsc>TRUE</ntsc>
								</rate>
								<string>20:32:27:02</string>
								<frame>1774730</frame>
								<displayformat>NDF</displayformat>
								<reel>
									<name>A0390009</name>
								</reel>
							</timecode>
							<media>
								<video>
									<samplecharacteristics>
										<rate>
											<timebase>24</timebase>
											<ntsc>TRUE</ntsc>
										</rate>
										<width>4096</width>
										<height>2160</height>
										<anamorphic>FALSE</anamorphic>
										<pixelaspectratio>square</pixelaspectratio>
										<fielddominance>none</fielddominance>
									</samplecharacteristics>
								</video>
							</media>
						</file>
						<logginginfo>
							<description></description>
							<scene></scene>
							<shottake></shottake>
							<lognote></lognote>
							<good></good>
							<originalvideofilename></originalvideofilename>
							<originalaudiofilename></originalaudiofilename>
						</logginginfo>
						<colorinfo>
							<lut></lut>
							<lut1></lut1>
							<asc_sop></asc_sop>
							<asc_sat></asc_sat>
							<lut2></lut2>
						</colorinfo>
						<labels>
							<label2>Violet</label2>
						</labels>
					</clipitem>
					<clipitem id="clipitem-348">
						<masterclipid>masterclip-345</masterclipid>
						<name>TKO_008_GAR_Sh03600.mov</name>
						<enabled>TRUE</enabled>
						<duration>71</duration>
						<rate>
							<timebase>24</timebase>
							<ntsc>TRUE</ntsc>
						</rate>
						<start>29271</start>
						<end>29334</end>
						<in>4</in>
						<out>67</out>
						<pproTicksIn>42378336000</pproTicksIn>
						<pproTicksOut>709837128000</pproTicksOut>
						<alphatype>none</alphatype>
						<pixelaspectratio>square</pixelaspectratio>
						<anamorphic>FALSE</anamorphic>
						<file id="file-345">
							<name>TKO_008_GAR_Sh03600.mov</name>
							<pathurl>file://tri-stor01/Projects/TKO/SHOTS/_Refs_Movs_Burnin_FrameCounter/TKO_008_GAR_Sh03600.mov</pathurl>
							<rate>
								<timebase>24</timebase>
								<ntsc>TRUE</ntsc>
							</rate>
							<duration>71</duration>
							<timecode>
								<rate>
									<timebase>24</timebase>
									<ntsc>TRUE</ntsc>
								</rate>
								<string>21:09:06:23</string>
								<frame>1827527</frame>
								<displayformat>NDF</displayformat>
								<reel>
									<name>B0340002</name>
								</reel>
							</timecode>
							<media>
								<video>
									<samplecharacteristics>
										<rate>
											<timebase>24</timebase>
											<ntsc>TRUE</ntsc>
										</rate>
										<width>4096</width>
										<height>2160</height>
										<anamorphic>FALSE</anamorphic>
										<pixelaspectratio>square</pixelaspectratio>
										<fielddominance>none</fielddominance>
									</samplecharacteristics>
								</video>
							</media>
						</file>
						<logginginfo>
							<description></description>
							<scene></scene>
							<shottake></shottake>
							<lognote></lognote>
							<good></good>
							<originalvideofilename></originalvideofilename>
							<originalaudiofilename></originalaudiofilename>
						</logginginfo>
						<colorinfo>
							<lut></lut>
							<lut1></lut1>
							<asc_sop></asc_sop>
							<asc_sat></asc_sat>
							<lut2></lut2>
						</colorinfo>
						<labels>
							<label2>Violet</label2>
						</labels>
					</clipitem>
					<clipitem id="clipitem-349">
						<masterclipid>masterclip-346</masterclipid>
						<name>TKO_008_GAR_Sh03610.mov</name>
						<enabled>TRUE</enabled>
						<duration>120</duration>
						<rate>
							<timebase>24</timebase>
							<ntsc>TRUE</ntsc>
						</rate>
						<start>29334</start>
						<end>29446</end>
						<in>4</in>
						<out>116</out>
						<pproTicksIn>42378336000</pproTicksIn>
						<pproTicksOut>1228971744000</pproTicksOut>
						<alphatype>none</alphatype>
						<pixelaspectratio>square</pixelaspectratio>
						<anamorphic>FALSE</anamorphic>
						<file id="file-346">
							<name>TKO_008_GAR_Sh03610.mov</name>
							<pathurl>file://tri-stor01/Projects/TKO/SHOTS/_Refs_Movs_Burnin_FrameCounter/TKO_008_GAR_Sh03610.mov</pathurl>
							<rate>
								<timebase>24</timebase>
								<ntsc>TRUE</ntsc>
							</rate>
							<duration>120</duration>
							<timecode>
								<rate>
									<timebase>24</timebase>
									<ntsc>TRUE</ntsc>
								</rate>
								<string>00:00:00:00</string>
								<frame>0</frame>
								<displayformat>NDF</displayformat>
							</timecode>
							<media>
								<video>
									<samplecharacteristics>
										<rate>
											<timebase>24</timebase>
											<ntsc>TRUE</ntsc>
										</rate>
										<width>4096</width>
										<height>2160</height>
										<anamorphic>FALSE</anamorphic>
										<pixelaspectratio>square</pixelaspectratio>
										<fielddominance>none</fielddominance>
									</samplecharacteristics>
								</video>
							</media>
						</file>
						<logginginfo>
							<description></description>
							<scene></scene>
							<shottake></shottake>
							<lognote></lognote>
							<good></good>
							<originalvideofilename></originalvideofilename>
							<originalaudiofilename></originalaudiofilename>
						</logginginfo>
						<colorinfo>
							<lut></lut>
							<lut1></lut1>
							<asc_sop></asc_sop>
							<asc_sat></asc_sat>
							<lut2></lut2>
						</colorinfo>
						<labels>
							<label2>Violet</label2>
						</labels>
					</clipitem>
					<clipitem id="clipitem-350">
						<masterclipid>masterclip-347</masterclipid>
						<name>TKO_009_VAU_Sh03620.mov</name>
						<enabled>TRUE</enabled>
						<duration>159</duration>
						<rate>
							<timebase>24</timebase>
							<ntsc>TRUE</ntsc>
						</rate>
						<start>29446</start>
						<end>29597</end>
						<in>4</in>
						<out>155</out>
						<pproTicksIn>42378336000</pproTicksIn>
						<pproTicksOut>1642160520000</pproTicksOut>
						<alphatype>none</alphatype>
						<pixelaspectratio>square</pixelaspectratio>
						<anamorphic>FALSE</anamorphic>
						<file id="file-347">
							<name>TKO_009_VAU_Sh03620.mov</name>
							<pathurl>file://tri-stor01/Projects/TKO/SHOTS/_Refs_Movs_Burnin_FrameCounter/TKO_009_VAU_Sh03620.mov</pathurl>
							<rate>
								<timebase>24</timebase>
								<ntsc>TRUE</ntsc>
							</rate>
							<duration>159</duration>
							<timecode>
								<rate>
									<timebase>24</timebase>
									<ntsc>TRUE</ntsc>
								</rate>
								<string>00:00:00:00</string>
								<frame>0</frame>
								<displayformat>NDF</displayformat>
							</timecode>
							<media>
								<video>
									<samplecharacteristics>
										<rate>
											<timebase>24</timebase>
											<ntsc>TRUE</ntsc>
										</rate>
										<width>4096</width>
										<height>2160</height>
										<anamorphic>FALSE</anamorphic>
										<pixelaspectratio>square</pixelaspectratio>
										<fielddominance>none</fielddominance>
									</samplecharacteristics>
								</video>
							</media>
						</file>
						<logginginfo>
							<description></description>
							<scene></scene>
							<shottake></shottake>
							<lognote></lognote>
							<good></good>
							<originalvideofilename></originalvideofilename>
							<originalaudiofilename></originalaudiofilename>
						</logginginfo>
						<colorinfo>
							<lut></lut>
							<lut1></lut1>
							<asc_sop></asc_sop>
							<asc_sat></asc_sat>
							<lut2></lut2>
						</colorinfo>
						<labels>
							<label2>Violet</label2>
						</labels>
					</clipitem>
					<clipitem id="clipitem-351">
						<masterclipid>masterclip-348</masterclipid>
						<name>TKO_009_VAU_Sh03630.mov</name>
						<enabled>TRUE</enabled>
						<duration>59</duration>
						<rate>
							<timebase>24</timebase>
							<ntsc>TRUE</ntsc>
						</rate>
						<start>29597</start>
						<end>29648</end>
						<in>4</in>
						<out>55</out>
						<pproTicksIn>42378336000</pproTicksIn>
						<pproTicksOut>582702120000</pproTicksOut>
						<alphatype>none</alphatype>
						<pixelaspectratio>square</pixelaspectratio>
						<anamorphic>FALSE</anamorphic>
						<file id="file-348">
							<name>TKO_009_VAU_Sh03630.mov</name>
							<pathurl>file://tri-stor01/Projects/TKO/SHOTS/_Refs_Movs_Burnin_FrameCounter/TKO_009_VAU_Sh03630.mov</pathurl>
							<rate>
								<timebase>24</timebase>
								<ntsc>TRUE</ntsc>
							</rate>
							<duration>59</duration>
							<timecode>
								<rate>
									<timebase>24</timebase>
									<ntsc>TRUE</ntsc>
								</rate>
								<string>00:17:27:10</string>
								<frame>25138</frame>
								<displayformat>NDF</displayformat>
							</timecode>
							<media>
								<video>
									<samplecharacteristics>
										<rate>
											<timebase>24</timebase>
											<ntsc>TRUE</ntsc>
										</rate>
										<width>1280</width>
										<height>720</height>
										<anamorphic>FALSE</anamorphic>
										<pixelaspectratio>square</pixelaspectratio>
										<fielddominance>none</fielddominance>
									</samplecharacteristics>
								</video>
							</media>
						</file>
						<logginginfo>
							<description></description>
							<scene></scene>
							<shottake></shottake>
							<lognote></lognote>
							<good></good>
							<originalvideofilename></originalvideofilename>
							<originalaudiofilename></originalaudiofilename>
						</logginginfo>
						<colorinfo>
							<lut></lut>
							<lut1></lut1>
							<asc_sop></asc_sop>
							<asc_sat></asc_sat>
							<lut2></lut2>
						</colorinfo>
						<labels>
							<label2>Violet</label2>
						</labels>
					</clipitem>
					<clipitem id="clipitem-352">
						<masterclipid>masterclip-349</masterclipid>
						<name>TKO_009_VAU_Sh03640.mov</name>
						<enabled>TRUE</enabled>
						<duration>192</duration>
						<rate>
							<timebase>24</timebase>
							<ntsc>TRUE</ntsc>
						</rate>
						<start>29648</start>
						<end>29832</end>
						<in>4</in>
						<out>188</out>
						<pproTicksIn>42378336000</pproTicksIn>
						<pproTicksOut>1991781792000</pproTicksOut>
						<alphatype>none</alphatype>
						<pixelaspectratio>square</pixelaspectratio>
						<anamorphic>FALSE</anamorphic>
						<file id="file-349">
							<name>TKO_009_VAU_Sh03640.mov</name>
							<pathurl>file://tri-stor01/Projects/TKO/SHOTS/_Refs_Movs_Burnin_FrameCounter/TKO_009_VAU_Sh03640.mov</pathurl>
							<rate>
								<timebase>24</timebase>
								<ntsc>TRUE</ntsc>
							</rate>
							<duration>192</duration>
							<timecode>
								<rate>
									<timebase>24</timebase>
									<ntsc>TRUE</ntsc>
								</rate>
								<string>21:42:29:16</string>
								<frame>1875592</frame>
								<displayformat>NDF</displayformat>
								<reel>
									<name>A0150007</name>
								</reel>
							</timecode>
							<media>
								<video>
									<samplecharacteristics>
										<rate>
											<timebase>24</timebase>
											<ntsc>TRUE</ntsc>
										</rate>
										<width>4096</width>
										<height>2160</height>
										<anamorphic>FALSE</anamorphic>
										<pixelaspectratio>square</pixelaspectratio>
										<fielddominance>none</fielddominance>
									</samplecharacteristics>
								</video>
							</media>
						</file>
						<logginginfo>
							<description></description>
							<scene></scene>
							<shottake></shottake>
							<lognote></lognote>
							<good></good>
							<originalvideofilename></originalvideofilename>
							<originalaudiofilename></originalaudiofilename>
						</logginginfo>
						<colorinfo>
							<lut></lut>
							<lut1></lut1>
							<asc_sop></asc_sop>
							<asc_sat></asc_sat>
							<lut2></lut2>
						</colorinfo>
						<labels>
							<label2>Violet</label2>
						</labels>
					</clipitem>
					<clipitem id="clipitem-353">
						<masterclipid>masterclip-350</masterclipid>
						<name>TKO_009_VAU_Sh03650.mov</name>
						<enabled>TRUE</enabled>
						<duration>83</duration>
						<rate>
							<timebase>24</timebase>
							<ntsc>TRUE</ntsc>
						</rate>
						<start>29832</start>
						<end>29907</end>
						<in>4</in>
						<out>79</out>
						<pproTicksIn>42378336000</pproTicksIn>
						<pproTicksOut>836972136000</pproTicksOut>
						<alphatype>none</alphatype>
						<pixelaspectratio>square</pixelaspectratio>
						<anamorphic>FALSE</anamorphic>
						<file id="file-350">
							<name>TKO_009_VAU_Sh03650.mov</name>
							<pathurl>file://tri-stor01/Projects/TKO/SHOTS/_Refs_Movs_Burnin_FrameCounter/TKO_009_VAU_Sh03650.mov</pathurl>
							<rate>
								<timebase>24</timebase>
								<ntsc>TRUE</ntsc>
							</rate>
							<duration>83</duration>
							<timecode>
								<rate>
									<timebase>24</timebase>
									<ntsc>TRUE</ntsc>
								</rate>
								<string>21:52:30:13</string>
								<frame>1890013</frame>
								<displayformat>NDF</displayformat>
								<reel>
									<name>A0150008</name>
								</reel>
							</timecode>
							<media>
								<video>
									<samplecharacteristics>
										<rate>
											<timebase>24</timebase>
											<ntsc>TRUE</ntsc>
										</rate>
										<width>4096</width>
										<height>2160</height>
										<anamorphic>FALSE</anamorphic>
										<pixelaspectratio>square</pixelaspectratio>
										<fielddominance>none</fielddominance>
									</samplecharacteristics>
								</video>
							</media>
						</file>
						<logginginfo>
							<description></description>
							<scene></scene>
							<shottake></shottake>
							<lognote></lognote>
							<good></good>
							<originalvideofilename></originalvideofilename>
							<originalaudiofilename></originalaudiofilename>
						</logginginfo>
						<colorinfo>
							<lut></lut>
							<lut1></lut1>
							<asc_sop></asc_sop>
							<asc_sat></asc_sat>
							<lut2></lut2>
						</colorinfo>
						<labels>
							<label2>Violet</label2>
						</labels>
					</clipitem>
					<clipitem id="clipitem-354">
						<masterclipid>masterclip-351</masterclipid>
						<name>TKO_009_VAU_Sh03660_MERGED.mov</name>
						<enabled>TRUE</enabled>
						<duration>107</duration>
						<rate>
							<timebase>24</timebase>
							<ntsc>TRUE</ntsc>
						</rate>
						<start>29907</start>
						<end>30006</end>
						<in>4</in>
						<out>103</out>
						<pproTicksIn>42378336000</pproTicksIn>
						<pproTicksOut>1091242152000</pproTicksOut>
						<alphatype>none</alphatype>
						<pixelaspectratio>square</pixelaspectratio>
						<anamorphic>FALSE</anamorphic>
						<file id="file-351">
							<name>TKO_009_VAU_Sh03660_MERGED.mov</name>
							<pathurl>file://tri-stor01/Projects/TKO/SHOTS/_Refs_Movs_Burnin_FrameCounter/TKO_009_VAU_Sh03660_MERGED.mov</pathurl>
							<rate>
								<timebase>24</timebase>
								<ntsc>TRUE</ntsc>
							</rate>
							<duration>107</duration>
							<timecode>
								<rate>
									<timebase>24</timebase>
									<ntsc>TRUE</ntsc>
								</rate>
								<string>00:00:00:00</string>
								<frame>0</frame>
								<displayformat>NDF</displayformat>
							</timecode>
							<media>
								<video>
									<samplecharacteristics>
										<rate>
											<timebase>24</timebase>
											<ntsc>TRUE</ntsc>
										</rate>
										<width>1920</width>
										<height>1080</height>
										<anamorphic>FALSE</anamorphic>
										<pixelaspectratio>square</pixelaspectratio>
										<fielddominance>none</fielddominance>
									</samplecharacteristics>
								</video>
								<audio>
									<samplecharacteristics>
										<depth>16</depth>
										<samplerate>48000</samplerate>
									</samplecharacteristics>
									<channelcount>2</channelcount>
								</audio>
							</media>
						</file>
						<logginginfo>
							<description></description>
							<scene></scene>
							<shottake></shottake>
							<lognote></lognote>
							<good></good>
							<originalvideofilename></originalvideofilename>
							<originalaudiofilename></originalaudiofilename>
						</logginginfo>
						<colorinfo>
							<lut></lut>
							<lut1></lut1>
							<asc_sop></asc_sop>
							<asc_sat></asc_sat>
							<lut2></lut2>
						</colorinfo>
						<labels>
							<label2>Iris</label2>
						</labels>
					</clipitem>
					<clipitem id="clipitem-355">
						<masterclipid>masterclip-352</masterclipid>
						<name>TKO_009_VAU_Sh03670.mov</name>
						<enabled>TRUE</enabled>
						<duration>73</duration>
						<rate>
							<timebase>24</timebase>
							<ntsc>TRUE</ntsc>
						</rate>
						<start>30006</start>
						<end>30071</end>
						<in>4</in>
						<out>69</out>
						<pproTicksIn>42378336000</pproTicksIn>
						<pproTicksOut>731026296000</pproTicksOut>
						<alphatype>none</alphatype>
						<pixelaspectratio>square</pixelaspectratio>
						<anamorphic>FALSE</anamorphic>
						<file id="file-352">
							<name>TKO_009_VAU_Sh03670.mov</name>
							<pathurl>file://tri-stor01/Projects/TKO/SHOTS/_Refs_Movs_Burnin_FrameCounter/TKO_009_VAU_Sh03670.mov</pathurl>
							<rate>
								<timebase>24</timebase>
								<ntsc>TRUE</ntsc>
							</rate>
							<duration>73</duration>
							<timecode>
								<rate>
									<timebase>24</timebase>
									<ntsc>TRUE</ntsc>
								</rate>
								<string>21:43:18:13</string>
								<frame>1876765</frame>
								<displayformat>NDF</displayformat>
								<reel>
									<name>A0150007</name>
								</reel>
							</timecode>
							<media>
								<video>
									<samplecharacteristics>
										<rate>
											<timebase>24</timebase>
											<ntsc>TRUE</ntsc>
										</rate>
										<width>4096</width>
										<height>2160</height>
										<anamorphic>FALSE</anamorphic>
										<pixelaspectratio>square</pixelaspectratio>
										<fielddominance>none</fielddominance>
									</samplecharacteristics>
								</video>
							</media>
						</file>
						<logginginfo>
							<description></description>
							<scene></scene>
							<shottake></shottake>
							<lognote></lognote>
							<good></good>
							<originalvideofilename></originalvideofilename>
							<originalaudiofilename></originalaudiofilename>
						</logginginfo>
						<colorinfo>
							<lut></lut>
							<lut1></lut1>
							<asc_sop></asc_sop>
							<asc_sat></asc_sat>
							<lut2></lut2>
						</colorinfo>
						<labels>
							<label2>Violet</label2>
						</labels>
					</clipitem>
					<clipitem id="clipitem-356">
						<masterclipid>masterclip-353</masterclipid>
						<name>TKO_009_VAU_Sh03680.mov</name>
						<enabled>TRUE</enabled>
						<duration>168</duration>
						<rate>
							<timebase>24</timebase>
							<ntsc>TRUE</ntsc>
						</rate>
						<start>30071</start>
						<end>30231</end>
						<in>4</in>
						<out>164</out>
						<pproTicksIn>42378336000</pproTicksIn>
						<pproTicksOut>1737511776000</pproTicksOut>
						<alphatype>none</alphatype>
						<pixelaspectratio>square</pixelaspectratio>
						<anamorphic>FALSE</anamorphic>
						<file id="file-353">
							<name>TKO_009_VAU_Sh03680.mov</name>
							<pathurl>file://tri-stor01/Projects/TKO/SHOTS/_Refs_Movs_Burnin_FrameCounter/TKO_009_VAU_Sh03680.mov</pathurl>
							<rate>
								<timebase>24</timebase>
								<ntsc>TRUE</ntsc>
							</rate>
							<duration>168</duration>
							<timecode>
								<rate>
									<timebase>24</timebase>
									<ntsc>TRUE</ntsc>
								</rate>
								<string>21:53:35:09</string>
								<frame>1891569</frame>
								<displayformat>NDF</displayformat>
								<reel>
									<name>A0150008</name>
								</reel>
							</timecode>
							<media>
								<video>
									<samplecharacteristics>
										<rate>
											<timebase>24</timebase>
											<ntsc>TRUE</ntsc>
										</rate>
										<width>4096</width>
										<height>2160</height>
										<anamorphic>FALSE</anamorphic>
										<pixelaspectratio>square</pixelaspectratio>
										<fielddominance>none</fielddominance>
									</samplecharacteristics>
								</video>
							</media>
						</file>
						<logginginfo>
							<description></description>
							<scene></scene>
							<shottake></shottake>
							<lognote></lognote>
							<good></good>
							<originalvideofilename></originalvideofilename>
							<originalaudiofilename></originalaudiofilename>
						</logginginfo>
						<colorinfo>
							<lut></lut>
							<lut1></lut1>
							<asc_sop></asc_sop>
							<asc_sat></asc_sat>
							<lut2></lut2>
						</colorinfo>
						<labels>
							<label2>Violet</label2>
						</labels>
					</clipitem>
					<clipitem id="clipitem-357">
						<masterclipid>masterclip-354</masterclipid>
						<name>TKO_009_VAU_Sh03690_Layer02.mov</name>
						<enabled>TRUE</enabled>
						<duration>154</duration>
						<rate>
							<timebase>24</timebase>
							<ntsc>TRUE</ntsc>
						</rate>
						<start>30231</start>
						<end>30377</end>
						<in>4</in>
						<out>150</out>
						<pproTicksIn>42378336000</pproTicksIn>
						<pproTicksOut>1589187600000</pproTicksOut>
						<alphatype>none</alphatype>
						<pixelaspectratio>square</pixelaspectratio>
						<anamorphic>FALSE</anamorphic>
						<file id="file-354">
							<name>TKO_009_VAU_Sh03690_Layer02.mov</name>
							<pathurl>file://localhost/W%3a/TKO/SHOTS/TKO_009_VAU/TKO_009_VAU_Sh03690/PLATES/_Reference/TKO_009_VAU_Sh03690_Layer02.mov</pathurl>
							<rate>
								<timebase>24</timebase>
								<ntsc>TRUE</ntsc>
							</rate>
							<duration>154</duration>
							<timecode>
								<rate>
									<timebase>24</timebase>
									<ntsc>TRUE</ntsc>
								</rate>
								<string>21:53:52:18</string>
								<frame>1891986</frame>
								<displayformat>NDF</displayformat>
								<reel>
									<name>B0120007</name>
								</reel>
							</timecode>
							<media>
								<video>
									<samplecharacteristics>
										<rate>
											<timebase>24</timebase>
											<ntsc>TRUE</ntsc>
										</rate>
										<width>4096</width>
										<height>2160</height>
										<anamorphic>FALSE</anamorphic>
										<pixelaspectratio>square</pixelaspectratio>
										<fielddominance>none</fielddominance>
									</samplecharacteristics>
								</video>
							</media>
						</file>
						<logginginfo>
							<description></description>
							<scene></scene>
							<shottake></shottake>
							<lognote></lognote>
							<good></good>
							<originalvideofilename></originalvideofilename>
							<originalaudiofilename></originalaudiofilename>
						</logginginfo>
						<colorinfo>
							<lut></lut>
							<lut1></lut1>
							<asc_sop></asc_sop>
							<asc_sat></asc_sat>
							<lut2></lut2>
						</colorinfo>
						<labels>
							<label2>Violet</label2>
						</labels>
					</clipitem>
					<clipitem id="clipitem-358">
						<masterclipid>masterclip-355</masterclipid>
						<name>TKO_009_VAU_Sh03695.mov</name>
						<enabled>TRUE</enabled>
						<duration>85</duration>
						<rate>
							<timebase>24</timebase>
							<ntsc>TRUE</ntsc>
						</rate>
						<start>30377</start>
						<end>30454</end>
						<in>4</in>
						<out>81</out>
						<pproTicksIn>42378336000</pproTicksIn>
						<pproTicksOut>858161304000</pproTicksOut>
						<alphatype>none</alphatype>
						<pixelaspectratio>square</pixelaspectratio>
						<anamorphic>FALSE</anamorphic>
						<file id="file-355">
							<name>TKO_009_VAU_Sh03695.mov</name>
							<pathurl>file://localhost/W%3a/TKO/SHOTS/TKO_009_VAU/TKO_009_VAU_Sh03695/PLATES/TKO_009_VAU_Sh03695.mov</pathurl>
							<rate>
								<timebase>24</timebase>
								<ntsc>TRUE</ntsc>
							</rate>
							<duration>85</duration>
							<timecode>
								<rate>
									<timebase>24</timebase>
									<ntsc>TRUE</ntsc>
								</rate>
								<string>01:22:33:08</string>
								<frame>118880</frame>
								<displayformat>NDF</displayformat>
							</timecode>
							<media>
								<video>
									<samplecharacteristics>
										<rate>
											<timebase>24</timebase>
											<ntsc>TRUE</ntsc>
										</rate>
										<width>4096</width>
										<height>2160</height>
										<anamorphic>FALSE</anamorphic>
										<pixelaspectratio>square</pixelaspectratio>
										<fielddominance>none</fielddominance>
									</samplecharacteristics>
								</video>
								<audio>
									<samplecharacteristics>
										<depth>16</depth>
										<samplerate>48000</samplerate>
									</samplecharacteristics>
									<channelcount>2</channelcount>
								</audio>
							</media>
						</file>
						<logginginfo>
							<description></description>
							<scene></scene>
							<shottake></shottake>
							<lognote></lognote>
							<good></good>
							<originalvideofilename></originalvideofilename>
							<originalaudiofilename></originalaudiofilename>
						</logginginfo>
						<colorinfo>
							<lut></lut>
							<lut1></lut1>
							<asc_sop></asc_sop>
							<asc_sat></asc_sat>
							<lut2></lut2>
						</colorinfo>
						<labels>
							<label2>Iris</label2>
						</labels>
					</clipitem>
					<clipitem id="clipitem-359">
						<masterclipid>masterclip-356</masterclipid>
						<name>TKO_009_VAU_Sh03700_MERGED.mov</name>
						<enabled>TRUE</enabled>
						<duration>160</duration>
						<rate>
							<timebase>24</timebase>
							<ntsc>TRUE</ntsc>
						</rate>
						<start>30454</start>
						<end>30606</end>
						<in>4</in>
						<out>156</out>
						<pproTicksIn>42378336000</pproTicksIn>
						<pproTicksOut>1652755104000</pproTicksOut>
						<alphatype>none</alphatype>
						<pixelaspectratio>square</pixelaspectratio>
						<anamorphic>FALSE</anamorphic>
						<file id="file-356">
							<name>TKO_009_VAU_Sh03700_MERGED.mov</name>
							<pathurl>file://tri-stor01/Projects/TKO/SHOTS/_Refs_Movs_Burnin_FrameCounter/TKO_009_VAU_Sh03700_MERGED.mov</pathurl>
							<rate>
								<timebase>24</timebase>
								<ntsc>TRUE</ntsc>
							</rate>
							<duration>160</duration>
							<timecode>
								<rate>
									<timebase>24</timebase>
									<ntsc>TRUE</ntsc>
								</rate>
								<string>00:00:00:00</string>
								<frame>0</frame>
								<displayformat>NDF</displayformat>
							</timecode>
							<media>
								<video>
									<samplecharacteristics>
										<rate>
											<timebase>24</timebase>
											<ntsc>TRUE</ntsc>
										</rate>
										<width>1920</width>
										<height>1080</height>
										<anamorphic>FALSE</anamorphic>
										<pixelaspectratio>square</pixelaspectratio>
										<fielddominance>none</fielddominance>
									</samplecharacteristics>
								</video>
								<audio>
									<samplecharacteristics>
										<depth>16</depth>
										<samplerate>48000</samplerate>
									</samplecharacteristics>
									<channelcount>2</channelcount>
								</audio>
							</media>
						</file>
						<logginginfo>
							<description></description>
							<scene></scene>
							<shottake></shottake>
							<lognote></lognote>
							<good></good>
							<originalvideofilename></originalvideofilename>
							<originalaudiofilename></originalaudiofilename>
						</logginginfo>
						<colorinfo>
							<lut></lut>
							<lut1></lut1>
							<asc_sop></asc_sop>
							<asc_sat></asc_sat>
							<lut2></lut2>
						</colorinfo>
						<labels>
							<label2>Iris</label2>
						</labels>
					</clipitem>
					<clipitem id="clipitem-360">
						<masterclipid>masterclip-357</masterclipid>
						<name>TKO_009_VAU_Sh03710.mov</name>
						<enabled>TRUE</enabled>
						<duration>75</duration>
						<rate>
							<timebase>24</timebase>
							<ntsc>TRUE</ntsc>
						</rate>
						<start>30606</start>
						<end>30673</end>
						<in>4</in>
						<out>71</out>
						<pproTicksIn>42378336000</pproTicksIn>
						<pproTicksOut>752215464000</pproTicksOut>
						<alphatype>none</alphatype>
						<pixelaspectratio>square</pixelaspectratio>
						<anamorphic>FALSE</anamorphic>
						<file id="file-357">
							<name>TKO_009_VAU_Sh03710.mov</name>
							<pathurl>file://tri-stor01/Projects/TKO/SHOTS/_Refs_Movs_Burnin_FrameCounter/TKO_009_VAU_Sh03710.mov</pathurl>
							<rate>
								<timebase>24</timebase>
								<ntsc>TRUE</ntsc>
							</rate>
							<duration>75</duration>
							<timecode>
								<rate>
									<timebase>24</timebase>
									<ntsc>TRUE</ntsc>
								</rate>
								<string>21:55:50:21</string>
								<frame>1894821</frame>
								<displayformat>NDF</displayformat>
								<reel>
									<name>A0150008</name>
								</reel>
							</timecode>
							<media>
								<video>
									<samplecharacteristics>
										<rate>
											<timebase>24</timebase>
											<ntsc>TRUE</ntsc>
										</rate>
										<width>4096</width>
										<height>2160</height>
										<anamorphic>FALSE</anamorphic>
										<pixelaspectratio>square</pixelaspectratio>
										<fielddominance>none</fielddominance>
									</samplecharacteristics>
								</video>
							</media>
						</file>
						<logginginfo>
							<description></description>
							<scene></scene>
							<shottake></shottake>
							<lognote></lognote>
							<good></good>
							<originalvideofilename></originalvideofilename>
							<originalaudiofilename></originalaudiofilename>
						</logginginfo>
						<colorinfo>
							<lut></lut>
							<lut1></lut1>
							<asc_sop></asc_sop>
							<asc_sat></asc_sat>
							<lut2></lut2>
						</colorinfo>
						<labels>
							<label2>Violet</label2>
						</labels>
					</clipitem>
					<clipitem id="clipitem-361">
						<masterclipid>masterclip-358</masterclipid>
						<name>TKO_009_VAU_Sh03720.mov</name>
						<enabled>TRUE</enabled>
						<duration>88</duration>
						<rate>
							<timebase>24</timebase>
							<ntsc>TRUE</ntsc>
						</rate>
						<start>30673</start>
						<end>30753</end>
						<in>4</in>
						<out>84</out>
						<pproTicksIn>42378336000</pproTicksIn>
						<pproTicksOut>889945056000</pproTicksOut>
						<alphatype>none</alphatype>
						<pixelaspectratio>square</pixelaspectratio>
						<anamorphic>FALSE</anamorphic>
						<file id="file-358">
							<name>TKO_009_VAU_Sh03720.mov</name>
							<pathurl>file://tri-stor01/Projects/TKO/SHOTS/_Refs_Movs_Burnin_FrameCounter/TKO_009_VAU_Sh03720.mov</pathurl>
							<rate>
								<timebase>24</timebase>
								<ntsc>TRUE</ntsc>
							</rate>
							<duration>88</duration>
							<timecode>
								<rate>
									<timebase>24</timebase>
									<ntsc>TRUE</ntsc>
								</rate>
								<string>22:12:50:23</string>
								<frame>1919303</frame>
								<displayformat>NDF</displayformat>
								<reel>
									<name>B0120009</name>
								</reel>
							</timecode>
							<media>
								<video>
									<samplecharacteristics>
										<rate>
											<timebase>24</timebase>
											<ntsc>TRUE</ntsc>
										</rate>
										<width>4096</width>
										<height>2160</height>
										<anamorphic>FALSE</anamorphic>
										<pixelaspectratio>square</pixelaspectratio>
										<fielddominance>none</fielddominance>
									</samplecharacteristics>
								</video>
							</media>
						</file>
						<logginginfo>
							<description></description>
							<scene></scene>
							<shottake></shottake>
							<lognote></lognote>
							<good></good>
							<originalvideofilename></originalvideofilename>
							<originalaudiofilename></originalaudiofilename>
						</logginginfo>
						<colorinfo>
							<lut></lut>
							<lut1></lut1>
							<asc_sop></asc_sop>
							<asc_sat></asc_sat>
							<lut2></lut2>
						</colorinfo>
						<labels>
							<label2>Violet</label2>
						</labels>
					</clipitem>
					<clipitem id="clipitem-362">
						<masterclipid>masterclip-359</masterclipid>
						<name>TKO_009_VAU_Sh03730.mov</name>
						<enabled>TRUE</enabled>
						<duration>75</duration>
						<rate>
							<timebase>24</timebase>
							<ntsc>TRUE</ntsc>
						</rate>
						<start>30753</start>
						<end>30820</end>
						<in>4</in>
						<out>71</out>
						<pproTicksIn>42378336000</pproTicksIn>
						<pproTicksOut>752215464000</pproTicksOut>
						<alphatype>none</alphatype>
						<pixelaspectratio>square</pixelaspectratio>
						<anamorphic>FALSE</anamorphic>
						<file id="file-359">
							<name>TKO_009_VAU_Sh03730.mov</name>
							<pathurl>file://tri-stor01/Projects/TKO/SHOTS/_Refs_Movs_Burnin_FrameCounter/TKO_009_VAU_Sh03730.mov</pathurl>
							<rate>
								<timebase>24</timebase>
								<ntsc>TRUE</ntsc>
							</rate>
							<duration>75</duration>
							<timecode>
								<rate>
									<timebase>24</timebase>
									<ntsc>TRUE</ntsc>
								</rate>
								<string>22:12:54:07</string>
								<frame>1919383</frame>
								<displayformat>NDF</displayformat>
								<reel>
									<name>A0150010</name>
								</reel>
							</timecode>
							<media>
								<video>
									<samplecharacteristics>
										<rate>
											<timebase>24</timebase>
											<ntsc>TRUE</ntsc>
										</rate>
										<width>4096</width>
										<height>2160</height>
										<anamorphic>FALSE</anamorphic>
										<pixelaspectratio>square</pixelaspectratio>
										<fielddominance>none</fielddominance>
									</samplecharacteristics>
								</video>
							</media>
						</file>
						<logginginfo>
							<description></description>
							<scene></scene>
							<shottake></shottake>
							<lognote></lognote>
							<good></good>
							<originalvideofilename></originalvideofilename>
							<originalaudiofilename></originalaudiofilename>
						</logginginfo>
						<colorinfo>
							<lut></lut>
							<lut1></lut1>
							<asc_sop></asc_sop>
							<asc_sat></asc_sat>
							<lut2></lut2>
						</colorinfo>
						<labels>
							<label2>Violet</label2>
						</labels>
					</clipitem>
					<clipitem id="clipitem-363">
						<masterclipid>masterclip-360</masterclipid>
						<name>TKO_009_VAU_Sh03740.mov</name>
						<enabled>TRUE</enabled>
						<duration>129</duration>
						<rate>
							<timebase>24</timebase>
							<ntsc>TRUE</ntsc>
						</rate>
						<start>30820</start>
						<end>30941</end>
						<in>4</in>
						<out>125</out>
						<pproTicksIn>42378336000</pproTicksIn>
						<pproTicksOut>1324323000000</pproTicksOut>
						<alphatype>none</alphatype>
						<pixelaspectratio>square</pixelaspectratio>
						<anamorphic>FALSE</anamorphic>
						<file id="file-360">
							<name>TKO_009_VAU_Sh03740.mov</name>
							<pathurl>file://tri-stor01/Projects/TKO/SHOTS/_Refs_Movs_Burnin_FrameCounter/TKO_009_VAU_Sh03740.mov</pathurl>
							<rate>
								<timebase>24</timebase>
								<ntsc>TRUE</ntsc>
							</rate>
							<duration>129</duration>
							<timecode>
								<rate>
									<timebase>24</timebase>
									<ntsc>TRUE</ntsc>
								</rate>
								<string>13:38:53:10</string>
								<frame>1179202</frame>
								<displayformat>NDF</displayformat>
								<reel>
									<name>A0540013</name>
								</reel>
							</timecode>
							<media>
								<video>
									<samplecharacteristics>
										<rate>
											<timebase>24</timebase>
											<ntsc>TRUE</ntsc>
										</rate>
										<width>4096</width>
										<height>2160</height>
										<anamorphic>FALSE</anamorphic>
										<pixelaspectratio>square</pixelaspectratio>
										<fielddominance>none</fielddominance>
									</samplecharacteristics>
								</video>
							</media>
						</file>
						<logginginfo>
							<description></description>
							<scene></scene>
							<shottake></shottake>
							<lognote></lognote>
							<good></good>
							<originalvideofilename></originalvideofilename>
							<originalaudiofilename></originalaudiofilename>
						</logginginfo>
						<colorinfo>
							<lut></lut>
							<lut1></lut1>
							<asc_sop></asc_sop>
							<asc_sat></asc_sat>
							<lut2></lut2>
						</colorinfo>
						<labels>
							<label2>Violet</label2>
						</labels>
					</clipitem>
					<clipitem id="clipitem-364">
						<masterclipid>masterclip-361</masterclipid>
						<name>TKO_009_VAU_Sh03750.mov</name>
						<enabled>TRUE</enabled>
						<duration>109</duration>
						<rate>
							<timebase>24</timebase>
							<ntsc>TRUE</ntsc>
						</rate>
						<start>30941</start>
						<end>31042</end>
						<in>4</in>
						<out>105</out>
						<pproTicksIn>42378336000</pproTicksIn>
						<pproTicksOut>1112431320000</pproTicksOut>
						<alphatype>none</alphatype>
						<pixelaspectratio>square</pixelaspectratio>
						<anamorphic>FALSE</anamorphic>
						<file id="file-361">
							<name>TKO_009_VAU_Sh03750.mov</name>
							<pathurl>file://tri-stor01/Projects/TKO/SHOTS/_Refs_Movs_Burnin_FrameCounter/TKO_009_VAU_Sh03750.mov</pathurl>
							<rate>
								<timebase>24</timebase>
								<ntsc>TRUE</ntsc>
							</rate>
							<duration>109</duration>
							<timecode>
								<rate>
									<timebase>24</timebase>
									<ntsc>TRUE</ntsc>
								</rate>
								<string>09:00:04:20</string>
								<frame>777716</frame>
								<displayformat>NDF</displayformat>
								<reel>
									<name>A0010003</name>
								</reel>
							</timecode>
							<media>
								<video>
									<samplecharacteristics>
										<rate>
											<timebase>24</timebase>
											<ntsc>TRUE</ntsc>
										</rate>
										<width>4096</width>
										<height>2160</height>
										<anamorphic>FALSE</anamorphic>
										<pixelaspectratio>square</pixelaspectratio>
										<fielddominance>none</fielddominance>
									</samplecharacteristics>
								</video>
							</media>
						</file>
						<logginginfo>
							<description></description>
							<scene></scene>
							<shottake></shottake>
							<lognote></lognote>
							<good></good>
							<originalvideofilename></originalvideofilename>
							<originalaudiofilename></originalaudiofilename>
						</logginginfo>
						<colorinfo>
							<lut></lut>
							<lut1></lut1>
							<asc_sop></asc_sop>
							<asc_sat></asc_sat>
							<lut2></lut2>
						</colorinfo>
						<labels>
							<label2>Violet</label2>
						</labels>
					</clipitem>
					<clipitem id="clipitem-365">
						<masterclipid>masterclip-362</masterclipid>
						<name>TKO_009_VAU_Sh03760.mov</name>
						<enabled>TRUE</enabled>
						<duration>62</duration>
						<rate>
							<timebase>24</timebase>
							<ntsc>TRUE</ntsc>
						</rate>
						<start>31042</start>
						<end>31096</end>
						<in>4</in>
						<out>58</out>
						<pproTicksIn>42378336000</pproTicksIn>
						<pproTicksOut>614485872000</pproTicksOut>
						<alphatype>none</alphatype>
						<pixelaspectratio>square</pixelaspectratio>
						<anamorphic>FALSE</anamorphic>
						<file id="file-362">
							<name>TKO_009_VAU_Sh03760.mov</name>
							<pathurl>file://tri-stor01/Projects/TKO/SHOTS/_Refs_Movs_Burnin_FrameCounter/TKO_009_VAU_Sh03760.mov</pathurl>
							<rate>
								<timebase>24</timebase>
								<ntsc>TRUE</ntsc>
							</rate>
							<duration>62</duration>
							<timecode>
								<rate>
									<timebase>24</timebase>
									<ntsc>TRUE</ntsc>
								</rate>
								<string>10:11:02:08</string>
								<frame>879896</frame>
								<displayformat>NDF</displayformat>
								<reel>
									<name>A0010012</name>
								</reel>
							</timecode>
							<media>
								<video>
									<samplecharacteristics>
										<rate>
											<timebase>24</timebase>
											<ntsc>TRUE</ntsc>
										</rate>
										<width>4096</width>
										<height>2160</height>
										<anamorphic>FALSE</anamorphic>
										<pixelaspectratio>square</pixelaspectratio>
										<fielddominance>none</fielddominance>
									</samplecharacteristics>
								</video>
							</media>
						</file>
						<logginginfo>
							<description></description>
							<scene></scene>
							<shottake></shottake>
							<lognote></lognote>
							<good></good>
							<originalvideofilename></originalvideofilename>
							<originalaudiofilename></originalaudiofilename>
						</logginginfo>
						<colorinfo>
							<lut></lut>
							<lut1></lut1>
							<asc_sop></asc_sop>
							<asc_sat></asc_sat>
							<lut2></lut2>
						</colorinfo>
						<labels>
							<label2>Violet</label2>
						</labels>
					</clipitem>
					<clipitem id="clipitem-366">
						<masterclipid>masterclip-363</masterclipid>
						<name>TKO_009_VAU_Sh03770_V02.mov</name>
						<enabled>TRUE</enabled>
						<duration>56</duration>
						<rate>
							<timebase>24</timebase>
							<ntsc>TRUE</ntsc>
						</rate>
						<start>31096</start>
						<end>31130</end>
						<in>18</in>
						<out>52</out>
						<pproTicksIn>190702512000</pproTicksIn>
						<pproTicksOut>550918368000</pproTicksOut>
						<alphatype>none</alphatype>
						<pixelaspectratio>square</pixelaspectratio>
						<anamorphic>FALSE</anamorphic>
						<file id="file-363">
							<name>TKO_009_VAU_Sh03770_V02.mov</name>
							<pathurl>file://tri-stor01/Projects/TKO/SHOTS/_Refs_Movs_Burnin_FrameCounter/TKO_009_VAU_Sh03770_V02.mov</pathurl>
							<rate>
								<timebase>24</timebase>
								<ntsc>TRUE</ntsc>
							</rate>
							<duration>56</duration>
							<timecode>
								<rate>
									<timebase>24</timebase>
									<ntsc>TRUE</ntsc>
								</rate>
								<string>10:11:04:14</string>
								<frame>879950</frame>
								<displayformat>NDF</displayformat>
								<reel>
									<name>B0010015</name>
								</reel>
							</timecode>
							<media>
								<video>
									<samplecharacteristics>
										<rate>
											<timebase>24</timebase>
											<ntsc>TRUE</ntsc>
										</rate>
										<width>4096</width>
										<height>2160</height>
										<anamorphic>FALSE</anamorphic>
										<pixelaspectratio>square</pixelaspectratio>
										<fielddominance>none</fielddominance>
									</samplecharacteristics>
								</video>
							</media>
						</file>
						<logginginfo>
							<description></description>
							<scene></scene>
							<shottake></shottake>
							<lognote></lognote>
							<good></good>
							<originalvideofilename></originalvideofilename>
							<originalaudiofilename></originalaudiofilename>
						</logginginfo>
						<colorinfo>
							<lut></lut>
							<lut1></lut1>
							<asc_sop></asc_sop>
							<asc_sat></asc_sat>
							<lut2></lut2>
						</colorinfo>
						<labels>
							<label2>Violet</label2>
						</labels>
					</clipitem>
					<clipitem id="clipitem-367">
						<masterclipid>masterclip-364</masterclipid>
						<name>TKO_009_VAU_Sh03780.mov</name>
						<enabled>TRUE</enabled>
						<duration>73</duration>
						<rate>
							<timebase>24</timebase>
							<ntsc>TRUE</ntsc>
						</rate>
						<start>31130</start>
						<end>31195</end>
						<in>4</in>
						<out>69</out>
						<pproTicksIn>42378336000</pproTicksIn>
						<pproTicksOut>731026296000</pproTicksOut>
						<alphatype>none</alphatype>
						<pixelaspectratio>square</pixelaspectratio>
						<anamorphic>FALSE</anamorphic>
						<file id="file-364">
							<name>TKO_009_VAU_Sh03780.mov</name>
							<pathurl>file://tri-stor01/Projects/TKO/SHOTS/_Refs_Movs_Burnin_FrameCounter/TKO_009_VAU_Sh03780.mov</pathurl>
							<rate>
								<timebase>24</timebase>
								<ntsc>TRUE</ntsc>
							</rate>
							<duration>73</duration>
							<timecode>
								<rate>
									<timebase>24</timebase>
									<ntsc>TRUE</ntsc>
								</rate>
								<string>10:11:06:14</string>
								<frame>879998</frame>
								<displayformat>NDF</displayformat>
								<reel>
									<name>A0010012</name>
								</reel>
							</timecode>
							<media>
								<video>
									<samplecharacteristics>
										<rate>
											<timebase>24</timebase>
											<ntsc>TRUE</ntsc>
										</rate>
										<width>4096</width>
										<height>2160</height>
										<anamorphic>FALSE</anamorphic>
										<pixelaspectratio>square</pixelaspectratio>
										<fielddominance>none</fielddominance>
									</samplecharacteristics>
								</video>
							</media>
						</file>
						<logginginfo>
							<description></description>
							<scene></scene>
							<shottake></shottake>
							<lognote></lognote>
							<good></good>
							<originalvideofilename></originalvideofilename>
							<originalaudiofilename></originalaudiofilename>
						</logginginfo>
						<colorinfo>
							<lut></lut>
							<lut1></lut1>
							<asc_sop></asc_sop>
							<asc_sat></asc_sat>
							<lut2></lut2>
						</colorinfo>
						<labels>
							<label2>Violet</label2>
						</labels>
					</clipitem>
					<clipitem id="clipitem-368">
						<masterclipid>masterclip-365</masterclipid>
						<name>TKO_009_VAU_Sh03790_V02.mov</name>
						<enabled>TRUE</enabled>
						<duration>63</duration>
						<rate>
							<timebase>24</timebase>
							<ntsc>TRUE</ntsc>
						</rate>
						<start>31195</start>
						<end>31236</end>
						<in>18</in>
						<out>59</out>
						<pproTicksIn>190702512000</pproTicksIn>
						<pproTicksOut>625080456000</pproTicksOut>
						<alphatype>none</alphatype>
						<pixelaspectratio>square</pixelaspectratio>
						<anamorphic>FALSE</anamorphic>
						<file id="file-365">
							<name>TKO_009_VAU_Sh03790_V02.mov</name>
							<pathurl>file://tri-stor01/Projects/TKO/SHOTS/_Refs_Movs_Burnin_FrameCounter/TKO_009_VAU_Sh03790_V02.mov</pathurl>
							<rate>
								<timebase>24</timebase>
								<ntsc>TRUE</ntsc>
							</rate>
							<duration>63</duration>
							<timecode>
								<rate>
									<timebase>24</timebase>
									<ntsc>TRUE</ntsc>
								</rate>
								<string>10:11:09:07</string>
								<frame>880063</frame>
								<displayformat>NDF</displayformat>
								<reel>
									<name>B0010015</name>
								</reel>
							</timecode>
							<media>
								<video>
									<samplecharacteristics>
										<rate>
											<timebase>24</timebase>
											<ntsc>TRUE</ntsc>
										</rate>
										<width>4096</width>
										<height>2160</height>
										<anamorphic>FALSE</anamorphic>
										<pixelaspectratio>square</pixelaspectratio>
										<fielddominance>none</fielddominance>
									</samplecharacteristics>
								</video>
							</media>
						</file>
						<logginginfo>
							<description></description>
							<scene></scene>
							<shottake></shottake>
							<lognote></lognote>
							<good></good>
							<originalvideofilename></originalvideofilename>
							<originalaudiofilename></originalaudiofilename>
						</logginginfo>
						<colorinfo>
							<lut></lut>
							<lut1></lut1>
							<asc_sop></asc_sop>
							<asc_sat></asc_sat>
							<lut2></lut2>
						</colorinfo>
						<labels>
							<label2>Violet</label2>
						</labels>
					</clipitem>
					<clipitem id="clipitem-369">
						<masterclipid>masterclip-366</masterclipid>
						<name>TKO_009_VAU_Sh03800.mov</name>
						<enabled>TRUE</enabled>
						<duration>82</duration>
						<rate>
							<timebase>24</timebase>
							<ntsc>TRUE</ntsc>
						</rate>
						<start>31236</start>
						<end>31310</end>
						<in>4</in>
						<out>78</out>
						<pproTicksIn>42378336000</pproTicksIn>
						<pproTicksOut>826377552000</pproTicksOut>
						<alphatype>none</alphatype>
						<pixelaspectratio>square</pixelaspectratio>
						<anamorphic>FALSE</anamorphic>
						<file id="file-366">
							<name>TKO_009_VAU_Sh03800.mov</name>
							<pathurl>file://tri-stor01/Projects/TKO/SHOTS/_Refs_Movs_Burnin_FrameCounter/TKO_009_VAU_Sh03800.mov</pathurl>
							<rate>
								<timebase>24</timebase>
								<ntsc>TRUE</ntsc>
							</rate>
							<duration>82</duration>
							<timecode>
								<rate>
									<timebase>24</timebase>
									<ntsc>TRUE</ntsc>
								</rate>
								<string>10:11:11:14</string>
								<frame>880118</frame>
								<displayformat>NDF</displayformat>
								<reel>
									<name>A0010012</name>
								</reel>
							</timecode>
							<media>
								<video>
									<samplecharacteristics>
										<rate>
											<timebase>24</timebase>
											<ntsc>TRUE</ntsc>
										</rate>
										<width>4096</width>
										<height>2160</height>
										<anamorphic>FALSE</anamorphic>
										<pixelaspectratio>square</pixelaspectratio>
										<fielddominance>none</fielddominance>
									</samplecharacteristics>
								</video>
							</media>
						</file>
						<logginginfo>
							<description></description>
							<scene></scene>
							<shottake></shottake>
							<lognote></lognote>
							<good></good>
							<originalvideofilename></originalvideofilename>
							<originalaudiofilename></originalaudiofilename>
						</logginginfo>
						<colorinfo>
							<lut></lut>
							<lut1></lut1>
							<asc_sop></asc_sop>
							<asc_sat></asc_sat>
							<lut2></lut2>
						</colorinfo>
						<labels>
							<label2>Violet</label2>
						</labels>
					</clipitem>
					<clipitem id="clipitem-370">
						<masterclipid>masterclip-367</masterclipid>
						<name>TKO_009_VAU_Sh03810.mov</name>
						<enabled>TRUE</enabled>
						<duration>63</duration>
						<rate>
							<timebase>24</timebase>
							<ntsc>TRUE</ntsc>
						</rate>
						<start>31310</start>
						<end>31365</end>
						<in>4</in>
						<out>59</out>
						<pproTicksIn>42378336000</pproTicksIn>
						<pproTicksOut>625080456000</pproTicksOut>
						<alphatype>none</alphatype>
						<pixelaspectratio>square</pixelaspectratio>
						<anamorphic>FALSE</anamorphic>
						<file id="file-367">
							<name>TKO_009_VAU_Sh03810_TrueFrameCount.mov</name>
							<pathurl>file://tri-stor01/Projects/TKO/SHOTS/TKO_009_VAU/TKO_009_VAU_Sh03810/PLATES/_Reference/TKO_009_VAU_Sh03810_TrueFrameCount.mov</pathurl>
							<rate>
								<timebase>24</timebase>
								<ntsc>TRUE</ntsc>
							</rate>
							<duration>63</duration>
							<timecode>
								<rate>
									<timebase>24</timebase>
									<ntsc>TRUE</ntsc>
								</rate>
								<string>02:05:01:11</string>
								<frame>180035</frame>
								<displayformat>NDF</displayformat>
							</timecode>
							<media>
								<video>
									<samplecharacteristics>
										<rate>
											<timebase>24</timebase>
											<ntsc>TRUE</ntsc>
										</rate>
										<width>4096</width>
										<height>2160</height>
										<anamorphic>FALSE</anamorphic>
										<pixelaspectratio>square</pixelaspectratio>
										<fielddominance>none</fielddominance>
									</samplecharacteristics>
								</video>
								<audio>
									<samplecharacteristics>
										<depth>16</depth>
										<samplerate>48000</samplerate>
									</samplecharacteristics>
									<channelcount>2</channelcount>
								</audio>
							</media>
						</file>
						<logginginfo>
							<description></description>
							<scene></scene>
							<shottake></shottake>
							<lognote></lognote>
							<good></good>
							<originalvideofilename></originalvideofilename>
							<originalaudiofilename></originalaudiofilename>
						</logginginfo>
						<colorinfo>
							<lut></lut>
							<lut1></lut1>
							<asc_sop></asc_sop>
							<asc_sat></asc_sat>
							<lut2></lut2>
						</colorinfo>
						<labels>
							<label2>Iris</label2>
						</labels>
					</clipitem>
					<clipitem id="clipitem-371">
						<masterclipid>masterclip-368</masterclipid>
						<name>TKO_009_VAU_Sh03820.mov</name>
						<enabled>TRUE</enabled>
						<duration>108</duration>
						<rate>
							<timebase>24</timebase>
							<ntsc>TRUE</ntsc>
						</rate>
						<start>31365</start>
						<end>31465</end>
						<in>4</in>
						<out>104</out>
						<pproTicksIn>42378336000</pproTicksIn>
						<pproTicksOut>1101836736000</pproTicksOut>
						<alphatype>none</alphatype>
						<pixelaspectratio>square</pixelaspectratio>
						<anamorphic>FALSE</anamorphic>
						<file id="file-368">
							<name>TKO_009_VAU_Sh03820.mov</name>
							<pathurl>file://tri-stor01/Projects/TKO/SHOTS/_Refs_Movs_Burnin_FrameCounter/TKO_009_VAU_Sh03820.mov</pathurl>
							<rate>
								<timebase>24</timebase>
								<ntsc>TRUE</ntsc>
							</rate>
							<duration>108</duration>
							<timecode>
								<rate>
									<timebase>24</timebase>
									<ntsc>TRUE</ntsc>
								</rate>
								<string>10:21:01:10</string>
								<frame>894274</frame>
								<displayformat>NDF</displayformat>
								<reel>
									<name>B0010016</name>
								</reel>
							</timecode>
							<media>
								<video>
									<samplecharacteristics>
										<rate>
											<timebase>24</timebase>
											<ntsc>TRUE</ntsc>
										</rate>
										<width>4096</width>
										<height>2160</height>
										<anamorphic>FALSE</anamorphic>
										<pixelaspectratio>square</pixelaspectratio>
										<fielddominance>none</fielddominance>
									</samplecharacteristics>
								</video>
							</media>
						</file>
						<logginginfo>
							<description></description>
							<scene></scene>
							<shottake></shottake>
							<lognote></lognote>
							<good></good>
							<originalvideofilename></originalvideofilename>
							<originalaudiofilename></originalaudiofilename>
						</logginginfo>
						<colorinfo>
							<lut></lut>
							<lut1></lut1>
							<asc_sop></asc_sop>
							<asc_sat></asc_sat>
							<lut2></lut2>
						</colorinfo>
						<labels>
							<label2>Violet</label2>
						</labels>
					</clipitem>
					<clipitem id="clipitem-372">
						<masterclipid>masterclip-369</masterclipid>
						<name>TKO_009_VAU_Sh03830.mov</name>
						<enabled>TRUE</enabled>
						<duration>147</duration>
						<rate>
							<timebase>24</timebase>
							<ntsc>TRUE</ntsc>
						</rate>
						<start>31465</start>
						<end>31604</end>
						<in>4</in>
						<out>143</out>
						<pproTicksIn>42378336000</pproTicksIn>
						<pproTicksOut>1515025512000</pproTicksOut>
						<alphatype>none</alphatype>
						<pixelaspectratio>square</pixelaspectratio>
						<anamorphic>FALSE</anamorphic>
						<file id="file-369">
							<name>TKO_009_VAU_Sh03830.mov</name>
							<pathurl>file://tri-stor01/Projects/TKO/SHOTS/_Refs_Movs_Burnin_FrameCounter/TKO_009_VAU_Sh03830.mov</pathurl>
							<rate>
								<timebase>24</timebase>
								<ntsc>TRUE</ntsc>
							</rate>
							<duration>147</duration>
							<timecode>
								<rate>
									<timebase>24</timebase>
									<ntsc>TRUE</ntsc>
								</rate>
								<string>10:11:20:19</string>
								<frame>880339</frame>
								<displayformat>NDF</displayformat>
								<reel>
									<name>A0010012</name>
								</reel>
							</timecode>
							<media>
								<video>
									<samplecharacteristics>
										<rate>
											<timebase>24</timebase>
											<ntsc>TRUE</ntsc>
										</rate>
										<width>4096</width>
										<height>2160</height>
										<anamorphic>FALSE</anamorphic>
										<pixelaspectratio>square</pixelaspectratio>
										<fielddominance>none</fielddominance>
									</samplecharacteristics>
								</video>
							</media>
						</file>
						<logginginfo>
							<description></description>
							<scene></scene>
							<shottake></shottake>
							<lognote></lognote>
							<good></good>
							<originalvideofilename></originalvideofilename>
							<originalaudiofilename></originalaudiofilename>
						</logginginfo>
						<colorinfo>
							<lut></lut>
							<lut1></lut1>
							<asc_sop></asc_sop>
							<asc_sat></asc_sat>
							<lut2></lut2>
						</colorinfo>
						<labels>
							<label2>Violet</label2>
						</labels>
					</clipitem>
					<clipitem id="clipitem-373">
						<masterclipid>masterclip-370</masterclipid>
						<name>TKO_009_VAU_Sh03840_V02.mov</name>
						<enabled>TRUE</enabled>
						<duration>103</duration>
						<rate>
							<timebase>24</timebase>
							<ntsc>TRUE</ntsc>
						</rate>
						<start>31604</start>
						<end>31685</end>
						<in>17</in>
						<out>99</out>
						<pproTicksIn>180107928000</pproTicksIn>
						<pproTicksOut>1048863816000</pproTicksOut>
						<alphatype>none</alphatype>
						<pixelaspectratio>square</pixelaspectratio>
						<anamorphic>FALSE</anamorphic>
						<file id="file-370">
							<name>TKO_009_VAU_Sh03840_V02.mov</name>
							<pathurl>file://tri-stor01/Projects/TKO/SHOTS/_Refs_Movs_Burnin_FrameCounter/TKO_009_VAU_Sh03840_V02.mov</pathurl>
							<rate>
								<timebase>24</timebase>
								<ntsc>TRUE</ntsc>
							</rate>
							<duration>103</duration>
							<timecode>
								<rate>
									<timebase>24</timebase>
									<ntsc>TRUE</ntsc>
								</rate>
								<string>10:11:26:14</string>
								<frame>880478</frame>
								<displayformat>NDF</displayformat>
								<reel>
									<name>B0010015</name>
								</reel>
							</timecode>
							<media>
								<video>
									<samplecharacteristics>
										<rate>
											<timebase>24</timebase>
											<ntsc>TRUE</ntsc>
										</rate>
										<width>4096</width>
										<height>2160</height>
										<anamorphic>FALSE</anamorphic>
										<pixelaspectratio>square</pixelaspectratio>
										<fielddominance>none</fielddominance>
									</samplecharacteristics>
								</video>
							</media>
						</file>
						<logginginfo>
							<description></description>
							<scene></scene>
							<shottake></shottake>
							<lognote></lognote>
							<good></good>
							<originalvideofilename></originalvideofilename>
							<originalaudiofilename></originalaudiofilename>
						</logginginfo>
						<colorinfo>
							<lut></lut>
							<lut1></lut1>
							<asc_sop></asc_sop>
							<asc_sat></asc_sat>
							<lut2></lut2>
						</colorinfo>
						<labels>
							<label2>Violet</label2>
						</labels>
					</clipitem>
					<clipitem id="clipitem-374">
						<masterclipid>masterclip-371</masterclipid>
						<name>TKO_009_VAU_Sh03850.mov</name>
						<enabled>TRUE</enabled>
						<duration>74</duration>
						<rate>
							<timebase>24</timebase>
							<ntsc>TRUE</ntsc>
						</rate>
						<start>31685</start>
						<end>31751</end>
						<in>4</in>
						<out>70</out>
						<pproTicksIn>42378336000</pproTicksIn>
						<pproTicksOut>741620880000</pproTicksOut>
						<alphatype>none</alphatype>
						<pixelaspectratio>square</pixelaspectratio>
						<anamorphic>FALSE</anamorphic>
						<file id="file-371">
							<name>TKO_009_VAU_Sh03850.mov</name>
							<pathurl>file://tri-stor01/Projects/TKO/SHOTS/_Refs_Movs_Burnin_FrameCounter/TKO_009_VAU_Sh03850.mov</pathurl>
							<rate>
								<timebase>24</timebase>
								<ntsc>TRUE</ntsc>
							</rate>
							<duration>74</duration>
							<timecode>
								<rate>
									<timebase>24</timebase>
									<ntsc>TRUE</ntsc>
								</rate>
								<string>11:29:43:10</string>
								<frame>993202</frame>
								<displayformat>NDF</displayformat>
								<reel>
									<name>A0010016</name>
								</reel>
							</timecode>
							<media>
								<video>
									<samplecharacteristics>
										<rate>
											<timebase>24</timebase>
											<ntsc>TRUE</ntsc>
										</rate>
										<width>4096</width>
										<height>2160</height>
										<anamorphic>FALSE</anamorphic>
										<pixelaspectratio>square</pixelaspectratio>
										<fielddominance>none</fielddominance>
									</samplecharacteristics>
								</video>
							</media>
						</file>
						<logginginfo>
							<description></description>
							<scene></scene>
							<shottake></shottake>
							<lognote></lognote>
							<good></good>
							<originalvideofilename></originalvideofilename>
							<originalaudiofilename></originalaudiofilename>
						</logginginfo>
						<colorinfo>
							<lut></lut>
							<lut1></lut1>
							<asc_sop></asc_sop>
							<asc_sat></asc_sat>
							<lut2></lut2>
						</colorinfo>
						<labels>
							<label2>Violet</label2>
						</labels>
					</clipitem>
					<clipitem id="clipitem-375">
						<masterclipid>masterclip-372</masterclipid>
						<name>TKO_009_VAU_Sh03860_V02.mov</name>
						<enabled>TRUE</enabled>
						<duration>53</duration>
						<rate>
							<timebase>24</timebase>
							<ntsc>TRUE</ntsc>
						</rate>
						<start>31751</start>
						<end>31782</end>
						<in>18</in>
						<out>49</out>
						<pproTicksIn>190702512000</pproTicksIn>
						<pproTicksOut>519134616000</pproTicksOut>
						<alphatype>none</alphatype>
						<pixelaspectratio>square</pixelaspectratio>
						<anamorphic>FALSE</anamorphic>
						<file id="file-372">
							<name>TKO_009_VAU_Sh03860_V02.mov</name>
							<pathurl>file://tri-stor01/Projects/TKO/SHOTS/_Refs_Movs_Burnin_FrameCounter/TKO_009_VAU_Sh03860_V02.mov</pathurl>
							<rate>
								<timebase>24</timebase>
								<ntsc>TRUE</ntsc>
							</rate>
							<duration>53</duration>
							<timecode>
								<rate>
									<timebase>24</timebase>
									<ntsc>TRUE</ntsc>
								</rate>
								<string>11:29:52:03</string>
								<frame>993411</frame>
								<displayformat>NDF</displayformat>
								<reel>
									<name>B0010022</name>
								</reel>
							</timecode>
							<media>
								<video>
									<samplecharacteristics>
										<rate>
											<timebase>24</timebase>
											<ntsc>TRUE</ntsc>
										</rate>
										<width>4096</width>
										<height>2160</height>
										<anamorphic>FALSE</anamorphic>
										<pixelaspectratio>square</pixelaspectratio>
										<fielddominance>none</fielddominance>
									</samplecharacteristics>
								</video>
							</media>
						</file>
						<logginginfo>
							<description></description>
							<scene></scene>
							<shottake></shottake>
							<lognote></lognote>
							<good></good>
							<originalvideofilename></originalvideofilename>
							<originalaudiofilename></originalaudiofilename>
						</logginginfo>
						<colorinfo>
							<lut></lut>
							<lut1></lut1>
							<asc_sop></asc_sop>
							<asc_sat></asc_sat>
							<lut2></lut2>
						</colorinfo>
						<labels>
							<label2>Violet</label2>
						</labels>
					</clipitem>
					<clipitem id="clipitem-376">
						<masterclipid>masterclip-373</masterclipid>
						<name>TKO_009_VAU_Sh03870.mov</name>
						<enabled>TRUE</enabled>
						<duration>61</duration>
						<rate>
							<timebase>24</timebase>
							<ntsc>TRUE</ntsc>
						</rate>
						<start>31782</start>
						<end>31835</end>
						<in>4</in>
						<out>57</out>
						<pproTicksIn>42378336000</pproTicksIn>
						<pproTicksOut>603891288000</pproTicksOut>
						<alphatype>none</alphatype>
						<pixelaspectratio>square</pixelaspectratio>
						<anamorphic>FALSE</anamorphic>
						<file id="file-373">
							<name>TKO_009_VAU_Sh03870.mov</name>
							<pathurl>file://tri-stor01/Projects/TKO/SHOTS/_Refs_Movs_Burnin_FrameCounter/TKO_009_VAU_Sh03870.mov</pathurl>
							<rate>
								<timebase>24</timebase>
								<ntsc>TRUE</ntsc>
							</rate>
							<duration>61</duration>
							<timecode>
								<rate>
									<timebase>24</timebase>
									<ntsc>TRUE</ntsc>
								</rate>
								<string>11:33:59:23</string>
								<frame>999359</frame>
								<displayformat>NDF</displayformat>
								<reel>
									<name>B0010023</name>
								</reel>
							</timecode>
							<media>
								<video>
									<samplecharacteristics>
										<rate>
											<timebase>24</timebase>
											<ntsc>TRUE</ntsc>
										</rate>
										<width>4096</width>
										<height>2160</height>
										<anamorphic>FALSE</anamorphic>
										<pixelaspectratio>square</pixelaspectratio>
										<fielddominance>none</fielddominance>
									</samplecharacteristics>
								</video>
							</media>
						</file>
						<logginginfo>
							<description></description>
							<scene></scene>
							<shottake></shottake>
							<lognote></lognote>
							<good></good>
							<originalvideofilename></originalvideofilename>
							<originalaudiofilename></originalaudiofilename>
						</logginginfo>
						<colorinfo>
							<lut></lut>
							<lut1></lut1>
							<asc_sop></asc_sop>
							<asc_sat></asc_sat>
							<lut2></lut2>
						</colorinfo>
						<labels>
							<label2>Violet</label2>
						</labels>
					</clipitem>
					<clipitem id="clipitem-377">
						<masterclipid>masterclip-374</masterclipid>
						<name>TKO_009_VAU_Sh03880_V02.mov</name>
						<enabled>TRUE</enabled>
						<duration>53</duration>
						<rate>
							<timebase>24</timebase>
							<ntsc>TRUE</ntsc>
						</rate>
						<start>31835</start>
						<end>31866</end>
						<in>18</in>
						<out>49</out>
						<pproTicksIn>190702512000</pproTicksIn>
						<pproTicksOut>519134616000</pproTicksOut>
						<alphatype>none</alphatype>
						<pixelaspectratio>square</pixelaspectratio>
						<anamorphic>FALSE</anamorphic>
						<file id="file-374">
							<name>TKO_009_VAU_Sh03880_V02.mov</name>
							<pathurl>file://tri-stor01/Projects/TKO/SHOTS/_Refs_Movs_Burnin_FrameCounter/TKO_009_VAU_Sh03880_V02.mov</pathurl>
							<rate>
								<timebase>24</timebase>
								<ntsc>TRUE</ntsc>
							</rate>
							<duration>53</duration>
							<timecode>
								<rate>
									<timebase>24</timebase>
									<ntsc>TRUE</ntsc>
								</rate>
								<string>11:29:56:19</string>
								<frame>993523</frame>
								<displayformat>NDF</displayformat>
								<reel>
									<name>B0010022</name>
								</reel>
							</timecode>
							<media>
								<video>
									<samplecharacteristics>
										<rate>
											<timebase>24</timebase>
											<ntsc>TRUE</ntsc>
										</rate>
										<width>4096</width>
										<height>2160</height>
										<anamorphic>FALSE</anamorphic>
										<pixelaspectratio>square</pixelaspectratio>
										<fielddominance>none</fielddominance>
									</samplecharacteristics>
								</video>
							</media>
						</file>
						<logginginfo>
							<description></description>
							<scene></scene>
							<shottake></shottake>
							<lognote></lognote>
							<good></good>
							<originalvideofilename></originalvideofilename>
							<originalaudiofilename></originalaudiofilename>
						</logginginfo>
						<colorinfo>
							<lut></lut>
							<lut1></lut1>
							<asc_sop></asc_sop>
							<asc_sat></asc_sat>
							<lut2></lut2>
						</colorinfo>
						<labels>
							<label2>Violet</label2>
						</labels>
					</clipitem>
					<clipitem id="clipitem-378">
						<masterclipid>masterclip-375</masterclipid>
						<name>TKO_009_VAU_Sh03890.mov</name>
						<enabled>TRUE</enabled>
						<duration>270</duration>
						<rate>
							<timebase>24</timebase>
							<ntsc>TRUE</ntsc>
						</rate>
						<start>31866</start>
						<end>32128</end>
						<in>4</in>
						<out>266</out>
						<pproTicksIn>42378336000</pproTicksIn>
						<pproTicksOut>2818159344000</pproTicksOut>
						<alphatype>none</alphatype>
						<pixelaspectratio>square</pixelaspectratio>
						<anamorphic>FALSE</anamorphic>
						<file id="file-375">
							<name>TKO_009_VAU_Sh03890.mov</name>
							<pathurl>file://tri-stor01/Projects/TKO/SHOTS/_Refs_Movs_Burnin_FrameCounter/TKO_009_VAU_Sh03890.mov</pathurl>
							<rate>
								<timebase>24</timebase>
								<ntsc>TRUE</ntsc>
							</rate>
							<duration>270</duration>
							<timecode>
								<rate>
									<timebase>24</timebase>
									<ntsc>TRUE</ntsc>
								</rate>
								<string>11:29:58:02</string>
								<frame>993554</frame>
								<displayformat>NDF</displayformat>
								<reel>
									<name>A0010016</name>
								</reel>
							</timecode>
							<media>
								<video>
									<samplecharacteristics>
										<rate>
											<timebase>24</timebase>
											<ntsc>TRUE</ntsc>
										</rate>
										<width>4096</width>
										<height>2160</height>
										<anamorphic>FALSE</anamorphic>
										<pixelaspectratio>square</pixelaspectratio>
										<fielddominance>none</fielddominance>
									</samplecharacteristics>
								</video>
							</media>
						</file>
						<logginginfo>
							<description></description>
							<scene></scene>
							<shottake></shottake>
							<lognote></lognote>
							<good></good>
							<originalvideofilename></originalvideofilename>
							<originalaudiofilename></originalaudiofilename>
						</logginginfo>
						<colorinfo>
							<lut></lut>
							<lut1></lut1>
							<asc_sop></asc_sop>
							<asc_sat></asc_sat>
							<lut2></lut2>
						</colorinfo>
						<labels>
							<label2>Violet</label2>
						</labels>
					</clipitem>
					<clipitem id="clipitem-379">
						<masterclipid>masterclip-376</masterclipid>
						<name>TKO_009_VAU_Sh03900.mov</name>
						<enabled>TRUE</enabled>
						<duration>123</duration>
						<rate>
							<timebase>24</timebase>
							<ntsc>TRUE</ntsc>
						</rate>
						<start>32128</start>
						<end>32243</end>
						<in>4</in>
						<out>119</out>
						<pproTicksIn>42378336000</pproTicksIn>
						<pproTicksOut>1260755496000</pproTicksOut>
						<alphatype>none</alphatype>
						<pixelaspectratio>square</pixelaspectratio>
						<anamorphic>FALSE</anamorphic>
						<file id="file-376">
							<name>TKO_009_VAU_Sh03900.mov</name>
							<pathurl>file://tri-stor01/Projects/TKO/SHOTS/_Refs_Movs_Burnin_FrameCounter/TKO_009_VAU_Sh03900.mov</pathurl>
							<rate>
								<timebase>24</timebase>
								<ntsc>TRUE</ntsc>
							</rate>
							<duration>123</duration>
							<timecode>
								<rate>
									<timebase>24</timebase>
									<ntsc>TRUE</ntsc>
								</rate>
								<string>12:14:12:22</string>
								<frame>1057270</frame>
								<displayformat>NDF</displayformat>
								<reel>
									<name>B0010027</name>
								</reel>
							</timecode>
							<media>
								<video>
									<samplecharacteristics>
										<rate>
											<timebase>24</timebase>
											<ntsc>TRUE</ntsc>
										</rate>
										<width>4096</width>
										<height>2160</height>
										<anamorphic>FALSE</anamorphic>
										<pixelaspectratio>square</pixelaspectratio>
										<fielddominance>none</fielddominance>
									</samplecharacteristics>
								</video>
							</media>
						</file>
						<logginginfo>
							<description></description>
							<scene></scene>
							<shottake></shottake>
							<lognote></lognote>
							<good></good>
							<originalvideofilename></originalvideofilename>
							<originalaudiofilename></originalaudiofilename>
						</logginginfo>
						<colorinfo>
							<lut></lut>
							<lut1></lut1>
							<asc_sop></asc_sop>
							<asc_sat></asc_sat>
							<lut2></lut2>
						</colorinfo>
						<labels>
							<label2>Violet</label2>
						</labels>
					</clipitem>
					<clipitem id="clipitem-380">
						<masterclipid>masterclip-377</masterclipid>
						<name>TKO_009_VAU_Sh03910.mov</name>
						<enabled>TRUE</enabled>
						<duration>187</duration>
						<rate>
							<timebase>24</timebase>
							<ntsc>TRUE</ntsc>
						</rate>
						<start>32243</start>
						<end>32422</end>
						<in>4</in>
						<out>183</out>
						<pproTicksIn>42378336000</pproTicksIn>
						<pproTicksOut>1938808872000</pproTicksOut>
						<alphatype>none</alphatype>
						<pixelaspectratio>square</pixelaspectratio>
						<anamorphic>FALSE</anamorphic>
						<file id="file-377">
							<name>TKO_009_VAU_Sh03910.mov</name>
							<pathurl>file://tri-stor01/Projects/TKO/SHOTS/_Refs_Movs_Burnin_FrameCounter/TKO_009_VAU_Sh03910.mov</pathurl>
							<rate>
								<timebase>24</timebase>
								<ntsc>TRUE</ntsc>
							</rate>
							<duration>187</duration>
							<timecode>
								<rate>
									<timebase>24</timebase>
									<ntsc>TRUE</ntsc>
								</rate>
								<string>12:14:17:17</string>
								<frame>1057385</frame>
								<displayformat>NDF</displayformat>
								<reel>
									<name>A0010019</name>
								</reel>
							</timecode>
							<media>
								<video>
									<samplecharacteristics>
										<rate>
											<timebase>24</timebase>
											<ntsc>TRUE</ntsc>
										</rate>
										<width>4096</width>
										<height>2160</height>
										<anamorphic>FALSE</anamorphic>
										<pixelaspectratio>square</pixelaspectratio>
										<fielddominance>none</fielddominance>
									</samplecharacteristics>
								</video>
							</media>
						</file>
						<logginginfo>
							<description></description>
							<scene></scene>
							<shottake></shottake>
							<lognote></lognote>
							<good></good>
							<originalvideofilename></originalvideofilename>
							<originalaudiofilename></originalaudiofilename>
						</logginginfo>
						<colorinfo>
							<lut></lut>
							<lut1></lut1>
							<asc_sop></asc_sop>
							<asc_sat></asc_sat>
							<lut2></lut2>
						</colorinfo>
						<labels>
							<label2>Violet</label2>
						</labels>
					</clipitem>
					<clipitem id="clipitem-381">
						<masterclipid>masterclip-378</masterclipid>
						<name>TKO_009_VAU_Sh03920.mov</name>
						<enabled>TRUE</enabled>
						<duration>50</duration>
						<rate>
							<timebase>24</timebase>
							<ntsc>TRUE</ntsc>
						</rate>
						<start>32422</start>
						<end>32464</end>
						<in>4</in>
						<out>46</out>
						<pproTicksIn>42378336000</pproTicksIn>
						<pproTicksOut>487350864000</pproTicksOut>
						<alphatype>none</alphatype>
						<pixelaspectratio>square</pixelaspectratio>
						<anamorphic>FALSE</anamorphic>
						<file id="file-378">
							<name>TKO_009_VAU_Sh03920.mov</name>
							<pathurl>file://tri-stor01/Projects/TKO/SHOTS/_Refs_Movs_Burnin_FrameCounter/TKO_009_VAU_Sh03920.mov</pathurl>
							<rate>
								<timebase>24</timebase>
								<ntsc>TRUE</ntsc>
							</rate>
							<duration>50</duration>
							<timecode>
								<rate>
									<timebase>24</timebase>
									<ntsc>TRUE</ntsc>
								</rate>
								<string>12:36:52:22</string>
								<frame>1089910</frame>
								<displayformat>NDF</displayformat>
								<reel>
									<name>B0010028</name>
								</reel>
							</timecode>
							<media>
								<video>
									<samplecharacteristics>
										<rate>
											<timebase>24</timebase>
											<ntsc>TRUE</ntsc>
										</rate>
										<width>4096</width>
										<height>2160</height>
										<anamorphic>FALSE</anamorphic>
										<pixelaspectratio>square</pixelaspectratio>
										<fielddominance>none</fielddominance>
									</samplecharacteristics>
								</video>
							</media>
						</file>
						<logginginfo>
							<description></description>
							<scene></scene>
							<shottake></shottake>
							<lognote></lognote>
							<good></good>
							<originalvideofilename></originalvideofilename>
							<originalaudiofilename></originalaudiofilename>
						</logginginfo>
						<colorinfo>
							<lut></lut>
							<lut1></lut1>
							<asc_sop></asc_sop>
							<asc_sat></asc_sat>
							<lut2></lut2>
						</colorinfo>
						<labels>
							<label2>Violet</label2>
						</labels>
					</clipitem>
					<clipitem id="clipitem-382">
						<masterclipid>masterclip-379</masterclipid>
						<name>TKO_009_VAU_Sh03930.mov</name>
						<enabled>TRUE</enabled>
						<duration>199</duration>
						<rate>
							<timebase>24</timebase>
							<ntsc>TRUE</ntsc>
						</rate>
						<start>32464</start>
						<end>32655</end>
						<in>4</in>
						<out>195</out>
						<pproTicksIn>42378336000</pproTicksIn>
						<pproTicksOut>2065943880000</pproTicksOut>
						<alphatype>none</alphatype>
						<pixelaspectratio>square</pixelaspectratio>
						<anamorphic>FALSE</anamorphic>
						<file id="file-379">
							<name>TKO_009_VAU_Sh03930.mov</name>
							<pathurl>file://tri-stor01/Projects/TKO/SHOTS/_Refs_Movs_Burnin_FrameCounter/TKO_009_VAU_Sh03930.mov</pathurl>
							<rate>
								<timebase>24</timebase>
								<ntsc>TRUE</ntsc>
							</rate>
							<duration>199</duration>
							<timecode>
								<rate>
									<timebase>24</timebase>
									<ntsc>TRUE</ntsc>
								</rate>
								<string>12:14:26:22</string>
								<frame>1057606</frame>
								<displayformat>NDF</displayformat>
								<reel>
									<name>B0010027</name>
								</reel>
							</timecode>
							<media>
								<video>
									<samplecharacteristics>
										<rate>
											<timebase>24</timebase>
											<ntsc>TRUE</ntsc>
										</rate>
										<width>4096</width>
										<height>2160</height>
										<anamorphic>FALSE</anamorphic>
										<pixelaspectratio>square</pixelaspectratio>
										<fielddominance>none</fielddominance>
									</samplecharacteristics>
								</video>
							</media>
						</file>
						<logginginfo>
							<description></description>
							<scene></scene>
							<shottake></shottake>
							<lognote></lognote>
							<good></good>
							<originalvideofilename></originalvideofilename>
							<originalaudiofilename></originalaudiofilename>
						</logginginfo>
						<colorinfo>
							<lut></lut>
							<lut1></lut1>
							<asc_sop></asc_sop>
							<asc_sat></asc_sat>
							<lut2></lut2>
						</colorinfo>
						<labels>
							<label2>Violet</label2>
						</labels>
					</clipitem>
					<clipitem id="clipitem-383">
						<masterclipid>masterclip-380</masterclipid>
						<name>TKO_009_VAU_Sh03940.mov</name>
						<enabled>TRUE</enabled>
						<duration>120</duration>
						<rate>
							<timebase>24</timebase>
							<ntsc>TRUE</ntsc>
						</rate>
						<start>32655</start>
						<end>32767</end>
						<in>4</in>
						<out>116</out>
						<pproTicksIn>42378336000</pproTicksIn>
						<pproTicksOut>1228971744000</pproTicksOut>
						<alphatype>none</alphatype>
						<pixelaspectratio>square</pixelaspectratio>
						<anamorphic>FALSE</anamorphic>
						<file id="file-380">
							<name>TKO_009_VAU_Sh03940.mov</name>
							<pathurl>file://tri-stor01/Projects/TKO/SHOTS/_Refs_Movs_Burnin_FrameCounter/TKO_009_VAU_Sh03940.mov</pathurl>
							<rate>
								<timebase>24</timebase>
								<ntsc>TRUE</ntsc>
							</rate>
							<duration>120</duration>
							<timecode>
								<rate>
									<timebase>24</timebase>
									<ntsc>TRUE</ntsc>
								</rate>
								<string>12:14:34:21</string>
								<frame>1057797</frame>
								<displayformat>NDF</displayformat>
								<reel>
									<name>A0010019</name>
								</reel>
							</timecode>
							<media>
								<video>
									<samplecharacteristics>
										<rate>
											<timebase>24</timebase>
											<ntsc>TRUE</ntsc>
										</rate>
										<width>4096</width>
										<height>2160</height>
										<anamorphic>FALSE</anamorphic>
										<pixelaspectratio>square</pixelaspectratio>
										<fielddominance>none</fielddominance>
									</samplecharacteristics>
								</video>
							</media>
						</file>
						<logginginfo>
							<description></description>
							<scene></scene>
							<shottake></shottake>
							<lognote></lognote>
							<good></good>
							<originalvideofilename></originalvideofilename>
							<originalaudiofilename></originalaudiofilename>
						</logginginfo>
						<colorinfo>
							<lut></lut>
							<lut1></lut1>
							<asc_sop></asc_sop>
							<asc_sat></asc_sat>
							<lut2></lut2>
						</colorinfo>
						<labels>
							<label2>Violet</label2>
						</labels>
					</clipitem>
					<clipitem id="clipitem-384">
						<masterclipid>masterclip-381</masterclipid>
						<name>TKO_009_VAU_Sh03950.mov</name>
						<enabled>TRUE</enabled>
						<duration>70</duration>
						<rate>
							<timebase>24</timebase>
							<ntsc>TRUE</ntsc>
						</rate>
						<start>32767</start>
						<end>32829</end>
						<in>4</in>
						<out>66</out>
						<pproTicksIn>42378336000</pproTicksIn>
						<pproTicksOut>699242544000</pproTicksOut>
						<alphatype>none</alphatype>
						<pixelaspectratio>square</pixelaspectratio>
						<anamorphic>FALSE</anamorphic>
						<file id="file-381">
							<name>TKO_009_VAU_Sh03950.mov</name>
							<pathurl>file://tri-stor01/Projects/TKO/SHOTS/_Refs_Movs_Burnin_FrameCounter/TKO_009_VAU_Sh03950.mov</pathurl>
							<rate>
								<timebase>24</timebase>
								<ntsc>TRUE</ntsc>
							</rate>
							<duration>70</duration>
							<timecode>
								<rate>
									<timebase>24</timebase>
									<ntsc>TRUE</ntsc>
								</rate>
								<string>12:39:39:14</string>
								<frame>1093910</frame>
								<displayformat>NDF</displayformat>
								<reel>
									<name>B0010029</name>
								</reel>
							</timecode>
							<media>
								<video>
									<samplecharacteristics>
										<rate>
											<timebase>24</timebase>
											<ntsc>TRUE</ntsc>
										</rate>
										<width>4096</width>
										<height>2160</height>
										<anamorphic>FALSE</anamorphic>
										<pixelaspectratio>square</pixelaspectratio>
										<fielddominance>none</fielddominance>
									</samplecharacteristics>
								</video>
							</media>
						</file>
						<logginginfo>
							<description></description>
							<scene></scene>
							<shottake></shottake>
							<lognote></lognote>
							<good></good>
							<originalvideofilename></originalvideofilename>
							<originalaudiofilename></originalaudiofilename>
						</logginginfo>
						<colorinfo>
							<lut></lut>
							<lut1></lut1>
							<asc_sop></asc_sop>
							<asc_sat></asc_sat>
							<lut2></lut2>
						</colorinfo>
						<labels>
							<label2>Violet</label2>
						</labels>
					</clipitem>
					<clipitem id="clipitem-385">
						<masterclipid>masterclip-382</masterclipid>
						<name>TKO_009_VAU_Sh03960.mov</name>
						<enabled>TRUE</enabled>
						<duration>46</duration>
						<rate>
							<timebase>24</timebase>
							<ntsc>TRUE</ntsc>
						</rate>
						<start>32829</start>
						<end>32867</end>
						<in>4</in>
						<out>42</out>
						<pproTicksIn>42378336000</pproTicksIn>
						<pproTicksOut>444972528000</pproTicksOut>
						<alphatype>none</alphatype>
						<pixelaspectratio>square</pixelaspectratio>
						<anamorphic>FALSE</anamorphic>
						<file id="file-382">
							<name>TKO_009_VAU_Sh03960.mov</name>
							<pathurl>file://tri-stor01/Projects/TKO/SHOTS/_Refs_Movs_Burnin_FrameCounter/TKO_009_VAU_Sh03960.mov</pathurl>
							<rate>
								<timebase>24</timebase>
								<ntsc>TRUE</ntsc>
							</rate>
							<duration>46</duration>
							<timecode>
								<rate>
									<timebase>24</timebase>
									<ntsc>TRUE</ntsc>
								</rate>
								<string>12:39:42:04</string>
								<frame>1093972</frame>
								<displayformat>NDF</displayformat>
								<reel>
									<name>A0010021</name>
								</reel>
							</timecode>
							<media>
								<video>
									<samplecharacteristics>
										<rate>
											<timebase>24</timebase>
											<ntsc>TRUE</ntsc>
										</rate>
										<width>4096</width>
										<height>2160</height>
										<anamorphic>FALSE</anamorphic>
										<pixelaspectratio>square</pixelaspectratio>
										<fielddominance>none</fielddominance>
									</samplecharacteristics>
								</video>
							</media>
						</file>
						<logginginfo>
							<description></description>
							<scene></scene>
							<shottake></shottake>
							<lognote></lognote>
							<good></good>
							<originalvideofilename></originalvideofilename>
							<originalaudiofilename></originalaudiofilename>
						</logginginfo>
						<colorinfo>
							<lut></lut>
							<lut1></lut1>
							<asc_sop></asc_sop>
							<asc_sat></asc_sat>
							<lut2></lut2>
						</colorinfo>
						<labels>
							<label2>Violet</label2>
						</labels>
					</clipitem>
					<clipitem id="clipitem-386">
						<masterclipid>masterclip-383</masterclipid>
						<name>TKO_009_VAU_Sh03970.mov</name>
						<enabled>TRUE</enabled>
						<duration>48</duration>
						<rate>
							<timebase>24</timebase>
							<ntsc>TRUE</ntsc>
						</rate>
						<start>32867</start>
						<end>32907</end>
						<in>4</in>
						<out>44</out>
						<pproTicksIn>42378336000</pproTicksIn>
						<pproTicksOut>466161696000</pproTicksOut>
						<alphatype>none</alphatype>
						<pixelaspectratio>square</pixelaspectratio>
						<anamorphic>FALSE</anamorphic>
						<file id="file-383">
							<name>TKO_009_VAU_Sh03970.mov</name>
							<pathurl>file://tri-stor01/Projects/TKO/SHOTS/_Refs_Movs_Burnin_FrameCounter/TKO_009_VAU_Sh03970.mov</pathurl>
							<rate>
								<timebase>24</timebase>
								<ntsc>TRUE</ntsc>
							</rate>
							<duration>48</duration>
							<timecode>
								<rate>
									<timebase>24</timebase>
									<ntsc>TRUE</ntsc>
								</rate>
								<string>12:14:43:17</string>
								<frame>1058009</frame>
								<displayformat>NDF</displayformat>
								<reel>
									<name>B0010027</name>
								</reel>
							</timecode>
							<media>
								<video>
									<samplecharacteristics>
										<rate>
											<timebase>24</timebase>
											<ntsc>TRUE</ntsc>
										</rate>
										<width>4096</width>
										<height>2160</height>
										<anamorphic>FALSE</anamorphic>
										<pixelaspectratio>square</pixelaspectratio>
										<fielddominance>none</fielddominance>
									</samplecharacteristics>
								</video>
							</media>
						</file>
						<logginginfo>
							<description></description>
							<scene></scene>
							<shottake></shottake>
							<lognote></lognote>
							<good></good>
							<originalvideofilename></originalvideofilename>
							<originalaudiofilename></originalaudiofilename>
						</logginginfo>
						<colorinfo>
							<lut></lut>
							<lut1></lut1>
							<asc_sop></asc_sop>
							<asc_sat></asc_sat>
							<lut2></lut2>
						</colorinfo>
						<labels>
							<label2>Violet</label2>
						</labels>
					</clipitem>
					<clipitem id="clipitem-387">
						<masterclipid>masterclip-384</masterclipid>
						<name>TKO_010_POL_Sh03980.mov</name>
						<enabled>TRUE</enabled>
						<duration>95</duration>
						<rate>
							<timebase>24</timebase>
							<ntsc>TRUE</ntsc>
						</rate>
						<start>32907</start>
						<end>32994</end>
						<in>4</in>
						<out>91</out>
						<pproTicksIn>42378336000</pproTicksIn>
						<pproTicksOut>964107144000</pproTicksOut>
						<alphatype>none</alphatype>
						<pixelaspectratio>square</pixelaspectratio>
						<anamorphic>FALSE</anamorphic>
						<file id="file-384">
							<name>TKO_010_POL_Sh03980.mov</name>
							<pathurl>file://tri-stor01/Projects/TKO/SHOTS/_Refs_Movs_Burnin_FrameCounter/TKO_010_POL_Sh03980.mov</pathurl>
							<rate>
								<timebase>24</timebase>
								<ntsc>TRUE</ntsc>
							</rate>
							<duration>95</duration>
							<timecode>
								<rate>
									<timebase>24</timebase>
									<ntsc>TRUE</ntsc>
								</rate>
								<string>21:44:23:08</string>
								<frame>1878320</frame>
								<displayformat>NDF</displayformat>
								<reel>
									<name>A0420014</name>
								</reel>
							</timecode>
							<media>
								<video>
									<samplecharacteristics>
										<rate>
											<timebase>24</timebase>
											<ntsc>TRUE</ntsc>
										</rate>
										<width>4096</width>
										<height>2160</height>
										<anamorphic>FALSE</anamorphic>
										<pixelaspectratio>square</pixelaspectratio>
										<fielddominance>none</fielddominance>
									</samplecharacteristics>
								</video>
							</media>
						</file>
						<logginginfo>
							<description></description>
							<scene></scene>
							<shottake></shottake>
							<lognote></lognote>
							<good></good>
							<originalvideofilename></originalvideofilename>
							<originalaudiofilename></originalaudiofilename>
						</logginginfo>
						<colorinfo>
							<lut></lut>
							<lut1></lut1>
							<asc_sop></asc_sop>
							<asc_sat></asc_sat>
							<lut2></lut2>
						</colorinfo>
						<labels>
							<label2>Violet</label2>
						</labels>
					</clipitem>
					<clipitem id="clipitem-388">
						<masterclipid>masterclip-385</masterclipid>
						<name>TKO_010_POL_Sh03990.mov</name>
						<enabled>TRUE</enabled>
						<duration>326</duration>
						<rate>
							<timebase>24</timebase>
							<ntsc>TRUE</ntsc>
						</rate>
						<start>32994</start>
						<end>33312</end>
						<in>4</in>
						<out>322</out>
						<pproTicksIn>42378336000</pproTicksIn>
						<pproTicksOut>3411456048000</pproTicksOut>
						<alphatype>none</alphatype>
						<pixelaspectratio>square</pixelaspectratio>
						<anamorphic>FALSE</anamorphic>
						<file id="file-385">
							<name>TKO_010_POL_Sh03990.mov</name>
							<pathurl>file://tri-stor01/Projects/TKO/SHOTS/_Refs_Movs_Burnin_FrameCounter/TKO_010_POL_Sh03990.mov</pathurl>
							<rate>
								<timebase>24</timebase>
								<ntsc>TRUE</ntsc>
							</rate>
							<duration>326</duration>
							<timecode>
								<rate>
									<timebase>24</timebase>
									<ntsc>TRUE</ntsc>
								</rate>
								<string>15:30:55:03</string>
								<frame>1340523</frame>
								<displayformat>NDF</displayformat>
								<reel>
									<name>A0410014</name>
								</reel>
							</timecode>
							<media>
								<video>
									<samplecharacteristics>
										<rate>
											<timebase>24</timebase>
											<ntsc>TRUE</ntsc>
										</rate>
										<width>4096</width>
										<height>2160</height>
										<anamorphic>FALSE</anamorphic>
										<pixelaspectratio>square</pixelaspectratio>
										<fielddominance>none</fielddominance>
									</samplecharacteristics>
								</video>
							</media>
						</file>
						<logginginfo>
							<description></description>
							<scene></scene>
							<shottake></shottake>
							<lognote></lognote>
							<good></good>
							<originalvideofilename></originalvideofilename>
							<originalaudiofilename></originalaudiofilename>
						</logginginfo>
						<colorinfo>
							<lut></lut>
							<lut1></lut1>
							<asc_sop></asc_sop>
							<asc_sat></asc_sat>
							<lut2></lut2>
						</colorinfo>
						<labels>
							<label2>Violet</label2>
						</labels>
					</clipitem>
					<clipitem id="clipitem-389">
						<masterclipid>masterclip-386</masterclipid>
						<name>TKO_010_POL_Sh04000.mov</name>
						<enabled>TRUE</enabled>
						<duration>129</duration>
						<rate>
							<timebase>24</timebase>
							<ntsc>TRUE</ntsc>
						</rate>
						<start>33312</start>
						<end>33385</end>
						<in>4</in>
						<out>77</out>
						<pproTicksIn>42378336000</pproTicksIn>
						<pproTicksOut>815782968000</pproTicksOut>
						<alphatype>none</alphatype>
						<pixelaspectratio>square</pixelaspectratio>
						<anamorphic>FALSE</anamorphic>
						<file id="file-386">
							<name>TKO_010_POL_Sh04000.mov</name>
							<pathurl>file://tri-stor01/Projects/TKO/SHOTS/_Refs_Movs_Burnin_FrameCounter/TKO_010_POL_Sh04000.mov</pathurl>
							<rate>
								<timebase>24</timebase>
								<ntsc>TRUE</ntsc>
							</rate>
							<duration>129</duration>
							<timecode>
								<rate>
									<timebase>24</timebase>
									<ntsc>TRUE</ntsc>
								</rate>
								<string>15:31:08:09</string>
								<frame>1340841</frame>
								<displayformat>NDF</displayformat>
								<reel>
									<name>B0350014</name>
								</reel>
							</timecode>
							<media>
								<video>
									<samplecharacteristics>
										<rate>
											<timebase>24</timebase>
											<ntsc>TRUE</ntsc>
										</rate>
										<width>4096</width>
										<height>2160</height>
										<anamorphic>FALSE</anamorphic>
										<pixelaspectratio>square</pixelaspectratio>
										<fielddominance>none</fielddominance>
									</samplecharacteristics>
								</video>
							</media>
						</file>
						<logginginfo>
							<description></description>
							<scene></scene>
							<shottake></shottake>
							<lognote></lognote>
							<good></good>
							<originalvideofilename></originalvideofilename>
							<originalaudiofilename></originalaudiofilename>
						</logginginfo>
						<colorinfo>
							<lut></lut>
							<lut1></lut1>
							<asc_sop></asc_sop>
							<asc_sat></asc_sat>
							<lut2></lut2>
						</colorinfo>
						<labels>
							<label2>Violet</label2>
						</labels>
					</clipitem>
					<clipitem id="clipitem-390">
						<masterclipid>masterclip-387</masterclipid>
						<name>TKO_010_POL_Sh04010.mov</name>
						<enabled>TRUE</enabled>
						<duration>138</duration>
						<rate>
							<timebase>24</timebase>
							<ntsc>TRUE</ntsc>
						</rate>
						<start>33385</start>
						<end>33515</end>
						<in>4</in>
						<out>134</out>
						<pproTicksIn>42378336000</pproTicksIn>
						<pproTicksOut>1419674256000</pproTicksOut>
						<alphatype>none</alphatype>
						<pixelaspectratio>square</pixelaspectratio>
						<anamorphic>FALSE</anamorphic>
						<file id="file-387">
							<name>TKO_010_POL_Sh04010.mov</name>
							<pathurl>file://tri-stor01/Projects/TKO/SHOTS/_Refs_Movs_Burnin_FrameCounter/TKO_010_POL_Sh04010.mov</pathurl>
							<rate>
								<timebase>24</timebase>
								<ntsc>TRUE</ntsc>
							</rate>
							<duration>138</duration>
							<timecode>
								<rate>
									<timebase>24</timebase>
									<ntsc>TRUE</ntsc>
								</rate>
								<string>15:31:13:10</string>
								<frame>1340962</frame>
								<displayformat>NDF</displayformat>
								<reel>
									<name>A0410014</name>
								</reel>
							</timecode>
							<media>
								<video>
									<samplecharacteristics>
										<rate>
											<timebase>24</timebase>
											<ntsc>TRUE</ntsc>
										</rate>
										<width>4096</width>
										<height>2160</height>
										<anamorphic>FALSE</anamorphic>
										<pixelaspectratio>square</pixelaspectratio>
										<fielddominance>none</fielddominance>
									</samplecharacteristics>
								</video>
							</media>
						</file>
						<logginginfo>
							<description></description>
							<scene></scene>
							<shottake></shottake>
							<lognote></lognote>
							<good></good>
							<originalvideofilename></originalvideofilename>
							<originalaudiofilename></originalaudiofilename>
						</logginginfo>
						<colorinfo>
							<lut></lut>
							<lut1></lut1>
							<asc_sop></asc_sop>
							<asc_sat></asc_sat>
							<lut2></lut2>
						</colorinfo>
						<labels>
							<label2>Violet</label2>
						</labels>
					</clipitem>
					<clipitem id="clipitem-391">
						<masterclipid>masterclip-388</masterclipid>
						<name>TKO_010_POL_Sh04020.mov</name>
						<enabled>TRUE</enabled>
						<duration>110</duration>
						<rate>
							<timebase>24</timebase>
							<ntsc>TRUE</ntsc>
						</rate>
						<start>33515</start>
						<end>33617</end>
						<in>4</in>
						<out>106</out>
						<pproTicksIn>42378336000</pproTicksIn>
						<pproTicksOut>1123025904000</pproTicksOut>
						<alphatype>none</alphatype>
						<pixelaspectratio>square</pixelaspectratio>
						<anamorphic>FALSE</anamorphic>
						<file id="file-388">
							<name>TKO_010_POL_Sh04020.mov</name>
							<pathurl>file://tri-stor01/Projects/TKO/SHOTS/_Refs_Movs_Burnin_FrameCounter/TKO_010_POL_Sh04020.mov</pathurl>
							<rate>
								<timebase>24</timebase>
								<ntsc>TRUE</ntsc>
							</rate>
							<duration>110</duration>
							<timecode>
								<rate>
									<timebase>24</timebase>
									<ntsc>TRUE</ntsc>
								</rate>
								<string>16:59:14:00</string>
								<frame>1467696</frame>
								<displayformat>NDF</displayformat>
								<reel>
									<name>B0360001</name>
								</reel>
							</timecode>
							<media>
								<video>
									<samplecharacteristics>
										<rate>
											<timebase>24</timebase>
											<ntsc>TRUE</ntsc>
										</rate>
										<width>4096</width>
										<height>2160</height>
										<anamorphic>FALSE</anamorphic>
										<pixelaspectratio>square</pixelaspectratio>
										<fielddominance>none</fielddominance>
									</samplecharacteristics>
								</video>
							</media>
						</file>
						<logginginfo>
							<description></description>
							<scene></scene>
							<shottake></shottake>
							<lognote></lognote>
							<good></good>
							<originalvideofilename></originalvideofilename>
							<originalaudiofilename></originalaudiofilename>
						</logginginfo>
						<colorinfo>
							<lut></lut>
							<lut1></lut1>
							<asc_sop></asc_sop>
							<asc_sat></asc_sat>
							<lut2></lut2>
						</colorinfo>
						<labels>
							<label2>Violet</label2>
						</labels>
					</clipitem>
					<clipitem id="clipitem-392">
						<masterclipid>masterclip-389</masterclipid>
						<name>TKO_010_POL_Sh04030.mov</name>
						<enabled>TRUE</enabled>
						<duration>172</duration>
						<rate>
							<timebase>24</timebase>
							<ntsc>TRUE</ntsc>
						</rate>
						<start>33617</start>
						<end>33781</end>
						<in>4</in>
						<out>168</out>
						<pproTicksIn>42378336000</pproTicksIn>
						<pproTicksOut>1779890112000</pproTicksOut>
						<alphatype>none</alphatype>
						<pixelaspectratio>square</pixelaspectratio>
						<anamorphic>FALSE</anamorphic>
						<file id="file-389">
							<name>TKO_010_POL_Sh04030.mov</name>
							<pathurl>file://tri-stor01/Projects/TKO/SHOTS/_Refs_Movs_Burnin_FrameCounter/TKO_010_POL_Sh04030.mov</pathurl>
							<rate>
								<timebase>24</timebase>
								<ntsc>TRUE</ntsc>
							</rate>
							<duration>172</duration>
							<timecode>
								<rate>
									<timebase>24</timebase>
									<ntsc>TRUE</ntsc>
								</rate>
								<string>16:59:18:06</string>
								<frame>1467798</frame>
								<displayformat>NDF</displayformat>
								<reel>
									<name>A0420001</name>
								</reel>
							</timecode>
							<media>
								<video>
									<samplecharacteristics>
										<rate>
											<timebase>24</timebase>
											<ntsc>TRUE</ntsc>
										</rate>
										<width>4096</width>
										<height>2160</height>
										<anamorphic>FALSE</anamorphic>
										<pixelaspectratio>square</pixelaspectratio>
										<fielddominance>none</fielddominance>
									</samplecharacteristics>
								</video>
							</media>
						</file>
						<logginginfo>
							<description></description>
							<scene></scene>
							<shottake></shottake>
							<lognote></lognote>
							<good></good>
							<originalvideofilename></originalvideofilename>
							<originalaudiofilename></originalaudiofilename>
						</logginginfo>
						<colorinfo>
							<lut></lut>
							<lut1></lut1>
							<asc_sop></asc_sop>
							<asc_sat></asc_sat>
							<lut2></lut2>
						</colorinfo>
						<labels>
							<label2>Violet</label2>
						</labels>
					</clipitem>
					<clipitem id="clipitem-393">
						<masterclipid>masterclip-390</masterclipid>
						<name>TKO_010_POL_Sh04040.mov</name>
						<enabled>TRUE</enabled>
						<duration>256</duration>
						<rate>
							<timebase>24</timebase>
							<ntsc>TRUE</ntsc>
						</rate>
						<start>33781</start>
						<end>34029</end>
						<in>4</in>
						<out>252</out>
						<pproTicksIn>42378336000</pproTicksIn>
						<pproTicksOut>2669835168000</pproTicksOut>
						<alphatype>none</alphatype>
						<pixelaspectratio>square</pixelaspectratio>
						<anamorphic>FALSE</anamorphic>
						<file id="file-390">
							<name>TKO_010_POL_Sh04040.mov</name>
							<pathurl>file://tri-stor01/Projects/TKO/SHOTS/_Refs_Movs_Burnin_FrameCounter/TKO_010_POL_Sh04040.mov</pathurl>
							<rate>
								<timebase>24</timebase>
								<ntsc>TRUE</ntsc>
							</rate>
							<duration>256</duration>
							<timecode>
								<rate>
									<timebase>24</timebase>
									<ntsc>TRUE</ntsc>
								</rate>
								<string>16:59:25:02</string>
								<frame>1467962</frame>
								<displayformat>NDF</displayformat>
								<reel>
									<name>B0360001</name>
								</reel>
							</timecode>
							<media>
								<video>
									<samplecharacteristics>
										<rate>
											<timebase>24</timebase>
											<ntsc>TRUE</ntsc>
										</rate>
										<width>4096</width>
										<height>2160</height>
										<anamorphic>FALSE</anamorphic>
										<pixelaspectratio>square</pixelaspectratio>
										<fielddominance>none</fielddominance>
									</samplecharacteristics>
								</video>
							</media>
						</file>
						<logginginfo>
							<description></description>
							<scene></scene>
							<shottake></shottake>
							<lognote></lognote>
							<good></good>
							<originalvideofilename></originalvideofilename>
							<originalaudiofilename></originalaudiofilename>
						</logginginfo>
						<colorinfo>
							<lut></lut>
							<lut1></lut1>
							<asc_sop></asc_sop>
							<asc_sat></asc_sat>
							<lut2></lut2>
						</colorinfo>
						<labels>
							<label2>Violet</label2>
						</labels>
					</clipitem>
					<clipitem id="clipitem-394">
						<masterclipid>masterclip-391</masterclipid>
						<name>TKO_010_POL_Sh04050.mov</name>
						<enabled>TRUE</enabled>
						<duration>203</duration>
						<rate>
							<timebase>24</timebase>
							<ntsc>TRUE</ntsc>
						</rate>
						<start>34029</start>
						<end>34224</end>
						<in>4</in>
						<out>199</out>
						<pproTicksIn>42378336000</pproTicksIn>
						<pproTicksOut>2108322216000</pproTicksOut>
						<alphatype>none</alphatype>
						<pixelaspectratio>square</pixelaspectratio>
						<anamorphic>FALSE</anamorphic>
						<file id="file-391">
							<name>TKO_010_POL_Sh04050.mov</name>
							<pathurl>file://tri-stor01/Projects/TKO/SHOTS/_Refs_Movs_Burnin_FrameCounter/TKO_010_POL_Sh04050.mov</pathurl>
							<rate>
								<timebase>24</timebase>
								<ntsc>TRUE</ntsc>
							</rate>
							<duration>203</duration>
							<timecode>
								<rate>
									<timebase>24</timebase>
									<ntsc>TRUE</ntsc>
								</rate>
								<string>17:06:08:14</string>
								<frame>1477646</frame>
								<displayformat>NDF</displayformat>
								<reel>
									<name>A0420002</name>
								</reel>
							</timecode>
							<media>
								<video>
									<samplecharacteristics>
										<rate>
											<timebase>24</timebase>
											<ntsc>TRUE</ntsc>
										</rate>
										<width>4096</width>
										<height>2160</height>
										<anamorphic>FALSE</anamorphic>
										<pixelaspectratio>square</pixelaspectratio>
										<fielddominance>none</fielddominance>
									</samplecharacteristics>
								</video>
							</media>
						</file>
						<logginginfo>
							<description></description>
							<scene></scene>
							<shottake></shottake>
							<lognote></lognote>
							<good></good>
							<originalvideofilename></originalvideofilename>
							<originalaudiofilename></originalaudiofilename>
						</logginginfo>
						<colorinfo>
							<lut></lut>
							<lut1></lut1>
							<asc_sop></asc_sop>
							<asc_sat></asc_sat>
							<lut2></lut2>
						</colorinfo>
						<labels>
							<label2>Violet</label2>
						</labels>
					</clipitem>
					<clipitem id="clipitem-395">
						<masterclipid>masterclip-392</masterclipid>
						<name>TKO_010_POL_Sh04060.mov</name>
						<enabled>TRUE</enabled>
						<duration>226</duration>
						<rate>
							<timebase>24</timebase>
							<ntsc>TRUE</ntsc>
						</rate>
						<start>34224</start>
						<end>34442</end>
						<in>4</in>
						<out>222</out>
						<pproTicksIn>42378336000</pproTicksIn>
						<pproTicksOut>2351997648000</pproTicksOut>
						<alphatype>none</alphatype>
						<pixelaspectratio>square</pixelaspectratio>
						<anamorphic>FALSE</anamorphic>
						<file id="file-392">
							<name>TKO_010_POL_Sh04060.mov</name>
							<pathurl>file://tri-stor01/Projects/TKO/SHOTS/_Refs_Movs_Burnin_FrameCounter/TKO_010_POL_Sh04060.mov</pathurl>
							<rate>
								<timebase>24</timebase>
								<ntsc>TRUE</ntsc>
							</rate>
							<duration>226</duration>
							<timecode>
								<rate>
									<timebase>24</timebase>
									<ntsc>TRUE</ntsc>
								</rate>
								<string>17:06:16:17</string>
								<frame>1477841</frame>
								<displayformat>NDF</displayformat>
								<reel>
									<name>B0360002</name>
								</reel>
							</timecode>
							<media>
								<video>
									<samplecharacteristics>
										<rate>
											<timebase>24</timebase>
											<ntsc>TRUE</ntsc>
										</rate>
										<width>4096</width>
										<height>2160</height>
										<anamorphic>FALSE</anamorphic>
										<pixelaspectratio>square</pixelaspectratio>
										<fielddominance>none</fielddominance>
									</samplecharacteristics>
								</video>
							</media>
						</file>
						<logginginfo>
							<description></description>
							<scene></scene>
							<shottake></shottake>
							<lognote></lognote>
							<good></good>
							<originalvideofilename></originalvideofilename>
							<originalaudiofilename></originalaudiofilename>
						</logginginfo>
						<colorinfo>
							<lut></lut>
							<lut1></lut1>
							<asc_sop></asc_sop>
							<asc_sat></asc_sat>
							<lut2></lut2>
						</colorinfo>
						<labels>
							<label2>Violet</label2>
						</labels>
					</clipitem>
					<clipitem id="clipitem-396">
						<masterclipid>masterclip-393</masterclipid>
						<name>TKO_010_POL_Sh04070.mov</name>
						<enabled>TRUE</enabled>
						<duration>212</duration>
						<rate>
							<timebase>24</timebase>
							<ntsc>TRUE</ntsc>
						</rate>
						<start>34442</start>
						<end>34646</end>
						<in>4</in>
						<out>208</out>
						<pproTicksIn>42378336000</pproTicksIn>
						<pproTicksOut>2203673472000</pproTicksOut>
						<alphatype>none</alphatype>
						<pixelaspectratio>square</pixelaspectratio>
						<anamorphic>FALSE</anamorphic>
						<file id="file-393">
							<name>TKO_010_POL_Sh04070.mov</name>
							<pathurl>file://tri-stor01/Projects/TKO/SHOTS/_Refs_Movs_Burnin_FrameCounter/TKO_010_POL_Sh04070.mov</pathurl>
							<rate>
								<timebase>24</timebase>
								<ntsc>TRUE</ntsc>
							</rate>
							<duration>212</duration>
							<timecode>
								<rate>
									<timebase>24</timebase>
									<ntsc>TRUE</ntsc>
								</rate>
								<string>17:06:25:19</string>
								<frame>1478059</frame>
								<displayformat>NDF</displayformat>
								<reel>
									<name>A0420002</name>
								</reel>
							</timecode>
							<media>
								<video>
									<samplecharacteristics>
										<rate>
											<timebase>24</timebase>
											<ntsc>TRUE</ntsc>
										</rate>
										<width>4096</width>
										<height>2160</height>
										<anamorphic>FALSE</anamorphic>
										<pixelaspectratio>square</pixelaspectratio>
										<fielddominance>none</fielddominance>
									</samplecharacteristics>
								</video>
							</media>
						</file>
						<logginginfo>
							<description></description>
							<scene></scene>
							<shottake></shottake>
							<lognote></lognote>
							<good></good>
							<originalvideofilename></originalvideofilename>
							<originalaudiofilename></originalaudiofilename>
						</logginginfo>
						<colorinfo>
							<lut></lut>
							<lut1></lut1>
							<asc_sop></asc_sop>
							<asc_sat></asc_sat>
							<lut2></lut2>
						</colorinfo>
						<labels>
							<label2>Violet</label2>
						</labels>
					</clipitem>
					<clipitem id="clipitem-397">
						<masterclipid>masterclip-394</masterclipid>
						<name>TKO_010_POL_Sh04080.mov</name>
						<enabled>TRUE</enabled>
						<duration>38</duration>
						<rate>
							<timebase>24</timebase>
							<ntsc>TRUE</ntsc>
						</rate>
						<start>34646</start>
						<end>34676</end>
						<in>4</in>
						<out>34</out>
						<pproTicksIn>42378336000</pproTicksIn>
						<pproTicksOut>360215856000</pproTicksOut>
						<alphatype>none</alphatype>
						<pixelaspectratio>square</pixelaspectratio>
						<anamorphic>FALSE</anamorphic>
						<file id="file-394">
							<name>TKO_010_POL_Sh04080.mov</name>
							<pathurl>file://tri-stor01/Projects/TKO/SHOTS/_Refs_Movs_Burnin_FrameCounter/TKO_010_POL_Sh04080.mov</pathurl>
							<rate>
								<timebase>24</timebase>
								<ntsc>TRUE</ntsc>
							</rate>
							<duration>38</duration>
							<timecode>
								<rate>
									<timebase>24</timebase>
									<ntsc>TRUE</ntsc>
								</rate>
								<string>15:32:10:13</string>
								<frame>1342333</frame>
								<displayformat>NDF</displayformat>
								<reel>
									<name>A0410014</name>
								</reel>
							</timecode>
							<media>
								<video>
									<samplecharacteristics>
										<rate>
											<timebase>24</timebase>
											<ntsc>TRUE</ntsc>
										</rate>
										<width>4096</width>
										<height>2160</height>
										<anamorphic>FALSE</anamorphic>
										<pixelaspectratio>square</pixelaspectratio>
										<fielddominance>none</fielddominance>
									</samplecharacteristics>
								</video>
							</media>
						</file>
						<logginginfo>
							<description></description>
							<scene></scene>
							<shottake></shottake>
							<lognote></lognote>
							<good></good>
							<originalvideofilename></originalvideofilename>
							<originalaudiofilename></originalaudiofilename>
						</logginginfo>
						<colorinfo>
							<lut></lut>
							<lut1></lut1>
							<asc_sop></asc_sop>
							<asc_sat></asc_sat>
							<lut2></lut2>
						</colorinfo>
						<labels>
							<label2>Violet</label2>
						</labels>
					</clipitem>
					<clipitem id="clipitem-398">
						<masterclipid>masterclip-395</masterclipid>
						<name>TKO_010_POL_Sh04090.mov</name>
						<enabled>TRUE</enabled>
						<duration>51</duration>
						<rate>
							<timebase>24</timebase>
							<ntsc>TRUE</ntsc>
						</rate>
						<start>34676</start>
						<end>34719</end>
						<in>4</in>
						<out>47</out>
						<pproTicksIn>42378336000</pproTicksIn>
						<pproTicksOut>497945448000</pproTicksOut>
						<alphatype>none</alphatype>
						<pixelaspectratio>square</pixelaspectratio>
						<anamorphic>FALSE</anamorphic>
						<file id="file-395">
							<name>TKO_010_POL_Sh04090.mov</name>
							<pathurl>file://tri-stor01/Projects/TKO/SHOTS/_Refs_Movs_Burnin_FrameCounter/TKO_010_POL_Sh04090.mov</pathurl>
							<rate>
								<timebase>24</timebase>
								<ntsc>TRUE</ntsc>
							</rate>
							<duration>51</duration>
							<timecode>
								<rate>
									<timebase>24</timebase>
									<ntsc>TRUE</ntsc>
								</rate>
								<string>15:32:11:19</string>
								<frame>1342363</frame>
								<displayformat>NDF</displayformat>
								<reel>
									<name>B0350014</name>
								</reel>
							</timecode>
							<media>
								<video>
									<samplecharacteristics>
										<rate>
											<timebase>24</timebase>
											<ntsc>TRUE</ntsc>
										</rate>
										<width>4096</width>
										<height>2160</height>
										<anamorphic>FALSE</anamorphic>
										<pixelaspectratio>square</pixelaspectratio>
										<fielddominance>none</fielddominance>
									</samplecharacteristics>
								</video>
							</media>
						</file>
						<logginginfo>
							<description></description>
							<scene></scene>
							<shottake></shottake>
							<lognote></lognote>
							<good></good>
							<originalvideofilename></originalvideofilename>
							<originalaudiofilename></originalaudiofilename>
						</logginginfo>
						<colorinfo>
							<lut></lut>
							<lut1></lut1>
							<asc_sop></asc_sop>
							<asc_sat></asc_sat>
							<lut2></lut2>
						</colorinfo>
						<labels>
							<label2>Violet</label2>
						</labels>
					</clipitem>
					<clipitem id="clipitem-399">
						<masterclipid>masterclip-396</masterclipid>
						<name>TKO_010_POL_Sh04100.mov</name>
						<enabled>TRUE</enabled>
						<duration>108</duration>
						<rate>
							<timebase>24</timebase>
							<ntsc>TRUE</ntsc>
						</rate>
						<start>34719</start>
						<end>34819</end>
						<in>4</in>
						<out>104</out>
						<pproTicksIn>42378336000</pproTicksIn>
						<pproTicksOut>1101836736000</pproTicksOut>
						<alphatype>none</alphatype>
						<pixelaspectratio>square</pixelaspectratio>
						<anamorphic>FALSE</anamorphic>
						<file id="file-396">
							<name>TKO_010_POL_Sh04100.mov</name>
							<pathurl>file://tri-stor01/Projects/TKO/SHOTS/_Refs_Movs_Burnin_FrameCounter/TKO_010_POL_Sh04100.mov</pathurl>
							<rate>
								<timebase>24</timebase>
								<ntsc>TRUE</ntsc>
							</rate>
							<duration>108</duration>
							<timecode>
								<rate>
									<timebase>24</timebase>
									<ntsc>TRUE</ntsc>
								</rate>
								<string>17:06:36:01</string>
								<frame>1478305</frame>
								<displayformat>NDF</displayformat>
								<reel>
									<name>A0420002</name>
								</reel>
							</timecode>
							<media>
								<video>
									<samplecharacteristics>
										<rate>
											<timebase>24</timebase>
											<ntsc>TRUE</ntsc>
										</rate>
										<width>4096</width>
										<height>2160</height>
										<anamorphic>FALSE</anamorphic>
										<pixelaspectratio>square</pixelaspectratio>
										<fielddominance>none</fielddominance>
									</samplecharacteristics>
								</video>
							</media>
						</file>
						<logginginfo>
							<description></description>
							<scene></scene>
							<shottake></shottake>
							<lognote></lognote>
							<good></good>
							<originalvideofilename></originalvideofilename>
							<originalaudiofilename></originalaudiofilename>
						</logginginfo>
						<colorinfo>
							<lut></lut>
							<lut1></lut1>
							<asc_sop></asc_sop>
							<asc_sat></asc_sat>
							<lut2></lut2>
						</colorinfo>
						<labels>
							<label2>Violet</label2>
						</labels>
					</clipitem>
					<clipitem id="clipitem-400">
						<masterclipid>masterclip-397</masterclipid>
						<name>TKO_010_POL_Sh04110.mov</name>
						<enabled>TRUE</enabled>
						<duration>88</duration>
						<rate>
							<timebase>24</timebase>
							<ntsc>TRUE</ntsc>
						</rate>
						<start>34819</start>
						<end>34899</end>
						<in>4</in>
						<out>84</out>
						<pproTicksIn>42378336000</pproTicksIn>
						<pproTicksOut>889945056000</pproTicksOut>
						<alphatype>none</alphatype>
						<pixelaspectratio>square</pixelaspectratio>
						<anamorphic>FALSE</anamorphic>
						<file id="file-397">
							<name>TKO_010_POL_Sh04110.mov</name>
							<pathurl>file://tri-stor01/Projects/TKO/SHOTS/_Refs_Movs_Burnin_FrameCounter/TKO_010_POL_Sh04110.mov</pathurl>
							<rate>
								<timebase>24</timebase>
								<ntsc>TRUE</ntsc>
							</rate>
							<duration>88</duration>
							<timecode>
								<rate>
									<timebase>24</timebase>
									<ntsc>TRUE</ntsc>
								</rate>
								<string>17:06:40:05</string>
								<frame>1478405</frame>
								<displayformat>NDF</displayformat>
								<reel>
									<name>B0360002</name>
								</reel>
							</timecode>
							<media>
								<video>
									<samplecharacteristics>
										<rate>
											<timebase>24</timebase>
											<ntsc>TRUE</ntsc>
										</rate>
										<width>4096</width>
										<height>2160</height>
										<anamorphic>FALSE</anamorphic>
										<pixelaspectratio>square</pixelaspectratio>
										<fielddominance>none</fielddominance>
									</samplecharacteristics>
								</video>
							</media>
						</file>
						<logginginfo>
							<description></description>
							<scene></scene>
							<shottake></shottake>
							<lognote></lognote>
							<good></good>
							<originalvideofilename></originalvideofilename>
							<originalaudiofilename></originalaudiofilename>
						</logginginfo>
						<colorinfo>
							<lut></lut>
							<lut1></lut1>
							<asc_sop></asc_sop>
							<asc_sat></asc_sat>
							<lut2></lut2>
						</colorinfo>
						<labels>
							<label2>Violet</label2>
						</labels>
					</clipitem>
					<clipitem id="clipitem-401">
						<masterclipid>masterclip-398</masterclipid>
						<name>TKO_010_POL_Sh04120.mov</name>
						<enabled>TRUE</enabled>
						<duration>262</duration>
						<rate>
							<timebase>24</timebase>
							<ntsc>TRUE</ntsc>
						</rate>
						<start>34899</start>
						<end>35153</end>
						<in>4</in>
						<out>258</out>
						<pproTicksIn>42378336000</pproTicksIn>
						<pproTicksOut>2733402672000</pproTicksOut>
						<alphatype>none</alphatype>
						<pixelaspectratio>square</pixelaspectratio>
						<anamorphic>FALSE</anamorphic>
						<file id="file-398">
							<name>TKO_010_POL_Sh04120.mov</name>
							<pathurl>file://tri-stor01/Projects/TKO/SHOTS/_Refs_Movs_Burnin_FrameCounter/TKO_010_POL_Sh04120.mov</pathurl>
							<rate>
								<timebase>24</timebase>
								<ntsc>TRUE</ntsc>
							</rate>
							<duration>262</duration>
							<timecode>
								<rate>
									<timebase>24</timebase>
									<ntsc>TRUE</ntsc>
								</rate>
								<string>17:06:43:13</string>
								<frame>1478485</frame>
								<displayformat>NDF</displayformat>
								<reel>
									<name>A0420002</name>
								</reel>
							</timecode>
							<media>
								<video>
									<samplecharacteristics>
										<rate>
											<timebase>24</timebase>
											<ntsc>TRUE</ntsc>
										</rate>
										<width>4096</width>
										<height>2160</height>
										<anamorphic>FALSE</anamorphic>
										<pixelaspectratio>square</pixelaspectratio>
										<fielddominance>none</fielddominance>
									</samplecharacteristics>
								</video>
							</media>
						</file>
						<logginginfo>
							<description></description>
							<scene></scene>
							<shottake></shottake>
							<lognote></lognote>
							<good></good>
							<originalvideofilename></originalvideofilename>
							<originalaudiofilename></originalaudiofilename>
						</logginginfo>
						<colorinfo>
							<lut></lut>
							<lut1></lut1>
							<asc_sop></asc_sop>
							<asc_sat></asc_sat>
							<lut2></lut2>
						</colorinfo>
						<labels>
							<label2>Violet</label2>
						</labels>
					</clipitem>
					<clipitem id="clipitem-402">
						<masterclipid>masterclip-399</masterclipid>
						<name>TKO_010_POL_Sh04130.mov</name>
						<enabled>TRUE</enabled>
						<duration>179</duration>
						<rate>
							<timebase>24</timebase>
							<ntsc>TRUE</ntsc>
						</rate>
						<start>35153</start>
						<end>35324</end>
						<in>4</in>
						<out>175</out>
						<pproTicksIn>42378336000</pproTicksIn>
						<pproTicksOut>1854052200000</pproTicksOut>
						<alphatype>none</alphatype>
						<pixelaspectratio>square</pixelaspectratio>
						<anamorphic>FALSE</anamorphic>
						<file id="file-399">
							<name>TKO_010_POL_Sh04130.mov</name>
							<pathurl>file://tri-stor01/Projects/TKO/SHOTS/_Refs_Movs_Burnin_FrameCounter/TKO_010_POL_Sh04130.mov</pathurl>
							<rate>
								<timebase>24</timebase>
								<ntsc>TRUE</ntsc>
							</rate>
							<duration>179</duration>
							<timecode>
								<rate>
									<timebase>24</timebase>
									<ntsc>TRUE</ntsc>
								</rate>
								<string>17:00:19:03</string>
								<frame>1469259</frame>
								<displayformat>NDF</displayformat>
								<reel>
									<name>B0360001</name>
								</reel>
							</timecode>
							<media>
								<video>
									<samplecharacteristics>
										<rate>
											<timebase>24</timebase>
											<ntsc>TRUE</ntsc>
										</rate>
										<width>4096</width>
										<height>2160</height>
										<anamorphic>FALSE</anamorphic>
										<pixelaspectratio>square</pixelaspectratio>
										<fielddominance>none</fielddominance>
									</samplecharacteristics>
								</video>
							</media>
						</file>
						<logginginfo>
							<description></description>
							<scene></scene>
							<shottake></shottake>
							<lognote></lognote>
							<good></good>
							<originalvideofilename></originalvideofilename>
							<originalaudiofilename></originalaudiofilename>
						</logginginfo>
						<colorinfo>
							<lut></lut>
							<lut1></lut1>
							<asc_sop></asc_sop>
							<asc_sat></asc_sat>
							<lut2></lut2>
						</colorinfo>
						<labels>
							<label2>Violet</label2>
						</labels>
					</clipitem>
					<clipitem id="clipitem-403">
						<masterclipid>masterclip-400</masterclipid>
						<name>TKO_010_POL_Sh04140.mov</name>
						<enabled>TRUE</enabled>
						<duration>126</duration>
						<rate>
							<timebase>24</timebase>
							<ntsc>TRUE</ntsc>
						</rate>
						<start>35324</start>
						<end>35442</end>
						<in>4</in>
						<out>122</out>
						<pproTicksIn>42378336000</pproTicksIn>
						<pproTicksOut>1292539248000</pproTicksOut>
						<alphatype>none</alphatype>
						<pixelaspectratio>square</pixelaspectratio>
						<anamorphic>FALSE</anamorphic>
						<file id="file-400">
							<name>TKO_010_POL_Sh04140.mov</name>
							<pathurl>file://tri-stor01/Projects/TKO/SHOTS/_Refs_Movs_Burnin_FrameCounter/TKO_010_POL_Sh04140.mov</pathurl>
							<rate>
								<timebase>24</timebase>
								<ntsc>TRUE</ntsc>
							</rate>
							<duration>126</duration>
							<timecode>
								<rate>
									<timebase>24</timebase>
									<ntsc>TRUE</ntsc>
								</rate>
								<string>17:07:08:17</string>
								<frame>1479089</frame>
								<displayformat>NDF</displayformat>
								<reel>
									<name>A0420002</name>
								</reel>
							</timecode>
							<media>
								<video>
									<samplecharacteristics>
										<rate>
											<timebase>24</timebase>
											<ntsc>TRUE</ntsc>
										</rate>
										<width>4096</width>
										<height>2160</height>
										<anamorphic>FALSE</anamorphic>
										<pixelaspectratio>square</pixelaspectratio>
										<fielddominance>none</fielddominance>
									</samplecharacteristics>
								</video>
							</media>
						</file>
						<logginginfo>
							<description></description>
							<scene></scene>
							<shottake></shottake>
							<lognote></lognote>
							<good></good>
							<originalvideofilename></originalvideofilename>
							<originalaudiofilename></originalaudiofilename>
						</logginginfo>
						<colorinfo>
							<lut></lut>
							<lut1></lut1>
							<asc_sop></asc_sop>
							<asc_sat></asc_sat>
							<lut2></lut2>
						</colorinfo>
						<labels>
							<label2>Violet</label2>
						</labels>
					</clipitem>
					<clipitem id="clipitem-404">
						<masterclipid>masterclip-401</masterclipid>
						<name>TKO_010_POL_Sh04150.mov</name>
						<enabled>TRUE</enabled>
						<duration>61</duration>
						<rate>
							<timebase>24</timebase>
							<ntsc>TRUE</ntsc>
						</rate>
						<start>35442</start>
						<end>35495</end>
						<in>4</in>
						<out>57</out>
						<pproTicksIn>42378336000</pproTicksIn>
						<pproTicksOut>603891288000</pproTicksOut>
						<alphatype>none</alphatype>
						<pixelaspectratio>square</pixelaspectratio>
						<anamorphic>FALSE</anamorphic>
						<file id="file-401">
							<name>TKO_010_POL_Sh04150.mov</name>
							<pathurl>file://tri-stor01/Projects/TKO/SHOTS/_Refs_Movs_Burnin_FrameCounter/TKO_010_POL_Sh04150.mov</pathurl>
							<rate>
								<timebase>24</timebase>
								<ntsc>TRUE</ntsc>
							</rate>
							<duration>61</duration>
							<timecode>
								<rate>
									<timebase>24</timebase>
									<ntsc>TRUE</ntsc>
								</rate>
								<string>00:00:00:00</string>
								<frame>0</frame>
								<displayformat>NDF</displayformat>
							</timecode>
							<media>
								<video>
									<samplecharacteristics>
										<rate>
											<timebase>24</timebase>
											<ntsc>TRUE</ntsc>
										</rate>
										<width>4096</width>
										<height>2160</height>
										<anamorphic>FALSE</anamorphic>
										<pixelaspectratio>square</pixelaspectratio>
										<fielddominance>none</fielddominance>
									</samplecharacteristics>
								</video>
							</media>
						</file>
						<logginginfo>
							<description></description>
							<scene></scene>
							<shottake></shottake>
							<lognote></lognote>
							<good></good>
							<originalvideofilename></originalvideofilename>
							<originalaudiofilename></originalaudiofilename>
						</logginginfo>
						<colorinfo>
							<lut></lut>
							<lut1></lut1>
							<asc_sop></asc_sop>
							<asc_sat></asc_sat>
							<lut2></lut2>
						</colorinfo>
						<labels>
							<label2>Violet</label2>
						</labels>
					</clipitem>
					<clipitem id="clipitem-405">
						<masterclipid>masterclip-402</masterclipid>
						<name>TKO_010_POL_Sh04160.mov</name>
						<enabled>TRUE</enabled>
						<duration>78</duration>
						<rate>
							<timebase>24</timebase>
							<ntsc>TRUE</ntsc>
						</rate>
						<start>35495</start>
						<end>35565</end>
						<in>4</in>
						<out>74</out>
						<pproTicksIn>42378336000</pproTicksIn>
						<pproTicksOut>783999216000</pproTicksOut>
						<alphatype>none</alphatype>
						<pixelaspectratio>square</pixelaspectratio>
						<anamorphic>FALSE</anamorphic>
						<file id="file-402">
							<name>TKO_010_POL_Sh04160.mov</name>
							<pathurl>file://tri-stor01/Projects/TKO/SHOTS/_Refs_Movs_Burnin_FrameCounter/TKO_010_POL_Sh04160.mov</pathurl>
							<rate>
								<timebase>24</timebase>
								<ntsc>TRUE</ntsc>
							</rate>
							<duration>78</duration>
							<timecode>
								<rate>
									<timebase>24</timebase>
									<ntsc>TRUE</ntsc>
								</rate>
								<string>00:00:02:01</string>
								<frame>49</frame>
								<displayformat>NDF</displayformat>
							</timecode>
							<media>
								<video>
									<samplecharacteristics>
										<rate>
											<timebase>24</timebase>
											<ntsc>TRUE</ntsc>
										</rate>
										<width>1920</width>
										<height>1080</height>
										<anamorphic>FALSE</anamorphic>
										<pixelaspectratio>square</pixelaspectratio>
										<fielddominance>none</fielddominance>
									</samplecharacteristics>
								</video>
							</media>
						</file>
						<logginginfo>
							<description></description>
							<scene></scene>
							<shottake></shottake>
							<lognote></lognote>
							<good></good>
							<originalvideofilename></originalvideofilename>
							<originalaudiofilename></originalaudiofilename>
						</logginginfo>
						<colorinfo>
							<lut></lut>
							<lut1></lut1>
							<asc_sop></asc_sop>
							<asc_sat></asc_sat>
							<lut2></lut2>
						</colorinfo>
						<labels>
							<label2>Violet</label2>
						</labels>
					</clipitem>
					<clipitem id="clipitem-406">
						<masterclipid>masterclip-403</masterclipid>
						<name>TKO_010_POL_Sh04170.mov</name>
						<enabled>TRUE</enabled>
						<duration>89</duration>
						<rate>
							<timebase>24</timebase>
							<ntsc>TRUE</ntsc>
						</rate>
						<start>35565</start>
						<end>35646</end>
						<in>4</in>
						<out>85</out>
						<pproTicksIn>42378336000</pproTicksIn>
						<pproTicksOut>900539640000</pproTicksOut>
						<alphatype>none</alphatype>
						<pixelaspectratio>square</pixelaspectratio>
						<anamorphic>FALSE</anamorphic>
						<file id="file-403">
							<name>TKO_010_POL_Sh04170.mov</name>
							<pathurl>file://tri-stor01/Projects/TKO/SHOTS/_Refs_Movs_Burnin_FrameCounter/TKO_010_POL_Sh04170.mov</pathurl>
							<rate>
								<timebase>24</timebase>
								<ntsc>TRUE</ntsc>
							</rate>
							<duration>89</duration>
							<timecode>
								<rate>
									<timebase>24</timebase>
									<ntsc>TRUE</ntsc>
								</rate>
								<string>00:00:00:00</string>
								<frame>0</frame>
								<displayformat>NDF</displayformat>
							</timecode>
							<media>
								<video>
									<samplecharacteristics>
										<rate>
											<timebase>24</timebase>
											<ntsc>TRUE</ntsc>
										</rate>
										<width>4096</width>
										<height>2160</height>
										<anamorphic>FALSE</anamorphic>
										<pixelaspectratio>square</pixelaspectratio>
										<fielddominance>none</fielddominance>
									</samplecharacteristics>
								</video>
							</media>
						</file>
						<logginginfo>
							<description></description>
							<scene></scene>
							<shottake></shottake>
							<lognote></lognote>
							<good></good>
							<originalvideofilename></originalvideofilename>
							<originalaudiofilename></originalaudiofilename>
						</logginginfo>
						<colorinfo>
							<lut></lut>
							<lut1></lut1>
							<asc_sop></asc_sop>
							<asc_sat></asc_sat>
							<lut2></lut2>
						</colorinfo>
						<labels>
							<label2>Violet</label2>
						</labels>
					</clipitem>
					<clipitem id="clipitem-407">
						<masterclipid>masterclip-404</masterclipid>
						<name>TKO_010_POL_Sh04180.mov</name>
						<enabled>TRUE</enabled>
						<duration>81</duration>
						<rate>
							<timebase>24</timebase>
							<ntsc>TRUE</ntsc>
						</rate>
						<start>35646</start>
						<end>35719</end>
						<in>4</in>
						<out>77</out>
						<pproTicksIn>42378336000</pproTicksIn>
						<pproTicksOut>815782968000</pproTicksOut>
						<alphatype>none</alphatype>
						<pixelaspectratio>square</pixelaspectratio>
						<anamorphic>FALSE</anamorphic>
						<file id="file-404">
							<name>TKO_010_POL_Sh04180.mov</name>
							<pathurl>file://tri-stor01/Projects/TKO/SHOTS/_Refs_Movs_Burnin_FrameCounter/TKO_010_POL_Sh04180.mov</pathurl>
							<rate>
								<timebase>24</timebase>
								<ntsc>TRUE</ntsc>
							</rate>
							<duration>81</duration>
							<timecode>
								<rate>
									<timebase>24</timebase>
									<ntsc>TRUE</ntsc>
								</rate>
								<string>10:47:25:11</string>
								<frame>932291</frame>
								<displayformat>NDF</displayformat>
								<reel>
									<name>B0210002</name>
								</reel>
							</timecode>
							<media>
								<video>
									<samplecharacteristics>
										<rate>
											<timebase>24</timebase>
											<ntsc>TRUE</ntsc>
										</rate>
										<width>4096</width>
										<height>2160</height>
										<anamorphic>FALSE</anamorphic>
										<pixelaspectratio>square</pixelaspectratio>
										<fielddominance>none</fielddominance>
									</samplecharacteristics>
								</video>
							</media>
						</file>
						<logginginfo>
							<description></description>
							<scene></scene>
							<shottake></shottake>
							<lognote></lognote>
							<good></good>
							<originalvideofilename></originalvideofilename>
							<originalaudiofilename></originalaudiofilename>
						</logginginfo>
						<colorinfo>
							<lut></lut>
							<lut1></lut1>
							<asc_sop></asc_sop>
							<asc_sat></asc_sat>
							<lut2></lut2>
						</colorinfo>
						<labels>
							<label2>Violet</label2>
						</labels>
					</clipitem>
					<clipitem id="clipitem-408">
						<masterclipid>masterclip-405</masterclipid>
						<name>TKO_010_POL_Sh04190_V02.mov</name>
						<enabled>TRUE</enabled>
						<duration>668</duration>
						<rate>
							<timebase>24</timebase>
							<ntsc>TRUE</ntsc>
						</rate>
						<start>35719</start>
						<end>36367</end>
						<in>4</in>
						<out>652</out>
						<pproTicksIn>42378336000</pproTicksIn>
						<pproTicksOut>6907668768000</pproTicksOut>
						<alphatype>none</alphatype>
						<pixelaspectratio>square</pixelaspectratio>
						<anamorphic>FALSE</anamorphic>
						<file id="file-405">
							<name>TKO_010_POL_Sh04190_V02.mov</name>
							<pathurl>file://tri-stor01/Projects/TKO/SHOTS/_Refs_Movs_Burnin_FrameCounter/TKO_010_POL_Sh04190_V02.mov</pathurl>
							<rate>
								<timebase>24</timebase>
								<ntsc>TRUE</ntsc>
							</rate>
							<duration>668</duration>
							<timecode>
								<rate>
									<timebase>24</timebase>
									<ntsc>TRUE</ntsc>
								</rate>
								<string>10:47:28:08</string>
								<frame>932360</frame>
								<displayformat>NDF</displayformat>
								<reel>
									<name>A0250002</name>
								</reel>
							</timecode>
							<media>
								<video>
									<samplecharacteristics>
										<rate>
											<timebase>24</timebase>
											<ntsc>TRUE</ntsc>
										</rate>
										<width>4096</width>
										<height>2160</height>
										<anamorphic>FALSE</anamorphic>
										<pixelaspectratio>square</pixelaspectratio>
										<fielddominance>none</fielddominance>
									</samplecharacteristics>
								</video>
							</media>
						</file>
						<logginginfo>
							<description></description>
							<scene></scene>
							<shottake></shottake>
							<lognote></lognote>
							<good></good>
							<originalvideofilename></originalvideofilename>
							<originalaudiofilename></originalaudiofilename>
						</logginginfo>
						<colorinfo>
							<lut></lut>
							<lut1></lut1>
							<asc_sop></asc_sop>
							<asc_sat></asc_sat>
							<lut2></lut2>
						</colorinfo>
						<labels>
							<label2>Violet</label2>
						</labels>
					</clipitem>
					<clipitem id="clipitem-409">
						<masterclipid>masterclip-406</masterclipid>
						<name>TKO_010_POL_Sh04200_V02.mov</name>
						<enabled>TRUE</enabled>
						<duration>137</duration>
						<rate>
							<timebase>24</timebase>
							<ntsc>TRUE</ntsc>
						</rate>
						<start>36367</start>
						<end>36484</end>
						<in>4</in>
						<out>121</out>
						<pproTicksIn>42378336000</pproTicksIn>
						<pproTicksOut>1281944664000</pproTicksOut>
						<alphatype>none</alphatype>
						<pixelaspectratio>square</pixelaspectratio>
						<anamorphic>FALSE</anamorphic>
						<file id="file-406">
							<name>TKO_010_POL_Sh04200_V02.mov</name>
							<pathurl>file://tri-stor01/Projects/TKO/SHOTS/_Refs_Movs_Burnin_FrameCounter/TKO_010_POL_Sh04200_V02.mov</pathurl>
							<rate>
								<timebase>24</timebase>
								<ntsc>TRUE</ntsc>
							</rate>
							<duration>137</duration>
							<timecode>
								<rate>
									<timebase>24</timebase>
									<ntsc>TRUE</ntsc>
								</rate>
								<string>11:27:13:11</string>
								<frame>989603</frame>
								<displayformat>NDF</displayformat>
								<reel>
									<name>A0250006</name>
								</reel>
							</timecode>
							<media>
								<video>
									<samplecharacteristics>
										<rate>
											<timebase>24</timebase>
											<ntsc>TRUE</ntsc>
										</rate>
										<width>4096</width>
										<height>2160</height>
										<anamorphic>FALSE</anamorphic>
										<pixelaspectratio>square</pixelaspectratio>
										<fielddominance>none</fielddominance>
									</samplecharacteristics>
								</video>
							</media>
						</file>
						<logginginfo>
							<description></description>
							<scene></scene>
							<shottake></shottake>
							<lognote></lognote>
							<good></good>
							<originalvideofilename></originalvideofilename>
							<originalaudiofilename></originalaudiofilename>
						</logginginfo>
						<colorinfo>
							<lut></lut>
							<lut1></lut1>
							<asc_sop></asc_sop>
							<asc_sat></asc_sat>
							<lut2></lut2>
						</colorinfo>
						<labels>
							<label2>Violet</label2>
						</labels>
					</clipitem>
					<clipitem id="clipitem-410">
						<masterclipid>masterclip-407</masterclipid>
						<name>TKO_010_POL_Sh04210.mov</name>
						<enabled>TRUE</enabled>
						<duration>94</duration>
						<rate>
							<timebase>24</timebase>
							<ntsc>TRUE</ntsc>
						</rate>
						<start>36484</start>
						<end>36570</end>
						<in>4</in>
						<out>90</out>
						<pproTicksIn>42378336000</pproTicksIn>
						<pproTicksOut>953512560000</pproTicksOut>
						<alphatype>none</alphatype>
						<pixelaspectratio>square</pixelaspectratio>
						<anamorphic>FALSE</anamorphic>
						<file id="file-407">
							<name>TKO_010_POL_Sh04210.mov</name>
							<pathurl>file://tri-stor01/Projects/TKO/SHOTS/_Refs_Movs_Burnin_FrameCounter/TKO_010_POL_Sh04210.mov</pathurl>
							<rate>
								<timebase>24</timebase>
								<ntsc>TRUE</ntsc>
							</rate>
							<duration>94</duration>
							<timecode>
								<rate>
									<timebase>24</timebase>
									<ntsc>TRUE</ntsc>
								</rate>
								<string>07:13:20:21</string>
								<frame>624021</frame>
								<displayformat>NDF</displayformat>
								<reel>
									<name>C0170002</name>
								</reel>
							</timecode>
							<media>
								<video>
									<samplecharacteristics>
										<rate>
											<timebase>24</timebase>
											<ntsc>TRUE</ntsc>
										</rate>
										<width>3840</width>
										<height>2160</height>
										<anamorphic>FALSE</anamorphic>
										<pixelaspectratio>square</pixelaspectratio>
										<fielddominance>none</fielddominance>
									</samplecharacteristics>
								</video>
							</media>
						</file>
						<logginginfo>
							<description></description>
							<scene></scene>
							<shottake></shottake>
							<lognote></lognote>
							<good></good>
							<originalvideofilename></originalvideofilename>
							<originalaudiofilename></originalaudiofilename>
						</logginginfo>
						<colorinfo>
							<lut></lut>
							<lut1></lut1>
							<asc_sop></asc_sop>
							<asc_sat></asc_sat>
							<lut2></lut2>
						</colorinfo>
						<labels>
							<label2>Violet</label2>
						</labels>
					</clipitem>
					<clipitem id="clipitem-411">
						<masterclipid>masterclip-408</masterclipid>
						<name>TKO_010_POL_Sh04220_V02.mov</name>
						<enabled>TRUE</enabled>
						<duration>198</duration>
						<rate>
							<timebase>24</timebase>
							<ntsc>TRUE</ntsc>
						</rate>
						<start>36570</start>
						<end>36748</end>
						<in>4</in>
						<out>182</out>
						<pproTicksIn>42378336000</pproTicksIn>
						<pproTicksOut>1928214288000</pproTicksOut>
						<alphatype>none</alphatype>
						<pixelaspectratio>square</pixelaspectratio>
						<anamorphic>FALSE</anamorphic>
						<file id="file-408">
							<name>TKO_010_POL_Sh04220_V02.mov</name>
							<pathurl>file://tri-stor01/Projects/TKO/SHOTS/_Refs_Movs_Burnin_FrameCounter/TKO_010_POL_Sh04220_V02.mov</pathurl>
							<rate>
								<timebase>24</timebase>
								<ntsc>TRUE</ntsc>
							</rate>
							<duration>198</duration>
							<timecode>
								<rate>
									<timebase>24</timebase>
									<ntsc>TRUE</ntsc>
								</rate>
								<string>11:26:48:23</string>
								<frame>989015</frame>
								<displayformat>NDF</displayformat>
								<reel>
									<name>A0250006</name>
								</reel>
							</timecode>
							<media>
								<video>
									<samplecharacteristics>
										<rate>
											<timebase>24</timebase>
											<ntsc>TRUE</ntsc>
										</rate>
										<width>4096</width>
										<height>2160</height>
										<anamorphic>FALSE</anamorphic>
										<pixelaspectratio>square</pixelaspectratio>
										<fielddominance>none</fielddominance>
									</samplecharacteristics>
								</video>
							</media>
						</file>
						<logginginfo>
							<description></description>
							<scene></scene>
							<shottake></shottake>
							<lognote></lognote>
							<good></good>
							<originalvideofilename></originalvideofilename>
							<originalaudiofilename></originalaudiofilename>
						</logginginfo>
						<colorinfo>
							<lut></lut>
							<lut1></lut1>
							<asc_sop></asc_sop>
							<asc_sat></asc_sat>
							<lut2></lut2>
						</colorinfo>
						<labels>
							<label2>Violet</label2>
						</labels>
					</clipitem>
					<clipitem id="clipitem-412">
						<masterclipid>masterclip-409</masterclipid>
						<name>TKO_010_POL_Sh04230.mov</name>
						<enabled>TRUE</enabled>
						<duration>91</duration>
						<rate>
							<timebase>24</timebase>
							<ntsc>TRUE</ntsc>
						</rate>
						<start>36748</start>
						<end>36831</end>
						<in>4</in>
						<out>87</out>
						<pproTicksIn>42378336000</pproTicksIn>
						<pproTicksOut>921728808000</pproTicksOut>
						<alphatype>none</alphatype>
						<pixelaspectratio>square</pixelaspectratio>
						<anamorphic>FALSE</anamorphic>
						<file id="file-409">
							<name>TKO_010_POL_Sh04230.mov</name>
							<pathurl>file://tri-stor01/Projects/TKO/SHOTS/_Refs_Movs_Burnin_FrameCounter/TKO_010_POL_Sh04230.mov</pathurl>
							<rate>
								<timebase>24</timebase>
								<ntsc>TRUE</ntsc>
							</rate>
							<duration>91</duration>
							<timecode>
								<rate>
									<timebase>24</timebase>
									<ntsc>TRUE</ntsc>
								</rate>
								<string>07:14:38:13</string>
								<frame>625885</frame>
								<displayformat>NDF</displayformat>
								<reel>
									<name>C0170002</name>
								</reel>
							</timecode>
							<media>
								<video>
									<samplecharacteristics>
										<rate>
											<timebase>24</timebase>
											<ntsc>TRUE</ntsc>
										</rate>
										<width>3840</width>
										<height>2160</height>
										<anamorphic>FALSE</anamorphic>
										<pixelaspectratio>square</pixelaspectratio>
										<fielddominance>none</fielddominance>
									</samplecharacteristics>
								</video>
							</media>
						</file>
						<logginginfo>
							<description></description>
							<scene></scene>
							<shottake></shottake>
							<lognote></lognote>
							<good></good>
							<originalvideofilename></originalvideofilename>
							<originalaudiofilename></originalaudiofilename>
						</logginginfo>
						<colorinfo>
							<lut></lut>
							<lut1></lut1>
							<asc_sop></asc_sop>
							<asc_sat></asc_sat>
							<lut2></lut2>
						</colorinfo>
						<labels>
							<label2>Violet</label2>
						</labels>
					</clipitem>
					<clipitem id="clipitem-413">
						<masterclipid>masterclip-410</masterclipid>
						<name>TKO_010_POL_Sh04240.mov</name>
						<enabled>TRUE</enabled>
						<duration>63</duration>
						<rate>
							<timebase>24</timebase>
							<ntsc>TRUE</ntsc>
						</rate>
						<start>36831</start>
						<end>36886</end>
						<in>4</in>
						<out>59</out>
						<pproTicksIn>42378336000</pproTicksIn>
						<pproTicksOut>625080456000</pproTicksOut>
						<alphatype>none</alphatype>
						<pixelaspectratio>square</pixelaspectratio>
						<anamorphic>FALSE</anamorphic>
						<file id="file-410">
							<name>TKO_010_POL_Sh04240.mov</name>
							<pathurl>file://tri-stor01/Projects/TKO/SHOTS/_Refs_Movs_Burnin_FrameCounter/TKO_010_POL_Sh04240.mov</pathurl>
							<rate>
								<timebase>24</timebase>
								<ntsc>TRUE</ntsc>
							</rate>
							<duration>63</duration>
							<timecode>
								<rate>
									<timebase>24</timebase>
									<ntsc>TRUE</ntsc>
								</rate>
								<string>09:36:41:06</string>
								<frame>830430</frame>
								<displayformat>NDF</displayformat>
								<reel>
									<name>A0010007</name>
								</reel>
							</timecode>
							<media>
								<video>
									<samplecharacteristics>
										<rate>
											<timebase>24</timebase>
											<ntsc>TRUE</ntsc>
										</rate>
										<width>4096</width>
										<height>2160</height>
										<anamorphic>FALSE</anamorphic>
										<pixelaspectratio>square</pixelaspectratio>
										<fielddominance>none</fielddominance>
									</samplecharacteristics>
								</video>
							</media>
						</file>
						<logginginfo>
							<description></description>
							<scene></scene>
							<shottake></shottake>
							<lognote></lognote>
							<good></good>
							<originalvideofilename></originalvideofilename>
							<originalaudiofilename></originalaudiofilename>
						</logginginfo>
						<colorinfo>
							<lut></lut>
							<lut1></lut1>
							<asc_sop></asc_sop>
							<asc_sat></asc_sat>
							<lut2></lut2>
						</colorinfo>
						<labels>
							<label2>Violet</label2>
						</labels>
					</clipitem>
					<clipitem id="clipitem-414">
						<masterclipid>masterclip-411</masterclipid>
						<name>TKO_010_POL_Sh04250_V02.mov</name>
						<enabled>TRUE</enabled>
						<duration>73</duration>
						<rate>
							<timebase>24</timebase>
							<ntsc>TRUE</ntsc>
						</rate>
						<start>36886</start>
						<end>36937</end>
						<in>18</in>
						<out>69</out>
						<pproTicksIn>190702512000</pproTicksIn>
						<pproTicksOut>731026296000</pproTicksOut>
						<alphatype>none</alphatype>
						<pixelaspectratio>square</pixelaspectratio>
						<anamorphic>FALSE</anamorphic>
						<file id="file-411">
							<name>TKO_010_POL_Sh04250_V02.mov</name>
							<pathurl>file://tri-stor01/Projects/TKO/SHOTS/_Refs_Movs_Burnin_FrameCounter/TKO_010_POL_Sh04250_V02.mov</pathurl>
							<rate>
								<timebase>24</timebase>
								<ntsc>TRUE</ntsc>
							</rate>
							<duration>73</duration>
							<timecode>
								<rate>
									<timebase>24</timebase>
									<ntsc>TRUE</ntsc>
								</rate>
								<string>09:36:43:13</string>
								<frame>830485</frame>
								<displayformat>NDF</displayformat>
								<reel>
									<name>B0010010</name>
								</reel>
							</timecode>
							<media>
								<video>
									<samplecharacteristics>
										<rate>
											<timebase>24</timebase>
											<ntsc>TRUE</ntsc>
										</rate>
										<width>4096</width>
										<height>2160</height>
										<anamorphic>FALSE</anamorphic>
										<pixelaspectratio>square</pixelaspectratio>
										<fielddominance>none</fielddominance>
									</samplecharacteristics>
								</video>
							</media>
						</file>
						<logginginfo>
							<description></description>
							<scene></scene>
							<shottake></shottake>
							<lognote></lognote>
							<good></good>
							<originalvideofilename></originalvideofilename>
							<originalaudiofilename></originalaudiofilename>
						</logginginfo>
						<colorinfo>
							<lut></lut>
							<lut1></lut1>
							<asc_sop></asc_sop>
							<asc_sat></asc_sat>
							<lut2></lut2>
						</colorinfo>
						<labels>
							<label2>Violet</label2>
						</labels>
					</clipitem>
					<clipitem id="clipitem-415">
						<masterclipid>masterclip-412</masterclipid>
						<name>TKO_010_POL_Sh04260_MERGED.mov</name>
						<enabled>TRUE</enabled>
						<duration>170</duration>
						<rate>
							<timebase>24</timebase>
							<ntsc>TRUE</ntsc>
						</rate>
						<start>36937</start>
						<end>37099</end>
						<in>4</in>
						<out>166</out>
						<pproTicksIn>42378336000</pproTicksIn>
						<pproTicksOut>1758700944000</pproTicksOut>
						<alphatype>none</alphatype>
						<pixelaspectratio>square</pixelaspectratio>
						<anamorphic>FALSE</anamorphic>
						<file id="file-412">
							<name>TKO_010_POL_Sh04260_MERGED.mov</name>
							<pathurl>file://tri-stor01/Projects/TKO/SHOTS/_Refs_Movs_Burnin_FrameCounter/TKO_010_POL_Sh04260_MERGED.mov</pathurl>
							<rate>
								<timebase>24</timebase>
								<ntsc>TRUE</ntsc>
							</rate>
							<duration>170</duration>
							<timecode>
								<rate>
									<timebase>24</timebase>
									<ntsc>TRUE</ntsc>
								</rate>
								<string>00:00:00:00</string>
								<frame>0</frame>
								<displayformat>NDF</displayformat>
							</timecode>
							<media>
								<video>
									<samplecharacteristics>
										<rate>
											<timebase>24</timebase>
											<ntsc>TRUE</ntsc>
										</rate>
										<width>1920</width>
										<height>1080</height>
										<anamorphic>FALSE</anamorphic>
										<pixelaspectratio>square</pixelaspectratio>
										<fielddominance>none</fielddominance>
									</samplecharacteristics>
								</video>
								<audio>
									<samplecharacteristics>
										<depth>16</depth>
										<samplerate>48000</samplerate>
									</samplecharacteristics>
									<channelcount>2</channelcount>
								</audio>
							</media>
						</file>
						<logginginfo>
							<description></description>
							<scene></scene>
							<shottake></shottake>
							<lognote></lognote>
							<good></good>
							<originalvideofilename></originalvideofilename>
							<originalaudiofilename></originalaudiofilename>
						</logginginfo>
						<colorinfo>
							<lut></lut>
							<lut1></lut1>
							<asc_sop></asc_sop>
							<asc_sat></asc_sat>
							<lut2></lut2>
						</colorinfo>
						<labels>
							<label2>Iris</label2>
						</labels>
					</clipitem>
					<clipitem id="clipitem-416">
						<masterclipid>masterclip-413</masterclipid>
						<name>TKO_010_POL_Sh04270.mov</name>
						<enabled>TRUE</enabled>
						<duration>99</duration>
						<rate>
							<timebase>24</timebase>
							<ntsc>TRUE</ntsc>
						</rate>
						<start>37099</start>
						<end>37190</end>
						<in>4</in>
						<out>95</out>
						<pproTicksIn>42378336000</pproTicksIn>
						<pproTicksOut>1006485480000</pproTicksOut>
						<alphatype>none</alphatype>
						<pixelaspectratio>square</pixelaspectratio>
						<anamorphic>FALSE</anamorphic>
						<file id="file-413">
							<name>TKO_010_POL_Sh04270.mov</name>
							<pathurl>file://tri-stor01/Projects/TKO/SHOTS/_Refs_Movs_Burnin_FrameCounter/TKO_010_POL_Sh04270.mov</pathurl>
							<rate>
								<timebase>24</timebase>
								<ntsc>TRUE</ntsc>
							</rate>
							<duration>99</duration>
							<timecode>
								<rate>
									<timebase>24</timebase>
									<ntsc>TRUE</ntsc>
								</rate>
								<string>09:42:09:08</string>
								<frame>838304</frame>
								<displayformat>NDF</displayformat>
								<reel>
									<name>A0010009</name>
								</reel>
							</timecode>
							<media>
								<video>
									<samplecharacteristics>
										<rate>
											<timebase>24</timebase>
											<ntsc>TRUE</ntsc>
										</rate>
										<width>4096</width>
										<height>2160</height>
										<anamorphic>FALSE</anamorphic>
										<pixelaspectratio>square</pixelaspectratio>
										<fielddominance>none</fielddominance>
									</samplecharacteristics>
								</video>
							</media>
						</file>
						<logginginfo>
							<description></description>
							<scene></scene>
							<shottake></shottake>
							<lognote></lognote>
							<good></good>
							<originalvideofilename></originalvideofilename>
							<originalaudiofilename></originalaudiofilename>
						</logginginfo>
						<colorinfo>
							<lut></lut>
							<lut1></lut1>
							<asc_sop></asc_sop>
							<asc_sat></asc_sat>
							<lut2></lut2>
						</colorinfo>
						<labels>
							<label2>Violet</label2>
						</labels>
					</clipitem>
					<clipitem id="clipitem-417">
						<masterclipid>masterclip-414</masterclipid>
						<name>TKO_010_POL_Sh04280_V02.mov</name>
						<enabled>TRUE</enabled>
						<duration>116</duration>
						<rate>
							<timebase>24</timebase>
							<ntsc>TRUE</ntsc>
						</rate>
						<start>37190</start>
						<end>37284</end>
						<in>18</in>
						<out>112</out>
						<pproTicksIn>190702512000</pproTicksIn>
						<pproTicksOut>1186593408000</pproTicksOut>
						<alphatype>none</alphatype>
						<pixelaspectratio>square</pixelaspectratio>
						<anamorphic>FALSE</anamorphic>
						<file id="file-414">
							<name>TKO_010_POL_Sh04280_V02.mov</name>
							<pathurl>file://tri-stor01/Projects/TKO/SHOTS/_Refs_Movs_Burnin_FrameCounter/TKO_010_POL_Sh04280_V02.mov</pathurl>
							<rate>
								<timebase>24</timebase>
								<ntsc>TRUE</ntsc>
							</rate>
							<duration>116</duration>
							<timecode>
								<rate>
									<timebase>24</timebase>
									<ntsc>TRUE</ntsc>
								</rate>
								<string>09:42:13:03</string>
								<frame>838395</frame>
								<displayformat>NDF</displayformat>
								<reel>
									<name>B0010012</name>
								</reel>
							</timecode>
							<media>
								<video>
									<samplecharacteristics>
										<rate>
											<timebase>24</timebase>
											<ntsc>TRUE</ntsc>
										</rate>
										<width>4096</width>
										<height>2160</height>
										<anamorphic>FALSE</anamorphic>
										<pixelaspectratio>square</pixelaspectratio>
										<fielddominance>none</fielddominance>
									</samplecharacteristics>
								</video>
							</media>
						</file>
						<logginginfo>
							<description></description>
							<scene></scene>
							<shottake></shottake>
							<lognote></lognote>
							<good></good>
							<originalvideofilename></originalvideofilename>
							<originalaudiofilename></originalaudiofilename>
						</logginginfo>
						<colorinfo>
							<lut></lut>
							<lut1></lut1>
							<asc_sop></asc_sop>
							<asc_sat></asc_sat>
							<lut2></lut2>
						</colorinfo>
						<labels>
							<label2>Violet</label2>
						</labels>
					</clipitem>
					<clipitem id="clipitem-418">
						<masterclipid>masterclip-415</masterclipid>
						<name>TKO_010_POL_Sh04290.mov</name>
						<enabled>TRUE</enabled>
						<duration>126</duration>
						<rate>
							<timebase>24</timebase>
							<ntsc>TRUE</ntsc>
						</rate>
						<start>37284</start>
						<end>37402</end>
						<in>4</in>
						<out>122</out>
						<pproTicksIn>42378336000</pproTicksIn>
						<pproTicksOut>1292539248000</pproTicksOut>
						<alphatype>none</alphatype>
						<pixelaspectratio>square</pixelaspectratio>
						<anamorphic>FALSE</anamorphic>
						<file id="file-415">
							<name>TKO_010_POL_Sh04290.mov</name>
							<pathurl>file://tri-stor01/Projects/TKO/SHOTS/_Refs_Movs_Burnin_FrameCounter/TKO_010_POL_Sh04290.mov</pathurl>
							<rate>
								<timebase>24</timebase>
								<ntsc>TRUE</ntsc>
							</rate>
							<duration>126</duration>
							<timecode>
								<rate>
									<timebase>24</timebase>
									<ntsc>TRUE</ntsc>
								</rate>
								<string>00:20:42:15</string>
								<frame>29823</frame>
								<displayformat>NDF</displayformat>
							</timecode>
							<media>
								<video>
									<samplecharacteristics>
										<rate>
											<timebase>24</timebase>
											<ntsc>TRUE</ntsc>
										</rate>
										<width>1280</width>
										<height>720</height>
										<anamorphic>FALSE</anamorphic>
										<pixelaspectratio>square</pixelaspectratio>
										<fielddominance>none</fielddominance>
									</samplecharacteristics>
								</video>
							</media>
						</file>
						<logginginfo>
							<description></description>
							<scene></scene>
							<shottake></shottake>
							<lognote></lognote>
							<good></good>
							<originalvideofilename></originalvideofilename>
							<originalaudiofilename></originalaudiofilename>
						</logginginfo>
						<colorinfo>
							<lut></lut>
							<lut1></lut1>
							<asc_sop></asc_sop>
							<asc_sat></asc_sat>
							<lut2></lut2>
						</colorinfo>
						<labels>
							<label2>Violet</label2>
						</labels>
					</clipitem>
					<clipitem id="clipitem-419">
						<masterclipid>masterclip-416</masterclipid>
						<name>TKO_010_POL_Sh04300.mov</name>
						<enabled>FALSE</enabled>
						<duration>127</duration>
						<rate>
							<timebase>24</timebase>
							<ntsc>TRUE</ntsc>
						</rate>
						<start>37402</start>
						<end>37482</end>
						<in>4</in>
						<out>84</out>
						<pproTicksIn>42378336000</pproTicksIn>
						<pproTicksOut>889945056000</pproTicksOut>
						<alphatype>none</alphatype>
						<pixelaspectratio>square</pixelaspectratio>
						<anamorphic>FALSE</anamorphic>
						<file id="file-416">
							<name>TKO_010_POL_Sh04300.mov</name>
							<pathurl>file://tri-stor01/Projects/TKO/SHOTS/_Refs_Movs_Burnin_FrameCounter/TKO_010_POL_Sh04300.mov</pathurl>
							<rate>
								<timebase>24</timebase>
								<ntsc>TRUE</ntsc>
							</rate>
							<duration>127</duration>
							<timecode>
								<rate>
									<timebase>24</timebase>
									<ntsc>TRUE</ntsc>
								</rate>
								<string>00:20:47:13</string>
								<frame>29941</frame>
								<displayformat>NDF</displayformat>
							</timecode>
							<media>
								<video>
									<samplecharacteristics>
										<rate>
											<timebase>24</timebase>
											<ntsc>TRUE</ntsc>
										</rate>
										<width>1280</width>
										<height>720</height>
										<anamorphic>FALSE</anamorphic>
										<pixelaspectratio>square</pixelaspectratio>
										<fielddominance>none</fielddominance>
									</samplecharacteristics>
								</video>
							</media>
						</file>
						<logginginfo>
							<description></description>
							<scene></scene>
							<shottake></shottake>
							<lognote></lognote>
							<good></good>
							<originalvideofilename></originalvideofilename>
							<originalaudiofilename></originalaudiofilename>
						</logginginfo>
						<colorinfo>
							<lut></lut>
							<lut1></lut1>
							<asc_sop></asc_sop>
							<asc_sat></asc_sat>
							<lut2></lut2>
						</colorinfo>
						<labels>
							<label2>Violet</label2>
						</labels>
					</clipitem>
					<clipitem id="clipitem-420">
						<masterclipid>masterclip-417</masterclipid>
						<name>TKO_010_POL_Sh04320.mov</name>
						<enabled>TRUE</enabled>
						<duration>137</duration>
						<rate>
							<timebase>24</timebase>
							<ntsc>TRUE</ntsc>
						</rate>
						<start>37482</start>
						<end>37611</end>
						<in>4</in>
						<out>133</out>
						<pproTicksIn>42378336000</pproTicksIn>
						<pproTicksOut>1409079672000</pproTicksOut>
						<alphatype>none</alphatype>
						<pixelaspectratio>square</pixelaspectratio>
						<anamorphic>FALSE</anamorphic>
						<file id="file-417">
							<name>TKO_010_POL_Sh04320.mov</name>
							<pathurl>file://tri-stor01/Projects/TKO/SHOTS/_Refs_Movs_Burnin_FrameCounter/TKO_010_POL_Sh04320.mov</pathurl>
							<rate>
								<timebase>24</timebase>
								<ntsc>TRUE</ntsc>
							</rate>
							<duration>137</duration>
							<timecode>
								<rate>
									<timebase>24</timebase>
									<ntsc>TRUE</ntsc>
								</rate>
								<string>11:04:37:04</string>
								<frame>957052</frame>
								<displayformat>NDF</displayformat>
								<reel>
									<name>A0140002</name>
								</reel>
							</timecode>
							<media>
								<video>
									<samplecharacteristics>
										<rate>
											<timebase>24</timebase>
											<ntsc>TRUE</ntsc>
										</rate>
										<width>4096</width>
										<height>2160</height>
										<anamorphic>FALSE</anamorphic>
										<pixelaspectratio>square</pixelaspectratio>
										<fielddominance>none</fielddominance>
									</samplecharacteristics>
								</video>
							</media>
						</file>
						<logginginfo>
							<description></description>
							<scene></scene>
							<shottake></shottake>
							<lognote></lognote>
							<good></good>
							<originalvideofilename></originalvideofilename>
							<originalaudiofilename></originalaudiofilename>
						</logginginfo>
						<colorinfo>
							<lut></lut>
							<lut1></lut1>
							<asc_sop></asc_sop>
							<asc_sat></asc_sat>
							<lut2></lut2>
						</colorinfo>
						<labels>
							<label2>Violet</label2>
						</labels>
					</clipitem>
					<clipitem id="clipitem-421">
						<masterclipid>masterclip-418</masterclipid>
						<name>TKO_010_POL_Sh04330.mov</name>
						<enabled>TRUE</enabled>
						<duration>85</duration>
						<rate>
							<timebase>24</timebase>
							<ntsc>TRUE</ntsc>
						</rate>
						<start>37611</start>
						<end>37688</end>
						<in>4</in>
						<out>81</out>
						<pproTicksIn>42378336000</pproTicksIn>
						<pproTicksOut>858161304000</pproTicksOut>
						<alphatype>none</alphatype>
						<pixelaspectratio>square</pixelaspectratio>
						<anamorphic>FALSE</anamorphic>
						<file id="file-418">
							<name>TKO_010_POL_Sh04330.mov</name>
							<pathurl>file://tri-stor01/Projects/TKO/SHOTS/_Refs_Movs_Burnin_FrameCounter/TKO_010_POL_Sh04330.mov</pathurl>
							<rate>
								<timebase>24</timebase>
								<ntsc>TRUE</ntsc>
							</rate>
							<duration>85</duration>
							<timecode>
								<rate>
									<timebase>24</timebase>
									<ntsc>TRUE</ntsc>
								</rate>
								<string>11:04:42:13</string>
								<frame>957181</frame>
								<displayformat>NDF</displayformat>
								<reel>
									<name>B0110001</name>
								</reel>
							</timecode>
							<media>
								<video>
									<samplecharacteristics>
										<rate>
											<timebase>24</timebase>
											<ntsc>TRUE</ntsc>
										</rate>
										<width>4096</width>
										<height>2160</height>
										<anamorphic>FALSE</anamorphic>
										<pixelaspectratio>square</pixelaspectratio>
										<fielddominance>none</fielddominance>
									</samplecharacteristics>
								</video>
							</media>
						</file>
						<logginginfo>
							<description></description>
							<scene></scene>
							<shottake></shottake>
							<lognote></lognote>
							<good></good>
							<originalvideofilename></originalvideofilename>
							<originalaudiofilename></originalaudiofilename>
						</logginginfo>
						<colorinfo>
							<lut></lut>
							<lut1></lut1>
							<asc_sop></asc_sop>
							<asc_sat></asc_sat>
							<lut2></lut2>
						</colorinfo>
						<labels>
							<label2>Violet</label2>
						</labels>
					</clipitem>
					<clipitem id="clipitem-422">
						<masterclipid>masterclip-419</masterclipid>
						<name>TKO_010_POL_Sh04340.mov</name>
						<enabled>TRUE</enabled>
						<duration>65</duration>
						<rate>
							<timebase>24</timebase>
							<ntsc>TRUE</ntsc>
						</rate>
						<start>37688</start>
						<end>37745</end>
						<in>4</in>
						<out>61</out>
						<pproTicksIn>42378336000</pproTicksIn>
						<pproTicksOut>646269624000</pproTicksOut>
						<alphatype>none</alphatype>
						<pixelaspectratio>square</pixelaspectratio>
						<anamorphic>FALSE</anamorphic>
						<file id="file-419">
							<name>TKO_010_POL_Sh04340.mov</name>
							<pathurl>file://tri-stor01/Projects/TKO/SHOTS/_Refs_Movs_Burnin_FrameCounter/TKO_010_POL_Sh04340.mov</pathurl>
							<rate>
								<timebase>24</timebase>
								<ntsc>TRUE</ntsc>
							</rate>
							<duration>65</duration>
							<timecode>
								<rate>
									<timebase>24</timebase>
									<ntsc>TRUE</ntsc>
								</rate>
								<string>11:04:45:18</string>
								<frame>957258</frame>
								<displayformat>NDF</displayformat>
								<reel>
									<name>A0140002</name>
								</reel>
							</timecode>
							<media>
								<video>
									<samplecharacteristics>
										<rate>
											<timebase>24</timebase>
											<ntsc>TRUE</ntsc>
										</rate>
										<width>4096</width>
										<height>2160</height>
										<anamorphic>FALSE</anamorphic>
										<pixelaspectratio>square</pixelaspectratio>
										<fielddominance>none</fielddominance>
									</samplecharacteristics>
								</video>
							</media>
						</file>
						<logginginfo>
							<description></description>
							<scene></scene>
							<shottake></shottake>
							<lognote></lognote>
							<good></good>
							<originalvideofilename></originalvideofilename>
							<originalaudiofilename></originalaudiofilename>
						</logginginfo>
						<colorinfo>
							<lut></lut>
							<lut1></lut1>
							<asc_sop></asc_sop>
							<asc_sat></asc_sat>
							<lut2></lut2>
						</colorinfo>
						<labels>
							<label2>Violet</label2>
						</labels>
					</clipitem>
					<clipitem id="clipitem-423">
						<masterclipid>masterclip-420</masterclipid>
						<name>TKO_010_POL_Sh04350.mov</name>
						<enabled>TRUE</enabled>
						<duration>113</duration>
						<rate>
							<timebase>24</timebase>
							<ntsc>TRUE</ntsc>
						</rate>
						<start>37745</start>
						<end>37850</end>
						<in>4</in>
						<out>109</out>
						<pproTicksIn>42378336000</pproTicksIn>
						<pproTicksOut>1154809656000</pproTicksOut>
						<alphatype>none</alphatype>
						<pixelaspectratio>square</pixelaspectratio>
						<anamorphic>FALSE</anamorphic>
						<file id="file-420">
							<name>TKO_010_POL_Sh04350.mov</name>
							<pathurl>file://tri-stor01/Projects/TKO/SHOTS/_Refs_Movs_Burnin_FrameCounter/TKO_010_POL_Sh04350.mov</pathurl>
							<rate>
								<timebase>24</timebase>
								<ntsc>TRUE</ntsc>
							</rate>
							<duration>113</duration>
							<timecode>
								<rate>
									<timebase>24</timebase>
									<ntsc>TRUE</ntsc>
								</rate>
								<string>00:00:00:00</string>
								<frame>0</frame>
								<displayformat>NDF</displayformat>
							</timecode>
							<media>
								<video>
									<samplecharacteristics>
										<rate>
											<timebase>24</timebase>
											<ntsc>TRUE</ntsc>
										</rate>
										<width>4096</width>
										<height>2160</height>
										<anamorphic>FALSE</anamorphic>
										<pixelaspectratio>square</pixelaspectratio>
										<fielddominance>none</fielddominance>
									</samplecharacteristics>
								</video>
							</media>
						</file>
						<logginginfo>
							<description></description>
							<scene></scene>
							<shottake></shottake>
							<lognote></lognote>
							<good></good>
							<originalvideofilename></originalvideofilename>
							<originalaudiofilename></originalaudiofilename>
						</logginginfo>
						<colorinfo>
							<lut></lut>
							<lut1></lut1>
							<asc_sop></asc_sop>
							<asc_sat></asc_sat>
							<lut2></lut2>
						</colorinfo>
						<labels>
							<label2>Violet</label2>
						</labels>
					</clipitem>
					<clipitem id="clipitem-424">
						<masterclipid>masterclip-421</masterclipid>
						<name>TKO_010_POL_Sh04360.mov</name>
						<enabled>TRUE</enabled>
						<duration>73</duration>
						<rate>
							<timebase>24</timebase>
							<ntsc>TRUE</ntsc>
						</rate>
						<start>37850</start>
						<end>37915</end>
						<in>4</in>
						<out>69</out>
						<pproTicksIn>42378336000</pproTicksIn>
						<pproTicksOut>731026296000</pproTicksOut>
						<alphatype>none</alphatype>
						<pixelaspectratio>square</pixelaspectratio>
						<anamorphic>FALSE</anamorphic>
						<file id="file-421">
							<name>TKO_010_POL_Sh04360.mov</name>
							<pathurl>file://tri-stor01/Projects/TKO/SHOTS/_Refs_Movs_Burnin_FrameCounter/TKO_010_POL_Sh04360.mov</pathurl>
							<rate>
								<timebase>24</timebase>
								<ntsc>TRUE</ntsc>
							</rate>
							<duration>73</duration>
							<timecode>
								<rate>
									<timebase>24</timebase>
									<ntsc>TRUE</ntsc>
								</rate>
								<string>16:24:23:23</string>
								<frame>1417535</frame>
								<displayformat>NDF</displayformat>
								<reel>
									<name>A0440005</name>
								</reel>
							</timecode>
							<media>
								<video>
									<samplecharacteristics>
										<rate>
											<timebase>24</timebase>
											<ntsc>TRUE</ntsc>
										</rate>
										<width>4096</width>
										<height>2160</height>
										<anamorphic>FALSE</anamorphic>
										<pixelaspectratio>square</pixelaspectratio>
										<fielddominance>none</fielddominance>
									</samplecharacteristics>
								</video>
							</media>
						</file>
						<logginginfo>
							<description></description>
							<scene></scene>
							<shottake></shottake>
							<lognote></lognote>
							<good></good>
							<originalvideofilename></originalvideofilename>
							<originalaudiofilename></originalaudiofilename>
						</logginginfo>
						<colorinfo>
							<lut></lut>
							<lut1></lut1>
							<asc_sop></asc_sop>
							<asc_sat></asc_sat>
							<lut2></lut2>
						</colorinfo>
						<labels>
							<label2>Violet</label2>
						</labels>
					</clipitem>
					<clipitem id="clipitem-425">
						<masterclipid>masterclip-422</masterclipid>
						<name>TKO_010_POL_Sh04370.mov</name>
						<enabled>TRUE</enabled>
						<duration>250</duration>
						<rate>
							<timebase>24</timebase>
							<ntsc>TRUE</ntsc>
						</rate>
						<start>37915</start>
						<end>38157</end>
						<in>4</in>
						<out>246</out>
						<pproTicksIn>42378336000</pproTicksIn>
						<pproTicksOut>2606267664000</pproTicksOut>
						<alphatype>none</alphatype>
						<pixelaspectratio>square</pixelaspectratio>
						<anamorphic>FALSE</anamorphic>
						<file id="file-422">
							<name>TKO_010_POL_Sh04370.mov</name>
							<pathurl>file://tri-stor01/Projects/TKO/SHOTS/_Refs_Movs_Burnin_FrameCounter/TKO_010_POL_Sh04370.mov</pathurl>
							<rate>
								<timebase>24</timebase>
								<ntsc>TRUE</ntsc>
							</rate>
							<duration>250</duration>
							<timecode>
								<rate>
									<timebase>24</timebase>
									<ntsc>TRUE</ntsc>
								</rate>
								<string>16:15:42:10</string>
								<frame>1405018</frame>
								<displayformat>NDF</displayformat>
								<reel>
									<name>A0440004</name>
								</reel>
							</timecode>
							<media>
								<video>
									<samplecharacteristics>
										<rate>
											<timebase>24</timebase>
											<ntsc>TRUE</ntsc>
										</rate>
										<width>4096</width>
										<height>2160</height>
										<anamorphic>FALSE</anamorphic>
										<pixelaspectratio>square</pixelaspectratio>
										<fielddominance>none</fielddominance>
									</samplecharacteristics>
								</video>
							</media>
						</file>
						<logginginfo>
							<description></description>
							<scene></scene>
							<shottake></shottake>
							<lognote></lognote>
							<good></good>
							<originalvideofilename></originalvideofilename>
							<originalaudiofilename></originalaudiofilename>
						</logginginfo>
						<colorinfo>
							<lut></lut>
							<lut1></lut1>
							<asc_sop></asc_sop>
							<asc_sat></asc_sat>
							<lut2></lut2>
						</colorinfo>
						<labels>
							<label2>Violet</label2>
						</labels>
					</clipitem>
					<clipitem id="clipitem-426">
						<masterclipid>masterclip-423</masterclipid>
						<name>TKO_010_POL_Sh04380.mov</name>
						<enabled>TRUE</enabled>
						<duration>74</duration>
						<rate>
							<timebase>24</timebase>
							<ntsc>TRUE</ntsc>
						</rate>
						<start>38157</start>
						<end>38223</end>
						<in>4</in>
						<out>70</out>
						<pproTicksIn>42378336000</pproTicksIn>
						<pproTicksOut>741620880000</pproTicksOut>
						<alphatype>none</alphatype>
						<pixelaspectratio>square</pixelaspectratio>
						<anamorphic>FALSE</anamorphic>
						<file id="file-423">
							<name>TKO_010_POL_Sh04380.mov</name>
							<pathurl>file://tri-stor01/Projects/TKO/SHOTS/_Refs_Movs_Burnin_FrameCounter/TKO_010_POL_Sh04380.mov</pathurl>
							<rate>
								<timebase>24</timebase>
								<ntsc>TRUE</ntsc>
							</rate>
							<duration>74</duration>
							<timecode>
								<rate>
									<timebase>24</timebase>
									<ntsc>TRUE</ntsc>
								</rate>
								<string>16:26:39:13</string>
								<frame>1420789</frame>
								<displayformat>NDF</displayformat>
								<reel>
									<name>B0380007</name>
								</reel>
							</timecode>
							<media>
								<video>
									<samplecharacteristics>
										<rate>
											<timebase>24</timebase>
											<ntsc>TRUE</ntsc>
										</rate>
										<width>4096</width>
										<height>2160</height>
										<anamorphic>FALSE</anamorphic>
										<pixelaspectratio>square</pixelaspectratio>
										<fielddominance>none</fielddominance>
									</samplecharacteristics>
								</video>
							</media>
						</file>
						<logginginfo>
							<description></description>
							<scene></scene>
							<shottake></shottake>
							<lognote></lognote>
							<good></good>
							<originalvideofilename></originalvideofilename>
							<originalaudiofilename></originalaudiofilename>
						</logginginfo>
						<colorinfo>
							<lut></lut>
							<lut1></lut1>
							<asc_sop></asc_sop>
							<asc_sat></asc_sat>
							<lut2></lut2>
						</colorinfo>
						<labels>
							<label2>Violet</label2>
						</labels>
					</clipitem>
					<clipitem id="clipitem-427">
						<masterclipid>masterclip-424</masterclipid>
						<name>TKO_010_POL_Sh04390.mov</name>
						<enabled>TRUE</enabled>
						<duration>56</duration>
						<rate>
							<timebase>24</timebase>
							<ntsc>TRUE</ntsc>
						</rate>
						<start>38223</start>
						<end>38271</end>
						<in>4</in>
						<out>52</out>
						<pproTicksIn>42378336000</pproTicksIn>
						<pproTicksOut>550918368000</pproTicksOut>
						<alphatype>none</alphatype>
						<pixelaspectratio>square</pixelaspectratio>
						<anamorphic>FALSE</anamorphic>
						<file id="file-424">
							<name>TKO_010_POL_Sh04390.mov</name>
							<pathurl>file://tri-stor01/Projects/TKO/SHOTS/_Refs_Movs_Burnin_FrameCounter/TKO_010_POL_Sh04390.mov</pathurl>
							<rate>
								<timebase>24</timebase>
								<ntsc>TRUE</ntsc>
							</rate>
							<duration>56</duration>
							<timecode>
								<rate>
									<timebase>24</timebase>
									<ntsc>TRUE</ntsc>
								</rate>
								<string>16:15:55:06</string>
								<frame>1405326</frame>
								<displayformat>NDF</displayformat>
								<reel>
									<name>A0440004</name>
								</reel>
							</timecode>
							<media>
								<video>
									<samplecharacteristics>
										<rate>
											<timebase>24</timebase>
											<ntsc>TRUE</ntsc>
										</rate>
										<width>4096</width>
										<height>2160</height>
										<anamorphic>FALSE</anamorphic>
										<pixelaspectratio>square</pixelaspectratio>
										<fielddominance>none</fielddominance>
									</samplecharacteristics>
								</video>
							</media>
						</file>
						<logginginfo>
							<description></description>
							<scene></scene>
							<shottake></shottake>
							<lognote></lognote>
							<good></good>
							<originalvideofilename></originalvideofilename>
							<originalaudiofilename></originalaudiofilename>
						</logginginfo>
						<colorinfo>
							<lut></lut>
							<lut1></lut1>
							<asc_sop></asc_sop>
							<asc_sat></asc_sat>
							<lut2></lut2>
						</colorinfo>
						<labels>
							<label2>Violet</label2>
						</labels>
					</clipitem>
					<clipitem id="clipitem-428">
						<masterclipid>masterclip-425</masterclipid>
						<name>TKO_010_POL_Sh04400.mov</name>
						<enabled>TRUE</enabled>
						<duration>71</duration>
						<rate>
							<timebase>24</timebase>
							<ntsc>TRUE</ntsc>
						</rate>
						<start>38271</start>
						<end>38334</end>
						<in>4</in>
						<out>67</out>
						<pproTicksIn>42378336000</pproTicksIn>
						<pproTicksOut>709837128000</pproTicksOut>
						<alphatype>none</alphatype>
						<pixelaspectratio>square</pixelaspectratio>
						<anamorphic>FALSE</anamorphic>
						<file id="file-425">
							<name>TKO_010_POL_Sh04400.mov</name>
							<pathurl>file://tri-stor01/Projects/TKO/SHOTS/_Refs_Movs_Burnin_FrameCounter/TKO_010_POL_Sh04400.mov</pathurl>
							<rate>
								<timebase>24</timebase>
								<ntsc>TRUE</ntsc>
							</rate>
							<duration>71</duration>
							<timecode>
								<rate>
									<timebase>24</timebase>
									<ntsc>TRUE</ntsc>
								</rate>
								<string>16:15:57:06</string>
								<frame>1405374</frame>
								<displayformat>NDF</displayformat>
								<reel>
									<name>B0380006</name>
								</reel>
							</timecode>
							<media>
								<video>
									<samplecharacteristics>
										<rate>
											<timebase>24</timebase>
											<ntsc>TRUE</ntsc>
										</rate>
										<width>4096</width>
										<height>2160</height>
										<anamorphic>FALSE</anamorphic>
										<pixelaspectratio>square</pixelaspectratio>
										<fielddominance>none</fielddominance>
									</samplecharacteristics>
								</video>
							</media>
						</file>
						<logginginfo>
							<description></description>
							<scene></scene>
							<shottake></shottake>
							<lognote></lognote>
							<good></good>
							<originalvideofilename></originalvideofilename>
							<originalaudiofilename></originalaudiofilename>
						</logginginfo>
						<colorinfo>
							<lut></lut>
							<lut1></lut1>
							<asc_sop></asc_sop>
							<asc_sat></asc_sat>
							<lut2></lut2>
						</colorinfo>
						<labels>
							<label2>Violet</label2>
						</labels>
					</clipitem>
					<clipitem id="clipitem-429">
						<masterclipid>masterclip-426</masterclipid>
						<name>TKO_010_POL_Sh04410.mov</name>
						<enabled>TRUE</enabled>
						<duration>76</duration>
						<rate>
							<timebase>24</timebase>
							<ntsc>TRUE</ntsc>
						</rate>
						<start>38334</start>
						<end>38402</end>
						<in>4</in>
						<out>72</out>
						<pproTicksIn>42378336000</pproTicksIn>
						<pproTicksOut>762810048000</pproTicksOut>
						<alphatype>none</alphatype>
						<pixelaspectratio>square</pixelaspectratio>
						<anamorphic>FALSE</anamorphic>
						<file id="file-426">
							<name>TKO_010_POL_Sh04410.mov</name>
							<pathurl>file://tri-stor01/Projects/TKO/SHOTS/_Refs_Movs_Burnin_FrameCounter/TKO_010_POL_Sh04410.mov</pathurl>
							<rate>
								<timebase>24</timebase>
								<ntsc>TRUE</ntsc>
							</rate>
							<duration>76</duration>
							<timecode>
								<rate>
									<timebase>24</timebase>
									<ntsc>TRUE</ntsc>
								</rate>
								<string>16:15:59:21</string>
								<frame>1405437</frame>
								<displayformat>NDF</displayformat>
								<reel>
									<name>A0440004</name>
								</reel>
							</timecode>
							<media>
								<video>
									<samplecharacteristics>
										<rate>
											<timebase>24</timebase>
											<ntsc>TRUE</ntsc>
										</rate>
										<width>4096</width>
										<height>2160</height>
										<anamorphic>FALSE</anamorphic>
										<pixelaspectratio>square</pixelaspectratio>
										<fielddominance>none</fielddominance>
									</samplecharacteristics>
								</video>
							</media>
						</file>
						<logginginfo>
							<description></description>
							<scene></scene>
							<shottake></shottake>
							<lognote></lognote>
							<good></good>
							<originalvideofilename></originalvideofilename>
							<originalaudiofilename></originalaudiofilename>
						</logginginfo>
						<colorinfo>
							<lut></lut>
							<lut1></lut1>
							<asc_sop></asc_sop>
							<asc_sat></asc_sat>
							<lut2></lut2>
						</colorinfo>
						<labels>
							<label2>Violet</label2>
						</labels>
					</clipitem>
					<clipitem id="clipitem-430">
						<masterclipid>masterclip-427</masterclipid>
						<name>TKO_010_POL_Sh04420.mov</name>
						<enabled>TRUE</enabled>
						<duration>102</duration>
						<rate>
							<timebase>24</timebase>
							<ntsc>TRUE</ntsc>
						</rate>
						<start>38402</start>
						<end>38496</end>
						<in>4</in>
						<out>98</out>
						<pproTicksIn>42378336000</pproTicksIn>
						<pproTicksOut>1038269232000</pproTicksOut>
						<alphatype>none</alphatype>
						<pixelaspectratio>square</pixelaspectratio>
						<anamorphic>FALSE</anamorphic>
						<file id="file-427">
							<name>TKO_010_POL_Sh04420.mov</name>
							<pathurl>file://tri-stor01/Projects/TKO/SHOTS/_Refs_Movs_Burnin_FrameCounter/TKO_010_POL_Sh04420.mov</pathurl>
							<rate>
								<timebase>24</timebase>
								<ntsc>TRUE</ntsc>
							</rate>
							<duration>102</duration>
							<timecode>
								<rate>
									<timebase>24</timebase>
									<ntsc>TRUE</ntsc>
								</rate>
								<string>16:26:59:22</string>
								<frame>1421278</frame>
								<displayformat>NDF</displayformat>
								<reel>
									<name>B0380007</name>
								</reel>
							</timecode>
							<media>
								<video>
									<samplecharacteristics>
										<rate>
											<timebase>24</timebase>
											<ntsc>TRUE</ntsc>
										</rate>
										<width>4096</width>
										<height>2160</height>
										<anamorphic>FALSE</anamorphic>
										<pixelaspectratio>square</pixelaspectratio>
										<fielddominance>none</fielddominance>
									</samplecharacteristics>
								</video>
							</media>
						</file>
						<logginginfo>
							<description></description>
							<scene></scene>
							<shottake></shottake>
							<lognote></lognote>
							<good></good>
							<originalvideofilename></originalvideofilename>
							<originalaudiofilename></originalaudiofilename>
						</logginginfo>
						<colorinfo>
							<lut></lut>
							<lut1></lut1>
							<asc_sop></asc_sop>
							<asc_sat></asc_sat>
							<lut2></lut2>
						</colorinfo>
						<labels>
							<label2>Violet</label2>
						</labels>
					</clipitem>
					<clipitem id="clipitem-431">
						<masterclipid>masterclip-428</masterclipid>
						<name>TKO_010_POL_Sh04430.mov</name>
						<enabled>TRUE</enabled>
						<duration>67</duration>
						<rate>
							<timebase>24</timebase>
							<ntsc>TRUE</ntsc>
						</rate>
						<start>38496</start>
						<end>38555</end>
						<in>4</in>
						<out>63</out>
						<pproTicksIn>42378336000</pproTicksIn>
						<pproTicksOut>667458792000</pproTicksOut>
						<alphatype>none</alphatype>
						<pixelaspectratio>square</pixelaspectratio>
						<anamorphic>FALSE</anamorphic>
						<file id="file-428">
							<name>TKO_010_POL_Sh04430.mov</name>
							<pathurl>file://tri-stor01/Projects/TKO/SHOTS/_Refs_Movs_Burnin_FrameCounter/TKO_010_POL_Sh04430.mov</pathurl>
							<rate>
								<timebase>24</timebase>
								<ntsc>TRUE</ntsc>
							</rate>
							<duration>67</duration>
							<timecode>
								<rate>
									<timebase>24</timebase>
									<ntsc>TRUE</ntsc>
								</rate>
								<string>16:16:06:04</string>
								<frame>1405588</frame>
								<displayformat>NDF</displayformat>
								<reel>
									<name>B0380006</name>
								</reel>
							</timecode>
							<media>
								<video>
									<samplecharacteristics>
										<rate>
											<timebase>24</timebase>
											<ntsc>TRUE</ntsc>
										</rate>
										<width>4096</width>
										<height>2160</height>
										<anamorphic>FALSE</anamorphic>
										<pixelaspectratio>square</pixelaspectratio>
										<fielddominance>none</fielddominance>
									</samplecharacteristics>
								</video>
							</media>
						</file>
						<logginginfo>
							<description></description>
							<scene></scene>
							<shottake></shottake>
							<lognote></lognote>
							<good></good>
							<originalvideofilename></originalvideofilename>
							<originalaudiofilename></originalaudiofilename>
						</logginginfo>
						<colorinfo>
							<lut></lut>
							<lut1></lut1>
							<asc_sop></asc_sop>
							<asc_sat></asc_sat>
							<lut2></lut2>
						</colorinfo>
						<labels>
							<label2>Violet</label2>
						</labels>
					</clipitem>
					<clipitem id="clipitem-432">
						<masterclipid>masterclip-429</masterclipid>
						<name>TKO_010_POL_Sh04440.mov</name>
						<enabled>TRUE</enabled>
						<duration>134</duration>
						<rate>
							<timebase>24</timebase>
							<ntsc>TRUE</ntsc>
						</rate>
						<start>38555</start>
						<end>38669</end>
						<in>4</in>
						<out>118</out>
						<pproTicksIn>42378336000</pproTicksIn>
						<pproTicksOut>1250160912000</pproTicksOut>
						<alphatype>none</alphatype>
						<pixelaspectratio>square</pixelaspectratio>
						<anamorphic>FALSE</anamorphic>
						<file id="file-429">
							<name>TKO_010_POL_Sh04440.mov</name>
							<pathurl>file://tri-stor01/Projects/TKO/SHOTS/_Refs_Movs_Burnin_FrameCounter/TKO_010_POL_Sh04440.mov</pathurl>
							<rate>
								<timebase>24</timebase>
								<ntsc>TRUE</ntsc>
							</rate>
							<duration>134</duration>
							<timecode>
								<rate>
									<timebase>24</timebase>
									<ntsc>TRUE</ntsc>
								</rate>
								<string>16:27:05:20</string>
								<frame>1421420</frame>
								<displayformat>NDF</displayformat>
								<reel>
									<name>B0380007</name>
								</reel>
							</timecode>
							<media>
								<video>
									<samplecharacteristics>
										<rate>
											<timebase>24</timebase>
											<ntsc>TRUE</ntsc>
										</rate>
										<width>4096</width>
										<height>2160</height>
										<anamorphic>FALSE</anamorphic>
										<pixelaspectratio>square</pixelaspectratio>
										<fielddominance>none</fielddominance>
									</samplecharacteristics>
								</video>
							</media>
						</file>
						<logginginfo>
							<description></description>
							<scene></scene>
							<shottake></shottake>
							<lognote></lognote>
							<good></good>
							<originalvideofilename></originalvideofilename>
							<originalaudiofilename></originalaudiofilename>
						</logginginfo>
						<colorinfo>
							<lut></lut>
							<lut1></lut1>
							<asc_sop></asc_sop>
							<asc_sat></asc_sat>
							<lut2></lut2>
						</colorinfo>
						<labels>
							<label2>Violet</label2>
						</labels>
					</clipitem>
					<clipitem id="clipitem-433">
						<masterclipid>masterclip-430</masterclipid>
						<name>TKO_010_POL_Sh04460.mov</name>
						<enabled>TRUE</enabled>
						<duration>369</duration>
						<rate>
							<timebase>24</timebase>
							<ntsc>TRUE</ntsc>
						</rate>
						<start>38669</start>
						<end>38996</end>
						<in>38</in>
						<out>365</out>
						<pproTicksIn>402594192000</pproTicksIn>
						<pproTicksOut>3867023160000</pproTicksOut>
						<alphatype>none</alphatype>
						<pixelaspectratio>square</pixelaspectratio>
						<anamorphic>FALSE</anamorphic>
						<file id="file-430">
							<name>TKO_010_POL_Sh04460.mov</name>
							<pathurl>file://tri-stor01/Projects/TKO/SHOTS/_Refs_Movs_Burnin_FrameCounter/TKO_010_POL_Sh04460.mov</pathurl>
							<rate>
								<timebase>24</timebase>
								<ntsc>TRUE</ntsc>
							</rate>
							<duration>369</duration>
							<timecode>
								<rate>
									<timebase>24</timebase>
									<ntsc>TRUE</ntsc>
								</rate>
								<string>16:16:16:15</string>
								<frame>1405839</frame>
								<displayformat>NDF</displayformat>
								<reel>
									<name>A0440004</name>
								</reel>
							</timecode>
							<media>
								<video>
									<samplecharacteristics>
										<rate>
											<timebase>24</timebase>
											<ntsc>TRUE</ntsc>
										</rate>
										<width>4096</width>
										<height>2160</height>
										<anamorphic>FALSE</anamorphic>
										<pixelaspectratio>square</pixelaspectratio>
										<fielddominance>none</fielddominance>
									</samplecharacteristics>
								</video>
							</media>
						</file>
						<logginginfo>
							<description></description>
							<scene></scene>
							<shottake></shottake>
							<lognote></lognote>
							<good></good>
							<originalvideofilename></originalvideofilename>
							<originalaudiofilename></originalaudiofilename>
						</logginginfo>
						<colorinfo>
							<lut></lut>
							<lut1></lut1>
							<asc_sop></asc_sop>
							<asc_sat></asc_sat>
							<lut2></lut2>
						</colorinfo>
						<labels>
							<label2>Violet</label2>
						</labels>
					</clipitem>
					<clipitem id="clipitem-434">
						<masterclipid>masterclip-431</masterclipid>
						<name>TKO_010_POL_Sh04470.mov</name>
						<enabled>TRUE</enabled>
						<duration>53</duration>
						<rate>
							<timebase>24</timebase>
							<ntsc>TRUE</ntsc>
						</rate>
						<start>38996</start>
						<end>39041</end>
						<in>4</in>
						<out>49</out>
						<pproTicksIn>42378336000</pproTicksIn>
						<pproTicksOut>519134616000</pproTicksOut>
						<alphatype>none</alphatype>
						<pixelaspectratio>square</pixelaspectratio>
						<anamorphic>FALSE</anamorphic>
						<file id="file-431">
							<name>TKO_010_POL_Sh04470.mov</name>
							<pathurl>file://tri-stor01/Projects/TKO/SHOTS/_Refs_Movs_Burnin_FrameCounter/TKO_010_POL_Sh04470.mov</pathurl>
							<rate>
								<timebase>24</timebase>
								<ntsc>TRUE</ntsc>
							</rate>
							<duration>53</duration>
							<timecode>
								<rate>
									<timebase>24</timebase>
									<ntsc>TRUE</ntsc>
								</rate>
								<string>16:27:26:23</string>
								<frame>1421927</frame>
								<displayformat>NDF</displayformat>
								<reel>
									<name>A0440005</name>
								</reel>
							</timecode>
							<media>
								<video>
									<samplecharacteristics>
										<rate>
											<timebase>24</timebase>
											<ntsc>TRUE</ntsc>
										</rate>
										<width>4096</width>
										<height>2160</height>
										<anamorphic>FALSE</anamorphic>
										<pixelaspectratio>square</pixelaspectratio>
										<fielddominance>none</fielddominance>
									</samplecharacteristics>
								</video>
							</media>
						</file>
						<logginginfo>
							<description></description>
							<scene></scene>
							<shottake></shottake>
							<lognote></lognote>
							<good></good>
							<originalvideofilename></originalvideofilename>
							<originalaudiofilename></originalaudiofilename>
						</logginginfo>
						<colorinfo>
							<lut></lut>
							<lut1></lut1>
							<asc_sop></asc_sop>
							<asc_sat></asc_sat>
							<lut2></lut2>
						</colorinfo>
						<labels>
							<label2>Violet</label2>
						</labels>
					</clipitem>
					<clipitem id="clipitem-435">
						<masterclipid>masterclip-432</masterclipid>
						<name>TKO_010_POL_Sh04480.mov</name>
						<enabled>TRUE</enabled>
						<duration>37</duration>
						<rate>
							<timebase>24</timebase>
							<ntsc>TRUE</ntsc>
						</rate>
						<start>39041</start>
						<end>39070</end>
						<in>4</in>
						<out>33</out>
						<pproTicksIn>42378336000</pproTicksIn>
						<pproTicksOut>349621272000</pproTicksOut>
						<alphatype>none</alphatype>
						<pixelaspectratio>square</pixelaspectratio>
						<anamorphic>FALSE</anamorphic>
						<file id="file-432">
							<name>TKO_010_POL_Sh04480.mov</name>
							<pathurl>file://tri-stor01/Projects/TKO/SHOTS/_Refs_Movs_Burnin_FrameCounter/TKO_010_POL_Sh04480.mov</pathurl>
							<rate>
								<timebase>24</timebase>
								<ntsc>TRUE</ntsc>
							</rate>
							<duration>37</duration>
							<timecode>
								<rate>
									<timebase>24</timebase>
									<ntsc>TRUE</ntsc>
								</rate>
								<string>16:27:28:15</string>
								<frame>1421967</frame>
								<displayformat>NDF</displayformat>
								<reel>
									<name>B0380007</name>
								</reel>
							</timecode>
							<media>
								<video>
									<samplecharacteristics>
										<rate>
											<timebase>24</timebase>
											<ntsc>TRUE</ntsc>
										</rate>
										<width>4096</width>
										<height>2160</height>
										<anamorphic>FALSE</anamorphic>
										<pixelaspectratio>square</pixelaspectratio>
										<fielddominance>none</fielddominance>
									</samplecharacteristics>
								</video>
							</media>
						</file>
						<logginginfo>
							<description></description>
							<scene></scene>
							<shottake></shottake>
							<lognote></lognote>
							<good></good>
							<originalvideofilename></originalvideofilename>
							<originalaudiofilename></originalaudiofilename>
						</logginginfo>
						<colorinfo>
							<lut></lut>
							<lut1></lut1>
							<asc_sop></asc_sop>
							<asc_sat></asc_sat>
							<lut2></lut2>
						</colorinfo>
						<labels>
							<label2>Violet</label2>
						</labels>
					</clipitem>
					<clipitem id="clipitem-436">
						<masterclipid>masterclip-433</masterclipid>
						<name>TKO_010_POL_Sh04490.mov</name>
						<enabled>TRUE</enabled>
						<duration>180</duration>
						<rate>
							<timebase>24</timebase>
							<ntsc>TRUE</ntsc>
						</rate>
						<start>39070</start>
						<end>39242</end>
						<in>4</in>
						<out>176</out>
						<pproTicksIn>42378336000</pproTicksIn>
						<pproTicksOut>1864646784000</pproTicksOut>
						<alphatype>none</alphatype>
						<pixelaspectratio>square</pixelaspectratio>
						<anamorphic>FALSE</anamorphic>
						<file id="file-433">
							<name>TKO_010_POL_Sh04490.mov</name>
							<pathurl>file://tri-stor01/Projects/TKO/SHOTS/_Refs_Movs_Burnin_FrameCounter/TKO_010_POL_Sh04490.mov</pathurl>
							<rate>
								<timebase>24</timebase>
								<ntsc>TRUE</ntsc>
							</rate>
							<duration>180</duration>
							<timecode>
								<rate>
									<timebase>24</timebase>
									<ntsc>TRUE</ntsc>
								</rate>
								<string>16:16:34:18</string>
								<frame>1406274</frame>
								<displayformat>NDF</displayformat>
								<reel>
									<name>B0380006</name>
								</reel>
							</timecode>
							<media>
								<video>
									<samplecharacteristics>
										<rate>
											<timebase>24</timebase>
											<ntsc>TRUE</ntsc>
										</rate>
										<width>4096</width>
										<height>2160</height>
										<anamorphic>FALSE</anamorphic>
										<pixelaspectratio>square</pixelaspectratio>
										<fielddominance>none</fielddominance>
									</samplecharacteristics>
								</video>
							</media>
						</file>
						<logginginfo>
							<description></description>
							<scene></scene>
							<shottake></shottake>
							<lognote></lognote>
							<good></good>
							<originalvideofilename></originalvideofilename>
							<originalaudiofilename></originalaudiofilename>
						</logginginfo>
						<colorinfo>
							<lut></lut>
							<lut1></lut1>
							<asc_sop></asc_sop>
							<asc_sat></asc_sat>
							<lut2></lut2>
						</colorinfo>
						<labels>
							<label2>Violet</label2>
						</labels>
					</clipitem>
					<clipitem id="clipitem-437">
						<masterclipid>masterclip-434</masterclipid>
						<name>TKO_010_POL_Sh04500.mov</name>
						<enabled>TRUE</enabled>
						<duration>74</duration>
						<rate>
							<timebase>24</timebase>
							<ntsc>TRUE</ntsc>
						</rate>
						<start>39242</start>
						<end>39308</end>
						<in>4</in>
						<out>70</out>
						<pproTicksIn>42378336000</pproTicksIn>
						<pproTicksOut>741620880000</pproTicksOut>
						<alphatype>none</alphatype>
						<pixelaspectratio>square</pixelaspectratio>
						<anamorphic>FALSE</anamorphic>
						<file id="file-434">
							<name>TKO_010_POL_Sh04500.mov</name>
							<pathurl>file://tri-stor01/Projects/TKO/SHOTS/_Refs_Movs_Burnin_FrameCounter/TKO_010_POL_Sh04500.mov</pathurl>
							<rate>
								<timebase>24</timebase>
								<ntsc>TRUE</ntsc>
							</rate>
							<duration>74</duration>
							<timecode>
								<rate>
									<timebase>24</timebase>
									<ntsc>TRUE</ntsc>
								</rate>
								<string>16:27:33:22</string>
								<frame>1422094</frame>
								<displayformat>NDF</displayformat>
								<reel>
									<name>B0380007</name>
								</reel>
							</timecode>
							<media>
								<video>
									<samplecharacteristics>
										<rate>
											<timebase>24</timebase>
											<ntsc>TRUE</ntsc>
										</rate>
										<width>4096</width>
										<height>2160</height>
										<anamorphic>FALSE</anamorphic>
										<pixelaspectratio>square</pixelaspectratio>
										<fielddominance>none</fielddominance>
									</samplecharacteristics>
								</video>
							</media>
						</file>
						<logginginfo>
							<description></description>
							<scene></scene>
							<shottake></shottake>
							<lognote></lognote>
							<good></good>
							<originalvideofilename></originalvideofilename>
							<originalaudiofilename></originalaudiofilename>
						</logginginfo>
						<colorinfo>
							<lut></lut>
							<lut1></lut1>
							<asc_sop></asc_sop>
							<asc_sat></asc_sat>
							<lut2></lut2>
						</colorinfo>
						<labels>
							<label2>Violet</label2>
						</labels>
					</clipitem>
					<clipitem id="clipitem-438">
						<masterclipid>masterclip-435</masterclipid>
						<name>TKO_010_POL_Sh04510.mov</name>
						<enabled>TRUE</enabled>
						<duration>324</duration>
						<rate>
							<timebase>24</timebase>
							<ntsc>TRUE</ntsc>
						</rate>
						<start>39308</start>
						<end>39624</end>
						<in>4</in>
						<out>320</out>
						<pproTicksIn>42378336000</pproTicksIn>
						<pproTicksOut>3390266880000</pproTicksOut>
						<alphatype>none</alphatype>
						<pixelaspectratio>square</pixelaspectratio>
						<anamorphic>FALSE</anamorphic>
						<file id="file-435">
							<name>TKO_010_POL_Sh04510.mov</name>
							<pathurl>file://tri-stor01/Projects/TKO/SHOTS/_Refs_Movs_Burnin_FrameCounter/TKO_010_POL_Sh04510.mov</pathurl>
							<rate>
								<timebase>24</timebase>
								<ntsc>TRUE</ntsc>
							</rate>
							<duration>324</duration>
							<timecode>
								<rate>
									<timebase>24</timebase>
									<ntsc>TRUE</ntsc>
								</rate>
								<string>16:16:45:14</string>
								<frame>1406534</frame>
								<displayformat>NDF</displayformat>
								<reel>
									<name>A0440004</name>
								</reel>
							</timecode>
							<media>
								<video>
									<samplecharacteristics>
										<rate>
											<timebase>24</timebase>
											<ntsc>TRUE</ntsc>
										</rate>
										<width>4096</width>
										<height>2160</height>
										<anamorphic>FALSE</anamorphic>
										<pixelaspectratio>square</pixelaspectratio>
										<fielddominance>none</fielddominance>
									</samplecharacteristics>
								</video>
							</media>
						</file>
						<logginginfo>
							<description></description>
							<scene></scene>
							<shottake></shottake>
							<lognote></lognote>
							<good></good>
							<originalvideofilename></originalvideofilename>
							<originalaudiofilename></originalaudiofilename>
						</logginginfo>
						<colorinfo>
							<lut></lut>
							<lut1></lut1>
							<asc_sop></asc_sop>
							<asc_sat></asc_sat>
							<lut2></lut2>
						</colorinfo>
						<labels>
							<label2>Violet</label2>
						</labels>
					</clipitem>
					<clipitem id="clipitem-439">
						<masterclipid>masterclip-436</masterclipid>
						<name>TKO_010_POL_Sh04520.mov</name>
						<enabled>TRUE</enabled>
						<duration>65</duration>
						<rate>
							<timebase>24</timebase>
							<ntsc>TRUE</ntsc>
						</rate>
						<start>39624</start>
						<end>39681</end>
						<in>4</in>
						<out>61</out>
						<pproTicksIn>42378336000</pproTicksIn>
						<pproTicksOut>646269624000</pproTicksOut>
						<alphatype>none</alphatype>
						<pixelaspectratio>square</pixelaspectratio>
						<anamorphic>FALSE</anamorphic>
						<file id="file-436">
							<name>TKO_010_POL_Sh04520.mov</name>
							<pathurl>file://tri-stor01/Projects/TKO/SHOTS/_Refs_Movs_Burnin_FrameCounter/TKO_010_POL_Sh04520.mov</pathurl>
							<rate>
								<timebase>24</timebase>
								<ntsc>TRUE</ntsc>
							</rate>
							<duration>65</duration>
							<timecode>
								<rate>
									<timebase>24</timebase>
									<ntsc>TRUE</ntsc>
								</rate>
								<string>16:16:58:18</string>
								<frame>1406850</frame>
								<displayformat>NDF</displayformat>
								<reel>
									<name>B0380006</name>
								</reel>
							</timecode>
							<media>
								<video>
									<samplecharacteristics>
										<rate>
											<timebase>24</timebase>
											<ntsc>TRUE</ntsc>
										</rate>
										<width>4096</width>
										<height>2160</height>
										<anamorphic>FALSE</anamorphic>
										<pixelaspectratio>square</pixelaspectratio>
										<fielddominance>none</fielddominance>
									</samplecharacteristics>
								</video>
							</media>
						</file>
						<logginginfo>
							<description></description>
							<scene></scene>
							<shottake></shottake>
							<lognote></lognote>
							<good></good>
							<originalvideofilename></originalvideofilename>
							<originalaudiofilename></originalaudiofilename>
						</logginginfo>
						<colorinfo>
							<lut></lut>
							<lut1></lut1>
							<asc_sop></asc_sop>
							<asc_sat></asc_sat>
							<lut2></lut2>
						</colorinfo>
						<labels>
							<label2>Violet</label2>
						</labels>
					</clipitem>
					<clipitem id="clipitem-440">
						<masterclipid>masterclip-437</masterclipid>
						<name>TKO_011_WAR_Sh04530.mov</name>
						<enabled>TRUE</enabled>
						<duration>69</duration>
						<rate>
							<timebase>24</timebase>
							<ntsc>TRUE</ntsc>
						</rate>
						<start>39681</start>
						<end>39742</end>
						<in>4</in>
						<out>65</out>
						<pproTicksIn>42378336000</pproTicksIn>
						<pproTicksOut>688647960000</pproTicksOut>
						<alphatype>none</alphatype>
						<pixelaspectratio>square</pixelaspectratio>
						<anamorphic>FALSE</anamorphic>
						<file id="file-437">
							<name>TKO_011_WAR_Sh04530.mov</name>
							<pathurl>file://tri-stor01/Projects/TKO/SHOTS/_Refs_Movs_Burnin_FrameCounter/TKO_011_WAR_Sh04530.mov</pathurl>
							<rate>
								<timebase>24</timebase>
								<ntsc>TRUE</ntsc>
							</rate>
							<duration>69</duration>
							<timecode>
								<rate>
									<timebase>24</timebase>
									<ntsc>TRUE</ntsc>
								</rate>
								<string>21:11:56:18</string>
								<frame>1831602</frame>
								<displayformat>NDF</displayformat>
								<reel>
									<name>A0120017</name>
								</reel>
							</timecode>
							<media>
								<video>
									<samplecharacteristics>
										<rate>
											<timebase>24</timebase>
											<ntsc>TRUE</ntsc>
										</rate>
										<width>4096</width>
										<height>2160</height>
										<anamorphic>FALSE</anamorphic>
										<pixelaspectratio>square</pixelaspectratio>
										<fielddominance>none</fielddominance>
									</samplecharacteristics>
								</video>
							</media>
						</file>
						<logginginfo>
							<description></description>
							<scene></scene>
							<shottake></shottake>
							<lognote></lognote>
							<good></good>
							<originalvideofilename></originalvideofilename>
							<originalaudiofilename></originalaudiofilename>
						</logginginfo>
						<colorinfo>
							<lut></lut>
							<lut1></lut1>
							<asc_sop></asc_sop>
							<asc_sat></asc_sat>
							<lut2></lut2>
						</colorinfo>
						<labels>
							<label2>Violet</label2>
						</labels>
					</clipitem>
					<clipitem id="clipitem-441">
						<masterclipid>masterclip-438</masterclipid>
						<name>TKO_011_WAR_Sh04540.mov</name>
						<enabled>TRUE</enabled>
						<duration>25</duration>
						<rate>
							<timebase>24</timebase>
							<ntsc>TRUE</ntsc>
						</rate>
						<start>39742</start>
						<end>39759</end>
						<in>4</in>
						<out>21</out>
						<pproTicksIn>42378336000</pproTicksIn>
						<pproTicksOut>222486264000</pproTicksOut>
						<alphatype>none</alphatype>
						<pixelaspectratio>square</pixelaspectratio>
						<anamorphic>FALSE</anamorphic>
						<file id="file-438">
							<name>TKO_011_WAR_Sh04540.mov</name>
							<pathurl>file://tri-stor01/Projects/TKO/SHOTS/_Refs_Movs_Burnin_FrameCounter/TKO_011_WAR_Sh04540.mov</pathurl>
							<rate>
								<timebase>24</timebase>
								<ntsc>TRUE</ntsc>
							</rate>
							<duration>25</duration>
							<timecode>
								<rate>
									<timebase>24</timebase>
									<ntsc>TRUE</ntsc>
								</rate>
								<string>21:11:59:08</string>
								<frame>1831664</frame>
								<displayformat>NDF</displayformat>
								<reel>
									<name>B0090018</name>
								</reel>
							</timecode>
							<media>
								<video>
									<samplecharacteristics>
										<rate>
											<timebase>24</timebase>
											<ntsc>TRUE</ntsc>
										</rate>
										<width>4096</width>
										<height>2160</height>
										<anamorphic>FALSE</anamorphic>
										<pixelaspectratio>square</pixelaspectratio>
										<fielddominance>none</fielddominance>
									</samplecharacteristics>
								</video>
							</media>
						</file>
						<logginginfo>
							<description></description>
							<scene></scene>
							<shottake></shottake>
							<lognote></lognote>
							<good></good>
							<originalvideofilename></originalvideofilename>
							<originalaudiofilename></originalaudiofilename>
						</logginginfo>
						<colorinfo>
							<lut></lut>
							<lut1></lut1>
							<asc_sop></asc_sop>
							<asc_sat></asc_sat>
							<lut2></lut2>
						</colorinfo>
						<labels>
							<label2>Violet</label2>
						</labels>
					</clipitem>
					<clipitem id="clipitem-442">
						<masterclipid>masterclip-439</masterclipid>
						<name>TKO_011_WAR_Sh04550.mov</name>
						<enabled>TRUE</enabled>
						<duration>22</duration>
						<rate>
							<timebase>24</timebase>
							<ntsc>TRUE</ntsc>
						</rate>
						<start>39759</start>
						<end>39773</end>
						<in>4</in>
						<out>18</out>
						<pproTicksIn>42378336000</pproTicksIn>
						<pproTicksOut>190702512000</pproTicksOut>
						<alphatype>none</alphatype>
						<pixelaspectratio>square</pixelaspectratio>
						<anamorphic>FALSE</anamorphic>
						<file id="file-439">
							<name>TKO_011_WAR_Sh04550.mov</name>
							<pathurl>file://tri-stor01/Projects/TKO/SHOTS/_Refs_Movs_Burnin_FrameCounter/TKO_011_WAR_Sh04550.mov</pathurl>
							<rate>
								<timebase>24</timebase>
								<ntsc>TRUE</ntsc>
							</rate>
							<duration>22</duration>
							<timecode>
								<rate>
									<timebase>24</timebase>
									<ntsc>TRUE</ntsc>
								</rate>
								<string>21:28:22:10</string>
								<frame>1855258</frame>
								<displayformat>NDF</displayformat>
								<reel>
									<name>B0100001</name>
								</reel>
							</timecode>
							<media>
								<video>
									<samplecharacteristics>
										<rate>
											<timebase>24</timebase>
											<ntsc>TRUE</ntsc>
										</rate>
										<width>4096</width>
										<height>2160</height>
										<anamorphic>FALSE</anamorphic>
										<pixelaspectratio>square</pixelaspectratio>
										<fielddominance>none</fielddominance>
									</samplecharacteristics>
								</video>
							</media>
						</file>
						<logginginfo>
							<description></description>
							<scene></scene>
							<shottake></shottake>
							<lognote></lognote>
							<good></good>
							<originalvideofilename></originalvideofilename>
							<originalaudiofilename></originalaudiofilename>
						</logginginfo>
						<colorinfo>
							<lut></lut>
							<lut1></lut1>
							<asc_sop></asc_sop>
							<asc_sat></asc_sat>
							<lut2></lut2>
						</colorinfo>
						<labels>
							<label2>Violet</label2>
						</labels>
					</clipitem>
					<clipitem id="clipitem-443">
						<masterclipid>masterclip-440</masterclipid>
						<name>TKO_011_WAR_Sh04560.mov</name>
						<enabled>TRUE</enabled>
						<duration>23</duration>
						<rate>
							<timebase>24</timebase>
							<ntsc>TRUE</ntsc>
						</rate>
						<start>39773</start>
						<end>39788</end>
						<in>4</in>
						<out>19</out>
						<pproTicksIn>42378336000</pproTicksIn>
						<pproTicksOut>201297096000</pproTicksOut>
						<alphatype>none</alphatype>
						<pixelaspectratio>square</pixelaspectratio>
						<anamorphic>FALSE</anamorphic>
						<file id="file-440">
							<name>TKO_011_WAR_Sh04560.mov</name>
							<pathurl>file://tri-stor01/Projects/TKO/SHOTS/_Refs_Movs_Burnin_FrameCounter/TKO_011_WAR_Sh04560.mov</pathurl>
							<rate>
								<timebase>24</timebase>
								<ntsc>TRUE</ntsc>
							</rate>
							<duration>23</duration>
							<timecode>
								<rate>
									<timebase>24</timebase>
									<ntsc>TRUE</ntsc>
								</rate>
								<string>21:12:00:18</string>
								<frame>1831698</frame>
								<displayformat>NDF</displayformat>
								<reel>
									<name>A0120017</name>
								</reel>
							</timecode>
							<media>
								<video>
									<samplecharacteristics>
										<rate>
											<timebase>24</timebase>
											<ntsc>TRUE</ntsc>
										</rate>
										<width>4096</width>
										<height>2160</height>
										<anamorphic>FALSE</anamorphic>
										<pixelaspectratio>square</pixelaspectratio>
										<fielddominance>none</fielddominance>
									</samplecharacteristics>
								</video>
							</media>
						</file>
						<logginginfo>
							<description></description>
							<scene></scene>
							<shottake></shottake>
							<lognote></lognote>
							<good></good>
							<originalvideofilename></originalvideofilename>
							<originalaudiofilename></originalaudiofilename>
						</logginginfo>
						<colorinfo>
							<lut></lut>
							<lut1></lut1>
							<asc_sop></asc_sop>
							<asc_sat></asc_sat>
							<lut2></lut2>
						</colorinfo>
						<labels>
							<label2>Violet</label2>
						</labels>
					</clipitem>
					<clipitem id="clipitem-444">
						<masterclipid>masterclip-441</masterclipid>
						<name>TKO_011_WAR_Sh04570.mov</name>
						<enabled>TRUE</enabled>
						<duration>66</duration>
						<rate>
							<timebase>24</timebase>
							<ntsc>TRUE</ntsc>
						</rate>
						<start>39788</start>
						<end>39846</end>
						<in>4</in>
						<out>62</out>
						<pproTicksIn>42378336000</pproTicksIn>
						<pproTicksOut>656864208000</pproTicksOut>
						<alphatype>none</alphatype>
						<pixelaspectratio>square</pixelaspectratio>
						<anamorphic>FALSE</anamorphic>
						<file id="file-441">
							<name>TKO_011_WAR_Sh04570.mov</name>
							<pathurl>file://tri-stor01/Projects/TKO/SHOTS/_Refs_Movs_Burnin_FrameCounter/TKO_011_WAR_Sh04570.mov</pathurl>
							<rate>
								<timebase>24</timebase>
								<ntsc>TRUE</ntsc>
							</rate>
							<duration>66</duration>
							<timecode>
								<rate>
									<timebase>24</timebase>
									<ntsc>TRUE</ntsc>
								</rate>
								<string>21:28:23:15</string>
								<frame>1855287</frame>
								<displayformat>NDF</displayformat>
								<reel>
									<name>B0100001</name>
								</reel>
							</timecode>
							<media>
								<video>
									<samplecharacteristics>
										<rate>
											<timebase>24</timebase>
											<ntsc>TRUE</ntsc>
										</rate>
										<width>4096</width>
										<height>2160</height>
										<anamorphic>FALSE</anamorphic>
										<pixelaspectratio>square</pixelaspectratio>
										<fielddominance>none</fielddominance>
									</samplecharacteristics>
								</video>
							</media>
						</file>
						<logginginfo>
							<description></description>
							<scene></scene>
							<shottake></shottake>
							<lognote></lognote>
							<good></good>
							<originalvideofilename></originalvideofilename>
							<originalaudiofilename></originalaudiofilename>
						</logginginfo>
						<colorinfo>
							<lut></lut>
							<lut1></lut1>
							<asc_sop></asc_sop>
							<asc_sat></asc_sat>
							<lut2></lut2>
						</colorinfo>
						<labels>
							<label2>Violet</label2>
						</labels>
					</clipitem>
					<clipitem id="clipitem-445">
						<masterclipid>masterclip-442</masterclipid>
						<name>TKO_011_WAR_Sh04580.mov</name>
						<enabled>TRUE</enabled>
						<duration>52</duration>
						<rate>
							<timebase>24</timebase>
							<ntsc>TRUE</ntsc>
						</rate>
						<start>39846</start>
						<end>39890</end>
						<in>4</in>
						<out>48</out>
						<pproTicksIn>42378336000</pproTicksIn>
						<pproTicksOut>508540032000</pproTicksOut>
						<alphatype>none</alphatype>
						<pixelaspectratio>square</pixelaspectratio>
						<anamorphic>FALSE</anamorphic>
						<file id="file-442">
							<name>TKO_011_WAR_Sh04580.mov</name>
							<pathurl>file://tri-stor01/Projects/TKO/SHOTS/_Refs_Movs_Burnin_FrameCounter/TKO_011_WAR_Sh04580.mov</pathurl>
							<rate>
								<timebase>24</timebase>
								<ntsc>TRUE</ntsc>
							</rate>
							<duration>52</duration>
							<timecode>
								<rate>
									<timebase>24</timebase>
									<ntsc>TRUE</ntsc>
								</rate>
								<string>21:12:05:02</string>
								<frame>1831802</frame>
								<displayformat>NDF</displayformat>
								<reel>
									<name>A0120017</name>
								</reel>
							</timecode>
							<media>
								<video>
									<samplecharacteristics>
										<rate>
											<timebase>24</timebase>
											<ntsc>TRUE</ntsc>
										</rate>
										<width>4096</width>
										<height>2160</height>
										<anamorphic>FALSE</anamorphic>
										<pixelaspectratio>square</pixelaspectratio>
										<fielddominance>none</fielddominance>
									</samplecharacteristics>
								</video>
							</media>
						</file>
						<logginginfo>
							<description></description>
							<scene></scene>
							<shottake></shottake>
							<lognote></lognote>
							<good></good>
							<originalvideofilename></originalvideofilename>
							<originalaudiofilename></originalaudiofilename>
						</logginginfo>
						<colorinfo>
							<lut></lut>
							<lut1></lut1>
							<asc_sop></asc_sop>
							<asc_sat></asc_sat>
							<lut2></lut2>
						</colorinfo>
						<labels>
							<label2>Violet</label2>
						</labels>
					</clipitem>
					<clipitem id="clipitem-446">
						<masterclipid>masterclip-443</masterclipid>
						<name>TKO_011_WAR_Sh04590.mov</name>
						<enabled>TRUE</enabled>
						<duration>91</duration>
						<rate>
							<timebase>24</timebase>
							<ntsc>TRUE</ntsc>
						</rate>
						<start>39890</start>
						<end>39973</end>
						<in>4</in>
						<out>87</out>
						<pproTicksIn>42378336000</pproTicksIn>
						<pproTicksOut>921728808000</pproTicksOut>
						<alphatype>none</alphatype>
						<pixelaspectratio>square</pixelaspectratio>
						<anamorphic>FALSE</anamorphic>
						<file id="file-443">
							<name>TKO_011_WAR_Sh04590.mov</name>
							<pathurl>file://tri-stor01/Projects/TKO/SHOTS/_Refs_Movs_Burnin_FrameCounter/TKO_011_WAR_Sh04590.mov</pathurl>
							<rate>
								<timebase>24</timebase>
								<ntsc>TRUE</ntsc>
							</rate>
							<duration>91</duration>
							<timecode>
								<rate>
									<timebase>24</timebase>
									<ntsc>TRUE</ntsc>
								</rate>
								<string>21:28:27:21</string>
								<frame>1855389</frame>
								<displayformat>NDF</displayformat>
								<reel>
									<name>B0100001</name>
								</reel>
							</timecode>
							<media>
								<video>
									<samplecharacteristics>
										<rate>
											<timebase>24</timebase>
											<ntsc>TRUE</ntsc>
										</rate>
										<width>4096</width>
										<height>2160</height>
										<anamorphic>FALSE</anamorphic>
										<pixelaspectratio>square</pixelaspectratio>
										<fielddominance>none</fielddominance>
									</samplecharacteristics>
								</video>
							</media>
						</file>
						<logginginfo>
							<description></description>
							<scene></scene>
							<shottake></shottake>
							<lognote></lognote>
							<good></good>
							<originalvideofilename></originalvideofilename>
							<originalaudiofilename></originalaudiofilename>
						</logginginfo>
						<colorinfo>
							<lut></lut>
							<lut1></lut1>
							<asc_sop></asc_sop>
							<asc_sat></asc_sat>
							<lut2></lut2>
						</colorinfo>
						<labels>
							<label2>Violet</label2>
						</labels>
					</clipitem>
					<clipitem id="clipitem-447">
						<masterclipid>masterclip-444</masterclipid>
						<name>TKO_011_WAR_Sh04600.mov</name>
						<enabled>TRUE</enabled>
						<duration>69</duration>
						<rate>
							<timebase>24</timebase>
							<ntsc>TRUE</ntsc>
						</rate>
						<start>39973</start>
						<end>40034</end>
						<in>4</in>
						<out>65</out>
						<pproTicksIn>42378336000</pproTicksIn>
						<pproTicksOut>688647960000</pproTicksOut>
						<alphatype>none</alphatype>
						<pixelaspectratio>square</pixelaspectratio>
						<anamorphic>FALSE</anamorphic>
						<file id="file-444">
							<name>TKO_011_WAR_Sh04600.mov</name>
							<pathurl>file://tri-stor01/Projects/TKO/SHOTS/_Refs_Movs_Burnin_FrameCounter/TKO_011_WAR_Sh04600.mov</pathurl>
							<rate>
								<timebase>24</timebase>
								<ntsc>TRUE</ntsc>
							</rate>
							<duration>69</duration>
							<timecode>
								<rate>
									<timebase>24</timebase>
									<ntsc>TRUE</ntsc>
								</rate>
								<string>21:28:31:08</string>
								<frame>1855472</frame>
								<displayformat>NDF</displayformat>
								<reel>
									<name>A0130001</name>
								</reel>
							</timecode>
							<media>
								<video>
									<samplecharacteristics>
										<rate>
											<timebase>24</timebase>
											<ntsc>TRUE</ntsc>
										</rate>
										<width>4096</width>
										<height>2160</height>
										<anamorphic>FALSE</anamorphic>
										<pixelaspectratio>square</pixelaspectratio>
										<fielddominance>none</fielddominance>
									</samplecharacteristics>
								</video>
							</media>
						</file>
						<logginginfo>
							<description></description>
							<scene></scene>
							<shottake></shottake>
							<lognote></lognote>
							<good></good>
							<originalvideofilename></originalvideofilename>
							<originalaudiofilename></originalaudiofilename>
						</logginginfo>
						<colorinfo>
							<lut></lut>
							<lut1></lut1>
							<asc_sop></asc_sop>
							<asc_sat></asc_sat>
							<lut2></lut2>
						</colorinfo>
						<labels>
							<label2>Violet</label2>
						</labels>
					</clipitem>
					<clipitem id="clipitem-448">
						<masterclipid>masterclip-445</masterclipid>
						<name>TKO_011_WAR_Sh04610.mov</name>
						<enabled>TRUE</enabled>
						<duration>61</duration>
						<rate>
							<timebase>24</timebase>
							<ntsc>TRUE</ntsc>
						</rate>
						<start>40034</start>
						<end>40087</end>
						<in>4</in>
						<out>57</out>
						<pproTicksIn>42378336000</pproTicksIn>
						<pproTicksOut>603891288000</pproTicksOut>
						<alphatype>none</alphatype>
						<pixelaspectratio>square</pixelaspectratio>
						<anamorphic>FALSE</anamorphic>
						<file id="file-445">
							<name>TKO_011_WAR_Sh04610.mov</name>
							<pathurl>file://tri-stor01/Projects/TKO/SHOTS/_Refs_Movs_Burnin_FrameCounter/TKO_011_WAR_Sh04610.mov</pathurl>
							<rate>
								<timebase>24</timebase>
								<ntsc>TRUE</ntsc>
							</rate>
							<duration>61</duration>
							<timecode>
								<rate>
									<timebase>24</timebase>
									<ntsc>TRUE</ntsc>
								</rate>
								<string>21:28:33:21</string>
								<frame>1855533</frame>
								<displayformat>NDF</displayformat>
								<reel>
									<name>B0100001</name>
								</reel>
							</timecode>
							<media>
								<video>
									<samplecharacteristics>
										<rate>
											<timebase>24</timebase>
											<ntsc>TRUE</ntsc>
										</rate>
										<width>4096</width>
										<height>2160</height>
										<anamorphic>FALSE</anamorphic>
										<pixelaspectratio>square</pixelaspectratio>
										<fielddominance>none</fielddominance>
									</samplecharacteristics>
								</video>
							</media>
						</file>
						<logginginfo>
							<description></description>
							<scene></scene>
							<shottake></shottake>
							<lognote></lognote>
							<good></good>
							<originalvideofilename></originalvideofilename>
							<originalaudiofilename></originalaudiofilename>
						</logginginfo>
						<colorinfo>
							<lut></lut>
							<lut1></lut1>
							<asc_sop></asc_sop>
							<asc_sat></asc_sat>
							<lut2></lut2>
						</colorinfo>
						<labels>
							<label2>Violet</label2>
						</labels>
					</clipitem>
					<clipitem id="clipitem-449">
						<masterclipid>masterclip-446</masterclipid>
						<name>TKO_011_WAR_Sh04620.mov</name>
						<enabled>TRUE</enabled>
						<duration>49</duration>
						<rate>
							<timebase>24</timebase>
							<ntsc>TRUE</ntsc>
						</rate>
						<start>40087</start>
						<end>40128</end>
						<in>4</in>
						<out>45</out>
						<pproTicksIn>42378336000</pproTicksIn>
						<pproTicksOut>476756280000</pproTicksOut>
						<alphatype>none</alphatype>
						<pixelaspectratio>square</pixelaspectratio>
						<anamorphic>FALSE</anamorphic>
						<file id="file-446">
							<name>TKO_011_WAR_Sh04620.mov</name>
							<pathurl>file://tri-stor01/Projects/TKO/SHOTS/_Refs_Movs_Burnin_FrameCounter/TKO_011_WAR_Sh04620.mov</pathurl>
							<rate>
								<timebase>24</timebase>
								<ntsc>TRUE</ntsc>
							</rate>
							<duration>49</duration>
							<timecode>
								<rate>
									<timebase>24</timebase>
									<ntsc>TRUE</ntsc>
								</rate>
								<string>21:28:36:02</string>
								<frame>1855586</frame>
								<displayformat>NDF</displayformat>
								<reel>
									<name>A0130001</name>
								</reel>
							</timecode>
							<media>
								<video>
									<samplecharacteristics>
										<rate>
											<timebase>24</timebase>
											<ntsc>TRUE</ntsc>
										</rate>
										<width>4096</width>
										<height>2160</height>
										<anamorphic>FALSE</anamorphic>
										<pixelaspectratio>square</pixelaspectratio>
										<fielddominance>none</fielddominance>
									</samplecharacteristics>
								</video>
							</media>
						</file>
						<logginginfo>
							<description></description>
							<scene></scene>
							<shottake></shottake>
							<lognote></lognote>
							<good></good>
							<originalvideofilename></originalvideofilename>
							<originalaudiofilename></originalaudiofilename>
						</logginginfo>
						<colorinfo>
							<lut></lut>
							<lut1></lut1>
							<asc_sop></asc_sop>
							<asc_sat></asc_sat>
							<lut2></lut2>
						</colorinfo>
						<labels>
							<label2>Violet</label2>
						</labels>
					</clipitem>
					<clipitem id="clipitem-450">
						<masterclipid>masterclip-447</masterclipid>
						<name>TKO_011_WAR_Sh04630.mov</name>
						<enabled>TRUE</enabled>
						<duration>37</duration>
						<rate>
							<timebase>24</timebase>
							<ntsc>TRUE</ntsc>
						</rate>
						<start>40128</start>
						<end>40157</end>
						<in>4</in>
						<out>33</out>
						<pproTicksIn>42378336000</pproTicksIn>
						<pproTicksOut>349621272000</pproTicksOut>
						<alphatype>none</alphatype>
						<pixelaspectratio>square</pixelaspectratio>
						<anamorphic>FALSE</anamorphic>
						<file id="file-447">
							<name>TKO_011_WAR_Sh04630.mov</name>
							<pathurl>file://tri-stor01/Projects/TKO/SHOTS/_Refs_Movs_Burnin_FrameCounter/TKO_011_WAR_Sh04630.mov</pathurl>
							<rate>
								<timebase>24</timebase>
								<ntsc>TRUE</ntsc>
							</rate>
							<duration>37</duration>
							<timecode>
								<rate>
									<timebase>24</timebase>
									<ntsc>TRUE</ntsc>
								</rate>
								<string>21:28:40:05</string>
								<frame>1855685</frame>
								<displayformat>NDF</displayformat>
								<reel>
									<name>B0100001</name>
								</reel>
							</timecode>
							<media>
								<video>
									<samplecharacteristics>
										<rate>
											<timebase>24</timebase>
											<ntsc>TRUE</ntsc>
										</rate>
										<width>4096</width>
										<height>2160</height>
										<anamorphic>FALSE</anamorphic>
										<pixelaspectratio>square</pixelaspectratio>
										<fielddominance>none</fielddominance>
									</samplecharacteristics>
								</video>
							</media>
						</file>
						<logginginfo>
							<description></description>
							<scene></scene>
							<shottake></shottake>
							<lognote></lognote>
							<good></good>
							<originalvideofilename></originalvideofilename>
							<originalaudiofilename></originalaudiofilename>
						</logginginfo>
						<colorinfo>
							<lut></lut>
							<lut1></lut1>
							<asc_sop></asc_sop>
							<asc_sat></asc_sat>
							<lut2></lut2>
						</colorinfo>
						<labels>
							<label2>Violet</label2>
						</labels>
					</clipitem>
					<clipitem id="clipitem-451">
						<masterclipid>masterclip-448</masterclipid>
						<name>TKO_011_WAR_Sh04640.mov</name>
						<enabled>TRUE</enabled>
						<duration>27</duration>
						<rate>
							<timebase>24</timebase>
							<ntsc>TRUE</ntsc>
						</rate>
						<start>40157</start>
						<end>40176</end>
						<in>4</in>
						<out>23</out>
						<pproTicksIn>42378336000</pproTicksIn>
						<pproTicksOut>243675432000</pproTicksOut>
						<alphatype>none</alphatype>
						<pixelaspectratio>square</pixelaspectratio>
						<anamorphic>FALSE</anamorphic>
						<file id="file-448">
							<name>TKO_011_WAR_Sh04640.mov</name>
							<pathurl>file://tri-stor01/Projects/TKO/SHOTS/_Refs_Movs_Burnin_FrameCounter/TKO_011_WAR_Sh04640.mov</pathurl>
							<rate>
								<timebase>24</timebase>
								<ntsc>TRUE</ntsc>
							</rate>
							<duration>27</duration>
							<timecode>
								<rate>
									<timebase>24</timebase>
									<ntsc>TRUE</ntsc>
								</rate>
								<string>21:28:38:12</string>
								<frame>1855644</frame>
								<displayformat>NDF</displayformat>
								<reel>
									<name>A0130001</name>
								</reel>
							</timecode>
							<media>
								<video>
									<samplecharacteristics>
										<rate>
											<timebase>24</timebase>
											<ntsc>TRUE</ntsc>
										</rate>
										<width>4096</width>
										<height>2160</height>
										<anamorphic>FALSE</anamorphic>
										<pixelaspectratio>square</pixelaspectratio>
										<fielddominance>none</fielddominance>
									</samplecharacteristics>
								</video>
							</media>
						</file>
						<logginginfo>
							<description></description>
							<scene></scene>
							<shottake></shottake>
							<lognote></lognote>
							<good></good>
							<originalvideofilename></originalvideofilename>
							<originalaudiofilename></originalaudiofilename>
						</logginginfo>
						<colorinfo>
							<lut></lut>
							<lut1></lut1>
							<asc_sop></asc_sop>
							<asc_sat></asc_sat>
							<lut2></lut2>
						</colorinfo>
						<labels>
							<label2>Violet</label2>
						</labels>
					</clipitem>
					<clipitem id="clipitem-452">
						<masterclipid>masterclip-449</masterclipid>
						<name>TKO_011_WAR_Sh04650.mov</name>
						<enabled>TRUE</enabled>
						<duration>20</duration>
						<rate>
							<timebase>24</timebase>
							<ntsc>TRUE</ntsc>
						</rate>
						<start>40176</start>
						<end>40188</end>
						<in>4</in>
						<out>16</out>
						<pproTicksIn>42378336000</pproTicksIn>
						<pproTicksOut>169513344000</pproTicksOut>
						<alphatype>none</alphatype>
						<pixelaspectratio>square</pixelaspectratio>
						<anamorphic>FALSE</anamorphic>
						<file id="file-449">
							<name>TKO_011_WAR_Sh04650.mov</name>
							<pathurl>file://tri-stor01/Projects/TKO/SHOTS/_Refs_Movs_Burnin_FrameCounter/TKO_011_WAR_Sh04650.mov</pathurl>
							<rate>
								<timebase>24</timebase>
								<ntsc>TRUE</ntsc>
							</rate>
							<duration>20</duration>
							<timecode>
								<rate>
									<timebase>24</timebase>
									<ntsc>TRUE</ntsc>
								</rate>
								<string>21:12:13:07</string>
								<frame>1831999</frame>
								<displayformat>NDF</displayformat>
								<reel>
									<name>B0090018</name>
								</reel>
							</timecode>
							<media>
								<video>
									<samplecharacteristics>
										<rate>
											<timebase>24</timebase>
											<ntsc>TRUE</ntsc>
										</rate>
										<width>4096</width>
										<height>2160</height>
										<anamorphic>FALSE</anamorphic>
										<pixelaspectratio>square</pixelaspectratio>
										<fielddominance>none</fielddominance>
									</samplecharacteristics>
								</video>
							</media>
						</file>
						<logginginfo>
							<description></description>
							<scene></scene>
							<shottake></shottake>
							<lognote></lognote>
							<good></good>
							<originalvideofilename></originalvideofilename>
							<originalaudiofilename></originalaudiofilename>
						</logginginfo>
						<colorinfo>
							<lut></lut>
							<lut1></lut1>
							<asc_sop></asc_sop>
							<asc_sat></asc_sat>
							<lut2></lut2>
						</colorinfo>
						<labels>
							<label2>Violet</label2>
						</labels>
					</clipitem>
					<clipitem id="clipitem-453">
						<masterclipid>masterclip-450</masterclipid>
						<name>TKO_011_WAR_Sh04660.mov</name>
						<enabled>TRUE</enabled>
						<duration>28</duration>
						<rate>
							<timebase>24</timebase>
							<ntsc>TRUE</ntsc>
						</rate>
						<start>40188</start>
						<end>40208</end>
						<in>4</in>
						<out>24</out>
						<pproTicksIn>42378336000</pproTicksIn>
						<pproTicksOut>254270016000</pproTicksOut>
						<alphatype>none</alphatype>
						<pixelaspectratio>square</pixelaspectratio>
						<anamorphic>FALSE</anamorphic>
						<file id="file-450">
							<name>TKO_011_WAR_Sh04660.mov</name>
							<pathurl>file://tri-stor01/Projects/TKO/SHOTS/_Refs_Movs_Burnin_FrameCounter/TKO_011_WAR_Sh04660.mov</pathurl>
							<rate>
								<timebase>24</timebase>
								<ntsc>TRUE</ntsc>
							</rate>
							<duration>28</duration>
							<timecode>
								<rate>
									<timebase>24</timebase>
									<ntsc>TRUE</ntsc>
								</rate>
								<string>21:28:44:23</string>
								<frame>1855799</frame>
								<displayformat>NDF</displayformat>
								<reel>
									<name>B0100001</name>
								</reel>
							</timecode>
							<media>
								<video>
									<samplecharacteristics>
										<rate>
											<timebase>24</timebase>
											<ntsc>TRUE</ntsc>
										</rate>
										<width>4096</width>
										<height>2160</height>
										<anamorphic>FALSE</anamorphic>
										<pixelaspectratio>square</pixelaspectratio>
										<fielddominance>none</fielddominance>
									</samplecharacteristics>
								</video>
							</media>
						</file>
						<logginginfo>
							<description></description>
							<scene></scene>
							<shottake></shottake>
							<lognote></lognote>
							<good></good>
							<originalvideofilename></originalvideofilename>
							<originalaudiofilename></originalaudiofilename>
						</logginginfo>
						<colorinfo>
							<lut></lut>
							<lut1></lut1>
							<asc_sop></asc_sop>
							<asc_sat></asc_sat>
							<lut2></lut2>
						</colorinfo>
						<labels>
							<label2>Violet</label2>
						</labels>
					</clipitem>
					<clipitem id="clipitem-454">
						<masterclipid>masterclip-451</masterclipid>
						<name>TKO_011_WAR_Sh04670.mov</name>
						<enabled>TRUE</enabled>
						<duration>61</duration>
						<rate>
							<timebase>24</timebase>
							<ntsc>TRUE</ntsc>
						</rate>
						<start>40208</start>
						<end>40261</end>
						<in>4</in>
						<out>57</out>
						<pproTicksIn>42378336000</pproTicksIn>
						<pproTicksOut>603891288000</pproTicksOut>
						<alphatype>none</alphatype>
						<pixelaspectratio>square</pixelaspectratio>
						<anamorphic>FALSE</anamorphic>
						<file id="file-451">
							<name>TKO_011_WAR_Sh04670.mov</name>
							<pathurl>file://tri-stor01/Projects/TKO/SHOTS/_Refs_Movs_Burnin_FrameCounter/TKO_011_WAR_Sh04670.mov</pathurl>
							<rate>
								<timebase>24</timebase>
								<ntsc>TRUE</ntsc>
							</rate>
							<duration>61</duration>
							<timecode>
								<rate>
									<timebase>24</timebase>
									<ntsc>TRUE</ntsc>
								</rate>
								<string>21:12:14:19</string>
								<frame>1832035</frame>
								<displayformat>NDF</displayformat>
								<reel>
									<name>A0120017</name>
								</reel>
							</timecode>
							<media>
								<video>
									<samplecharacteristics>
										<rate>
											<timebase>24</timebase>
											<ntsc>TRUE</ntsc>
										</rate>
										<width>4096</width>
										<height>2160</height>
										<anamorphic>FALSE</anamorphic>
										<pixelaspectratio>square</pixelaspectratio>
										<fielddominance>none</fielddominance>
									</samplecharacteristics>
								</video>
							</media>
						</file>
						<logginginfo>
							<description></description>
							<scene></scene>
							<shottake></shottake>
							<lognote></lognote>
							<good></good>
							<originalvideofilename></originalvideofilename>
							<originalaudiofilename></originalaudiofilename>
						</logginginfo>
						<colorinfo>
							<lut></lut>
							<lut1></lut1>
							<asc_sop></asc_sop>
							<asc_sat></asc_sat>
							<lut2></lut2>
						</colorinfo>
						<labels>
							<label2>Violet</label2>
						</labels>
					</clipitem>
					<clipitem id="clipitem-455">
						<masterclipid>masterclip-452</masterclipid>
						<name>TKO_011_WAR_Sh04680.mov</name>
						<enabled>TRUE</enabled>
						<duration>57</duration>
						<rate>
							<timebase>24</timebase>
							<ntsc>TRUE</ntsc>
						</rate>
						<start>40261</start>
						<end>40310</end>
						<in>4</in>
						<out>53</out>
						<pproTicksIn>42378336000</pproTicksIn>
						<pproTicksOut>561512952000</pproTicksOut>
						<alphatype>none</alphatype>
						<pixelaspectratio>square</pixelaspectratio>
						<anamorphic>FALSE</anamorphic>
						<file id="file-452">
							<name>TKO_011_WAR_Sh04680.mov</name>
							<pathurl>file://tri-stor01/Projects/TKO/SHOTS/_Refs_Movs_Burnin_FrameCounter/TKO_011_WAR_Sh04680.mov</pathurl>
							<rate>
								<timebase>24</timebase>
								<ntsc>TRUE</ntsc>
							</rate>
							<duration>57</duration>
							<timecode>
								<rate>
									<timebase>24</timebase>
									<ntsc>TRUE</ntsc>
								</rate>
								<string>03:32:15:13</string>
								<frame>305653</frame>
								<displayformat>NDF</displayformat>
								<reel>
									<name>C0060011</name>
								</reel>
							</timecode>
							<media>
								<video>
									<samplecharacteristics>
										<rate>
											<timebase>24</timebase>
											<ntsc>TRUE</ntsc>
										</rate>
										<width>3840</width>
										<height>2160</height>
										<anamorphic>FALSE</anamorphic>
										<pixelaspectratio>square</pixelaspectratio>
										<fielddominance>none</fielddominance>
									</samplecharacteristics>
								</video>
							</media>
						</file>
						<logginginfo>
							<description></description>
							<scene></scene>
							<shottake></shottake>
							<lognote></lognote>
							<good></good>
							<originalvideofilename></originalvideofilename>
							<originalaudiofilename></originalaudiofilename>
						</logginginfo>
						<colorinfo>
							<lut></lut>
							<lut1></lut1>
							<asc_sop></asc_sop>
							<asc_sat></asc_sat>
							<lut2></lut2>
						</colorinfo>
						<labels>
							<label2>Violet</label2>
						</labels>
					</clipitem>
					<clipitem id="clipitem-456">
						<masterclipid>masterclip-453</masterclipid>
						<name>TKO_011_WAR_Sh04690.mov</name>
						<enabled>TRUE</enabled>
						<duration>57</duration>
						<rate>
							<timebase>24</timebase>
							<ntsc>TRUE</ntsc>
						</rate>
						<start>40310</start>
						<end>40359</end>
						<in>4</in>
						<out>53</out>
						<pproTicksIn>42378336000</pproTicksIn>
						<pproTicksOut>561512952000</pproTicksOut>
						<alphatype>none</alphatype>
						<pixelaspectratio>square</pixelaspectratio>
						<anamorphic>FALSE</anamorphic>
						<file id="file-453">
							<name>TKO_011_WAR_Sh04690.mov</name>
							<pathurl>file://tri-stor01/Projects/TKO/SHOTS/_Refs_Movs_Burnin_FrameCounter/TKO_011_WAR_Sh04690.mov</pathurl>
							<rate>
								<timebase>24</timebase>
								<ntsc>TRUE</ntsc>
							</rate>
							<duration>57</duration>
							<timecode>
								<rate>
									<timebase>24</timebase>
									<ntsc>TRUE</ntsc>
								</rate>
								<string>21:31:17:19</string>
								<frame>1859467</frame>
								<displayformat>NDF</displayformat>
								<reel>
									<name>A0130001</name>
								</reel>
							</timecode>
							<media>
								<video>
									<samplecharacteristics>
										<rate>
											<timebase>24</timebase>
											<ntsc>TRUE</ntsc>
										</rate>
										<width>4096</width>
										<height>2160</height>
										<anamorphic>FALSE</anamorphic>
										<pixelaspectratio>square</pixelaspectratio>
										<fielddominance>none</fielddominance>
									</samplecharacteristics>
								</video>
							</media>
						</file>
						<logginginfo>
							<description></description>
							<scene></scene>
							<shottake></shottake>
							<lognote></lognote>
							<good></good>
							<originalvideofilename></originalvideofilename>
							<originalaudiofilename></originalaudiofilename>
						</logginginfo>
						<colorinfo>
							<lut></lut>
							<lut1></lut1>
							<asc_sop></asc_sop>
							<asc_sat></asc_sat>
							<lut2></lut2>
						</colorinfo>
						<labels>
							<label2>Violet</label2>
						</labels>
					</clipitem>
					<clipitem id="clipitem-457">
						<masterclipid>masterclip-454</masterclipid>
						<name>TKO_011_WAR_Sh04700.mov</name>
						<enabled>TRUE</enabled>
						<duration>62</duration>
						<rate>
							<timebase>24</timebase>
							<ntsc>TRUE</ntsc>
						</rate>
						<start>40359</start>
						<end>40413</end>
						<in>4</in>
						<out>58</out>
						<pproTicksIn>42378336000</pproTicksIn>
						<pproTicksOut>614485872000</pproTicksOut>
						<alphatype>none</alphatype>
						<pixelaspectratio>square</pixelaspectratio>
						<anamorphic>FALSE</anamorphic>
						<file id="file-454">
							<name>TKO_011_WAR_Sh04700.mov</name>
							<pathurl>file://tri-stor01/Projects/TKO/SHOTS/_Refs_Movs_Burnin_FrameCounter/TKO_011_WAR_Sh04700.mov</pathurl>
							<rate>
								<timebase>24</timebase>
								<ntsc>TRUE</ntsc>
							</rate>
							<duration>62</duration>
							<timecode>
								<rate>
									<timebase>24</timebase>
									<ntsc>TRUE</ntsc>
								</rate>
								<string>21:12:19:01</string>
								<frame>1832137</frame>
								<displayformat>NDF</displayformat>
								<reel>
									<name>A0120017</name>
								</reel>
							</timecode>
							<media>
								<video>
									<samplecharacteristics>
										<rate>
											<timebase>24</timebase>
											<ntsc>TRUE</ntsc>
										</rate>
										<width>4096</width>
										<height>2160</height>
										<anamorphic>FALSE</anamorphic>
										<pixelaspectratio>square</pixelaspectratio>
										<fielddominance>none</fielddominance>
									</samplecharacteristics>
								</video>
							</media>
						</file>
						<logginginfo>
							<description></description>
							<scene></scene>
							<shottake></shottake>
							<lognote></lognote>
							<good></good>
							<originalvideofilename></originalvideofilename>
							<originalaudiofilename></originalaudiofilename>
						</logginginfo>
						<colorinfo>
							<lut></lut>
							<lut1></lut1>
							<asc_sop></asc_sop>
							<asc_sat></asc_sat>
							<lut2></lut2>
						</colorinfo>
						<labels>
							<label2>Violet</label2>
						</labels>
					</clipitem>
					<clipitem id="clipitem-458">
						<masterclipid>masterclip-455</masterclipid>
						<name>TKO_011_WAR_Sh04710.mov</name>
						<enabled>TRUE</enabled>
						<duration>60</duration>
						<rate>
							<timebase>24</timebase>
							<ntsc>TRUE</ntsc>
						</rate>
						<start>40413</start>
						<end>40465</end>
						<in>4</in>
						<out>56</out>
						<pproTicksIn>42378336000</pproTicksIn>
						<pproTicksOut>593296704000</pproTicksOut>
						<alphatype>none</alphatype>
						<pixelaspectratio>square</pixelaspectratio>
						<anamorphic>FALSE</anamorphic>
						<file id="file-455">
							<name>TKO_011_WAR_Sh04710.mov</name>
							<pathurl>file://tri-stor01/Projects/TKO/SHOTS/_Refs_Movs_Burnin_FrameCounter/TKO_011_WAR_Sh04710.mov</pathurl>
							<rate>
								<timebase>24</timebase>
								<ntsc>TRUE</ntsc>
							</rate>
							<duration>60</duration>
							<timecode>
								<rate>
									<timebase>24</timebase>
									<ntsc>TRUE</ntsc>
								</rate>
								<string>21:31:21:00</string>
								<frame>1859544</frame>
								<displayformat>NDF</displayformat>
								<reel>
									<name>A0130001</name>
								</reel>
							</timecode>
							<media>
								<video>
									<samplecharacteristics>
										<rate>
											<timebase>24</timebase>
											<ntsc>TRUE</ntsc>
										</rate>
										<width>4096</width>
										<height>2160</height>
										<anamorphic>FALSE</anamorphic>
										<pixelaspectratio>square</pixelaspectratio>
										<fielddominance>none</fielddominance>
									</samplecharacteristics>
								</video>
							</media>
						</file>
						<logginginfo>
							<description></description>
							<scene></scene>
							<shottake></shottake>
							<lognote></lognote>
							<good></good>
							<originalvideofilename></originalvideofilename>
							<originalaudiofilename></originalaudiofilename>
						</logginginfo>
						<colorinfo>
							<lut></lut>
							<lut1></lut1>
							<asc_sop></asc_sop>
							<asc_sat></asc_sat>
							<lut2></lut2>
						</colorinfo>
						<labels>
							<label2>Violet</label2>
						</labels>
					</clipitem>
					<clipitem id="clipitem-459">
						<masterclipid>masterclip-456</masterclipid>
						<name>TKO_011_WAR_Sh04720.mov</name>
						<enabled>TRUE</enabled>
						<duration>63</duration>
						<rate>
							<timebase>24</timebase>
							<ntsc>TRUE</ntsc>
						</rate>
						<start>40465</start>
						<end>40520</end>
						<in>4</in>
						<out>59</out>
						<pproTicksIn>42378336000</pproTicksIn>
						<pproTicksOut>625080456000</pproTicksOut>
						<alphatype>none</alphatype>
						<pixelaspectratio>square</pixelaspectratio>
						<anamorphic>FALSE</anamorphic>
						<file id="file-456">
							<name>TKO_011_WAR_Sh04720.mov</name>
							<pathurl>file://tri-stor01/Projects/TKO/SHOTS/_Refs_Movs_Burnin_FrameCounter/TKO_011_WAR_Sh04720.mov</pathurl>
							<rate>
								<timebase>24</timebase>
								<ntsc>TRUE</ntsc>
							</rate>
							<duration>63</duration>
							<timecode>
								<rate>
									<timebase>24</timebase>
									<ntsc>TRUE</ntsc>
								</rate>
								<string>21:12:24:05</string>
								<frame>1832261</frame>
								<displayformat>NDF</displayformat>
								<reel>
									<name>A0120017</name>
								</reel>
							</timecode>
							<media>
								<video>
									<samplecharacteristics>
										<rate>
											<timebase>24</timebase>
											<ntsc>TRUE</ntsc>
										</rate>
										<width>4096</width>
										<height>2160</height>
										<anamorphic>FALSE</anamorphic>
										<pixelaspectratio>square</pixelaspectratio>
										<fielddominance>none</fielddominance>
									</samplecharacteristics>
								</video>
							</media>
						</file>
						<logginginfo>
							<description></description>
							<scene></scene>
							<shottake></shottake>
							<lognote></lognote>
							<good></good>
							<originalvideofilename></originalvideofilename>
							<originalaudiofilename></originalaudiofilename>
						</logginginfo>
						<colorinfo>
							<lut></lut>
							<lut1></lut1>
							<asc_sop></asc_sop>
							<asc_sat></asc_sat>
							<lut2></lut2>
						</colorinfo>
						<labels>
							<label2>Violet</label2>
						</labels>
					</clipitem>
					<clipitem id="clipitem-460">
						<masterclipid>masterclip-457</masterclipid>
						<name>TKO_011_WAR_Sh04730.mov</name>
						<enabled>TRUE</enabled>
						<duration>132</duration>
						<rate>
							<timebase>24</timebase>
							<ntsc>TRUE</ntsc>
						</rate>
						<start>40520</start>
						<end>40644</end>
						<in>4</in>
						<out>128</out>
						<pproTicksIn>42378336000</pproTicksIn>
						<pproTicksOut>1356106752000</pproTicksOut>
						<alphatype>none</alphatype>
						<pixelaspectratio>square</pixelaspectratio>
						<anamorphic>FALSE</anamorphic>
						<file id="file-457">
							<name>TKO_011_WAR_Sh04730.mov</name>
							<pathurl>file://tri-stor01/Projects/TKO/SHOTS/_Refs_Movs_Burnin_FrameCounter/TKO_011_WAR_Sh04730.mov</pathurl>
							<rate>
								<timebase>24</timebase>
								<ntsc>TRUE</ntsc>
							</rate>
							<duration>132</duration>
							<timecode>
								<rate>
									<timebase>24</timebase>
									<ntsc>TRUE</ntsc>
								</rate>
								<string>21:31:27:22</string>
								<frame>1859710</frame>
								<displayformat>NDF</displayformat>
								<reel>
									<name>A0130001</name>
								</reel>
							</timecode>
							<media>
								<video>
									<samplecharacteristics>
										<rate>
											<timebase>24</timebase>
											<ntsc>TRUE</ntsc>
										</rate>
										<width>4096</width>
										<height>2160</height>
										<anamorphic>FALSE</anamorphic>
										<pixelaspectratio>square</pixelaspectratio>
										<fielddominance>none</fielddominance>
									</samplecharacteristics>
								</video>
							</media>
						</file>
						<logginginfo>
							<description></description>
							<scene></scene>
							<shottake></shottake>
							<lognote></lognote>
							<good></good>
							<originalvideofilename></originalvideofilename>
							<originalaudiofilename></originalaudiofilename>
						</logginginfo>
						<colorinfo>
							<lut></lut>
							<lut1></lut1>
							<asc_sop></asc_sop>
							<asc_sat></asc_sat>
							<lut2></lut2>
						</colorinfo>
						<labels>
							<label2>Violet</label2>
						</labels>
					</clipitem>
					<clipitem id="clipitem-461">
						<masterclipid>masterclip-458</masterclipid>
						<name>TKO_011_WAR_Sh04740.mov</name>
						<enabled>TRUE</enabled>
						<duration>71</duration>
						<rate>
							<timebase>24</timebase>
							<ntsc>TRUE</ntsc>
						</rate>
						<start>40644</start>
						<end>40707</end>
						<in>4</in>
						<out>67</out>
						<pproTicksIn>42378336000</pproTicksIn>
						<pproTicksOut>709837128000</pproTicksOut>
						<alphatype>none</alphatype>
						<pixelaspectratio>square</pixelaspectratio>
						<anamorphic>FALSE</anamorphic>
						<file id="file-458">
							<name>TKO_011_WAR_Sh04740.mov</name>
							<pathurl>file://tri-stor01/Projects/TKO/SHOTS/_Refs_Movs_Burnin_FrameCounter/TKO_011_WAR_Sh04740.mov</pathurl>
							<rate>
								<timebase>24</timebase>
								<ntsc>TRUE</ntsc>
							</rate>
							<duration>71</duration>
							<timecode>
								<rate>
									<timebase>24</timebase>
									<ntsc>TRUE</ntsc>
								</rate>
								<string>21:12:32:08</string>
								<frame>1832456</frame>
								<displayformat>NDF</displayformat>
								<reel>
									<name>A0120017</name>
								</reel>
							</timecode>
							<media>
								<video>
									<samplecharacteristics>
										<rate>
											<timebase>24</timebase>
											<ntsc>TRUE</ntsc>
										</rate>
										<width>4096</width>
										<height>2160</height>
										<anamorphic>FALSE</anamorphic>
										<pixelaspectratio>square</pixelaspectratio>
										<fielddominance>none</fielddominance>
									</samplecharacteristics>
								</video>
							</media>
						</file>
						<logginginfo>
							<description></description>
							<scene></scene>
							<shottake></shottake>
							<lognote></lognote>
							<good></good>
							<originalvideofilename></originalvideofilename>
							<originalaudiofilename></originalaudiofilename>
						</logginginfo>
						<colorinfo>
							<lut></lut>
							<lut1></lut1>
							<asc_sop></asc_sop>
							<asc_sat></asc_sat>
							<lut2></lut2>
						</colorinfo>
						<labels>
							<label2>Violet</label2>
						</labels>
					</clipitem>
					<clipitem id="clipitem-462">
						<masterclipid>masterclip-459</masterclipid>
						<name>TKO_011_WAR_Sh04750.mov</name>
						<enabled>TRUE</enabled>
						<duration>325</duration>
						<rate>
							<timebase>24</timebase>
							<ntsc>TRUE</ntsc>
						</rate>
						<start>40707</start>
						<end>41024</end>
						<in>4</in>
						<out>321</out>
						<pproTicksIn>42378336000</pproTicksIn>
						<pproTicksOut>3400861464000</pproTicksOut>
						<alphatype>none</alphatype>
						<pixelaspectratio>square</pixelaspectratio>
						<anamorphic>FALSE</anamorphic>
						<file id="file-459">
							<name>TKO_011_WAR_Sh04750.mov</name>
							<pathurl>file://tri-stor01/Projects/TKO/SHOTS/_Refs_Movs_Burnin_FrameCounter/TKO_011_WAR_Sh04750.mov</pathurl>
							<rate>
								<timebase>24</timebase>
								<ntsc>TRUE</ntsc>
							</rate>
							<duration>325</duration>
							<timecode>
								<rate>
									<timebase>24</timebase>
									<ntsc>TRUE</ntsc>
								</rate>
								<string>00:00:00:00</string>
								<frame>0</frame>
								<displayformat>NDF</displayformat>
							</timecode>
							<media>
								<video>
									<samplecharacteristics>
										<rate>
											<timebase>24</timebase>
											<ntsc>TRUE</ntsc>
										</rate>
										<width>4096</width>
										<height>2160</height>
										<anamorphic>FALSE</anamorphic>
										<pixelaspectratio>square</pixelaspectratio>
										<fielddominance>none</fielddominance>
									</samplecharacteristics>
								</video>
							</media>
						</file>
						<logginginfo>
							<description></description>
							<scene></scene>
							<shottake></shottake>
							<lognote></lognote>
							<good></good>
							<originalvideofilename></originalvideofilename>
							<originalaudiofilename></originalaudiofilename>
						</logginginfo>
						<colorinfo>
							<lut></lut>
							<lut1></lut1>
							<asc_sop></asc_sop>
							<asc_sat></asc_sat>
							<lut2></lut2>
						</colorinfo>
						<labels>
							<label2>Violet</label2>
						</labels>
					</clipitem>
					<clipitem id="clipitem-463">
						<masterclipid>masterclip-460</masterclipid>
						<name>TKO_011_WAR_Sh04760.mov</name>
						<enabled>TRUE</enabled>
						<duration>87</duration>
						<rate>
							<timebase>24</timebase>
							<ntsc>TRUE</ntsc>
						</rate>
						<start>41024</start>
						<end>41103</end>
						<in>4</in>
						<out>83</out>
						<pproTicksIn>42378336000</pproTicksIn>
						<pproTicksOut>879350472000</pproTicksOut>
						<alphatype>none</alphatype>
						<pixelaspectratio>square</pixelaspectratio>
						<anamorphic>FALSE</anamorphic>
						<file id="file-460">
							<name>TKO_011_WAR_Sh04760.mov</name>
							<pathurl>file://tri-stor01/Projects/TKO/SHOTS/_Refs_Movs_Burnin_FrameCounter/TKO_011_WAR_Sh04760.mov</pathurl>
							<rate>
								<timebase>24</timebase>
								<ntsc>TRUE</ntsc>
							</rate>
							<duration>87</duration>
							<timecode>
								<rate>
									<timebase>24</timebase>
									<ntsc>TRUE</ntsc>
								</rate>
								<string>00:00:00:00</string>
								<frame>0</frame>
								<displayformat>NDF</displayformat>
							</timecode>
							<media>
								<video>
									<samplecharacteristics>
										<rate>
											<timebase>24</timebase>
											<ntsc>TRUE</ntsc>
										</rate>
										<width>4096</width>
										<height>2160</height>
										<anamorphic>FALSE</anamorphic>
										<pixelaspectratio>square</pixelaspectratio>
										<fielddominance>none</fielddominance>
									</samplecharacteristics>
								</video>
							</media>
						</file>
						<logginginfo>
							<description></description>
							<scene></scene>
							<shottake></shottake>
							<lognote></lognote>
							<good></good>
							<originalvideofilename></originalvideofilename>
							<originalaudiofilename></originalaudiofilename>
						</logginginfo>
						<colorinfo>
							<lut></lut>
							<lut1></lut1>
							<asc_sop></asc_sop>
							<asc_sat></asc_sat>
							<lut2></lut2>
						</colorinfo>
						<labels>
							<label2>Violet</label2>
						</labels>
					</clipitem>
					<clipitem id="clipitem-464">
						<masterclipid>masterclip-461</masterclipid>
						<name>TKO_011_WAR_Sh04770.mov</name>
						<enabled>TRUE</enabled>
						<duration>51</duration>
						<rate>
							<timebase>24</timebase>
							<ntsc>TRUE</ntsc>
						</rate>
						<start>41103</start>
						<end>41146</end>
						<in>4</in>
						<out>47</out>
						<pproTicksIn>42378336000</pproTicksIn>
						<pproTicksOut>497945448000</pproTicksOut>
						<alphatype>none</alphatype>
						<pixelaspectratio>square</pixelaspectratio>
						<anamorphic>FALSE</anamorphic>
						<file id="file-461">
							<name>TKO_011_WAR_Sh04770.mov</name>
							<pathurl>file://tri-stor01/Projects/TKO/SHOTS/_Refs_Movs_Burnin_FrameCounter/TKO_011_WAR_Sh04770.mov</pathurl>
							<rate>
								<timebase>24</timebase>
								<ntsc>TRUE</ntsc>
							</rate>
							<duration>51</duration>
							<timecode>
								<rate>
									<timebase>24</timebase>
									<ntsc>TRUE</ntsc>
								</rate>
								<string>00:00:00:00</string>
								<frame>0</frame>
								<displayformat>NDF</displayformat>
							</timecode>
							<media>
								<video>
									<samplecharacteristics>
										<rate>
											<timebase>24</timebase>
											<ntsc>TRUE</ntsc>
										</rate>
										<width>4096</width>
										<height>2160</height>
										<anamorphic>FALSE</anamorphic>
										<pixelaspectratio>square</pixelaspectratio>
										<fielddominance>none</fielddominance>
									</samplecharacteristics>
								</video>
							</media>
						</file>
						<logginginfo>
							<description></description>
							<scene></scene>
							<shottake></shottake>
							<lognote></lognote>
							<good></good>
							<originalvideofilename></originalvideofilename>
							<originalaudiofilename></originalaudiofilename>
						</logginginfo>
						<colorinfo>
							<lut></lut>
							<lut1></lut1>
							<asc_sop></asc_sop>
							<asc_sat></asc_sat>
							<lut2></lut2>
						</colorinfo>
						<labels>
							<label2>Violet</label2>
						</labels>
					</clipitem>
					<clipitem id="clipitem-465">
						<masterclipid>masterclip-462</masterclipid>
						<name>TKO_011_WAR_Sh04780.mov</name>
						<enabled>TRUE</enabled>
						<duration>61</duration>
						<rate>
							<timebase>24</timebase>
							<ntsc>TRUE</ntsc>
						</rate>
						<start>41146</start>
						<end>41199</end>
						<in>4</in>
						<out>57</out>
						<pproTicksIn>42378336000</pproTicksIn>
						<pproTicksOut>603891288000</pproTicksOut>
						<alphatype>none</alphatype>
						<pixelaspectratio>square</pixelaspectratio>
						<anamorphic>FALSE</anamorphic>
						<file id="file-462">
							<name>TKO_011_WAR_Sh04780.mov</name>
							<pathurl>file://tri-stor01/Projects/TKO/SHOTS/_Refs_Movs_Burnin_FrameCounter/TKO_011_WAR_Sh04780.mov</pathurl>
							<rate>
								<timebase>24</timebase>
								<ntsc>TRUE</ntsc>
							</rate>
							<duration>61</duration>
							<timecode>
								<rate>
									<timebase>24</timebase>
									<ntsc>TRUE</ntsc>
								</rate>
								<string>00:00:00:00</string>
								<frame>0</frame>
								<displayformat>NDF</displayformat>
							</timecode>
							<media>
								<video>
									<samplecharacteristics>
										<rate>
											<timebase>24</timebase>
											<ntsc>TRUE</ntsc>
										</rate>
										<width>4096</width>
										<height>2160</height>
										<anamorphic>FALSE</anamorphic>
										<pixelaspectratio>square</pixelaspectratio>
										<fielddominance>none</fielddominance>
									</samplecharacteristics>
								</video>
							</media>
						</file>
						<logginginfo>
							<description></description>
							<scene></scene>
							<shottake></shottake>
							<lognote></lognote>
							<good></good>
							<originalvideofilename></originalvideofilename>
							<originalaudiofilename></originalaudiofilename>
						</logginginfo>
						<colorinfo>
							<lut></lut>
							<lut1></lut1>
							<asc_sop></asc_sop>
							<asc_sat></asc_sat>
							<lut2></lut2>
						</colorinfo>
						<labels>
							<label2>Violet</label2>
						</labels>
					</clipitem>
					<clipitem id="clipitem-466">
						<masterclipid>masterclip-463</masterclipid>
						<name>TKO_011_WAR_Sh04790.mov</name>
						<enabled>TRUE</enabled>
						<duration>68</duration>
						<rate>
							<timebase>24</timebase>
							<ntsc>TRUE</ntsc>
						</rate>
						<start>41199</start>
						<end>41259</end>
						<in>4</in>
						<out>64</out>
						<pproTicksIn>42378336000</pproTicksIn>
						<pproTicksOut>678053376000</pproTicksOut>
						<alphatype>none</alphatype>
						<pixelaspectratio>square</pixelaspectratio>
						<anamorphic>FALSE</anamorphic>
						<file id="file-463">
							<name>TKO_011_WAR_Sh04790.mov</name>
							<pathurl>file://tri-stor01/Projects/TKO/SHOTS/_Refs_Movs_Burnin_FrameCounter/TKO_011_WAR_Sh04790.mov</pathurl>
							<rate>
								<timebase>24</timebase>
								<ntsc>TRUE</ntsc>
							</rate>
							<duration>68</duration>
							<timecode>
								<rate>
									<timebase>24</timebase>
									<ntsc>TRUE</ntsc>
								</rate>
								<string>00:00:00:00</string>
								<frame>0</frame>
								<displayformat>NDF</displayformat>
							</timecode>
							<media>
								<video>
									<samplecharacteristics>
										<rate>
											<timebase>24</timebase>
											<ntsc>TRUE</ntsc>
										</rate>
										<width>4096</width>
										<height>2160</height>
										<anamorphic>FALSE</anamorphic>
										<pixelaspectratio>square</pixelaspectratio>
										<fielddominance>none</fielddominance>
									</samplecharacteristics>
								</video>
							</media>
						</file>
						<logginginfo>
							<description></description>
							<scene></scene>
							<shottake></shottake>
							<lognote></lognote>
							<good></good>
							<originalvideofilename></originalvideofilename>
							<originalaudiofilename></originalaudiofilename>
						</logginginfo>
						<colorinfo>
							<lut></lut>
							<lut1></lut1>
							<asc_sop></asc_sop>
							<asc_sat></asc_sat>
							<lut2></lut2>
						</colorinfo>
						<labels>
							<label2>Violet</label2>
						</labels>
					</clipitem>
					<clipitem id="clipitem-467">
						<masterclipid>masterclip-464</masterclipid>
						<name>TKO_011_WAR_Sh04800.mov</name>
						<enabled>TRUE</enabled>
						<duration>92</duration>
						<rate>
							<timebase>24</timebase>
							<ntsc>TRUE</ntsc>
						</rate>
						<start>41259</start>
						<end>41343</end>
						<in>4</in>
						<out>88</out>
						<pproTicksIn>42378336000</pproTicksIn>
						<pproTicksOut>932323392000</pproTicksOut>
						<alphatype>none</alphatype>
						<pixelaspectratio>square</pixelaspectratio>
						<anamorphic>FALSE</anamorphic>
						<file id="file-464">
							<name>TKO_011_WAR_Sh04800.mov</name>
							<pathurl>file://tri-stor01/Projects/TKO/SHOTS/_Refs_Movs_Burnin_FrameCounter/TKO_011_WAR_Sh04800.mov</pathurl>
							<rate>
								<timebase>24</timebase>
								<ntsc>TRUE</ntsc>
							</rate>
							<duration>92</duration>
							<timecode>
								<rate>
									<timebase>24</timebase>
									<ntsc>TRUE</ntsc>
								</rate>
								<string>00:00:00:00</string>
								<frame>0</frame>
								<displayformat>NDF</displayformat>
							</timecode>
							<media>
								<video>
									<samplecharacteristics>
										<rate>
											<timebase>24</timebase>
											<ntsc>TRUE</ntsc>
										</rate>
										<width>4096</width>
										<height>2160</height>
										<anamorphic>FALSE</anamorphic>
										<pixelaspectratio>square</pixelaspectratio>
										<fielddominance>none</fielddominance>
									</samplecharacteristics>
								</video>
							</media>
						</file>
						<logginginfo>
							<description></description>
							<scene></scene>
							<shottake></shottake>
							<lognote></lognote>
							<good></good>
							<originalvideofilename></originalvideofilename>
							<originalaudiofilename></originalaudiofilename>
						</logginginfo>
						<colorinfo>
							<lut></lut>
							<lut1></lut1>
							<asc_sop></asc_sop>
							<asc_sat></asc_sat>
							<lut2></lut2>
						</colorinfo>
						<labels>
							<label2>Violet</label2>
						</labels>
					</clipitem>
					<clipitem id="clipitem-468">
						<masterclipid>masterclip-465</masterclipid>
						<name>TKO_011_WAR_Sh04810.mov</name>
						<enabled>TRUE</enabled>
						<duration>94</duration>
						<rate>
							<timebase>24</timebase>
							<ntsc>TRUE</ntsc>
						</rate>
						<start>41343</start>
						<end>41429</end>
						<in>4</in>
						<out>90</out>
						<pproTicksIn>42378336000</pproTicksIn>
						<pproTicksOut>953512560000</pproTicksOut>
						<alphatype>none</alphatype>
						<pixelaspectratio>square</pixelaspectratio>
						<anamorphic>FALSE</anamorphic>
						<file id="file-465">
							<name>TKO_011_WAR_Sh04810.mov</name>
							<pathurl>file://tri-stor01/Projects/TKO/SHOTS/_Refs_Movs_Burnin_FrameCounter/TKO_011_WAR_Sh04810.mov</pathurl>
							<rate>
								<timebase>24</timebase>
								<ntsc>TRUE</ntsc>
							</rate>
							<duration>94</duration>
							<timecode>
								<rate>
									<timebase>24</timebase>
									<ntsc>TRUE</ntsc>
								</rate>
								<string>00:00:00:00</string>
								<frame>0</frame>
								<displayformat>NDF</displayformat>
							</timecode>
							<media>
								<video>
									<samplecharacteristics>
										<rate>
											<timebase>24</timebase>
											<ntsc>TRUE</ntsc>
										</rate>
										<width>4096</width>
										<height>2160</height>
										<anamorphic>FALSE</anamorphic>
										<pixelaspectratio>square</pixelaspectratio>
										<fielddominance>none</fielddominance>
									</samplecharacteristics>
								</video>
							</media>
						</file>
						<logginginfo>
							<description></description>
							<scene></scene>
							<shottake></shottake>
							<lognote></lognote>
							<good></good>
							<originalvideofilename></originalvideofilename>
							<originalaudiofilename></originalaudiofilename>
						</logginginfo>
						<colorinfo>
							<lut></lut>
							<lut1></lut1>
							<asc_sop></asc_sop>
							<asc_sat></asc_sat>
							<lut2></lut2>
						</colorinfo>
						<labels>
							<label2>Violet</label2>
						</labels>
					</clipitem>
					<clipitem id="clipitem-469">
						<masterclipid>masterclip-466</masterclipid>
						<name>TKO_011_WAR_Sh04820.mov</name>
						<enabled>TRUE</enabled>
						<duration>47</duration>
						<rate>
							<timebase>24</timebase>
							<ntsc>TRUE</ntsc>
						</rate>
						<start>41429</start>
						<end>41468</end>
						<in>4</in>
						<out>43</out>
						<pproTicksIn>42378336000</pproTicksIn>
						<pproTicksOut>455567112000</pproTicksOut>
						<alphatype>none</alphatype>
						<pixelaspectratio>square</pixelaspectratio>
						<anamorphic>FALSE</anamorphic>
						<file id="file-466">
							<name>TKO_011_WAR_Sh04820.mov</name>
							<pathurl>file://tri-stor01/Projects/TKO/SHOTS/_Refs_Movs_Burnin_FrameCounter/TKO_011_WAR_Sh04820.mov</pathurl>
							<rate>
								<timebase>24</timebase>
								<ntsc>TRUE</ntsc>
							</rate>
							<duration>47</duration>
							<timecode>
								<rate>
									<timebase>24</timebase>
									<ntsc>TRUE</ntsc>
								</rate>
								<string>00:00:00:00</string>
								<frame>0</frame>
								<displayformat>NDF</displayformat>
							</timecode>
							<media>
								<video>
									<samplecharacteristics>
										<rate>
											<timebase>24</timebase>
											<ntsc>TRUE</ntsc>
										</rate>
										<width>4096</width>
										<height>2160</height>
										<anamorphic>FALSE</anamorphic>
										<pixelaspectratio>square</pixelaspectratio>
										<fielddominance>none</fielddominance>
									</samplecharacteristics>
								</video>
							</media>
						</file>
						<logginginfo>
							<description></description>
							<scene></scene>
							<shottake></shottake>
							<lognote></lognote>
							<good></good>
							<originalvideofilename></originalvideofilename>
							<originalaudiofilename></originalaudiofilename>
						</logginginfo>
						<colorinfo>
							<lut></lut>
							<lut1></lut1>
							<asc_sop></asc_sop>
							<asc_sat></asc_sat>
							<lut2></lut2>
						</colorinfo>
						<labels>
							<label2>Violet</label2>
						</labels>
					</clipitem>
					<clipitem id="clipitem-470">
						<masterclipid>masterclip-467</masterclipid>
						<name>TKO_011_WAR_Sh04830.mov</name>
						<enabled>TRUE</enabled>
						<duration>109</duration>
						<rate>
							<timebase>24</timebase>
							<ntsc>TRUE</ntsc>
						</rate>
						<start>41468</start>
						<end>41569</end>
						<in>4</in>
						<out>105</out>
						<pproTicksIn>42378336000</pproTicksIn>
						<pproTicksOut>1112431320000</pproTicksOut>
						<alphatype>none</alphatype>
						<pixelaspectratio>square</pixelaspectratio>
						<anamorphic>FALSE</anamorphic>
						<file id="file-467">
							<name>TKO_011_WAR_Sh04830.mov</name>
							<pathurl>file://tri-stor01/Projects/TKO/SHOTS/_Refs_Movs_Burnin_FrameCounter/TKO_011_WAR_Sh04830.mov</pathurl>
							<rate>
								<timebase>24</timebase>
								<ntsc>TRUE</ntsc>
							</rate>
							<duration>109</duration>
							<timecode>
								<rate>
									<timebase>24</timebase>
									<ntsc>TRUE</ntsc>
								</rate>
								<string>00:00:00:00</string>
								<frame>0</frame>
								<displayformat>NDF</displayformat>
							</timecode>
							<media>
								<video>
									<samplecharacteristics>
										<rate>
											<timebase>24</timebase>
											<ntsc>TRUE</ntsc>
										</rate>
										<width>4096</width>
										<height>2160</height>
										<anamorphic>FALSE</anamorphic>
										<pixelaspectratio>square</pixelaspectratio>
										<fielddominance>none</fielddominance>
									</samplecharacteristics>
								</video>
							</media>
						</file>
						<logginginfo>
							<description></description>
							<scene></scene>
							<shottake></shottake>
							<lognote></lognote>
							<good></good>
							<originalvideofilename></originalvideofilename>
							<originalaudiofilename></originalaudiofilename>
						</logginginfo>
						<colorinfo>
							<lut></lut>
							<lut1></lut1>
							<asc_sop></asc_sop>
							<asc_sat></asc_sat>
							<lut2></lut2>
						</colorinfo>
						<labels>
							<label2>Violet</label2>
						</labels>
					</clipitem>
					<clipitem id="clipitem-471">
						<masterclipid>masterclip-468</masterclipid>
						<name>TKO_011_WAR_Sh04840.mov</name>
						<enabled>TRUE</enabled>
						<duration>116</duration>
						<rate>
							<timebase>24</timebase>
							<ntsc>TRUE</ntsc>
						</rate>
						<start>41569</start>
						<end>41654</end>
						<in>4</in>
						<out>89</out>
						<pproTicksIn>42378336000</pproTicksIn>
						<pproTicksOut>942917976000</pproTicksOut>
						<alphatype>none</alphatype>
						<pixelaspectratio>square</pixelaspectratio>
						<anamorphic>FALSE</anamorphic>
						<file id="file-468">
							<name>TKO_011_WAR_Sh04840.mov</name>
							<pathurl>file://tri-stor01/Projects/TKO/SHOTS/_Refs_Movs_Burnin_FrameCounter/TKO_011_WAR_Sh04840.mov</pathurl>
							<rate>
								<timebase>24</timebase>
								<ntsc>TRUE</ntsc>
							</rate>
							<duration>116</duration>
							<timecode>
								<rate>
									<timebase>24</timebase>
									<ntsc>TRUE</ntsc>
								</rate>
								<string>10:01:36:02</string>
								<frame>866306</frame>
								<displayformat>NDF</displayformat>
								<reel>
									<name>A0450008</name>
								</reel>
							</timecode>
							<media>
								<video>
									<samplecharacteristics>
										<rate>
											<timebase>24</timebase>
											<ntsc>TRUE</ntsc>
										</rate>
										<width>4096</width>
										<height>2160</height>
										<anamorphic>FALSE</anamorphic>
										<pixelaspectratio>square</pixelaspectratio>
										<fielddominance>none</fielddominance>
									</samplecharacteristics>
								</video>
							</media>
						</file>
						<logginginfo>
							<description></description>
							<scene></scene>
							<shottake></shottake>
							<lognote></lognote>
							<good></good>
							<originalvideofilename></originalvideofilename>
							<originalaudiofilename></originalaudiofilename>
						</logginginfo>
						<colorinfo>
							<lut></lut>
							<lut1></lut1>
							<asc_sop></asc_sop>
							<asc_sat></asc_sat>
							<lut2></lut2>
						</colorinfo>
						<labels>
							<label2>Violet</label2>
						</labels>
					</clipitem>
					<clipitem id="clipitem-472">
						<masterclipid>masterclip-469</masterclipid>
						<name>TKO_011_WAR_Sh04850.mov</name>
						<enabled>TRUE</enabled>
						<duration>54</duration>
						<rate>
							<timebase>24</timebase>
							<ntsc>TRUE</ntsc>
						</rate>
						<start>41654</start>
						<end>41700</end>
						<in>4</in>
						<out>50</out>
						<pproTicksIn>42378336000</pproTicksIn>
						<pproTicksOut>529729200000</pproTicksOut>
						<alphatype>none</alphatype>
						<pixelaspectratio>square</pixelaspectratio>
						<anamorphic>FALSE</anamorphic>
						<file id="file-469">
							<name>TKO_011_WAR_Sh04850.mov</name>
							<pathurl>file://tri-stor01/Projects/TKO/SHOTS/_Refs_Movs_Burnin_FrameCounter/TKO_011_WAR_Sh04850.mov</pathurl>
							<rate>
								<timebase>24</timebase>
								<ntsc>TRUE</ntsc>
							</rate>
							<duration>54</duration>
							<timecode>
								<rate>
									<timebase>24</timebase>
									<ntsc>TRUE</ntsc>
								</rate>
								<string>10:01:39:19</string>
								<frame>866395</frame>
								<displayformat>NDF</displayformat>
								<reel>
									<name>B0390008</name>
								</reel>
							</timecode>
							<media>
								<video>
									<samplecharacteristics>
										<rate>
											<timebase>24</timebase>
											<ntsc>TRUE</ntsc>
										</rate>
										<width>4096</width>
										<height>2160</height>
										<anamorphic>FALSE</anamorphic>
										<pixelaspectratio>square</pixelaspectratio>
										<fielddominance>none</fielddominance>
									</samplecharacteristics>
								</video>
							</media>
						</file>
						<logginginfo>
							<description></description>
							<scene></scene>
							<shottake></shottake>
							<lognote></lognote>
							<good></good>
							<originalvideofilename></originalvideofilename>
							<originalaudiofilename></originalaudiofilename>
						</logginginfo>
						<colorinfo>
							<lut></lut>
							<lut1></lut1>
							<asc_sop></asc_sop>
							<asc_sat></asc_sat>
							<lut2></lut2>
						</colorinfo>
						<labels>
							<label2>Violet</label2>
						</labels>
					</clipitem>
					<clipitem id="clipitem-473">
						<masterclipid>masterclip-470</masterclipid>
						<name>TKO_011_WAR_Sh04860_MERGED.mov</name>
						<enabled>TRUE</enabled>
						<duration>171</duration>
						<rate>
							<timebase>24</timebase>
							<ntsc>TRUE</ntsc>
						</rate>
						<start>41700</start>
						<end>41863</end>
						<in>4</in>
						<out>167</out>
						<pproTicksIn>42378336000</pproTicksIn>
						<pproTicksOut>1769295528000</pproTicksOut>
						<alphatype>none</alphatype>
						<pixelaspectratio>square</pixelaspectratio>
						<anamorphic>FALSE</anamorphic>
						<file id="file-470">
							<name>TKO_011_WAR_Sh04860_MERGED.mov</name>
							<pathurl>file://tri-stor01/Projects/TKO/SHOTS/_Refs_Movs_Burnin_FrameCounter/TKO_011_WAR_Sh04860_MERGED.mov</pathurl>
							<rate>
								<timebase>24</timebase>
								<ntsc>TRUE</ntsc>
							</rate>
							<duration>171</duration>
							<timecode>
								<rate>
									<timebase>24</timebase>
									<ntsc>TRUE</ntsc>
								</rate>
								<string>00:00:00:00</string>
								<frame>0</frame>
								<displayformat>NDF</displayformat>
							</timecode>
							<media>
								<video>
									<samplecharacteristics>
										<rate>
											<timebase>24</timebase>
											<ntsc>TRUE</ntsc>
										</rate>
										<width>1920</width>
										<height>1080</height>
										<anamorphic>FALSE</anamorphic>
										<pixelaspectratio>square</pixelaspectratio>
										<fielddominance>none</fielddominance>
									</samplecharacteristics>
								</video>
								<audio>
									<samplecharacteristics>
										<depth>16</depth>
										<samplerate>48000</samplerate>
									</samplecharacteristics>
									<channelcount>2</channelcount>
								</audio>
							</media>
						</file>
						<logginginfo>
							<description></description>
							<scene></scene>
							<shottake></shottake>
							<lognote></lognote>
							<good></good>
							<originalvideofilename></originalvideofilename>
							<originalaudiofilename></originalaudiofilename>
						</logginginfo>
						<colorinfo>
							<lut></lut>
							<lut1></lut1>
							<asc_sop></asc_sop>
							<asc_sat></asc_sat>
							<lut2></lut2>
						</colorinfo>
						<labels>
							<label2>Iris</label2>
						</labels>
					</clipitem>
					<clipitem id="clipitem-474">
						<masterclipid>masterclip-471</masterclipid>
						<name>TKO_011_WAR_Sh04870.mov</name>
						<enabled>TRUE</enabled>
						<duration>65</duration>
						<rate>
							<timebase>24</timebase>
							<ntsc>TRUE</ntsc>
						</rate>
						<start>41863</start>
						<end>41920</end>
						<in>4</in>
						<out>61</out>
						<pproTicksIn>42378336000</pproTicksIn>
						<pproTicksOut>646269624000</pproTicksOut>
						<alphatype>none</alphatype>
						<pixelaspectratio>square</pixelaspectratio>
						<anamorphic>FALSE</anamorphic>
						<file id="file-471">
							<name>TKO_011_WAR_Sh04870.mov</name>
							<pathurl>file://tri-stor01/Projects/TKO/SHOTS/_Refs_Movs_Burnin_FrameCounter/TKO_011_WAR_Sh04870.mov</pathurl>
							<rate>
								<timebase>24</timebase>
								<ntsc>TRUE</ntsc>
							</rate>
							<duration>65</duration>
							<timecode>
								<rate>
									<timebase>24</timebase>
									<ntsc>TRUE</ntsc>
								</rate>
								<string>10:09:17:13</string>
								<frame>877381</frame>
								<displayformat>NDF</displayformat>
								<reel>
									<name>B0390009</name>
								</reel>
							</timecode>
							<media>
								<video>
									<samplecharacteristics>
										<rate>
											<timebase>24</timebase>
											<ntsc>TRUE</ntsc>
										</rate>
										<width>4096</width>
										<height>2160</height>
										<anamorphic>FALSE</anamorphic>
										<pixelaspectratio>square</pixelaspectratio>
										<fielddominance>none</fielddominance>
									</samplecharacteristics>
								</video>
							</media>
						</file>
						<logginginfo>
							<description></description>
							<scene></scene>
							<shottake></shottake>
							<lognote></lognote>
							<good></good>
							<originalvideofilename></originalvideofilename>
							<originalaudiofilename></originalaudiofilename>
						</logginginfo>
						<colorinfo>
							<lut></lut>
							<lut1></lut1>
							<asc_sop></asc_sop>
							<asc_sat></asc_sat>
							<lut2></lut2>
						</colorinfo>
						<labels>
							<label2>Violet</label2>
						</labels>
					</clipitem>
					<clipitem id="clipitem-475">
						<masterclipid>masterclip-472</masterclipid>
						<name>TKO_011_WAR_Sh04880.mov</name>
						<enabled>TRUE</enabled>
						<duration>40</duration>
						<rate>
							<timebase>24</timebase>
							<ntsc>TRUE</ntsc>
						</rate>
						<start>41920</start>
						<end>41952</end>
						<in>4</in>
						<out>36</out>
						<pproTicksIn>42378336000</pproTicksIn>
						<pproTicksOut>381405024000</pproTicksOut>
						<alphatype>none</alphatype>
						<pixelaspectratio>square</pixelaspectratio>
						<anamorphic>FALSE</anamorphic>
						<file id="file-472">
							<name>TKO_011_WAR_Sh04880.mov</name>
							<pathurl>file://tri-stor01/Projects/TKO/SHOTS/_Refs_Movs_Burnin_FrameCounter/TKO_011_WAR_Sh04880.mov</pathurl>
							<rate>
								<timebase>24</timebase>
								<ntsc>TRUE</ntsc>
							</rate>
							<duration>40</duration>
							<timecode>
								<rate>
									<timebase>24</timebase>
									<ntsc>TRUE</ntsc>
								</rate>
								<string>09:09:39:17</string>
								<frame>791513</frame>
								<displayformat>NDF</displayformat>
								<reel>
									<name>B0390006</name>
								</reel>
							</timecode>
							<media>
								<video>
									<samplecharacteristics>
										<rate>
											<timebase>24</timebase>
											<ntsc>TRUE</ntsc>
										</rate>
										<width>4096</width>
										<height>2160</height>
										<anamorphic>FALSE</anamorphic>
										<pixelaspectratio>square</pixelaspectratio>
										<fielddominance>none</fielddominance>
									</samplecharacteristics>
								</video>
							</media>
						</file>
						<logginginfo>
							<description></description>
							<scene></scene>
							<shottake></shottake>
							<lognote></lognote>
							<good></good>
							<originalvideofilename></originalvideofilename>
							<originalaudiofilename></originalaudiofilename>
						</logginginfo>
						<colorinfo>
							<lut></lut>
							<lut1></lut1>
							<asc_sop></asc_sop>
							<asc_sat></asc_sat>
							<lut2></lut2>
						</colorinfo>
						<labels>
							<label2>Violet</label2>
						</labels>
					</clipitem>
					<clipitem id="clipitem-476">
						<masterclipid>masterclip-473</masterclipid>
						<name>TKO_011_WAR_Sh04890.mov</name>
						<enabled>TRUE</enabled>
						<duration>59</duration>
						<rate>
							<timebase>24</timebase>
							<ntsc>TRUE</ntsc>
						</rate>
						<start>41952</start>
						<end>42003</end>
						<in>4</in>
						<out>55</out>
						<pproTicksIn>42378336000</pproTicksIn>
						<pproTicksOut>582702120000</pproTicksOut>
						<alphatype>none</alphatype>
						<pixelaspectratio>square</pixelaspectratio>
						<anamorphic>FALSE</anamorphic>
						<file id="file-473">
							<name>TKO_011_WAR_Sh04890.mov</name>
							<pathurl>file://tri-stor01/Projects/TKO/SHOTS/_Refs_Movs_Burnin_FrameCounter/TKO_011_WAR_Sh04890.mov</pathurl>
							<rate>
								<timebase>24</timebase>
								<ntsc>TRUE</ntsc>
							</rate>
							<duration>59</duration>
							<timecode>
								<rate>
									<timebase>24</timebase>
									<ntsc>TRUE</ntsc>
								</rate>
								<string>08:56:25:08</string>
								<frame>772448</frame>
								<displayformat>NDF</displayformat>
								<reel>
									<name>B0390003</name>
								</reel>
							</timecode>
							<media>
								<video>
									<samplecharacteristics>
										<rate>
											<timebase>24</timebase>
											<ntsc>TRUE</ntsc>
										</rate>
										<width>4096</width>
										<height>2160</height>
										<anamorphic>FALSE</anamorphic>
										<pixelaspectratio>square</pixelaspectratio>
										<fielddominance>none</fielddominance>
									</samplecharacteristics>
								</video>
							</media>
						</file>
						<logginginfo>
							<description></description>
							<scene></scene>
							<shottake></shottake>
							<lognote></lognote>
							<good></good>
							<originalvideofilename></originalvideofilename>
							<originalaudiofilename></originalaudiofilename>
						</logginginfo>
						<colorinfo>
							<lut></lut>
							<lut1></lut1>
							<asc_sop></asc_sop>
							<asc_sat></asc_sat>
							<lut2></lut2>
						</colorinfo>
						<labels>
							<label2>Violet</label2>
						</labels>
					</clipitem>
					<clipitem id="clipitem-477">
						<masterclipid>masterclip-474</masterclipid>
						<name>TKO_011_WAR_Sh04900.mov</name>
						<enabled>TRUE</enabled>
						<duration>51</duration>
						<rate>
							<timebase>24</timebase>
							<ntsc>TRUE</ntsc>
						</rate>
						<start>42003</start>
						<end>42046</end>
						<in>4</in>
						<out>47</out>
						<pproTicksIn>42378336000</pproTicksIn>
						<pproTicksOut>497945448000</pproTicksOut>
						<alphatype>none</alphatype>
						<pixelaspectratio>square</pixelaspectratio>
						<anamorphic>FALSE</anamorphic>
						<file id="file-474">
							<name>TKO_011_WAR_Sh04900.mov</name>
							<pathurl>file://tri-stor01/Projects/TKO/SHOTS/_Refs_Movs_Burnin_FrameCounter/TKO_011_WAR_Sh04900.mov</pathurl>
							<rate>
								<timebase>24</timebase>
								<ntsc>TRUE</ntsc>
							</rate>
							<duration>51</duration>
							<timecode>
								<rate>
									<timebase>24</timebase>
									<ntsc>TRUE</ntsc>
								</rate>
								<string>08:56:28:16</string>
								<frame>772528</frame>
								<displayformat>NDF</displayformat>
								<reel>
									<name>A0450003</name>
								</reel>
							</timecode>
							<media>
								<video>
									<samplecharacteristics>
										<rate>
											<timebase>24</timebase>
											<ntsc>TRUE</ntsc>
										</rate>
										<width>4096</width>
										<height>2160</height>
										<anamorphic>FALSE</anamorphic>
										<pixelaspectratio>square</pixelaspectratio>
										<fielddominance>none</fielddominance>
									</samplecharacteristics>
								</video>
							</media>
						</file>
						<logginginfo>
							<description></description>
							<scene></scene>
							<shottake></shottake>
							<lognote></lognote>
							<good></good>
							<originalvideofilename></originalvideofilename>
							<originalaudiofilename></originalaudiofilename>
						</logginginfo>
						<colorinfo>
							<lut></lut>
							<lut1></lut1>
							<asc_sop></asc_sop>
							<asc_sat></asc_sat>
							<lut2></lut2>
						</colorinfo>
						<labels>
							<label2>Violet</label2>
						</labels>
					</clipitem>
					<clipitem id="clipitem-478">
						<masterclipid>masterclip-475</masterclipid>
						<name>TKO_011_WAR_Sh04910.mov</name>
						<enabled>TRUE</enabled>
						<duration>50</duration>
						<rate>
							<timebase>24</timebase>
							<ntsc>TRUE</ntsc>
						</rate>
						<start>42046</start>
						<end>42088</end>
						<in>4</in>
						<out>46</out>
						<pproTicksIn>42378336000</pproTicksIn>
						<pproTicksOut>487350864000</pproTicksOut>
						<alphatype>none</alphatype>
						<pixelaspectratio>square</pixelaspectratio>
						<anamorphic>FALSE</anamorphic>
						<file id="file-475">
							<name>TKO_011_WAR_Sh04910.mov</name>
							<pathurl>file://tri-stor01/Projects/TKO/SHOTS/_Refs_Movs_Burnin_FrameCounter/TKO_011_WAR_Sh04910.mov</pathurl>
							<rate>
								<timebase>24</timebase>
								<ntsc>TRUE</ntsc>
							</rate>
							<duration>50</duration>
							<timecode>
								<rate>
									<timebase>24</timebase>
									<ntsc>TRUE</ntsc>
								</rate>
								<string>08:56:30:11</string>
								<frame>772571</frame>
								<displayformat>NDF</displayformat>
								<reel>
									<name>B0390003</name>
								</reel>
							</timecode>
							<media>
								<video>
									<samplecharacteristics>
										<rate>
											<timebase>24</timebase>
											<ntsc>TRUE</ntsc>
										</rate>
										<width>4096</width>
										<height>2160</height>
										<anamorphic>FALSE</anamorphic>
										<pixelaspectratio>square</pixelaspectratio>
										<fielddominance>none</fielddominance>
									</samplecharacteristics>
								</video>
							</media>
						</file>
						<logginginfo>
							<description></description>
							<scene></scene>
							<shottake></shottake>
							<lognote></lognote>
							<good></good>
							<originalvideofilename></originalvideofilename>
							<originalaudiofilename></originalaudiofilename>
						</logginginfo>
						<colorinfo>
							<lut></lut>
							<lut1></lut1>
							<asc_sop></asc_sop>
							<asc_sat></asc_sat>
							<lut2></lut2>
						</colorinfo>
						<labels>
							<label2>Violet</label2>
						</labels>
					</clipitem>
					<clipitem id="clipitem-479">
						<masterclipid>masterclip-476</masterclipid>
						<name>TKO_011_WAR_Sh04920.mov</name>
						<enabled>TRUE</enabled>
						<duration>18</duration>
						<rate>
							<timebase>24</timebase>
							<ntsc>TRUE</ntsc>
						</rate>
						<start>42088</start>
						<end>42098</end>
						<in>3</in>
						<out>13</out>
						<pproTicksIn>31783752000</pproTicksIn>
						<pproTicksOut>137729592000</pproTicksOut>
						<alphatype>none</alphatype>
						<pixelaspectratio>square</pixelaspectratio>
						<anamorphic>FALSE</anamorphic>
						<file id="file-476">
							<name>TKO_011_WAR_Sh04920.mov</name>
							<pathurl>file://tri-stor01/Projects/TKO/SHOTS/_Refs_Movs_Burnin_FrameCounter/TKO_011_WAR_Sh04920.mov</pathurl>
							<rate>
								<timebase>24</timebase>
								<ntsc>TRUE</ntsc>
							</rate>
							<duration>18</duration>
							<timecode>
								<rate>
									<timebase>24</timebase>
									<ntsc>TRUE</ntsc>
								</rate>
								<string>08:56:32:07</string>
								<frame>772615</frame>
								<displayformat>NDF</displayformat>
								<reel>
									<name>A0450003</name>
								</reel>
							</timecode>
							<media>
								<video>
									<samplecharacteristics>
										<rate>
											<timebase>24</timebase>
											<ntsc>TRUE</ntsc>
										</rate>
										<width>4096</width>
										<height>2160</height>
										<anamorphic>FALSE</anamorphic>
										<pixelaspectratio>square</pixelaspectratio>
										<fielddominance>none</fielddominance>
									</samplecharacteristics>
								</video>
							</media>
						</file>
						<logginginfo>
							<description></description>
							<scene></scene>
							<shottake></shottake>
							<lognote></lognote>
							<good></good>
							<originalvideofilename></originalvideofilename>
							<originalaudiofilename></originalaudiofilename>
						</logginginfo>
						<colorinfo>
							<lut></lut>
							<lut1></lut1>
							<asc_sop></asc_sop>
							<asc_sat></asc_sat>
							<lut2></lut2>
						</colorinfo>
						<labels>
							<label2>Violet</label2>
						</labels>
					</clipitem>
					<clipitem id="clipitem-480">
						<masterclipid>masterclip-477</masterclipid>
						<name>TKO_011_WAR_Sh04930.mov</name>
						<enabled>TRUE</enabled>
						<duration>36</duration>
						<rate>
							<timebase>24</timebase>
							<ntsc>TRUE</ntsc>
						</rate>
						<start>42098</start>
						<end>42126</end>
						<in>4</in>
						<out>32</out>
						<pproTicksIn>42378336000</pproTicksIn>
						<pproTicksOut>339026688000</pproTicksOut>
						<alphatype>none</alphatype>
						<pixelaspectratio>square</pixelaspectratio>
						<anamorphic>FALSE</anamorphic>
						<file id="file-477">
							<name>TKO_011_WAR_Sh04930.mov</name>
							<pathurl>file://tri-stor01/Projects/TKO/SHOTS/_Refs_Movs_Burnin_FrameCounter/TKO_011_WAR_Sh04930.mov</pathurl>
							<rate>
								<timebase>24</timebase>
								<ntsc>TRUE</ntsc>
							</rate>
							<duration>36</duration>
							<timecode>
								<rate>
									<timebase>24</timebase>
									<ntsc>TRUE</ntsc>
								</rate>
								<string>09:09:47:19</string>
								<frame>791707</frame>
								<displayformat>NDF</displayformat>
								<reel>
									<name>B0390006</name>
								</reel>
							</timecode>
							<media>
								<video>
									<samplecharacteristics>
										<rate>
											<timebase>24</timebase>
											<ntsc>TRUE</ntsc>
										</rate>
										<width>4096</width>
										<height>2160</height>
										<anamorphic>FALSE</anamorphic>
										<pixelaspectratio>square</pixelaspectratio>
										<fielddominance>none</fielddominance>
									</samplecharacteristics>
								</video>
							</media>
						</file>
						<logginginfo>
							<description></description>
							<scene></scene>
							<shottake></shottake>
							<lognote></lognote>
							<good></good>
							<originalvideofilename></originalvideofilename>
							<originalaudiofilename></originalaudiofilename>
						</logginginfo>
						<colorinfo>
							<lut></lut>
							<lut1></lut1>
							<asc_sop></asc_sop>
							<asc_sat></asc_sat>
							<lut2></lut2>
						</colorinfo>
						<labels>
							<label2>Violet</label2>
						</labels>
					</clipitem>
					<clipitem id="clipitem-481">
						<masterclipid>masterclip-478</masterclipid>
						<name>TKO_011_WAR_Sh04940.mov</name>
						<enabled>TRUE</enabled>
						<duration>64</duration>
						<rate>
							<timebase>24</timebase>
							<ntsc>TRUE</ntsc>
						</rate>
						<start>42126</start>
						<end>42182</end>
						<in>4</in>
						<out>60</out>
						<pproTicksIn>42378336000</pproTicksIn>
						<pproTicksOut>635675040000</pproTicksOut>
						<alphatype>none</alphatype>
						<pixelaspectratio>square</pixelaspectratio>
						<anamorphic>FALSE</anamorphic>
						<file id="file-478">
							<name>TKO_011_WAR_Sh04940.mov</name>
							<pathurl>file://tri-stor01/Projects/TKO/SHOTS/_Refs_Movs_Burnin_FrameCounter/TKO_011_WAR_Sh04940.mov</pathurl>
							<rate>
								<timebase>24</timebase>
								<ntsc>TRUE</ntsc>
							</rate>
							<duration>64</duration>
							<timecode>
								<rate>
									<timebase>24</timebase>
									<ntsc>TRUE</ntsc>
								</rate>
								<string>08:56:33:18</string>
								<frame>772650</frame>
								<displayformat>NDF</displayformat>
								<reel>
									<name>A0450003</name>
								</reel>
							</timecode>
							<media>
								<video>
									<samplecharacteristics>
										<rate>
											<timebase>24</timebase>
											<ntsc>TRUE</ntsc>
										</rate>
										<width>4096</width>
										<height>2160</height>
										<anamorphic>FALSE</anamorphic>
										<pixelaspectratio>square</pixelaspectratio>
										<fielddominance>none</fielddominance>
									</samplecharacteristics>
								</video>
							</media>
						</file>
						<logginginfo>
							<description></description>
							<scene></scene>
							<shottake></shottake>
							<lognote></lognote>
							<good></good>
							<originalvideofilename></originalvideofilename>
							<originalaudiofilename></originalaudiofilename>
						</logginginfo>
						<colorinfo>
							<lut></lut>
							<lut1></lut1>
							<asc_sop></asc_sop>
							<asc_sat></asc_sat>
							<lut2></lut2>
						</colorinfo>
						<labels>
							<label2>Violet</label2>
						</labels>
					</clipitem>
					<clipitem id="clipitem-482">
						<masterclipid>masterclip-479</masterclipid>
						<name>TKO_011_WAR_Sh04950.mov</name>
						<enabled>TRUE</enabled>
						<duration>59</duration>
						<rate>
							<timebase>24</timebase>
							<ntsc>TRUE</ntsc>
						</rate>
						<start>42182</start>
						<end>42233</end>
						<in>4</in>
						<out>55</out>
						<pproTicksIn>42378336000</pproTicksIn>
						<pproTicksOut>582702120000</pproTicksOut>
						<alphatype>none</alphatype>
						<pixelaspectratio>square</pixelaspectratio>
						<anamorphic>FALSE</anamorphic>
						<file id="file-479">
							<name>TKO_011_WAR_Sh04950.mov</name>
							<pathurl>file://tri-stor01/Projects/TKO/SHOTS/_Refs_Movs_Burnin_FrameCounter/TKO_011_WAR_Sh04950.mov</pathurl>
							<rate>
								<timebase>24</timebase>
								<ntsc>TRUE</ntsc>
							</rate>
							<duration>59</duration>
							<timecode>
								<rate>
									<timebase>24</timebase>
									<ntsc>TRUE</ntsc>
								</rate>
								<string>09:09:50:07</string>
								<frame>791767</frame>
								<displayformat>NDF</displayformat>
								<reel>
									<name>A0450006</name>
								</reel>
							</timecode>
							<media>
								<video>
									<samplecharacteristics>
										<rate>
											<timebase>24</timebase>
											<ntsc>TRUE</ntsc>
										</rate>
										<width>4096</width>
										<height>2160</height>
										<anamorphic>FALSE</anamorphic>
										<pixelaspectratio>square</pixelaspectratio>
										<fielddominance>none</fielddominance>
									</samplecharacteristics>
								</video>
							</media>
						</file>
						<logginginfo>
							<description></description>
							<scene></scene>
							<shottake></shottake>
							<lognote></lognote>
							<good></good>
							<originalvideofilename></originalvideofilename>
							<originalaudiofilename></originalaudiofilename>
						</logginginfo>
						<colorinfo>
							<lut></lut>
							<lut1></lut1>
							<asc_sop></asc_sop>
							<asc_sat></asc_sat>
							<lut2></lut2>
						</colorinfo>
						<labels>
							<label2>Violet</label2>
						</labels>
					</clipitem>
					<clipitem id="clipitem-483">
						<masterclipid>masterclip-480</masterclipid>
						<name>TKO_011_WAR_Sh04960.mov</name>
						<enabled>TRUE</enabled>
						<duration>76</duration>
						<rate>
							<timebase>24</timebase>
							<ntsc>TRUE</ntsc>
						</rate>
						<start>42233</start>
						<end>42301</end>
						<in>4</in>
						<out>72</out>
						<pproTicksIn>42378336000</pproTicksIn>
						<pproTicksOut>762810048000</pproTicksOut>
						<alphatype>none</alphatype>
						<pixelaspectratio>square</pixelaspectratio>
						<anamorphic>FALSE</anamorphic>
						<file id="file-480">
							<name>TKO_011_WAR_Sh04960.mov</name>
							<pathurl>file://tri-stor01/Projects/TKO/SHOTS/_Refs_Movs_Burnin_FrameCounter/TKO_011_WAR_Sh04960.mov</pathurl>
							<rate>
								<timebase>24</timebase>
								<ntsc>TRUE</ntsc>
							</rate>
							<duration>76</duration>
							<timecode>
								<rate>
									<timebase>24</timebase>
									<ntsc>TRUE</ntsc>
								</rate>
								<string>08:56:37:06</string>
								<frame>772734</frame>
								<displayformat>NDF</displayformat>
								<reel>
									<name>B0390003</name>
								</reel>
							</timecode>
							<media>
								<video>
									<samplecharacteristics>
										<rate>
											<timebase>24</timebase>
											<ntsc>TRUE</ntsc>
										</rate>
										<width>4096</width>
										<height>2160</height>
										<anamorphic>FALSE</anamorphic>
										<pixelaspectratio>square</pixelaspectratio>
										<fielddominance>none</fielddominance>
									</samplecharacteristics>
								</video>
							</media>
						</file>
						<logginginfo>
							<description></description>
							<scene></scene>
							<shottake></shottake>
							<lognote></lognote>
							<good></good>
							<originalvideofilename></originalvideofilename>
							<originalaudiofilename></originalaudiofilename>
						</logginginfo>
						<colorinfo>
							<lut></lut>
							<lut1></lut1>
							<asc_sop></asc_sop>
							<asc_sat></asc_sat>
							<lut2></lut2>
						</colorinfo>
						<labels>
							<label2>Violet</label2>
						</labels>
					</clipitem>
					<clipitem id="clipitem-484">
						<masterclipid>masterclip-481</masterclipid>
						<name>TKO_011_WAR_Sh04970.mov</name>
						<enabled>TRUE</enabled>
						<duration>41</duration>
						<rate>
							<timebase>24</timebase>
							<ntsc>TRUE</ntsc>
						</rate>
						<start>42301</start>
						<end>42334</end>
						<in>4</in>
						<out>37</out>
						<pproTicksIn>42378336000</pproTicksIn>
						<pproTicksOut>391999608000</pproTicksOut>
						<alphatype>none</alphatype>
						<pixelaspectratio>square</pixelaspectratio>
						<anamorphic>FALSE</anamorphic>
						<file id="file-481">
							<name>TKO_011_WAR_Sh04970.mov</name>
							<pathurl>file://tri-stor01/Projects/TKO/SHOTS/_Refs_Movs_Burnin_FrameCounter/TKO_011_WAR_Sh04970.mov</pathurl>
							<rate>
								<timebase>24</timebase>
								<ntsc>TRUE</ntsc>
							</rate>
							<duration>41</duration>
							<timecode>
								<rate>
									<timebase>24</timebase>
									<ntsc>TRUE</ntsc>
								</rate>
								<string>09:09:55:14</string>
								<frame>791894</frame>
								<displayformat>NDF</displayformat>
								<reel>
									<name>A0450006</name>
								</reel>
							</timecode>
							<media>
								<video>
									<samplecharacteristics>
										<rate>
											<timebase>24</timebase>
											<ntsc>TRUE</ntsc>
										</rate>
										<width>4096</width>
										<height>2160</height>
										<anamorphic>FALSE</anamorphic>
										<pixelaspectratio>square</pixelaspectratio>
										<fielddominance>none</fielddominance>
									</samplecharacteristics>
								</video>
							</media>
						</file>
						<logginginfo>
							<description></description>
							<scene></scene>
							<shottake></shottake>
							<lognote></lognote>
							<good></good>
							<originalvideofilename></originalvideofilename>
							<originalaudiofilename></originalaudiofilename>
						</logginginfo>
						<colorinfo>
							<lut></lut>
							<lut1></lut1>
							<asc_sop></asc_sop>
							<asc_sat></asc_sat>
							<lut2></lut2>
						</colorinfo>
						<labels>
							<label2>Violet</label2>
						</labels>
					</clipitem>
					<clipitem id="clipitem-485">
						<masterclipid>masterclip-482</masterclipid>
						<name>TKO_011_WAR_Sh04980.mov</name>
						<enabled>TRUE</enabled>
						<duration>17</duration>
						<rate>
							<timebase>24</timebase>
							<ntsc>TRUE</ntsc>
						</rate>
						<start>42334</start>
						<end>42343</end>
						<in>3</in>
						<out>12</out>
						<pproTicksIn>31783752000</pproTicksIn>
						<pproTicksOut>127135008000</pproTicksOut>
						<alphatype>none</alphatype>
						<pixelaspectratio>square</pixelaspectratio>
						<anamorphic>FALSE</anamorphic>
						<file id="file-482">
							<name>TKO_011_WAR_Sh04980.mov</name>
							<pathurl>file://tri-stor01/Projects/TKO/SHOTS/_Refs_Movs_Burnin_FrameCounter/TKO_011_WAR_Sh04980.mov</pathurl>
							<rate>
								<timebase>24</timebase>
								<ntsc>TRUE</ntsc>
							</rate>
							<duration>17</duration>
							<timecode>
								<rate>
									<timebase>24</timebase>
									<ntsc>TRUE</ntsc>
								</rate>
								<string>08:56:42:01</string>
								<frame>772849</frame>
								<displayformat>NDF</displayformat>
								<reel>
									<name>B0390003</name>
								</reel>
							</timecode>
							<media>
								<video>
									<samplecharacteristics>
										<rate>
											<timebase>24</timebase>
											<ntsc>TRUE</ntsc>
										</rate>
										<width>4096</width>
										<height>2160</height>
										<anamorphic>FALSE</anamorphic>
										<pixelaspectratio>square</pixelaspectratio>
										<fielddominance>none</fielddominance>
									</samplecharacteristics>
								</video>
							</media>
						</file>
						<logginginfo>
							<description></description>
							<scene></scene>
							<shottake></shottake>
							<lognote></lognote>
							<good></good>
							<originalvideofilename></originalvideofilename>
							<originalaudiofilename></originalaudiofilename>
						</logginginfo>
						<colorinfo>
							<lut></lut>
							<lut1></lut1>
							<asc_sop></asc_sop>
							<asc_sat></asc_sat>
							<lut2></lut2>
						</colorinfo>
						<labels>
							<label2>Violet</label2>
						</labels>
					</clipitem>
					<clipitem id="clipitem-486">
						<masterclipid>masterclip-483</masterclipid>
						<name>TKO_011_WAR_Sh04990.mov</name>
						<enabled>TRUE</enabled>
						<duration>32</duration>
						<rate>
							<timebase>24</timebase>
							<ntsc>TRUE</ntsc>
						</rate>
						<start>42343</start>
						<end>42367</end>
						<in>4</in>
						<out>28</out>
						<pproTicksIn>42378336000</pproTicksIn>
						<pproTicksOut>296648352000</pproTicksOut>
						<alphatype>none</alphatype>
						<pixelaspectratio>square</pixelaspectratio>
						<anamorphic>FALSE</anamorphic>
						<file id="file-483">
							<name>TKO_011_WAR_Sh04990.mov</name>
							<pathurl>file://tri-stor01/Projects/TKO/SHOTS/_Refs_Movs_Burnin_FrameCounter/TKO_011_WAR_Sh04990.mov</pathurl>
							<rate>
								<timebase>24</timebase>
								<ntsc>TRUE</ntsc>
							</rate>
							<duration>32</duration>
							<timecode>
								<rate>
									<timebase>24</timebase>
									<ntsc>TRUE</ntsc>
								</rate>
								<string>09:06:25:01</string>
								<frame>786841</frame>
								<displayformat>NDF</displayformat>
								<reel>
									<name>A0450005</name>
								</reel>
							</timecode>
							<media>
								<video>
									<samplecharacteristics>
										<rate>
											<timebase>24</timebase>
											<ntsc>TRUE</ntsc>
										</rate>
										<width>4096</width>
										<height>2160</height>
										<anamorphic>FALSE</anamorphic>
										<pixelaspectratio>square</pixelaspectratio>
										<fielddominance>none</fielddominance>
									</samplecharacteristics>
								</video>
							</media>
						</file>
						<logginginfo>
							<description></description>
							<scene></scene>
							<shottake></shottake>
							<lognote></lognote>
							<good></good>
							<originalvideofilename></originalvideofilename>
							<originalaudiofilename></originalaudiofilename>
						</logginginfo>
						<colorinfo>
							<lut></lut>
							<lut1></lut1>
							<asc_sop></asc_sop>
							<asc_sat></asc_sat>
							<lut2></lut2>
						</colorinfo>
						<labels>
							<label2>Violet</label2>
						</labels>
					</clipitem>
					<clipitem id="clipitem-487">
						<masterclipid>masterclip-484</masterclipid>
						<name>TKO_011_WAR_Sh05000.mov</name>
						<enabled>TRUE</enabled>
						<duration>61</duration>
						<rate>
							<timebase>24</timebase>
							<ntsc>TRUE</ntsc>
						</rate>
						<start>42367</start>
						<end>42420</end>
						<in>4</in>
						<out>57</out>
						<pproTicksIn>42378336000</pproTicksIn>
						<pproTicksOut>603891288000</pproTicksOut>
						<alphatype>none</alphatype>
						<pixelaspectratio>square</pixelaspectratio>
						<anamorphic>FALSE</anamorphic>
						<file id="file-484">
							<name>TKO_011_WAR_Sh05000.mov</name>
							<pathurl>file://tri-stor01/Projects/TKO/SHOTS/_Refs_Movs_Burnin_FrameCounter/TKO_011_WAR_Sh05000.mov</pathurl>
							<rate>
								<timebase>24</timebase>
								<ntsc>TRUE</ntsc>
							</rate>
							<duration>61</duration>
							<timecode>
								<rate>
									<timebase>24</timebase>
									<ntsc>TRUE</ntsc>
								</rate>
								<string>08:56:43:10</string>
								<frame>772882</frame>
								<displayformat>NDF</displayformat>
								<reel>
									<name>B0390003</name>
								</reel>
							</timecode>
							<media>
								<video>
									<samplecharacteristics>
										<rate>
											<timebase>24</timebase>
											<ntsc>TRUE</ntsc>
										</rate>
										<width>4096</width>
										<height>2160</height>
										<anamorphic>FALSE</anamorphic>
										<pixelaspectratio>square</pixelaspectratio>
										<fielddominance>none</fielddominance>
									</samplecharacteristics>
								</video>
							</media>
						</file>
						<logginginfo>
							<description></description>
							<scene></scene>
							<shottake></shottake>
							<lognote></lognote>
							<good></good>
							<originalvideofilename></originalvideofilename>
							<originalaudiofilename></originalaudiofilename>
						</logginginfo>
						<colorinfo>
							<lut></lut>
							<lut1></lut1>
							<asc_sop></asc_sop>
							<asc_sat></asc_sat>
							<lut2></lut2>
						</colorinfo>
						<labels>
							<label2>Violet</label2>
						</labels>
					</clipitem>
					<clipitem id="clipitem-488">
						<masterclipid>masterclip-485</masterclipid>
						<name>TKO_011_WAR_Sh05010.mov</name>
						<enabled>TRUE</enabled>
						<duration>54</duration>
						<rate>
							<timebase>24</timebase>
							<ntsc>TRUE</ntsc>
						</rate>
						<start>42420</start>
						<end>42466</end>
						<in>4</in>
						<out>50</out>
						<pproTicksIn>42378336000</pproTicksIn>
						<pproTicksOut>529729200000</pproTicksOut>
						<alphatype>none</alphatype>
						<pixelaspectratio>square</pixelaspectratio>
						<anamorphic>FALSE</anamorphic>
						<file id="file-485">
							<name>TKO_011_WAR_Sh05010.mov</name>
							<pathurl>file://tri-stor01/Projects/TKO/SHOTS/_Refs_Movs_Burnin_FrameCounter/TKO_011_WAR_Sh05010.mov</pathurl>
							<rate>
								<timebase>24</timebase>
								<ntsc>TRUE</ntsc>
							</rate>
							<duration>54</duration>
							<timecode>
								<rate>
									<timebase>24</timebase>
									<ntsc>TRUE</ntsc>
								</rate>
								<string>08:56:45:15</string>
								<frame>772935</frame>
								<displayformat>NDF</displayformat>
								<reel>
									<name>A0450003</name>
								</reel>
							</timecode>
							<media>
								<video>
									<samplecharacteristics>
										<rate>
											<timebase>24</timebase>
											<ntsc>TRUE</ntsc>
										</rate>
										<width>4096</width>
										<height>2160</height>
										<anamorphic>FALSE</anamorphic>
										<pixelaspectratio>square</pixelaspectratio>
										<fielddominance>none</fielddominance>
									</samplecharacteristics>
								</video>
							</media>
						</file>
						<logginginfo>
							<description></description>
							<scene></scene>
							<shottake></shottake>
							<lognote></lognote>
							<good></good>
							<originalvideofilename></originalvideofilename>
							<originalaudiofilename></originalaudiofilename>
						</logginginfo>
						<colorinfo>
							<lut></lut>
							<lut1></lut1>
							<asc_sop></asc_sop>
							<asc_sat></asc_sat>
							<lut2></lut2>
						</colorinfo>
						<labels>
							<label2>Violet</label2>
						</labels>
					</clipitem>
					<clipitem id="clipitem-489">
						<masterclipid>masterclip-486</masterclipid>
						<name>TKO_011_WAR_Sh05020.mov</name>
						<enabled>TRUE</enabled>
						<duration>42</duration>
						<rate>
							<timebase>24</timebase>
							<ntsc>TRUE</ntsc>
						</rate>
						<start>42466</start>
						<end>42500</end>
						<in>4</in>
						<out>38</out>
						<pproTicksIn>42378336000</pproTicksIn>
						<pproTicksOut>402594192000</pproTicksOut>
						<alphatype>none</alphatype>
						<pixelaspectratio>square</pixelaspectratio>
						<anamorphic>FALSE</anamorphic>
						<file id="file-486">
							<name>TKO_011_WAR_Sh05020.mov</name>
							<pathurl>file://tri-stor01/Projects/TKO/SHOTS/_Refs_Movs_Burnin_FrameCounter/TKO_011_WAR_Sh05020.mov</pathurl>
							<rate>
								<timebase>24</timebase>
								<ntsc>TRUE</ntsc>
							</rate>
							<duration>42</duration>
							<timecode>
								<rate>
									<timebase>24</timebase>
									<ntsc>TRUE</ntsc>
								</rate>
								<string>09:03:08:18</string>
								<frame>782130</frame>
								<displayformat>NDF</displayformat>
								<reel>
									<name>B0390004</name>
								</reel>
							</timecode>
							<media>
								<video>
									<samplecharacteristics>
										<rate>
											<timebase>24</timebase>
											<ntsc>TRUE</ntsc>
										</rate>
										<width>4096</width>
										<height>2160</height>
										<anamorphic>FALSE</anamorphic>
										<pixelaspectratio>square</pixelaspectratio>
										<fielddominance>none</fielddominance>
									</samplecharacteristics>
								</video>
							</media>
						</file>
						<logginginfo>
							<description></description>
							<scene></scene>
							<shottake></shottake>
							<lognote></lognote>
							<good></good>
							<originalvideofilename></originalvideofilename>
							<originalaudiofilename></originalaudiofilename>
						</logginginfo>
						<colorinfo>
							<lut></lut>
							<lut1></lut1>
							<asc_sop></asc_sop>
							<asc_sat></asc_sat>
							<lut2></lut2>
						</colorinfo>
						<labels>
							<label2>Violet</label2>
						</labels>
					</clipitem>
					<clipitem id="clipitem-490">
						<masterclipid>masterclip-487</masterclipid>
						<name>TKO_011_WAR_Sh05030.mov</name>
						<enabled>TRUE</enabled>
						<duration>33</duration>
						<rate>
							<timebase>24</timebase>
							<ntsc>TRUE</ntsc>
						</rate>
						<start>42500</start>
						<end>42525</end>
						<in>4</in>
						<out>29</out>
						<pproTicksIn>42378336000</pproTicksIn>
						<pproTicksOut>307242936000</pproTicksOut>
						<alphatype>none</alphatype>
						<pixelaspectratio>square</pixelaspectratio>
						<anamorphic>FALSE</anamorphic>
						<file id="file-487">
							<name>TKO_011_WAR_Sh05030.mov</name>
							<pathurl>file://tri-stor01/Projects/TKO/SHOTS/_Refs_Movs_Burnin_FrameCounter/TKO_011_WAR_Sh05030.mov</pathurl>
							<rate>
								<timebase>24</timebase>
								<ntsc>TRUE</ntsc>
							</rate>
							<duration>33</duration>
							<timecode>
								<rate>
									<timebase>24</timebase>
									<ntsc>TRUE</ntsc>
								</rate>
								<string>09:10:01:21</string>
								<frame>792045</frame>
								<displayformat>NDF</displayformat>
								<reel>
									<name>A0450006</name>
								</reel>
							</timecode>
							<media>
								<video>
									<samplecharacteristics>
										<rate>
											<timebase>24</timebase>
											<ntsc>TRUE</ntsc>
										</rate>
										<width>4096</width>
										<height>2160</height>
										<anamorphic>FALSE</anamorphic>
										<pixelaspectratio>square</pixelaspectratio>
										<fielddominance>none</fielddominance>
									</samplecharacteristics>
								</video>
							</media>
						</file>
						<logginginfo>
							<description></description>
							<scene></scene>
							<shottake></shottake>
							<lognote></lognote>
							<good></good>
							<originalvideofilename></originalvideofilename>
							<originalaudiofilename></originalaudiofilename>
						</logginginfo>
						<colorinfo>
							<lut></lut>
							<lut1></lut1>
							<asc_sop></asc_sop>
							<asc_sat></asc_sat>
							<lut2></lut2>
						</colorinfo>
						<labels>
							<label2>Violet</label2>
						</labels>
					</clipitem>
					<clipitem id="clipitem-491">
						<masterclipid>masterclip-488</masterclipid>
						<name>TKO_011_WAR_Sh05040.mov</name>
						<enabled>TRUE</enabled>
						<duration>114</duration>
						<rate>
							<timebase>24</timebase>
							<ntsc>TRUE</ntsc>
						</rate>
						<start>42525</start>
						<end>42631</end>
						<in>4</in>
						<out>110</out>
						<pproTicksIn>42378336000</pproTicksIn>
						<pproTicksOut>1165404240000</pproTicksOut>
						<alphatype>none</alphatype>
						<pixelaspectratio>square</pixelaspectratio>
						<anamorphic>FALSE</anamorphic>
						<file id="file-488">
							<name>TKO_011_WAR_Sh05040.mov</name>
							<pathurl>file://tri-stor01/Projects/TKO/SHOTS/_Refs_Movs_Burnin_FrameCounter/TKO_011_WAR_Sh05040.mov</pathurl>
							<rate>
								<timebase>24</timebase>
								<ntsc>TRUE</ntsc>
							</rate>
							<duration>114</duration>
							<timecode>
								<rate>
									<timebase>24</timebase>
									<ntsc>TRUE</ntsc>
								</rate>
								<string>00:24:11:09</string>
								<frame>34833</frame>
								<displayformat>NDF</displayformat>
							</timecode>
							<media>
								<video>
									<samplecharacteristics>
										<rate>
											<timebase>24</timebase>
											<ntsc>TRUE</ntsc>
										</rate>
										<width>1280</width>
										<height>720</height>
										<anamorphic>FALSE</anamorphic>
										<pixelaspectratio>square</pixelaspectratio>
										<fielddominance>none</fielddominance>
									</samplecharacteristics>
								</video>
							</media>
						</file>
						<logginginfo>
							<description></description>
							<scene></scene>
							<shottake></shottake>
							<lognote></lognote>
							<good></good>
							<originalvideofilename></originalvideofilename>
							<originalaudiofilename></originalaudiofilename>
						</logginginfo>
						<colorinfo>
							<lut></lut>
							<lut1></lut1>
							<asc_sop></asc_sop>
							<asc_sat></asc_sat>
							<lut2></lut2>
						</colorinfo>
						<labels>
							<label2>Violet</label2>
						</labels>
					</clipitem>
					<clipitem id="clipitem-492">
						<masterclipid>masterclip-489</masterclipid>
						<name>TKO_011_WAR_Sh05050.mov</name>
						<enabled>TRUE</enabled>
						<duration>50</duration>
						<rate>
							<timebase>24</timebase>
							<ntsc>TRUE</ntsc>
						</rate>
						<start>42631</start>
						<end>42673</end>
						<in>4</in>
						<out>46</out>
						<pproTicksIn>42378336000</pproTicksIn>
						<pproTicksOut>487350864000</pproTicksOut>
						<alphatype>none</alphatype>
						<pixelaspectratio>square</pixelaspectratio>
						<anamorphic>FALSE</anamorphic>
						<file id="file-489">
							<name>TKO_011_WAR_Sh05050.mov</name>
							<pathurl>file://tri-stor01/Projects/TKO/SHOTS/_Refs_Movs_Burnin_FrameCounter/TKO_011_WAR_Sh05050.mov</pathurl>
							<rate>
								<timebase>24</timebase>
								<ntsc>TRUE</ntsc>
							</rate>
							<duration>50</duration>
							<timecode>
								<rate>
									<timebase>24</timebase>
									<ntsc>TRUE</ntsc>
								</rate>
								<string>00:24:15:19</string>
								<frame>34939</frame>
								<displayformat>NDF</displayformat>
							</timecode>
							<media>
								<video>
									<samplecharacteristics>
										<rate>
											<timebase>24</timebase>
											<ntsc>TRUE</ntsc>
										</rate>
										<width>1280</width>
										<height>720</height>
										<anamorphic>FALSE</anamorphic>
										<pixelaspectratio>square</pixelaspectratio>
										<fielddominance>none</fielddominance>
									</samplecharacteristics>
								</video>
							</media>
						</file>
						<logginginfo>
							<description></description>
							<scene></scene>
							<shottake></shottake>
							<lognote></lognote>
							<good></good>
							<originalvideofilename></originalvideofilename>
							<originalaudiofilename></originalaudiofilename>
						</logginginfo>
						<colorinfo>
							<lut></lut>
							<lut1></lut1>
							<asc_sop></asc_sop>
							<asc_sat></asc_sat>
							<lut2></lut2>
						</colorinfo>
						<labels>
							<label2>Violet</label2>
						</labels>
					</clipitem>
					<clipitem id="clipitem-493">
						<masterclipid>masterclip-490</masterclipid>
						<name>TKO_011_WAR_Sh05060.mov</name>
						<enabled>TRUE</enabled>
						<duration>52</duration>
						<rate>
							<timebase>24</timebase>
							<ntsc>TRUE</ntsc>
						</rate>
						<start>42673</start>
						<end>42717</end>
						<in>4</in>
						<out>48</out>
						<pproTicksIn>42378336000</pproTicksIn>
						<pproTicksOut>508540032000</pproTicksOut>
						<alphatype>none</alphatype>
						<pixelaspectratio>square</pixelaspectratio>
						<anamorphic>FALSE</anamorphic>
						<file id="file-490">
							<name>TKO_011_WAR_Sh05060.mov</name>
							<pathurl>file://tri-stor01/Projects/TKO/SHOTS/_Refs_Movs_Burnin_FrameCounter/TKO_011_WAR_Sh05060.mov</pathurl>
							<rate>
								<timebase>24</timebase>
								<ntsc>TRUE</ntsc>
							</rate>
							<duration>52</duration>
							<timecode>
								<rate>
									<timebase>24</timebase>
									<ntsc>TRUE</ntsc>
								</rate>
								<string>00:24:17:13</string>
								<frame>34981</frame>
								<displayformat>NDF</displayformat>
							</timecode>
							<media>
								<video>
									<samplecharacteristics>
										<rate>
											<timebase>24</timebase>
											<ntsc>TRUE</ntsc>
										</rate>
										<width>1280</width>
										<height>720</height>
										<anamorphic>FALSE</anamorphic>
										<pixelaspectratio>square</pixelaspectratio>
										<fielddominance>none</fielddominance>
									</samplecharacteristics>
								</video>
							</media>
						</file>
						<logginginfo>
							<description></description>
							<scene></scene>
							<shottake></shottake>
							<lognote></lognote>
							<good></good>
							<originalvideofilename></originalvideofilename>
							<originalaudiofilename></originalaudiofilename>
						</logginginfo>
						<colorinfo>
							<lut></lut>
							<lut1></lut1>
							<asc_sop></asc_sop>
							<asc_sat></asc_sat>
							<lut2></lut2>
						</colorinfo>
						<labels>
							<label2>Violet</label2>
						</labels>
					</clipitem>
					<clipitem id="clipitem-494">
						<masterclipid>masterclip-491</masterclipid>
						<name>TKO_011_WAR_Sh05070.mov</name>
						<enabled>TRUE</enabled>
						<duration>25</duration>
						<rate>
							<timebase>24</timebase>
							<ntsc>TRUE</ntsc>
						</rate>
						<start>42717</start>
						<end>42734</end>
						<in>4</in>
						<out>21</out>
						<pproTicksIn>42378336000</pproTicksIn>
						<pproTicksOut>222486264000</pproTicksOut>
						<alphatype>none</alphatype>
						<pixelaspectratio>square</pixelaspectratio>
						<anamorphic>FALSE</anamorphic>
						<file id="file-491">
							<name>TKO_011_WAR_Sh05070.mov</name>
							<pathurl>file://tri-stor01/Projects/TKO/SHOTS/_Refs_Movs_Burnin_FrameCounter/TKO_011_WAR_Sh05070.mov</pathurl>
							<rate>
								<timebase>24</timebase>
								<ntsc>TRUE</ntsc>
							</rate>
							<duration>25</duration>
							<timecode>
								<rate>
									<timebase>24</timebase>
									<ntsc>TRUE</ntsc>
								</rate>
								<string>10:53:23:11</string>
								<frame>940883</frame>
								<displayformat>NDF</displayformat>
								<reel>
									<name>B0390013</name>
								</reel>
							</timecode>
							<media>
								<video>
									<samplecharacteristics>
										<rate>
											<timebase>24</timebase>
											<ntsc>TRUE</ntsc>
										</rate>
										<width>4096</width>
										<height>2160</height>
										<anamorphic>FALSE</anamorphic>
										<pixelaspectratio>square</pixelaspectratio>
										<fielddominance>none</fielddominance>
									</samplecharacteristics>
								</video>
							</media>
						</file>
						<logginginfo>
							<description></description>
							<scene></scene>
							<shottake></shottake>
							<lognote></lognote>
							<good></good>
							<originalvideofilename></originalvideofilename>
							<originalaudiofilename></originalaudiofilename>
						</logginginfo>
						<colorinfo>
							<lut></lut>
							<lut1></lut1>
							<asc_sop></asc_sop>
							<asc_sat></asc_sat>
							<lut2></lut2>
						</colorinfo>
						<labels>
							<label2>Violet</label2>
						</labels>
					</clipitem>
					<clipitem id="clipitem-495">
						<masterclipid>masterclip-492</masterclipid>
						<name>TKO_011_WAR_Sh05080.mov</name>
						<enabled>TRUE</enabled>
						<duration>25</duration>
						<rate>
							<timebase>24</timebase>
							<ntsc>TRUE</ntsc>
						</rate>
						<start>42734</start>
						<end>42751</end>
						<in>4</in>
						<out>21</out>
						<pproTicksIn>42378336000</pproTicksIn>
						<pproTicksOut>222486264000</pproTicksOut>
						<alphatype>none</alphatype>
						<pixelaspectratio>square</pixelaspectratio>
						<anamorphic>FALSE</anamorphic>
						<file id="file-492">
							<name>TKO_011_WAR_Sh05080.mov</name>
							<pathurl>file://tri-stor01/Projects/TKO/SHOTS/_Refs_Movs_Burnin_FrameCounter/TKO_011_WAR_Sh05080.mov</pathurl>
							<rate>
								<timebase>24</timebase>
								<ntsc>TRUE</ntsc>
							</rate>
							<duration>25</duration>
							<timecode>
								<rate>
									<timebase>24</timebase>
									<ntsc>TRUE</ntsc>
								</rate>
								<string>10:53:24:04</string>
								<frame>940900</frame>
								<displayformat>NDF</displayformat>
								<reel>
									<name>A0450012</name>
								</reel>
							</timecode>
							<media>
								<video>
									<samplecharacteristics>
										<rate>
											<timebase>24</timebase>
											<ntsc>TRUE</ntsc>
										</rate>
										<width>4096</width>
										<height>2160</height>
										<anamorphic>FALSE</anamorphic>
										<pixelaspectratio>square</pixelaspectratio>
										<fielddominance>none</fielddominance>
									</samplecharacteristics>
								</video>
							</media>
						</file>
						<logginginfo>
							<description></description>
							<scene></scene>
							<shottake></shottake>
							<lognote></lognote>
							<good></good>
							<originalvideofilename></originalvideofilename>
							<originalaudiofilename></originalaudiofilename>
						</logginginfo>
						<colorinfo>
							<lut></lut>
							<lut1></lut1>
							<asc_sop></asc_sop>
							<asc_sat></asc_sat>
							<lut2></lut2>
						</colorinfo>
						<labels>
							<label2>Violet</label2>
						</labels>
					</clipitem>
					<clipitem id="clipitem-496">
						<masterclipid>masterclip-493</masterclipid>
						<name>TKO_011_WAR_Sh05090.mov</name>
						<enabled>TRUE</enabled>
						<duration>30</duration>
						<rate>
							<timebase>24</timebase>
							<ntsc>TRUE</ntsc>
						</rate>
						<start>42751</start>
						<end>42773</end>
						<in>4</in>
						<out>26</out>
						<pproTicksIn>42378336000</pproTicksIn>
						<pproTicksOut>275459184000</pproTicksOut>
						<alphatype>none</alphatype>
						<pixelaspectratio>square</pixelaspectratio>
						<anamorphic>FALSE</anamorphic>
						<file id="file-493">
							<name>TKO_011_WAR_Sh05090.mov</name>
							<pathurl>file://tri-stor01/Projects/TKO/SHOTS/_Refs_Movs_Burnin_FrameCounter/TKO_011_WAR_Sh05090.mov</pathurl>
							<rate>
								<timebase>24</timebase>
								<ntsc>TRUE</ntsc>
							</rate>
							<duration>30</duration>
							<timecode>
								<rate>
									<timebase>24</timebase>
									<ntsc>TRUE</ntsc>
								</rate>
								<string>10:53:24:21</string>
								<frame>940917</frame>
								<displayformat>NDF</displayformat>
								<reel>
									<name>B0390013</name>
								</reel>
							</timecode>
							<media>
								<video>
									<samplecharacteristics>
										<rate>
											<timebase>24</timebase>
											<ntsc>TRUE</ntsc>
										</rate>
										<width>4096</width>
										<height>2160</height>
										<anamorphic>FALSE</anamorphic>
										<pixelaspectratio>square</pixelaspectratio>
										<fielddominance>none</fielddominance>
									</samplecharacteristics>
								</video>
							</media>
						</file>
						<logginginfo>
							<description></description>
							<scene></scene>
							<shottake></shottake>
							<lognote></lognote>
							<good></good>
							<originalvideofilename></originalvideofilename>
							<originalaudiofilename></originalaudiofilename>
						</logginginfo>
						<colorinfo>
							<lut></lut>
							<lut1></lut1>
							<asc_sop></asc_sop>
							<asc_sat></asc_sat>
							<lut2></lut2>
						</colorinfo>
						<labels>
							<label2>Violet</label2>
						</labels>
					</clipitem>
					<clipitem id="clipitem-497">
						<masterclipid>masterclip-494</masterclipid>
						<name>TKO_011_WAR_Sh05100.mov</name>
						<enabled>TRUE</enabled>
						<duration>38</duration>
						<rate>
							<timebase>24</timebase>
							<ntsc>TRUE</ntsc>
						</rate>
						<start>42773</start>
						<end>42803</end>
						<in>4</in>
						<out>34</out>
						<pproTicksIn>42378336000</pproTicksIn>
						<pproTicksOut>360215856000</pproTicksOut>
						<alphatype>none</alphatype>
						<pixelaspectratio>square</pixelaspectratio>
						<anamorphic>FALSE</anamorphic>
						<file id="file-494">
							<name>TKO_011_WAR_Sh05100.mov</name>
							<pathurl>file://tri-stor01/Projects/TKO/SHOTS/_Refs_Movs_Burnin_FrameCounter/TKO_011_WAR_Sh05100.mov</pathurl>
							<rate>
								<timebase>24</timebase>
								<ntsc>TRUE</ntsc>
							</rate>
							<duration>38</duration>
							<timecode>
								<rate>
									<timebase>24</timebase>
									<ntsc>TRUE</ntsc>
								</rate>
								<string>10:53:25:19</string>
								<frame>940939</frame>
								<displayformat>NDF</displayformat>
								<reel>
									<name>A0450012</name>
								</reel>
							</timecode>
							<media>
								<video>
									<samplecharacteristics>
										<rate>
											<timebase>24</timebase>
											<ntsc>TRUE</ntsc>
										</rate>
										<width>4096</width>
										<height>2160</height>
										<anamorphic>FALSE</anamorphic>
										<pixelaspectratio>square</pixelaspectratio>
										<fielddominance>none</fielddominance>
									</samplecharacteristics>
								</video>
							</media>
						</file>
						<logginginfo>
							<description></description>
							<scene></scene>
							<shottake></shottake>
							<lognote></lognote>
							<good></good>
							<originalvideofilename></originalvideofilename>
							<originalaudiofilename></originalaudiofilename>
						</logginginfo>
						<colorinfo>
							<lut></lut>
							<lut1></lut1>
							<asc_sop></asc_sop>
							<asc_sat></asc_sat>
							<lut2></lut2>
						</colorinfo>
						<labels>
							<label2>Violet</label2>
						</labels>
					</clipitem>
					<clipitem id="clipitem-498">
						<masterclipid>masterclip-495</masterclipid>
						<name>TKO_011_WAR_Sh05110.mov</name>
						<enabled>TRUE</enabled>
						<duration>46</duration>
						<rate>
							<timebase>24</timebase>
							<ntsc>TRUE</ntsc>
						</rate>
						<start>42803</start>
						<end>42841</end>
						<in>4</in>
						<out>42</out>
						<pproTicksIn>42378336000</pproTicksIn>
						<pproTicksOut>444972528000</pproTicksOut>
						<alphatype>none</alphatype>
						<pixelaspectratio>square</pixelaspectratio>
						<anamorphic>FALSE</anamorphic>
						<file id="file-495">
							<name>TKO_011_WAR_Sh05110.mov</name>
							<pathurl>file://tri-stor01/Projects/TKO/SHOTS/_Refs_Movs_Burnin_FrameCounter/TKO_011_WAR_Sh05110.mov</pathurl>
							<rate>
								<timebase>24</timebase>
								<ntsc>TRUE</ntsc>
							</rate>
							<duration>46</duration>
							<timecode>
								<rate>
									<timebase>24</timebase>
									<ntsc>TRUE</ntsc>
								</rate>
								<string>10:53:27:01</string>
								<frame>940969</frame>
								<displayformat>NDF</displayformat>
								<reel>
									<name>B0390013</name>
								</reel>
							</timecode>
							<media>
								<video>
									<samplecharacteristics>
										<rate>
											<timebase>24</timebase>
											<ntsc>TRUE</ntsc>
										</rate>
										<width>4096</width>
										<height>2160</height>
										<anamorphic>FALSE</anamorphic>
										<pixelaspectratio>square</pixelaspectratio>
										<fielddominance>none</fielddominance>
									</samplecharacteristics>
								</video>
							</media>
						</file>
						<logginginfo>
							<description></description>
							<scene></scene>
							<shottake></shottake>
							<lognote></lognote>
							<good></good>
							<originalvideofilename></originalvideofilename>
							<originalaudiofilename></originalaudiofilename>
						</logginginfo>
						<colorinfo>
							<lut></lut>
							<lut1></lut1>
							<asc_sop></asc_sop>
							<asc_sat></asc_sat>
							<lut2></lut2>
						</colorinfo>
						<labels>
							<label2>Violet</label2>
						</labels>
					</clipitem>
					<clipitem id="clipitem-499">
						<masterclipid>masterclip-496</masterclipid>
						<name>TKO_011_WAR_Sh05120.mov</name>
						<enabled>TRUE</enabled>
						<duration>29</duration>
						<rate>
							<timebase>24</timebase>
							<ntsc>TRUE</ntsc>
						</rate>
						<start>42841</start>
						<end>42862</end>
						<in>4</in>
						<out>25</out>
						<pproTicksIn>42378336000</pproTicksIn>
						<pproTicksOut>264864600000</pproTicksOut>
						<alphatype>none</alphatype>
						<pixelaspectratio>square</pixelaspectratio>
						<anamorphic>FALSE</anamorphic>
						<file id="file-496">
							<name>TKO_011_WAR_Sh05120.mov</name>
							<pathurl>file://tri-stor01/Projects/TKO/SHOTS/_Refs_Movs_Burnin_FrameCounter/TKO_011_WAR_Sh05120.mov</pathurl>
							<rate>
								<timebase>24</timebase>
								<ntsc>TRUE</ntsc>
							</rate>
							<duration>29</duration>
							<timecode>
								<rate>
									<timebase>24</timebase>
									<ntsc>TRUE</ntsc>
								</rate>
								<string>17:35:15:01</string>
								<frame>1519561</frame>
								<displayformat>NDF</displayformat>
								<reel>
									<name>A0540022</name>
								</reel>
							</timecode>
							<media>
								<video>
									<samplecharacteristics>
										<rate>
											<timebase>24</timebase>
											<ntsc>TRUE</ntsc>
										</rate>
										<width>4096</width>
										<height>2160</height>
										<anamorphic>FALSE</anamorphic>
										<pixelaspectratio>square</pixelaspectratio>
										<fielddominance>none</fielddominance>
									</samplecharacteristics>
								</video>
							</media>
						</file>
						<logginginfo>
							<description></description>
							<scene></scene>
							<shottake></shottake>
							<lognote></lognote>
							<good></good>
							<originalvideofilename></originalvideofilename>
							<originalaudiofilename></originalaudiofilename>
						</logginginfo>
						<colorinfo>
							<lut></lut>
							<lut1></lut1>
							<asc_sop></asc_sop>
							<asc_sat></asc_sat>
							<lut2></lut2>
						</colorinfo>
						<labels>
							<label2>Violet</label2>
						</labels>
					</clipitem>
					<clipitem id="clipitem-500">
						<masterclipid>masterclip-497</masterclipid>
						<name>TKO_011_WAR_Sh05130.mov</name>
						<enabled>TRUE</enabled>
						<duration>39</duration>
						<rate>
							<timebase>24</timebase>
							<ntsc>TRUE</ntsc>
						</rate>
						<start>42862</start>
						<end>42893</end>
						<in>4</in>
						<out>35</out>
						<pproTicksIn>42378336000</pproTicksIn>
						<pproTicksOut>370810440000</pproTicksOut>
						<alphatype>none</alphatype>
						<pixelaspectratio>square</pixelaspectratio>
						<anamorphic>FALSE</anamorphic>
						<file id="file-497">
							<name>TKO_011_WAR_Sh05130.mov</name>
							<pathurl>file://tri-stor01/Projects/TKO/SHOTS/_Refs_Movs_Burnin_FrameCounter/TKO_011_WAR_Sh05130.mov</pathurl>
							<rate>
								<timebase>24</timebase>
								<ntsc>TRUE</ntsc>
							</rate>
							<duration>39</duration>
							<timecode>
								<rate>
									<timebase>24</timebase>
									<ntsc>TRUE</ntsc>
								</rate>
								<string>05:15:06:21</string>
								<frame>453765</frame>
								<displayformat>NDF</displayformat>
								<reel>
									<name>B0470021</name>
								</reel>
							</timecode>
							<media>
								<video>
									<samplecharacteristics>
										<rate>
											<timebase>24</timebase>
											<ntsc>TRUE</ntsc>
										</rate>
										<width>4096</width>
										<height>2160</height>
										<anamorphic>FALSE</anamorphic>
										<pixelaspectratio>square</pixelaspectratio>
										<fielddominance>none</fielddominance>
									</samplecharacteristics>
								</video>
							</media>
						</file>
						<logginginfo>
							<description></description>
							<scene></scene>
							<shottake></shottake>
							<lognote></lognote>
							<good></good>
							<originalvideofilename></originalvideofilename>
							<originalaudiofilename></originalaudiofilename>
						</logginginfo>
						<colorinfo>
							<lut></lut>
							<lut1></lut1>
							<asc_sop></asc_sop>
							<asc_sat></asc_sat>
							<lut2></lut2>
						</colorinfo>
						<labels>
							<label2>Violet</label2>
						</labels>
					</clipitem>
					<clipitem id="clipitem-501">
						<masterclipid>masterclip-498</masterclipid>
						<name>TKO_011_WAR_Sh05140_MERGED.mov</name>
						<enabled>TRUE</enabled>
						<duration>52</duration>
						<rate>
							<timebase>24</timebase>
							<ntsc>TRUE</ntsc>
						</rate>
						<start>42893</start>
						<end>42937</end>
						<in>4</in>
						<out>48</out>
						<pproTicksIn>42378336000</pproTicksIn>
						<pproTicksOut>508540032000</pproTicksOut>
						<alphatype>none</alphatype>
						<pixelaspectratio>square</pixelaspectratio>
						<anamorphic>FALSE</anamorphic>
						<file id="file-498">
							<name>TKO_011_WAR_Sh05140_MERGED.mov</name>
							<pathurl>file://tri-stor01/Projects/TKO/SHOTS/_Refs_Movs_Burnin_FrameCounter/TKO_011_WAR_Sh05140_MERGED.mov</pathurl>
							<rate>
								<timebase>24</timebase>
								<ntsc>TRUE</ntsc>
							</rate>
							<duration>52</duration>
							<timecode>
								<rate>
									<timebase>24</timebase>
									<ntsc>TRUE</ntsc>
								</rate>
								<string>00:00:00:00</string>
								<frame>0</frame>
								<displayformat>NDF</displayformat>
							</timecode>
							<media>
								<video>
									<samplecharacteristics>
										<rate>
											<timebase>24</timebase>
											<ntsc>TRUE</ntsc>
										</rate>
										<width>1920</width>
										<height>1080</height>
										<anamorphic>FALSE</anamorphic>
										<pixelaspectratio>square</pixelaspectratio>
										<fielddominance>none</fielddominance>
									</samplecharacteristics>
								</video>
								<audio>
									<samplecharacteristics>
										<depth>16</depth>
										<samplerate>48000</samplerate>
									</samplecharacteristics>
									<channelcount>2</channelcount>
								</audio>
							</media>
						</file>
						<logginginfo>
							<description></description>
							<scene></scene>
							<shottake></shottake>
							<lognote></lognote>
							<good></good>
							<originalvideofilename></originalvideofilename>
							<originalaudiofilename></originalaudiofilename>
						</logginginfo>
						<colorinfo>
							<lut></lut>
							<lut1></lut1>
							<asc_sop></asc_sop>
							<asc_sat></asc_sat>
							<lut2></lut2>
						</colorinfo>
						<labels>
							<label2>Iris</label2>
						</labels>
					</clipitem>
					<clipitem id="clipitem-502">
						<masterclipid>masterclip-499</masterclipid>
						<name>TKO_011_WAR_Sh05150.mov</name>
						<enabled>TRUE</enabled>
						<duration>43</duration>
						<rate>
							<timebase>24</timebase>
							<ntsc>TRUE</ntsc>
						</rate>
						<start>42937</start>
						<end>42972</end>
						<in>4</in>
						<out>39</out>
						<pproTicksIn>42378336000</pproTicksIn>
						<pproTicksOut>413188776000</pproTicksOut>
						<alphatype>none</alphatype>
						<pixelaspectratio>square</pixelaspectratio>
						<anamorphic>FALSE</anamorphic>
						<file id="file-499">
							<name>TKO_011_WAR_Sh05150.mov</name>
							<pathurl>file://tri-stor01/Projects/TKO/SHOTS/_Refs_Movs_Burnin_FrameCounter/TKO_011_WAR_Sh05150.mov</pathurl>
							<rate>
								<timebase>24</timebase>
								<ntsc>TRUE</ntsc>
							</rate>
							<duration>43</duration>
							<timecode>
								<rate>
									<timebase>24</timebase>
									<ntsc>TRUE</ntsc>
								</rate>
								<string>10:58:17:12</string>
								<frame>947940</frame>
								<displayformat>NDF</displayformat>
								<reel>
									<name>A0540002</name>
								</reel>
							</timecode>
							<media>
								<video>
									<samplecharacteristics>
										<rate>
											<timebase>24</timebase>
											<ntsc>TRUE</ntsc>
										</rate>
										<width>4096</width>
										<height>2160</height>
										<anamorphic>FALSE</anamorphic>
										<pixelaspectratio>square</pixelaspectratio>
										<fielddominance>none</fielddominance>
									</samplecharacteristics>
								</video>
							</media>
						</file>
						<logginginfo>
							<description></description>
							<scene></scene>
							<shottake></shottake>
							<lognote></lognote>
							<good></good>
							<originalvideofilename></originalvideofilename>
							<originalaudiofilename></originalaudiofilename>
						</logginginfo>
						<colorinfo>
							<lut></lut>
							<lut1></lut1>
							<asc_sop></asc_sop>
							<asc_sat></asc_sat>
							<lut2></lut2>
						</colorinfo>
						<labels>
							<label2>Violet</label2>
						</labels>
					</clipitem>
					<clipitem id="clipitem-503">
						<masterclipid>masterclip-500</masterclipid>
						<name>TKO_011_WAR_Sh05160.mov</name>
						<enabled>TRUE</enabled>
						<duration>37</duration>
						<rate>
							<timebase>24</timebase>
							<ntsc>TRUE</ntsc>
						</rate>
						<start>42972</start>
						<end>43001</end>
						<in>4</in>
						<out>33</out>
						<pproTicksIn>42378336000</pproTicksIn>
						<pproTicksOut>349621272000</pproTicksOut>
						<alphatype>none</alphatype>
						<pixelaspectratio>square</pixelaspectratio>
						<anamorphic>FALSE</anamorphic>
						<file id="file-500">
							<name>TKO_011_WAR_Sh05160.mov</name>
							<pathurl>file://tri-stor01/Projects/TKO/SHOTS/_Refs_Movs_Burnin_FrameCounter/TKO_011_WAR_Sh05160.mov</pathurl>
							<rate>
								<timebase>24</timebase>
								<ntsc>TRUE</ntsc>
							</rate>
							<duration>37</duration>
							<timecode>
								<rate>
									<timebase>24</timebase>
									<ntsc>TRUE</ntsc>
								</rate>
								<string>11:21:50:18</string>
								<frame>981858</frame>
								<displayformat>NDF</displayformat>
								<reel>
									<name>A0540005</name>
								</reel>
							</timecode>
							<media>
								<video>
									<samplecharacteristics>
										<rate>
											<timebase>24</timebase>
											<ntsc>TRUE</ntsc>
										</rate>
										<width>4096</width>
										<height>2160</height>
										<anamorphic>FALSE</anamorphic>
										<pixelaspectratio>square</pixelaspectratio>
										<fielddominance>none</fielddominance>
									</samplecharacteristics>
								</video>
							</media>
						</file>
						<logginginfo>
							<description></description>
							<scene></scene>
							<shottake></shottake>
							<lognote></lognote>
							<good></good>
							<originalvideofilename></originalvideofilename>
							<originalaudiofilename></originalaudiofilename>
						</logginginfo>
						<colorinfo>
							<lut></lut>
							<lut1></lut1>
							<asc_sop></asc_sop>
							<asc_sat></asc_sat>
							<lut2></lut2>
						</colorinfo>
						<labels>
							<label2>Violet</label2>
						</labels>
					</clipitem>
					<clipitem id="clipitem-504">
						<masterclipid>masterclip-501</masterclipid>
						<name>TKO_011_WAR_Sh05170.mov</name>
						<enabled>TRUE</enabled>
						<duration>37</duration>
						<rate>
							<timebase>24</timebase>
							<ntsc>TRUE</ntsc>
						</rate>
						<start>43001</start>
						<end>43030</end>
						<in>4</in>
						<out>33</out>
						<pproTicksIn>42378336000</pproTicksIn>
						<pproTicksOut>349621272000</pproTicksOut>
						<alphatype>none</alphatype>
						<pixelaspectratio>square</pixelaspectratio>
						<anamorphic>FALSE</anamorphic>
						<file id="file-501">
							<name>TKO_011_WAR_Sh05170.mov</name>
							<pathurl>file://tri-stor01/Projects/TKO/SHOTS/_Refs_Movs_Burnin_FrameCounter/TKO_011_WAR_Sh05170.mov</pathurl>
							<rate>
								<timebase>24</timebase>
								<ntsc>TRUE</ntsc>
							</rate>
							<duration>37</duration>
							<timecode>
								<rate>
									<timebase>24</timebase>
									<ntsc>TRUE</ntsc>
								</rate>
								<string>23:18:25:18</string>
								<frame>2013738</frame>
								<displayformat>NDF</displayformat>
								<reel>
									<name>B0470008</name>
								</reel>
							</timecode>
							<media>
								<video>
									<samplecharacteristics>
										<rate>
											<timebase>24</timebase>
											<ntsc>TRUE</ntsc>
										</rate>
										<width>4096</width>
										<height>2160</height>
										<anamorphic>FALSE</anamorphic>
										<pixelaspectratio>square</pixelaspectratio>
										<fielddominance>none</fielddominance>
									</samplecharacteristics>
								</video>
							</media>
						</file>
						<logginginfo>
							<description></description>
							<scene></scene>
							<shottake></shottake>
							<lognote></lognote>
							<good></good>
							<originalvideofilename></originalvideofilename>
							<originalaudiofilename></originalaudiofilename>
						</logginginfo>
						<colorinfo>
							<lut></lut>
							<lut1></lut1>
							<asc_sop></asc_sop>
							<asc_sat></asc_sat>
							<lut2></lut2>
						</colorinfo>
						<labels>
							<label2>Violet</label2>
						</labels>
					</clipitem>
					<clipitem id="clipitem-505">
						<masterclipid>masterclip-502</masterclipid>
						<name>TKO_011_WAR_Sh05180.mov</name>
						<enabled>TRUE</enabled>
						<duration>36</duration>
						<rate>
							<timebase>24</timebase>
							<ntsc>TRUE</ntsc>
						</rate>
						<start>43030</start>
						<end>43058</end>
						<in>4</in>
						<out>32</out>
						<pproTicksIn>42378336000</pproTicksIn>
						<pproTicksOut>339026688000</pproTicksOut>
						<alphatype>none</alphatype>
						<pixelaspectratio>square</pixelaspectratio>
						<anamorphic>FALSE</anamorphic>
						<file id="file-502">
							<name>TKO_011_WAR_Sh05180.mov</name>
							<pathurl>file://tri-stor01/Projects/TKO/SHOTS/_Refs_Movs_Burnin_FrameCounter/TKO_011_WAR_Sh05180.mov</pathurl>
							<rate>
								<timebase>24</timebase>
								<ntsc>TRUE</ntsc>
							</rate>
							<duration>36</duration>
							<timecode>
								<rate>
									<timebase>24</timebase>
									<ntsc>TRUE</ntsc>
								</rate>
								<string>19:54:28:04</string>
								<frame>1720036</frame>
								<displayformat>NDF</displayformat>
								<reel>
									<name>B0090015</name>
								</reel>
							</timecode>
							<media>
								<video>
									<samplecharacteristics>
										<rate>
											<timebase>24</timebase>
											<ntsc>TRUE</ntsc>
										</rate>
										<width>4096</width>
										<height>2160</height>
										<anamorphic>FALSE</anamorphic>
										<pixelaspectratio>square</pixelaspectratio>
										<fielddominance>none</fielddominance>
									</samplecharacteristics>
								</video>
							</media>
						</file>
						<logginginfo>
							<description></description>
							<scene></scene>
							<shottake></shottake>
							<lognote></lognote>
							<good></good>
							<originalvideofilename></originalvideofilename>
							<originalaudiofilename></originalaudiofilename>
						</logginginfo>
						<colorinfo>
							<lut></lut>
							<lut1></lut1>
							<asc_sop></asc_sop>
							<asc_sat></asc_sat>
							<lut2></lut2>
						</colorinfo>
						<labels>
							<label2>Violet</label2>
						</labels>
					</clipitem>
					<clipitem id="clipitem-506">
						<masterclipid>masterclip-503</masterclipid>
						<name>TKO_011_WAR_Sh05190.mov</name>
						<enabled>TRUE</enabled>
						<duration>23</duration>
						<rate>
							<timebase>24</timebase>
							<ntsc>TRUE</ntsc>
						</rate>
						<start>43058</start>
						<end>43073</end>
						<in>4</in>
						<out>19</out>
						<pproTicksIn>42378336000</pproTicksIn>
						<pproTicksOut>201297096000</pproTicksOut>
						<alphatype>none</alphatype>
						<pixelaspectratio>square</pixelaspectratio>
						<anamorphic>FALSE</anamorphic>
						<file id="file-503">
							<name>TKO_011_WAR_Sh05190.mov</name>
							<pathurl>file://tri-stor01/Projects/TKO/SHOTS/_Refs_Movs_Burnin_FrameCounter/TKO_011_WAR_Sh05190.mov</pathurl>
							<rate>
								<timebase>24</timebase>
								<ntsc>TRUE</ntsc>
							</rate>
							<duration>23</duration>
							<timecode>
								<rate>
									<timebase>24</timebase>
									<ntsc>TRUE</ntsc>
								</rate>
								<string>19:27:09:14</string>
								<frame>1680710</frame>
								<displayformat>NDF</displayformat>
								<reel>
									<name>A0120011</name>
								</reel>
							</timecode>
							<media>
								<video>
									<samplecharacteristics>
										<rate>
											<timebase>24</timebase>
											<ntsc>TRUE</ntsc>
										</rate>
										<width>4096</width>
										<height>2160</height>
										<anamorphic>FALSE</anamorphic>
										<pixelaspectratio>square</pixelaspectratio>
										<fielddominance>none</fielddominance>
									</samplecharacteristics>
								</video>
							</media>
						</file>
						<logginginfo>
							<description></description>
							<scene></scene>
							<shottake></shottake>
							<lognote></lognote>
							<good></good>
							<originalvideofilename></originalvideofilename>
							<originalaudiofilename></originalaudiofilename>
						</logginginfo>
						<colorinfo>
							<lut></lut>
							<lut1></lut1>
							<asc_sop></asc_sop>
							<asc_sat></asc_sat>
							<lut2></lut2>
						</colorinfo>
						<labels>
							<label2>Violet</label2>
						</labels>
					</clipitem>
					<clipitem id="clipitem-507">
						<masterclipid>masterclip-504</masterclipid>
						<name>TKO_011_WAR_Sh05200.mov</name>
						<enabled>TRUE</enabled>
						<duration>24</duration>
						<rate>
							<timebase>24</timebase>
							<ntsc>TRUE</ntsc>
						</rate>
						<start>43073</start>
						<end>43089</end>
						<in>4</in>
						<out>20</out>
						<pproTicksIn>42378336000</pproTicksIn>
						<pproTicksOut>211891680000</pproTicksOut>
						<alphatype>none</alphatype>
						<pixelaspectratio>square</pixelaspectratio>
						<anamorphic>FALSE</anamorphic>
						<file id="file-504">
							<name>TKO_011_WAR_Sh05200.mov</name>
							<pathurl>file://tri-stor01/Projects/TKO/SHOTS/_Refs_Movs_Burnin_FrameCounter/TKO_011_WAR_Sh05200.mov</pathurl>
							<rate>
								<timebase>24</timebase>
								<ntsc>TRUE</ntsc>
							</rate>
							<duration>24</duration>
							<timecode>
								<rate>
									<timebase>24</timebase>
									<ntsc>TRUE</ntsc>
								</rate>
								<string>11:21:53:00</string>
								<frame>981912</frame>
								<displayformat>NDF</displayformat>
								<reel>
									<name>A0540005</name>
								</reel>
							</timecode>
							<media>
								<video>
									<samplecharacteristics>
										<rate>
											<timebase>24</timebase>
											<ntsc>TRUE</ntsc>
										</rate>
										<width>4096</width>
										<height>2160</height>
										<anamorphic>FALSE</anamorphic>
										<pixelaspectratio>square</pixelaspectratio>
										<fielddominance>none</fielddominance>
									</samplecharacteristics>
								</video>
							</media>
						</file>
						<logginginfo>
							<description></description>
							<scene></scene>
							<shottake></shottake>
							<lognote></lognote>
							<good></good>
							<originalvideofilename></originalvideofilename>
							<originalaudiofilename></originalaudiofilename>
						</logginginfo>
						<colorinfo>
							<lut></lut>
							<lut1></lut1>
							<asc_sop></asc_sop>
							<asc_sat></asc_sat>
							<lut2></lut2>
						</colorinfo>
						<labels>
							<label2>Violet</label2>
						</labels>
					</clipitem>
					<clipitem id="clipitem-508">
						<masterclipid>masterclip-505</masterclipid>
						<name>TKO_011_WAR_Sh05210.mov</name>
						<enabled>TRUE</enabled>
						<duration>30</duration>
						<rate>
							<timebase>24</timebase>
							<ntsc>TRUE</ntsc>
						</rate>
						<start>43089</start>
						<end>43111</end>
						<in>4</in>
						<out>26</out>
						<pproTicksIn>42378336000</pproTicksIn>
						<pproTicksOut>275459184000</pproTicksOut>
						<alphatype>none</alphatype>
						<pixelaspectratio>square</pixelaspectratio>
						<anamorphic>FALSE</anamorphic>
						<file id="file-505">
							<name>TKO_011_WAR_Sh05210.mov</name>
							<pathurl>file://tri-stor01/Projects/TKO/SHOTS/_Refs_Movs_Burnin_FrameCounter/TKO_011_WAR_Sh05210.mov</pathurl>
							<rate>
								<timebase>24</timebase>
								<ntsc>TRUE</ntsc>
							</rate>
							<duration>30</duration>
							<timecode>
								<rate>
									<timebase>24</timebase>
									<ntsc>TRUE</ntsc>
								</rate>
								<string>11:38:35:20</string>
								<frame>1005980</frame>
								<displayformat>NDF</displayformat>
								<reel>
									<name>A0540008</name>
								</reel>
							</timecode>
							<media>
								<video>
									<samplecharacteristics>
										<rate>
											<timebase>24</timebase>
											<ntsc>TRUE</ntsc>
										</rate>
										<width>4096</width>
										<height>2160</height>
										<anamorphic>FALSE</anamorphic>
										<pixelaspectratio>square</pixelaspectratio>
										<fielddominance>none</fielddominance>
									</samplecharacteristics>
								</video>
							</media>
						</file>
						<logginginfo>
							<description></description>
							<scene></scene>
							<shottake></shottake>
							<lognote></lognote>
							<good></good>
							<originalvideofilename></originalvideofilename>
							<originalaudiofilename></originalaudiofilename>
						</logginginfo>
						<colorinfo>
							<lut></lut>
							<lut1></lut1>
							<asc_sop></asc_sop>
							<asc_sat></asc_sat>
							<lut2></lut2>
						</colorinfo>
						<labels>
							<label2>Violet</label2>
						</labels>
					</clipitem>
					<clipitem id="clipitem-509">
						<masterclipid>masterclip-506</masterclipid>
						<name>TKO_011_WAR_Sh05220.mov</name>
						<enabled>TRUE</enabled>
						<duration>23</duration>
						<rate>
							<timebase>24</timebase>
							<ntsc>TRUE</ntsc>
						</rate>
						<start>43111</start>
						<end>43126</end>
						<in>4</in>
						<out>19</out>
						<pproTicksIn>42378336000</pproTicksIn>
						<pproTicksOut>201297096000</pproTicksOut>
						<alphatype>none</alphatype>
						<pixelaspectratio>square</pixelaspectratio>
						<anamorphic>FALSE</anamorphic>
						<file id="file-506">
							<name>TKO_011_WAR_Sh05220.mov</name>
							<pathurl>file://tri-stor01/Projects/TKO/SHOTS/_Refs_Movs_Burnin_FrameCounter/TKO_011_WAR_Sh05220.mov</pathurl>
							<rate>
								<timebase>24</timebase>
								<ntsc>TRUE</ntsc>
							</rate>
							<duration>23</duration>
							<timecode>
								<rate>
									<timebase>24</timebase>
									<ntsc>TRUE</ntsc>
								</rate>
								<string>19:27:10:02</string>
								<frame>1680722</frame>
								<displayformat>NDF</displayformat>
								<reel>
									<name>B0090012</name>
								</reel>
							</timecode>
							<media>
								<video>
									<samplecharacteristics>
										<rate>
											<timebase>24</timebase>
											<ntsc>TRUE</ntsc>
										</rate>
										<width>4096</width>
										<height>2160</height>
										<anamorphic>FALSE</anamorphic>
										<pixelaspectratio>square</pixelaspectratio>
										<fielddominance>none</fielddominance>
									</samplecharacteristics>
								</video>
							</media>
						</file>
						<logginginfo>
							<description></description>
							<scene></scene>
							<shottake></shottake>
							<lognote></lognote>
							<good></good>
							<originalvideofilename></originalvideofilename>
							<originalaudiofilename></originalaudiofilename>
						</logginginfo>
						<colorinfo>
							<lut></lut>
							<lut1></lut1>
							<asc_sop></asc_sop>
							<asc_sat></asc_sat>
							<lut2></lut2>
						</colorinfo>
						<labels>
							<label2>Violet</label2>
						</labels>
					</clipitem>
					<clipitem id="clipitem-510">
						<masterclipid>masterclip-507</masterclipid>
						<name>TKO_011_WAR_Sh05230.mov</name>
						<enabled>TRUE</enabled>
						<duration>20</duration>
						<rate>
							<timebase>24</timebase>
							<ntsc>TRUE</ntsc>
						</rate>
						<start>43126</start>
						<end>43138</end>
						<in>4</in>
						<out>16</out>
						<pproTicksIn>42378336000</pproTicksIn>
						<pproTicksOut>169513344000</pproTicksOut>
						<alphatype>none</alphatype>
						<pixelaspectratio>square</pixelaspectratio>
						<anamorphic>FALSE</anamorphic>
						<file id="file-507">
							<name>TKO_011_WAR_Sh05230.mov</name>
							<pathurl>file://tri-stor01/Projects/TKO/SHOTS/_Refs_Movs_Burnin_FrameCounter/TKO_011_WAR_Sh05230.mov</pathurl>
							<rate>
								<timebase>24</timebase>
								<ntsc>TRUE</ntsc>
							</rate>
							<duration>20</duration>
							<timecode>
								<rate>
									<timebase>24</timebase>
									<ntsc>TRUE</ntsc>
								</rate>
								<string>11:21:54:10</string>
								<frame>981946</frame>
								<displayformat>NDF</displayformat>
								<reel>
									<name>A0540005</name>
								</reel>
							</timecode>
							<media>
								<video>
									<samplecharacteristics>
										<rate>
											<timebase>24</timebase>
											<ntsc>TRUE</ntsc>
										</rate>
										<width>4096</width>
										<height>2160</height>
										<anamorphic>FALSE</anamorphic>
										<pixelaspectratio>square</pixelaspectratio>
										<fielddominance>none</fielddominance>
									</samplecharacteristics>
								</video>
							</media>
						</file>
						<logginginfo>
							<description></description>
							<scene></scene>
							<shottake></shottake>
							<lognote></lognote>
							<good></good>
							<originalvideofilename></originalvideofilename>
							<originalaudiofilename></originalaudiofilename>
						</logginginfo>
						<colorinfo>
							<lut></lut>
							<lut1></lut1>
							<asc_sop></asc_sop>
							<asc_sat></asc_sat>
							<lut2></lut2>
						</colorinfo>
						<labels>
							<label2>Violet</label2>
						</labels>
					</clipitem>
					<clipitem id="clipitem-511">
						<masterclipid>masterclip-508</masterclipid>
						<name>TKO_011_WAR_Sh05240.mov</name>
						<enabled>TRUE</enabled>
						<duration>25</duration>
						<rate>
							<timebase>24</timebase>
							<ntsc>TRUE</ntsc>
						</rate>
						<start>43138</start>
						<end>43155</end>
						<in>4</in>
						<out>21</out>
						<pproTicksIn>42378336000</pproTicksIn>
						<pproTicksOut>222486264000</pproTicksOut>
						<alphatype>none</alphatype>
						<pixelaspectratio>square</pixelaspectratio>
						<anamorphic>FALSE</anamorphic>
						<file id="file-508">
							<name>TKO_011_WAR_Sh05240.mov</name>
							<pathurl>file://tri-stor01/Projects/TKO/SHOTS/_Refs_Movs_Burnin_FrameCounter/TKO_011_WAR_Sh05240.mov</pathurl>
							<rate>
								<timebase>24</timebase>
								<ntsc>TRUE</ntsc>
							</rate>
							<duration>25</duration>
							<timecode>
								<rate>
									<timebase>24</timebase>
									<ntsc>TRUE</ntsc>
								</rate>
								<string>19:54:21:23</string>
								<frame>1719887</frame>
								<displayformat>NDF</displayformat>
								<reel>
									<name>A0120014</name>
								</reel>
							</timecode>
							<media>
								<video>
									<samplecharacteristics>
										<rate>
											<timebase>24</timebase>
											<ntsc>TRUE</ntsc>
										</rate>
										<width>4096</width>
										<height>2160</height>
										<anamorphic>FALSE</anamorphic>
										<pixelaspectratio>square</pixelaspectratio>
										<fielddominance>none</fielddominance>
									</samplecharacteristics>
								</video>
							</media>
						</file>
						<logginginfo>
							<description></description>
							<scene></scene>
							<shottake></shottake>
							<lognote></lognote>
							<good></good>
							<originalvideofilename></originalvideofilename>
							<originalaudiofilename></originalaudiofilename>
						</logginginfo>
						<colorinfo>
							<lut></lut>
							<lut1></lut1>
							<asc_sop></asc_sop>
							<asc_sat></asc_sat>
							<lut2></lut2>
						</colorinfo>
						<labels>
							<label2>Violet</label2>
						</labels>
					</clipitem>
					<clipitem id="clipitem-512">
						<masterclipid>masterclip-509</masterclipid>
						<name>TKO_011_WAR_Sh05250.mov</name>
						<enabled>TRUE</enabled>
						<duration>26</duration>
						<rate>
							<timebase>24</timebase>
							<ntsc>TRUE</ntsc>
						</rate>
						<start>43155</start>
						<end>43173</end>
						<in>4</in>
						<out>22</out>
						<pproTicksIn>42378336000</pproTicksIn>
						<pproTicksOut>233080848000</pproTicksOut>
						<alphatype>none</alphatype>
						<pixelaspectratio>square</pixelaspectratio>
						<anamorphic>FALSE</anamorphic>
						<file id="file-509">
							<name>TKO_011_WAR_Sh05250.mov</name>
							<pathurl>file://tri-stor01/Projects/TKO/SHOTS/_Refs_Movs_Burnin_FrameCounter/TKO_011_WAR_Sh05250.mov</pathurl>
							<rate>
								<timebase>24</timebase>
								<ntsc>TRUE</ntsc>
							</rate>
							<duration>26</duration>
							<timecode>
								<rate>
									<timebase>24</timebase>
									<ntsc>TRUE</ntsc>
								</rate>
								<string>23:24:03:03</string>
								<frame>2021835</frame>
								<displayformat>NDF</displayformat>
								<reel>
									<name>B0470009</name>
								</reel>
							</timecode>
							<media>
								<video>
									<samplecharacteristics>
										<rate>
											<timebase>24</timebase>
											<ntsc>TRUE</ntsc>
										</rate>
										<width>4096</width>
										<height>2160</height>
										<anamorphic>FALSE</anamorphic>
										<pixelaspectratio>square</pixelaspectratio>
										<fielddominance>none</fielddominance>
									</samplecharacteristics>
								</video>
							</media>
						</file>
						<logginginfo>
							<description></description>
							<scene></scene>
							<shottake></shottake>
							<lognote></lognote>
							<good></good>
							<originalvideofilename></originalvideofilename>
							<originalaudiofilename></originalaudiofilename>
						</logginginfo>
						<colorinfo>
							<lut></lut>
							<lut1></lut1>
							<asc_sop></asc_sop>
							<asc_sat></asc_sat>
							<lut2></lut2>
						</colorinfo>
						<labels>
							<label2>Violet</label2>
						</labels>
					</clipitem>
					<clipitem id="clipitem-513">
						<masterclipid>masterclip-510</masterclipid>
						<name>TKO_011_WAR_Sh05260.mov</name>
						<enabled>TRUE</enabled>
						<duration>26</duration>
						<rate>
							<timebase>24</timebase>
							<ntsc>TRUE</ntsc>
						</rate>
						<start>43173</start>
						<end>43191</end>
						<in>4</in>
						<out>22</out>
						<pproTicksIn>42378336000</pproTicksIn>
						<pproTicksOut>233080848000</pproTicksOut>
						<alphatype>none</alphatype>
						<pixelaspectratio>square</pixelaspectratio>
						<anamorphic>FALSE</anamorphic>
						<file id="file-510">
							<name>TKO_011_WAR_Sh05260.mov</name>
							<pathurl>file://tri-stor01/Projects/TKO/SHOTS/_Refs_Movs_Burnin_FrameCounter/TKO_011_WAR_Sh05260.mov</pathurl>
							<rate>
								<timebase>24</timebase>
								<ntsc>TRUE</ntsc>
							</rate>
							<duration>26</duration>
							<timecode>
								<rate>
									<timebase>24</timebase>
									<ntsc>TRUE</ntsc>
								</rate>
								<string>03:20:55:01</string>
								<frame>289321</frame>
								<displayformat>NDF</displayformat>
								<reel>
									<name>C0060005</name>
								</reel>
							</timecode>
							<media>
								<video>
									<samplecharacteristics>
										<rate>
											<timebase>24</timebase>
											<ntsc>TRUE</ntsc>
										</rate>
										<width>3840</width>
										<height>2160</height>
										<anamorphic>FALSE</anamorphic>
										<pixelaspectratio>square</pixelaspectratio>
										<fielddominance>none</fielddominance>
									</samplecharacteristics>
								</video>
							</media>
						</file>
						<logginginfo>
							<description></description>
							<scene></scene>
							<shottake></shottake>
							<lognote></lognote>
							<good></good>
							<originalvideofilename></originalvideofilename>
							<originalaudiofilename></originalaudiofilename>
						</logginginfo>
						<colorinfo>
							<lut></lut>
							<lut1></lut1>
							<asc_sop></asc_sop>
							<asc_sat></asc_sat>
							<lut2></lut2>
						</colorinfo>
						<labels>
							<label2>Violet</label2>
						</labels>
					</clipitem>
					<clipitem id="clipitem-514">
						<masterclipid>masterclip-511</masterclipid>
						<name>TKO_011_WAR_Sh05270.mov</name>
						<enabled>TRUE</enabled>
						<duration>42</duration>
						<rate>
							<timebase>24</timebase>
							<ntsc>TRUE</ntsc>
						</rate>
						<start>43191</start>
						<end>43225</end>
						<in>4</in>
						<out>38</out>
						<pproTicksIn>42378336000</pproTicksIn>
						<pproTicksOut>402594192000</pproTicksOut>
						<alphatype>none</alphatype>
						<pixelaspectratio>square</pixelaspectratio>
						<anamorphic>FALSE</anamorphic>
						<file id="file-511">
							<name>TKO_011_WAR_Sh05270.mov</name>
							<pathurl>file://tri-stor01/Projects/TKO/SHOTS/_Refs_Movs_Burnin_FrameCounter/TKO_011_WAR_Sh05270.mov</pathurl>
							<rate>
								<timebase>24</timebase>
								<ntsc>TRUE</ntsc>
							</rate>
							<duration>42</duration>
							<timecode>
								<rate>
									<timebase>24</timebase>
									<ntsc>TRUE</ntsc>
								</rate>
								<string>23:24:04:00</string>
								<frame>2021856</frame>
								<displayformat>NDF</displayformat>
								<reel>
									<name>B0470009</name>
								</reel>
							</timecode>
							<media>
								<video>
									<samplecharacteristics>
										<rate>
											<timebase>24</timebase>
											<ntsc>TRUE</ntsc>
										</rate>
										<width>4096</width>
										<height>2160</height>
										<anamorphic>FALSE</anamorphic>
										<pixelaspectratio>square</pixelaspectratio>
										<fielddominance>none</fielddominance>
									</samplecharacteristics>
								</video>
							</media>
						</file>
						<logginginfo>
							<description></description>
							<scene></scene>
							<shottake></shottake>
							<lognote></lognote>
							<good></good>
							<originalvideofilename></originalvideofilename>
							<originalaudiofilename></originalaudiofilename>
						</logginginfo>
						<colorinfo>
							<lut></lut>
							<lut1></lut1>
							<asc_sop></asc_sop>
							<asc_sat></asc_sat>
							<lut2></lut2>
						</colorinfo>
						<labels>
							<label2>Violet</label2>
						</labels>
					</clipitem>
					<clipitem id="clipitem-515">
						<masterclipid>masterclip-512</masterclipid>
						<name>TKO_011_WAR_Sh05280.mov</name>
						<enabled>TRUE</enabled>
						<duration>59</duration>
						<rate>
							<timebase>24</timebase>
							<ntsc>TRUE</ntsc>
						</rate>
						<start>43225</start>
						<end>43276</end>
						<in>4</in>
						<out>55</out>
						<pproTicksIn>42378336000</pproTicksIn>
						<pproTicksOut>582702120000</pproTicksOut>
						<alphatype>none</alphatype>
						<pixelaspectratio>square</pixelaspectratio>
						<anamorphic>FALSE</anamorphic>
						<file id="file-512">
							<name>TKO_011_WAR_Sh05280.mov</name>
							<pathurl>file://tri-stor01/Projects/TKO/SHOTS/_Refs_Movs_Burnin_FrameCounter/TKO_011_WAR_Sh05280.mov</pathurl>
							<rate>
								<timebase>24</timebase>
								<ntsc>TRUE</ntsc>
							</rate>
							<duration>59</duration>
							<timecode>
								<rate>
									<timebase>24</timebase>
									<ntsc>TRUE</ntsc>
								</rate>
								<string>19:54:27:02</string>
								<frame>1720010</frame>
								<displayformat>NDF</displayformat>
								<reel>
									<name>A0120014</name>
								</reel>
							</timecode>
							<media>
								<video>
									<samplecharacteristics>
										<rate>
											<timebase>24</timebase>
											<ntsc>TRUE</ntsc>
										</rate>
										<width>4096</width>
										<height>2160</height>
										<anamorphic>FALSE</anamorphic>
										<pixelaspectratio>square</pixelaspectratio>
										<fielddominance>none</fielddominance>
									</samplecharacteristics>
								</video>
							</media>
						</file>
						<logginginfo>
							<description></description>
							<scene></scene>
							<shottake></shottake>
							<lognote></lognote>
							<good></good>
							<originalvideofilename></originalvideofilename>
							<originalaudiofilename></originalaudiofilename>
						</logginginfo>
						<colorinfo>
							<lut></lut>
							<lut1></lut1>
							<asc_sop></asc_sop>
							<asc_sat></asc_sat>
							<lut2></lut2>
						</colorinfo>
						<labels>
							<label2>Violet</label2>
						</labels>
					</clipitem>
					<clipitem id="clipitem-516">
						<masterclipid>masterclip-513</masterclipid>
						<name>TKO_011_WAR_Sh05290.mov</name>
						<enabled>TRUE</enabled>
						<duration>44</duration>
						<rate>
							<timebase>24</timebase>
							<ntsc>TRUE</ntsc>
						</rate>
						<start>43276</start>
						<end>43312</end>
						<in>4</in>
						<out>40</out>
						<pproTicksIn>42378336000</pproTicksIn>
						<pproTicksOut>423783360000</pproTicksOut>
						<alphatype>none</alphatype>
						<pixelaspectratio>square</pixelaspectratio>
						<anamorphic>FALSE</anamorphic>
						<file id="file-513">
							<name>TKO_011_WAR_Sh05290.mov</name>
							<pathurl>file://tri-stor01/Projects/TKO/SHOTS/_Refs_Movs_Burnin_FrameCounter/TKO_011_WAR_Sh05290.mov</pathurl>
							<rate>
								<timebase>24</timebase>
								<ntsc>TRUE</ntsc>
							</rate>
							<duration>44</duration>
							<timecode>
								<rate>
									<timebase>24</timebase>
									<ntsc>TRUE</ntsc>
								</rate>
								<string>03:20:56:13</string>
								<frame>289357</frame>
								<displayformat>NDF</displayformat>
								<reel>
									<name>C0060005</name>
								</reel>
							</timecode>
							<media>
								<video>
									<samplecharacteristics>
										<rate>
											<timebase>24</timebase>
											<ntsc>TRUE</ntsc>
										</rate>
										<width>3840</width>
										<height>2160</height>
										<anamorphic>FALSE</anamorphic>
										<pixelaspectratio>square</pixelaspectratio>
										<fielddominance>none</fielddominance>
									</samplecharacteristics>
								</video>
							</media>
						</file>
						<logginginfo>
							<description></description>
							<scene></scene>
							<shottake></shottake>
							<lognote></lognote>
							<good></good>
							<originalvideofilename></originalvideofilename>
							<originalaudiofilename></originalaudiofilename>
						</logginginfo>
						<colorinfo>
							<lut></lut>
							<lut1></lut1>
							<asc_sop></asc_sop>
							<asc_sat></asc_sat>
							<lut2></lut2>
						</colorinfo>
						<labels>
							<label2>Violet</label2>
						</labels>
					</clipitem>
					<clipitem id="clipitem-517">
						<masterclipid>masterclip-514</masterclipid>
						<name>TKO_011_WAR_Sh05300.mov</name>
						<enabled>TRUE</enabled>
						<duration>32</duration>
						<rate>
							<timebase>24</timebase>
							<ntsc>TRUE</ntsc>
						</rate>
						<start>43312</start>
						<end>43336</end>
						<in>4</in>
						<out>28</out>
						<pproTicksIn>42378336000</pproTicksIn>
						<pproTicksOut>296648352000</pproTicksOut>
						<alphatype>none</alphatype>
						<pixelaspectratio>square</pixelaspectratio>
						<anamorphic>FALSE</anamorphic>
						<file id="file-514">
							<name>TKO_011_WAR_Sh05300.mov</name>
							<pathurl>file://tri-stor01/Projects/TKO/SHOTS/_Refs_Movs_Burnin_FrameCounter/TKO_011_WAR_Sh05300.mov</pathurl>
							<rate>
								<timebase>24</timebase>
								<ntsc>TRUE</ntsc>
							</rate>
							<duration>32</duration>
							<timecode>
								<rate>
									<timebase>24</timebase>
									<ntsc>TRUE</ntsc>
								</rate>
								<string>19:54:30:07</string>
								<frame>1720087</frame>
								<displayformat>NDF</displayformat>
								<reel>
									<name>A0120014</name>
								</reel>
							</timecode>
							<media>
								<video>
									<samplecharacteristics>
										<rate>
											<timebase>24</timebase>
											<ntsc>TRUE</ntsc>
										</rate>
										<width>4096</width>
										<height>2160</height>
										<anamorphic>FALSE</anamorphic>
										<pixelaspectratio>square</pixelaspectratio>
										<fielddominance>none</fielddominance>
									</samplecharacteristics>
								</video>
							</media>
						</file>
						<logginginfo>
							<description></description>
							<scene></scene>
							<shottake></shottake>
							<lognote></lognote>
							<good></good>
							<originalvideofilename></originalvideofilename>
							<originalaudiofilename></originalaudiofilename>
						</logginginfo>
						<colorinfo>
							<lut></lut>
							<lut1></lut1>
							<asc_sop></asc_sop>
							<asc_sat></asc_sat>
							<lut2></lut2>
						</colorinfo>
						<labels>
							<label2>Violet</label2>
						</labels>
					</clipitem>
					<clipitem id="clipitem-518">
						<masterclipid>masterclip-515</masterclipid>
						<name>TKO_011_WAR_Sh05310.mov</name>
						<enabled>TRUE</enabled>
						<duration>32</duration>
						<rate>
							<timebase>24</timebase>
							<ntsc>TRUE</ntsc>
						</rate>
						<start>43336</start>
						<end>43360</end>
						<in>4</in>
						<out>28</out>
						<pproTicksIn>42378336000</pproTicksIn>
						<pproTicksOut>296648352000</pproTicksOut>
						<alphatype>none</alphatype>
						<pixelaspectratio>square</pixelaspectratio>
						<anamorphic>FALSE</anamorphic>
						<file id="file-515">
							<name>TKO_011_WAR_Sh05310.mov</name>
							<pathurl>file://tri-stor01/Projects/TKO/SHOTS/_Refs_Movs_Burnin_FrameCounter/TKO_011_WAR_Sh05310.mov</pathurl>
							<rate>
								<timebase>24</timebase>
								<ntsc>TRUE</ntsc>
							</rate>
							<duration>32</duration>
							<timecode>
								<rate>
									<timebase>24</timebase>
									<ntsc>TRUE</ntsc>
								</rate>
								<string>03:20:59:19</string>
								<frame>289435</frame>
								<displayformat>NDF</displayformat>
								<reel>
									<name>C0060005</name>
								</reel>
							</timecode>
							<media>
								<video>
									<samplecharacteristics>
										<rate>
											<timebase>24</timebase>
											<ntsc>TRUE</ntsc>
										</rate>
										<width>3840</width>
										<height>2160</height>
										<anamorphic>FALSE</anamorphic>
										<pixelaspectratio>square</pixelaspectratio>
										<fielddominance>none</fielddominance>
									</samplecharacteristics>
								</video>
							</media>
						</file>
						<logginginfo>
							<description></description>
							<scene></scene>
							<shottake></shottake>
							<lognote></lognote>
							<good></good>
							<originalvideofilename></originalvideofilename>
							<originalaudiofilename></originalaudiofilename>
						</logginginfo>
						<colorinfo>
							<lut></lut>
							<lut1></lut1>
							<asc_sop></asc_sop>
							<asc_sat></asc_sat>
							<lut2></lut2>
						</colorinfo>
						<labels>
							<label2>Violet</label2>
						</labels>
					</clipitem>
					<clipitem id="clipitem-519">
						<masterclipid>masterclip-516</masterclipid>
						<name>TKO_011_WAR_Sh05320.mov</name>
						<enabled>TRUE</enabled>
						<duration>30</duration>
						<rate>
							<timebase>24</timebase>
							<ntsc>TRUE</ntsc>
						</rate>
						<start>43360</start>
						<end>43382</end>
						<in>4</in>
						<out>26</out>
						<pproTicksIn>42378336000</pproTicksIn>
						<pproTicksOut>275459184000</pproTicksOut>
						<alphatype>none</alphatype>
						<pixelaspectratio>square</pixelaspectratio>
						<anamorphic>FALSE</anamorphic>
						<file id="file-516">
							<name>TKO_011_WAR_Sh05320.mov</name>
							<pathurl>file://tri-stor01/Projects/TKO/SHOTS/_Refs_Movs_Burnin_FrameCounter/TKO_011_WAR_Sh05320.mov</pathurl>
							<rate>
								<timebase>24</timebase>
								<ntsc>TRUE</ntsc>
							</rate>
							<duration>30</duration>
							<timecode>
								<rate>
									<timebase>24</timebase>
									<ntsc>TRUE</ntsc>
								</rate>
								<string>19:54:31:09</string>
								<frame>1720113</frame>
								<displayformat>NDF</displayformat>
								<reel>
									<name>A0120014</name>
								</reel>
							</timecode>
							<media>
								<video>
									<samplecharacteristics>
										<rate>
											<timebase>24</timebase>
											<ntsc>TRUE</ntsc>
										</rate>
										<width>4096</width>
										<height>2160</height>
										<anamorphic>FALSE</anamorphic>
										<pixelaspectratio>square</pixelaspectratio>
										<fielddominance>none</fielddominance>
									</samplecharacteristics>
								</video>
							</media>
						</file>
						<logginginfo>
							<description></description>
							<scene></scene>
							<shottake></shottake>
							<lognote></lognote>
							<good></good>
							<originalvideofilename></originalvideofilename>
							<originalaudiofilename></originalaudiofilename>
						</logginginfo>
						<colorinfo>
							<lut></lut>
							<lut1></lut1>
							<asc_sop></asc_sop>
							<asc_sat></asc_sat>
							<lut2></lut2>
						</colorinfo>
						<labels>
							<label2>Violet</label2>
						</labels>
					</clipitem>
					<clipitem id="clipitem-520">
						<masterclipid>masterclip-517</masterclipid>
						<name>TKO_011_WAR_Sh05330.mov</name>
						<enabled>TRUE</enabled>
						<duration>42</duration>
						<rate>
							<timebase>24</timebase>
							<ntsc>TRUE</ntsc>
						</rate>
						<start>43382</start>
						<end>43416</end>
						<in>4</in>
						<out>38</out>
						<pproTicksIn>42378336000</pproTicksIn>
						<pproTicksOut>402594192000</pproTicksOut>
						<alphatype>none</alphatype>
						<pixelaspectratio>square</pixelaspectratio>
						<anamorphic>FALSE</anamorphic>
						<file id="file-517">
							<name>TKO_011_WAR_Sh05330.mov</name>
							<pathurl>file://tri-stor01/Projects/TKO/SHOTS/_Refs_Movs_Burnin_FrameCounter/TKO_011_WAR_Sh05330.mov</pathurl>
							<rate>
								<timebase>24</timebase>
								<ntsc>TRUE</ntsc>
							</rate>
							<duration>42</duration>
							<timecode>
								<rate>
									<timebase>24</timebase>
									<ntsc>TRUE</ntsc>
								</rate>
								<string>03:21:00:19</string>
								<frame>289459</frame>
								<displayformat>NDF</displayformat>
								<reel>
									<name>C0060005</name>
								</reel>
							</timecode>
							<media>
								<video>
									<samplecharacteristics>
										<rate>
											<timebase>24</timebase>
											<ntsc>TRUE</ntsc>
										</rate>
										<width>3840</width>
										<height>2160</height>
										<anamorphic>FALSE</anamorphic>
										<pixelaspectratio>square</pixelaspectratio>
										<fielddominance>none</fielddominance>
									</samplecharacteristics>
								</video>
							</media>
						</file>
						<logginginfo>
							<description></description>
							<scene></scene>
							<shottake></shottake>
							<lognote></lognote>
							<good></good>
							<originalvideofilename></originalvideofilename>
							<originalaudiofilename></originalaudiofilename>
						</logginginfo>
						<colorinfo>
							<lut></lut>
							<lut1></lut1>
							<asc_sop></asc_sop>
							<asc_sat></asc_sat>
							<lut2></lut2>
						</colorinfo>
						<labels>
							<label2>Violet</label2>
						</labels>
					</clipitem>
					<clipitem id="clipitem-521">
						<masterclipid>masterclip-518</masterclipid>
						<name>TKO_011_WAR_Sh05340.mov</name>
						<enabled>TRUE</enabled>
						<duration>57</duration>
						<rate>
							<timebase>24</timebase>
							<ntsc>TRUE</ntsc>
						</rate>
						<start>43416</start>
						<end>43465</end>
						<in>4</in>
						<out>53</out>
						<pproTicksIn>42378336000</pproTicksIn>
						<pproTicksOut>561512952000</pproTicksOut>
						<alphatype>none</alphatype>
						<pixelaspectratio>square</pixelaspectratio>
						<anamorphic>FALSE</anamorphic>
						<file id="file-518">
							<name>TKO_011_WAR_Sh05340.mov</name>
							<pathurl>file://tri-stor01/Projects/TKO/SHOTS/_Refs_Movs_Burnin_FrameCounter/TKO_011_WAR_Sh05340.mov</pathurl>
							<rate>
								<timebase>24</timebase>
								<ntsc>TRUE</ntsc>
							</rate>
							<duration>57</duration>
							<timecode>
								<rate>
									<timebase>24</timebase>
									<ntsc>TRUE</ntsc>
								</rate>
								<string>19:27:22:16</string>
								<frame>1681024</frame>
								<displayformat>NDF</displayformat>
								<reel>
									<name>A0120011</name>
								</reel>
							</timecode>
							<media>
								<video>
									<samplecharacteristics>
										<rate>
											<timebase>24</timebase>
											<ntsc>TRUE</ntsc>
										</rate>
										<width>4096</width>
										<height>2160</height>
										<anamorphic>FALSE</anamorphic>
										<pixelaspectratio>square</pixelaspectratio>
										<fielddominance>none</fielddominance>
									</samplecharacteristics>
								</video>
							</media>
						</file>
						<logginginfo>
							<description></description>
							<scene></scene>
							<shottake></shottake>
							<lognote></lognote>
							<good></good>
							<originalvideofilename></originalvideofilename>
							<originalaudiofilename></originalaudiofilename>
						</logginginfo>
						<colorinfo>
							<lut></lut>
							<lut1></lut1>
							<asc_sop></asc_sop>
							<asc_sat></asc_sat>
							<lut2></lut2>
						</colorinfo>
						<labels>
							<label2>Violet</label2>
						</labels>
					</clipitem>
					<clipitem id="clipitem-522">
						<masterclipid>masterclip-519</masterclipid>
						<name>TKO_011_WAR_Sh05350.mov</name>
						<enabled>TRUE</enabled>
						<duration>51</duration>
						<rate>
							<timebase>24</timebase>
							<ntsc>TRUE</ntsc>
						</rate>
						<start>43465</start>
						<end>43508</end>
						<in>4</in>
						<out>47</out>
						<pproTicksIn>42378336000</pproTicksIn>
						<pproTicksOut>497945448000</pproTicksOut>
						<alphatype>none</alphatype>
						<pixelaspectratio>square</pixelaspectratio>
						<anamorphic>FALSE</anamorphic>
						<file id="file-519">
							<name>TKO_011_WAR_Sh05350.mov</name>
							<pathurl>file://tri-stor01/Projects/TKO/SHOTS/_Refs_Movs_Burnin_FrameCounter/TKO_011_WAR_Sh05350.mov</pathurl>
							<rate>
								<timebase>24</timebase>
								<ntsc>TRUE</ntsc>
							</rate>
							<duration>51</duration>
							<timecode>
								<rate>
									<timebase>24</timebase>
									<ntsc>TRUE</ntsc>
								</rate>
								<string>03:24:04:23</string>
								<frame>293879</frame>
								<displayformat>NDF</displayformat>
								<reel>
									<name>C0060008</name>
								</reel>
							</timecode>
							<media>
								<video>
									<samplecharacteristics>
										<rate>
											<timebase>24</timebase>
											<ntsc>TRUE</ntsc>
										</rate>
										<width>3840</width>
										<height>2160</height>
										<anamorphic>FALSE</anamorphic>
										<pixelaspectratio>square</pixelaspectratio>
										<fielddominance>none</fielddominance>
									</samplecharacteristics>
								</video>
							</media>
						</file>
						<logginginfo>
							<description></description>
							<scene></scene>
							<shottake></shottake>
							<lognote></lognote>
							<good></good>
							<originalvideofilename></originalvideofilename>
							<originalaudiofilename></originalaudiofilename>
						</logginginfo>
						<colorinfo>
							<lut></lut>
							<lut1></lut1>
							<asc_sop></asc_sop>
							<asc_sat></asc_sat>
							<lut2></lut2>
						</colorinfo>
						<labels>
							<label2>Violet</label2>
						</labels>
					</clipitem>
					<clipitem id="clipitem-523">
						<masterclipid>masterclip-520</masterclipid>
						<name>TKO_011_WAR_Sh05360.mov</name>
						<enabled>TRUE</enabled>
						<duration>59</duration>
						<rate>
							<timebase>24</timebase>
							<ntsc>TRUE</ntsc>
						</rate>
						<start>43508</start>
						<end>43559</end>
						<in>4</in>
						<out>55</out>
						<pproTicksIn>42378336000</pproTicksIn>
						<pproTicksOut>582702120000</pproTicksOut>
						<alphatype>none</alphatype>
						<pixelaspectratio>square</pixelaspectratio>
						<anamorphic>FALSE</anamorphic>
						<file id="file-520">
							<name>TKO_011_WAR_Sh05360.mov</name>
							<pathurl>file://tri-stor01/Projects/TKO/SHOTS/_Refs_Movs_Burnin_FrameCounter/TKO_011_WAR_Sh05360.mov</pathurl>
							<rate>
								<timebase>24</timebase>
								<ntsc>TRUE</ntsc>
							</rate>
							<duration>59</duration>
							<timecode>
								<rate>
									<timebase>24</timebase>
									<ntsc>TRUE</ntsc>
								</rate>
								<string>04:32:20:23</string>
								<frame>392183</frame>
								<displayformat>NDF</displayformat>
								<reel>
									<name>C0090004</name>
								</reel>
							</timecode>
							<media>
								<video>
									<samplecharacteristics>
										<rate>
											<timebase>24</timebase>
											<ntsc>TRUE</ntsc>
										</rate>
										<width>3840</width>
										<height>2160</height>
										<anamorphic>FALSE</anamorphic>
										<pixelaspectratio>square</pixelaspectratio>
										<fielddominance>none</fielddominance>
									</samplecharacteristics>
								</video>
							</media>
						</file>
						<logginginfo>
							<description></description>
							<scene></scene>
							<shottake></shottake>
							<lognote></lognote>
							<good></good>
							<originalvideofilename></originalvideofilename>
							<originalaudiofilename></originalaudiofilename>
						</logginginfo>
						<colorinfo>
							<lut></lut>
							<lut1></lut1>
							<asc_sop></asc_sop>
							<asc_sat></asc_sat>
							<lut2></lut2>
						</colorinfo>
						<labels>
							<label2>Violet</label2>
						</labels>
					</clipitem>
					<clipitem id="clipitem-524">
						<masterclipid>masterclip-521</masterclipid>
						<name>TKO_011_WAR_Sh05370.mov</name>
						<enabled>TRUE</enabled>
						<duration>113</duration>
						<rate>
							<timebase>24</timebase>
							<ntsc>TRUE</ntsc>
						</rate>
						<start>43559</start>
						<end>43664</end>
						<in>4</in>
						<out>109</out>
						<pproTicksIn>42378336000</pproTicksIn>
						<pproTicksOut>1154809656000</pproTicksOut>
						<alphatype>none</alphatype>
						<pixelaspectratio>square</pixelaspectratio>
						<anamorphic>FALSE</anamorphic>
						<file id="file-521">
							<name>TKO_011_WAR_Sh05370.mov</name>
							<pathurl>file://tri-stor01/Projects/TKO/SHOTS/_Refs_Movs_Burnin_FrameCounter/TKO_011_WAR_Sh05370.mov</pathurl>
							<rate>
								<timebase>24</timebase>
								<ntsc>TRUE</ntsc>
							</rate>
							<duration>113</duration>
							<timecode>
								<rate>
									<timebase>24</timebase>
									<ntsc>TRUE</ntsc>
								</rate>
								<string>14:51:23:14</string>
								<frame>1283606</frame>
								<displayformat>NDF</displayformat>
								<reel>
									<name>A0160010</name>
								</reel>
							</timecode>
							<media>
								<video>
									<samplecharacteristics>
										<rate>
											<timebase>24</timebase>
											<ntsc>TRUE</ntsc>
										</rate>
										<width>4096</width>
										<height>2160</height>
										<anamorphic>FALSE</anamorphic>
										<pixelaspectratio>square</pixelaspectratio>
										<fielddominance>none</fielddominance>
									</samplecharacteristics>
								</video>
							</media>
						</file>
						<logginginfo>
							<description></description>
							<scene></scene>
							<shottake></shottake>
							<lognote></lognote>
							<good></good>
							<originalvideofilename></originalvideofilename>
							<originalaudiofilename></originalaudiofilename>
						</logginginfo>
						<colorinfo>
							<lut></lut>
							<lut1></lut1>
							<asc_sop></asc_sop>
							<asc_sat></asc_sat>
							<lut2></lut2>
						</colorinfo>
						<labels>
							<label2>Violet</label2>
						</labels>
					</clipitem>
					<clipitem id="clipitem-525">
						<masterclipid>masterclip-522</masterclipid>
						<name>TKO_011_WAR_Sh05380.mov</name>
						<enabled>TRUE</enabled>
						<duration>82</duration>
						<rate>
							<timebase>24</timebase>
							<ntsc>TRUE</ntsc>
						</rate>
						<start>43664</start>
						<end>43739</end>
						<in>4</in>
						<out>79</out>
						<pproTicksIn>42378336000</pproTicksIn>
						<pproTicksOut>836972136000</pproTicksOut>
						<alphatype>none</alphatype>
						<pixelaspectratio>square</pixelaspectratio>
						<anamorphic>FALSE</anamorphic>
						<file id="file-522">
							<name>TKO_011_WAR_Sh05380.mov</name>
							<pathurl>file://tri-stor01/Projects/TKO/SHOTS/_Refs_Movs_Burnin_FrameCounter/TKO_011_WAR_Sh05380.mov</pathurl>
							<rate>
								<timebase>24</timebase>
								<ntsc>FALSE</ntsc>
							</rate>
							<duration>83</duration>
							<timecode>
								<rate>
									<timebase>24</timebase>
									<ntsc>FALSE</ntsc>
								</rate>
								<string>00:00:02:06</string>
								<frame>54</frame>
								<displayformat>NDF</displayformat>
							</timecode>
							<media>
								<video>
									<samplecharacteristics>
										<rate>
											<timebase>24</timebase>
											<ntsc>FALSE</ntsc>
										</rate>
										<width>960</width>
										<height>420</height>
										<anamorphic>FALSE</anamorphic>
										<pixelaspectratio>square</pixelaspectratio>
										<fielddominance>none</fielddominance>
									</samplecharacteristics>
								</video>
							</media>
						</file>
						<logginginfo>
							<description></description>
							<scene></scene>
							<shottake></shottake>
							<lognote></lognote>
							<good></good>
							<originalvideofilename></originalvideofilename>
							<originalaudiofilename></originalaudiofilename>
						</logginginfo>
						<colorinfo>
							<lut></lut>
							<lut1></lut1>
							<asc_sop></asc_sop>
							<asc_sat></asc_sat>
							<lut2></lut2>
						</colorinfo>
						<labels>
							<label2>Violet</label2>
						</labels>
					</clipitem>
					<clipitem id="clipitem-526">
						<masterclipid>masterclip-523</masterclipid>
						<name>TKO_011_WAR_Sh05390.mov</name>
						<enabled>TRUE</enabled>
						<duration>89</duration>
						<rate>
							<timebase>24</timebase>
							<ntsc>TRUE</ntsc>
						</rate>
						<start>43739</start>
						<end>43820</end>
						<in>4</in>
						<out>85</out>
						<pproTicksIn>42378336000</pproTicksIn>
						<pproTicksOut>900539640000</pproTicksOut>
						<alphatype>none</alphatype>
						<pixelaspectratio>square</pixelaspectratio>
						<anamorphic>FALSE</anamorphic>
						<file id="file-523">
							<name>TKO_011_WAR_Sh05390.mov</name>
							<pathurl>file://tri-stor01/Projects/TKO/SHOTS/_Refs_Movs_Burnin_FrameCounter/TKO_011_WAR_Sh05390.mov</pathurl>
							<rate>
								<timebase>24</timebase>
								<ntsc>TRUE</ntsc>
							</rate>
							<duration>89</duration>
							<timecode>
								<rate>
									<timebase>24</timebase>
									<ntsc>TRUE</ntsc>
								</rate>
								<string>18:10:13:21</string>
								<frame>1569933</frame>
								<displayformat>NDF</displayformat>
								<reel>
									<name>A0420003</name>
								</reel>
							</timecode>
							<media>
								<video>
									<samplecharacteristics>
										<rate>
											<timebase>24</timebase>
											<ntsc>TRUE</ntsc>
										</rate>
										<width>4096</width>
										<height>2160</height>
										<anamorphic>FALSE</anamorphic>
										<pixelaspectratio>square</pixelaspectratio>
										<fielddominance>none</fielddominance>
									</samplecharacteristics>
								</video>
							</media>
						</file>
						<logginginfo>
							<description></description>
							<scene></scene>
							<shottake></shottake>
							<lognote></lognote>
							<good></good>
							<originalvideofilename></originalvideofilename>
							<originalaudiofilename></originalaudiofilename>
						</logginginfo>
						<colorinfo>
							<lut></lut>
							<lut1></lut1>
							<asc_sop></asc_sop>
							<asc_sat></asc_sat>
							<lut2></lut2>
						</colorinfo>
						<labels>
							<label2>Violet</label2>
						</labels>
					</clipitem>
					<clipitem id="clipitem-527">
						<masterclipid>masterclip-524</masterclipid>
						<name>TKO_011_WAR_Sh05400.mov</name>
						<enabled>TRUE</enabled>
						<duration>67</duration>
						<rate>
							<timebase>24</timebase>
							<ntsc>TRUE</ntsc>
						</rate>
						<start>43820</start>
						<end>43879</end>
						<in>4</in>
						<out>63</out>
						<pproTicksIn>42378336000</pproTicksIn>
						<pproTicksOut>667458792000</pproTicksOut>
						<alphatype>none</alphatype>
						<pixelaspectratio>square</pixelaspectratio>
						<anamorphic>FALSE</anamorphic>
						<file id="file-524">
							<name>TKO_011_WAR_Sh05400.mov</name>
							<pathurl>file://tri-stor01/Projects/TKO/SHOTS/_Refs_Movs_Burnin_FrameCounter/TKO_011_WAR_Sh05400.mov</pathurl>
							<rate>
								<timebase>24</timebase>
								<ntsc>TRUE</ntsc>
							</rate>
							<duration>67</duration>
							<timecode>
								<rate>
									<timebase>24</timebase>
									<ntsc>TRUE</ntsc>
								</rate>
								<string>18:10:17:06</string>
								<frame>1570014</frame>
								<displayformat>NDF</displayformat>
								<reel>
									<name>B0360003</name>
								</reel>
							</timecode>
							<media>
								<video>
									<samplecharacteristics>
										<rate>
											<timebase>24</timebase>
											<ntsc>TRUE</ntsc>
										</rate>
										<width>4096</width>
										<height>2160</height>
										<anamorphic>FALSE</anamorphic>
										<pixelaspectratio>square</pixelaspectratio>
										<fielddominance>none</fielddominance>
									</samplecharacteristics>
								</video>
							</media>
						</file>
						<logginginfo>
							<description></description>
							<scene></scene>
							<shottake></shottake>
							<lognote></lognote>
							<good></good>
							<originalvideofilename></originalvideofilename>
							<originalaudiofilename></originalaudiofilename>
						</logginginfo>
						<colorinfo>
							<lut></lut>
							<lut1></lut1>
							<asc_sop></asc_sop>
							<asc_sat></asc_sat>
							<lut2></lut2>
						</colorinfo>
						<labels>
							<label2>Violet</label2>
						</labels>
					</clipitem>
					<clipitem id="clipitem-528">
						<masterclipid>masterclip-525</masterclipid>
						<name>TKO_011_WAR_Sh05410.mov</name>
						<enabled>TRUE</enabled>
						<duration>36</duration>
						<rate>
							<timebase>24</timebase>
							<ntsc>TRUE</ntsc>
						</rate>
						<start>43879</start>
						<end>43907</end>
						<in>4</in>
						<out>32</out>
						<pproTicksIn>42378336000</pproTicksIn>
						<pproTicksOut>339026688000</pproTicksOut>
						<alphatype>none</alphatype>
						<pixelaspectratio>square</pixelaspectratio>
						<anamorphic>FALSE</anamorphic>
						<file id="file-525">
							<name>TKO_011_WAR_Sh05410.mov</name>
							<pathurl>file://tri-stor01/Projects/TKO/SHOTS/_Refs_Movs_Burnin_FrameCounter/TKO_011_WAR_Sh05410.mov</pathurl>
							<rate>
								<timebase>24</timebase>
								<ntsc>TRUE</ntsc>
							</rate>
							<duration>36</duration>
							<timecode>
								<rate>
									<timebase>24</timebase>
									<ntsc>TRUE</ntsc>
								</rate>
								<string>04:42:43:08</string>
								<frame>407120</frame>
								<displayformat>NDF</displayformat>
								<reel>
									<name>C0090009</name>
								</reel>
							</timecode>
							<media>
								<video>
									<samplecharacteristics>
										<rate>
											<timebase>24</timebase>
											<ntsc>TRUE</ntsc>
										</rate>
										<width>3840</width>
										<height>2160</height>
										<anamorphic>FALSE</anamorphic>
										<pixelaspectratio>square</pixelaspectratio>
										<fielddominance>none</fielddominance>
									</samplecharacteristics>
								</video>
							</media>
						</file>
						<logginginfo>
							<description></description>
							<scene></scene>
							<shottake></shottake>
							<lognote></lognote>
							<good></good>
							<originalvideofilename></originalvideofilename>
							<originalaudiofilename></originalaudiofilename>
						</logginginfo>
						<colorinfo>
							<lut></lut>
							<lut1></lut1>
							<asc_sop></asc_sop>
							<asc_sat></asc_sat>
							<lut2></lut2>
						</colorinfo>
						<labels>
							<label2>Violet</label2>
						</labels>
					</clipitem>
					<clipitem id="clipitem-529">
						<masterclipid>masterclip-526</masterclipid>
						<name>TKO_011_WAR_Sh05420.mov</name>
						<enabled>TRUE</enabled>
						<duration>52</duration>
						<rate>
							<timebase>24</timebase>
							<ntsc>TRUE</ntsc>
						</rate>
						<start>43907</start>
						<end>43951</end>
						<in>4</in>
						<out>48</out>
						<pproTicksIn>42378336000</pproTicksIn>
						<pproTicksOut>508540032000</pproTicksOut>
						<alphatype>none</alphatype>
						<pixelaspectratio>square</pixelaspectratio>
						<anamorphic>FALSE</anamorphic>
						<file id="file-526">
							<name>TKO_011_WAR_Sh05420.mov</name>
							<pathurl>file://tri-stor01/Projects/TKO/SHOTS/_Refs_Movs_Burnin_FrameCounter/TKO_011_WAR_Sh05420.mov</pathurl>
							<rate>
								<timebase>24</timebase>
								<ntsc>TRUE</ntsc>
							</rate>
							<duration>52</duration>
							<timecode>
								<rate>
									<timebase>24</timebase>
									<ntsc>TRUE</ntsc>
								</rate>
								<string>15:53:30:22</string>
								<frame>1373062</frame>
								<displayformat>NDF</displayformat>
								<reel>
									<name>B0130013</name>
								</reel>
							</timecode>
							<media>
								<video>
									<samplecharacteristics>
										<rate>
											<timebase>24</timebase>
											<ntsc>TRUE</ntsc>
										</rate>
										<width>4096</width>
										<height>2160</height>
										<anamorphic>FALSE</anamorphic>
										<pixelaspectratio>square</pixelaspectratio>
										<fielddominance>none</fielddominance>
									</samplecharacteristics>
								</video>
							</media>
						</file>
						<logginginfo>
							<description></description>
							<scene></scene>
							<shottake></shottake>
							<lognote></lognote>
							<good></good>
							<originalvideofilename></originalvideofilename>
							<originalaudiofilename></originalaudiofilename>
						</logginginfo>
						<colorinfo>
							<lut></lut>
							<lut1></lut1>
							<asc_sop></asc_sop>
							<asc_sat></asc_sat>
							<lut2></lut2>
						</colorinfo>
						<labels>
							<label2>Violet</label2>
						</labels>
					</clipitem>
					<clipitem id="clipitem-530">
						<masterclipid>masterclip-527</masterclipid>
						<name>TKO_011_WAR_Sh05430.mov</name>
						<enabled>TRUE</enabled>
						<duration>128</duration>
						<rate>
							<timebase>24</timebase>
							<ntsc>TRUE</ntsc>
						</rate>
						<start>43951</start>
						<end>44071</end>
						<in>4</in>
						<out>124</out>
						<pproTicksIn>42378336000</pproTicksIn>
						<pproTicksOut>1313728416000</pproTicksOut>
						<alphatype>none</alphatype>
						<pixelaspectratio>square</pixelaspectratio>
						<anamorphic>FALSE</anamorphic>
						<file id="file-527">
							<name>TKO_011_WAR_Sh05430.mov</name>
							<pathurl>file://tri-stor01/Projects/TKO/SHOTS/_Refs_Movs_Burnin_FrameCounter/TKO_011_WAR_Sh05430.mov</pathurl>
							<rate>
								<timebase>24</timebase>
								<ntsc>TRUE</ntsc>
							</rate>
							<duration>128</duration>
							<timecode>
								<rate>
									<timebase>24</timebase>
									<ntsc>TRUE</ntsc>
								</rate>
								<string>15:32:43:03</string>
								<frame>1343115</frame>
								<displayformat>NDF</displayformat>
								<reel>
									<name>A0160013</name>
								</reel>
							</timecode>
							<media>
								<video>
									<samplecharacteristics>
										<rate>
											<timebase>24</timebase>
											<ntsc>TRUE</ntsc>
										</rate>
										<width>4096</width>
										<height>2160</height>
										<anamorphic>FALSE</anamorphic>
										<pixelaspectratio>square</pixelaspectratio>
										<fielddominance>none</fielddominance>
									</samplecharacteristics>
								</video>
							</media>
						</file>
						<logginginfo>
							<description></description>
							<scene></scene>
							<shottake></shottake>
							<lognote></lognote>
							<good></good>
							<originalvideofilename></originalvideofilename>
							<originalaudiofilename></originalaudiofilename>
						</logginginfo>
						<colorinfo>
							<lut></lut>
							<lut1></lut1>
							<asc_sop></asc_sop>
							<asc_sat></asc_sat>
							<lut2></lut2>
						</colorinfo>
						<labels>
							<label2>Violet</label2>
						</labels>
					</clipitem>
					<clipitem id="clipitem-531">
						<masterclipid>masterclip-528</masterclipid>
						<name>TKO_011_WAR_Sh05440.mov</name>
						<enabled>TRUE</enabled>
						<duration>94</duration>
						<rate>
							<timebase>24</timebase>
							<ntsc>TRUE</ntsc>
						</rate>
						<start>44071</start>
						<end>44157</end>
						<in>4</in>
						<out>90</out>
						<pproTicksIn>42378336000</pproTicksIn>
						<pproTicksOut>953512560000</pproTicksOut>
						<alphatype>none</alphatype>
						<pixelaspectratio>square</pixelaspectratio>
						<anamorphic>FALSE</anamorphic>
						<file id="file-528">
							<name>TKO_011_WAR_Sh05440.mov</name>
							<pathurl>file://tri-stor01/Projects/TKO/SHOTS/_Refs_Movs_Burnin_FrameCounter/TKO_011_WAR_Sh05440.mov</pathurl>
							<rate>
								<timebase>24</timebase>
								<ntsc>TRUE</ntsc>
							</rate>
							<duration>94</duration>
							<timecode>
								<rate>
									<timebase>24</timebase>
									<ntsc>TRUE</ntsc>
								</rate>
								<string>15:32:47:11</string>
								<frame>1343219</frame>
								<displayformat>NDF</displayformat>
								<reel>
									<name>B0130011</name>
								</reel>
							</timecode>
							<media>
								<video>
									<samplecharacteristics>
										<rate>
											<timebase>24</timebase>
											<ntsc>TRUE</ntsc>
										</rate>
										<width>4096</width>
										<height>2160</height>
										<anamorphic>FALSE</anamorphic>
										<pixelaspectratio>square</pixelaspectratio>
										<fielddominance>none</fielddominance>
									</samplecharacteristics>
								</video>
							</media>
						</file>
						<logginginfo>
							<description></description>
							<scene></scene>
							<shottake></shottake>
							<lognote></lognote>
							<good></good>
							<originalvideofilename></originalvideofilename>
							<originalaudiofilename></originalaudiofilename>
						</logginginfo>
						<colorinfo>
							<lut></lut>
							<lut1></lut1>
							<asc_sop></asc_sop>
							<asc_sat></asc_sat>
							<lut2></lut2>
						</colorinfo>
						<labels>
							<label2>Violet</label2>
						</labels>
					</clipitem>
					<clipitem id="clipitem-532">
						<masterclipid>masterclip-529</masterclipid>
						<name>TKO_011_WAR_Sh05450.mov</name>
						<enabled>TRUE</enabled>
						<duration>88</duration>
						<rate>
							<timebase>24</timebase>
							<ntsc>TRUE</ntsc>
						</rate>
						<start>44157</start>
						<end>44237</end>
						<in>4</in>
						<out>84</out>
						<pproTicksIn>42378336000</pproTicksIn>
						<pproTicksOut>889945056000</pproTicksOut>
						<alphatype>none</alphatype>
						<pixelaspectratio>square</pixelaspectratio>
						<anamorphic>FALSE</anamorphic>
						<file id="file-529">
							<name>TKO_011_WAR_Sh05450.mov</name>
							<pathurl>file://tri-stor01/Projects/TKO/SHOTS/_Refs_Movs_Burnin_FrameCounter/TKO_011_WAR_Sh05450.mov</pathurl>
							<rate>
								<timebase>24</timebase>
								<ntsc>TRUE</ntsc>
							</rate>
							<duration>88</duration>
							<timecode>
								<rate>
									<timebase>24</timebase>
									<ntsc>TRUE</ntsc>
								</rate>
								<string>15:53:47:00</string>
								<frame>1373448</frame>
								<displayformat>NDF</displayformat>
								<reel>
									<name>B0130013</name>
								</reel>
							</timecode>
							<media>
								<video>
									<samplecharacteristics>
										<rate>
											<timebase>24</timebase>
											<ntsc>TRUE</ntsc>
										</rate>
										<width>4096</width>
										<height>2160</height>
										<anamorphic>FALSE</anamorphic>
										<pixelaspectratio>square</pixelaspectratio>
										<fielddominance>none</fielddominance>
									</samplecharacteristics>
								</video>
							</media>
						</file>
						<logginginfo>
							<description></description>
							<scene></scene>
							<shottake></shottake>
							<lognote></lognote>
							<good></good>
							<originalvideofilename></originalvideofilename>
							<originalaudiofilename></originalaudiofilename>
						</logginginfo>
						<colorinfo>
							<lut></lut>
							<lut1></lut1>
							<asc_sop></asc_sop>
							<asc_sat></asc_sat>
							<lut2></lut2>
						</colorinfo>
						<labels>
							<label2>Violet</label2>
						</labels>
					</clipitem>
					<clipitem id="clipitem-533">
						<masterclipid>masterclip-530</masterclipid>
						<name>TKO_011_WAR_Sh05460.mov</name>
						<enabled>TRUE</enabled>
						<duration>85</duration>
						<rate>
							<timebase>24</timebase>
							<ntsc>TRUE</ntsc>
						</rate>
						<start>44237</start>
						<end>44314</end>
						<in>4</in>
						<out>81</out>
						<pproTicksIn>42378336000</pproTicksIn>
						<pproTicksOut>858161304000</pproTicksOut>
						<alphatype>none</alphatype>
						<pixelaspectratio>square</pixelaspectratio>
						<anamorphic>FALSE</anamorphic>
						<file id="file-530">
							<name>TKO_011_WAR_Sh05460.mov</name>
							<pathurl>file://tri-stor01/Projects/TKO/SHOTS/_Refs_Movs_Burnin_FrameCounter/TKO_011_WAR_Sh05460.mov</pathurl>
							<rate>
								<timebase>24</timebase>
								<ntsc>TRUE</ntsc>
							</rate>
							<duration>85</duration>
							<timecode>
								<rate>
									<timebase>24</timebase>
									<ntsc>TRUE</ntsc>
								</rate>
								<string>15:53:51:02</string>
								<frame>1373546</frame>
								<displayformat>NDF</displayformat>
								<reel>
									<name>A0160015</name>
								</reel>
							</timecode>
							<media>
								<video>
									<samplecharacteristics>
										<rate>
											<timebase>24</timebase>
											<ntsc>TRUE</ntsc>
										</rate>
										<width>4096</width>
										<height>2160</height>
										<anamorphic>FALSE</anamorphic>
										<pixelaspectratio>square</pixelaspectratio>
										<fielddominance>none</fielddominance>
									</samplecharacteristics>
								</video>
							</media>
						</file>
						<logginginfo>
							<description></description>
							<scene></scene>
							<shottake></shottake>
							<lognote></lognote>
							<good></good>
							<originalvideofilename></originalvideofilename>
							<originalaudiofilename></originalaudiofilename>
						</logginginfo>
						<colorinfo>
							<lut></lut>
							<lut1></lut1>
							<asc_sop></asc_sop>
							<asc_sat></asc_sat>
							<lut2></lut2>
						</colorinfo>
						<labels>
							<label2>Violet</label2>
						</labels>
					</clipitem>
					<clipitem id="clipitem-534">
						<masterclipid>masterclip-531</masterclipid>
						<name>TKO_011_WAR_Sh05470.mov</name>
						<enabled>TRUE</enabled>
						<duration>83</duration>
						<rate>
							<timebase>24</timebase>
							<ntsc>TRUE</ntsc>
						</rate>
						<start>44314</start>
						<end>44389</end>
						<in>4</in>
						<out>79</out>
						<pproTicksIn>42378336000</pproTicksIn>
						<pproTicksOut>836972136000</pproTicksOut>
						<alphatype>none</alphatype>
						<pixelaspectratio>square</pixelaspectratio>
						<anamorphic>FALSE</anamorphic>
						<file id="file-531">
							<name>TKO_011_WAR_Sh05470.mov</name>
							<pathurl>file://tri-stor01/Projects/TKO/SHOTS/_Refs_Movs_Burnin_FrameCounter/TKO_011_WAR_Sh05470.mov</pathurl>
							<rate>
								<timebase>24</timebase>
								<ntsc>TRUE</ntsc>
							</rate>
							<duration>83</duration>
							<timecode>
								<rate>
									<timebase>24</timebase>
									<ntsc>TRUE</ntsc>
								</rate>
								<string>04:38:45:04</string>
								<frame>401404</frame>
								<displayformat>NDF</displayformat>
								<reel>
									<name>C0090007</name>
								</reel>
							</timecode>
							<media>
								<video>
									<samplecharacteristics>
										<rate>
											<timebase>24</timebase>
											<ntsc>TRUE</ntsc>
										</rate>
										<width>3840</width>
										<height>2160</height>
										<anamorphic>FALSE</anamorphic>
										<pixelaspectratio>square</pixelaspectratio>
										<fielddominance>none</fielddominance>
									</samplecharacteristics>
								</video>
							</media>
						</file>
						<logginginfo>
							<description></description>
							<scene></scene>
							<shottake></shottake>
							<lognote></lognote>
							<good></good>
							<originalvideofilename></originalvideofilename>
							<originalaudiofilename></originalaudiofilename>
						</logginginfo>
						<colorinfo>
							<lut></lut>
							<lut1></lut1>
							<asc_sop></asc_sop>
							<asc_sat></asc_sat>
							<lut2></lut2>
						</colorinfo>
						<labels>
							<label2>Violet</label2>
						</labels>
					</clipitem>
					<clipitem id="clipitem-535">
						<masterclipid>masterclip-532</masterclipid>
						<name>TKO_011_WAR_Sh05480.mov</name>
						<enabled>TRUE</enabled>
						<duration>58</duration>
						<rate>
							<timebase>24</timebase>
							<ntsc>TRUE</ntsc>
						</rate>
						<start>44389</start>
						<end>44439</end>
						<in>4</in>
						<out>54</out>
						<pproTicksIn>42378336000</pproTicksIn>
						<pproTicksOut>572107536000</pproTicksOut>
						<alphatype>none</alphatype>
						<pixelaspectratio>square</pixelaspectratio>
						<anamorphic>FALSE</anamorphic>
						<file id="file-532">
							<name>TKO_011_WAR_Sh05480.mov</name>
							<pathurl>file://tri-stor01/Projects/TKO/SHOTS/_Refs_Movs_Burnin_FrameCounter/TKO_011_WAR_Sh05480.mov</pathurl>
							<rate>
								<timebase>24</timebase>
								<ntsc>TRUE</ntsc>
							</rate>
							<duration>58</duration>
							<timecode>
								<rate>
									<timebase>24</timebase>
									<ntsc>TRUE</ntsc>
								</rate>
								<string>15:33:00:18</string>
								<frame>1343538</frame>
								<displayformat>NDF</displayformat>
								<reel>
									<name>A0160013</name>
								</reel>
							</timecode>
							<media>
								<video>
									<samplecharacteristics>
										<rate>
											<timebase>24</timebase>
											<ntsc>TRUE</ntsc>
										</rate>
										<width>4096</width>
										<height>2160</height>
										<anamorphic>FALSE</anamorphic>
										<pixelaspectratio>square</pixelaspectratio>
										<fielddominance>none</fielddominance>
									</samplecharacteristics>
								</video>
							</media>
						</file>
						<logginginfo>
							<description></description>
							<scene></scene>
							<shottake></shottake>
							<lognote></lognote>
							<good></good>
							<originalvideofilename></originalvideofilename>
							<originalaudiofilename></originalaudiofilename>
						</logginginfo>
						<colorinfo>
							<lut></lut>
							<lut1></lut1>
							<asc_sop></asc_sop>
							<asc_sat></asc_sat>
							<lut2></lut2>
						</colorinfo>
						<labels>
							<label2>Violet</label2>
						</labels>
					</clipitem>
					<clipitem id="clipitem-536">
						<masterclipid>masterclip-533</masterclipid>
						<name>TKO_011_WAR_Sh05490.mov</name>
						<enabled>TRUE</enabled>
						<duration>94</duration>
						<rate>
							<timebase>24</timebase>
							<ntsc>TRUE</ntsc>
						</rate>
						<start>44439</start>
						<end>44525</end>
						<in>4</in>
						<out>90</out>
						<pproTicksIn>42378336000</pproTicksIn>
						<pproTicksOut>953512560000</pproTicksOut>
						<alphatype>none</alphatype>
						<pixelaspectratio>square</pixelaspectratio>
						<anamorphic>FALSE</anamorphic>
						<file id="file-533">
							<name>TKO_011_WAR_Sh05490.mov</name>
							<pathurl>file://tri-stor01/Projects/TKO/SHOTS/_Refs_Movs_Burnin_FrameCounter/TKO_011_WAR_Sh05490.mov</pathurl>
							<rate>
								<timebase>24</timebase>
								<ntsc>TRUE</ntsc>
							</rate>
							<duration>94</duration>
							<timecode>
								<rate>
									<timebase>24</timebase>
									<ntsc>TRUE</ntsc>
								</rate>
								<string>15:33:02:04</string>
								<frame>1343572</frame>
								<displayformat>NDF</displayformat>
								<reel>
									<name>B0130011</name>
								</reel>
							</timecode>
							<media>
								<video>
									<samplecharacteristics>
										<rate>
											<timebase>24</timebase>
											<ntsc>TRUE</ntsc>
										</rate>
										<width>4096</width>
										<height>2160</height>
										<anamorphic>FALSE</anamorphic>
										<pixelaspectratio>square</pixelaspectratio>
										<fielddominance>none</fielddominance>
									</samplecharacteristics>
								</video>
							</media>
						</file>
						<logginginfo>
							<description></description>
							<scene></scene>
							<shottake></shottake>
							<lognote></lognote>
							<good></good>
							<originalvideofilename></originalvideofilename>
							<originalaudiofilename></originalaudiofilename>
						</logginginfo>
						<colorinfo>
							<lut></lut>
							<lut1></lut1>
							<asc_sop></asc_sop>
							<asc_sat></asc_sat>
							<lut2></lut2>
						</colorinfo>
						<labels>
							<label2>Violet</label2>
						</labels>
					</clipitem>
					<clipitem id="clipitem-537">
						<masterclipid>masterclip-534</masterclipid>
						<name>TKO_011_WAR_Sh05500.mov</name>
						<enabled>TRUE</enabled>
						<duration>55</duration>
						<rate>
							<timebase>24</timebase>
							<ntsc>TRUE</ntsc>
						</rate>
						<start>44525</start>
						<end>44572</end>
						<in>4</in>
						<out>51</out>
						<pproTicksIn>42378336000</pproTicksIn>
						<pproTicksOut>540323784000</pproTicksOut>
						<alphatype>none</alphatype>
						<pixelaspectratio>square</pixelaspectratio>
						<anamorphic>FALSE</anamorphic>
						<file id="file-534">
							<name>TKO_011_WAR_Sh05500.mov</name>
							<pathurl>file://tri-stor01/Projects/TKO/SHOTS/_Refs_Movs_Burnin_FrameCounter/TKO_011_WAR_Sh05500.mov</pathurl>
							<rate>
								<timebase>24</timebase>
								<ntsc>TRUE</ntsc>
							</rate>
							<duration>55</duration>
							<timecode>
								<rate>
									<timebase>24</timebase>
									<ntsc>TRUE</ntsc>
								</rate>
								<string>04:28:05:03</string>
								<frame>386043</frame>
								<displayformat>NDF</displayformat>
								<reel>
									<name>C0090002</name>
								</reel>
							</timecode>
							<media>
								<video>
									<samplecharacteristics>
										<rate>
											<timebase>24</timebase>
											<ntsc>TRUE</ntsc>
										</rate>
										<width>3840</width>
										<height>2160</height>
										<anamorphic>FALSE</anamorphic>
										<pixelaspectratio>square</pixelaspectratio>
										<fielddominance>none</fielddominance>
									</samplecharacteristics>
								</video>
							</media>
						</file>
						<logginginfo>
							<description></description>
							<scene></scene>
							<shottake></shottake>
							<lognote></lognote>
							<good></good>
							<originalvideofilename></originalvideofilename>
							<originalaudiofilename></originalaudiofilename>
						</logginginfo>
						<colorinfo>
							<lut></lut>
							<lut1></lut1>
							<asc_sop></asc_sop>
							<asc_sat></asc_sat>
							<lut2></lut2>
						</colorinfo>
						<labels>
							<label2>Violet</label2>
						</labels>
					</clipitem>
					<clipitem id="clipitem-538">
						<masterclipid>masterclip-535</masterclipid>
						<name>TKO_011_WAR_Sh05510.mov</name>
						<enabled>TRUE</enabled>
						<duration>97</duration>
						<rate>
							<timebase>24</timebase>
							<ntsc>TRUE</ntsc>
						</rate>
						<start>44572</start>
						<end>44661</end>
						<in>4</in>
						<out>93</out>
						<pproTicksIn>42378336000</pproTicksIn>
						<pproTicksOut>985296312000</pproTicksOut>
						<alphatype>none</alphatype>
						<pixelaspectratio>square</pixelaspectratio>
						<anamorphic>FALSE</anamorphic>
						<file id="file-535">
							<name>TKO_011_WAR_Sh05510.mov</name>
							<pathurl>file://tri-stor01/Projects/TKO/SHOTS/_Refs_Movs_Burnin_FrameCounter/TKO_011_WAR_Sh05510.mov</pathurl>
							<rate>
								<timebase>24</timebase>
								<ntsc>TRUE</ntsc>
							</rate>
							<duration>97</duration>
							<timecode>
								<rate>
									<timebase>24</timebase>
									<ntsc>TRUE</ntsc>
								</rate>
								<string>00:25:52:01</string>
								<frame>37249</frame>
								<displayformat>NDF</displayformat>
							</timecode>
							<media>
								<video>
									<samplecharacteristics>
										<rate>
											<timebase>24</timebase>
											<ntsc>TRUE</ntsc>
										</rate>
										<width>1280</width>
										<height>720</height>
										<anamorphic>FALSE</anamorphic>
										<pixelaspectratio>square</pixelaspectratio>
										<fielddominance>none</fielddominance>
									</samplecharacteristics>
								</video>
							</media>
						</file>
						<logginginfo>
							<description></description>
							<scene></scene>
							<shottake></shottake>
							<lognote></lognote>
							<good></good>
							<originalvideofilename></originalvideofilename>
							<originalaudiofilename></originalaudiofilename>
						</logginginfo>
						<colorinfo>
							<lut></lut>
							<lut1></lut1>
							<asc_sop></asc_sop>
							<asc_sat></asc_sat>
							<lut2></lut2>
						</colorinfo>
						<labels>
							<label2>Violet</label2>
						</labels>
					</clipitem>
					<clipitem id="clipitem-539">
						<masterclipid>masterclip-536</masterclipid>
						<name>TKO_011_WAR_Sh05520.mov</name>
						<enabled>TRUE</enabled>
						<duration>34</duration>
						<rate>
							<timebase>24</timebase>
							<ntsc>TRUE</ntsc>
						</rate>
						<start>44661</start>
						<end>44687</end>
						<in>4</in>
						<out>30</out>
						<pproTicksIn>42378336000</pproTicksIn>
						<pproTicksOut>317837520000</pproTicksOut>
						<alphatype>none</alphatype>
						<pixelaspectratio>square</pixelaspectratio>
						<anamorphic>FALSE</anamorphic>
						<file id="file-536">
							<name>TKO_011_WAR_Sh05520.mov</name>
							<pathurl>file://tri-stor01/Projects/TKO/SHOTS/_Refs_Movs_Burnin_FrameCounter/TKO_011_WAR_Sh05520.mov</pathurl>
							<rate>
								<timebase>24</timebase>
								<ntsc>TRUE</ntsc>
							</rate>
							<duration>34</duration>
							<timecode>
								<rate>
									<timebase>24</timebase>
									<ntsc>TRUE</ntsc>
								</rate>
								<string>21:54:56:12</string>
								<frame>1893516</frame>
								<displayformat>NDF</displayformat>
								<reel>
									<name>B0360015</name>
								</reel>
							</timecode>
							<media>
								<video>
									<samplecharacteristics>
										<rate>
											<timebase>24</timebase>
											<ntsc>TRUE</ntsc>
										</rate>
										<width>4096</width>
										<height>2160</height>
										<anamorphic>FALSE</anamorphic>
										<pixelaspectratio>square</pixelaspectratio>
										<fielddominance>none</fielddominance>
									</samplecharacteristics>
								</video>
							</media>
						</file>
						<logginginfo>
							<description></description>
							<scene></scene>
							<shottake></shottake>
							<lognote></lognote>
							<good></good>
							<originalvideofilename></originalvideofilename>
							<originalaudiofilename></originalaudiofilename>
						</logginginfo>
						<colorinfo>
							<lut></lut>
							<lut1></lut1>
							<asc_sop></asc_sop>
							<asc_sat></asc_sat>
							<lut2></lut2>
						</colorinfo>
						<labels>
							<label2>Violet</label2>
						</labels>
					</clipitem>
					<clipitem id="clipitem-540">
						<masterclipid>masterclip-537</masterclipid>
						<name>TKO_011_WAR_Sh05530.mov</name>
						<enabled>TRUE</enabled>
						<duration>39</duration>
						<rate>
							<timebase>24</timebase>
							<ntsc>TRUE</ntsc>
						</rate>
						<start>44687</start>
						<end>44718</end>
						<in>4</in>
						<out>35</out>
						<pproTicksIn>42378336000</pproTicksIn>
						<pproTicksOut>370810440000</pproTicksOut>
						<alphatype>none</alphatype>
						<pixelaspectratio>square</pixelaspectratio>
						<anamorphic>FALSE</anamorphic>
						<file id="file-537">
							<name>TKO_011_WAR_Sh05530.mov</name>
							<pathurl>file://tri-stor01/Projects/TKO/SHOTS/_Refs_Movs_Burnin_FrameCounter/TKO_011_WAR_Sh05530.mov</pathurl>
							<rate>
								<timebase>24</timebase>
								<ntsc>TRUE</ntsc>
							</rate>
							<duration>39</duration>
							<timecode>
								<rate>
									<timebase>24</timebase>
									<ntsc>TRUE</ntsc>
								</rate>
								<string>21:55:38:09</string>
								<frame>1894521</frame>
								<displayformat>NDF</displayformat>
								<reel>
									<name>A0420015</name>
								</reel>
							</timecode>
							<media>
								<video>
									<samplecharacteristics>
										<rate>
											<timebase>24</timebase>
											<ntsc>TRUE</ntsc>
										</rate>
										<width>4096</width>
										<height>2160</height>
										<anamorphic>FALSE</anamorphic>
										<pixelaspectratio>square</pixelaspectratio>
										<fielddominance>none</fielddominance>
									</samplecharacteristics>
								</video>
							</media>
						</file>
						<logginginfo>
							<description></description>
							<scene></scene>
							<shottake></shottake>
							<lognote></lognote>
							<good></good>
							<originalvideofilename></originalvideofilename>
							<originalaudiofilename></originalaudiofilename>
						</logginginfo>
						<colorinfo>
							<lut></lut>
							<lut1></lut1>
							<asc_sop></asc_sop>
							<asc_sat></asc_sat>
							<lut2></lut2>
						</colorinfo>
						<labels>
							<label2>Violet</label2>
						</labels>
					</clipitem>
					<clipitem id="clipitem-541">
						<masterclipid>masterclip-538</masterclipid>
						<name>TKO_011_WAR_Sh05540.mov</name>
						<enabled>TRUE</enabled>
						<duration>83</duration>
						<rate>
							<timebase>24</timebase>
							<ntsc>TRUE</ntsc>
						</rate>
						<start>44718</start>
						<end>44793</end>
						<in>4</in>
						<out>79</out>
						<pproTicksIn>42378336000</pproTicksIn>
						<pproTicksOut>836972136000</pproTicksOut>
						<alphatype>none</alphatype>
						<pixelaspectratio>square</pixelaspectratio>
						<anamorphic>FALSE</anamorphic>
						<file id="file-538">
							<name>TKO_011_WAR_Sh05540.mov</name>
							<pathurl>file://tri-stor01/Projects/TKO/SHOTS/_Refs_Movs_Burnin_FrameCounter/TKO_011_WAR_Sh05540.mov</pathurl>
							<rate>
								<timebase>24</timebase>
								<ntsc>TRUE</ntsc>
							</rate>
							<duration>83</duration>
							<timecode>
								<rate>
									<timebase>24</timebase>
									<ntsc>TRUE</ntsc>
								</rate>
								<string>18:28:49:04</string>
								<frame>1596700</frame>
								<displayformat>NDF</displayformat>
								<reel>
									<name>B0360004</name>
								</reel>
							</timecode>
							<media>
								<video>
									<samplecharacteristics>
										<rate>
											<timebase>24</timebase>
											<ntsc>TRUE</ntsc>
										</rate>
										<width>4096</width>
										<height>2160</height>
										<anamorphic>FALSE</anamorphic>
										<pixelaspectratio>square</pixelaspectratio>
										<fielddominance>none</fielddominance>
									</samplecharacteristics>
								</video>
							</media>
						</file>
						<logginginfo>
							<description></description>
							<scene></scene>
							<shottake></shottake>
							<lognote></lognote>
							<good></good>
							<originalvideofilename></originalvideofilename>
							<originalaudiofilename></originalaudiofilename>
						</logginginfo>
						<colorinfo>
							<lut></lut>
							<lut1></lut1>
							<asc_sop></asc_sop>
							<asc_sat></asc_sat>
							<lut2></lut2>
						</colorinfo>
						<labels>
							<label2>Violet</label2>
						</labels>
					</clipitem>
					<clipitem id="clipitem-542">
						<masterclipid>masterclip-539</masterclipid>
						<name>TKO_011_WAR_Sh05550.mov</name>
						<enabled>TRUE</enabled>
						<duration>103</duration>
						<rate>
							<timebase>24</timebase>
							<ntsc>TRUE</ntsc>
						</rate>
						<start>44793</start>
						<end>44888</end>
						<in>4</in>
						<out>99</out>
						<pproTicksIn>42378336000</pproTicksIn>
						<pproTicksOut>1048863816000</pproTicksOut>
						<alphatype>none</alphatype>
						<pixelaspectratio>square</pixelaspectratio>
						<anamorphic>FALSE</anamorphic>
						<file id="file-539">
							<name>TKO_011_WAR_Sh05550.mov</name>
							<pathurl>file://tri-stor01/Projects/TKO/SHOTS/_Refs_Movs_Burnin_FrameCounter/TKO_011_WAR_Sh05550.mov</pathurl>
							<rate>
								<timebase>24</timebase>
								<ntsc>TRUE</ntsc>
							</rate>
							<duration>103</duration>
							<timecode>
								<rate>
									<timebase>24</timebase>
									<ntsc>TRUE</ntsc>
								</rate>
								<string>00:26:01:22</string>
								<frame>37486</frame>
								<displayformat>NDF</displayformat>
							</timecode>
							<media>
								<video>
									<samplecharacteristics>
										<rate>
											<timebase>24</timebase>
											<ntsc>TRUE</ntsc>
										</rate>
										<width>1280</width>
										<height>720</height>
										<anamorphic>FALSE</anamorphic>
										<pixelaspectratio>square</pixelaspectratio>
										<fielddominance>none</fielddominance>
									</samplecharacteristics>
								</video>
							</media>
						</file>
						<logginginfo>
							<description></description>
							<scene></scene>
							<shottake></shottake>
							<lognote></lognote>
							<good></good>
							<originalvideofilename></originalvideofilename>
							<originalaudiofilename></originalaudiofilename>
						</logginginfo>
						<colorinfo>
							<lut></lut>
							<lut1></lut1>
							<asc_sop></asc_sop>
							<asc_sat></asc_sat>
							<lut2></lut2>
						</colorinfo>
						<labels>
							<label2>Violet</label2>
						</labels>
					</clipitem>
					<clipitem id="clipitem-543">
						<masterclipid>masterclip-540</masterclipid>
						<name>TKO_011_WAR_Sh05560.mov</name>
						<enabled>TRUE</enabled>
						<duration>48</duration>
						<rate>
							<timebase>24</timebase>
							<ntsc>TRUE</ntsc>
						</rate>
						<start>44888</start>
						<end>44928</end>
						<in>4</in>
						<out>44</out>
						<pproTicksIn>42378336000</pproTicksIn>
						<pproTicksOut>466161696000</pproTicksOut>
						<alphatype>none</alphatype>
						<pixelaspectratio>square</pixelaspectratio>
						<anamorphic>FALSE</anamorphic>
						<file id="file-540">
							<name>TKO_011_WAR_Sh05560.mov</name>
							<pathurl>file://tri-stor01/Projects/TKO/SHOTS/_Refs_Movs_Burnin_FrameCounter/TKO_011_WAR_Sh05560.mov</pathurl>
							<rate>
								<timebase>24</timebase>
								<ntsc>TRUE</ntsc>
							</rate>
							<duration>48</duration>
							<timecode>
								<rate>
									<timebase>24</timebase>
									<ntsc>TRUE</ntsc>
								</rate>
								<string>18:10:28:18</string>
								<frame>1570290</frame>
								<displayformat>NDF</displayformat>
								<reel>
									<name>A0420003</name>
								</reel>
							</timecode>
							<media>
								<video>
									<samplecharacteristics>
										<rate>
											<timebase>24</timebase>
											<ntsc>TRUE</ntsc>
										</rate>
										<width>4096</width>
										<height>2160</height>
										<anamorphic>FALSE</anamorphic>
										<pixelaspectratio>square</pixelaspectratio>
										<fielddominance>none</fielddominance>
									</samplecharacteristics>
								</video>
							</media>
						</file>
						<logginginfo>
							<description></description>
							<scene></scene>
							<shottake></shottake>
							<lognote></lognote>
							<good></good>
							<originalvideofilename></originalvideofilename>
							<originalaudiofilename></originalaudiofilename>
						</logginginfo>
						<colorinfo>
							<lut></lut>
							<lut1></lut1>
							<asc_sop></asc_sop>
							<asc_sat></asc_sat>
							<lut2></lut2>
						</colorinfo>
						<labels>
							<label2>Violet</label2>
						</labels>
					</clipitem>
					<clipitem id="clipitem-544">
						<masterclipid>masterclip-541</masterclipid>
						<name>TKO_011_WAR_Sh05570.mov</name>
						<enabled>TRUE</enabled>
						<duration>514</duration>
						<rate>
							<timebase>24</timebase>
							<ntsc>TRUE</ntsc>
						</rate>
						<start>44928</start>
						<end>45434</end>
						<in>4</in>
						<out>510</out>
						<pproTicksIn>42378336000</pproTicksIn>
						<pproTicksOut>5403237840000</pproTicksOut>
						<alphatype>none</alphatype>
						<pixelaspectratio>square</pixelaspectratio>
						<anamorphic>FALSE</anamorphic>
						<file id="file-541">
							<name>TKO_011_WAR_Sh05570.mov</name>
							<pathurl>file://tri-stor01/Projects/TKO/SHOTS/_Refs_Movs_Burnin_FrameCounter/TKO_011_WAR_Sh05570.mov</pathurl>
							<rate>
								<timebase>24</timebase>
								<ntsc>TRUE</ntsc>
							</rate>
							<duration>514</duration>
							<timecode>
								<rate>
									<timebase>24</timebase>
									<ntsc>TRUE</ntsc>
								</rate>
								<string>18:11:54:01</string>
								<frame>1572337</frame>
								<displayformat>NDF</displayformat>
								<reel>
									<name>A0170002</name>
								</reel>
							</timecode>
							<media>
								<video>
									<samplecharacteristics>
										<rate>
											<timebase>24</timebase>
											<ntsc>TRUE</ntsc>
										</rate>
										<width>4096</width>
										<height>2160</height>
										<anamorphic>FALSE</anamorphic>
										<pixelaspectratio>square</pixelaspectratio>
										<fielddominance>none</fielddominance>
									</samplecharacteristics>
								</video>
							</media>
						</file>
						<logginginfo>
							<description></description>
							<scene></scene>
							<shottake></shottake>
							<lognote></lognote>
							<good></good>
							<originalvideofilename></originalvideofilename>
							<originalaudiofilename></originalaudiofilename>
						</logginginfo>
						<colorinfo>
							<lut></lut>
							<lut1></lut1>
							<asc_sop></asc_sop>
							<asc_sat></asc_sat>
							<lut2></lut2>
						</colorinfo>
						<labels>
							<label2>Violet</label2>
						</labels>
					</clipitem>
					<clipitem id="clipitem-545">
						<masterclipid>masterclip-542</masterclipid>
						<name>TKO_011_WAR_Sh05580.mov</name>
						<enabled>TRUE</enabled>
						<duration>50</duration>
						<rate>
							<timebase>24</timebase>
							<ntsc>TRUE</ntsc>
						</rate>
						<start>45434</start>
						<end>45476</end>
						<in>4</in>
						<out>46</out>
						<pproTicksIn>42378336000</pproTicksIn>
						<pproTicksOut>487350864000</pproTicksOut>
						<alphatype>none</alphatype>
						<pixelaspectratio>square</pixelaspectratio>
						<anamorphic>FALSE</anamorphic>
						<file id="file-542">
							<name>TKO_011_WAR_Sh05580.mov</name>
							<pathurl>file://tri-stor01/Projects/TKO/SHOTS/_Refs_Movs_Burnin_FrameCounter/TKO_011_WAR_Sh05580.mov</pathurl>
							<rate>
								<timebase>24</timebase>
								<ntsc>TRUE</ntsc>
							</rate>
							<duration>50</duration>
							<timecode>
								<rate>
									<timebase>24</timebase>
									<ntsc>TRUE</ntsc>
								</rate>
								<string>18:12:15:20</string>
								<frame>1572860</frame>
								<displayformat>NDF</displayformat>
								<reel>
									<name>B0140002</name>
								</reel>
							</timecode>
							<media>
								<video>
									<samplecharacteristics>
										<rate>
											<timebase>24</timebase>
											<ntsc>TRUE</ntsc>
										</rate>
										<width>4096</width>
										<height>2160</height>
										<anamorphic>FALSE</anamorphic>
										<pixelaspectratio>square</pixelaspectratio>
										<fielddominance>none</fielddominance>
									</samplecharacteristics>
								</video>
							</media>
						</file>
						<logginginfo>
							<description></description>
							<scene></scene>
							<shottake></shottake>
							<lognote></lognote>
							<good></good>
							<originalvideofilename></originalvideofilename>
							<originalaudiofilename></originalaudiofilename>
						</logginginfo>
						<colorinfo>
							<lut></lut>
							<lut1></lut1>
							<asc_sop></asc_sop>
							<asc_sat></asc_sat>
							<lut2></lut2>
						</colorinfo>
						<labels>
							<label2>Violet</label2>
						</labels>
					</clipitem>
					<clipitem id="clipitem-546">
						<masterclipid>masterclip-543</masterclipid>
						<name>TKO_011_WAR_Sh05590.mov</name>
						<enabled>TRUE</enabled>
						<duration>38</duration>
						<rate>
							<timebase>24</timebase>
							<ntsc>TRUE</ntsc>
						</rate>
						<start>45476</start>
						<end>45506</end>
						<in>4</in>
						<out>34</out>
						<pproTicksIn>42378336000</pproTicksIn>
						<pproTicksOut>360215856000</pproTicksOut>
						<alphatype>none</alphatype>
						<pixelaspectratio>square</pixelaspectratio>
						<anamorphic>FALSE</anamorphic>
						<file id="file-543">
							<name>TKO_011_WAR_Sh05590.mov</name>
							<pathurl>file://tri-stor01/Projects/TKO/SHOTS/_Refs_Movs_Burnin_FrameCounter/TKO_011_WAR_Sh05590.mov</pathurl>
							<rate>
								<timebase>24</timebase>
								<ntsc>TRUE</ntsc>
							</rate>
							<duration>38</duration>
							<timecode>
								<rate>
									<timebase>24</timebase>
									<ntsc>TRUE</ntsc>
								</rate>
								<string>18:12:19:07</string>
								<frame>1572943</frame>
								<displayformat>NDF</displayformat>
								<reel>
									<name>A0170002</name>
								</reel>
							</timecode>
							<media>
								<video>
									<samplecharacteristics>
										<rate>
											<timebase>24</timebase>
											<ntsc>TRUE</ntsc>
										</rate>
										<width>4096</width>
										<height>2160</height>
										<anamorphic>FALSE</anamorphic>
										<pixelaspectratio>square</pixelaspectratio>
										<fielddominance>none</fielddominance>
									</samplecharacteristics>
								</video>
							</media>
						</file>
						<logginginfo>
							<description></description>
							<scene></scene>
							<shottake></shottake>
							<lognote></lognote>
							<good></good>
							<originalvideofilename></originalvideofilename>
							<originalaudiofilename></originalaudiofilename>
						</logginginfo>
						<colorinfo>
							<lut></lut>
							<lut1></lut1>
							<asc_sop></asc_sop>
							<asc_sat></asc_sat>
							<lut2></lut2>
						</colorinfo>
						<labels>
							<label2>Violet</label2>
						</labels>
					</clipitem>
					<clipitem id="clipitem-547">
						<masterclipid>masterclip-544</masterclipid>
						<name>TKO_011_WAR_Sh05600.mov</name>
						<enabled>TRUE</enabled>
						<duration>45</duration>
						<rate>
							<timebase>24</timebase>
							<ntsc>TRUE</ntsc>
						</rate>
						<start>45506</start>
						<end>45543</end>
						<in>4</in>
						<out>41</out>
						<pproTicksIn>42378336000</pproTicksIn>
						<pproTicksOut>434377944000</pproTicksOut>
						<alphatype>none</alphatype>
						<pixelaspectratio>square</pixelaspectratio>
						<anamorphic>FALSE</anamorphic>
						<file id="file-544">
							<name>TKO_011_WAR_Sh05600.mov</name>
							<pathurl>file://tri-stor01/Projects/TKO/SHOTS/_Refs_Movs_Burnin_FrameCounter/TKO_011_WAR_Sh05600.mov</pathurl>
							<rate>
								<timebase>24</timebase>
								<ntsc>TRUE</ntsc>
							</rate>
							<duration>45</duration>
							<timecode>
								<rate>
									<timebase>24</timebase>
									<ntsc>TRUE</ntsc>
								</rate>
								<string>18:10:37:09</string>
								<frame>1570497</frame>
								<displayformat>NDF</displayformat>
								<reel>
									<name>A0420003</name>
								</reel>
							</timecode>
							<media>
								<video>
									<samplecharacteristics>
										<rate>
											<timebase>24</timebase>
											<ntsc>TRUE</ntsc>
										</rate>
										<width>4096</width>
										<height>2160</height>
										<anamorphic>FALSE</anamorphic>
										<pixelaspectratio>square</pixelaspectratio>
										<fielddominance>none</fielddominance>
									</samplecharacteristics>
								</video>
							</media>
						</file>
						<logginginfo>
							<description></description>
							<scene></scene>
							<shottake></shottake>
							<lognote></lognote>
							<good></good>
							<originalvideofilename></originalvideofilename>
							<originalaudiofilename></originalaudiofilename>
						</logginginfo>
						<colorinfo>
							<lut></lut>
							<lut1></lut1>
							<asc_sop></asc_sop>
							<asc_sat></asc_sat>
							<lut2></lut2>
						</colorinfo>
						<labels>
							<label2>Violet</label2>
						</labels>
					</clipitem>
					<clipitem id="clipitem-548">
						<masterclipid>masterclip-545</masterclipid>
						<name>TKO_011_WAR_Sh05610.mov</name>
						<enabled>TRUE</enabled>
						<duration>28</duration>
						<rate>
							<timebase>24</timebase>
							<ntsc>TRUE</ntsc>
						</rate>
						<start>45543</start>
						<end>45563</end>
						<in>4</in>
						<out>24</out>
						<pproTicksIn>42378336000</pproTicksIn>
						<pproTicksOut>254270016000</pproTicksOut>
						<alphatype>none</alphatype>
						<pixelaspectratio>square</pixelaspectratio>
						<anamorphic>FALSE</anamorphic>
						<file id="file-545">
							<name>TKO_011_WAR_Sh05610.mov</name>
							<pathurl>file://tri-stor01/Projects/TKO/SHOTS/_Refs_Movs_Burnin_FrameCounter/TKO_011_WAR_Sh05610.mov</pathurl>
							<rate>
								<timebase>24</timebase>
								<ntsc>TRUE</ntsc>
							</rate>
							<duration>28</duration>
							<timecode>
								<rate>
									<timebase>24</timebase>
									<ntsc>TRUE</ntsc>
								</rate>
								<string>18:12:23:18</string>
								<frame>1573050</frame>
								<displayformat>NDF</displayformat>
								<reel>
									<name>B0140002</name>
								</reel>
							</timecode>
							<media>
								<video>
									<samplecharacteristics>
										<rate>
											<timebase>24</timebase>
											<ntsc>TRUE</ntsc>
										</rate>
										<width>4096</width>
										<height>2160</height>
										<anamorphic>FALSE</anamorphic>
										<pixelaspectratio>square</pixelaspectratio>
										<fielddominance>none</fielddominance>
									</samplecharacteristics>
								</video>
							</media>
						</file>
						<logginginfo>
							<description></description>
							<scene></scene>
							<shottake></shottake>
							<lognote></lognote>
							<good></good>
							<originalvideofilename></originalvideofilename>
							<originalaudiofilename></originalaudiofilename>
						</logginginfo>
						<colorinfo>
							<lut></lut>
							<lut1></lut1>
							<asc_sop></asc_sop>
							<asc_sat></asc_sat>
							<lut2></lut2>
						</colorinfo>
						<labels>
							<label2>Violet</label2>
						</labels>
					</clipitem>
					<clipitem id="clipitem-549">
						<masterclipid>masterclip-546</masterclipid>
						<name>TKO_011_WAR_Sh05620.mov</name>
						<enabled>TRUE</enabled>
						<duration>39</duration>
						<rate>
							<timebase>24</timebase>
							<ntsc>TRUE</ntsc>
						</rate>
						<start>45563</start>
						<end>45594</end>
						<in>4</in>
						<out>35</out>
						<pproTicksIn>42378336000</pproTicksIn>
						<pproTicksOut>370810440000</pproTicksOut>
						<alphatype>none</alphatype>
						<pixelaspectratio>square</pixelaspectratio>
						<anamorphic>FALSE</anamorphic>
						<file id="file-546">
							<name>TKO_011_WAR_Sh05620.mov</name>
							<pathurl>file://tri-stor01/Projects/TKO/SHOTS/_Refs_Movs_Burnin_FrameCounter/TKO_011_WAR_Sh05620.mov</pathurl>
							<rate>
								<timebase>24</timebase>
								<ntsc>TRUE</ntsc>
							</rate>
							<duration>39</duration>
							<timecode>
								<rate>
									<timebase>24</timebase>
									<ntsc>TRUE</ntsc>
								</rate>
								<string>18:12:27:22</string>
								<frame>1573150</frame>
								<displayformat>NDF</displayformat>
								<reel>
									<name>A0170002</name>
								</reel>
							</timecode>
							<media>
								<video>
									<samplecharacteristics>
										<rate>
											<timebase>24</timebase>
											<ntsc>TRUE</ntsc>
										</rate>
										<width>4096</width>
										<height>2160</height>
										<anamorphic>FALSE</anamorphic>
										<pixelaspectratio>square</pixelaspectratio>
										<fielddominance>none</fielddominance>
									</samplecharacteristics>
								</video>
							</media>
						</file>
						<logginginfo>
							<description></description>
							<scene></scene>
							<shottake></shottake>
							<lognote></lognote>
							<good></good>
							<originalvideofilename></originalvideofilename>
							<originalaudiofilename></originalaudiofilename>
						</logginginfo>
						<colorinfo>
							<lut></lut>
							<lut1></lut1>
							<asc_sop></asc_sop>
							<asc_sat></asc_sat>
							<lut2></lut2>
						</colorinfo>
						<labels>
							<label2>Violet</label2>
						</labels>
					</clipitem>
					<clipitem id="clipitem-550">
						<masterclipid>masterclip-547</masterclipid>
						<name>TKO_011_WAR_Sh05630.mov</name>
						<enabled>TRUE</enabled>
						<duration>21</duration>
						<rate>
							<timebase>24</timebase>
							<ntsc>TRUE</ntsc>
						</rate>
						<start>45594</start>
						<end>45607</end>
						<in>4</in>
						<out>17</out>
						<pproTicksIn>42378336000</pproTicksIn>
						<pproTicksOut>180107928000</pproTicksOut>
						<alphatype>none</alphatype>
						<pixelaspectratio>square</pixelaspectratio>
						<anamorphic>FALSE</anamorphic>
						<file id="file-547">
							<name>TKO_011_WAR_Sh05630.mov</name>
							<pathurl>file://tri-stor01/Projects/TKO/SHOTS/_Refs_Movs_Burnin_FrameCounter/TKO_011_WAR_Sh05630.mov</pathurl>
							<rate>
								<timebase>24</timebase>
								<ntsc>TRUE</ntsc>
							</rate>
							<duration>21</duration>
							<timecode>
								<rate>
									<timebase>24</timebase>
									<ntsc>TRUE</ntsc>
								</rate>
								<string>18:10:41:17</string>
								<frame>1570601</frame>
								<displayformat>NDF</displayformat>
								<reel>
									<name>A0420003</name>
								</reel>
							</timecode>
							<media>
								<video>
									<samplecharacteristics>
										<rate>
											<timebase>24</timebase>
											<ntsc>TRUE</ntsc>
										</rate>
										<width>4096</width>
										<height>2160</height>
										<anamorphic>FALSE</anamorphic>
										<pixelaspectratio>square</pixelaspectratio>
										<fielddominance>none</fielddominance>
									</samplecharacteristics>
								</video>
							</media>
						</file>
						<logginginfo>
							<description></description>
							<scene></scene>
							<shottake></shottake>
							<lognote></lognote>
							<good></good>
							<originalvideofilename></originalvideofilename>
							<originalaudiofilename></originalaudiofilename>
						</logginginfo>
						<colorinfo>
							<lut></lut>
							<lut1></lut1>
							<asc_sop></asc_sop>
							<asc_sat></asc_sat>
							<lut2></lut2>
						</colorinfo>
						<labels>
							<label2>Violet</label2>
						</labels>
					</clipitem>
					<clipitem id="clipitem-551">
						<masterclipid>masterclip-548</masterclipid>
						<name>TKO_011_WAR_Sh05640.mov</name>
						<enabled>TRUE</enabled>
						<duration>39</duration>
						<rate>
							<timebase>24</timebase>
							<ntsc>TRUE</ntsc>
						</rate>
						<start>45607</start>
						<end>45638</end>
						<in>4</in>
						<out>35</out>
						<pproTicksIn>42378336000</pproTicksIn>
						<pproTicksOut>370810440000</pproTicksOut>
						<alphatype>none</alphatype>
						<pixelaspectratio>square</pixelaspectratio>
						<anamorphic>FALSE</anamorphic>
						<file id="file-548">
							<name>TKO_011_WAR_Sh05640.mov</name>
							<pathurl>file://tri-stor01/Projects/TKO/SHOTS/_Refs_Movs_Burnin_FrameCounter/TKO_011_WAR_Sh05640.mov</pathurl>
							<rate>
								<timebase>24</timebase>
								<ntsc>TRUE</ntsc>
							</rate>
							<duration>39</duration>
							<timecode>
								<rate>
									<timebase>24</timebase>
									<ntsc>TRUE</ntsc>
								</rate>
								<string>18:29:25:19</string>
								<frame>1597579</frame>
								<displayformat>NDF</displayformat>
								<reel>
									<name>B0360004</name>
								</reel>
							</timecode>
							<media>
								<video>
									<samplecharacteristics>
										<rate>
											<timebase>24</timebase>
											<ntsc>TRUE</ntsc>
										</rate>
										<width>4096</width>
										<height>2160</height>
										<anamorphic>FALSE</anamorphic>
										<pixelaspectratio>square</pixelaspectratio>
										<fielddominance>none</fielddominance>
									</samplecharacteristics>
								</video>
							</media>
						</file>
						<logginginfo>
							<description></description>
							<scene></scene>
							<shottake></shottake>
							<lognote></lognote>
							<good></good>
							<originalvideofilename></originalvideofilename>
							<originalaudiofilename></originalaudiofilename>
						</logginginfo>
						<colorinfo>
							<lut></lut>
							<lut1></lut1>
							<asc_sop></asc_sop>
							<asc_sat></asc_sat>
							<lut2></lut2>
						</colorinfo>
						<labels>
							<label2>Violet</label2>
						</labels>
					</clipitem>
					<clipitem id="clipitem-552">
						<masterclipid>masterclip-549</masterclipid>
						<name>TKO_011_WAR_Sh05650.mov</name>
						<enabled>TRUE</enabled>
						<duration>92</duration>
						<rate>
							<timebase>24</timebase>
							<ntsc>TRUE</ntsc>
						</rate>
						<start>45638</start>
						<end>45722</end>
						<in>4</in>
						<out>88</out>
						<pproTicksIn>42378336000</pproTicksIn>
						<pproTicksOut>932323392000</pproTicksOut>
						<alphatype>none</alphatype>
						<pixelaspectratio>square</pixelaspectratio>
						<anamorphic>FALSE</anamorphic>
						<file id="file-549">
							<name>TKO_011_WAR_Sh05650.mov</name>
							<pathurl>file://tri-stor01/Projects/TKO/SHOTS/_Refs_Movs_Burnin_FrameCounter/TKO_011_WAR_Sh05650.mov</pathurl>
							<rate>
								<timebase>24</timebase>
								<ntsc>TRUE</ntsc>
							</rate>
							<duration>92</duration>
							<timecode>
								<rate>
									<timebase>24</timebase>
									<ntsc>TRUE</ntsc>
								</rate>
								<string>00:26:15:13</string>
								<frame>37813</frame>
								<displayformat>NDF</displayformat>
							</timecode>
							<media>
								<video>
									<samplecharacteristics>
										<rate>
											<timebase>24</timebase>
											<ntsc>TRUE</ntsc>
										</rate>
										<width>1280</width>
										<height>720</height>
										<anamorphic>FALSE</anamorphic>
										<pixelaspectratio>square</pixelaspectratio>
										<fielddominance>none</fielddominance>
									</samplecharacteristics>
								</video>
							</media>
						</file>
						<logginginfo>
							<description></description>
							<scene></scene>
							<shottake></shottake>
							<lognote></lognote>
							<good></good>
							<originalvideofilename></originalvideofilename>
							<originalaudiofilename></originalaudiofilename>
						</logginginfo>
						<colorinfo>
							<lut></lut>
							<lut1></lut1>
							<asc_sop></asc_sop>
							<asc_sat></asc_sat>
							<lut2></lut2>
						</colorinfo>
						<labels>
							<label2>Violet</label2>
						</labels>
					</clipitem>
					<clipitem id="clipitem-553">
						<masterclipid>masterclip-550</masterclipid>
						<name>TKO_011_WAR_Sh05660.mov</name>
						<enabled>TRUE</enabled>
						<duration>35</duration>
						<rate>
							<timebase>24</timebase>
							<ntsc>TRUE</ntsc>
						</rate>
						<start>45722</start>
						<end>45749</end>
						<in>4</in>
						<out>31</out>
						<pproTicksIn>42378336000</pproTicksIn>
						<pproTicksOut>328432104000</pproTicksOut>
						<alphatype>none</alphatype>
						<pixelaspectratio>square</pixelaspectratio>
						<anamorphic>FALSE</anamorphic>
						<file id="file-550">
							<name>TKO_011_WAR_Sh05660.mov</name>
							<pathurl>file://tri-stor01/Projects/TKO/SHOTS/_Refs_Movs_Burnin_FrameCounter/TKO_011_WAR_Sh05660.mov</pathurl>
							<rate>
								<timebase>24</timebase>
								<ntsc>TRUE</ntsc>
							</rate>
							<duration>35</duration>
							<timecode>
								<rate>
									<timebase>24</timebase>
									<ntsc>TRUE</ntsc>
								</rate>
								<string>18:12:33:20</string>
								<frame>1573292</frame>
								<displayformat>NDF</displayformat>
								<reel>
									<name>B0140002</name>
								</reel>
							</timecode>
							<media>
								<video>
									<samplecharacteristics>
										<rate>
											<timebase>24</timebase>
											<ntsc>TRUE</ntsc>
										</rate>
										<width>4096</width>
										<height>2160</height>
										<anamorphic>FALSE</anamorphic>
										<pixelaspectratio>square</pixelaspectratio>
										<fielddominance>none</fielddominance>
									</samplecharacteristics>
								</video>
							</media>
						</file>
						<logginginfo>
							<description></description>
							<scene></scene>
							<shottake></shottake>
							<lognote></lognote>
							<good></good>
							<originalvideofilename></originalvideofilename>
							<originalaudiofilename></originalaudiofilename>
						</logginginfo>
						<colorinfo>
							<lut></lut>
							<lut1></lut1>
							<asc_sop></asc_sop>
							<asc_sat></asc_sat>
							<lut2></lut2>
						</colorinfo>
						<labels>
							<label2>Violet</label2>
						</labels>
					</clipitem>
					<clipitem id="clipitem-554">
						<masterclipid>masterclip-551</masterclipid>
						<name>TKO_011_WAR_Sh05670.mov</name>
						<enabled>TRUE</enabled>
						<duration>51</duration>
						<rate>
							<timebase>24</timebase>
							<ntsc>TRUE</ntsc>
						</rate>
						<start>45749</start>
						<end>45792</end>
						<in>4</in>
						<out>47</out>
						<pproTicksIn>42378336000</pproTicksIn>
						<pproTicksOut>497945448000</pproTicksOut>
						<alphatype>none</alphatype>
						<pixelaspectratio>square</pixelaspectratio>
						<anamorphic>FALSE</anamorphic>
						<file id="file-551">
							<name>TKO_011_WAR_Sh05670.mov</name>
							<pathurl>file://tri-stor01/Projects/TKO/SHOTS/_Refs_Movs_Burnin_FrameCounter/TKO_011_WAR_Sh05670.mov</pathurl>
							<rate>
								<timebase>24</timebase>
								<ntsc>TRUE</ntsc>
							</rate>
							<duration>51</duration>
							<timecode>
								<rate>
									<timebase>24</timebase>
									<ntsc>TRUE</ntsc>
								</rate>
								<string>04:28:06:17</string>
								<frame>386081</frame>
								<displayformat>NDF</displayformat>
								<reel>
									<name>C0090002</name>
								</reel>
							</timecode>
							<media>
								<video>
									<samplecharacteristics>
										<rate>
											<timebase>24</timebase>
											<ntsc>TRUE</ntsc>
										</rate>
										<width>3840</width>
										<height>2160</height>
										<anamorphic>FALSE</anamorphic>
										<pixelaspectratio>square</pixelaspectratio>
										<fielddominance>none</fielddominance>
									</samplecharacteristics>
								</video>
							</media>
						</file>
						<logginginfo>
							<description></description>
							<scene></scene>
							<shottake></shottake>
							<lognote></lognote>
							<good></good>
							<originalvideofilename></originalvideofilename>
							<originalaudiofilename></originalaudiofilename>
						</logginginfo>
						<colorinfo>
							<lut></lut>
							<lut1></lut1>
							<asc_sop></asc_sop>
							<asc_sat></asc_sat>
							<lut2></lut2>
						</colorinfo>
						<labels>
							<label2>Violet</label2>
						</labels>
					</clipitem>
					<clipitem id="clipitem-555">
						<masterclipid>masterclip-552</masterclipid>
						<name>TKO_011_WAR_Sh05680.mov</name>
						<enabled>TRUE</enabled>
						<duration>32</duration>
						<rate>
							<timebase>24</timebase>
							<ntsc>TRUE</ntsc>
						</rate>
						<start>45792</start>
						<end>45816</end>
						<in>4</in>
						<out>28</out>
						<pproTicksIn>42378336000</pproTicksIn>
						<pproTicksOut>296648352000</pproTicksOut>
						<alphatype>none</alphatype>
						<pixelaspectratio>square</pixelaspectratio>
						<anamorphic>FALSE</anamorphic>
						<file id="file-552">
							<name>TKO_011_WAR_Sh05680.mov</name>
							<pathurl>file://tri-stor01/Projects/TKO/SHOTS/_Refs_Movs_Burnin_FrameCounter/TKO_011_WAR_Sh05680.mov</pathurl>
							<rate>
								<timebase>24</timebase>
								<ntsc>TRUE</ntsc>
							</rate>
							<duration>32</duration>
							<timecode>
								<rate>
									<timebase>24</timebase>
									<ntsc>TRUE</ntsc>
								</rate>
								<string>12:31:35:05</string>
								<frame>1082285</frame>
								<displayformat>NDF</displayformat>
							</timecode>
							<media>
								<video>
									<samplecharacteristics>
										<rate>
											<timebase>24</timebase>
											<ntsc>TRUE</ntsc>
										</rate>
										<width>4096</width>
										<height>2160</height>
										<anamorphic>FALSE</anamorphic>
										<pixelaspectratio>square</pixelaspectratio>
										<fielddominance>none</fielddominance>
									</samplecharacteristics>
								</video>
							</media>
						</file>
						<logginginfo>
							<description></description>
							<scene></scene>
							<shottake></shottake>
							<lognote></lognote>
							<good></good>
							<originalvideofilename></originalvideofilename>
							<originalaudiofilename></originalaudiofilename>
						</logginginfo>
						<colorinfo>
							<lut></lut>
							<lut1></lut1>
							<asc_sop></asc_sop>
							<asc_sat></asc_sat>
							<lut2></lut2>
						</colorinfo>
						<labels>
							<label2>Violet</label2>
						</labels>
					</clipitem>
					<clipitem id="clipitem-556">
						<masterclipid>masterclip-553</masterclipid>
						<name>TKO_011_WAR_Sh05690.mov</name>
						<enabled>TRUE</enabled>
						<duration>75</duration>
						<rate>
							<timebase>24</timebase>
							<ntsc>TRUE</ntsc>
						</rate>
						<start>45816</start>
						<end>45883</end>
						<in>4</in>
						<out>71</out>
						<pproTicksIn>42378336000</pproTicksIn>
						<pproTicksOut>752215464000</pproTicksOut>
						<alphatype>none</alphatype>
						<pixelaspectratio>square</pixelaspectratio>
						<anamorphic>FALSE</anamorphic>
						<file id="file-553">
							<name>TKO_011_WAR_Sh05690.mov</name>
							<pathurl>file://tri-stor01/Projects/TKO/SHOTS/_Refs_Movs_Burnin_FrameCounter/TKO_011_WAR_Sh05690.mov</pathurl>
							<rate>
								<timebase>24</timebase>
								<ntsc>TRUE</ntsc>
							</rate>
							<duration>75</duration>
							<timecode>
								<rate>
									<timebase>24</timebase>
									<ntsc>TRUE</ntsc>
								</rate>
								<string>19:39:03:17</string>
								<frame>1697849</frame>
								<displayformat>NDF</displayformat>
								<reel>
									<name>A0420007</name>
								</reel>
							</timecode>
							<media>
								<video>
									<samplecharacteristics>
										<rate>
											<timebase>24</timebase>
											<ntsc>TRUE</ntsc>
										</rate>
										<width>4096</width>
										<height>2160</height>
										<anamorphic>FALSE</anamorphic>
										<pixelaspectratio>square</pixelaspectratio>
										<fielddominance>none</fielddominance>
									</samplecharacteristics>
								</video>
							</media>
						</file>
						<logginginfo>
							<description></description>
							<scene></scene>
							<shottake></shottake>
							<lognote></lognote>
							<good></good>
							<originalvideofilename></originalvideofilename>
							<originalaudiofilename></originalaudiofilename>
						</logginginfo>
						<colorinfo>
							<lut></lut>
							<lut1></lut1>
							<asc_sop></asc_sop>
							<asc_sat></asc_sat>
							<lut2></lut2>
						</colorinfo>
						<labels>
							<label2>Violet</label2>
						</labels>
					</clipitem>
					<clipitem id="clipitem-557">
						<masterclipid>masterclip-554</masterclipid>
						<name>TKO_011_WAR_Sh05700.mov</name>
						<enabled>TRUE</enabled>
						<duration>39</duration>
						<rate>
							<timebase>24</timebase>
							<ntsc>TRUE</ntsc>
						</rate>
						<start>45883</start>
						<end>45914</end>
						<in>4</in>
						<out>35</out>
						<pproTicksIn>42378336000</pproTicksIn>
						<pproTicksOut>370810440000</pproTicksOut>
						<alphatype>none</alphatype>
						<pixelaspectratio>square</pixelaspectratio>
						<anamorphic>FALSE</anamorphic>
						<file id="file-554">
							<name>TKO_011_WAR_Sh05700.mov</name>
							<pathurl>file://tri-stor01/Projects/TKO/SHOTS/_Refs_Movs_Burnin_FrameCounter/TKO_011_WAR_Sh05700.mov</pathurl>
							<rate>
								<timebase>24</timebase>
								<ntsc>TRUE</ntsc>
							</rate>
							<duration>39</duration>
							<timecode>
								<rate>
									<timebase>24</timebase>
									<ntsc>TRUE</ntsc>
								</rate>
								<string>19:39:06:12</string>
								<frame>1697916</frame>
								<displayformat>NDF</displayformat>
								<reel>
									<name>B0360009</name>
								</reel>
							</timecode>
							<media>
								<video>
									<samplecharacteristics>
										<rate>
											<timebase>24</timebase>
											<ntsc>TRUE</ntsc>
										</rate>
										<width>4096</width>
										<height>2160</height>
										<anamorphic>FALSE</anamorphic>
										<pixelaspectratio>square</pixelaspectratio>
										<fielddominance>none</fielddominance>
									</samplecharacteristics>
								</video>
							</media>
						</file>
						<logginginfo>
							<description></description>
							<scene></scene>
							<shottake></shottake>
							<lognote></lognote>
							<good></good>
							<originalvideofilename></originalvideofilename>
							<originalaudiofilename></originalaudiofilename>
						</logginginfo>
						<colorinfo>
							<lut></lut>
							<lut1></lut1>
							<asc_sop></asc_sop>
							<asc_sat></asc_sat>
							<lut2></lut2>
						</colorinfo>
						<labels>
							<label2>Violet</label2>
						</labels>
					</clipitem>
					<clipitem id="clipitem-558">
						<masterclipid>masterclip-555</masterclipid>
						<name>TKO_011_WAR_Sh05710.mov</name>
						<enabled>TRUE</enabled>
						<duration>42</duration>
						<rate>
							<timebase>24</timebase>
							<ntsc>TRUE</ntsc>
						</rate>
						<start>45914</start>
						<end>45948</end>
						<in>4</in>
						<out>38</out>
						<pproTicksIn>42378336000</pproTicksIn>
						<pproTicksOut>402594192000</pproTicksOut>
						<alphatype>none</alphatype>
						<pixelaspectratio>square</pixelaspectratio>
						<anamorphic>FALSE</anamorphic>
						<file id="file-555">
							<name>TKO_011_WAR_Sh05710.mov</name>
							<pathurl>file://tri-stor01/Projects/TKO/SHOTS/_Refs_Movs_Burnin_FrameCounter/TKO_011_WAR_Sh05710.mov</pathurl>
							<rate>
								<timebase>24</timebase>
								<ntsc>TRUE</ntsc>
							</rate>
							<duration>42</duration>
							<timecode>
								<rate>
									<timebase>24</timebase>
									<ntsc>TRUE</ntsc>
								</rate>
								<string>00:26:25:07</string>
								<frame>38047</frame>
								<displayformat>NDF</displayformat>
							</timecode>
							<media>
								<video>
									<samplecharacteristics>
										<rate>
											<timebase>24</timebase>
											<ntsc>TRUE</ntsc>
										</rate>
										<width>1280</width>
										<height>720</height>
										<anamorphic>FALSE</anamorphic>
										<pixelaspectratio>square</pixelaspectratio>
										<fielddominance>none</fielddominance>
									</samplecharacteristics>
								</video>
							</media>
						</file>
						<logginginfo>
							<description></description>
							<scene></scene>
							<shottake></shottake>
							<lognote></lognote>
							<good></good>
							<originalvideofilename></originalvideofilename>
							<originalaudiofilename></originalaudiofilename>
						</logginginfo>
						<colorinfo>
							<lut></lut>
							<lut1></lut1>
							<asc_sop></asc_sop>
							<asc_sat></asc_sat>
							<lut2></lut2>
						</colorinfo>
						<labels>
							<label2>Violet</label2>
						</labels>
					</clipitem>
					<clipitem id="clipitem-559">
						<masterclipid>masterclip-556</masterclipid>
						<name>TKO_011_WAR_Sh05720.mov</name>
						<enabled>TRUE</enabled>
						<duration>69</duration>
						<rate>
							<timebase>24</timebase>
							<ntsc>TRUE</ntsc>
						</rate>
						<start>45948</start>
						<end>46009</end>
						<in>4</in>
						<out>65</out>
						<pproTicksIn>42378336000</pproTicksIn>
						<pproTicksOut>688647960000</pproTicksOut>
						<alphatype>none</alphatype>
						<pixelaspectratio>square</pixelaspectratio>
						<anamorphic>FALSE</anamorphic>
						<file id="file-556">
							<name>TKO_011_WAR_Sh05720.mov</name>
							<pathurl>file://tri-stor01/Projects/TKO/SHOTS/_Refs_Movs_Burnin_FrameCounter/TKO_011_WAR_Sh05720.mov</pathurl>
							<rate>
								<timebase>24</timebase>
								<ntsc>TRUE</ntsc>
							</rate>
							<duration>69</duration>
							<timecode>
								<rate>
									<timebase>24</timebase>
									<ntsc>TRUE</ntsc>
								</rate>
								<string>19:39:07:15</string>
								<frame>1697943</frame>
								<displayformat>NDF</displayformat>
								<reel>
									<name>A0420007</name>
								</reel>
							</timecode>
							<media>
								<video>
									<samplecharacteristics>
										<rate>
											<timebase>24</timebase>
											<ntsc>TRUE</ntsc>
										</rate>
										<width>4096</width>
										<height>2160</height>
										<anamorphic>FALSE</anamorphic>
										<pixelaspectratio>square</pixelaspectratio>
										<fielddominance>none</fielddominance>
									</samplecharacteristics>
								</video>
							</media>
						</file>
						<logginginfo>
							<description></description>
							<scene></scene>
							<shottake></shottake>
							<lognote></lognote>
							<good></good>
							<originalvideofilename></originalvideofilename>
							<originalaudiofilename></originalaudiofilename>
						</logginginfo>
						<colorinfo>
							<lut></lut>
							<lut1></lut1>
							<asc_sop></asc_sop>
							<asc_sat></asc_sat>
							<lut2></lut2>
						</colorinfo>
						<labels>
							<label2>Violet</label2>
						</labels>
					</clipitem>
					<clipitem id="clipitem-560">
						<masterclipid>masterclip-557</masterclipid>
						<name>TKO_011_WAR_Sh05730.mov</name>
						<enabled>TRUE</enabled>
						<duration>41</duration>
						<rate>
							<timebase>24</timebase>
							<ntsc>TRUE</ntsc>
						</rate>
						<start>46009</start>
						<end>46042</end>
						<in>4</in>
						<out>37</out>
						<pproTicksIn>42378336000</pproTicksIn>
						<pproTicksOut>391999608000</pproTicksOut>
						<alphatype>none</alphatype>
						<pixelaspectratio>square</pixelaspectratio>
						<anamorphic>FALSE</anamorphic>
						<file id="file-557">
							<name>TKO_011_WAR_Sh05730.mov</name>
							<pathurl>file://tri-stor01/Projects/TKO/SHOTS/_Refs_Movs_Burnin_FrameCounter/TKO_011_WAR_Sh05730.mov</pathurl>
							<rate>
								<timebase>24</timebase>
								<ntsc>TRUE</ntsc>
							</rate>
							<duration>41</duration>
							<timecode>
								<rate>
									<timebase>24</timebase>
									<ntsc>TRUE</ntsc>
								</rate>
								<string>19:52:31:10</string>
								<frame>1717234</frame>
								<displayformat>NDF</displayformat>
								<reel>
									<name>B0360010</name>
								</reel>
							</timecode>
							<media>
								<video>
									<samplecharacteristics>
										<rate>
											<timebase>24</timebase>
											<ntsc>TRUE</ntsc>
										</rate>
										<width>4096</width>
										<height>2160</height>
										<anamorphic>FALSE</anamorphic>
										<pixelaspectratio>square</pixelaspectratio>
										<fielddominance>none</fielddominance>
									</samplecharacteristics>
								</video>
							</media>
						</file>
						<logginginfo>
							<description></description>
							<scene></scene>
							<shottake></shottake>
							<lognote></lognote>
							<good></good>
							<originalvideofilename></originalvideofilename>
							<originalaudiofilename></originalaudiofilename>
						</logginginfo>
						<colorinfo>
							<lut></lut>
							<lut1></lut1>
							<asc_sop></asc_sop>
							<asc_sat></asc_sat>
							<lut2></lut2>
						</colorinfo>
						<labels>
							<label2>Violet</label2>
						</labels>
					</clipitem>
					<clipitem id="clipitem-561">
						<masterclipid>masterclip-558</masterclipid>
						<name>TKO_011_WAR_Sh05740.mov</name>
						<enabled>TRUE</enabled>
						<duration>82</duration>
						<rate>
							<timebase>24</timebase>
							<ntsc>TRUE</ntsc>
						</rate>
						<start>46042</start>
						<end>46116</end>
						<in>4</in>
						<out>78</out>
						<pproTicksIn>42378336000</pproTicksIn>
						<pproTicksOut>826377552000</pproTicksOut>
						<alphatype>none</alphatype>
						<pixelaspectratio>square</pixelaspectratio>
						<anamorphic>FALSE</anamorphic>
						<file id="file-558">
							<name>TKO_011_WAR_Sh05740.mov</name>
							<pathurl>file://tri-stor01/Projects/TKO/SHOTS/_Refs_Movs_Burnin_FrameCounter/TKO_011_WAR_Sh05740.mov</pathurl>
							<rate>
								<timebase>24</timebase>
								<ntsc>TRUE</ntsc>
							</rate>
							<duration>82</duration>
							<timecode>
								<rate>
									<timebase>24</timebase>
									<ntsc>TRUE</ntsc>
								</rate>
								<string>00:00:00:00</string>
								<frame>0</frame>
								<displayformat>NDF</displayformat>
							</timecode>
							<media>
								<video>
									<samplecharacteristics>
										<rate>
											<timebase>24</timebase>
											<ntsc>TRUE</ntsc>
										</rate>
										<width>4096</width>
										<height>2160</height>
										<anamorphic>FALSE</anamorphic>
										<pixelaspectratio>square</pixelaspectratio>
										<fielddominance>none</fielddominance>
									</samplecharacteristics>
								</video>
							</media>
						</file>
						<logginginfo>
							<description></description>
							<scene></scene>
							<shottake></shottake>
							<lognote></lognote>
							<good></good>
							<originalvideofilename></originalvideofilename>
							<originalaudiofilename></originalaudiofilename>
						</logginginfo>
						<colorinfo>
							<lut></lut>
							<lut1></lut1>
							<asc_sop></asc_sop>
							<asc_sat></asc_sat>
							<lut2></lut2>
						</colorinfo>
						<labels>
							<label2>Violet</label2>
						</labels>
					</clipitem>
					<clipitem id="clipitem-562">
						<masterclipid>masterclip-559</masterclipid>
						<name>TKO_011_WAR_Sh05750.mov</name>
						<enabled>TRUE</enabled>
						<duration>31</duration>
						<rate>
							<timebase>24</timebase>
							<ntsc>TRUE</ntsc>
						</rate>
						<start>46116</start>
						<end>46139</end>
						<in>4</in>
						<out>27</out>
						<pproTicksIn>42378336000</pproTicksIn>
						<pproTicksOut>286053768000</pproTicksOut>
						<alphatype>none</alphatype>
						<pixelaspectratio>square</pixelaspectratio>
						<anamorphic>FALSE</anamorphic>
						<file id="file-559">
							<name>TKO_011_WAR_Sh05750.mov</name>
							<pathurl>file://tri-stor01/Projects/TKO/SHOTS/_Refs_Movs_Burnin_FrameCounter/TKO_011_WAR_Sh05750.mov</pathurl>
							<rate>
								<timebase>24</timebase>
								<ntsc>TRUE</ntsc>
							</rate>
							<duration>31</duration>
							<timecode>
								<rate>
									<timebase>24</timebase>
									<ntsc>TRUE</ntsc>
								</rate>
								<string>19:39:18:05</string>
								<frame>1698197</frame>
								<displayformat>NDF</displayformat>
								<reel>
									<name>B0360009</name>
								</reel>
							</timecode>
							<media>
								<video>
									<samplecharacteristics>
										<rate>
											<timebase>24</timebase>
											<ntsc>TRUE</ntsc>
										</rate>
										<width>4096</width>
										<height>2160</height>
										<anamorphic>FALSE</anamorphic>
										<pixelaspectratio>square</pixelaspectratio>
										<fielddominance>none</fielddominance>
									</samplecharacteristics>
								</video>
							</media>
						</file>
						<logginginfo>
							<description></description>
							<scene></scene>
							<shottake></shottake>
							<lognote></lognote>
							<good></good>
							<originalvideofilename></originalvideofilename>
							<originalaudiofilename></originalaudiofilename>
						</logginginfo>
						<colorinfo>
							<lut></lut>
							<lut1></lut1>
							<asc_sop></asc_sop>
							<asc_sat></asc_sat>
							<lut2></lut2>
						</colorinfo>
						<labels>
							<label2>Violet</label2>
						</labels>
					</clipitem>
					<clipitem id="clipitem-563">
						<masterclipid>masterclip-560</masterclipid>
						<name>TKO_011_WAR_Sh05760.mov</name>
						<enabled>TRUE</enabled>
						<duration>77</duration>
						<rate>
							<timebase>24</timebase>
							<ntsc>TRUE</ntsc>
						</rate>
						<start>46139</start>
						<end>46208</end>
						<in>4</in>
						<out>73</out>
						<pproTicksIn>42378336000</pproTicksIn>
						<pproTicksOut>773404632000</pproTicksOut>
						<alphatype>none</alphatype>
						<pixelaspectratio>square</pixelaspectratio>
						<anamorphic>FALSE</anamorphic>
						<file id="file-560">
							<name>TKO_011_WAR_Sh05760.mov</name>
							<pathurl>file://tri-stor01/Projects/TKO/SHOTS/_Refs_Movs_Burnin_FrameCounter/TKO_011_WAR_Sh05760.mov</pathurl>
							<rate>
								<timebase>24</timebase>
								<ntsc>TRUE</ntsc>
							</rate>
							<duration>77</duration>
							<timecode>
								<rate>
									<timebase>24</timebase>
									<ntsc>TRUE</ntsc>
								</rate>
								<string>00:00:00:00</string>
								<frame>0</frame>
								<displayformat>NDF</displayformat>
							</timecode>
							<media>
								<video>
									<samplecharacteristics>
										<rate>
											<timebase>24</timebase>
											<ntsc>TRUE</ntsc>
										</rate>
										<width>4096</width>
										<height>2160</height>
										<anamorphic>FALSE</anamorphic>
										<pixelaspectratio>square</pixelaspectratio>
										<fielddominance>none</fielddominance>
									</samplecharacteristics>
								</video>
							</media>
						</file>
						<logginginfo>
							<description></description>
							<scene></scene>
							<shottake></shottake>
							<lognote></lognote>
							<good></good>
							<originalvideofilename></originalvideofilename>
							<originalaudiofilename></originalaudiofilename>
						</logginginfo>
						<colorinfo>
							<lut></lut>
							<lut1></lut1>
							<asc_sop></asc_sop>
							<asc_sat></asc_sat>
							<lut2></lut2>
						</colorinfo>
						<labels>
							<label2>Violet</label2>
						</labels>
					</clipitem>
					<clipitem id="clipitem-564">
						<masterclipid>masterclip-561</masterclipid>
						<name>TKO_011_WAR_Sh05770.mov</name>
						<enabled>TRUE</enabled>
						<duration>57</duration>
						<rate>
							<timebase>24</timebase>
							<ntsc>TRUE</ntsc>
						</rate>
						<start>46208</start>
						<end>46257</end>
						<in>4</in>
						<out>53</out>
						<pproTicksIn>42378336000</pproTicksIn>
						<pproTicksOut>561512952000</pproTicksOut>
						<alphatype>none</alphatype>
						<pixelaspectratio>square</pixelaspectratio>
						<anamorphic>FALSE</anamorphic>
						<file id="file-561">
							<name>TKO_011_WAR_Sh05770.mov</name>
							<pathurl>file://tri-stor01/Projects/TKO/SHOTS/_Refs_Movs_Burnin_FrameCounter/TKO_011_WAR_Sh05770.mov</pathurl>
							<rate>
								<timebase>24</timebase>
								<ntsc>TRUE</ntsc>
							</rate>
							<duration>57</duration>
							<timecode>
								<rate>
									<timebase>24</timebase>
									<ntsc>TRUE</ntsc>
								</rate>
								<string>19:39:20:11</string>
								<frame>1698251</frame>
								<displayformat>NDF</displayformat>
								<reel>
									<name>B0360009</name>
								</reel>
							</timecode>
							<media>
								<video>
									<samplecharacteristics>
										<rate>
											<timebase>24</timebase>
											<ntsc>TRUE</ntsc>
										</rate>
										<width>4096</width>
										<height>2160</height>
										<anamorphic>FALSE</anamorphic>
										<pixelaspectratio>square</pixelaspectratio>
										<fielddominance>none</fielddominance>
									</samplecharacteristics>
								</video>
							</media>
						</file>
						<logginginfo>
							<description></description>
							<scene></scene>
							<shottake></shottake>
							<lognote></lognote>
							<good></good>
							<originalvideofilename></originalvideofilename>
							<originalaudiofilename></originalaudiofilename>
						</logginginfo>
						<colorinfo>
							<lut></lut>
							<lut1></lut1>
							<asc_sop></asc_sop>
							<asc_sat></asc_sat>
							<lut2></lut2>
						</colorinfo>
						<labels>
							<label2>Violet</label2>
						</labels>
					</clipitem>
					<clipitem id="clipitem-565">
						<masterclipid>masterclip-562</masterclipid>
						<name>TKO_011_WAR_Sh05800.mov</name>
						<enabled>TRUE</enabled>
						<duration>59</duration>
						<rate>
							<timebase>24</timebase>
							<ntsc>TRUE</ntsc>
						</rate>
						<start>46257</start>
						<end>46308</end>
						<in>4</in>
						<out>55</out>
						<pproTicksIn>42378336000</pproTicksIn>
						<pproTicksOut>582702120000</pproTicksOut>
						<alphatype>none</alphatype>
						<pixelaspectratio>square</pixelaspectratio>
						<anamorphic>FALSE</anamorphic>
						<file id="file-562">
							<name>TKO_011_WAR_Sh05800.mov</name>
							<pathurl>file://tri-stor01/Projects/TKO/SHOTS/_Refs_Movs_Burnin_FrameCounter/TKO_011_WAR_Sh05800.mov</pathurl>
							<rate>
								<timebase>24</timebase>
								<ntsc>TRUE</ntsc>
							</rate>
							<duration>59</duration>
							<timecode>
								<rate>
									<timebase>24</timebase>
									<ntsc>TRUE</ntsc>
								</rate>
								<string>00:26:28:14</string>
								<frame>38126</frame>
								<displayformat>NDF</displayformat>
							</timecode>
							<media>
								<video>
									<samplecharacteristics>
										<rate>
											<timebase>24</timebase>
											<ntsc>TRUE</ntsc>
										</rate>
										<width>1280</width>
										<height>720</height>
										<anamorphic>FALSE</anamorphic>
										<pixelaspectratio>square</pixelaspectratio>
										<fielddominance>none</fielddominance>
									</samplecharacteristics>
								</video>
							</media>
						</file>
						<logginginfo>
							<description></description>
							<scene></scene>
							<shottake></shottake>
							<lognote></lognote>
							<good></good>
							<originalvideofilename></originalvideofilename>
							<originalaudiofilename></originalaudiofilename>
						</logginginfo>
						<colorinfo>
							<lut></lut>
							<lut1></lut1>
							<asc_sop></asc_sop>
							<asc_sat></asc_sat>
							<lut2></lut2>
						</colorinfo>
						<labels>
							<label2>Violet</label2>
						</labels>
					</clipitem>
					<clipitem id="clipitem-566">
						<masterclipid>masterclip-563</masterclipid>
						<name>TKO_011_WAR_Sh05810.mov</name>
						<enabled>TRUE</enabled>
						<duration>50</duration>
						<rate>
							<timebase>24</timebase>
							<ntsc>TRUE</ntsc>
						</rate>
						<start>46308</start>
						<end>46350</end>
						<in>4</in>
						<out>46</out>
						<pproTicksIn>42378336000</pproTicksIn>
						<pproTicksOut>487350864000</pproTicksOut>
						<alphatype>none</alphatype>
						<pixelaspectratio>square</pixelaspectratio>
						<anamorphic>FALSE</anamorphic>
						<file id="file-563">
							<name>TKO_011_WAR_Sh05810.mov</name>
							<pathurl>file://tri-stor01/Projects/TKO/SHOTS/_Refs_Movs_Burnin_FrameCounter/TKO_011_WAR_Sh05810.mov</pathurl>
							<rate>
								<timebase>24</timebase>
								<ntsc>TRUE</ntsc>
							</rate>
							<duration>50</duration>
							<timecode>
								<rate>
									<timebase>24</timebase>
									<ntsc>TRUE</ntsc>
								</rate>
								<string>00:26:30:17</string>
								<frame>38177</frame>
								<displayformat>NDF</displayformat>
							</timecode>
							<media>
								<video>
									<samplecharacteristics>
										<rate>
											<timebase>24</timebase>
											<ntsc>TRUE</ntsc>
										</rate>
										<width>1280</width>
										<height>720</height>
										<anamorphic>FALSE</anamorphic>
										<pixelaspectratio>square</pixelaspectratio>
										<fielddominance>none</fielddominance>
									</samplecharacteristics>
								</video>
							</media>
						</file>
						<logginginfo>
							<description></description>
							<scene></scene>
							<shottake></shottake>
							<lognote></lognote>
							<good></good>
							<originalvideofilename></originalvideofilename>
							<originalaudiofilename></originalaudiofilename>
						</logginginfo>
						<colorinfo>
							<lut></lut>
							<lut1></lut1>
							<asc_sop></asc_sop>
							<asc_sat></asc_sat>
							<lut2></lut2>
						</colorinfo>
						<labels>
							<label2>Violet</label2>
						</labels>
					</clipitem>
					<clipitem id="clipitem-567">
						<masterclipid>masterclip-564</masterclipid>
						<name>TKO_011_WAR_Sh05820.mov</name>
						<enabled>TRUE</enabled>
						<duration>78</duration>
						<rate>
							<timebase>24</timebase>
							<ntsc>TRUE</ntsc>
						</rate>
						<start>46350</start>
						<end>46420</end>
						<in>4</in>
						<out>74</out>
						<pproTicksIn>42378336000</pproTicksIn>
						<pproTicksOut>783999216000</pproTicksOut>
						<alphatype>none</alphatype>
						<pixelaspectratio>square</pixelaspectratio>
						<anamorphic>FALSE</anamorphic>
						<file id="file-564">
							<name>TKO_011_WAR_Sh05820.mov</name>
							<pathurl>file://tri-stor01/Projects/TKO/SHOTS/_Refs_Movs_Burnin_FrameCounter/TKO_011_WAR_Sh05820.mov</pathurl>
							<rate>
								<timebase>24</timebase>
								<ntsc>TRUE</ntsc>
							</rate>
							<duration>78</duration>
							<timecode>
								<rate>
									<timebase>24</timebase>
									<ntsc>TRUE</ntsc>
								</rate>
								<string>19:39:24:05</string>
								<frame>1698341</frame>
								<displayformat>NDF</displayformat>
								<reel>
									<name>A0420007</name>
								</reel>
							</timecode>
							<media>
								<video>
									<samplecharacteristics>
										<rate>
											<timebase>24</timebase>
											<ntsc>TRUE</ntsc>
										</rate>
										<width>4096</width>
										<height>2160</height>
										<anamorphic>FALSE</anamorphic>
										<pixelaspectratio>square</pixelaspectratio>
										<fielddominance>none</fielddominance>
									</samplecharacteristics>
								</video>
							</media>
						</file>
						<logginginfo>
							<description></description>
							<scene></scene>
							<shottake></shottake>
							<lognote></lognote>
							<good></good>
							<originalvideofilename></originalvideofilename>
							<originalaudiofilename></originalaudiofilename>
						</logginginfo>
						<colorinfo>
							<lut></lut>
							<lut1></lut1>
							<asc_sop></asc_sop>
							<asc_sat></asc_sat>
							<lut2></lut2>
						</colorinfo>
						<labels>
							<label2>Violet</label2>
						</labels>
					</clipitem>
					<clipitem id="clipitem-568">
						<masterclipid>masterclip-565</masterclipid>
						<name>TKO_011_WAR_Sh05830.mov</name>
						<enabled>TRUE</enabled>
						<duration>67</duration>
						<rate>
							<timebase>24</timebase>
							<ntsc>TRUE</ntsc>
						</rate>
						<start>46420</start>
						<end>46479</end>
						<in>4</in>
						<out>63</out>
						<pproTicksIn>42378336000</pproTicksIn>
						<pproTicksOut>667458792000</pproTicksOut>
						<alphatype>none</alphatype>
						<pixelaspectratio>square</pixelaspectratio>
						<anamorphic>FALSE</anamorphic>
						<file id="file-565">
							<name>TKO_011_WAR_Sh05830.mov</name>
							<pathurl>file://tri-stor01/Projects/TKO/SHOTS/_Refs_Movs_Burnin_FrameCounter/TKO_011_WAR_Sh05830.mov</pathurl>
							<rate>
								<timebase>24</timebase>
								<ntsc>TRUE</ntsc>
							</rate>
							<duration>67</duration>
							<timecode>
								<rate>
									<timebase>24</timebase>
									<ntsc>TRUE</ntsc>
								</rate>
								<string>19:39:27:03</string>
								<frame>1698411</frame>
								<displayformat>NDF</displayformat>
								<reel>
									<name>B0360009</name>
								</reel>
							</timecode>
							<media>
								<video>
									<samplecharacteristics>
										<rate>
											<timebase>24</timebase>
											<ntsc>TRUE</ntsc>
										</rate>
										<width>4096</width>
										<height>2160</height>
										<anamorphic>FALSE</anamorphic>
										<pixelaspectratio>square</pixelaspectratio>
										<fielddominance>none</fielddominance>
									</samplecharacteristics>
								</video>
							</media>
						</file>
						<logginginfo>
							<description></description>
							<scene></scene>
							<shottake></shottake>
							<lognote></lognote>
							<good></good>
							<originalvideofilename></originalvideofilename>
							<originalaudiofilename></originalaudiofilename>
						</logginginfo>
						<colorinfo>
							<lut></lut>
							<lut1></lut1>
							<asc_sop></asc_sop>
							<asc_sat></asc_sat>
							<lut2></lut2>
						</colorinfo>
						<labels>
							<label2>Violet</label2>
						</labels>
					</clipitem>
					<clipitem id="clipitem-569">
						<masterclipid>masterclip-566</masterclipid>
						<name>TKO_011_WAR_Sh05840.mov</name>
						<enabled>TRUE</enabled>
						<duration>85</duration>
						<rate>
							<timebase>24</timebase>
							<ntsc>TRUE</ntsc>
						</rate>
						<start>46479</start>
						<end>46556</end>
						<in>4</in>
						<out>81</out>
						<pproTicksIn>42378336000</pproTicksIn>
						<pproTicksOut>858161304000</pproTicksOut>
						<alphatype>none</alphatype>
						<pixelaspectratio>square</pixelaspectratio>
						<anamorphic>FALSE</anamorphic>
						<file id="file-566">
							<name>TKO_011_WAR_Sh05840.mov</name>
							<pathurl>file://tri-stor01/Projects/TKO/SHOTS/_Refs_Movs_Burnin_FrameCounter/TKO_011_WAR_Sh05840.mov</pathurl>
							<rate>
								<timebase>24</timebase>
								<ntsc>TRUE</ntsc>
							</rate>
							<duration>85</duration>
							<timecode>
								<rate>
									<timebase>24</timebase>
									<ntsc>TRUE</ntsc>
								</rate>
								<string>00:26:44:12</string>
								<frame>38508</frame>
								<displayformat>NDF</displayformat>
							</timecode>
							<media>
								<video>
									<samplecharacteristics>
										<rate>
											<timebase>24</timebase>
											<ntsc>TRUE</ntsc>
										</rate>
										<width>1280</width>
										<height>720</height>
										<anamorphic>FALSE</anamorphic>
										<pixelaspectratio>square</pixelaspectratio>
										<fielddominance>none</fielddominance>
									</samplecharacteristics>
								</video>
							</media>
						</file>
						<logginginfo>
							<description></description>
							<scene></scene>
							<shottake></shottake>
							<lognote></lognote>
							<good></good>
							<originalvideofilename></originalvideofilename>
							<originalaudiofilename></originalaudiofilename>
						</logginginfo>
						<colorinfo>
							<lut></lut>
							<lut1></lut1>
							<asc_sop></asc_sop>
							<asc_sat></asc_sat>
							<lut2></lut2>
						</colorinfo>
						<labels>
							<label2>Violet</label2>
						</labels>
					</clipitem>
					<clipitem id="clipitem-570">
						<masterclipid>masterclip-567</masterclipid>
						<name>TKO_012_ALS_Sh05850.mov</name>
						<enabled>TRUE</enabled>
						<duration>227</duration>
						<rate>
							<timebase>24</timebase>
							<ntsc>TRUE</ntsc>
						</rate>
						<start>46556</start>
						<end>46775</end>
						<in>4</in>
						<out>223</out>
						<pproTicksIn>42378336000</pproTicksIn>
						<pproTicksOut>2362592232000</pproTicksOut>
						<alphatype>none</alphatype>
						<pixelaspectratio>square</pixelaspectratio>
						<anamorphic>FALSE</anamorphic>
						<file id="file-567">
							<name>TKO_012_ALS_Sh05850.mov</name>
							<pathurl>file://tri-stor01/Projects/TKO/SHOTS/_Refs_Movs_Burnin_FrameCounter/TKO_012_ALS_Sh05850.mov</pathurl>
							<rate>
								<timebase>24</timebase>
								<ntsc>TRUE</ntsc>
							</rate>
							<duration>227</duration>
							<timecode>
								<rate>
									<timebase>24</timebase>
									<ntsc>TRUE</ntsc>
								</rate>
								<string>19:14:11:07</string>
								<frame>1662031</frame>
								<displayformat>NDF</displayformat>
								<reel>
									<name>A0170005</name>
								</reel>
							</timecode>
							<media>
								<video>
									<samplecharacteristics>
										<rate>
											<timebase>24</timebase>
											<ntsc>TRUE</ntsc>
										</rate>
										<width>4096</width>
										<height>2160</height>
										<anamorphic>FALSE</anamorphic>
										<pixelaspectratio>square</pixelaspectratio>
										<fielddominance>none</fielddominance>
									</samplecharacteristics>
								</video>
							</media>
						</file>
						<logginginfo>
							<description></description>
							<scene></scene>
							<shottake></shottake>
							<lognote></lognote>
							<good></good>
							<originalvideofilename></originalvideofilename>
							<originalaudiofilename></originalaudiofilename>
						</logginginfo>
						<colorinfo>
							<lut></lut>
							<lut1></lut1>
							<asc_sop></asc_sop>
							<asc_sat></asc_sat>
							<lut2></lut2>
						</colorinfo>
						<labels>
							<label2>Violet</label2>
						</labels>
					</clipitem>
					<clipitem id="clipitem-571">
						<masterclipid>masterclip-568</masterclipid>
						<name>TKO_012_ALS_Sh05860.mov</name>
						<enabled>TRUE</enabled>
						<duration>139</duration>
						<rate>
							<timebase>24</timebase>
							<ntsc>TRUE</ntsc>
						</rate>
						<start>46775</start>
						<end>46906</end>
						<in>4</in>
						<out>135</out>
						<pproTicksIn>42378336000</pproTicksIn>
						<pproTicksOut>1430268840000</pproTicksOut>
						<alphatype>none</alphatype>
						<pixelaspectratio>square</pixelaspectratio>
						<anamorphic>FALSE</anamorphic>
						<file id="file-568">
							<name>TKO_012_ALS_Sh05860.mov</name>
							<pathurl>file://tri-stor01/Projects/TKO/SHOTS/_Refs_Movs_Burnin_FrameCounter/TKO_012_ALS_Sh05860.mov</pathurl>
							<rate>
								<timebase>24</timebase>
								<ntsc>TRUE</ntsc>
							</rate>
							<duration>139</duration>
							<timecode>
								<rate>
									<timebase>24</timebase>
									<ntsc>TRUE</ntsc>
								</rate>
								<string>20:02:16:10</string>
								<frame>1731274</frame>
								<displayformat>NDF</displayformat>
								<reel>
									<name>B0140010</name>
								</reel>
							</timecode>
							<media>
								<video>
									<samplecharacteristics>
										<rate>
											<timebase>24</timebase>
											<ntsc>TRUE</ntsc>
										</rate>
										<width>4096</width>
										<height>2160</height>
										<anamorphic>FALSE</anamorphic>
										<pixelaspectratio>square</pixelaspectratio>
										<fielddominance>none</fielddominance>
									</samplecharacteristics>
								</video>
							</media>
						</file>
						<logginginfo>
							<description></description>
							<scene></scene>
							<shottake></shottake>
							<lognote></lognote>
							<good></good>
							<originalvideofilename></originalvideofilename>
							<originalaudiofilename></originalaudiofilename>
						</logginginfo>
						<colorinfo>
							<lut></lut>
							<lut1></lut1>
							<asc_sop></asc_sop>
							<asc_sat></asc_sat>
							<lut2></lut2>
						</colorinfo>
						<labels>
							<label2>Violet</label2>
						</labels>
					</clipitem>
					<clipitem id="clipitem-572">
						<masterclipid>masterclip-569</masterclipid>
						<name>TKO_012_ALS_Sh05870.mov</name>
						<enabled>TRUE</enabled>
						<duration>64</duration>
						<rate>
							<timebase>24</timebase>
							<ntsc>TRUE</ntsc>
						</rate>
						<start>46906</start>
						<end>46962</end>
						<in>4</in>
						<out>60</out>
						<pproTicksIn>42378336000</pproTicksIn>
						<pproTicksOut>635675040000</pproTicksOut>
						<alphatype>none</alphatype>
						<pixelaspectratio>square</pixelaspectratio>
						<anamorphic>FALSE</anamorphic>
						<file id="file-569">
							<name>TKO_012_ALS_Sh05870.mov</name>
							<pathurl>file://tri-stor01/Projects/TKO/SHOTS/_Refs_Movs_Burnin_FrameCounter/TKO_012_ALS_Sh05870.mov</pathurl>
							<rate>
								<timebase>24</timebase>
								<ntsc>TRUE</ntsc>
							</rate>
							<duration>64</duration>
							<timecode>
								<rate>
									<timebase>24</timebase>
									<ntsc>TRUE</ntsc>
								</rate>
								<string>19:14:28:16</string>
								<frame>1662448</frame>
								<displayformat>NDF</displayformat>
								<reel>
									<name>B0140005</name>
								</reel>
							</timecode>
							<media>
								<video>
									<samplecharacteristics>
										<rate>
											<timebase>24</timebase>
											<ntsc>TRUE</ntsc>
										</rate>
										<width>4096</width>
										<height>2160</height>
										<anamorphic>FALSE</anamorphic>
										<pixelaspectratio>square</pixelaspectratio>
										<fielddominance>none</fielddominance>
									</samplecharacteristics>
								</video>
							</media>
						</file>
						<logginginfo>
							<description></description>
							<scene></scene>
							<shottake></shottake>
							<lognote></lognote>
							<good></good>
							<originalvideofilename></originalvideofilename>
							<originalaudiofilename></originalaudiofilename>
						</logginginfo>
						<colorinfo>
							<lut></lut>
							<lut1></lut1>
							<asc_sop></asc_sop>
							<asc_sat></asc_sat>
							<lut2></lut2>
						</colorinfo>
						<labels>
							<label2>Violet</label2>
						</labels>
					</clipitem>
					<clipitem id="clipitem-573">
						<masterclipid>masterclip-570</masterclipid>
						<name>TKO_012_ALS_Sh05880.mov</name>
						<enabled>TRUE</enabled>
						<duration>68</duration>
						<rate>
							<timebase>24</timebase>
							<ntsc>TRUE</ntsc>
						</rate>
						<start>46962</start>
						<end>47022</end>
						<in>4</in>
						<out>64</out>
						<pproTicksIn>42378336000</pproTicksIn>
						<pproTicksOut>678053376000</pproTicksOut>
						<alphatype>none</alphatype>
						<pixelaspectratio>square</pixelaspectratio>
						<anamorphic>FALSE</anamorphic>
						<file id="file-570">
							<name>TKO_012_ALS_Sh05880.mov</name>
							<pathurl>file://tri-stor01/Projects/TKO/SHOTS/_Refs_Movs_Burnin_FrameCounter/TKO_012_ALS_Sh05880.mov</pathurl>
							<rate>
								<timebase>24</timebase>
								<ntsc>TRUE</ntsc>
							</rate>
							<duration>68</duration>
							<timecode>
								<rate>
									<timebase>24</timebase>
									<ntsc>TRUE</ntsc>
								</rate>
								<string>19:14:33:11</string>
								<frame>1662563</frame>
								<displayformat>NDF</displayformat>
								<reel>
									<name>A0170005</name>
								</reel>
							</timecode>
							<media>
								<video>
									<samplecharacteristics>
										<rate>
											<timebase>24</timebase>
											<ntsc>TRUE</ntsc>
										</rate>
										<width>4096</width>
										<height>2160</height>
										<anamorphic>FALSE</anamorphic>
										<pixelaspectratio>square</pixelaspectratio>
										<fielddominance>none</fielddominance>
									</samplecharacteristics>
								</video>
							</media>
						</file>
						<logginginfo>
							<description></description>
							<scene></scene>
							<shottake></shottake>
							<lognote></lognote>
							<good></good>
							<originalvideofilename></originalvideofilename>
							<originalaudiofilename></originalaudiofilename>
						</logginginfo>
						<colorinfo>
							<lut></lut>
							<lut1></lut1>
							<asc_sop></asc_sop>
							<asc_sat></asc_sat>
							<lut2></lut2>
						</colorinfo>
						<labels>
							<label2>Violet</label2>
						</labels>
					</clipitem>
					<clipitem id="clipitem-574">
						<masterclipid>masterclip-571</masterclipid>
						<name>TKO_012_ALS_Sh05890.mov</name>
						<enabled>TRUE</enabled>
						<duration>44</duration>
						<rate>
							<timebase>24</timebase>
							<ntsc>TRUE</ntsc>
						</rate>
						<start>47022</start>
						<end>47058</end>
						<in>4</in>
						<out>40</out>
						<pproTicksIn>42378336000</pproTicksIn>
						<pproTicksOut>423783360000</pproTicksOut>
						<alphatype>none</alphatype>
						<pixelaspectratio>square</pixelaspectratio>
						<anamorphic>FALSE</anamorphic>
						<file id="file-571">
							<name>TKO_012_ALS_Sh05890.mov</name>
							<pathurl>file://tri-stor01/Projects/TKO/SHOTS/_Refs_Movs_Burnin_FrameCounter/TKO_012_ALS_Sh05890.mov</pathurl>
							<rate>
								<timebase>24</timebase>
								<ntsc>TRUE</ntsc>
							</rate>
							<duration>44</duration>
							<timecode>
								<rate>
									<timebase>24</timebase>
									<ntsc>TRUE</ntsc>
								</rate>
								<string>19:14:35:23</string>
								<frame>1662623</frame>
								<displayformat>NDF</displayformat>
								<reel>
									<name>B0140005</name>
								</reel>
							</timecode>
							<media>
								<video>
									<samplecharacteristics>
										<rate>
											<timebase>24</timebase>
											<ntsc>TRUE</ntsc>
										</rate>
										<width>4096</width>
										<height>2160</height>
										<anamorphic>FALSE</anamorphic>
										<pixelaspectratio>square</pixelaspectratio>
										<fielddominance>none</fielddominance>
									</samplecharacteristics>
								</video>
							</media>
						</file>
						<logginginfo>
							<description></description>
							<scene></scene>
							<shottake></shottake>
							<lognote></lognote>
							<good></good>
							<originalvideofilename></originalvideofilename>
							<originalaudiofilename></originalaudiofilename>
						</logginginfo>
						<colorinfo>
							<lut></lut>
							<lut1></lut1>
							<asc_sop></asc_sop>
							<asc_sat></asc_sat>
							<lut2></lut2>
						</colorinfo>
						<labels>
							<label2>Violet</label2>
						</labels>
					</clipitem>
					<clipitem id="clipitem-575">
						<masterclipid>masterclip-572</masterclipid>
						<name>TKO_012_ALS_Sh05900.mov</name>
						<enabled>TRUE</enabled>
						<duration>258</duration>
						<rate>
							<timebase>24</timebase>
							<ntsc>TRUE</ntsc>
						</rate>
						<start>47058</start>
						<end>47308</end>
						<in>4</in>
						<out>254</out>
						<pproTicksIn>42378336000</pproTicksIn>
						<pproTicksOut>2691024336000</pproTicksOut>
						<alphatype>none</alphatype>
						<pixelaspectratio>square</pixelaspectratio>
						<anamorphic>FALSE</anamorphic>
						<file id="file-572">
							<name>TKO_012_ALS_Sh05900.mov</name>
							<pathurl>file://tri-stor01/Projects/TKO/SHOTS/_Refs_Movs_Burnin_FrameCounter/TKO_012_ALS_Sh05900.mov</pathurl>
							<rate>
								<timebase>24</timebase>
								<ntsc>TRUE</ntsc>
							</rate>
							<duration>258</duration>
							<timecode>
								<rate>
									<timebase>24</timebase>
									<ntsc>TRUE</ntsc>
								</rate>
								<string>20:02:24:00</string>
								<frame>1731456</frame>
								<displayformat>NDF</displayformat>
								<reel>
									<name>B0140010</name>
								</reel>
							</timecode>
							<media>
								<video>
									<samplecharacteristics>
										<rate>
											<timebase>24</timebase>
											<ntsc>TRUE</ntsc>
										</rate>
										<width>4096</width>
										<height>2160</height>
										<anamorphic>FALSE</anamorphic>
										<pixelaspectratio>square</pixelaspectratio>
										<fielddominance>none</fielddominance>
									</samplecharacteristics>
								</video>
							</media>
						</file>
						<logginginfo>
							<description></description>
							<scene></scene>
							<shottake></shottake>
							<lognote></lognote>
							<good></good>
							<originalvideofilename></originalvideofilename>
							<originalaudiofilename></originalaudiofilename>
						</logginginfo>
						<colorinfo>
							<lut></lut>
							<lut1></lut1>
							<asc_sop></asc_sop>
							<asc_sat></asc_sat>
							<lut2></lut2>
						</colorinfo>
						<labels>
							<label2>Violet</label2>
						</labels>
					</clipitem>
					<clipitem id="clipitem-576">
						<masterclipid>masterclip-573</masterclipid>
						<name>TKO_012_ALS_Sh05910.mov</name>
						<enabled>TRUE</enabled>
						<duration>41</duration>
						<rate>
							<timebase>24</timebase>
							<ntsc>TRUE</ntsc>
						</rate>
						<start>47308</start>
						<end>47341</end>
						<in>4</in>
						<out>37</out>
						<pproTicksIn>42378336000</pproTicksIn>
						<pproTicksOut>391999608000</pproTicksOut>
						<alphatype>none</alphatype>
						<pixelaspectratio>square</pixelaspectratio>
						<anamorphic>FALSE</anamorphic>
						<file id="file-573">
							<name>TKO_012_ALS_Sh05910.mov</name>
							<pathurl>file://tri-stor01/Projects/TKO/SHOTS/_Refs_Movs_Burnin_FrameCounter/TKO_012_ALS_Sh05910.mov</pathurl>
							<rate>
								<timebase>24</timebase>
								<ntsc>TRUE</ntsc>
							</rate>
							<duration>41</duration>
							<timecode>
								<rate>
									<timebase>24</timebase>
									<ntsc>TRUE</ntsc>
								</rate>
								<string>00:27:01:20</string>
								<frame>38924</frame>
								<displayformat>NDF</displayformat>
							</timecode>
							<media>
								<video>
									<samplecharacteristics>
										<rate>
											<timebase>24</timebase>
											<ntsc>TRUE</ntsc>
										</rate>
										<width>1280</width>
										<height>720</height>
										<anamorphic>FALSE</anamorphic>
										<pixelaspectratio>square</pixelaspectratio>
										<fielddominance>none</fielddominance>
									</samplecharacteristics>
								</video>
							</media>
						</file>
						<logginginfo>
							<description></description>
							<scene></scene>
							<shottake></shottake>
							<lognote></lognote>
							<good></good>
							<originalvideofilename></originalvideofilename>
							<originalaudiofilename></originalaudiofilename>
						</logginginfo>
						<colorinfo>
							<lut></lut>
							<lut1></lut1>
							<asc_sop></asc_sop>
							<asc_sat></asc_sat>
							<lut2></lut2>
						</colorinfo>
						<labels>
							<label2>Violet</label2>
						</labels>
					</clipitem>
					<clipitem id="clipitem-577">
						<masterclipid>masterclip-574</masterclipid>
						<name>TKO_012_ALS_Sh05920_MERGED.mov</name>
						<enabled>TRUE</enabled>
						<duration>511</duration>
						<rate>
							<timebase>24</timebase>
							<ntsc>TRUE</ntsc>
						</rate>
						<start>47341</start>
						<end>47844</end>
						<in>4</in>
						<out>507</out>
						<pproTicksIn>42378336000</pproTicksIn>
						<pproTicksOut>5371454088000</pproTicksOut>
						<alphatype>none</alphatype>
						<pixelaspectratio>square</pixelaspectratio>
						<anamorphic>FALSE</anamorphic>
						<file id="file-574">
							<name>TKO_012_ALS_Sh05920_MERGED.mov</name>
							<pathurl>file://tri-stor01/Projects/TKO/SHOTS/_Refs_Movs_Burnin_FrameCounter/TKO_012_ALS_Sh05920_MERGED.mov</pathurl>
							<rate>
								<timebase>24</timebase>
								<ntsc>TRUE</ntsc>
							</rate>
							<duration>511</duration>
							<timecode>
								<rate>
									<timebase>24</timebase>
									<ntsc>TRUE</ntsc>
								</rate>
								<string>00:00:00:00</string>
								<frame>0</frame>
								<displayformat>NDF</displayformat>
							</timecode>
							<media>
								<video>
									<samplecharacteristics>
										<rate>
											<timebase>24</timebase>
											<ntsc>TRUE</ntsc>
										</rate>
										<width>1920</width>
										<height>1080</height>
										<anamorphic>FALSE</anamorphic>
										<pixelaspectratio>square</pixelaspectratio>
										<fielddominance>none</fielddominance>
									</samplecharacteristics>
								</video>
								<audio>
									<samplecharacteristics>
										<depth>16</depth>
										<samplerate>48000</samplerate>
									</samplecharacteristics>
									<channelcount>2</channelcount>
								</audio>
							</media>
						</file>
						<logginginfo>
							<description></description>
							<scene></scene>
							<shottake></shottake>
							<lognote></lognote>
							<good></good>
							<originalvideofilename></originalvideofilename>
							<originalaudiofilename></originalaudiofilename>
						</logginginfo>
						<colorinfo>
							<lut></lut>
							<lut1></lut1>
							<asc_sop></asc_sop>
							<asc_sat></asc_sat>
							<lut2></lut2>
						</colorinfo>
						<labels>
							<label2>Iris</label2>
						</labels>
					</clipitem>
					<clipitem id="clipitem-578">
						<masterclipid>masterclip-575</masterclipid>
						<name>TKO_012_ALS_Sh05930_SlapComp_V01.mov</name>
						<enabled>TRUE</enabled>
						<duration>81</duration>
						<rate>
							<timebase>24</timebase>
							<ntsc>TRUE</ntsc>
						</rate>
						<start>47844</start>
						<end>47917</end>
						<in>4</in>
						<out>77</out>
						<pproTicksIn>42378336000</pproTicksIn>
						<pproTicksOut>815782968000</pproTicksOut>
						<alphatype>none</alphatype>
						<pixelaspectratio>square</pixelaspectratio>
						<anamorphic>FALSE</anamorphic>
						<file id="file-575">
							<name>TKO_012_ALS_Sh05930_SlapComp_V01.mov</name>
							<pathurl>file://localhost/W%3a/TKO/SHOTS/TKO_012_ALS/TKO_012_ALS_Sh05930/COMP/V01/TKO_012_ALS_Sh05930_SlapComp_V01.mov</pathurl>
							<rate>
								<timebase>24</timebase>
								<ntsc>TRUE</ntsc>
							</rate>
							<duration>81</duration>
							<timecode>
								<rate>
									<timebase>24</timebase>
									<ntsc>TRUE</ntsc>
								</rate>
								<string>00:00:00:00</string>
								<frame>0</frame>
								<displayformat>NDF</displayformat>
							</timecode>
							<media>
								<video>
									<samplecharacteristics>
										<rate>
											<timebase>24</timebase>
											<ntsc>TRUE</ntsc>
										</rate>
										<width>4096</width>
										<height>2160</height>
										<anamorphic>FALSE</anamorphic>
										<pixelaspectratio>square</pixelaspectratio>
										<fielddominance>none</fielddominance>
									</samplecharacteristics>
								</video>
							</media>
						</file>
						<logginginfo>
							<description></description>
							<scene></scene>
							<shottake></shottake>
							<lognote></lognote>
							<good></good>
							<originalvideofilename></originalvideofilename>
							<originalaudiofilename></originalaudiofilename>
						</logginginfo>
						<colorinfo>
							<lut></lut>
							<lut1></lut1>
							<asc_sop></asc_sop>
							<asc_sat></asc_sat>
							<lut2></lut2>
						</colorinfo>
						<labels>
							<label2>Violet</label2>
						</labels>
					</clipitem>
					<clipitem id="clipitem-579">
						<masterclipid>masterclip-576</masterclipid>
						<name>TKO_012_ALS_Sh05940.mov</name>
						<enabled>TRUE</enabled>
						<duration>71</duration>
						<rate>
							<timebase>24</timebase>
							<ntsc>TRUE</ntsc>
						</rate>
						<start>47917</start>
						<end>47980</end>
						<in>4</in>
						<out>67</out>
						<pproTicksIn>42378336000</pproTicksIn>
						<pproTicksOut>709837128000</pproTicksOut>
						<alphatype>none</alphatype>
						<pixelaspectratio>square</pixelaspectratio>
						<anamorphic>FALSE</anamorphic>
						<file id="file-576">
							<name>TKO_012_ALS_Sh05940.mov</name>
							<pathurl>file://tri-stor01/Projects/TKO/SHOTS/_Refs_Movs_Burnin_FrameCounter/TKO_012_ALS_Sh05940.mov</pathurl>
							<rate>
								<timebase>24</timebase>
								<ntsc>TRUE</ntsc>
							</rate>
							<duration>71</duration>
							<timecode>
								<rate>
									<timebase>24</timebase>
									<ntsc>TRUE</ntsc>
								</rate>
								<string>12:42:18:20</string>
								<frame>1097732</frame>
								<displayformat>NDF</displayformat>
								<reel>
									<name>B0130003</name>
								</reel>
							</timecode>
							<media>
								<video>
									<samplecharacteristics>
										<rate>
											<timebase>24</timebase>
											<ntsc>TRUE</ntsc>
										</rate>
										<width>4096</width>
										<height>2160</height>
										<anamorphic>FALSE</anamorphic>
										<pixelaspectratio>square</pixelaspectratio>
										<fielddominance>none</fielddominance>
									</samplecharacteristics>
								</video>
							</media>
						</file>
						<logginginfo>
							<description></description>
							<scene></scene>
							<shottake></shottake>
							<lognote></lognote>
							<good></good>
							<originalvideofilename></originalvideofilename>
							<originalaudiofilename></originalaudiofilename>
						</logginginfo>
						<colorinfo>
							<lut></lut>
							<lut1></lut1>
							<asc_sop></asc_sop>
							<asc_sat></asc_sat>
							<lut2></lut2>
						</colorinfo>
						<labels>
							<label2>Violet</label2>
						</labels>
					</clipitem>
					<clipitem id="clipitem-580">
						<masterclipid>masterclip-577</masterclipid>
						<name>TKO_012_ALS_Sh05950.mov</name>
						<enabled>TRUE</enabled>
						<duration>37</duration>
						<rate>
							<timebase>24</timebase>
							<ntsc>TRUE</ntsc>
						</rate>
						<start>47980</start>
						<end>48009</end>
						<in>4</in>
						<out>33</out>
						<pproTicksIn>42378336000</pproTicksIn>
						<pproTicksOut>349621272000</pproTicksOut>
						<alphatype>none</alphatype>
						<pixelaspectratio>square</pixelaspectratio>
						<anamorphic>FALSE</anamorphic>
						<file id="file-577">
							<name>TKO_012_ALS_Sh05950.mov</name>
							<pathurl>file://tri-stor01/Projects/TKO/SHOTS/_Refs_Movs_Burnin_FrameCounter/TKO_012_ALS_Sh05950.mov</pathurl>
							<rate>
								<timebase>24</timebase>
								<ntsc>TRUE</ntsc>
							</rate>
							<duration>37</duration>
							<timecode>
								<rate>
									<timebase>24</timebase>
									<ntsc>TRUE</ntsc>
								</rate>
								<string>00:27:06:00</string>
								<frame>39024</frame>
								<displayformat>NDF</displayformat>
							</timecode>
							<media>
								<video>
									<samplecharacteristics>
										<rate>
											<timebase>24</timebase>
											<ntsc>TRUE</ntsc>
										</rate>
										<width>1280</width>
										<height>720</height>
										<anamorphic>FALSE</anamorphic>
										<pixelaspectratio>square</pixelaspectratio>
										<fielddominance>none</fielddominance>
									</samplecharacteristics>
								</video>
							</media>
						</file>
						<logginginfo>
							<description></description>
							<scene></scene>
							<shottake></shottake>
							<lognote></lognote>
							<good></good>
							<originalvideofilename></originalvideofilename>
							<originalaudiofilename></originalaudiofilename>
						</logginginfo>
						<colorinfo>
							<lut></lut>
							<lut1></lut1>
							<asc_sop></asc_sop>
							<asc_sat></asc_sat>
							<lut2></lut2>
						</colorinfo>
						<labels>
							<label2>Violet</label2>
						</labels>
					</clipitem>
					<clipitem id="clipitem-581">
						<masterclipid>masterclip-578</masterclipid>
						<name>TKO_012_ALS_Sh05960.mov</name>
						<enabled>TRUE</enabled>
						<duration>53</duration>
						<rate>
							<timebase>24</timebase>
							<ntsc>TRUE</ntsc>
						</rate>
						<start>48009</start>
						<end>48054</end>
						<in>4</in>
						<out>49</out>
						<pproTicksIn>42378336000</pproTicksIn>
						<pproTicksOut>519134616000</pproTicksOut>
						<alphatype>none</alphatype>
						<pixelaspectratio>square</pixelaspectratio>
						<anamorphic>FALSE</anamorphic>
						<file id="file-578">
							<name>TKO_012_ALS_Sh05960.mov</name>
							<pathurl>file://tri-stor01/Projects/TKO/SHOTS/_Refs_Movs_Burnin_FrameCounter/TKO_012_ALS_Sh05960.mov</pathurl>
							<rate>
								<timebase>24</timebase>
								<ntsc>TRUE</ntsc>
							</rate>
							<duration>53</duration>
							<timecode>
								<rate>
									<timebase>24</timebase>
									<ntsc>TRUE</ntsc>
								</rate>
								<string>20:40:44:05</string>
								<frame>1786661</frame>
								<displayformat>NDF</displayformat>
								<reel>
									<name>B0140011</name>
								</reel>
							</timecode>
							<media>
								<video>
									<samplecharacteristics>
										<rate>
											<timebase>24</timebase>
											<ntsc>TRUE</ntsc>
										</rate>
										<width>4096</width>
										<height>2160</height>
										<anamorphic>FALSE</anamorphic>
										<pixelaspectratio>square</pixelaspectratio>
										<fielddominance>none</fielddominance>
									</samplecharacteristics>
								</video>
							</media>
						</file>
						<logginginfo>
							<description></description>
							<scene></scene>
							<shottake></shottake>
							<lognote></lognote>
							<good></good>
							<originalvideofilename></originalvideofilename>
							<originalaudiofilename></originalaudiofilename>
						</logginginfo>
						<colorinfo>
							<lut></lut>
							<lut1></lut1>
							<asc_sop></asc_sop>
							<asc_sat></asc_sat>
							<lut2></lut2>
						</colorinfo>
						<labels>
							<label2>Violet</label2>
						</labels>
					</clipitem>
					<clipitem id="clipitem-582">
						<masterclipid>masterclip-579</masterclipid>
						<name>TKO_012_ALS_Sh05970.mov</name>
						<enabled>TRUE</enabled>
						<duration>39</duration>
						<rate>
							<timebase>24</timebase>
							<ntsc>TRUE</ntsc>
						</rate>
						<start>48054</start>
						<end>48085</end>
						<in>4</in>
						<out>35</out>
						<pproTicksIn>42378336000</pproTicksIn>
						<pproTicksOut>370810440000</pproTicksOut>
						<alphatype>none</alphatype>
						<pixelaspectratio>square</pixelaspectratio>
						<anamorphic>FALSE</anamorphic>
						<file id="file-579">
							<name>TKO_012_ALS_Sh05970.mov</name>
							<pathurl>file://tri-stor01/Projects/TKO/SHOTS/_Refs_Movs_Burnin_FrameCounter/TKO_012_ALS_Sh05970.mov</pathurl>
							<rate>
								<timebase>24</timebase>
								<ntsc>TRUE</ntsc>
							</rate>
							<duration>39</duration>
							<timecode>
								<rate>
									<timebase>24</timebase>
									<ntsc>TRUE</ntsc>
								</rate>
								<string>20:40:46:02</string>
								<frame>1786706</frame>
								<displayformat>NDF</displayformat>
								<reel>
									<name>A0170006</name>
								</reel>
							</timecode>
							<media>
								<video>
									<samplecharacteristics>
										<rate>
											<timebase>24</timebase>
											<ntsc>TRUE</ntsc>
										</rate>
										<width>4096</width>
										<height>2160</height>
										<anamorphic>FALSE</anamorphic>
										<pixelaspectratio>square</pixelaspectratio>
										<fielddominance>none</fielddominance>
									</samplecharacteristics>
								</video>
							</media>
						</file>
						<logginginfo>
							<description></description>
							<scene></scene>
							<shottake></shottake>
							<lognote></lognote>
							<good></good>
							<originalvideofilename></originalvideofilename>
							<originalaudiofilename></originalaudiofilename>
						</logginginfo>
						<colorinfo>
							<lut></lut>
							<lut1></lut1>
							<asc_sop></asc_sop>
							<asc_sat></asc_sat>
							<lut2></lut2>
						</colorinfo>
						<labels>
							<label2>Violet</label2>
						</labels>
					</clipitem>
					<clipitem id="clipitem-583">
						<masterclipid>masterclip-580</masterclipid>
						<name>TKO_012_ALS_Sh05980.mov</name>
						<enabled>TRUE</enabled>
						<duration>49</duration>
						<rate>
							<timebase>24</timebase>
							<ntsc>TRUE</ntsc>
						</rate>
						<start>48085</start>
						<end>48126</end>
						<in>4</in>
						<out>45</out>
						<pproTicksIn>42378336000</pproTicksIn>
						<pproTicksOut>476756280000</pproTicksOut>
						<alphatype>none</alphatype>
						<pixelaspectratio>square</pixelaspectratio>
						<anamorphic>FALSE</anamorphic>
						<file id="file-580">
							<name>TKO_012_ALS_Sh05980.mov</name>
							<pathurl>file://tri-stor01/Projects/TKO/SHOTS/_Refs_Movs_Burnin_FrameCounter/TKO_012_ALS_Sh05980.mov</pathurl>
							<rate>
								<timebase>24</timebase>
								<ntsc>TRUE</ntsc>
							</rate>
							<duration>49</duration>
							<timecode>
								<rate>
									<timebase>24</timebase>
									<ntsc>TRUE</ntsc>
								</rate>
								<string>13:09:11:11</string>
								<frame>1136435</frame>
								<displayformat>NDF</displayformat>
								<reel>
									<name>A0160005</name>
								</reel>
							</timecode>
							<media>
								<video>
									<samplecharacteristics>
										<rate>
											<timebase>24</timebase>
											<ntsc>TRUE</ntsc>
										</rate>
										<width>4096</width>
										<height>2160</height>
										<anamorphic>FALSE</anamorphic>
										<pixelaspectratio>square</pixelaspectratio>
										<fielddominance>none</fielddominance>
									</samplecharacteristics>
								</video>
							</media>
						</file>
						<logginginfo>
							<description></description>
							<scene></scene>
							<shottake></shottake>
							<lognote></lognote>
							<good></good>
							<originalvideofilename></originalvideofilename>
							<originalaudiofilename></originalaudiofilename>
						</logginginfo>
						<colorinfo>
							<lut></lut>
							<lut1></lut1>
							<asc_sop></asc_sop>
							<asc_sat></asc_sat>
							<lut2></lut2>
						</colorinfo>
						<labels>
							<label2>Violet</label2>
						</labels>
					</clipitem>
					<clipitem id="clipitem-584">
						<masterclipid>masterclip-581</masterclipid>
						<name>TKO_012_ALS_Sh05990.mov</name>
						<enabled>TRUE</enabled>
						<duration>72</duration>
						<rate>
							<timebase>24</timebase>
							<ntsc>TRUE</ntsc>
						</rate>
						<start>48126</start>
						<end>48190</end>
						<in>4</in>
						<out>68</out>
						<pproTicksIn>42378336000</pproTicksIn>
						<pproTicksOut>720431712000</pproTicksOut>
						<alphatype>none</alphatype>
						<pixelaspectratio>square</pixelaspectratio>
						<anamorphic>FALSE</anamorphic>
						<file id="file-581">
							<name>TKO_012_ALS_Sh05990.mov</name>
							<pathurl>file://tri-stor01/Projects/TKO/SHOTS/_Refs_Movs_Burnin_FrameCounter/TKO_012_ALS_Sh05990.mov</pathurl>
							<rate>
								<timebase>24</timebase>
								<ntsc>TRUE</ntsc>
							</rate>
							<duration>72</duration>
							<timecode>
								<rate>
									<timebase>24</timebase>
									<ntsc>TRUE</ntsc>
								</rate>
								<string>20:40:51:10</string>
								<frame>1786834</frame>
								<displayformat>NDF</displayformat>
								<reel>
									<name>A0170006</name>
								</reel>
							</timecode>
							<media>
								<video>
									<samplecharacteristics>
										<rate>
											<timebase>24</timebase>
											<ntsc>TRUE</ntsc>
										</rate>
										<width>4096</width>
										<height>2160</height>
										<anamorphic>FALSE</anamorphic>
										<pixelaspectratio>square</pixelaspectratio>
										<fielddominance>none</fielddominance>
									</samplecharacteristics>
								</video>
							</media>
						</file>
						<logginginfo>
							<description></description>
							<scene></scene>
							<shottake></shottake>
							<lognote></lognote>
							<good></good>
							<originalvideofilename></originalvideofilename>
							<originalaudiofilename></originalaudiofilename>
						</logginginfo>
						<colorinfo>
							<lut></lut>
							<lut1></lut1>
							<asc_sop></asc_sop>
							<asc_sat></asc_sat>
							<lut2></lut2>
						</colorinfo>
						<labels>
							<label2>Violet</label2>
						</labels>
					</clipitem>
					<clipitem id="clipitem-585">
						<masterclipid>masterclip-582</masterclipid>
						<name>TKO_012_ALS_Sh06000.mov</name>
						<enabled>TRUE</enabled>
						<duration>54</duration>
						<rate>
							<timebase>24</timebase>
							<ntsc>TRUE</ntsc>
						</rate>
						<start>48190</start>
						<end>48236</end>
						<in>4</in>
						<out>50</out>
						<pproTicksIn>42378336000</pproTicksIn>
						<pproTicksOut>529729200000</pproTicksOut>
						<alphatype>none</alphatype>
						<pixelaspectratio>square</pixelaspectratio>
						<anamorphic>FALSE</anamorphic>
						<file id="file-582">
							<name>TKO_012_ALS_Sh06000.mov</name>
							<pathurl>file://tri-stor01/Projects/TKO/SHOTS/_Refs_Movs_Burnin_FrameCounter/TKO_012_ALS_Sh06000.mov</pathurl>
							<rate>
								<timebase>24</timebase>
								<ntsc>TRUE</ntsc>
							</rate>
							<duration>54</duration>
							<timecode>
								<rate>
									<timebase>24</timebase>
									<ntsc>TRUE</ntsc>
								</rate>
								<string>20:40:54:02</string>
								<frame>1786898</frame>
								<displayformat>NDF</displayformat>
								<reel>
									<name>B0140011</name>
								</reel>
							</timecode>
							<media>
								<video>
									<samplecharacteristics>
										<rate>
											<timebase>24</timebase>
											<ntsc>TRUE</ntsc>
										</rate>
										<width>4096</width>
										<height>2160</height>
										<anamorphic>FALSE</anamorphic>
										<pixelaspectratio>square</pixelaspectratio>
										<fielddominance>none</fielddominance>
									</samplecharacteristics>
								</video>
							</media>
						</file>
						<logginginfo>
							<description></description>
							<scene></scene>
							<shottake></shottake>
							<lognote></lognote>
							<good></good>
							<originalvideofilename></originalvideofilename>
							<originalaudiofilename></originalaudiofilename>
						</logginginfo>
						<colorinfo>
							<lut></lut>
							<lut1></lut1>
							<asc_sop></asc_sop>
							<asc_sat></asc_sat>
							<lut2></lut2>
						</colorinfo>
						<labels>
							<label2>Violet</label2>
						</labels>
					</clipitem>
					<clipitem id="clipitem-586">
						<masterclipid>masterclip-583</masterclipid>
						<name>TKO_012_ALS_Sh06010.mov</name>
						<enabled>TRUE</enabled>
						<duration>49</duration>
						<rate>
							<timebase>24</timebase>
							<ntsc>TRUE</ntsc>
						</rate>
						<start>48236</start>
						<end>48277</end>
						<in>4</in>
						<out>45</out>
						<pproTicksIn>42378336000</pproTicksIn>
						<pproTicksOut>476756280000</pproTicksOut>
						<alphatype>none</alphatype>
						<pixelaspectratio>square</pixelaspectratio>
						<anamorphic>FALSE</anamorphic>
						<file id="file-583">
							<name>TKO_012_ALS_Sh06010.mov</name>
							<pathurl>file://tri-stor01/Projects/TKO/SHOTS/_Refs_Movs_Burnin_FrameCounter/TKO_012_ALS_Sh06010.mov</pathurl>
							<rate>
								<timebase>24</timebase>
								<ntsc>TRUE</ntsc>
							</rate>
							<duration>49</duration>
							<timecode>
								<rate>
									<timebase>24</timebase>
									<ntsc>TRUE</ntsc>
								</rate>
								<string>20:41:07:11</string>
								<frame>1787219</frame>
								<displayformat>NDF</displayformat>
								<reel>
									<name>A0170006</name>
								</reel>
							</timecode>
							<media>
								<video>
									<samplecharacteristics>
										<rate>
											<timebase>24</timebase>
											<ntsc>TRUE</ntsc>
										</rate>
										<width>4096</width>
										<height>2160</height>
										<anamorphic>FALSE</anamorphic>
										<pixelaspectratio>square</pixelaspectratio>
										<fielddominance>none</fielddominance>
									</samplecharacteristics>
								</video>
							</media>
						</file>
						<logginginfo>
							<description></description>
							<scene></scene>
							<shottake></shottake>
							<lognote></lognote>
							<good></good>
							<originalvideofilename></originalvideofilename>
							<originalaudiofilename></originalaudiofilename>
						</logginginfo>
						<colorinfo>
							<lut></lut>
							<lut1></lut1>
							<asc_sop></asc_sop>
							<asc_sat></asc_sat>
							<lut2></lut2>
						</colorinfo>
						<labels>
							<label2>Violet</label2>
						</labels>
					</clipitem>
					<clipitem id="clipitem-587">
						<masterclipid>masterclip-584</masterclipid>
						<name>TKO_012_ALS_Sh06020.mov</name>
						<enabled>TRUE</enabled>
						<duration>212</duration>
						<rate>
							<timebase>24</timebase>
							<ntsc>TRUE</ntsc>
						</rate>
						<start>48277</start>
						<end>48481</end>
						<in>4</in>
						<out>208</out>
						<pproTicksIn>42378336000</pproTicksIn>
						<pproTicksOut>2203673472000</pproTicksOut>
						<alphatype>none</alphatype>
						<pixelaspectratio>square</pixelaspectratio>
						<anamorphic>FALSE</anamorphic>
						<file id="file-584">
							<name>TKO_012_ALS_Sh06020.mov</name>
							<pathurl>file://tri-stor01/Projects/TKO/SHOTS/_Refs_Movs_Burnin_FrameCounter/TKO_012_ALS_Sh06020.mov</pathurl>
							<rate>
								<timebase>24</timebase>
								<ntsc>TRUE</ntsc>
							</rate>
							<duration>212</duration>
							<timecode>
								<rate>
									<timebase>24</timebase>
									<ntsc>TRUE</ntsc>
								</rate>
								<string>17:40:29:16</string>
								<frame>1527112</frame>
								<displayformat>NDF</displayformat>
								<reel>
									<name>A0440008</name>
								</reel>
							</timecode>
							<media>
								<video>
									<samplecharacteristics>
										<rate>
											<timebase>24</timebase>
											<ntsc>TRUE</ntsc>
										</rate>
										<width>4096</width>
										<height>2160</height>
										<anamorphic>FALSE</anamorphic>
										<pixelaspectratio>square</pixelaspectratio>
										<fielddominance>none</fielddominance>
									</samplecharacteristics>
								</video>
							</media>
						</file>
						<logginginfo>
							<description></description>
							<scene></scene>
							<shottake></shottake>
							<lognote></lognote>
							<good></good>
							<originalvideofilename></originalvideofilename>
							<originalaudiofilename></originalaudiofilename>
						</logginginfo>
						<colorinfo>
							<lut></lut>
							<lut1></lut1>
							<asc_sop></asc_sop>
							<asc_sat></asc_sat>
							<lut2></lut2>
						</colorinfo>
						<labels>
							<label2>Violet</label2>
						</labels>
					</clipitem>
					<clipitem id="clipitem-588">
						<masterclipid>masterclip-585</masterclipid>
						<name>TKO_012_ALS_Sh06030.mov</name>
						<enabled>TRUE</enabled>
						<duration>104</duration>
						<rate>
							<timebase>24</timebase>
							<ntsc>TRUE</ntsc>
						</rate>
						<start>48481</start>
						<end>48577</end>
						<in>4</in>
						<out>100</out>
						<pproTicksIn>42378336000</pproTicksIn>
						<pproTicksOut>1059458400000</pproTicksOut>
						<alphatype>none</alphatype>
						<pixelaspectratio>square</pixelaspectratio>
						<anamorphic>FALSE</anamorphic>
						<file id="file-585">
							<name>TKO_012_ALS_Sh06030.mov</name>
							<pathurl>file://tri-stor01/Projects/TKO/SHOTS/_Refs_Movs_Burnin_FrameCounter/TKO_012_ALS_Sh06030.mov</pathurl>
							<rate>
								<timebase>24</timebase>
								<ntsc>TRUE</ntsc>
							</rate>
							<duration>104</duration>
							<timecode>
								<rate>
									<timebase>24</timebase>
									<ntsc>TRUE</ntsc>
								</rate>
								<string>12:36:11:05</string>
								<frame>1088909</frame>
								<displayformat>NDF</displayformat>
								<reel>
									<name>C0300003</name>
								</reel>
							</timecode>
							<media>
								<video>
									<samplecharacteristics>
										<rate>
											<timebase>24</timebase>
											<ntsc>TRUE</ntsc>
										</rate>
										<width>3840</width>
										<height>2160</height>
										<anamorphic>FALSE</anamorphic>
										<pixelaspectratio>square</pixelaspectratio>
										<fielddominance>none</fielddominance>
									</samplecharacteristics>
								</video>
							</media>
						</file>
						<logginginfo>
							<description></description>
							<scene></scene>
							<shottake></shottake>
							<lognote></lognote>
							<good></good>
							<originalvideofilename></originalvideofilename>
							<originalaudiofilename></originalaudiofilename>
						</logginginfo>
						<colorinfo>
							<lut></lut>
							<lut1></lut1>
							<asc_sop></asc_sop>
							<asc_sat></asc_sat>
							<lut2></lut2>
						</colorinfo>
						<labels>
							<label2>Violet</label2>
						</labels>
					</clipitem>
					<clipitem id="clipitem-589">
						<masterclipid>masterclip-586</masterclipid>
						<name>TKO_012_ALS_Sh06040.mov</name>
						<enabled>TRUE</enabled>
						<duration>114</duration>
						<rate>
							<timebase>24</timebase>
							<ntsc>TRUE</ntsc>
						</rate>
						<start>48577</start>
						<end>48683</end>
						<in>4</in>
						<out>110</out>
						<pproTicksIn>42378336000</pproTicksIn>
						<pproTicksOut>1165404240000</pproTicksOut>
						<alphatype>none</alphatype>
						<pixelaspectratio>square</pixelaspectratio>
						<anamorphic>FALSE</anamorphic>
						<file id="file-586">
							<name>TKO_012_ALS_Sh06040.mov</name>
							<pathurl>file://tri-stor01/Projects/TKO/SHOTS/_Refs_Movs_Burnin_FrameCounter/TKO_012_ALS_Sh06040.mov</pathurl>
							<rate>
								<timebase>24</timebase>
								<ntsc>TRUE</ntsc>
							</rate>
							<duration>114</duration>
							<timecode>
								<rate>
									<timebase>24</timebase>
									<ntsc>TRUE</ntsc>
								</rate>
								<string>17:40:41:12</string>
								<frame>1527396</frame>
								<displayformat>NDF</displayformat>
								<reel>
									<name>A0440008</name>
								</reel>
							</timecode>
							<media>
								<video>
									<samplecharacteristics>
										<rate>
											<timebase>24</timebase>
											<ntsc>TRUE</ntsc>
										</rate>
										<width>4096</width>
										<height>2160</height>
										<anamorphic>FALSE</anamorphic>
										<pixelaspectratio>square</pixelaspectratio>
										<fielddominance>none</fielddominance>
									</samplecharacteristics>
								</video>
							</media>
						</file>
						<logginginfo>
							<description></description>
							<scene></scene>
							<shottake></shottake>
							<lognote></lognote>
							<good></good>
							<originalvideofilename></originalvideofilename>
							<originalaudiofilename></originalaudiofilename>
						</logginginfo>
						<colorinfo>
							<lut></lut>
							<lut1></lut1>
							<asc_sop></asc_sop>
							<asc_sat></asc_sat>
							<lut2></lut2>
						</colorinfo>
						<labels>
							<label2>Violet</label2>
						</labels>
					</clipitem>
					<clipitem id="clipitem-590">
						<masterclipid>masterclip-587</masterclipid>
						<name>TKO_012_ALS_Sh06050.mov</name>
						<enabled>TRUE</enabled>
						<duration>58</duration>
						<rate>
							<timebase>24</timebase>
							<ntsc>TRUE</ntsc>
						</rate>
						<start>48683</start>
						<end>48733</end>
						<in>4</in>
						<out>54</out>
						<pproTicksIn>42378336000</pproTicksIn>
						<pproTicksOut>572107536000</pproTicksOut>
						<alphatype>none</alphatype>
						<pixelaspectratio>square</pixelaspectratio>
						<anamorphic>FALSE</anamorphic>
						<file id="file-587">
							<name>TKO_012_ALS_Sh06050.mov</name>
							<pathurl>file://tri-stor01/Projects/TKO/SHOTS/_Refs_Movs_Burnin_FrameCounter/TKO_012_ALS_Sh06050.mov</pathurl>
							<rate>
								<timebase>24</timebase>
								<ntsc>TRUE</ntsc>
							</rate>
							<duration>58</duration>
							<timecode>
								<rate>
									<timebase>24</timebase>
									<ntsc>TRUE</ntsc>
								</rate>
								<string>18:41:05:17</string>
								<frame>1614377</frame>
								<displayformat>NDF</displayformat>
								<reel>
									<name>A0440012</name>
								</reel>
							</timecode>
							<media>
								<video>
									<samplecharacteristics>
										<rate>
											<timebase>24</timebase>
											<ntsc>TRUE</ntsc>
										</rate>
										<width>4096</width>
										<height>2160</height>
										<anamorphic>FALSE</anamorphic>
										<pixelaspectratio>square</pixelaspectratio>
										<fielddominance>none</fielddominance>
									</samplecharacteristics>
								</video>
							</media>
						</file>
						<logginginfo>
							<description></description>
							<scene></scene>
							<shottake></shottake>
							<lognote></lognote>
							<good></good>
							<originalvideofilename></originalvideofilename>
							<originalaudiofilename></originalaudiofilename>
						</logginginfo>
						<colorinfo>
							<lut></lut>
							<lut1></lut1>
							<asc_sop></asc_sop>
							<asc_sat></asc_sat>
							<lut2></lut2>
						</colorinfo>
						<labels>
							<label2>Violet</label2>
						</labels>
					</clipitem>
					<clipitem id="clipitem-591">
						<masterclipid>masterclip-588</masterclipid>
						<name>TKO_012_ALS_Sh06060.mov</name>
						<enabled>TRUE</enabled>
						<duration>75</duration>
						<rate>
							<timebase>24</timebase>
							<ntsc>TRUE</ntsc>
						</rate>
						<start>48733</start>
						<end>48800</end>
						<in>4</in>
						<out>71</out>
						<pproTicksIn>42378336000</pproTicksIn>
						<pproTicksOut>752215464000</pproTicksOut>
						<alphatype>none</alphatype>
						<pixelaspectratio>square</pixelaspectratio>
						<anamorphic>FALSE</anamorphic>
						<file id="file-588">
							<name>TKO_012_ALS_Sh06060.mov</name>
							<pathurl>file://tri-stor01/Projects/TKO/SHOTS/_Refs_Movs_Burnin_FrameCounter/TKO_012_ALS_Sh06060.mov</pathurl>
							<rate>
								<timebase>24</timebase>
								<ntsc>TRUE</ntsc>
							</rate>
							<duration>75</duration>
							<timecode>
								<rate>
									<timebase>24</timebase>
									<ntsc>TRUE</ntsc>
								</rate>
								<string>11:25:53:11</string>
								<frame>987683</frame>
								<displayformat>NDF</displayformat>
								<reel>
									<name>A0450016</name>
								</reel>
							</timecode>
							<media>
								<video>
									<samplecharacteristics>
										<rate>
											<timebase>24</timebase>
											<ntsc>TRUE</ntsc>
										</rate>
										<width>4096</width>
										<height>2160</height>
										<anamorphic>FALSE</anamorphic>
										<pixelaspectratio>square</pixelaspectratio>
										<fielddominance>none</fielddominance>
									</samplecharacteristics>
								</video>
							</media>
						</file>
						<logginginfo>
							<description></description>
							<scene></scene>
							<shottake></shottake>
							<lognote></lognote>
							<good></good>
							<originalvideofilename></originalvideofilename>
							<originalaudiofilename></originalaudiofilename>
						</logginginfo>
						<colorinfo>
							<lut></lut>
							<lut1></lut1>
							<asc_sop></asc_sop>
							<asc_sat></asc_sat>
							<lut2></lut2>
						</colorinfo>
						<labels>
							<label2>Violet</label2>
						</labels>
					</clipitem>
					<clipitem id="clipitem-592">
						<masterclipid>masterclip-589</masterclipid>
						<name>TKO_012_ALS_Sh06070.mov</name>
						<enabled>TRUE</enabled>
						<duration>50</duration>
						<rate>
							<timebase>24</timebase>
							<ntsc>TRUE</ntsc>
						</rate>
						<start>48800</start>
						<end>48842</end>
						<in>4</in>
						<out>46</out>
						<pproTicksIn>42378336000</pproTicksIn>
						<pproTicksOut>487350864000</pproTicksOut>
						<alphatype>none</alphatype>
						<pixelaspectratio>square</pixelaspectratio>
						<anamorphic>FALSE</anamorphic>
						<file id="file-589">
							<name>TKO_012_ALS_Sh06070.mov</name>
							<pathurl>file://tri-stor01/Projects/TKO/SHOTS/_Refs_Movs_Burnin_FrameCounter/TKO_012_ALS_Sh06070.mov</pathurl>
							<rate>
								<timebase>24</timebase>
								<ntsc>TRUE</ntsc>
							</rate>
							<duration>50</duration>
							<timecode>
								<rate>
									<timebase>24</timebase>
									<ntsc>TRUE</ntsc>
								</rate>
								<string>11:25:56:06</string>
								<frame>987750</frame>
								<displayformat>NDF</displayformat>
								<reel>
									<name>B0390017</name>
								</reel>
							</timecode>
							<media>
								<video>
									<samplecharacteristics>
										<rate>
											<timebase>24</timebase>
											<ntsc>TRUE</ntsc>
										</rate>
										<width>4096</width>
										<height>2160</height>
										<anamorphic>FALSE</anamorphic>
										<pixelaspectratio>square</pixelaspectratio>
										<fielddominance>none</fielddominance>
									</samplecharacteristics>
								</video>
							</media>
						</file>
						<logginginfo>
							<description></description>
							<scene></scene>
							<shottake></shottake>
							<lognote></lognote>
							<good></good>
							<originalvideofilename></originalvideofilename>
							<originalaudiofilename></originalaudiofilename>
						</logginginfo>
						<colorinfo>
							<lut></lut>
							<lut1></lut1>
							<asc_sop></asc_sop>
							<asc_sat></asc_sat>
							<lut2></lut2>
						</colorinfo>
						<labels>
							<label2>Violet</label2>
						</labels>
					</clipitem>
					<clipitem id="clipitem-593">
						<masterclipid>masterclip-590</masterclipid>
						<name>TKO_012_ALS_Sh06080.mov</name>
						<enabled>TRUE</enabled>
						<duration>46</duration>
						<rate>
							<timebase>24</timebase>
							<ntsc>TRUE</ntsc>
						</rate>
						<start>48842</start>
						<end>48880</end>
						<in>4</in>
						<out>42</out>
						<pproTicksIn>42378336000</pproTicksIn>
						<pproTicksOut>444972528000</pproTicksOut>
						<alphatype>none</alphatype>
						<pixelaspectratio>square</pixelaspectratio>
						<anamorphic>FALSE</anamorphic>
						<file id="file-590">
							<name>TKO_012_ALS_Sh06080.mov</name>
							<pathurl>file://tri-stor01/Projects/TKO/SHOTS/_Refs_Movs_Burnin_FrameCounter/TKO_012_ALS_Sh06080.mov</pathurl>
							<rate>
								<timebase>24</timebase>
								<ntsc>TRUE</ntsc>
							</rate>
							<duration>46</duration>
							<timecode>
								<rate>
									<timebase>24</timebase>
									<ntsc>TRUE</ntsc>
								</rate>
								<string>11:25:58:00</string>
								<frame>987792</frame>
								<displayformat>NDF</displayformat>
								<reel>
									<name>A0450016</name>
								</reel>
							</timecode>
							<media>
								<video>
									<samplecharacteristics>
										<rate>
											<timebase>24</timebase>
											<ntsc>TRUE</ntsc>
										</rate>
										<width>4096</width>
										<height>2160</height>
										<anamorphic>FALSE</anamorphic>
										<pixelaspectratio>square</pixelaspectratio>
										<fielddominance>none</fielddominance>
									</samplecharacteristics>
								</video>
							</media>
						</file>
						<logginginfo>
							<description></description>
							<scene></scene>
							<shottake></shottake>
							<lognote></lognote>
							<good></good>
							<originalvideofilename></originalvideofilename>
							<originalaudiofilename></originalaudiofilename>
						</logginginfo>
						<colorinfo>
							<lut></lut>
							<lut1></lut1>
							<asc_sop></asc_sop>
							<asc_sat></asc_sat>
							<lut2></lut2>
						</colorinfo>
						<labels>
							<label2>Violet</label2>
						</labels>
					</clipitem>
					<clipitem id="clipitem-594">
						<masterclipid>masterclip-591</masterclipid>
						<name>TKO_012_ALS_Sh06090_MERGED.mov</name>
						<enabled>TRUE</enabled>
						<duration>585</duration>
						<rate>
							<timebase>24</timebase>
							<ntsc>TRUE</ntsc>
						</rate>
						<start>48880</start>
						<end>49457</end>
						<in>4</in>
						<out>581</out>
						<pproTicksIn>42378336000</pproTicksIn>
						<pproTicksOut>6155453304000</pproTicksOut>
						<alphatype>none</alphatype>
						<pixelaspectratio>square</pixelaspectratio>
						<anamorphic>FALSE</anamorphic>
						<file id="file-591">
							<name>TKO_012_ALS_Sh06090_MERGED.mov</name>
							<pathurl>file://tri-stor01/Projects/TKO/SHOTS/_Refs_Movs_Burnin_FrameCounter/TKO_012_ALS_Sh06090_MERGED.mov</pathurl>
							<rate>
								<timebase>24</timebase>
								<ntsc>TRUE</ntsc>
							</rate>
							<duration>585</duration>
							<timecode>
								<rate>
									<timebase>24</timebase>
									<ntsc>TRUE</ntsc>
								</rate>
								<string>00:00:00:00</string>
								<frame>0</frame>
								<displayformat>NDF</displayformat>
							</timecode>
							<media>
								<video>
									<samplecharacteristics>
										<rate>
											<timebase>24</timebase>
											<ntsc>TRUE</ntsc>
										</rate>
										<width>1920</width>
										<height>1080</height>
										<anamorphic>FALSE</anamorphic>
										<pixelaspectratio>square</pixelaspectratio>
										<fielddominance>none</fielddominance>
									</samplecharacteristics>
								</video>
								<audio>
									<samplecharacteristics>
										<depth>16</depth>
										<samplerate>48000</samplerate>
									</samplecharacteristics>
									<channelcount>2</channelcount>
								</audio>
							</media>
						</file>
						<logginginfo>
							<description></description>
							<scene></scene>
							<shottake></shottake>
							<lognote></lognote>
							<good></good>
							<originalvideofilename></originalvideofilename>
							<originalaudiofilename></originalaudiofilename>
						</logginginfo>
						<colorinfo>
							<lut></lut>
							<lut1></lut1>
							<asc_sop></asc_sop>
							<asc_sat></asc_sat>
							<lut2></lut2>
						</colorinfo>
						<labels>
							<label2>Iris</label2>
						</labels>
					</clipitem>
					<clipitem id="clipitem-595">
						<masterclipid>masterclip-592</masterclipid>
						<name>TKO_012_ALS_Sh06100.mov</name>
						<enabled>TRUE</enabled>
						<duration>64</duration>
						<rate>
							<timebase>24</timebase>
							<ntsc>TRUE</ntsc>
						</rate>
						<start>49457</start>
						<end>49513</end>
						<in>4</in>
						<out>60</out>
						<pproTicksIn>42378336000</pproTicksIn>
						<pproTicksOut>635675040000</pproTicksOut>
						<alphatype>none</alphatype>
						<pixelaspectratio>square</pixelaspectratio>
						<anamorphic>FALSE</anamorphic>
						<file id="file-592">
							<name>TKO_012_ALS_Sh06100.mov</name>
							<pathurl>file://tri-stor01/Projects/TKO/SHOTS/_Refs_Movs_Burnin_FrameCounter/TKO_012_ALS_Sh06100.mov</pathurl>
							<rate>
								<timebase>24</timebase>
								<ntsc>TRUE</ntsc>
							</rate>
							<duration>64</duration>
							<timecode>
								<rate>
									<timebase>24</timebase>
									<ntsc>TRUE</ntsc>
								</rate>
								<string>19:33:00:10</string>
								<frame>1689130</frame>
								<displayformat>NDF</displayformat>
								<reel>
									<name>B0180018</name>
								</reel>
							</timecode>
							<media>
								<video>
									<samplecharacteristics>
										<rate>
											<timebase>24</timebase>
											<ntsc>TRUE</ntsc>
										</rate>
										<width>4096</width>
										<height>2160</height>
										<anamorphic>FALSE</anamorphic>
										<pixelaspectratio>square</pixelaspectratio>
										<fielddominance>none</fielddominance>
									</samplecharacteristics>
								</video>
							</media>
						</file>
						<logginginfo>
							<description></description>
							<scene></scene>
							<shottake></shottake>
							<lognote></lognote>
							<good></good>
							<originalvideofilename></originalvideofilename>
							<originalaudiofilename></originalaudiofilename>
						</logginginfo>
						<colorinfo>
							<lut></lut>
							<lut1></lut1>
							<asc_sop></asc_sop>
							<asc_sat></asc_sat>
							<lut2></lut2>
						</colorinfo>
						<labels>
							<label2>Violet</label2>
						</labels>
					</clipitem>
					<clipitem id="clipitem-596">
						<masterclipid>masterclip-593</masterclipid>
						<name>TKO_012_ALS_Sh06110.mov</name>
						<enabled>TRUE</enabled>
						<duration>62</duration>
						<rate>
							<timebase>24</timebase>
							<ntsc>TRUE</ntsc>
						</rate>
						<start>49513</start>
						<end>49567</end>
						<in>4</in>
						<out>58</out>
						<pproTicksIn>42378336000</pproTicksIn>
						<pproTicksOut>614485872000</pproTicksOut>
						<alphatype>none</alphatype>
						<pixelaspectratio>square</pixelaspectratio>
						<anamorphic>FALSE</anamorphic>
						<file id="file-593">
							<name>TKO_012_ALS_Sh06110.mov</name>
							<pathurl>file://tri-stor01/Projects/TKO/SHOTS/_Refs_Movs_Burnin_FrameCounter/TKO_012_ALS_Sh06110.mov</pathurl>
							<rate>
								<timebase>24</timebase>
								<ntsc>TRUE</ntsc>
							</rate>
							<duration>62</duration>
							<timecode>
								<rate>
									<timebase>24</timebase>
									<ntsc>TRUE</ntsc>
								</rate>
								<string>19:33:03:08</string>
								<frame>1689200</frame>
								<displayformat>NDF</displayformat>
								<reel>
									<name>A0210019</name>
								</reel>
							</timecode>
							<media>
								<video>
									<samplecharacteristics>
										<rate>
											<timebase>24</timebase>
											<ntsc>TRUE</ntsc>
										</rate>
										<width>4096</width>
										<height>2160</height>
										<anamorphic>FALSE</anamorphic>
										<pixelaspectratio>square</pixelaspectratio>
										<fielddominance>none</fielddominance>
									</samplecharacteristics>
								</video>
							</media>
						</file>
						<logginginfo>
							<description></description>
							<scene></scene>
							<shottake></shottake>
							<lognote></lognote>
							<good></good>
							<originalvideofilename></originalvideofilename>
							<originalaudiofilename></originalaudiofilename>
						</logginginfo>
						<colorinfo>
							<lut></lut>
							<lut1></lut1>
							<asc_sop></asc_sop>
							<asc_sat></asc_sat>
							<lut2></lut2>
						</colorinfo>
						<labels>
							<label2>Violet</label2>
						</labels>
					</clipitem>
					<clipitem id="clipitem-597">
						<masterclipid>masterclip-594</masterclipid>
						<name>TKO_012_ALS_Sh06120.mov</name>
						<enabled>TRUE</enabled>
						<duration>70</duration>
						<rate>
							<timebase>24</timebase>
							<ntsc>TRUE</ntsc>
						</rate>
						<start>49567</start>
						<end>49629</end>
						<in>4</in>
						<out>66</out>
						<pproTicksIn>42378336000</pproTicksIn>
						<pproTicksOut>699242544000</pproTicksOut>
						<alphatype>none</alphatype>
						<pixelaspectratio>square</pixelaspectratio>
						<anamorphic>FALSE</anamorphic>
						<file id="file-594">
							<name>TKO_012_ALS_Sh06120.mov</name>
							<pathurl>file://tri-stor01/Projects/TKO/SHOTS/_Refs_Movs_Burnin_FrameCounter/TKO_012_ALS_Sh06120.mov</pathurl>
							<rate>
								<timebase>24</timebase>
								<ntsc>TRUE</ntsc>
							</rate>
							<duration>70</duration>
							<timecode>
								<rate>
									<timebase>24</timebase>
									<ntsc>TRUE</ntsc>
								</rate>
								<string>19:33:05:00</string>
								<frame>1689240</frame>
								<displayformat>NDF</displayformat>
								<reel>
									<name>B0180018</name>
								</reel>
							</timecode>
							<media>
								<video>
									<samplecharacteristics>
										<rate>
											<timebase>24</timebase>
											<ntsc>TRUE</ntsc>
										</rate>
										<width>4096</width>
										<height>2160</height>
										<anamorphic>FALSE</anamorphic>
										<pixelaspectratio>square</pixelaspectratio>
										<fielddominance>none</fielddominance>
									</samplecharacteristics>
								</video>
							</media>
						</file>
						<logginginfo>
							<description></description>
							<scene></scene>
							<shottake></shottake>
							<lognote></lognote>
							<good></good>
							<originalvideofilename></originalvideofilename>
							<originalaudiofilename></originalaudiofilename>
						</logginginfo>
						<colorinfo>
							<lut></lut>
							<lut1></lut1>
							<asc_sop></asc_sop>
							<asc_sat></asc_sat>
							<lut2></lut2>
						</colorinfo>
						<labels>
							<label2>Violet</label2>
						</labels>
					</clipitem>
					<clipitem id="clipitem-598">
						<masterclipid>masterclip-595</masterclipid>
						<name>TKO_012_ALS_Sh06130.mov</name>
						<enabled>TRUE</enabled>
						<duration>62</duration>
						<rate>
							<timebase>24</timebase>
							<ntsc>TRUE</ntsc>
						</rate>
						<start>49629</start>
						<end>49683</end>
						<in>4</in>
						<out>58</out>
						<pproTicksIn>42378336000</pproTicksIn>
						<pproTicksOut>614485872000</pproTicksOut>
						<alphatype>none</alphatype>
						<pixelaspectratio>square</pixelaspectratio>
						<anamorphic>FALSE</anamorphic>
						<file id="file-595">
							<name>TKO_012_ALS_Sh06130.mov</name>
							<pathurl>file://tri-stor01/Projects/TKO/SHOTS/_Refs_Movs_Burnin_FrameCounter/TKO_012_ALS_Sh06130.mov</pathurl>
							<rate>
								<timebase>24</timebase>
								<ntsc>TRUE</ntsc>
							</rate>
							<duration>62</duration>
							<timecode>
								<rate>
									<timebase>24</timebase>
									<ntsc>TRUE</ntsc>
								</rate>
								<string>19:33:07:23</string>
								<frame>1689311</frame>
								<displayformat>NDF</displayformat>
								<reel>
									<name>A0210019</name>
								</reel>
							</timecode>
							<media>
								<video>
									<samplecharacteristics>
										<rate>
											<timebase>24</timebase>
											<ntsc>TRUE</ntsc>
										</rate>
										<width>4096</width>
										<height>2160</height>
										<anamorphic>FALSE</anamorphic>
										<pixelaspectratio>square</pixelaspectratio>
										<fielddominance>none</fielddominance>
									</samplecharacteristics>
								</video>
							</media>
						</file>
						<logginginfo>
							<description></description>
							<scene></scene>
							<shottake></shottake>
							<lognote></lognote>
							<good></good>
							<originalvideofilename></originalvideofilename>
							<originalaudiofilename></originalaudiofilename>
						</logginginfo>
						<colorinfo>
							<lut></lut>
							<lut1></lut1>
							<asc_sop></asc_sop>
							<asc_sat></asc_sat>
							<lut2></lut2>
						</colorinfo>
						<labels>
							<label2>Violet</label2>
						</labels>
					</clipitem>
					<clipitem id="clipitem-599">
						<masterclipid>masterclip-596</masterclipid>
						<name>TKO_012_ALS_Sh06140.mov</name>
						<enabled>TRUE</enabled>
						<duration>59</duration>
						<rate>
							<timebase>24</timebase>
							<ntsc>TRUE</ntsc>
						</rate>
						<start>49683</start>
						<end>49734</end>
						<in>4</in>
						<out>55</out>
						<pproTicksIn>42378336000</pproTicksIn>
						<pproTicksOut>582702120000</pproTicksOut>
						<alphatype>none</alphatype>
						<pixelaspectratio>square</pixelaspectratio>
						<anamorphic>FALSE</anamorphic>
						<file id="file-596">
							<name>TKO_012_ALS_Sh06140.mov</name>
							<pathurl>file://tri-stor01/Projects/TKO/SHOTS/_Refs_Movs_Burnin_FrameCounter/TKO_012_ALS_Sh06140.mov</pathurl>
							<rate>
								<timebase>24</timebase>
								<ntsc>TRUE</ntsc>
							</rate>
							<duration>59</duration>
							<timecode>
								<rate>
									<timebase>24</timebase>
									<ntsc>TRUE</ntsc>
								</rate>
								<string>19:33:09:18</string>
								<frame>1689354</frame>
								<displayformat>NDF</displayformat>
								<reel>
									<name>B0180018</name>
								</reel>
							</timecode>
							<media>
								<video>
									<samplecharacteristics>
										<rate>
											<timebase>24</timebase>
											<ntsc>TRUE</ntsc>
										</rate>
										<width>4096</width>
										<height>2160</height>
										<anamorphic>FALSE</anamorphic>
										<pixelaspectratio>square</pixelaspectratio>
										<fielddominance>none</fielddominance>
									</samplecharacteristics>
								</video>
							</media>
						</file>
						<logginginfo>
							<description></description>
							<scene></scene>
							<shottake></shottake>
							<lognote></lognote>
							<good></good>
							<originalvideofilename></originalvideofilename>
							<originalaudiofilename></originalaudiofilename>
						</logginginfo>
						<colorinfo>
							<lut></lut>
							<lut1></lut1>
							<asc_sop></asc_sop>
							<asc_sat></asc_sat>
							<lut2></lut2>
						</colorinfo>
						<labels>
							<label2>Violet</label2>
						</labels>
					</clipitem>
					<clipitem id="clipitem-600">
						<masterclipid>masterclip-597</masterclipid>
						<name>TKO_012_ALS_Sh06150.mov</name>
						<enabled>TRUE</enabled>
						<duration>49</duration>
						<rate>
							<timebase>24</timebase>
							<ntsc>TRUE</ntsc>
						</rate>
						<start>49734</start>
						<end>49775</end>
						<in>4</in>
						<out>45</out>
						<pproTicksIn>42378336000</pproTicksIn>
						<pproTicksOut>476756280000</pproTicksOut>
						<alphatype>none</alphatype>
						<pixelaspectratio>square</pixelaspectratio>
						<anamorphic>FALSE</anamorphic>
						<file id="file-597">
							<name>TKO_012_ALS_Sh06150.mov</name>
							<pathurl>file://tri-stor01/Projects/TKO/SHOTS/_Refs_Movs_Burnin_FrameCounter/TKO_012_ALS_Sh06150.mov</pathurl>
							<rate>
								<timebase>24</timebase>
								<ntsc>TRUE</ntsc>
							</rate>
							<duration>49</duration>
							<timecode>
								<rate>
									<timebase>24</timebase>
									<ntsc>TRUE</ntsc>
								</rate>
								<string>19:33:12:08</string>
								<frame>1689416</frame>
								<displayformat>NDF</displayformat>
								<reel>
									<name>A0210019</name>
								</reel>
							</timecode>
							<media>
								<video>
									<samplecharacteristics>
										<rate>
											<timebase>24</timebase>
											<ntsc>TRUE</ntsc>
										</rate>
										<width>4096</width>
										<height>2160</height>
										<anamorphic>FALSE</anamorphic>
										<pixelaspectratio>square</pixelaspectratio>
										<fielddominance>none</fielddominance>
									</samplecharacteristics>
								</video>
							</media>
						</file>
						<logginginfo>
							<description></description>
							<scene></scene>
							<shottake></shottake>
							<lognote></lognote>
							<good></good>
							<originalvideofilename></originalvideofilename>
							<originalaudiofilename></originalaudiofilename>
						</logginginfo>
						<colorinfo>
							<lut></lut>
							<lut1></lut1>
							<asc_sop></asc_sop>
							<asc_sat></asc_sat>
							<lut2></lut2>
						</colorinfo>
						<labels>
							<label2>Violet</label2>
						</labels>
					</clipitem>
					<clipitem id="clipitem-601">
						<masterclipid>masterclip-598</masterclipid>
						<name>TKO_012_ALS_Sh06160.mov</name>
						<enabled>TRUE</enabled>
						<duration>44</duration>
						<rate>
							<timebase>24</timebase>
							<ntsc>TRUE</ntsc>
						</rate>
						<start>49775</start>
						<end>49811</end>
						<in>4</in>
						<out>40</out>
						<pproTicksIn>42378336000</pproTicksIn>
						<pproTicksOut>423783360000</pproTicksOut>
						<alphatype>none</alphatype>
						<pixelaspectratio>square</pixelaspectratio>
						<anamorphic>FALSE</anamorphic>
						<file id="file-598">
							<name>TKO_012_ALS_Sh06160.mov</name>
							<pathurl>file://tri-stor01/Projects/TKO/SHOTS/_Refs_Movs_Burnin_FrameCounter/TKO_012_ALS_Sh06160.mov</pathurl>
							<rate>
								<timebase>24</timebase>
								<ntsc>TRUE</ntsc>
							</rate>
							<duration>44</duration>
							<timecode>
								<rate>
									<timebase>24</timebase>
									<ntsc>TRUE</ntsc>
								</rate>
								<string>19:00:53:09</string>
								<frame>1642881</frame>
								<displayformat>NDF</displayformat>
								<reel>
									<name>B0180014</name>
								</reel>
							</timecode>
							<media>
								<video>
									<samplecharacteristics>
										<rate>
											<timebase>24</timebase>
											<ntsc>TRUE</ntsc>
										</rate>
										<width>4096</width>
										<height>2160</height>
										<anamorphic>FALSE</anamorphic>
										<pixelaspectratio>square</pixelaspectratio>
										<fielddominance>none</fielddominance>
									</samplecharacteristics>
								</video>
							</media>
						</file>
						<logginginfo>
							<description></description>
							<scene></scene>
							<shottake></shottake>
							<lognote></lognote>
							<good></good>
							<originalvideofilename></originalvideofilename>
							<originalaudiofilename></originalaudiofilename>
						</logginginfo>
						<colorinfo>
							<lut></lut>
							<lut1></lut1>
							<asc_sop></asc_sop>
							<asc_sat></asc_sat>
							<lut2></lut2>
						</colorinfo>
						<labels>
							<label2>Violet</label2>
						</labels>
					</clipitem>
					<clipitem id="clipitem-602">
						<masterclipid>masterclip-599</masterclipid>
						<name>TKO_012_ALS_Sh06170.mov</name>
						<enabled>TRUE</enabled>
						<duration>64</duration>
						<rate>
							<timebase>24</timebase>
							<ntsc>TRUE</ntsc>
						</rate>
						<start>49811</start>
						<end>49867</end>
						<in>4</in>
						<out>60</out>
						<pproTicksIn>42378336000</pproTicksIn>
						<pproTicksOut>635675040000</pproTicksOut>
						<alphatype>none</alphatype>
						<pixelaspectratio>square</pixelaspectratio>
						<anamorphic>FALSE</anamorphic>
						<file id="file-599">
							<name>TKO_012_ALS_Sh06170.mov</name>
							<pathurl>file://tri-stor01/Projects/TKO/SHOTS/_Refs_Movs_Burnin_FrameCounter/TKO_012_ALS_Sh06170.mov</pathurl>
							<rate>
								<timebase>24</timebase>
								<ntsc>TRUE</ntsc>
							</rate>
							<duration>64</duration>
							<timecode>
								<rate>
									<timebase>24</timebase>
									<ntsc>TRUE</ntsc>
								</rate>
								<string>19:00:55:09</string>
								<frame>1642929</frame>
								<displayformat>NDF</displayformat>
								<reel>
									<name>A0210016</name>
								</reel>
							</timecode>
							<media>
								<video>
									<samplecharacteristics>
										<rate>
											<timebase>24</timebase>
											<ntsc>TRUE</ntsc>
										</rate>
										<width>4096</width>
										<height>2160</height>
										<anamorphic>FALSE</anamorphic>
										<pixelaspectratio>square</pixelaspectratio>
										<fielddominance>none</fielddominance>
									</samplecharacteristics>
								</video>
							</media>
						</file>
						<logginginfo>
							<description></description>
							<scene></scene>
							<shottake></shottake>
							<lognote></lognote>
							<good></good>
							<originalvideofilename></originalvideofilename>
							<originalaudiofilename></originalaudiofilename>
						</logginginfo>
						<colorinfo>
							<lut></lut>
							<lut1></lut1>
							<asc_sop></asc_sop>
							<asc_sat></asc_sat>
							<lut2></lut2>
						</colorinfo>
						<labels>
							<label2>Violet</label2>
						</labels>
					</clipitem>
					<clipitem id="clipitem-603">
						<masterclipid>masterclip-600</masterclipid>
						<name>TKO_012_ALS_Sh06180.mov</name>
						<enabled>TRUE</enabled>
						<duration>29</duration>
						<rate>
							<timebase>24</timebase>
							<ntsc>TRUE</ntsc>
						</rate>
						<start>49867</start>
						<end>49888</end>
						<in>4</in>
						<out>25</out>
						<pproTicksIn>42378336000</pproTicksIn>
						<pproTicksOut>264864600000</pproTicksOut>
						<alphatype>none</alphatype>
						<pixelaspectratio>square</pixelaspectratio>
						<anamorphic>FALSE</anamorphic>
						<file id="file-600">
							<name>TKO_012_ALS_Sh06180.mov</name>
							<pathurl>file://tri-stor01/Projects/TKO/SHOTS/_Refs_Movs_Burnin_FrameCounter/TKO_012_ALS_Sh06180.mov</pathurl>
							<rate>
								<timebase>24</timebase>
								<ntsc>TRUE</ntsc>
							</rate>
							<duration>29</duration>
							<timecode>
								<rate>
									<timebase>24</timebase>
									<ntsc>TRUE</ntsc>
								</rate>
								<string>19:00:57:05</string>
								<frame>1642973</frame>
								<displayformat>NDF</displayformat>
								<reel>
									<name>B0180014</name>
								</reel>
							</timecode>
							<media>
								<video>
									<samplecharacteristics>
										<rate>
											<timebase>24</timebase>
											<ntsc>TRUE</ntsc>
										</rate>
										<width>4096</width>
										<height>2160</height>
										<anamorphic>FALSE</anamorphic>
										<pixelaspectratio>square</pixelaspectratio>
										<fielddominance>none</fielddominance>
									</samplecharacteristics>
								</video>
							</media>
						</file>
						<logginginfo>
							<description></description>
							<scene></scene>
							<shottake></shottake>
							<lognote></lognote>
							<good></good>
							<originalvideofilename></originalvideofilename>
							<originalaudiofilename></originalaudiofilename>
						</logginginfo>
						<colorinfo>
							<lut></lut>
							<lut1></lut1>
							<asc_sop></asc_sop>
							<asc_sat></asc_sat>
							<lut2></lut2>
						</colorinfo>
						<labels>
							<label2>Violet</label2>
						</labels>
					</clipitem>
					<clipitem id="clipitem-604">
						<masterclipid>masterclip-601</masterclipid>
						<name>TKO_012_ALS_Sh06190.mov</name>
						<enabled>TRUE</enabled>
						<duration>104</duration>
						<rate>
							<timebase>24</timebase>
							<ntsc>TRUE</ntsc>
						</rate>
						<start>49888</start>
						<end>49984</end>
						<in>4</in>
						<out>100</out>
						<pproTicksIn>42378336000</pproTicksIn>
						<pproTicksOut>1059458400000</pproTicksOut>
						<alphatype>none</alphatype>
						<pixelaspectratio>square</pixelaspectratio>
						<anamorphic>FALSE</anamorphic>
						<file id="file-601">
							<name>TKO_012_ALS_Sh06190.mov</name>
							<pathurl>file://tri-stor01/Projects/TKO/SHOTS/_Refs_Movs_Burnin_FrameCounter/TKO_012_ALS_Sh06190.mov</pathurl>
							<rate>
								<timebase>24</timebase>
								<ntsc>TRUE</ntsc>
							</rate>
							<duration>104</duration>
							<timecode>
								<rate>
									<timebase>24</timebase>
									<ntsc>TRUE</ntsc>
								</rate>
								<string>19:33:18:18</string>
								<frame>1689570</frame>
								<displayformat>NDF</displayformat>
								<reel>
									<name>A0210019</name>
								</reel>
							</timecode>
							<media>
								<video>
									<samplecharacteristics>
										<rate>
											<timebase>24</timebase>
											<ntsc>TRUE</ntsc>
										</rate>
										<width>4096</width>
										<height>2160</height>
										<anamorphic>FALSE</anamorphic>
										<pixelaspectratio>square</pixelaspectratio>
										<fielddominance>none</fielddominance>
									</samplecharacteristics>
								</video>
							</media>
						</file>
						<logginginfo>
							<description></description>
							<scene></scene>
							<shottake></shottake>
							<lognote></lognote>
							<good></good>
							<originalvideofilename></originalvideofilename>
							<originalaudiofilename></originalaudiofilename>
						</logginginfo>
						<colorinfo>
							<lut></lut>
							<lut1></lut1>
							<asc_sop></asc_sop>
							<asc_sat></asc_sat>
							<lut2></lut2>
						</colorinfo>
						<labels>
							<label2>Violet</label2>
						</labels>
					</clipitem>
					<clipitem id="clipitem-605">
						<masterclipid>masterclip-602</masterclipid>
						<name>TKO_012_ALS_Sh06200_MERGED.mov</name>
						<enabled>TRUE</enabled>
						<duration>41</duration>
						<rate>
							<timebase>24</timebase>
							<ntsc>TRUE</ntsc>
						</rate>
						<start>49984</start>
						<end>50017</end>
						<in>4</in>
						<out>37</out>
						<pproTicksIn>42378336000</pproTicksIn>
						<pproTicksOut>391999608000</pproTicksOut>
						<alphatype>none</alphatype>
						<pixelaspectratio>square</pixelaspectratio>
						<anamorphic>FALSE</anamorphic>
						<file id="file-602">
							<name>TKO_012_ALS_Sh06200_MERGED.mov</name>
							<pathurl>file://tri-stor01/Projects/TKO/SHOTS/_Refs_Movs_Burnin_FrameCounter/TKO_012_ALS_Sh06200_MERGED.mov</pathurl>
							<rate>
								<timebase>24</timebase>
								<ntsc>TRUE</ntsc>
							</rate>
							<duration>41</duration>
							<timecode>
								<rate>
									<timebase>24</timebase>
									<ntsc>TRUE</ntsc>
								</rate>
								<string>00:00:00:00</string>
								<frame>0</frame>
								<displayformat>NDF</displayformat>
							</timecode>
							<media>
								<video>
									<samplecharacteristics>
										<rate>
											<timebase>24</timebase>
											<ntsc>TRUE</ntsc>
										</rate>
										<width>1920</width>
										<height>1080</height>
										<anamorphic>FALSE</anamorphic>
										<pixelaspectratio>square</pixelaspectratio>
										<fielddominance>none</fielddominance>
									</samplecharacteristics>
								</video>
								<audio>
									<samplecharacteristics>
										<depth>16</depth>
										<samplerate>48000</samplerate>
									</samplecharacteristics>
									<channelcount>2</channelcount>
								</audio>
							</media>
						</file>
						<logginginfo>
							<description></description>
							<scene></scene>
							<shottake></shottake>
							<lognote></lognote>
							<good></good>
							<originalvideofilename></originalvideofilename>
							<originalaudiofilename></originalaudiofilename>
						</logginginfo>
						<colorinfo>
							<lut></lut>
							<lut1></lut1>
							<asc_sop></asc_sop>
							<asc_sat></asc_sat>
							<lut2></lut2>
						</colorinfo>
						<labels>
							<label2>Iris</label2>
						</labels>
					</clipitem>
					<clipitem id="clipitem-606">
						<masterclipid>masterclip-603</masterclipid>
						<name>TKO_012_ALS_Sh06210.mov</name>
						<enabled>TRUE</enabled>
						<duration>69</duration>
						<rate>
							<timebase>24</timebase>
							<ntsc>TRUE</ntsc>
						</rate>
						<start>50017</start>
						<end>50078</end>
						<in>4</in>
						<out>65</out>
						<pproTicksIn>42378336000</pproTicksIn>
						<pproTicksOut>688647960000</pproTicksOut>
						<alphatype>none</alphatype>
						<pixelaspectratio>square</pixelaspectratio>
						<anamorphic>FALSE</anamorphic>
						<file id="file-603">
							<name>TKO_012_ALS_Sh06210.mov</name>
							<pathurl>file://tri-stor01/Projects/TKO/SHOTS/_Refs_Movs_Burnin_FrameCounter/TKO_012_ALS_Sh06210.mov</pathurl>
							<rate>
								<timebase>24</timebase>
								<ntsc>TRUE</ntsc>
							</rate>
							<duration>69</duration>
							<timecode>
								<rate>
									<timebase>24</timebase>
									<ntsc>TRUE</ntsc>
								</rate>
								<string>19:54:27:06</string>
								<frame>1720014</frame>
								<displayformat>NDF</displayformat>
								<reel>
									<name>A0220001</name>
								</reel>
							</timecode>
							<media>
								<video>
									<samplecharacteristics>
										<rate>
											<timebase>24</timebase>
											<ntsc>TRUE</ntsc>
										</rate>
										<width>4096</width>
										<height>2160</height>
										<anamorphic>FALSE</anamorphic>
										<pixelaspectratio>square</pixelaspectratio>
										<fielddominance>none</fielddominance>
									</samplecharacteristics>
								</video>
							</media>
						</file>
						<logginginfo>
							<description></description>
							<scene></scene>
							<shottake></shottake>
							<lognote></lognote>
							<good></good>
							<originalvideofilename></originalvideofilename>
							<originalaudiofilename></originalaudiofilename>
						</logginginfo>
						<colorinfo>
							<lut></lut>
							<lut1></lut1>
							<asc_sop></asc_sop>
							<asc_sat></asc_sat>
							<lut2></lut2>
						</colorinfo>
						<labels>
							<label2>Violet</label2>
						</labels>
					</clipitem>
					<clipitem id="clipitem-607">
						<masterclipid>masterclip-604</masterclipid>
						<name>TKO_012_ALS_Sh06220.mov</name>
						<enabled>TRUE</enabled>
						<duration>96</duration>
						<rate>
							<timebase>24</timebase>
							<ntsc>TRUE</ntsc>
						</rate>
						<start>50078</start>
						<end>50166</end>
						<in>4</in>
						<out>92</out>
						<pproTicksIn>42378336000</pproTicksIn>
						<pproTicksOut>974701728000</pproTicksOut>
						<alphatype>none</alphatype>
						<pixelaspectratio>square</pixelaspectratio>
						<anamorphic>FALSE</anamorphic>
						<file id="file-604">
							<name>TKO_012_ALS_Sh06220.mov</name>
							<pathurl>file://tri-stor01/Projects/TKO/SHOTS/_Refs_Movs_Burnin_FrameCounter/TKO_012_ALS_Sh06220.mov</pathurl>
							<rate>
								<timebase>24</timebase>
								<ntsc>TRUE</ntsc>
							</rate>
							<duration>96</duration>
							<timecode>
								<rate>
									<timebase>24</timebase>
									<ntsc>TRUE</ntsc>
								</rate>
								<string>19:12:03:10</string>
								<frame>1658962</frame>
								<displayformat>NDF</displayformat>
								<reel>
									<name>A0040001</name>
								</reel>
							</timecode>
							<media>
								<video>
									<samplecharacteristics>
										<rate>
											<timebase>24</timebase>
											<ntsc>TRUE</ntsc>
										</rate>
										<width>4096</width>
										<height>2160</height>
										<anamorphic>FALSE</anamorphic>
										<pixelaspectratio>square</pixelaspectratio>
										<fielddominance>none</fielddominance>
									</samplecharacteristics>
								</video>
							</media>
						</file>
						<logginginfo>
							<description></description>
							<scene></scene>
							<shottake></shottake>
							<lognote></lognote>
							<good></good>
							<originalvideofilename></originalvideofilename>
							<originalaudiofilename></originalaudiofilename>
						</logginginfo>
						<colorinfo>
							<lut></lut>
							<lut1></lut1>
							<asc_sop></asc_sop>
							<asc_sat></asc_sat>
							<lut2></lut2>
						</colorinfo>
						<labels>
							<label2>Violet</label2>
						</labels>
					</clipitem>
					<clipitem id="clipitem-608">
						<masterclipid>masterclip-605</masterclipid>
						<name>TKO_012_ALS_Sh06230.mov</name>
						<enabled>TRUE</enabled>
						<duration>72</duration>
						<rate>
							<timebase>24</timebase>
							<ntsc>TRUE</ntsc>
						</rate>
						<start>50166</start>
						<end>50230</end>
						<in>4</in>
						<out>68</out>
						<pproTicksIn>42378336000</pproTicksIn>
						<pproTicksOut>720431712000</pproTicksOut>
						<alphatype>none</alphatype>
						<pixelaspectratio>square</pixelaspectratio>
						<anamorphic>FALSE</anamorphic>
						<file id="file-605">
							<name>TKO_012_ALS_Sh06230.mov</name>
							<pathurl>file://tri-stor01/Projects/TKO/SHOTS/_Refs_Movs_Burnin_FrameCounter/TKO_012_ALS_Sh06230.mov</pathurl>
							<rate>
								<timebase>24</timebase>
								<ntsc>TRUE</ntsc>
							</rate>
							<duration>72</duration>
							<timecode>
								<rate>
									<timebase>24</timebase>
									<ntsc>TRUE</ntsc>
								</rate>
								<string>19:54:33:22</string>
								<frame>1720174</frame>
								<displayformat>NDF</displayformat>
								<reel>
									<name>A0220001</name>
								</reel>
							</timecode>
							<media>
								<video>
									<samplecharacteristics>
										<rate>
											<timebase>24</timebase>
											<ntsc>TRUE</ntsc>
										</rate>
										<width>4096</width>
										<height>2160</height>
										<anamorphic>FALSE</anamorphic>
										<pixelaspectratio>square</pixelaspectratio>
										<fielddominance>none</fielddominance>
									</samplecharacteristics>
								</video>
							</media>
						</file>
						<logginginfo>
							<description></description>
							<scene></scene>
							<shottake></shottake>
							<lognote></lognote>
							<good></good>
							<originalvideofilename></originalvideofilename>
							<originalaudiofilename></originalaudiofilename>
						</logginginfo>
						<colorinfo>
							<lut></lut>
							<lut1></lut1>
							<asc_sop></asc_sop>
							<asc_sat></asc_sat>
							<lut2></lut2>
						</colorinfo>
						<labels>
							<label2>Violet</label2>
						</labels>
					</clipitem>
					<clipitem id="clipitem-609">
						<masterclipid>masterclip-606</masterclipid>
						<name>TKO_012_ALS_Sh06240.mov</name>
						<enabled>TRUE</enabled>
						<duration>188</duration>
						<rate>
							<timebase>24</timebase>
							<ntsc>TRUE</ntsc>
						</rate>
						<start>50230</start>
						<end>50410</end>
						<in>4</in>
						<out>184</out>
						<pproTicksIn>42378336000</pproTicksIn>
						<pproTicksOut>1949403456000</pproTicksOut>
						<alphatype>none</alphatype>
						<pixelaspectratio>square</pixelaspectratio>
						<anamorphic>FALSE</anamorphic>
						<file id="file-606">
							<name>TKO_012_ALS_Sh06240.mov</name>
							<pathurl>file://tri-stor01/Projects/TKO/SHOTS/_Refs_Movs_Burnin_FrameCounter/TKO_012_ALS_Sh06240.mov</pathurl>
							<rate>
								<timebase>24</timebase>
								<ntsc>TRUE</ntsc>
							</rate>
							<duration>188</duration>
							<timecode>
								<rate>
									<timebase>24</timebase>
									<ntsc>TRUE</ntsc>
								</rate>
								<string>20:30:15:20</string>
								<frame>1771580</frame>
								<displayformat>NDF</displayformat>
								<reel>
									<name>A0280011</name>
								</reel>
							</timecode>
							<media>
								<video>
									<samplecharacteristics>
										<rate>
											<timebase>24</timebase>
											<ntsc>TRUE</ntsc>
										</rate>
										<width>4096</width>
										<height>2160</height>
										<anamorphic>FALSE</anamorphic>
										<pixelaspectratio>square</pixelaspectratio>
										<fielddominance>none</fielddominance>
									</samplecharacteristics>
								</video>
							</media>
						</file>
						<logginginfo>
							<description></description>
							<scene></scene>
							<shottake></shottake>
							<lognote></lognote>
							<good></good>
							<originalvideofilename></originalvideofilename>
							<originalaudiofilename></originalaudiofilename>
						</logginginfo>
						<colorinfo>
							<lut></lut>
							<lut1></lut1>
							<asc_sop></asc_sop>
							<asc_sat></asc_sat>
							<lut2></lut2>
						</colorinfo>
						<labels>
							<label2>Violet</label2>
						</labels>
					</clipitem>
					<clipitem id="clipitem-610">
						<masterclipid>masterclip-607</masterclipid>
						<name>TKO_012_ALS_Sh06250.mov</name>
						<enabled>TRUE</enabled>
						<duration>61</duration>
						<rate>
							<timebase>24</timebase>
							<ntsc>TRUE</ntsc>
						</rate>
						<start>50410</start>
						<end>50463</end>
						<in>4</in>
						<out>57</out>
						<pproTicksIn>42378336000</pproTicksIn>
						<pproTicksOut>603891288000</pproTicksOut>
						<alphatype>none</alphatype>
						<pixelaspectratio>square</pixelaspectratio>
						<anamorphic>FALSE</anamorphic>
						<file id="file-607">
							<name>TKO_012_ALS_Sh06250.mov</name>
							<pathurl>file://tri-stor01/Projects/TKO/SHOTS/_Refs_Movs_Burnin_FrameCounter/TKO_012_ALS_Sh06250.mov</pathurl>
							<rate>
								<timebase>24</timebase>
								<ntsc>TRUE</ntsc>
							</rate>
							<duration>61</duration>
							<timecode>
								<rate>
									<timebase>24</timebase>
									<ntsc>TRUE</ntsc>
								</rate>
								<string>20:42:02:10</string>
								<frame>1788538</frame>
								<displayformat>NDF</displayformat>
								<reel>
									<name>A0280013</name>
								</reel>
							</timecode>
							<media>
								<video>
									<samplecharacteristics>
										<rate>
											<timebase>24</timebase>
											<ntsc>TRUE</ntsc>
										</rate>
										<width>4096</width>
										<height>2160</height>
										<anamorphic>FALSE</anamorphic>
										<pixelaspectratio>square</pixelaspectratio>
										<fielddominance>none</fielddominance>
									</samplecharacteristics>
								</video>
							</media>
						</file>
						<logginginfo>
							<description></description>
							<scene></scene>
							<shottake></shottake>
							<lognote></lognote>
							<good></good>
							<originalvideofilename></originalvideofilename>
							<originalaudiofilename></originalaudiofilename>
						</logginginfo>
						<colorinfo>
							<lut></lut>
							<lut1></lut1>
							<asc_sop></asc_sop>
							<asc_sat></asc_sat>
							<lut2></lut2>
						</colorinfo>
						<labels>
							<label2>Violet</label2>
						</labels>
					</clipitem>
					<clipitem id="clipitem-611">
						<masterclipid>masterclip-608</masterclipid>
						<name>TKO_012_ALS_Sh06260.mov</name>
						<enabled>TRUE</enabled>
						<duration>91</duration>
						<rate>
							<timebase>24</timebase>
							<ntsc>TRUE</ntsc>
						</rate>
						<start>50463</start>
						<end>50546</end>
						<in>4</in>
						<out>87</out>
						<pproTicksIn>42378336000</pproTicksIn>
						<pproTicksOut>921728808000</pproTicksOut>
						<alphatype>none</alphatype>
						<pixelaspectratio>square</pixelaspectratio>
						<anamorphic>FALSE</anamorphic>
						<file id="file-608">
							<name>TKO_012_ALS_Sh06260.mov</name>
							<pathurl>file://tri-stor01/Projects/TKO/SHOTS/_Refs_Movs_Burnin_FrameCounter/TKO_012_ALS_Sh06260.mov</pathurl>
							<rate>
								<timebase>24</timebase>
								<ntsc>TRUE</ntsc>
							</rate>
							<duration>91</duration>
							<timecode>
								<rate>
									<timebase>24</timebase>
									<ntsc>TRUE</ntsc>
								</rate>
								<string>20:30:29:12</string>
								<frame>1771908</frame>
								<displayformat>NDF</displayformat>
								<reel>
									<name>A0280011</name>
								</reel>
							</timecode>
							<media>
								<video>
									<samplecharacteristics>
										<rate>
											<timebase>24</timebase>
											<ntsc>TRUE</ntsc>
										</rate>
										<width>4096</width>
										<height>2160</height>
										<anamorphic>FALSE</anamorphic>
										<pixelaspectratio>square</pixelaspectratio>
										<fielddominance>none</fielddominance>
									</samplecharacteristics>
								</video>
							</media>
						</file>
						<logginginfo>
							<description></description>
							<scene></scene>
							<shottake></shottake>
							<lognote></lognote>
							<good></good>
							<originalvideofilename></originalvideofilename>
							<originalaudiofilename></originalaudiofilename>
						</logginginfo>
						<colorinfo>
							<lut></lut>
							<lut1></lut1>
							<asc_sop></asc_sop>
							<asc_sat></asc_sat>
							<lut2></lut2>
						</colorinfo>
						<labels>
							<label2>Violet</label2>
						</labels>
					</clipitem>
					<clipitem id="clipitem-612">
						<masterclipid>masterclip-609</masterclipid>
						<name>TKO_012_ALS_Sh06270.mov</name>
						<enabled>TRUE</enabled>
						<duration>65</duration>
						<rate>
							<timebase>24</timebase>
							<ntsc>TRUE</ntsc>
						</rate>
						<start>50546</start>
						<end>50603</end>
						<in>4</in>
						<out>61</out>
						<pproTicksIn>42378336000</pproTicksIn>
						<pproTicksOut>646269624000</pproTicksOut>
						<alphatype>none</alphatype>
						<pixelaspectratio>square</pixelaspectratio>
						<anamorphic>FALSE</anamorphic>
						<file id="file-609">
							<name>TKO_012_ALS_Sh06270.mov</name>
							<pathurl>file://tri-stor01/Projects/TKO/SHOTS/_Refs_Movs_Burnin_FrameCounter/TKO_012_ALS_Sh06270.mov</pathurl>
							<rate>
								<timebase>24</timebase>
								<ntsc>TRUE</ntsc>
							</rate>
							<duration>65</duration>
							<timecode>
								<rate>
									<timebase>24</timebase>
									<ntsc>TRUE</ntsc>
								</rate>
								<string>20:30:32:23</string>
								<frame>1771991</frame>
								<displayformat>NDF</displayformat>
								<reel>
									<name>B0240011</name>
								</reel>
							</timecode>
							<media>
								<video>
									<samplecharacteristics>
										<rate>
											<timebase>24</timebase>
											<ntsc>TRUE</ntsc>
										</rate>
										<width>4096</width>
										<height>2160</height>
										<anamorphic>FALSE</anamorphic>
										<pixelaspectratio>square</pixelaspectratio>
										<fielddominance>none</fielddominance>
									</samplecharacteristics>
								</video>
							</media>
						</file>
						<logginginfo>
							<description></description>
							<scene></scene>
							<shottake></shottake>
							<lognote></lognote>
							<good></good>
							<originalvideofilename></originalvideofilename>
							<originalaudiofilename></originalaudiofilename>
						</logginginfo>
						<colorinfo>
							<lut></lut>
							<lut1></lut1>
							<asc_sop></asc_sop>
							<asc_sat></asc_sat>
							<lut2></lut2>
						</colorinfo>
						<labels>
							<label2>Violet</label2>
						</labels>
					</clipitem>
					<clipitem id="clipitem-613">
						<masterclipid>masterclip-610</masterclipid>
						<name>TKO_012_ALS_Sh06280.mov</name>
						<enabled>TRUE</enabled>
						<duration>79</duration>
						<rate>
							<timebase>24</timebase>
							<ntsc>TRUE</ntsc>
						</rate>
						<start>50603</start>
						<end>50674</end>
						<in>4</in>
						<out>75</out>
						<pproTicksIn>42378336000</pproTicksIn>
						<pproTicksOut>794593800000</pproTicksOut>
						<alphatype>none</alphatype>
						<pixelaspectratio>square</pixelaspectratio>
						<anamorphic>FALSE</anamorphic>
						<file id="file-610">
							<name>TKO_012_ALS_Sh06280.mov</name>
							<pathurl>file://tri-stor01/Projects/TKO/SHOTS/_Refs_Movs_Burnin_FrameCounter/TKO_012_ALS_Sh06280.mov</pathurl>
							<rate>
								<timebase>24</timebase>
								<ntsc>TRUE</ntsc>
							</rate>
							<duration>79</duration>
							<timecode>
								<rate>
									<timebase>24</timebase>
									<ntsc>TRUE</ntsc>
								</rate>
								<string>20:42:50:03</string>
								<frame>1789683</frame>
								<displayformat>NDF</displayformat>
								<reel>
									<name>B0240013</name>
								</reel>
							</timecode>
							<media>
								<video>
									<samplecharacteristics>
										<rate>
											<timebase>24</timebase>
											<ntsc>TRUE</ntsc>
										</rate>
										<width>4096</width>
										<height>2160</height>
										<anamorphic>FALSE</anamorphic>
										<pixelaspectratio>square</pixelaspectratio>
										<fielddominance>none</fielddominance>
									</samplecharacteristics>
								</video>
							</media>
						</file>
						<logginginfo>
							<description></description>
							<scene></scene>
							<shottake></shottake>
							<lognote></lognote>
							<good></good>
							<originalvideofilename></originalvideofilename>
							<originalaudiofilename></originalaudiofilename>
						</logginginfo>
						<colorinfo>
							<lut></lut>
							<lut1></lut1>
							<asc_sop></asc_sop>
							<asc_sat></asc_sat>
							<lut2></lut2>
						</colorinfo>
						<labels>
							<label2>Violet</label2>
						</labels>
					</clipitem>
					<clipitem id="clipitem-614">
						<masterclipid>masterclip-611</masterclipid>
						<name>TKO_012_ALS_Sh06290.mov</name>
						<enabled>TRUE</enabled>
						<duration>137</duration>
						<rate>
							<timebase>24</timebase>
							<ntsc>TRUE</ntsc>
						</rate>
						<start>50674</start>
						<end>50803</end>
						<in>4</in>
						<out>133</out>
						<pproTicksIn>42378336000</pproTicksIn>
						<pproTicksOut>1409079672000</pproTicksOut>
						<alphatype>none</alphatype>
						<pixelaspectratio>square</pixelaspectratio>
						<anamorphic>FALSE</anamorphic>
						<file id="file-611">
							<name>TKO_012_ALS_Sh06290.mov</name>
							<pathurl>file://tri-stor01/Projects/TKO/SHOTS/_Refs_Movs_Burnin_FrameCounter/TKO_012_ALS_Sh06290.mov</pathurl>
							<rate>
								<timebase>24</timebase>
								<ntsc>TRUE</ntsc>
							</rate>
							<duration>137</duration>
							<timecode>
								<rate>
									<timebase>24</timebase>
									<ntsc>TRUE</ntsc>
								</rate>
								<string>20:30:38:09</string>
								<frame>1772121</frame>
								<displayformat>NDF</displayformat>
								<reel>
									<name>A0280011</name>
								</reel>
							</timecode>
							<media>
								<video>
									<samplecharacteristics>
										<rate>
											<timebase>24</timebase>
											<ntsc>TRUE</ntsc>
										</rate>
										<width>4096</width>
										<height>2160</height>
										<anamorphic>FALSE</anamorphic>
										<pixelaspectratio>square</pixelaspectratio>
										<fielddominance>none</fielddominance>
									</samplecharacteristics>
								</video>
							</media>
						</file>
						<logginginfo>
							<description></description>
							<scene></scene>
							<shottake></shottake>
							<lognote></lognote>
							<good></good>
							<originalvideofilename></originalvideofilename>
							<originalaudiofilename></originalaudiofilename>
						</logginginfo>
						<colorinfo>
							<lut></lut>
							<lut1></lut1>
							<asc_sop></asc_sop>
							<asc_sat></asc_sat>
							<lut2></lut2>
						</colorinfo>
						<labels>
							<label2>Violet</label2>
						</labels>
					</clipitem>
					<clipitem id="clipitem-615">
						<masterclipid>masterclip-612</masterclipid>
						<name>TKO_012_ALS_Sh06300.mov</name>
						<enabled>TRUE</enabled>
						<duration>92</duration>
						<rate>
							<timebase>24</timebase>
							<ntsc>TRUE</ntsc>
						</rate>
						<start>50803</start>
						<end>50887</end>
						<in>4</in>
						<out>88</out>
						<pproTicksIn>42378336000</pproTicksIn>
						<pproTicksOut>932323392000</pproTicksOut>
						<alphatype>none</alphatype>
						<pixelaspectratio>square</pixelaspectratio>
						<anamorphic>FALSE</anamorphic>
						<file id="file-612">
							<name>TKO_012_ALS_Sh06300.mov</name>
							<pathurl>file://tri-stor01/Projects/TKO/SHOTS/_Refs_Movs_Burnin_FrameCounter/TKO_012_ALS_Sh06300.mov</pathurl>
							<rate>
								<timebase>24</timebase>
								<ntsc>TRUE</ntsc>
							</rate>
							<duration>92</duration>
							<timecode>
								<rate>
									<timebase>24</timebase>
									<ntsc>TRUE</ntsc>
								</rate>
								<string>19:54:36:14</string>
								<frame>1720238</frame>
								<displayformat>NDF</displayformat>
								<reel>
									<name>A0220001</name>
								</reel>
							</timecode>
							<media>
								<video>
									<samplecharacteristics>
										<rate>
											<timebase>24</timebase>
											<ntsc>TRUE</ntsc>
										</rate>
										<width>4096</width>
										<height>2160</height>
										<anamorphic>FALSE</anamorphic>
										<pixelaspectratio>square</pixelaspectratio>
										<fielddominance>none</fielddominance>
									</samplecharacteristics>
								</video>
							</media>
						</file>
						<logginginfo>
							<description></description>
							<scene></scene>
							<shottake></shottake>
							<lognote></lognote>
							<good></good>
							<originalvideofilename></originalvideofilename>
							<originalaudiofilename></originalaudiofilename>
						</logginginfo>
						<colorinfo>
							<lut></lut>
							<lut1></lut1>
							<asc_sop></asc_sop>
							<asc_sat></asc_sat>
							<lut2></lut2>
						</colorinfo>
						<labels>
							<label2>Violet</label2>
						</labels>
					</clipitem>
					<clipitem id="clipitem-616">
						<masterclipid>masterclip-613</masterclipid>
						<name>TKO_012_ALS_Sh06310_MERGED.mov</name>
						<enabled>TRUE</enabled>
						<duration>44</duration>
						<rate>
							<timebase>24</timebase>
							<ntsc>TRUE</ntsc>
						</rate>
						<start>50887</start>
						<end>50923</end>
						<in>4</in>
						<out>40</out>
						<pproTicksIn>42378336000</pproTicksIn>
						<pproTicksOut>423783360000</pproTicksOut>
						<alphatype>none</alphatype>
						<pixelaspectratio>square</pixelaspectratio>
						<anamorphic>FALSE</anamorphic>
						<file id="file-613">
							<name>TKO_012_ALS_Sh06310_MERGED.mov</name>
							<pathurl>file://tri-stor01/Projects/TKO/SHOTS/_Refs_Movs_Burnin_FrameCounter/TKO_012_ALS_Sh06310_MERGED.mov</pathurl>
							<rate>
								<timebase>24</timebase>
								<ntsc>TRUE</ntsc>
							</rate>
							<duration>44</duration>
							<timecode>
								<rate>
									<timebase>24</timebase>
									<ntsc>TRUE</ntsc>
								</rate>
								<string>00:00:00:00</string>
								<frame>0</frame>
								<displayformat>NDF</displayformat>
							</timecode>
							<media>
								<video>
									<samplecharacteristics>
										<rate>
											<timebase>24</timebase>
											<ntsc>TRUE</ntsc>
										</rate>
										<width>1920</width>
										<height>1080</height>
										<anamorphic>FALSE</anamorphic>
										<pixelaspectratio>square</pixelaspectratio>
										<fielddominance>none</fielddominance>
									</samplecharacteristics>
								</video>
								<audio>
									<samplecharacteristics>
										<depth>16</depth>
										<samplerate>48000</samplerate>
									</samplecharacteristics>
									<channelcount>2</channelcount>
								</audio>
							</media>
						</file>
						<logginginfo>
							<description></description>
							<scene></scene>
							<shottake></shottake>
							<lognote></lognote>
							<good></good>
							<originalvideofilename></originalvideofilename>
							<originalaudiofilename></originalaudiofilename>
						</logginginfo>
						<colorinfo>
							<lut></lut>
							<lut1></lut1>
							<asc_sop></asc_sop>
							<asc_sat></asc_sat>
							<lut2></lut2>
						</colorinfo>
						<labels>
							<label2>Iris</label2>
						</labels>
					</clipitem>
					<clipitem id="clipitem-617">
						<masterclipid>masterclip-614</masterclipid>
						<name>TKO_012_ALS_Sh06320.mov</name>
						<enabled>TRUE</enabled>
						<duration>110</duration>
						<rate>
							<timebase>24</timebase>
							<ntsc>TRUE</ntsc>
						</rate>
						<start>50923</start>
						<end>51025</end>
						<in>4</in>
						<out>106</out>
						<pproTicksIn>42378336000</pproTicksIn>
						<pproTicksOut>1123025904000</pproTicksOut>
						<alphatype>none</alphatype>
						<pixelaspectratio>square</pixelaspectratio>
						<anamorphic>FALSE</anamorphic>
						<file id="file-614">
							<name>TKO_012_ALS_Sh06320.mov</name>
							<pathurl>file://tri-stor01/Projects/TKO/SHOTS/_Refs_Movs_Burnin_FrameCounter/TKO_012_ALS_Sh06320.mov</pathurl>
							<rate>
								<timebase>24</timebase>
								<ntsc>TRUE</ntsc>
							</rate>
							<duration>110</duration>
							<timecode>
								<rate>
									<timebase>24</timebase>
									<ntsc>TRUE</ntsc>
								</rate>
								<string>20:12:44:09</string>
								<frame>1746345</frame>
								<displayformat>NDF</displayformat>
								<reel>
									<name>A0220003</name>
								</reel>
							</timecode>
							<media>
								<video>
									<samplecharacteristics>
										<rate>
											<timebase>24</timebase>
											<ntsc>TRUE</ntsc>
										</rate>
										<width>4096</width>
										<height>2160</height>
										<anamorphic>FALSE</anamorphic>
										<pixelaspectratio>square</pixelaspectratio>
										<fielddominance>none</fielddominance>
									</samplecharacteristics>
								</video>
							</media>
						</file>
						<logginginfo>
							<description></description>
							<scene></scene>
							<shottake></shottake>
							<lognote></lognote>
							<good></good>
							<originalvideofilename></originalvideofilename>
							<originalaudiofilename></originalaudiofilename>
						</logginginfo>
						<colorinfo>
							<lut></lut>
							<lut1></lut1>
							<asc_sop></asc_sop>
							<asc_sat></asc_sat>
							<lut2></lut2>
						</colorinfo>
						<labels>
							<label2>Violet</label2>
						</labels>
					</clipitem>
					<clipitem id="clipitem-618">
						<masterclipid>masterclip-615</masterclipid>
						<name>TKO_012_ALS_Sh06330.mov</name>
						<enabled>TRUE</enabled>
						<duration>41</duration>
						<rate>
							<timebase>24</timebase>
							<ntsc>TRUE</ntsc>
						</rate>
						<start>51025</start>
						<end>51058</end>
						<in>4</in>
						<out>37</out>
						<pproTicksIn>42378336000</pproTicksIn>
						<pproTicksOut>391999608000</pproTicksOut>
						<alphatype>none</alphatype>
						<pixelaspectratio>square</pixelaspectratio>
						<anamorphic>FALSE</anamorphic>
						<file id="file-615">
							<name>TKO_012_ALS_Sh06330.mov</name>
							<pathurl>file://tri-stor01/Projects/TKO/SHOTS/_Refs_Movs_Burnin_FrameCounter/TKO_012_ALS_Sh06330.mov</pathurl>
							<rate>
								<timebase>24</timebase>
								<ntsc>TRUE</ntsc>
							</rate>
							<duration>41</duration>
							<timecode>
								<rate>
									<timebase>24</timebase>
									<ntsc>TRUE</ntsc>
								</rate>
								<string>19:33:40:05</string>
								<frame>1690085</frame>
								<displayformat>NDF</displayformat>
								<reel>
									<name>B0180018</name>
								</reel>
							</timecode>
							<media>
								<video>
									<samplecharacteristics>
										<rate>
											<timebase>24</timebase>
											<ntsc>TRUE</ntsc>
										</rate>
										<width>4096</width>
										<height>2160</height>
										<anamorphic>FALSE</anamorphic>
										<pixelaspectratio>square</pixelaspectratio>
										<fielddominance>none</fielddominance>
									</samplecharacteristics>
								</video>
							</media>
						</file>
						<logginginfo>
							<description></description>
							<scene></scene>
							<shottake></shottake>
							<lognote></lognote>
							<good></good>
							<originalvideofilename></originalvideofilename>
							<originalaudiofilename></originalaudiofilename>
						</logginginfo>
						<colorinfo>
							<lut></lut>
							<lut1></lut1>
							<asc_sop></asc_sop>
							<asc_sat></asc_sat>
							<lut2></lut2>
						</colorinfo>
						<labels>
							<label2>Violet</label2>
						</labels>
					</clipitem>
					<clipitem id="clipitem-619">
						<masterclipid>masterclip-616</masterclipid>
						<name>TKO_012_ALS_Sh06340.mov</name>
						<enabled>TRUE</enabled>
						<duration>44</duration>
						<rate>
							<timebase>24</timebase>
							<ntsc>TRUE</ntsc>
						</rate>
						<start>51058</start>
						<end>51094</end>
						<in>4</in>
						<out>40</out>
						<pproTicksIn>42378336000</pproTicksIn>
						<pproTicksOut>423783360000</pproTicksOut>
						<alphatype>none</alphatype>
						<pixelaspectratio>square</pixelaspectratio>
						<anamorphic>FALSE</anamorphic>
						<file id="file-616">
							<name>TKO_012_ALS_Sh06340.mov</name>
							<pathurl>file://tri-stor01/Projects/TKO/SHOTS/_Refs_Movs_Burnin_FrameCounter/TKO_012_ALS_Sh06340.mov</pathurl>
							<rate>
								<timebase>24</timebase>
								<ntsc>TRUE</ntsc>
							</rate>
							<duration>44</duration>
							<timecode>
								<rate>
									<timebase>24</timebase>
									<ntsc>TRUE</ntsc>
								</rate>
								<string>14:37:19:10</string>
								<frame>1263346</frame>
								<displayformat>NDF</displayformat>
								<reel>
									<name>B0400001</name>
								</reel>
							</timecode>
							<media>
								<video>
									<samplecharacteristics>
										<rate>
											<timebase>24</timebase>
											<ntsc>TRUE</ntsc>
										</rate>
										<width>4096</width>
										<height>2160</height>
										<anamorphic>FALSE</anamorphic>
										<pixelaspectratio>square</pixelaspectratio>
										<fielddominance>none</fielddominance>
									</samplecharacteristics>
								</video>
							</media>
						</file>
						<logginginfo>
							<description></description>
							<scene></scene>
							<shottake></shottake>
							<lognote></lognote>
							<good></good>
							<originalvideofilename></originalvideofilename>
							<originalaudiofilename></originalaudiofilename>
						</logginginfo>
						<colorinfo>
							<lut></lut>
							<lut1></lut1>
							<asc_sop></asc_sop>
							<asc_sat></asc_sat>
							<lut2></lut2>
						</colorinfo>
						<labels>
							<label2>Violet</label2>
						</labels>
					</clipitem>
					<clipitem id="clipitem-620">
						<masterclipid>masterclip-617</masterclipid>
						<name>TKO_012_ALS_Sh06350.mov</name>
						<enabled>TRUE</enabled>
						<duration>96</duration>
						<rate>
							<timebase>24</timebase>
							<ntsc>TRUE</ntsc>
						</rate>
						<start>51094</start>
						<end>51182</end>
						<in>4</in>
						<out>92</out>
						<pproTicksIn>42378336000</pproTicksIn>
						<pproTicksOut>974701728000</pproTicksOut>
						<alphatype>none</alphatype>
						<pixelaspectratio>square</pixelaspectratio>
						<anamorphic>FALSE</anamorphic>
						<file id="file-617">
							<name>TKO_012_ALS_Sh06350.mov</name>
							<pathurl>file://tri-stor01/Projects/TKO/SHOTS/_Refs_Movs_Burnin_FrameCounter/TKO_012_ALS_Sh06350.mov</pathurl>
							<rate>
								<timebase>24</timebase>
								<ntsc>TRUE</ntsc>
							</rate>
							<duration>96</duration>
							<timecode>
								<rate>
									<timebase>24</timebase>
									<ntsc>TRUE</ntsc>
								</rate>
								<string>14:50:34:07</string>
								<frame>1282423</frame>
								<displayformat>NDF</displayformat>
								<reel>
									<name>B0400003</name>
								</reel>
							</timecode>
							<media>
								<video>
									<samplecharacteristics>
										<rate>
											<timebase>24</timebase>
											<ntsc>TRUE</ntsc>
										</rate>
										<width>4096</width>
										<height>2160</height>
										<anamorphic>FALSE</anamorphic>
										<pixelaspectratio>square</pixelaspectratio>
										<fielddominance>none</fielddominance>
									</samplecharacteristics>
								</video>
							</media>
						</file>
						<logginginfo>
							<description></description>
							<scene></scene>
							<shottake></shottake>
							<lognote></lognote>
							<good></good>
							<originalvideofilename></originalvideofilename>
							<originalaudiofilename></originalaudiofilename>
						</logginginfo>
						<colorinfo>
							<lut></lut>
							<lut1></lut1>
							<asc_sop></asc_sop>
							<asc_sat></asc_sat>
							<lut2></lut2>
						</colorinfo>
						<labels>
							<label2>Violet</label2>
						</labels>
					</clipitem>
					<clipitem id="clipitem-621">
						<masterclipid>masterclip-618</masterclipid>
						<name>TKO_012_ALS_Sh06360.mov</name>
						<enabled>TRUE</enabled>
						<duration>33</duration>
						<rate>
							<timebase>24</timebase>
							<ntsc>TRUE</ntsc>
						</rate>
						<start>51182</start>
						<end>51207</end>
						<in>4</in>
						<out>29</out>
						<pproTicksIn>42378336000</pproTicksIn>
						<pproTicksOut>307242936000</pproTicksOut>
						<alphatype>none</alphatype>
						<pixelaspectratio>square</pixelaspectratio>
						<anamorphic>FALSE</anamorphic>
						<file id="file-618">
							<name>TKO_012_ALS_Sh06360.mov</name>
							<pathurl>file://tri-stor01/Projects/TKO/SHOTS/_Refs_Movs_Burnin_FrameCounter/TKO_012_ALS_Sh06360.mov</pathurl>
							<rate>
								<timebase>24</timebase>
								<ntsc>TRUE</ntsc>
							</rate>
							<duration>33</duration>
							<timecode>
								<rate>
									<timebase>24</timebase>
									<ntsc>TRUE</ntsc>
								</rate>
								<string>12:15:33:20</string>
								<frame>1059212</frame>
								<displayformat>NDF</displayformat>
								<reel>
									<name>A0450019</name>
								</reel>
							</timecode>
							<media>
								<video>
									<samplecharacteristics>
										<rate>
											<timebase>24</timebase>
											<ntsc>TRUE</ntsc>
										</rate>
										<width>4096</width>
										<height>2160</height>
										<anamorphic>FALSE</anamorphic>
										<pixelaspectratio>square</pixelaspectratio>
										<fielddominance>none</fielddominance>
									</samplecharacteristics>
								</video>
							</media>
						</file>
						<logginginfo>
							<description></description>
							<scene></scene>
							<shottake></shottake>
							<lognote></lognote>
							<good></good>
							<originalvideofilename></originalvideofilename>
							<originalaudiofilename></originalaudiofilename>
						</logginginfo>
						<colorinfo>
							<lut></lut>
							<lut1></lut1>
							<asc_sop></asc_sop>
							<asc_sat></asc_sat>
							<lut2></lut2>
						</colorinfo>
						<labels>
							<label2>Violet</label2>
						</labels>
					</clipitem>
					<clipitem id="clipitem-622">
						<masterclipid>masterclip-619</masterclipid>
						<name>TKO_012_ALS_Sh06370.mov</name>
						<enabled>TRUE</enabled>
						<duration>95</duration>
						<rate>
							<timebase>24</timebase>
							<ntsc>TRUE</ntsc>
						</rate>
						<start>51207</start>
						<end>51294</end>
						<in>4</in>
						<out>91</out>
						<pproTicksIn>42378336000</pproTicksIn>
						<pproTicksOut>964107144000</pproTicksOut>
						<alphatype>none</alphatype>
						<pixelaspectratio>square</pixelaspectratio>
						<anamorphic>FALSE</anamorphic>
						<file id="file-619">
							<name>TKO_012_ALS_Sh06370.mov</name>
							<pathurl>file://tri-stor01/Projects/TKO/SHOTS/_Refs_Movs_Burnin_FrameCounter/TKO_012_ALS_Sh06370.mov</pathurl>
							<rate>
								<timebase>24</timebase>
								<ntsc>TRUE</ntsc>
							</rate>
							<duration>95</duration>
							<timecode>
								<rate>
									<timebase>24</timebase>
									<ntsc>TRUE</ntsc>
								</rate>
								<string>12:15:34:21</string>
								<frame>1059237</frame>
								<displayformat>NDF</displayformat>
								<reel>
									<name>B0390020</name>
								</reel>
							</timecode>
							<media>
								<video>
									<samplecharacteristics>
										<rate>
											<timebase>24</timebase>
											<ntsc>TRUE</ntsc>
										</rate>
										<width>4096</width>
										<height>2160</height>
										<anamorphic>FALSE</anamorphic>
										<pixelaspectratio>square</pixelaspectratio>
										<fielddominance>none</fielddominance>
									</samplecharacteristics>
								</video>
							</media>
						</file>
						<logginginfo>
							<description></description>
							<scene></scene>
							<shottake></shottake>
							<lognote></lognote>
							<good></good>
							<originalvideofilename></originalvideofilename>
							<originalaudiofilename></originalaudiofilename>
						</logginginfo>
						<colorinfo>
							<lut></lut>
							<lut1></lut1>
							<asc_sop></asc_sop>
							<asc_sat></asc_sat>
							<lut2></lut2>
						</colorinfo>
						<labels>
							<label2>Violet</label2>
						</labels>
					</clipitem>
					<clipitem id="clipitem-623">
						<masterclipid>masterclip-620</masterclipid>
						<name>TKO_012_ALS_Sh06380.mov</name>
						<enabled>TRUE</enabled>
						<duration>86</duration>
						<rate>
							<timebase>24</timebase>
							<ntsc>TRUE</ntsc>
						</rate>
						<start>51294</start>
						<end>51372</end>
						<in>4</in>
						<out>82</out>
						<pproTicksIn>42378336000</pproTicksIn>
						<pproTicksOut>868755888000</pproTicksOut>
						<alphatype>none</alphatype>
						<pixelaspectratio>square</pixelaspectratio>
						<anamorphic>FALSE</anamorphic>
						<file id="file-620">
							<name>TKO_012_ALS_Sh06380.mov</name>
							<pathurl>file://tri-stor01/Projects/TKO/SHOTS/_Refs_Movs_Burnin_FrameCounter/TKO_012_ALS_Sh06380.mov</pathurl>
							<rate>
								<timebase>24</timebase>
								<ntsc>TRUE</ntsc>
							</rate>
							<duration>86</duration>
							<timecode>
								<rate>
									<timebase>24</timebase>
									<ntsc>TRUE</ntsc>
								</rate>
								<string>12:15:38:12</string>
								<frame>1059324</frame>
								<displayformat>NDF</displayformat>
								<reel>
									<name>A0450019</name>
								</reel>
							</timecode>
							<media>
								<video>
									<samplecharacteristics>
										<rate>
											<timebase>24</timebase>
											<ntsc>TRUE</ntsc>
										</rate>
										<width>4096</width>
										<height>2160</height>
										<anamorphic>FALSE</anamorphic>
										<pixelaspectratio>square</pixelaspectratio>
										<fielddominance>none</fielddominance>
									</samplecharacteristics>
								</video>
							</media>
						</file>
						<logginginfo>
							<description></description>
							<scene></scene>
							<shottake></shottake>
							<lognote></lognote>
							<good></good>
							<originalvideofilename></originalvideofilename>
							<originalaudiofilename></originalaudiofilename>
						</logginginfo>
						<colorinfo>
							<lut></lut>
							<lut1></lut1>
							<asc_sop></asc_sop>
							<asc_sat></asc_sat>
							<lut2></lut2>
						</colorinfo>
						<labels>
							<label2>Violet</label2>
						</labels>
					</clipitem>
					<clipitem id="clipitem-624">
						<masterclipid>masterclip-621</masterclipid>
						<name>TKO_012_ALS_Sh06390.mov</name>
						<enabled>TRUE</enabled>
						<duration>41</duration>
						<rate>
							<timebase>24</timebase>
							<ntsc>TRUE</ntsc>
						</rate>
						<start>51372</start>
						<end>51405</end>
						<in>4</in>
						<out>37</out>
						<pproTicksIn>42378336000</pproTicksIn>
						<pproTicksOut>391999608000</pproTicksOut>
						<alphatype>none</alphatype>
						<pixelaspectratio>square</pixelaspectratio>
						<anamorphic>FALSE</anamorphic>
						<file id="file-621">
							<name>TKO_012_ALS_Sh06390.mov</name>
							<pathurl>file://tri-stor01/Projects/TKO/SHOTS/_Refs_Movs_Burnin_FrameCounter/TKO_012_ALS_Sh06390.mov</pathurl>
							<rate>
								<timebase>24</timebase>
								<ntsc>TRUE</ntsc>
							</rate>
							<duration>41</duration>
							<timecode>
								<rate>
									<timebase>24</timebase>
									<ntsc>TRUE</ntsc>
								</rate>
								<string>12:15:42:10</string>
								<frame>1059418</frame>
								<displayformat>NDF</displayformat>
								<reel>
									<name>B0390020</name>
								</reel>
							</timecode>
							<media>
								<video>
									<samplecharacteristics>
										<rate>
											<timebase>24</timebase>
											<ntsc>TRUE</ntsc>
										</rate>
										<width>4096</width>
										<height>2160</height>
										<anamorphic>FALSE</anamorphic>
										<pixelaspectratio>square</pixelaspectratio>
										<fielddominance>none</fielddominance>
									</samplecharacteristics>
								</video>
							</media>
						</file>
						<logginginfo>
							<description></description>
							<scene></scene>
							<shottake></shottake>
							<lognote></lognote>
							<good></good>
							<originalvideofilename></originalvideofilename>
							<originalaudiofilename></originalaudiofilename>
						</logginginfo>
						<colorinfo>
							<lut></lut>
							<lut1></lut1>
							<asc_sop></asc_sop>
							<asc_sat></asc_sat>
							<lut2></lut2>
						</colorinfo>
						<labels>
							<label2>Violet</label2>
						</labels>
					</clipitem>
					<clipitem id="clipitem-625">
						<masterclipid>masterclip-622</masterclipid>
						<name>TKO_012_ALS_Sh06400.mov</name>
						<enabled>TRUE</enabled>
						<duration>47</duration>
						<rate>
							<timebase>24</timebase>
							<ntsc>TRUE</ntsc>
						</rate>
						<start>51405</start>
						<end>51444</end>
						<in>4</in>
						<out>43</out>
						<pproTicksIn>42378336000</pproTicksIn>
						<pproTicksOut>455567112000</pproTicksOut>
						<alphatype>none</alphatype>
						<pixelaspectratio>square</pixelaspectratio>
						<anamorphic>FALSE</anamorphic>
						<file id="file-622">
							<name>TKO_012_ALS_Sh06400.mov</name>
							<pathurl>file://tri-stor01/Projects/TKO/SHOTS/_Refs_Movs_Burnin_FrameCounter/TKO_012_ALS_Sh06400.mov</pathurl>
							<rate>
								<timebase>24</timebase>
								<ntsc>TRUE</ntsc>
							</rate>
							<duration>47</duration>
							<timecode>
								<rate>
									<timebase>24</timebase>
									<ntsc>TRUE</ntsc>
								</rate>
								<string>12:15:43:19</string>
								<frame>1059451</frame>
								<displayformat>NDF</displayformat>
								<reel>
									<name>A0450019</name>
								</reel>
							</timecode>
							<media>
								<video>
									<samplecharacteristics>
										<rate>
											<timebase>24</timebase>
											<ntsc>TRUE</ntsc>
										</rate>
										<width>4096</width>
										<height>2160</height>
										<anamorphic>FALSE</anamorphic>
										<pixelaspectratio>square</pixelaspectratio>
										<fielddominance>none</fielddominance>
									</samplecharacteristics>
								</video>
							</media>
						</file>
						<logginginfo>
							<description></description>
							<scene></scene>
							<shottake></shottake>
							<lognote></lognote>
							<good></good>
							<originalvideofilename></originalvideofilename>
							<originalaudiofilename></originalaudiofilename>
						</logginginfo>
						<colorinfo>
							<lut></lut>
							<lut1></lut1>
							<asc_sop></asc_sop>
							<asc_sat></asc_sat>
							<lut2></lut2>
						</colorinfo>
						<labels>
							<label2>Violet</label2>
						</labels>
					</clipitem>
					<clipitem id="clipitem-626">
						<masterclipid>masterclip-623</masterclipid>
						<name>TKO_012_ALS_Sh06410.mov</name>
						<enabled>TRUE</enabled>
						<duration>92</duration>
						<rate>
							<timebase>24</timebase>
							<ntsc>TRUE</ntsc>
						</rate>
						<start>51444</start>
						<end>51528</end>
						<in>4</in>
						<out>88</out>
						<pproTicksIn>42378336000</pproTicksIn>
						<pproTicksOut>932323392000</pproTicksOut>
						<alphatype>none</alphatype>
						<pixelaspectratio>square</pixelaspectratio>
						<anamorphic>FALSE</anamorphic>
						<file id="file-623">
							<name>TKO_012_ALS_Sh06410.mov</name>
							<pathurl>file://tri-stor01/Projects/TKO/SHOTS/_Refs_Movs_Burnin_FrameCounter/TKO_012_ALS_Sh06410.mov</pathurl>
							<rate>
								<timebase>24</timebase>
								<ntsc>TRUE</ntsc>
							</rate>
							<duration>92</duration>
							<timecode>
								<rate>
									<timebase>24</timebase>
									<ntsc>TRUE</ntsc>
								</rate>
								<string>14:47:11:20</string>
								<frame>1277564</frame>
								<displayformat>NDF</displayformat>
								<reel>
									<name>B0400003</name>
								</reel>
							</timecode>
							<media>
								<video>
									<samplecharacteristics>
										<rate>
											<timebase>24</timebase>
											<ntsc>TRUE</ntsc>
										</rate>
										<width>4096</width>
										<height>2160</height>
										<anamorphic>FALSE</anamorphic>
										<pixelaspectratio>square</pixelaspectratio>
										<fielddominance>none</fielddominance>
									</samplecharacteristics>
								</video>
							</media>
						</file>
						<logginginfo>
							<description></description>
							<scene></scene>
							<shottake></shottake>
							<lognote></lognote>
							<good></good>
							<originalvideofilename></originalvideofilename>
							<originalaudiofilename></originalaudiofilename>
						</logginginfo>
						<colorinfo>
							<lut></lut>
							<lut1></lut1>
							<asc_sop></asc_sop>
							<asc_sat></asc_sat>
							<lut2></lut2>
						</colorinfo>
						<labels>
							<label2>Violet</label2>
						</labels>
					</clipitem>
					<clipitem id="clipitem-627">
						<masterclipid>masterclip-624</masterclipid>
						<name>TKO_012_ALS_Sh06420.mov</name>
						<enabled>TRUE</enabled>
						<duration>37</duration>
						<rate>
							<timebase>24</timebase>
							<ntsc>TRUE</ntsc>
						</rate>
						<start>51528</start>
						<end>51557</end>
						<in>4</in>
						<out>33</out>
						<pproTicksIn>42378336000</pproTicksIn>
						<pproTicksOut>349621272000</pproTicksOut>
						<alphatype>none</alphatype>
						<pixelaspectratio>square</pixelaspectratio>
						<anamorphic>FALSE</anamorphic>
						<file id="file-624">
							<name>TKO_012_ALS_Sh06420.mov</name>
							<pathurl>file://tri-stor01/Projects/TKO/SHOTS/_Refs_Movs_Burnin_FrameCounter/TKO_012_ALS_Sh06420.mov</pathurl>
							<rate>
								<timebase>24</timebase>
								<ntsc>TRUE</ntsc>
							</rate>
							<duration>37</duration>
							<timecode>
								<rate>
									<timebase>24</timebase>
									<ntsc>TRUE</ntsc>
								</rate>
								<string>12:48:59:06</string>
								<frame>1107342</frame>
								<displayformat>NDF</displayformat>
								<reel>
									<name>A0160004</name>
								</reel>
							</timecode>
							<media>
								<video>
									<samplecharacteristics>
										<rate>
											<timebase>24</timebase>
											<ntsc>TRUE</ntsc>
										</rate>
										<width>4096</width>
										<height>2160</height>
										<anamorphic>FALSE</anamorphic>
										<pixelaspectratio>square</pixelaspectratio>
										<fielddominance>none</fielddominance>
									</samplecharacteristics>
								</video>
							</media>
						</file>
						<logginginfo>
							<description></description>
							<scene></scene>
							<shottake></shottake>
							<lognote></lognote>
							<good></good>
							<originalvideofilename></originalvideofilename>
							<originalaudiofilename></originalaudiofilename>
						</logginginfo>
						<colorinfo>
							<lut></lut>
							<lut1></lut1>
							<asc_sop></asc_sop>
							<asc_sat></asc_sat>
							<lut2></lut2>
						</colorinfo>
						<labels>
							<label2>Violet</label2>
						</labels>
					</clipitem>
					<clipitem id="clipitem-628">
						<masterclipid>masterclip-625</masterclipid>
						<name>TKO_012_ALS_Sh06430.mov</name>
						<enabled>TRUE</enabled>
						<duration>58</duration>
						<rate>
							<timebase>24</timebase>
							<ntsc>TRUE</ntsc>
						</rate>
						<start>51557</start>
						<end>51607</end>
						<in>4</in>
						<out>54</out>
						<pproTicksIn>42378336000</pproTicksIn>
						<pproTicksOut>572107536000</pproTicksOut>
						<alphatype>none</alphatype>
						<pixelaspectratio>square</pixelaspectratio>
						<anamorphic>FALSE</anamorphic>
						<file id="file-625">
							<name>TKO_012_ALS_Sh06430.mov</name>
							<pathurl>file://tri-stor01/Projects/TKO/SHOTS/_Refs_Movs_Burnin_FrameCounter/TKO_012_ALS_Sh06430.mov</pathurl>
							<rate>
								<timebase>24</timebase>
								<ntsc>TRUE</ntsc>
							</rate>
							<duration>58</duration>
							<timecode>
								<rate>
									<timebase>24</timebase>
									<ntsc>TRUE</ntsc>
								</rate>
								<string>12:48:59:15</string>
								<frame>1107351</frame>
								<displayformat>NDF</displayformat>
								<reel>
									<name>B0130004</name>
								</reel>
							</timecode>
							<media>
								<video>
									<samplecharacteristics>
										<rate>
											<timebase>24</timebase>
											<ntsc>TRUE</ntsc>
										</rate>
										<width>4096</width>
										<height>2160</height>
										<anamorphic>FALSE</anamorphic>
										<pixelaspectratio>square</pixelaspectratio>
										<fielddominance>none</fielddominance>
									</samplecharacteristics>
								</video>
							</media>
						</file>
						<logginginfo>
							<description></description>
							<scene></scene>
							<shottake></shottake>
							<lognote></lognote>
							<good></good>
							<originalvideofilename></originalvideofilename>
							<originalaudiofilename></originalaudiofilename>
						</logginginfo>
						<colorinfo>
							<lut></lut>
							<lut1></lut1>
							<asc_sop></asc_sop>
							<asc_sat></asc_sat>
							<lut2></lut2>
						</colorinfo>
						<labels>
							<label2>Violet</label2>
						</labels>
					</clipitem>
					<clipitem id="clipitem-629">
						<masterclipid>masterclip-626</masterclipid>
						<name>TKO_012_ALS_Sh06440.mov</name>
						<enabled>TRUE</enabled>
						<duration>34</duration>
						<rate>
							<timebase>24</timebase>
							<ntsc>TRUE</ntsc>
						</rate>
						<start>51607</start>
						<end>51633</end>
						<in>4</in>
						<out>30</out>
						<pproTicksIn>42378336000</pproTicksIn>
						<pproTicksOut>317837520000</pproTicksOut>
						<alphatype>none</alphatype>
						<pixelaspectratio>square</pixelaspectratio>
						<anamorphic>FALSE</anamorphic>
						<file id="file-626">
							<name>TKO_012_ALS_Sh06440.mov</name>
							<pathurl>file://tri-stor01/Projects/TKO/SHOTS/_Refs_Movs_Burnin_FrameCounter/TKO_012_ALS_Sh06440.mov</pathurl>
							<rate>
								<timebase>24</timebase>
								<ntsc>TRUE</ntsc>
							</rate>
							<duration>34</duration>
							<timecode>
								<rate>
									<timebase>24</timebase>
									<ntsc>TRUE</ntsc>
								</rate>
								<string>00:29:15:02</string>
								<frame>42122</frame>
								<displayformat>NDF</displayformat>
							</timecode>
							<media>
								<video>
									<samplecharacteristics>
										<rate>
											<timebase>24</timebase>
											<ntsc>TRUE</ntsc>
										</rate>
										<width>1280</width>
										<height>720</height>
										<anamorphic>FALSE</anamorphic>
										<pixelaspectratio>square</pixelaspectratio>
										<fielddominance>none</fielddominance>
									</samplecharacteristics>
								</video>
							</media>
						</file>
						<logginginfo>
							<description></description>
							<scene></scene>
							<shottake></shottake>
							<lognote></lognote>
							<good></good>
							<originalvideofilename></originalvideofilename>
							<originalaudiofilename></originalaudiofilename>
						</logginginfo>
						<colorinfo>
							<lut></lut>
							<lut1></lut1>
							<asc_sop></asc_sop>
							<asc_sat></asc_sat>
							<lut2></lut2>
						</colorinfo>
						<labels>
							<label2>Violet</label2>
						</labels>
					</clipitem>
					<clipitem id="clipitem-630">
						<masterclipid>masterclip-627</masterclipid>
						<name>TKO_012_ALS_Sh06450.mov</name>
						<enabled>TRUE</enabled>
						<duration>113</duration>
						<rate>
							<timebase>24</timebase>
							<ntsc>TRUE</ntsc>
						</rate>
						<start>51633</start>
						<end>51738</end>
						<in>4</in>
						<out>109</out>
						<pproTicksIn>42378336000</pproTicksIn>
						<pproTicksOut>1154809656000</pproTicksOut>
						<alphatype>none</alphatype>
						<pixelaspectratio>square</pixelaspectratio>
						<anamorphic>FALSE</anamorphic>
						<file id="file-627">
							<name>TKO_012_ALS_Sh06450.mov</name>
							<pathurl>file://tri-stor01/Projects/TKO/SHOTS/_Refs_Movs_Burnin_FrameCounter/TKO_012_ALS_Sh06450.mov</pathurl>
							<rate>
								<timebase>24</timebase>
								<ntsc>TRUE</ntsc>
							</rate>
							<duration>113</duration>
							<timecode>
								<rate>
									<timebase>24</timebase>
									<ntsc>TRUE</ntsc>
								</rate>
								<string>13:17:13:09</string>
								<frame>1148001</frame>
								<displayformat>NDF</displayformat>
								<reel>
									<name>A0160007</name>
								</reel>
							</timecode>
							<media>
								<video>
									<samplecharacteristics>
										<rate>
											<timebase>24</timebase>
											<ntsc>TRUE</ntsc>
										</rate>
										<width>4096</width>
										<height>2160</height>
										<anamorphic>FALSE</anamorphic>
										<pixelaspectratio>square</pixelaspectratio>
										<fielddominance>none</fielddominance>
									</samplecharacteristics>
								</video>
							</media>
						</file>
						<logginginfo>
							<description></description>
							<scene></scene>
							<shottake></shottake>
							<lognote></lognote>
							<good></good>
							<originalvideofilename></originalvideofilename>
							<originalaudiofilename></originalaudiofilename>
						</logginginfo>
						<colorinfo>
							<lut></lut>
							<lut1></lut1>
							<asc_sop></asc_sop>
							<asc_sat></asc_sat>
							<lut2></lut2>
						</colorinfo>
						<labels>
							<label2>Violet</label2>
						</labels>
					</clipitem>
					<clipitem id="clipitem-631">
						<masterclipid>masterclip-628</masterclipid>
						<name>TKO_012_ALS_Sh06460.mov</name>
						<enabled>TRUE</enabled>
						<duration>57</duration>
						<rate>
							<timebase>24</timebase>
							<ntsc>TRUE</ntsc>
						</rate>
						<start>51738</start>
						<end>51787</end>
						<in>4</in>
						<out>53</out>
						<pproTicksIn>42378336000</pproTicksIn>
						<pproTicksOut>561512952000</pproTicksOut>
						<alphatype>none</alphatype>
						<pixelaspectratio>square</pixelaspectratio>
						<anamorphic>FALSE</anamorphic>
						<file id="file-628">
							<name>TKO_012_ALS_Sh06460.mov</name>
							<pathurl>file://tri-stor01/Projects/TKO/SHOTS/_Refs_Movs_Burnin_FrameCounter/TKO_012_ALS_Sh06460.mov</pathurl>
							<rate>
								<timebase>24</timebase>
								<ntsc>TRUE</ntsc>
							</rate>
							<duration>57</duration>
							<timecode>
								<rate>
									<timebase>24</timebase>
									<ntsc>TRUE</ntsc>
								</rate>
								<string>13:17:27:19</string>
								<frame>1148347</frame>
								<displayformat>NDF</displayformat>
								<reel>
									<name>B0130007</name>
								</reel>
							</timecode>
							<media>
								<video>
									<samplecharacteristics>
										<rate>
											<timebase>24</timebase>
											<ntsc>TRUE</ntsc>
										</rate>
										<width>4096</width>
										<height>2160</height>
										<anamorphic>FALSE</anamorphic>
										<pixelaspectratio>square</pixelaspectratio>
										<fielddominance>none</fielddominance>
									</samplecharacteristics>
								</video>
							</media>
						</file>
						<logginginfo>
							<description></description>
							<scene></scene>
							<shottake></shottake>
							<lognote></lognote>
							<good></good>
							<originalvideofilename></originalvideofilename>
							<originalaudiofilename></originalaudiofilename>
						</logginginfo>
						<colorinfo>
							<lut></lut>
							<lut1></lut1>
							<asc_sop></asc_sop>
							<asc_sat></asc_sat>
							<lut2></lut2>
						</colorinfo>
						<labels>
							<label2>Violet</label2>
						</labels>
					</clipitem>
					<clipitem id="clipitem-632">
						<masterclipid>masterclip-629</masterclipid>
						<name>TKO_012_ALS_Sh06470.mov</name>
						<enabled>TRUE</enabled>
						<duration>34</duration>
						<rate>
							<timebase>24</timebase>
							<ntsc>TRUE</ntsc>
						</rate>
						<start>51787</start>
						<end>51813</end>
						<in>4</in>
						<out>30</out>
						<pproTicksIn>42378336000</pproTicksIn>
						<pproTicksOut>317837520000</pproTicksOut>
						<alphatype>none</alphatype>
						<pixelaspectratio>square</pixelaspectratio>
						<anamorphic>FALSE</anamorphic>
						<file id="file-629">
							<name>TKO_012_ALS_Sh06470.mov</name>
							<pathurl>file://tri-stor01/Projects/TKO/SHOTS/_Refs_Movs_Burnin_FrameCounter/TKO_012_ALS_Sh06470.mov</pathurl>
							<rate>
								<timebase>24</timebase>
								<ntsc>TRUE</ntsc>
							</rate>
							<duration>34</duration>
							<timecode>
								<rate>
									<timebase>24</timebase>
									<ntsc>TRUE</ntsc>
								</rate>
								<string>00:29:16:04</string>
								<frame>42148</frame>
								<displayformat>NDF</displayformat>
							</timecode>
							<media>
								<video>
									<samplecharacteristics>
										<rate>
											<timebase>24</timebase>
											<ntsc>TRUE</ntsc>
										</rate>
										<width>1280</width>
										<height>720</height>
										<anamorphic>FALSE</anamorphic>
										<pixelaspectratio>square</pixelaspectratio>
										<fielddominance>none</fielddominance>
									</samplecharacteristics>
								</video>
							</media>
						</file>
						<logginginfo>
							<description></description>
							<scene></scene>
							<shottake></shottake>
							<lognote></lognote>
							<good></good>
							<originalvideofilename></originalvideofilename>
							<originalaudiofilename></originalaudiofilename>
						</logginginfo>
						<colorinfo>
							<lut></lut>
							<lut1></lut1>
							<asc_sop></asc_sop>
							<asc_sat></asc_sat>
							<lut2></lut2>
						</colorinfo>
						<labels>
							<label2>Violet</label2>
						</labels>
					</clipitem>
					<clipitem id="clipitem-633">
						<masterclipid>masterclip-630</masterclipid>
						<name>TKO_012_ALS_Sh06480.mov</name>
						<enabled>TRUE</enabled>
						<duration>33</duration>
						<rate>
							<timebase>24</timebase>
							<ntsc>TRUE</ntsc>
						</rate>
						<start>51813</start>
						<end>51838</end>
						<in>4</in>
						<out>29</out>
						<pproTicksIn>42378336000</pproTicksIn>
						<pproTicksOut>307242936000</pproTicksOut>
						<alphatype>none</alphatype>
						<pixelaspectratio>square</pixelaspectratio>
						<anamorphic>FALSE</anamorphic>
						<file id="file-630">
							<name>TKO_012_ALS_Sh06480.mov</name>
							<pathurl>file://tri-stor01/Projects/TKO/SHOTS/_Refs_Movs_Burnin_FrameCounter/TKO_012_ALS_Sh06480.mov</pathurl>
							<rate>
								<timebase>24</timebase>
								<ntsc>TRUE</ntsc>
							</rate>
							<duration>33</duration>
							<timecode>
								<rate>
									<timebase>24</timebase>
									<ntsc>TRUE</ntsc>
								</rate>
								<string>00:29:17:06</string>
								<frame>42174</frame>
								<displayformat>NDF</displayformat>
							</timecode>
							<media>
								<video>
									<samplecharacteristics>
										<rate>
											<timebase>24</timebase>
											<ntsc>TRUE</ntsc>
										</rate>
										<width>1280</width>
										<height>720</height>
										<anamorphic>FALSE</anamorphic>
										<pixelaspectratio>square</pixelaspectratio>
										<fielddominance>none</fielddominance>
									</samplecharacteristics>
								</video>
							</media>
						</file>
						<logginginfo>
							<description></description>
							<scene></scene>
							<shottake></shottake>
							<lognote></lognote>
							<good></good>
							<originalvideofilename></originalvideofilename>
							<originalaudiofilename></originalaudiofilename>
						</logginginfo>
						<colorinfo>
							<lut></lut>
							<lut1></lut1>
							<asc_sop></asc_sop>
							<asc_sat></asc_sat>
							<lut2></lut2>
						</colorinfo>
						<labels>
							<label2>Violet</label2>
						</labels>
					</clipitem>
					<clipitem id="clipitem-634">
						<masterclipid>masterclip-631</masterclipid>
						<name>TKO_012_ALS_Sh06490.mov</name>
						<enabled>TRUE</enabled>
						<duration>63</duration>
						<rate>
							<timebase>24</timebase>
							<ntsc>TRUE</ntsc>
						</rate>
						<start>51838</start>
						<end>51893</end>
						<in>4</in>
						<out>59</out>
						<pproTicksIn>42378336000</pproTicksIn>
						<pproTicksOut>625080456000</pproTicksOut>
						<alphatype>none</alphatype>
						<pixelaspectratio>square</pixelaspectratio>
						<anamorphic>FALSE</anamorphic>
						<file id="file-631">
							<name>TKO_012_ALS_Sh06490.mov</name>
							<pathurl>file://tri-stor01/Projects/TKO/SHOTS/_Refs_Movs_Burnin_FrameCounter/TKO_012_ALS_Sh06490.mov</pathurl>
							<rate>
								<timebase>24</timebase>
								<ntsc>TRUE</ntsc>
							</rate>
							<duration>63</duration>
							<timecode>
								<rate>
									<timebase>24</timebase>
									<ntsc>TRUE</ntsc>
								</rate>
								<string>00:29:18:07</string>
								<frame>42199</frame>
								<displayformat>NDF</displayformat>
							</timecode>
							<media>
								<video>
									<samplecharacteristics>
										<rate>
											<timebase>24</timebase>
											<ntsc>TRUE</ntsc>
										</rate>
										<width>1280</width>
										<height>720</height>
										<anamorphic>FALSE</anamorphic>
										<pixelaspectratio>square</pixelaspectratio>
										<fielddominance>none</fielddominance>
									</samplecharacteristics>
								</video>
							</media>
						</file>
						<logginginfo>
							<description></description>
							<scene></scene>
							<shottake></shottake>
							<lognote></lognote>
							<good></good>
							<originalvideofilename></originalvideofilename>
							<originalaudiofilename></originalaudiofilename>
						</logginginfo>
						<colorinfo>
							<lut></lut>
							<lut1></lut1>
							<asc_sop></asc_sop>
							<asc_sat></asc_sat>
							<lut2></lut2>
						</colorinfo>
						<labels>
							<label2>Violet</label2>
						</labels>
					</clipitem>
					<clipitem id="clipitem-635">
						<masterclipid>masterclip-632</masterclipid>
						<name>TKO_012_ALS_Sh06500.mov</name>
						<enabled>TRUE</enabled>
						<duration>42</duration>
						<rate>
							<timebase>24</timebase>
							<ntsc>TRUE</ntsc>
						</rate>
						<start>51893</start>
						<end>51927</end>
						<in>4</in>
						<out>38</out>
						<pproTicksIn>42378336000</pproTicksIn>
						<pproTicksOut>402594192000</pproTicksOut>
						<alphatype>none</alphatype>
						<pixelaspectratio>square</pixelaspectratio>
						<anamorphic>FALSE</anamorphic>
						<file id="file-632">
							<name>TKO_012_ALS_Sh06500.mov</name>
							<pathurl>file://tri-stor01/Projects/TKO/SHOTS/_Refs_Movs_Burnin_FrameCounter/TKO_012_ALS_Sh06500.mov</pathurl>
							<rate>
								<timebase>24</timebase>
								<ntsc>TRUE</ntsc>
							</rate>
							<duration>42</duration>
							<timecode>
								<rate>
									<timebase>24</timebase>
									<ntsc>TRUE</ntsc>
								</rate>
								<string>00:29:23:12</string>
								<frame>42324</frame>
								<displayformat>NDF</displayformat>
							</timecode>
							<media>
								<video>
									<samplecharacteristics>
										<rate>
											<timebase>24</timebase>
											<ntsc>TRUE</ntsc>
										</rate>
										<width>1280</width>
										<height>720</height>
										<anamorphic>FALSE</anamorphic>
										<pixelaspectratio>square</pixelaspectratio>
										<fielddominance>none</fielddominance>
									</samplecharacteristics>
								</video>
							</media>
						</file>
						<logginginfo>
							<description></description>
							<scene></scene>
							<shottake></shottake>
							<lognote></lognote>
							<good></good>
							<originalvideofilename></originalvideofilename>
							<originalaudiofilename></originalaudiofilename>
						</logginginfo>
						<colorinfo>
							<lut></lut>
							<lut1></lut1>
							<asc_sop></asc_sop>
							<asc_sat></asc_sat>
							<lut2></lut2>
						</colorinfo>
						<labels>
							<label2>Violet</label2>
						</labels>
					</clipitem>
					<clipitem id="clipitem-636">
						<masterclipid>masterclip-633</masterclipid>
						<name>TKO_012_ALS_Sh06510.mov</name>
						<enabled>TRUE</enabled>
						<duration>78</duration>
						<rate>
							<timebase>24</timebase>
							<ntsc>TRUE</ntsc>
						</rate>
						<start>51927</start>
						<end>51997</end>
						<in>4</in>
						<out>74</out>
						<pproTicksIn>42378336000</pproTicksIn>
						<pproTicksOut>783999216000</pproTicksOut>
						<alphatype>none</alphatype>
						<pixelaspectratio>square</pixelaspectratio>
						<anamorphic>FALSE</anamorphic>
						<file id="file-633">
							<name>TKO_012_ALS_Sh06510.mov</name>
							<pathurl>file://tri-stor01/Projects/TKO/SHOTS/_Refs_Movs_Burnin_FrameCounter/TKO_012_ALS_Sh06510.mov</pathurl>
							<rate>
								<timebase>24</timebase>
								<ntsc>TRUE</ntsc>
							</rate>
							<duration>78</duration>
							<timecode>
								<rate>
									<timebase>24</timebase>
									<ntsc>TRUE</ntsc>
								</rate>
								<string>00:29:24:22</string>
								<frame>42358</frame>
								<displayformat>NDF</displayformat>
							</timecode>
							<media>
								<video>
									<samplecharacteristics>
										<rate>
											<timebase>24</timebase>
											<ntsc>TRUE</ntsc>
										</rate>
										<width>1280</width>
										<height>720</height>
										<anamorphic>FALSE</anamorphic>
										<pixelaspectratio>square</pixelaspectratio>
										<fielddominance>none</fielddominance>
									</samplecharacteristics>
								</video>
							</media>
						</file>
						<logginginfo>
							<description></description>
							<scene></scene>
							<shottake></shottake>
							<lognote></lognote>
							<good></good>
							<originalvideofilename></originalvideofilename>
							<originalaudiofilename></originalaudiofilename>
						</logginginfo>
						<colorinfo>
							<lut></lut>
							<lut1></lut1>
							<asc_sop></asc_sop>
							<asc_sat></asc_sat>
							<lut2></lut2>
						</colorinfo>
						<labels>
							<label2>Violet</label2>
						</labels>
					</clipitem>
					<clipitem id="clipitem-637">
						<masterclipid>masterclip-634</masterclipid>
						<name>TKO_012_ALS_Sh06520.mov</name>
						<enabled>TRUE</enabled>
						<duration>130</duration>
						<rate>
							<timebase>24</timebase>
							<ntsc>TRUE</ntsc>
						</rate>
						<start>51997</start>
						<end>52093</end>
						<in>4</in>
						<out>100</out>
						<pproTicksIn>42378336000</pproTicksIn>
						<pproTicksOut>1059458400000</pproTicksOut>
						<alphatype>none</alphatype>
						<pixelaspectratio>square</pixelaspectratio>
						<anamorphic>FALSE</anamorphic>
						<file id="file-634">
							<name>TKO_012_ALS_Sh06520.mov</name>
							<pathurl>file://tri-stor01/Projects/TKO/SHOTS/_Refs_Movs_Burnin_FrameCounter/TKO_012_ALS_Sh06520.mov</pathurl>
							<rate>
								<timebase>24</timebase>
								<ntsc>TRUE</ntsc>
							</rate>
							<duration>130</duration>
							<timecode>
								<rate>
									<timebase>24</timebase>
									<ntsc>TRUE</ntsc>
								</rate>
								<string>01:37:51:19</string>
								<frame>140923</frame>
								<displayformat>NDF</displayformat>
							</timecode>
							<media>
								<video>
									<samplecharacteristics>
										<rate>
											<timebase>24</timebase>
											<ntsc>TRUE</ntsc>
										</rate>
										<width>4096</width>
										<height>2160</height>
										<anamorphic>FALSE</anamorphic>
										<pixelaspectratio>square</pixelaspectratio>
										<fielddominance>none</fielddominance>
									</samplecharacteristics>
								</video>
							</media>
						</file>
						<logginginfo>
							<description></description>
							<scene></scene>
							<shottake></shottake>
							<lognote></lognote>
							<good></good>
							<originalvideofilename></originalvideofilename>
							<originalaudiofilename></originalaudiofilename>
						</logginginfo>
						<colorinfo>
							<lut></lut>
							<lut1></lut1>
							<asc_sop></asc_sop>
							<asc_sat></asc_sat>
							<lut2></lut2>
						</colorinfo>
						<labels>
							<label2>Violet</label2>
						</labels>
					</clipitem>
					<clipitem id="clipitem-638">
						<masterclipid>masterclip-635</masterclipid>
						<name>TKO_012_ALS_Sh06530.mov</name>
						<enabled>TRUE</enabled>
						<duration>34</duration>
						<rate>
							<timebase>24</timebase>
							<ntsc>TRUE</ntsc>
						</rate>
						<start>52093</start>
						<end>52119</end>
						<in>4</in>
						<out>30</out>
						<pproTicksIn>42378336000</pproTicksIn>
						<pproTicksOut>317837520000</pproTicksOut>
						<alphatype>none</alphatype>
						<pixelaspectratio>square</pixelaspectratio>
						<anamorphic>FALSE</anamorphic>
						<file id="file-635">
							<name>TKO_012_ALS_Sh06530.mov</name>
							<pathurl>file://tri-stor01/Projects/TKO/SHOTS/_Refs_Movs_Burnin_FrameCounter/TKO_012_ALS_Sh06530.mov</pathurl>
							<rate>
								<timebase>24</timebase>
								<ntsc>TRUE</ntsc>
							</rate>
							<duration>34</duration>
							<timecode>
								<rate>
									<timebase>24</timebase>
									<ntsc>TRUE</ntsc>
								</rate>
								<string>00:29:31:20</string>
								<frame>42524</frame>
								<displayformat>NDF</displayformat>
							</timecode>
							<media>
								<video>
									<samplecharacteristics>
										<rate>
											<timebase>24</timebase>
											<ntsc>TRUE</ntsc>
										</rate>
										<width>1280</width>
										<height>720</height>
										<anamorphic>FALSE</anamorphic>
										<pixelaspectratio>square</pixelaspectratio>
										<fielddominance>none</fielddominance>
									</samplecharacteristics>
								</video>
							</media>
						</file>
						<logginginfo>
							<description></description>
							<scene></scene>
							<shottake></shottake>
							<lognote></lognote>
							<good></good>
							<originalvideofilename></originalvideofilename>
							<originalaudiofilename></originalaudiofilename>
						</logginginfo>
						<colorinfo>
							<lut></lut>
							<lut1></lut1>
							<asc_sop></asc_sop>
							<asc_sat></asc_sat>
							<lut2></lut2>
						</colorinfo>
						<labels>
							<label2>Violet</label2>
						</labels>
					</clipitem>
					<clipitem id="clipitem-639">
						<masterclipid>masterclip-636</masterclipid>
						<name>TKO_012_ALS_Sh06540.mov</name>
						<enabled>TRUE</enabled>
						<duration>665</duration>
						<rate>
							<timebase>24</timebase>
							<ntsc>TRUE</ntsc>
						</rate>
						<start>52119</start>
						<end>52776</end>
						<in>4</in>
						<out>661</out>
						<pproTicksIn>42378336000</pproTicksIn>
						<pproTicksOut>7003020024000</pproTicksOut>
						<alphatype>none</alphatype>
						<pixelaspectratio>square</pixelaspectratio>
						<anamorphic>FALSE</anamorphic>
						<file id="file-636">
							<name>TKO_012_ALS_Sh06540.mov</name>
							<pathurl>file://tri-stor01/Projects/TKO/SHOTS/_Refs_Movs_Burnin_FrameCounter/TKO_012_ALS_Sh06540.mov</pathurl>
							<rate>
								<timebase>24</timebase>
								<ntsc>TRUE</ntsc>
							</rate>
							<duration>665</duration>
							<timecode>
								<rate>
									<timebase>24</timebase>
									<ntsc>TRUE</ntsc>
								</rate>
								<string>21:52:33:03</string>
								<frame>1890075</frame>
								<displayformat>NDF</displayformat>
								<reel>
									<name>A0170010</name>
								</reel>
							</timecode>
							<media>
								<video>
									<samplecharacteristics>
										<rate>
											<timebase>24</timebase>
											<ntsc>TRUE</ntsc>
										</rate>
										<width>4096</width>
										<height>2160</height>
										<anamorphic>FALSE</anamorphic>
										<pixelaspectratio>square</pixelaspectratio>
										<fielddominance>none</fielddominance>
									</samplecharacteristics>
								</video>
							</media>
						</file>
						<logginginfo>
							<description></description>
							<scene></scene>
							<shottake></shottake>
							<lognote></lognote>
							<good></good>
							<originalvideofilename></originalvideofilename>
							<originalaudiofilename></originalaudiofilename>
						</logginginfo>
						<colorinfo>
							<lut></lut>
							<lut1></lut1>
							<asc_sop></asc_sop>
							<asc_sat></asc_sat>
							<lut2></lut2>
						</colorinfo>
						<labels>
							<label2>Violet</label2>
						</labels>
					</clipitem>
					<clipitem id="clipitem-640">
						<masterclipid>masterclip-637</masterclipid>
						<name>TKO_012_ALS_Sh06550.mov</name>
						<enabled>TRUE</enabled>
						<duration>87</duration>
						<rate>
							<timebase>24</timebase>
							<ntsc>TRUE</ntsc>
						</rate>
						<start>52776</start>
						<end>52855</end>
						<in>4</in>
						<out>83</out>
						<pproTicksIn>42378336000</pproTicksIn>
						<pproTicksOut>879350472000</pproTicksOut>
						<alphatype>none</alphatype>
						<pixelaspectratio>square</pixelaspectratio>
						<anamorphic>FALSE</anamorphic>
						<file id="file-637">
							<name>TKO_012_ALS_Sh06550.mov</name>
							<pathurl>file://tri-stor01/Projects/TKO/SHOTS/_Refs_Movs_Burnin_FrameCounter/TKO_012_ALS_Sh06550.mov</pathurl>
							<rate>
								<timebase>24</timebase>
								<ntsc>TRUE</ntsc>
							</rate>
							<duration>87</duration>
							<timecode>
								<rate>
									<timebase>24</timebase>
									<ntsc>TRUE</ntsc>
								</rate>
								<string>22:10:59:23</string>
								<frame>1916639</frame>
								<displayformat>NDF</displayformat>
								<reel>
									<name>A0170011</name>
								</reel>
							</timecode>
							<media>
								<video>
									<samplecharacteristics>
										<rate>
											<timebase>24</timebase>
											<ntsc>TRUE</ntsc>
										</rate>
										<width>4096</width>
										<height>2160</height>
										<anamorphic>FALSE</anamorphic>
										<pixelaspectratio>square</pixelaspectratio>
										<fielddominance>none</fielddominance>
									</samplecharacteristics>
								</video>
							</media>
						</file>
						<logginginfo>
							<description></description>
							<scene></scene>
							<shottake></shottake>
							<lognote></lognote>
							<good></good>
							<originalvideofilename></originalvideofilename>
							<originalaudiofilename></originalaudiofilename>
						</logginginfo>
						<colorinfo>
							<lut></lut>
							<lut1></lut1>
							<asc_sop></asc_sop>
							<asc_sat></asc_sat>
							<lut2></lut2>
						</colorinfo>
						<labels>
							<label2>Violet</label2>
						</labels>
					</clipitem>
					<clipitem id="clipitem-641">
						<masterclipid>masterclip-638</masterclipid>
						<name>TKO_012_ALS_Sh06560.mov</name>
						<enabled>TRUE</enabled>
						<duration>192</duration>
						<rate>
							<timebase>24</timebase>
							<ntsc>TRUE</ntsc>
						</rate>
						<start>52855</start>
						<end>53039</end>
						<in>4</in>
						<out>188</out>
						<pproTicksIn>42378336000</pproTicksIn>
						<pproTicksOut>1991781792000</pproTicksOut>
						<alphatype>none</alphatype>
						<pixelaspectratio>square</pixelaspectratio>
						<anamorphic>FALSE</anamorphic>
						<file id="file-638">
							<name>TKO_012_ALS_Sh06560.mov</name>
							<pathurl>file://tri-stor01/Projects/TKO/SHOTS/_Refs_Movs_Burnin_FrameCounter/TKO_012_ALS_Sh06560.mov</pathurl>
							<rate>
								<timebase>24</timebase>
								<ntsc>TRUE</ntsc>
							</rate>
							<duration>192</duration>
							<timecode>
								<rate>
									<timebase>24</timebase>
									<ntsc>TRUE</ntsc>
								</rate>
								<string>21:53:02:23</string>
								<frame>1890791</frame>
								<displayformat>NDF</displayformat>
								<reel>
									<name>A0170010</name>
								</reel>
							</timecode>
							<media>
								<video>
									<samplecharacteristics>
										<rate>
											<timebase>24</timebase>
											<ntsc>TRUE</ntsc>
										</rate>
										<width>4096</width>
										<height>2160</height>
										<anamorphic>FALSE</anamorphic>
										<pixelaspectratio>square</pixelaspectratio>
										<fielddominance>none</fielddominance>
									</samplecharacteristics>
								</video>
							</media>
						</file>
						<logginginfo>
							<description></description>
							<scene></scene>
							<shottake></shottake>
							<lognote></lognote>
							<good></good>
							<originalvideofilename></originalvideofilename>
							<originalaudiofilename></originalaudiofilename>
						</logginginfo>
						<colorinfo>
							<lut></lut>
							<lut1></lut1>
							<asc_sop></asc_sop>
							<asc_sat></asc_sat>
							<lut2></lut2>
						</colorinfo>
						<labels>
							<label2>Violet</label2>
						</labels>
					</clipitem>
					<clipitem id="clipitem-642">
						<masterclipid>masterclip-639</masterclipid>
						<name>TKO_012_ALS_Sh06570.mov</name>
						<enabled>TRUE</enabled>
						<duration>144</duration>
						<rate>
							<timebase>24</timebase>
							<ntsc>TRUE</ntsc>
						</rate>
						<start>53039</start>
						<end>53175</end>
						<in>4</in>
						<out>140</out>
						<pproTicksIn>42378336000</pproTicksIn>
						<pproTicksOut>1483241760000</pproTicksOut>
						<alphatype>none</alphatype>
						<pixelaspectratio>square</pixelaspectratio>
						<anamorphic>FALSE</anamorphic>
						<file id="file-639">
							<name>TKO_012_ALS_Sh06570.mov</name>
							<pathurl>file://tri-stor01/Projects/TKO/SHOTS/_Refs_Movs_Burnin_FrameCounter/TKO_012_ALS_Sh06570.mov</pathurl>
							<rate>
								<timebase>24</timebase>
								<ntsc>TRUE</ntsc>
							</rate>
							<duration>144</duration>
							<timecode>
								<rate>
									<timebase>24</timebase>
									<ntsc>TRUE</ntsc>
								</rate>
								<string>22:12:47:04</string>
								<frame>1919212</frame>
								<displayformat>NDF</displayformat>
								<reel>
									<name>A0170011</name>
								</reel>
							</timecode>
							<media>
								<video>
									<samplecharacteristics>
										<rate>
											<timebase>24</timebase>
											<ntsc>TRUE</ntsc>
										</rate>
										<width>4096</width>
										<height>2160</height>
										<anamorphic>FALSE</anamorphic>
										<pixelaspectratio>square</pixelaspectratio>
										<fielddominance>none</fielddominance>
									</samplecharacteristics>
								</video>
							</media>
						</file>
						<logginginfo>
							<description></description>
							<scene></scene>
							<shottake></shottake>
							<lognote></lognote>
							<good></good>
							<originalvideofilename></originalvideofilename>
							<originalaudiofilename></originalaudiofilename>
						</logginginfo>
						<colorinfo>
							<lut></lut>
							<lut1></lut1>
							<asc_sop></asc_sop>
							<asc_sat></asc_sat>
							<lut2></lut2>
						</colorinfo>
						<labels>
							<label2>Violet</label2>
						</labels>
					</clipitem>
					<clipitem id="clipitem-643">
						<masterclipid>masterclip-640</masterclipid>
						<name>TKO_012_ALS_Sh06580.mov</name>
						<enabled>TRUE</enabled>
						<duration>527</duration>
						<rate>
							<timebase>24</timebase>
							<ntsc>TRUE</ntsc>
						</rate>
						<start>53175</start>
						<end>53694</end>
						<in>4</in>
						<out>523</out>
						<pproTicksIn>42378336000</pproTicksIn>
						<pproTicksOut>5540967432000</pproTicksOut>
						<alphatype>none</alphatype>
						<pixelaspectratio>square</pixelaspectratio>
						<anamorphic>FALSE</anamorphic>
						<file id="file-640">
							<name>TKO_012_ALS_Sh06580.mov</name>
							<pathurl>file://tri-stor01/Projects/TKO/SHOTS/_Refs_Movs_Burnin_FrameCounter/TKO_012_ALS_Sh06580.mov</pathurl>
							<rate>
								<timebase>24</timebase>
								<ntsc>TRUE</ntsc>
							</rate>
							<duration>527</duration>
							<timecode>
								<rate>
									<timebase>24</timebase>
									<ntsc>TRUE</ntsc>
								</rate>
								<string>21:43:39:07</string>
								<frame>1877263</frame>
								<displayformat>NDF</displayformat>
								<reel>
									<name>A0170008</name>
								</reel>
							</timecode>
							<media>
								<video>
									<samplecharacteristics>
										<rate>
											<timebase>24</timebase>
											<ntsc>TRUE</ntsc>
										</rate>
										<width>4096</width>
										<height>2160</height>
										<anamorphic>FALSE</anamorphic>
										<pixelaspectratio>square</pixelaspectratio>
										<fielddominance>none</fielddominance>
									</samplecharacteristics>
								</video>
							</media>
						</file>
						<logginginfo>
							<description></description>
							<scene></scene>
							<shottake></shottake>
							<lognote></lognote>
							<good></good>
							<originalvideofilename></originalvideofilename>
							<originalaudiofilename></originalaudiofilename>
						</logginginfo>
						<colorinfo>
							<lut></lut>
							<lut1></lut1>
							<asc_sop></asc_sop>
							<asc_sat></asc_sat>
							<lut2></lut2>
						</colorinfo>
						<labels>
							<label2>Violet</label2>
						</labels>
					</clipitem>
					<clipitem id="clipitem-644">
						<masterclipid>masterclip-641</masterclipid>
						<name>TKO_013_KID_Sh06590_MERGED.mov</name>
						<enabled>TRUE</enabled>
						<duration>305</duration>
						<rate>
							<timebase>24</timebase>
							<ntsc>TRUE</ntsc>
						</rate>
						<start>53694</start>
						<end>53991</end>
						<in>4</in>
						<out>301</out>
						<pproTicksIn>42378336000</pproTicksIn>
						<pproTicksOut>3188969784000</pproTicksOut>
						<alphatype>none</alphatype>
						<pixelaspectratio>square</pixelaspectratio>
						<anamorphic>FALSE</anamorphic>
						<file id="file-641">
							<name>TKO_013_KID_Sh06590_MERGED.mov</name>
							<pathurl>file://tri-stor01/Projects/TKO/SHOTS/_Refs_Movs_Burnin_FrameCounter/TKO_013_KID_Sh06590_MERGED.mov</pathurl>
							<rate>
								<timebase>24</timebase>
								<ntsc>TRUE</ntsc>
							</rate>
							<duration>305</duration>
							<timecode>
								<rate>
									<timebase>24</timebase>
									<ntsc>TRUE</ntsc>
								</rate>
								<string>00:00:00:00</string>
								<frame>0</frame>
								<displayformat>NDF</displayformat>
							</timecode>
							<media>
								<video>
									<samplecharacteristics>
										<rate>
											<timebase>24</timebase>
											<ntsc>TRUE</ntsc>
										</rate>
										<width>1920</width>
										<height>1080</height>
										<anamorphic>FALSE</anamorphic>
										<pixelaspectratio>square</pixelaspectratio>
										<fielddominance>none</fielddominance>
									</samplecharacteristics>
								</video>
								<audio>
									<samplecharacteristics>
										<depth>16</depth>
										<samplerate>48000</samplerate>
									</samplecharacteristics>
									<channelcount>2</channelcount>
								</audio>
							</media>
						</file>
						<logginginfo>
							<description></description>
							<scene></scene>
							<shottake></shottake>
							<lognote></lognote>
							<good></good>
							<originalvideofilename></originalvideofilename>
							<originalaudiofilename></originalaudiofilename>
						</logginginfo>
						<colorinfo>
							<lut></lut>
							<lut1></lut1>
							<asc_sop></asc_sop>
							<asc_sat></asc_sat>
							<lut2></lut2>
						</colorinfo>
						<labels>
							<label2>Iris</label2>
						</labels>
					</clipitem>
					<clipitem id="clipitem-645">
						<masterclipid>masterclip-642</masterclipid>
						<name>TKO_013_KID_Sh06600.mov</name>
						<enabled>TRUE</enabled>
						<duration>73</duration>
						<rate>
							<timebase>24</timebase>
							<ntsc>TRUE</ntsc>
						</rate>
						<start>53991</start>
						<end>54056</end>
						<in>4</in>
						<out>69</out>
						<pproTicksIn>42378336000</pproTicksIn>
						<pproTicksOut>731026296000</pproTicksOut>
						<alphatype>none</alphatype>
						<pixelaspectratio>square</pixelaspectratio>
						<anamorphic>FALSE</anamorphic>
						<file id="file-642">
							<name>TKO_013_KID_Sh06600.mov</name>
							<pathurl>file://tri-stor01/Projects/TKO/SHOTS/_Refs_Movs_Burnin_FrameCounter/TKO_013_KID_Sh06600.mov</pathurl>
							<rate>
								<timebase>24</timebase>
								<ntsc>TRUE</ntsc>
							</rate>
							<duration>73</duration>
							<timecode>
								<rate>
									<timebase>24</timebase>
									<ntsc>TRUE</ntsc>
								</rate>
								<string>21:07:56:03</string>
								<frame>1825827</frame>
								<displayformat>NDF</displayformat>
								<reel>
									<name>A0420011</name>
								</reel>
							</timecode>
							<media>
								<video>
									<samplecharacteristics>
										<rate>
											<timebase>24</timebase>
											<ntsc>TRUE</ntsc>
										</rate>
										<width>4096</width>
										<height>2160</height>
										<anamorphic>FALSE</anamorphic>
										<pixelaspectratio>square</pixelaspectratio>
										<fielddominance>none</fielddominance>
									</samplecharacteristics>
								</video>
							</media>
						</file>
						<logginginfo>
							<description></description>
							<scene></scene>
							<shottake></shottake>
							<lognote></lognote>
							<good></good>
							<originalvideofilename></originalvideofilename>
							<originalaudiofilename></originalaudiofilename>
						</logginginfo>
						<colorinfo>
							<lut></lut>
							<lut1></lut1>
							<asc_sop></asc_sop>
							<asc_sat></asc_sat>
							<lut2></lut2>
						</colorinfo>
						<labels>
							<label2>Violet</label2>
						</labels>
					</clipitem>
					<clipitem id="clipitem-646">
						<masterclipid>masterclip-643</masterclipid>
						<name>TKO_013_KID_Sh06610.mov</name>
						<enabled>TRUE</enabled>
						<duration>110</duration>
						<rate>
							<timebase>24</timebase>
							<ntsc>TRUE</ntsc>
						</rate>
						<start>54056</start>
						<end>54158</end>
						<in>4</in>
						<out>106</out>
						<pproTicksIn>42378336000</pproTicksIn>
						<pproTicksOut>1123025904000</pproTicksOut>
						<alphatype>none</alphatype>
						<pixelaspectratio>square</pixelaspectratio>
						<anamorphic>FALSE</anamorphic>
						<file id="file-643">
							<name>TKO_013_KID_Sh06610.mov</name>
							<pathurl>file://tri-stor01/Projects/TKO/SHOTS/_Refs_Movs_Burnin_FrameCounter/TKO_013_KID_Sh06610.mov</pathurl>
							<rate>
								<timebase>24</timebase>
								<ntsc>TRUE</ntsc>
							</rate>
							<duration>110</duration>
							<timecode>
								<rate>
									<timebase>24</timebase>
									<ntsc>TRUE</ntsc>
								</rate>
								<string>21:28:14:12</string>
								<frame>1855068</frame>
								<displayformat>NDF</displayformat>
								<reel>
									<name>A0420013</name>
								</reel>
							</timecode>
							<media>
								<video>
									<samplecharacteristics>
										<rate>
											<timebase>24</timebase>
											<ntsc>TRUE</ntsc>
										</rate>
										<width>4096</width>
										<height>2160</height>
										<anamorphic>FALSE</anamorphic>
										<pixelaspectratio>square</pixelaspectratio>
										<fielddominance>none</fielddominance>
									</samplecharacteristics>
								</video>
							</media>
						</file>
						<logginginfo>
							<description></description>
							<scene></scene>
							<shottake></shottake>
							<lognote></lognote>
							<good></good>
							<originalvideofilename></originalvideofilename>
							<originalaudiofilename></originalaudiofilename>
						</logginginfo>
						<colorinfo>
							<lut></lut>
							<lut1></lut1>
							<asc_sop></asc_sop>
							<asc_sat></asc_sat>
							<lut2></lut2>
						</colorinfo>
						<labels>
							<label2>Violet</label2>
						</labels>
					</clipitem>
					<clipitem id="clipitem-647">
						<masterclipid>masterclip-644</masterclipid>
						<name>TKO_013_KID_Sh06620.mov</name>
						<enabled>TRUE</enabled>
						<duration>124</duration>
						<rate>
							<timebase>24</timebase>
							<ntsc>TRUE</ntsc>
						</rate>
						<start>54158</start>
						<end>54274</end>
						<in>4</in>
						<out>120</out>
						<pproTicksIn>42378336000</pproTicksIn>
						<pproTicksOut>1271350080000</pproTicksOut>
						<alphatype>none</alphatype>
						<pixelaspectratio>square</pixelaspectratio>
						<anamorphic>FALSE</anamorphic>
						<file id="file-644">
							<name>TKO_013_KID_Sh06620.mov</name>
							<pathurl>file://tri-stor01/Projects/TKO/SHOTS/_Refs_Movs_Burnin_FrameCounter/TKO_013_KID_Sh06620.mov</pathurl>
							<rate>
								<timebase>24</timebase>
								<ntsc>TRUE</ntsc>
							</rate>
							<duration>124</duration>
							<timecode>
								<rate>
									<timebase>24</timebase>
									<ntsc>TRUE</ntsc>
								</rate>
								<string>21:02:15:20</string>
								<frame>1817660</frame>
								<displayformat>NDF</displayformat>
								<reel>
									<name>A0420010</name>
								</reel>
							</timecode>
							<media>
								<video>
									<samplecharacteristics>
										<rate>
											<timebase>24</timebase>
											<ntsc>TRUE</ntsc>
										</rate>
										<width>4096</width>
										<height>2160</height>
										<anamorphic>FALSE</anamorphic>
										<pixelaspectratio>square</pixelaspectratio>
										<fielddominance>none</fielddominance>
									</samplecharacteristics>
								</video>
							</media>
						</file>
						<logginginfo>
							<description></description>
							<scene></scene>
							<shottake></shottake>
							<lognote></lognote>
							<good></good>
							<originalvideofilename></originalvideofilename>
							<originalaudiofilename></originalaudiofilename>
						</logginginfo>
						<colorinfo>
							<lut></lut>
							<lut1></lut1>
							<asc_sop></asc_sop>
							<asc_sat></asc_sat>
							<lut2></lut2>
						</colorinfo>
						<labels>
							<label2>Violet</label2>
						</labels>
					</clipitem>
					<clipitem id="clipitem-648">
						<masterclipid>masterclip-645</masterclipid>
						<name>TKO_013_KID_Sh06630_V02.mov</name>
						<enabled>TRUE</enabled>
						<duration>66</duration>
						<rate>
							<timebase>24</timebase>
							<ntsc>TRUE</ntsc>
						</rate>
						<start>54274</start>
						<end>54321</end>
						<in>15</in>
						<out>62</out>
						<pproTicksIn>158918760000</pproTicksIn>
						<pproTicksOut>656864208000</pproTicksOut>
						<alphatype>none</alphatype>
						<pixelaspectratio>square</pixelaspectratio>
						<anamorphic>FALSE</anamorphic>
						<file id="file-645">
							<name>TKO_013_KID_Sh06630_V02.mov</name>
							<pathurl>file://tri-stor01/Projects/TKO/SHOTS/_Refs_Movs_Burnin_FrameCounter/TKO_013_KID_Sh06630_V02.mov</pathurl>
							<rate>
								<timebase>24</timebase>
								<ntsc>TRUE</ntsc>
							</rate>
							<duration>66</duration>
							<timecode>
								<rate>
									<timebase>24</timebase>
									<ntsc>TRUE</ntsc>
								</rate>
								<string>17:57:29:07</string>
								<frame>1551583</frame>
								<displayformat>NDF</displayformat>
								<reel>
									<name>B0020020</name>
								</reel>
							</timecode>
							<media>
								<video>
									<samplecharacteristics>
										<rate>
											<timebase>24</timebase>
											<ntsc>TRUE</ntsc>
										</rate>
										<width>4096</width>
										<height>2160</height>
										<anamorphic>FALSE</anamorphic>
										<pixelaspectratio>square</pixelaspectratio>
										<fielddominance>none</fielddominance>
									</samplecharacteristics>
								</video>
							</media>
						</file>
						<logginginfo>
							<description></description>
							<scene></scene>
							<shottake></shottake>
							<lognote></lognote>
							<good></good>
							<originalvideofilename></originalvideofilename>
							<originalaudiofilename></originalaudiofilename>
						</logginginfo>
						<colorinfo>
							<lut></lut>
							<lut1></lut1>
							<asc_sop></asc_sop>
							<asc_sat></asc_sat>
							<lut2></lut2>
						</colorinfo>
						<labels>
							<label2>Violet</label2>
						</labels>
					</clipitem>
					<clipitem id="clipitem-649">
						<masterclipid>masterclip-646</masterclipid>
						<name>TKO_013_KID_Sh06640.mov</name>
						<enabled>TRUE</enabled>
						<duration>62</duration>
						<rate>
							<timebase>24</timebase>
							<ntsc>TRUE</ntsc>
						</rate>
						<start>54321</start>
						<end>54375</end>
						<in>4</in>
						<out>58</out>
						<pproTicksIn>42378336000</pproTicksIn>
						<pproTicksOut>614485872000</pproTicksOut>
						<alphatype>none</alphatype>
						<pixelaspectratio>square</pixelaspectratio>
						<anamorphic>FALSE</anamorphic>
						<file id="file-646">
							<name>TKO_013_KID_Sh06640.mov</name>
							<pathurl>file://tri-stor01/Projects/TKO/SHOTS/_Refs_Movs_Burnin_FrameCounter/TKO_013_KID_Sh06640.mov</pathurl>
							<rate>
								<timebase>24</timebase>
								<ntsc>TRUE</ntsc>
							</rate>
							<duration>62</duration>
							<timecode>
								<rate>
									<timebase>24</timebase>
									<ntsc>TRUE</ntsc>
								</rate>
								<string>17:57:31:21</string>
								<frame>1551645</frame>
								<displayformat>NDF</displayformat>
								<reel>
									<name>A0030001</name>
								</reel>
							</timecode>
							<media>
								<video>
									<samplecharacteristics>
										<rate>
											<timebase>24</timebase>
											<ntsc>TRUE</ntsc>
										</rate>
										<width>4096</width>
										<height>2160</height>
										<anamorphic>FALSE</anamorphic>
										<pixelaspectratio>square</pixelaspectratio>
										<fielddominance>none</fielddominance>
									</samplecharacteristics>
								</video>
							</media>
						</file>
						<logginginfo>
							<description></description>
							<scene></scene>
							<shottake></shottake>
							<lognote></lognote>
							<good></good>
							<originalvideofilename></originalvideofilename>
							<originalaudiofilename></originalaudiofilename>
						</logginginfo>
						<colorinfo>
							<lut></lut>
							<lut1></lut1>
							<asc_sop></asc_sop>
							<asc_sat></asc_sat>
							<lut2></lut2>
						</colorinfo>
						<labels>
							<label2>Violet</label2>
						</labels>
					</clipitem>
					<clipitem id="clipitem-650">
						<masterclipid>masterclip-647</masterclipid>
						<name>TKO_013_KID_Sh06650.mov</name>
						<enabled>TRUE</enabled>
						<duration>90</duration>
						<rate>
							<timebase>24</timebase>
							<ntsc>TRUE</ntsc>
						</rate>
						<start>54375</start>
						<end>54457</end>
						<in>4</in>
						<out>86</out>
						<pproTicksIn>42378336000</pproTicksIn>
						<pproTicksOut>911134224000</pproTicksOut>
						<alphatype>none</alphatype>
						<pixelaspectratio>square</pixelaspectratio>
						<anamorphic>FALSE</anamorphic>
						<file id="file-647">
							<name>TKO_013_KID_Sh06650.mov</name>
							<pathurl>file://tri-stor01/Projects/TKO/SHOTS/_Refs_Movs_Burnin_FrameCounter/TKO_013_KID_Sh06650.mov</pathurl>
							<rate>
								<timebase>24</timebase>
								<ntsc>TRUE</ntsc>
							</rate>
							<duration>90</duration>
							<timecode>
								<rate>
									<timebase>24</timebase>
									<ntsc>TRUE</ntsc>
								</rate>
								<string>21:08:09:04</string>
								<frame>1826140</frame>
								<displayformat>NDF</displayformat>
								<reel>
									<name>A0420011</name>
								</reel>
							</timecode>
							<media>
								<video>
									<samplecharacteristics>
										<rate>
											<timebase>24</timebase>
											<ntsc>TRUE</ntsc>
										</rate>
										<width>4096</width>
										<height>2160</height>
										<anamorphic>FALSE</anamorphic>
										<pixelaspectratio>square</pixelaspectratio>
										<fielddominance>none</fielddominance>
									</samplecharacteristics>
								</video>
							</media>
						</file>
						<logginginfo>
							<description></description>
							<scene></scene>
							<shottake></shottake>
							<lognote></lognote>
							<good></good>
							<originalvideofilename></originalvideofilename>
							<originalaudiofilename></originalaudiofilename>
						</logginginfo>
						<colorinfo>
							<lut></lut>
							<lut1></lut1>
							<asc_sop></asc_sop>
							<asc_sat></asc_sat>
							<lut2></lut2>
						</colorinfo>
						<labels>
							<label2>Violet</label2>
						</labels>
					</clipitem>
					<clipitem id="clipitem-651">
						<masterclipid>masterclip-648</masterclipid>
						<name>TKO_013_KID_Sh06660.mov</name>
						<enabled>TRUE</enabled>
						<duration>60</duration>
						<rate>
							<timebase>24</timebase>
							<ntsc>TRUE</ntsc>
						</rate>
						<start>54457</start>
						<end>54509</end>
						<in>4</in>
						<out>56</out>
						<pproTicksIn>42378336000</pproTicksIn>
						<pproTicksOut>593296704000</pproTicksOut>
						<alphatype>none</alphatype>
						<pixelaspectratio>square</pixelaspectratio>
						<anamorphic>FALSE</anamorphic>
						<file id="file-648">
							<name>TKO_013_KID_Sh06660.mov</name>
							<pathurl>file://tri-stor01/Projects/TKO/SHOTS/_Refs_Movs_Burnin_FrameCounter/TKO_013_KID_Sh06660.mov</pathurl>
							<rate>
								<timebase>24</timebase>
								<ntsc>TRUE</ntsc>
							</rate>
							<duration>60</duration>
							<timecode>
								<rate>
									<timebase>24</timebase>
									<ntsc>TRUE</ntsc>
								</rate>
								<string>21:08:12:14</string>
								<frame>1826222</frame>
								<displayformat>NDF</displayformat>
								<reel>
									<name>B0360013</name>
								</reel>
							</timecode>
							<media>
								<video>
									<samplecharacteristics>
										<rate>
											<timebase>24</timebase>
											<ntsc>TRUE</ntsc>
										</rate>
										<width>4096</width>
										<height>2160</height>
										<anamorphic>FALSE</anamorphic>
										<pixelaspectratio>square</pixelaspectratio>
										<fielddominance>none</fielddominance>
									</samplecharacteristics>
								</video>
							</media>
						</file>
						<logginginfo>
							<description></description>
							<scene></scene>
							<shottake></shottake>
							<lognote></lognote>
							<good></good>
							<originalvideofilename></originalvideofilename>
							<originalaudiofilename></originalaudiofilename>
						</logginginfo>
						<colorinfo>
							<lut></lut>
							<lut1></lut1>
							<asc_sop></asc_sop>
							<asc_sat></asc_sat>
							<lut2></lut2>
						</colorinfo>
						<labels>
							<label2>Violet</label2>
						</labels>
					</clipitem>
					<clipitem id="clipitem-652">
						<masterclipid>masterclip-649</masterclipid>
						<name>TKO_013_KID_Sh06670_V02.mov</name>
						<enabled>TRUE</enabled>
						<duration>56</duration>
						<rate>
							<timebase>24</timebase>
							<ntsc>TRUE</ntsc>
						</rate>
						<start>54509</start>
						<end>54546</end>
						<in>15</in>
						<out>52</out>
						<pproTicksIn>158918760000</pproTicksIn>
						<pproTicksOut>550918368000</pproTicksOut>
						<alphatype>none</alphatype>
						<pixelaspectratio>square</pixelaspectratio>
						<anamorphic>FALSE</anamorphic>
						<file id="file-649">
							<name>TKO_013_KID_Sh06670_V02.mov</name>
							<pathurl>file://tri-stor01/Projects/TKO/SHOTS/_Refs_Movs_Burnin_FrameCounter/TKO_013_KID_Sh06670_V02.mov</pathurl>
							<rate>
								<timebase>24</timebase>
								<ntsc>TRUE</ntsc>
							</rate>
							<duration>56</duration>
							<timecode>
								<rate>
									<timebase>24</timebase>
									<ntsc>TRUE</ntsc>
								</rate>
								<string>18:08:26:05</string>
								<frame>1567349</frame>
								<displayformat>NDF</displayformat>
								<reel>
									<name>B0020023</name>
								</reel>
							</timecode>
							<media>
								<video>
									<samplecharacteristics>
										<rate>
											<timebase>24</timebase>
											<ntsc>TRUE</ntsc>
										</rate>
										<width>4096</width>
										<height>2160</height>
										<anamorphic>FALSE</anamorphic>
										<pixelaspectratio>square</pixelaspectratio>
										<fielddominance>none</fielddominance>
									</samplecharacteristics>
								</video>
							</media>
						</file>
						<logginginfo>
							<description></description>
							<scene></scene>
							<shottake></shottake>
							<lognote></lognote>
							<good></good>
							<originalvideofilename></originalvideofilename>
							<originalaudiofilename></originalaudiofilename>
						</logginginfo>
						<colorinfo>
							<lut></lut>
							<lut1></lut1>
							<asc_sop></asc_sop>
							<asc_sat></asc_sat>
							<lut2></lut2>
						</colorinfo>
						<labels>
							<label2>Violet</label2>
						</labels>
					</clipitem>
					<clipitem id="clipitem-653">
						<masterclipid>masterclip-650</masterclipid>
						<name>TKO_013_KID_Sh06680.mov</name>
						<enabled>TRUE</enabled>
						<duration>42</duration>
						<rate>
							<timebase>24</timebase>
							<ntsc>TRUE</ntsc>
						</rate>
						<start>54546</start>
						<end>54580</end>
						<in>4</in>
						<out>38</out>
						<pproTicksIn>42378336000</pproTicksIn>
						<pproTicksOut>402594192000</pproTicksOut>
						<alphatype>none</alphatype>
						<pixelaspectratio>square</pixelaspectratio>
						<anamorphic>FALSE</anamorphic>
						<file id="file-650">
							<name>TKO_013_KID_Sh06680.mov</name>
							<pathurl>file://tri-stor01/Projects/TKO/SHOTS/_Refs_Movs_Burnin_FrameCounter/TKO_013_KID_Sh06680.mov</pathurl>
							<rate>
								<timebase>24</timebase>
								<ntsc>TRUE</ntsc>
							</rate>
							<duration>42</duration>
							<timecode>
								<rate>
									<timebase>24</timebase>
									<ntsc>TRUE</ntsc>
								</rate>
								<string>18:08:27:18</string>
								<frame>1567386</frame>
								<displayformat>NDF</displayformat>
								<reel>
									<name>A0030004</name>
								</reel>
							</timecode>
							<media>
								<video>
									<samplecharacteristics>
										<rate>
											<timebase>24</timebase>
											<ntsc>TRUE</ntsc>
										</rate>
										<width>4096</width>
										<height>2160</height>
										<anamorphic>FALSE</anamorphic>
										<pixelaspectratio>square</pixelaspectratio>
										<fielddominance>none</fielddominance>
									</samplecharacteristics>
								</video>
							</media>
						</file>
						<logginginfo>
							<description></description>
							<scene></scene>
							<shottake></shottake>
							<lognote></lognote>
							<good></good>
							<originalvideofilename></originalvideofilename>
							<originalaudiofilename></originalaudiofilename>
						</logginginfo>
						<colorinfo>
							<lut></lut>
							<lut1></lut1>
							<asc_sop></asc_sop>
							<asc_sat></asc_sat>
							<lut2></lut2>
						</colorinfo>
						<labels>
							<label2>Violet</label2>
						</labels>
					</clipitem>
					<clipitem id="clipitem-654">
						<masterclipid>masterclip-651</masterclipid>
						<name>TKO_013_KID_Sh06690.mov</name>
						<enabled>TRUE</enabled>
						<duration>67</duration>
						<rate>
							<timebase>24</timebase>
							<ntsc>TRUE</ntsc>
						</rate>
						<start>54580</start>
						<end>54639</end>
						<in>4</in>
						<out>63</out>
						<pproTicksIn>42378336000</pproTicksIn>
						<pproTicksOut>667458792000</pproTicksOut>
						<alphatype>none</alphatype>
						<pixelaspectratio>square</pixelaspectratio>
						<anamorphic>FALSE</anamorphic>
						<file id="file-651">
							<name>TKO_013_KID_Sh06690.mov</name>
							<pathurl>file://tri-stor01/Projects/TKO/SHOTS/_Refs_Movs_Burnin_FrameCounter/TKO_013_KID_Sh06690.mov</pathurl>
							<rate>
								<timebase>24</timebase>
								<ntsc>TRUE</ntsc>
							</rate>
							<duration>67</duration>
							<timecode>
								<rate>
									<timebase>24</timebase>
									<ntsc>TRUE</ntsc>
								</rate>
								<string>21:08:16:10</string>
								<frame>1826314</frame>
								<displayformat>NDF</displayformat>
								<reel>
									<name>A0420011</name>
								</reel>
							</timecode>
							<media>
								<video>
									<samplecharacteristics>
										<rate>
											<timebase>24</timebase>
											<ntsc>TRUE</ntsc>
										</rate>
										<width>4096</width>
										<height>2160</height>
										<anamorphic>FALSE</anamorphic>
										<pixelaspectratio>square</pixelaspectratio>
										<fielddominance>none</fielddominance>
									</samplecharacteristics>
								</video>
							</media>
						</file>
						<logginginfo>
							<description></description>
							<scene></scene>
							<shottake></shottake>
							<lognote></lognote>
							<good></good>
							<originalvideofilename></originalvideofilename>
							<originalaudiofilename></originalaudiofilename>
						</logginginfo>
						<colorinfo>
							<lut></lut>
							<lut1></lut1>
							<asc_sop></asc_sop>
							<asc_sat></asc_sat>
							<lut2></lut2>
						</colorinfo>
						<labels>
							<label2>Violet</label2>
						</labels>
					</clipitem>
					<clipitem id="clipitem-655">
						<masterclipid>masterclip-652</masterclipid>
						<name>TKO_013_KID_Sh06700.mov</name>
						<enabled>TRUE</enabled>
						<duration>54</duration>
						<rate>
							<timebase>24</timebase>
							<ntsc>TRUE</ntsc>
						</rate>
						<start>54639</start>
						<end>54685</end>
						<in>4</in>
						<out>50</out>
						<pproTicksIn>42378336000</pproTicksIn>
						<pproTicksOut>529729200000</pproTicksOut>
						<alphatype>none</alphatype>
						<pixelaspectratio>square</pixelaspectratio>
						<anamorphic>FALSE</anamorphic>
						<file id="file-652">
							<name>TKO_013_KID_Sh06700.mov</name>
							<pathurl>file://tri-stor01/Projects/TKO/SHOTS/_Refs_Movs_Burnin_FrameCounter/TKO_013_KID_Sh06700.mov</pathurl>
							<rate>
								<timebase>24</timebase>
								<ntsc>TRUE</ntsc>
							</rate>
							<duration>54</duration>
							<timecode>
								<rate>
									<timebase>24</timebase>
									<ntsc>TRUE</ntsc>
								</rate>
								<string>21:08:18:21</string>
								<frame>1826373</frame>
								<displayformat>NDF</displayformat>
								<reel>
									<name>B0360013</name>
								</reel>
							</timecode>
							<media>
								<video>
									<samplecharacteristics>
										<rate>
											<timebase>24</timebase>
											<ntsc>TRUE</ntsc>
										</rate>
										<width>4096</width>
										<height>2160</height>
										<anamorphic>FALSE</anamorphic>
										<pixelaspectratio>square</pixelaspectratio>
										<fielddominance>none</fielddominance>
									</samplecharacteristics>
								</video>
							</media>
						</file>
						<logginginfo>
							<description></description>
							<scene></scene>
							<shottake></shottake>
							<lognote></lognote>
							<good></good>
							<originalvideofilename></originalvideofilename>
							<originalaudiofilename></originalaudiofilename>
						</logginginfo>
						<colorinfo>
							<lut></lut>
							<lut1></lut1>
							<asc_sop></asc_sop>
							<asc_sat></asc_sat>
							<lut2></lut2>
						</colorinfo>
						<labels>
							<label2>Violet</label2>
						</labels>
					</clipitem>
					<clipitem id="clipitem-656">
						<masterclipid>masterclip-653</masterclipid>
						<name>TKO_013_KID_Sh06710.mov</name>
						<enabled>TRUE</enabled>
						<duration>75</duration>
						<rate>
							<timebase>24</timebase>
							<ntsc>TRUE</ntsc>
						</rate>
						<start>54685</start>
						<end>54752</end>
						<in>4</in>
						<out>71</out>
						<pproTicksIn>42378336000</pproTicksIn>
						<pproTicksOut>752215464000</pproTicksOut>
						<alphatype>none</alphatype>
						<pixelaspectratio>square</pixelaspectratio>
						<anamorphic>FALSE</anamorphic>
						<file id="file-653">
							<name>TKO_013_KID_Sh06710.mov</name>
							<pathurl>file://tri-stor01/Projects/TKO/SHOTS/_Refs_Movs_Burnin_FrameCounter/TKO_013_KID_Sh06710.mov</pathurl>
							<rate>
								<timebase>24</timebase>
								<ntsc>TRUE</ntsc>
							</rate>
							<duration>75</duration>
							<timecode>
								<rate>
									<timebase>24</timebase>
									<ntsc>TRUE</ntsc>
								</rate>
								<string>18:05:45:01</string>
								<frame>1563481</frame>
								<displayformat>NDF</displayformat>
								<reel>
									<name>A0030003</name>
								</reel>
							</timecode>
							<media>
								<video>
									<samplecharacteristics>
										<rate>
											<timebase>24</timebase>
											<ntsc>TRUE</ntsc>
										</rate>
										<width>4096</width>
										<height>2160</height>
										<anamorphic>FALSE</anamorphic>
										<pixelaspectratio>square</pixelaspectratio>
										<fielddominance>none</fielddominance>
									</samplecharacteristics>
								</video>
							</media>
						</file>
						<logginginfo>
							<description></description>
							<scene></scene>
							<shottake></shottake>
							<lognote></lognote>
							<good></good>
							<originalvideofilename></originalvideofilename>
							<originalaudiofilename></originalaudiofilename>
						</logginginfo>
						<colorinfo>
							<lut></lut>
							<lut1></lut1>
							<asc_sop></asc_sop>
							<asc_sat></asc_sat>
							<lut2></lut2>
						</colorinfo>
						<labels>
							<label2>Violet</label2>
						</labels>
					</clipitem>
					<clipitem id="clipitem-657">
						<masterclipid>masterclip-654</masterclipid>
						<name>TKO_013_KID_Sh06720.mov</name>
						<enabled>TRUE</enabled>
						<duration>45</duration>
						<rate>
							<timebase>24</timebase>
							<ntsc>TRUE</ntsc>
						</rate>
						<start>54752</start>
						<end>54789</end>
						<in>4</in>
						<out>41</out>
						<pproTicksIn>42378336000</pproTicksIn>
						<pproTicksOut>434377944000</pproTicksOut>
						<alphatype>none</alphatype>
						<pixelaspectratio>square</pixelaspectratio>
						<anamorphic>FALSE</anamorphic>
						<file id="file-654">
							<name>TKO_013_KID_Sh06720.mov</name>
							<pathurl>file://tri-stor01/Projects/TKO/SHOTS/_Refs_Movs_Burnin_FrameCounter/TKO_013_KID_Sh06720.mov</pathurl>
							<rate>
								<timebase>24</timebase>
								<ntsc>TRUE</ntsc>
							</rate>
							<duration>45</duration>
							<timecode>
								<rate>
									<timebase>24</timebase>
									<ntsc>TRUE</ntsc>
								</rate>
								<string>21:02:38:13</string>
								<frame>1818205</frame>
								<displayformat>NDF</displayformat>
								<reel>
									<name>A0420010</name>
								</reel>
							</timecode>
							<media>
								<video>
									<samplecharacteristics>
										<rate>
											<timebase>24</timebase>
											<ntsc>TRUE</ntsc>
										</rate>
										<width>4096</width>
										<height>2160</height>
										<anamorphic>FALSE</anamorphic>
										<pixelaspectratio>square</pixelaspectratio>
										<fielddominance>none</fielddominance>
									</samplecharacteristics>
								</video>
							</media>
						</file>
						<logginginfo>
							<description></description>
							<scene></scene>
							<shottake></shottake>
							<lognote></lognote>
							<good></good>
							<originalvideofilename></originalvideofilename>
							<originalaudiofilename></originalaudiofilename>
						</logginginfo>
						<colorinfo>
							<lut></lut>
							<lut1></lut1>
							<asc_sop></asc_sop>
							<asc_sat></asc_sat>
							<lut2></lut2>
						</colorinfo>
						<labels>
							<label2>Violet</label2>
						</labels>
					</clipitem>
					<clipitem id="clipitem-658">
						<masterclipid>masterclip-655</masterclipid>
						<name>TKO_013_KID_Sh06730.mov</name>
						<enabled>TRUE</enabled>
						<duration>128</duration>
						<rate>
							<timebase>24</timebase>
							<ntsc>TRUE</ntsc>
						</rate>
						<start>54789</start>
						<end>54909</end>
						<in>4</in>
						<out>124</out>
						<pproTicksIn>42378336000</pproTicksIn>
						<pproTicksOut>1313728416000</pproTicksOut>
						<alphatype>none</alphatype>
						<pixelaspectratio>square</pixelaspectratio>
						<anamorphic>FALSE</anamorphic>
						<file id="file-655">
							<name>TKO_013_KID_Sh06730.mov</name>
							<pathurl>file://tri-stor01/Projects/TKO/SHOTS/_Refs_Movs_Burnin_FrameCounter/TKO_013_KID_Sh06730.mov</pathurl>
							<rate>
								<timebase>24</timebase>
								<ntsc>TRUE</ntsc>
							</rate>
							<duration>128</duration>
							<timecode>
								<rate>
									<timebase>24</timebase>
									<ntsc>TRUE</ntsc>
								</rate>
								<string>18:16:03:16</string>
								<frame>1578328</frame>
								<displayformat>NDF</displayformat>
								<reel>
									<name>A0030005</name>
								</reel>
							</timecode>
							<media>
								<video>
									<samplecharacteristics>
										<rate>
											<timebase>24</timebase>
											<ntsc>TRUE</ntsc>
										</rate>
										<width>4096</width>
										<height>2160</height>
										<anamorphic>FALSE</anamorphic>
										<pixelaspectratio>square</pixelaspectratio>
										<fielddominance>none</fielddominance>
									</samplecharacteristics>
								</video>
							</media>
						</file>
						<logginginfo>
							<description></description>
							<scene></scene>
							<shottake></shottake>
							<lognote></lognote>
							<good></good>
							<originalvideofilename></originalvideofilename>
							<originalaudiofilename></originalaudiofilename>
						</logginginfo>
						<colorinfo>
							<lut></lut>
							<lut1></lut1>
							<asc_sop></asc_sop>
							<asc_sat></asc_sat>
							<lut2></lut2>
						</colorinfo>
						<labels>
							<label2>Violet</label2>
						</labels>
					</clipitem>
					<clipitem id="clipitem-659">
						<masterclipid>masterclip-656</masterclipid>
						<name>TKO_013_KID_Sh06740.mov</name>
						<enabled>TRUE</enabled>
						<duration>122</duration>
						<rate>
							<timebase>24</timebase>
							<ntsc>TRUE</ntsc>
						</rate>
						<start>54909</start>
						<end>55023</end>
						<in>4</in>
						<out>118</out>
						<pproTicksIn>42378336000</pproTicksIn>
						<pproTicksOut>1250160912000</pproTicksOut>
						<alphatype>none</alphatype>
						<pixelaspectratio>square</pixelaspectratio>
						<anamorphic>FALSE</anamorphic>
						<file id="file-656">
							<name>TKO_013_KID_Sh06740.mov</name>
							<pathurl>file://tri-stor01/Projects/TKO/SHOTS/_Refs_Movs_Burnin_FrameCounter/TKO_013_KID_Sh06740.mov</pathurl>
							<rate>
								<timebase>24</timebase>
								<ntsc>TRUE</ntsc>
							</rate>
							<duration>122</duration>
							<timecode>
								<rate>
									<timebase>24</timebase>
									<ntsc>TRUE</ntsc>
								</rate>
								<string>21:08:30:05</string>
								<frame>1826645</frame>
								<displayformat>NDF</displayformat>
								<reel>
									<name>A0420011</name>
								</reel>
							</timecode>
							<media>
								<video>
									<samplecharacteristics>
										<rate>
											<timebase>24</timebase>
											<ntsc>TRUE</ntsc>
										</rate>
										<width>4096</width>
										<height>2160</height>
										<anamorphic>FALSE</anamorphic>
										<pixelaspectratio>square</pixelaspectratio>
										<fielddominance>none</fielddominance>
									</samplecharacteristics>
								</video>
							</media>
						</file>
						<logginginfo>
							<description></description>
							<scene></scene>
							<shottake></shottake>
							<lognote></lognote>
							<good></good>
							<originalvideofilename></originalvideofilename>
							<originalaudiofilename></originalaudiofilename>
						</logginginfo>
						<colorinfo>
							<lut></lut>
							<lut1></lut1>
							<asc_sop></asc_sop>
							<asc_sat></asc_sat>
							<lut2></lut2>
						</colorinfo>
						<labels>
							<label2>Violet</label2>
						</labels>
					</clipitem>
					<clipitem id="clipitem-660">
						<masterclipid>masterclip-657</masterclipid>
						<name>TKO_013_KID_Sh06750.mov</name>
						<enabled>TRUE</enabled>
						<duration>319</duration>
						<rate>
							<timebase>24</timebase>
							<ntsc>TRUE</ntsc>
						</rate>
						<start>55023</start>
						<end>55334</end>
						<in>4</in>
						<out>315</out>
						<pproTicksIn>42378336000</pproTicksIn>
						<pproTicksOut>3337293960000</pproTicksOut>
						<alphatype>none</alphatype>
						<pixelaspectratio>square</pixelaspectratio>
						<anamorphic>FALSE</anamorphic>
						<file id="file-657">
							<name>TKO_013_KID_Sh06750.mov</name>
							<pathurl>file://tri-stor01/Projects/TKO/SHOTS/_Refs_Movs_Burnin_FrameCounter/TKO_013_KID_Sh06750.mov</pathurl>
							<rate>
								<timebase>24</timebase>
								<ntsc>TRUE</ntsc>
							</rate>
							<duration>319</duration>
							<timecode>
								<rate>
									<timebase>24</timebase>
									<ntsc>TRUE</ntsc>
								</rate>
								<string>21:11:24:21</string>
								<frame>1830837</frame>
								<displayformat>NDF</displayformat>
								<reel>
									<name>B0360014</name>
								</reel>
							</timecode>
							<media>
								<video>
									<samplecharacteristics>
										<rate>
											<timebase>24</timebase>
											<ntsc>TRUE</ntsc>
										</rate>
										<width>4096</width>
										<height>2160</height>
										<anamorphic>FALSE</anamorphic>
										<pixelaspectratio>square</pixelaspectratio>
										<fielddominance>none</fielddominance>
									</samplecharacteristics>
								</video>
							</media>
						</file>
						<logginginfo>
							<description></description>
							<scene></scene>
							<shottake></shottake>
							<lognote></lognote>
							<good></good>
							<originalvideofilename></originalvideofilename>
							<originalaudiofilename></originalaudiofilename>
						</logginginfo>
						<colorinfo>
							<lut></lut>
							<lut1></lut1>
							<asc_sop></asc_sop>
							<asc_sat></asc_sat>
							<lut2></lut2>
						</colorinfo>
						<labels>
							<label2>Violet</label2>
						</labels>
					</clipitem>
					<clipitem id="clipitem-661">
						<masterclipid>masterclip-658</masterclipid>
						<name>TKO_013_KID_Sh06760_MERGED.mov</name>
						<enabled>TRUE</enabled>
						<duration>124</duration>
						<rate>
							<timebase>24</timebase>
							<ntsc>TRUE</ntsc>
						</rate>
						<start>55334</start>
						<end>55450</end>
						<in>4</in>
						<out>120</out>
						<pproTicksIn>42378336000</pproTicksIn>
						<pproTicksOut>1271350080000</pproTicksOut>
						<alphatype>none</alphatype>
						<pixelaspectratio>square</pixelaspectratio>
						<anamorphic>FALSE</anamorphic>
						<file id="file-658">
							<name>TKO_013_KID_Sh06760_MERGED.mov</name>
							<pathurl>file://tri-stor01/Projects/TKO/SHOTS/_Refs_Movs_Burnin_FrameCounter/TKO_013_KID_Sh06760_MERGED.mov</pathurl>
							<rate>
								<timebase>24</timebase>
								<ntsc>TRUE</ntsc>
							</rate>
							<duration>124</duration>
							<timecode>
								<rate>
									<timebase>24</timebase>
									<ntsc>TRUE</ntsc>
								</rate>
								<string>00:00:00:00</string>
								<frame>0</frame>
								<displayformat>NDF</displayformat>
							</timecode>
							<media>
								<video>
									<samplecharacteristics>
										<rate>
											<timebase>24</timebase>
											<ntsc>TRUE</ntsc>
										</rate>
										<width>1920</width>
										<height>1080</height>
										<anamorphic>FALSE</anamorphic>
										<pixelaspectratio>square</pixelaspectratio>
										<fielddominance>none</fielddominance>
									</samplecharacteristics>
								</video>
								<audio>
									<samplecharacteristics>
										<depth>16</depth>
										<samplerate>48000</samplerate>
									</samplecharacteristics>
									<channelcount>2</channelcount>
								</audio>
							</media>
						</file>
						<logginginfo>
							<description></description>
							<scene></scene>
							<shottake></shottake>
							<lognote></lognote>
							<good></good>
							<originalvideofilename></originalvideofilename>
							<originalaudiofilename></originalaudiofilename>
						</logginginfo>
						<colorinfo>
							<lut></lut>
							<lut1></lut1>
							<asc_sop></asc_sop>
							<asc_sat></asc_sat>
							<lut2></lut2>
						</colorinfo>
						<labels>
							<label2>Iris</label2>
						</labels>
					</clipitem>
					<clipitem id="clipitem-662">
						<masterclipid>masterclip-659</masterclipid>
						<name>TKO_013_KID_Sh06770.mov</name>
						<enabled>TRUE</enabled>
						<duration>37</duration>
						<rate>
							<timebase>24</timebase>
							<ntsc>TRUE</ntsc>
						</rate>
						<start>55450</start>
						<end>55479</end>
						<in>4</in>
						<out>33</out>
						<pproTicksIn>42378336000</pproTicksIn>
						<pproTicksOut>349621272000</pproTicksOut>
						<alphatype>none</alphatype>
						<pixelaspectratio>square</pixelaspectratio>
						<anamorphic>FALSE</anamorphic>
						<file id="file-659">
							<name>TKO_013_KID_Sh06770.mov</name>
							<pathurl>file://tri-stor01/Projects/TKO/SHOTS/_Refs_Movs_Burnin_FrameCounter/TKO_013_KID_Sh06770.mov</pathurl>
							<rate>
								<timebase>24</timebase>
								<ntsc>TRUE</ntsc>
							</rate>
							<duration>37</duration>
							<timecode>
								<rate>
									<timebase>24</timebase>
									<ntsc>TRUE</ntsc>
								</rate>
								<string>12:57:46:11</string>
								<frame>1119995</frame>
								<displayformat>NDF</displayformat>
								<reel>
									<name>A0450024</name>
								</reel>
							</timecode>
							<media>
								<video>
									<samplecharacteristics>
										<rate>
											<timebase>24</timebase>
											<ntsc>TRUE</ntsc>
										</rate>
										<width>4096</width>
										<height>2160</height>
										<anamorphic>FALSE</anamorphic>
										<pixelaspectratio>square</pixelaspectratio>
										<fielddominance>none</fielddominance>
									</samplecharacteristics>
								</video>
							</media>
						</file>
						<logginginfo>
							<description></description>
							<scene></scene>
							<shottake></shottake>
							<lognote></lognote>
							<good></good>
							<originalvideofilename></originalvideofilename>
							<originalaudiofilename></originalaudiofilename>
						</logginginfo>
						<colorinfo>
							<lut></lut>
							<lut1></lut1>
							<asc_sop></asc_sop>
							<asc_sat></asc_sat>
							<lut2></lut2>
						</colorinfo>
						<labels>
							<label2>Violet</label2>
						</labels>
					</clipitem>
					<clipitem id="clipitem-663">
						<masterclipid>masterclip-660</masterclipid>
						<name>TKO_013_KID_Sh06780.mov</name>
						<enabled>TRUE</enabled>
						<duration>72</duration>
						<rate>
							<timebase>24</timebase>
							<ntsc>TRUE</ntsc>
						</rate>
						<start>55479</start>
						<end>55543</end>
						<in>4</in>
						<out>68</out>
						<pproTicksIn>42378336000</pproTicksIn>
						<pproTicksOut>720431712000</pproTicksOut>
						<alphatype>none</alphatype>
						<pixelaspectratio>square</pixelaspectratio>
						<anamorphic>FALSE</anamorphic>
						<file id="file-660">
							<name>TKO_013_KID_Sh06780.mov</name>
							<pathurl>file://tri-stor01/Projects/TKO/SHOTS/_Refs_Movs_Burnin_FrameCounter/TKO_013_KID_Sh06780.mov</pathurl>
							<rate>
								<timebase>24</timebase>
								<ntsc>TRUE</ntsc>
							</rate>
							<duration>72</duration>
							<timecode>
								<rate>
									<timebase>24</timebase>
									<ntsc>TRUE</ntsc>
								</rate>
								<string>12:57:47:16</string>
								<frame>1120024</frame>
								<displayformat>NDF</displayformat>
								<reel>
									<name>B0390025</name>
								</reel>
							</timecode>
							<media>
								<video>
									<samplecharacteristics>
										<rate>
											<timebase>24</timebase>
											<ntsc>TRUE</ntsc>
										</rate>
										<width>4096</width>
										<height>2160</height>
										<anamorphic>FALSE</anamorphic>
										<pixelaspectratio>square</pixelaspectratio>
										<fielddominance>none</fielddominance>
									</samplecharacteristics>
								</video>
							</media>
						</file>
						<logginginfo>
							<description></description>
							<scene></scene>
							<shottake></shottake>
							<lognote></lognote>
							<good></good>
							<originalvideofilename></originalvideofilename>
							<originalaudiofilename></originalaudiofilename>
						</logginginfo>
						<colorinfo>
							<lut></lut>
							<lut1></lut1>
							<asc_sop></asc_sop>
							<asc_sat></asc_sat>
							<lut2></lut2>
						</colorinfo>
						<labels>
							<label2>Violet</label2>
						</labels>
					</clipitem>
					<clipitem id="clipitem-664">
						<masterclipid>masterclip-661</masterclipid>
						<name>TKO_013_KID_Sh06790.mov</name>
						<enabled>TRUE</enabled>
						<duration>40</duration>
						<rate>
							<timebase>24</timebase>
							<ntsc>TRUE</ntsc>
						</rate>
						<start>55543</start>
						<end>55575</end>
						<in>4</in>
						<out>36</out>
						<pproTicksIn>42378336000</pproTicksIn>
						<pproTicksOut>381405024000</pproTicksOut>
						<alphatype>none</alphatype>
						<pixelaspectratio>square</pixelaspectratio>
						<anamorphic>FALSE</anamorphic>
						<file id="file-661">
							<name>TKO_013_KID_Sh06790.mov</name>
							<pathurl>file://tri-stor01/Projects/TKO/SHOTS/_Refs_Movs_Burnin_FrameCounter/TKO_013_KID_Sh06790.mov</pathurl>
							<rate>
								<timebase>24</timebase>
								<ntsc>TRUE</ntsc>
							</rate>
							<duration>40</duration>
							<timecode>
								<rate>
									<timebase>24</timebase>
									<ntsc>TRUE</ntsc>
								</rate>
								<string>12:57:50:08</string>
								<frame>1120088</frame>
								<displayformat>NDF</displayformat>
								<reel>
									<name>A0450024</name>
								</reel>
							</timecode>
							<media>
								<video>
									<samplecharacteristics>
										<rate>
											<timebase>24</timebase>
											<ntsc>TRUE</ntsc>
										</rate>
										<width>4096</width>
										<height>2160</height>
										<anamorphic>FALSE</anamorphic>
										<pixelaspectratio>square</pixelaspectratio>
										<fielddominance>none</fielddominance>
									</samplecharacteristics>
								</video>
							</media>
						</file>
						<logginginfo>
							<description></description>
							<scene></scene>
							<shottake></shottake>
							<lognote></lognote>
							<good></good>
							<originalvideofilename></originalvideofilename>
							<originalaudiofilename></originalaudiofilename>
						</logginginfo>
						<colorinfo>
							<lut></lut>
							<lut1></lut1>
							<asc_sop></asc_sop>
							<asc_sat></asc_sat>
							<lut2></lut2>
						</colorinfo>
						<labels>
							<label2>Violet</label2>
						</labels>
					</clipitem>
					<clipitem id="clipitem-665">
						<masterclipid>masterclip-662</masterclipid>
						<name>TKO_013_KID_Sh06800.mov</name>
						<enabled>TRUE</enabled>
						<duration>71</duration>
						<rate>
							<timebase>24</timebase>
							<ntsc>TRUE</ntsc>
						</rate>
						<start>55575</start>
						<end>55638</end>
						<in>4</in>
						<out>67</out>
						<pproTicksIn>42378336000</pproTicksIn>
						<pproTicksOut>709837128000</pproTicksOut>
						<alphatype>none</alphatype>
						<pixelaspectratio>square</pixelaspectratio>
						<anamorphic>FALSE</anamorphic>
						<file id="file-662">
							<name>TKO_013_KID_Sh06800.mov</name>
							<pathurl>file://tri-stor01/Projects/TKO/SHOTS/_Refs_Movs_Burnin_FrameCounter/TKO_013_KID_Sh06800.mov</pathurl>
							<rate>
								<timebase>24</timebase>
								<ntsc>TRUE</ntsc>
							</rate>
							<duration>71</duration>
							<timecode>
								<rate>
									<timebase>24</timebase>
									<ntsc>TRUE</ntsc>
								</rate>
								<string>13:06:20:19</string>
								<frame>1132339</frame>
								<displayformat>NDF</displayformat>
								<reel>
									<name>A0450025</name>
								</reel>
							</timecode>
							<media>
								<video>
									<samplecharacteristics>
										<rate>
											<timebase>24</timebase>
											<ntsc>TRUE</ntsc>
										</rate>
										<width>4096</width>
										<height>2160</height>
										<anamorphic>FALSE</anamorphic>
										<pixelaspectratio>square</pixelaspectratio>
										<fielddominance>none</fielddominance>
									</samplecharacteristics>
								</video>
							</media>
						</file>
						<logginginfo>
							<description></description>
							<scene></scene>
							<shottake></shottake>
							<lognote></lognote>
							<good></good>
							<originalvideofilename></originalvideofilename>
							<originalaudiofilename></originalaudiofilename>
						</logginginfo>
						<colorinfo>
							<lut></lut>
							<lut1></lut1>
							<asc_sop></asc_sop>
							<asc_sat></asc_sat>
							<lut2></lut2>
						</colorinfo>
						<labels>
							<label2>Violet</label2>
						</labels>
					</clipitem>
					<clipitem id="clipitem-666">
						<masterclipid>masterclip-663</masterclipid>
						<name>TKO_013_KID_Sh06810.mov</name>
						<enabled>TRUE</enabled>
						<duration>70</duration>
						<rate>
							<timebase>24</timebase>
							<ntsc>TRUE</ntsc>
						</rate>
						<start>55638</start>
						<end>55700</end>
						<in>4</in>
						<out>66</out>
						<pproTicksIn>42378336000</pproTicksIn>
						<pproTicksOut>699242544000</pproTicksOut>
						<alphatype>none</alphatype>
						<pixelaspectratio>square</pixelaspectratio>
						<anamorphic>FALSE</anamorphic>
						<file id="file-663">
							<name>TKO_013_KID_Sh06810.mov</name>
							<pathurl>file://tri-stor01/Projects/TKO/SHOTS/_Refs_Movs_Burnin_FrameCounter/TKO_013_KID_Sh06810.mov</pathurl>
							<rate>
								<timebase>24</timebase>
								<ntsc>TRUE</ntsc>
							</rate>
							<duration>70</duration>
							<timecode>
								<rate>
									<timebase>24</timebase>
									<ntsc>TRUE</ntsc>
								</rate>
								<string>13:06:23:10</string>
								<frame>1132402</frame>
								<displayformat>NDF</displayformat>
								<reel>
									<name>B0390026</name>
								</reel>
							</timecode>
							<media>
								<video>
									<samplecharacteristics>
										<rate>
											<timebase>24</timebase>
											<ntsc>TRUE</ntsc>
										</rate>
										<width>4096</width>
										<height>2160</height>
										<anamorphic>FALSE</anamorphic>
										<pixelaspectratio>square</pixelaspectratio>
										<fielddominance>none</fielddominance>
									</samplecharacteristics>
								</video>
							</media>
						</file>
						<logginginfo>
							<description></description>
							<scene></scene>
							<shottake></shottake>
							<lognote></lognote>
							<good></good>
							<originalvideofilename></originalvideofilename>
							<originalaudiofilename></originalaudiofilename>
						</logginginfo>
						<colorinfo>
							<lut></lut>
							<lut1></lut1>
							<asc_sop></asc_sop>
							<asc_sat></asc_sat>
							<lut2></lut2>
						</colorinfo>
						<labels>
							<label2>Violet</label2>
						</labels>
					</clipitem>
					<clipitem id="clipitem-667">
						<masterclipid>masterclip-664</masterclipid>
						<name>TKO_013_KID_Sh06820.mov</name>
						<enabled>TRUE</enabled>
						<duration>60</duration>
						<rate>
							<timebase>24</timebase>
							<ntsc>TRUE</ntsc>
						</rate>
						<start>55700</start>
						<end>55752</end>
						<in>4</in>
						<out>56</out>
						<pproTicksIn>42378336000</pproTicksIn>
						<pproTicksOut>593296704000</pproTicksOut>
						<alphatype>none</alphatype>
						<pixelaspectratio>square</pixelaspectratio>
						<anamorphic>FALSE</anamorphic>
						<file id="file-664">
							<name>TKO_013_KID_Sh06820.mov</name>
							<pathurl>file://tri-stor01/Projects/TKO/SHOTS/_Refs_Movs_Burnin_FrameCounter/TKO_013_KID_Sh06820.mov</pathurl>
							<rate>
								<timebase>24</timebase>
								<ntsc>TRUE</ntsc>
							</rate>
							<duration>60</duration>
							<timecode>
								<rate>
									<timebase>24</timebase>
									<ntsc>TRUE</ntsc>
								</rate>
								<string>13:04:54:03</string>
								<frame>1130259</frame>
								<displayformat>NDF</displayformat>
								<reel>
									<name>B0390026</name>
								</reel>
							</timecode>
							<media>
								<video>
									<samplecharacteristics>
										<rate>
											<timebase>24</timebase>
											<ntsc>TRUE</ntsc>
										</rate>
										<width>4096</width>
										<height>2160</height>
										<anamorphic>FALSE</anamorphic>
										<pixelaspectratio>square</pixelaspectratio>
										<fielddominance>none</fielddominance>
									</samplecharacteristics>
								</video>
							</media>
						</file>
						<logginginfo>
							<description></description>
							<scene></scene>
							<shottake></shottake>
							<lognote></lognote>
							<good></good>
							<originalvideofilename></originalvideofilename>
							<originalaudiofilename></originalaudiofilename>
						</logginginfo>
						<colorinfo>
							<lut></lut>
							<lut1></lut1>
							<asc_sop></asc_sop>
							<asc_sat></asc_sat>
							<lut2></lut2>
						</colorinfo>
						<labels>
							<label2>Violet</label2>
						</labels>
					</clipitem>
					<clipitem id="clipitem-668">
						<masterclipid>masterclip-665</masterclipid>
						<name>TKO_013_KID_Sh06830.mov</name>
						<enabled>TRUE</enabled>
						<duration>27</duration>
						<rate>
							<timebase>24</timebase>
							<ntsc>TRUE</ntsc>
						</rate>
						<start>55752</start>
						<end>55771</end>
						<in>4</in>
						<out>23</out>
						<pproTicksIn>42378336000</pproTicksIn>
						<pproTicksOut>243675432000</pproTicksOut>
						<alphatype>none</alphatype>
						<pixelaspectratio>square</pixelaspectratio>
						<anamorphic>FALSE</anamorphic>
						<file id="file-665">
							<name>TKO_013_KID_Sh06830.mov</name>
							<pathurl>file://tri-stor01/Projects/TKO/SHOTS/_Refs_Movs_Burnin_FrameCounter/TKO_013_KID_Sh06830.mov</pathurl>
							<rate>
								<timebase>24</timebase>
								<ntsc>TRUE</ntsc>
							</rate>
							<duration>27</duration>
							<timecode>
								<rate>
									<timebase>24</timebase>
									<ntsc>TRUE</ntsc>
								</rate>
								<string>00:31:10:08</string>
								<frame>44888</frame>
								<displayformat>NDF</displayformat>
							</timecode>
							<media>
								<video>
									<samplecharacteristics>
										<rate>
											<timebase>24</timebase>
											<ntsc>TRUE</ntsc>
										</rate>
										<width>1280</width>
										<height>720</height>
										<anamorphic>FALSE</anamorphic>
										<pixelaspectratio>square</pixelaspectratio>
										<fielddominance>none</fielddominance>
									</samplecharacteristics>
								</video>
							</media>
						</file>
						<logginginfo>
							<description></description>
							<scene></scene>
							<shottake></shottake>
							<lognote></lognote>
							<good></good>
							<originalvideofilename></originalvideofilename>
							<originalaudiofilename></originalaudiofilename>
						</logginginfo>
						<colorinfo>
							<lut></lut>
							<lut1></lut1>
							<asc_sop></asc_sop>
							<asc_sat></asc_sat>
							<lut2></lut2>
						</colorinfo>
						<labels>
							<label2>Violet</label2>
						</labels>
					</clipitem>
					<clipitem id="clipitem-669">
						<masterclipid>masterclip-666</masterclipid>
						<name>TKO_013_KID_Sh06840.mov</name>
						<enabled>TRUE</enabled>
						<duration>47</duration>
						<rate>
							<timebase>24</timebase>
							<ntsc>TRUE</ntsc>
						</rate>
						<start>55771</start>
						<end>55810</end>
						<in>4</in>
						<out>43</out>
						<pproTicksIn>42378336000</pproTicksIn>
						<pproTicksOut>455567112000</pproTicksOut>
						<alphatype>none</alphatype>
						<pixelaspectratio>square</pixelaspectratio>
						<anamorphic>FALSE</anamorphic>
						<file id="file-666">
							<name>TKO_013_KID_Sh06840.mov</name>
							<pathurl>file://tri-stor01/Projects/TKO/SHOTS/_Refs_Movs_Burnin_FrameCounter/TKO_013_KID_Sh06840.mov</pathurl>
							<rate>
								<timebase>24</timebase>
								<ntsc>TRUE</ntsc>
							</rate>
							<duration>47</duration>
							<timecode>
								<rate>
									<timebase>24</timebase>
									<ntsc>TRUE</ntsc>
								</rate>
								<string>19:52:56:09</string>
								<frame>1717833</frame>
								<displayformat>NDF</displayformat>
								<reel>
									<name>A0260009</name>
								</reel>
							</timecode>
							<media>
								<video>
									<samplecharacteristics>
										<rate>
											<timebase>24</timebase>
											<ntsc>TRUE</ntsc>
										</rate>
										<width>4096</width>
										<height>2160</height>
										<anamorphic>FALSE</anamorphic>
										<pixelaspectratio>square</pixelaspectratio>
										<fielddominance>none</fielddominance>
									</samplecharacteristics>
								</video>
							</media>
						</file>
						<logginginfo>
							<description></description>
							<scene></scene>
							<shottake></shottake>
							<lognote></lognote>
							<good></good>
							<originalvideofilename></originalvideofilename>
							<originalaudiofilename></originalaudiofilename>
						</logginginfo>
						<colorinfo>
							<lut></lut>
							<lut1></lut1>
							<asc_sop></asc_sop>
							<asc_sat></asc_sat>
							<lut2></lut2>
						</colorinfo>
						<labels>
							<label2>Violet</label2>
						</labels>
					</clipitem>
					<clipitem id="clipitem-670">
						<masterclipid>masterclip-667</masterclipid>
						<name>TKO_013_KID_Sh06850.mov</name>
						<enabled>TRUE</enabled>
						<duration>43</duration>
						<rate>
							<timebase>24</timebase>
							<ntsc>TRUE</ntsc>
						</rate>
						<start>55810</start>
						<end>55845</end>
						<in>4</in>
						<out>39</out>
						<pproTicksIn>42378336000</pproTicksIn>
						<pproTicksOut>413188776000</pproTicksOut>
						<alphatype>none</alphatype>
						<pixelaspectratio>square</pixelaspectratio>
						<anamorphic>FALSE</anamorphic>
						<file id="file-667">
							<name>TKO_013_KID_Sh06850.mov</name>
							<pathurl>file://tri-stor01/Projects/TKO/SHOTS/_Refs_Movs_Burnin_FrameCounter/TKO_013_KID_Sh06850.mov</pathurl>
							<rate>
								<timebase>24</timebase>
								<ntsc>TRUE</ntsc>
							</rate>
							<duration>43</duration>
							<timecode>
								<rate>
									<timebase>24</timebase>
									<ntsc>TRUE</ntsc>
								</rate>
								<string>19:52:56:09</string>
								<frame>1717833</frame>
								<displayformat>NDF</displayformat>
								<reel>
									<name>B0220010</name>
								</reel>
							</timecode>
							<media>
								<video>
									<samplecharacteristics>
										<rate>
											<timebase>24</timebase>
											<ntsc>TRUE</ntsc>
										</rate>
										<width>4096</width>
										<height>2160</height>
										<anamorphic>FALSE</anamorphic>
										<pixelaspectratio>square</pixelaspectratio>
										<fielddominance>none</fielddominance>
									</samplecharacteristics>
								</video>
							</media>
						</file>
						<logginginfo>
							<description></description>
							<scene></scene>
							<shottake></shottake>
							<lognote></lognote>
							<good></good>
							<originalvideofilename></originalvideofilename>
							<originalaudiofilename></originalaudiofilename>
						</logginginfo>
						<colorinfo>
							<lut></lut>
							<lut1></lut1>
							<asc_sop></asc_sop>
							<asc_sat></asc_sat>
							<lut2></lut2>
						</colorinfo>
						<labels>
							<label2>Violet</label2>
						</labels>
					</clipitem>
					<clipitem id="clipitem-671">
						<masterclipid>masterclip-668</masterclipid>
						<name>TKO_013_KID_Sh06860.mov</name>
						<enabled>TRUE</enabled>
						<duration>42</duration>
						<rate>
							<timebase>24</timebase>
							<ntsc>TRUE</ntsc>
						</rate>
						<start>55845</start>
						<end>55879</end>
						<in>4</in>
						<out>38</out>
						<pproTicksIn>42378336000</pproTicksIn>
						<pproTicksOut>402594192000</pproTicksOut>
						<alphatype>none</alphatype>
						<pixelaspectratio>square</pixelaspectratio>
						<anamorphic>FALSE</anamorphic>
						<file id="file-668">
							<name>TKO_013_KID_Sh06860.mov</name>
							<pathurl>file://tri-stor01/Projects/TKO/SHOTS/_Refs_Movs_Burnin_FrameCounter/TKO_013_KID_Sh06860.mov</pathurl>
							<rate>
								<timebase>24</timebase>
								<ntsc>TRUE</ntsc>
							</rate>
							<duration>42</duration>
							<timecode>
								<rate>
									<timebase>24</timebase>
									<ntsc>TRUE</ntsc>
								</rate>
								<string>19:54:23:00</string>
								<frame>1719912</frame>
								<displayformat>NDF</displayformat>
								<reel>
									<name>A0260009</name>
								</reel>
							</timecode>
							<media>
								<video>
									<samplecharacteristics>
										<rate>
											<timebase>24</timebase>
											<ntsc>TRUE</ntsc>
										</rate>
										<width>4096</width>
										<height>2160</height>
										<anamorphic>FALSE</anamorphic>
										<pixelaspectratio>square</pixelaspectratio>
										<fielddominance>none</fielddominance>
									</samplecharacteristics>
								</video>
							</media>
						</file>
						<logginginfo>
							<description></description>
							<scene></scene>
							<shottake></shottake>
							<lognote></lognote>
							<good></good>
							<originalvideofilename></originalvideofilename>
							<originalaudiofilename></originalaudiofilename>
						</logginginfo>
						<colorinfo>
							<lut></lut>
							<lut1></lut1>
							<asc_sop></asc_sop>
							<asc_sat></asc_sat>
							<lut2></lut2>
						</colorinfo>
						<labels>
							<label2>Violet</label2>
						</labels>
					</clipitem>
					<clipitem id="clipitem-672">
						<masterclipid>masterclip-669</masterclipid>
						<name>TKO_013_KID_Sh06870.mov</name>
						<enabled>FALSE</enabled>
						<duration>19</duration>
						<rate>
							<timebase>24</timebase>
							<ntsc>TRUE</ntsc>
						</rate>
						<start>55879</start>
						<end>55898</end>
						<in>0</in>
						<out>19</out>
						<pproTicksIn>0</pproTicksIn>
						<pproTicksOut>201297096000</pproTicksOut>
						<alphatype>none</alphatype>
						<pixelaspectratio>square</pixelaspectratio>
						<anamorphic>FALSE</anamorphic>
						<file id="file-669">
							<name>TKO_013_KID_Sh06870.mov</name>
							<pathurl>file://tri-stor01/Projects/TKO/SHOTS/_Refs_Movs_Burnin_FrameCounter/TKO_013_KID_Sh06870.mov</pathurl>
							<rate>
								<timebase>24</timebase>
								<ntsc>TRUE</ntsc>
							</rate>
							<duration>19</duration>
							<timecode>
								<rate>
									<timebase>24</timebase>
									<ntsc>TRUE</ntsc>
								</rate>
								<string>00:31:12:08</string>
								<frame>44936</frame>
								<displayformat>NDF</displayformat>
							</timecode>
							<media>
								<video>
									<samplecharacteristics>
										<rate>
											<timebase>24</timebase>
											<ntsc>TRUE</ntsc>
										</rate>
										<width>1280</width>
										<height>720</height>
										<anamorphic>FALSE</anamorphic>
										<pixelaspectratio>square</pixelaspectratio>
										<fielddominance>none</fielddominance>
									</samplecharacteristics>
								</video>
							</media>
						</file>
						<logginginfo>
							<description></description>
							<scene></scene>
							<shottake></shottake>
							<lognote></lognote>
							<good></good>
							<originalvideofilename></originalvideofilename>
							<originalaudiofilename></originalaudiofilename>
						</logginginfo>
						<colorinfo>
							<lut></lut>
							<lut1></lut1>
							<asc_sop></asc_sop>
							<asc_sat></asc_sat>
							<lut2></lut2>
						</colorinfo>
						<labels>
							<label2>Violet</label2>
						</labels>
					</clipitem>
					<clipitem id="clipitem-673">
						<masterclipid>masterclip-670</masterclipid>
						<name>TKO_013_KID_Sh06880.mov</name>
						<enabled>FALSE</enabled>
						<duration>19</duration>
						<rate>
							<timebase>24</timebase>
							<ntsc>TRUE</ntsc>
						</rate>
						<start>55905</start>
						<end>55924</end>
						<in>0</in>
						<out>19</out>
						<pproTicksIn>0</pproTicksIn>
						<pproTicksOut>201297096000</pproTicksOut>
						<alphatype>none</alphatype>
						<pixelaspectratio>square</pixelaspectratio>
						<anamorphic>FALSE</anamorphic>
						<file id="file-670">
							<name>TKO_013_KID_Sh06880.mov</name>
							<pathurl>file://tri-stor01/Projects/TKO/SHOTS/_Refs_Movs_Burnin_FrameCounter/TKO_013_KID_Sh06880.mov</pathurl>
							<rate>
								<timebase>24</timebase>
								<ntsc>TRUE</ntsc>
							</rate>
							<duration>19</duration>
							<timecode>
								<rate>
									<timebase>24</timebase>
									<ntsc>TRUE</ntsc>
								</rate>
								<string>00:31:12:19</string>
								<frame>44947</frame>
								<displayformat>NDF</displayformat>
							</timecode>
							<media>
								<video>
									<samplecharacteristics>
										<rate>
											<timebase>24</timebase>
											<ntsc>TRUE</ntsc>
										</rate>
										<width>1280</width>
										<height>720</height>
										<anamorphic>FALSE</anamorphic>
										<pixelaspectratio>square</pixelaspectratio>
										<fielddominance>none</fielddominance>
									</samplecharacteristics>
								</video>
							</media>
						</file>
						<logginginfo>
							<description></description>
							<scene></scene>
							<shottake></shottake>
							<lognote></lognote>
							<good></good>
							<originalvideofilename></originalvideofilename>
							<originalaudiofilename></originalaudiofilename>
						</logginginfo>
						<colorinfo>
							<lut></lut>
							<lut1></lut1>
							<asc_sop></asc_sop>
							<asc_sat></asc_sat>
							<lut2></lut2>
						</colorinfo>
						<labels>
							<label2>Violet</label2>
						</labels>
					</clipitem>
					<clipitem id="clipitem-674">
						<masterclipid>masterclip-671</masterclipid>
						<name>TKO_013_KID_Sh06900.mov</name>
						<enabled>TRUE</enabled>
						<duration>34</duration>
						<rate>
							<timebase>24</timebase>
							<ntsc>TRUE</ntsc>
						</rate>
						<start>55935</start>
						<end>55961</end>
						<in>4</in>
						<out>30</out>
						<pproTicksIn>42378336000</pproTicksIn>
						<pproTicksOut>317837520000</pproTicksOut>
						<alphatype>none</alphatype>
						<pixelaspectratio>square</pixelaspectratio>
						<anamorphic>FALSE</anamorphic>
						<file id="file-671">
							<name>TKO_013_KID_Sh06900.mov</name>
							<pathurl>file://tri-stor01/Projects/TKO/SHOTS/_Refs_Movs_Burnin_FrameCounter/TKO_013_KID_Sh06900.mov</pathurl>
							<rate>
								<timebase>24</timebase>
								<ntsc>TRUE</ntsc>
							</rate>
							<duration>34</duration>
							<timecode>
								<rate>
									<timebase>24</timebase>
									<ntsc>TRUE</ntsc>
								</rate>
								<string>13:04:56:07</string>
								<frame>1130311</frame>
								<displayformat>NDF</displayformat>
								<reel>
									<name>A0450025</name>
								</reel>
							</timecode>
							<media>
								<video>
									<samplecharacteristics>
										<rate>
											<timebase>24</timebase>
											<ntsc>TRUE</ntsc>
										</rate>
										<width>4096</width>
										<height>2160</height>
										<anamorphic>FALSE</anamorphic>
										<pixelaspectratio>square</pixelaspectratio>
										<fielddominance>none</fielddominance>
									</samplecharacteristics>
								</video>
							</media>
						</file>
						<logginginfo>
							<description></description>
							<scene></scene>
							<shottake></shottake>
							<lognote></lognote>
							<good></good>
							<originalvideofilename></originalvideofilename>
							<originalaudiofilename></originalaudiofilename>
						</logginginfo>
						<colorinfo>
							<lut></lut>
							<lut1></lut1>
							<asc_sop></asc_sop>
							<asc_sat></asc_sat>
							<lut2></lut2>
						</colorinfo>
						<labels>
							<label2>Violet</label2>
						</labels>
					</clipitem>
					<clipitem id="clipitem-675">
						<masterclipid>masterclip-672</masterclipid>
						<name>TKO_013_KID_Sh06920.mov</name>
						<enabled>TRUE</enabled>
						<duration>31</duration>
						<rate>
							<timebase>24</timebase>
							<ntsc>TRUE</ntsc>
						</rate>
						<start>55961</start>
						<end>55984</end>
						<in>4</in>
						<out>27</out>
						<pproTicksIn>42378336000</pproTicksIn>
						<pproTicksOut>286053768000</pproTicksOut>
						<alphatype>none</alphatype>
						<pixelaspectratio>square</pixelaspectratio>
						<anamorphic>FALSE</anamorphic>
						<file id="file-672">
							<name>TKO_013_KID_Sh06920.mov</name>
							<pathurl>file://tri-stor01/Projects/TKO/SHOTS/_Refs_Movs_Burnin_FrameCounter/TKO_013_KID_Sh06920.mov</pathurl>
							<rate>
								<timebase>24</timebase>
								<ntsc>TRUE</ntsc>
							</rate>
							<duration>31</duration>
							<timecode>
								<rate>
									<timebase>24</timebase>
									<ntsc>TRUE</ntsc>
								</rate>
								<string>12:58:00:12</string>
								<frame>1120332</frame>
								<displayformat>NDF</displayformat>
								<reel>
									<name>B0390025</name>
								</reel>
							</timecode>
							<media>
								<video>
									<samplecharacteristics>
										<rate>
											<timebase>24</timebase>
											<ntsc>TRUE</ntsc>
										</rate>
										<width>4096</width>
										<height>2160</height>
										<anamorphic>FALSE</anamorphic>
										<pixelaspectratio>square</pixelaspectratio>
										<fielddominance>none</fielddominance>
									</samplecharacteristics>
								</video>
							</media>
						</file>
						<logginginfo>
							<description></description>
							<scene></scene>
							<shottake></shottake>
							<lognote></lognote>
							<good></good>
							<originalvideofilename></originalvideofilename>
							<originalaudiofilename></originalaudiofilename>
						</logginginfo>
						<colorinfo>
							<lut></lut>
							<lut1></lut1>
							<asc_sop></asc_sop>
							<asc_sat></asc_sat>
							<lut2></lut2>
						</colorinfo>
						<labels>
							<label2>Violet</label2>
						</labels>
					</clipitem>
					<clipitem id="clipitem-676">
						<masterclipid>masterclip-673</masterclipid>
						<name>TKO_013_KID_Sh06930.mov</name>
						<enabled>TRUE</enabled>
						<duration>98</duration>
						<rate>
							<timebase>24</timebase>
							<ntsc>TRUE</ntsc>
						</rate>
						<start>55984</start>
						<end>56074</end>
						<in>4</in>
						<out>94</out>
						<pproTicksIn>42378336000</pproTicksIn>
						<pproTicksOut>995890896000</pproTicksOut>
						<alphatype>none</alphatype>
						<pixelaspectratio>square</pixelaspectratio>
						<anamorphic>FALSE</anamorphic>
						<file id="file-673">
							<name>TKO_013_KID_Sh06930.mov</name>
							<pathurl>file://tri-stor01/Projects/TKO/SHOTS/_Refs_Movs_Burnin_FrameCounter/TKO_013_KID_Sh06930.mov</pathurl>
							<rate>
								<timebase>24</timebase>
								<ntsc>TRUE</ntsc>
							</rate>
							<duration>98</duration>
							<timecode>
								<rate>
									<timebase>24</timebase>
									<ntsc>TRUE</ntsc>
								</rate>
								<string>19:53:38:15</string>
								<frame>1718847</frame>
								<displayformat>NDF</displayformat>
								<reel>
									<name>A0260009</name>
								</reel>
							</timecode>
							<media>
								<video>
									<samplecharacteristics>
										<rate>
											<timebase>24</timebase>
											<ntsc>TRUE</ntsc>
										</rate>
										<width>4096</width>
										<height>2160</height>
										<anamorphic>FALSE</anamorphic>
										<pixelaspectratio>square</pixelaspectratio>
										<fielddominance>none</fielddominance>
									</samplecharacteristics>
								</video>
							</media>
						</file>
						<logginginfo>
							<description></description>
							<scene></scene>
							<shottake></shottake>
							<lognote></lognote>
							<good></good>
							<originalvideofilename></originalvideofilename>
							<originalaudiofilename></originalaudiofilename>
						</logginginfo>
						<colorinfo>
							<lut></lut>
							<lut1></lut1>
							<asc_sop></asc_sop>
							<asc_sat></asc_sat>
							<lut2></lut2>
						</colorinfo>
						<labels>
							<label2>Violet</label2>
						</labels>
					</clipitem>
					<clipitem id="clipitem-677">
						<masterclipid>masterclip-674</masterclipid>
						<name>TKO_013_KID_Sh06940.mov</name>
						<enabled>TRUE</enabled>
						<duration>89</duration>
						<rate>
							<timebase>24</timebase>
							<ntsc>TRUE</ntsc>
						</rate>
						<start>56074</start>
						<end>56155</end>
						<in>4</in>
						<out>85</out>
						<pproTicksIn>42378336000</pproTicksIn>
						<pproTicksOut>900539640000</pproTicksOut>
						<alphatype>none</alphatype>
						<pixelaspectratio>square</pixelaspectratio>
						<anamorphic>FALSE</anamorphic>
						<file id="file-674">
							<name>TKO_013_KID_Sh06940.mov</name>
							<pathurl>file://tri-stor01/Projects/TKO/SHOTS/_Refs_Movs_Burnin_FrameCounter/TKO_013_KID_Sh06940.mov</pathurl>
							<rate>
								<timebase>24</timebase>
								<ntsc>TRUE</ntsc>
							</rate>
							<duration>89</duration>
							<timecode>
								<rate>
									<timebase>24</timebase>
									<ntsc>TRUE</ntsc>
								</rate>
								<string>14:24:33:19</string>
								<frame>1244971</frame>
								<displayformat>NDF</displayformat>
								<reel>
									<name>A0460002</name>
								</reel>
							</timecode>
							<media>
								<video>
									<samplecharacteristics>
										<rate>
											<timebase>24</timebase>
											<ntsc>TRUE</ntsc>
										</rate>
										<width>4096</width>
										<height>2160</height>
										<anamorphic>FALSE</anamorphic>
										<pixelaspectratio>square</pixelaspectratio>
										<fielddominance>none</fielddominance>
									</samplecharacteristics>
								</video>
							</media>
						</file>
						<logginginfo>
							<description></description>
							<scene></scene>
							<shottake></shottake>
							<lognote></lognote>
							<good></good>
							<originalvideofilename></originalvideofilename>
							<originalaudiofilename></originalaudiofilename>
						</logginginfo>
						<colorinfo>
							<lut></lut>
							<lut1></lut1>
							<asc_sop></asc_sop>
							<asc_sat></asc_sat>
							<lut2></lut2>
						</colorinfo>
						<labels>
							<label2>Violet</label2>
						</labels>
					</clipitem>
					<clipitem id="clipitem-678">
						<masterclipid>masterclip-675</masterclipid>
						<name>TKO_013_KID_Sh06950.mov</name>
						<enabled>TRUE</enabled>
						<duration>25</duration>
						<rate>
							<timebase>24</timebase>
							<ntsc>TRUE</ntsc>
						</rate>
						<start>56155</start>
						<end>56172</end>
						<in>4</in>
						<out>21</out>
						<pproTicksIn>42378336000</pproTicksIn>
						<pproTicksOut>222486264000</pproTicksOut>
						<alphatype>none</alphatype>
						<pixelaspectratio>square</pixelaspectratio>
						<anamorphic>FALSE</anamorphic>
						<file id="file-675">
							<name>TKO_013_KID_Sh06950.mov</name>
							<pathurl>file://tri-stor01/Projects/TKO/SHOTS/_Refs_Movs_Burnin_FrameCounter/TKO_013_KID_Sh06950.mov</pathurl>
							<rate>
								<timebase>24</timebase>
								<ntsc>TRUE</ntsc>
							</rate>
							<duration>25</duration>
							<timecode>
								<rate>
									<timebase>24</timebase>
									<ntsc>TRUE</ntsc>
								</rate>
								<string>13:07:35:20</string>
								<frame>1134140</frame>
								<displayformat>NDF</displayformat>
								<reel>
									<name>B0390026</name>
								</reel>
							</timecode>
							<media>
								<video>
									<samplecharacteristics>
										<rate>
											<timebase>24</timebase>
											<ntsc>TRUE</ntsc>
										</rate>
										<width>4096</width>
										<height>2160</height>
										<anamorphic>FALSE</anamorphic>
										<pixelaspectratio>square</pixelaspectratio>
										<fielddominance>none</fielddominance>
									</samplecharacteristics>
								</video>
							</media>
						</file>
						<logginginfo>
							<description></description>
							<scene></scene>
							<shottake></shottake>
							<lognote></lognote>
							<good></good>
							<originalvideofilename></originalvideofilename>
							<originalaudiofilename></originalaudiofilename>
						</logginginfo>
						<colorinfo>
							<lut></lut>
							<lut1></lut1>
							<asc_sop></asc_sop>
							<asc_sat></asc_sat>
							<lut2></lut2>
						</colorinfo>
						<labels>
							<label2>Violet</label2>
						</labels>
					</clipitem>
					<clipitem id="clipitem-679">
						<masterclipid>masterclip-676</masterclipid>
						<name>TKO_013_KID_Sh06960.mov</name>
						<enabled>TRUE</enabled>
						<duration>61</duration>
						<rate>
							<timebase>24</timebase>
							<ntsc>TRUE</ntsc>
						</rate>
						<start>56172</start>
						<end>56225</end>
						<in>4</in>
						<out>57</out>
						<pproTicksIn>42378336000</pproTicksIn>
						<pproTicksOut>603891288000</pproTicksOut>
						<alphatype>none</alphatype>
						<pixelaspectratio>square</pixelaspectratio>
						<anamorphic>FALSE</anamorphic>
						<file id="file-676">
							<name>TKO_013_KID_Sh06960.mov</name>
							<pathurl>file://tri-stor01/Projects/TKO/SHOTS/_Refs_Movs_Burnin_FrameCounter/TKO_013_KID_Sh06960.mov</pathurl>
							<rate>
								<timebase>24</timebase>
								<ntsc>TRUE</ntsc>
							</rate>
							<duration>61</duration>
							<timecode>
								<rate>
									<timebase>24</timebase>
									<ntsc>TRUE</ntsc>
								</rate>
								<string>13:06:37:05</string>
								<frame>1132733</frame>
								<displayformat>NDF</displayformat>
								<reel>
									<name>B0390026</name>
								</reel>
							</timecode>
							<media>
								<video>
									<samplecharacteristics>
										<rate>
											<timebase>24</timebase>
											<ntsc>TRUE</ntsc>
										</rate>
										<width>4096</width>
										<height>2160</height>
										<anamorphic>FALSE</anamorphic>
										<pixelaspectratio>square</pixelaspectratio>
										<fielddominance>none</fielddominance>
									</samplecharacteristics>
								</video>
							</media>
						</file>
						<logginginfo>
							<description></description>
							<scene></scene>
							<shottake></shottake>
							<lognote></lognote>
							<good></good>
							<originalvideofilename></originalvideofilename>
							<originalaudiofilename></originalaudiofilename>
						</logginginfo>
						<colorinfo>
							<lut></lut>
							<lut1></lut1>
							<asc_sop></asc_sop>
							<asc_sat></asc_sat>
							<lut2></lut2>
						</colorinfo>
						<labels>
							<label2>Violet</label2>
						</labels>
					</clipitem>
					<clipitem id="clipitem-680">
						<masterclipid>masterclip-677</masterclipid>
						<name>TKO_013_KID_Sh06980.mov</name>
						<enabled>TRUE</enabled>
						<duration>106</duration>
						<rate>
							<timebase>24</timebase>
							<ntsc>TRUE</ntsc>
						</rate>
						<start>56225</start>
						<end>56323</end>
						<in>4</in>
						<out>102</out>
						<pproTicksIn>42378336000</pproTicksIn>
						<pproTicksOut>1080647568000</pproTicksOut>
						<alphatype>none</alphatype>
						<pixelaspectratio>square</pixelaspectratio>
						<anamorphic>FALSE</anamorphic>
						<file id="file-677">
							<name>TKO_013_KID_Sh06980.mov</name>
							<pathurl>file://tri-stor01/Projects/TKO/SHOTS/_Refs_Movs_Burnin_FrameCounter/TKO_013_KID_Sh06980.mov</pathurl>
							<rate>
								<timebase>24</timebase>
								<ntsc>TRUE</ntsc>
							</rate>
							<duration>106</duration>
							<timecode>
								<rate>
									<timebase>24</timebase>
									<ntsc>TRUE</ntsc>
								</rate>
								<string>19:37:53:10</string>
								<frame>1696162</frame>
								<displayformat>NDF</displayformat>
								<reel>
									<name>A0260008</name>
								</reel>
							</timecode>
							<media>
								<video>
									<samplecharacteristics>
										<rate>
											<timebase>24</timebase>
											<ntsc>TRUE</ntsc>
										</rate>
										<width>4096</width>
										<height>2160</height>
										<anamorphic>FALSE</anamorphic>
										<pixelaspectratio>square</pixelaspectratio>
										<fielddominance>none</fielddominance>
									</samplecharacteristics>
								</video>
							</media>
						</file>
						<logginginfo>
							<description></description>
							<scene></scene>
							<shottake></shottake>
							<lognote></lognote>
							<good></good>
							<originalvideofilename></originalvideofilename>
							<originalaudiofilename></originalaudiofilename>
						</logginginfo>
						<colorinfo>
							<lut></lut>
							<lut1></lut1>
							<asc_sop></asc_sop>
							<asc_sat></asc_sat>
							<lut2></lut2>
						</colorinfo>
						<labels>
							<label2>Violet</label2>
						</labels>
					</clipitem>
					<clipitem id="clipitem-681">
						<masterclipid>masterclip-678</masterclipid>
						<name>TKO_013_KID_Sh06990.mov</name>
						<enabled>TRUE</enabled>
						<duration>39</duration>
						<rate>
							<timebase>24</timebase>
							<ntsc>TRUE</ntsc>
						</rate>
						<start>56323</start>
						<end>56354</end>
						<in>4</in>
						<out>35</out>
						<pproTicksIn>42378336000</pproTicksIn>
						<pproTicksOut>370810440000</pproTicksOut>
						<alphatype>none</alphatype>
						<pixelaspectratio>square</pixelaspectratio>
						<anamorphic>FALSE</anamorphic>
						<file id="file-678">
							<name>TKO_013_KID_Sh06990.mov</name>
							<pathurl>file://tri-stor01/Projects/TKO/SHOTS/_Refs_Movs_Burnin_FrameCounter/TKO_013_KID_Sh06990.mov</pathurl>
							<rate>
								<timebase>24</timebase>
								<ntsc>TRUE</ntsc>
							</rate>
							<duration>39</duration>
							<timecode>
								<rate>
									<timebase>24</timebase>
									<ntsc>TRUE</ntsc>
								</rate>
								<string>19:37:57:12</string>
								<frame>1696260</frame>
								<displayformat>NDF</displayformat>
								<reel>
									<name>B0220009</name>
								</reel>
							</timecode>
							<media>
								<video>
									<samplecharacteristics>
										<rate>
											<timebase>24</timebase>
											<ntsc>TRUE</ntsc>
										</rate>
										<width>4096</width>
										<height>2160</height>
										<anamorphic>FALSE</anamorphic>
										<pixelaspectratio>square</pixelaspectratio>
										<fielddominance>none</fielddominance>
									</samplecharacteristics>
								</video>
							</media>
						</file>
						<logginginfo>
							<description></description>
							<scene></scene>
							<shottake></shottake>
							<lognote></lognote>
							<good></good>
							<originalvideofilename></originalvideofilename>
							<originalaudiofilename></originalaudiofilename>
						</logginginfo>
						<colorinfo>
							<lut></lut>
							<lut1></lut1>
							<asc_sop></asc_sop>
							<asc_sat></asc_sat>
							<lut2></lut2>
						</colorinfo>
						<labels>
							<label2>Violet</label2>
						</labels>
					</clipitem>
					<clipitem id="clipitem-682">
						<masterclipid>masterclip-679</masterclipid>
						<name>TKO_013_KID_Sh07000.mov</name>
						<enabled>TRUE</enabled>
						<duration>105</duration>
						<rate>
							<timebase>24</timebase>
							<ntsc>TRUE</ntsc>
						</rate>
						<start>56354</start>
						<end>56451</end>
						<in>4</in>
						<out>101</out>
						<pproTicksIn>42378336000</pproTicksIn>
						<pproTicksOut>1070052984000</pproTicksOut>
						<alphatype>none</alphatype>
						<pixelaspectratio>square</pixelaspectratio>
						<anamorphic>FALSE</anamorphic>
						<file id="file-679">
							<name>TKO_013_KID_Sh07000.mov</name>
							<pathurl>file://tri-stor01/Projects/TKO/SHOTS/_Refs_Movs_Burnin_FrameCounter/TKO_013_KID_Sh07000.mov</pathurl>
							<rate>
								<timebase>24</timebase>
								<ntsc>TRUE</ntsc>
							</rate>
							<duration>105</duration>
							<timecode>
								<rate>
									<timebase>24</timebase>
									<ntsc>TRUE</ntsc>
								</rate>
								<string>19:38:02:08</string>
								<frame>1696376</frame>
								<displayformat>NDF</displayformat>
								<reel>
									<name>A0260008</name>
								</reel>
							</timecode>
							<media>
								<video>
									<samplecharacteristics>
										<rate>
											<timebase>24</timebase>
											<ntsc>TRUE</ntsc>
										</rate>
										<width>4096</width>
										<height>2160</height>
										<anamorphic>FALSE</anamorphic>
										<pixelaspectratio>square</pixelaspectratio>
										<fielddominance>none</fielddominance>
									</samplecharacteristics>
								</video>
							</media>
						</file>
						<logginginfo>
							<description></description>
							<scene></scene>
							<shottake></shottake>
							<lognote></lognote>
							<good></good>
							<originalvideofilename></originalvideofilename>
							<originalaudiofilename></originalaudiofilename>
						</logginginfo>
						<colorinfo>
							<lut></lut>
							<lut1></lut1>
							<asc_sop></asc_sop>
							<asc_sat></asc_sat>
							<lut2></lut2>
						</colorinfo>
						<labels>
							<label2>Violet</label2>
						</labels>
					</clipitem>
					<clipitem id="clipitem-683">
						<masterclipid>masterclip-680</masterclipid>
						<name>TKO_013_KID_Sh07010.mov</name>
						<enabled>TRUE</enabled>
						<duration>106</duration>
						<rate>
							<timebase>24</timebase>
							<ntsc>TRUE</ntsc>
						</rate>
						<start>56451</start>
						<end>56549</end>
						<in>4</in>
						<out>102</out>
						<pproTicksIn>42378336000</pproTicksIn>
						<pproTicksOut>1080647568000</pproTicksOut>
						<alphatype>none</alphatype>
						<pixelaspectratio>square</pixelaspectratio>
						<anamorphic>FALSE</anamorphic>
						<file id="file-680">
							<name>TKO_013_KID_Sh07010.mov</name>
							<pathurl>file://tri-stor01/Projects/TKO/SHOTS/_Refs_Movs_Burnin_FrameCounter/TKO_013_KID_Sh07010.mov</pathurl>
							<rate>
								<timebase>24</timebase>
								<ntsc>TRUE</ntsc>
							</rate>
							<duration>106</duration>
							<timecode>
								<rate>
									<timebase>24</timebase>
									<ntsc>TRUE</ntsc>
								</rate>
								<string>02:05:36:21</string>
								<frame>180885</frame>
								<displayformat>NDF</displayformat>
								<reel>
									<name>C0030011</name>
								</reel>
							</timecode>
							<media>
								<video>
									<samplecharacteristics>
										<rate>
											<timebase>24</timebase>
											<ntsc>TRUE</ntsc>
										</rate>
										<width>3840</width>
										<height>2160</height>
										<anamorphic>FALSE</anamorphic>
										<pixelaspectratio>square</pixelaspectratio>
										<fielddominance>none</fielddominance>
									</samplecharacteristics>
								</video>
							</media>
						</file>
						<logginginfo>
							<description></description>
							<scene></scene>
							<shottake></shottake>
							<lognote></lognote>
							<good></good>
							<originalvideofilename></originalvideofilename>
							<originalaudiofilename></originalaudiofilename>
						</logginginfo>
						<colorinfo>
							<lut></lut>
							<lut1></lut1>
							<asc_sop></asc_sop>
							<asc_sat></asc_sat>
							<lut2></lut2>
						</colorinfo>
						<labels>
							<label2>Violet</label2>
						</labels>
					</clipitem>
					<clipitem id="clipitem-684">
						<masterclipid>masterclip-681</masterclipid>
						<name>TKO_013_KID_Sh07020.mov</name>
						<enabled>TRUE</enabled>
						<duration>43</duration>
						<rate>
							<timebase>24</timebase>
							<ntsc>TRUE</ntsc>
						</rate>
						<start>56549</start>
						<end>56584</end>
						<in>4</in>
						<out>39</out>
						<pproTicksIn>42378336000</pproTicksIn>
						<pproTicksOut>413188776000</pproTicksOut>
						<alphatype>none</alphatype>
						<pixelaspectratio>square</pixelaspectratio>
						<anamorphic>FALSE</anamorphic>
						<file id="file-681">
							<name>TKO_013_KID_Sh07020.mov</name>
							<pathurl>file://tri-stor01/Projects/TKO/SHOTS/_Refs_Movs_Burnin_FrameCounter/TKO_013_KID_Sh07020.mov</pathurl>
							<rate>
								<timebase>24</timebase>
								<ntsc>TRUE</ntsc>
							</rate>
							<duration>43</duration>
							<timecode>
								<rate>
									<timebase>24</timebase>
									<ntsc>TRUE</ntsc>
								</rate>
								<string>11:30:49:17</string>
								<frame>994793</frame>
								<displayformat>NDF</displayformat>
								<reel>
									<name>B0050011</name>
								</reel>
							</timecode>
							<media>
								<video>
									<samplecharacteristics>
										<rate>
											<timebase>24</timebase>
											<ntsc>TRUE</ntsc>
										</rate>
										<width>4096</width>
										<height>2160</height>
										<anamorphic>FALSE</anamorphic>
										<pixelaspectratio>square</pixelaspectratio>
										<fielddominance>none</fielddominance>
									</samplecharacteristics>
								</video>
							</media>
						</file>
						<logginginfo>
							<description></description>
							<scene></scene>
							<shottake></shottake>
							<lognote></lognote>
							<good></good>
							<originalvideofilename></originalvideofilename>
							<originalaudiofilename></originalaudiofilename>
						</logginginfo>
						<colorinfo>
							<lut></lut>
							<lut1></lut1>
							<asc_sop></asc_sop>
							<asc_sat></asc_sat>
							<lut2></lut2>
						</colorinfo>
						<labels>
							<label2>Violet</label2>
						</labels>
					</clipitem>
					<clipitem id="clipitem-685">
						<masterclipid>masterclip-682</masterclipid>
						<name>TKO_013_KID_Sh07030.mov</name>
						<enabled>TRUE</enabled>
						<duration>53</duration>
						<rate>
							<timebase>24</timebase>
							<ntsc>TRUE</ntsc>
						</rate>
						<start>56584</start>
						<end>56629</end>
						<in>4</in>
						<out>49</out>
						<pproTicksIn>42378336000</pproTicksIn>
						<pproTicksOut>519134616000</pproTicksOut>
						<alphatype>none</alphatype>
						<pixelaspectratio>square</pixelaspectratio>
						<anamorphic>FALSE</anamorphic>
						<file id="file-682">
							<name>TKO_013_KID_Sh07030.mov</name>
							<pathurl>file://tri-stor01/Projects/TKO/SHOTS/_Refs_Movs_Burnin_FrameCounter/TKO_013_KID_Sh07030.mov</pathurl>
							<rate>
								<timebase>24</timebase>
								<ntsc>TRUE</ntsc>
							</rate>
							<duration>53</duration>
							<timecode>
								<rate>
									<timebase>24</timebase>
									<ntsc>TRUE</ntsc>
								</rate>
								<string>02:05:45:18</string>
								<frame>181098</frame>
								<displayformat>NDF</displayformat>
								<reel>
									<name>C0030011</name>
								</reel>
							</timecode>
							<media>
								<video>
									<samplecharacteristics>
										<rate>
											<timebase>24</timebase>
											<ntsc>TRUE</ntsc>
										</rate>
										<width>3840</width>
										<height>2160</height>
										<anamorphic>FALSE</anamorphic>
										<pixelaspectratio>square</pixelaspectratio>
										<fielddominance>none</fielddominance>
									</samplecharacteristics>
								</video>
							</media>
						</file>
						<logginginfo>
							<description></description>
							<scene></scene>
							<shottake></shottake>
							<lognote></lognote>
							<good></good>
							<originalvideofilename></originalvideofilename>
							<originalaudiofilename></originalaudiofilename>
						</logginginfo>
						<colorinfo>
							<lut></lut>
							<lut1></lut1>
							<asc_sop></asc_sop>
							<asc_sat></asc_sat>
							<lut2></lut2>
						</colorinfo>
						<labels>
							<label2>Violet</label2>
						</labels>
					</clipitem>
					<clipitem id="clipitem-686">
						<masterclipid>masterclip-683</masterclipid>
						<name>TKO_013_KID_Sh07040.mov</name>
						<enabled>TRUE</enabled>
						<duration>44</duration>
						<rate>
							<timebase>24</timebase>
							<ntsc>TRUE</ntsc>
						</rate>
						<start>56629</start>
						<end>56665</end>
						<in>4</in>
						<out>40</out>
						<pproTicksIn>42378336000</pproTicksIn>
						<pproTicksOut>423783360000</pproTicksOut>
						<alphatype>none</alphatype>
						<pixelaspectratio>square</pixelaspectratio>
						<anamorphic>FALSE</anamorphic>
						<file id="file-683">
							<name>TKO_013_KID_Sh07040.mov</name>
							<pathurl>file://tri-stor01/Projects/TKO/SHOTS/_Refs_Movs_Burnin_FrameCounter/TKO_013_KID_Sh07040.mov</pathurl>
							<rate>
								<timebase>24</timebase>
								<ntsc>TRUE</ntsc>
							</rate>
							<duration>44</duration>
							<timecode>
								<rate>
									<timebase>24</timebase>
									<ntsc>TRUE</ntsc>
								</rate>
								<string>12:28:04:07</string>
								<frame>1077223</frame>
								<displayformat>NDF</displayformat>
								<reel>
									<name>C0290003</name>
								</reel>
							</timecode>
							<media>
								<video>
									<samplecharacteristics>
										<rate>
											<timebase>24</timebase>
											<ntsc>TRUE</ntsc>
										</rate>
										<width>3840</width>
										<height>2160</height>
										<anamorphic>FALSE</anamorphic>
										<pixelaspectratio>square</pixelaspectratio>
										<fielddominance>none</fielddominance>
									</samplecharacteristics>
								</video>
							</media>
						</file>
						<logginginfo>
							<description></description>
							<scene></scene>
							<shottake></shottake>
							<lognote></lognote>
							<good></good>
							<originalvideofilename></originalvideofilename>
							<originalaudiofilename></originalaudiofilename>
						</logginginfo>
						<colorinfo>
							<lut></lut>
							<lut1></lut1>
							<asc_sop></asc_sop>
							<asc_sat></asc_sat>
							<lut2></lut2>
						</colorinfo>
						<labels>
							<label2>Violet</label2>
						</labels>
					</clipitem>
					<clipitem id="clipitem-687">
						<masterclipid>masterclip-684</masterclipid>
						<name>TKO_013_KID_Sh07050.mov</name>
						<enabled>TRUE</enabled>
						<duration>58</duration>
						<rate>
							<timebase>24</timebase>
							<ntsc>TRUE</ntsc>
						</rate>
						<start>56665</start>
						<end>56715</end>
						<in>4</in>
						<out>54</out>
						<pproTicksIn>42378336000</pproTicksIn>
						<pproTicksOut>572107536000</pproTicksOut>
						<alphatype>none</alphatype>
						<pixelaspectratio>square</pixelaspectratio>
						<anamorphic>FALSE</anamorphic>
						<file id="file-684">
							<name>TKO_013_KID_Sh07050.mov</name>
							<pathurl>file://tri-stor01/Projects/TKO/SHOTS/_Refs_Movs_Burnin_FrameCounter/TKO_013_KID_Sh07050.mov</pathurl>
							<rate>
								<timebase>24</timebase>
								<ntsc>TRUE</ntsc>
							</rate>
							<duration>58</duration>
							<timecode>
								<rate>
									<timebase>24</timebase>
									<ntsc>TRUE</ntsc>
								</rate>
								<string>00:31:43:04</string>
								<frame>45676</frame>
								<displayformat>NDF</displayformat>
							</timecode>
							<media>
								<video>
									<samplecharacteristics>
										<rate>
											<timebase>24</timebase>
											<ntsc>TRUE</ntsc>
										</rate>
										<width>1280</width>
										<height>720</height>
										<anamorphic>FALSE</anamorphic>
										<pixelaspectratio>square</pixelaspectratio>
										<fielddominance>none</fielddominance>
									</samplecharacteristics>
								</video>
							</media>
						</file>
						<logginginfo>
							<description></description>
							<scene></scene>
							<shottake></shottake>
							<lognote></lognote>
							<good></good>
							<originalvideofilename></originalvideofilename>
							<originalaudiofilename></originalaudiofilename>
						</logginginfo>
						<colorinfo>
							<lut></lut>
							<lut1></lut1>
							<asc_sop></asc_sop>
							<asc_sat></asc_sat>
							<lut2></lut2>
						</colorinfo>
						<labels>
							<label2>Violet</label2>
						</labels>
					</clipitem>
					<clipitem id="clipitem-688">
						<masterclipid>masterclip-685</masterclipid>
						<name>TKO_013_KID_Sh07080.mov</name>
						<enabled>TRUE</enabled>
						<duration>145</duration>
						<rate>
							<timebase>24</timebase>
							<ntsc>TRUE</ntsc>
						</rate>
						<start>56715</start>
						<end>56852</end>
						<in>4</in>
						<out>141</out>
						<pproTicksIn>42378336000</pproTicksIn>
						<pproTicksOut>1493836344000</pproTicksOut>
						<alphatype>none</alphatype>
						<pixelaspectratio>square</pixelaspectratio>
						<anamorphic>FALSE</anamorphic>
						<file id="file-685">
							<name>TKO_013_KID_Sh07080.mov</name>
							<pathurl>file://tri-stor01/Projects/TKO/SHOTS/_Refs_Movs_Burnin_FrameCounter/TKO_013_KID_Sh07080.mov</pathurl>
							<rate>
								<timebase>24</timebase>
								<ntsc>TRUE</ntsc>
							</rate>
							<duration>145</duration>
							<timecode>
								<rate>
									<timebase>24</timebase>
									<ntsc>TRUE</ntsc>
								</rate>
								<string>11:31:01:15</string>
								<frame>995079</frame>
								<displayformat>NDF</displayformat>
								<reel>
									<name>B0050011</name>
								</reel>
							</timecode>
							<media>
								<video>
									<samplecharacteristics>
										<rate>
											<timebase>24</timebase>
											<ntsc>TRUE</ntsc>
										</rate>
										<width>4096</width>
										<height>2160</height>
										<anamorphic>FALSE</anamorphic>
										<pixelaspectratio>square</pixelaspectratio>
										<fielddominance>none</fielddominance>
									</samplecharacteristics>
								</video>
							</media>
						</file>
						<logginginfo>
							<description></description>
							<scene></scene>
							<shottake></shottake>
							<lognote></lognote>
							<good></good>
							<originalvideofilename></originalvideofilename>
							<originalaudiofilename></originalaudiofilename>
						</logginginfo>
						<colorinfo>
							<lut></lut>
							<lut1></lut1>
							<asc_sop></asc_sop>
							<asc_sat></asc_sat>
							<lut2></lut2>
						</colorinfo>
						<labels>
							<label2>Violet</label2>
						</labels>
					</clipitem>
					<clipitem id="clipitem-689">
						<masterclipid>masterclip-686</masterclipid>
						<name>TKO_013_KID_Sh07090.mov</name>
						<enabled>TRUE</enabled>
						<duration>117</duration>
						<rate>
							<timebase>24</timebase>
							<ntsc>TRUE</ntsc>
						</rate>
						<start>56852</start>
						<end>56961</end>
						<in>4</in>
						<out>113</out>
						<pproTicksIn>42378336000</pproTicksIn>
						<pproTicksOut>1197187992000</pproTicksOut>
						<alphatype>none</alphatype>
						<pixelaspectratio>square</pixelaspectratio>
						<anamorphic>FALSE</anamorphic>
						<file id="file-686">
							<name>TKO_013_KID_Sh07090.mov</name>
							<pathurl>file://tri-stor01/Projects/TKO/SHOTS/_Refs_Movs_Burnin_FrameCounter/TKO_013_KID_Sh07090.mov</pathurl>
							<rate>
								<timebase>24</timebase>
								<ntsc>TRUE</ntsc>
							</rate>
							<duration>117</duration>
							<timecode>
								<rate>
									<timebase>24</timebase>
									<ntsc>TRUE</ntsc>
								</rate>
								<string>11:31:07:09</string>
								<frame>995217</frame>
								<displayformat>NDF</displayformat>
								<reel>
									<name>A0080010</name>
								</reel>
							</timecode>
							<media>
								<video>
									<samplecharacteristics>
										<rate>
											<timebase>24</timebase>
											<ntsc>TRUE</ntsc>
										</rate>
										<width>4096</width>
										<height>2160</height>
										<anamorphic>FALSE</anamorphic>
										<pixelaspectratio>square</pixelaspectratio>
										<fielddominance>none</fielddominance>
									</samplecharacteristics>
								</video>
							</media>
						</file>
						<logginginfo>
							<description></description>
							<scene></scene>
							<shottake></shottake>
							<lognote></lognote>
							<good></good>
							<originalvideofilename></originalvideofilename>
							<originalaudiofilename></originalaudiofilename>
						</logginginfo>
						<colorinfo>
							<lut></lut>
							<lut1></lut1>
							<asc_sop></asc_sop>
							<asc_sat></asc_sat>
							<lut2></lut2>
						</colorinfo>
						<labels>
							<label2>Violet</label2>
						</labels>
					</clipitem>
					<clipitem id="clipitem-690">
						<masterclipid>masterclip-687</masterclipid>
						<name>TKO_013_KID_Sh07100.mov</name>
						<enabled>TRUE</enabled>
						<duration>170</duration>
						<rate>
							<timebase>24</timebase>
							<ntsc>TRUE</ntsc>
						</rate>
						<start>56961</start>
						<end>57123</end>
						<in>4</in>
						<out>166</out>
						<pproTicksIn>42378336000</pproTicksIn>
						<pproTicksOut>1758700944000</pproTicksOut>
						<alphatype>none</alphatype>
						<pixelaspectratio>square</pixelaspectratio>
						<anamorphic>FALSE</anamorphic>
						<file id="file-687">
							<name>TKO_013_KID_Sh07100.mov</name>
							<pathurl>file://tri-stor01/Projects/TKO/SHOTS/_Refs_Movs_Burnin_FrameCounter/TKO_013_KID_Sh07100.mov</pathurl>
							<rate>
								<timebase>24</timebase>
								<ntsc>TRUE</ntsc>
							</rate>
							<duration>170</duration>
							<timecode>
								<rate>
									<timebase>24</timebase>
									<ntsc>TRUE</ntsc>
								</rate>
								<string>00:00:00:00</string>
								<frame>0</frame>
								<displayformat>NDF</displayformat>
							</timecode>
							<media>
								<video>
									<samplecharacteristics>
										<rate>
											<timebase>24</timebase>
											<ntsc>TRUE</ntsc>
										</rate>
										<width>4096</width>
										<height>2160</height>
										<anamorphic>FALSE</anamorphic>
										<pixelaspectratio>square</pixelaspectratio>
										<fielddominance>none</fielddominance>
									</samplecharacteristics>
								</video>
							</media>
						</file>
						<logginginfo>
							<description></description>
							<scene></scene>
							<shottake></shottake>
							<lognote></lognote>
							<good></good>
							<originalvideofilename></originalvideofilename>
							<originalaudiofilename></originalaudiofilename>
						</logginginfo>
						<colorinfo>
							<lut></lut>
							<lut1></lut1>
							<asc_sop></asc_sop>
							<asc_sat></asc_sat>
							<lut2></lut2>
						</colorinfo>
						<labels>
							<label2>Violet</label2>
						</labels>
					</clipitem>
					<clipitem id="clipitem-691">
						<masterclipid>masterclip-688</masterclipid>
						<name>TKO_013_KID_Sh07110.mov</name>
						<enabled>TRUE</enabled>
						<duration>215</duration>
						<rate>
							<timebase>24</timebase>
							<ntsc>TRUE</ntsc>
						</rate>
						<start>57123</start>
						<end>57330</end>
						<in>4</in>
						<out>211</out>
						<pproTicksIn>42378336000</pproTicksIn>
						<pproTicksOut>2235457224000</pproTicksOut>
						<alphatype>none</alphatype>
						<pixelaspectratio>square</pixelaspectratio>
						<anamorphic>FALSE</anamorphic>
						<file id="file-688">
							<name>TKO_013_KID_Sh07110.mov</name>
							<pathurl>file://tri-stor01/Projects/TKO/SHOTS/_Refs_Movs_Burnin_FrameCounter/TKO_013_KID_Sh07110.mov</pathurl>
							<rate>
								<timebase>24</timebase>
								<ntsc>TRUE</ntsc>
							</rate>
							<duration>215</duration>
							<timecode>
								<rate>
									<timebase>24</timebase>
									<ntsc>TRUE</ntsc>
								</rate>
								<string>12:32:07:09</string>
								<frame>1083057</frame>
								<displayformat>NDF</displayformat>
								<reel>
									<name>A0080014</name>
								</reel>
							</timecode>
							<media>
								<video>
									<samplecharacteristics>
										<rate>
											<timebase>24</timebase>
											<ntsc>TRUE</ntsc>
										</rate>
										<width>4096</width>
										<height>2160</height>
										<anamorphic>FALSE</anamorphic>
										<pixelaspectratio>square</pixelaspectratio>
										<fielddominance>none</fielddominance>
									</samplecharacteristics>
								</video>
							</media>
						</file>
						<logginginfo>
							<description></description>
							<scene></scene>
							<shottake></shottake>
							<lognote></lognote>
							<good></good>
							<originalvideofilename></originalvideofilename>
							<originalaudiofilename></originalaudiofilename>
						</logginginfo>
						<colorinfo>
							<lut></lut>
							<lut1></lut1>
							<asc_sop></asc_sop>
							<asc_sat></asc_sat>
							<lut2></lut2>
						</colorinfo>
						<labels>
							<label2>Violet</label2>
						</labels>
					</clipitem>
					<clipitem id="clipitem-692">
						<masterclipid>masterclip-689</masterclipid>
						<name>TKO_013_KID_Sh07120.mov</name>
						<enabled>TRUE</enabled>
						<duration>52</duration>
						<rate>
							<timebase>24</timebase>
							<ntsc>TRUE</ntsc>
						</rate>
						<start>57330</start>
						<end>57374</end>
						<in>4</in>
						<out>48</out>
						<pproTicksIn>42378336000</pproTicksIn>
						<pproTicksOut>508540032000</pproTicksOut>
						<alphatype>none</alphatype>
						<pixelaspectratio>square</pixelaspectratio>
						<anamorphic>FALSE</anamorphic>
						<file id="file-689">
							<name>TKO_013_KID_Sh07120.mov</name>
							<pathurl>file://tri-stor01/Projects/TKO/SHOTS/_Refs_Movs_Burnin_FrameCounter/TKO_013_KID_Sh07120.mov</pathurl>
							<rate>
								<timebase>24</timebase>
								<ntsc>TRUE</ntsc>
							</rate>
							<duration>52</duration>
							<timecode>
								<rate>
									<timebase>24</timebase>
									<ntsc>TRUE</ntsc>
								</rate>
								<string>13:17:24:20</string>
								<frame>1148276</frame>
								<displayformat>NDF</displayformat>
								<reel>
									<name>A0080016</name>
								</reel>
							</timecode>
							<media>
								<video>
									<samplecharacteristics>
										<rate>
											<timebase>24</timebase>
											<ntsc>TRUE</ntsc>
										</rate>
										<width>4096</width>
										<height>2160</height>
										<anamorphic>FALSE</anamorphic>
										<pixelaspectratio>square</pixelaspectratio>
										<fielddominance>none</fielddominance>
									</samplecharacteristics>
								</video>
							</media>
						</file>
						<logginginfo>
							<description></description>
							<scene></scene>
							<shottake></shottake>
							<lognote></lognote>
							<good></good>
							<originalvideofilename></originalvideofilename>
							<originalaudiofilename></originalaudiofilename>
						</logginginfo>
						<colorinfo>
							<lut></lut>
							<lut1></lut1>
							<asc_sop></asc_sop>
							<asc_sat></asc_sat>
							<lut2></lut2>
						</colorinfo>
						<labels>
							<label2>Violet</label2>
						</labels>
					</clipitem>
					<clipitem id="clipitem-693">
						<masterclipid>masterclip-690</masterclipid>
						<name>TKO_013_KID_Sh07130.mov</name>
						<enabled>TRUE</enabled>
						<duration>46</duration>
						<rate>
							<timebase>24</timebase>
							<ntsc>TRUE</ntsc>
						</rate>
						<start>57374</start>
						<end>57412</end>
						<in>4</in>
						<out>42</out>
						<pproTicksIn>42378336000</pproTicksIn>
						<pproTicksOut>444972528000</pproTicksOut>
						<alphatype>none</alphatype>
						<pixelaspectratio>square</pixelaspectratio>
						<anamorphic>FALSE</anamorphic>
						<file id="file-690">
							<name>TKO_013_KID_Sh07130.mov</name>
							<pathurl>file://tri-stor01/Projects/TKO/SHOTS/_Refs_Movs_Burnin_FrameCounter/TKO_013_KID_Sh07130.mov</pathurl>
							<rate>
								<timebase>24</timebase>
								<ntsc>TRUE</ntsc>
							</rate>
							<duration>46</duration>
							<timecode>
								<rate>
									<timebase>24</timebase>
									<ntsc>TRUE</ntsc>
								</rate>
								<string>13:17:27:02</string>
								<frame>1148330</frame>
								<displayformat>NDF</displayformat>
								<reel>
									<name>B0050016</name>
								</reel>
							</timecode>
							<media>
								<video>
									<samplecharacteristics>
										<rate>
											<timebase>24</timebase>
											<ntsc>TRUE</ntsc>
										</rate>
										<width>4096</width>
										<height>2160</height>
										<anamorphic>FALSE</anamorphic>
										<pixelaspectratio>square</pixelaspectratio>
										<fielddominance>none</fielddominance>
									</samplecharacteristics>
								</video>
							</media>
						</file>
						<logginginfo>
							<description></description>
							<scene></scene>
							<shottake></shottake>
							<lognote></lognote>
							<good></good>
							<originalvideofilename></originalvideofilename>
							<originalaudiofilename></originalaudiofilename>
						</logginginfo>
						<colorinfo>
							<lut></lut>
							<lut1></lut1>
							<asc_sop></asc_sop>
							<asc_sat></asc_sat>
							<lut2></lut2>
						</colorinfo>
						<labels>
							<label2>Violet</label2>
						</labels>
					</clipitem>
					<clipitem id="clipitem-694">
						<masterclipid>masterclip-691</masterclipid>
						<name>TKO_013_KID_Sh07140.mov</name>
						<enabled>TRUE</enabled>
						<duration>57</duration>
						<rate>
							<timebase>24</timebase>
							<ntsc>TRUE</ntsc>
						</rate>
						<start>57412</start>
						<end>57455</end>
						<in>4</in>
						<out>47</out>
						<pproTicksIn>42378336000</pproTicksIn>
						<pproTicksOut>497945448000</pproTicksOut>
						<alphatype>none</alphatype>
						<pixelaspectratio>square</pixelaspectratio>
						<anamorphic>FALSE</anamorphic>
						<file id="file-691">
							<name>TKO_013_KID_Sh07140.mov</name>
							<pathurl>file://tri-stor01/Projects/TKO/SHOTS/_Refs_Movs_Burnin_FrameCounter/TKO_013_KID_Sh07140.mov</pathurl>
							<rate>
								<timebase>24</timebase>
								<ntsc>TRUE</ntsc>
							</rate>
							<duration>57</duration>
							<timecode>
								<rate>
									<timebase>24</timebase>
									<ntsc>TRUE</ntsc>
								</rate>
								<string>02:12:08:23</string>
								<frame>190295</frame>
								<displayformat>NDF</displayformat>
								<reel>
									<name>C0030014</name>
								</reel>
							</timecode>
							<media>
								<video>
									<samplecharacteristics>
										<rate>
											<timebase>24</timebase>
											<ntsc>TRUE</ntsc>
										</rate>
										<width>3840</width>
										<height>2160</height>
										<anamorphic>FALSE</anamorphic>
										<pixelaspectratio>square</pixelaspectratio>
										<fielddominance>none</fielddominance>
									</samplecharacteristics>
								</video>
							</media>
						</file>
						<logginginfo>
							<description></description>
							<scene></scene>
							<shottake></shottake>
							<lognote></lognote>
							<good></good>
							<originalvideofilename></originalvideofilename>
							<originalaudiofilename></originalaudiofilename>
						</logginginfo>
						<colorinfo>
							<lut></lut>
							<lut1></lut1>
							<asc_sop></asc_sop>
							<asc_sat></asc_sat>
							<lut2></lut2>
						</colorinfo>
						<labels>
							<label2>Violet</label2>
						</labels>
					</clipitem>
					<clipitem id="clipitem-695">
						<masterclipid>masterclip-692</masterclipid>
						<name>TKO_013_KID_Sh07180.mov</name>
						<enabled>TRUE</enabled>
						<duration>104</duration>
						<rate>
							<timebase>24</timebase>
							<ntsc>TRUE</ntsc>
						</rate>
						<start>57455</start>
						<end>57551</end>
						<in>4</in>
						<out>100</out>
						<pproTicksIn>42378336000</pproTicksIn>
						<pproTicksOut>1059458400000</pproTicksOut>
						<alphatype>none</alphatype>
						<pixelaspectratio>square</pixelaspectratio>
						<anamorphic>FALSE</anamorphic>
						<file id="file-692">
							<name>TKO_013_KID_Sh07180.mov</name>
							<pathurl>file://tri-stor01/Projects/TKO/SHOTS/_Refs_Movs_Burnin_FrameCounter/TKO_013_KID_Sh07180.mov</pathurl>
							<rate>
								<timebase>24</timebase>
								<ntsc>TRUE</ntsc>
							</rate>
							<duration>104</duration>
							<timecode>
								<rate>
									<timebase>24</timebase>
									<ntsc>TRUE</ntsc>
								</rate>
								<string>00:32:16:14</string>
								<frame>46478</frame>
								<displayformat>NDF</displayformat>
							</timecode>
							<media>
								<video>
									<samplecharacteristics>
										<rate>
											<timebase>24</timebase>
											<ntsc>TRUE</ntsc>
										</rate>
										<width>1280</width>
										<height>720</height>
										<anamorphic>FALSE</anamorphic>
										<pixelaspectratio>square</pixelaspectratio>
										<fielddominance>none</fielddominance>
									</samplecharacteristics>
								</video>
							</media>
						</file>
						<logginginfo>
							<description></description>
							<scene></scene>
							<shottake></shottake>
							<lognote></lognote>
							<good></good>
							<originalvideofilename></originalvideofilename>
							<originalaudiofilename></originalaudiofilename>
						</logginginfo>
						<colorinfo>
							<lut></lut>
							<lut1></lut1>
							<asc_sop></asc_sop>
							<asc_sat></asc_sat>
							<lut2></lut2>
						</colorinfo>
						<labels>
							<label2>Violet</label2>
						</labels>
					</clipitem>
					<clipitem id="clipitem-696">
						<masterclipid>masterclip-693</masterclipid>
						<name>TKO_013_KID_Sh07190.mov</name>
						<enabled>TRUE</enabled>
						<duration>110</duration>
						<rate>
							<timebase>24</timebase>
							<ntsc>TRUE</ntsc>
						</rate>
						<start>57551</start>
						<end>57653</end>
						<in>4</in>
						<out>106</out>
						<pproTicksIn>42378336000</pproTicksIn>
						<pproTicksOut>1123025904000</pproTicksOut>
						<alphatype>none</alphatype>
						<pixelaspectratio>square</pixelaspectratio>
						<anamorphic>FALSE</anamorphic>
						<file id="file-693">
							<name>TKO_013_KID_Sh07190.mov</name>
							<pathurl>file://tri-stor01/Projects/TKO/SHOTS/_Refs_Movs_Burnin_FrameCounter/TKO_013_KID_Sh07190.mov</pathurl>
							<rate>
								<timebase>24</timebase>
								<ntsc>TRUE</ntsc>
							</rate>
							<duration>110</duration>
							<timecode>
								<rate>
									<timebase>24</timebase>
									<ntsc>TRUE</ntsc>
								</rate>
								<string>13:18:06:07</string>
								<frame>1149271</frame>
								<displayformat>NDF</displayformat>
								<reel>
									<name>B0050016</name>
								</reel>
							</timecode>
							<media>
								<video>
									<samplecharacteristics>
										<rate>
											<timebase>24</timebase>
											<ntsc>TRUE</ntsc>
										</rate>
										<width>4096</width>
										<height>2160</height>
										<anamorphic>FALSE</anamorphic>
										<pixelaspectratio>square</pixelaspectratio>
										<fielddominance>none</fielddominance>
									</samplecharacteristics>
								</video>
							</media>
						</file>
						<logginginfo>
							<description></description>
							<scene></scene>
							<shottake></shottake>
							<lognote></lognote>
							<good></good>
							<originalvideofilename></originalvideofilename>
							<originalaudiofilename></originalaudiofilename>
						</logginginfo>
						<colorinfo>
							<lut></lut>
							<lut1></lut1>
							<asc_sop></asc_sop>
							<asc_sat></asc_sat>
							<lut2></lut2>
						</colorinfo>
						<labels>
							<label2>Violet</label2>
						</labels>
					</clipitem>
					<clipitem id="clipitem-697">
						<masterclipid>masterclip-694</masterclipid>
						<name>TKO_013_KID_Sh07200.mov</name>
						<enabled>TRUE</enabled>
						<duration>131</duration>
						<rate>
							<timebase>24</timebase>
							<ntsc>TRUE</ntsc>
						</rate>
						<start>57653</start>
						<end>57776</end>
						<in>4</in>
						<out>127</out>
						<pproTicksIn>42378336000</pproTicksIn>
						<pproTicksOut>1345512168000</pproTicksOut>
						<alphatype>none</alphatype>
						<pixelaspectratio>square</pixelaspectratio>
						<anamorphic>FALSE</anamorphic>
						<file id="file-694">
							<name>TKO_013_KID_Sh07200.mov</name>
							<pathurl>file://tri-stor01/Projects/TKO/SHOTS/_Refs_Movs_Burnin_FrameCounter/TKO_013_KID_Sh07200.mov</pathurl>
							<rate>
								<timebase>24</timebase>
								<ntsc>TRUE</ntsc>
							</rate>
							<duration>131</duration>
							<timecode>
								<rate>
									<timebase>24</timebase>
									<ntsc>TRUE</ntsc>
								</rate>
								<string>02:12:30:14</string>
								<frame>190814</frame>
								<displayformat>NDF</displayformat>
								<reel>
									<name>C0030014</name>
								</reel>
							</timecode>
							<media>
								<video>
									<samplecharacteristics>
										<rate>
											<timebase>24</timebase>
											<ntsc>TRUE</ntsc>
										</rate>
										<width>3840</width>
										<height>2160</height>
										<anamorphic>FALSE</anamorphic>
										<pixelaspectratio>square</pixelaspectratio>
										<fielddominance>none</fielddominance>
									</samplecharacteristics>
								</video>
							</media>
						</file>
						<logginginfo>
							<description></description>
							<scene></scene>
							<shottake></shottake>
							<lognote></lognote>
							<good></good>
							<originalvideofilename></originalvideofilename>
							<originalaudiofilename></originalaudiofilename>
						</logginginfo>
						<colorinfo>
							<lut></lut>
							<lut1></lut1>
							<asc_sop></asc_sop>
							<asc_sat></asc_sat>
							<lut2></lut2>
						</colorinfo>
						<labels>
							<label2>Violet</label2>
						</labels>
					</clipitem>
					<clipitem id="clipitem-698">
						<masterclipid>masterclip-695</masterclipid>
						<name>TKO_013_KID_Sh07210.mov</name>
						<enabled>TRUE</enabled>
						<duration>51</duration>
						<rate>
							<timebase>24</timebase>
							<ntsc>TRUE</ntsc>
						</rate>
						<start>57776</start>
						<end>57819</end>
						<in>4</in>
						<out>47</out>
						<pproTicksIn>42378336000</pproTicksIn>
						<pproTicksOut>497945448000</pproTicksOut>
						<alphatype>none</alphatype>
						<pixelaspectratio>square</pixelaspectratio>
						<anamorphic>FALSE</anamorphic>
						<file id="file-695">
							<name>TKO_013_KID_Sh07210.mov</name>
							<pathurl>file://tri-stor01/Projects/TKO/SHOTS/_Refs_Movs_Burnin_FrameCounter/TKO_013_KID_Sh07210.mov</pathurl>
							<rate>
								<timebase>24</timebase>
								<ntsc>TRUE</ntsc>
							</rate>
							<duration>51</duration>
							<timecode>
								<rate>
									<timebase>24</timebase>
									<ntsc>TRUE</ntsc>
								</rate>
								<string>12:32:45:20</string>
								<frame>1083980</frame>
								<displayformat>NDF</displayformat>
								<reel>
									<name>A0080014</name>
								</reel>
							</timecode>
							<media>
								<video>
									<samplecharacteristics>
										<rate>
											<timebase>24</timebase>
											<ntsc>TRUE</ntsc>
										</rate>
										<width>4096</width>
										<height>2160</height>
										<anamorphic>FALSE</anamorphic>
										<pixelaspectratio>square</pixelaspectratio>
										<fielddominance>none</fielddominance>
									</samplecharacteristics>
								</video>
							</media>
						</file>
						<logginginfo>
							<description></description>
							<scene></scene>
							<shottake></shottake>
							<lognote></lognote>
							<good></good>
							<originalvideofilename></originalvideofilename>
							<originalaudiofilename></originalaudiofilename>
						</logginginfo>
						<colorinfo>
							<lut></lut>
							<lut1></lut1>
							<asc_sop></asc_sop>
							<asc_sat></asc_sat>
							<lut2></lut2>
						</colorinfo>
						<labels>
							<label2>Violet</label2>
						</labels>
					</clipitem>
					<clipitem id="clipitem-699">
						<masterclipid>masterclip-696</masterclipid>
						<name>TKO_013_KID_Sh07220.mov</name>
						<enabled>TRUE</enabled>
						<duration>56</duration>
						<rate>
							<timebase>24</timebase>
							<ntsc>TRUE</ntsc>
						</rate>
						<start>57819</start>
						<end>57867</end>
						<in>4</in>
						<out>52</out>
						<pproTicksIn>42378336000</pproTicksIn>
						<pproTicksOut>550918368000</pproTicksOut>
						<alphatype>none</alphatype>
						<pixelaspectratio>square</pixelaspectratio>
						<anamorphic>FALSE</anamorphic>
						<file id="file-696">
							<name>TKO_013_KID_Sh07220.mov</name>
							<pathurl>file://tri-stor01/Projects/TKO/SHOTS/_Refs_Movs_Burnin_FrameCounter/TKO_013_KID_Sh07220.mov</pathurl>
							<rate>
								<timebase>24</timebase>
								<ntsc>TRUE</ntsc>
							</rate>
							<duration>56</duration>
							<timecode>
								<rate>
									<timebase>24</timebase>
									<ntsc>TRUE</ntsc>
								</rate>
								<string>13:18:18:01</string>
								<frame>1149553</frame>
								<displayformat>NDF</displayformat>
								<reel>
									<name>B0050016</name>
								</reel>
							</timecode>
							<media>
								<video>
									<samplecharacteristics>
										<rate>
											<timebase>24</timebase>
											<ntsc>TRUE</ntsc>
										</rate>
										<width>4096</width>
										<height>2160</height>
										<anamorphic>FALSE</anamorphic>
										<pixelaspectratio>square</pixelaspectratio>
										<fielddominance>none</fielddominance>
									</samplecharacteristics>
								</video>
							</media>
						</file>
						<logginginfo>
							<description></description>
							<scene></scene>
							<shottake></shottake>
							<lognote></lognote>
							<good></good>
							<originalvideofilename></originalvideofilename>
							<originalaudiofilename></originalaudiofilename>
						</logginginfo>
						<colorinfo>
							<lut></lut>
							<lut1></lut1>
							<asc_sop></asc_sop>
							<asc_sat></asc_sat>
							<lut2></lut2>
						</colorinfo>
						<labels>
							<label2>Violet</label2>
						</labels>
					</clipitem>
					<clipitem id="clipitem-700">
						<masterclipid>masterclip-697</masterclipid>
						<name>TKO_013_KID_Sh07230_MERGED.mov</name>
						<enabled>TRUE</enabled>
						<duration>58</duration>
						<rate>
							<timebase>24</timebase>
							<ntsc>TRUE</ntsc>
						</rate>
						<start>57867</start>
						<end>57917</end>
						<in>4</in>
						<out>54</out>
						<pproTicksIn>42378336000</pproTicksIn>
						<pproTicksOut>572107536000</pproTicksOut>
						<alphatype>none</alphatype>
						<pixelaspectratio>square</pixelaspectratio>
						<anamorphic>FALSE</anamorphic>
						<file id="file-697">
							<name>TKO_013_KID_Sh07230_MERGED.mov</name>
							<pathurl>file://tri-stor01/Projects/TKO/SHOTS/_Refs_Movs_Burnin_FrameCounter/TKO_013_KID_Sh07230_MERGED.mov</pathurl>
							<rate>
								<timebase>24</timebase>
								<ntsc>TRUE</ntsc>
							</rate>
							<duration>58</duration>
							<timecode>
								<rate>
									<timebase>24</timebase>
									<ntsc>TRUE</ntsc>
								</rate>
								<string>00:00:00:00</string>
								<frame>0</frame>
								<displayformat>NDF</displayformat>
							</timecode>
							<media>
								<video>
									<samplecharacteristics>
										<rate>
											<timebase>24</timebase>
											<ntsc>TRUE</ntsc>
										</rate>
										<width>1920</width>
										<height>1080</height>
										<anamorphic>FALSE</anamorphic>
										<pixelaspectratio>square</pixelaspectratio>
										<fielddominance>none</fielddominance>
									</samplecharacteristics>
								</video>
								<audio>
									<samplecharacteristics>
										<depth>16</depth>
										<samplerate>48000</samplerate>
									</samplecharacteristics>
									<channelcount>2</channelcount>
								</audio>
							</media>
						</file>
						<logginginfo>
							<description></description>
							<scene></scene>
							<shottake></shottake>
							<lognote></lognote>
							<good></good>
							<originalvideofilename></originalvideofilename>
							<originalaudiofilename></originalaudiofilename>
						</logginginfo>
						<colorinfo>
							<lut></lut>
							<lut1></lut1>
							<asc_sop></asc_sop>
							<asc_sat></asc_sat>
							<lut2></lut2>
						</colorinfo>
						<labels>
							<label2>Iris</label2>
						</labels>
					</clipitem>
					<clipitem id="clipitem-701">
						<masterclipid>masterclip-698</masterclipid>
						<name>TKO_013_KID_Sh07240.mov</name>
						<enabled>TRUE</enabled>
						<duration>48</duration>
						<rate>
							<timebase>24</timebase>
							<ntsc>TRUE</ntsc>
						</rate>
						<start>57917</start>
						<end>57957</end>
						<in>4</in>
						<out>44</out>
						<pproTicksIn>42378336000</pproTicksIn>
						<pproTicksOut>466161696000</pproTicksOut>
						<alphatype>none</alphatype>
						<pixelaspectratio>square</pixelaspectratio>
						<anamorphic>FALSE</anamorphic>
						<file id="file-698">
							<name>TKO_013_KID_Sh07240.mov</name>
							<pathurl>file://tri-stor01/Projects/TKO/SHOTS/_Refs_Movs_Burnin_FrameCounter/TKO_013_KID_Sh07240.mov</pathurl>
							<rate>
								<timebase>24</timebase>
								<ntsc>TRUE</ntsc>
							</rate>
							<duration>48</duration>
							<timecode>
								<rate>
									<timebase>24</timebase>
									<ntsc>TRUE</ntsc>
								</rate>
								<string>13:18:18:00</string>
								<frame>1149552</frame>
								<displayformat>NDF</displayformat>
								<reel>
									<name>A0080016</name>
								</reel>
							</timecode>
							<media>
								<video>
									<samplecharacteristics>
										<rate>
											<timebase>24</timebase>
											<ntsc>TRUE</ntsc>
										</rate>
										<width>4096</width>
										<height>2160</height>
										<anamorphic>FALSE</anamorphic>
										<pixelaspectratio>square</pixelaspectratio>
										<fielddominance>none</fielddominance>
									</samplecharacteristics>
								</video>
							</media>
						</file>
						<logginginfo>
							<description></description>
							<scene></scene>
							<shottake></shottake>
							<lognote></lognote>
							<good></good>
							<originalvideofilename></originalvideofilename>
							<originalaudiofilename></originalaudiofilename>
						</logginginfo>
						<colorinfo>
							<lut></lut>
							<lut1></lut1>
							<asc_sop></asc_sop>
							<asc_sat></asc_sat>
							<lut2></lut2>
						</colorinfo>
						<labels>
							<label2>Violet</label2>
						</labels>
					</clipitem>
					<clipitem id="clipitem-702">
						<masterclipid>masterclip-699</masterclipid>
						<name>TKO_013_KID_Sh07250.mov</name>
						<enabled>TRUE</enabled>
						<duration>62</duration>
						<rate>
							<timebase>24</timebase>
							<ntsc>TRUE</ntsc>
						</rate>
						<start>57957</start>
						<end>58011</end>
						<in>4</in>
						<out>58</out>
						<pproTicksIn>42378336000</pproTicksIn>
						<pproTicksOut>614485872000</pproTicksOut>
						<alphatype>none</alphatype>
						<pixelaspectratio>square</pixelaspectratio>
						<anamorphic>FALSE</anamorphic>
						<file id="file-699">
							<name>TKO_013_KID_Sh07250.mov</name>
							<pathurl>file://tri-stor01/Projects/TKO/SHOTS/_Refs_Movs_Burnin_FrameCounter/TKO_013_KID_Sh07250.mov</pathurl>
							<rate>
								<timebase>24</timebase>
								<ntsc>TRUE</ntsc>
							</rate>
							<duration>62</duration>
							<timecode>
								<rate>
									<timebase>24</timebase>
									<ntsc>TRUE</ntsc>
								</rate>
								<string>13:59:40:09</string>
								<frame>1209129</frame>
								<displayformat>NDF</displayformat>
								<reel>
									<name>B0050018</name>
								</reel>
							</timecode>
							<media>
								<video>
									<samplecharacteristics>
										<rate>
											<timebase>24</timebase>
											<ntsc>TRUE</ntsc>
										</rate>
										<width>4096</width>
										<height>2160</height>
										<anamorphic>FALSE</anamorphic>
										<pixelaspectratio>square</pixelaspectratio>
										<fielddominance>none</fielddominance>
									</samplecharacteristics>
								</video>
							</media>
						</file>
						<logginginfo>
							<description></description>
							<scene></scene>
							<shottake></shottake>
							<lognote></lognote>
							<good></good>
							<originalvideofilename></originalvideofilename>
							<originalaudiofilename></originalaudiofilename>
						</logginginfo>
						<colorinfo>
							<lut></lut>
							<lut1></lut1>
							<asc_sop></asc_sop>
							<asc_sat></asc_sat>
							<lut2></lut2>
						</colorinfo>
						<labels>
							<label2>Violet</label2>
						</labels>
					</clipitem>
					<clipitem id="clipitem-703">
						<masterclipid>masterclip-700</masterclipid>
						<name>TKO_013_KID_Sh07260.mov</name>
						<enabled>TRUE</enabled>
						<duration>112</duration>
						<rate>
							<timebase>24</timebase>
							<ntsc>TRUE</ntsc>
						</rate>
						<start>58011</start>
						<end>58115</end>
						<in>4</in>
						<out>108</out>
						<pproTicksIn>42378336000</pproTicksIn>
						<pproTicksOut>1144215072000</pproTicksOut>
						<alphatype>none</alphatype>
						<pixelaspectratio>square</pixelaspectratio>
						<anamorphic>FALSE</anamorphic>
						<file id="file-700">
							<name>TKO_013_KID_Sh07260.mov</name>
							<pathurl>file://tri-stor01/Projects/TKO/SHOTS/_Refs_Movs_Burnin_FrameCounter/TKO_013_KID_Sh07260.mov</pathurl>
							<rate>
								<timebase>24</timebase>
								<ntsc>TRUE</ntsc>
							</rate>
							<duration>112</duration>
							<timecode>
								<rate>
									<timebase>24</timebase>
									<ntsc>TRUE</ntsc>
								</rate>
								<string>13:18:19:15</string>
								<frame>1149591</frame>
								<displayformat>NDF</displayformat>
								<reel>
									<name>A0080016</name>
								</reel>
							</timecode>
							<media>
								<video>
									<samplecharacteristics>
										<rate>
											<timebase>24</timebase>
											<ntsc>TRUE</ntsc>
										</rate>
										<width>4096</width>
										<height>2160</height>
										<anamorphic>FALSE</anamorphic>
										<pixelaspectratio>square</pixelaspectratio>
										<fielddominance>none</fielddominance>
									</samplecharacteristics>
								</video>
							</media>
						</file>
						<logginginfo>
							<description></description>
							<scene></scene>
							<shottake></shottake>
							<lognote></lognote>
							<good></good>
							<originalvideofilename></originalvideofilename>
							<originalaudiofilename></originalaudiofilename>
						</logginginfo>
						<colorinfo>
							<lut></lut>
							<lut1></lut1>
							<asc_sop></asc_sop>
							<asc_sat></asc_sat>
							<lut2></lut2>
						</colorinfo>
						<labels>
							<label2>Violet</label2>
						</labels>
					</clipitem>
					<clipitem id="clipitem-704">
						<masterclipid>masterclip-701</masterclipid>
						<name>TKO_013_KID_Sh07270.mov</name>
						<enabled>TRUE</enabled>
						<duration>79</duration>
						<rate>
							<timebase>24</timebase>
							<ntsc>TRUE</ntsc>
						</rate>
						<start>58115</start>
						<end>58186</end>
						<in>4</in>
						<out>75</out>
						<pproTicksIn>42378336000</pproTicksIn>
						<pproTicksOut>794593800000</pproTicksOut>
						<alphatype>none</alphatype>
						<pixelaspectratio>square</pixelaspectratio>
						<anamorphic>FALSE</anamorphic>
						<file id="file-701">
							<name>TKO_013_KID_Sh07270.mov</name>
							<pathurl>file://tri-stor01/Projects/TKO/SHOTS/_Refs_Movs_Burnin_FrameCounter/TKO_013_KID_Sh07270.mov</pathurl>
							<rate>
								<timebase>24</timebase>
								<ntsc>TRUE</ntsc>
							</rate>
							<duration>79</duration>
							<timecode>
								<rate>
									<timebase>24</timebase>
									<ntsc>TRUE</ntsc>
								</rate>
								<string>12:32:53:16</string>
								<frame>1084168</frame>
								<displayformat>NDF</displayformat>
								<reel>
									<name>A0080014</name>
								</reel>
							</timecode>
							<media>
								<video>
									<samplecharacteristics>
										<rate>
											<timebase>24</timebase>
											<ntsc>TRUE</ntsc>
										</rate>
										<width>4096</width>
										<height>2160</height>
										<anamorphic>FALSE</anamorphic>
										<pixelaspectratio>square</pixelaspectratio>
										<fielddominance>none</fielddominance>
									</samplecharacteristics>
								</video>
							</media>
						</file>
						<logginginfo>
							<description></description>
							<scene></scene>
							<shottake></shottake>
							<lognote></lognote>
							<good></good>
							<originalvideofilename></originalvideofilename>
							<originalaudiofilename></originalaudiofilename>
						</logginginfo>
						<colorinfo>
							<lut></lut>
							<lut1></lut1>
							<asc_sop></asc_sop>
							<asc_sat></asc_sat>
							<lut2></lut2>
						</colorinfo>
						<labels>
							<label2>Violet</label2>
						</labels>
					</clipitem>
					<clipitem id="clipitem-705">
						<masterclipid>masterclip-702</masterclipid>
						<name>TKO_013_KID_Sh07280.mov</name>
						<enabled>TRUE</enabled>
						<duration>52</duration>
						<rate>
							<timebase>24</timebase>
							<ntsc>TRUE</ntsc>
						</rate>
						<start>58186</start>
						<end>58230</end>
						<in>4</in>
						<out>48</out>
						<pproTicksIn>42378336000</pproTicksIn>
						<pproTicksOut>508540032000</pproTicksOut>
						<alphatype>none</alphatype>
						<pixelaspectratio>square</pixelaspectratio>
						<anamorphic>FALSE</anamorphic>
						<file id="file-702">
							<name>TKO_013_KID_Sh07280.mov</name>
							<pathurl>file://tri-stor01/Projects/TKO/SHOTS/_Refs_Movs_Burnin_FrameCounter/TKO_013_KID_Sh07280.mov</pathurl>
							<rate>
								<timebase>24</timebase>
								<ntsc>TRUE</ntsc>
							</rate>
							<duration>52</duration>
							<timecode>
								<rate>
									<timebase>24</timebase>
									<ntsc>TRUE</ntsc>
								</rate>
								<string>12:32:57:12</string>
								<frame>1084260</frame>
								<displayformat>NDF</displayformat>
								<reel>
									<name>B0050014</name>
								</reel>
							</timecode>
							<media>
								<video>
									<samplecharacteristics>
										<rate>
											<timebase>24</timebase>
											<ntsc>TRUE</ntsc>
										</rate>
										<width>4096</width>
										<height>2160</height>
										<anamorphic>FALSE</anamorphic>
										<pixelaspectratio>square</pixelaspectratio>
										<fielddominance>none</fielddominance>
									</samplecharacteristics>
								</video>
							</media>
						</file>
						<logginginfo>
							<description></description>
							<scene></scene>
							<shottake></shottake>
							<lognote></lognote>
							<good></good>
							<originalvideofilename></originalvideofilename>
							<originalaudiofilename></originalaudiofilename>
						</logginginfo>
						<colorinfo>
							<lut></lut>
							<lut1></lut1>
							<asc_sop></asc_sop>
							<asc_sat></asc_sat>
							<lut2></lut2>
						</colorinfo>
						<labels>
							<label2>Violet</label2>
						</labels>
					</clipitem>
					<clipitem id="clipitem-706">
						<masterclipid>masterclip-703</masterclipid>
						<name>TKO_013_KID_Sh07290.mov</name>
						<enabled>TRUE</enabled>
						<duration>136</duration>
						<rate>
							<timebase>24</timebase>
							<ntsc>TRUE</ntsc>
						</rate>
						<start>58230</start>
						<end>58358</end>
						<in>4</in>
						<out>132</out>
						<pproTicksIn>42378336000</pproTicksIn>
						<pproTicksOut>1398485088000</pproTicksOut>
						<alphatype>none</alphatype>
						<pixelaspectratio>square</pixelaspectratio>
						<anamorphic>FALSE</anamorphic>
						<file id="file-703">
							<name>TKO_013_KID_Sh07290.mov</name>
							<pathurl>file://tri-stor01/Projects/TKO/SHOTS/_Refs_Movs_Burnin_FrameCounter/TKO_013_KID_Sh07290.mov</pathurl>
							<rate>
								<timebase>24</timebase>
								<ntsc>TRUE</ntsc>
							</rate>
							<duration>136</duration>
							<timecode>
								<rate>
									<timebase>24</timebase>
									<ntsc>TRUE</ntsc>
								</rate>
								<string>13:21:19:00</string>
								<frame>1153896</frame>
								<displayformat>NDF</displayformat>
								<reel>
									<name>A0080016</name>
								</reel>
							</timecode>
							<media>
								<video>
									<samplecharacteristics>
										<rate>
											<timebase>24</timebase>
											<ntsc>TRUE</ntsc>
										</rate>
										<width>4096</width>
										<height>2160</height>
										<anamorphic>FALSE</anamorphic>
										<pixelaspectratio>square</pixelaspectratio>
										<fielddominance>none</fielddominance>
									</samplecharacteristics>
								</video>
							</media>
						</file>
						<logginginfo>
							<description></description>
							<scene></scene>
							<shottake></shottake>
							<lognote></lognote>
							<good></good>
							<originalvideofilename></originalvideofilename>
							<originalaudiofilename></originalaudiofilename>
						</logginginfo>
						<colorinfo>
							<lut></lut>
							<lut1></lut1>
							<asc_sop></asc_sop>
							<asc_sat></asc_sat>
							<lut2></lut2>
						</colorinfo>
						<labels>
							<label2>Violet</label2>
						</labels>
					</clipitem>
					<clipitem id="clipitem-707">
						<masterclipid>masterclip-704</masterclipid>
						<name>TKO_013_KID_Sh07300.mov</name>
						<enabled>TRUE</enabled>
						<duration>141</duration>
						<rate>
							<timebase>24</timebase>
							<ntsc>TRUE</ntsc>
						</rate>
						<start>58358</start>
						<end>58491</end>
						<in>4</in>
						<out>137</out>
						<pproTicksIn>42378336000</pproTicksIn>
						<pproTicksOut>1451458008000</pproTicksOut>
						<alphatype>none</alphatype>
						<pixelaspectratio>square</pixelaspectratio>
						<anamorphic>FALSE</anamorphic>
						<file id="file-704">
							<name>TKO_013_KID_Sh07300.mov</name>
							<pathurl>file://tri-stor01/Projects/TKO/SHOTS/_Refs_Movs_Burnin_FrameCounter/TKO_013_KID_Sh07300.mov</pathurl>
							<rate>
								<timebase>24</timebase>
								<ntsc>TRUE</ntsc>
							</rate>
							<duration>141</duration>
							<timecode>
								<rate>
									<timebase>24</timebase>
									<ntsc>TRUE</ntsc>
								</rate>
								<string>13:21:24:18</string>
								<frame>1154034</frame>
								<displayformat>NDF</displayformat>
								<reel>
									<name>B0050016</name>
								</reel>
							</timecode>
							<media>
								<video>
									<samplecharacteristics>
										<rate>
											<timebase>24</timebase>
											<ntsc>TRUE</ntsc>
										</rate>
										<width>4096</width>
										<height>2160</height>
										<anamorphic>FALSE</anamorphic>
										<pixelaspectratio>square</pixelaspectratio>
										<fielddominance>none</fielddominance>
									</samplecharacteristics>
								</video>
							</media>
						</file>
						<logginginfo>
							<description></description>
							<scene></scene>
							<shottake></shottake>
							<lognote></lognote>
							<good></good>
							<originalvideofilename></originalvideofilename>
							<originalaudiofilename></originalaudiofilename>
						</logginginfo>
						<colorinfo>
							<lut></lut>
							<lut1></lut1>
							<asc_sop></asc_sop>
							<asc_sat></asc_sat>
							<lut2></lut2>
						</colorinfo>
						<labels>
							<label2>Violet</label2>
						</labels>
					</clipitem>
					<clipitem id="clipitem-708">
						<masterclipid>masterclip-705</masterclipid>
						<name>TKO_013_KID_Sh07310.mov</name>
						<enabled>TRUE</enabled>
						<duration>73</duration>
						<rate>
							<timebase>24</timebase>
							<ntsc>TRUE</ntsc>
						</rate>
						<start>58491</start>
						<end>58556</end>
						<in>4</in>
						<out>69</out>
						<pproTicksIn>42378336000</pproTicksIn>
						<pproTicksOut>731026296000</pproTicksOut>
						<alphatype>none</alphatype>
						<pixelaspectratio>square</pixelaspectratio>
						<anamorphic>FALSE</anamorphic>
						<file id="file-705">
							<name>TKO_013_KID_Sh07310.mov</name>
							<pathurl>file://tri-stor01/Projects/TKO/SHOTS/_Refs_Movs_Burnin_FrameCounter/TKO_013_KID_Sh07310.mov</pathurl>
							<rate>
								<timebase>24</timebase>
								<ntsc>TRUE</ntsc>
							</rate>
							<duration>73</duration>
							<timecode>
								<rate>
									<timebase>24</timebase>
									<ntsc>TRUE</ntsc>
								</rate>
								<string>12:33:08:18</string>
								<frame>1084530</frame>
								<displayformat>NDF</displayformat>
								<reel>
									<name>A0080014</name>
								</reel>
							</timecode>
							<media>
								<video>
									<samplecharacteristics>
										<rate>
											<timebase>24</timebase>
											<ntsc>TRUE</ntsc>
										</rate>
										<width>4096</width>
										<height>2160</height>
										<anamorphic>FALSE</anamorphic>
										<pixelaspectratio>square</pixelaspectratio>
										<fielddominance>none</fielddominance>
									</samplecharacteristics>
								</video>
							</media>
						</file>
						<logginginfo>
							<description></description>
							<scene></scene>
							<shottake></shottake>
							<lognote></lognote>
							<good></good>
							<originalvideofilename></originalvideofilename>
							<originalaudiofilename></originalaudiofilename>
						</logginginfo>
						<colorinfo>
							<lut></lut>
							<lut1></lut1>
							<asc_sop></asc_sop>
							<asc_sat></asc_sat>
							<lut2></lut2>
						</colorinfo>
						<labels>
							<label2>Violet</label2>
						</labels>
					</clipitem>
					<clipitem id="clipitem-709">
						<masterclipid>masterclip-706</masterclipid>
						<name>TKO_013_KID_Sh07320.mov</name>
						<enabled>TRUE</enabled>
						<duration>137</duration>
						<rate>
							<timebase>24</timebase>
							<ntsc>TRUE</ntsc>
						</rate>
						<start>58556</start>
						<end>58685</end>
						<in>4</in>
						<out>133</out>
						<pproTicksIn>42378336000</pproTicksIn>
						<pproTicksOut>1409079672000</pproTicksOut>
						<alphatype>none</alphatype>
						<pixelaspectratio>square</pixelaspectratio>
						<anamorphic>FALSE</anamorphic>
						<file id="file-706">
							<name>TKO_013_KID_Sh07320.mov</name>
							<pathurl>file://tri-stor01/Projects/TKO/SHOTS/_Refs_Movs_Burnin_FrameCounter/TKO_013_KID_Sh07320.mov</pathurl>
							<rate>
								<timebase>24</timebase>
								<ntsc>TRUE</ntsc>
							</rate>
							<duration>137</duration>
							<timecode>
								<rate>
									<timebase>24</timebase>
									<ntsc>TRUE</ntsc>
								</rate>
								<string>13:21:32:12</string>
								<frame>1154220</frame>
								<displayformat>NDF</displayformat>
								<reel>
									<name>B0050016</name>
								</reel>
							</timecode>
							<media>
								<video>
									<samplecharacteristics>
										<rate>
											<timebase>24</timebase>
											<ntsc>TRUE</ntsc>
										</rate>
										<width>4096</width>
										<height>2160</height>
										<anamorphic>FALSE</anamorphic>
										<pixelaspectratio>square</pixelaspectratio>
										<fielddominance>none</fielddominance>
									</samplecharacteristics>
								</video>
							</media>
						</file>
						<logginginfo>
							<description></description>
							<scene></scene>
							<shottake></shottake>
							<lognote></lognote>
							<good></good>
							<originalvideofilename></originalvideofilename>
							<originalaudiofilename></originalaudiofilename>
						</logginginfo>
						<colorinfo>
							<lut></lut>
							<lut1></lut1>
							<asc_sop></asc_sop>
							<asc_sat></asc_sat>
							<lut2></lut2>
						</colorinfo>
						<labels>
							<label2>Violet</label2>
						</labels>
					</clipitem>
					<clipitem id="clipitem-710">
						<masterclipid>masterclip-707</masterclipid>
						<name>TKO_013_KID_Sh07330.mov</name>
						<enabled>TRUE</enabled>
						<duration>47</duration>
						<rate>
							<timebase>24</timebase>
							<ntsc>TRUE</ntsc>
						</rate>
						<start>58685</start>
						<end>58724</end>
						<in>4</in>
						<out>43</out>
						<pproTicksIn>42378336000</pproTicksIn>
						<pproTicksOut>455567112000</pproTicksOut>
						<alphatype>none</alphatype>
						<pixelaspectratio>square</pixelaspectratio>
						<anamorphic>FALSE</anamorphic>
						<file id="file-707">
							<name>TKO_013_KID_Sh07330.mov</name>
							<pathurl>file://tri-stor01/Projects/TKO/SHOTS/_Refs_Movs_Burnin_FrameCounter/TKO_013_KID_Sh07330.mov</pathurl>
							<rate>
								<timebase>24</timebase>
								<ntsc>TRUE</ntsc>
							</rate>
							<duration>47</duration>
							<timecode>
								<rate>
									<timebase>24</timebase>
									<ntsc>TRUE</ntsc>
								</rate>
								<string>12:33:11:11</string>
								<frame>1084595</frame>
								<displayformat>NDF</displayformat>
								<reel>
									<name>A0080014</name>
								</reel>
							</timecode>
							<media>
								<video>
									<samplecharacteristics>
										<rate>
											<timebase>24</timebase>
											<ntsc>TRUE</ntsc>
										</rate>
										<width>4096</width>
										<height>2160</height>
										<anamorphic>FALSE</anamorphic>
										<pixelaspectratio>square</pixelaspectratio>
										<fielddominance>none</fielddominance>
									</samplecharacteristics>
								</video>
							</media>
						</file>
						<logginginfo>
							<description></description>
							<scene></scene>
							<shottake></shottake>
							<lognote></lognote>
							<good></good>
							<originalvideofilename></originalvideofilename>
							<originalaudiofilename></originalaudiofilename>
						</logginginfo>
						<colorinfo>
							<lut></lut>
							<lut1></lut1>
							<asc_sop></asc_sop>
							<asc_sat></asc_sat>
							<lut2></lut2>
						</colorinfo>
						<labels>
							<label2>Violet</label2>
						</labels>
					</clipitem>
					<clipitem id="clipitem-711">
						<masterclipid>masterclip-708</masterclipid>
						<name>TKO_013_KID_Sh07340.mov</name>
						<enabled>TRUE</enabled>
						<duration>63</duration>
						<rate>
							<timebase>24</timebase>
							<ntsc>TRUE</ntsc>
						</rate>
						<start>58724</start>
						<end>58779</end>
						<in>4</in>
						<out>59</out>
						<pproTicksIn>42378336000</pproTicksIn>
						<pproTicksOut>625080456000</pproTicksOut>
						<alphatype>none</alphatype>
						<pixelaspectratio>square</pixelaspectratio>
						<anamorphic>FALSE</anamorphic>
						<file id="file-708">
							<name>TKO_013_KID_Sh07340.mov</name>
							<pathurl>file://tri-stor01/Projects/TKO/SHOTS/_Refs_Movs_Burnin_FrameCounter/TKO_013_KID_Sh07340.mov</pathurl>
							<rate>
								<timebase>24</timebase>
								<ntsc>TRUE</ntsc>
							</rate>
							<duration>63</duration>
							<timecode>
								<rate>
									<timebase>24</timebase>
									<ntsc>TRUE</ntsc>
								</rate>
								<string>03:35:10:06</string>
								<frame>309846</frame>
								<displayformat>NDF</displayformat>
								<reel>
									<name>C0070002</name>
								</reel>
							</timecode>
							<media>
								<video>
									<samplecharacteristics>
										<rate>
											<timebase>24</timebase>
											<ntsc>TRUE</ntsc>
										</rate>
										<width>3840</width>
										<height>2160</height>
										<anamorphic>FALSE</anamorphic>
										<pixelaspectratio>square</pixelaspectratio>
										<fielddominance>none</fielddominance>
									</samplecharacteristics>
								</video>
							</media>
						</file>
						<logginginfo>
							<description></description>
							<scene></scene>
							<shottake></shottake>
							<lognote></lognote>
							<good></good>
							<originalvideofilename></originalvideofilename>
							<originalaudiofilename></originalaudiofilename>
						</logginginfo>
						<colorinfo>
							<lut></lut>
							<lut1></lut1>
							<asc_sop></asc_sop>
							<asc_sat></asc_sat>
							<lut2></lut2>
						</colorinfo>
						<labels>
							<label2>Violet</label2>
						</labels>
					</clipitem>
					<clipitem id="clipitem-712">
						<masterclipid>masterclip-709</masterclipid>
						<name>TKO_013_KID_Sh07350.mov</name>
						<enabled>TRUE</enabled>
						<duration>40</duration>
						<rate>
							<timebase>24</timebase>
							<ntsc>TRUE</ntsc>
						</rate>
						<start>58779</start>
						<end>58811</end>
						<in>4</in>
						<out>36</out>
						<pproTicksIn>42378336000</pproTicksIn>
						<pproTicksOut>381405024000</pproTicksOut>
						<alphatype>none</alphatype>
						<pixelaspectratio>square</pixelaspectratio>
						<anamorphic>FALSE</anamorphic>
						<file id="file-709">
							<name>TKO_013_KID_Sh07350.mov</name>
							<pathurl>file://tri-stor01/Projects/TKO/SHOTS/_Refs_Movs_Burnin_FrameCounter/TKO_013_KID_Sh07350.mov</pathurl>
							<rate>
								<timebase>24</timebase>
								<ntsc>TRUE</ntsc>
							</rate>
							<duration>40</duration>
							<timecode>
								<rate>
									<timebase>24</timebase>
									<ntsc>TRUE</ntsc>
								</rate>
								<string>12:50:56:00</string>
								<frame>1110144</frame>
								<displayformat>NDF</displayformat>
								<reel>
									<name>A0140004</name>
								</reel>
							</timecode>
							<media>
								<video>
									<samplecharacteristics>
										<rate>
											<timebase>24</timebase>
											<ntsc>TRUE</ntsc>
										</rate>
										<width>4096</width>
										<height>2160</height>
										<anamorphic>FALSE</anamorphic>
										<pixelaspectratio>square</pixelaspectratio>
										<fielddominance>none</fielddominance>
									</samplecharacteristics>
								</video>
							</media>
						</file>
						<logginginfo>
							<description></description>
							<scene></scene>
							<shottake></shottake>
							<lognote></lognote>
							<good></good>
							<originalvideofilename></originalvideofilename>
							<originalaudiofilename></originalaudiofilename>
						</logginginfo>
						<colorinfo>
							<lut></lut>
							<lut1></lut1>
							<asc_sop></asc_sop>
							<asc_sat></asc_sat>
							<lut2></lut2>
						</colorinfo>
						<labels>
							<label2>Violet</label2>
						</labels>
					</clipitem>
					<clipitem id="clipitem-713">
						<masterclipid>masterclip-710</masterclipid>
						<name>TKO_013_KID_Sh07360.mov</name>
						<enabled>TRUE</enabled>
						<duration>86</duration>
						<rate>
							<timebase>24</timebase>
							<ntsc>TRUE</ntsc>
						</rate>
						<start>58811</start>
						<end>58889</end>
						<in>4</in>
						<out>82</out>
						<pproTicksIn>42378336000</pproTicksIn>
						<pproTicksOut>868755888000</pproTicksOut>
						<alphatype>none</alphatype>
						<pixelaspectratio>square</pixelaspectratio>
						<anamorphic>FALSE</anamorphic>
						<file id="file-710">
							<name>TKO_013_KID_Sh07360.mov</name>
							<pathurl>file://tri-stor01/Projects/TKO/SHOTS/_Refs_Movs_Burnin_FrameCounter/TKO_013_KID_Sh07360.mov</pathurl>
							<rate>
								<timebase>24</timebase>
								<ntsc>TRUE</ntsc>
							</rate>
							<duration>86</duration>
							<timecode>
								<rate>
									<timebase>24</timebase>
									<ntsc>TRUE</ntsc>
								</rate>
								<string>12:50:57:08</string>
								<frame>1110176</frame>
								<displayformat>NDF</displayformat>
								<reel>
									<name>B0110003</name>
								</reel>
							</timecode>
							<media>
								<video>
									<samplecharacteristics>
										<rate>
											<timebase>24</timebase>
											<ntsc>TRUE</ntsc>
										</rate>
										<width>4096</width>
										<height>2160</height>
										<anamorphic>FALSE</anamorphic>
										<pixelaspectratio>square</pixelaspectratio>
										<fielddominance>none</fielddominance>
									</samplecharacteristics>
								</video>
							</media>
						</file>
						<logginginfo>
							<description></description>
							<scene></scene>
							<shottake></shottake>
							<lognote></lognote>
							<good></good>
							<originalvideofilename></originalvideofilename>
							<originalaudiofilename></originalaudiofilename>
						</logginginfo>
						<colorinfo>
							<lut></lut>
							<lut1></lut1>
							<asc_sop></asc_sop>
							<asc_sat></asc_sat>
							<lut2></lut2>
						</colorinfo>
						<labels>
							<label2>Violet</label2>
						</labels>
					</clipitem>
					<clipitem id="clipitem-714">
						<masterclipid>masterclip-711</masterclipid>
						<name>TKO_013_KID_Sh07370.mov</name>
						<enabled>TRUE</enabled>
						<duration>127</duration>
						<rate>
							<timebase>24</timebase>
							<ntsc>TRUE</ntsc>
						</rate>
						<start>58889</start>
						<end>59008</end>
						<in>4</in>
						<out>123</out>
						<pproTicksIn>42378336000</pproTicksIn>
						<pproTicksOut>1303133832000</pproTicksOut>
						<alphatype>none</alphatype>
						<pixelaspectratio>square</pixelaspectratio>
						<anamorphic>FALSE</anamorphic>
						<file id="file-711">
							<name>TKO_013_KID_Sh07370.mov</name>
							<pathurl>file://tri-stor01/Projects/TKO/SHOTS/_Refs_Movs_Burnin_FrameCounter/TKO_013_KID_Sh07370.mov</pathurl>
							<rate>
								<timebase>24</timebase>
								<ntsc>TRUE</ntsc>
							</rate>
							<duration>127</duration>
							<timecode>
								<rate>
									<timebase>24</timebase>
									<ntsc>TRUE</ntsc>
								</rate>
								<string>13:17:34:14</string>
								<frame>1148510</frame>
								<displayformat>NDF</displayformat>
								<reel>
									<name>B0110005</name>
								</reel>
							</timecode>
							<media>
								<video>
									<samplecharacteristics>
										<rate>
											<timebase>24</timebase>
											<ntsc>TRUE</ntsc>
										</rate>
										<width>4096</width>
										<height>2160</height>
										<anamorphic>FALSE</anamorphic>
										<pixelaspectratio>square</pixelaspectratio>
										<fielddominance>none</fielddominance>
									</samplecharacteristics>
								</video>
							</media>
						</file>
						<logginginfo>
							<description></description>
							<scene></scene>
							<shottake></shottake>
							<lognote></lognote>
							<good></good>
							<originalvideofilename></originalvideofilename>
							<originalaudiofilename></originalaudiofilename>
						</logginginfo>
						<colorinfo>
							<lut></lut>
							<lut1></lut1>
							<asc_sop></asc_sop>
							<asc_sat></asc_sat>
							<lut2></lut2>
						</colorinfo>
						<labels>
							<label2>Violet</label2>
						</labels>
					</clipitem>
					<clipitem id="clipitem-715">
						<masterclipid>masterclip-712</masterclipid>
						<name>TKO_013_KID_Sh07380.mov</name>
						<enabled>TRUE</enabled>
						<duration>37</duration>
						<rate>
							<timebase>24</timebase>
							<ntsc>TRUE</ntsc>
						</rate>
						<start>59008</start>
						<end>59037</end>
						<in>4</in>
						<out>33</out>
						<pproTicksIn>42378336000</pproTicksIn>
						<pproTicksOut>349621272000</pproTicksOut>
						<alphatype>none</alphatype>
						<pixelaspectratio>square</pixelaspectratio>
						<anamorphic>FALSE</anamorphic>
						<file id="file-712">
							<name>TKO_013_KID_Sh07380.mov</name>
							<pathurl>file://tri-stor01/Projects/TKO/SHOTS/_Refs_Movs_Burnin_FrameCounter/TKO_013_KID_Sh07380.mov</pathurl>
							<rate>
								<timebase>24</timebase>
								<ntsc>TRUE</ntsc>
							</rate>
							<duration>37</duration>
							<timecode>
								<rate>
									<timebase>24</timebase>
									<ntsc>TRUE</ntsc>
								</rate>
								<string>13:17:39:14</string>
								<frame>1148630</frame>
								<displayformat>NDF</displayformat>
								<reel>
									<name>A0140006</name>
								</reel>
							</timecode>
							<media>
								<video>
									<samplecharacteristics>
										<rate>
											<timebase>24</timebase>
											<ntsc>TRUE</ntsc>
										</rate>
										<width>4096</width>
										<height>2160</height>
										<anamorphic>FALSE</anamorphic>
										<pixelaspectratio>square</pixelaspectratio>
										<fielddominance>none</fielddominance>
									</samplecharacteristics>
								</video>
							</media>
						</file>
						<logginginfo>
							<description></description>
							<scene></scene>
							<shottake></shottake>
							<lognote></lognote>
							<good></good>
							<originalvideofilename></originalvideofilename>
							<originalaudiofilename></originalaudiofilename>
						</logginginfo>
						<colorinfo>
							<lut></lut>
							<lut1></lut1>
							<asc_sop></asc_sop>
							<asc_sat></asc_sat>
							<lut2></lut2>
						</colorinfo>
						<labels>
							<label2>Violet</label2>
						</labels>
					</clipitem>
					<clipitem id="clipitem-716">
						<masterclipid>masterclip-713</masterclipid>
						<name>TKO_013_KID_Sh07390.mov</name>
						<enabled>TRUE</enabled>
						<duration>193</duration>
						<rate>
							<timebase>24</timebase>
							<ntsc>TRUE</ntsc>
						</rate>
						<start>59037</start>
						<end>59222</end>
						<in>4</in>
						<out>189</out>
						<pproTicksIn>42378336000</pproTicksIn>
						<pproTicksOut>2002376376000</pproTicksOut>
						<alphatype>none</alphatype>
						<pixelaspectratio>square</pixelaspectratio>
						<anamorphic>FALSE</anamorphic>
						<file id="file-713">
							<name>TKO_013_KID_Sh07390.mov</name>
							<pathurl>file://tri-stor01/Projects/TKO/SHOTS/_Refs_Movs_Burnin_FrameCounter/TKO_013_KID_Sh07390.mov</pathurl>
							<rate>
								<timebase>24</timebase>
								<ntsc>TRUE</ntsc>
							</rate>
							<duration>193</duration>
							<timecode>
								<rate>
									<timebase>24</timebase>
									<ntsc>TRUE</ntsc>
								</rate>
								<string>13:17:40:18</string>
								<frame>1148658</frame>
								<displayformat>NDF</displayformat>
								<reel>
									<name>B0110005</name>
								</reel>
							</timecode>
							<media>
								<video>
									<samplecharacteristics>
										<rate>
											<timebase>24</timebase>
											<ntsc>TRUE</ntsc>
										</rate>
										<width>4096</width>
										<height>2160</height>
										<anamorphic>FALSE</anamorphic>
										<pixelaspectratio>square</pixelaspectratio>
										<fielddominance>none</fielddominance>
									</samplecharacteristics>
								</video>
							</media>
						</file>
						<logginginfo>
							<description></description>
							<scene></scene>
							<shottake></shottake>
							<lognote></lognote>
							<good></good>
							<originalvideofilename></originalvideofilename>
							<originalaudiofilename></originalaudiofilename>
						</logginginfo>
						<colorinfo>
							<lut></lut>
							<lut1></lut1>
							<asc_sop></asc_sop>
							<asc_sat></asc_sat>
							<lut2></lut2>
						</colorinfo>
						<labels>
							<label2>Violet</label2>
						</labels>
					</clipitem>
					<clipitem id="clipitem-717">
						<masterclipid>masterclip-714</masterclipid>
						<name>TKO_013_KID_Sh07400.mov</name>
						<enabled>TRUE</enabled>
						<duration>59</duration>
						<rate>
							<timebase>24</timebase>
							<ntsc>TRUE</ntsc>
						</rate>
						<start>59222</start>
						<end>59273</end>
						<in>4</in>
						<out>55</out>
						<pproTicksIn>42378336000</pproTicksIn>
						<pproTicksOut>582702120000</pproTicksOut>
						<alphatype>none</alphatype>
						<pixelaspectratio>square</pixelaspectratio>
						<anamorphic>FALSE</anamorphic>
						<file id="file-714">
							<name>TKO_013_KID_Sh07400.mov</name>
							<pathurl>file://tri-stor01/Projects/TKO/SHOTS/_Refs_Movs_Burnin_FrameCounter/TKO_013_KID_Sh07400.mov</pathurl>
							<rate>
								<timebase>24</timebase>
								<ntsc>TRUE</ntsc>
							</rate>
							<duration>59</duration>
							<timecode>
								<rate>
									<timebase>24</timebase>
									<ntsc>TRUE</ntsc>
								</rate>
								<string>12:51:10:20</string>
								<frame>1110500</frame>
								<displayformat>NDF</displayformat>
								<reel>
									<name>A0140004</name>
								</reel>
							</timecode>
							<media>
								<video>
									<samplecharacteristics>
										<rate>
											<timebase>24</timebase>
											<ntsc>TRUE</ntsc>
										</rate>
										<width>4096</width>
										<height>2160</height>
										<anamorphic>FALSE</anamorphic>
										<pixelaspectratio>square</pixelaspectratio>
										<fielddominance>none</fielddominance>
									</samplecharacteristics>
								</video>
							</media>
						</file>
						<logginginfo>
							<description></description>
							<scene></scene>
							<shottake></shottake>
							<lognote></lognote>
							<good></good>
							<originalvideofilename></originalvideofilename>
							<originalaudiofilename></originalaudiofilename>
						</logginginfo>
						<colorinfo>
							<lut></lut>
							<lut1></lut1>
							<asc_sop></asc_sop>
							<asc_sat></asc_sat>
							<lut2></lut2>
						</colorinfo>
						<labels>
							<label2>Violet</label2>
						</labels>
					</clipitem>
					<clipitem id="clipitem-718">
						<masterclipid>masterclip-715</masterclipid>
						<name>TKO_013_KID_Sh07410.mov</name>
						<enabled>TRUE</enabled>
						<duration>67</duration>
						<rate>
							<timebase>24</timebase>
							<ntsc>TRUE</ntsc>
						</rate>
						<start>59273</start>
						<end>59332</end>
						<in>4</in>
						<out>63</out>
						<pproTicksIn>42378336000</pproTicksIn>
						<pproTicksOut>667458792000</pproTicksOut>
						<alphatype>none</alphatype>
						<pixelaspectratio>square</pixelaspectratio>
						<anamorphic>FALSE</anamorphic>
						<file id="file-715">
							<name>TKO_013_KID_Sh07410.mov</name>
							<pathurl>file://tri-stor01/Projects/TKO/SHOTS/_Refs_Movs_Burnin_FrameCounter/TKO_013_KID_Sh07410.mov</pathurl>
							<rate>
								<timebase>24</timebase>
								<ntsc>TRUE</ntsc>
							</rate>
							<duration>67</duration>
							<timecode>
								<rate>
									<timebase>24</timebase>
									<ntsc>TRUE</ntsc>
								</rate>
								<string>12:51:11:04</string>
								<frame>1110508</frame>
								<displayformat>NDF</displayformat>
								<reel>
									<name>B0110003</name>
								</reel>
							</timecode>
							<media>
								<video>
									<samplecharacteristics>
										<rate>
											<timebase>24</timebase>
											<ntsc>TRUE</ntsc>
										</rate>
										<width>4096</width>
										<height>2160</height>
										<anamorphic>FALSE</anamorphic>
										<pixelaspectratio>square</pixelaspectratio>
										<fielddominance>none</fielddominance>
									</samplecharacteristics>
								</video>
							</media>
						</file>
						<logginginfo>
							<description></description>
							<scene></scene>
							<shottake></shottake>
							<lognote></lognote>
							<good></good>
							<originalvideofilename></originalvideofilename>
							<originalaudiofilename></originalaudiofilename>
						</logginginfo>
						<colorinfo>
							<lut></lut>
							<lut1></lut1>
							<asc_sop></asc_sop>
							<asc_sat></asc_sat>
							<lut2></lut2>
						</colorinfo>
						<labels>
							<label2>Violet</label2>
						</labels>
					</clipitem>
					<clipitem id="clipitem-719">
						<masterclipid>masterclip-716</masterclipid>
						<name>TKO_013_KID_Sh07420.mov</name>
						<enabled>TRUE</enabled>
						<duration>108</duration>
						<rate>
							<timebase>24</timebase>
							<ntsc>TRUE</ntsc>
						</rate>
						<start>59332</start>
						<end>59432</end>
						<in>4</in>
						<out>104</out>
						<pproTicksIn>42378336000</pproTicksIn>
						<pproTicksOut>1101836736000</pproTicksOut>
						<alphatype>none</alphatype>
						<pixelaspectratio>square</pixelaspectratio>
						<anamorphic>FALSE</anamorphic>
						<file id="file-716">
							<name>TKO_013_KID_Sh07420.mov</name>
							<pathurl>file://tri-stor01/Projects/TKO/SHOTS/_Refs_Movs_Burnin_FrameCounter/TKO_013_KID_Sh07420.mov</pathurl>
							<rate>
								<timebase>24</timebase>
								<ntsc>TRUE</ntsc>
							</rate>
							<duration>108</duration>
							<timecode>
								<rate>
									<timebase>24</timebase>
									<ntsc>TRUE</ntsc>
								</rate>
								<string>13:17:51:19</string>
								<frame>1148923</frame>
								<displayformat>NDF</displayformat>
								<reel>
									<name>A0140006</name>
								</reel>
							</timecode>
							<media>
								<video>
									<samplecharacteristics>
										<rate>
											<timebase>24</timebase>
											<ntsc>TRUE</ntsc>
										</rate>
										<width>4096</width>
										<height>2160</height>
										<anamorphic>FALSE</anamorphic>
										<pixelaspectratio>square</pixelaspectratio>
										<fielddominance>none</fielddominance>
									</samplecharacteristics>
								</video>
							</media>
						</file>
						<logginginfo>
							<description></description>
							<scene></scene>
							<shottake></shottake>
							<lognote></lognote>
							<good></good>
							<originalvideofilename></originalvideofilename>
							<originalaudiofilename></originalaudiofilename>
						</logginginfo>
						<colorinfo>
							<lut></lut>
							<lut1></lut1>
							<asc_sop></asc_sop>
							<asc_sat></asc_sat>
							<lut2></lut2>
						</colorinfo>
						<labels>
							<label2>Violet</label2>
						</labels>
					</clipitem>
					<clipitem id="clipitem-720">
						<masterclipid>masterclip-717</masterclipid>
						<name>TKO_013_KID_Sh07430.mov</name>
						<enabled>TRUE</enabled>
						<duration>85</duration>
						<rate>
							<timebase>24</timebase>
							<ntsc>TRUE</ntsc>
						</rate>
						<start>59432</start>
						<end>59509</end>
						<in>4</in>
						<out>81</out>
						<pproTicksIn>42378336000</pproTicksIn>
						<pproTicksOut>858161304000</pproTicksOut>
						<alphatype>none</alphatype>
						<pixelaspectratio>square</pixelaspectratio>
						<anamorphic>FALSE</anamorphic>
						<file id="file-717">
							<name>TKO_013_KID_Sh07430.mov</name>
							<pathurl>file://tri-stor01/Projects/TKO/SHOTS/_Refs_Movs_Burnin_FrameCounter/TKO_013_KID_Sh07430.mov</pathurl>
							<rate>
								<timebase>24</timebase>
								<ntsc>TRUE</ntsc>
							</rate>
							<duration>85</duration>
							<timecode>
								<rate>
									<timebase>24</timebase>
									<ntsc>TRUE</ntsc>
								</rate>
								<string>13:17:55:02</string>
								<frame>1149002</frame>
								<displayformat>NDF</displayformat>
								<reel>
									<name>B0110005</name>
								</reel>
							</timecode>
							<media>
								<video>
									<samplecharacteristics>
										<rate>
											<timebase>24</timebase>
											<ntsc>TRUE</ntsc>
										</rate>
										<width>4096</width>
										<height>2160</height>
										<anamorphic>FALSE</anamorphic>
										<pixelaspectratio>square</pixelaspectratio>
										<fielddominance>none</fielddominance>
									</samplecharacteristics>
								</video>
							</media>
						</file>
						<logginginfo>
							<description></description>
							<scene></scene>
							<shottake></shottake>
							<lognote></lognote>
							<good></good>
							<originalvideofilename></originalvideofilename>
							<originalaudiofilename></originalaudiofilename>
						</logginginfo>
						<colorinfo>
							<lut></lut>
							<lut1></lut1>
							<asc_sop></asc_sop>
							<asc_sat></asc_sat>
							<lut2></lut2>
						</colorinfo>
						<labels>
							<label2>Violet</label2>
						</labels>
					</clipitem>
					<clipitem id="clipitem-721">
						<masterclipid>masterclip-718</masterclipid>
						<name>TKO_013_KID_Sh07440.mov</name>
						<enabled>TRUE</enabled>
						<duration>110</duration>
						<rate>
							<timebase>24</timebase>
							<ntsc>TRUE</ntsc>
						</rate>
						<start>59509</start>
						<end>59610</end>
						<in>4</in>
						<out>105</out>
						<pproTicksIn>42378336000</pproTicksIn>
						<pproTicksOut>1112431320000</pproTicksOut>
						<alphatype>none</alphatype>
						<pixelaspectratio>square</pixelaspectratio>
						<anamorphic>FALSE</anamorphic>
						<file id="file-718">
							<name>TKO_013_KID_Sh07440.mov</name>
							<pathurl>file://tri-stor01/Projects/TKO/SHOTS/_Refs_Movs_Burnin_FrameCounter/TKO_013_KID_Sh07440.mov</pathurl>
							<rate>
								<timebase>24</timebase>
								<ntsc>TRUE</ntsc>
							</rate>
							<duration>110</duration>
							<timecode>
								<rate>
									<timebase>24</timebase>
									<ntsc>TRUE</ntsc>
								</rate>
								<string>13:20:35:00</string>
								<frame>1152840</frame>
								<displayformat>NDF</displayformat>
								<reel>
									<name>A0140007</name>
								</reel>
							</timecode>
							<media>
								<video>
									<samplecharacteristics>
										<rate>
											<timebase>24</timebase>
											<ntsc>TRUE</ntsc>
										</rate>
										<width>4096</width>
										<height>2160</height>
										<anamorphic>FALSE</anamorphic>
										<pixelaspectratio>square</pixelaspectratio>
										<fielddominance>none</fielddominance>
									</samplecharacteristics>
								</video>
							</media>
						</file>
						<logginginfo>
							<description></description>
							<scene></scene>
							<shottake></shottake>
							<lognote></lognote>
							<good></good>
							<originalvideofilename></originalvideofilename>
							<originalaudiofilename></originalaudiofilename>
						</logginginfo>
						<colorinfo>
							<lut></lut>
							<lut1></lut1>
							<asc_sop></asc_sop>
							<asc_sat></asc_sat>
							<lut2></lut2>
						</colorinfo>
						<labels>
							<label2>Violet</label2>
						</labels>
					</clipitem>
					<clipitem id="clipitem-722">
						<masterclipid>masterclip-719</masterclipid>
						<name>TKO_013_KID_Sh07480.mov</name>
						<enabled>TRUE</enabled>
						<duration>247</duration>
						<rate>
							<timebase>24</timebase>
							<ntsc>TRUE</ntsc>
						</rate>
						<start>59610</start>
						<end>59695</end>
						<in>158</in>
						<out>243</out>
						<pproTicksIn>1673944272000</pproTicksIn>
						<pproTicksOut>2574483912000</pproTicksOut>
						<alphatype>none</alphatype>
						<pixelaspectratio>square</pixelaspectratio>
						<anamorphic>FALSE</anamorphic>
						<file id="file-719">
							<name>TKO_013_KID_Sh07480.mov</name>
							<pathurl>file://tri-stor01/Projects/TKO/SHOTS/_Refs_Movs_Burnin_FrameCounter/TKO_013_KID_Sh07480.mov</pathurl>
							<rate>
								<timebase>24</timebase>
								<ntsc>TRUE</ntsc>
							</rate>
							<duration>247</duration>
							<timecode>
								<rate>
									<timebase>24</timebase>
									<ntsc>TRUE</ntsc>
								</rate>
								<string>03:47:59:03</string>
								<frame>328299</frame>
								<displayformat>NDF</displayformat>
								<reel>
									<name>C0070006</name>
								</reel>
							</timecode>
							<media>
								<video>
									<samplecharacteristics>
										<rate>
											<timebase>24</timebase>
											<ntsc>TRUE</ntsc>
										</rate>
										<width>3840</width>
										<height>2160</height>
										<anamorphic>FALSE</anamorphic>
										<pixelaspectratio>square</pixelaspectratio>
										<fielddominance>none</fielddominance>
									</samplecharacteristics>
								</video>
							</media>
						</file>
						<logginginfo>
							<description></description>
							<scene></scene>
							<shottake></shottake>
							<lognote></lognote>
							<good></good>
							<originalvideofilename></originalvideofilename>
							<originalaudiofilename></originalaudiofilename>
						</logginginfo>
						<colorinfo>
							<lut></lut>
							<lut1></lut1>
							<asc_sop></asc_sop>
							<asc_sat></asc_sat>
							<lut2></lut2>
						</colorinfo>
						<labels>
							<label2>Violet</label2>
						</labels>
					</clipitem>
					<clipitem id="clipitem-723">
						<masterclipid>masterclip-720</masterclipid>
						<name>TKO_013_KID_Sh07490.mov</name>
						<enabled>TRUE</enabled>
						<duration>85</duration>
						<rate>
							<timebase>24</timebase>
							<ntsc>TRUE</ntsc>
						</rate>
						<start>59695</start>
						<end>59772</end>
						<in>4</in>
						<out>81</out>
						<pproTicksIn>42378336000</pproTicksIn>
						<pproTicksOut>858161304000</pproTicksOut>
						<alphatype>none</alphatype>
						<pixelaspectratio>square</pixelaspectratio>
						<anamorphic>FALSE</anamorphic>
						<file id="file-720">
							<name>TKO_013_KID_Sh07490.mov</name>
							<pathurl>file://tri-stor01/Projects/TKO/SHOTS/_Refs_Movs_Burnin_FrameCounter/TKO_013_KID_Sh07490.mov</pathurl>
							<rate>
								<timebase>24</timebase>
								<ntsc>TRUE</ntsc>
							</rate>
							<duration>85</duration>
							<timecode>
								<rate>
									<timebase>24</timebase>
									<ntsc>TRUE</ntsc>
								</rate>
								<string>16:13:15:10</string>
								<frame>1401490</frame>
								<displayformat>NDF</displayformat>
								<reel>
									<name>A0090002</name>
								</reel>
							</timecode>
							<media>
								<video>
									<samplecharacteristics>
										<rate>
											<timebase>24</timebase>
											<ntsc>TRUE</ntsc>
										</rate>
										<width>4096</width>
										<height>2160</height>
										<anamorphic>FALSE</anamorphic>
										<pixelaspectratio>square</pixelaspectratio>
										<fielddominance>none</fielddominance>
									</samplecharacteristics>
								</video>
							</media>
						</file>
						<logginginfo>
							<description></description>
							<scene></scene>
							<shottake></shottake>
							<lognote></lognote>
							<good></good>
							<originalvideofilename></originalvideofilename>
							<originalaudiofilename></originalaudiofilename>
						</logginginfo>
						<colorinfo>
							<lut></lut>
							<lut1></lut1>
							<asc_sop></asc_sop>
							<asc_sat></asc_sat>
							<lut2></lut2>
						</colorinfo>
						<labels>
							<label2>Violet</label2>
						</labels>
					</clipitem>
					<clipitem id="clipitem-724">
						<masterclipid>masterclip-721</masterclipid>
						<name>TKO_013_KID_Sh07500.mov</name>
						<enabled>TRUE</enabled>
						<duration>115</duration>
						<rate>
							<timebase>24</timebase>
							<ntsc>TRUE</ntsc>
						</rate>
						<start>59772</start>
						<end>59879</end>
						<in>4</in>
						<out>111</out>
						<pproTicksIn>42378336000</pproTicksIn>
						<pproTicksOut>1175998824000</pproTicksOut>
						<alphatype>none</alphatype>
						<pixelaspectratio>square</pixelaspectratio>
						<anamorphic>FALSE</anamorphic>
						<file id="file-721">
							<name>TKO_013_KID_Sh07500.mov</name>
							<pathurl>file://tri-stor01/Projects/TKO/SHOTS/_Refs_Movs_Burnin_FrameCounter/TKO_013_KID_Sh07500.mov</pathurl>
							<rate>
								<timebase>24</timebase>
								<ntsc>TRUE</ntsc>
							</rate>
							<duration>115</duration>
							<timecode>
								<rate>
									<timebase>24</timebase>
									<ntsc>TRUE</ntsc>
								</rate>
								<string>02:24:07:06</string>
								<frame>207534</frame>
								<displayformat>NDF</displayformat>
								<reel>
									<name>C0040002</name>
								</reel>
							</timecode>
							<media>
								<video>
									<samplecharacteristics>
										<rate>
											<timebase>24</timebase>
											<ntsc>TRUE</ntsc>
										</rate>
										<width>3840</width>
										<height>2160</height>
										<anamorphic>FALSE</anamorphic>
										<pixelaspectratio>square</pixelaspectratio>
										<fielddominance>none</fielddominance>
									</samplecharacteristics>
								</video>
							</media>
						</file>
						<logginginfo>
							<description></description>
							<scene></scene>
							<shottake></shottake>
							<lognote></lognote>
							<good></good>
							<originalvideofilename></originalvideofilename>
							<originalaudiofilename></originalaudiofilename>
						</logginginfo>
						<colorinfo>
							<lut></lut>
							<lut1></lut1>
							<asc_sop></asc_sop>
							<asc_sat></asc_sat>
							<lut2></lut2>
						</colorinfo>
						<labels>
							<label2>Violet</label2>
						</labels>
					</clipitem>
					<clipitem id="clipitem-725">
						<masterclipid>masterclip-722</masterclipid>
						<name>TKO_013_KID_Sh07510.mov</name>
						<enabled>TRUE</enabled>
						<duration>109</duration>
						<rate>
							<timebase>24</timebase>
							<ntsc>TRUE</ntsc>
						</rate>
						<start>59879</start>
						<end>59980</end>
						<in>4</in>
						<out>105</out>
						<pproTicksIn>42378336000</pproTicksIn>
						<pproTicksOut>1112431320000</pproTicksOut>
						<alphatype>none</alphatype>
						<pixelaspectratio>square</pixelaspectratio>
						<anamorphic>FALSE</anamorphic>
						<file id="file-722">
							<name>TKO_013_KID_Sh07510.mov</name>
							<pathurl>file://tri-stor01/Projects/TKO/SHOTS/_Refs_Movs_Burnin_FrameCounter/TKO_013_KID_Sh07510.mov</pathurl>
							<rate>
								<timebase>24</timebase>
								<ntsc>TRUE</ntsc>
							</rate>
							<duration>109</duration>
							<timecode>
								<rate>
									<timebase>24</timebase>
									<ntsc>TRUE</ntsc>
								</rate>
								<string>16:13:23:02</string>
								<frame>1401674</frame>
								<displayformat>NDF</displayformat>
								<reel>
									<name>A0090002</name>
								</reel>
							</timecode>
							<media>
								<video>
									<samplecharacteristics>
										<rate>
											<timebase>24</timebase>
											<ntsc>TRUE</ntsc>
										</rate>
										<width>4096</width>
										<height>2160</height>
										<anamorphic>FALSE</anamorphic>
										<pixelaspectratio>square</pixelaspectratio>
										<fielddominance>none</fielddominance>
									</samplecharacteristics>
								</video>
							</media>
						</file>
						<logginginfo>
							<description></description>
							<scene></scene>
							<shottake></shottake>
							<lognote></lognote>
							<good></good>
							<originalvideofilename></originalvideofilename>
							<originalaudiofilename></originalaudiofilename>
						</logginginfo>
						<colorinfo>
							<lut></lut>
							<lut1></lut1>
							<asc_sop></asc_sop>
							<asc_sat></asc_sat>
							<lut2></lut2>
						</colorinfo>
						<labels>
							<label2>Violet</label2>
						</labels>
					</clipitem>
					<clipitem id="clipitem-726">
						<masterclipid>masterclip-723</masterclipid>
						<name>TKO_013_KID_Sh07520.mov</name>
						<enabled>TRUE</enabled>
						<duration>83</duration>
						<rate>
							<timebase>24</timebase>
							<ntsc>TRUE</ntsc>
						</rate>
						<start>59980</start>
						<end>60055</end>
						<in>4</in>
						<out>79</out>
						<pproTicksIn>42378336000</pproTicksIn>
						<pproTicksOut>836972136000</pproTicksOut>
						<alphatype>none</alphatype>
						<pixelaspectratio>square</pixelaspectratio>
						<anamorphic>FALSE</anamorphic>
						<file id="file-723">
							<name>TKO_013_KID_Sh07520.mov</name>
							<pathurl>file://tri-stor01/Projects/TKO/SHOTS/_Refs_Movs_Burnin_FrameCounter/TKO_013_KID_Sh07520.mov</pathurl>
							<rate>
								<timebase>24</timebase>
								<ntsc>TRUE</ntsc>
							</rate>
							<duration>83</duration>
							<timecode>
								<rate>
									<timebase>24</timebase>
									<ntsc>TRUE</ntsc>
								</rate>
								<string>08:06:40:03</string>
								<frame>700803</frame>
								<displayformat>NDF</displayformat>
								<reel>
									<name>C0200008</name>
								</reel>
							</timecode>
							<media>
								<video>
									<samplecharacteristics>
										<rate>
											<timebase>24</timebase>
											<ntsc>TRUE</ntsc>
										</rate>
										<width>3840</width>
										<height>2160</height>
										<anamorphic>FALSE</anamorphic>
										<pixelaspectratio>square</pixelaspectratio>
										<fielddominance>none</fielddominance>
									</samplecharacteristics>
								</video>
							</media>
						</file>
						<logginginfo>
							<description></description>
							<scene></scene>
							<shottake></shottake>
							<lognote></lognote>
							<good></good>
							<originalvideofilename></originalvideofilename>
							<originalaudiofilename></originalaudiofilename>
						</logginginfo>
						<colorinfo>
							<lut></lut>
							<lut1></lut1>
							<asc_sop></asc_sop>
							<asc_sat></asc_sat>
							<lut2></lut2>
						</colorinfo>
						<labels>
							<label2>Violet</label2>
						</labels>
					</clipitem>
					<clipitem id="clipitem-727">
						<masterclipid>masterclip-724</masterclipid>
						<name>TKO_013_KID_Sh07530.mov</name>
						<enabled>TRUE</enabled>
						<duration>59</duration>
						<rate>
							<timebase>24</timebase>
							<ntsc>TRUE</ntsc>
						</rate>
						<start>60055</start>
						<end>60106</end>
						<in>4</in>
						<out>55</out>
						<pproTicksIn>42378336000</pproTicksIn>
						<pproTicksOut>582702120000</pproTicksOut>
						<alphatype>none</alphatype>
						<pixelaspectratio>square</pixelaspectratio>
						<anamorphic>FALSE</anamorphic>
						<file id="file-724">
							<name>TKO_013_KID_Sh07530.mov</name>
							<pathurl>file://tri-stor01/Projects/TKO/SHOTS/_Refs_Movs_Burnin_FrameCounter/TKO_013_KID_Sh07530.mov</pathurl>
							<rate>
								<timebase>24</timebase>
								<ntsc>TRUE</ntsc>
							</rate>
							<duration>59</duration>
							<timecode>
								<rate>
									<timebase>24</timebase>
									<ntsc>TRUE</ntsc>
								</rate>
								<string>21:22:08:02</string>
								<frame>1846274</frame>
								<displayformat>NDF</displayformat>
								<reel>
									<name>A0280014</name>
								</reel>
							</timecode>
							<media>
								<video>
									<samplecharacteristics>
										<rate>
											<timebase>24</timebase>
											<ntsc>TRUE</ntsc>
										</rate>
										<width>4096</width>
										<height>2160</height>
										<anamorphic>FALSE</anamorphic>
										<pixelaspectratio>square</pixelaspectratio>
										<fielddominance>none</fielddominance>
									</samplecharacteristics>
								</video>
							</media>
						</file>
						<logginginfo>
							<description></description>
							<scene></scene>
							<shottake></shottake>
							<lognote></lognote>
							<good></good>
							<originalvideofilename></originalvideofilename>
							<originalaudiofilename></originalaudiofilename>
						</logginginfo>
						<colorinfo>
							<lut></lut>
							<lut1></lut1>
							<asc_sop></asc_sop>
							<asc_sat></asc_sat>
							<lut2></lut2>
						</colorinfo>
						<labels>
							<label2>Violet</label2>
						</labels>
					</clipitem>
					<clipitem id="clipitem-728">
						<masterclipid>masterclip-725</masterclipid>
						<name>TKO_013_KID_Sh07540.mov</name>
						<enabled>TRUE</enabled>
						<duration>80</duration>
						<rate>
							<timebase>24</timebase>
							<ntsc>TRUE</ntsc>
						</rate>
						<start>60106</start>
						<end>60178</end>
						<in>4</in>
						<out>76</out>
						<pproTicksIn>42378336000</pproTicksIn>
						<pproTicksOut>805188384000</pproTicksOut>
						<alphatype>none</alphatype>
						<pixelaspectratio>square</pixelaspectratio>
						<anamorphic>FALSE</anamorphic>
						<file id="file-725">
							<name>TKO_013_KID_Sh07540.mov</name>
							<pathurl>file://tri-stor01/Projects/TKO/SHOTS/_Refs_Movs_Burnin_FrameCounter/TKO_013_KID_Sh07540.mov</pathurl>
							<rate>
								<timebase>24</timebase>
								<ntsc>TRUE</ntsc>
							</rate>
							<duration>80</duration>
							<timecode>
								<rate>
									<timebase>24</timebase>
									<ntsc>TRUE</ntsc>
								</rate>
								<string>02:27:06:16</string>
								<frame>211840</frame>
								<displayformat>NDF</displayformat>
								<reel>
									<name>C0040003</name>
								</reel>
							</timecode>
							<media>
								<video>
									<samplecharacteristics>
										<rate>
											<timebase>24</timebase>
											<ntsc>TRUE</ntsc>
										</rate>
										<width>3840</width>
										<height>2160</height>
										<anamorphic>FALSE</anamorphic>
										<pixelaspectratio>square</pixelaspectratio>
										<fielddominance>none</fielddominance>
									</samplecharacteristics>
								</video>
							</media>
						</file>
						<logginginfo>
							<description></description>
							<scene></scene>
							<shottake></shottake>
							<lognote></lognote>
							<good></good>
							<originalvideofilename></originalvideofilename>
							<originalaudiofilename></originalaudiofilename>
						</logginginfo>
						<colorinfo>
							<lut></lut>
							<lut1></lut1>
							<asc_sop></asc_sop>
							<asc_sat></asc_sat>
							<lut2></lut2>
						</colorinfo>
						<labels>
							<label2>Violet</label2>
						</labels>
					</clipitem>
					<clipitem id="clipitem-729">
						<masterclipid>masterclip-726</masterclipid>
						<name>TKO_013_KID_Sh07550.mov</name>
						<enabled>TRUE</enabled>
						<duration>193</duration>
						<rate>
							<timebase>24</timebase>
							<ntsc>TRUE</ntsc>
						</rate>
						<start>60178</start>
						<end>60363</end>
						<in>4</in>
						<out>189</out>
						<pproTicksIn>42378336000</pproTicksIn>
						<pproTicksOut>2002376376000</pproTicksOut>
						<alphatype>none</alphatype>
						<pixelaspectratio>square</pixelaspectratio>
						<anamorphic>FALSE</anamorphic>
						<file id="file-726">
							<name>TKO_013_KID_Sh07550.mov</name>
							<pathurl>file://tri-stor01/Projects/TKO/SHOTS/_Refs_Movs_Burnin_FrameCounter/TKO_013_KID_Sh07550.mov</pathurl>
							<rate>
								<timebase>24</timebase>
								<ntsc>TRUE</ntsc>
							</rate>
							<duration>193</duration>
							<timecode>
								<rate>
									<timebase>24</timebase>
									<ntsc>TRUE</ntsc>
								</rate>
								<string>16:18:37:14</string>
								<frame>1409222</frame>
								<displayformat>NDF</displayformat>
								<reel>
									<name>A0090003</name>
								</reel>
							</timecode>
							<media>
								<video>
									<samplecharacteristics>
										<rate>
											<timebase>24</timebase>
											<ntsc>TRUE</ntsc>
										</rate>
										<width>4096</width>
										<height>2160</height>
										<anamorphic>FALSE</anamorphic>
										<pixelaspectratio>square</pixelaspectratio>
										<fielddominance>none</fielddominance>
									</samplecharacteristics>
								</video>
							</media>
						</file>
						<logginginfo>
							<description></description>
							<scene></scene>
							<shottake></shottake>
							<lognote></lognote>
							<good></good>
							<originalvideofilename></originalvideofilename>
							<originalaudiofilename></originalaudiofilename>
						</logginginfo>
						<colorinfo>
							<lut></lut>
							<lut1></lut1>
							<asc_sop></asc_sop>
							<asc_sat></asc_sat>
							<lut2></lut2>
						</colorinfo>
						<labels>
							<label2>Violet</label2>
						</labels>
					</clipitem>
					<clipitem id="clipitem-730">
						<masterclipid>masterclip-727</masterclipid>
						<name>TKO_013_KID_Sh07560.mov</name>
						<enabled>TRUE</enabled>
						<duration>77</duration>
						<rate>
							<timebase>24</timebase>
							<ntsc>TRUE</ntsc>
						</rate>
						<start>60363</start>
						<end>60432</end>
						<in>4</in>
						<out>73</out>
						<pproTicksIn>42378336000</pproTicksIn>
						<pproTicksOut>773404632000</pproTicksOut>
						<alphatype>none</alphatype>
						<pixelaspectratio>square</pixelaspectratio>
						<anamorphic>FALSE</anamorphic>
						<file id="file-727">
							<name>TKO_013_KID_Sh07560.mov</name>
							<pathurl>file://tri-stor01/Projects/TKO/SHOTS/_Refs_Movs_Burnin_FrameCounter/TKO_013_KID_Sh07560.mov</pathurl>
							<rate>
								<timebase>24</timebase>
								<ntsc>TRUE</ntsc>
							</rate>
							<duration>77</duration>
							<timecode>
								<rate>
									<timebase>24</timebase>
									<ntsc>TRUE</ntsc>
								</rate>
								<string>16:18:45:07</string>
								<frame>1409407</frame>
								<displayformat>NDF</displayformat>
								<reel>
									<name>B0060003</name>
								</reel>
							</timecode>
							<media>
								<video>
									<samplecharacteristics>
										<rate>
											<timebase>24</timebase>
											<ntsc>TRUE</ntsc>
										</rate>
										<width>4096</width>
										<height>2160</height>
										<anamorphic>FALSE</anamorphic>
										<pixelaspectratio>square</pixelaspectratio>
										<fielddominance>none</fielddominance>
									</samplecharacteristics>
								</video>
							</media>
						</file>
						<logginginfo>
							<description></description>
							<scene></scene>
							<shottake></shottake>
							<lognote></lognote>
							<good></good>
							<originalvideofilename></originalvideofilename>
							<originalaudiofilename></originalaudiofilename>
						</logginginfo>
						<colorinfo>
							<lut></lut>
							<lut1></lut1>
							<asc_sop></asc_sop>
							<asc_sat></asc_sat>
							<lut2></lut2>
						</colorinfo>
						<labels>
							<label2>Violet</label2>
						</labels>
					</clipitem>
					<clipitem id="clipitem-731">
						<masterclipid>masterclip-728</masterclipid>
						<name>TKO_013_KID_Sh07570.mov</name>
						<enabled>TRUE</enabled>
						<duration>116</duration>
						<rate>
							<timebase>24</timebase>
							<ntsc>TRUE</ntsc>
						</rate>
						<start>60432</start>
						<end>60540</end>
						<in>4</in>
						<out>112</out>
						<pproTicksIn>42378336000</pproTicksIn>
						<pproTicksOut>1186593408000</pproTicksOut>
						<alphatype>none</alphatype>
						<pixelaspectratio>square</pixelaspectratio>
						<anamorphic>FALSE</anamorphic>
						<file id="file-728">
							<name>TKO_013_KID_Sh07570.mov</name>
							<pathurl>file://tri-stor01/Projects/TKO/SHOTS/_Refs_Movs_Burnin_FrameCounter/TKO_013_KID_Sh07570.mov</pathurl>
							<rate>
								<timebase>24</timebase>
								<ntsc>TRUE</ntsc>
							</rate>
							<duration>116</duration>
							<timecode>
								<rate>
									<timebase>24</timebase>
									<ntsc>TRUE</ntsc>
								</rate>
								<string>02:27:20:23</string>
								<frame>212183</frame>
								<displayformat>NDF</displayformat>
								<reel>
									<name>C0040003</name>
								</reel>
							</timecode>
							<media>
								<video>
									<samplecharacteristics>
										<rate>
											<timebase>24</timebase>
											<ntsc>TRUE</ntsc>
										</rate>
										<width>3840</width>
										<height>2160</height>
										<anamorphic>FALSE</anamorphic>
										<pixelaspectratio>square</pixelaspectratio>
										<fielddominance>none</fielddominance>
									</samplecharacteristics>
								</video>
							</media>
						</file>
						<logginginfo>
							<description></description>
							<scene></scene>
							<shottake></shottake>
							<lognote></lognote>
							<good></good>
							<originalvideofilename></originalvideofilename>
							<originalaudiofilename></originalaudiofilename>
						</logginginfo>
						<colorinfo>
							<lut></lut>
							<lut1></lut1>
							<asc_sop></asc_sop>
							<asc_sat></asc_sat>
							<lut2></lut2>
						</colorinfo>
						<labels>
							<label2>Violet</label2>
						</labels>
					</clipitem>
					<clipitem id="clipitem-732">
						<masterclipid>masterclip-729</masterclipid>
						<name>TKO_013_KID_Sh07580.mov</name>
						<enabled>TRUE</enabled>
						<duration>77</duration>
						<rate>
							<timebase>24</timebase>
							<ntsc>TRUE</ntsc>
						</rate>
						<start>60540</start>
						<end>60609</end>
						<in>4</in>
						<out>73</out>
						<pproTicksIn>42378336000</pproTicksIn>
						<pproTicksOut>773404632000</pproTicksOut>
						<alphatype>none</alphatype>
						<pixelaspectratio>square</pixelaspectratio>
						<anamorphic>FALSE</anamorphic>
						<file id="file-729">
							<name>TKO_013_KID_Sh07580.mov</name>
							<pathurl>file://tri-stor01/Projects/TKO/SHOTS/_Refs_Movs_Burnin_FrameCounter/TKO_013_KID_Sh07580.mov</pathurl>
							<rate>
								<timebase>24</timebase>
								<ntsc>TRUE</ntsc>
							</rate>
							<duration>77</duration>
							<timecode>
								<rate>
									<timebase>24</timebase>
									<ntsc>TRUE</ntsc>
								</rate>
								<string>16:18:52:19</string>
								<frame>1409587</frame>
								<displayformat>NDF</displayformat>
								<reel>
									<name>A0090003</name>
								</reel>
							</timecode>
							<media>
								<video>
									<samplecharacteristics>
										<rate>
											<timebase>24</timebase>
											<ntsc>TRUE</ntsc>
										</rate>
										<width>4096</width>
										<height>2160</height>
										<anamorphic>FALSE</anamorphic>
										<pixelaspectratio>square</pixelaspectratio>
										<fielddominance>none</fielddominance>
									</samplecharacteristics>
								</video>
							</media>
						</file>
						<logginginfo>
							<description></description>
							<scene></scene>
							<shottake></shottake>
							<lognote></lognote>
							<good></good>
							<originalvideofilename></originalvideofilename>
							<originalaudiofilename></originalaudiofilename>
						</logginginfo>
						<colorinfo>
							<lut></lut>
							<lut1></lut1>
							<asc_sop></asc_sop>
							<asc_sat></asc_sat>
							<lut2></lut2>
						</colorinfo>
						<labels>
							<label2>Violet</label2>
						</labels>
					</clipitem>
					<clipitem id="clipitem-733">
						<masterclipid>masterclip-730</masterclipid>
						<name>TKO_013_KID_Sh07590.mov</name>
						<enabled>TRUE</enabled>
						<duration>59</duration>
						<rate>
							<timebase>24</timebase>
							<ntsc>TRUE</ntsc>
						</rate>
						<start>60609</start>
						<end>60660</end>
						<in>4</in>
						<out>55</out>
						<pproTicksIn>42378336000</pproTicksIn>
						<pproTicksOut>582702120000</pproTicksOut>
						<alphatype>none</alphatype>
						<pixelaspectratio>square</pixelaspectratio>
						<anamorphic>FALSE</anamorphic>
						<file id="file-730">
							<name>TKO_013_KID_Sh07590.mov</name>
							<pathurl>file://tri-stor01/Projects/TKO/SHOTS/_Refs_Movs_Burnin_FrameCounter/TKO_013_KID_Sh07590.mov</pathurl>
							<rate>
								<timebase>24</timebase>
								<ntsc>TRUE</ntsc>
							</rate>
							<duration>59</duration>
							<timecode>
								<rate>
									<timebase>24</timebase>
									<ntsc>TRUE</ntsc>
								</rate>
								<string>16:18:59:08</string>
								<frame>1409744</frame>
								<displayformat>NDF</displayformat>
								<reel>
									<name>B0060003</name>
								</reel>
							</timecode>
							<media>
								<video>
									<samplecharacteristics>
										<rate>
											<timebase>24</timebase>
											<ntsc>TRUE</ntsc>
										</rate>
										<width>4096</width>
										<height>2160</height>
										<anamorphic>FALSE</anamorphic>
										<pixelaspectratio>square</pixelaspectratio>
										<fielddominance>none</fielddominance>
									</samplecharacteristics>
								</video>
							</media>
						</file>
						<logginginfo>
							<description></description>
							<scene></scene>
							<shottake></shottake>
							<lognote></lognote>
							<good></good>
							<originalvideofilename></originalvideofilename>
							<originalaudiofilename></originalaudiofilename>
						</logginginfo>
						<colorinfo>
							<lut></lut>
							<lut1></lut1>
							<asc_sop></asc_sop>
							<asc_sat></asc_sat>
							<lut2></lut2>
						</colorinfo>
						<labels>
							<label2>Violet</label2>
						</labels>
					</clipitem>
					<clipitem id="clipitem-734">
						<masterclipid>masterclip-731</masterclipid>
						<name>TKO_013_KID_Sh07600.mov</name>
						<enabled>TRUE</enabled>
						<duration>63</duration>
						<rate>
							<timebase>24</timebase>
							<ntsc>TRUE</ntsc>
						</rate>
						<start>60660</start>
						<end>60715</end>
						<in>4</in>
						<out>59</out>
						<pproTicksIn>42378336000</pproTicksIn>
						<pproTicksOut>625080456000</pproTicksOut>
						<alphatype>none</alphatype>
						<pixelaspectratio>square</pixelaspectratio>
						<anamorphic>FALSE</anamorphic>
						<file id="file-731">
							<name>TKO_013_KID_Sh07600.mov</name>
							<pathurl>file://tri-stor01/Projects/TKO/SHOTS/_Refs_Movs_Burnin_FrameCounter/TKO_013_KID_Sh07600.mov</pathurl>
							<rate>
								<timebase>24</timebase>
								<ntsc>TRUE</ntsc>
							</rate>
							<duration>63</duration>
							<timecode>
								<rate>
									<timebase>24</timebase>
									<ntsc>TRUE</ntsc>
								</rate>
								<string>16:19:01:11</string>
								<frame>1409795</frame>
								<displayformat>NDF</displayformat>
								<reel>
									<name>A0090003</name>
								</reel>
							</timecode>
							<media>
								<video>
									<samplecharacteristics>
										<rate>
											<timebase>24</timebase>
											<ntsc>TRUE</ntsc>
										</rate>
										<width>4096</width>
										<height>2160</height>
										<anamorphic>FALSE</anamorphic>
										<pixelaspectratio>square</pixelaspectratio>
										<fielddominance>none</fielddominance>
									</samplecharacteristics>
								</video>
							</media>
						</file>
						<logginginfo>
							<description></description>
							<scene></scene>
							<shottake></shottake>
							<lognote></lognote>
							<good></good>
							<originalvideofilename></originalvideofilename>
							<originalaudiofilename></originalaudiofilename>
						</logginginfo>
						<colorinfo>
							<lut></lut>
							<lut1></lut1>
							<asc_sop></asc_sop>
							<asc_sat></asc_sat>
							<lut2></lut2>
						</colorinfo>
						<labels>
							<label2>Violet</label2>
						</labels>
					</clipitem>
					<clipitem id="clipitem-735">
						<masterclipid>masterclip-732</masterclipid>
						<name>TKO_013_KID_Sh07610.mov</name>
						<enabled>TRUE</enabled>
						<duration>42</duration>
						<rate>
							<timebase>24</timebase>
							<ntsc>TRUE</ntsc>
						</rate>
						<start>60715</start>
						<end>60749</end>
						<in>4</in>
						<out>38</out>
						<pproTicksIn>42378336000</pproTicksIn>
						<pproTicksOut>402594192000</pproTicksOut>
						<alphatype>none</alphatype>
						<pixelaspectratio>square</pixelaspectratio>
						<anamorphic>FALSE</anamorphic>
						<file id="file-732">
							<name>TKO_013_KID_Sh07610.mov</name>
							<pathurl>file://tri-stor01/Projects/TKO/SHOTS/_Refs_Movs_Burnin_FrameCounter/TKO_013_KID_Sh07610.mov</pathurl>
							<rate>
								<timebase>24</timebase>
								<ntsc>TRUE</ntsc>
							</rate>
							<duration>42</duration>
							<timecode>
								<rate>
									<timebase>24</timebase>
									<ntsc>TRUE</ntsc>
								</rate>
								<string>08:07:05:07</string>
								<frame>701407</frame>
								<displayformat>NDF</displayformat>
								<reel>
									<name>C0200008</name>
								</reel>
							</timecode>
							<media>
								<video>
									<samplecharacteristics>
										<rate>
											<timebase>24</timebase>
											<ntsc>TRUE</ntsc>
										</rate>
										<width>3840</width>
										<height>2160</height>
										<anamorphic>FALSE</anamorphic>
										<pixelaspectratio>square</pixelaspectratio>
										<fielddominance>none</fielddominance>
									</samplecharacteristics>
								</video>
							</media>
						</file>
						<logginginfo>
							<description></description>
							<scene></scene>
							<shottake></shottake>
							<lognote></lognote>
							<good></good>
							<originalvideofilename></originalvideofilename>
							<originalaudiofilename></originalaudiofilename>
						</logginginfo>
						<colorinfo>
							<lut></lut>
							<lut1></lut1>
							<asc_sop></asc_sop>
							<asc_sat></asc_sat>
							<lut2></lut2>
						</colorinfo>
						<labels>
							<label2>Violet</label2>
						</labels>
					</clipitem>
					<clipitem id="clipitem-736">
						<masterclipid>masterclip-733</masterclipid>
						<name>TKO_013_KID_Sh07620.mov</name>
						<enabled>TRUE</enabled>
						<duration>118</duration>
						<rate>
							<timebase>24</timebase>
							<ntsc>TRUE</ntsc>
						</rate>
						<start>60749</start>
						<end>60859</end>
						<in>4</in>
						<out>114</out>
						<pproTicksIn>42378336000</pproTicksIn>
						<pproTicksOut>1207782576000</pproTicksOut>
						<alphatype>none</alphatype>
						<pixelaspectratio>square</pixelaspectratio>
						<anamorphic>FALSE</anamorphic>
						<file id="file-733">
							<name>TKO_013_KID_Sh07620.mov</name>
							<pathurl>file://tri-stor01/Projects/TKO/SHOTS/_Refs_Movs_Burnin_FrameCounter/TKO_013_KID_Sh07620.mov</pathurl>
							<rate>
								<timebase>24</timebase>
								<ntsc>TRUE</ntsc>
							</rate>
							<duration>118</duration>
							<timecode>
								<rate>
									<timebase>24</timebase>
									<ntsc>TRUE</ntsc>
								</rate>
								<string>16:13:58:10</string>
								<frame>1402522</frame>
								<displayformat>NDF</displayformat>
								<reel>
									<name>B0060002</name>
								</reel>
							</timecode>
							<media>
								<video>
									<samplecharacteristics>
										<rate>
											<timebase>24</timebase>
											<ntsc>TRUE</ntsc>
										</rate>
										<width>4096</width>
										<height>2160</height>
										<anamorphic>FALSE</anamorphic>
										<pixelaspectratio>square</pixelaspectratio>
										<fielddominance>none</fielddominance>
									</samplecharacteristics>
								</video>
							</media>
						</file>
						<logginginfo>
							<description></description>
							<scene></scene>
							<shottake></shottake>
							<lognote></lognote>
							<good></good>
							<originalvideofilename></originalvideofilename>
							<originalaudiofilename></originalaudiofilename>
						</logginginfo>
						<colorinfo>
							<lut></lut>
							<lut1></lut1>
							<asc_sop></asc_sop>
							<asc_sat></asc_sat>
							<lut2></lut2>
						</colorinfo>
						<labels>
							<label2>Violet</label2>
						</labels>
					</clipitem>
					<clipitem id="clipitem-737">
						<masterclipid>masterclip-734</masterclipid>
						<name>TKO_013_KID_Sh07630.mov</name>
						<enabled>TRUE</enabled>
						<duration>100</duration>
						<rate>
							<timebase>24</timebase>
							<ntsc>TRUE</ntsc>
						</rate>
						<start>60859</start>
						<end>60951</end>
						<in>4</in>
						<out>96</out>
						<pproTicksIn>42378336000</pproTicksIn>
						<pproTicksOut>1017080064000</pproTicksOut>
						<alphatype>none</alphatype>
						<pixelaspectratio>square</pixelaspectratio>
						<anamorphic>FALSE</anamorphic>
						<file id="file-734">
							<name>TKO_013_KID_Sh07630.mov</name>
							<pathurl>file://tri-stor01/Projects/TKO/SHOTS/_Refs_Movs_Burnin_FrameCounter/TKO_013_KID_Sh07630.mov</pathurl>
							<rate>
								<timebase>24</timebase>
								<ntsc>TRUE</ntsc>
							</rate>
							<duration>100</duration>
							<timecode>
								<rate>
									<timebase>24</timebase>
									<ntsc>TRUE</ntsc>
								</rate>
								<string>02:24:51:00</string>
								<frame>208584</frame>
								<displayformat>NDF</displayformat>
								<reel>
									<name>C0040002</name>
								</reel>
							</timecode>
							<media>
								<video>
									<samplecharacteristics>
										<rate>
											<timebase>24</timebase>
											<ntsc>TRUE</ntsc>
										</rate>
										<width>3840</width>
										<height>2160</height>
										<anamorphic>FALSE</anamorphic>
										<pixelaspectratio>square</pixelaspectratio>
										<fielddominance>none</fielddominance>
									</samplecharacteristics>
								</video>
							</media>
						</file>
						<logginginfo>
							<description></description>
							<scene></scene>
							<shottake></shottake>
							<lognote></lognote>
							<good></good>
							<originalvideofilename></originalvideofilename>
							<originalaudiofilename></originalaudiofilename>
						</logginginfo>
						<colorinfo>
							<lut></lut>
							<lut1></lut1>
							<asc_sop></asc_sop>
							<asc_sat></asc_sat>
							<lut2></lut2>
						</colorinfo>
						<labels>
							<label2>Violet</label2>
						</labels>
					</clipitem>
					<clipitem id="clipitem-738">
						<masterclipid>masterclip-735</masterclipid>
						<name>TKO_013_KID_Sh07640.mov</name>
						<enabled>TRUE</enabled>
						<duration>130</duration>
						<rate>
							<timebase>24</timebase>
							<ntsc>TRUE</ntsc>
						</rate>
						<start>60951</start>
						<end>61073</end>
						<in>4</in>
						<out>126</out>
						<pproTicksIn>42378336000</pproTicksIn>
						<pproTicksOut>1334917584000</pproTicksOut>
						<alphatype>none</alphatype>
						<pixelaspectratio>square</pixelaspectratio>
						<anamorphic>FALSE</anamorphic>
						<file id="file-735">
							<name>TKO_013_KID_Sh07640.mov</name>
							<pathurl>file://tri-stor01/Projects/TKO/SHOTS/_Refs_Movs_Burnin_FrameCounter/TKO_013_KID_Sh07640.mov</pathurl>
							<rate>
								<timebase>24</timebase>
								<ntsc>TRUE</ntsc>
							</rate>
							<duration>130</duration>
							<timecode>
								<rate>
									<timebase>24</timebase>
									<ntsc>TRUE</ntsc>
								</rate>
								<string>16:14:06:05</string>
								<frame>1402709</frame>
								<displayformat>NDF</displayformat>
								<reel>
									<name>B0060002</name>
								</reel>
							</timecode>
							<media>
								<video>
									<samplecharacteristics>
										<rate>
											<timebase>24</timebase>
											<ntsc>TRUE</ntsc>
										</rate>
										<width>4096</width>
										<height>2160</height>
										<anamorphic>FALSE</anamorphic>
										<pixelaspectratio>square</pixelaspectratio>
										<fielddominance>none</fielddominance>
									</samplecharacteristics>
								</video>
							</media>
						</file>
						<logginginfo>
							<description></description>
							<scene></scene>
							<shottake></shottake>
							<lognote></lognote>
							<good></good>
							<originalvideofilename></originalvideofilename>
							<originalaudiofilename></originalaudiofilename>
						</logginginfo>
						<colorinfo>
							<lut></lut>
							<lut1></lut1>
							<asc_sop></asc_sop>
							<asc_sat></asc_sat>
							<lut2></lut2>
						</colorinfo>
						<labels>
							<label2>Violet</label2>
						</labels>
					</clipitem>
					<clipitem id="clipitem-739">
						<masterclipid>masterclip-736</masterclipid>
						<name>TKO_013_KID_Sh07650.mov</name>
						<enabled>TRUE</enabled>
						<duration>60</duration>
						<rate>
							<timebase>24</timebase>
							<ntsc>TRUE</ntsc>
						</rate>
						<start>61073</start>
						<end>61125</end>
						<in>4</in>
						<out>56</out>
						<pproTicksIn>42378336000</pproTicksIn>
						<pproTicksOut>593296704000</pproTicksOut>
						<alphatype>none</alphatype>
						<pixelaspectratio>square</pixelaspectratio>
						<anamorphic>FALSE</anamorphic>
						<file id="file-736">
							<name>TKO_013_KID_Sh07650.mov</name>
							<pathurl>file://tri-stor01/Projects/TKO/SHOTS/_Refs_Movs_Burnin_FrameCounter/TKO_013_KID_Sh07650.mov</pathurl>
							<rate>
								<timebase>24</timebase>
								<ntsc>TRUE</ntsc>
							</rate>
							<duration>60</duration>
							<timecode>
								<rate>
									<timebase>24</timebase>
									<ntsc>TRUE</ntsc>
								</rate>
								<string>16:14:11:07</string>
								<frame>1402831</frame>
								<displayformat>NDF</displayformat>
								<reel>
									<name>A0090002</name>
								</reel>
							</timecode>
							<media>
								<video>
									<samplecharacteristics>
										<rate>
											<timebase>24</timebase>
											<ntsc>TRUE</ntsc>
										</rate>
										<width>4096</width>
										<height>2160</height>
										<anamorphic>FALSE</anamorphic>
										<pixelaspectratio>square</pixelaspectratio>
										<fielddominance>none</fielddominance>
									</samplecharacteristics>
								</video>
							</media>
						</file>
						<logginginfo>
							<description></description>
							<scene></scene>
							<shottake></shottake>
							<lognote></lognote>
							<good></good>
							<originalvideofilename></originalvideofilename>
							<originalaudiofilename></originalaudiofilename>
						</logginginfo>
						<colorinfo>
							<lut></lut>
							<lut1></lut1>
							<asc_sop></asc_sop>
							<asc_sat></asc_sat>
							<lut2></lut2>
						</colorinfo>
						<labels>
							<label2>Violet</label2>
						</labels>
					</clipitem>
					<clipitem id="clipitem-740">
						<masterclipid>masterclip-737</masterclipid>
						<name>TKO_013_KID_Sh07660.mov</name>
						<enabled>TRUE</enabled>
						<duration>61</duration>
						<rate>
							<timebase>24</timebase>
							<ntsc>TRUE</ntsc>
						</rate>
						<start>61125</start>
						<end>61178</end>
						<in>4</in>
						<out>57</out>
						<pproTicksIn>42378336000</pproTicksIn>
						<pproTicksOut>603891288000</pproTicksOut>
						<alphatype>none</alphatype>
						<pixelaspectratio>square</pixelaspectratio>
						<anamorphic>FALSE</anamorphic>
						<file id="file-737">
							<name>TKO_013_KID_Sh07660.mov</name>
							<pathurl>file://tri-stor01/Projects/TKO/SHOTS/_Refs_Movs_Burnin_FrameCounter/TKO_013_KID_Sh07660.mov</pathurl>
							<rate>
								<timebase>24</timebase>
								<ntsc>TRUE</ntsc>
							</rate>
							<duration>61</duration>
							<timecode>
								<rate>
									<timebase>24</timebase>
									<ntsc>TRUE</ntsc>
								</rate>
								<string>16:14:13:11</string>
								<frame>1402883</frame>
								<displayformat>NDF</displayformat>
								<reel>
									<name>B0060002</name>
								</reel>
							</timecode>
							<media>
								<video>
									<samplecharacteristics>
										<rate>
											<timebase>24</timebase>
											<ntsc>TRUE</ntsc>
										</rate>
										<width>4096</width>
										<height>2160</height>
										<anamorphic>FALSE</anamorphic>
										<pixelaspectratio>square</pixelaspectratio>
										<fielddominance>none</fielddominance>
									</samplecharacteristics>
								</video>
							</media>
						</file>
						<logginginfo>
							<description></description>
							<scene></scene>
							<shottake></shottake>
							<lognote></lognote>
							<good></good>
							<originalvideofilename></originalvideofilename>
							<originalaudiofilename></originalaudiofilename>
						</logginginfo>
						<colorinfo>
							<lut></lut>
							<lut1></lut1>
							<asc_sop></asc_sop>
							<asc_sat></asc_sat>
							<lut2></lut2>
						</colorinfo>
						<labels>
							<label2>Violet</label2>
						</labels>
					</clipitem>
					<clipitem id="clipitem-741">
						<masterclipid>masterclip-738</masterclipid>
						<name>TKO_013_KID_Sh07670.mov</name>
						<enabled>TRUE</enabled>
						<duration>52</duration>
						<rate>
							<timebase>24</timebase>
							<ntsc>TRUE</ntsc>
						</rate>
						<start>61178</start>
						<end>61222</end>
						<in>4</in>
						<out>48</out>
						<pproTicksIn>42378336000</pproTicksIn>
						<pproTicksOut>508540032000</pproTicksOut>
						<alphatype>none</alphatype>
						<pixelaspectratio>square</pixelaspectratio>
						<anamorphic>FALSE</anamorphic>
						<file id="file-738">
							<name>TKO_013_KID_Sh07670.mov</name>
							<pathurl>file://tri-stor01/Projects/TKO/SHOTS/_Refs_Movs_Burnin_FrameCounter/TKO_013_KID_Sh07670.mov</pathurl>
							<rate>
								<timebase>24</timebase>
								<ntsc>TRUE</ntsc>
							</rate>
							<duration>52</duration>
							<timecode>
								<rate>
									<timebase>24</timebase>
									<ntsc>TRUE</ntsc>
								</rate>
								<string>02:25:04:07</string>
								<frame>208903</frame>
								<displayformat>NDF</displayformat>
								<reel>
									<name>C0040002</name>
								</reel>
							</timecode>
							<media>
								<video>
									<samplecharacteristics>
										<rate>
											<timebase>24</timebase>
											<ntsc>TRUE</ntsc>
										</rate>
										<width>3840</width>
										<height>2160</height>
										<anamorphic>FALSE</anamorphic>
										<pixelaspectratio>square</pixelaspectratio>
										<fielddominance>none</fielddominance>
									</samplecharacteristics>
								</video>
							</media>
						</file>
						<logginginfo>
							<description></description>
							<scene></scene>
							<shottake></shottake>
							<lognote></lognote>
							<good></good>
							<originalvideofilename></originalvideofilename>
							<originalaudiofilename></originalaudiofilename>
						</logginginfo>
						<colorinfo>
							<lut></lut>
							<lut1></lut1>
							<asc_sop></asc_sop>
							<asc_sat></asc_sat>
							<lut2></lut2>
						</colorinfo>
						<labels>
							<label2>Violet</label2>
						</labels>
					</clipitem>
					<clipitem id="clipitem-742">
						<masterclipid>masterclip-739</masterclipid>
						<name>TKO_013_KID_Sh07680.mov</name>
						<enabled>TRUE</enabled>
						<duration>89</duration>
						<rate>
							<timebase>24</timebase>
							<ntsc>TRUE</ntsc>
						</rate>
						<start>61222</start>
						<end>61303</end>
						<in>4</in>
						<out>85</out>
						<pproTicksIn>42378336000</pproTicksIn>
						<pproTicksOut>900539640000</pproTicksOut>
						<alphatype>none</alphatype>
						<pixelaspectratio>square</pixelaspectratio>
						<anamorphic>FALSE</anamorphic>
						<file id="file-739">
							<name>TKO_013_KID_Sh07680.mov</name>
							<pathurl>file://tri-stor01/Projects/TKO/SHOTS/_Refs_Movs_Burnin_FrameCounter/TKO_013_KID_Sh07680.mov</pathurl>
							<rate>
								<timebase>24</timebase>
								<ntsc>TRUE</ntsc>
							</rate>
							<duration>89</duration>
							<timecode>
								<rate>
									<timebase>24</timebase>
									<ntsc>TRUE</ntsc>
								</rate>
								<string>16:14:17:12</string>
								<frame>1402980</frame>
								<displayformat>NDF</displayformat>
								<reel>
									<name>B0060002</name>
								</reel>
							</timecode>
							<media>
								<video>
									<samplecharacteristics>
										<rate>
											<timebase>24</timebase>
											<ntsc>TRUE</ntsc>
										</rate>
										<width>4096</width>
										<height>2160</height>
										<anamorphic>FALSE</anamorphic>
										<pixelaspectratio>square</pixelaspectratio>
										<fielddominance>none</fielddominance>
									</samplecharacteristics>
								</video>
							</media>
						</file>
						<logginginfo>
							<description></description>
							<scene></scene>
							<shottake></shottake>
							<lognote></lognote>
							<good></good>
							<originalvideofilename></originalvideofilename>
							<originalaudiofilename></originalaudiofilename>
						</logginginfo>
						<colorinfo>
							<lut></lut>
							<lut1></lut1>
							<asc_sop></asc_sop>
							<asc_sat></asc_sat>
							<lut2></lut2>
						</colorinfo>
						<labels>
							<label2>Violet</label2>
						</labels>
					</clipitem>
					<clipitem id="clipitem-743">
						<masterclipid>masterclip-740</masterclipid>
						<name>TKO_013_KID_Sh07710.mov</name>
						<enabled>TRUE</enabled>
						<duration>139</duration>
						<rate>
							<timebase>24</timebase>
							<ntsc>TRUE</ntsc>
						</rate>
						<start>61303</start>
						<end>61434</end>
						<in>4</in>
						<out>135</out>
						<pproTicksIn>42378336000</pproTicksIn>
						<pproTicksOut>1430268840000</pproTicksOut>
						<alphatype>none</alphatype>
						<pixelaspectratio>square</pixelaspectratio>
						<anamorphic>FALSE</anamorphic>
						<file id="file-740">
							<name>TKO_013_KID_Sh07710.mov</name>
							<pathurl>file://tri-stor01/Projects/TKO/SHOTS/_Refs_Movs_Burnin_FrameCounter/TKO_013_KID_Sh07710.mov</pathurl>
							<rate>
								<timebase>24</timebase>
								<ntsc>TRUE</ntsc>
							</rate>
							<duration>139</duration>
							<timecode>
								<rate>
									<timebase>24</timebase>
									<ntsc>TRUE</ntsc>
								</rate>
								<string>16:19:35:17</string>
								<frame>1410617</frame>
								<displayformat>NDF</displayformat>
								<reel>
									<name>A0090003</name>
								</reel>
							</timecode>
							<media>
								<video>
									<samplecharacteristics>
										<rate>
											<timebase>24</timebase>
											<ntsc>TRUE</ntsc>
										</rate>
										<width>4096</width>
										<height>2160</height>
										<anamorphic>FALSE</anamorphic>
										<pixelaspectratio>square</pixelaspectratio>
										<fielddominance>none</fielddominance>
									</samplecharacteristics>
								</video>
							</media>
						</file>
						<logginginfo>
							<description></description>
							<scene></scene>
							<shottake></shottake>
							<lognote></lognote>
							<good></good>
							<originalvideofilename></originalvideofilename>
							<originalaudiofilename></originalaudiofilename>
						</logginginfo>
						<colorinfo>
							<lut></lut>
							<lut1></lut1>
							<asc_sop></asc_sop>
							<asc_sat></asc_sat>
							<lut2></lut2>
						</colorinfo>
						<labels>
							<label2>Violet</label2>
						</labels>
					</clipitem>
					<clipitem id="clipitem-744">
						<masterclipid>masterclip-741</masterclipid>
						<name>TKO_013_KID_Sh07720.mov</name>
						<enabled>TRUE</enabled>
						<duration>90</duration>
						<rate>
							<timebase>24</timebase>
							<ntsc>TRUE</ntsc>
						</rate>
						<start>61434</start>
						<end>61516</end>
						<in>4</in>
						<out>86</out>
						<pproTicksIn>42378336000</pproTicksIn>
						<pproTicksOut>911134224000</pproTicksOut>
						<alphatype>none</alphatype>
						<pixelaspectratio>square</pixelaspectratio>
						<anamorphic>FALSE</anamorphic>
						<file id="file-741">
							<name>TKO_013_KID_Sh07720.mov</name>
							<pathurl>file://tri-stor01/Projects/TKO/SHOTS/_Refs_Movs_Burnin_FrameCounter/TKO_013_KID_Sh07720.mov</pathurl>
							<rate>
								<timebase>24</timebase>
								<ntsc>TRUE</ntsc>
							</rate>
							<duration>90</duration>
							<timecode>
								<rate>
									<timebase>24</timebase>
									<ntsc>TRUE</ntsc>
								</rate>
								<string>00:00:00:00</string>
								<frame>0</frame>
								<displayformat>NDF</displayformat>
							</timecode>
							<media>
								<video>
									<samplecharacteristics>
										<rate>
											<timebase>24</timebase>
											<ntsc>TRUE</ntsc>
										</rate>
										<width>4096</width>
										<height>2160</height>
										<anamorphic>FALSE</anamorphic>
										<pixelaspectratio>square</pixelaspectratio>
										<fielddominance>none</fielddominance>
									</samplecharacteristics>
								</video>
							</media>
						</file>
						<logginginfo>
							<description></description>
							<scene></scene>
							<shottake></shottake>
							<lognote></lognote>
							<good></good>
							<originalvideofilename></originalvideofilename>
							<originalaudiofilename></originalaudiofilename>
						</logginginfo>
						<colorinfo>
							<lut></lut>
							<lut1></lut1>
							<asc_sop></asc_sop>
							<asc_sat></asc_sat>
							<lut2></lut2>
						</colorinfo>
						<labels>
							<label2>Violet</label2>
						</labels>
					</clipitem>
					<clipitem id="clipitem-745">
						<masterclipid>masterclip-742</masterclipid>
						<name>TKO_013_KID_Sh07730.mov</name>
						<enabled>TRUE</enabled>
						<duration>129</duration>
						<rate>
							<timebase>24</timebase>
							<ntsc>TRUE</ntsc>
						</rate>
						<start>61516</start>
						<end>61637</end>
						<in>4</in>
						<out>125</out>
						<pproTicksIn>42378336000</pproTicksIn>
						<pproTicksOut>1324323000000</pproTicksOut>
						<alphatype>none</alphatype>
						<pixelaspectratio>square</pixelaspectratio>
						<anamorphic>FALSE</anamorphic>
						<file id="file-742">
							<name>TKO_013_KID_Sh07730.mov</name>
							<pathurl>file://tri-stor01/Projects/TKO/SHOTS/_Refs_Movs_Burnin_FrameCounter/TKO_013_KID_Sh07730.mov</pathurl>
							<rate>
								<timebase>24</timebase>
								<ntsc>TRUE</ntsc>
							</rate>
							<duration>129</duration>
							<timecode>
								<rate>
									<timebase>24</timebase>
									<ntsc>TRUE</ntsc>
								</rate>
								<string>21:36:48:15</string>
								<frame>1867407</frame>
								<displayformat>NDF</displayformat>
								<reel>
									<name>A0280015</name>
								</reel>
							</timecode>
							<media>
								<video>
									<samplecharacteristics>
										<rate>
											<timebase>24</timebase>
											<ntsc>TRUE</ntsc>
										</rate>
										<width>4096</width>
										<height>2160</height>
										<anamorphic>FALSE</anamorphic>
										<pixelaspectratio>square</pixelaspectratio>
										<fielddominance>none</fielddominance>
									</samplecharacteristics>
								</video>
							</media>
						</file>
						<logginginfo>
							<description></description>
							<scene></scene>
							<shottake></shottake>
							<lognote></lognote>
							<good></good>
							<originalvideofilename></originalvideofilename>
							<originalaudiofilename></originalaudiofilename>
						</logginginfo>
						<colorinfo>
							<lut></lut>
							<lut1></lut1>
							<asc_sop></asc_sop>
							<asc_sat></asc_sat>
							<lut2></lut2>
						</colorinfo>
						<labels>
							<label2>Violet</label2>
						</labels>
					</clipitem>
					<clipitem id="clipitem-746">
						<masterclipid>masterclip-743</masterclipid>
						<name>TKO_013_KID_Sh07740.mov</name>
						<enabled>TRUE</enabled>
						<duration>64</duration>
						<rate>
							<timebase>24</timebase>
							<ntsc>TRUE</ntsc>
						</rate>
						<start>61637</start>
						<end>61693</end>
						<in>4</in>
						<out>60</out>
						<pproTicksIn>42378336000</pproTicksIn>
						<pproTicksOut>635675040000</pproTicksOut>
						<alphatype>none</alphatype>
						<pixelaspectratio>square</pixelaspectratio>
						<anamorphic>FALSE</anamorphic>
						<file id="file-743">
							<name>TKO_013_KID_Sh07740.mov</name>
							<pathurl>file://tri-stor01/Projects/TKO/SHOTS/_Refs_Movs_Burnin_FrameCounter/TKO_013_KID_Sh07740.mov</pathurl>
							<rate>
								<timebase>24</timebase>
								<ntsc>TRUE</ntsc>
							</rate>
							<duration>64</duration>
							<timecode>
								<rate>
									<timebase>24</timebase>
									<ntsc>TRUE</ntsc>
								</rate>
								<string>00:00:00:00</string>
								<frame>0</frame>
								<displayformat>NDF</displayformat>
							</timecode>
							<media>
								<video>
									<samplecharacteristics>
										<rate>
											<timebase>24</timebase>
											<ntsc>TRUE</ntsc>
										</rate>
										<width>4096</width>
										<height>2160</height>
										<anamorphic>FALSE</anamorphic>
										<pixelaspectratio>square</pixelaspectratio>
										<fielddominance>none</fielddominance>
									</samplecharacteristics>
								</video>
							</media>
						</file>
						<logginginfo>
							<description></description>
							<scene></scene>
							<shottake></shottake>
							<lognote></lognote>
							<good></good>
							<originalvideofilename></originalvideofilename>
							<originalaudiofilename></originalaudiofilename>
						</logginginfo>
						<colorinfo>
							<lut></lut>
							<lut1></lut1>
							<asc_sop></asc_sop>
							<asc_sat></asc_sat>
							<lut2></lut2>
						</colorinfo>
						<labels>
							<label2>Violet</label2>
						</labels>
					</clipitem>
					<clipitem id="clipitem-747">
						<masterclipid>masterclip-744</masterclipid>
						<name>TKO_013_KID_Sh07750.mov</name>
						<enabled>TRUE</enabled>
						<duration>96</duration>
						<rate>
							<timebase>24</timebase>
							<ntsc>TRUE</ntsc>
						</rate>
						<start>61693</start>
						<end>61781</end>
						<in>4</in>
						<out>92</out>
						<pproTicksIn>42378336000</pproTicksIn>
						<pproTicksOut>974701728000</pproTicksOut>
						<alphatype>none</alphatype>
						<pixelaspectratio>square</pixelaspectratio>
						<anamorphic>FALSE</anamorphic>
						<file id="file-744">
							<name>TKO_013_KID_Sh07750.mov</name>
							<pathurl>file://tri-stor01/Projects/TKO/SHOTS/_Refs_Movs_Burnin_FrameCounter/TKO_013_KID_Sh07750.mov</pathurl>
							<rate>
								<timebase>24</timebase>
								<ntsc>TRUE</ntsc>
							</rate>
							<duration>96</duration>
							<timecode>
								<rate>
									<timebase>24</timebase>
									<ntsc>TRUE</ntsc>
								</rate>
								<string>00:00:00:00</string>
								<frame>0</frame>
								<displayformat>NDF</displayformat>
							</timecode>
							<media>
								<video>
									<samplecharacteristics>
										<rate>
											<timebase>24</timebase>
											<ntsc>TRUE</ntsc>
										</rate>
										<width>4096</width>
										<height>2160</height>
										<anamorphic>FALSE</anamorphic>
										<pixelaspectratio>square</pixelaspectratio>
										<fielddominance>none</fielddominance>
									</samplecharacteristics>
								</video>
							</media>
						</file>
						<logginginfo>
							<description></description>
							<scene></scene>
							<shottake></shottake>
							<lognote></lognote>
							<good></good>
							<originalvideofilename></originalvideofilename>
							<originalaudiofilename></originalaudiofilename>
						</logginginfo>
						<colorinfo>
							<lut></lut>
							<lut1></lut1>
							<asc_sop></asc_sop>
							<asc_sat></asc_sat>
							<lut2></lut2>
						</colorinfo>
						<labels>
							<label2>Violet</label2>
						</labels>
					</clipitem>
					<clipitem id="clipitem-748">
						<masterclipid>masterclip-745</masterclipid>
						<name>TKO_013_KID_Sh07760.mov</name>
						<enabled>TRUE</enabled>
						<duration>68</duration>
						<rate>
							<timebase>24</timebase>
							<ntsc>TRUE</ntsc>
						</rate>
						<start>61781</start>
						<end>61841</end>
						<in>4</in>
						<out>64</out>
						<pproTicksIn>42378336000</pproTicksIn>
						<pproTicksOut>678053376000</pproTicksOut>
						<alphatype>none</alphatype>
						<pixelaspectratio>square</pixelaspectratio>
						<anamorphic>FALSE</anamorphic>
						<file id="file-745">
							<name>TKO_013_KID_Sh07760.mov</name>
							<pathurl>file://tri-stor01/Projects/TKO/SHOTS/_Refs_Movs_Burnin_FrameCounter/TKO_013_KID_Sh07760.mov</pathurl>
							<rate>
								<timebase>24</timebase>
								<ntsc>TRUE</ntsc>
							</rate>
							<duration>68</duration>
							<timecode>
								<rate>
									<timebase>24</timebase>
									<ntsc>TRUE</ntsc>
								</rate>
								<string>00:34:21:10</string>
								<frame>49474</frame>
								<displayformat>NDF</displayformat>
							</timecode>
							<media>
								<video>
									<samplecharacteristics>
										<rate>
											<timebase>24</timebase>
											<ntsc>TRUE</ntsc>
										</rate>
										<width>1280</width>
										<height>720</height>
										<anamorphic>FALSE</anamorphic>
										<pixelaspectratio>square</pixelaspectratio>
										<fielddominance>none</fielddominance>
									</samplecharacteristics>
								</video>
							</media>
						</file>
						<logginginfo>
							<description></description>
							<scene></scene>
							<shottake></shottake>
							<lognote></lognote>
							<good></good>
							<originalvideofilename></originalvideofilename>
							<originalaudiofilename></originalaudiofilename>
						</logginginfo>
						<colorinfo>
							<lut></lut>
							<lut1></lut1>
							<asc_sop></asc_sop>
							<asc_sat></asc_sat>
							<lut2></lut2>
						</colorinfo>
						<labels>
							<label2>Violet</label2>
						</labels>
					</clipitem>
					<clipitem id="clipitem-749">
						<masterclipid>masterclip-746</masterclipid>
						<name>TKO_013_KID_Sh07770.mov</name>
						<enabled>TRUE</enabled>
						<duration>84</duration>
						<rate>
							<timebase>24</timebase>
							<ntsc>TRUE</ntsc>
						</rate>
						<start>61841</start>
						<end>61917</end>
						<in>4</in>
						<out>80</out>
						<pproTicksIn>42378336000</pproTicksIn>
						<pproTicksOut>847566720000</pproTicksOut>
						<alphatype>none</alphatype>
						<pixelaspectratio>square</pixelaspectratio>
						<anamorphic>FALSE</anamorphic>
						<file id="file-746">
							<name>TKO_013_KID_Sh07770.mov</name>
							<pathurl>file://tri-stor01/Projects/TKO/SHOTS/_Refs_Movs_Burnin_FrameCounter/TKO_013_KID_Sh07770.mov</pathurl>
							<rate>
								<timebase>24</timebase>
								<ntsc>TRUE</ntsc>
							</rate>
							<duration>84</duration>
							<timecode>
								<rate>
									<timebase>24</timebase>
									<ntsc>TRUE</ntsc>
								</rate>
								<string>17:28:59:19</string>
								<frame>1510555</frame>
								<displayformat>NDF</displayformat>
								<reel>
									<name>A0090008</name>
								</reel>
							</timecode>
							<media>
								<video>
									<samplecharacteristics>
										<rate>
											<timebase>24</timebase>
											<ntsc>TRUE</ntsc>
										</rate>
										<width>4096</width>
										<height>2160</height>
										<anamorphic>FALSE</anamorphic>
										<pixelaspectratio>square</pixelaspectratio>
										<fielddominance>none</fielddominance>
									</samplecharacteristics>
								</video>
							</media>
						</file>
						<logginginfo>
							<description></description>
							<scene></scene>
							<shottake></shottake>
							<lognote></lognote>
							<good></good>
							<originalvideofilename></originalvideofilename>
							<originalaudiofilename></originalaudiofilename>
						</logginginfo>
						<colorinfo>
							<lut></lut>
							<lut1></lut1>
							<asc_sop></asc_sop>
							<asc_sat></asc_sat>
							<lut2></lut2>
						</colorinfo>
						<labels>
							<label2>Violet</label2>
						</labels>
					</clipitem>
					<clipitem id="clipitem-750">
						<masterclipid>masterclip-747</masterclipid>
						<name>TKO_013_KID_Sh07780.mov</name>
						<enabled>TRUE</enabled>
						<duration>50</duration>
						<rate>
							<timebase>24</timebase>
							<ntsc>TRUE</ntsc>
						</rate>
						<start>61917</start>
						<end>61959</end>
						<in>4</in>
						<out>46</out>
						<pproTicksIn>42378336000</pproTicksIn>
						<pproTicksOut>487350864000</pproTicksOut>
						<alphatype>none</alphatype>
						<pixelaspectratio>square</pixelaspectratio>
						<anamorphic>FALSE</anamorphic>
						<file id="file-747">
							<name>TKO_013_KID_Sh07780.mov</name>
							<pathurl>file://tri-stor01/Projects/TKO/SHOTS/_Refs_Movs_Burnin_FrameCounter/TKO_013_KID_Sh07780.mov</pathurl>
							<rate>
								<timebase>24</timebase>
								<ntsc>TRUE</ntsc>
							</rate>
							<duration>50</duration>
							<timecode>
								<rate>
									<timebase>24</timebase>
									<ntsc>TRUE</ntsc>
								</rate>
								<string>17:29:03:04</string>
								<frame>1510636</frame>
								<displayformat>NDF</displayformat>
								<reel>
									<name>B0060010</name>
								</reel>
							</timecode>
							<media>
								<video>
									<samplecharacteristics>
										<rate>
											<timebase>24</timebase>
											<ntsc>TRUE</ntsc>
										</rate>
										<width>4096</width>
										<height>2160</height>
										<anamorphic>FALSE</anamorphic>
										<pixelaspectratio>square</pixelaspectratio>
										<fielddominance>none</fielddominance>
									</samplecharacteristics>
								</video>
							</media>
						</file>
						<logginginfo>
							<description></description>
							<scene></scene>
							<shottake></shottake>
							<lognote></lognote>
							<good></good>
							<originalvideofilename></originalvideofilename>
							<originalaudiofilename></originalaudiofilename>
						</logginginfo>
						<colorinfo>
							<lut></lut>
							<lut1></lut1>
							<asc_sop></asc_sop>
							<asc_sat></asc_sat>
							<lut2></lut2>
						</colorinfo>
						<labels>
							<label2>Violet</label2>
						</labels>
					</clipitem>
					<clipitem id="clipitem-751">
						<masterclipid>masterclip-748</masterclipid>
						<name>TKO_013_KID_Sh07790.mov</name>
						<enabled>TRUE</enabled>
						<duration>55</duration>
						<rate>
							<timebase>24</timebase>
							<ntsc>TRUE</ntsc>
						</rate>
						<start>61959</start>
						<end>62006</end>
						<in>4</in>
						<out>51</out>
						<pproTicksIn>42378336000</pproTicksIn>
						<pproTicksOut>540323784000</pproTicksOut>
						<alphatype>none</alphatype>
						<pixelaspectratio>square</pixelaspectratio>
						<anamorphic>FALSE</anamorphic>
						<file id="file-748">
							<name>TKO_013_KID_Sh07790.mov</name>
							<pathurl>file://tri-stor01/Projects/TKO/SHOTS/_Refs_Movs_Burnin_FrameCounter/TKO_013_KID_Sh07790.mov</pathurl>
							<rate>
								<timebase>24</timebase>
								<ntsc>TRUE</ntsc>
							</rate>
							<duration>55</duration>
							<timecode>
								<rate>
									<timebase>24</timebase>
									<ntsc>TRUE</ntsc>
								</rate>
								<string>17:29:04:17</string>
								<frame>1510673</frame>
								<displayformat>NDF</displayformat>
								<reel>
									<name>A0090008</name>
								</reel>
							</timecode>
							<media>
								<video>
									<samplecharacteristics>
										<rate>
											<timebase>24</timebase>
											<ntsc>TRUE</ntsc>
										</rate>
										<width>4096</width>
										<height>2160</height>
										<anamorphic>FALSE</anamorphic>
										<pixelaspectratio>square</pixelaspectratio>
										<fielddominance>none</fielddominance>
									</samplecharacteristics>
								</video>
							</media>
						</file>
						<logginginfo>
							<description></description>
							<scene></scene>
							<shottake></shottake>
							<lognote></lognote>
							<good></good>
							<originalvideofilename></originalvideofilename>
							<originalaudiofilename></originalaudiofilename>
						</logginginfo>
						<colorinfo>
							<lut></lut>
							<lut1></lut1>
							<asc_sop></asc_sop>
							<asc_sat></asc_sat>
							<lut2></lut2>
						</colorinfo>
						<labels>
							<label2>Violet</label2>
						</labels>
					</clipitem>
					<clipitem id="clipitem-752">
						<masterclipid>masterclip-749</masterclipid>
						<name>TKO_013_KID_Sh07800.mov</name>
						<enabled>TRUE</enabled>
						<duration>83</duration>
						<rate>
							<timebase>24</timebase>
							<ntsc>TRUE</ntsc>
						</rate>
						<start>62006</start>
						<end>62081</end>
						<in>4</in>
						<out>79</out>
						<pproTicksIn>42378336000</pproTicksIn>
						<pproTicksOut>836972136000</pproTicksOut>
						<alphatype>none</alphatype>
						<pixelaspectratio>square</pixelaspectratio>
						<anamorphic>FALSE</anamorphic>
						<file id="file-749">
							<name>TKO_013_KID_Sh07800.mov</name>
							<pathurl>file://tri-stor01/Projects/TKO/SHOTS/_Refs_Movs_Burnin_FrameCounter/TKO_013_KID_Sh07800.mov</pathurl>
							<rate>
								<timebase>24</timebase>
								<ntsc>TRUE</ntsc>
							</rate>
							<duration>83</duration>
							<timecode>
								<rate>
									<timebase>24</timebase>
									<ntsc>TRUE</ntsc>
								</rate>
								<string>17:29:06:21</string>
								<frame>1510725</frame>
								<displayformat>NDF</displayformat>
								<reel>
									<name>B0060010</name>
								</reel>
							</timecode>
							<media>
								<video>
									<samplecharacteristics>
										<rate>
											<timebase>24</timebase>
											<ntsc>TRUE</ntsc>
										</rate>
										<width>4096</width>
										<height>2160</height>
										<anamorphic>FALSE</anamorphic>
										<pixelaspectratio>square</pixelaspectratio>
										<fielddominance>none</fielddominance>
									</samplecharacteristics>
								</video>
							</media>
						</file>
						<logginginfo>
							<description></description>
							<scene></scene>
							<shottake></shottake>
							<lognote></lognote>
							<good></good>
							<originalvideofilename></originalvideofilename>
							<originalaudiofilename></originalaudiofilename>
						</logginginfo>
						<colorinfo>
							<lut></lut>
							<lut1></lut1>
							<asc_sop></asc_sop>
							<asc_sat></asc_sat>
							<lut2></lut2>
						</colorinfo>
						<labels>
							<label2>Violet</label2>
						</labels>
					</clipitem>
					<clipitem id="clipitem-753">
						<masterclipid>masterclip-750</masterclipid>
						<name>TKO_013_KID_Sh07810.mov</name>
						<enabled>TRUE</enabled>
						<duration>77</duration>
						<rate>
							<timebase>24</timebase>
							<ntsc>TRUE</ntsc>
						</rate>
						<start>62081</start>
						<end>62150</end>
						<in>4</in>
						<out>73</out>
						<pproTicksIn>42378336000</pproTicksIn>
						<pproTicksOut>773404632000</pproTicksOut>
						<alphatype>none</alphatype>
						<pixelaspectratio>square</pixelaspectratio>
						<anamorphic>FALSE</anamorphic>
						<file id="file-750">
							<name>TKO_013_KID_Sh07810.mov</name>
							<pathurl>file://tri-stor01/Projects/TKO/SHOTS/_Refs_Movs_Burnin_FrameCounter/TKO_013_KID_Sh07810.mov</pathurl>
							<rate>
								<timebase>24</timebase>
								<ntsc>TRUE</ntsc>
							</rate>
							<duration>77</duration>
							<timecode>
								<rate>
									<timebase>24</timebase>
									<ntsc>TRUE</ntsc>
								</rate>
								<string>02:39:06:11</string>
								<frame>229115</frame>
								<displayformat>NDF</displayformat>
								<reel>
									<name>C0040008</name>
								</reel>
							</timecode>
							<media>
								<video>
									<samplecharacteristics>
										<rate>
											<timebase>24</timebase>
											<ntsc>TRUE</ntsc>
										</rate>
										<width>3840</width>
										<height>2160</height>
										<anamorphic>FALSE</anamorphic>
										<pixelaspectratio>square</pixelaspectratio>
										<fielddominance>none</fielddominance>
									</samplecharacteristics>
								</video>
							</media>
						</file>
						<logginginfo>
							<description></description>
							<scene></scene>
							<shottake></shottake>
							<lognote></lognote>
							<good></good>
							<originalvideofilename></originalvideofilename>
							<originalaudiofilename></originalaudiofilename>
						</logginginfo>
						<colorinfo>
							<lut></lut>
							<lut1></lut1>
							<asc_sop></asc_sop>
							<asc_sat></asc_sat>
							<lut2></lut2>
						</colorinfo>
						<labels>
							<label2>Violet</label2>
						</labels>
					</clipitem>
					<clipitem id="clipitem-754">
						<masterclipid>masterclip-751</masterclipid>
						<name>TKO_013_KID_Sh07820.mov</name>
						<enabled>TRUE</enabled>
						<duration>38</duration>
						<rate>
							<timebase>24</timebase>
							<ntsc>TRUE</ntsc>
						</rate>
						<start>62150</start>
						<end>62180</end>
						<in>4</in>
						<out>34</out>
						<pproTicksIn>42378336000</pproTicksIn>
						<pproTicksOut>360215856000</pproTicksOut>
						<alphatype>none</alphatype>
						<pixelaspectratio>square</pixelaspectratio>
						<anamorphic>FALSE</anamorphic>
						<file id="file-751">
							<name>TKO_013_KID_Sh07820.mov</name>
							<pathurl>file://tri-stor01/Projects/TKO/SHOTS/_Refs_Movs_Burnin_FrameCounter/TKO_013_KID_Sh07820.mov</pathurl>
							<rate>
								<timebase>24</timebase>
								<ntsc>TRUE</ntsc>
							</rate>
							<duration>38</duration>
							<timecode>
								<rate>
									<timebase>24</timebase>
									<ntsc>TRUE</ntsc>
								</rate>
								<string>17:29:12:21</string>
								<frame>1510869</frame>
								<displayformat>NDF</displayformat>
								<reel>
									<name>B0060010</name>
								</reel>
							</timecode>
							<media>
								<video>
									<samplecharacteristics>
										<rate>
											<timebase>24</timebase>
											<ntsc>TRUE</ntsc>
										</rate>
										<width>4096</width>
										<height>2160</height>
										<anamorphic>FALSE</anamorphic>
										<pixelaspectratio>square</pixelaspectratio>
										<fielddominance>none</fielddominance>
									</samplecharacteristics>
								</video>
							</media>
						</file>
						<logginginfo>
							<description></description>
							<scene></scene>
							<shottake></shottake>
							<lognote></lognote>
							<good></good>
							<originalvideofilename></originalvideofilename>
							<originalaudiofilename></originalaudiofilename>
						</logginginfo>
						<colorinfo>
							<lut></lut>
							<lut1></lut1>
							<asc_sop></asc_sop>
							<asc_sat></asc_sat>
							<lut2></lut2>
						</colorinfo>
						<labels>
							<label2>Violet</label2>
						</labels>
					</clipitem>
					<clipitem id="clipitem-755">
						<masterclipid>masterclip-752</masterclipid>
						<name>TKO_013_KID_Sh07830_V02.mov</name>
						<enabled>TRUE</enabled>
						<duration>46</duration>
						<rate>
							<timebase>24</timebase>
							<ntsc>TRUE</ntsc>
						</rate>
						<start>62180</start>
						<end>62212</end>
						<in>10</in>
						<out>42</out>
						<pproTicksIn>105945840000</pproTicksIn>
						<pproTicksOut>444972528000</pproTicksOut>
						<alphatype>none</alphatype>
						<pixelaspectratio>square</pixelaspectratio>
						<anamorphic>FALSE</anamorphic>
						<file id="file-752">
							<name>TKO_013_KID_Sh07830_V02.mov</name>
							<pathurl>file://tri-stor01/Projects/TKO/SHOTS/_Refs_Movs_Burnin_FrameCounter/TKO_013_KID_Sh07830_V02.mov</pathurl>
							<rate>
								<timebase>24</timebase>
								<ntsc>TRUE</ntsc>
							</rate>
							<duration>46</duration>
							<timecode>
								<rate>
									<timebase>24</timebase>
									<ntsc>TRUE</ntsc>
								</rate>
								<string>18:51:18:08</string>
								<frame>1629080</frame>
								<displayformat>NDF</displayformat>
								<reel>
									<name>A0030008</name>
								</reel>
							</timecode>
							<media>
								<video>
									<samplecharacteristics>
										<rate>
											<timebase>24</timebase>
											<ntsc>TRUE</ntsc>
										</rate>
										<width>4096</width>
										<height>2160</height>
										<anamorphic>FALSE</anamorphic>
										<pixelaspectratio>square</pixelaspectratio>
										<fielddominance>none</fielddominance>
									</samplecharacteristics>
								</video>
							</media>
						</file>
						<logginginfo>
							<description></description>
							<scene></scene>
							<shottake></shottake>
							<lognote></lognote>
							<good></good>
							<originalvideofilename></originalvideofilename>
							<originalaudiofilename></originalaudiofilename>
						</logginginfo>
						<colorinfo>
							<lut></lut>
							<lut1></lut1>
							<asc_sop></asc_sop>
							<asc_sat></asc_sat>
							<lut2></lut2>
						</colorinfo>
						<labels>
							<label2>Violet</label2>
						</labels>
					</clipitem>
					<clipitem id="clipitem-756">
						<masterclipid>masterclip-753</masterclipid>
						<name>TKO_013_KID_Sh07840_V02.mov</name>
						<enabled>TRUE</enabled>
						<duration>53</duration>
						<rate>
							<timebase>24</timebase>
							<ntsc>TRUE</ntsc>
						</rate>
						<start>62212</start>
						<end>62247</end>
						<in>14</in>
						<out>49</out>
						<pproTicksIn>148324176000</pproTicksIn>
						<pproTicksOut>519134616000</pproTicksOut>
						<alphatype>none</alphatype>
						<pixelaspectratio>square</pixelaspectratio>
						<anamorphic>FALSE</anamorphic>
						<file id="file-753">
							<name>TKO_013_KID_Sh07840_V02.mov</name>
							<pathurl>file://tri-stor01/Projects/TKO/SHOTS/_Refs_Movs_Burnin_FrameCounter/TKO_013_KID_Sh07840_V02.mov</pathurl>
							<rate>
								<timebase>24</timebase>
								<ntsc>TRUE</ntsc>
							</rate>
							<duration>53</duration>
							<timecode>
								<rate>
									<timebase>24</timebase>
									<ntsc>TRUE</ntsc>
								</rate>
								<string>18:51:20:02</string>
								<frame>1629122</frame>
								<displayformat>NDF</displayformat>
								<reel>
									<name>B0020028</name>
								</reel>
							</timecode>
							<media>
								<video>
									<samplecharacteristics>
										<rate>
											<timebase>24</timebase>
											<ntsc>TRUE</ntsc>
										</rate>
										<width>4096</width>
										<height>2160</height>
										<anamorphic>FALSE</anamorphic>
										<pixelaspectratio>square</pixelaspectratio>
										<fielddominance>none</fielddominance>
									</samplecharacteristics>
								</video>
							</media>
						</file>
						<logginginfo>
							<description></description>
							<scene></scene>
							<shottake></shottake>
							<lognote></lognote>
							<good></good>
							<originalvideofilename></originalvideofilename>
							<originalaudiofilename></originalaudiofilename>
						</logginginfo>
						<colorinfo>
							<lut></lut>
							<lut1></lut1>
							<asc_sop></asc_sop>
							<asc_sat></asc_sat>
							<lut2></lut2>
						</colorinfo>
						<labels>
							<label2>Violet</label2>
						</labels>
					</clipitem>
					<clipitem id="clipitem-757">
						<masterclipid>masterclip-754</masterclipid>
						<name>TKO_013_KID_Sh07850.mov</name>
						<enabled>TRUE</enabled>
						<duration>52</duration>
						<rate>
							<timebase>24</timebase>
							<ntsc>TRUE</ntsc>
						</rate>
						<start>62247</start>
						<end>62291</end>
						<in>4</in>
						<out>48</out>
						<pproTicksIn>42378336000</pproTicksIn>
						<pproTicksOut>508540032000</pproTicksOut>
						<alphatype>none</alphatype>
						<pixelaspectratio>square</pixelaspectratio>
						<anamorphic>FALSE</anamorphic>
						<file id="file-754">
							<name>TKO_013_KID_Sh07850.mov</name>
							<pathurl>file://tri-stor01/Projects/TKO/SHOTS/_Refs_Movs_Burnin_FrameCounter/TKO_013_KID_Sh07850.mov</pathurl>
							<rate>
								<timebase>24</timebase>
								<ntsc>TRUE</ntsc>
							</rate>
							<duration>52</duration>
							<timecode>
								<rate>
									<timebase>24</timebase>
									<ntsc>TRUE</ntsc>
								</rate>
								<string>17:29:16:20</string>
								<frame>1510964</frame>
								<displayformat>NDF</displayformat>
								<reel>
									<name>B0060010</name>
								</reel>
							</timecode>
							<media>
								<video>
									<samplecharacteristics>
										<rate>
											<timebase>24</timebase>
											<ntsc>TRUE</ntsc>
										</rate>
										<width>4096</width>
										<height>2160</height>
										<anamorphic>FALSE</anamorphic>
										<pixelaspectratio>square</pixelaspectratio>
										<fielddominance>none</fielddominance>
									</samplecharacteristics>
								</video>
							</media>
						</file>
						<logginginfo>
							<description></description>
							<scene></scene>
							<shottake></shottake>
							<lognote></lognote>
							<good></good>
							<originalvideofilename></originalvideofilename>
							<originalaudiofilename></originalaudiofilename>
						</logginginfo>
						<colorinfo>
							<lut></lut>
							<lut1></lut1>
							<asc_sop></asc_sop>
							<asc_sat></asc_sat>
							<lut2></lut2>
						</colorinfo>
						<labels>
							<label2>Violet</label2>
						</labels>
					</clipitem>
					<clipitem id="clipitem-758">
						<masterclipid>masterclip-755</masterclipid>
						<name>TKO_013_KID_Sh07860_V02.mov</name>
						<enabled>TRUE</enabled>
						<duration>91</duration>
						<rate>
							<timebase>24</timebase>
							<ntsc>TRUE</ntsc>
						</rate>
						<start>62291</start>
						<end>62364</end>
						<in>14</in>
						<out>87</out>
						<pproTicksIn>148324176000</pproTicksIn>
						<pproTicksOut>921728808000</pproTicksOut>
						<alphatype>none</alphatype>
						<pixelaspectratio>square</pixelaspectratio>
						<anamorphic>FALSE</anamorphic>
						<file id="file-755">
							<name>TKO_013_KID_Sh07860_V02.mov</name>
							<pathurl>file://tri-stor01/Projects/TKO/SHOTS/_Refs_Movs_Burnin_FrameCounter/TKO_013_KID_Sh07860_V02.mov</pathurl>
							<rate>
								<timebase>24</timebase>
								<ntsc>TRUE</ntsc>
							</rate>
							<duration>91</duration>
							<timecode>
								<rate>
									<timebase>24</timebase>
									<ntsc>TRUE</ntsc>
								</rate>
								<string>18:51:24:02</string>
								<frame>1629218</frame>
								<displayformat>NDF</displayformat>
								<reel>
									<name>B0020028</name>
								</reel>
							</timecode>
							<media>
								<video>
									<samplecharacteristics>
										<rate>
											<timebase>24</timebase>
											<ntsc>TRUE</ntsc>
										</rate>
										<width>4096</width>
										<height>2160</height>
										<anamorphic>FALSE</anamorphic>
										<pixelaspectratio>square</pixelaspectratio>
										<fielddominance>none</fielddominance>
									</samplecharacteristics>
								</video>
							</media>
						</file>
						<logginginfo>
							<description></description>
							<scene></scene>
							<shottake></shottake>
							<lognote></lognote>
							<good></good>
							<originalvideofilename></originalvideofilename>
							<originalaudiofilename></originalaudiofilename>
						</logginginfo>
						<colorinfo>
							<lut></lut>
							<lut1></lut1>
							<asc_sop></asc_sop>
							<asc_sat></asc_sat>
							<lut2></lut2>
						</colorinfo>
						<labels>
							<label2>Violet</label2>
						</labels>
					</clipitem>
					<clipitem id="clipitem-759">
						<masterclipid>masterclip-756</masterclipid>
						<name>TKO_013_KID_Sh07870.mov</name>
						<enabled>TRUE</enabled>
						<duration>44</duration>
						<rate>
							<timebase>24</timebase>
							<ntsc>TRUE</ntsc>
						</rate>
						<start>62364</start>
						<end>62400</end>
						<in>4</in>
						<out>40</out>
						<pproTicksIn>42378336000</pproTicksIn>
						<pproTicksOut>423783360000</pproTicksOut>
						<alphatype>none</alphatype>
						<pixelaspectratio>square</pixelaspectratio>
						<anamorphic>FALSE</anamorphic>
						<file id="file-756">
							<name>TKO_013_KID_Sh07870.mov</name>
							<pathurl>file://tri-stor01/Projects/TKO/SHOTS/_Refs_Movs_Burnin_FrameCounter/TKO_013_KID_Sh07870.mov</pathurl>
							<rate>
								<timebase>24</timebase>
								<ntsc>TRUE</ntsc>
							</rate>
							<duration>44</duration>
							<timecode>
								<rate>
									<timebase>24</timebase>
									<ntsc>TRUE</ntsc>
								</rate>
								<string>17:29:19:02</string>
								<frame>1511018</frame>
								<displayformat>NDF</displayformat>
								<reel>
									<name>B0060010</name>
								</reel>
							</timecode>
							<media>
								<video>
									<samplecharacteristics>
										<rate>
											<timebase>24</timebase>
											<ntsc>TRUE</ntsc>
										</rate>
										<width>4096</width>
										<height>2160</height>
										<anamorphic>FALSE</anamorphic>
										<pixelaspectratio>square</pixelaspectratio>
										<fielddominance>none</fielddominance>
									</samplecharacteristics>
								</video>
							</media>
						</file>
						<logginginfo>
							<description></description>
							<scene></scene>
							<shottake></shottake>
							<lognote></lognote>
							<good></good>
							<originalvideofilename></originalvideofilename>
							<originalaudiofilename></originalaudiofilename>
						</logginginfo>
						<colorinfo>
							<lut></lut>
							<lut1></lut1>
							<asc_sop></asc_sop>
							<asc_sat></asc_sat>
							<lut2></lut2>
						</colorinfo>
						<labels>
							<label2>Violet</label2>
						</labels>
					</clipitem>
					<clipitem id="clipitem-760">
						<masterclipid>masterclip-757</masterclipid>
						<name>TKO_013_KID_Sh07880.mov</name>
						<enabled>TRUE</enabled>
						<duration>33</duration>
						<rate>
							<timebase>24</timebase>
							<ntsc>TRUE</ntsc>
						</rate>
						<start>62400</start>
						<end>62425</end>
						<in>4</in>
						<out>29</out>
						<pproTicksIn>42378336000</pproTicksIn>
						<pproTicksOut>307242936000</pproTicksOut>
						<alphatype>none</alphatype>
						<pixelaspectratio>square</pixelaspectratio>
						<anamorphic>FALSE</anamorphic>
						<file id="file-757">
							<name>TKO_013_KID_Sh07880.mov</name>
							<pathurl>file://tri-stor01/Projects/TKO/SHOTS/_Refs_Movs_Burnin_FrameCounter/TKO_013_KID_Sh07880.mov</pathurl>
							<rate>
								<timebase>24</timebase>
								<ntsc>TRUE</ntsc>
							</rate>
							<duration>33</duration>
							<timecode>
								<rate>
									<timebase>24</timebase>
									<ntsc>TRUE</ntsc>
								</rate>
								<string>02:39:17:11</string>
								<frame>229379</frame>
								<displayformat>NDF</displayformat>
								<reel>
									<name>C0040008</name>
								</reel>
							</timecode>
							<media>
								<video>
									<samplecharacteristics>
										<rate>
											<timebase>24</timebase>
											<ntsc>TRUE</ntsc>
										</rate>
										<width>3840</width>
										<height>2160</height>
										<anamorphic>FALSE</anamorphic>
										<pixelaspectratio>square</pixelaspectratio>
										<fielddominance>none</fielddominance>
									</samplecharacteristics>
								</video>
							</media>
						</file>
						<logginginfo>
							<description></description>
							<scene></scene>
							<shottake></shottake>
							<lognote></lognote>
							<good></good>
							<originalvideofilename></originalvideofilename>
							<originalaudiofilename></originalaudiofilename>
						</logginginfo>
						<colorinfo>
							<lut></lut>
							<lut1></lut1>
							<asc_sop></asc_sop>
							<asc_sat></asc_sat>
							<lut2></lut2>
						</colorinfo>
						<labels>
							<label2>Violet</label2>
						</labels>
					</clipitem>
					<clipitem id="clipitem-761">
						<masterclipid>masterclip-758</masterclipid>
						<name>TKO_013_KID_Sh07890_V02.mov</name>
						<enabled>TRUE</enabled>
						<duration>66</duration>
						<rate>
							<timebase>24</timebase>
							<ntsc>TRUE</ntsc>
						</rate>
						<start>62425</start>
						<end>62473</end>
						<in>14</in>
						<out>62</out>
						<pproTicksIn>148324176000</pproTicksIn>
						<pproTicksOut>656864208000</pproTicksOut>
						<alphatype>none</alphatype>
						<pixelaspectratio>square</pixelaspectratio>
						<anamorphic>FALSE</anamorphic>
						<file id="file-758">
							<name>TKO_013_KID_Sh07890_V02.mov</name>
							<pathurl>file://tri-stor01/Projects/TKO/SHOTS/_Refs_Movs_Burnin_FrameCounter/TKO_013_KID_Sh07890_V02.mov</pathurl>
							<rate>
								<timebase>24</timebase>
								<ntsc>TRUE</ntsc>
							</rate>
							<duration>66</duration>
							<timecode>
								<rate>
									<timebase>24</timebase>
									<ntsc>TRUE</ntsc>
								</rate>
								<string>18:51:30:02</string>
								<frame>1629362</frame>
								<displayformat>NDF</displayformat>
								<reel>
									<name>B0020028</name>
								</reel>
							</timecode>
							<media>
								<video>
									<samplecharacteristics>
										<rate>
											<timebase>24</timebase>
											<ntsc>TRUE</ntsc>
										</rate>
										<width>4096</width>
										<height>2160</height>
										<anamorphic>FALSE</anamorphic>
										<pixelaspectratio>square</pixelaspectratio>
										<fielddominance>none</fielddominance>
									</samplecharacteristics>
								</video>
							</media>
						</file>
						<logginginfo>
							<description></description>
							<scene></scene>
							<shottake></shottake>
							<lognote></lognote>
							<good></good>
							<originalvideofilename></originalvideofilename>
							<originalaudiofilename></originalaudiofilename>
						</logginginfo>
						<colorinfo>
							<lut></lut>
							<lut1></lut1>
							<asc_sop></asc_sop>
							<asc_sat></asc_sat>
							<lut2></lut2>
						</colorinfo>
						<labels>
							<label2>Violet</label2>
						</labels>
					</clipitem>
					<clipitem id="clipitem-762">
						<masterclipid>masterclip-759</masterclipid>
						<name>TKO_013_KID_Sh07900.mov</name>
						<enabled>TRUE</enabled>
						<duration>77</duration>
						<rate>
							<timebase>24</timebase>
							<ntsc>TRUE</ntsc>
						</rate>
						<start>62473</start>
						<end>62542</end>
						<in>4</in>
						<out>73</out>
						<pproTicksIn>42378336000</pproTicksIn>
						<pproTicksOut>773404632000</pproTicksOut>
						<alphatype>none</alphatype>
						<pixelaspectratio>square</pixelaspectratio>
						<anamorphic>FALSE</anamorphic>
						<file id="file-759">
							<name>TKO_013_KID_Sh07900.mov</name>
							<pathurl>file://tri-stor01/Projects/TKO/SHOTS/_Refs_Movs_Burnin_FrameCounter/TKO_013_KID_Sh07900.mov</pathurl>
							<rate>
								<timebase>24</timebase>
								<ntsc>TRUE</ntsc>
							</rate>
							<duration>77</duration>
							<timecode>
								<rate>
									<timebase>24</timebase>
									<ntsc>TRUE</ntsc>
								</rate>
								<string>17:29:21:12</string>
								<frame>1511076</frame>
								<displayformat>NDF</displayformat>
								<reel>
									<name>A0090008</name>
								</reel>
							</timecode>
							<media>
								<video>
									<samplecharacteristics>
										<rate>
											<timebase>24</timebase>
											<ntsc>TRUE</ntsc>
										</rate>
										<width>4096</width>
										<height>2160</height>
										<anamorphic>FALSE</anamorphic>
										<pixelaspectratio>square</pixelaspectratio>
										<fielddominance>none</fielddominance>
									</samplecharacteristics>
								</video>
							</media>
						</file>
						<logginginfo>
							<description></description>
							<scene></scene>
							<shottake></shottake>
							<lognote></lognote>
							<good></good>
							<originalvideofilename></originalvideofilename>
							<originalaudiofilename></originalaudiofilename>
						</logginginfo>
						<colorinfo>
							<lut></lut>
							<lut1></lut1>
							<asc_sop></asc_sop>
							<asc_sat></asc_sat>
							<lut2></lut2>
						</colorinfo>
						<labels>
							<label2>Violet</label2>
						</labels>
					</clipitem>
					<clipitem id="clipitem-763">
						<masterclipid>masterclip-760</masterclipid>
						<name>TKO_013_KID_Sh07910_V02.mov</name>
						<enabled>TRUE</enabled>
						<duration>78</duration>
						<rate>
							<timebase>24</timebase>
							<ntsc>TRUE</ntsc>
						</rate>
						<start>62542</start>
						<end>62602</end>
						<in>14</in>
						<out>72</out>
						<pproTicksIn>148324176000</pproTicksIn>
						<pproTicksOut>762810048000</pproTicksOut>
						<alphatype>none</alphatype>
						<pixelaspectratio>square</pixelaspectratio>
						<anamorphic>FALSE</anamorphic>
						<file id="file-760">
							<name>TKO_013_KID_Sh07910_V02.mov</name>
							<pathurl>file://tri-stor01/Projects/TKO/SHOTS/_Refs_Movs_Burnin_FrameCounter/TKO_013_KID_Sh07910_V02.mov</pathurl>
							<rate>
								<timebase>24</timebase>
								<ntsc>TRUE</ntsc>
							</rate>
							<duration>78</duration>
							<timecode>
								<rate>
									<timebase>24</timebase>
									<ntsc>TRUE</ntsc>
								</rate>
								<string>18:51:35:02</string>
								<frame>1629482</frame>
								<displayformat>NDF</displayformat>
								<reel>
									<name>B0020028</name>
								</reel>
							</timecode>
							<media>
								<video>
									<samplecharacteristics>
										<rate>
											<timebase>24</timebase>
											<ntsc>TRUE</ntsc>
										</rate>
										<width>4096</width>
										<height>2160</height>
										<anamorphic>FALSE</anamorphic>
										<pixelaspectratio>square</pixelaspectratio>
										<fielddominance>none</fielddominance>
									</samplecharacteristics>
								</video>
							</media>
						</file>
						<logginginfo>
							<description></description>
							<scene></scene>
							<shottake></shottake>
							<lognote></lognote>
							<good></good>
							<originalvideofilename></originalvideofilename>
							<originalaudiofilename></originalaudiofilename>
						</logginginfo>
						<colorinfo>
							<lut></lut>
							<lut1></lut1>
							<asc_sop></asc_sop>
							<asc_sat></asc_sat>
							<lut2></lut2>
						</colorinfo>
						<labels>
							<label2>Violet</label2>
						</labels>
					</clipitem>
					<clipitem id="clipitem-764">
						<masterclipid>masterclip-761</masterclipid>
						<name>TKO_013_KID_Sh07920.mov</name>
						<enabled>TRUE</enabled>
						<duration>105</duration>
						<rate>
							<timebase>24</timebase>
							<ntsc>TRUE</ntsc>
						</rate>
						<start>62602</start>
						<end>62699</end>
						<in>4</in>
						<out>101</out>
						<pproTicksIn>42378336000</pproTicksIn>
						<pproTicksOut>1070052984000</pproTicksOut>
						<alphatype>none</alphatype>
						<pixelaspectratio>square</pixelaspectratio>
						<anamorphic>FALSE</anamorphic>
						<file id="file-761">
							<name>TKO_013_KID_Sh07920.mov</name>
							<pathurl>file://tri-stor01/Projects/TKO/SHOTS/_Refs_Movs_Burnin_FrameCounter/TKO_013_KID_Sh07920.mov</pathurl>
							<rate>
								<timebase>24</timebase>
								<ntsc>TRUE</ntsc>
							</rate>
							<duration>105</duration>
							<timecode>
								<rate>
									<timebase>24</timebase>
									<ntsc>TRUE</ntsc>
								</rate>
								<string>02:40:24:10</string>
								<frame>230986</frame>
								<displayformat>NDF</displayformat>
								<reel>
									<name>C0040008</name>
								</reel>
							</timecode>
							<media>
								<video>
									<samplecharacteristics>
										<rate>
											<timebase>24</timebase>
											<ntsc>TRUE</ntsc>
										</rate>
										<width>3840</width>
										<height>2160</height>
										<anamorphic>FALSE</anamorphic>
										<pixelaspectratio>square</pixelaspectratio>
										<fielddominance>none</fielddominance>
									</samplecharacteristics>
								</video>
							</media>
						</file>
						<logginginfo>
							<description></description>
							<scene></scene>
							<shottake></shottake>
							<lognote></lognote>
							<good></good>
							<originalvideofilename></originalvideofilename>
							<originalaudiofilename></originalaudiofilename>
						</logginginfo>
						<colorinfo>
							<lut></lut>
							<lut1></lut1>
							<asc_sop></asc_sop>
							<asc_sat></asc_sat>
							<lut2></lut2>
						</colorinfo>
						<labels>
							<label2>Violet</label2>
						</labels>
					</clipitem>
					<clipitem id="clipitem-765">
						<masterclipid>masterclip-762</masterclipid>
						<name>TKO_013_KID_Sh07930.mov</name>
						<enabled>TRUE</enabled>
						<duration>62</duration>
						<rate>
							<timebase>24</timebase>
							<ntsc>TRUE</ntsc>
						</rate>
						<start>62699</start>
						<end>62753</end>
						<in>4</in>
						<out>58</out>
						<pproTicksIn>42378336000</pproTicksIn>
						<pproTicksOut>614485872000</pproTicksOut>
						<alphatype>none</alphatype>
						<pixelaspectratio>square</pixelaspectratio>
						<anamorphic>FALSE</anamorphic>
						<file id="file-762">
							<name>TKO_013_KID_Sh07930.mov</name>
							<pathurl>file://tri-stor01/Projects/TKO/SHOTS/_Refs_Movs_Burnin_FrameCounter/TKO_013_KID_Sh07930.mov</pathurl>
							<rate>
								<timebase>24</timebase>
								<ntsc>TRUE</ntsc>
							</rate>
							<duration>62</duration>
							<timecode>
								<rate>
									<timebase>24</timebase>
									<ntsc>TRUE</ntsc>
								</rate>
								<string>17:30:32:00</string>
								<frame>1512768</frame>
								<displayformat>NDF</displayformat>
								<reel>
									<name>B0060010</name>
								</reel>
							</timecode>
							<media>
								<video>
									<samplecharacteristics>
										<rate>
											<timebase>24</timebase>
											<ntsc>TRUE</ntsc>
										</rate>
										<width>4096</width>
										<height>2160</height>
										<anamorphic>FALSE</anamorphic>
										<pixelaspectratio>square</pixelaspectratio>
										<fielddominance>none</fielddominance>
									</samplecharacteristics>
								</video>
							</media>
						</file>
						<logginginfo>
							<description></description>
							<scene></scene>
							<shottake></shottake>
							<lognote></lognote>
							<good></good>
							<originalvideofilename></originalvideofilename>
							<originalaudiofilename></originalaudiofilename>
						</logginginfo>
						<colorinfo>
							<lut></lut>
							<lut1></lut1>
							<asc_sop></asc_sop>
							<asc_sat></asc_sat>
							<lut2></lut2>
						</colorinfo>
						<labels>
							<label2>Violet</label2>
						</labels>
					</clipitem>
					<clipitem id="clipitem-766">
						<masterclipid>masterclip-763</masterclipid>
						<name>TKO_013_KID_Sh07940_V02.mov</name>
						<enabled>TRUE</enabled>
						<duration>53</duration>
						<rate>
							<timebase>24</timebase>
							<ntsc>TRUE</ntsc>
						</rate>
						<start>62753</start>
						<end>62792</end>
						<in>10</in>
						<out>49</out>
						<pproTicksIn>105945840000</pproTicksIn>
						<pproTicksOut>519134616000</pproTicksOut>
						<alphatype>none</alphatype>
						<pixelaspectratio>square</pixelaspectratio>
						<anamorphic>FALSE</anamorphic>
						<file id="file-763">
							<name>TKO_013_KID_Sh07940_V02.mov</name>
							<pathurl>file://tri-stor01/Projects/TKO/SHOTS/_Refs_Movs_Burnin_FrameCounter/TKO_013_KID_Sh07940_V02.mov</pathurl>
							<rate>
								<timebase>24</timebase>
								<ntsc>TRUE</ntsc>
							</rate>
							<duration>53</duration>
							<timecode>
								<rate>
									<timebase>24</timebase>
									<ntsc>TRUE</ntsc>
								</rate>
								<string>18:55:08:14</string>
								<frame>1634606</frame>
								<displayformat>NDF</displayformat>
								<reel>
									<name>A0030008</name>
								</reel>
							</timecode>
							<media>
								<video>
									<samplecharacteristics>
										<rate>
											<timebase>24</timebase>
											<ntsc>TRUE</ntsc>
										</rate>
										<width>4096</width>
										<height>2160</height>
										<anamorphic>FALSE</anamorphic>
										<pixelaspectratio>square</pixelaspectratio>
										<fielddominance>none</fielddominance>
									</samplecharacteristics>
								</video>
							</media>
						</file>
						<logginginfo>
							<description></description>
							<scene></scene>
							<shottake></shottake>
							<lognote></lognote>
							<good></good>
							<originalvideofilename></originalvideofilename>
							<originalaudiofilename></originalaudiofilename>
						</logginginfo>
						<colorinfo>
							<lut></lut>
							<lut1></lut1>
							<asc_sop></asc_sop>
							<asc_sat></asc_sat>
							<lut2></lut2>
						</colorinfo>
						<labels>
							<label2>Violet</label2>
						</labels>
					</clipitem>
					<clipitem id="clipitem-767">
						<masterclipid>masterclip-764</masterclipid>
						<name>TKO_013_KID_Sh07950.mov</name>
						<enabled>TRUE</enabled>
						<duration>95</duration>
						<rate>
							<timebase>24</timebase>
							<ntsc>TRUE</ntsc>
						</rate>
						<start>62792</start>
						<end>62879</end>
						<in>4</in>
						<out>91</out>
						<pproTicksIn>42378336000</pproTicksIn>
						<pproTicksOut>964107144000</pproTicksOut>
						<alphatype>none</alphatype>
						<pixelaspectratio>square</pixelaspectratio>
						<anamorphic>FALSE</anamorphic>
						<file id="file-764">
							<name>TKO_013_KID_Sh07950.mov</name>
							<pathurl>file://tri-stor01/Projects/TKO/SHOTS/_Refs_Movs_Burnin_FrameCounter/TKO_013_KID_Sh07950.mov</pathurl>
							<rate>
								<timebase>24</timebase>
								<ntsc>TRUE</ntsc>
							</rate>
							<duration>95</duration>
							<timecode>
								<rate>
									<timebase>24</timebase>
									<ntsc>TRUE</ntsc>
								</rate>
								<string>17:26:00:22</string>
								<frame>1506262</frame>
								<displayformat>NDF</displayformat>
								<reel>
									<name>A0090007</name>
								</reel>
							</timecode>
							<media>
								<video>
									<samplecharacteristics>
										<rate>
											<timebase>24</timebase>
											<ntsc>TRUE</ntsc>
										</rate>
										<width>4096</width>
										<height>2160</height>
										<anamorphic>FALSE</anamorphic>
										<pixelaspectratio>square</pixelaspectratio>
										<fielddominance>none</fielddominance>
									</samplecharacteristics>
								</video>
							</media>
						</file>
						<logginginfo>
							<description></description>
							<scene></scene>
							<shottake></shottake>
							<lognote></lognote>
							<good></good>
							<originalvideofilename></originalvideofilename>
							<originalaudiofilename></originalaudiofilename>
						</logginginfo>
						<colorinfo>
							<lut></lut>
							<lut1></lut1>
							<asc_sop></asc_sop>
							<asc_sat></asc_sat>
							<lut2></lut2>
						</colorinfo>
						<labels>
							<label2>Violet</label2>
						</labels>
					</clipitem>
					<clipitem id="clipitem-768">
						<masterclipid>masterclip-765</masterclipid>
						<name>TKO_013_KID_Sh07960_V02.mov</name>
						<enabled>TRUE</enabled>
						<duration>72</duration>
						<rate>
							<timebase>24</timebase>
							<ntsc>TRUE</ntsc>
						</rate>
						<start>62879</start>
						<end>62937</end>
						<in>10</in>
						<out>68</out>
						<pproTicksIn>105945840000</pproTicksIn>
						<pproTicksOut>720431712000</pproTicksOut>
						<alphatype>none</alphatype>
						<pixelaspectratio>square</pixelaspectratio>
						<anamorphic>FALSE</anamorphic>
						<file id="file-765">
							<name>TKO_013_KID_Sh07960_V02.mov</name>
							<pathurl>file://tri-stor01/Projects/TKO/SHOTS/_Refs_Movs_Burnin_FrameCounter/TKO_013_KID_Sh07960_V02.mov</pathurl>
							<rate>
								<timebase>24</timebase>
								<ntsc>TRUE</ntsc>
							</rate>
							<duration>72</duration>
							<timecode>
								<rate>
									<timebase>24</timebase>
									<ntsc>TRUE</ntsc>
								</rate>
								<string>18:51:48:01</string>
								<frame>1629793</frame>
								<displayformat>NDF</displayformat>
								<reel>
									<name>A0030008</name>
								</reel>
							</timecode>
							<media>
								<video>
									<samplecharacteristics>
										<rate>
											<timebase>24</timebase>
											<ntsc>TRUE</ntsc>
										</rate>
										<width>4096</width>
										<height>2160</height>
										<anamorphic>FALSE</anamorphic>
										<pixelaspectratio>square</pixelaspectratio>
										<fielddominance>none</fielddominance>
									</samplecharacteristics>
								</video>
							</media>
						</file>
						<logginginfo>
							<description></description>
							<scene></scene>
							<shottake></shottake>
							<lognote></lognote>
							<good></good>
							<originalvideofilename></originalvideofilename>
							<originalaudiofilename></originalaudiofilename>
						</logginginfo>
						<colorinfo>
							<lut></lut>
							<lut1></lut1>
							<asc_sop></asc_sop>
							<asc_sat></asc_sat>
							<lut2></lut2>
						</colorinfo>
						<labels>
							<label2>Violet</label2>
						</labels>
					</clipitem>
					<clipitem id="clipitem-769">
						<masterclipid>masterclip-766</masterclipid>
						<name>TKO_013_KID_Sh07970.mov</name>
						<enabled>TRUE</enabled>
						<duration>66</duration>
						<rate>
							<timebase>24</timebase>
							<ntsc>TRUE</ntsc>
						</rate>
						<start>62937</start>
						<end>62995</end>
						<in>4</in>
						<out>62</out>
						<pproTicksIn>42378336000</pproTicksIn>
						<pproTicksOut>656864208000</pproTicksOut>
						<alphatype>none</alphatype>
						<pixelaspectratio>square</pixelaspectratio>
						<anamorphic>FALSE</anamorphic>
						<file id="file-766">
							<name>TKO_013_KID_Sh07970.mov</name>
							<pathurl>file://tri-stor01/Projects/TKO/SHOTS/_Refs_Movs_Burnin_FrameCounter/TKO_013_KID_Sh07970.mov</pathurl>
							<rate>
								<timebase>24</timebase>
								<ntsc>TRUE</ntsc>
							</rate>
							<duration>66</duration>
							<timecode>
								<rate>
									<timebase>24</timebase>
									<ntsc>TRUE</ntsc>
								</rate>
								<string>17:26:07:12</string>
								<frame>1506420</frame>
								<displayformat>NDF</displayformat>
								<reel>
									<name>A0090007</name>
								</reel>
							</timecode>
							<media>
								<video>
									<samplecharacteristics>
										<rate>
											<timebase>24</timebase>
											<ntsc>TRUE</ntsc>
										</rate>
										<width>4096</width>
										<height>2160</height>
										<anamorphic>FALSE</anamorphic>
										<pixelaspectratio>square</pixelaspectratio>
										<fielddominance>none</fielddominance>
									</samplecharacteristics>
								</video>
							</media>
						</file>
						<logginginfo>
							<description></description>
							<scene></scene>
							<shottake></shottake>
							<lognote></lognote>
							<good></good>
							<originalvideofilename></originalvideofilename>
							<originalaudiofilename></originalaudiofilename>
						</logginginfo>
						<colorinfo>
							<lut></lut>
							<lut1></lut1>
							<asc_sop></asc_sop>
							<asc_sat></asc_sat>
							<lut2></lut2>
						</colorinfo>
						<labels>
							<label2>Violet</label2>
						</labels>
					</clipitem>
					<clipitem id="clipitem-770">
						<masterclipid>masterclip-767</masterclipid>
						<name>TKO_013_KID_Sh07980_V02.mov</name>
						<enabled>TRUE</enabled>
						<duration>110</duration>
						<rate>
							<timebase>24</timebase>
							<ntsc>TRUE</ntsc>
						</rate>
						<start>62995</start>
						<end>63086</end>
						<in>4</in>
						<out>95</out>
						<pproTicksIn>42378336000</pproTicksIn>
						<pproTicksOut>1006485480000</pproTicksOut>
						<alphatype>none</alphatype>
						<pixelaspectratio>square</pixelaspectratio>
						<anamorphic>FALSE</anamorphic>
						<file id="file-767">
							<name>TKO_013_KID_Sh07980_V02.mov</name>
							<pathurl>file://tri-stor01/Projects/TKO/SHOTS/_Refs_Movs_Burnin_FrameCounter/TKO_013_KID_Sh07980_V02.mov</pathurl>
							<rate>
								<timebase>24</timebase>
								<ntsc>TRUE</ntsc>
							</rate>
							<duration>110</duration>
							<timecode>
								<rate>
									<timebase>24</timebase>
									<ntsc>TRUE</ntsc>
								</rate>
								<string>14:18:42:00</string>
								<frame>1236528</frame>
								<displayformat>NDF</displayformat>
								<reel>
									<name>A0250011</name>
								</reel>
							</timecode>
							<media>
								<video>
									<samplecharacteristics>
										<rate>
											<timebase>24</timebase>
											<ntsc>TRUE</ntsc>
										</rate>
										<width>4096</width>
										<height>2160</height>
										<anamorphic>FALSE</anamorphic>
										<pixelaspectratio>square</pixelaspectratio>
										<fielddominance>none</fielddominance>
									</samplecharacteristics>
								</video>
							</media>
						</file>
						<logginginfo>
							<description></description>
							<scene></scene>
							<shottake></shottake>
							<lognote></lognote>
							<good></good>
							<originalvideofilename></originalvideofilename>
							<originalaudiofilename></originalaudiofilename>
						</logginginfo>
						<colorinfo>
							<lut></lut>
							<lut1></lut1>
							<asc_sop></asc_sop>
							<asc_sat></asc_sat>
							<lut2></lut2>
						</colorinfo>
						<labels>
							<label2>Violet</label2>
						</labels>
					</clipitem>
					<clipitem id="clipitem-771">
						<masterclipid>masterclip-768</masterclipid>
						<name>TKO_013_KID_Sh07990.mov</name>
						<enabled>TRUE</enabled>
						<duration>137</duration>
						<rate>
							<timebase>24</timebase>
							<ntsc>TRUE</ntsc>
						</rate>
						<start>63086</start>
						<end>63215</end>
						<in>4</in>
						<out>133</out>
						<pproTicksIn>42378336000</pproTicksIn>
						<pproTicksOut>1409079672000</pproTicksOut>
						<alphatype>none</alphatype>
						<pixelaspectratio>square</pixelaspectratio>
						<anamorphic>FALSE</anamorphic>
						<file id="file-768">
							<name>TKO_013_KID_Sh07990.mov</name>
							<pathurl>file://tri-stor01/Projects/TKO/SHOTS/_Refs_Movs_Burnin_FrameCounter/TKO_013_KID_Sh07990.mov</pathurl>
							<rate>
								<timebase>24</timebase>
								<ntsc>TRUE</ntsc>
							</rate>
							<duration>137</duration>
							<timecode>
								<rate>
									<timebase>24</timebase>
									<ntsc>TRUE</ntsc>
								</rate>
								<string>17:26:09:21</string>
								<frame>1506477</frame>
								<displayformat>NDF</displayformat>
								<reel>
									<name>A0090007</name>
								</reel>
							</timecode>
							<media>
								<video>
									<samplecharacteristics>
										<rate>
											<timebase>24</timebase>
											<ntsc>TRUE</ntsc>
										</rate>
										<width>4096</width>
										<height>2160</height>
										<anamorphic>FALSE</anamorphic>
										<pixelaspectratio>square</pixelaspectratio>
										<fielddominance>none</fielddominance>
									</samplecharacteristics>
								</video>
							</media>
						</file>
						<logginginfo>
							<description></description>
							<scene></scene>
							<shottake></shottake>
							<lognote></lognote>
							<good></good>
							<originalvideofilename></originalvideofilename>
							<originalaudiofilename></originalaudiofilename>
						</logginginfo>
						<colorinfo>
							<lut></lut>
							<lut1></lut1>
							<asc_sop></asc_sop>
							<asc_sat></asc_sat>
							<lut2></lut2>
						</colorinfo>
						<labels>
							<label2>Violet</label2>
						</labels>
					</clipitem>
					<clipitem id="clipitem-772">
						<masterclipid>masterclip-769</masterclipid>
						<name>TKO_013_KID_Sh08000.mov</name>
						<enabled>TRUE</enabled>
						<duration>39</duration>
						<rate>
							<timebase>24</timebase>
							<ntsc>TRUE</ntsc>
						</rate>
						<start>63215</start>
						<end>63246</end>
						<in>4</in>
						<out>35</out>
						<pproTicksIn>42378336000</pproTicksIn>
						<pproTicksOut>370810440000</pproTicksOut>
						<alphatype>none</alphatype>
						<pixelaspectratio>square</pixelaspectratio>
						<anamorphic>FALSE</anamorphic>
						<file id="file-769">
							<name>TKO_013_KID_Sh08000.mov</name>
							<pathurl>file://tri-stor01/Projects/TKO/SHOTS/_Refs_Movs_Burnin_FrameCounter/TKO_013_KID_Sh08000.mov</pathurl>
							<rate>
								<timebase>24</timebase>
								<ntsc>TRUE</ntsc>
							</rate>
							<duration>39</duration>
							<timecode>
								<rate>
									<timebase>24</timebase>
									<ntsc>TRUE</ntsc>
								</rate>
								<string>17:26:15:11</string>
								<frame>1506611</frame>
								<displayformat>NDF</displayformat>
								<reel>
									<name>B0060009</name>
								</reel>
							</timecode>
							<media>
								<video>
									<samplecharacteristics>
										<rate>
											<timebase>24</timebase>
											<ntsc>TRUE</ntsc>
										</rate>
										<width>4096</width>
										<height>2160</height>
										<anamorphic>FALSE</anamorphic>
										<pixelaspectratio>square</pixelaspectratio>
										<fielddominance>none</fielddominance>
									</samplecharacteristics>
								</video>
							</media>
						</file>
						<logginginfo>
							<description></description>
							<scene></scene>
							<shottake></shottake>
							<lognote></lognote>
							<good></good>
							<originalvideofilename></originalvideofilename>
							<originalaudiofilename></originalaudiofilename>
						</logginginfo>
						<colorinfo>
							<lut></lut>
							<lut1></lut1>
							<asc_sop></asc_sop>
							<asc_sat></asc_sat>
							<lut2></lut2>
						</colorinfo>
						<labels>
							<label2>Violet</label2>
						</labels>
					</clipitem>
					<clipitem id="clipitem-773">
						<masterclipid>masterclip-770</masterclipid>
						<name>TKO_013_KID_Sh08010.mov</name>
						<enabled>TRUE</enabled>
						<duration>27</duration>
						<rate>
							<timebase>24</timebase>
							<ntsc>TRUE</ntsc>
						</rate>
						<start>63246</start>
						<end>63265</end>
						<in>4</in>
						<out>23</out>
						<pproTicksIn>42378336000</pproTicksIn>
						<pproTicksOut>243675432000</pproTicksOut>
						<alphatype>none</alphatype>
						<pixelaspectratio>square</pixelaspectratio>
						<anamorphic>FALSE</anamorphic>
						<file id="file-770">
							<name>TKO_013_KID_Sh08010.mov</name>
							<pathurl>file://tri-stor01/Projects/TKO/SHOTS/_Refs_Movs_Burnin_FrameCounter/TKO_013_KID_Sh08010.mov</pathurl>
							<rate>
								<timebase>24</timebase>
								<ntsc>TRUE</ntsc>
							</rate>
							<duration>27</duration>
							<timecode>
								<rate>
									<timebase>24</timebase>
									<ntsc>TRUE</ntsc>
								</rate>
								<string>02:38:10:05</string>
								<frame>227765</frame>
								<displayformat>NDF</displayformat>
								<reel>
									<name>C0040007</name>
								</reel>
							</timecode>
							<media>
								<video>
									<samplecharacteristics>
										<rate>
											<timebase>24</timebase>
											<ntsc>TRUE</ntsc>
										</rate>
										<width>3840</width>
										<height>2160</height>
										<anamorphic>FALSE</anamorphic>
										<pixelaspectratio>square</pixelaspectratio>
										<fielddominance>none</fielddominance>
									</samplecharacteristics>
								</video>
							</media>
						</file>
						<logginginfo>
							<description></description>
							<scene></scene>
							<shottake></shottake>
							<lognote></lognote>
							<good></good>
							<originalvideofilename></originalvideofilename>
							<originalaudiofilename></originalaudiofilename>
						</logginginfo>
						<colorinfo>
							<lut></lut>
							<lut1></lut1>
							<asc_sop></asc_sop>
							<asc_sat></asc_sat>
							<lut2></lut2>
						</colorinfo>
						<labels>
							<label2>Violet</label2>
						</labels>
					</clipitem>
					<clipitem id="clipitem-774">
						<masterclipid>masterclip-771</masterclipid>
						<name>TKO_013_KID_Sh08020.mov</name>
						<enabled>TRUE</enabled>
						<duration>41</duration>
						<rate>
							<timebase>24</timebase>
							<ntsc>TRUE</ntsc>
						</rate>
						<start>63265</start>
						<end>63298</end>
						<in>4</in>
						<out>37</out>
						<pproTicksIn>42378336000</pproTicksIn>
						<pproTicksOut>391999608000</pproTicksOut>
						<alphatype>none</alphatype>
						<pixelaspectratio>square</pixelaspectratio>
						<anamorphic>FALSE</anamorphic>
						<file id="file-771">
							<name>TKO_013_KID_Sh08020.mov</name>
							<pathurl>file://tri-stor01/Projects/TKO/SHOTS/_Refs_Movs_Burnin_FrameCounter/TKO_013_KID_Sh08020.mov</pathurl>
							<rate>
								<timebase>24</timebase>
								<ntsc>TRUE</ntsc>
							</rate>
							<duration>41</duration>
							<timecode>
								<rate>
									<timebase>24</timebase>
									<ntsc>TRUE</ntsc>
								</rate>
								<string>00:35:28:14</string>
								<frame>51086</frame>
								<displayformat>NDF</displayformat>
							</timecode>
							<media>
								<video>
									<samplecharacteristics>
										<rate>
											<timebase>24</timebase>
											<ntsc>TRUE</ntsc>
										</rate>
										<width>1280</width>
										<height>720</height>
										<anamorphic>FALSE</anamorphic>
										<pixelaspectratio>square</pixelaspectratio>
										<fielddominance>none</fielddominance>
									</samplecharacteristics>
								</video>
							</media>
						</file>
						<logginginfo>
							<description></description>
							<scene></scene>
							<shottake></shottake>
							<lognote></lognote>
							<good></good>
							<originalvideofilename></originalvideofilename>
							<originalaudiofilename></originalaudiofilename>
						</logginginfo>
						<colorinfo>
							<lut></lut>
							<lut1></lut1>
							<asc_sop></asc_sop>
							<asc_sat></asc_sat>
							<lut2></lut2>
						</colorinfo>
						<labels>
							<label2>Violet</label2>
						</labels>
					</clipitem>
					<clipitem id="clipitem-775">
						<masterclipid>masterclip-772</masterclipid>
						<name>TKO_013_KID_Sh08030.mov</name>
						<enabled>TRUE</enabled>
						<duration>61</duration>
						<rate>
							<timebase>24</timebase>
							<ntsc>TRUE</ntsc>
						</rate>
						<start>63298</start>
						<end>63351</end>
						<in>4</in>
						<out>57</out>
						<pproTicksIn>42378336000</pproTicksIn>
						<pproTicksOut>603891288000</pproTicksOut>
						<alphatype>none</alphatype>
						<pixelaspectratio>square</pixelaspectratio>
						<anamorphic>FALSE</anamorphic>
						<file id="file-772">
							<name>TKO_013_KID_Sh08030.mov</name>
							<pathurl>file://tri-stor01/Projects/TKO/SHOTS/_Refs_Movs_Burnin_FrameCounter/TKO_013_KID_Sh08030.mov</pathurl>
							<rate>
								<timebase>24</timebase>
								<ntsc>TRUE</ntsc>
							</rate>
							<duration>61</duration>
							<timecode>
								<rate>
									<timebase>24</timebase>
									<ntsc>TRUE</ntsc>
								</rate>
								<string>17:26:18:22</string>
								<frame>1506694</frame>
								<displayformat>NDF</displayformat>
								<reel>
									<name>A0090007</name>
								</reel>
							</timecode>
							<media>
								<video>
									<samplecharacteristics>
										<rate>
											<timebase>24</timebase>
											<ntsc>TRUE</ntsc>
										</rate>
										<width>4096</width>
										<height>2160</height>
										<anamorphic>FALSE</anamorphic>
										<pixelaspectratio>square</pixelaspectratio>
										<fielddominance>none</fielddominance>
									</samplecharacteristics>
								</video>
							</media>
						</file>
						<logginginfo>
							<description></description>
							<scene></scene>
							<shottake></shottake>
							<lognote></lognote>
							<good></good>
							<originalvideofilename></originalvideofilename>
							<originalaudiofilename></originalaudiofilename>
						</logginginfo>
						<colorinfo>
							<lut></lut>
							<lut1></lut1>
							<asc_sop></asc_sop>
							<asc_sat></asc_sat>
							<lut2></lut2>
						</colorinfo>
						<labels>
							<label2>Violet</label2>
						</labels>
					</clipitem>
					<clipitem id="clipitem-776">
						<masterclipid>masterclip-773</masterclipid>
						<name>TKO_013_KID_Sh08040.mov</name>
						<enabled>TRUE</enabled>
						<duration>52</duration>
						<rate>
							<timebase>24</timebase>
							<ntsc>TRUE</ntsc>
						</rate>
						<start>63351</start>
						<end>63395</end>
						<in>4</in>
						<out>48</out>
						<pproTicksIn>42378336000</pproTicksIn>
						<pproTicksOut>508540032000</pproTicksOut>
						<alphatype>none</alphatype>
						<pixelaspectratio>square</pixelaspectratio>
						<anamorphic>FALSE</anamorphic>
						<file id="file-773">
							<name>TKO_013_KID_Sh08040.mov</name>
							<pathurl>file://tri-stor01/Projects/TKO/SHOTS/_Refs_Movs_Burnin_FrameCounter/TKO_013_KID_Sh08040.mov</pathurl>
							<rate>
								<timebase>24</timebase>
								<ntsc>TRUE</ntsc>
							</rate>
							<duration>52</duration>
							<timecode>
								<rate>
									<timebase>24</timebase>
									<ntsc>TRUE</ntsc>
								</rate>
								<string>17:26:21:08</string>
								<frame>1506752</frame>
								<displayformat>NDF</displayformat>
								<reel>
									<name>B0060009</name>
								</reel>
							</timecode>
							<media>
								<video>
									<samplecharacteristics>
										<rate>
											<timebase>24</timebase>
											<ntsc>TRUE</ntsc>
										</rate>
										<width>4096</width>
										<height>2160</height>
										<anamorphic>FALSE</anamorphic>
										<pixelaspectratio>square</pixelaspectratio>
										<fielddominance>none</fielddominance>
									</samplecharacteristics>
								</video>
							</media>
						</file>
						<logginginfo>
							<description></description>
							<scene></scene>
							<shottake></shottake>
							<lognote></lognote>
							<good></good>
							<originalvideofilename></originalvideofilename>
							<originalaudiofilename></originalaudiofilename>
						</logginginfo>
						<colorinfo>
							<lut></lut>
							<lut1></lut1>
							<asc_sop></asc_sop>
							<asc_sat></asc_sat>
							<lut2></lut2>
						</colorinfo>
						<labels>
							<label2>Violet</label2>
						</labels>
					</clipitem>
					<clipitem id="clipitem-777">
						<masterclipid>masterclip-774</masterclipid>
						<name>TKO_013_KID_Sh08050_V02.mov</name>
						<enabled>TRUE</enabled>
						<duration>145</duration>
						<rate>
							<timebase>24</timebase>
							<ntsc>TRUE</ntsc>
						</rate>
						<start>63395</start>
						<end>63521</end>
						<in>4</in>
						<out>130</out>
						<pproTicksIn>42378336000</pproTicksIn>
						<pproTicksOut>1377295920000</pproTicksOut>
						<alphatype>none</alphatype>
						<pixelaspectratio>square</pixelaspectratio>
						<anamorphic>FALSE</anamorphic>
						<file id="file-774">
							<name>TKO_013_KID_Sh08050_V02.mov</name>
							<pathurl>file://tri-stor01/Projects/TKO/SHOTS/_Refs_Movs_Burnin_FrameCounter/TKO_013_KID_Sh08050_V02.mov</pathurl>
							<rate>
								<timebase>24</timebase>
								<ntsc>TRUE</ntsc>
							</rate>
							<duration>145</duration>
							<timecode>
								<rate>
									<timebase>24</timebase>
									<ntsc>TRUE</ntsc>
								</rate>
								<string>14:18:45:19</string>
								<frame>1236619</frame>
								<displayformat>NDF</displayformat>
								<reel>
									<name>A0250011</name>
								</reel>
							</timecode>
							<media>
								<video>
									<samplecharacteristics>
										<rate>
											<timebase>24</timebase>
											<ntsc>TRUE</ntsc>
										</rate>
										<width>4096</width>
										<height>2160</height>
										<anamorphic>FALSE</anamorphic>
										<pixelaspectratio>square</pixelaspectratio>
										<fielddominance>none</fielddominance>
									</samplecharacteristics>
								</video>
							</media>
						</file>
						<logginginfo>
							<description></description>
							<scene></scene>
							<shottake></shottake>
							<lognote></lognote>
							<good></good>
							<originalvideofilename></originalvideofilename>
							<originalaudiofilename></originalaudiofilename>
						</logginginfo>
						<colorinfo>
							<lut></lut>
							<lut1></lut1>
							<asc_sop></asc_sop>
							<asc_sat></asc_sat>
							<lut2></lut2>
						</colorinfo>
						<labels>
							<label2>Violet</label2>
						</labels>
					</clipitem>
					<clipitem id="clipitem-778">
						<masterclipid>masterclip-775</masterclipid>
						<name>TKO_013_KID_Sh08060.mov</name>
						<enabled>TRUE</enabled>
						<duration>213</duration>
						<rate>
							<timebase>24</timebase>
							<ntsc>TRUE</ntsc>
						</rate>
						<start>63521</start>
						<end>63725</end>
						<in>4</in>
						<out>208</out>
						<pproTicksIn>42378336000</pproTicksIn>
						<pproTicksOut>2203673472000</pproTicksOut>
						<alphatype>none</alphatype>
						<pixelaspectratio>square</pixelaspectratio>
						<anamorphic>FALSE</anamorphic>
						<file id="file-775">
							<name>TKO_013_KID_Sh08060.mov</name>
							<pathurl>file://tri-stor01/Projects/TKO/SHOTS/_Refs_Movs_Burnin_FrameCounter/TKO_013_KID_Sh08060.mov</pathurl>
							<rate>
								<timebase>24</timebase>
								<ntsc>TRUE</ntsc>
							</rate>
							<duration>213</duration>
							<timecode>
								<rate>
									<timebase>24</timebase>
									<ntsc>TRUE</ntsc>
								</rate>
								<string>14:18:51:04</string>
								<frame>1236748</frame>
								<displayformat>NDF</displayformat>
								<reel>
									<name>B0210011</name>
								</reel>
							</timecode>
							<media>
								<video>
									<samplecharacteristics>
										<rate>
											<timebase>24</timebase>
											<ntsc>TRUE</ntsc>
										</rate>
										<width>4096</width>
										<height>2160</height>
										<anamorphic>FALSE</anamorphic>
										<pixelaspectratio>square</pixelaspectratio>
										<fielddominance>none</fielddominance>
									</samplecharacteristics>
								</video>
							</media>
						</file>
						<logginginfo>
							<description></description>
							<scene></scene>
							<shottake></shottake>
							<lognote></lognote>
							<good></good>
							<originalvideofilename></originalvideofilename>
							<originalaudiofilename></originalaudiofilename>
						</logginginfo>
						<colorinfo>
							<lut></lut>
							<lut1></lut1>
							<asc_sop></asc_sop>
							<asc_sat></asc_sat>
							<lut2></lut2>
						</colorinfo>
						<labels>
							<label2>Violet</label2>
						</labels>
					</clipitem>
					<clipitem id="clipitem-779">
						<masterclipid>masterclip-776</masterclipid>
						<name>TKO_013_KID_Sh08070_V02.mov</name>
						<enabled>TRUE</enabled>
						<duration>315</duration>
						<rate>
							<timebase>24</timebase>
							<ntsc>TRUE</ntsc>
						</rate>
						<start>63725</start>
						<end>63912</end>
						<in>113</in>
						<out>300</out>
						<pproTicksIn>1197187992000</pproTicksIn>
						<pproTicksOut>3178375200000</pproTicksOut>
						<alphatype>none</alphatype>
						<pixelaspectratio>square</pixelaspectratio>
						<anamorphic>FALSE</anamorphic>
						<file id="file-776">
							<name>TKO_013_KID_Sh08070_V02.mov</name>
							<pathurl>file://tri-stor01/Projects/TKO/SHOTS/_Refs_Movs_Burnin_FrameCounter/TKO_013_KID_Sh08070_V02.mov</pathurl>
							<rate>
								<timebase>24</timebase>
								<ntsc>TRUE</ntsc>
							</rate>
							<duration>315</duration>
							<timecode>
								<rate>
									<timebase>24</timebase>
									<ntsc>TRUE</ntsc>
								</rate>
								<string>14:46:06:19</string>
								<frame>1276003</frame>
								<displayformat>NDF</displayformat>
								<reel>
									<name>A0250013</name>
								</reel>
							</timecode>
							<media>
								<video>
									<samplecharacteristics>
										<rate>
											<timebase>24</timebase>
											<ntsc>TRUE</ntsc>
										</rate>
										<width>4096</width>
										<height>2160</height>
										<anamorphic>FALSE</anamorphic>
										<pixelaspectratio>square</pixelaspectratio>
										<fielddominance>none</fielddominance>
									</samplecharacteristics>
								</video>
							</media>
						</file>
						<logginginfo>
							<description></description>
							<scene></scene>
							<shottake></shottake>
							<lognote></lognote>
							<good></good>
							<originalvideofilename></originalvideofilename>
							<originalaudiofilename></originalaudiofilename>
						</logginginfo>
						<colorinfo>
							<lut></lut>
							<lut1></lut1>
							<asc_sop></asc_sop>
							<asc_sat></asc_sat>
							<lut2></lut2>
						</colorinfo>
						<labels>
							<label2>Violet</label2>
						</labels>
					</clipitem>
					<clipitem id="clipitem-780">
						<masterclipid>masterclip-777</masterclipid>
						<name>TKO_013_KID_Sh08080.mov</name>
						<enabled>TRUE</enabled>
						<duration>114</duration>
						<rate>
							<timebase>24</timebase>
							<ntsc>TRUE</ntsc>
						</rate>
						<start>63912</start>
						<end>64018</end>
						<in>4</in>
						<out>110</out>
						<pproTicksIn>42378336000</pproTicksIn>
						<pproTicksOut>1165404240000</pproTicksOut>
						<alphatype>none</alphatype>
						<pixelaspectratio>square</pixelaspectratio>
						<anamorphic>FALSE</anamorphic>
						<file id="file-777">
							<name>TKO_013_KID_Sh08080.mov</name>
							<pathurl>file://tri-stor01/Projects/TKO/SHOTS/_Refs_Movs_Burnin_FrameCounter/TKO_013_KID_Sh08080.mov</pathurl>
							<rate>
								<timebase>24</timebase>
								<ntsc>TRUE</ntsc>
							</rate>
							<duration>114</duration>
							<timecode>
								<rate>
									<timebase>24</timebase>
									<ntsc>TRUE</ntsc>
								</rate>
								<string>12:30:15:04</string>
								<frame>1080364</frame>
								<displayformat>NDF</displayformat>
								<reel>
									<name>C0300001</name>
								</reel>
							</timecode>
							<media>
								<video>
									<samplecharacteristics>
										<rate>
											<timebase>24</timebase>
											<ntsc>TRUE</ntsc>
										</rate>
										<width>3840</width>
										<height>2160</height>
										<anamorphic>FALSE</anamorphic>
										<pixelaspectratio>square</pixelaspectratio>
										<fielddominance>none</fielddominance>
									</samplecharacteristics>
								</video>
							</media>
						</file>
						<logginginfo>
							<description></description>
							<scene></scene>
							<shottake></shottake>
							<lognote></lognote>
							<good></good>
							<originalvideofilename></originalvideofilename>
							<originalaudiofilename></originalaudiofilename>
						</logginginfo>
						<colorinfo>
							<lut></lut>
							<lut1></lut1>
							<asc_sop></asc_sop>
							<asc_sat></asc_sat>
							<lut2></lut2>
						</colorinfo>
						<labels>
							<label2>Violet</label2>
						</labels>
					</clipitem>
					<clipitem id="clipitem-781">
						<masterclipid>masterclip-778</masterclipid>
						<name>TKO_013_KID_Sh08090.mov</name>
						<enabled>TRUE</enabled>
						<duration>57</duration>
						<rate>
							<timebase>24</timebase>
							<ntsc>TRUE</ntsc>
						</rate>
						<start>64018</start>
						<end>64067</end>
						<in>4</in>
						<out>53</out>
						<pproTicksIn>42378336000</pproTicksIn>
						<pproTicksOut>561512952000</pproTicksOut>
						<alphatype>none</alphatype>
						<pixelaspectratio>square</pixelaspectratio>
						<anamorphic>FALSE</anamorphic>
						<file id="file-778">
							<name>TKO_013_KID_Sh08090.mov</name>
							<pathurl>file://tri-stor01/Projects/TKO/SHOTS/_Refs_Movs_Burnin_FrameCounter/TKO_013_KID_Sh08090.mov</pathurl>
							<rate>
								<timebase>24</timebase>
								<ntsc>TRUE</ntsc>
							</rate>
							<duration>57</duration>
							<timecode>
								<rate>
									<timebase>24</timebase>
									<ntsc>TRUE</ntsc>
								</rate>
								<string>16:21:46:11</string>
								<frame>1413755</frame>
								<displayformat>NDF</displayformat>
								<reel>
									<name>B0220002</name>
								</reel>
							</timecode>
							<media>
								<video>
									<samplecharacteristics>
										<rate>
											<timebase>24</timebase>
											<ntsc>TRUE</ntsc>
										</rate>
										<width>4096</width>
										<height>2160</height>
										<anamorphic>FALSE</anamorphic>
										<pixelaspectratio>square</pixelaspectratio>
										<fielddominance>none</fielddominance>
									</samplecharacteristics>
								</video>
							</media>
						</file>
						<logginginfo>
							<description></description>
							<scene></scene>
							<shottake></shottake>
							<lognote></lognote>
							<good></good>
							<originalvideofilename></originalvideofilename>
							<originalaudiofilename></originalaudiofilename>
						</logginginfo>
						<colorinfo>
							<lut></lut>
							<lut1></lut1>
							<asc_sop></asc_sop>
							<asc_sat></asc_sat>
							<lut2></lut2>
						</colorinfo>
						<labels>
							<label2>Violet</label2>
						</labels>
					</clipitem>
					<clipitem id="clipitem-782">
						<masterclipid>masterclip-779</masterclipid>
						<name>TKO_013_KID_Sh08100.mov</name>
						<enabled>TRUE</enabled>
						<duration>35</duration>
						<rate>
							<timebase>24</timebase>
							<ntsc>TRUE</ntsc>
						</rate>
						<start>64067</start>
						<end>64094</end>
						<in>4</in>
						<out>31</out>
						<pproTicksIn>42378336000</pproTicksIn>
						<pproTicksOut>328432104000</pproTicksOut>
						<alphatype>none</alphatype>
						<pixelaspectratio>square</pixelaspectratio>
						<anamorphic>FALSE</anamorphic>
						<file id="file-779">
							<name>TKO_013_KID_Sh08100.mov</name>
							<pathurl>file://tri-stor01/Projects/TKO/SHOTS/_Refs_Movs_Burnin_FrameCounter/TKO_013_KID_Sh08100.mov</pathurl>
							<rate>
								<timebase>24</timebase>
								<ntsc>TRUE</ntsc>
							</rate>
							<duration>35</duration>
							<timecode>
								<rate>
									<timebase>24</timebase>
									<ntsc>TRUE</ntsc>
								</rate>
								<string>16:25:51:16</string>
								<frame>1419640</frame>
								<displayformat>NDF</displayformat>
								<reel>
									<name>A0260003</name>
								</reel>
							</timecode>
							<media>
								<video>
									<samplecharacteristics>
										<rate>
											<timebase>24</timebase>
											<ntsc>TRUE</ntsc>
										</rate>
										<width>4096</width>
										<height>2160</height>
										<anamorphic>FALSE</anamorphic>
										<pixelaspectratio>square</pixelaspectratio>
										<fielddominance>none</fielddominance>
									</samplecharacteristics>
								</video>
							</media>
						</file>
						<logginginfo>
							<description></description>
							<scene></scene>
							<shottake></shottake>
							<lognote></lognote>
							<good></good>
							<originalvideofilename></originalvideofilename>
							<originalaudiofilename></originalaudiofilename>
						</logginginfo>
						<colorinfo>
							<lut></lut>
							<lut1></lut1>
							<asc_sop></asc_sop>
							<asc_sat></asc_sat>
							<lut2></lut2>
						</colorinfo>
						<labels>
							<label2>Violet</label2>
						</labels>
					</clipitem>
					<clipitem id="clipitem-783">
						<masterclipid>masterclip-780</masterclipid>
						<name>TKO_013_KID_Sh08110_V02.mov</name>
						<enabled>TRUE</enabled>
						<duration>31</duration>
						<rate>
							<timebase>24</timebase>
							<ntsc>TRUE</ntsc>
						</rate>
						<start>64094</start>
						<end>64116</end>
						<in>5</in>
						<out>27</out>
						<pproTicksIn>52972920000</pproTicksIn>
						<pproTicksOut>286053768000</pproTicksOut>
						<alphatype>none</alphatype>
						<pixelaspectratio>square</pixelaspectratio>
						<anamorphic>FALSE</anamorphic>
						<file id="file-780">
							<name>TKO_013_KID_Sh08110_V02.mov</name>
							<pathurl>file://tri-stor01/Projects/TKO/SHOTS/_Refs_Movs_Burnin_FrameCounter/TKO_013_KID_Sh08110_V02.mov</pathurl>
							<rate>
								<timebase>24</timebase>
								<ntsc>TRUE</ntsc>
							</rate>
							<duration>31</duration>
							<timecode>
								<rate>
									<timebase>24</timebase>
									<ntsc>TRUE</ntsc>
								</rate>
								<string>16:25:52:14</string>
								<frame>1419662</frame>
								<displayformat>NDF</displayformat>
								<reel>
									<name>B0220003</name>
								</reel>
							</timecode>
							<media>
								<video>
									<samplecharacteristics>
										<rate>
											<timebase>24</timebase>
											<ntsc>TRUE</ntsc>
										</rate>
										<width>4096</width>
										<height>2160</height>
										<anamorphic>FALSE</anamorphic>
										<pixelaspectratio>square</pixelaspectratio>
										<fielddominance>none</fielddominance>
									</samplecharacteristics>
								</video>
							</media>
						</file>
						<logginginfo>
							<description></description>
							<scene></scene>
							<shottake></shottake>
							<lognote></lognote>
							<good></good>
							<originalvideofilename></originalvideofilename>
							<originalaudiofilename></originalaudiofilename>
						</logginginfo>
						<colorinfo>
							<lut></lut>
							<lut1></lut1>
							<asc_sop></asc_sop>
							<asc_sat></asc_sat>
							<lut2></lut2>
						</colorinfo>
						<labels>
							<label2>Violet</label2>
						</labels>
					</clipitem>
					<clipitem id="clipitem-784">
						<masterclipid>masterclip-781</masterclipid>
						<name>TKO_013_KID_Sh08120.mov</name>
						<enabled>TRUE</enabled>
						<duration>64</duration>
						<rate>
							<timebase>24</timebase>
							<ntsc>TRUE</ntsc>
						</rate>
						<start>64116</start>
						<end>64172</end>
						<in>4</in>
						<out>60</out>
						<pproTicksIn>42378336000</pproTicksIn>
						<pproTicksOut>635675040000</pproTicksOut>
						<alphatype>none</alphatype>
						<pixelaspectratio>square</pixelaspectratio>
						<anamorphic>FALSE</anamorphic>
						<file id="file-781">
							<name>TKO_013_KID_Sh08120.mov</name>
							<pathurl>file://tri-stor01/Projects/TKO/SHOTS/_Refs_Movs_Burnin_FrameCounter/TKO_013_KID_Sh08120.mov</pathurl>
							<rate>
								<timebase>24</timebase>
								<ntsc>TRUE</ntsc>
							</rate>
							<duration>64</duration>
							<timecode>
								<rate>
									<timebase>24</timebase>
									<ntsc>TRUE</ntsc>
								</rate>
								<string>16:26:39:04</string>
								<frame>1420780</frame>
								<displayformat>NDF</displayformat>
								<reel>
									<name>A0260003</name>
								</reel>
							</timecode>
							<media>
								<video>
									<samplecharacteristics>
										<rate>
											<timebase>24</timebase>
											<ntsc>TRUE</ntsc>
										</rate>
										<width>4096</width>
										<height>2160</height>
										<anamorphic>FALSE</anamorphic>
										<pixelaspectratio>square</pixelaspectratio>
										<fielddominance>none</fielddominance>
									</samplecharacteristics>
								</video>
							</media>
						</file>
						<logginginfo>
							<description></description>
							<scene></scene>
							<shottake></shottake>
							<lognote></lognote>
							<good></good>
							<originalvideofilename></originalvideofilename>
							<originalaudiofilename></originalaudiofilename>
						</logginginfo>
						<colorinfo>
							<lut></lut>
							<lut1></lut1>
							<asc_sop></asc_sop>
							<asc_sat></asc_sat>
							<lut2></lut2>
						</colorinfo>
						<labels>
							<label2>Violet</label2>
						</labels>
					</clipitem>
					<clipitem id="clipitem-785">
						<masterclipid>masterclip-782</masterclipid>
						<name>TKO_013_KID_Sh08130.mov</name>
						<enabled>TRUE</enabled>
						<duration>153</duration>
						<rate>
							<timebase>24</timebase>
							<ntsc>TRUE</ntsc>
						</rate>
						<start>64172</start>
						<end>64317</end>
						<in>4</in>
						<out>149</out>
						<pproTicksIn>42378336000</pproTicksIn>
						<pproTicksOut>1578593016000</pproTicksOut>
						<alphatype>none</alphatype>
						<pixelaspectratio>square</pixelaspectratio>
						<anamorphic>FALSE</anamorphic>
						<file id="file-782">
							<name>TKO_013_KID_Sh08130.mov</name>
							<pathurl>file://tri-stor01/Projects/TKO/SHOTS/_Refs_Movs_Burnin_FrameCounter/TKO_013_KID_Sh08130.mov</pathurl>
							<rate>
								<timebase>24</timebase>
								<ntsc>TRUE</ntsc>
							</rate>
							<duration>153</duration>
							<timecode>
								<rate>
									<timebase>24</timebase>
									<ntsc>TRUE</ntsc>
								</rate>
								<string>00:00:00:07</string>
								<frame>7</frame>
								<displayformat>NDF</displayformat>
							</timecode>
							<media>
								<video>
									<samplecharacteristics>
										<rate>
											<timebase>24</timebase>
											<ntsc>TRUE</ntsc>
										</rate>
										<width>640</width>
										<height>360</height>
										<anamorphic>FALSE</anamorphic>
										<pixelaspectratio>square</pixelaspectratio>
										<fielddominance>none</fielddominance>
									</samplecharacteristics>
								</video>
							</media>
						</file>
						<logginginfo>
							<description></description>
							<scene></scene>
							<shottake></shottake>
							<lognote></lognote>
							<good></good>
							<originalvideofilename></originalvideofilename>
							<originalaudiofilename></originalaudiofilename>
						</logginginfo>
						<colorinfo>
							<lut></lut>
							<lut1></lut1>
							<asc_sop></asc_sop>
							<asc_sat></asc_sat>
							<lut2></lut2>
						</colorinfo>
						<labels>
							<label2>Violet</label2>
						</labels>
					</clipitem>
					<clipitem id="clipitem-786">
						<masterclipid>masterclip-783</masterclipid>
						<name>TKO_014_WRE_Sh08140.mov</name>
						<enabled>TRUE</enabled>
						<duration>131</duration>
						<rate>
							<timebase>24</timebase>
							<ntsc>TRUE</ntsc>
						</rate>
						<start>64317</start>
						<end>64440</end>
						<in>4</in>
						<out>127</out>
						<pproTicksIn>42378336000</pproTicksIn>
						<pproTicksOut>1345512168000</pproTicksOut>
						<alphatype>none</alphatype>
						<pixelaspectratio>square</pixelaspectratio>
						<anamorphic>FALSE</anamorphic>
						<file id="file-783">
							<name>TKO_014_WRE_Sh08140.mov</name>
							<pathurl>file://tri-stor01/Projects/TKO/SHOTS/_Refs_Movs_Burnin_FrameCounter/TKO_014_WRE_Sh08140.mov</pathurl>
							<rate>
								<timebase>24</timebase>
								<ntsc>TRUE</ntsc>
							</rate>
							<duration>131</duration>
							<timecode>
								<rate>
									<timebase>24</timebase>
									<ntsc>TRUE</ntsc>
								</rate>
								<string>00:00:00:00</string>
								<frame>0</frame>
								<displayformat>NDF</displayformat>
							</timecode>
							<media>
								<video>
									<samplecharacteristics>
										<rate>
											<timebase>24</timebase>
											<ntsc>TRUE</ntsc>
										</rate>
										<width>4096</width>
										<height>2160</height>
										<anamorphic>FALSE</anamorphic>
										<pixelaspectratio>square</pixelaspectratio>
										<fielddominance>none</fielddominance>
									</samplecharacteristics>
								</video>
							</media>
						</file>
						<logginginfo>
							<description></description>
							<scene></scene>
							<shottake></shottake>
							<lognote></lognote>
							<good></good>
							<originalvideofilename></originalvideofilename>
							<originalaudiofilename></originalaudiofilename>
						</logginginfo>
						<colorinfo>
							<lut></lut>
							<lut1></lut1>
							<asc_sop></asc_sop>
							<asc_sat></asc_sat>
							<lut2></lut2>
						</colorinfo>
						<labels>
							<label2>Violet</label2>
						</labels>
					</clipitem>
					<clipitem id="clipitem-787">
						<masterclipid>masterclip-784</masterclipid>
						<name>TKO_014_WRE_Sh08150.mov</name>
						<enabled>TRUE</enabled>
						<duration>89</duration>
						<rate>
							<timebase>24</timebase>
							<ntsc>TRUE</ntsc>
						</rate>
						<start>64440</start>
						<end>64521</end>
						<in>4</in>
						<out>85</out>
						<pproTicksIn>42378336000</pproTicksIn>
						<pproTicksOut>900539640000</pproTicksOut>
						<alphatype>none</alphatype>
						<pixelaspectratio>square</pixelaspectratio>
						<anamorphic>FALSE</anamorphic>
						<file id="file-784">
							<name>TKO_014_WRE_Sh08150.mov</name>
							<pathurl>file://tri-stor01/Projects/TKO/SHOTS/_Refs_Movs_Burnin_FrameCounter/TKO_014_WRE_Sh08150.mov</pathurl>
							<rate>
								<timebase>24</timebase>
								<ntsc>TRUE</ntsc>
							</rate>
							<duration>89</duration>
							<timecode>
								<rate>
									<timebase>24</timebase>
									<ntsc>TRUE</ntsc>
								</rate>
								<string>18:12:38:18</string>
								<frame>1573410</frame>
								<displayformat>NDF</displayformat>
								<reel>
									<name>B0400012</name>
								</reel>
							</timecode>
							<media>
								<video>
									<samplecharacteristics>
										<rate>
											<timebase>24</timebase>
											<ntsc>TRUE</ntsc>
										</rate>
										<width>4096</width>
										<height>2160</height>
										<anamorphic>FALSE</anamorphic>
										<pixelaspectratio>square</pixelaspectratio>
										<fielddominance>none</fielddominance>
									</samplecharacteristics>
								</video>
							</media>
						</file>
						<logginginfo>
							<description></description>
							<scene></scene>
							<shottake></shottake>
							<lognote></lognote>
							<good></good>
							<originalvideofilename></originalvideofilename>
							<originalaudiofilename></originalaudiofilename>
						</logginginfo>
						<colorinfo>
							<lut></lut>
							<lut1></lut1>
							<asc_sop></asc_sop>
							<asc_sat></asc_sat>
							<lut2></lut2>
						</colorinfo>
						<labels>
							<label2>Violet</label2>
						</labels>
					</clipitem>
					<clipitem id="clipitem-788">
						<masterclipid>masterclip-785</masterclipid>
						<name>TKO_014_WRE_Sh08160.mov</name>
						<enabled>TRUE</enabled>
						<duration>145</duration>
						<rate>
							<timebase>24</timebase>
							<ntsc>TRUE</ntsc>
						</rate>
						<start>64521</start>
						<end>64658</end>
						<in>4</in>
						<out>141</out>
						<pproTicksIn>42378336000</pproTicksIn>
						<pproTicksOut>1493836344000</pproTicksOut>
						<alphatype>none</alphatype>
						<pixelaspectratio>square</pixelaspectratio>
						<anamorphic>FALSE</anamorphic>
						<file id="file-785">
							<name>TKO_014_WRE_Sh08160.mov</name>
							<pathurl>file://tri-stor01/Projects/TKO/SHOTS/_Refs_Movs_Burnin_FrameCounter/TKO_014_WRE_Sh08160.mov</pathurl>
							<rate>
								<timebase>24</timebase>
								<ntsc>TRUE</ntsc>
							</rate>
							<duration>145</duration>
							<timecode>
								<rate>
									<timebase>24</timebase>
									<ntsc>TRUE</ntsc>
								</rate>
								<string>18:12:40:15</string>
								<frame>1573455</frame>
								<displayformat>NDF</displayformat>
								<reel>
									<name>A0460014</name>
								</reel>
							</timecode>
							<media>
								<video>
									<samplecharacteristics>
										<rate>
											<timebase>24</timebase>
											<ntsc>TRUE</ntsc>
										</rate>
										<width>4096</width>
										<height>2160</height>
										<anamorphic>FALSE</anamorphic>
										<pixelaspectratio>square</pixelaspectratio>
										<fielddominance>none</fielddominance>
									</samplecharacteristics>
								</video>
							</media>
						</file>
						<logginginfo>
							<description></description>
							<scene></scene>
							<shottake></shottake>
							<lognote></lognote>
							<good></good>
							<originalvideofilename></originalvideofilename>
							<originalaudiofilename></originalaudiofilename>
						</logginginfo>
						<colorinfo>
							<lut></lut>
							<lut1></lut1>
							<asc_sop></asc_sop>
							<asc_sat></asc_sat>
							<lut2></lut2>
						</colorinfo>
						<labels>
							<label2>Violet</label2>
						</labels>
					</clipitem>
					<clipitem id="clipitem-789">
						<masterclipid>masterclip-786</masterclipid>
						<name>TKO_014_WRE_Sh08170.mov</name>
						<enabled>TRUE</enabled>
						<duration>53</duration>
						<rate>
							<timebase>24</timebase>
							<ntsc>TRUE</ntsc>
						</rate>
						<start>64658</start>
						<end>64703</end>
						<in>4</in>
						<out>49</out>
						<pproTicksIn>42378336000</pproTicksIn>
						<pproTicksOut>519134616000</pproTicksOut>
						<alphatype>none</alphatype>
						<pixelaspectratio>square</pixelaspectratio>
						<anamorphic>FALSE</anamorphic>
						<file id="file-786">
							<name>TKO_014_WRE_Sh08170.mov</name>
							<pathurl>file://tri-stor01/Projects/TKO/SHOTS/_Refs_Movs_Burnin_FrameCounter/TKO_014_WRE_Sh08170.mov</pathurl>
							<rate>
								<timebase>24</timebase>
								<ntsc>TRUE</ntsc>
							</rate>
							<duration>53</duration>
							<timecode>
								<rate>
									<timebase>24</timebase>
									<ntsc>TRUE</ntsc>
								</rate>
								<string>18:12:46:08</string>
								<frame>1573592</frame>
								<displayformat>NDF</displayformat>
								<reel>
									<name>B0400012</name>
								</reel>
							</timecode>
							<media>
								<video>
									<samplecharacteristics>
										<rate>
											<timebase>24</timebase>
											<ntsc>TRUE</ntsc>
										</rate>
										<width>4096</width>
										<height>2160</height>
										<anamorphic>FALSE</anamorphic>
										<pixelaspectratio>square</pixelaspectratio>
										<fielddominance>none</fielddominance>
									</samplecharacteristics>
								</video>
							</media>
						</file>
						<logginginfo>
							<description></description>
							<scene></scene>
							<shottake></shottake>
							<lognote></lognote>
							<good></good>
							<originalvideofilename></originalvideofilename>
							<originalaudiofilename></originalaudiofilename>
						</logginginfo>
						<colorinfo>
							<lut></lut>
							<lut1></lut1>
							<asc_sop></asc_sop>
							<asc_sat></asc_sat>
							<lut2></lut2>
						</colorinfo>
						<labels>
							<label2>Violet</label2>
						</labels>
					</clipitem>
					<clipitem id="clipitem-790">
						<masterclipid>masterclip-787</masterclipid>
						<name>TKO_014_WRE_Sh08180.mov</name>
						<enabled>TRUE</enabled>
						<duration>65</duration>
						<rate>
							<timebase>24</timebase>
							<ntsc>TRUE</ntsc>
						</rate>
						<start>64703</start>
						<end>64760</end>
						<in>4</in>
						<out>61</out>
						<pproTicksIn>42378336000</pproTicksIn>
						<pproTicksOut>646269624000</pproTicksOut>
						<alphatype>none</alphatype>
						<pixelaspectratio>square</pixelaspectratio>
						<anamorphic>FALSE</anamorphic>
						<file id="file-787">
							<name>TKO_014_WRE_Sh08180.mov</name>
							<pathurl>file://tri-stor01/Projects/TKO/SHOTS/_Refs_Movs_Burnin_FrameCounter/TKO_014_WRE_Sh08180.mov</pathurl>
							<rate>
								<timebase>24</timebase>
								<ntsc>TRUE</ntsc>
							</rate>
							<duration>65</duration>
							<timecode>
								<rate>
									<timebase>24</timebase>
									<ntsc>TRUE</ntsc>
								</rate>
								<string>17:59:58:14</string>
								<frame>1555166</frame>
								<displayformat>NDF</displayformat>
								<reel>
									<name>A0460012</name>
								</reel>
							</timecode>
							<media>
								<video>
									<samplecharacteristics>
										<rate>
											<timebase>24</timebase>
											<ntsc>TRUE</ntsc>
										</rate>
										<width>4096</width>
										<height>2160</height>
										<anamorphic>FALSE</anamorphic>
										<pixelaspectratio>square</pixelaspectratio>
										<fielddominance>none</fielddominance>
									</samplecharacteristics>
								</video>
							</media>
						</file>
						<logginginfo>
							<description></description>
							<scene></scene>
							<shottake></shottake>
							<lognote></lognote>
							<good></good>
							<originalvideofilename></originalvideofilename>
							<originalaudiofilename></originalaudiofilename>
						</logginginfo>
						<colorinfo>
							<lut></lut>
							<lut1></lut1>
							<asc_sop></asc_sop>
							<asc_sat></asc_sat>
							<lut2></lut2>
						</colorinfo>
						<labels>
							<label2>Violet</label2>
						</labels>
					</clipitem>
					<clipitem id="clipitem-791">
						<masterclipid>masterclip-788</masterclipid>
						<name>TKO_014_WRE_Sh08190.mov</name>
						<enabled>TRUE</enabled>
						<duration>61</duration>
						<rate>
							<timebase>24</timebase>
							<ntsc>TRUE</ntsc>
						</rate>
						<start>64760</start>
						<end>64813</end>
						<in>4</in>
						<out>57</out>
						<pproTicksIn>42378336000</pproTicksIn>
						<pproTicksOut>603891288000</pproTicksOut>
						<alphatype>none</alphatype>
						<pixelaspectratio>square</pixelaspectratio>
						<anamorphic>FALSE</anamorphic>
						<file id="file-788">
							<name>TKO_014_WRE_Sh08190.mov</name>
							<pathurl>file://tri-stor01/Projects/TKO/SHOTS/_Refs_Movs_Burnin_FrameCounter/TKO_014_WRE_Sh08190.mov</pathurl>
							<rate>
								<timebase>24</timebase>
								<ntsc>TRUE</ntsc>
							</rate>
							<duration>61</duration>
							<timecode>
								<rate>
									<timebase>24</timebase>
									<ntsc>TRUE</ntsc>
								</rate>
								<string>19:03:40:02</string>
								<frame>1646882</frame>
								<displayformat>NDF</displayformat>
								<reel>
									<name>A0460020</name>
								</reel>
							</timecode>
							<media>
								<video>
									<samplecharacteristics>
										<rate>
											<timebase>24</timebase>
											<ntsc>TRUE</ntsc>
										</rate>
										<width>4096</width>
										<height>2160</height>
										<anamorphic>FALSE</anamorphic>
										<pixelaspectratio>square</pixelaspectratio>
										<fielddominance>none</fielddominance>
									</samplecharacteristics>
								</video>
							</media>
						</file>
						<logginginfo>
							<description></description>
							<scene></scene>
							<shottake></shottake>
							<lognote></lognote>
							<good></good>
							<originalvideofilename></originalvideofilename>
							<originalaudiofilename></originalaudiofilename>
						</logginginfo>
						<colorinfo>
							<lut></lut>
							<lut1></lut1>
							<asc_sop></asc_sop>
							<asc_sat></asc_sat>
							<lut2></lut2>
						</colorinfo>
						<labels>
							<label2>Violet</label2>
						</labels>
					</clipitem>
					<clipitem id="clipitem-792">
						<masterclipid>masterclip-789</masterclipid>
						<name>TKO_014_WRE_Sh08200.mov</name>
						<enabled>TRUE</enabled>
						<duration>70</duration>
						<rate>
							<timebase>24</timebase>
							<ntsc>TRUE</ntsc>
						</rate>
						<start>64813</start>
						<end>64875</end>
						<in>4</in>
						<out>66</out>
						<pproTicksIn>42378336000</pproTicksIn>
						<pproTicksOut>699242544000</pproTicksOut>
						<alphatype>none</alphatype>
						<pixelaspectratio>square</pixelaspectratio>
						<anamorphic>FALSE</anamorphic>
						<file id="file-789">
							<name>TKO_014_WRE_Sh08200.mov</name>
							<pathurl>file://tri-stor01/Projects/TKO/SHOTS/_Refs_Movs_Burnin_FrameCounter/TKO_014_WRE_Sh08200.mov</pathurl>
							<rate>
								<timebase>24</timebase>
								<ntsc>TRUE</ntsc>
							</rate>
							<duration>70</duration>
							<timecode>
								<rate>
									<timebase>24</timebase>
									<ntsc>TRUE</ntsc>
								</rate>
								<string>18:39:45:06</string>
								<frame>1612446</frame>
								<displayformat>NDF</displayformat>
								<reel>
									<name>A0460017</name>
								</reel>
							</timecode>
							<media>
								<video>
									<samplecharacteristics>
										<rate>
											<timebase>24</timebase>
											<ntsc>TRUE</ntsc>
										</rate>
										<width>4096</width>
										<height>2160</height>
										<anamorphic>FALSE</anamorphic>
										<pixelaspectratio>square</pixelaspectratio>
										<fielddominance>none</fielddominance>
									</samplecharacteristics>
								</video>
							</media>
						</file>
						<logginginfo>
							<description></description>
							<scene></scene>
							<shottake></shottake>
							<lognote></lognote>
							<good></good>
							<originalvideofilename></originalvideofilename>
							<originalaudiofilename></originalaudiofilename>
						</logginginfo>
						<colorinfo>
							<lut></lut>
							<lut1></lut1>
							<asc_sop></asc_sop>
							<asc_sat></asc_sat>
							<lut2></lut2>
						</colorinfo>
						<labels>
							<label2>Violet</label2>
						</labels>
					</clipitem>
					<clipitem id="clipitem-793">
						<masterclipid>masterclip-790</masterclipid>
						<name>TKO_014_WRE_Sh08210.mov</name>
						<enabled>TRUE</enabled>
						<duration>47</duration>
						<rate>
							<timebase>24</timebase>
							<ntsc>TRUE</ntsc>
						</rate>
						<start>64875</start>
						<end>64914</end>
						<in>4</in>
						<out>43</out>
						<pproTicksIn>42378336000</pproTicksIn>
						<pproTicksOut>455567112000</pproTicksOut>
						<alphatype>none</alphatype>
						<pixelaspectratio>square</pixelaspectratio>
						<anamorphic>FALSE</anamorphic>
						<file id="file-790">
							<name>TKO_014_WRE_Sh08210.mov</name>
							<pathurl>file://tri-stor01/Projects/TKO/SHOTS/_Refs_Movs_Burnin_FrameCounter/TKO_014_WRE_Sh08210.mov</pathurl>
							<rate>
								<timebase>24</timebase>
								<ntsc>TRUE</ntsc>
							</rate>
							<duration>47</duration>
							<timecode>
								<rate>
									<timebase>24</timebase>
									<ntsc>TRUE</ntsc>
								</rate>
								<string>19:04:32:15</string>
								<frame>1648143</frame>
								<displayformat>NDF</displayformat>
								<reel>
									<name>A0460020</name>
								</reel>
							</timecode>
							<media>
								<video>
									<samplecharacteristics>
										<rate>
											<timebase>24</timebase>
											<ntsc>TRUE</ntsc>
										</rate>
										<width>4096</width>
										<height>2160</height>
										<anamorphic>FALSE</anamorphic>
										<pixelaspectratio>square</pixelaspectratio>
										<fielddominance>none</fielddominance>
									</samplecharacteristics>
								</video>
							</media>
						</file>
						<logginginfo>
							<description></description>
							<scene></scene>
							<shottake></shottake>
							<lognote></lognote>
							<good></good>
							<originalvideofilename></originalvideofilename>
							<originalaudiofilename></originalaudiofilename>
						</logginginfo>
						<colorinfo>
							<lut></lut>
							<lut1></lut1>
							<asc_sop></asc_sop>
							<asc_sat></asc_sat>
							<lut2></lut2>
						</colorinfo>
						<labels>
							<label2>Violet</label2>
						</labels>
					</clipitem>
					<clipitem id="clipitem-794">
						<masterclipid>masterclip-791</masterclipid>
						<name>TKO_014_WRE_Sh08220.mov</name>
						<enabled>TRUE</enabled>
						<duration>66</duration>
						<rate>
							<timebase>24</timebase>
							<ntsc>TRUE</ntsc>
						</rate>
						<start>64914</start>
						<end>64972</end>
						<in>4</in>
						<out>62</out>
						<pproTicksIn>42378336000</pproTicksIn>
						<pproTicksOut>656864208000</pproTicksOut>
						<alphatype>none</alphatype>
						<pixelaspectratio>square</pixelaspectratio>
						<anamorphic>FALSE</anamorphic>
						<file id="file-791">
							<name>TKO_014_WRE_Sh08220.mov</name>
							<pathurl>file://tri-stor01/Projects/TKO/SHOTS/_Refs_Movs_Burnin_FrameCounter/TKO_014_WRE_Sh08220.mov</pathurl>
							<rate>
								<timebase>24</timebase>
								<ntsc>TRUE</ntsc>
							</rate>
							<duration>66</duration>
							<timecode>
								<rate>
									<timebase>24</timebase>
									<ntsc>TRUE</ntsc>
								</rate>
								<string>18:00:08:13</string>
								<frame>1555405</frame>
								<displayformat>NDF</displayformat>
								<reel>
									<name>A0460012</name>
								</reel>
							</timecode>
							<media>
								<video>
									<samplecharacteristics>
										<rate>
											<timebase>24</timebase>
											<ntsc>TRUE</ntsc>
										</rate>
										<width>4096</width>
										<height>2160</height>
										<anamorphic>FALSE</anamorphic>
										<pixelaspectratio>square</pixelaspectratio>
										<fielddominance>none</fielddominance>
									</samplecharacteristics>
								</video>
							</media>
						</file>
						<logginginfo>
							<description></description>
							<scene></scene>
							<shottake></shottake>
							<lognote></lognote>
							<good></good>
							<originalvideofilename></originalvideofilename>
							<originalaudiofilename></originalaudiofilename>
						</logginginfo>
						<colorinfo>
							<lut></lut>
							<lut1></lut1>
							<asc_sop></asc_sop>
							<asc_sat></asc_sat>
							<lut2></lut2>
						</colorinfo>
						<labels>
							<label2>Violet</label2>
						</labels>
					</clipitem>
					<clipitem id="clipitem-795">
						<masterclipid>masterclip-792</masterclipid>
						<name>TKO_014_WRE_Sh08230.mov</name>
						<enabled>TRUE</enabled>
						<duration>73</duration>
						<rate>
							<timebase>24</timebase>
							<ntsc>TRUE</ntsc>
						</rate>
						<start>64972</start>
						<end>65037</end>
						<in>4</in>
						<out>69</out>
						<pproTicksIn>42378336000</pproTicksIn>
						<pproTicksOut>731026296000</pproTicksOut>
						<alphatype>none</alphatype>
						<pixelaspectratio>square</pixelaspectratio>
						<anamorphic>FALSE</anamorphic>
						<file id="file-792">
							<name>TKO_014_WRE_Sh08230.mov</name>
							<pathurl>file://tri-stor01/Projects/TKO/SHOTS/_Refs_Movs_Burnin_FrameCounter/TKO_014_WRE_Sh08230.mov</pathurl>
							<rate>
								<timebase>24</timebase>
								<ntsc>TRUE</ntsc>
							</rate>
							<duration>73</duration>
							<timecode>
								<rate>
									<timebase>24</timebase>
									<ntsc>TRUE</ntsc>
								</rate>
								<string>18:00:10:23</string>
								<frame>1555463</frame>
								<displayformat>NDF</displayformat>
								<reel>
									<name>B0400010</name>
								</reel>
							</timecode>
							<media>
								<video>
									<samplecharacteristics>
										<rate>
											<timebase>24</timebase>
											<ntsc>TRUE</ntsc>
										</rate>
										<width>4096</width>
										<height>2160</height>
										<anamorphic>FALSE</anamorphic>
										<pixelaspectratio>square</pixelaspectratio>
										<fielddominance>none</fielddominance>
									</samplecharacteristics>
								</video>
							</media>
						</file>
						<logginginfo>
							<description></description>
							<scene></scene>
							<shottake></shottake>
							<lognote></lognote>
							<good></good>
							<originalvideofilename></originalvideofilename>
							<originalaudiofilename></originalaudiofilename>
						</logginginfo>
						<colorinfo>
							<lut></lut>
							<lut1></lut1>
							<asc_sop></asc_sop>
							<asc_sat></asc_sat>
							<lut2></lut2>
						</colorinfo>
						<labels>
							<label2>Violet</label2>
						</labels>
					</clipitem>
					<clipitem id="clipitem-796">
						<masterclipid>masterclip-793</masterclipid>
						<name>TKO_014_WRE_Sh08240.mov</name>
						<enabled>TRUE</enabled>
						<duration>97</duration>
						<rate>
							<timebase>24</timebase>
							<ntsc>TRUE</ntsc>
						</rate>
						<start>65037</start>
						<end>65126</end>
						<in>4</in>
						<out>93</out>
						<pproTicksIn>42378336000</pproTicksIn>
						<pproTicksOut>985296312000</pproTicksOut>
						<alphatype>none</alphatype>
						<pixelaspectratio>square</pixelaspectratio>
						<anamorphic>FALSE</anamorphic>
						<file id="file-793">
							<name>TKO_014_WRE_Sh08240.mov</name>
							<pathurl>file://tri-stor01/Projects/TKO/SHOTS/_Refs_Movs_Burnin_FrameCounter/TKO_014_WRE_Sh08240.mov</pathurl>
							<rate>
								<timebase>24</timebase>
								<ntsc>TRUE</ntsc>
							</rate>
							<duration>97</duration>
							<timecode>
								<rate>
									<timebase>24</timebase>
									<ntsc>TRUE</ntsc>
								</rate>
								<string>19:07:39:11</string>
								<frame>1652627</frame>
								<displayformat>NDF</displayformat>
								<reel>
									<name>A0460021</name>
								</reel>
							</timecode>
							<media>
								<video>
									<samplecharacteristics>
										<rate>
											<timebase>24</timebase>
											<ntsc>TRUE</ntsc>
										</rate>
										<width>4096</width>
										<height>2160</height>
										<anamorphic>FALSE</anamorphic>
										<pixelaspectratio>square</pixelaspectratio>
										<fielddominance>none</fielddominance>
									</samplecharacteristics>
								</video>
							</media>
						</file>
						<logginginfo>
							<description></description>
							<scene></scene>
							<shottake></shottake>
							<lognote></lognote>
							<good></good>
							<originalvideofilename></originalvideofilename>
							<originalaudiofilename></originalaudiofilename>
						</logginginfo>
						<colorinfo>
							<lut></lut>
							<lut1></lut1>
							<asc_sop></asc_sop>
							<asc_sat></asc_sat>
							<lut2></lut2>
						</colorinfo>
						<labels>
							<label2>Violet</label2>
						</labels>
					</clipitem>
					<clipitem id="clipitem-797">
						<masterclipid>masterclip-794</masterclipid>
						<name>TKO_014_WRE_Sh08250.mov</name>
						<enabled>TRUE</enabled>
						<duration>79</duration>
						<rate>
							<timebase>24</timebase>
							<ntsc>TRUE</ntsc>
						</rate>
						<start>65126</start>
						<end>65197</end>
						<in>4</in>
						<out>75</out>
						<pproTicksIn>42378336000</pproTicksIn>
						<pproTicksOut>794593800000</pproTicksOut>
						<alphatype>none</alphatype>
						<pixelaspectratio>square</pixelaspectratio>
						<anamorphic>FALSE</anamorphic>
						<file id="file-794">
							<name>TKO_014_WRE_Sh08250.mov</name>
							<pathurl>file://tri-stor01/Projects/TKO/SHOTS/_Refs_Movs_Burnin_FrameCounter/TKO_014_WRE_Sh08250.mov</pathurl>
							<rate>
								<timebase>24</timebase>
								<ntsc>TRUE</ntsc>
							</rate>
							<duration>79</duration>
							<timecode>
								<rate>
									<timebase>24</timebase>
									<ntsc>TRUE</ntsc>
								</rate>
								<string>18:40:00:01</string>
								<frame>1612801</frame>
								<displayformat>NDF</displayformat>
								<reel>
									<name>A0460017</name>
								</reel>
							</timecode>
							<media>
								<video>
									<samplecharacteristics>
										<rate>
											<timebase>24</timebase>
											<ntsc>TRUE</ntsc>
										</rate>
										<width>4096</width>
										<height>2160</height>
										<anamorphic>FALSE</anamorphic>
										<pixelaspectratio>square</pixelaspectratio>
										<fielddominance>none</fielddominance>
									</samplecharacteristics>
								</video>
							</media>
						</file>
						<logginginfo>
							<description></description>
							<scene></scene>
							<shottake></shottake>
							<lognote></lognote>
							<good></good>
							<originalvideofilename></originalvideofilename>
							<originalaudiofilename></originalaudiofilename>
						</logginginfo>
						<colorinfo>
							<lut></lut>
							<lut1></lut1>
							<asc_sop></asc_sop>
							<asc_sat></asc_sat>
							<lut2></lut2>
						</colorinfo>
						<labels>
							<label2>Violet</label2>
						</labels>
					</clipitem>
					<clipitem id="clipitem-798">
						<masterclipid>masterclip-795</masterclipid>
						<name>TKO_014_WRE_Sh08280.mov</name>
						<enabled>TRUE</enabled>
						<duration>62</duration>
						<rate>
							<timebase>24</timebase>
							<ntsc>TRUE</ntsc>
						</rate>
						<start>65197</start>
						<end>65251</end>
						<in>4</in>
						<out>58</out>
						<pproTicksIn>42378336000</pproTicksIn>
						<pproTicksOut>614485872000</pproTicksOut>
						<alphatype>none</alphatype>
						<pixelaspectratio>square</pixelaspectratio>
						<anamorphic>FALSE</anamorphic>
						<file id="file-795">
							<name>TKO_014_WRE_Sh08280.mov</name>
							<pathurl>file://tri-stor01/Projects/TKO/SHOTS/_Refs_Movs_Burnin_FrameCounter/TKO_014_WRE_Sh08280.mov</pathurl>
							<rate>
								<timebase>24</timebase>
								<ntsc>TRUE</ntsc>
							</rate>
							<duration>62</duration>
							<timecode>
								<rate>
									<timebase>24</timebase>
									<ntsc>TRUE</ntsc>
								</rate>
								<string>18:57:37:17</string>
								<frame>1638185</frame>
								<displayformat>NDF</displayformat>
								<reel>
									<name>B0400017</name>
								</reel>
							</timecode>
							<media>
								<video>
									<samplecharacteristics>
										<rate>
											<timebase>24</timebase>
											<ntsc>TRUE</ntsc>
										</rate>
										<width>4096</width>
										<height>2160</height>
										<anamorphic>FALSE</anamorphic>
										<pixelaspectratio>square</pixelaspectratio>
										<fielddominance>none</fielddominance>
									</samplecharacteristics>
								</video>
							</media>
						</file>
						<logginginfo>
							<description></description>
							<scene></scene>
							<shottake></shottake>
							<lognote></lognote>
							<good></good>
							<originalvideofilename></originalvideofilename>
							<originalaudiofilename></originalaudiofilename>
						</logginginfo>
						<colorinfo>
							<lut></lut>
							<lut1></lut1>
							<asc_sop></asc_sop>
							<asc_sat></asc_sat>
							<lut2></lut2>
						</colorinfo>
						<labels>
							<label2>Violet</label2>
						</labels>
					</clipitem>
					<clipitem id="clipitem-799">
						<masterclipid>masterclip-796</masterclipid>
						<name>TKO_014_WRE_Sh08290.mov</name>
						<enabled>TRUE</enabled>
						<duration>54</duration>
						<rate>
							<timebase>24</timebase>
							<ntsc>TRUE</ntsc>
						</rate>
						<start>65251</start>
						<end>65297</end>
						<in>4</in>
						<out>50</out>
						<pproTicksIn>42378336000</pproTicksIn>
						<pproTicksOut>529729200000</pproTicksOut>
						<alphatype>none</alphatype>
						<pixelaspectratio>square</pixelaspectratio>
						<anamorphic>FALSE</anamorphic>
						<file id="file-796">
							<name>TKO_014_WRE_Sh08290.mov</name>
							<pathurl>file://tri-stor01/Projects/TKO/SHOTS/_Refs_Movs_Burnin_FrameCounter/TKO_014_WRE_Sh08290.mov</pathurl>
							<rate>
								<timebase>24</timebase>
								<ntsc>TRUE</ntsc>
							</rate>
							<duration>54</duration>
							<timecode>
								<rate>
									<timebase>24</timebase>
									<ntsc>TRUE</ntsc>
								</rate>
								<string>19:19:32:05</string>
								<frame>1669733</frame>
								<displayformat>NDF</displayformat>
								<reel>
									<name>B0400020</name>
								</reel>
							</timecode>
							<media>
								<video>
									<samplecharacteristics>
										<rate>
											<timebase>24</timebase>
											<ntsc>TRUE</ntsc>
										</rate>
										<width>4096</width>
										<height>2160</height>
										<anamorphic>FALSE</anamorphic>
										<pixelaspectratio>square</pixelaspectratio>
										<fielddominance>none</fielddominance>
									</samplecharacteristics>
								</video>
							</media>
						</file>
						<logginginfo>
							<description></description>
							<scene></scene>
							<shottake></shottake>
							<lognote></lognote>
							<good></good>
							<originalvideofilename></originalvideofilename>
							<originalaudiofilename></originalaudiofilename>
						</logginginfo>
						<colorinfo>
							<lut></lut>
							<lut1></lut1>
							<asc_sop></asc_sop>
							<asc_sat></asc_sat>
							<lut2></lut2>
						</colorinfo>
						<labels>
							<label2>Violet</label2>
						</labels>
					</clipitem>
					<clipitem id="clipitem-800">
						<masterclipid>masterclip-797</masterclipid>
						<name>TKO_014_WRE_Sh08300.mov</name>
						<enabled>TRUE</enabled>
						<duration>122</duration>
						<rate>
							<timebase>24</timebase>
							<ntsc>TRUE</ntsc>
						</rate>
						<start>65297</start>
						<end>65411</end>
						<in>4</in>
						<out>118</out>
						<pproTicksIn>42378336000</pproTicksIn>
						<pproTicksOut>1250160912000</pproTicksOut>
						<alphatype>none</alphatype>
						<pixelaspectratio>square</pixelaspectratio>
						<anamorphic>FALSE</anamorphic>
						<file id="file-797">
							<name>TKO_014_WRE_Sh08300.mov</name>
							<pathurl>file://tri-stor01/Projects/TKO/SHOTS/_Refs_Movs_Burnin_FrameCounter/TKO_014_WRE_Sh08300.mov</pathurl>
							<rate>
								<timebase>24</timebase>
								<ntsc>TRUE</ntsc>
							</rate>
							<duration>122</duration>
							<timecode>
								<rate>
									<timebase>24</timebase>
									<ntsc>TRUE</ntsc>
								</rate>
								<string>19:19:34:22</string>
								<frame>1669798</frame>
								<displayformat>NDF</displayformat>
								<reel>
									<name>A0460022</name>
								</reel>
							</timecode>
							<media>
								<video>
									<samplecharacteristics>
										<rate>
											<timebase>24</timebase>
											<ntsc>TRUE</ntsc>
										</rate>
										<width>4096</width>
										<height>2160</height>
										<anamorphic>FALSE</anamorphic>
										<pixelaspectratio>square</pixelaspectratio>
										<fielddominance>none</fielddominance>
									</samplecharacteristics>
								</video>
							</media>
						</file>
						<logginginfo>
							<description></description>
							<scene></scene>
							<shottake></shottake>
							<lognote></lognote>
							<good></good>
							<originalvideofilename></originalvideofilename>
							<originalaudiofilename></originalaudiofilename>
						</logginginfo>
						<colorinfo>
							<lut></lut>
							<lut1></lut1>
							<asc_sop></asc_sop>
							<asc_sat></asc_sat>
							<lut2></lut2>
						</colorinfo>
						<labels>
							<label2>Violet</label2>
						</labels>
					</clipitem>
					<clipitem id="clipitem-801">
						<masterclipid>masterclip-798</masterclipid>
						<name>TKO_014_WRE_Sh08310.mov</name>
						<enabled>TRUE</enabled>
						<duration>106</duration>
						<rate>
							<timebase>24</timebase>
							<ntsc>TRUE</ntsc>
						</rate>
						<start>65411</start>
						<end>65509</end>
						<in>4</in>
						<out>102</out>
						<pproTicksIn>42378336000</pproTicksIn>
						<pproTicksOut>1080647568000</pproTicksOut>
						<alphatype>none</alphatype>
						<pixelaspectratio>square</pixelaspectratio>
						<anamorphic>FALSE</anamorphic>
						<file id="file-798">
							<name>TKO_014_WRE_Sh08310.mov</name>
							<pathurl>file://tri-stor01/Projects/TKO/SHOTS/_Refs_Movs_Burnin_FrameCounter/TKO_014_WRE_Sh08310.mov</pathurl>
							<rate>
								<timebase>24</timebase>
								<ntsc>TRUE</ntsc>
							</rate>
							<duration>106</duration>
							<timecode>
								<rate>
									<timebase>24</timebase>
									<ntsc>TRUE</ntsc>
								</rate>
								<string>18:40:05:07</string>
								<frame>1612927</frame>
								<displayformat>NDF</displayformat>
								<reel>
									<name>A0460017</name>
								</reel>
							</timecode>
							<media>
								<video>
									<samplecharacteristics>
										<rate>
											<timebase>24</timebase>
											<ntsc>TRUE</ntsc>
										</rate>
										<width>4096</width>
										<height>2160</height>
										<anamorphic>FALSE</anamorphic>
										<pixelaspectratio>square</pixelaspectratio>
										<fielddominance>none</fielddominance>
									</samplecharacteristics>
								</video>
							</media>
						</file>
						<logginginfo>
							<description></description>
							<scene></scene>
							<shottake></shottake>
							<lognote></lognote>
							<good></good>
							<originalvideofilename></originalvideofilename>
							<originalaudiofilename></originalaudiofilename>
						</logginginfo>
						<colorinfo>
							<lut></lut>
							<lut1></lut1>
							<asc_sop></asc_sop>
							<asc_sat></asc_sat>
							<lut2></lut2>
						</colorinfo>
						<labels>
							<label2>Violet</label2>
						</labels>
					</clipitem>
					<clipitem id="clipitem-802">
						<masterclipid>masterclip-799</masterclipid>
						<name>TKO_014_WRE_Sh08320.mov</name>
						<enabled>TRUE</enabled>
						<duration>69</duration>
						<rate>
							<timebase>24</timebase>
							<ntsc>TRUE</ntsc>
						</rate>
						<start>65509</start>
						<end>65570</end>
						<in>4</in>
						<out>65</out>
						<pproTicksIn>42378336000</pproTicksIn>
						<pproTicksOut>688647960000</pproTicksOut>
						<alphatype>none</alphatype>
						<pixelaspectratio>square</pixelaspectratio>
						<anamorphic>FALSE</anamorphic>
						<file id="file-799">
							<name>TKO_014_WRE_Sh08320.mov</name>
							<pathurl>file://tri-stor01/Projects/TKO/SHOTS/_Refs_Movs_Burnin_FrameCounter/TKO_014_WRE_Sh08320.mov</pathurl>
							<rate>
								<timebase>24</timebase>
								<ntsc>TRUE</ntsc>
							</rate>
							<duration>69</duration>
							<timecode>
								<rate>
									<timebase>24</timebase>
									<ntsc>TRUE</ntsc>
								</rate>
								<string>18:57:45:01</string>
								<frame>1638361</frame>
								<displayformat>NDF</displayformat>
								<reel>
									<name>A0460019</name>
								</reel>
							</timecode>
							<media>
								<video>
									<samplecharacteristics>
										<rate>
											<timebase>24</timebase>
											<ntsc>TRUE</ntsc>
										</rate>
										<width>4096</width>
										<height>2160</height>
										<anamorphic>FALSE</anamorphic>
										<pixelaspectratio>square</pixelaspectratio>
										<fielddominance>none</fielddominance>
									</samplecharacteristics>
								</video>
							</media>
						</file>
						<logginginfo>
							<description></description>
							<scene></scene>
							<shottake></shottake>
							<lognote></lognote>
							<good></good>
							<originalvideofilename></originalvideofilename>
							<originalaudiofilename></originalaudiofilename>
						</logginginfo>
						<colorinfo>
							<lut></lut>
							<lut1></lut1>
							<asc_sop></asc_sop>
							<asc_sat></asc_sat>
							<lut2></lut2>
						</colorinfo>
						<labels>
							<label2>Violet</label2>
						</labels>
					</clipitem>
					<clipitem id="clipitem-803">
						<masterclipid>masterclip-800</masterclipid>
						<name>TKO_014_WRE_Sh08330.mov</name>
						<enabled>TRUE</enabled>
						<duration>66</duration>
						<rate>
							<timebase>24</timebase>
							<ntsc>TRUE</ntsc>
						</rate>
						<start>65570</start>
						<end>65628</end>
						<in>4</in>
						<out>62</out>
						<pproTicksIn>42378336000</pproTicksIn>
						<pproTicksOut>656864208000</pproTicksOut>
						<alphatype>none</alphatype>
						<pixelaspectratio>square</pixelaspectratio>
						<anamorphic>FALSE</anamorphic>
						<file id="file-800">
							<name>TKO_014_WRE_Sh08330.mov</name>
							<pathurl>file://tri-stor01/Projects/TKO/SHOTS/_Refs_Movs_Burnin_FrameCounter/TKO_014_WRE_Sh08330.mov</pathurl>
							<rate>
								<timebase>24</timebase>
								<ntsc>TRUE</ntsc>
							</rate>
							<duration>66</duration>
							<timecode>
								<rate>
									<timebase>24</timebase>
									<ntsc>TRUE</ntsc>
								</rate>
								<string>18:42:16:09</string>
								<frame>1616073</frame>
								<displayformat>NDF</displayformat>
								<reel>
									<name>A0460018</name>
								</reel>
							</timecode>
							<media>
								<video>
									<samplecharacteristics>
										<rate>
											<timebase>24</timebase>
											<ntsc>TRUE</ntsc>
										</rate>
										<width>4096</width>
										<height>2160</height>
										<anamorphic>FALSE</anamorphic>
										<pixelaspectratio>square</pixelaspectratio>
										<fielddominance>none</fielddominance>
									</samplecharacteristics>
								</video>
							</media>
						</file>
						<logginginfo>
							<description></description>
							<scene></scene>
							<shottake></shottake>
							<lognote></lognote>
							<good></good>
							<originalvideofilename></originalvideofilename>
							<originalaudiofilename></originalaudiofilename>
						</logginginfo>
						<colorinfo>
							<lut></lut>
							<lut1></lut1>
							<asc_sop></asc_sop>
							<asc_sat></asc_sat>
							<lut2></lut2>
						</colorinfo>
						<labels>
							<label2>Violet</label2>
						</labels>
					</clipitem>
					<clipitem id="clipitem-804">
						<masterclipid>masterclip-801</masterclipid>
						<name>TKO_014_WRE_Sh08340_MERGED.mov</name>
						<enabled>TRUE</enabled>
						<duration>108</duration>
						<rate>
							<timebase>24</timebase>
							<ntsc>TRUE</ntsc>
						</rate>
						<start>65628</start>
						<end>65728</end>
						<in>4</in>
						<out>104</out>
						<pproTicksIn>42378336000</pproTicksIn>
						<pproTicksOut>1101836736000</pproTicksOut>
						<alphatype>none</alphatype>
						<pixelaspectratio>square</pixelaspectratio>
						<anamorphic>FALSE</anamorphic>
						<file id="file-801">
							<name>TKO_014_WRE_Sh08340_MERGED.mov</name>
							<pathurl>file://tri-stor01/Projects/TKO/SHOTS/_Refs_Movs_Burnin_FrameCounter/TKO_014_WRE_Sh08340_MERGED.mov</pathurl>
							<rate>
								<timebase>24</timebase>
								<ntsc>TRUE</ntsc>
							</rate>
							<duration>108</duration>
							<timecode>
								<rate>
									<timebase>24</timebase>
									<ntsc>TRUE</ntsc>
								</rate>
								<string>00:00:00:00</string>
								<frame>0</frame>
								<displayformat>NDF</displayformat>
							</timecode>
							<media>
								<video>
									<samplecharacteristics>
										<rate>
											<timebase>24</timebase>
											<ntsc>TRUE</ntsc>
										</rate>
										<width>1920</width>
										<height>1080</height>
										<anamorphic>FALSE</anamorphic>
										<pixelaspectratio>square</pixelaspectratio>
										<fielddominance>none</fielddominance>
									</samplecharacteristics>
								</video>
								<audio>
									<samplecharacteristics>
										<depth>16</depth>
										<samplerate>48000</samplerate>
									</samplecharacteristics>
									<channelcount>2</channelcount>
								</audio>
							</media>
						</file>
						<logginginfo>
							<description></description>
							<scene></scene>
							<shottake></shottake>
							<lognote></lognote>
							<good></good>
							<originalvideofilename></originalvideofilename>
							<originalaudiofilename></originalaudiofilename>
						</logginginfo>
						<colorinfo>
							<lut></lut>
							<lut1></lut1>
							<asc_sop></asc_sop>
							<asc_sat></asc_sat>
							<lut2></lut2>
						</colorinfo>
						<labels>
							<label2>Iris</label2>
						</labels>
					</clipitem>
					<clipitem id="clipitem-805">
						<masterclipid>masterclip-802</masterclipid>
						<name>TKO_014_WRE_Sh08350.mov</name>
						<enabled>TRUE</enabled>
						<duration>46</duration>
						<rate>
							<timebase>24</timebase>
							<ntsc>TRUE</ntsc>
						</rate>
						<start>65728</start>
						<end>65766</end>
						<in>4</in>
						<out>42</out>
						<pproTicksIn>42378336000</pproTicksIn>
						<pproTicksOut>444972528000</pproTicksOut>
						<alphatype>none</alphatype>
						<pixelaspectratio>square</pixelaspectratio>
						<anamorphic>FALSE</anamorphic>
						<file id="file-802">
							<name>TKO_014_WRE_Sh08350.mov</name>
							<pathurl>file://tri-stor01/Projects/TKO/SHOTS/_Refs_Movs_Burnin_FrameCounter/TKO_014_WRE_Sh08350.mov</pathurl>
							<rate>
								<timebase>24</timebase>
								<ntsc>TRUE</ntsc>
							</rate>
							<duration>46</duration>
							<timecode>
								<rate>
									<timebase>24</timebase>
									<ntsc>TRUE</ntsc>
								</rate>
								<string>19:19:41:19</string>
								<frame>1669963</frame>
								<displayformat>NDF</displayformat>
								<reel>
									<name>A0460022</name>
								</reel>
							</timecode>
							<media>
								<video>
									<samplecharacteristics>
										<rate>
											<timebase>24</timebase>
											<ntsc>TRUE</ntsc>
										</rate>
										<width>4096</width>
										<height>2160</height>
										<anamorphic>FALSE</anamorphic>
										<pixelaspectratio>square</pixelaspectratio>
										<fielddominance>none</fielddominance>
									</samplecharacteristics>
								</video>
							</media>
						</file>
						<logginginfo>
							<description></description>
							<scene></scene>
							<shottake></shottake>
							<lognote></lognote>
							<good></good>
							<originalvideofilename></originalvideofilename>
							<originalaudiofilename></originalaudiofilename>
						</logginginfo>
						<colorinfo>
							<lut></lut>
							<lut1></lut1>
							<asc_sop></asc_sop>
							<asc_sat></asc_sat>
							<lut2></lut2>
						</colorinfo>
						<labels>
							<label2>Violet</label2>
						</labels>
					</clipitem>
					<clipitem id="clipitem-806">
						<masterclipid>masterclip-803</masterclipid>
						<name>TKO_014_WRE_Sh08360.mov</name>
						<enabled>TRUE</enabled>
						<duration>40</duration>
						<rate>
							<timebase>24</timebase>
							<ntsc>TRUE</ntsc>
						</rate>
						<start>65766</start>
						<end>65798</end>
						<in>4</in>
						<out>36</out>
						<pproTicksIn>42378336000</pproTicksIn>
						<pproTicksOut>381405024000</pproTicksOut>
						<alphatype>none</alphatype>
						<pixelaspectratio>square</pixelaspectratio>
						<anamorphic>FALSE</anamorphic>
						<file id="file-803">
							<name>TKO_014_WRE_Sh08360.mov</name>
							<pathurl>file://tri-stor01/Projects/TKO/SHOTS/_Refs_Movs_Burnin_FrameCounter/TKO_014_WRE_Sh08360.mov</pathurl>
							<rate>
								<timebase>24</timebase>
								<ntsc>TRUE</ntsc>
							</rate>
							<duration>40</duration>
							<timecode>
								<rate>
									<timebase>24</timebase>
									<ntsc>TRUE</ntsc>
								</rate>
								<string>18:42:19:16</string>
								<frame>1616152</frame>
								<displayformat>NDF</displayformat>
								<reel>
									<name>A0460018</name>
								</reel>
							</timecode>
							<media>
								<video>
									<samplecharacteristics>
										<rate>
											<timebase>24</timebase>
											<ntsc>TRUE</ntsc>
										</rate>
										<width>4096</width>
										<height>2160</height>
										<anamorphic>FALSE</anamorphic>
										<pixelaspectratio>square</pixelaspectratio>
										<fielddominance>none</fielddominance>
									</samplecharacteristics>
								</video>
							</media>
						</file>
						<logginginfo>
							<description></description>
							<scene></scene>
							<shottake></shottake>
							<lognote></lognote>
							<good></good>
							<originalvideofilename></originalvideofilename>
							<originalaudiofilename></originalaudiofilename>
						</logginginfo>
						<colorinfo>
							<lut></lut>
							<lut1></lut1>
							<asc_sop></asc_sop>
							<asc_sat></asc_sat>
							<lut2></lut2>
						</colorinfo>
						<labels>
							<label2>Violet</label2>
						</labels>
					</clipitem>
					<clipitem id="clipitem-807">
						<masterclipid>masterclip-804</masterclipid>
						<name>TKO_014_WRE_Sh08370.mov</name>
						<enabled>TRUE</enabled>
						<duration>65</duration>
						<rate>
							<timebase>24</timebase>
							<ntsc>TRUE</ntsc>
						</rate>
						<start>65798</start>
						<end>65855</end>
						<in>4</in>
						<out>61</out>
						<pproTicksIn>42378336000</pproTicksIn>
						<pproTicksOut>646269624000</pproTicksOut>
						<alphatype>none</alphatype>
						<pixelaspectratio>square</pixelaspectratio>
						<anamorphic>FALSE</anamorphic>
						<file id="file-804">
							<name>TKO_014_WRE_Sh08370.mov</name>
							<pathurl>file://tri-stor01/Projects/TKO/SHOTS/_Refs_Movs_Burnin_FrameCounter/TKO_014_WRE_Sh08370.mov</pathurl>
							<rate>
								<timebase>24</timebase>
								<ntsc>TRUE</ntsc>
							</rate>
							<duration>65</duration>
							<timecode>
								<rate>
									<timebase>24</timebase>
									<ntsc>TRUE</ntsc>
								</rate>
								<string>18:57:50:22</string>
								<frame>1638502</frame>
								<displayformat>NDF</displayformat>
								<reel>
									<name>A0460019</name>
								</reel>
							</timecode>
							<media>
								<video>
									<samplecharacteristics>
										<rate>
											<timebase>24</timebase>
											<ntsc>TRUE</ntsc>
										</rate>
										<width>4096</width>
										<height>2160</height>
										<anamorphic>FALSE</anamorphic>
										<pixelaspectratio>square</pixelaspectratio>
										<fielddominance>none</fielddominance>
									</samplecharacteristics>
								</video>
							</media>
						</file>
						<logginginfo>
							<description></description>
							<scene></scene>
							<shottake></shottake>
							<lognote></lognote>
							<good></good>
							<originalvideofilename></originalvideofilename>
							<originalaudiofilename></originalaudiofilename>
						</logginginfo>
						<colorinfo>
							<lut></lut>
							<lut1></lut1>
							<asc_sop></asc_sop>
							<asc_sat></asc_sat>
							<lut2></lut2>
						</colorinfo>
						<labels>
							<label2>Violet</label2>
						</labels>
					</clipitem>
					<clipitem id="clipitem-808">
						<masterclipid>masterclip-805</masterclipid>
						<name>TKO_014_WRE_Sh08380.mov</name>
						<enabled>TRUE</enabled>
						<duration>38</duration>
						<rate>
							<timebase>24</timebase>
							<ntsc>TRUE</ntsc>
						</rate>
						<start>65855</start>
						<end>65885</end>
						<in>4</in>
						<out>34</out>
						<pproTicksIn>42378336000</pproTicksIn>
						<pproTicksOut>360215856000</pproTicksOut>
						<alphatype>none</alphatype>
						<pixelaspectratio>square</pixelaspectratio>
						<anamorphic>FALSE</anamorphic>
						<file id="file-805">
							<name>TKO_014_WRE_Sh08380.mov</name>
							<pathurl>file://tri-stor01/Projects/TKO/SHOTS/_Refs_Movs_Burnin_FrameCounter/TKO_014_WRE_Sh08380.mov</pathurl>
							<rate>
								<timebase>24</timebase>
								<ntsc>TRUE</ntsc>
							</rate>
							<duration>38</duration>
							<timecode>
								<rate>
									<timebase>24</timebase>
									<ntsc>TRUE</ntsc>
								</rate>
								<string>18:42:22:12</string>
								<frame>1616220</frame>
								<displayformat>NDF</displayformat>
								<reel>
									<name>A0460018</name>
								</reel>
							</timecode>
							<media>
								<video>
									<samplecharacteristics>
										<rate>
											<timebase>24</timebase>
											<ntsc>TRUE</ntsc>
										</rate>
										<width>4096</width>
										<height>2160</height>
										<anamorphic>FALSE</anamorphic>
										<pixelaspectratio>square</pixelaspectratio>
										<fielddominance>none</fielddominance>
									</samplecharacteristics>
								</video>
							</media>
						</file>
						<logginginfo>
							<description></description>
							<scene></scene>
							<shottake></shottake>
							<lognote></lognote>
							<good></good>
							<originalvideofilename></originalvideofilename>
							<originalaudiofilename></originalaudiofilename>
						</logginginfo>
						<colorinfo>
							<lut></lut>
							<lut1></lut1>
							<asc_sop></asc_sop>
							<asc_sat></asc_sat>
							<lut2></lut2>
						</colorinfo>
						<labels>
							<label2>Violet</label2>
						</labels>
					</clipitem>
					<clipitem id="clipitem-809">
						<masterclipid>masterclip-806</masterclipid>
						<name>TKO_014_WRE_Sh08390.mov</name>
						<enabled>TRUE</enabled>
						<duration>58</duration>
						<rate>
							<timebase>24</timebase>
							<ntsc>TRUE</ntsc>
						</rate>
						<start>65885</start>
						<end>65935</end>
						<in>4</in>
						<out>54</out>
						<pproTicksIn>42378336000</pproTicksIn>
						<pproTicksOut>572107536000</pproTicksOut>
						<alphatype>none</alphatype>
						<pixelaspectratio>square</pixelaspectratio>
						<anamorphic>FALSE</anamorphic>
						<file id="file-806">
							<name>TKO_014_WRE_Sh08390.mov</name>
							<pathurl>file://tri-stor01/Projects/TKO/SHOTS/_Refs_Movs_Burnin_FrameCounter/TKO_014_WRE_Sh08390.mov</pathurl>
							<rate>
								<timebase>24</timebase>
								<ntsc>TRUE</ntsc>
							</rate>
							<duration>58</duration>
							<timecode>
								<rate>
									<timebase>24</timebase>
									<ntsc>TRUE</ntsc>
								</rate>
								<string>18:57:56:13</string>
								<frame>1638637</frame>
								<displayformat>NDF</displayformat>
								<reel>
									<name>A0460019</name>
								</reel>
							</timecode>
							<media>
								<video>
									<samplecharacteristics>
										<rate>
											<timebase>24</timebase>
											<ntsc>TRUE</ntsc>
										</rate>
										<width>4096</width>
										<height>2160</height>
										<anamorphic>FALSE</anamorphic>
										<pixelaspectratio>square</pixelaspectratio>
										<fielddominance>none</fielddominance>
									</samplecharacteristics>
								</video>
							</media>
						</file>
						<logginginfo>
							<description></description>
							<scene></scene>
							<shottake></shottake>
							<lognote></lognote>
							<good></good>
							<originalvideofilename></originalvideofilename>
							<originalaudiofilename></originalaudiofilename>
						</logginginfo>
						<colorinfo>
							<lut></lut>
							<lut1></lut1>
							<asc_sop></asc_sop>
							<asc_sat></asc_sat>
							<lut2></lut2>
						</colorinfo>
						<labels>
							<label2>Violet</label2>
						</labels>
					</clipitem>
					<clipitem id="clipitem-810">
						<masterclipid>masterclip-807</masterclipid>
						<name>TKO_014_WRE_Sh08400.mov</name>
						<enabled>TRUE</enabled>
						<duration>26</duration>
						<rate>
							<timebase>24</timebase>
							<ntsc>TRUE</ntsc>
						</rate>
						<start>65935</start>
						<end>65953</end>
						<in>4</in>
						<out>22</out>
						<pproTicksIn>42378336000</pproTicksIn>
						<pproTicksOut>233080848000</pproTicksOut>
						<alphatype>none</alphatype>
						<pixelaspectratio>square</pixelaspectratio>
						<anamorphic>FALSE</anamorphic>
						<file id="file-807">
							<name>TKO_014_WRE_Sh08400.mov</name>
							<pathurl>file://tri-stor01/Projects/TKO/SHOTS/_Refs_Movs_Burnin_FrameCounter/TKO_014_WRE_Sh08400.mov</pathurl>
							<rate>
								<timebase>24</timebase>
								<ntsc>TRUE</ntsc>
							</rate>
							<duration>26</duration>
							<timecode>
								<rate>
									<timebase>24</timebase>
									<ntsc>TRUE</ntsc>
								</rate>
								<string>19:19:50:00</string>
								<frame>1670160</frame>
								<displayformat>NDF</displayformat>
								<reel>
									<name>A0460022</name>
								</reel>
							</timecode>
							<media>
								<video>
									<samplecharacteristics>
										<rate>
											<timebase>24</timebase>
											<ntsc>TRUE</ntsc>
										</rate>
										<width>4096</width>
										<height>2160</height>
										<anamorphic>FALSE</anamorphic>
										<pixelaspectratio>square</pixelaspectratio>
										<fielddominance>none</fielddominance>
									</samplecharacteristics>
								</video>
							</media>
						</file>
						<logginginfo>
							<description></description>
							<scene></scene>
							<shottake></shottake>
							<lognote></lognote>
							<good></good>
							<originalvideofilename></originalvideofilename>
							<originalaudiofilename></originalaudiofilename>
						</logginginfo>
						<colorinfo>
							<lut></lut>
							<lut1></lut1>
							<asc_sop></asc_sop>
							<asc_sat></asc_sat>
							<lut2></lut2>
						</colorinfo>
						<labels>
							<label2>Violet</label2>
						</labels>
					</clipitem>
					<clipitem id="clipitem-811">
						<masterclipid>masterclip-808</masterclipid>
						<name>TKO_014_WRE_Sh08410.mov</name>
						<enabled>TRUE</enabled>
						<duration>52</duration>
						<rate>
							<timebase>24</timebase>
							<ntsc>TRUE</ntsc>
						</rate>
						<start>65953</start>
						<end>65997</end>
						<in>4</in>
						<out>48</out>
						<pproTicksIn>42378336000</pproTicksIn>
						<pproTicksOut>508540032000</pproTicksOut>
						<alphatype>none</alphatype>
						<pixelaspectratio>square</pixelaspectratio>
						<anamorphic>FALSE</anamorphic>
						<file id="file-808">
							<name>TKO_014_WRE_Sh08410.mov</name>
							<pathurl>file://tri-stor01/Projects/TKO/SHOTS/_Refs_Movs_Burnin_FrameCounter/TKO_014_WRE_Sh08410.mov</pathurl>
							<rate>
								<timebase>24</timebase>
								<ntsc>TRUE</ntsc>
							</rate>
							<duration>52</duration>
							<timecode>
								<rate>
									<timebase>24</timebase>
									<ntsc>TRUE</ntsc>
								</rate>
								<string>15:54:08:11</string>
								<frame>1373963</frame>
								<displayformat>NDF</displayformat>
								<reel>
									<name>A0540020</name>
								</reel>
							</timecode>
							<media>
								<video>
									<samplecharacteristics>
										<rate>
											<timebase>24</timebase>
											<ntsc>TRUE</ntsc>
										</rate>
										<width>4096</width>
										<height>2160</height>
										<anamorphic>FALSE</anamorphic>
										<pixelaspectratio>square</pixelaspectratio>
										<fielddominance>none</fielddominance>
									</samplecharacteristics>
								</video>
							</media>
						</file>
						<logginginfo>
							<description></description>
							<scene></scene>
							<shottake></shottake>
							<lognote></lognote>
							<good></good>
							<originalvideofilename></originalvideofilename>
							<originalaudiofilename></originalaudiofilename>
						</logginginfo>
						<colorinfo>
							<lut></lut>
							<lut1></lut1>
							<asc_sop></asc_sop>
							<asc_sat></asc_sat>
							<lut2></lut2>
						</colorinfo>
						<labels>
							<label2>Violet</label2>
						</labels>
					</clipitem>
					<clipitem id="clipitem-812">
						<masterclipid>masterclip-809</masterclipid>
						<name>TKO_014_WRE_Sh08420.mov</name>
						<enabled>TRUE</enabled>
						<duration>128</duration>
						<rate>
							<timebase>24</timebase>
							<ntsc>TRUE</ntsc>
						</rate>
						<start>65997</start>
						<end>66043</end>
						<in>4</in>
						<out>50</out>
						<pproTicksIn>42378336000</pproTicksIn>
						<pproTicksOut>529729200000</pproTicksOut>
						<alphatype>none</alphatype>
						<pixelaspectratio>square</pixelaspectratio>
						<anamorphic>FALSE</anamorphic>
						<file id="file-809">
							<name>TKO_014_WRE_Sh08420.mov</name>
							<pathurl>file://tri-stor01/Projects/TKO/SHOTS/_Refs_Movs_Burnin_FrameCounter/TKO_014_WRE_Sh08420.mov</pathurl>
							<rate>
								<timebase>24</timebase>
								<ntsc>TRUE</ntsc>
							</rate>
							<duration>128</duration>
							<timecode>
								<rate>
									<timebase>24</timebase>
									<ntsc>TRUE</ntsc>
								</rate>
								<string>19:19:52:14</string>
								<frame>1670222</frame>
								<displayformat>NDF</displayformat>
								<reel>
									<name>A0460022</name>
								</reel>
							</timecode>
							<media>
								<video>
									<samplecharacteristics>
										<rate>
											<timebase>24</timebase>
											<ntsc>TRUE</ntsc>
										</rate>
										<width>4096</width>
										<height>2160</height>
										<anamorphic>FALSE</anamorphic>
										<pixelaspectratio>square</pixelaspectratio>
										<fielddominance>none</fielddominance>
									</samplecharacteristics>
								</video>
							</media>
						</file>
						<logginginfo>
							<description></description>
							<scene></scene>
							<shottake></shottake>
							<lognote></lognote>
							<good></good>
							<originalvideofilename></originalvideofilename>
							<originalaudiofilename></originalaudiofilename>
						</logginginfo>
						<colorinfo>
							<lut></lut>
							<lut1></lut1>
							<asc_sop></asc_sop>
							<asc_sat></asc_sat>
							<lut2></lut2>
						</colorinfo>
						<labels>
							<label2>Violet</label2>
						</labels>
					</clipitem>
					<clipitem id="clipitem-813">
						<masterclipid>masterclip-810</masterclipid>
						<name>TKO_014_WRE_Sh08440.mov</name>
						<enabled>TRUE</enabled>
						<duration>126</duration>
						<rate>
							<timebase>24</timebase>
							<ntsc>TRUE</ntsc>
						</rate>
						<start>66043</start>
						<end>66150</end>
						<in>15</in>
						<out>122</out>
						<pproTicksIn>158918760000</pproTicksIn>
						<pproTicksOut>1292539248000</pproTicksOut>
						<alphatype>none</alphatype>
						<pixelaspectratio>square</pixelaspectratio>
						<anamorphic>FALSE</anamorphic>
						<file id="file-810">
							<name>TKO_014_WRE_Sh08440.mov</name>
							<pathurl>file://tri-stor01/Projects/TKO/SHOTS/_Refs_Movs_Burnin_FrameCounter/TKO_014_WRE_Sh08440.mov</pathurl>
							<rate>
								<timebase>24</timebase>
								<ntsc>TRUE</ntsc>
							</rate>
							<duration>126</duration>
							<timecode>
								<rate>
									<timebase>24</timebase>
									<ntsc>TRUE</ntsc>
								</rate>
								<string>12:48:49:09</string>
								<frame>1107105</frame>
								<displayformat>NDF</displayformat>
								<reel>
									<name>C0310006</name>
								</reel>
							</timecode>
							<media>
								<video>
									<samplecharacteristics>
										<rate>
											<timebase>24</timebase>
											<ntsc>TRUE</ntsc>
										</rate>
										<width>3840</width>
										<height>2160</height>
										<anamorphic>FALSE</anamorphic>
										<pixelaspectratio>square</pixelaspectratio>
										<fielddominance>none</fielddominance>
									</samplecharacteristics>
								</video>
							</media>
						</file>
						<logginginfo>
							<description></description>
							<scene></scene>
							<shottake></shottake>
							<lognote></lognote>
							<good></good>
							<originalvideofilename></originalvideofilename>
							<originalaudiofilename></originalaudiofilename>
						</logginginfo>
						<colorinfo>
							<lut></lut>
							<lut1></lut1>
							<asc_sop></asc_sop>
							<asc_sat></asc_sat>
							<lut2></lut2>
						</colorinfo>
						<labels>
							<label2>Violet</label2>
						</labels>
					</clipitem>
					<clipitem id="clipitem-814">
						<masterclipid>masterclip-811</masterclipid>
						<name>TKO_014_WRE_Sh08450.mov</name>
						<enabled>TRUE</enabled>
						<duration>99</duration>
						<rate>
							<timebase>24</timebase>
							<ntsc>TRUE</ntsc>
						</rate>
						<start>66150</start>
						<end>66241</end>
						<in>4</in>
						<out>95</out>
						<pproTicksIn>42378336000</pproTicksIn>
						<pproTicksOut>1006485480000</pproTicksOut>
						<alphatype>none</alphatype>
						<pixelaspectratio>square</pixelaspectratio>
						<anamorphic>FALSE</anamorphic>
						<file id="file-811">
							<name>TKO_014_WRE_Sh08450.mov</name>
							<pathurl>file://tri-stor01/Projects/TKO/SHOTS/_Refs_Movs_Burnin_FrameCounter/TKO_014_WRE_Sh08450.mov</pathurl>
							<rate>
								<timebase>24</timebase>
								<ntsc>TRUE</ntsc>
							</rate>
							<duration>99</duration>
							<timecode>
								<rate>
									<timebase>24</timebase>
									<ntsc>TRUE</ntsc>
								</rate>
								<string>16:23:47:12</string>
								<frame>1416660</frame>
								<displayformat>NDF</displayformat>
								<reel>
									<name>A0460009</name>
								</reel>
							</timecode>
							<media>
								<video>
									<samplecharacteristics>
										<rate>
											<timebase>24</timebase>
											<ntsc>TRUE</ntsc>
										</rate>
										<width>4096</width>
										<height>2160</height>
										<anamorphic>FALSE</anamorphic>
										<pixelaspectratio>square</pixelaspectratio>
										<fielddominance>none</fielddominance>
									</samplecharacteristics>
								</video>
							</media>
						</file>
						<logginginfo>
							<description></description>
							<scene></scene>
							<shottake></shottake>
							<lognote></lognote>
							<good></good>
							<originalvideofilename></originalvideofilename>
							<originalaudiofilename></originalaudiofilename>
						</logginginfo>
						<colorinfo>
							<lut></lut>
							<lut1></lut1>
							<asc_sop></asc_sop>
							<asc_sat></asc_sat>
							<lut2></lut2>
						</colorinfo>
						<labels>
							<label2>Violet</label2>
						</labels>
					</clipitem>
					<clipitem id="clipitem-815">
						<masterclipid>masterclip-812</masterclipid>
						<name>TKO_014_WRE_Sh08460.mov</name>
						<enabled>TRUE</enabled>
						<duration>68</duration>
						<rate>
							<timebase>24</timebase>
							<ntsc>TRUE</ntsc>
						</rate>
						<start>66241</start>
						<end>66301</end>
						<in>4</in>
						<out>64</out>
						<pproTicksIn>42378336000</pproTicksIn>
						<pproTicksOut>678053376000</pproTicksOut>
						<alphatype>none</alphatype>
						<pixelaspectratio>square</pixelaspectratio>
						<anamorphic>FALSE</anamorphic>
						<file id="file-812">
							<name>TKO_014_WRE_Sh08460.mov</name>
							<pathurl>file://tri-stor01/Projects/TKO/SHOTS/_Refs_Movs_Burnin_FrameCounter/TKO_014_WRE_Sh08460.mov</pathurl>
							<rate>
								<timebase>24</timebase>
								<ntsc>TRUE</ntsc>
							</rate>
							<duration>68</duration>
							<timecode>
								<rate>
									<timebase>24</timebase>
									<ntsc>TRUE</ntsc>
								</rate>
								<string>15:59:10:03</string>
								<frame>1381203</frame>
								<displayformat>NDF</displayformat>
								<reel>
									<name>A0460005</name>
								</reel>
							</timecode>
							<media>
								<video>
									<samplecharacteristics>
										<rate>
											<timebase>24</timebase>
											<ntsc>TRUE</ntsc>
										</rate>
										<width>4096</width>
										<height>2160</height>
										<anamorphic>FALSE</anamorphic>
										<pixelaspectratio>square</pixelaspectratio>
										<fielddominance>none</fielddominance>
									</samplecharacteristics>
								</video>
							</media>
						</file>
						<logginginfo>
							<description></description>
							<scene></scene>
							<shottake></shottake>
							<lognote></lognote>
							<good></good>
							<originalvideofilename></originalvideofilename>
							<originalaudiofilename></originalaudiofilename>
						</logginginfo>
						<colorinfo>
							<lut></lut>
							<lut1></lut1>
							<asc_sop></asc_sop>
							<asc_sat></asc_sat>
							<lut2></lut2>
						</colorinfo>
						<labels>
							<label2>Violet</label2>
						</labels>
					</clipitem>
					<clipitem id="clipitem-816">
						<masterclipid>masterclip-813</masterclipid>
						<name>TKO_014_WRE_Sh08520.mov</name>
						<enabled>TRUE</enabled>
						<duration>55</duration>
						<rate>
							<timebase>24</timebase>
							<ntsc>TRUE</ntsc>
						</rate>
						<start>66301</start>
						<end>66348</end>
						<in>4</in>
						<out>51</out>
						<pproTicksIn>42378336000</pproTicksIn>
						<pproTicksOut>540323784000</pproTicksOut>
						<alphatype>none</alphatype>
						<pixelaspectratio>square</pixelaspectratio>
						<anamorphic>FALSE</anamorphic>
						<file id="file-813">
							<name>TKO_014_WRE_Sh08520.mov</name>
							<pathurl>file://tri-stor01/Projects/TKO/SHOTS/_Refs_Movs_Burnin_FrameCounter/TKO_014_WRE_Sh08520.mov</pathurl>
							<rate>
								<timebase>24</timebase>
								<ntsc>TRUE</ntsc>
							</rate>
							<duration>55</duration>
							<timecode>
								<rate>
									<timebase>24</timebase>
									<ntsc>TRUE</ntsc>
								</rate>
								<string>12:50:47:06</string>
								<frame>1109934</frame>
								<displayformat>NDF</displayformat>
								<reel>
									<name>C0310006</name>
								</reel>
							</timecode>
							<media>
								<video>
									<samplecharacteristics>
										<rate>
											<timebase>24</timebase>
											<ntsc>TRUE</ntsc>
										</rate>
										<width>3840</width>
										<height>2160</height>
										<anamorphic>FALSE</anamorphic>
										<pixelaspectratio>square</pixelaspectratio>
										<fielddominance>none</fielddominance>
									</samplecharacteristics>
								</video>
							</media>
						</file>
						<logginginfo>
							<description></description>
							<scene></scene>
							<shottake></shottake>
							<lognote></lognote>
							<good></good>
							<originalvideofilename></originalvideofilename>
							<originalaudiofilename></originalaudiofilename>
						</logginginfo>
						<colorinfo>
							<lut></lut>
							<lut1></lut1>
							<asc_sop></asc_sop>
							<asc_sat></asc_sat>
							<lut2></lut2>
						</colorinfo>
						<labels>
							<label2>Violet</label2>
						</labels>
					</clipitem>
					<clipitem id="clipitem-817">
						<masterclipid>masterclip-814</masterclipid>
						<name>TKO_014_WRE_Sh08530.mov</name>
						<enabled>TRUE</enabled>
						<duration>107</duration>
						<rate>
							<timebase>24</timebase>
							<ntsc>TRUE</ntsc>
						</rate>
						<start>66348</start>
						<end>66447</end>
						<in>4</in>
						<out>103</out>
						<pproTicksIn>42378336000</pproTicksIn>
						<pproTicksOut>1091242152000</pproTicksOut>
						<alphatype>none</alphatype>
						<pixelaspectratio>square</pixelaspectratio>
						<anamorphic>FALSE</anamorphic>
						<file id="file-814">
							<name>TKO_014_WRE_Sh08530.mov</name>
							<pathurl>file://tri-stor01/Projects/TKO/SHOTS/_Refs_Movs_Burnin_FrameCounter/TKO_014_WRE_Sh08530.mov</pathurl>
							<rate>
								<timebase>24</timebase>
								<ntsc>TRUE</ntsc>
							</rate>
							<duration>107</duration>
							<timecode>
								<rate>
									<timebase>24</timebase>
									<ntsc>TRUE</ntsc>
								</rate>
								<string>19:49:02:21</string>
								<frame>1712229</frame>
								<displayformat>NDF</displayformat>
								<reel>
									<name>A0470003</name>
								</reel>
							</timecode>
							<media>
								<video>
									<samplecharacteristics>
										<rate>
											<timebase>24</timebase>
											<ntsc>TRUE</ntsc>
										</rate>
										<width>4096</width>
										<height>2160</height>
										<anamorphic>FALSE</anamorphic>
										<pixelaspectratio>square</pixelaspectratio>
										<fielddominance>none</fielddominance>
									</samplecharacteristics>
								</video>
							</media>
						</file>
						<logginginfo>
							<description></description>
							<scene></scene>
							<shottake></shottake>
							<lognote></lognote>
							<good></good>
							<originalvideofilename></originalvideofilename>
							<originalaudiofilename></originalaudiofilename>
						</logginginfo>
						<colorinfo>
							<lut></lut>
							<lut1></lut1>
							<asc_sop></asc_sop>
							<asc_sat></asc_sat>
							<lut2></lut2>
						</colorinfo>
						<labels>
							<label2>Violet</label2>
						</labels>
					</clipitem>
					<clipitem id="clipitem-818">
						<masterclipid>masterclip-815</masterclipid>
						<name>TKO_014_WRE_Sh08540.mov</name>
						<enabled>TRUE</enabled>
						<duration>34</duration>
						<rate>
							<timebase>24</timebase>
							<ntsc>TRUE</ntsc>
						</rate>
						<start>66447</start>
						<end>66473</end>
						<in>4</in>
						<out>30</out>
						<pproTicksIn>42378336000</pproTicksIn>
						<pproTicksOut>317837520000</pproTicksOut>
						<alphatype>none</alphatype>
						<pixelaspectratio>square</pixelaspectratio>
						<anamorphic>FALSE</anamorphic>
						<file id="file-815">
							<name>TKO_014_WRE_Sh08540.mov</name>
							<pathurl>file://tri-stor01/Projects/TKO/SHOTS/_Refs_Movs_Burnin_FrameCounter/TKO_014_WRE_Sh08540.mov</pathurl>
							<rate>
								<timebase>24</timebase>
								<ntsc>TRUE</ntsc>
							</rate>
							<duration>34</duration>
							<timecode>
								<rate>
									<timebase>24</timebase>
									<ntsc>TRUE</ntsc>
								</rate>
								<string>07:23:41:20</string>
								<frame>638924</frame>
								<displayformat>NDF</displayformat>
								<reel>
									<name>C0180005</name>
								</reel>
							</timecode>
							<media>
								<video>
									<samplecharacteristics>
										<rate>
											<timebase>24</timebase>
											<ntsc>TRUE</ntsc>
										</rate>
										<width>3840</width>
										<height>2160</height>
										<anamorphic>FALSE</anamorphic>
										<pixelaspectratio>square</pixelaspectratio>
										<fielddominance>none</fielddominance>
									</samplecharacteristics>
								</video>
							</media>
						</file>
						<logginginfo>
							<description></description>
							<scene></scene>
							<shottake></shottake>
							<lognote></lognote>
							<good></good>
							<originalvideofilename></originalvideofilename>
							<originalaudiofilename></originalaudiofilename>
						</logginginfo>
						<colorinfo>
							<lut></lut>
							<lut1></lut1>
							<asc_sop></asc_sop>
							<asc_sat></asc_sat>
							<lut2></lut2>
						</colorinfo>
						<labels>
							<label2>Violet</label2>
						</labels>
					</clipitem>
					<clipitem id="clipitem-819">
						<masterclipid>masterclip-816</masterclipid>
						<name>TKO_014_WRE_Sh08550.mov</name>
						<enabled>TRUE</enabled>
						<duration>36</duration>
						<rate>
							<timebase>24</timebase>
							<ntsc>TRUE</ntsc>
						</rate>
						<start>66473</start>
						<end>66500</end>
						<in>4</in>
						<out>31</out>
						<pproTicksIn>42378336000</pproTicksIn>
						<pproTicksOut>328432104000</pproTicksOut>
						<alphatype>none</alphatype>
						<pixelaspectratio>square</pixelaspectratio>
						<anamorphic>FALSE</anamorphic>
						<file id="file-816">
							<name>TKO_014_WRE_Sh08550.mov</name>
							<pathurl>file://tri-stor01/Projects/TKO/SHOTS/_Refs_Movs_Burnin_FrameCounter/TKO_014_WRE_Sh08550.mov</pathurl>
							<rate>
								<timebase>24</timebase>
								<ntsc>TRUE</ntsc>
							</rate>
							<duration>36</duration>
							<timecode>
								<rate>
									<timebase>24</timebase>
									<ntsc>TRUE</ntsc>
								</rate>
								<string>00:37:29:08</string>
								<frame>53984</frame>
								<displayformat>NDF</displayformat>
							</timecode>
							<media>
								<video>
									<samplecharacteristics>
										<rate>
											<timebase>24</timebase>
											<ntsc>TRUE</ntsc>
										</rate>
										<width>1280</width>
										<height>720</height>
										<anamorphic>FALSE</anamorphic>
										<pixelaspectratio>square</pixelaspectratio>
										<fielddominance>none</fielddominance>
									</samplecharacteristics>
								</video>
							</media>
						</file>
						<logginginfo>
							<description></description>
							<scene></scene>
							<shottake></shottake>
							<lognote></lognote>
							<good></good>
							<originalvideofilename></originalvideofilename>
							<originalaudiofilename></originalaudiofilename>
						</logginginfo>
						<colorinfo>
							<lut></lut>
							<lut1></lut1>
							<asc_sop></asc_sop>
							<asc_sat></asc_sat>
							<lut2></lut2>
						</colorinfo>
						<labels>
							<label2>Violet</label2>
						</labels>
					</clipitem>
					<clipitem id="clipitem-820">
						<masterclipid>masterclip-817</masterclipid>
						<name>TKO_014_WRE_Sh08560.mov</name>
						<enabled>TRUE</enabled>
						<duration>61</duration>
						<rate>
							<timebase>24</timebase>
							<ntsc>TRUE</ntsc>
						</rate>
						<start>66500</start>
						<end>66554</end>
						<in>4</in>
						<out>58</out>
						<pproTicksIn>42378336000</pproTicksIn>
						<pproTicksOut>614485872000</pproTicksOut>
						<alphatype>none</alphatype>
						<pixelaspectratio>square</pixelaspectratio>
						<anamorphic>FALSE</anamorphic>
						<file id="file-817">
							<name>TKO_014_WRE_Sh08560.mov</name>
							<pathurl>file://tri-stor01/Projects/TKO/SHOTS/_Refs_Movs_Burnin_FrameCounter/TKO_014_WRE_Sh08560.mov</pathurl>
							<rate>
								<timebase>24</timebase>
								<ntsc>TRUE</ntsc>
							</rate>
							<duration>61</duration>
							<timecode>
								<rate>
									<timebase>24</timebase>
									<ntsc>TRUE</ntsc>
								</rate>
								<string>00:00:00:00</string>
								<frame>0</frame>
								<displayformat>NDF</displayformat>
							</timecode>
							<media>
								<video>
									<samplecharacteristics>
										<rate>
											<timebase>24</timebase>
											<ntsc>TRUE</ntsc>
										</rate>
										<width>4096</width>
										<height>2160</height>
										<anamorphic>FALSE</anamorphic>
										<pixelaspectratio>square</pixelaspectratio>
										<fielddominance>none</fielddominance>
									</samplecharacteristics>
								</video>
							</media>
						</file>
						<logginginfo>
							<description></description>
							<scene></scene>
							<shottake></shottake>
							<lognote></lognote>
							<good></good>
							<originalvideofilename></originalvideofilename>
							<originalaudiofilename></originalaudiofilename>
						</logginginfo>
						<colorinfo>
							<lut></lut>
							<lut1></lut1>
							<asc_sop></asc_sop>
							<asc_sat></asc_sat>
							<lut2></lut2>
						</colorinfo>
						<labels>
							<label2>Violet</label2>
						</labels>
					</clipitem>
					<clipitem id="clipitem-821">
						<masterclipid>masterclip-818</masterclipid>
						<name>TKO_014_WRE_Sh08570.mov</name>
						<enabled>TRUE</enabled>
						<duration>63</duration>
						<rate>
							<timebase>24</timebase>
							<ntsc>TRUE</ntsc>
						</rate>
						<start>66554</start>
						<end>66609</end>
						<in>4</in>
						<out>59</out>
						<pproTicksIn>42378336000</pproTicksIn>
						<pproTicksOut>625080456000</pproTicksOut>
						<alphatype>none</alphatype>
						<pixelaspectratio>square</pixelaspectratio>
						<anamorphic>FALSE</anamorphic>
						<file id="file-818">
							<name>TKO_014_WRE_Sh08570.mov</name>
							<pathurl>file://tri-stor01/Projects/TKO/SHOTS/_Refs_Movs_Burnin_FrameCounter/TKO_014_WRE_Sh08570.mov</pathurl>
							<rate>
								<timebase>24</timebase>
								<ntsc>TRUE</ntsc>
							</rate>
							<duration>63</duration>
							<timecode>
								<rate>
									<timebase>24</timebase>
									<ntsc>TRUE</ntsc>
								</rate>
								<string>19:49:08:05</string>
								<frame>1712357</frame>
								<displayformat>NDF</displayformat>
								<reel>
									<name>A0470003</name>
								</reel>
							</timecode>
							<media>
								<video>
									<samplecharacteristics>
										<rate>
											<timebase>24</timebase>
											<ntsc>TRUE</ntsc>
										</rate>
										<width>4096</width>
										<height>2160</height>
										<anamorphic>FALSE</anamorphic>
										<pixelaspectratio>square</pixelaspectratio>
										<fielddominance>none</fielddominance>
									</samplecharacteristics>
								</video>
							</media>
						</file>
						<logginginfo>
							<description></description>
							<scene></scene>
							<shottake></shottake>
							<lognote></lognote>
							<good></good>
							<originalvideofilename></originalvideofilename>
							<originalaudiofilename></originalaudiofilename>
						</logginginfo>
						<colorinfo>
							<lut></lut>
							<lut1></lut1>
							<asc_sop></asc_sop>
							<asc_sat></asc_sat>
							<lut2></lut2>
						</colorinfo>
						<labels>
							<label2>Violet</label2>
						</labels>
					</clipitem>
					<clipitem id="clipitem-822">
						<masterclipid>masterclip-819</masterclipid>
						<name>TKO_015_CRA_Sh08580.mov</name>
						<enabled>TRUE</enabled>
						<duration>53</duration>
						<rate>
							<timebase>24</timebase>
							<ntsc>TRUE</ntsc>
						</rate>
						<start>66609</start>
						<end>66654</end>
						<in>4</in>
						<out>49</out>
						<pproTicksIn>42378336000</pproTicksIn>
						<pproTicksOut>519134616000</pproTicksOut>
						<alphatype>none</alphatype>
						<pixelaspectratio>square</pixelaspectratio>
						<anamorphic>FALSE</anamorphic>
						<file id="file-819">
							<name>TKO_015_CRA_Sh08580.mov</name>
							<pathurl>file://tri-stor01/Projects/TKO/SHOTS/_Refs_Movs_Burnin_FrameCounter/TKO_015_CRA_Sh08580.mov</pathurl>
							<rate>
								<timebase>24</timebase>
								<ntsc>TRUE</ntsc>
							</rate>
							<duration>53</duration>
							<timecode>
								<rate>
									<timebase>24</timebase>
									<ntsc>TRUE</ntsc>
								</rate>
								<string>17:57:31:08</string>
								<frame>1551632</frame>
								<displayformat>NDF</displayformat>
								<reel>
									<name>A0260007</name>
								</reel>
							</timecode>
							<media>
								<video>
									<samplecharacteristics>
										<rate>
											<timebase>24</timebase>
											<ntsc>TRUE</ntsc>
										</rate>
										<width>4096</width>
										<height>2160</height>
										<anamorphic>FALSE</anamorphic>
										<pixelaspectratio>square</pixelaspectratio>
										<fielddominance>none</fielddominance>
									</samplecharacteristics>
								</video>
							</media>
						</file>
						<logginginfo>
							<description></description>
							<scene></scene>
							<shottake></shottake>
							<lognote></lognote>
							<good></good>
							<originalvideofilename></originalvideofilename>
							<originalaudiofilename></originalaudiofilename>
						</logginginfo>
						<colorinfo>
							<lut></lut>
							<lut1></lut1>
							<asc_sop></asc_sop>
							<asc_sat></asc_sat>
							<lut2></lut2>
						</colorinfo>
						<labels>
							<label2>Violet</label2>
						</labels>
					</clipitem>
					<clipitem id="clipitem-823">
						<masterclipid>masterclip-820</masterclipid>
						<name>TKO_015_CRA_Sh08590.mov</name>
						<enabled>TRUE</enabled>
						<duration>69</duration>
						<rate>
							<timebase>24</timebase>
							<ntsc>TRUE</ntsc>
						</rate>
						<start>66654</start>
						<end>66715</end>
						<in>4</in>
						<out>65</out>
						<pproTicksIn>42378336000</pproTicksIn>
						<pproTicksOut>688647960000</pproTicksOut>
						<alphatype>none</alphatype>
						<pixelaspectratio>square</pixelaspectratio>
						<anamorphic>FALSE</anamorphic>
						<file id="file-820">
							<name>TKO_015_CRA_Sh08590.mov</name>
							<pathurl>file://tri-stor01/Projects/TKO/SHOTS/_Refs_Movs_Burnin_FrameCounter/TKO_015_CRA_Sh08590.mov</pathurl>
							<rate>
								<timebase>24</timebase>
								<ntsc>TRUE</ntsc>
							</rate>
							<duration>69</duration>
							<timecode>
								<rate>
									<timebase>24</timebase>
									<ntsc>TRUE</ntsc>
								</rate>
								<string>07:19:24:17</string>
								<frame>632753</frame>
								<displayformat>NDF</displayformat>
								<reel>
									<name>C0180003</name>
								</reel>
							</timecode>
							<media>
								<video>
									<samplecharacteristics>
										<rate>
											<timebase>24</timebase>
											<ntsc>TRUE</ntsc>
										</rate>
										<width>3840</width>
										<height>2160</height>
										<anamorphic>FALSE</anamorphic>
										<pixelaspectratio>square</pixelaspectratio>
										<fielddominance>none</fielddominance>
									</samplecharacteristics>
								</video>
							</media>
						</file>
						<logginginfo>
							<description></description>
							<scene></scene>
							<shottake></shottake>
							<lognote></lognote>
							<good></good>
							<originalvideofilename></originalvideofilename>
							<originalaudiofilename></originalaudiofilename>
						</logginginfo>
						<colorinfo>
							<lut></lut>
							<lut1></lut1>
							<asc_sop></asc_sop>
							<asc_sat></asc_sat>
							<lut2></lut2>
						</colorinfo>
						<labels>
							<label2>Violet</label2>
						</labels>
					</clipitem>
					<clipitem id="clipitem-824">
						<masterclipid>masterclip-821</masterclipid>
						<name>TKO_015_CRA_Sh08600.mov</name>
						<enabled>TRUE</enabled>
						<duration>63</duration>
						<rate>
							<timebase>24</timebase>
							<ntsc>TRUE</ntsc>
						</rate>
						<start>66715</start>
						<end>66770</end>
						<in>4</in>
						<out>59</out>
						<pproTicksIn>42378336000</pproTicksIn>
						<pproTicksOut>625080456000</pproTicksOut>
						<alphatype>none</alphatype>
						<pixelaspectratio>square</pixelaspectratio>
						<anamorphic>FALSE</anamorphic>
						<file id="file-821">
							<name>TKO_015_CRA_Sh08600.mov</name>
							<pathurl>file://tri-stor01/Projects/TKO/SHOTS/_Refs_Movs_Burnin_FrameCounter/TKO_015_CRA_Sh08600.mov</pathurl>
							<rate>
								<timebase>24</timebase>
								<ntsc>TRUE</ntsc>
							</rate>
							<duration>63</duration>
							<timecode>
								<rate>
									<timebase>24</timebase>
									<ntsc>TRUE</ntsc>
								</rate>
								<string>00:00:00:00</string>
								<frame>0</frame>
								<displayformat>NDF</displayformat>
							</timecode>
							<media>
								<video>
									<samplecharacteristics>
										<rate>
											<timebase>24</timebase>
											<ntsc>TRUE</ntsc>
										</rate>
										<width>4096</width>
										<height>2160</height>
										<anamorphic>FALSE</anamorphic>
										<pixelaspectratio>square</pixelaspectratio>
										<fielddominance>none</fielddominance>
									</samplecharacteristics>
								</video>
							</media>
						</file>
						<logginginfo>
							<description></description>
							<scene></scene>
							<shottake></shottake>
							<lognote></lognote>
							<good></good>
							<originalvideofilename></originalvideofilename>
							<originalaudiofilename></originalaudiofilename>
						</logginginfo>
						<colorinfo>
							<lut></lut>
							<lut1></lut1>
							<asc_sop></asc_sop>
							<asc_sat></asc_sat>
							<lut2></lut2>
						</colorinfo>
						<labels>
							<label2>Violet</label2>
						</labels>
					</clipitem>
					<clipitem id="clipitem-825">
						<masterclipid>masterclip-822</masterclipid>
						<name>TKO_015_CRA_Sh08610.mov</name>
						<enabled>TRUE</enabled>
						<duration>69</duration>
						<rate>
							<timebase>24</timebase>
							<ntsc>TRUE</ntsc>
						</rate>
						<start>66770</start>
						<end>66831</end>
						<in>4</in>
						<out>65</out>
						<pproTicksIn>42378336000</pproTicksIn>
						<pproTicksOut>688647960000</pproTicksOut>
						<alphatype>none</alphatype>
						<pixelaspectratio>square</pixelaspectratio>
						<anamorphic>FALSE</anamorphic>
						<file id="file-822">
							<name>TKO_015_CRA_Sh08610.mov</name>
							<pathurl>file://tri-stor01/Projects/TKO/SHOTS/_Refs_Movs_Burnin_FrameCounter/TKO_015_CRA_Sh08610.mov</pathurl>
							<rate>
								<timebase>24</timebase>
								<ntsc>TRUE</ntsc>
							</rate>
							<duration>69</duration>
							<timecode>
								<rate>
									<timebase>24</timebase>
									<ntsc>TRUE</ntsc>
								</rate>
								<string>07:22:17:04</string>
								<frame>636892</frame>
								<displayformat>NDF</displayformat>
								<reel>
									<name>C0180004</name>
								</reel>
							</timecode>
							<media>
								<video>
									<samplecharacteristics>
										<rate>
											<timebase>24</timebase>
											<ntsc>TRUE</ntsc>
										</rate>
										<width>3840</width>
										<height>2160</height>
										<anamorphic>FALSE</anamorphic>
										<pixelaspectratio>square</pixelaspectratio>
										<fielddominance>none</fielddominance>
									</samplecharacteristics>
								</video>
							</media>
						</file>
						<logginginfo>
							<description></description>
							<scene></scene>
							<shottake></shottake>
							<lognote></lognote>
							<good></good>
							<originalvideofilename></originalvideofilename>
							<originalaudiofilename></originalaudiofilename>
						</logginginfo>
						<colorinfo>
							<lut></lut>
							<lut1></lut1>
							<asc_sop></asc_sop>
							<asc_sat></asc_sat>
							<lut2></lut2>
						</colorinfo>
						<labels>
							<label2>Violet</label2>
						</labels>
					</clipitem>
					<clipitem id="clipitem-826">
						<masterclipid>masterclip-823</masterclipid>
						<name>TKO_015_CRA_Sh08620.mov</name>
						<enabled>TRUE</enabled>
						<duration>63</duration>
						<rate>
							<timebase>24</timebase>
							<ntsc>TRUE</ntsc>
						</rate>
						<start>66831</start>
						<end>66886</end>
						<in>4</in>
						<out>59</out>
						<pproTicksIn>42378336000</pproTicksIn>
						<pproTicksOut>625080456000</pproTicksOut>
						<alphatype>none</alphatype>
						<pixelaspectratio>square</pixelaspectratio>
						<anamorphic>FALSE</anamorphic>
						<file id="file-823">
							<name>TKO_015_CRA_Sh08620.mov</name>
							<pathurl>file://tri-stor01/Projects/TKO/SHOTS/_Refs_Movs_Burnin_FrameCounter/TKO_015_CRA_Sh08620.mov</pathurl>
							<rate>
								<timebase>24</timebase>
								<ntsc>FALSE</ntsc>
							</rate>
							<duration>63</duration>
							<timecode>
								<rate>
									<timebase>24</timebase>
									<ntsc>FALSE</ntsc>
								</rate>
								<string>00:00:00:02</string>
								<frame>2</frame>
								<displayformat>NDF</displayformat>
							</timecode>
							<media>
								<video>
									<samplecharacteristics>
										<rate>
											<timebase>24</timebase>
											<ntsc>FALSE</ntsc>
										</rate>
										<width>960</width>
										<height>420</height>
										<anamorphic>FALSE</anamorphic>
										<pixelaspectratio>square</pixelaspectratio>
										<fielddominance>none</fielddominance>
									</samplecharacteristics>
								</video>
							</media>
						</file>
						<logginginfo>
							<description></description>
							<scene></scene>
							<shottake></shottake>
							<lognote></lognote>
							<good></good>
							<originalvideofilename></originalvideofilename>
							<originalaudiofilename></originalaudiofilename>
						</logginginfo>
						<colorinfo>
							<lut></lut>
							<lut1></lut1>
							<asc_sop></asc_sop>
							<asc_sat></asc_sat>
							<lut2></lut2>
						</colorinfo>
						<labels>
							<label2>Violet</label2>
						</labels>
					</clipitem>
					<clipitem id="clipitem-827">
						<masterclipid>masterclip-824</masterclipid>
						<name>TKO_015_CRA_Sh08630.mov</name>
						<enabled>TRUE</enabled>
						<duration>64</duration>
						<rate>
							<timebase>24</timebase>
							<ntsc>TRUE</ntsc>
						</rate>
						<start>66886</start>
						<end>66942</end>
						<in>4</in>
						<out>60</out>
						<pproTicksIn>42378336000</pproTicksIn>
						<pproTicksOut>635675040000</pproTicksOut>
						<alphatype>none</alphatype>
						<pixelaspectratio>square</pixelaspectratio>
						<anamorphic>FALSE</anamorphic>
						<file id="file-824">
							<name>TKO_015_CRA_Sh08630.mov</name>
							<pathurl>file://tri-stor01/Projects/TKO/SHOTS/_Refs_Movs_Burnin_FrameCounter/TKO_015_CRA_Sh08630.mov</pathurl>
							<rate>
								<timebase>24</timebase>
								<ntsc>TRUE</ntsc>
							</rate>
							<duration>64</duration>
							<timecode>
								<rate>
									<timebase>24</timebase>
									<ntsc>TRUE</ntsc>
								</rate>
								<string>07:20:49:10</string>
								<frame>634786</frame>
								<displayformat>NDF</displayformat>
								<reel>
									<name>C0180004</name>
								</reel>
							</timecode>
							<media>
								<video>
									<samplecharacteristics>
										<rate>
											<timebase>24</timebase>
											<ntsc>TRUE</ntsc>
										</rate>
										<width>3840</width>
										<height>2160</height>
										<anamorphic>FALSE</anamorphic>
										<pixelaspectratio>square</pixelaspectratio>
										<fielddominance>none</fielddominance>
									</samplecharacteristics>
								</video>
							</media>
						</file>
						<logginginfo>
							<description></description>
							<scene></scene>
							<shottake></shottake>
							<lognote></lognote>
							<good></good>
							<originalvideofilename></originalvideofilename>
							<originalaudiofilename></originalaudiofilename>
						</logginginfo>
						<colorinfo>
							<lut></lut>
							<lut1></lut1>
							<asc_sop></asc_sop>
							<asc_sat></asc_sat>
							<lut2></lut2>
						</colorinfo>
						<labels>
							<label2>Violet</label2>
						</labels>
					</clipitem>
					<clipitem id="clipitem-828">
						<masterclipid>masterclip-825</masterclipid>
						<name>TKO_015_CRA_Sh08640.mov</name>
						<enabled>TRUE</enabled>
						<duration>108</duration>
						<rate>
							<timebase>24</timebase>
							<ntsc>TRUE</ntsc>
						</rate>
						<start>66942</start>
						<end>67042</end>
						<in>4</in>
						<out>104</out>
						<pproTicksIn>42378336000</pproTicksIn>
						<pproTicksOut>1101836736000</pproTicksOut>
						<alphatype>none</alphatype>
						<pixelaspectratio>square</pixelaspectratio>
						<anamorphic>FALSE</anamorphic>
						<file id="file-825">
							<name>TKO_015_CRA_Sh08640.mov</name>
							<pathurl>file://tri-stor01/Projects/TKO/SHOTS/_Refs_Movs_Burnin_FrameCounter/TKO_015_CRA_Sh08640.mov</pathurl>
							<rate>
								<timebase>24</timebase>
								<ntsc>TRUE</ntsc>
							</rate>
							<duration>108</duration>
							<timecode>
								<rate>
									<timebase>24</timebase>
									<ntsc>TRUE</ntsc>
								</rate>
								<string>00:00:00:00</string>
								<frame>0</frame>
								<displayformat>NDF</displayformat>
							</timecode>
							<media>
								<video>
									<samplecharacteristics>
										<rate>
											<timebase>24</timebase>
											<ntsc>TRUE</ntsc>
										</rate>
										<width>4096</width>
										<height>2160</height>
										<anamorphic>FALSE</anamorphic>
										<pixelaspectratio>square</pixelaspectratio>
										<fielddominance>none</fielddominance>
									</samplecharacteristics>
								</video>
							</media>
						</file>
						<logginginfo>
							<description></description>
							<scene></scene>
							<shottake></shottake>
							<lognote></lognote>
							<good></good>
							<originalvideofilename></originalvideofilename>
							<originalaudiofilename></originalaudiofilename>
						</logginginfo>
						<colorinfo>
							<lut></lut>
							<lut1></lut1>
							<asc_sop></asc_sop>
							<asc_sat></asc_sat>
							<lut2></lut2>
						</colorinfo>
						<labels>
							<label2>Violet</label2>
						</labels>
					</clipitem>
					<clipitem id="clipitem-829">
						<masterclipid>masterclip-826</masterclipid>
						<name>TKO_015_CRA_Sh08650.mov</name>
						<enabled>TRUE</enabled>
						<duration>128</duration>
						<rate>
							<timebase>24</timebase>
							<ntsc>TRUE</ntsc>
						</rate>
						<start>67042</start>
						<end>67162</end>
						<in>4</in>
						<out>124</out>
						<pproTicksIn>42378336000</pproTicksIn>
						<pproTicksOut>1313728416000</pproTicksOut>
						<alphatype>none</alphatype>
						<pixelaspectratio>square</pixelaspectratio>
						<anamorphic>FALSE</anamorphic>
						<file id="file-826">
							<name>TKO_015_CRA_Sh08650.mov</name>
							<pathurl>file://tri-stor01/Projects/TKO/SHOTS/_Refs_Movs_Burnin_FrameCounter/TKO_015_CRA_Sh08650.mov</pathurl>
							<rate>
								<timebase>24</timebase>
								<ntsc>TRUE</ntsc>
							</rate>
							<duration>128</duration>
							<timecode>
								<rate>
									<timebase>24</timebase>
									<ntsc>TRUE</ntsc>
								</rate>
								<string>17:09:53:03</string>
								<frame>1483035</frame>
								<displayformat>NDF</displayformat>
								<reel>
									<name>A0260004</name>
								</reel>
							</timecode>
							<media>
								<video>
									<samplecharacteristics>
										<rate>
											<timebase>24</timebase>
											<ntsc>TRUE</ntsc>
										</rate>
										<width>4096</width>
										<height>2160</height>
										<anamorphic>FALSE</anamorphic>
										<pixelaspectratio>square</pixelaspectratio>
										<fielddominance>none</fielddominance>
									</samplecharacteristics>
								</video>
							</media>
						</file>
						<logginginfo>
							<description></description>
							<scene></scene>
							<shottake></shottake>
							<lognote></lognote>
							<good></good>
							<originalvideofilename></originalvideofilename>
							<originalaudiofilename></originalaudiofilename>
						</logginginfo>
						<colorinfo>
							<lut></lut>
							<lut1></lut1>
							<asc_sop></asc_sop>
							<asc_sat></asc_sat>
							<lut2></lut2>
						</colorinfo>
						<labels>
							<label2>Violet</label2>
						</labels>
					</clipitem>
					<clipitem id="clipitem-830">
						<masterclipid>masterclip-827</masterclipid>
						<name>TKO_015_CRA_Sh08660.mov</name>
						<enabled>TRUE</enabled>
						<duration>41</duration>
						<rate>
							<timebase>24</timebase>
							<ntsc>TRUE</ntsc>
						</rate>
						<start>67162</start>
						<end>67195</end>
						<in>4</in>
						<out>37</out>
						<pproTicksIn>42378336000</pproTicksIn>
						<pproTicksOut>391999608000</pproTicksOut>
						<alphatype>none</alphatype>
						<pixelaspectratio>square</pixelaspectratio>
						<anamorphic>FALSE</anamorphic>
						<file id="file-827">
							<name>TKO_015_CRA_Sh08660.mov</name>
							<pathurl>file://tri-stor01/Projects/TKO/SHOTS/_Refs_Movs_Burnin_FrameCounter/TKO_015_CRA_Sh08660.mov</pathurl>
							<rate>
								<timebase>24</timebase>
								<ntsc>TRUE</ntsc>
							</rate>
							<duration>41</duration>
							<timecode>
								<rate>
									<timebase>24</timebase>
									<ntsc>TRUE</ntsc>
								</rate>
								<string>07:07:03:12</string>
								<frame>614964</frame>
								<displayformat>NDF</displayformat>
								<reel>
									<name>C0160008</name>
								</reel>
							</timecode>
							<media>
								<video>
									<samplecharacteristics>
										<rate>
											<timebase>24</timebase>
											<ntsc>TRUE</ntsc>
										</rate>
										<width>3840</width>
										<height>2160</height>
										<anamorphic>FALSE</anamorphic>
										<pixelaspectratio>square</pixelaspectratio>
										<fielddominance>none</fielddominance>
									</samplecharacteristics>
								</video>
							</media>
						</file>
						<logginginfo>
							<description></description>
							<scene></scene>
							<shottake></shottake>
							<lognote></lognote>
							<good></good>
							<originalvideofilename></originalvideofilename>
							<originalaudiofilename></originalaudiofilename>
						</logginginfo>
						<colorinfo>
							<lut></lut>
							<lut1></lut1>
							<asc_sop></asc_sop>
							<asc_sat></asc_sat>
							<lut2></lut2>
						</colorinfo>
						<labels>
							<label2>Violet</label2>
						</labels>
					</clipitem>
					<clipitem id="clipitem-831">
						<masterclipid>masterclip-828</masterclipid>
						<name>TKO_015_CRA_Sh08670.mov</name>
						<enabled>TRUE</enabled>
						<duration>36</duration>
						<rate>
							<timebase>24</timebase>
							<ntsc>TRUE</ntsc>
						</rate>
						<start>67195</start>
						<end>67223</end>
						<in>4</in>
						<out>32</out>
						<pproTicksIn>42378336000</pproTicksIn>
						<pproTicksOut>339026688000</pproTicksOut>
						<alphatype>none</alphatype>
						<pixelaspectratio>square</pixelaspectratio>
						<anamorphic>FALSE</anamorphic>
						<file id="file-828">
							<name>TKO_015_CRA_Sh08670.mov</name>
							<pathurl>file://tri-stor01/Projects/TKO/SHOTS/_Refs_Movs_Burnin_FrameCounter/TKO_015_CRA_Sh08670.mov</pathurl>
							<rate>
								<timebase>24</timebase>
								<ntsc>TRUE</ntsc>
							</rate>
							<duration>36</duration>
							<timecode>
								<rate>
									<timebase>24</timebase>
									<ntsc>TRUE</ntsc>
								</rate>
								<string>20:34:03:16</string>
								<frame>1777048</frame>
								<displayformat>NDF</displayformat>
								<reel>
									<name>A0240015</name>
								</reel>
							</timecode>
							<media>
								<video>
									<samplecharacteristics>
										<rate>
											<timebase>24</timebase>
											<ntsc>TRUE</ntsc>
										</rate>
										<width>4096</width>
										<height>2160</height>
										<anamorphic>FALSE</anamorphic>
										<pixelaspectratio>square</pixelaspectratio>
										<fielddominance>none</fielddominance>
									</samplecharacteristics>
								</video>
							</media>
						</file>
						<logginginfo>
							<description></description>
							<scene></scene>
							<shottake></shottake>
							<lognote></lognote>
							<good></good>
							<originalvideofilename></originalvideofilename>
							<originalaudiofilename></originalaudiofilename>
						</logginginfo>
						<colorinfo>
							<lut></lut>
							<lut1></lut1>
							<asc_sop></asc_sop>
							<asc_sat></asc_sat>
							<lut2></lut2>
						</colorinfo>
						<labels>
							<label2>Violet</label2>
						</labels>
					</clipitem>
					<clipitem id="clipitem-832">
						<masterclipid>masterclip-829</masterclipid>
						<name>TKO_015_CRA_Sh08680.mov</name>
						<enabled>TRUE</enabled>
						<duration>46</duration>
						<rate>
							<timebase>24</timebase>
							<ntsc>TRUE</ntsc>
						</rate>
						<start>67223</start>
						<end>67261</end>
						<in>4</in>
						<out>42</out>
						<pproTicksIn>42378336000</pproTicksIn>
						<pproTicksOut>444972528000</pproTicksOut>
						<alphatype>none</alphatype>
						<pixelaspectratio>square</pixelaspectratio>
						<anamorphic>FALSE</anamorphic>
						<file id="file-829">
							<name>TKO_015_CRA_Sh08680.mov</name>
							<pathurl>file://tri-stor01/Projects/TKO/SHOTS/_Refs_Movs_Burnin_FrameCounter/TKO_015_CRA_Sh08680.mov</pathurl>
							<rate>
								<timebase>24</timebase>
								<ntsc>TRUE</ntsc>
							</rate>
							<duration>46</duration>
							<timecode>
								<rate>
									<timebase>24</timebase>
									<ntsc>TRUE</ntsc>
								</rate>
								<string>05:34:52:00</string>
								<frame>482208</frame>
								<displayformat>NDF</displayformat>
								<reel>
									<name>C0110007</name>
								</reel>
							</timecode>
							<media>
								<video>
									<samplecharacteristics>
										<rate>
											<timebase>24</timebase>
											<ntsc>TRUE</ntsc>
										</rate>
										<width>3840</width>
										<height>2160</height>
										<anamorphic>FALSE</anamorphic>
										<pixelaspectratio>square</pixelaspectratio>
										<fielddominance>none</fielddominance>
									</samplecharacteristics>
								</video>
							</media>
						</file>
						<logginginfo>
							<description></description>
							<scene></scene>
							<shottake></shottake>
							<lognote></lognote>
							<good></good>
							<originalvideofilename></originalvideofilename>
							<originalaudiofilename></originalaudiofilename>
						</logginginfo>
						<colorinfo>
							<lut></lut>
							<lut1></lut1>
							<asc_sop></asc_sop>
							<asc_sat></asc_sat>
							<lut2></lut2>
						</colorinfo>
						<labels>
							<label2>Violet</label2>
						</labels>
					</clipitem>
					<clipitem id="clipitem-833">
						<masterclipid>masterclip-830</masterclipid>
						<name>TKO_015_CRA_Sh08690.mov</name>
						<enabled>TRUE</enabled>
						<duration>57</duration>
						<rate>
							<timebase>24</timebase>
							<ntsc>TRUE</ntsc>
						</rate>
						<start>67261</start>
						<end>67310</end>
						<in>4</in>
						<out>53</out>
						<pproTicksIn>42378336000</pproTicksIn>
						<pproTicksOut>561512952000</pproTicksOut>
						<alphatype>none</alphatype>
						<pixelaspectratio>square</pixelaspectratio>
						<anamorphic>FALSE</anamorphic>
						<file id="file-830">
							<name>TKO_015_CRA_Sh08690.mov</name>
							<pathurl>file://tri-stor01/Projects/TKO/SHOTS/_Refs_Movs_Burnin_FrameCounter/TKO_015_CRA_Sh08690.mov</pathurl>
							<rate>
								<timebase>24</timebase>
								<ntsc>TRUE</ntsc>
							</rate>
							<duration>57</duration>
							<timecode>
								<rate>
									<timebase>24</timebase>
									<ntsc>TRUE</ntsc>
								</rate>
								<string>20:34:05:18</string>
								<frame>1777098</frame>
								<displayformat>NDF</displayformat>
								<reel>
									<name>A0240015</name>
								</reel>
							</timecode>
							<media>
								<video>
									<samplecharacteristics>
										<rate>
											<timebase>24</timebase>
											<ntsc>TRUE</ntsc>
										</rate>
										<width>4096</width>
										<height>2160</height>
										<anamorphic>FALSE</anamorphic>
										<pixelaspectratio>square</pixelaspectratio>
										<fielddominance>none</fielddominance>
									</samplecharacteristics>
								</video>
							</media>
						</file>
						<logginginfo>
							<description></description>
							<scene></scene>
							<shottake></shottake>
							<lognote></lognote>
							<good></good>
							<originalvideofilename></originalvideofilename>
							<originalaudiofilename></originalaudiofilename>
						</logginginfo>
						<colorinfo>
							<lut></lut>
							<lut1></lut1>
							<asc_sop></asc_sop>
							<asc_sat></asc_sat>
							<lut2></lut2>
						</colorinfo>
						<labels>
							<label2>Violet</label2>
						</labels>
					</clipitem>
					<clipitem id="clipitem-834">
						<masterclipid>masterclip-831</masterclipid>
						<name>TKO_015_CRA_Sh08700.mov</name>
						<enabled>TRUE</enabled>
						<duration>100</duration>
						<rate>
							<timebase>24</timebase>
							<ntsc>TRUE</ntsc>
						</rate>
						<start>67310</start>
						<end>67402</end>
						<in>4</in>
						<out>96</out>
						<pproTicksIn>42378336000</pproTicksIn>
						<pproTicksOut>1017080064000</pproTicksOut>
						<alphatype>none</alphatype>
						<pixelaspectratio>square</pixelaspectratio>
						<anamorphic>FALSE</anamorphic>
						<file id="file-831">
							<name>TKO_015_CRA_Sh08700.mov</name>
							<pathurl>file://tri-stor01/Projects/TKO/SHOTS/_Refs_Movs_Burnin_FrameCounter/TKO_015_CRA_Sh08700.mov</pathurl>
							<rate>
								<timebase>24</timebase>
								<ntsc>TRUE</ntsc>
							</rate>
							<duration>100</duration>
							<timecode>
								<rate>
									<timebase>24</timebase>
									<ntsc>TRUE</ntsc>
								</rate>
								<string>20:34:07:19</string>
								<frame>1777147</frame>
								<displayformat>NDF</displayformat>
								<reel>
									<name>B0200013</name>
								</reel>
							</timecode>
							<media>
								<video>
									<samplecharacteristics>
										<rate>
											<timebase>24</timebase>
											<ntsc>TRUE</ntsc>
										</rate>
										<width>4096</width>
										<height>2160</height>
										<anamorphic>FALSE</anamorphic>
										<pixelaspectratio>square</pixelaspectratio>
										<fielddominance>none</fielddominance>
									</samplecharacteristics>
								</video>
							</media>
						</file>
						<logginginfo>
							<description></description>
							<scene></scene>
							<shottake></shottake>
							<lognote></lognote>
							<good></good>
							<originalvideofilename></originalvideofilename>
							<originalaudiofilename></originalaudiofilename>
						</logginginfo>
						<colorinfo>
							<lut></lut>
							<lut1></lut1>
							<asc_sop></asc_sop>
							<asc_sat></asc_sat>
							<lut2></lut2>
						</colorinfo>
						<labels>
							<label2>Violet</label2>
						</labels>
					</clipitem>
					<clipitem id="clipitem-835">
						<masterclipid>masterclip-832</masterclipid>
						<name>TKO_015_CRA_Sh08710.mov</name>
						<enabled>TRUE</enabled>
						<duration>54</duration>
						<rate>
							<timebase>24</timebase>
							<ntsc>TRUE</ntsc>
						</rate>
						<start>67402</start>
						<end>67448</end>
						<in>4</in>
						<out>50</out>
						<pproTicksIn>42378336000</pproTicksIn>
						<pproTicksOut>529729200000</pproTicksOut>
						<alphatype>none</alphatype>
						<pixelaspectratio>square</pixelaspectratio>
						<anamorphic>FALSE</anamorphic>
						<file id="file-832">
							<name>TKO_015_CRA_Sh08710.mov</name>
							<pathurl>file://tri-stor01/Projects/TKO/SHOTS/_Refs_Movs_Burnin_FrameCounter/TKO_015_CRA_Sh08710.mov</pathurl>
							<rate>
								<timebase>24</timebase>
								<ntsc>TRUE</ntsc>
							</rate>
							<duration>54</duration>
							<timecode>
								<rate>
									<timebase>24</timebase>
									<ntsc>TRUE</ntsc>
								</rate>
								<string>19:06:58:08</string>
								<frame>1651640</frame>
								<displayformat>NDF</displayformat>
								<reel>
									<name>A0190006</name>
								</reel>
							</timecode>
							<media>
								<video>
									<samplecharacteristics>
										<rate>
											<timebase>24</timebase>
											<ntsc>TRUE</ntsc>
										</rate>
										<width>4096</width>
										<height>2160</height>
										<anamorphic>FALSE</anamorphic>
										<pixelaspectratio>square</pixelaspectratio>
										<fielddominance>none</fielddominance>
									</samplecharacteristics>
								</video>
							</media>
						</file>
						<logginginfo>
							<description></description>
							<scene></scene>
							<shottake></shottake>
							<lognote></lognote>
							<good></good>
							<originalvideofilename></originalvideofilename>
							<originalaudiofilename></originalaudiofilename>
						</logginginfo>
						<colorinfo>
							<lut></lut>
							<lut1></lut1>
							<asc_sop></asc_sop>
							<asc_sat></asc_sat>
							<lut2></lut2>
						</colorinfo>
						<labels>
							<label2>Violet</label2>
						</labels>
					</clipitem>
					<clipitem id="clipitem-836">
						<masterclipid>masterclip-833</masterclipid>
						<name>TKO_015_CRA_Sh08720.mov</name>
						<enabled>TRUE</enabled>
						<duration>32</duration>
						<rate>
							<timebase>24</timebase>
							<ntsc>TRUE</ntsc>
						</rate>
						<start>67448</start>
						<end>67472</end>
						<in>4</in>
						<out>28</out>
						<pproTicksIn>42378336000</pproTicksIn>
						<pproTicksOut>296648352000</pproTicksOut>
						<alphatype>none</alphatype>
						<pixelaspectratio>square</pixelaspectratio>
						<anamorphic>FALSE</anamorphic>
						<file id="file-833">
							<name>TKO_015_CRA_Sh08720.mov</name>
							<pathurl>file://tri-stor01/Projects/TKO/SHOTS/_Refs_Movs_Burnin_FrameCounter/TKO_015_CRA_Sh08720.mov</pathurl>
							<rate>
								<timebase>24</timebase>
								<ntsc>TRUE</ntsc>
							</rate>
							<duration>32</duration>
							<timecode>
								<rate>
									<timebase>24</timebase>
									<ntsc>TRUE</ntsc>
								</rate>
								<string>20:34:12:16</string>
								<frame>1777264</frame>
								<displayformat>NDF</displayformat>
								<reel>
									<name>A0240015</name>
								</reel>
							</timecode>
							<media>
								<video>
									<samplecharacteristics>
										<rate>
											<timebase>24</timebase>
											<ntsc>TRUE</ntsc>
										</rate>
										<width>4096</width>
										<height>2160</height>
										<anamorphic>FALSE</anamorphic>
										<pixelaspectratio>square</pixelaspectratio>
										<fielddominance>none</fielddominance>
									</samplecharacteristics>
								</video>
							</media>
						</file>
						<logginginfo>
							<description></description>
							<scene></scene>
							<shottake></shottake>
							<lognote></lognote>
							<good></good>
							<originalvideofilename></originalvideofilename>
							<originalaudiofilename></originalaudiofilename>
						</logginginfo>
						<colorinfo>
							<lut></lut>
							<lut1></lut1>
							<asc_sop></asc_sop>
							<asc_sat></asc_sat>
							<lut2></lut2>
						</colorinfo>
						<labels>
							<label2>Violet</label2>
						</labels>
					</clipitem>
					<clipitem id="clipitem-837">
						<masterclipid>masterclip-834</masterclipid>
						<name>TKO_015_CRA_Sh08730.mov</name>
						<enabled>TRUE</enabled>
						<duration>38</duration>
						<rate>
							<timebase>24</timebase>
							<ntsc>TRUE</ntsc>
						</rate>
						<start>67472</start>
						<end>67502</end>
						<in>4</in>
						<out>34</out>
						<pproTicksIn>42378336000</pproTicksIn>
						<pproTicksOut>360215856000</pproTicksOut>
						<alphatype>none</alphatype>
						<pixelaspectratio>square</pixelaspectratio>
						<anamorphic>FALSE</anamorphic>
						<file id="file-834">
							<name>TKO_015_CRA_Sh08730.mov</name>
							<pathurl>file://tri-stor01/Projects/TKO/SHOTS/_Refs_Movs_Burnin_FrameCounter/TKO_015_CRA_Sh08730.mov</pathurl>
							<rate>
								<timebase>24</timebase>
								<ntsc>TRUE</ntsc>
							</rate>
							<duration>38</duration>
							<timecode>
								<rate>
									<timebase>24</timebase>
									<ntsc>TRUE</ntsc>
								</rate>
								<string>17:09:52:13</string>
								<frame>1483021</frame>
								<displayformat>NDF</displayformat>
								<reel>
									<name>B0220005</name>
								</reel>
							</timecode>
							<media>
								<video>
									<samplecharacteristics>
										<rate>
											<timebase>24</timebase>
											<ntsc>TRUE</ntsc>
										</rate>
										<width>4096</width>
										<height>2160</height>
										<anamorphic>FALSE</anamorphic>
										<pixelaspectratio>square</pixelaspectratio>
										<fielddominance>none</fielddominance>
									</samplecharacteristics>
								</video>
							</media>
						</file>
						<logginginfo>
							<description></description>
							<scene></scene>
							<shottake></shottake>
							<lognote></lognote>
							<good></good>
							<originalvideofilename></originalvideofilename>
							<originalaudiofilename></originalaudiofilename>
						</logginginfo>
						<colorinfo>
							<lut></lut>
							<lut1></lut1>
							<asc_sop></asc_sop>
							<asc_sat></asc_sat>
							<lut2></lut2>
						</colorinfo>
						<labels>
							<label2>Violet</label2>
						</labels>
					</clipitem>
					<clipitem id="clipitem-838">
						<masterclipid>masterclip-835</masterclipid>
						<name>TKO_015_CRA_Sh08740.mov</name>
						<enabled>TRUE</enabled>
						<duration>35</duration>
						<rate>
							<timebase>24</timebase>
							<ntsc>TRUE</ntsc>
						</rate>
						<start>67502</start>
						<end>67529</end>
						<in>4</in>
						<out>31</out>
						<pproTicksIn>42378336000</pproTicksIn>
						<pproTicksOut>328432104000</pproTicksOut>
						<alphatype>none</alphatype>
						<pixelaspectratio>square</pixelaspectratio>
						<anamorphic>FALSE</anamorphic>
						<file id="file-835">
							<name>TKO_015_CRA_Sh08740.mov</name>
							<pathurl>file://tri-stor01/Projects/TKO/SHOTS/_Refs_Movs_Burnin_FrameCounter/TKO_015_CRA_Sh08740.mov</pathurl>
							<rate>
								<timebase>24</timebase>
								<ntsc>TRUE</ntsc>
							</rate>
							<duration>35</duration>
							<timecode>
								<rate>
									<timebase>24</timebase>
									<ntsc>TRUE</ntsc>
								</rate>
								<string>20:43:00:11</string>
								<frame>1789931</frame>
								<displayformat>NDF</displayformat>
								<reel>
									<name>B0200017</name>
								</reel>
							</timecode>
							<media>
								<video>
									<samplecharacteristics>
										<rate>
											<timebase>24</timebase>
											<ntsc>TRUE</ntsc>
										</rate>
										<width>4096</width>
										<height>2160</height>
										<anamorphic>FALSE</anamorphic>
										<pixelaspectratio>square</pixelaspectratio>
										<fielddominance>none</fielddominance>
									</samplecharacteristics>
								</video>
							</media>
						</file>
						<logginginfo>
							<description></description>
							<scene></scene>
							<shottake></shottake>
							<lognote></lognote>
							<good></good>
							<originalvideofilename></originalvideofilename>
							<originalaudiofilename></originalaudiofilename>
						</logginginfo>
						<colorinfo>
							<lut></lut>
							<lut1></lut1>
							<asc_sop></asc_sop>
							<asc_sat></asc_sat>
							<lut2></lut2>
						</colorinfo>
						<labels>
							<label2>Violet</label2>
						</labels>
					</clipitem>
					<clipitem id="clipitem-839">
						<masterclipid>masterclip-836</masterclipid>
						<name>TKO_015_CRA_Sh08750.mov</name>
						<enabled>TRUE</enabled>
						<duration>43</duration>
						<rate>
							<timebase>24</timebase>
							<ntsc>TRUE</ntsc>
						</rate>
						<start>67529</start>
						<end>67568</end>
						<in>2</in>
						<out>41</out>
						<pproTicksIn>42378336000</pproTicksIn>
						<pproTicksOut>868755888000</pproTicksOut>
						<alphatype>none</alphatype>
						<pixelaspectratio>square</pixelaspectratio>
						<anamorphic>FALSE</anamorphic>
						<file id="file-836">
							<name>TKO_015_CRA_Sh08750.mov</name>
							<pathurl>file://tri-stor01/Projects/TKO/SHOTS/_Refs_Movs_Burnin_FrameCounter/TKO_015_CRA_Sh08750.mov</pathurl>
							<rate>
								<timebase>24</timebase>
								<ntsc>TRUE</ntsc>
							</rate>
							<duration>86</duration>
							<timecode>
								<rate>
									<timebase>24</timebase>
									<ntsc>TRUE</ntsc>
								</rate>
								<string>17:09:19:01</string>
								<frame>1482217</frame>
								<displayformat>NDF</displayformat>
								<reel>
									<name>A0260004</name>
								</reel>
							</timecode>
							<media>
								<video>
									<samplecharacteristics>
										<rate>
											<timebase>24</timebase>
											<ntsc>TRUE</ntsc>
										</rate>
										<width>4096</width>
										<height>2160</height>
										<anamorphic>FALSE</anamorphic>
										<pixelaspectratio>square</pixelaspectratio>
										<fielddominance>none</fielddominance>
									</samplecharacteristics>
								</video>
							</media>
						</file>
						<filter>
							<effect>
								<name>Time Remap</name>
								<effectid>timeremap</effectid>
								<effectcategory>motion</effectcategory>
								<effecttype>motion</effecttype>
								<mediatype>video</mediatype>
								<parameter authoringApp="PremierePro">
									<parameterid>variablespeed</parameterid>
									<name>variablespeed</name>
									<valuemin>0</valuemin>
									<valuemax>1</valuemax>
									<value>0</value>
								</parameter>
								<parameter authoringApp="PremierePro">
									<parameterid>speed</parameterid>
									<name>speed</name>
									<valuemin>-100000</valuemin>
									<valuemax>100000</valuemax>
									<value>200</value>
								</parameter>
								<parameter authoringApp="PremierePro">
									<parameterid>reverse</parameterid>
									<name>reverse</name>
									<value>FALSE</value>
								</parameter>
								<parameter authoringApp="PremierePro">
									<parameterid>frameblending</parameterid>
									<name>frameblending</name>
									<value>FALSE</value>
								</parameter>
								<parameter authoringApp="PremierePro">
									<parameterid>graphdict</parameterid>
									<name>graphdict</name>
									<valuemin>0</valuemin>
									<valuemax>86</valuemax>
									<value>0</value>
									<keyframe>
										<when>0</when>
										<value>0</value>
										<speedvirtualkf>TRUE</speedvirtualkf>
										<speedkfstart>TRUE</speedkfstart>
									</keyframe>
									<keyframe>
										<when>2</when>
										<value>4</value>
										<speedvirtualkf>TRUE</speedvirtualkf>
										<speedkfin>TRUE</speedkfin>
									</keyframe>
									<keyframe>
										<when>41</when>
										<value>82</value>
										<speedvirtualkf>TRUE</speedvirtualkf>
										<speedkfout>TRUE</speedkfout>
									</keyframe>
									<keyframe>
										<when>43</when>
										<value>86</value>
										<speedvirtualkf>TRUE</speedvirtualkf>
										<speedkfend>TRUE</speedkfend>
									</keyframe>
									<interpolation>
										<name>FCPCurve</name>
									</interpolation>
								</parameter>
							</effect>
						</filter>
						<logginginfo>
							<description></description>
							<scene></scene>
							<shottake></shottake>
							<lognote></lognote>
							<good></good>
							<originalvideofilename></originalvideofilename>
							<originalaudiofilename></originalaudiofilename>
						</logginginfo>
						<colorinfo>
							<lut></lut>
							<lut1></lut1>
							<asc_sop></asc_sop>
							<asc_sat></asc_sat>
							<lut2></lut2>
						</colorinfo>
						<labels>
							<label2>Violet</label2>
						</labels>
					</clipitem>
					<clipitem id="clipitem-840">
						<masterclipid>masterclip-837</masterclipid>
						<name>TKO_015_CRA_Sh08770.mov</name>
						<enabled>TRUE</enabled>
						<duration>40</duration>
						<rate>
							<timebase>24</timebase>
							<ntsc>TRUE</ntsc>
						</rate>
						<start>67568</start>
						<end>67600</end>
						<in>4</in>
						<out>36</out>
						<pproTicksIn>42378336000</pproTicksIn>
						<pproTicksOut>381405024000</pproTicksOut>
						<alphatype>none</alphatype>
						<pixelaspectratio>square</pixelaspectratio>
						<anamorphic>FALSE</anamorphic>
						<file id="file-837">
							<name>TKO_015_CRA_Sh08770.mov</name>
							<pathurl>file://tri-stor01/Projects/TKO/SHOTS/_Refs_Movs_Burnin_FrameCounter/TKO_015_CRA_Sh08770.mov</pathurl>
							<rate>
								<timebase>24</timebase>
								<ntsc>TRUE</ntsc>
							</rate>
							<duration>40</duration>
							<timecode>
								<rate>
									<timebase>24</timebase>
									<ntsc>TRUE</ntsc>
								</rate>
								<string>20:34:17:05</string>
								<frame>1777373</frame>
								<displayformat>NDF</displayformat>
								<reel>
									<name>B0200013</name>
								</reel>
							</timecode>
							<media>
								<video>
									<samplecharacteristics>
										<rate>
											<timebase>24</timebase>
											<ntsc>TRUE</ntsc>
										</rate>
										<width>4096</width>
										<height>2160</height>
										<anamorphic>FALSE</anamorphic>
										<pixelaspectratio>square</pixelaspectratio>
										<fielddominance>none</fielddominance>
									</samplecharacteristics>
								</video>
							</media>
						</file>
						<logginginfo>
							<description></description>
							<scene></scene>
							<shottake></shottake>
							<lognote></lognote>
							<good></good>
							<originalvideofilename></originalvideofilename>
							<originalaudiofilename></originalaudiofilename>
						</logginginfo>
						<colorinfo>
							<lut></lut>
							<lut1></lut1>
							<asc_sop></asc_sop>
							<asc_sat></asc_sat>
							<lut2></lut2>
						</colorinfo>
						<labels>
							<label2>Violet</label2>
						</labels>
					</clipitem>
					<clipitem id="clipitem-841">
						<masterclipid>masterclip-838</masterclipid>
						<name>TKO_015_CRA_Sh08780.mov</name>
						<enabled>TRUE</enabled>
						<duration>73</duration>
						<rate>
							<timebase>24</timebase>
							<ntsc>TRUE</ntsc>
						</rate>
						<start>67600</start>
						<end>67639</end>
						<in>4</in>
						<out>43</out>
						<pproTicksIn>42378336000</pproTicksIn>
						<pproTicksOut>455567112000</pproTicksOut>
						<alphatype>none</alphatype>
						<pixelaspectratio>square</pixelaspectratio>
						<anamorphic>FALSE</anamorphic>
						<file id="file-838">
							<name>TKO_015_CRA_Sh08780.mov</name>
							<pathurl>file://tri-stor01/Projects/TKO/SHOTS/_Refs_Movs_Burnin_FrameCounter/TKO_015_CRA_Sh08780.mov</pathurl>
							<rate>
								<timebase>24</timebase>
								<ntsc>TRUE</ntsc>
							</rate>
							<duration>73</duration>
							<timecode>
								<rate>
									<timebase>24</timebase>
									<ntsc>TRUE</ntsc>
								</rate>
								<string>20:34:24:13</string>
								<frame>1777549</frame>
								<displayformat>NDF</displayformat>
								<reel>
									<name>A0240015</name>
								</reel>
							</timecode>
							<media>
								<video>
									<samplecharacteristics>
										<rate>
											<timebase>24</timebase>
											<ntsc>TRUE</ntsc>
										</rate>
										<width>4096</width>
										<height>2160</height>
										<anamorphic>FALSE</anamorphic>
										<pixelaspectratio>square</pixelaspectratio>
										<fielddominance>none</fielddominance>
									</samplecharacteristics>
								</video>
							</media>
						</file>
						<logginginfo>
							<description></description>
							<scene></scene>
							<shottake></shottake>
							<lognote></lognote>
							<good></good>
							<originalvideofilename></originalvideofilename>
							<originalaudiofilename></originalaudiofilename>
						</logginginfo>
						<colorinfo>
							<lut></lut>
							<lut1></lut1>
							<asc_sop></asc_sop>
							<asc_sat></asc_sat>
							<lut2></lut2>
						</colorinfo>
						<labels>
							<label2>Violet</label2>
						</labels>
					</clipitem>
					<clipitem id="clipitem-842">
						<masterclipid>masterclip-839</masterclipid>
						<name>TKO_015_CRA_Sh08790.mov</name>
						<enabled>TRUE</enabled>
						<duration>47</duration>
						<rate>
							<timebase>24</timebase>
							<ntsc>TRUE</ntsc>
						</rate>
						<start>67639</start>
						<end>67678</end>
						<in>4</in>
						<out>43</out>
						<pproTicksIn>42378336000</pproTicksIn>
						<pproTicksOut>455567112000</pproTicksOut>
						<alphatype>none</alphatype>
						<pixelaspectratio>square</pixelaspectratio>
						<anamorphic>FALSE</anamorphic>
						<file id="file-839">
							<name>TKO_015_CRA_Sh08790.mov</name>
							<pathurl>file://tri-stor01/Projects/TKO/SHOTS/_Refs_Movs_Burnin_FrameCounter/TKO_015_CRA_Sh08790.mov</pathurl>
							<rate>
								<timebase>24</timebase>
								<ntsc>TRUE</ntsc>
							</rate>
							<duration>47</duration>
							<timecode>
								<rate>
									<timebase>24</timebase>
									<ntsc>TRUE</ntsc>
								</rate>
								<string>00:38:03:20</string>
								<frame>54812</frame>
								<displayformat>NDF</displayformat>
							</timecode>
							<media>
								<video>
									<samplecharacteristics>
										<rate>
											<timebase>24</timebase>
											<ntsc>TRUE</ntsc>
										</rate>
										<width>1280</width>
										<height>720</height>
										<anamorphic>FALSE</anamorphic>
										<pixelaspectratio>square</pixelaspectratio>
										<fielddominance>none</fielddominance>
									</samplecharacteristics>
								</video>
							</media>
						</file>
						<logginginfo>
							<description></description>
							<scene></scene>
							<shottake></shottake>
							<lognote></lognote>
							<good></good>
							<originalvideofilename></originalvideofilename>
							<originalaudiofilename></originalaudiofilename>
						</logginginfo>
						<colorinfo>
							<lut></lut>
							<lut1></lut1>
							<asc_sop></asc_sop>
							<asc_sat></asc_sat>
							<lut2></lut2>
						</colorinfo>
						<labels>
							<label2>Violet</label2>
						</labels>
					</clipitem>
					<clipitem id="clipitem-843">
						<masterclipid>masterclip-840</masterclipid>
						<name>TKO_015_CRA_Sh08800.mov</name>
						<enabled>TRUE</enabled>
						<duration>77</duration>
						<rate>
							<timebase>24</timebase>
							<ntsc>TRUE</ntsc>
						</rate>
						<start>67678</start>
						<end>67749</end>
						<in>3</in>
						<out>74</out>
						<pproTicksIn>31783752000</pproTicksIn>
						<pproTicksOut>783999216000</pproTicksOut>
						<alphatype>none</alphatype>
						<pixelaspectratio>square</pixelaspectratio>
						<anamorphic>FALSE</anamorphic>
						<file id="file-840">
							<name>TKO_015_CRA_Sh08800.mov</name>
							<pathurl>file://tri-stor01/Projects/TKO/SHOTS/_Refs_Movs_Burnin_FrameCounter/TKO_015_CRA_Sh08800.mov</pathurl>
							<rate>
								<timebase>24</timebase>
								<ntsc>TRUE</ntsc>
							</rate>
							<duration>77</duration>
							<timecode>
								<rate>
									<timebase>24</timebase>
									<ntsc>TRUE</ntsc>
								</rate>
								<string>19:49:17:08</string>
								<frame>1712576</frame>
								<displayformat>NDF</displayformat>
								<reel>
									<name>A0470003</name>
								</reel>
							</timecode>
							<media>
								<video>
									<samplecharacteristics>
										<rate>
											<timebase>24</timebase>
											<ntsc>TRUE</ntsc>
										</rate>
										<width>4096</width>
										<height>2160</height>
										<anamorphic>FALSE</anamorphic>
										<pixelaspectratio>square</pixelaspectratio>
										<fielddominance>none</fielddominance>
									</samplecharacteristics>
								</video>
							</media>
						</file>
						<logginginfo>
							<description></description>
							<scene></scene>
							<shottake></shottake>
							<lognote></lognote>
							<good></good>
							<originalvideofilename></originalvideofilename>
							<originalaudiofilename></originalaudiofilename>
						</logginginfo>
						<colorinfo>
							<lut></lut>
							<lut1></lut1>
							<asc_sop></asc_sop>
							<asc_sat></asc_sat>
							<lut2></lut2>
						</colorinfo>
						<labels>
							<label2>Violet</label2>
						</labels>
					</clipitem>
					<clipitem id="clipitem-844">
						<masterclipid>masterclip-841</masterclipid>
						<name>TKO_015_CRA_Sh08810.mov</name>
						<enabled>TRUE</enabled>
						<duration>50</duration>
						<rate>
							<timebase>24</timebase>
							<ntsc>TRUE</ntsc>
						</rate>
						<start>67749</start>
						<end>67791</end>
						<in>4</in>
						<out>46</out>
						<pproTicksIn>42378336000</pproTicksIn>
						<pproTicksOut>487350864000</pproTicksOut>
						<alphatype>none</alphatype>
						<pixelaspectratio>square</pixelaspectratio>
						<anamorphic>FALSE</anamorphic>
						<file id="file-841">
							<name>TKO_015_CRA_Sh08810.mov</name>
							<pathurl>file://tri-stor01/Projects/TKO/SHOTS/_Refs_Movs_Burnin_FrameCounter/TKO_015_CRA_Sh08810.mov</pathurl>
							<rate>
								<timebase>24</timebase>
								<ntsc>TRUE</ntsc>
							</rate>
							<duration>50</duration>
							<timecode>
								<rate>
									<timebase>24</timebase>
									<ntsc>TRUE</ntsc>
								</rate>
								<string>00:00:00:00</string>
								<frame>0</frame>
								<displayformat>NDF</displayformat>
							</timecode>
							<media>
								<video>
									<samplecharacteristics>
										<rate>
											<timebase>24</timebase>
											<ntsc>TRUE</ntsc>
										</rate>
										<width>4096</width>
										<height>2160</height>
										<anamorphic>FALSE</anamorphic>
										<pixelaspectratio>square</pixelaspectratio>
										<fielddominance>none</fielddominance>
									</samplecharacteristics>
								</video>
							</media>
						</file>
						<logginginfo>
							<description></description>
							<scene></scene>
							<shottake></shottake>
							<lognote></lognote>
							<good></good>
							<originalvideofilename></originalvideofilename>
							<originalaudiofilename></originalaudiofilename>
						</logginginfo>
						<colorinfo>
							<lut></lut>
							<lut1></lut1>
							<asc_sop></asc_sop>
							<asc_sat></asc_sat>
							<lut2></lut2>
						</colorinfo>
						<labels>
							<label2>Violet</label2>
						</labels>
					</clipitem>
					<clipitem id="clipitem-845">
						<masterclipid>masterclip-842</masterclipid>
						<name>TKO_015_CRA_Sh08820.mov</name>
						<enabled>TRUE</enabled>
						<duration>60</duration>
						<rate>
							<timebase>24</timebase>
							<ntsc>TRUE</ntsc>
						</rate>
						<start>67791</start>
						<end>67843</end>
						<in>4</in>
						<out>56</out>
						<pproTicksIn>42378336000</pproTicksIn>
						<pproTicksOut>593296704000</pproTicksOut>
						<alphatype>none</alphatype>
						<pixelaspectratio>square</pixelaspectratio>
						<anamorphic>FALSE</anamorphic>
						<file id="file-842">
							<name>TKO_015_CRA_Sh08820.mov</name>
							<pathurl>file://tri-stor01/Projects/TKO/SHOTS/_Refs_Movs_Burnin_FrameCounter/TKO_015_CRA_Sh08820.mov</pathurl>
							<rate>
								<timebase>24</timebase>
								<ntsc>TRUE</ntsc>
							</rate>
							<duration>60</duration>
							<timecode>
								<rate>
									<timebase>24</timebase>
									<ntsc>TRUE</ntsc>
								</rate>
								<string>07:20:47:06</string>
								<frame>634734</frame>
								<displayformat>NDF</displayformat>
								<reel>
									<name>C0180004</name>
								</reel>
							</timecode>
							<media>
								<video>
									<samplecharacteristics>
										<rate>
											<timebase>24</timebase>
											<ntsc>TRUE</ntsc>
										</rate>
										<width>3840</width>
										<height>2160</height>
										<anamorphic>FALSE</anamorphic>
										<pixelaspectratio>square</pixelaspectratio>
										<fielddominance>none</fielddominance>
									</samplecharacteristics>
								</video>
							</media>
						</file>
						<logginginfo>
							<description></description>
							<scene></scene>
							<shottake></shottake>
							<lognote></lognote>
							<good></good>
							<originalvideofilename></originalvideofilename>
							<originalaudiofilename></originalaudiofilename>
						</logginginfo>
						<colorinfo>
							<lut></lut>
							<lut1></lut1>
							<asc_sop></asc_sop>
							<asc_sat></asc_sat>
							<lut2></lut2>
						</colorinfo>
						<labels>
							<label2>Violet</label2>
						</labels>
					</clipitem>
					<clipitem id="clipitem-846">
						<masterclipid>masterclip-843</masterclipid>
						<name>TKO_015_CRA_Sh08850.mov</name>
						<enabled>TRUE</enabled>
						<duration>63</duration>
						<rate>
							<timebase>24</timebase>
							<ntsc>TRUE</ntsc>
						</rate>
						<start>67843</start>
						<end>67898</end>
						<in>4</in>
						<out>59</out>
						<pproTicksIn>42378336000</pproTicksIn>
						<pproTicksOut>625080456000</pproTicksOut>
						<alphatype>none</alphatype>
						<pixelaspectratio>square</pixelaspectratio>
						<anamorphic>FALSE</anamorphic>
						<file id="file-843">
							<name>TKO_015_CRA_Sh08850.mov</name>
							<pathurl>file://tri-stor01/Projects/TKO/SHOTS/_Refs_Movs_Burnin_FrameCounter/TKO_015_CRA_Sh08850.mov</pathurl>
							<rate>
								<timebase>24</timebase>
								<ntsc>TRUE</ntsc>
							</rate>
							<duration>63</duration>
							<timecode>
								<rate>
									<timebase>24</timebase>
									<ntsc>TRUE</ntsc>
								</rate>
								<string>18:57:40:22</string>
								<frame>1638262</frame>
								<displayformat>NDF</displayformat>
								<reel>
									<name>B0400017</name>
								</reel>
							</timecode>
							<media>
								<video>
									<samplecharacteristics>
										<rate>
											<timebase>24</timebase>
											<ntsc>TRUE</ntsc>
										</rate>
										<width>4096</width>
										<height>2160</height>
										<anamorphic>FALSE</anamorphic>
										<pixelaspectratio>square</pixelaspectratio>
										<fielddominance>none</fielddominance>
									</samplecharacteristics>
								</video>
							</media>
						</file>
						<logginginfo>
							<description></description>
							<scene></scene>
							<shottake></shottake>
							<lognote></lognote>
							<good></good>
							<originalvideofilename></originalvideofilename>
							<originalaudiofilename></originalaudiofilename>
						</logginginfo>
						<colorinfo>
							<lut></lut>
							<lut1></lut1>
							<asc_sop></asc_sop>
							<asc_sat></asc_sat>
							<lut2></lut2>
						</colorinfo>
						<labels>
							<label2>Violet</label2>
						</labels>
					</clipitem>
					<clipitem id="clipitem-847">
						<masterclipid>masterclip-844</masterclipid>
						<name>TKO_015_CRA_Sh08860_MERGED.mov</name>
						<enabled>TRUE</enabled>
						<duration>103</duration>
						<rate>
							<timebase>24</timebase>
							<ntsc>TRUE</ntsc>
						</rate>
						<start>67898</start>
						<end>67993</end>
						<in>4</in>
						<out>99</out>
						<pproTicksIn>42378336000</pproTicksIn>
						<pproTicksOut>1048863816000</pproTicksOut>
						<alphatype>none</alphatype>
						<pixelaspectratio>square</pixelaspectratio>
						<anamorphic>FALSE</anamorphic>
						<file id="file-844">
							<name>TKO_015_CRA_Sh08860_MERGED.mov</name>
							<pathurl>file://tri-stor01/Projects/TKO/SHOTS/_Refs_Movs_Burnin_FrameCounter/TKO_015_CRA_Sh08860_MERGED.mov</pathurl>
							<rate>
								<timebase>24</timebase>
								<ntsc>TRUE</ntsc>
							</rate>
							<duration>103</duration>
							<timecode>
								<rate>
									<timebase>24</timebase>
									<ntsc>TRUE</ntsc>
								</rate>
								<string>00:00:00:00</string>
								<frame>0</frame>
								<displayformat>NDF</displayformat>
							</timecode>
							<media>
								<video>
									<samplecharacteristics>
										<rate>
											<timebase>24</timebase>
											<ntsc>TRUE</ntsc>
										</rate>
										<width>1920</width>
										<height>1080</height>
										<anamorphic>FALSE</anamorphic>
										<pixelaspectratio>square</pixelaspectratio>
										<fielddominance>none</fielddominance>
									</samplecharacteristics>
								</video>
								<audio>
									<samplecharacteristics>
										<depth>16</depth>
										<samplerate>48000</samplerate>
									</samplecharacteristics>
									<channelcount>2</channelcount>
								</audio>
							</media>
						</file>
						<logginginfo>
							<description></description>
							<scene></scene>
							<shottake></shottake>
							<lognote></lognote>
							<good></good>
							<originalvideofilename></originalvideofilename>
							<originalaudiofilename></originalaudiofilename>
						</logginginfo>
						<colorinfo>
							<lut></lut>
							<lut1></lut1>
							<asc_sop></asc_sop>
							<asc_sat></asc_sat>
							<lut2></lut2>
						</colorinfo>
						<labels>
							<label2>Iris</label2>
						</labels>
					</clipitem>
					<clipitem id="clipitem-848">
						<masterclipid>masterclip-845</masterclipid>
						<name>TKO_015_CRA_Sh08870_MERGED.mov</name>
						<enabled>TRUE</enabled>
						<duration>114</duration>
						<rate>
							<timebase>24</timebase>
							<ntsc>TRUE</ntsc>
						</rate>
						<start>67993</start>
						<end>68099</end>
						<in>4</in>
						<out>110</out>
						<pproTicksIn>42378336000</pproTicksIn>
						<pproTicksOut>1165404240000</pproTicksOut>
						<alphatype>none</alphatype>
						<pixelaspectratio>square</pixelaspectratio>
						<anamorphic>FALSE</anamorphic>
						<file id="file-845">
							<name>TKO_015_CRA_Sh08870_MERGED.mov</name>
							<pathurl>file://tri-stor01/Projects/TKO/SHOTS/_Refs_Movs_Burnin_FrameCounter/TKO_015_CRA_Sh08870_MERGED.mov</pathurl>
							<rate>
								<timebase>24</timebase>
								<ntsc>TRUE</ntsc>
							</rate>
							<duration>114</duration>
							<timecode>
								<rate>
									<timebase>24</timebase>
									<ntsc>TRUE</ntsc>
								</rate>
								<string>00:00:00:00</string>
								<frame>0</frame>
								<displayformat>NDF</displayformat>
							</timecode>
							<media>
								<video>
									<samplecharacteristics>
										<rate>
											<timebase>24</timebase>
											<ntsc>TRUE</ntsc>
										</rate>
										<width>1920</width>
										<height>1080</height>
										<anamorphic>FALSE</anamorphic>
										<pixelaspectratio>square</pixelaspectratio>
										<fielddominance>none</fielddominance>
									</samplecharacteristics>
								</video>
								<audio>
									<samplecharacteristics>
										<depth>16</depth>
										<samplerate>48000</samplerate>
									</samplecharacteristics>
									<channelcount>2</channelcount>
								</audio>
							</media>
						</file>
						<logginginfo>
							<description></description>
							<scene></scene>
							<shottake></shottake>
							<lognote></lognote>
							<good></good>
							<originalvideofilename></originalvideofilename>
							<originalaudiofilename></originalaudiofilename>
						</logginginfo>
						<colorinfo>
							<lut></lut>
							<lut1></lut1>
							<asc_sop></asc_sop>
							<asc_sat></asc_sat>
							<lut2></lut2>
						</colorinfo>
						<labels>
							<label2>Iris</label2>
						</labels>
					</clipitem>
					<clipitem id="clipitem-849">
						<masterclipid>masterclip-846</masterclipid>
						<name>TKO_015_CRA_Sh08880.mov</name>
						<enabled>TRUE</enabled>
						<duration>59</duration>
						<rate>
							<timebase>24</timebase>
							<ntsc>TRUE</ntsc>
						</rate>
						<start>68099</start>
						<end>68150</end>
						<in>4</in>
						<out>55</out>
						<pproTicksIn>42378336000</pproTicksIn>
						<pproTicksOut>582702120000</pproTicksOut>
						<alphatype>none</alphatype>
						<pixelaspectratio>square</pixelaspectratio>
						<anamorphic>FALSE</anamorphic>
						<file id="file-846">
							<name>TKO_015_CRA_Sh08880.mov</name>
							<pathurl>file://tri-stor01/Projects/TKO/SHOTS/_Refs_Movs_Burnin_FrameCounter/TKO_015_CRA_Sh08880.mov</pathurl>
							<rate>
								<timebase>24</timebase>
								<ntsc>TRUE</ntsc>
							</rate>
							<duration>59</duration>
							<timecode>
								<rate>
									<timebase>24</timebase>
									<ntsc>TRUE</ntsc>
								</rate>
								<string>05:33:05:16</string>
								<frame>479656</frame>
								<displayformat>NDF</displayformat>
								<reel>
									<name>C0110007</name>
								</reel>
							</timecode>
							<media>
								<video>
									<samplecharacteristics>
										<rate>
											<timebase>24</timebase>
											<ntsc>TRUE</ntsc>
										</rate>
										<width>3840</width>
										<height>2160</height>
										<anamorphic>FALSE</anamorphic>
										<pixelaspectratio>square</pixelaspectratio>
										<fielddominance>none</fielddominance>
									</samplecharacteristics>
								</video>
							</media>
						</file>
						<logginginfo>
							<description></description>
							<scene></scene>
							<shottake></shottake>
							<lognote></lognote>
							<good></good>
							<originalvideofilename></originalvideofilename>
							<originalaudiofilename></originalaudiofilename>
						</logginginfo>
						<colorinfo>
							<lut></lut>
							<lut1></lut1>
							<asc_sop></asc_sop>
							<asc_sat></asc_sat>
							<lut2></lut2>
						</colorinfo>
						<labels>
							<label2>Violet</label2>
						</labels>
					</clipitem>
					<clipitem id="clipitem-850">
						<masterclipid>masterclip-847</masterclipid>
						<name>TKO_015_CRA_Sh08890_MERGED.mov</name>
						<enabled>TRUE</enabled>
						<duration>102</duration>
						<rate>
							<timebase>24</timebase>
							<ntsc>TRUE</ntsc>
						</rate>
						<start>68150</start>
						<end>68244</end>
						<in>4</in>
						<out>98</out>
						<pproTicksIn>42378336000</pproTicksIn>
						<pproTicksOut>1038269232000</pproTicksOut>
						<alphatype>none</alphatype>
						<pixelaspectratio>square</pixelaspectratio>
						<anamorphic>FALSE</anamorphic>
						<file id="file-847">
							<name>TKO_015_CRA_Sh08890_MERGED.mov</name>
							<pathurl>file://tri-stor01/Projects/TKO/SHOTS/_Refs_Movs_Burnin_FrameCounter/TKO_015_CRA_Sh08890_MERGED.mov</pathurl>
							<rate>
								<timebase>24</timebase>
								<ntsc>TRUE</ntsc>
							</rate>
							<duration>102</duration>
							<timecode>
								<rate>
									<timebase>24</timebase>
									<ntsc>TRUE</ntsc>
								</rate>
								<string>00:00:00:00</string>
								<frame>0</frame>
								<displayformat>NDF</displayformat>
							</timecode>
							<media>
								<video>
									<samplecharacteristics>
										<rate>
											<timebase>24</timebase>
											<ntsc>TRUE</ntsc>
										</rate>
										<width>1920</width>
										<height>1080</height>
										<anamorphic>FALSE</anamorphic>
										<pixelaspectratio>square</pixelaspectratio>
										<fielddominance>none</fielddominance>
									</samplecharacteristics>
								</video>
								<audio>
									<samplecharacteristics>
										<depth>16</depth>
										<samplerate>48000</samplerate>
									</samplecharacteristics>
									<channelcount>2</channelcount>
								</audio>
							</media>
						</file>
						<logginginfo>
							<description></description>
							<scene></scene>
							<shottake></shottake>
							<lognote></lognote>
							<good></good>
							<originalvideofilename></originalvideofilename>
							<originalaudiofilename></originalaudiofilename>
						</logginginfo>
						<colorinfo>
							<lut></lut>
							<lut1></lut1>
							<asc_sop></asc_sop>
							<asc_sat></asc_sat>
							<lut2></lut2>
						</colorinfo>
						<labels>
							<label2>Iris</label2>
						</labels>
					</clipitem>
					<clipitem id="clipitem-851">
						<masterclipid>masterclip-848</masterclipid>
						<name>TKO_015_CRA_Sh08900.mov</name>
						<enabled>TRUE</enabled>
						<duration>73</duration>
						<rate>
							<timebase>24</timebase>
							<ntsc>TRUE</ntsc>
						</rate>
						<start>68244</start>
						<end>68309</end>
						<in>4</in>
						<out>69</out>
						<pproTicksIn>42378336000</pproTicksIn>
						<pproTicksOut>731026296000</pproTicksOut>
						<alphatype>none</alphatype>
						<pixelaspectratio>square</pixelaspectratio>
						<anamorphic>FALSE</anamorphic>
						<file id="file-848">
							<name>TKO_015_CRA_Sh08900.mov</name>
							<pathurl>file://tri-stor01/Projects/TKO/SHOTS/_Refs_Movs_Burnin_FrameCounter/TKO_015_CRA_Sh08900.mov</pathurl>
							<rate>
								<timebase>24</timebase>
								<ntsc>TRUE</ntsc>
							</rate>
							<duration>73</duration>
							<timecode>
								<rate>
									<timebase>24</timebase>
									<ntsc>TRUE</ntsc>
								</rate>
								<string>19:05:09:05</string>
								<frame>1649021</frame>
								<displayformat>NDF</displayformat>
								<reel>
									<name>A0190006</name>
								</reel>
							</timecode>
							<media>
								<video>
									<samplecharacteristics>
										<rate>
											<timebase>24</timebase>
											<ntsc>TRUE</ntsc>
										</rate>
										<width>4096</width>
										<height>2160</height>
										<anamorphic>FALSE</anamorphic>
										<pixelaspectratio>square</pixelaspectratio>
										<fielddominance>none</fielddominance>
									</samplecharacteristics>
								</video>
							</media>
						</file>
						<logginginfo>
							<description></description>
							<scene></scene>
							<shottake></shottake>
							<lognote></lognote>
							<good></good>
							<originalvideofilename></originalvideofilename>
							<originalaudiofilename></originalaudiofilename>
						</logginginfo>
						<colorinfo>
							<lut></lut>
							<lut1></lut1>
							<asc_sop></asc_sop>
							<asc_sat></asc_sat>
							<lut2></lut2>
						</colorinfo>
						<labels>
							<label2>Violet</label2>
						</labels>
					</clipitem>
					<clipitem id="clipitem-852">
						<masterclipid>masterclip-849</masterclipid>
						<name>TKO_015_CRA_Sh08910.mov</name>
						<enabled>TRUE</enabled>
						<duration>57</duration>
						<rate>
							<timebase>24</timebase>
							<ntsc>TRUE</ntsc>
						</rate>
						<start>68309</start>
						<end>68358</end>
						<in>4</in>
						<out>53</out>
						<pproTicksIn>42378336000</pproTicksIn>
						<pproTicksOut>561512952000</pproTicksOut>
						<alphatype>none</alphatype>
						<pixelaspectratio>square</pixelaspectratio>
						<anamorphic>FALSE</anamorphic>
						<file id="file-849">
							<name>TKO_015_CRA_Sh08910.mov</name>
							<pathurl>file://tri-stor01/Projects/TKO/SHOTS/_Refs_Movs_Burnin_FrameCounter/TKO_015_CRA_Sh08910.mov</pathurl>
							<rate>
								<timebase>24</timebase>
								<ntsc>TRUE</ntsc>
							</rate>
							<duration>57</duration>
							<timecode>
								<rate>
									<timebase>24</timebase>
									<ntsc>TRUE</ntsc>
								</rate>
								<string>05:39:47:00</string>
								<frame>489288</frame>
								<displayformat>NDF</displayformat>
								<reel>
									<name>C0110008</name>
								</reel>
							</timecode>
							<media>
								<video>
									<samplecharacteristics>
										<rate>
											<timebase>24</timebase>
											<ntsc>TRUE</ntsc>
										</rate>
										<width>3840</width>
										<height>2160</height>
										<anamorphic>FALSE</anamorphic>
										<pixelaspectratio>square</pixelaspectratio>
										<fielddominance>none</fielddominance>
									</samplecharacteristics>
								</video>
							</media>
						</file>
						<logginginfo>
							<description></description>
							<scene></scene>
							<shottake></shottake>
							<lognote></lognote>
							<good></good>
							<originalvideofilename></originalvideofilename>
							<originalaudiofilename></originalaudiofilename>
						</logginginfo>
						<colorinfo>
							<lut></lut>
							<lut1></lut1>
							<asc_sop></asc_sop>
							<asc_sat></asc_sat>
							<lut2></lut2>
						</colorinfo>
						<labels>
							<label2>Violet</label2>
						</labels>
					</clipitem>
					<clipitem id="clipitem-853">
						<masterclipid>masterclip-850</masterclipid>
						<name>TKO_015_CRA_Sh08920.mov</name>
						<enabled>TRUE</enabled>
						<duration>87</duration>
						<rate>
							<timebase>24</timebase>
							<ntsc>TRUE</ntsc>
						</rate>
						<start>68358</start>
						<end>68437</end>
						<in>4</in>
						<out>83</out>
						<pproTicksIn>42378336000</pproTicksIn>
						<pproTicksOut>879350472000</pproTicksOut>
						<alphatype>none</alphatype>
						<pixelaspectratio>square</pixelaspectratio>
						<anamorphic>FALSE</anamorphic>
						<file id="file-850">
							<name>TKO_015_CRA_Sh08920.mov</name>
							<pathurl>file://tri-stor01/Projects/TKO/SHOTS/_Refs_Movs_Burnin_FrameCounter/TKO_015_CRA_Sh08920.mov</pathurl>
							<rate>
								<timebase>24</timebase>
								<ntsc>TRUE</ntsc>
							</rate>
							<duration>87</duration>
							<timecode>
								<rate>
									<timebase>24</timebase>
									<ntsc>TRUE</ntsc>
								</rate>
								<string>00:38:25:09</string>
								<frame>55329</frame>
								<displayformat>NDF</displayformat>
							</timecode>
							<media>
								<video>
									<samplecharacteristics>
										<rate>
											<timebase>24</timebase>
											<ntsc>TRUE</ntsc>
										</rate>
										<width>1280</width>
										<height>720</height>
										<anamorphic>FALSE</anamorphic>
										<pixelaspectratio>square</pixelaspectratio>
										<fielddominance>none</fielddominance>
									</samplecharacteristics>
								</video>
							</media>
						</file>
						<logginginfo>
							<description></description>
							<scene></scene>
							<shottake></shottake>
							<lognote></lognote>
							<good></good>
							<originalvideofilename></originalvideofilename>
							<originalaudiofilename></originalaudiofilename>
						</logginginfo>
						<colorinfo>
							<lut></lut>
							<lut1></lut1>
							<asc_sop></asc_sop>
							<asc_sat></asc_sat>
							<lut2></lut2>
						</colorinfo>
						<labels>
							<label2>Violet</label2>
						</labels>
					</clipitem>
					<clipitem id="clipitem-854">
						<masterclipid>masterclip-851</masterclipid>
						<name>TKO_015_CRA_Sh08930.mov</name>
						<enabled>TRUE</enabled>
						<duration>48</duration>
						<rate>
							<timebase>24</timebase>
							<ntsc>TRUE</ntsc>
						</rate>
						<start>68437</start>
						<end>68477</end>
						<in>4</in>
						<out>44</out>
						<pproTicksIn>42378336000</pproTicksIn>
						<pproTicksOut>466161696000</pproTicksOut>
						<alphatype>none</alphatype>
						<pixelaspectratio>square</pixelaspectratio>
						<anamorphic>FALSE</anamorphic>
						<file id="file-851">
							<name>TKO_015_CRA_Sh08930.mov</name>
							<pathurl>file://tri-stor01/Projects/TKO/SHOTS/_Refs_Movs_Burnin_FrameCounter/TKO_015_CRA_Sh08930.mov</pathurl>
							<rate>
								<timebase>24</timebase>
								<ntsc>TRUE</ntsc>
							</rate>
							<duration>48</duration>
							<timecode>
								<rate>
									<timebase>24</timebase>
									<ntsc>TRUE</ntsc>
								</rate>
								<string>00:38:29:11</string>
								<frame>55427</frame>
								<displayformat>NDF</displayformat>
							</timecode>
							<media>
								<video>
									<samplecharacteristics>
										<rate>
											<timebase>24</timebase>
											<ntsc>TRUE</ntsc>
										</rate>
										<width>1280</width>
										<height>720</height>
										<anamorphic>FALSE</anamorphic>
										<pixelaspectratio>square</pixelaspectratio>
										<fielddominance>none</fielddominance>
									</samplecharacteristics>
								</video>
							</media>
						</file>
						<logginginfo>
							<description></description>
							<scene></scene>
							<shottake></shottake>
							<lognote></lognote>
							<good></good>
							<originalvideofilename></originalvideofilename>
							<originalaudiofilename></originalaudiofilename>
						</logginginfo>
						<colorinfo>
							<lut></lut>
							<lut1></lut1>
							<asc_sop></asc_sop>
							<asc_sat></asc_sat>
							<lut2></lut2>
						</colorinfo>
						<labels>
							<label2>Violet</label2>
						</labels>
					</clipitem>
					<clipitem id="clipitem-855">
						<masterclipid>masterclip-852</masterclipid>
						<name>TKO_015_CRA_Sh08940.mov</name>
						<enabled>TRUE</enabled>
						<duration>52</duration>
						<rate>
							<timebase>24</timebase>
							<ntsc>TRUE</ntsc>
						</rate>
						<start>68477</start>
						<end>68521</end>
						<in>4</in>
						<out>48</out>
						<pproTicksIn>42378336000</pproTicksIn>
						<pproTicksOut>508540032000</pproTicksOut>
						<alphatype>none</alphatype>
						<pixelaspectratio>square</pixelaspectratio>
						<anamorphic>FALSE</anamorphic>
						<file id="file-852">
							<name>TKO_015_CRA_Sh08940.mov</name>
							<pathurl>file://tri-stor01/Projects/TKO/SHOTS/_Refs_Movs_Burnin_FrameCounter/TKO_015_CRA_Sh08940.mov</pathurl>
							<rate>
								<timebase>24</timebase>
								<ntsc>TRUE</ntsc>
							</rate>
							<duration>52</duration>
							<timecode>
								<rate>
									<timebase>24</timebase>
									<ntsc>TRUE</ntsc>
								</rate>
								<string>07:26:28:08</string>
								<frame>642920</frame>
								<displayformat>NDF</displayformat>
								<reel>
									<name>C0180006</name>
								</reel>
							</timecode>
							<media>
								<video>
									<samplecharacteristics>
										<rate>
											<timebase>24</timebase>
											<ntsc>TRUE</ntsc>
										</rate>
										<width>3840</width>
										<height>2160</height>
										<anamorphic>FALSE</anamorphic>
										<pixelaspectratio>square</pixelaspectratio>
										<fielddominance>none</fielddominance>
									</samplecharacteristics>
								</video>
							</media>
						</file>
						<logginginfo>
							<description></description>
							<scene></scene>
							<shottake></shottake>
							<lognote></lognote>
							<good></good>
							<originalvideofilename></originalvideofilename>
							<originalaudiofilename></originalaudiofilename>
						</logginginfo>
						<colorinfo>
							<lut></lut>
							<lut1></lut1>
							<asc_sop></asc_sop>
							<asc_sat></asc_sat>
							<lut2></lut2>
						</colorinfo>
						<labels>
							<label2>Violet</label2>
						</labels>
					</clipitem>
					<clipitem id="clipitem-856">
						<masterclipid>masterclip-853</masterclipid>
						<name>TKO_015_CRA_Sh08950.mov</name>
						<enabled>TRUE</enabled>
						<duration>35</duration>
						<rate>
							<timebase>24</timebase>
							<ntsc>TRUE</ntsc>
						</rate>
						<start>68521</start>
						<end>68548</end>
						<in>4</in>
						<out>31</out>
						<pproTicksIn>42378336000</pproTicksIn>
						<pproTicksOut>328432104000</pproTicksOut>
						<alphatype>none</alphatype>
						<pixelaspectratio>square</pixelaspectratio>
						<anamorphic>FALSE</anamorphic>
						<file id="file-853">
							<name>TKO_015_CRA_Sh08950.mov</name>
							<pathurl>file://tri-stor01/Projects/TKO/SHOTS/_Refs_Movs_Burnin_FrameCounter/TKO_015_CRA_Sh08950.mov</pathurl>
							<rate>
								<timebase>24</timebase>
								<ntsc>TRUE</ntsc>
							</rate>
							<duration>35</duration>
							<timecode>
								<rate>
									<timebase>24</timebase>
									<ntsc>TRUE</ntsc>
								</rate>
								<string>07:18:31:03</string>
								<frame>631467</frame>
								<displayformat>NDF</displayformat>
								<reel>
									<name>C0180003</name>
								</reel>
							</timecode>
							<media>
								<video>
									<samplecharacteristics>
										<rate>
											<timebase>24</timebase>
											<ntsc>TRUE</ntsc>
										</rate>
										<width>3840</width>
										<height>2160</height>
										<anamorphic>FALSE</anamorphic>
										<pixelaspectratio>square</pixelaspectratio>
										<fielddominance>none</fielddominance>
									</samplecharacteristics>
								</video>
							</media>
						</file>
						<logginginfo>
							<description></description>
							<scene></scene>
							<shottake></shottake>
							<lognote></lognote>
							<good></good>
							<originalvideofilename></originalvideofilename>
							<originalaudiofilename></originalaudiofilename>
						</logginginfo>
						<colorinfo>
							<lut></lut>
							<lut1></lut1>
							<asc_sop></asc_sop>
							<asc_sat></asc_sat>
							<lut2></lut2>
						</colorinfo>
						<labels>
							<label2>Violet</label2>
						</labels>
					</clipitem>
					<clipitem id="clipitem-857">
						<masterclipid>masterclip-854</masterclipid>
						<name>TKO_015_CRA_Sh08960.mov</name>
						<enabled>TRUE</enabled>
						<duration>44</duration>
						<rate>
							<timebase>24</timebase>
							<ntsc>TRUE</ntsc>
						</rate>
						<start>68548</start>
						<end>68584</end>
						<in>4</in>
						<out>40</out>
						<pproTicksIn>42378336000</pproTicksIn>
						<pproTicksOut>423783360000</pproTicksOut>
						<alphatype>none</alphatype>
						<pixelaspectratio>square</pixelaspectratio>
						<anamorphic>FALSE</anamorphic>
						<file id="file-854">
							<name>TKO_015_CRA_Sh08960.mov</name>
							<pathurl>file://tri-stor01/Projects/TKO/SHOTS/_Refs_Movs_Burnin_FrameCounter/TKO_015_CRA_Sh08960.mov</pathurl>
							<rate>
								<timebase>24</timebase>
								<ntsc>TRUE</ntsc>
							</rate>
							<duration>44</duration>
							<timecode>
								<rate>
									<timebase>24</timebase>
									<ntsc>TRUE</ntsc>
								</rate>
								<string>00:38:34:03</string>
								<frame>55539</frame>
								<displayformat>NDF</displayformat>
							</timecode>
							<media>
								<video>
									<samplecharacteristics>
										<rate>
											<timebase>24</timebase>
											<ntsc>TRUE</ntsc>
										</rate>
										<width>1280</width>
										<height>720</height>
										<anamorphic>FALSE</anamorphic>
										<pixelaspectratio>square</pixelaspectratio>
										<fielddominance>none</fielddominance>
									</samplecharacteristics>
								</video>
							</media>
						</file>
						<logginginfo>
							<description></description>
							<scene></scene>
							<shottake></shottake>
							<lognote></lognote>
							<good></good>
							<originalvideofilename></originalvideofilename>
							<originalaudiofilename></originalaudiofilename>
						</logginginfo>
						<colorinfo>
							<lut></lut>
							<lut1></lut1>
							<asc_sop></asc_sop>
							<asc_sat></asc_sat>
							<lut2></lut2>
						</colorinfo>
						<labels>
							<label2>Violet</label2>
						</labels>
					</clipitem>
					<clipitem id="clipitem-858">
						<masterclipid>masterclip-855</masterclipid>
						<name>TKO_015_CRA_Sh08970.mov</name>
						<enabled>TRUE</enabled>
						<duration>28</duration>
						<rate>
							<timebase>24</timebase>
							<ntsc>TRUE</ntsc>
						</rate>
						<start>68584</start>
						<end>68604</end>
						<in>4</in>
						<out>24</out>
						<pproTicksIn>42378336000</pproTicksIn>
						<pproTicksOut>254270016000</pproTicksOut>
						<alphatype>none</alphatype>
						<pixelaspectratio>square</pixelaspectratio>
						<anamorphic>FALSE</anamorphic>
						<file id="file-855">
							<name>TKO_015_CRA_Sh08970.mov</name>
							<pathurl>file://tri-stor01/Projects/TKO/SHOTS/_Refs_Movs_Burnin_FrameCounter/TKO_015_CRA_Sh08970.mov</pathurl>
							<rate>
								<timebase>24</timebase>
								<ntsc>TRUE</ntsc>
							</rate>
							<duration>28</duration>
							<timecode>
								<rate>
									<timebase>24</timebase>
									<ntsc>TRUE</ntsc>
								</rate>
								<string>07:21:38:01</string>
								<frame>635953</frame>
								<displayformat>NDF</displayformat>
								<reel>
									<name>C0180004</name>
								</reel>
							</timecode>
							<media>
								<video>
									<samplecharacteristics>
										<rate>
											<timebase>24</timebase>
											<ntsc>TRUE</ntsc>
										</rate>
										<width>3840</width>
										<height>2160</height>
										<anamorphic>FALSE</anamorphic>
										<pixelaspectratio>square</pixelaspectratio>
										<fielddominance>none</fielddominance>
									</samplecharacteristics>
								</video>
							</media>
						</file>
						<logginginfo>
							<description></description>
							<scene></scene>
							<shottake></shottake>
							<lognote></lognote>
							<good></good>
							<originalvideofilename></originalvideofilename>
							<originalaudiofilename></originalaudiofilename>
						</logginginfo>
						<colorinfo>
							<lut></lut>
							<lut1></lut1>
							<asc_sop></asc_sop>
							<asc_sat></asc_sat>
							<lut2></lut2>
						</colorinfo>
						<labels>
							<label2>Violet</label2>
						</labels>
					</clipitem>
					<clipitem id="clipitem-859">
						<masterclipid>masterclip-856</masterclipid>
						<name>TKO_015_CRA_Sh08980.mov</name>
						<enabled>TRUE</enabled>
						<duration>29</duration>
						<rate>
							<timebase>24</timebase>
							<ntsc>TRUE</ntsc>
						</rate>
						<start>68604</start>
						<end>68625</end>
						<in>4</in>
						<out>25</out>
						<pproTicksIn>42378336000</pproTicksIn>
						<pproTicksOut>264864600000</pproTicksOut>
						<alphatype>none</alphatype>
						<pixelaspectratio>square</pixelaspectratio>
						<anamorphic>FALSE</anamorphic>
						<file id="file-856">
							<name>TKO_015_CRA_Sh08980.mov</name>
							<pathurl>file://tri-stor01/Projects/TKO/SHOTS/_Refs_Movs_Burnin_FrameCounter/TKO_015_CRA_Sh08980.mov</pathurl>
							<rate>
								<timebase>24</timebase>
								<ntsc>TRUE</ntsc>
							</rate>
							<duration>29</duration>
							<timecode>
								<rate>
									<timebase>24</timebase>
									<ntsc>TRUE</ntsc>
								</rate>
								<string>07:21:40:23</string>
								<frame>636023</frame>
								<displayformat>NDF</displayformat>
								<reel>
									<name>C0180004</name>
								</reel>
							</timecode>
							<media>
								<video>
									<samplecharacteristics>
										<rate>
											<timebase>24</timebase>
											<ntsc>TRUE</ntsc>
										</rate>
										<width>3840</width>
										<height>2160</height>
										<anamorphic>FALSE</anamorphic>
										<pixelaspectratio>square</pixelaspectratio>
										<fielddominance>none</fielddominance>
									</samplecharacteristics>
								</video>
							</media>
						</file>
						<logginginfo>
							<description></description>
							<scene></scene>
							<shottake></shottake>
							<lognote></lognote>
							<good></good>
							<originalvideofilename></originalvideofilename>
							<originalaudiofilename></originalaudiofilename>
						</logginginfo>
						<colorinfo>
							<lut></lut>
							<lut1></lut1>
							<asc_sop></asc_sop>
							<asc_sat></asc_sat>
							<lut2></lut2>
						</colorinfo>
						<labels>
							<label2>Violet</label2>
						</labels>
					</clipitem>
					<clipitem id="clipitem-860">
						<masterclipid>masterclip-857</masterclipid>
						<name>TKO_015_CRA_Sh08990.mov</name>
						<enabled>TRUE</enabled>
						<duration>40</duration>
						<rate>
							<timebase>24</timebase>
							<ntsc>TRUE</ntsc>
						</rate>
						<start>68625</start>
						<end>68657</end>
						<in>4</in>
						<out>36</out>
						<pproTicksIn>42378336000</pproTicksIn>
						<pproTicksOut>381405024000</pproTicksOut>
						<alphatype>none</alphatype>
						<pixelaspectratio>square</pixelaspectratio>
						<anamorphic>FALSE</anamorphic>
						<file id="file-857">
							<name>TKO_015_CRA_Sh08990.mov</name>
							<pathurl>file://tri-stor01/Projects/TKO/SHOTS/_Refs_Movs_Burnin_FrameCounter/TKO_015_CRA_Sh08990.mov</pathurl>
							<rate>
								<timebase>24</timebase>
								<ntsc>TRUE</ntsc>
							</rate>
							<duration>40</duration>
							<timecode>
								<rate>
									<timebase>24</timebase>
									<ntsc>TRUE</ntsc>
								</rate>
								<string>00:38:35:15</string>
								<frame>55575</frame>
								<displayformat>NDF</displayformat>
							</timecode>
							<media>
								<video>
									<samplecharacteristics>
										<rate>
											<timebase>24</timebase>
											<ntsc>TRUE</ntsc>
										</rate>
										<width>1280</width>
										<height>720</height>
										<anamorphic>FALSE</anamorphic>
										<pixelaspectratio>square</pixelaspectratio>
										<fielddominance>none</fielddominance>
									</samplecharacteristics>
								</video>
							</media>
						</file>
						<logginginfo>
							<description></description>
							<scene></scene>
							<shottake></shottake>
							<lognote></lognote>
							<good></good>
							<originalvideofilename></originalvideofilename>
							<originalaudiofilename></originalaudiofilename>
						</logginginfo>
						<colorinfo>
							<lut></lut>
							<lut1></lut1>
							<asc_sop></asc_sop>
							<asc_sat></asc_sat>
							<lut2></lut2>
						</colorinfo>
						<labels>
							<label2>Violet</label2>
						</labels>
					</clipitem>
					<clipitem id="clipitem-861">
						<masterclipid>masterclip-858</masterclipid>
						<name>TKO_015_CRA_Sh09000.mov</name>
						<enabled>TRUE</enabled>
						<duration>43</duration>
						<rate>
							<timebase>24</timebase>
							<ntsc>TRUE</ntsc>
						</rate>
						<start>68657</start>
						<end>68692</end>
						<in>4</in>
						<out>39</out>
						<pproTicksIn>42378336000</pproTicksIn>
						<pproTicksOut>413188776000</pproTicksOut>
						<alphatype>none</alphatype>
						<pixelaspectratio>square</pixelaspectratio>
						<anamorphic>FALSE</anamorphic>
						<file id="file-858">
							<name>TKO_015_CRA_Sh09000.mov</name>
							<pathurl>file://tri-stor01/Projects/TKO/SHOTS/_Refs_Movs_Burnin_FrameCounter/TKO_015_CRA_Sh09000.mov</pathurl>
							<rate>
								<timebase>24</timebase>
								<ntsc>TRUE</ntsc>
							</rate>
							<duration>43</duration>
							<timecode>
								<rate>
									<timebase>24</timebase>
									<ntsc>TRUE</ntsc>
								</rate>
								<string>07:16:50:22</string>
								<frame>629062</frame>
								<displayformat>NDF</displayformat>
								<reel>
									<name>C0180002</name>
								</reel>
							</timecode>
							<media>
								<video>
									<samplecharacteristics>
										<rate>
											<timebase>24</timebase>
											<ntsc>TRUE</ntsc>
										</rate>
										<width>3840</width>
										<height>2160</height>
										<anamorphic>FALSE</anamorphic>
										<pixelaspectratio>square</pixelaspectratio>
										<fielddominance>none</fielddominance>
									</samplecharacteristics>
								</video>
							</media>
						</file>
						<logginginfo>
							<description></description>
							<scene></scene>
							<shottake></shottake>
							<lognote></lognote>
							<good></good>
							<originalvideofilename></originalvideofilename>
							<originalaudiofilename></originalaudiofilename>
						</logginginfo>
						<colorinfo>
							<lut></lut>
							<lut1></lut1>
							<asc_sop></asc_sop>
							<asc_sat></asc_sat>
							<lut2></lut2>
						</colorinfo>
						<labels>
							<label2>Violet</label2>
						</labels>
					</clipitem>
					<clipitem id="clipitem-862">
						<masterclipid>masterclip-859</masterclipid>
						<name>TKO_015_CRA_Sh09010.mov</name>
						<enabled>TRUE</enabled>
						<duration>55</duration>
						<rate>
							<timebase>24</timebase>
							<ntsc>TRUE</ntsc>
						</rate>
						<start>68692</start>
						<end>68739</end>
						<in>4</in>
						<out>51</out>
						<pproTicksIn>42378336000</pproTicksIn>
						<pproTicksOut>540323784000</pproTicksOut>
						<alphatype>none</alphatype>
						<pixelaspectratio>square</pixelaspectratio>
						<anamorphic>FALSE</anamorphic>
						<file id="file-859">
							<name>TKO_015_CRA_Sh09010.mov</name>
							<pathurl>file://tri-stor01/Projects/TKO/SHOTS/_Refs_Movs_Burnin_FrameCounter/TKO_015_CRA_Sh09010.mov</pathurl>
							<rate>
								<timebase>24</timebase>
								<ntsc>TRUE</ntsc>
							</rate>
							<duration>55</duration>
							<timecode>
								<rate>
									<timebase>24</timebase>
									<ntsc>TRUE</ntsc>
								</rate>
								<string>00:38:36:23</string>
								<frame>55607</frame>
								<displayformat>NDF</displayformat>
							</timecode>
							<media>
								<video>
									<samplecharacteristics>
										<rate>
											<timebase>24</timebase>
											<ntsc>TRUE</ntsc>
										</rate>
										<width>1280</width>
										<height>720</height>
										<anamorphic>FALSE</anamorphic>
										<pixelaspectratio>square</pixelaspectratio>
										<fielddominance>none</fielddominance>
									</samplecharacteristics>
								</video>
							</media>
						</file>
						<logginginfo>
							<description></description>
							<scene></scene>
							<shottake></shottake>
							<lognote></lognote>
							<good></good>
							<originalvideofilename></originalvideofilename>
							<originalaudiofilename></originalaudiofilename>
						</logginginfo>
						<colorinfo>
							<lut></lut>
							<lut1></lut1>
							<asc_sop></asc_sop>
							<asc_sat></asc_sat>
							<lut2></lut2>
						</colorinfo>
						<labels>
							<label2>Violet</label2>
						</labels>
					</clipitem>
					<clipitem id="clipitem-863">
						<masterclipid>masterclip-860</masterclipid>
						<name>TKO_015_CRA_Sh09020.mov</name>
						<enabled>TRUE</enabled>
						<duration>58</duration>
						<rate>
							<timebase>24</timebase>
							<ntsc>TRUE</ntsc>
						</rate>
						<start>68739</start>
						<end>68789</end>
						<in>4</in>
						<out>54</out>
						<pproTicksIn>42378336000</pproTicksIn>
						<pproTicksOut>572107536000</pproTicksOut>
						<alphatype>none</alphatype>
						<pixelaspectratio>square</pixelaspectratio>
						<anamorphic>FALSE</anamorphic>
						<file id="file-860">
							<name>TKO_015_CRA_Sh09020.mov</name>
							<pathurl>file://tri-stor01/Projects/TKO/SHOTS/_Refs_Movs_Burnin_FrameCounter/TKO_015_CRA_Sh09020.mov</pathurl>
							<rate>
								<timebase>24</timebase>
								<ntsc>TRUE</ntsc>
							</rate>
							<duration>58</duration>
							<timecode>
								<rate>
									<timebase>24</timebase>
									<ntsc>TRUE</ntsc>
								</rate>
								<string>00:38:38:22</string>
								<frame>55654</frame>
								<displayformat>NDF</displayformat>
							</timecode>
							<media>
								<video>
									<samplecharacteristics>
										<rate>
											<timebase>24</timebase>
											<ntsc>TRUE</ntsc>
										</rate>
										<width>1280</width>
										<height>720</height>
										<anamorphic>FALSE</anamorphic>
										<pixelaspectratio>square</pixelaspectratio>
										<fielddominance>none</fielddominance>
									</samplecharacteristics>
								</video>
							</media>
						</file>
						<logginginfo>
							<description></description>
							<scene></scene>
							<shottake></shottake>
							<lognote></lognote>
							<good></good>
							<originalvideofilename></originalvideofilename>
							<originalaudiofilename></originalaudiofilename>
						</logginginfo>
						<colorinfo>
							<lut></lut>
							<lut1></lut1>
							<asc_sop></asc_sop>
							<asc_sat></asc_sat>
							<lut2></lut2>
						</colorinfo>
						<labels>
							<label2>Violet</label2>
						</labels>
					</clipitem>
					<clipitem id="clipitem-864">
						<masterclipid>masterclip-861</masterclipid>
						<name>TKO_015_CRA_Sh09030.mov</name>
						<enabled>TRUE</enabled>
						<duration>29</duration>
						<rate>
							<timebase>24</timebase>
							<ntsc>TRUE</ntsc>
						</rate>
						<start>68789</start>
						<end>68812</end>
						<in>6</in>
						<out>25</out>
						<pproTicksIn>84756672000</pproTicksIn>
						<pproTicksOut>381405024000</pproTicksOut>
						<alphatype>none</alphatype>
						<pixelaspectratio>square</pixelaspectratio>
						<anamorphic>FALSE</anamorphic>
						<file id="file-861">
							<name>TKO_015_CRA_Sh09030.mov</name>
							<pathurl>file://tri-stor01/Projects/TKO/SHOTS/_Refs_Movs_Burnin_FrameCounter/TKO_015_CRA_Sh09030.mov</pathurl>
							<rate>
								<timebase>24</timebase>
								<ntsc>TRUE</ntsc>
							</rate>
							<duration>42</duration>
							<timecode>
								<rate>
									<timebase>24</timebase>
									<ntsc>TRUE</ntsc>
								</rate>
								<string>17:46:19:07</string>
								<frame>1535503</frame>
								<displayformat>NDF</displayformat>
								<reel>
									<name>B0220007</name>
								</reel>
							</timecode>
							<media>
								<video>
									<samplecharacteristics>
										<rate>
											<timebase>24</timebase>
											<ntsc>TRUE</ntsc>
										</rate>
										<width>4096</width>
										<height>2160</height>
										<anamorphic>FALSE</anamorphic>
										<pixelaspectratio>square</pixelaspectratio>
										<fielddominance>none</fielddominance>
									</samplecharacteristics>
								</video>
							</media>
						</file>
						<filter>
							<effect>
								<name>Time Remap</name>
								<effectid>timeremap</effectid>
								<effectcategory>motion</effectcategory>
								<effecttype>motion</effecttype>
								<mediatype>video</mediatype>
								<parameter authoringApp="PremierePro">
									<parameterid>variablespeed</parameterid>
									<name>variablespeed</name>
									<valuemin>0</valuemin>
									<valuemax>1</valuemax>
									<value>0</value>
								</parameter>
								<parameter authoringApp="PremierePro">
									<parameterid>speed</parameterid>
									<name>speed</name>
									<valuemin>-100000</valuemin>
									<valuemax>100000</valuemax>
									<value>144</value>
								</parameter>
								<parameter authoringApp="PremierePro">
									<parameterid>reverse</parameterid>
									<name>reverse</name>
									<value>FALSE</value>
								</parameter>
								<parameter authoringApp="PremierePro">
									<parameterid>frameblending</parameterid>
									<name>frameblending</name>
									<value>FALSE</value>
								</parameter>
								<parameter authoringApp="PremierePro">
									<parameterid>graphdict</parameterid>
									<name>graphdict</name>
									<valuemin>0</valuemin>
									<valuemax>41</valuemax>
									<value>0</value>
									<keyframe>
										<when>0</when>
										<value>0</value>
										<speedvirtualkf>TRUE</speedvirtualkf>
										<speedkfstart>TRUE</speedkfstart>
									</keyframe>
									<keyframe>
										<when>6</when>
										<value>8</value>
										<speedvirtualkf>TRUE</speedvirtualkf>
										<speedkfin>TRUE</speedkfin>
									</keyframe>
									<keyframe>
										<when>25</when>
										<value>36</value>
										<speedvirtualkf>TRUE</speedvirtualkf>
										<speedkfout>TRUE</speedkfout>
									</keyframe>
									<keyframe>
										<when>29</when>
										<value>41</value>
										<speedvirtualkf>TRUE</speedvirtualkf>
										<speedkfend>TRUE</speedkfend>
									</keyframe>
									<interpolation>
										<name>FCPCurve</name>
									</interpolation>
								</parameter>
							</effect>
						</filter>
						<logginginfo>
							<description></description>
							<scene></scene>
							<shottake></shottake>
							<lognote></lognote>
							<good></good>
							<originalvideofilename></originalvideofilename>
							<originalaudiofilename></originalaudiofilename>
						</logginginfo>
						<colorinfo>
							<lut></lut>
							<lut1></lut1>
							<asc_sop></asc_sop>
							<asc_sat></asc_sat>
							<lut2></lut2>
						</colorinfo>
						<labels>
							<label2>Violet</label2>
						</labels>
					</clipitem>
					<clipitem id="clipitem-865">
						<masterclipid>masterclip-862</masterclipid>
						<name>TKO_015_CRA_Sh09040.mov</name>
						<enabled>TRUE</enabled>
						<duration>37</duration>
						<rate>
							<timebase>24</timebase>
							<ntsc>TRUE</ntsc>
						</rate>
						<start>68812</start>
						<end>68841</end>
						<in>4</in>
						<out>33</out>
						<pproTicksIn>42378336000</pproTicksIn>
						<pproTicksOut>349621272000</pproTicksOut>
						<alphatype>none</alphatype>
						<pixelaspectratio>square</pixelaspectratio>
						<anamorphic>FALSE</anamorphic>
						<file id="file-862">
							<name>TKO_015_CRA_Sh09040.mov</name>
							<pathurl>file://tri-stor01/Projects/TKO/SHOTS/_Refs_Movs_Burnin_FrameCounter/TKO_015_CRA_Sh09040.mov</pathurl>
							<rate>
								<timebase>24</timebase>
								<ntsc>TRUE</ntsc>
							</rate>
							<duration>37</duration>
							<timecode>
								<rate>
									<timebase>24</timebase>
									<ntsc>TRUE</ntsc>
								</rate>
								<string>00:38:41:23</string>
								<frame>55727</frame>
								<displayformat>NDF</displayformat>
							</timecode>
							<media>
								<video>
									<samplecharacteristics>
										<rate>
											<timebase>24</timebase>
											<ntsc>TRUE</ntsc>
										</rate>
										<width>1280</width>
										<height>720</height>
										<anamorphic>FALSE</anamorphic>
										<pixelaspectratio>square</pixelaspectratio>
										<fielddominance>none</fielddominance>
									</samplecharacteristics>
								</video>
							</media>
						</file>
						<logginginfo>
							<description></description>
							<scene></scene>
							<shottake></shottake>
							<lognote></lognote>
							<good></good>
							<originalvideofilename></originalvideofilename>
							<originalaudiofilename></originalaudiofilename>
						</logginginfo>
						<colorinfo>
							<lut></lut>
							<lut1></lut1>
							<asc_sop></asc_sop>
							<asc_sat></asc_sat>
							<lut2></lut2>
						</colorinfo>
						<labels>
							<label2>Violet</label2>
						</labels>
					</clipitem>
					<clipitem id="clipitem-866">
						<masterclipid>masterclip-863</masterclipid>
						<name>TKO_015_CRA_Sh09050.mov</name>
						<enabled>TRUE</enabled>
						<duration>71</duration>
						<rate>
							<timebase>24</timebase>
							<ntsc>TRUE</ntsc>
						</rate>
						<start>68841</start>
						<end>68904</end>
						<in>4</in>
						<out>67</out>
						<pproTicksIn>42378336000</pproTicksIn>
						<pproTicksOut>709837128000</pproTicksOut>
						<alphatype>none</alphatype>
						<pixelaspectratio>square</pixelaspectratio>
						<anamorphic>FALSE</anamorphic>
						<file id="file-863">
							<name>TKO_015_CRA_Sh09050.mov</name>
							<pathurl>file://tri-stor01/Projects/TKO/SHOTS/_Refs_Movs_Burnin_FrameCounter/TKO_015_CRA_Sh09050.mov</pathurl>
							<rate>
								<timebase>24</timebase>
								<ntsc>TRUE</ntsc>
							</rate>
							<duration>71</duration>
							<timecode>
								<rate>
									<timebase>24</timebase>
									<ntsc>TRUE</ntsc>
								</rate>
								<string>19:05:12:14</string>
								<frame>1649102</frame>
								<displayformat>NDF</displayformat>
								<reel>
									<name>B0160006</name>
								</reel>
							</timecode>
							<media>
								<video>
									<samplecharacteristics>
										<rate>
											<timebase>24</timebase>
											<ntsc>TRUE</ntsc>
										</rate>
										<width>4096</width>
										<height>2160</height>
										<anamorphic>FALSE</anamorphic>
										<pixelaspectratio>square</pixelaspectratio>
										<fielddominance>none</fielddominance>
									</samplecharacteristics>
								</video>
							</media>
						</file>
						<logginginfo>
							<description></description>
							<scene></scene>
							<shottake></shottake>
							<lognote></lognote>
							<good></good>
							<originalvideofilename></originalvideofilename>
							<originalaudiofilename></originalaudiofilename>
						</logginginfo>
						<colorinfo>
							<lut></lut>
							<lut1></lut1>
							<asc_sop></asc_sop>
							<asc_sat></asc_sat>
							<lut2></lut2>
						</colorinfo>
						<labels>
							<label2>Violet</label2>
						</labels>
					</clipitem>
					<clipitem id="clipitem-867">
						<masterclipid>masterclip-864</masterclipid>
						<name>TKO_015_CRA_Sh09060.mov</name>
						<enabled>TRUE</enabled>
						<duration>54</duration>
						<rate>
							<timebase>24</timebase>
							<ntsc>TRUE</ntsc>
						</rate>
						<start>68904</start>
						<end>68950</end>
						<in>4</in>
						<out>50</out>
						<pproTicksIn>42378336000</pproTicksIn>
						<pproTicksOut>529729200000</pproTicksOut>
						<alphatype>none</alphatype>
						<pixelaspectratio>square</pixelaspectratio>
						<anamorphic>FALSE</anamorphic>
						<file id="file-864">
							<name>TKO_015_CRA_Sh09060.mov</name>
							<pathurl>file://tri-stor01/Projects/TKO/SHOTS/_Refs_Movs_Burnin_FrameCounter/TKO_015_CRA_Sh09060.mov</pathurl>
							<rate>
								<timebase>24</timebase>
								<ntsc>TRUE</ntsc>
							</rate>
							<duration>54</duration>
							<timecode>
								<rate>
									<timebase>24</timebase>
									<ntsc>TRUE</ntsc>
								</rate>
								<string>00:00:00:00</string>
								<frame>0</frame>
								<displayformat>NDF</displayformat>
							</timecode>
							<media>
								<video>
									<samplecharacteristics>
										<rate>
											<timebase>24</timebase>
											<ntsc>TRUE</ntsc>
										</rate>
										<width>4096</width>
										<height>2160</height>
										<anamorphic>FALSE</anamorphic>
										<pixelaspectratio>square</pixelaspectratio>
										<fielddominance>none</fielddominance>
									</samplecharacteristics>
								</video>
							</media>
						</file>
						<logginginfo>
							<description></description>
							<scene></scene>
							<shottake></shottake>
							<lognote></lognote>
							<good></good>
							<originalvideofilename></originalvideofilename>
							<originalaudiofilename></originalaudiofilename>
						</logginginfo>
						<colorinfo>
							<lut></lut>
							<lut1></lut1>
							<asc_sop></asc_sop>
							<asc_sat></asc_sat>
							<lut2></lut2>
						</colorinfo>
						<labels>
							<label2>Violet</label2>
						</labels>
					</clipitem>
					<clipitem id="clipitem-868">
						<masterclipid>masterclip-865</masterclipid>
						<name>TKO_015_CRA_Sh09070.mov</name>
						<enabled>TRUE</enabled>
						<duration>108</duration>
						<rate>
							<timebase>24</timebase>
							<ntsc>TRUE</ntsc>
						</rate>
						<start>68950</start>
						<end>69050</end>
						<in>4</in>
						<out>104</out>
						<pproTicksIn>42378336000</pproTicksIn>
						<pproTicksOut>1101836736000</pproTicksOut>
						<alphatype>none</alphatype>
						<pixelaspectratio>square</pixelaspectratio>
						<anamorphic>FALSE</anamorphic>
						<file id="file-865">
							<name>TKO_015_CRA_Sh09070.mov</name>
							<pathurl>file://tri-stor01/Projects/TKO/SHOTS/_Refs_Movs_Burnin_FrameCounter/TKO_015_CRA_Sh09070.mov</pathurl>
							<rate>
								<timebase>24</timebase>
								<ntsc>TRUE</ntsc>
							</rate>
							<duration>108</duration>
							<timecode>
								<rate>
									<timebase>24</timebase>
									<ntsc>TRUE</ntsc>
								</rate>
								<string>00:00:00:00</string>
								<frame>0</frame>
								<displayformat>NDF</displayformat>
							</timecode>
							<media>
								<video>
									<samplecharacteristics>
										<rate>
											<timebase>24</timebase>
											<ntsc>TRUE</ntsc>
										</rate>
										<width>4096</width>
										<height>2160</height>
										<anamorphic>FALSE</anamorphic>
										<pixelaspectratio>square</pixelaspectratio>
										<fielddominance>none</fielddominance>
									</samplecharacteristics>
								</video>
							</media>
						</file>
						<logginginfo>
							<description></description>
							<scene></scene>
							<shottake></shottake>
							<lognote></lognote>
							<good></good>
							<originalvideofilename></originalvideofilename>
							<originalaudiofilename></originalaudiofilename>
						</logginginfo>
						<colorinfo>
							<lut></lut>
							<lut1></lut1>
							<asc_sop></asc_sop>
							<asc_sat></asc_sat>
							<lut2></lut2>
						</colorinfo>
						<labels>
							<label2>Violet</label2>
						</labels>
					</clipitem>
					<clipitem id="clipitem-869">
						<masterclipid>masterclip-866</masterclipid>
						<name>TKO_015_CRA_Sh09080.mov</name>
						<enabled>TRUE</enabled>
						<duration>100</duration>
						<rate>
							<timebase>24</timebase>
							<ntsc>TRUE</ntsc>
						</rate>
						<start>69050</start>
						<end>69142</end>
						<in>4</in>
						<out>96</out>
						<pproTicksIn>42378336000</pproTicksIn>
						<pproTicksOut>1017080064000</pproTicksOut>
						<alphatype>none</alphatype>
						<pixelaspectratio>square</pixelaspectratio>
						<anamorphic>FALSE</anamorphic>
						<file id="file-866">
							<name>TKO_015_CRA_Sh09080.mov</name>
							<pathurl>file://tri-stor01/Projects/TKO/SHOTS/_Refs_Movs_Burnin_FrameCounter/TKO_015_CRA_Sh09080.mov</pathurl>
							<rate>
								<timebase>24</timebase>
								<ntsc>TRUE</ntsc>
							</rate>
							<duration>100</duration>
							<timecode>
								<rate>
									<timebase>24</timebase>
									<ntsc>TRUE</ntsc>
								</rate>
								<string>03:57:22:23</string>
								<frame>341831</frame>
								<displayformat>NDF</displayformat>
								<reel>
									<name>C0070012</name>
								</reel>
							</timecode>
							<media>
								<video>
									<samplecharacteristics>
										<rate>
											<timebase>24</timebase>
											<ntsc>TRUE</ntsc>
										</rate>
										<width>3840</width>
										<height>2160</height>
										<anamorphic>FALSE</anamorphic>
										<pixelaspectratio>square</pixelaspectratio>
										<fielddominance>none</fielddominance>
									</samplecharacteristics>
								</video>
							</media>
						</file>
						<logginginfo>
							<description></description>
							<scene></scene>
							<shottake></shottake>
							<lognote></lognote>
							<good></good>
							<originalvideofilename></originalvideofilename>
							<originalaudiofilename></originalaudiofilename>
						</logginginfo>
						<colorinfo>
							<lut></lut>
							<lut1></lut1>
							<asc_sop></asc_sop>
							<asc_sat></asc_sat>
							<lut2></lut2>
						</colorinfo>
						<labels>
							<label2>Violet</label2>
						</labels>
					</clipitem>
					<clipitem id="clipitem-870">
						<masterclipid>masterclip-867</masterclipid>
						<name>TKO_015_CRA_Sh09090.mov</name>
						<enabled>TRUE</enabled>
						<duration>75</duration>
						<rate>
							<timebase>24</timebase>
							<ntsc>TRUE</ntsc>
						</rate>
						<start>69142</start>
						<end>69209</end>
						<in>4</in>
						<out>71</out>
						<pproTicksIn>42378336000</pproTicksIn>
						<pproTicksOut>752215464000</pproTicksOut>
						<alphatype>none</alphatype>
						<pixelaspectratio>square</pixelaspectratio>
						<anamorphic>FALSE</anamorphic>
						<file id="file-867">
							<name>TKO_015_CRA_Sh09090.mov</name>
							<pathurl>file://tri-stor01/Projects/TKO/SHOTS/_Refs_Movs_Burnin_FrameCounter/TKO_015_CRA_Sh09090.mov</pathurl>
							<rate>
								<timebase>24</timebase>
								<ntsc>TRUE</ntsc>
							</rate>
							<duration>75</duration>
							<timecode>
								<rate>
									<timebase>24</timebase>
									<ntsc>TRUE</ntsc>
								</rate>
								<string>15:43:39:20</string>
								<frame>1358876</frame>
								<displayformat>NDF</displayformat>
								<reel>
									<name>A0140015</name>
								</reel>
							</timecode>
							<media>
								<video>
									<samplecharacteristics>
										<rate>
											<timebase>24</timebase>
											<ntsc>TRUE</ntsc>
										</rate>
										<width>4096</width>
										<height>2160</height>
										<anamorphic>FALSE</anamorphic>
										<pixelaspectratio>square</pixelaspectratio>
										<fielddominance>none</fielddominance>
									</samplecharacteristics>
								</video>
							</media>
						</file>
						<logginginfo>
							<description></description>
							<scene></scene>
							<shottake></shottake>
							<lognote></lognote>
							<good></good>
							<originalvideofilename></originalvideofilename>
							<originalaudiofilename></originalaudiofilename>
						</logginginfo>
						<colorinfo>
							<lut></lut>
							<lut1></lut1>
							<asc_sop></asc_sop>
							<asc_sat></asc_sat>
							<lut2></lut2>
						</colorinfo>
						<labels>
							<label2>Violet</label2>
						</labels>
					</clipitem>
					<clipitem id="clipitem-871">
						<masterclipid>masterclip-868</masterclipid>
						<name>TKO_015_CRA_Sh09100.mov</name>
						<enabled>TRUE</enabled>
						<duration>46</duration>
						<rate>
							<timebase>24</timebase>
							<ntsc>TRUE</ntsc>
						</rate>
						<start>69209</start>
						<end>69247</end>
						<in>4</in>
						<out>42</out>
						<pproTicksIn>42378336000</pproTicksIn>
						<pproTicksOut>444972528000</pproTicksOut>
						<alphatype>none</alphatype>
						<pixelaspectratio>square</pixelaspectratio>
						<anamorphic>FALSE</anamorphic>
						<file id="file-868">
							<name>TKO_015_CRA_Sh09100.mov</name>
							<pathurl>file://tri-stor01/Projects/TKO/SHOTS/_Refs_Movs_Burnin_FrameCounter/TKO_015_CRA_Sh09100.mov</pathurl>
							<rate>
								<timebase>24</timebase>
								<ntsc>TRUE</ntsc>
							</rate>
							<duration>46</duration>
							<timecode>
								<rate>
									<timebase>24</timebase>
									<ntsc>TRUE</ntsc>
								</rate>
								<string>20:19:11:12</string>
								<frame>1755636</frame>
								<displayformat>NDF</displayformat>
								<reel>
									<name>B0070001</name>
								</reel>
							</timecode>
							<media>
								<video>
									<samplecharacteristics>
										<rate>
											<timebase>24</timebase>
											<ntsc>TRUE</ntsc>
										</rate>
										<width>4096</width>
										<height>2160</height>
										<anamorphic>FALSE</anamorphic>
										<pixelaspectratio>square</pixelaspectratio>
										<fielddominance>none</fielddominance>
									</samplecharacteristics>
								</video>
							</media>
						</file>
						<logginginfo>
							<description></description>
							<scene></scene>
							<shottake></shottake>
							<lognote></lognote>
							<good></good>
							<originalvideofilename></originalvideofilename>
							<originalaudiofilename></originalaudiofilename>
						</logginginfo>
						<colorinfo>
							<lut></lut>
							<lut1></lut1>
							<asc_sop></asc_sop>
							<asc_sat></asc_sat>
							<lut2></lut2>
						</colorinfo>
						<labels>
							<label2>Violet</label2>
						</labels>
					</clipitem>
					<clipitem id="clipitem-872">
						<masterclipid>masterclip-869</masterclipid>
						<name>TKO_015_CRA_Sh09110.mov</name>
						<enabled>TRUE</enabled>
						<duration>27</duration>
						<rate>
							<timebase>24</timebase>
							<ntsc>TRUE</ntsc>
						</rate>
						<start>69247</start>
						<end>69266</end>
						<in>4</in>
						<out>23</out>
						<pproTicksIn>42378336000</pproTicksIn>
						<pproTicksOut>243675432000</pproTicksOut>
						<alphatype>none</alphatype>
						<pixelaspectratio>square</pixelaspectratio>
						<anamorphic>FALSE</anamorphic>
						<file id="file-869">
							<name>TKO_015_CRA_Sh09110.mov</name>
							<pathurl>file://tri-stor01/Projects/TKO/SHOTS/_Refs_Movs_Burnin_FrameCounter/TKO_015_CRA_Sh09110.mov</pathurl>
							<rate>
								<timebase>24</timebase>
								<ntsc>TRUE</ntsc>
							</rate>
							<duration>27</duration>
							<timecode>
								<rate>
									<timebase>24</timebase>
									<ntsc>TRUE</ntsc>
								</rate>
								<string>15:43:42:15</string>
								<frame>1358943</frame>
								<displayformat>NDF</displayformat>
								<reel>
									<name>B0110010</name>
								</reel>
							</timecode>
							<media>
								<video>
									<samplecharacteristics>
										<rate>
											<timebase>24</timebase>
											<ntsc>TRUE</ntsc>
										</rate>
										<width>4096</width>
										<height>2160</height>
										<anamorphic>FALSE</anamorphic>
										<pixelaspectratio>square</pixelaspectratio>
										<fielddominance>none</fielddominance>
									</samplecharacteristics>
								</video>
							</media>
						</file>
						<logginginfo>
							<description></description>
							<scene></scene>
							<shottake></shottake>
							<lognote></lognote>
							<good></good>
							<originalvideofilename></originalvideofilename>
							<originalaudiofilename></originalaudiofilename>
						</logginginfo>
						<colorinfo>
							<lut></lut>
							<lut1></lut1>
							<asc_sop></asc_sop>
							<asc_sat></asc_sat>
							<lut2></lut2>
						</colorinfo>
						<labels>
							<label2>Violet</label2>
						</labels>
					</clipitem>
					<clipitem id="clipitem-873">
						<masterclipid>masterclip-870</masterclipid>
						<name>TKO_015_CRA_Sh09120.mov</name>
						<enabled>TRUE</enabled>
						<duration>49</duration>
						<rate>
							<timebase>24</timebase>
							<ntsc>TRUE</ntsc>
						</rate>
						<start>69266</start>
						<end>69307</end>
						<in>4</in>
						<out>45</out>
						<pproTicksIn>42378336000</pproTicksIn>
						<pproTicksOut>476756280000</pproTicksOut>
						<alphatype>none</alphatype>
						<pixelaspectratio>square</pixelaspectratio>
						<anamorphic>FALSE</anamorphic>
						<file id="file-870">
							<name>TKO_015_CRA_Sh09120.mov</name>
							<pathurl>file://tri-stor01/Projects/TKO/SHOTS/_Refs_Movs_Burnin_FrameCounter/TKO_015_CRA_Sh09120.mov</pathurl>
							<rate>
								<timebase>24</timebase>
								<ntsc>TRUE</ntsc>
							</rate>
							<duration>49</duration>
							<timecode>
								<rate>
									<timebase>24</timebase>
									<ntsc>TRUE</ntsc>
								</rate>
								<string>15:52:31:08</string>
								<frame>1371632</frame>
								<displayformat>NDF</displayformat>
								<reel>
									<name>A0140016</name>
								</reel>
							</timecode>
							<media>
								<video>
									<samplecharacteristics>
										<rate>
											<timebase>24</timebase>
											<ntsc>TRUE</ntsc>
										</rate>
										<width>4096</width>
										<height>2160</height>
										<anamorphic>FALSE</anamorphic>
										<pixelaspectratio>square</pixelaspectratio>
										<fielddominance>none</fielddominance>
									</samplecharacteristics>
								</video>
							</media>
						</file>
						<logginginfo>
							<description></description>
							<scene></scene>
							<shottake></shottake>
							<lognote></lognote>
							<good></good>
							<originalvideofilename></originalvideofilename>
							<originalaudiofilename></originalaudiofilename>
						</logginginfo>
						<colorinfo>
							<lut></lut>
							<lut1></lut1>
							<asc_sop></asc_sop>
							<asc_sat></asc_sat>
							<lut2></lut2>
						</colorinfo>
						<labels>
							<label2>Violet</label2>
						</labels>
					</clipitem>
					<clipitem id="clipitem-874">
						<masterclipid>masterclip-871</masterclipid>
						<name>TKO_015_CRA_Sh09130.mov</name>
						<enabled>TRUE</enabled>
						<duration>138</duration>
						<rate>
							<timebase>24</timebase>
							<ntsc>TRUE</ntsc>
						</rate>
						<start>69307</start>
						<end>69437</end>
						<in>4</in>
						<out>134</out>
						<pproTicksIn>42378336000</pproTicksIn>
						<pproTicksOut>1419674256000</pproTicksOut>
						<alphatype>none</alphatype>
						<pixelaspectratio>square</pixelaspectratio>
						<anamorphic>FALSE</anamorphic>
						<file id="file-871">
							<name>TKO_015_CRA_Sh09130.mov</name>
							<pathurl>file://tri-stor01/Projects/TKO/SHOTS/_Refs_Movs_Burnin_FrameCounter/TKO_015_CRA_Sh09130.mov</pathurl>
							<rate>
								<timebase>24</timebase>
								<ntsc>TRUE</ntsc>
							</rate>
							<duration>138</duration>
							<timecode>
								<rate>
									<timebase>24</timebase>
									<ntsc>TRUE</ntsc>
								</rate>
								<string>15:43:45:03</string>
								<frame>1359003</frame>
								<displayformat>NDF</displayformat>
								<reel>
									<name>B0110010</name>
								</reel>
							</timecode>
							<media>
								<video>
									<samplecharacteristics>
										<rate>
											<timebase>24</timebase>
											<ntsc>TRUE</ntsc>
										</rate>
										<width>4096</width>
										<height>2160</height>
										<anamorphic>FALSE</anamorphic>
										<pixelaspectratio>square</pixelaspectratio>
										<fielddominance>none</fielddominance>
									</samplecharacteristics>
								</video>
							</media>
						</file>
						<logginginfo>
							<description></description>
							<scene></scene>
							<shottake></shottake>
							<lognote></lognote>
							<good></good>
							<originalvideofilename></originalvideofilename>
							<originalaudiofilename></originalaudiofilename>
						</logginginfo>
						<colorinfo>
							<lut></lut>
							<lut1></lut1>
							<asc_sop></asc_sop>
							<asc_sat></asc_sat>
							<lut2></lut2>
						</colorinfo>
						<labels>
							<label2>Violet</label2>
						</labels>
					</clipitem>
					<clipitem id="clipitem-875">
						<masterclipid>masterclip-872</masterclipid>
						<name>TKO_015_CRA_Sh09140.mov</name>
						<enabled>TRUE</enabled>
						<duration>152</duration>
						<rate>
							<timebase>24</timebase>
							<ntsc>TRUE</ntsc>
						</rate>
						<start>69437</start>
						<end>69581</end>
						<in>4</in>
						<out>148</out>
						<pproTicksIn>42378336000</pproTicksIn>
						<pproTicksOut>1567998432000</pproTicksOut>
						<alphatype>none</alphatype>
						<pixelaspectratio>square</pixelaspectratio>
						<anamorphic>FALSE</anamorphic>
						<file id="file-872">
							<name>TKO_015_CRA_Sh09140.mov</name>
							<pathurl>file://tri-stor01/Projects/TKO/SHOTS/_Refs_Movs_Burnin_FrameCounter/TKO_015_CRA_Sh09140.mov</pathurl>
							<rate>
								<timebase>24</timebase>
								<ntsc>TRUE</ntsc>
							</rate>
							<duration>152</duration>
							<timecode>
								<rate>
									<timebase>24</timebase>
									<ntsc>TRUE</ntsc>
								</rate>
								<string>15:52:35:12</string>
								<frame>1371732</frame>
								<displayformat>NDF</displayformat>
								<reel>
									<name>A0140016</name>
								</reel>
							</timecode>
							<media>
								<video>
									<samplecharacteristics>
										<rate>
											<timebase>24</timebase>
											<ntsc>TRUE</ntsc>
										</rate>
										<width>4096</width>
										<height>2160</height>
										<anamorphic>FALSE</anamorphic>
										<pixelaspectratio>square</pixelaspectratio>
										<fielddominance>none</fielddominance>
									</samplecharacteristics>
								</video>
							</media>
						</file>
						<logginginfo>
							<description></description>
							<scene></scene>
							<shottake></shottake>
							<lognote></lognote>
							<good></good>
							<originalvideofilename></originalvideofilename>
							<originalaudiofilename></originalaudiofilename>
						</logginginfo>
						<colorinfo>
							<lut></lut>
							<lut1></lut1>
							<asc_sop></asc_sop>
							<asc_sat></asc_sat>
							<lut2></lut2>
						</colorinfo>
						<labels>
							<label2>Violet</label2>
						</labels>
					</clipitem>
					<clipitem id="clipitem-876">
						<masterclipid>masterclip-873</masterclipid>
						<name>TKO_015_CRA_Sh09150.mov</name>
						<enabled>TRUE</enabled>
						<duration>65</duration>
						<rate>
							<timebase>24</timebase>
							<ntsc>TRUE</ntsc>
						</rate>
						<start>69581</start>
						<end>69638</end>
						<in>4</in>
						<out>61</out>
						<pproTicksIn>42378336000</pproTicksIn>
						<pproTicksOut>646269624000</pproTicksOut>
						<alphatype>none</alphatype>
						<pixelaspectratio>square</pixelaspectratio>
						<anamorphic>FALSE</anamorphic>
						<file id="file-873">
							<name>TKO_015_CRA_Sh09150.mov</name>
							<pathurl>file://tri-stor01/Projects/TKO/SHOTS/_Refs_Movs_Burnin_FrameCounter/TKO_015_CRA_Sh09150.mov</pathurl>
							<rate>
								<timebase>24</timebase>
								<ntsc>TRUE</ntsc>
							</rate>
							<duration>65</duration>
							<timecode>
								<rate>
									<timebase>24</timebase>
									<ntsc>TRUE</ntsc>
								</rate>
								<string>00:00:00:00</string>
								<frame>0</frame>
								<displayformat>NDF</displayformat>
							</timecode>
							<media>
								<video>
									<samplecharacteristics>
										<rate>
											<timebase>24</timebase>
											<ntsc>TRUE</ntsc>
										</rate>
										<width>4096</width>
										<height>2160</height>
										<anamorphic>FALSE</anamorphic>
										<pixelaspectratio>square</pixelaspectratio>
										<fielddominance>none</fielddominance>
									</samplecharacteristics>
								</video>
							</media>
						</file>
						<logginginfo>
							<description></description>
							<scene></scene>
							<shottake></shottake>
							<lognote></lognote>
							<good></good>
							<originalvideofilename></originalvideofilename>
							<originalaudiofilename></originalaudiofilename>
						</logginginfo>
						<colorinfo>
							<lut></lut>
							<lut1></lut1>
							<asc_sop></asc_sop>
							<asc_sat></asc_sat>
							<lut2></lut2>
						</colorinfo>
						<labels>
							<label2>Violet</label2>
						</labels>
					</clipitem>
					<clipitem id="clipitem-877">
						<masterclipid>masterclip-874</masterclipid>
						<name>TKO_015_CRA_Sh09160.mov</name>
						<enabled>TRUE</enabled>
						<duration>72</duration>
						<rate>
							<timebase>24</timebase>
							<ntsc>TRUE</ntsc>
						</rate>
						<start>69638</start>
						<end>69702</end>
						<in>4</in>
						<out>68</out>
						<pproTicksIn>42378336000</pproTicksIn>
						<pproTicksOut>720431712000</pproTicksOut>
						<alphatype>none</alphatype>
						<pixelaspectratio>square</pixelaspectratio>
						<anamorphic>FALSE</anamorphic>
						<file id="file-874">
							<name>TKO_015_CRA_Sh09160.mov</name>
							<pathurl>file://tri-stor01/Projects/TKO/SHOTS/_Refs_Movs_Burnin_FrameCounter/TKO_015_CRA_Sh09160.mov</pathurl>
							<rate>
								<timebase>24</timebase>
								<ntsc>TRUE</ntsc>
							</rate>
							<duration>72</duration>
							<timecode>
								<rate>
									<timebase>24</timebase>
									<ntsc>TRUE</ntsc>
								</rate>
								<string>07:26:52:21</string>
								<frame>643509</frame>
								<displayformat>NDF</displayformat>
								<reel>
									<name>C0180006</name>
								</reel>
							</timecode>
							<media>
								<video>
									<samplecharacteristics>
										<rate>
											<timebase>24</timebase>
											<ntsc>TRUE</ntsc>
										</rate>
										<width>3840</width>
										<height>2160</height>
										<anamorphic>FALSE</anamorphic>
										<pixelaspectratio>square</pixelaspectratio>
										<fielddominance>none</fielddominance>
									</samplecharacteristics>
								</video>
							</media>
						</file>
						<logginginfo>
							<description></description>
							<scene></scene>
							<shottake></shottake>
							<lognote></lognote>
							<good></good>
							<originalvideofilename></originalvideofilename>
							<originalaudiofilename></originalaudiofilename>
						</logginginfo>
						<colorinfo>
							<lut></lut>
							<lut1></lut1>
							<asc_sop></asc_sop>
							<asc_sat></asc_sat>
							<lut2></lut2>
						</colorinfo>
						<labels>
							<label2>Violet</label2>
						</labels>
					</clipitem>
					<clipitem id="clipitem-878">
						<masterclipid>masterclip-875</masterclipid>
						<name>TKO_015_CRA_Sh09170.mov</name>
						<enabled>TRUE</enabled>
						<duration>35</duration>
						<rate>
							<timebase>24</timebase>
							<ntsc>TRUE</ntsc>
						</rate>
						<start>69702</start>
						<end>69729</end>
						<in>4</in>
						<out>31</out>
						<pproTicksIn>42378336000</pproTicksIn>
						<pproTicksOut>328432104000</pproTicksOut>
						<alphatype>none</alphatype>
						<pixelaspectratio>square</pixelaspectratio>
						<anamorphic>FALSE</anamorphic>
						<file id="file-875">
							<name>TKO_015_CRA_Sh09170.mov</name>
							<pathurl>file://tri-stor01/Projects/TKO/SHOTS/_Refs_Movs_Burnin_FrameCounter/TKO_015_CRA_Sh09170.mov</pathurl>
							<rate>
								<timebase>24</timebase>
								<ntsc>TRUE</ntsc>
							</rate>
							<duration>35</duration>
							<timecode>
								<rate>
									<timebase>24</timebase>
									<ntsc>TRUE</ntsc>
								</rate>
								<string>00:38:56:14</string>
								<frame>56078</frame>
								<displayformat>NDF</displayformat>
							</timecode>
							<media>
								<video>
									<samplecharacteristics>
										<rate>
											<timebase>24</timebase>
											<ntsc>TRUE</ntsc>
										</rate>
										<width>1280</width>
										<height>720</height>
										<anamorphic>FALSE</anamorphic>
										<pixelaspectratio>square</pixelaspectratio>
										<fielddominance>none</fielddominance>
									</samplecharacteristics>
								</video>
							</media>
						</file>
						<logginginfo>
							<description></description>
							<scene></scene>
							<shottake></shottake>
							<lognote></lognote>
							<good></good>
							<originalvideofilename></originalvideofilename>
							<originalaudiofilename></originalaudiofilename>
						</logginginfo>
						<colorinfo>
							<lut></lut>
							<lut1></lut1>
							<asc_sop></asc_sop>
							<asc_sat></asc_sat>
							<lut2></lut2>
						</colorinfo>
						<labels>
							<label2>Violet</label2>
						</labels>
					</clipitem>
					<clipitem id="clipitem-879">
						<masterclipid>masterclip-876</masterclipid>
						<name>TKO_015_CRA_Sh09180.mov</name>
						<enabled>TRUE</enabled>
						<duration>45</duration>
						<rate>
							<timebase>24</timebase>
							<ntsc>TRUE</ntsc>
						</rate>
						<start>69729</start>
						<end>69766</end>
						<in>4</in>
						<out>41</out>
						<pproTicksIn>42378336000</pproTicksIn>
						<pproTicksOut>434377944000</pproTicksOut>
						<alphatype>none</alphatype>
						<pixelaspectratio>square</pixelaspectratio>
						<anamorphic>FALSE</anamorphic>
						<file id="file-876">
							<name>TKO_015_CRA_Sh09180.mov</name>
							<pathurl>file://tri-stor01/Projects/TKO/SHOTS/_Refs_Movs_Burnin_FrameCounter/TKO_015_CRA_Sh09180.mov</pathurl>
							<rate>
								<timebase>24</timebase>
								<ntsc>TRUE</ntsc>
							</rate>
							<duration>45</duration>
							<timecode>
								<rate>
									<timebase>24</timebase>
									<ntsc>TRUE</ntsc>
								</rate>
								<string>09:01:48:16</string>
								<frame>780208</frame>
								<displayformat>NDF</displayformat>
								<reel>
									<name>A0200003</name>
								</reel>
							</timecode>
							<media>
								<video>
									<samplecharacteristics>
										<rate>
											<timebase>24</timebase>
											<ntsc>TRUE</ntsc>
										</rate>
										<width>4096</width>
										<height>2160</height>
										<anamorphic>FALSE</anamorphic>
										<pixelaspectratio>square</pixelaspectratio>
										<fielddominance>none</fielddominance>
									</samplecharacteristics>
								</video>
							</media>
						</file>
						<logginginfo>
							<description></description>
							<scene></scene>
							<shottake></shottake>
							<lognote></lognote>
							<good></good>
							<originalvideofilename></originalvideofilename>
							<originalaudiofilename></originalaudiofilename>
						</logginginfo>
						<colorinfo>
							<lut></lut>
							<lut1></lut1>
							<asc_sop></asc_sop>
							<asc_sat></asc_sat>
							<lut2></lut2>
						</colorinfo>
						<labels>
							<label2>Violet</label2>
						</labels>
					</clipitem>
					<clipitem id="clipitem-880">
						<masterclipid>masterclip-877</masterclipid>
						<name>TKO_015_CRA_Sh09200.mov</name>
						<enabled>TRUE</enabled>
						<duration>36</duration>
						<rate>
							<timebase>24</timebase>
							<ntsc>TRUE</ntsc>
						</rate>
						<start>69766</start>
						<end>69794</end>
						<in>4</in>
						<out>32</out>
						<pproTicksIn>42378336000</pproTicksIn>
						<pproTicksOut>339026688000</pproTicksOut>
						<alphatype>none</alphatype>
						<pixelaspectratio>square</pixelaspectratio>
						<anamorphic>FALSE</anamorphic>
						<file id="file-877">
							<name>TKO_015_CRA_Sh09200.mov</name>
							<pathurl>file://tri-stor01/Projects/TKO/SHOTS/_Refs_Movs_Burnin_FrameCounter/TKO_015_CRA_Sh09200.mov</pathurl>
							<rate>
								<timebase>24</timebase>
								<ntsc>TRUE</ntsc>
							</rate>
							<duration>36</duration>
							<timecode>
								<rate>
									<timebase>24</timebase>
									<ntsc>TRUE</ntsc>
								</rate>
								<string>00:38:57:17</string>
								<frame>56105</frame>
								<displayformat>NDF</displayformat>
							</timecode>
							<media>
								<video>
									<samplecharacteristics>
										<rate>
											<timebase>24</timebase>
											<ntsc>TRUE</ntsc>
										</rate>
										<width>1280</width>
										<height>720</height>
										<anamorphic>FALSE</anamorphic>
										<pixelaspectratio>square</pixelaspectratio>
										<fielddominance>none</fielddominance>
									</samplecharacteristics>
								</video>
							</media>
						</file>
						<logginginfo>
							<description></description>
							<scene></scene>
							<shottake></shottake>
							<lognote></lognote>
							<good></good>
							<originalvideofilename></originalvideofilename>
							<originalaudiofilename></originalaudiofilename>
						</logginginfo>
						<colorinfo>
							<lut></lut>
							<lut1></lut1>
							<asc_sop></asc_sop>
							<asc_sat></asc_sat>
							<lut2></lut2>
						</colorinfo>
						<labels>
							<label2>Violet</label2>
						</labels>
					</clipitem>
					<clipitem id="clipitem-881">
						<masterclipid>masterclip-878</masterclipid>
						<name>TKO_015_CRA_Sh09210.mov</name>
						<enabled>TRUE</enabled>
						<duration>78</duration>
						<rate>
							<timebase>24</timebase>
							<ntsc>TRUE</ntsc>
						</rate>
						<start>69794</start>
						<end>69864</end>
						<in>4</in>
						<out>74</out>
						<pproTicksIn>42378336000</pproTicksIn>
						<pproTicksOut>783999216000</pproTicksOut>
						<alphatype>none</alphatype>
						<pixelaspectratio>square</pixelaspectratio>
						<anamorphic>FALSE</anamorphic>
						<file id="file-878">
							<name>TKO_015_CRA_Sh09210.mov</name>
							<pathurl>file://tri-stor01/Projects/TKO/SHOTS/_Refs_Movs_Burnin_FrameCounter/TKO_015_CRA_Sh09210.mov</pathurl>
							<rate>
								<timebase>24</timebase>
								<ntsc>TRUE</ntsc>
							</rate>
							<duration>78</duration>
							<timecode>
								<rate>
									<timebase>24</timebase>
									<ntsc>TRUE</ntsc>
								</rate>
								<string>09:01:53:14</string>
								<frame>780326</frame>
								<displayformat>NDF</displayformat>
								<reel>
									<name>A0200003</name>
								</reel>
							</timecode>
							<media>
								<video>
									<samplecharacteristics>
										<rate>
											<timebase>24</timebase>
											<ntsc>TRUE</ntsc>
										</rate>
										<width>4096</width>
										<height>2160</height>
										<anamorphic>FALSE</anamorphic>
										<pixelaspectratio>square</pixelaspectratio>
										<fielddominance>none</fielddominance>
									</samplecharacteristics>
								</video>
							</media>
						</file>
						<logginginfo>
							<description></description>
							<scene></scene>
							<shottake></shottake>
							<lognote></lognote>
							<good></good>
							<originalvideofilename></originalvideofilename>
							<originalaudiofilename></originalaudiofilename>
						</logginginfo>
						<colorinfo>
							<lut></lut>
							<lut1></lut1>
							<asc_sop></asc_sop>
							<asc_sat></asc_sat>
							<lut2></lut2>
						</colorinfo>
						<labels>
							<label2>Violet</label2>
						</labels>
					</clipitem>
					<clipitem id="clipitem-882">
						<masterclipid>masterclip-879</masterclipid>
						<name>TKO_015_CRA_Sh09220.mov</name>
						<enabled>TRUE</enabled>
						<duration>48</duration>
						<rate>
							<timebase>24</timebase>
							<ntsc>TRUE</ntsc>
						</rate>
						<start>69864</start>
						<end>69904</end>
						<in>4</in>
						<out>44</out>
						<pproTicksIn>42378336000</pproTicksIn>
						<pproTicksOut>466161696000</pproTicksOut>
						<alphatype>none</alphatype>
						<pixelaspectratio>square</pixelaspectratio>
						<anamorphic>FALSE</anamorphic>
						<file id="file-879">
							<name>TKO_015_CRA_Sh09220.mov</name>
							<pathurl>file://tri-stor01/Projects/TKO/SHOTS/_Refs_Movs_Burnin_FrameCounter/TKO_015_CRA_Sh09220.mov</pathurl>
							<rate>
								<timebase>24</timebase>
								<ntsc>TRUE</ntsc>
							</rate>
							<duration>48</duration>
							<timecode>
								<rate>
									<timebase>24</timebase>
									<ntsc>TRUE</ntsc>
								</rate>
								<string>09:01:57:18</string>
								<frame>780426</frame>
								<displayformat>NDF</displayformat>
								<reel>
									<name>A0200003</name>
								</reel>
							</timecode>
							<media>
								<video>
									<samplecharacteristics>
										<rate>
											<timebase>24</timebase>
											<ntsc>TRUE</ntsc>
										</rate>
										<width>4096</width>
										<height>2160</height>
										<anamorphic>FALSE</anamorphic>
										<pixelaspectratio>square</pixelaspectratio>
										<fielddominance>none</fielddominance>
									</samplecharacteristics>
								</video>
							</media>
						</file>
						<logginginfo>
							<description></description>
							<scene></scene>
							<shottake></shottake>
							<lognote></lognote>
							<good></good>
							<originalvideofilename></originalvideofilename>
							<originalaudiofilename></originalaudiofilename>
						</logginginfo>
						<colorinfo>
							<lut></lut>
							<lut1></lut1>
							<asc_sop></asc_sop>
							<asc_sat></asc_sat>
							<lut2></lut2>
						</colorinfo>
						<labels>
							<label2>Violet</label2>
						</labels>
					</clipitem>
					<clipitem id="clipitem-883">
						<masterclipid>masterclip-880</masterclipid>
						<name>TKO_015_CRA_Sh09230.mov</name>
						<enabled>TRUE</enabled>
						<duration>48</duration>
						<rate>
							<timebase>24</timebase>
							<ntsc>TRUE</ntsc>
						</rate>
						<start>69904</start>
						<end>69944</end>
						<in>4</in>
						<out>44</out>
						<pproTicksIn>42378336000</pproTicksIn>
						<pproTicksOut>466161696000</pproTicksOut>
						<alphatype>none</alphatype>
						<pixelaspectratio>square</pixelaspectratio>
						<anamorphic>FALSE</anamorphic>
						<file id="file-880">
							<name>TKO_015_CRA_Sh09230.mov</name>
							<pathurl>file://tri-stor01/Projects/TKO/SHOTS/_Refs_Movs_Burnin_FrameCounter/TKO_015_CRA_Sh09230.mov</pathurl>
							<rate>
								<timebase>24</timebase>
								<ntsc>TRUE</ntsc>
							</rate>
							<duration>48</duration>
							<timecode>
								<rate>
									<timebase>24</timebase>
									<ntsc>TRUE</ntsc>
								</rate>
								<string>09:18:24:15</string>
								<frame>804111</frame>
								<displayformat>NDF</displayformat>
								<reel>
									<name>A0200006</name>
								</reel>
							</timecode>
							<media>
								<video>
									<samplecharacteristics>
										<rate>
											<timebase>24</timebase>
											<ntsc>TRUE</ntsc>
										</rate>
										<width>4096</width>
										<height>2160</height>
										<anamorphic>FALSE</anamorphic>
										<pixelaspectratio>square</pixelaspectratio>
										<fielddominance>none</fielddominance>
									</samplecharacteristics>
								</video>
							</media>
						</file>
						<logginginfo>
							<description></description>
							<scene></scene>
							<shottake></shottake>
							<lognote></lognote>
							<good></good>
							<originalvideofilename></originalvideofilename>
							<originalaudiofilename></originalaudiofilename>
						</logginginfo>
						<colorinfo>
							<lut></lut>
							<lut1></lut1>
							<asc_sop></asc_sop>
							<asc_sat></asc_sat>
							<lut2></lut2>
						</colorinfo>
						<labels>
							<label2>Violet</label2>
						</labels>
					</clipitem>
					<clipitem id="clipitem-884">
						<masterclipid>masterclip-881</masterclipid>
						<name>TKO_015_CRA_Sh09260.mov</name>
						<enabled>TRUE</enabled>
						<duration>51</duration>
						<rate>
							<timebase>24</timebase>
							<ntsc>TRUE</ntsc>
						</rate>
						<start>69944</start>
						<end>69987</end>
						<in>4</in>
						<out>47</out>
						<pproTicksIn>42378336000</pproTicksIn>
						<pproTicksOut>497945448000</pproTicksOut>
						<alphatype>none</alphatype>
						<pixelaspectratio>square</pixelaspectratio>
						<anamorphic>FALSE</anamorphic>
						<file id="file-881">
							<name>TKO_015_CRA_Sh09260.mov</name>
							<pathurl>file://tri-stor01/Projects/TKO/SHOTS/_Refs_Movs_Burnin_FrameCounter/TKO_015_CRA_Sh09260.mov</pathurl>
							<rate>
								<timebase>24</timebase>
								<ntsc>TRUE</ntsc>
							</rate>
							<duration>51</duration>
							<timecode>
								<rate>
									<timebase>24</timebase>
									<ntsc>TRUE</ntsc>
								</rate>
								<string>09:02:04:14</string>
								<frame>780590</frame>
								<displayformat>NDF</displayformat>
								<reel>
									<name>A0200003</name>
								</reel>
							</timecode>
							<media>
								<video>
									<samplecharacteristics>
										<rate>
											<timebase>24</timebase>
											<ntsc>TRUE</ntsc>
										</rate>
										<width>4096</width>
										<height>2160</height>
										<anamorphic>FALSE</anamorphic>
										<pixelaspectratio>square</pixelaspectratio>
										<fielddominance>none</fielddominance>
									</samplecharacteristics>
								</video>
							</media>
						</file>
						<logginginfo>
							<description></description>
							<scene></scene>
							<shottake></shottake>
							<lognote></lognote>
							<good></good>
							<originalvideofilename></originalvideofilename>
							<originalaudiofilename></originalaudiofilename>
						</logginginfo>
						<colorinfo>
							<lut></lut>
							<lut1></lut1>
							<asc_sop></asc_sop>
							<asc_sat></asc_sat>
							<lut2></lut2>
						</colorinfo>
						<labels>
							<label2>Violet</label2>
						</labels>
					</clipitem>
					<clipitem id="clipitem-885">
						<masterclipid>masterclip-882</masterclipid>
						<name>TKO_015_CRA_Sh09270.mov</name>
						<enabled>TRUE</enabled>
						<duration>48</duration>
						<rate>
							<timebase>24</timebase>
							<ntsc>TRUE</ntsc>
						</rate>
						<start>69987</start>
						<end>70027</end>
						<in>4</in>
						<out>44</out>
						<pproTicksIn>42378336000</pproTicksIn>
						<pproTicksOut>466161696000</pproTicksOut>
						<alphatype>none</alphatype>
						<pixelaspectratio>square</pixelaspectratio>
						<anamorphic>FALSE</anamorphic>
						<file id="file-882">
							<name>TKO_015_CRA_Sh09270.mov</name>
							<pathurl>file://tri-stor01/Projects/TKO/SHOTS/_Refs_Movs_Burnin_FrameCounter/TKO_015_CRA_Sh09270.mov</pathurl>
							<rate>
								<timebase>24</timebase>
								<ntsc>TRUE</ntsc>
							</rate>
							<duration>48</duration>
							<timecode>
								<rate>
									<timebase>24</timebase>
									<ntsc>TRUE</ntsc>
								</rate>
								<string>00:39:04:22</string>
								<frame>56278</frame>
								<displayformat>NDF</displayformat>
							</timecode>
							<media>
								<video>
									<samplecharacteristics>
										<rate>
											<timebase>24</timebase>
											<ntsc>TRUE</ntsc>
										</rate>
										<width>1280</width>
										<height>720</height>
										<anamorphic>FALSE</anamorphic>
										<pixelaspectratio>square</pixelaspectratio>
										<fielddominance>none</fielddominance>
									</samplecharacteristics>
								</video>
							</media>
						</file>
						<logginginfo>
							<description></description>
							<scene></scene>
							<shottake></shottake>
							<lognote></lognote>
							<good></good>
							<originalvideofilename></originalvideofilename>
							<originalaudiofilename></originalaudiofilename>
						</logginginfo>
						<colorinfo>
							<lut></lut>
							<lut1></lut1>
							<asc_sop></asc_sop>
							<asc_sat></asc_sat>
							<lut2></lut2>
						</colorinfo>
						<labels>
							<label2>Violet</label2>
						</labels>
					</clipitem>
					<clipitem id="clipitem-886">
						<masterclipid>masterclip-883</masterclipid>
						<name>TKO_015_CRA_Sh09280.mov</name>
						<enabled>TRUE</enabled>
						<duration>112</duration>
						<rate>
							<timebase>24</timebase>
							<ntsc>TRUE</ntsc>
						</rate>
						<start>70027</start>
						<end>70131</end>
						<in>4</in>
						<out>108</out>
						<pproTicksIn>42378336000</pproTicksIn>
						<pproTicksOut>1144215072000</pproTicksOut>
						<alphatype>none</alphatype>
						<pixelaspectratio>square</pixelaspectratio>
						<anamorphic>FALSE</anamorphic>
						<file id="file-883">
							<name>TKO_015_CRA_Sh09280.mov</name>
							<pathurl>file://tri-stor01/Projects/TKO/SHOTS/_Refs_Movs_Burnin_FrameCounter/TKO_015_CRA_Sh09280.mov</pathurl>
							<rate>
								<timebase>24</timebase>
								<ntsc>TRUE</ntsc>
							</rate>
							<duration>112</duration>
							<timecode>
								<rate>
									<timebase>24</timebase>
									<ntsc>TRUE</ntsc>
								</rate>
								<string>00:39:06:14</string>
								<frame>56318</frame>
								<displayformat>NDF</displayformat>
							</timecode>
							<media>
								<video>
									<samplecharacteristics>
										<rate>
											<timebase>24</timebase>
											<ntsc>TRUE</ntsc>
										</rate>
										<width>1280</width>
										<height>720</height>
										<anamorphic>FALSE</anamorphic>
										<pixelaspectratio>square</pixelaspectratio>
										<fielddominance>none</fielddominance>
									</samplecharacteristics>
								</video>
							</media>
						</file>
						<logginginfo>
							<description></description>
							<scene></scene>
							<shottake></shottake>
							<lognote></lognote>
							<good></good>
							<originalvideofilename></originalvideofilename>
							<originalaudiofilename></originalaudiofilename>
						</logginginfo>
						<colorinfo>
							<lut></lut>
							<lut1></lut1>
							<asc_sop></asc_sop>
							<asc_sat></asc_sat>
							<lut2></lut2>
						</colorinfo>
						<labels>
							<label2>Violet</label2>
						</labels>
					</clipitem>
					<clipitem id="clipitem-887">
						<masterclipid>masterclip-884</masterclipid>
						<name>TKO_015_CRA_Sh09290.mov</name>
						<enabled>TRUE</enabled>
						<duration>41</duration>
						<rate>
							<timebase>24</timebase>
							<ntsc>TRUE</ntsc>
						</rate>
						<start>70131</start>
						<end>70164</end>
						<in>4</in>
						<out>37</out>
						<pproTicksIn>42378336000</pproTicksIn>
						<pproTicksOut>391999608000</pproTicksOut>
						<alphatype>none</alphatype>
						<pixelaspectratio>square</pixelaspectratio>
						<anamorphic>FALSE</anamorphic>
						<file id="file-884">
							<name>TKO_015_CRA_Sh09290.mov</name>
							<pathurl>file://tri-stor01/Projects/TKO/SHOTS/_Refs_Movs_Burnin_FrameCounter/TKO_015_CRA_Sh09290.mov</pathurl>
							<rate>
								<timebase>24</timebase>
								<ntsc>TRUE</ntsc>
							</rate>
							<duration>41</duration>
							<timecode>
								<rate>
									<timebase>24</timebase>
									<ntsc>TRUE</ntsc>
								</rate>
								<string>19:51:34:06</string>
								<frame>1715862</frame>
								<displayformat>NDF</displayformat>
								<reel>
									<name>B0060017</name>
								</reel>
							</timecode>
							<media>
								<video>
									<samplecharacteristics>
										<rate>
											<timebase>24</timebase>
											<ntsc>TRUE</ntsc>
										</rate>
										<width>4096</width>
										<height>2160</height>
										<anamorphic>FALSE</anamorphic>
										<pixelaspectratio>square</pixelaspectratio>
										<fielddominance>none</fielddominance>
									</samplecharacteristics>
								</video>
							</media>
						</file>
						<logginginfo>
							<description></description>
							<scene></scene>
							<shottake></shottake>
							<lognote></lognote>
							<good></good>
							<originalvideofilename></originalvideofilename>
							<originalaudiofilename></originalaudiofilename>
						</logginginfo>
						<colorinfo>
							<lut></lut>
							<lut1></lut1>
							<asc_sop></asc_sop>
							<asc_sat></asc_sat>
							<lut2></lut2>
						</colorinfo>
						<labels>
							<label2>Violet</label2>
						</labels>
					</clipitem>
					<clipitem id="clipitem-888">
						<masterclipid>masterclip-885</masterclipid>
						<name>TKO_015_CRA_Sh09300.mov</name>
						<enabled>TRUE</enabled>
						<duration>30</duration>
						<rate>
							<timebase>24</timebase>
							<ntsc>TRUE</ntsc>
						</rate>
						<start>70164</start>
						<end>70186</end>
						<in>4</in>
						<out>26</out>
						<pproTicksIn>42378336000</pproTicksIn>
						<pproTicksOut>275459184000</pproTicksOut>
						<alphatype>none</alphatype>
						<pixelaspectratio>square</pixelaspectratio>
						<anamorphic>FALSE</anamorphic>
						<file id="file-885">
							<name>TKO_015_CRA_Sh09300.mov</name>
							<pathurl>file://tri-stor01/Projects/TKO/SHOTS/_Refs_Movs_Burnin_FrameCounter/TKO_015_CRA_Sh09300.mov</pathurl>
							<rate>
								<timebase>24</timebase>
								<ntsc>TRUE</ntsc>
							</rate>
							<duration>30</duration>
							<timecode>
								<rate>
									<timebase>24</timebase>
									<ntsc>TRUE</ntsc>
								</rate>
								<string>19:42:28:06</string>
								<frame>1702758</frame>
								<displayformat>NDF</displayformat>
								<reel>
									<name>A0100001</name>
								</reel>
							</timecode>
							<media>
								<video>
									<samplecharacteristics>
										<rate>
											<timebase>24</timebase>
											<ntsc>TRUE</ntsc>
										</rate>
										<width>4096</width>
										<height>2160</height>
										<anamorphic>FALSE</anamorphic>
										<pixelaspectratio>square</pixelaspectratio>
										<fielddominance>none</fielddominance>
									</samplecharacteristics>
								</video>
							</media>
						</file>
						<logginginfo>
							<description></description>
							<scene></scene>
							<shottake></shottake>
							<lognote></lognote>
							<good></good>
							<originalvideofilename></originalvideofilename>
							<originalaudiofilename></originalaudiofilename>
						</logginginfo>
						<colorinfo>
							<lut></lut>
							<lut1></lut1>
							<asc_sop></asc_sop>
							<asc_sat></asc_sat>
							<lut2></lut2>
						</colorinfo>
						<labels>
							<label2>Violet</label2>
						</labels>
					</clipitem>
					<clipitem id="clipitem-889">
						<masterclipid>masterclip-886</masterclipid>
						<name>TKO_015_CRA_Sh09310.mov</name>
						<enabled>TRUE</enabled>
						<duration>23</duration>
						<rate>
							<timebase>24</timebase>
							<ntsc>TRUE</ntsc>
						</rate>
						<start>70186</start>
						<end>70201</end>
						<in>4</in>
						<out>19</out>
						<pproTicksIn>42378336000</pproTicksIn>
						<pproTicksOut>201297096000</pproTicksOut>
						<alphatype>none</alphatype>
						<pixelaspectratio>square</pixelaspectratio>
						<anamorphic>FALSE</anamorphic>
						<file id="file-886">
							<name>TKO_015_CRA_Sh09310.mov</name>
							<pathurl>file://tri-stor01/Projects/TKO/SHOTS/_Refs_Movs_Burnin_FrameCounter/TKO_015_CRA_Sh09310.mov</pathurl>
							<rate>
								<timebase>24</timebase>
								<ntsc>TRUE</ntsc>
							</rate>
							<duration>23</duration>
							<timecode>
								<rate>
									<timebase>24</timebase>
									<ntsc>TRUE</ntsc>
								</rate>
								<string>02:57:18:06</string>
								<frame>255318</frame>
								<displayformat>NDF</displayformat>
								<reel>
									<name>C0040015</name>
								</reel>
							</timecode>
							<media>
								<video>
									<samplecharacteristics>
										<rate>
											<timebase>24</timebase>
											<ntsc>TRUE</ntsc>
										</rate>
										<width>3840</width>
										<height>2160</height>
										<anamorphic>FALSE</anamorphic>
										<pixelaspectratio>square</pixelaspectratio>
										<fielddominance>none</fielddominance>
									</samplecharacteristics>
								</video>
							</media>
						</file>
						<logginginfo>
							<description></description>
							<scene></scene>
							<shottake></shottake>
							<lognote></lognote>
							<good></good>
							<originalvideofilename></originalvideofilename>
							<originalaudiofilename></originalaudiofilename>
						</logginginfo>
						<colorinfo>
							<lut></lut>
							<lut1></lut1>
							<asc_sop></asc_sop>
							<asc_sat></asc_sat>
							<lut2></lut2>
						</colorinfo>
						<labels>
							<label2>Violet</label2>
						</labels>
					</clipitem>
					<clipitem id="clipitem-890">
						<masterclipid>masterclip-887</masterclipid>
						<name>TKO_015_CRA_Sh09320.mov</name>
						<enabled>TRUE</enabled>
						<duration>25</duration>
						<rate>
							<timebase>24</timebase>
							<ntsc>TRUE</ntsc>
						</rate>
						<start>70201</start>
						<end>70218</end>
						<in>4</in>
						<out>21</out>
						<pproTicksIn>42378336000</pproTicksIn>
						<pproTicksOut>222486264000</pproTicksOut>
						<alphatype>none</alphatype>
						<pixelaspectratio>square</pixelaspectratio>
						<anamorphic>FALSE</anamorphic>
						<file id="file-887">
							<name>TKO_015_CRA_Sh09320.mov</name>
							<pathurl>file://tri-stor01/Projects/TKO/SHOTS/_Refs_Movs_Burnin_FrameCounter/TKO_015_CRA_Sh09320.mov</pathurl>
							<rate>
								<timebase>24</timebase>
								<ntsc>TRUE</ntsc>
							</rate>
							<duration>25</duration>
							<timecode>
								<rate>
									<timebase>24</timebase>
									<ntsc>TRUE</ntsc>
								</rate>
								<string>07:23:47:20</string>
								<frame>639068</frame>
								<displayformat>NDF</displayformat>
								<reel>
									<name>C0180005</name>
								</reel>
							</timecode>
							<media>
								<video>
									<samplecharacteristics>
										<rate>
											<timebase>24</timebase>
											<ntsc>TRUE</ntsc>
										</rate>
										<width>3840</width>
										<height>2160</height>
										<anamorphic>FALSE</anamorphic>
										<pixelaspectratio>square</pixelaspectratio>
										<fielddominance>none</fielddominance>
									</samplecharacteristics>
								</video>
							</media>
						</file>
						<logginginfo>
							<description></description>
							<scene></scene>
							<shottake></shottake>
							<lognote></lognote>
							<good></good>
							<originalvideofilename></originalvideofilename>
							<originalaudiofilename></originalaudiofilename>
						</logginginfo>
						<colorinfo>
							<lut></lut>
							<lut1></lut1>
							<asc_sop></asc_sop>
							<asc_sat></asc_sat>
							<lut2></lut2>
						</colorinfo>
						<labels>
							<label2>Violet</label2>
						</labels>
					</clipitem>
					<clipitem id="clipitem-891">
						<masterclipid>masterclip-888</masterclipid>
						<name>TKO_015_CRA_Sh09330.mov</name>
						<enabled>TRUE</enabled>
						<duration>31</duration>
						<rate>
							<timebase>24</timebase>
							<ntsc>TRUE</ntsc>
						</rate>
						<start>70218</start>
						<end>70241</end>
						<in>4</in>
						<out>27</out>
						<pproTicksIn>42378336000</pproTicksIn>
						<pproTicksOut>286053768000</pproTicksOut>
						<alphatype>none</alphatype>
						<pixelaspectratio>square</pixelaspectratio>
						<anamorphic>FALSE</anamorphic>
						<file id="file-888">
							<name>TKO_015_CRA_Sh09330.mov</name>
							<pathurl>file://tri-stor01/Projects/TKO/SHOTS/_Refs_Movs_Burnin_FrameCounter/TKO_015_CRA_Sh09330.mov</pathurl>
							<rate>
								<timebase>24</timebase>
								<ntsc>TRUE</ntsc>
							</rate>
							<duration>31</duration>
							<timecode>
								<rate>
									<timebase>24</timebase>
									<ntsc>TRUE</ntsc>
								</rate>
								<string>00:39:12:16</string>
								<frame>56464</frame>
								<displayformat>NDF</displayformat>
							</timecode>
							<media>
								<video>
									<samplecharacteristics>
										<rate>
											<timebase>24</timebase>
											<ntsc>TRUE</ntsc>
										</rate>
										<width>1280</width>
										<height>720</height>
										<anamorphic>FALSE</anamorphic>
										<pixelaspectratio>square</pixelaspectratio>
										<fielddominance>none</fielddominance>
									</samplecharacteristics>
								</video>
							</media>
						</file>
						<logginginfo>
							<description></description>
							<scene></scene>
							<shottake></shottake>
							<lognote></lognote>
							<good></good>
							<originalvideofilename></originalvideofilename>
							<originalaudiofilename></originalaudiofilename>
						</logginginfo>
						<colorinfo>
							<lut></lut>
							<lut1></lut1>
							<asc_sop></asc_sop>
							<asc_sat></asc_sat>
							<lut2></lut2>
						</colorinfo>
						<labels>
							<label2>Violet</label2>
						</labels>
					</clipitem>
					<clipitem id="clipitem-892">
						<masterclipid>masterclip-889</masterclipid>
						<name>TKO_015_CRA_Sh09340.mov</name>
						<enabled>TRUE</enabled>
						<duration>27</duration>
						<rate>
							<timebase>24</timebase>
							<ntsc>TRUE</ntsc>
						</rate>
						<start>70241</start>
						<end>70260</end>
						<in>4</in>
						<out>23</out>
						<pproTicksIn>42378336000</pproTicksIn>
						<pproTicksOut>243675432000</pproTicksOut>
						<alphatype>none</alphatype>
						<pixelaspectratio>square</pixelaspectratio>
						<anamorphic>FALSE</anamorphic>
						<file id="file-889">
							<name>TKO_015_CRA_Sh09340.mov</name>
							<pathurl>file://tri-stor01/Projects/TKO/SHOTS/_Refs_Movs_Burnin_FrameCounter/TKO_015_CRA_Sh09340.mov</pathurl>
							<rate>
								<timebase>24</timebase>
								<ntsc>TRUE</ntsc>
							</rate>
							<duration>27</duration>
							<timecode>
								<rate>
									<timebase>24</timebase>
									<ntsc>TRUE</ntsc>
								</rate>
								<string>20:27:13:03</string>
								<frame>1767195</frame>
								<displayformat>NDF</displayformat>
								<reel>
									<name>B0070002</name>
								</reel>
							</timecode>
							<media>
								<video>
									<samplecharacteristics>
										<rate>
											<timebase>24</timebase>
											<ntsc>TRUE</ntsc>
										</rate>
										<width>4096</width>
										<height>2160</height>
										<anamorphic>FALSE</anamorphic>
										<pixelaspectratio>square</pixelaspectratio>
										<fielddominance>none</fielddominance>
									</samplecharacteristics>
								</video>
							</media>
						</file>
						<logginginfo>
							<description></description>
							<scene></scene>
							<shottake></shottake>
							<lognote></lognote>
							<good></good>
							<originalvideofilename></originalvideofilename>
							<originalaudiofilename></originalaudiofilename>
						</logginginfo>
						<colorinfo>
							<lut></lut>
							<lut1></lut1>
							<asc_sop></asc_sop>
							<asc_sat></asc_sat>
							<lut2></lut2>
						</colorinfo>
						<labels>
							<label2>Violet</label2>
						</labels>
					</clipitem>
					<clipitem id="clipitem-893">
						<masterclipid>masterclip-890</masterclipid>
						<name>TKO_015_CRA_Sh09350.mov</name>
						<enabled>TRUE</enabled>
						<duration>22</duration>
						<rate>
							<timebase>24</timebase>
							<ntsc>TRUE</ntsc>
						</rate>
						<start>70260</start>
						<end>70274</end>
						<in>4</in>
						<out>18</out>
						<pproTicksIn>42378336000</pproTicksIn>
						<pproTicksOut>190702512000</pproTicksOut>
						<alphatype>none</alphatype>
						<pixelaspectratio>square</pixelaspectratio>
						<anamorphic>FALSE</anamorphic>
						<file id="file-890">
							<name>TKO_015_CRA_Sh09350.mov</name>
							<pathurl>file://tri-stor01/Projects/TKO/SHOTS/_Refs_Movs_Burnin_FrameCounter/TKO_015_CRA_Sh09350.mov</pathurl>
							<rate>
								<timebase>24</timebase>
								<ntsc>TRUE</ntsc>
							</rate>
							<duration>22</duration>
							<timecode>
								<rate>
									<timebase>24</timebase>
									<ntsc>TRUE</ntsc>
								</rate>
								<string>07:18:52:16</string>
								<frame>631984</frame>
								<displayformat>NDF</displayformat>
								<reel>
									<name>C0180003</name>
								</reel>
							</timecode>
							<media>
								<video>
									<samplecharacteristics>
										<rate>
											<timebase>24</timebase>
											<ntsc>TRUE</ntsc>
										</rate>
										<width>3840</width>
										<height>2160</height>
										<anamorphic>FALSE</anamorphic>
										<pixelaspectratio>square</pixelaspectratio>
										<fielddominance>none</fielddominance>
									</samplecharacteristics>
								</video>
							</media>
						</file>
						<logginginfo>
							<description></description>
							<scene></scene>
							<shottake></shottake>
							<lognote></lognote>
							<good></good>
							<originalvideofilename></originalvideofilename>
							<originalaudiofilename></originalaudiofilename>
						</logginginfo>
						<colorinfo>
							<lut></lut>
							<lut1></lut1>
							<asc_sop></asc_sop>
							<asc_sat></asc_sat>
							<lut2></lut2>
						</colorinfo>
						<labels>
							<label2>Violet</label2>
						</labels>
					</clipitem>
					<clipitem id="clipitem-894">
						<masterclipid>masterclip-891</masterclipid>
						<name>TKO_015_CRA_Sh09360.mov</name>
						<enabled>TRUE</enabled>
						<duration>20</duration>
						<rate>
							<timebase>24</timebase>
							<ntsc>TRUE</ntsc>
						</rate>
						<start>70274</start>
						<end>70286</end>
						<in>4</in>
						<out>16</out>
						<pproTicksIn>42378336000</pproTicksIn>
						<pproTicksOut>169513344000</pproTicksOut>
						<alphatype>none</alphatype>
						<pixelaspectratio>square</pixelaspectratio>
						<anamorphic>FALSE</anamorphic>
						<file id="file-891">
							<name>TKO_015_CRA_Sh09360.mov</name>
							<pathurl>file://tri-stor01/Projects/TKO/SHOTS/_Refs_Movs_Burnin_FrameCounter/TKO_015_CRA_Sh09360.mov</pathurl>
							<rate>
								<timebase>24</timebase>
								<ntsc>TRUE</ntsc>
							</rate>
							<duration>20</duration>
							<timecode>
								<rate>
									<timebase>24</timebase>
									<ntsc>TRUE</ntsc>
								</rate>
								<string>20:27:18:21</string>
								<frame>1767333</frame>
								<displayformat>NDF</displayformat>
								<reel>
									<name>A0100004</name>
								</reel>
							</timecode>
							<media>
								<video>
									<samplecharacteristics>
										<rate>
											<timebase>24</timebase>
											<ntsc>TRUE</ntsc>
										</rate>
										<width>4096</width>
										<height>2160</height>
										<anamorphic>FALSE</anamorphic>
										<pixelaspectratio>square</pixelaspectratio>
										<fielddominance>none</fielddominance>
									</samplecharacteristics>
								</video>
							</media>
						</file>
						<logginginfo>
							<description></description>
							<scene></scene>
							<shottake></shottake>
							<lognote></lognote>
							<good></good>
							<originalvideofilename></originalvideofilename>
							<originalaudiofilename></originalaudiofilename>
						</logginginfo>
						<colorinfo>
							<lut></lut>
							<lut1></lut1>
							<asc_sop></asc_sop>
							<asc_sat></asc_sat>
							<lut2></lut2>
						</colorinfo>
						<labels>
							<label2>Violet</label2>
						</labels>
					</clipitem>
					<clipitem id="clipitem-895">
						<masterclipid>masterclip-892</masterclipid>
						<name>TKO_015_CRA_Sh09370.mov</name>
						<enabled>TRUE</enabled>
						<duration>20</duration>
						<rate>
							<timebase>24</timebase>
							<ntsc>TRUE</ntsc>
						</rate>
						<start>70286</start>
						<end>70298</end>
						<in>4</in>
						<out>16</out>
						<pproTicksIn>42378336000</pproTicksIn>
						<pproTicksOut>169513344000</pproTicksOut>
						<alphatype>none</alphatype>
						<pixelaspectratio>square</pixelaspectratio>
						<anamorphic>FALSE</anamorphic>
						<file id="file-892">
							<name>TKO_015_CRA_Sh09370.mov</name>
							<pathurl>file://tri-stor01/Projects/TKO/SHOTS/_Refs_Movs_Burnin_FrameCounter/TKO_015_CRA_Sh09370.mov</pathurl>
							<rate>
								<timebase>24</timebase>
								<ntsc>TRUE</ntsc>
							</rate>
							<duration>20</duration>
							<timecode>
								<rate>
									<timebase>24</timebase>
									<ntsc>TRUE</ntsc>
								</rate>
								<string>07:16:51:08</string>
								<frame>629072</frame>
								<displayformat>NDF</displayformat>
								<reel>
									<name>C0180002</name>
								</reel>
							</timecode>
							<media>
								<video>
									<samplecharacteristics>
										<rate>
											<timebase>24</timebase>
											<ntsc>TRUE</ntsc>
										</rate>
										<width>3840</width>
										<height>2160</height>
										<anamorphic>FALSE</anamorphic>
										<pixelaspectratio>square</pixelaspectratio>
										<fielddominance>none</fielddominance>
									</samplecharacteristics>
								</video>
							</media>
						</file>
						<logginginfo>
							<description></description>
							<scene></scene>
							<shottake></shottake>
							<lognote></lognote>
							<good></good>
							<originalvideofilename></originalvideofilename>
							<originalaudiofilename></originalaudiofilename>
						</logginginfo>
						<colorinfo>
							<lut></lut>
							<lut1></lut1>
							<asc_sop></asc_sop>
							<asc_sat></asc_sat>
							<lut2></lut2>
						</colorinfo>
						<labels>
							<label2>Violet</label2>
						</labels>
					</clipitem>
					<clipitem id="clipitem-896">
						<masterclipid>masterclip-893</masterclipid>
						<name>TKO_015_CRA_Sh09380.mov</name>
						<enabled>TRUE</enabled>
						<duration>27</duration>
						<rate>
							<timebase>24</timebase>
							<ntsc>TRUE</ntsc>
						</rate>
						<start>70298</start>
						<end>70317</end>
						<in>4</in>
						<out>23</out>
						<pproTicksIn>42378336000</pproTicksIn>
						<pproTicksOut>243675432000</pproTicksOut>
						<alphatype>none</alphatype>
						<pixelaspectratio>square</pixelaspectratio>
						<anamorphic>FALSE</anamorphic>
						<file id="file-893">
							<name>TKO_015_CRA_Sh09380.mov</name>
							<pathurl>file://tri-stor01/Projects/TKO/SHOTS/_Refs_Movs_Burnin_FrameCounter/TKO_015_CRA_Sh09380.mov</pathurl>
							<rate>
								<timebase>24</timebase>
								<ntsc>TRUE</ntsc>
							</rate>
							<duration>27</duration>
							<timecode>
								<rate>
									<timebase>24</timebase>
									<ntsc>TRUE</ntsc>
								</rate>
								<string>17:46:48:14</string>
								<frame>1536206</frame>
								<displayformat>NDF</displayformat>
								<reel>
									<name>A0260006</name>
								</reel>
							</timecode>
							<media>
								<video>
									<samplecharacteristics>
										<rate>
											<timebase>24</timebase>
											<ntsc>TRUE</ntsc>
										</rate>
										<width>4096</width>
										<height>2160</height>
										<anamorphic>FALSE</anamorphic>
										<pixelaspectratio>square</pixelaspectratio>
										<fielddominance>none</fielddominance>
									</samplecharacteristics>
								</video>
							</media>
						</file>
						<logginginfo>
							<description></description>
							<scene></scene>
							<shottake></shottake>
							<lognote></lognote>
							<good></good>
							<originalvideofilename></originalvideofilename>
							<originalaudiofilename></originalaudiofilename>
						</logginginfo>
						<colorinfo>
							<lut></lut>
							<lut1></lut1>
							<asc_sop></asc_sop>
							<asc_sat></asc_sat>
							<lut2></lut2>
						</colorinfo>
						<labels>
							<label2>Violet</label2>
						</labels>
					</clipitem>
					<clipitem id="clipitem-897">
						<masterclipid>masterclip-894</masterclipid>
						<name>TKO_015_CRA_Sh09390.mov</name>
						<enabled>TRUE</enabled>
						<duration>36</duration>
						<rate>
							<timebase>24</timebase>
							<ntsc>TRUE</ntsc>
						</rate>
						<start>70317</start>
						<end>70345</end>
						<in>4</in>
						<out>32</out>
						<pproTicksIn>42378336000</pproTicksIn>
						<pproTicksOut>339026688000</pproTicksOut>
						<alphatype>none</alphatype>
						<pixelaspectratio>square</pixelaspectratio>
						<anamorphic>FALSE</anamorphic>
						<file id="file-894">
							<name>TKO_015_CRA_Sh09390.mov</name>
							<pathurl>file://tri-stor01/Projects/TKO/SHOTS/_Refs_Movs_Burnin_FrameCounter/TKO_015_CRA_Sh09390.mov</pathurl>
							<rate>
								<timebase>24</timebase>
								<ntsc>TRUE</ntsc>
							</rate>
							<duration>36</duration>
							<timecode>
								<rate>
									<timebase>24</timebase>
									<ntsc>TRUE</ntsc>
								</rate>
								<string>00:39:15:08</string>
								<frame>56528</frame>
								<displayformat>NDF</displayformat>
							</timecode>
							<media>
								<video>
									<samplecharacteristics>
										<rate>
											<timebase>24</timebase>
											<ntsc>TRUE</ntsc>
										</rate>
										<width>1280</width>
										<height>720</height>
										<anamorphic>FALSE</anamorphic>
										<pixelaspectratio>square</pixelaspectratio>
										<fielddominance>none</fielddominance>
									</samplecharacteristics>
								</video>
							</media>
						</file>
						<logginginfo>
							<description></description>
							<scene></scene>
							<shottake></shottake>
							<lognote></lognote>
							<good></good>
							<originalvideofilename></originalvideofilename>
							<originalaudiofilename></originalaudiofilename>
						</logginginfo>
						<colorinfo>
							<lut></lut>
							<lut1></lut1>
							<asc_sop></asc_sop>
							<asc_sat></asc_sat>
							<lut2></lut2>
						</colorinfo>
						<labels>
							<label2>Violet</label2>
						</labels>
					</clipitem>
					<clipitem id="clipitem-898">
						<masterclipid>masterclip-895</masterclipid>
						<name>TKO_015_CRA_Sh09400.mov</name>
						<enabled>TRUE</enabled>
						<duration>16</duration>
						<rate>
							<timebase>24</timebase>
							<ntsc>TRUE</ntsc>
						</rate>
						<start>70345</start>
						<end>70357</end>
						<in>2</in>
						<out>14</out>
						<pproTicksIn>42378336000</pproTicksIn>
						<pproTicksOut>296648352000</pproTicksOut>
						<alphatype>none</alphatype>
						<pixelaspectratio>square</pixelaspectratio>
						<anamorphic>FALSE</anamorphic>
						<file id="file-895">
							<name>TKO_015_CRA_Sh09400.mov</name>
							<pathurl>file://tri-stor01/Projects/TKO/SHOTS/_Refs_Movs_Burnin_FrameCounter/TKO_015_CRA_Sh09400.mov</pathurl>
							<rate>
								<timebase>24</timebase>
								<ntsc>TRUE</ntsc>
							</rate>
							<duration>32</duration>
							<timecode>
								<rate>
									<timebase>24</timebase>
									<ntsc>TRUE</ntsc>
								</rate>
								<string>17:46:48:16</string>
								<frame>1536208</frame>
								<displayformat>NDF</displayformat>
								<reel>
									<name>B0220007</name>
								</reel>
							</timecode>
							<media>
								<video>
									<samplecharacteristics>
										<rate>
											<timebase>24</timebase>
											<ntsc>TRUE</ntsc>
										</rate>
										<width>4096</width>
										<height>2160</height>
										<anamorphic>FALSE</anamorphic>
										<pixelaspectratio>square</pixelaspectratio>
										<fielddominance>none</fielddominance>
									</samplecharacteristics>
								</video>
							</media>
						</file>
						<filter>
							<effect>
								<name>Time Remap</name>
								<effectid>timeremap</effectid>
								<effectcategory>motion</effectcategory>
								<effecttype>motion</effecttype>
								<mediatype>video</mediatype>
								<parameter authoringApp="PremierePro">
									<parameterid>variablespeed</parameterid>
									<name>variablespeed</name>
									<valuemin>0</valuemin>
									<valuemax>1</valuemax>
									<value>0</value>
								</parameter>
								<parameter authoringApp="PremierePro">
									<parameterid>speed</parameterid>
									<name>speed</name>
									<valuemin>-100000</valuemin>
									<valuemax>100000</valuemax>
									<value>200</value>
								</parameter>
								<parameter authoringApp="PremierePro">
									<parameterid>reverse</parameterid>
									<name>reverse</name>
									<value>FALSE</value>
								</parameter>
								<parameter authoringApp="PremierePro">
									<parameterid>frameblending</parameterid>
									<name>frameblending</name>
									<value>FALSE</value>
								</parameter>
								<parameter authoringApp="PremierePro">
									<parameterid>graphdict</parameterid>
									<name>graphdict</name>
									<valuemin>0</valuemin>
									<valuemax>32</valuemax>
									<value>0</value>
									<keyframe>
										<when>0</when>
										<value>0</value>
										<speedvirtualkf>TRUE</speedvirtualkf>
										<speedkfstart>TRUE</speedkfstart>
									</keyframe>
									<keyframe>
										<when>2</when>
										<value>4</value>
										<speedvirtualkf>TRUE</speedvirtualkf>
										<speedkfin>TRUE</speedkfin>
									</keyframe>
									<keyframe>
										<when>14</when>
										<value>28</value>
										<speedvirtualkf>TRUE</speedvirtualkf>
										<speedkfout>TRUE</speedkfout>
									</keyframe>
									<keyframe>
										<when>16</when>
										<value>32</value>
										<speedvirtualkf>TRUE</speedvirtualkf>
										<speedkfend>TRUE</speedkfend>
									</keyframe>
									<interpolation>
										<name>FCPCurve</name>
									</interpolation>
								</parameter>
							</effect>
						</filter>
						<logginginfo>
							<description></description>
							<scene></scene>
							<shottake></shottake>
							<lognote></lognote>
							<good></good>
							<originalvideofilename></originalvideofilename>
							<originalaudiofilename></originalaudiofilename>
						</logginginfo>
						<colorinfo>
							<lut></lut>
							<lut1></lut1>
							<asc_sop></asc_sop>
							<asc_sat></asc_sat>
							<lut2></lut2>
						</colorinfo>
						<labels>
							<label2>Violet</label2>
						</labels>
					</clipitem>
					<clipitem id="clipitem-899">
						<masterclipid>masterclip-896</masterclipid>
						<name>TKO_015_CRA_Sh09410.mov</name>
						<enabled>TRUE</enabled>
						<duration>40</duration>
						<rate>
							<timebase>24</timebase>
							<ntsc>TRUE</ntsc>
						</rate>
						<start>70357</start>
						<end>70389</end>
						<in>4</in>
						<out>36</out>
						<pproTicksIn>42378336000</pproTicksIn>
						<pproTicksOut>381405024000</pproTicksOut>
						<alphatype>none</alphatype>
						<pixelaspectratio>square</pixelaspectratio>
						<anamorphic>FALSE</anamorphic>
						<file id="file-896">
							<name>TKO_015_CRA_Sh09410.mov</name>
							<pathurl>file://tri-stor01/Projects/TKO/SHOTS/_Refs_Movs_Burnin_FrameCounter/TKO_015_CRA_Sh09410.mov</pathurl>
							<rate>
								<timebase>24</timebase>
								<ntsc>TRUE</ntsc>
							</rate>
							<duration>40</duration>
							<timecode>
								<rate>
									<timebase>24</timebase>
									<ntsc>TRUE</ntsc>
								</rate>
								<string>00:39:17:00</string>
								<frame>56568</frame>
								<displayformat>NDF</displayformat>
							</timecode>
							<media>
								<video>
									<samplecharacteristics>
										<rate>
											<timebase>24</timebase>
											<ntsc>TRUE</ntsc>
										</rate>
										<width>1280</width>
										<height>720</height>
										<anamorphic>FALSE</anamorphic>
										<pixelaspectratio>square</pixelaspectratio>
										<fielddominance>none</fielddominance>
									</samplecharacteristics>
								</video>
							</media>
						</file>
						<logginginfo>
							<description></description>
							<scene></scene>
							<shottake></shottake>
							<lognote></lognote>
							<good></good>
							<originalvideofilename></originalvideofilename>
							<originalaudiofilename></originalaudiofilename>
						</logginginfo>
						<colorinfo>
							<lut></lut>
							<lut1></lut1>
							<asc_sop></asc_sop>
							<asc_sat></asc_sat>
							<lut2></lut2>
						</colorinfo>
						<labels>
							<label2>Violet</label2>
						</labels>
					</clipitem>
					<clipitem id="clipitem-900">
						<masterclipid>masterclip-897</masterclipid>
						<name>TKO_015_CRA_Sh09420.mov</name>
						<enabled>TRUE</enabled>
						<duration>35</duration>
						<rate>
							<timebase>24</timebase>
							<ntsc>TRUE</ntsc>
						</rate>
						<start>70389</start>
						<end>70416</end>
						<in>4</in>
						<out>31</out>
						<pproTicksIn>42378336000</pproTicksIn>
						<pproTicksOut>328432104000</pproTicksOut>
						<alphatype>none</alphatype>
						<pixelaspectratio>square</pixelaspectratio>
						<anamorphic>FALSE</anamorphic>
						<file id="file-897">
							<name>TKO_015_CRA_Sh09420.mov</name>
							<pathurl>file://tri-stor01/Projects/TKO/SHOTS/_Refs_Movs_Burnin_FrameCounter/TKO_015_CRA_Sh09420.mov</pathurl>
							<rate>
								<timebase>24</timebase>
								<ntsc>TRUE</ntsc>
							</rate>
							<duration>35</duration>
							<timecode>
								<rate>
									<timebase>24</timebase>
									<ntsc>TRUE</ntsc>
								</rate>
								<string>00:39:18:08</string>
								<frame>56600</frame>
								<displayformat>NDF</displayformat>
							</timecode>
							<media>
								<video>
									<samplecharacteristics>
										<rate>
											<timebase>24</timebase>
											<ntsc>TRUE</ntsc>
										</rate>
										<width>1280</width>
										<height>720</height>
										<anamorphic>FALSE</anamorphic>
										<pixelaspectratio>square</pixelaspectratio>
										<fielddominance>none</fielddominance>
									</samplecharacteristics>
								</video>
							</media>
						</file>
						<logginginfo>
							<description></description>
							<scene></scene>
							<shottake></shottake>
							<lognote></lognote>
							<good></good>
							<originalvideofilename></originalvideofilename>
							<originalaudiofilename></originalaudiofilename>
						</logginginfo>
						<colorinfo>
							<lut></lut>
							<lut1></lut1>
							<asc_sop></asc_sop>
							<asc_sat></asc_sat>
							<lut2></lut2>
						</colorinfo>
						<labels>
							<label2>Violet</label2>
						</labels>
					</clipitem>
					<clipitem id="clipitem-901">
						<masterclipid>masterclip-898</masterclipid>
						<name>TKO_015_CRA_Sh09430.mov</name>
						<enabled>TRUE</enabled>
						<duration>18</duration>
						<rate>
							<timebase>24</timebase>
							<ntsc>TRUE</ntsc>
						</rate>
						<start>70416</start>
						<end>70426</end>
						<in>4</in>
						<out>14</out>
						<pproTicksIn>42378336000</pproTicksIn>
						<pproTicksOut>148324176000</pproTicksOut>
						<alphatype>none</alphatype>
						<pixelaspectratio>square</pixelaspectratio>
						<anamorphic>FALSE</anamorphic>
						<file id="file-898">
							<name>TKO_015_CRA_Sh09430.mov</name>
							<pathurl>file://tri-stor01/Projects/TKO/SHOTS/_Refs_Movs_Burnin_FrameCounter/TKO_015_CRA_Sh09430.mov</pathurl>
							<rate>
								<timebase>24</timebase>
								<ntsc>TRUE</ntsc>
							</rate>
							<duration>18</duration>
							<timecode>
								<rate>
									<timebase>24</timebase>
									<ntsc>TRUE</ntsc>
								</rate>
								<string>17:35:33:04</string>
								<frame>1519996</frame>
								<displayformat>NDF</displayformat>
								<reel>
									<name>A0150001</name>
								</reel>
							</timecode>
							<media>
								<video>
									<samplecharacteristics>
										<rate>
											<timebase>24</timebase>
											<ntsc>TRUE</ntsc>
										</rate>
										<width>4096</width>
										<height>2160</height>
										<anamorphic>FALSE</anamorphic>
										<pixelaspectratio>square</pixelaspectratio>
										<fielddominance>none</fielddominance>
									</samplecharacteristics>
								</video>
							</media>
						</file>
						<logginginfo>
							<description></description>
							<scene></scene>
							<shottake></shottake>
							<lognote></lognote>
							<good></good>
							<originalvideofilename></originalvideofilename>
							<originalaudiofilename></originalaudiofilename>
						</logginginfo>
						<colorinfo>
							<lut></lut>
							<lut1></lut1>
							<asc_sop></asc_sop>
							<asc_sat></asc_sat>
							<lut2></lut2>
						</colorinfo>
						<labels>
							<label2>Violet</label2>
						</labels>
					</clipitem>
					<clipitem id="clipitem-902">
						<masterclipid>masterclip-899</masterclipid>
						<name>TKO_015_CRA_Sh09440.mov</name>
						<enabled>TRUE</enabled>
						<duration>31</duration>
						<rate>
							<timebase>24</timebase>
							<ntsc>TRUE</ntsc>
						</rate>
						<start>70426</start>
						<end>70449</end>
						<in>4</in>
						<out>27</out>
						<pproTicksIn>42378336000</pproTicksIn>
						<pproTicksOut>286053768000</pproTicksOut>
						<alphatype>none</alphatype>
						<pixelaspectratio>square</pixelaspectratio>
						<anamorphic>FALSE</anamorphic>
						<file id="file-899">
							<name>TKO_015_CRA_Sh09440.mov</name>
							<pathurl>file://tri-stor01/Projects/TKO/SHOTS/_Refs_Movs_Burnin_FrameCounter/TKO_015_CRA_Sh09440.mov</pathurl>
							<rate>
								<timebase>24</timebase>
								<ntsc>TRUE</ntsc>
							</rate>
							<duration>31</duration>
							<timecode>
								<rate>
									<timebase>24</timebase>
									<ntsc>TRUE</ntsc>
								</rate>
								<string>04:08:33:09</string>
								<frame>357921</frame>
								<displayformat>NDF</displayformat>
								<reel>
									<name>C0080001</name>
								</reel>
							</timecode>
							<media>
								<video>
									<samplecharacteristics>
										<rate>
											<timebase>24</timebase>
											<ntsc>TRUE</ntsc>
										</rate>
										<width>3840</width>
										<height>2160</height>
										<anamorphic>FALSE</anamorphic>
										<pixelaspectratio>square</pixelaspectratio>
										<fielddominance>none</fielddominance>
									</samplecharacteristics>
								</video>
							</media>
						</file>
						<logginginfo>
							<description></description>
							<scene></scene>
							<shottake></shottake>
							<lognote></lognote>
							<good></good>
							<originalvideofilename></originalvideofilename>
							<originalaudiofilename></originalaudiofilename>
						</logginginfo>
						<colorinfo>
							<lut></lut>
							<lut1></lut1>
							<asc_sop></asc_sop>
							<asc_sat></asc_sat>
							<lut2></lut2>
						</colorinfo>
						<labels>
							<label2>Violet</label2>
						</labels>
					</clipitem>
					<clipitem id="clipitem-903">
						<masterclipid>masterclip-900</masterclipid>
						<name>TKO_015_CRA_Sh09450.mov</name>
						<enabled>TRUE</enabled>
						<duration>33</duration>
						<rate>
							<timebase>24</timebase>
							<ntsc>TRUE</ntsc>
						</rate>
						<start>70449</start>
						<end>70474</end>
						<in>4</in>
						<out>29</out>
						<pproTicksIn>42378336000</pproTicksIn>
						<pproTicksOut>307242936000</pproTicksOut>
						<alphatype>none</alphatype>
						<pixelaspectratio>square</pixelaspectratio>
						<anamorphic>FALSE</anamorphic>
						<file id="file-900">
							<name>TKO_015_CRA_Sh09450.mov</name>
							<pathurl>file://tri-stor01/Projects/TKO/SHOTS/_Refs_Movs_Burnin_FrameCounter/TKO_015_CRA_Sh09450.mov</pathurl>
							<rate>
								<timebase>24</timebase>
								<ntsc>TRUE</ntsc>
							</rate>
							<duration>33</duration>
							<timecode>
								<rate>
									<timebase>24</timebase>
									<ntsc>TRUE</ntsc>
								</rate>
								<string>17:35:34:13</string>
								<frame>1520029</frame>
								<displayformat>NDF</displayformat>
								<reel>
									<name>B0120001</name>
								</reel>
							</timecode>
							<media>
								<video>
									<samplecharacteristics>
										<rate>
											<timebase>24</timebase>
											<ntsc>TRUE</ntsc>
										</rate>
										<width>4096</width>
										<height>2160</height>
										<anamorphic>FALSE</anamorphic>
										<pixelaspectratio>square</pixelaspectratio>
										<fielddominance>none</fielddominance>
									</samplecharacteristics>
								</video>
							</media>
						</file>
						<logginginfo>
							<description></description>
							<scene></scene>
							<shottake></shottake>
							<lognote></lognote>
							<good></good>
							<originalvideofilename></originalvideofilename>
							<originalaudiofilename></originalaudiofilename>
						</logginginfo>
						<colorinfo>
							<lut></lut>
							<lut1></lut1>
							<asc_sop></asc_sop>
							<asc_sat></asc_sat>
							<lut2></lut2>
						</colorinfo>
						<labels>
							<label2>Violet</label2>
						</labels>
					</clipitem>
					<clipitem id="clipitem-904">
						<masterclipid>masterclip-901</masterclipid>
						<name>TKO_015_CRA_Sh09460.mov</name>
						<enabled>TRUE</enabled>
						<duration>69</duration>
						<rate>
							<timebase>24</timebase>
							<ntsc>TRUE</ntsc>
						</rate>
						<start>70474</start>
						<end>70535</end>
						<in>4</in>
						<out>65</out>
						<pproTicksIn>42378336000</pproTicksIn>
						<pproTicksOut>688647960000</pproTicksOut>
						<alphatype>none</alphatype>
						<pixelaspectratio>square</pixelaspectratio>
						<anamorphic>FALSE</anamorphic>
						<file id="file-901">
							<name>TKO_015_CRA_Sh09460.mov</name>
							<pathurl>file://tri-stor01/Projects/TKO/SHOTS/_Refs_Movs_Burnin_FrameCounter/TKO_015_CRA_Sh09460.mov</pathurl>
							<rate>
								<timebase>24</timebase>
								<ntsc>TRUE</ntsc>
							</rate>
							<duration>69</duration>
							<timecode>
								<rate>
									<timebase>24</timebase>
									<ntsc>TRUE</ntsc>
								</rate>
								<string>00:39:20:16</string>
								<frame>56656</frame>
								<displayformat>NDF</displayformat>
							</timecode>
							<media>
								<video>
									<samplecharacteristics>
										<rate>
											<timebase>24</timebase>
											<ntsc>TRUE</ntsc>
										</rate>
										<width>1280</width>
										<height>720</height>
										<anamorphic>FALSE</anamorphic>
										<pixelaspectratio>square</pixelaspectratio>
										<fielddominance>none</fielddominance>
									</samplecharacteristics>
								</video>
							</media>
						</file>
						<logginginfo>
							<description></description>
							<scene></scene>
							<shottake></shottake>
							<lognote></lognote>
							<good></good>
							<originalvideofilename></originalvideofilename>
							<originalaudiofilename></originalaudiofilename>
						</logginginfo>
						<colorinfo>
							<lut></lut>
							<lut1></lut1>
							<asc_sop></asc_sop>
							<asc_sat></asc_sat>
							<lut2></lut2>
						</colorinfo>
						<labels>
							<label2>Violet</label2>
						</labels>
					</clipitem>
					<clipitem id="clipitem-905">
						<masterclipid>masterclip-902</masterclipid>
						<name>TKO_015_CRA_Sh09470.mov</name>
						<enabled>TRUE</enabled>
						<duration>77</duration>
						<rate>
							<timebase>24</timebase>
							<ntsc>TRUE</ntsc>
						</rate>
						<start>70535</start>
						<end>70604</end>
						<in>4</in>
						<out>73</out>
						<pproTicksIn>42378336000</pproTicksIn>
						<pproTicksOut>773404632000</pproTicksOut>
						<alphatype>none</alphatype>
						<pixelaspectratio>square</pixelaspectratio>
						<anamorphic>FALSE</anamorphic>
						<file id="file-902">
							<name>TKO_015_CRA_Sh09470.mov</name>
							<pathurl>file://tri-stor01/Projects/TKO/SHOTS/_Refs_Movs_Burnin_FrameCounter/TKO_015_CRA_Sh09470.mov</pathurl>
							<rate>
								<timebase>24</timebase>
								<ntsc>TRUE</ntsc>
							</rate>
							<duration>77</duration>
							<timecode>
								<rate>
									<timebase>24</timebase>
									<ntsc>TRUE</ntsc>
								</rate>
								<string>19:00:25:04</string>
								<frame>1642204</frame>
								<displayformat>NDF</displayformat>
								<reel>
									<name>A0090012</name>
								</reel>
							</timecode>
							<media>
								<video>
									<samplecharacteristics>
										<rate>
											<timebase>24</timebase>
											<ntsc>TRUE</ntsc>
										</rate>
										<width>4096</width>
										<height>2160</height>
										<anamorphic>FALSE</anamorphic>
										<pixelaspectratio>square</pixelaspectratio>
										<fielddominance>none</fielddominance>
									</samplecharacteristics>
								</video>
							</media>
						</file>
						<logginginfo>
							<description></description>
							<scene></scene>
							<shottake></shottake>
							<lognote></lognote>
							<good></good>
							<originalvideofilename></originalvideofilename>
							<originalaudiofilename></originalaudiofilename>
						</logginginfo>
						<colorinfo>
							<lut></lut>
							<lut1></lut1>
							<asc_sop></asc_sop>
							<asc_sat></asc_sat>
							<lut2></lut2>
						</colorinfo>
						<labels>
							<label2>Violet</label2>
						</labels>
					</clipitem>
					<clipitem id="clipitem-906">
						<masterclipid>masterclip-903</masterclipid>
						<name>TKO_015_CRA_Sh09480.mov</name>
						<enabled>TRUE</enabled>
						<duration>59</duration>
						<rate>
							<timebase>24</timebase>
							<ntsc>TRUE</ntsc>
						</rate>
						<start>70604</start>
						<end>70655</end>
						<in>4</in>
						<out>55</out>
						<pproTicksIn>42378336000</pproTicksIn>
						<pproTicksOut>582702120000</pproTicksOut>
						<alphatype>none</alphatype>
						<pixelaspectratio>square</pixelaspectratio>
						<anamorphic>FALSE</anamorphic>
						<file id="file-903">
							<name>TKO_015_CRA_Sh09480.mov</name>
							<pathurl>file://tri-stor01/Projects/TKO/SHOTS/_Refs_Movs_Burnin_FrameCounter/TKO_015_CRA_Sh09480.mov</pathurl>
							<rate>
								<timebase>24</timebase>
								<ntsc>TRUE</ntsc>
							</rate>
							<duration>59</duration>
							<timecode>
								<rate>
									<timebase>24</timebase>
									<ntsc>TRUE</ntsc>
								</rate>
								<string>19:00:28:10</string>
								<frame>1642282</frame>
								<displayformat>NDF</displayformat>
								<reel>
									<name>B0060014</name>
								</reel>
							</timecode>
							<media>
								<video>
									<samplecharacteristics>
										<rate>
											<timebase>24</timebase>
											<ntsc>TRUE</ntsc>
										</rate>
										<width>4096</width>
										<height>2160</height>
										<anamorphic>FALSE</anamorphic>
										<pixelaspectratio>square</pixelaspectratio>
										<fielddominance>none</fielddominance>
									</samplecharacteristics>
								</video>
							</media>
						</file>
						<logginginfo>
							<description></description>
							<scene></scene>
							<shottake></shottake>
							<lognote></lognote>
							<good></good>
							<originalvideofilename></originalvideofilename>
							<originalaudiofilename></originalaudiofilename>
						</logginginfo>
						<colorinfo>
							<lut></lut>
							<lut1></lut1>
							<asc_sop></asc_sop>
							<asc_sat></asc_sat>
							<lut2></lut2>
						</colorinfo>
						<labels>
							<label2>Violet</label2>
						</labels>
					</clipitem>
					<clipitem id="clipitem-907">
						<masterclipid>masterclip-904</masterclipid>
						<name>TKO_015_CRA_Sh09490.mov</name>
						<enabled>TRUE</enabled>
						<duration>21</duration>
						<rate>
							<timebase>24</timebase>
							<ntsc>TRUE</ntsc>
						</rate>
						<start>70655</start>
						<end>70668</end>
						<in>4</in>
						<out>17</out>
						<pproTicksIn>42378336000</pproTicksIn>
						<pproTicksOut>180107928000</pproTicksOut>
						<alphatype>none</alphatype>
						<pixelaspectratio>square</pixelaspectratio>
						<anamorphic>FALSE</anamorphic>
						<file id="file-904">
							<name>TKO_015_CRA_Sh09490.mov</name>
							<pathurl>file://tri-stor01/Projects/TKO/SHOTS/_Refs_Movs_Burnin_FrameCounter/TKO_015_CRA_Sh09490.mov</pathurl>
							<rate>
								<timebase>24</timebase>
								<ntsc>TRUE</ntsc>
							</rate>
							<duration>21</duration>
							<timecode>
								<rate>
									<timebase>24</timebase>
									<ntsc>TRUE</ntsc>
								</rate>
								<string>19:18:53:23</string>
								<frame>1668815</frame>
								<displayformat>NDF</displayformat>
								<reel>
									<name>A0090013</name>
								</reel>
							</timecode>
							<media>
								<video>
									<samplecharacteristics>
										<rate>
											<timebase>24</timebase>
											<ntsc>TRUE</ntsc>
										</rate>
										<width>4096</width>
										<height>2160</height>
										<anamorphic>FALSE</anamorphic>
										<pixelaspectratio>square</pixelaspectratio>
										<fielddominance>none</fielddominance>
									</samplecharacteristics>
								</video>
							</media>
						</file>
						<logginginfo>
							<description></description>
							<scene></scene>
							<shottake></shottake>
							<lognote></lognote>
							<good></good>
							<originalvideofilename></originalvideofilename>
							<originalaudiofilename></originalaudiofilename>
						</logginginfo>
						<colorinfo>
							<lut></lut>
							<lut1></lut1>
							<asc_sop></asc_sop>
							<asc_sat></asc_sat>
							<lut2></lut2>
						</colorinfo>
						<labels>
							<label2>Violet</label2>
						</labels>
					</clipitem>
					<clipitem id="clipitem-908">
						<masterclipid>masterclip-905</masterclipid>
						<name>TKO_015_CRA_Sh09500.mov</name>
						<enabled>TRUE</enabled>
						<duration>17</duration>
						<rate>
							<timebase>24</timebase>
							<ntsc>TRUE</ntsc>
						</rate>
						<start>70668</start>
						<end>70677</end>
						<in>4</in>
						<out>13</out>
						<pproTicksIn>42378336000</pproTicksIn>
						<pproTicksOut>137729592000</pproTicksOut>
						<alphatype>none</alphatype>
						<pixelaspectratio>square</pixelaspectratio>
						<anamorphic>FALSE</anamorphic>
						<file id="file-905">
							<name>TKO_015_CRA_Sh09500.mov</name>
							<pathurl>file://tri-stor01/Projects/TKO/SHOTS/_Refs_Movs_Burnin_FrameCounter/TKO_015_CRA_Sh09500.mov</pathurl>
							<rate>
								<timebase>24</timebase>
								<ntsc>TRUE</ntsc>
							</rate>
							<duration>17</duration>
							<timecode>
								<rate>
									<timebase>24</timebase>
									<ntsc>TRUE</ntsc>
								</rate>
								<string>02:52:55:16</string>
								<frame>249016</frame>
								<displayformat>NDF</displayformat>
								<reel>
									<name>C0040012</name>
								</reel>
							</timecode>
							<media>
								<video>
									<samplecharacteristics>
										<rate>
											<timebase>24</timebase>
											<ntsc>TRUE</ntsc>
										</rate>
										<width>3840</width>
										<height>2160</height>
										<anamorphic>FALSE</anamorphic>
										<pixelaspectratio>square</pixelaspectratio>
										<fielddominance>none</fielddominance>
									</samplecharacteristics>
								</video>
							</media>
						</file>
						<logginginfo>
							<description></description>
							<scene></scene>
							<shottake></shottake>
							<lognote></lognote>
							<good></good>
							<originalvideofilename></originalvideofilename>
							<originalaudiofilename></originalaudiofilename>
						</logginginfo>
						<colorinfo>
							<lut></lut>
							<lut1></lut1>
							<asc_sop></asc_sop>
							<asc_sat></asc_sat>
							<lut2></lut2>
						</colorinfo>
						<labels>
							<label2>Violet</label2>
						</labels>
					</clipitem>
					<clipitem id="clipitem-909">
						<masterclipid>masterclip-906</masterclipid>
						<name>TKO_015_CRA_Sh09510.mov</name>
						<enabled>TRUE</enabled>
						<duration>19</duration>
						<rate>
							<timebase>24</timebase>
							<ntsc>TRUE</ntsc>
						</rate>
						<start>70677</start>
						<end>70688</end>
						<in>4</in>
						<out>15</out>
						<pproTicksIn>42378336000</pproTicksIn>
						<pproTicksOut>158918760000</pproTicksOut>
						<alphatype>none</alphatype>
						<pixelaspectratio>square</pixelaspectratio>
						<anamorphic>FALSE</anamorphic>
						<file id="file-906">
							<name>TKO_015_CRA_Sh09510.mov</name>
							<pathurl>file://tri-stor01/Projects/TKO/SHOTS/_Refs_Movs_Burnin_FrameCounter/TKO_015_CRA_Sh09510.mov</pathurl>
							<rate>
								<timebase>24</timebase>
								<ntsc>TRUE</ntsc>
							</rate>
							<duration>19</duration>
							<timecode>
								<rate>
									<timebase>24</timebase>
									<ntsc>TRUE</ntsc>
								</rate>
								<string>19:01:09:03</string>
								<frame>1643259</frame>
								<displayformat>NDF</displayformat>
								<reel>
									<name>A0090012</name>
								</reel>
							</timecode>
							<media>
								<video>
									<samplecharacteristics>
										<rate>
											<timebase>24</timebase>
											<ntsc>TRUE</ntsc>
										</rate>
										<width>4096</width>
										<height>2160</height>
										<anamorphic>FALSE</anamorphic>
										<pixelaspectratio>square</pixelaspectratio>
										<fielddominance>none</fielddominance>
									</samplecharacteristics>
								</video>
							</media>
						</file>
						<logginginfo>
							<description></description>
							<scene></scene>
							<shottake></shottake>
							<lognote></lognote>
							<good></good>
							<originalvideofilename></originalvideofilename>
							<originalaudiofilename></originalaudiofilename>
						</logginginfo>
						<colorinfo>
							<lut></lut>
							<lut1></lut1>
							<asc_sop></asc_sop>
							<asc_sat></asc_sat>
							<lut2></lut2>
						</colorinfo>
						<labels>
							<label2>Violet</label2>
						</labels>
					</clipitem>
					<clipitem id="clipitem-910">
						<masterclipid>masterclip-907</masterclipid>
						<name>TKO_015_CRA_Sh09520.mov</name>
						<enabled>TRUE</enabled>
						<duration>19</duration>
						<rate>
							<timebase>24</timebase>
							<ntsc>TRUE</ntsc>
						</rate>
						<start>70688</start>
						<end>70699</end>
						<in>4</in>
						<out>15</out>
						<pproTicksIn>42378336000</pproTicksIn>
						<pproTicksOut>158918760000</pproTicksOut>
						<alphatype>none</alphatype>
						<pixelaspectratio>square</pixelaspectratio>
						<anamorphic>FALSE</anamorphic>
						<file id="file-907">
							<name>TKO_015_CRA_Sh09520.mov</name>
							<pathurl>file://tri-stor01/Projects/TKO/SHOTS/_Refs_Movs_Burnin_FrameCounter/TKO_015_CRA_Sh09520.mov</pathurl>
							<rate>
								<timebase>24</timebase>
								<ntsc>TRUE</ntsc>
							</rate>
							<duration>19</duration>
							<timecode>
								<rate>
									<timebase>24</timebase>
									<ntsc>TRUE</ntsc>
								</rate>
								<string>02:52:26:16</string>
								<frame>248320</frame>
								<displayformat>NDF</displayformat>
								<reel>
									<name>C0040012</name>
								</reel>
							</timecode>
							<media>
								<video>
									<samplecharacteristics>
										<rate>
											<timebase>24</timebase>
											<ntsc>TRUE</ntsc>
										</rate>
										<width>3840</width>
										<height>2160</height>
										<anamorphic>FALSE</anamorphic>
										<pixelaspectratio>square</pixelaspectratio>
										<fielddominance>none</fielddominance>
									</samplecharacteristics>
								</video>
							</media>
						</file>
						<logginginfo>
							<description></description>
							<scene></scene>
							<shottake></shottake>
							<lognote></lognote>
							<good></good>
							<originalvideofilename></originalvideofilename>
							<originalaudiofilename></originalaudiofilename>
						</logginginfo>
						<colorinfo>
							<lut></lut>
							<lut1></lut1>
							<asc_sop></asc_sop>
							<asc_sat></asc_sat>
							<lut2></lut2>
						</colorinfo>
						<labels>
							<label2>Violet</label2>
						</labels>
					</clipitem>
					<clipitem id="clipitem-911">
						<masterclipid>masterclip-908</masterclipid>
						<name>TKO_015_CRA_Sh09530.mov</name>
						<enabled>TRUE</enabled>
						<duration>53</duration>
						<rate>
							<timebase>24</timebase>
							<ntsc>TRUE</ntsc>
						</rate>
						<start>70699</start>
						<end>70716</end>
						<in>32</in>
						<out>49</out>
						<pproTicksIn>339026688000</pproTicksIn>
						<pproTicksOut>519134616000</pproTicksOut>
						<alphatype>none</alphatype>
						<pixelaspectratio>square</pixelaspectratio>
						<anamorphic>FALSE</anamorphic>
						<file id="file-908">
							<name>TKO_015_CRA_Sh09530.mov</name>
							<pathurl>file://tri-stor01/Projects/TKO/SHOTS/_Refs_Movs_Burnin_FrameCounter/TKO_015_CRA_Sh09530.mov</pathurl>
							<rate>
								<timebase>24</timebase>
								<ntsc>TRUE</ntsc>
							</rate>
							<duration>53</duration>
							<timecode>
								<rate>
									<timebase>24</timebase>
									<ntsc>TRUE</ntsc>
								</rate>
								<string>19:20:16:00</string>
								<frame>1670784</frame>
								<displayformat>NDF</displayformat>
								<reel>
									<name>A0090013</name>
								</reel>
							</timecode>
							<media>
								<video>
									<samplecharacteristics>
										<rate>
											<timebase>24</timebase>
											<ntsc>TRUE</ntsc>
										</rate>
										<width>4096</width>
										<height>2160</height>
										<anamorphic>FALSE</anamorphic>
										<pixelaspectratio>square</pixelaspectratio>
										<fielddominance>none</fielddominance>
									</samplecharacteristics>
								</video>
							</media>
						</file>
						<logginginfo>
							<description></description>
							<scene></scene>
							<shottake></shottake>
							<lognote></lognote>
							<good></good>
							<originalvideofilename></originalvideofilename>
							<originalaudiofilename></originalaudiofilename>
						</logginginfo>
						<colorinfo>
							<lut></lut>
							<lut1></lut1>
							<asc_sop></asc_sop>
							<asc_sat></asc_sat>
							<lut2></lut2>
						</colorinfo>
						<labels>
							<label2>Violet</label2>
						</labels>
					</clipitem>
					<clipitem id="clipitem-912">
						<masterclipid>masterclip-909</masterclipid>
						<name>TKO_015_CRA_Sh09540.mov</name>
						<enabled>TRUE</enabled>
						<duration>18</duration>
						<rate>
							<timebase>24</timebase>
							<ntsc>TRUE</ntsc>
						</rate>
						<start>70716</start>
						<end>70726</end>
						<in>4</in>
						<out>14</out>
						<pproTicksIn>42378336000</pproTicksIn>
						<pproTicksOut>148324176000</pproTicksOut>
						<alphatype>none</alphatype>
						<pixelaspectratio>square</pixelaspectratio>
						<anamorphic>FALSE</anamorphic>
						<file id="file-909">
							<name>TKO_015_CRA_Sh09540.mov</name>
							<pathurl>file://tri-stor01/Projects/TKO/SHOTS/_Refs_Movs_Burnin_FrameCounter/TKO_015_CRA_Sh09540.mov</pathurl>
							<rate>
								<timebase>24</timebase>
								<ntsc>TRUE</ntsc>
							</rate>
							<duration>18</duration>
							<timecode>
								<rate>
									<timebase>24</timebase>
									<ntsc>TRUE</ntsc>
								</rate>
								<string>00:37:49:09</string>
								<frame>54465</frame>
								<displayformat>NDF</displayformat>
							</timecode>
							<media>
								<video>
									<samplecharacteristics>
										<rate>
											<timebase>24</timebase>
											<ntsc>TRUE</ntsc>
										</rate>
										<width>1280</width>
										<height>720</height>
										<anamorphic>FALSE</anamorphic>
										<pixelaspectratio>square</pixelaspectratio>
										<fielddominance>none</fielddominance>
									</samplecharacteristics>
								</video>
							</media>
						</file>
						<logginginfo>
							<description></description>
							<scene></scene>
							<shottake></shottake>
							<lognote></lognote>
							<good></good>
							<originalvideofilename></originalvideofilename>
							<originalaudiofilename></originalaudiofilename>
						</logginginfo>
						<colorinfo>
							<lut></lut>
							<lut1></lut1>
							<asc_sop></asc_sop>
							<asc_sat></asc_sat>
							<lut2></lut2>
						</colorinfo>
						<labels>
							<label2>Violet</label2>
						</labels>
					</clipitem>
					<clipitem id="clipitem-913">
						<masterclipid>masterclip-910</masterclipid>
						<name>TKO_015_CRA_Sh09550.mov</name>
						<enabled>TRUE</enabled>
						<duration>27</duration>
						<rate>
							<timebase>24</timebase>
							<ntsc>TRUE</ntsc>
						</rate>
						<start>70726</start>
						<end>70745</end>
						<in>4</in>
						<out>23</out>
						<pproTicksIn>42378336000</pproTicksIn>
						<pproTicksOut>243675432000</pproTicksOut>
						<alphatype>none</alphatype>
						<pixelaspectratio>square</pixelaspectratio>
						<anamorphic>FALSE</anamorphic>
						<file id="file-910">
							<name>TKO_015_CRA_Sh09550.mov</name>
							<pathurl>file://tri-stor01/Projects/TKO/SHOTS/_Refs_Movs_Burnin_FrameCounter/TKO_015_CRA_Sh09550.mov</pathurl>
							<rate>
								<timebase>24</timebase>
								<ntsc>TRUE</ntsc>
							</rate>
							<duration>27</duration>
							<timecode>
								<rate>
									<timebase>24</timebase>
									<ntsc>TRUE</ntsc>
								</rate>
								<string>19:00:34:02</string>
								<frame>1642418</frame>
								<displayformat>NDF</displayformat>
								<reel>
									<name>B0060014</name>
								</reel>
							</timecode>
							<media>
								<video>
									<samplecharacteristics>
										<rate>
											<timebase>24</timebase>
											<ntsc>TRUE</ntsc>
										</rate>
										<width>4096</width>
										<height>2160</height>
										<anamorphic>FALSE</anamorphic>
										<pixelaspectratio>square</pixelaspectratio>
										<fielddominance>none</fielddominance>
									</samplecharacteristics>
								</video>
							</media>
						</file>
						<logginginfo>
							<description></description>
							<scene></scene>
							<shottake></shottake>
							<lognote></lognote>
							<good></good>
							<originalvideofilename></originalvideofilename>
							<originalaudiofilename></originalaudiofilename>
						</logginginfo>
						<colorinfo>
							<lut></lut>
							<lut1></lut1>
							<asc_sop></asc_sop>
							<asc_sat></asc_sat>
							<lut2></lut2>
						</colorinfo>
						<labels>
							<label2>Violet</label2>
						</labels>
					</clipitem>
					<clipitem id="clipitem-914">
						<masterclipid>masterclip-911</masterclipid>
						<name>TKO_015_CRA_Sh09560.mov</name>
						<enabled>TRUE</enabled>
						<duration>32</duration>
						<rate>
							<timebase>24</timebase>
							<ntsc>TRUE</ntsc>
						</rate>
						<start>70745</start>
						<end>70769</end>
						<in>4</in>
						<out>28</out>
						<pproTicksIn>42378336000</pproTicksIn>
						<pproTicksOut>296648352000</pproTicksOut>
						<alphatype>none</alphatype>
						<pixelaspectratio>square</pixelaspectratio>
						<anamorphic>FALSE</anamorphic>
						<file id="file-911">
							<name>TKO_015_CRA_Sh09560.mov</name>
							<pathurl>file://tri-stor01/Projects/TKO/SHOTS/_Refs_Movs_Burnin_FrameCounter/TKO_015_CRA_Sh09560.mov</pathurl>
							<rate>
								<timebase>24</timebase>
								<ntsc>TRUE</ntsc>
							</rate>
							<duration>32</duration>
							<timecode>
								<rate>
									<timebase>24</timebase>
									<ntsc>TRUE</ntsc>
								</rate>
								<string>19:20:18:22</string>
								<frame>1670854</frame>
								<displayformat>NDF</displayformat>
								<reel>
									<name>B0060015</name>
								</reel>
							</timecode>
							<media>
								<video>
									<samplecharacteristics>
										<rate>
											<timebase>24</timebase>
											<ntsc>TRUE</ntsc>
										</rate>
										<width>4096</width>
										<height>2160</height>
										<anamorphic>FALSE</anamorphic>
										<pixelaspectratio>square</pixelaspectratio>
										<fielddominance>none</fielddominance>
									</samplecharacteristics>
								</video>
							</media>
						</file>
						<logginginfo>
							<description></description>
							<scene></scene>
							<shottake></shottake>
							<lognote></lognote>
							<good></good>
							<originalvideofilename></originalvideofilename>
							<originalaudiofilename></originalaudiofilename>
						</logginginfo>
						<colorinfo>
							<lut></lut>
							<lut1></lut1>
							<asc_sop></asc_sop>
							<asc_sat></asc_sat>
							<lut2></lut2>
						</colorinfo>
						<labels>
							<label2>Violet</label2>
						</labels>
					</clipitem>
					<clipitem id="clipitem-915">
						<masterclipid>masterclip-912</masterclipid>
						<name>TKO_015_CRA_Sh09580.mov</name>
						<enabled>TRUE</enabled>
						<duration>58</duration>
						<rate>
							<timebase>24</timebase>
							<ntsc>TRUE</ntsc>
						</rate>
						<start>70769</start>
						<end>70819</end>
						<in>4</in>
						<out>54</out>
						<pproTicksIn>42378336000</pproTicksIn>
						<pproTicksOut>572107536000</pproTicksOut>
						<alphatype>none</alphatype>
						<pixelaspectratio>square</pixelaspectratio>
						<anamorphic>FALSE</anamorphic>
						<file id="file-912">
							<name>TKO_015_CRA_Sh09580.mov</name>
							<pathurl>file://tri-stor01/Projects/TKO/SHOTS/_Refs_Movs_Burnin_FrameCounter/TKO_015_CRA_Sh09580.mov</pathurl>
							<rate>
								<timebase>24</timebase>
								<ntsc>TRUE</ntsc>
							</rate>
							<duration>58</duration>
							<timecode>
								<rate>
									<timebase>24</timebase>
									<ntsc>TRUE</ntsc>
								</rate>
								<string>00:39:34:03</string>
								<frame>56979</frame>
								<displayformat>NDF</displayformat>
							</timecode>
							<media>
								<video>
									<samplecharacteristics>
										<rate>
											<timebase>24</timebase>
											<ntsc>TRUE</ntsc>
										</rate>
										<width>1280</width>
										<height>720</height>
										<anamorphic>FALSE</anamorphic>
										<pixelaspectratio>square</pixelaspectratio>
										<fielddominance>none</fielddominance>
									</samplecharacteristics>
								</video>
							</media>
						</file>
						<logginginfo>
							<description></description>
							<scene></scene>
							<shottake></shottake>
							<lognote></lognote>
							<good></good>
							<originalvideofilename></originalvideofilename>
							<originalaudiofilename></originalaudiofilename>
						</logginginfo>
						<colorinfo>
							<lut></lut>
							<lut1></lut1>
							<asc_sop></asc_sop>
							<asc_sat></asc_sat>
							<lut2></lut2>
						</colorinfo>
						<labels>
							<label2>Violet</label2>
						</labels>
					</clipitem>
					<clipitem id="clipitem-916">
						<masterclipid>masterclip-913</masterclipid>
						<name>TKO_015_CRA_Sh09590.mov</name>
						<enabled>TRUE</enabled>
						<duration>59</duration>
						<rate>
							<timebase>24</timebase>
							<ntsc>TRUE</ntsc>
						</rate>
						<start>70819</start>
						<end>70870</end>
						<in>4</in>
						<out>55</out>
						<pproTicksIn>42378336000</pproTicksIn>
						<pproTicksOut>582702120000</pproTicksOut>
						<alphatype>none</alphatype>
						<pixelaspectratio>square</pixelaspectratio>
						<anamorphic>FALSE</anamorphic>
						<file id="file-913">
							<name>TKO_015_CRA_Sh09590.mov</name>
							<pathurl>file://tri-stor01/Projects/TKO/SHOTS/_Refs_Movs_Burnin_FrameCounter/TKO_015_CRA_Sh09590.mov</pathurl>
							<rate>
								<timebase>24</timebase>
								<ntsc>TRUE</ntsc>
							</rate>
							<duration>59</duration>
							<timecode>
								<rate>
									<timebase>24</timebase>
									<ntsc>TRUE</ntsc>
								</rate>
								<string>07:21:37:15</string>
								<frame>635943</frame>
								<displayformat>NDF</displayformat>
								<reel>
									<name>C0180004</name>
								</reel>
							</timecode>
							<media>
								<video>
									<samplecharacteristics>
										<rate>
											<timebase>24</timebase>
											<ntsc>TRUE</ntsc>
										</rate>
										<width>3840</width>
										<height>2160</height>
										<anamorphic>FALSE</anamorphic>
										<pixelaspectratio>square</pixelaspectratio>
										<fielddominance>none</fielddominance>
									</samplecharacteristics>
								</video>
							</media>
						</file>
						<logginginfo>
							<description></description>
							<scene></scene>
							<shottake></shottake>
							<lognote></lognote>
							<good></good>
							<originalvideofilename></originalvideofilename>
							<originalaudiofilename></originalaudiofilename>
						</logginginfo>
						<colorinfo>
							<lut></lut>
							<lut1></lut1>
							<asc_sop></asc_sop>
							<asc_sat></asc_sat>
							<lut2></lut2>
						</colorinfo>
						<labels>
							<label2>Violet</label2>
						</labels>
					</clipitem>
					<clipitem id="clipitem-917">
						<masterclipid>masterclip-914</masterclipid>
						<name>TKO_015_CRA_Sh09600.mov</name>
						<enabled>TRUE</enabled>
						<duration>120</duration>
						<rate>
							<timebase>24</timebase>
							<ntsc>TRUE</ntsc>
						</rate>
						<start>70870</start>
						<end>70982</end>
						<in>4</in>
						<out>116</out>
						<pproTicksIn>42378336000</pproTicksIn>
						<pproTicksOut>1228971744000</pproTicksOut>
						<alphatype>none</alphatype>
						<pixelaspectratio>square</pixelaspectratio>
						<anamorphic>FALSE</anamorphic>
						<file id="file-914">
							<name>TKO_015_CRA_Sh09600.mov</name>
							<pathurl>file://tri-stor01/Projects/TKO/SHOTS/_Refs_Movs_Burnin_FrameCounter/TKO_015_CRA_Sh09600.mov</pathurl>
							<rate>
								<timebase>24</timebase>
								<ntsc>TRUE</ntsc>
							</rate>
							<duration>120</duration>
							<timecode>
								<rate>
									<timebase>24</timebase>
									<ntsc>TRUE</ntsc>
								</rate>
								<string>07:27:00:20</string>
								<frame>643700</frame>
								<displayformat>NDF</displayformat>
								<reel>
									<name>C0180006</name>
								</reel>
							</timecode>
							<media>
								<video>
									<samplecharacteristics>
										<rate>
											<timebase>24</timebase>
											<ntsc>TRUE</ntsc>
										</rate>
										<width>3840</width>
										<height>2160</height>
										<anamorphic>FALSE</anamorphic>
										<pixelaspectratio>square</pixelaspectratio>
										<fielddominance>none</fielddominance>
									</samplecharacteristics>
								</video>
							</media>
						</file>
						<logginginfo>
							<description></description>
							<scene></scene>
							<shottake></shottake>
							<lognote></lognote>
							<good></good>
							<originalvideofilename></originalvideofilename>
							<originalaudiofilename></originalaudiofilename>
						</logginginfo>
						<colorinfo>
							<lut></lut>
							<lut1></lut1>
							<asc_sop></asc_sop>
							<asc_sat></asc_sat>
							<lut2></lut2>
						</colorinfo>
						<labels>
							<label2>Violet</label2>
						</labels>
					</clipitem>
					<clipitem id="clipitem-918">
						<masterclipid>masterclip-915</masterclipid>
						<name>TKO_015_CRA_Sh09610.mov</name>
						<enabled>TRUE</enabled>
						<duration>51</duration>
						<rate>
							<timebase>24</timebase>
							<ntsc>TRUE</ntsc>
						</rate>
						<start>70982</start>
						<end>71025</end>
						<in>4</in>
						<out>47</out>
						<pproTicksIn>42378336000</pproTicksIn>
						<pproTicksOut>497945448000</pproTicksOut>
						<alphatype>none</alphatype>
						<pixelaspectratio>square</pixelaspectratio>
						<anamorphic>FALSE</anamorphic>
						<file id="file-915">
							<name>TKO_015_CRA_Sh09610.mov</name>
							<pathurl>file://tri-stor01/Projects/TKO/SHOTS/_Refs_Movs_Burnin_FrameCounter/TKO_015_CRA_Sh09610.mov</pathurl>
							<rate>
								<timebase>24</timebase>
								<ntsc>TRUE</ntsc>
							</rate>
							<duration>51</duration>
							<timecode>
								<rate>
									<timebase>24</timebase>
									<ntsc>TRUE</ntsc>
								</rate>
								<string>07:21:19:09</string>
								<frame>635505</frame>
								<displayformat>NDF</displayformat>
								<reel>
									<name>C0180004</name>
								</reel>
							</timecode>
							<media>
								<video>
									<samplecharacteristics>
										<rate>
											<timebase>24</timebase>
											<ntsc>TRUE</ntsc>
										</rate>
										<width>3840</width>
										<height>2160</height>
										<anamorphic>FALSE</anamorphic>
										<pixelaspectratio>square</pixelaspectratio>
										<fielddominance>none</fielddominance>
									</samplecharacteristics>
								</video>
							</media>
						</file>
						<logginginfo>
							<description></description>
							<scene></scene>
							<shottake></shottake>
							<lognote></lognote>
							<good></good>
							<originalvideofilename></originalvideofilename>
							<originalaudiofilename></originalaudiofilename>
						</logginginfo>
						<colorinfo>
							<lut></lut>
							<lut1></lut1>
							<asc_sop></asc_sop>
							<asc_sat></asc_sat>
							<lut2></lut2>
						</colorinfo>
						<labels>
							<label2>Violet</label2>
						</labels>
					</clipitem>
					<clipitem id="clipitem-919">
						<masterclipid>masterclip-916</masterclipid>
						<name>TKO_015_CRA_Sh09620.mov</name>
						<enabled>TRUE</enabled>
						<duration>24</duration>
						<rate>
							<timebase>24</timebase>
							<ntsc>TRUE</ntsc>
						</rate>
						<start>71025</start>
						<end>71041</end>
						<in>4</in>
						<out>20</out>
						<pproTicksIn>42378336000</pproTicksIn>
						<pproTicksOut>211891680000</pproTicksOut>
						<alphatype>none</alphatype>
						<pixelaspectratio>square</pixelaspectratio>
						<anamorphic>FALSE</anamorphic>
						<file id="file-916">
							<name>TKO_015_CRA_Sh09620.mov</name>
							<pathurl>file://tri-stor01/Projects/TKO/SHOTS/_Refs_Movs_Burnin_FrameCounter/TKO_015_CRA_Sh09620.mov</pathurl>
							<rate>
								<timebase>24</timebase>
								<ntsc>TRUE</ntsc>
							</rate>
							<duration>24</duration>
							<timecode>
								<rate>
									<timebase>24</timebase>
									<ntsc>TRUE</ntsc>
								</rate>
								<string>07:21:21:21</string>
								<frame>635565</frame>
								<displayformat>NDF</displayformat>
								<reel>
									<name>C0180004</name>
								</reel>
							</timecode>
							<media>
								<video>
									<samplecharacteristics>
										<rate>
											<timebase>24</timebase>
											<ntsc>TRUE</ntsc>
										</rate>
										<width>3840</width>
										<height>2160</height>
										<anamorphic>FALSE</anamorphic>
										<pixelaspectratio>square</pixelaspectratio>
										<fielddominance>none</fielddominance>
									</samplecharacteristics>
								</video>
							</media>
						</file>
						<logginginfo>
							<description></description>
							<scene></scene>
							<shottake></shottake>
							<lognote></lognote>
							<good></good>
							<originalvideofilename></originalvideofilename>
							<originalaudiofilename></originalaudiofilename>
						</logginginfo>
						<colorinfo>
							<lut></lut>
							<lut1></lut1>
							<asc_sop></asc_sop>
							<asc_sat></asc_sat>
							<lut2></lut2>
						</colorinfo>
						<labels>
							<label2>Violet</label2>
						</labels>
					</clipitem>
					<clipitem id="clipitem-920">
						<masterclipid>masterclip-917</masterclipid>
						<name>TKO_015_CRA_Sh09630.mov</name>
						<enabled>TRUE</enabled>
						<duration>103</duration>
						<rate>
							<timebase>24</timebase>
							<ntsc>TRUE</ntsc>
						</rate>
						<start>71041</start>
						<end>71136</end>
						<in>4</in>
						<out>99</out>
						<pproTicksIn>42378336000</pproTicksIn>
						<pproTicksOut>1048863816000</pproTicksOut>
						<alphatype>none</alphatype>
						<pixelaspectratio>square</pixelaspectratio>
						<anamorphic>FALSE</anamorphic>
						<file id="file-917">
							<name>TKO_015_CRA_Sh09630.mov</name>
							<pathurl>file://tri-stor01/Projects/TKO/SHOTS/_Refs_Movs_Burnin_FrameCounter/TKO_015_CRA_Sh09630.mov</pathurl>
							<rate>
								<timebase>24</timebase>
								<ntsc>TRUE</ntsc>
							</rate>
							<duration>103</duration>
							<timecode>
								<rate>
									<timebase>24</timebase>
									<ntsc>TRUE</ntsc>
								</rate>
								<string>19:43:10:16</string>
								<frame>1703776</frame>
								<displayformat>NDF</displayformat>
								<reel>
									<name>B0060016</name>
								</reel>
							</timecode>
							<media>
								<video>
									<samplecharacteristics>
										<rate>
											<timebase>24</timebase>
											<ntsc>TRUE</ntsc>
										</rate>
										<width>4096</width>
										<height>2160</height>
										<anamorphic>FALSE</anamorphic>
										<pixelaspectratio>square</pixelaspectratio>
										<fielddominance>none</fielddominance>
									</samplecharacteristics>
								</video>
							</media>
						</file>
						<logginginfo>
							<description></description>
							<scene></scene>
							<shottake></shottake>
							<lognote></lognote>
							<good></good>
							<originalvideofilename></originalvideofilename>
							<originalaudiofilename></originalaudiofilename>
						</logginginfo>
						<colorinfo>
							<lut></lut>
							<lut1></lut1>
							<asc_sop></asc_sop>
							<asc_sat></asc_sat>
							<lut2></lut2>
						</colorinfo>
						<labels>
							<label2>Violet</label2>
						</labels>
					</clipitem>
					<clipitem id="clipitem-921">
						<masterclipid>masterclip-918</masterclipid>
						<name>TKO_015_CRA_Sh09640.mov</name>
						<enabled>TRUE</enabled>
						<duration>45</duration>
						<rate>
							<timebase>24</timebase>
							<ntsc>TRUE</ntsc>
						</rate>
						<start>71136</start>
						<end>71173</end>
						<in>4</in>
						<out>41</out>
						<pproTicksIn>42378336000</pproTicksIn>
						<pproTicksOut>434377944000</pproTicksOut>
						<alphatype>none</alphatype>
						<pixelaspectratio>square</pixelaspectratio>
						<anamorphic>FALSE</anamorphic>
						<file id="file-918">
							<name>TKO_015_CRA_Sh09640.mov</name>
							<pathurl>file://tri-stor01/Projects/TKO/SHOTS/_Refs_Movs_Burnin_FrameCounter/TKO_015_CRA_Sh09640.mov</pathurl>
							<rate>
								<timebase>24</timebase>
								<ntsc>TRUE</ntsc>
							</rate>
							<duration>45</duration>
							<timecode>
								<rate>
									<timebase>24</timebase>
									<ntsc>TRUE</ntsc>
								</rate>
								<string>19:43:14:04</string>
								<frame>1703860</frame>
								<displayformat>NDF</displayformat>
								<reel>
									<name>A0100001</name>
								</reel>
							</timecode>
							<media>
								<video>
									<samplecharacteristics>
										<rate>
											<timebase>24</timebase>
											<ntsc>TRUE</ntsc>
										</rate>
										<width>4096</width>
										<height>2160</height>
										<anamorphic>FALSE</anamorphic>
										<pixelaspectratio>square</pixelaspectratio>
										<fielddominance>none</fielddominance>
									</samplecharacteristics>
								</video>
							</media>
						</file>
						<logginginfo>
							<description></description>
							<scene></scene>
							<shottake></shottake>
							<lognote></lognote>
							<good></good>
							<originalvideofilename></originalvideofilename>
							<originalaudiofilename></originalaudiofilename>
						</logginginfo>
						<colorinfo>
							<lut></lut>
							<lut1></lut1>
							<asc_sop></asc_sop>
							<asc_sat></asc_sat>
							<lut2></lut2>
						</colorinfo>
						<labels>
							<label2>Violet</label2>
						</labels>
					</clipitem>
					<clipitem id="clipitem-922">
						<masterclipid>masterclip-919</masterclipid>
						<name>TKO_015_CRA_Sh09650.mov</name>
						<enabled>TRUE</enabled>
						<duration>31</duration>
						<rate>
							<timebase>24</timebase>
							<ntsc>TRUE</ntsc>
						</rate>
						<start>71173</start>
						<end>71196</end>
						<in>4</in>
						<out>27</out>
						<pproTicksIn>42378336000</pproTicksIn>
						<pproTicksOut>286053768000</pproTicksOut>
						<alphatype>none</alphatype>
						<pixelaspectratio>square</pixelaspectratio>
						<anamorphic>FALSE</anamorphic>
						<file id="file-919">
							<name>TKO_015_CRA_Sh09650.mov</name>
							<pathurl>file://tri-stor01/Projects/TKO/SHOTS/_Refs_Movs_Burnin_FrameCounter/TKO_015_CRA_Sh09650.mov</pathurl>
							<rate>
								<timebase>24</timebase>
								<ntsc>TRUE</ntsc>
							</rate>
							<duration>31</duration>
							<timecode>
								<rate>
									<timebase>24</timebase>
									<ntsc>TRUE</ntsc>
								</rate>
								<string>19:19:19:11</string>
								<frame>1669427</frame>
								<displayformat>NDF</displayformat>
								<reel>
									<name>B0060015</name>
								</reel>
							</timecode>
							<media>
								<video>
									<samplecharacteristics>
										<rate>
											<timebase>24</timebase>
											<ntsc>TRUE</ntsc>
										</rate>
										<width>4096</width>
										<height>2160</height>
										<anamorphic>FALSE</anamorphic>
										<pixelaspectratio>square</pixelaspectratio>
										<fielddominance>none</fielddominance>
									</samplecharacteristics>
								</video>
							</media>
						</file>
						<logginginfo>
							<description></description>
							<scene></scene>
							<shottake></shottake>
							<lognote></lognote>
							<good></good>
							<originalvideofilename></originalvideofilename>
							<originalaudiofilename></originalaudiofilename>
						</logginginfo>
						<colorinfo>
							<lut></lut>
							<lut1></lut1>
							<asc_sop></asc_sop>
							<asc_sat></asc_sat>
							<lut2></lut2>
						</colorinfo>
						<labels>
							<label2>Violet</label2>
						</labels>
					</clipitem>
					<clipitem id="clipitem-923">
						<masterclipid>masterclip-920</masterclipid>
						<name>TKO_015_CRA_Sh09660.mov</name>
						<enabled>TRUE</enabled>
						<duration>28</duration>
						<rate>
							<timebase>24</timebase>
							<ntsc>TRUE</ntsc>
						</rate>
						<start>71196</start>
						<end>71216</end>
						<in>4</in>
						<out>24</out>
						<pproTicksIn>42378336000</pproTicksIn>
						<pproTicksOut>254270016000</pproTicksOut>
						<alphatype>none</alphatype>
						<pixelaspectratio>square</pixelaspectratio>
						<anamorphic>FALSE</anamorphic>
						<file id="file-920">
							<name>TKO_015_CRA_Sh09660.mov</name>
							<pathurl>file://tri-stor01/Projects/TKO/SHOTS/_Refs_Movs_Burnin_FrameCounter/TKO_015_CRA_Sh09660.mov</pathurl>
							<rate>
								<timebase>24</timebase>
								<ntsc>TRUE</ntsc>
							</rate>
							<duration>28</duration>
							<timecode>
								<rate>
									<timebase>24</timebase>
									<ntsc>TRUE</ntsc>
								</rate>
								<string>17:52:56:16</string>
								<frame>1545040</frame>
								<displayformat>NDF</displayformat>
								<reel>
									<name>A0150002</name>
								</reel>
							</timecode>
							<media>
								<video>
									<samplecharacteristics>
										<rate>
											<timebase>24</timebase>
											<ntsc>TRUE</ntsc>
										</rate>
										<width>4096</width>
										<height>2160</height>
										<anamorphic>FALSE</anamorphic>
										<pixelaspectratio>square</pixelaspectratio>
										<fielddominance>none</fielddominance>
									</samplecharacteristics>
								</video>
							</media>
						</file>
						<logginginfo>
							<description></description>
							<scene></scene>
							<shottake></shottake>
							<lognote></lognote>
							<good></good>
							<originalvideofilename></originalvideofilename>
							<originalaudiofilename></originalaudiofilename>
						</logginginfo>
						<colorinfo>
							<lut></lut>
							<lut1></lut1>
							<asc_sop></asc_sop>
							<asc_sat></asc_sat>
							<lut2></lut2>
						</colorinfo>
						<labels>
							<label2>Violet</label2>
						</labels>
					</clipitem>
					<clipitem id="clipitem-924">
						<masterclipid>masterclip-921</masterclipid>
						<name>TKO_015_CRA_Sh09670.mov</name>
						<enabled>TRUE</enabled>
						<duration>31</duration>
						<rate>
							<timebase>24</timebase>
							<ntsc>TRUE</ntsc>
						</rate>
						<start>71216</start>
						<end>71239</end>
						<in>4</in>
						<out>27</out>
						<pproTicksIn>42378336000</pproTicksIn>
						<pproTicksOut>286053768000</pproTicksOut>
						<alphatype>none</alphatype>
						<pixelaspectratio>square</pixelaspectratio>
						<anamorphic>FALSE</anamorphic>
						<file id="file-921">
							<name>TKO_015_CRA_Sh09670.mov</name>
							<pathurl>file://tri-stor01/Projects/TKO/SHOTS/_Refs_Movs_Burnin_FrameCounter/TKO_015_CRA_Sh09670.mov</pathurl>
							<rate>
								<timebase>24</timebase>
								<ntsc>TRUE</ntsc>
							</rate>
							<duration>31</duration>
							<timecode>
								<rate>
									<timebase>24</timebase>
									<ntsc>TRUE</ntsc>
								</rate>
								<string>00:39:52:18</string>
								<frame>57426</frame>
								<displayformat>NDF</displayformat>
							</timecode>
							<media>
								<video>
									<samplecharacteristics>
										<rate>
											<timebase>24</timebase>
											<ntsc>TRUE</ntsc>
										</rate>
										<width>1280</width>
										<height>720</height>
										<anamorphic>FALSE</anamorphic>
										<pixelaspectratio>square</pixelaspectratio>
										<fielddominance>none</fielddominance>
									</samplecharacteristics>
								</video>
							</media>
						</file>
						<logginginfo>
							<description></description>
							<scene></scene>
							<shottake></shottake>
							<lognote></lognote>
							<good></good>
							<originalvideofilename></originalvideofilename>
							<originalaudiofilename></originalaudiofilename>
						</logginginfo>
						<colorinfo>
							<lut></lut>
							<lut1></lut1>
							<asc_sop></asc_sop>
							<asc_sat></asc_sat>
							<lut2></lut2>
						</colorinfo>
						<labels>
							<label2>Violet</label2>
						</labels>
					</clipitem>
					<clipitem id="clipitem-925">
						<masterclipid>masterclip-922</masterclipid>
						<name>TKO_015_CRA_Sh09690.mov</name>
						<enabled>TRUE</enabled>
						<duration>25</duration>
						<rate>
							<timebase>24</timebase>
							<ntsc>TRUE</ntsc>
						</rate>
						<start>71239</start>
						<end>71249</end>
						<in>11</in>
						<out>21</out>
						<pproTicksIn>116540424000</pproTicksIn>
						<pproTicksOut>222486264000</pproTicksOut>
						<alphatype>none</alphatype>
						<pixelaspectratio>square</pixelaspectratio>
						<anamorphic>FALSE</anamorphic>
						<file id="file-922">
							<name>TKO_015_CRA_Sh09690.mov</name>
							<pathurl>file://tri-stor01/Projects/TKO/SHOTS/_Refs_Movs_Burnin_FrameCounter/TKO_015_CRA_Sh09690.mov</pathurl>
							<rate>
								<timebase>24</timebase>
								<ntsc>TRUE</ntsc>
							</rate>
							<duration>25</duration>
							<timecode>
								<rate>
									<timebase>24</timebase>
									<ntsc>TRUE</ntsc>
								</rate>
								<string>02:57:49:17</string>
								<frame>256073</frame>
								<displayformat>NDF</displayformat>
								<reel>
									<name>C0040015</name>
								</reel>
							</timecode>
							<media>
								<video>
									<samplecharacteristics>
										<rate>
											<timebase>24</timebase>
											<ntsc>TRUE</ntsc>
										</rate>
										<width>3840</width>
										<height>2160</height>
										<anamorphic>FALSE</anamorphic>
										<pixelaspectratio>square</pixelaspectratio>
										<fielddominance>none</fielddominance>
									</samplecharacteristics>
								</video>
							</media>
						</file>
						<logginginfo>
							<description></description>
							<scene></scene>
							<shottake></shottake>
							<lognote></lognote>
							<good></good>
							<originalvideofilename></originalvideofilename>
							<originalaudiofilename></originalaudiofilename>
						</logginginfo>
						<colorinfo>
							<lut></lut>
							<lut1></lut1>
							<asc_sop></asc_sop>
							<asc_sat></asc_sat>
							<lut2></lut2>
						</colorinfo>
						<labels>
							<label2>Violet</label2>
						</labels>
					</clipitem>
					<clipitem id="clipitem-926">
						<masterclipid>masterclip-923</masterclipid>
						<name>TKO_015_CRA_Sh09710.mov</name>
						<enabled>TRUE</enabled>
						<duration>69</duration>
						<rate>
							<timebase>24</timebase>
							<ntsc>TRUE</ntsc>
						</rate>
						<start>71249</start>
						<end>71310</end>
						<in>4</in>
						<out>65</out>
						<pproTicksIn>42378336000</pproTicksIn>
						<pproTicksOut>688647960000</pproTicksOut>
						<alphatype>none</alphatype>
						<pixelaspectratio>square</pixelaspectratio>
						<anamorphic>FALSE</anamorphic>
						<file id="file-923">
							<name>TKO_015_CRA_Sh09710.mov</name>
							<pathurl>file://tri-stor01/Projects/TKO/SHOTS/_Refs_Movs_Burnin_FrameCounter/TKO_015_CRA_Sh09710.mov</pathurl>
							<rate>
								<timebase>24</timebase>
								<ntsc>TRUE</ntsc>
							</rate>
							<duration>69</duration>
							<timecode>
								<rate>
									<timebase>24</timebase>
									<ntsc>TRUE</ntsc>
								</rate>
								<string>00:39:57:18</string>
								<frame>57546</frame>
								<displayformat>NDF</displayformat>
							</timecode>
							<media>
								<video>
									<samplecharacteristics>
										<rate>
											<timebase>24</timebase>
											<ntsc>TRUE</ntsc>
										</rate>
										<width>1280</width>
										<height>720</height>
										<anamorphic>FALSE</anamorphic>
										<pixelaspectratio>square</pixelaspectratio>
										<fielddominance>none</fielddominance>
									</samplecharacteristics>
								</video>
							</media>
						</file>
						<logginginfo>
							<description></description>
							<scene></scene>
							<shottake></shottake>
							<lognote></lognote>
							<good></good>
							<originalvideofilename></originalvideofilename>
							<originalaudiofilename></originalaudiofilename>
						</logginginfo>
						<colorinfo>
							<lut></lut>
							<lut1></lut1>
							<asc_sop></asc_sop>
							<asc_sat></asc_sat>
							<lut2></lut2>
						</colorinfo>
						<labels>
							<label2>Violet</label2>
						</labels>
					</clipitem>
					<clipitem id="clipitem-927">
						<masterclipid>masterclip-924</masterclipid>
						<name>TKO_015_CRA_Sh09720.mov</name>
						<enabled>TRUE</enabled>
						<duration>38</duration>
						<rate>
							<timebase>24</timebase>
							<ntsc>TRUE</ntsc>
						</rate>
						<start>71310</start>
						<end>71340</end>
						<in>4</in>
						<out>34</out>
						<pproTicksIn>42378336000</pproTicksIn>
						<pproTicksOut>360215856000</pproTicksOut>
						<alphatype>none</alphatype>
						<pixelaspectratio>square</pixelaspectratio>
						<anamorphic>FALSE</anamorphic>
						<file id="file-924">
							<name>TKO_015_CRA_Sh09720.mov</name>
							<pathurl>file://tri-stor01/Projects/TKO/SHOTS/_Refs_Movs_Burnin_FrameCounter/TKO_015_CRA_Sh09720.mov</pathurl>
							<rate>
								<timebase>24</timebase>
								<ntsc>TRUE</ntsc>
							</rate>
							<duration>38</duration>
							<timecode>
								<rate>
									<timebase>24</timebase>
									<ntsc>TRUE</ntsc>
								</rate>
								<string>04:09:09:06</string>
								<frame>358782</frame>
								<displayformat>NDF</displayformat>
								<reel>
									<name>C0080002</name>
								</reel>
							</timecode>
							<media>
								<video>
									<samplecharacteristics>
										<rate>
											<timebase>24</timebase>
											<ntsc>TRUE</ntsc>
										</rate>
										<width>3840</width>
										<height>2160</height>
										<anamorphic>FALSE</anamorphic>
										<pixelaspectratio>square</pixelaspectratio>
										<fielddominance>none</fielddominance>
									</samplecharacteristics>
								</video>
							</media>
						</file>
						<logginginfo>
							<description></description>
							<scene></scene>
							<shottake></shottake>
							<lognote></lognote>
							<good></good>
							<originalvideofilename></originalvideofilename>
							<originalaudiofilename></originalaudiofilename>
						</logginginfo>
						<colorinfo>
							<lut></lut>
							<lut1></lut1>
							<asc_sop></asc_sop>
							<asc_sat></asc_sat>
							<lut2></lut2>
						</colorinfo>
						<labels>
							<label2>Violet</label2>
						</labels>
					</clipitem>
					<clipitem id="clipitem-928">
						<masterclipid>masterclip-925</masterclipid>
						<name>TKO_015_CRA_Sh09730.mov</name>
						<enabled>TRUE</enabled>
						<duration>34</duration>
						<rate>
							<timebase>24</timebase>
							<ntsc>TRUE</ntsc>
						</rate>
						<start>71340</start>
						<end>71366</end>
						<in>4</in>
						<out>30</out>
						<pproTicksIn>42378336000</pproTicksIn>
						<pproTicksOut>317837520000</pproTicksOut>
						<alphatype>none</alphatype>
						<pixelaspectratio>square</pixelaspectratio>
						<anamorphic>FALSE</anamorphic>
						<file id="file-925">
							<name>TKO_015_CRA_Sh09730.mov</name>
							<pathurl>file://tri-stor01/Projects/TKO/SHOTS/_Refs_Movs_Burnin_FrameCounter/TKO_015_CRA_Sh09730.mov</pathurl>
							<rate>
								<timebase>24</timebase>
								<ntsc>TRUE</ntsc>
							</rate>
							<duration>34</duration>
							<timecode>
								<rate>
									<timebase>24</timebase>
									<ntsc>TRUE</ntsc>
								</rate>
								<string>20:19:14:18</string>
								<frame>1755714</frame>
								<displayformat>NDF</displayformat>
								<reel>
									<name>B0070001</name>
								</reel>
							</timecode>
							<media>
								<video>
									<samplecharacteristics>
										<rate>
											<timebase>24</timebase>
											<ntsc>TRUE</ntsc>
										</rate>
										<width>4096</width>
										<height>2160</height>
										<anamorphic>FALSE</anamorphic>
										<pixelaspectratio>square</pixelaspectratio>
										<fielddominance>none</fielddominance>
									</samplecharacteristics>
								</video>
							</media>
						</file>
						<logginginfo>
							<description></description>
							<scene></scene>
							<shottake></shottake>
							<lognote></lognote>
							<good></good>
							<originalvideofilename></originalvideofilename>
							<originalaudiofilename></originalaudiofilename>
						</logginginfo>
						<colorinfo>
							<lut></lut>
							<lut1></lut1>
							<asc_sop></asc_sop>
							<asc_sat></asc_sat>
							<lut2></lut2>
						</colorinfo>
						<labels>
							<label2>Violet</label2>
						</labels>
					</clipitem>
					<clipitem id="clipitem-929">
						<masterclipid>masterclip-926</masterclipid>
						<name>TKO_015_CRA_Sh09740.mov</name>
						<enabled>TRUE</enabled>
						<duration>33</duration>
						<rate>
							<timebase>24</timebase>
							<ntsc>TRUE</ntsc>
						</rate>
						<start>71366</start>
						<end>71391</end>
						<in>4</in>
						<out>29</out>
						<pproTicksIn>42378336000</pproTicksIn>
						<pproTicksOut>307242936000</pproTicksOut>
						<alphatype>none</alphatype>
						<pixelaspectratio>square</pixelaspectratio>
						<anamorphic>FALSE</anamorphic>
						<file id="file-926">
							<name>TKO_015_CRA_Sh09740.mov</name>
							<pathurl>file://tri-stor01/Projects/TKO/SHOTS/_Refs_Movs_Burnin_FrameCounter/TKO_015_CRA_Sh09740.mov</pathurl>
							<rate>
								<timebase>24</timebase>
								<ntsc>TRUE</ntsc>
							</rate>
							<duration>33</duration>
							<timecode>
								<rate>
									<timebase>24</timebase>
									<ntsc>TRUE</ntsc>
								</rate>
								<string>03:03:04:13</string>
								<frame>263629</frame>
								<displayformat>NDF</displayformat>
								<reel>
									<name>C0040017</name>
								</reel>
							</timecode>
							<media>
								<video>
									<samplecharacteristics>
										<rate>
											<timebase>24</timebase>
											<ntsc>TRUE</ntsc>
										</rate>
										<width>3840</width>
										<height>2160</height>
										<anamorphic>FALSE</anamorphic>
										<pixelaspectratio>square</pixelaspectratio>
										<fielddominance>none</fielddominance>
									</samplecharacteristics>
								</video>
							</media>
						</file>
						<logginginfo>
							<description></description>
							<scene></scene>
							<shottake></shottake>
							<lognote></lognote>
							<good></good>
							<originalvideofilename></originalvideofilename>
							<originalaudiofilename></originalaudiofilename>
						</logginginfo>
						<colorinfo>
							<lut></lut>
							<lut1></lut1>
							<asc_sop></asc_sop>
							<asc_sat></asc_sat>
							<lut2></lut2>
						</colorinfo>
						<labels>
							<label2>Violet</label2>
						</labels>
					</clipitem>
					<clipitem id="clipitem-930">
						<masterclipid>masterclip-927</masterclipid>
						<name>TKO_015_CRA_Sh09750.mov</name>
						<enabled>TRUE</enabled>
						<duration>40</duration>
						<rate>
							<timebase>24</timebase>
							<ntsc>TRUE</ntsc>
						</rate>
						<start>71391</start>
						<end>71423</end>
						<in>4</in>
						<out>36</out>
						<pproTicksIn>42378336000</pproTicksIn>
						<pproTicksOut>381405024000</pproTicksOut>
						<alphatype>none</alphatype>
						<pixelaspectratio>square</pixelaspectratio>
						<anamorphic>FALSE</anamorphic>
						<file id="file-927">
							<name>TKO_015_CRA_Sh09750.mov</name>
							<pathurl>file://tri-stor01/Projects/TKO/SHOTS/_Refs_Movs_Burnin_FrameCounter/TKO_015_CRA_Sh09750.mov</pathurl>
							<rate>
								<timebase>24</timebase>
								<ntsc>TRUE</ntsc>
							</rate>
							<duration>40</duration>
							<timecode>
								<rate>
									<timebase>24</timebase>
									<ntsc>TRUE</ntsc>
								</rate>
								<string>00:40:02:17</string>
								<frame>57665</frame>
								<displayformat>NDF</displayformat>
							</timecode>
							<media>
								<video>
									<samplecharacteristics>
										<rate>
											<timebase>24</timebase>
											<ntsc>TRUE</ntsc>
										</rate>
										<width>1280</width>
										<height>720</height>
										<anamorphic>FALSE</anamorphic>
										<pixelaspectratio>square</pixelaspectratio>
										<fielddominance>none</fielddominance>
									</samplecharacteristics>
								</video>
							</media>
						</file>
						<logginginfo>
							<description></description>
							<scene></scene>
							<shottake></shottake>
							<lognote></lognote>
							<good></good>
							<originalvideofilename></originalvideofilename>
							<originalaudiofilename></originalaudiofilename>
						</logginginfo>
						<colorinfo>
							<lut></lut>
							<lut1></lut1>
							<asc_sop></asc_sop>
							<asc_sat></asc_sat>
							<lut2></lut2>
						</colorinfo>
						<labels>
							<label2>Violet</label2>
						</labels>
					</clipitem>
					<clipitem id="clipitem-931">
						<masterclipid>masterclip-928</masterclipid>
						<name>TKO_015_CRA_Sh09760.mov</name>
						<enabled>TRUE</enabled>
						<duration>39</duration>
						<rate>
							<timebase>24</timebase>
							<ntsc>TRUE</ntsc>
						</rate>
						<start>71423</start>
						<end>71454</end>
						<in>4</in>
						<out>35</out>
						<pproTicksIn>42378336000</pproTicksIn>
						<pproTicksOut>370810440000</pproTicksOut>
						<alphatype>none</alphatype>
						<pixelaspectratio>square</pixelaspectratio>
						<anamorphic>FALSE</anamorphic>
						<file id="file-928">
							<name>TKO_015_CRA_Sh09760.mov</name>
							<pathurl>file://tri-stor01/Projects/TKO/SHOTS/_Refs_Movs_Burnin_FrameCounter/TKO_015_CRA_Sh09760.mov</pathurl>
							<rate>
								<timebase>24</timebase>
								<ntsc>TRUE</ntsc>
							</rate>
							<duration>39</duration>
							<timecode>
								<rate>
									<timebase>24</timebase>
									<ntsc>TRUE</ntsc>
								</rate>
								<string>07:21:46:09</string>
								<frame>636153</frame>
								<displayformat>NDF</displayformat>
								<reel>
									<name>C0180004</name>
								</reel>
							</timecode>
							<media>
								<video>
									<samplecharacteristics>
										<rate>
											<timebase>24</timebase>
											<ntsc>TRUE</ntsc>
										</rate>
										<width>3840</width>
										<height>2160</height>
										<anamorphic>FALSE</anamorphic>
										<pixelaspectratio>square</pixelaspectratio>
										<fielddominance>none</fielddominance>
									</samplecharacteristics>
								</video>
							</media>
						</file>
						<logginginfo>
							<description></description>
							<scene></scene>
							<shottake></shottake>
							<lognote></lognote>
							<good></good>
							<originalvideofilename></originalvideofilename>
							<originalaudiofilename></originalaudiofilename>
						</logginginfo>
						<colorinfo>
							<lut></lut>
							<lut1></lut1>
							<asc_sop></asc_sop>
							<asc_sat></asc_sat>
							<lut2></lut2>
						</colorinfo>
						<labels>
							<label2>Violet</label2>
						</labels>
					</clipitem>
					<clipitem id="clipitem-932">
						<masterclipid>masterclip-929</masterclipid>
						<name>TKO_015_CRA_Sh09770.mov</name>
						<enabled>TRUE</enabled>
						<duration>27</duration>
						<rate>
							<timebase>24</timebase>
							<ntsc>TRUE</ntsc>
						</rate>
						<start>71454</start>
						<end>71473</end>
						<in>4</in>
						<out>23</out>
						<pproTicksIn>42378336000</pproTicksIn>
						<pproTicksOut>243675432000</pproTicksOut>
						<alphatype>none</alphatype>
						<pixelaspectratio>square</pixelaspectratio>
						<anamorphic>FALSE</anamorphic>
						<file id="file-929">
							<name>TKO_015_CRA_Sh09770.mov</name>
							<pathurl>file://tri-stor01/Projects/TKO/SHOTS/_Refs_Movs_Burnin_FrameCounter/TKO_015_CRA_Sh09770.mov</pathurl>
							<rate>
								<timebase>24</timebase>
								<ntsc>TRUE</ntsc>
							</rate>
							<duration>27</duration>
							<timecode>
								<rate>
									<timebase>24</timebase>
									<ntsc>TRUE</ntsc>
								</rate>
								<string>00:40:05:08</string>
								<frame>57728</frame>
								<displayformat>NDF</displayformat>
							</timecode>
							<media>
								<video>
									<samplecharacteristics>
										<rate>
											<timebase>24</timebase>
											<ntsc>TRUE</ntsc>
										</rate>
										<width>1280</width>
										<height>720</height>
										<anamorphic>FALSE</anamorphic>
										<pixelaspectratio>square</pixelaspectratio>
										<fielddominance>none</fielddominance>
									</samplecharacteristics>
								</video>
							</media>
						</file>
						<logginginfo>
							<description></description>
							<scene></scene>
							<shottake></shottake>
							<lognote></lognote>
							<good></good>
							<originalvideofilename></originalvideofilename>
							<originalaudiofilename></originalaudiofilename>
						</logginginfo>
						<colorinfo>
							<lut></lut>
							<lut1></lut1>
							<asc_sop></asc_sop>
							<asc_sat></asc_sat>
							<lut2></lut2>
						</colorinfo>
						<labels>
							<label2>Violet</label2>
						</labels>
					</clipitem>
					<clipitem id="clipitem-933">
						<masterclipid>masterclip-930</masterclipid>
						<name>TKO_015_CRA_Sh09780.mov</name>
						<enabled>TRUE</enabled>
						<duration>36</duration>
						<rate>
							<timebase>24</timebase>
							<ntsc>TRUE</ntsc>
						</rate>
						<start>71473</start>
						<end>71501</end>
						<in>4</in>
						<out>32</out>
						<pproTicksIn>42378336000</pproTicksIn>
						<pproTicksOut>339026688000</pproTicksOut>
						<alphatype>none</alphatype>
						<pixelaspectratio>square</pixelaspectratio>
						<anamorphic>FALSE</anamorphic>
						<file id="file-930">
							<name>TKO_015_CRA_Sh09780.mov</name>
							<pathurl>file://tri-stor01/Projects/TKO/SHOTS/_Refs_Movs_Burnin_FrameCounter/TKO_015_CRA_Sh09780.mov</pathurl>
							<rate>
								<timebase>24</timebase>
								<ntsc>TRUE</ntsc>
							</rate>
							<duration>36</duration>
							<timecode>
								<rate>
									<timebase>24</timebase>
									<ntsc>TRUE</ntsc>
								</rate>
								<string>04:09:38:15</string>
								<frame>359487</frame>
								<displayformat>NDF</displayformat>
								<reel>
									<name>C0080002</name>
								</reel>
							</timecode>
							<media>
								<video>
									<samplecharacteristics>
										<rate>
											<timebase>24</timebase>
											<ntsc>TRUE</ntsc>
										</rate>
										<width>3840</width>
										<height>2160</height>
										<anamorphic>FALSE</anamorphic>
										<pixelaspectratio>square</pixelaspectratio>
										<fielddominance>none</fielddominance>
									</samplecharacteristics>
								</video>
							</media>
						</file>
						<logginginfo>
							<description></description>
							<scene></scene>
							<shottake></shottake>
							<lognote></lognote>
							<good></good>
							<originalvideofilename></originalvideofilename>
							<originalaudiofilename></originalaudiofilename>
						</logginginfo>
						<colorinfo>
							<lut></lut>
							<lut1></lut1>
							<asc_sop></asc_sop>
							<asc_sat></asc_sat>
							<lut2></lut2>
						</colorinfo>
						<labels>
							<label2>Violet</label2>
						</labels>
					</clipitem>
					<clipitem id="clipitem-934">
						<masterclipid>masterclip-931</masterclipid>
						<name>TKO_015_CRA_Sh09790.mov</name>
						<enabled>TRUE</enabled>
						<duration>31</duration>
						<rate>
							<timebase>24</timebase>
							<ntsc>TRUE</ntsc>
						</rate>
						<start>71501</start>
						<end>71524</end>
						<in>4</in>
						<out>27</out>
						<pproTicksIn>42378336000</pproTicksIn>
						<pproTicksOut>286053768000</pproTicksOut>
						<alphatype>none</alphatype>
						<pixelaspectratio>square</pixelaspectratio>
						<anamorphic>FALSE</anamorphic>
						<file id="file-931">
							<name>TKO_015_CRA_Sh09790.mov</name>
							<pathurl>file://tri-stor01/Projects/TKO/SHOTS/_Refs_Movs_Burnin_FrameCounter/TKO_015_CRA_Sh09790.mov</pathurl>
							<rate>
								<timebase>24</timebase>
								<ntsc>TRUE</ntsc>
							</rate>
							<duration>31</duration>
							<timecode>
								<rate>
									<timebase>24</timebase>
									<ntsc>TRUE</ntsc>
								</rate>
								<string>00:40:07:07</string>
								<frame>57775</frame>
								<displayformat>NDF</displayformat>
							</timecode>
							<media>
								<video>
									<samplecharacteristics>
										<rate>
											<timebase>24</timebase>
											<ntsc>TRUE</ntsc>
										</rate>
										<width>1280</width>
										<height>720</height>
										<anamorphic>FALSE</anamorphic>
										<pixelaspectratio>square</pixelaspectratio>
										<fielddominance>none</fielddominance>
									</samplecharacteristics>
								</video>
							</media>
						</file>
						<logginginfo>
							<description></description>
							<scene></scene>
							<shottake></shottake>
							<lognote></lognote>
							<good></good>
							<originalvideofilename></originalvideofilename>
							<originalaudiofilename></originalaudiofilename>
						</logginginfo>
						<colorinfo>
							<lut></lut>
							<lut1></lut1>
							<asc_sop></asc_sop>
							<asc_sat></asc_sat>
							<lut2></lut2>
						</colorinfo>
						<labels>
							<label2>Violet</label2>
						</labels>
					</clipitem>
					<clipitem id="clipitem-935">
						<masterclipid>masterclip-932</masterclipid>
						<name>TKO_015_CRA_Sh09800.mov</name>
						<enabled>TRUE</enabled>
						<duration>32</duration>
						<rate>
							<timebase>24</timebase>
							<ntsc>TRUE</ntsc>
						</rate>
						<start>71524</start>
						<end>71548</end>
						<in>4</in>
						<out>28</out>
						<pproTicksIn>42378336000</pproTicksIn>
						<pproTicksOut>296648352000</pproTicksOut>
						<alphatype>none</alphatype>
						<pixelaspectratio>square</pixelaspectratio>
						<anamorphic>FALSE</anamorphic>
						<file id="file-932">
							<name>TKO_015_CRA_Sh09800.mov</name>
							<pathurl>file://tri-stor01/Projects/TKO/SHOTS/_Refs_Movs_Burnin_FrameCounter/TKO_015_CRA_Sh09800.mov</pathurl>
							<rate>
								<timebase>24</timebase>
								<ntsc>TRUE</ntsc>
							</rate>
							<duration>32</duration>
							<timecode>
								<rate>
									<timebase>24</timebase>
									<ntsc>TRUE</ntsc>
								</rate>
								<string>04:08:33:07</string>
								<frame>357919</frame>
								<displayformat>NDF</displayformat>
								<reel>
									<name>C0080001</name>
								</reel>
							</timecode>
							<media>
								<video>
									<samplecharacteristics>
										<rate>
											<timebase>24</timebase>
											<ntsc>TRUE</ntsc>
										</rate>
										<width>3840</width>
										<height>2160</height>
										<anamorphic>FALSE</anamorphic>
										<pixelaspectratio>square</pixelaspectratio>
										<fielddominance>none</fielddominance>
									</samplecharacteristics>
								</video>
							</media>
						</file>
						<logginginfo>
							<description></description>
							<scene></scene>
							<shottake></shottake>
							<lognote></lognote>
							<good></good>
							<originalvideofilename></originalvideofilename>
							<originalaudiofilename></originalaudiofilename>
						</logginginfo>
						<colorinfo>
							<lut></lut>
							<lut1></lut1>
							<asc_sop></asc_sop>
							<asc_sat></asc_sat>
							<lut2></lut2>
						</colorinfo>
						<labels>
							<label2>Violet</label2>
						</labels>
					</clipitem>
					<clipitem id="clipitem-936">
						<masterclipid>masterclip-933</masterclipid>
						<name>TKO_015_CRA_Sh09810.mov</name>
						<enabled>TRUE</enabled>
						<duration>94</duration>
						<rate>
							<timebase>24</timebase>
							<ntsc>TRUE</ntsc>
						</rate>
						<start>71548</start>
						<end>71634</end>
						<in>4</in>
						<out>90</out>
						<pproTicksIn>42378336000</pproTicksIn>
						<pproTicksOut>953512560000</pproTicksOut>
						<alphatype>none</alphatype>
						<pixelaspectratio>square</pixelaspectratio>
						<anamorphic>FALSE</anamorphic>
						<file id="file-933">
							<name>TKO_015_CRA_Sh09810.mov</name>
							<pathurl>file://tri-stor01/Projects/TKO/SHOTS/_Refs_Movs_Burnin_FrameCounter/TKO_015_CRA_Sh09810.mov</pathurl>
							<rate>
								<timebase>24</timebase>
								<ntsc>TRUE</ntsc>
							</rate>
							<duration>94</duration>
							<timecode>
								<rate>
									<timebase>24</timebase>
									<ntsc>TRUE</ntsc>
								</rate>
								<string>00:40:09:06</string>
								<frame>57822</frame>
								<displayformat>NDF</displayformat>
							</timecode>
							<media>
								<video>
									<samplecharacteristics>
										<rate>
											<timebase>24</timebase>
											<ntsc>TRUE</ntsc>
										</rate>
										<width>1280</width>
										<height>720</height>
										<anamorphic>FALSE</anamorphic>
										<pixelaspectratio>square</pixelaspectratio>
										<fielddominance>none</fielddominance>
									</samplecharacteristics>
								</video>
							</media>
						</file>
						<logginginfo>
							<description></description>
							<scene></scene>
							<shottake></shottake>
							<lognote></lognote>
							<good></good>
							<originalvideofilename></originalvideofilename>
							<originalaudiofilename></originalaudiofilename>
						</logginginfo>
						<colorinfo>
							<lut></lut>
							<lut1></lut1>
							<asc_sop></asc_sop>
							<asc_sat></asc_sat>
							<lut2></lut2>
						</colorinfo>
						<labels>
							<label2>Violet</label2>
						</labels>
					</clipitem>
					<clipitem id="clipitem-937">
						<masterclipid>masterclip-934</masterclipid>
						<name>TKO_015_CRA_Sh09820_CG_BG_BEAUTY_V01.mov</name>
						<enabled>TRUE</enabled>
						<duration>49</duration>
						<rate>
							<timebase>24</timebase>
							<ntsc>TRUE</ntsc>
						</rate>
						<start>71634</start>
						<end>71674</end>
						<in>4</in>
						<out>44</out>
						<pproTicksIn>42378336000</pproTicksIn>
						<pproTicksOut>466161696000</pproTicksOut>
						<alphatype>none</alphatype>
						<pixelaspectratio>square</pixelaspectratio>
						<anamorphic>FALSE</anamorphic>
						<file id="file-934">
							<name>TKO_015_CRA_Sh09820_CG_BG_BEAUTY_V01.mov</name>
							<pathurl>file://localhost/W%3a/TKO/SHOTS/TKO_015_CRA/TKO_015_CRA_Sh09820/CG/BG/BEAUTY/V01/TKO_015_CRA_Sh09820_CG_BG_BEAUTY_V01.mov</pathurl>
							<rate>
								<timebase>24</timebase>
								<ntsc>TRUE</ntsc>
							</rate>
							<duration>49</duration>
							<timecode>
								<rate>
									<timebase>24</timebase>
									<ntsc>TRUE</ntsc>
								</rate>
								<string>00:00:00:00</string>
								<frame>0</frame>
								<displayformat>NDF</displayformat>
							</timecode>
							<media>
								<video>
									<samplecharacteristics>
										<rate>
											<timebase>24</timebase>
											<ntsc>TRUE</ntsc>
										</rate>
										<width>1920</width>
										<height>1080</height>
										<anamorphic>FALSE</anamorphic>
										<pixelaspectratio>square</pixelaspectratio>
										<fielddominance>none</fielddominance>
									</samplecharacteristics>
								</video>
							</media>
						</file>
						<logginginfo>
							<description></description>
							<scene></scene>
							<shottake></shottake>
							<lognote></lognote>
							<good></good>
							<originalvideofilename></originalvideofilename>
							<originalaudiofilename></originalaudiofilename>
						</logginginfo>
						<colorinfo>
							<lut></lut>
							<lut1></lut1>
							<asc_sop></asc_sop>
							<asc_sat></asc_sat>
							<lut2></lut2>
						</colorinfo>
						<labels>
							<label2>Violet</label2>
						</labels>
					</clipitem>
					<clipitem id="clipitem-938">
						<masterclipid>masterclip-935</masterclipid>
						<name>TKO_015_CRA_Sh09830.mov</name>
						<enabled>TRUE</enabled>
						<duration>42</duration>
						<rate>
							<timebase>24</timebase>
							<ntsc>TRUE</ntsc>
						</rate>
						<start>71674</start>
						<end>71708</end>
						<in>4</in>
						<out>38</out>
						<pproTicksIn>42378336000</pproTicksIn>
						<pproTicksOut>402594192000</pproTicksOut>
						<alphatype>none</alphatype>
						<pixelaspectratio>square</pixelaspectratio>
						<anamorphic>FALSE</anamorphic>
						<file id="file-935">
							<name>TKO_015_CRA_Sh09830.mov</name>
							<pathurl>file://tri-stor01/Projects/TKO/SHOTS/_Refs_Movs_Burnin_FrameCounter/TKO_015_CRA_Sh09830.mov</pathurl>
							<rate>
								<timebase>24</timebase>
								<ntsc>TRUE</ntsc>
							</rate>
							<duration>42</duration>
							<timecode>
								<rate>
									<timebase>24</timebase>
									<ntsc>TRUE</ntsc>
								</rate>
								<string>17:35:29:18</string>
								<frame>1519914</frame>
								<displayformat>NDF</displayformat>
								<reel>
									<name>A0150001</name>
								</reel>
							</timecode>
							<media>
								<video>
									<samplecharacteristics>
										<rate>
											<timebase>24</timebase>
											<ntsc>TRUE</ntsc>
										</rate>
										<width>4096</width>
										<height>2160</height>
										<anamorphic>FALSE</anamorphic>
										<pixelaspectratio>square</pixelaspectratio>
										<fielddominance>none</fielddominance>
									</samplecharacteristics>
								</video>
							</media>
						</file>
						<logginginfo>
							<description></description>
							<scene></scene>
							<shottake></shottake>
							<lognote></lognote>
							<good></good>
							<originalvideofilename></originalvideofilename>
							<originalaudiofilename></originalaudiofilename>
						</logginginfo>
						<colorinfo>
							<lut></lut>
							<lut1></lut1>
							<asc_sop></asc_sop>
							<asc_sat></asc_sat>
							<lut2></lut2>
						</colorinfo>
						<labels>
							<label2>Violet</label2>
						</labels>
					</clipitem>
					<clipitem id="clipitem-939">
						<masterclipid>masterclip-936</masterclipid>
						<name>TKO_015_CRA_Sh09840.mov</name>
						<enabled>TRUE</enabled>
						<duration>40</duration>
						<rate>
							<timebase>24</timebase>
							<ntsc>TRUE</ntsc>
						</rate>
						<start>71708</start>
						<end>71740</end>
						<in>4</in>
						<out>36</out>
						<pproTicksIn>42378336000</pproTicksIn>
						<pproTicksOut>381405024000</pproTicksOut>
						<alphatype>none</alphatype>
						<pixelaspectratio>square</pixelaspectratio>
						<anamorphic>FALSE</anamorphic>
						<file id="file-936">
							<name>TKO_015_CRA_Sh09840.mov</name>
							<pathurl>file://tri-stor01/Projects/TKO/SHOTS/_Refs_Movs_Burnin_FrameCounter/TKO_015_CRA_Sh09840.mov</pathurl>
							<rate>
								<timebase>24</timebase>
								<ntsc>TRUE</ntsc>
							</rate>
							<duration>40</duration>
							<timecode>
								<rate>
									<timebase>24</timebase>
									<ntsc>TRUE</ntsc>
								</rate>
								<string>17:35:31:04</string>
								<frame>1519948</frame>
								<displayformat>NDF</displayformat>
								<reel>
									<name>B0120001</name>
								</reel>
							</timecode>
							<media>
								<video>
									<samplecharacteristics>
										<rate>
											<timebase>24</timebase>
											<ntsc>TRUE</ntsc>
										</rate>
										<width>4096</width>
										<height>2160</height>
										<anamorphic>FALSE</anamorphic>
										<pixelaspectratio>square</pixelaspectratio>
										<fielddominance>none</fielddominance>
									</samplecharacteristics>
								</video>
							</media>
						</file>
						<logginginfo>
							<description></description>
							<scene></scene>
							<shottake></shottake>
							<lognote></lognote>
							<good></good>
							<originalvideofilename></originalvideofilename>
							<originalaudiofilename></originalaudiofilename>
						</logginginfo>
						<colorinfo>
							<lut></lut>
							<lut1></lut1>
							<asc_sop></asc_sop>
							<asc_sat></asc_sat>
							<lut2></lut2>
						</colorinfo>
						<labels>
							<label2>Violet</label2>
						</labels>
					</clipitem>
					<clipitem id="clipitem-940">
						<masterclipid>masterclip-937</masterclipid>
						<name>TKO_015_CRA_Sh09850.mov</name>
						<enabled>TRUE</enabled>
						<duration>29</duration>
						<rate>
							<timebase>24</timebase>
							<ntsc>TRUE</ntsc>
						</rate>
						<start>71740</start>
						<end>71761</end>
						<in>4</in>
						<out>25</out>
						<pproTicksIn>42378336000</pproTicksIn>
						<pproTicksOut>264864600000</pproTicksOut>
						<alphatype>none</alphatype>
						<pixelaspectratio>square</pixelaspectratio>
						<anamorphic>FALSE</anamorphic>
						<file id="file-937">
							<name>TKO_015_CRA_Sh09850.mov</name>
							<pathurl>file://tri-stor01/Projects/TKO/SHOTS/_Refs_Movs_Burnin_FrameCounter/TKO_015_CRA_Sh09850.mov</pathurl>
							<rate>
								<timebase>24</timebase>
								<ntsc>TRUE</ntsc>
							</rate>
							<duration>29</duration>
							<timecode>
								<rate>
									<timebase>24</timebase>
									<ntsc>TRUE</ntsc>
								</rate>
								<string>17:53:16:17</string>
								<frame>1545521</frame>
								<displayformat>NDF</displayformat>
								<reel>
									<name>A0150002</name>
								</reel>
							</timecode>
							<media>
								<video>
									<samplecharacteristics>
										<rate>
											<timebase>24</timebase>
											<ntsc>TRUE</ntsc>
										</rate>
										<width>4096</width>
										<height>2160</height>
										<anamorphic>FALSE</anamorphic>
										<pixelaspectratio>square</pixelaspectratio>
										<fielddominance>none</fielddominance>
									</samplecharacteristics>
								</video>
							</media>
						</file>
						<logginginfo>
							<description></description>
							<scene></scene>
							<shottake></shottake>
							<lognote></lognote>
							<good></good>
							<originalvideofilename></originalvideofilename>
							<originalaudiofilename></originalaudiofilename>
						</logginginfo>
						<colorinfo>
							<lut></lut>
							<lut1></lut1>
							<asc_sop></asc_sop>
							<asc_sat></asc_sat>
							<lut2></lut2>
						</colorinfo>
						<labels>
							<label2>Violet</label2>
						</labels>
					</clipitem>
					<clipitem id="clipitem-941">
						<masterclipid>masterclip-938</masterclipid>
						<name>TKO_015_CRA_Sh09860.mov</name>
						<enabled>TRUE</enabled>
						<duration>44</duration>
						<rate>
							<timebase>24</timebase>
							<ntsc>TRUE</ntsc>
						</rate>
						<start>71761</start>
						<end>71797</end>
						<in>4</in>
						<out>40</out>
						<pproTicksIn>42378336000</pproTicksIn>
						<pproTicksOut>423783360000</pproTicksOut>
						<alphatype>none</alphatype>
						<pixelaspectratio>square</pixelaspectratio>
						<anamorphic>FALSE</anamorphic>
						<file id="file-938">
							<name>TKO_015_CRA_Sh09860.mov</name>
							<pathurl>file://tri-stor01/Projects/TKO/SHOTS/_Refs_Movs_Burnin_FrameCounter/TKO_015_CRA_Sh09860.mov</pathurl>
							<rate>
								<timebase>24</timebase>
								<ntsc>TRUE</ntsc>
							</rate>
							<duration>44</duration>
							<timecode>
								<rate>
									<timebase>24</timebase>
									<ntsc>TRUE</ntsc>
								</rate>
								<string>00:40:16:00</string>
								<frame>57984</frame>
								<displayformat>NDF</displayformat>
							</timecode>
							<media>
								<video>
									<samplecharacteristics>
										<rate>
											<timebase>24</timebase>
											<ntsc>TRUE</ntsc>
										</rate>
										<width>1280</width>
										<height>720</height>
										<anamorphic>FALSE</anamorphic>
										<pixelaspectratio>square</pixelaspectratio>
										<fielddominance>none</fielddominance>
									</samplecharacteristics>
								</video>
							</media>
						</file>
						<logginginfo>
							<description></description>
							<scene></scene>
							<shottake></shottake>
							<lognote></lognote>
							<good></good>
							<originalvideofilename></originalvideofilename>
							<originalaudiofilename></originalaudiofilename>
						</logginginfo>
						<colorinfo>
							<lut></lut>
							<lut1></lut1>
							<asc_sop></asc_sop>
							<asc_sat></asc_sat>
							<lut2></lut2>
						</colorinfo>
						<labels>
							<label2>Blue</label2>
						</labels>
					</clipitem>
					<clipitem id="clipitem-942">
						<masterclipid>masterclip-939</masterclipid>
						<name>TKO_015_CRA_Sh09870.mov</name>
						<enabled>TRUE</enabled>
						<duration>35</duration>
						<rate>
							<timebase>24</timebase>
							<ntsc>TRUE</ntsc>
						</rate>
						<start>71797</start>
						<end>71824</end>
						<in>4</in>
						<out>31</out>
						<pproTicksIn>42378336000</pproTicksIn>
						<pproTicksOut>328432104000</pproTicksOut>
						<alphatype>none</alphatype>
						<pixelaspectratio>square</pixelaspectratio>
						<anamorphic>FALSE</anamorphic>
						<file id="file-939">
							<name>TKO_015_CRA_Sh09870.mov</name>
							<pathurl>file://tri-stor01/Projects/TKO/SHOTS/_Refs_Movs_Burnin_FrameCounter/TKO_015_CRA_Sh09870.mov</pathurl>
							<rate>
								<timebase>24</timebase>
								<ntsc>TRUE</ntsc>
							</rate>
							<duration>35</duration>
							<timecode>
								<rate>
									<timebase>24</timebase>
									<ntsc>TRUE</ntsc>
								</rate>
								<string>07:25:27:13</string>
								<frame>641461</frame>
								<displayformat>NDF</displayformat>
								<reel>
									<name>C0180005</name>
								</reel>
							</timecode>
							<media>
								<video>
									<samplecharacteristics>
										<rate>
											<timebase>24</timebase>
											<ntsc>TRUE</ntsc>
										</rate>
										<width>3840</width>
										<height>2160</height>
										<anamorphic>FALSE</anamorphic>
										<pixelaspectratio>square</pixelaspectratio>
										<fielddominance>none</fielddominance>
									</samplecharacteristics>
								</video>
							</media>
						</file>
						<logginginfo>
							<description></description>
							<scene></scene>
							<shottake></shottake>
							<lognote></lognote>
							<good></good>
							<originalvideofilename></originalvideofilename>
							<originalaudiofilename></originalaudiofilename>
						</logginginfo>
						<colorinfo>
							<lut></lut>
							<lut1></lut1>
							<asc_sop></asc_sop>
							<asc_sat></asc_sat>
							<lut2></lut2>
						</colorinfo>
						<labels>
							<label2>Violet</label2>
						</labels>
					</clipitem>
					<clipitem id="clipitem-943">
						<masterclipid>masterclip-940</masterclipid>
						<name>TKO_015_CRA_Sh09880.mov</name>
						<enabled>TRUE</enabled>
						<duration>18</duration>
						<rate>
							<timebase>24</timebase>
							<ntsc>TRUE</ntsc>
						</rate>
						<start>71824</start>
						<end>71834</end>
						<in>3</in>
						<out>13</out>
						<pproTicksIn>31783752000</pproTicksIn>
						<pproTicksOut>137729592000</pproTicksOut>
						<alphatype>none</alphatype>
						<pixelaspectratio>square</pixelaspectratio>
						<anamorphic>FALSE</anamorphic>
						<file id="file-940">
							<name>TKO_015_CRA_Sh09880.mov</name>
							<pathurl>file://tri-stor01/Projects/TKO/SHOTS/_Refs_Movs_Burnin_FrameCounter/TKO_015_CRA_Sh09880.mov</pathurl>
							<rate>
								<timebase>24</timebase>
								<ntsc>TRUE</ntsc>
							</rate>
							<duration>18</duration>
							<timecode>
								<rate>
									<timebase>24</timebase>
									<ntsc>TRUE</ntsc>
								</rate>
								<string>07:24:13:09</string>
								<frame>639681</frame>
								<displayformat>NDF</displayformat>
								<reel>
									<name>C0180005</name>
								</reel>
							</timecode>
							<media>
								<video>
									<samplecharacteristics>
										<rate>
											<timebase>24</timebase>
											<ntsc>TRUE</ntsc>
										</rate>
										<width>3840</width>
										<height>2160</height>
										<anamorphic>FALSE</anamorphic>
										<pixelaspectratio>square</pixelaspectratio>
										<fielddominance>none</fielddominance>
									</samplecharacteristics>
								</video>
							</media>
						</file>
						<logginginfo>
							<description></description>
							<scene></scene>
							<shottake></shottake>
							<lognote></lognote>
							<good></good>
							<originalvideofilename></originalvideofilename>
							<originalaudiofilename></originalaudiofilename>
						</logginginfo>
						<colorinfo>
							<lut></lut>
							<lut1></lut1>
							<asc_sop></asc_sop>
							<asc_sat></asc_sat>
							<lut2></lut2>
						</colorinfo>
						<labels>
							<label2>Violet</label2>
						</labels>
					</clipitem>
					<clipitem id="clipitem-944">
						<masterclipid>masterclip-941</masterclipid>
						<name>TKO_015_CRA_Sh09890.mov</name>
						<enabled>TRUE</enabled>
						<duration>34</duration>
						<rate>
							<timebase>24</timebase>
							<ntsc>TRUE</ntsc>
						</rate>
						<start>71834</start>
						<end>71860</end>
						<in>4</in>
						<out>30</out>
						<pproTicksIn>42378336000</pproTicksIn>
						<pproTicksOut>317837520000</pproTicksOut>
						<alphatype>none</alphatype>
						<pixelaspectratio>square</pixelaspectratio>
						<anamorphic>FALSE</anamorphic>
						<file id="file-941">
							<name>TKO_015_CRA_Sh09890.mov</name>
							<pathurl>file://tri-stor01/Projects/TKO/SHOTS/_Refs_Movs_Burnin_FrameCounter/TKO_015_CRA_Sh09890.mov</pathurl>
							<rate>
								<timebase>24</timebase>
								<ntsc>TRUE</ntsc>
							</rate>
							<duration>34</duration>
							<timecode>
								<rate>
									<timebase>24</timebase>
									<ntsc>TRUE</ntsc>
								</rate>
								<string>00:40:19:08</string>
								<frame>58064</frame>
								<displayformat>NDF</displayformat>
							</timecode>
							<media>
								<video>
									<samplecharacteristics>
										<rate>
											<timebase>24</timebase>
											<ntsc>TRUE</ntsc>
										</rate>
										<width>1280</width>
										<height>720</height>
										<anamorphic>FALSE</anamorphic>
										<pixelaspectratio>square</pixelaspectratio>
										<fielddominance>none</fielddominance>
									</samplecharacteristics>
								</video>
							</media>
						</file>
						<logginginfo>
							<description></description>
							<scene></scene>
							<shottake></shottake>
							<lognote></lognote>
							<good></good>
							<originalvideofilename></originalvideofilename>
							<originalaudiofilename></originalaudiofilename>
						</logginginfo>
						<colorinfo>
							<lut></lut>
							<lut1></lut1>
							<asc_sop></asc_sop>
							<asc_sat></asc_sat>
							<lut2></lut2>
						</colorinfo>
						<labels>
							<label2>Violet</label2>
						</labels>
					</clipitem>
					<clipitem id="clipitem-945">
						<masterclipid>masterclip-942</masterclipid>
						<name>TKO_015_CRA_Sh09900.mov</name>
						<enabled>TRUE</enabled>
						<duration>30</duration>
						<rate>
							<timebase>24</timebase>
							<ntsc>TRUE</ntsc>
						</rate>
						<start>71860</start>
						<end>71882</end>
						<in>4</in>
						<out>26</out>
						<pproTicksIn>42378336000</pproTicksIn>
						<pproTicksOut>275459184000</pproTicksOut>
						<alphatype>none</alphatype>
						<pixelaspectratio>square</pixelaspectratio>
						<anamorphic>FALSE</anamorphic>
						<file id="file-942">
							<name>TKO_015_CRA_Sh09900.mov</name>
							<pathurl>file://tri-stor01/Projects/TKO/SHOTS/_Refs_Movs_Burnin_FrameCounter/TKO_015_CRA_Sh09900.mov</pathurl>
							<rate>
								<timebase>24</timebase>
								<ntsc>TRUE</ntsc>
							</rate>
							<duration>30</duration>
							<timecode>
								<rate>
									<timebase>24</timebase>
									<ntsc>TRUE</ntsc>
								</rate>
								<string>00:40:20:10</string>
								<frame>58090</frame>
								<displayformat>NDF</displayformat>
							</timecode>
							<media>
								<video>
									<samplecharacteristics>
										<rate>
											<timebase>24</timebase>
											<ntsc>TRUE</ntsc>
										</rate>
										<width>1280</width>
										<height>720</height>
										<anamorphic>FALSE</anamorphic>
										<pixelaspectratio>square</pixelaspectratio>
										<fielddominance>none</fielddominance>
									</samplecharacteristics>
								</video>
							</media>
						</file>
						<logginginfo>
							<description></description>
							<scene></scene>
							<shottake></shottake>
							<lognote></lognote>
							<good></good>
							<originalvideofilename></originalvideofilename>
							<originalaudiofilename></originalaudiofilename>
						</logginginfo>
						<colorinfo>
							<lut></lut>
							<lut1></lut1>
							<asc_sop></asc_sop>
							<asc_sat></asc_sat>
							<lut2></lut2>
						</colorinfo>
						<labels>
							<label2>Violet</label2>
						</labels>
					</clipitem>
					<clipitem id="clipitem-946">
						<masterclipid>masterclip-943</masterclipid>
						<name>TKO_015_CRA_Sh09910.mov</name>
						<enabled>TRUE</enabled>
						<duration>16</duration>
						<rate>
							<timebase>24</timebase>
							<ntsc>TRUE</ntsc>
						</rate>
						<start>71882</start>
						<end>71890</end>
						<in>4</in>
						<out>12</out>
						<pproTicksIn>42378336000</pproTicksIn>
						<pproTicksOut>127135008000</pproTicksOut>
						<alphatype>none</alphatype>
						<pixelaspectratio>square</pixelaspectratio>
						<anamorphic>FALSE</anamorphic>
						<file id="file-943">
							<name>TKO_015_CRA_Sh09910.mov</name>
							<pathurl>file://tri-stor01/Projects/TKO/SHOTS/_Refs_Movs_Burnin_FrameCounter/TKO_015_CRA_Sh09910.mov</pathurl>
							<rate>
								<timebase>24</timebase>
								<ntsc>TRUE</ntsc>
							</rate>
							<duration>16</duration>
							<timecode>
								<rate>
									<timebase>24</timebase>
									<ntsc>TRUE</ntsc>
								</rate>
								<string>17:35:33:18</string>
								<frame>1520010</frame>
								<displayformat>NDF</displayformat>
								<reel>
									<name>B0120001</name>
								</reel>
							</timecode>
							<media>
								<video>
									<samplecharacteristics>
										<rate>
											<timebase>24</timebase>
											<ntsc>TRUE</ntsc>
										</rate>
										<width>4096</width>
										<height>2160</height>
										<anamorphic>FALSE</anamorphic>
										<pixelaspectratio>square</pixelaspectratio>
										<fielddominance>none</fielddominance>
									</samplecharacteristics>
								</video>
							</media>
						</file>
						<logginginfo>
							<description></description>
							<scene></scene>
							<shottake></shottake>
							<lognote></lognote>
							<good></good>
							<originalvideofilename></originalvideofilename>
							<originalaudiofilename></originalaudiofilename>
						</logginginfo>
						<colorinfo>
							<lut></lut>
							<lut1></lut1>
							<asc_sop></asc_sop>
							<asc_sat></asc_sat>
							<lut2></lut2>
						</colorinfo>
						<labels>
							<label2>Violet</label2>
						</labels>
					</clipitem>
					<clipitem id="clipitem-947">
						<masterclipid>masterclip-944</masterclipid>
						<name>TKO_015_CRA_Sh09920.mov</name>
						<enabled>TRUE</enabled>
						<duration>22</duration>
						<rate>
							<timebase>24</timebase>
							<ntsc>TRUE</ntsc>
						</rate>
						<start>71890</start>
						<end>71904</end>
						<in>4</in>
						<out>18</out>
						<pproTicksIn>42378336000</pproTicksIn>
						<pproTicksOut>190702512000</pproTicksOut>
						<alphatype>none</alphatype>
						<pixelaspectratio>square</pixelaspectratio>
						<anamorphic>FALSE</anamorphic>
						<file id="file-944">
							<name>TKO_015_CRA_Sh09920.mov</name>
							<pathurl>file://tri-stor01/Projects/TKO/SHOTS/_Refs_Movs_Burnin_FrameCounter/TKO_015_CRA_Sh09920.mov</pathurl>
							<rate>
								<timebase>24</timebase>
								<ntsc>TRUE</ntsc>
							</rate>
							<duration>22</duration>
							<timecode>
								<rate>
									<timebase>24</timebase>
									<ntsc>TRUE</ntsc>
								</rate>
								<string>04:09:15:08</string>
								<frame>358928</frame>
								<displayformat>NDF</displayformat>
								<reel>
									<name>C0080002</name>
								</reel>
							</timecode>
							<media>
								<video>
									<samplecharacteristics>
										<rate>
											<timebase>24</timebase>
											<ntsc>TRUE</ntsc>
										</rate>
										<width>3840</width>
										<height>2160</height>
										<anamorphic>FALSE</anamorphic>
										<pixelaspectratio>square</pixelaspectratio>
										<fielddominance>none</fielddominance>
									</samplecharacteristics>
								</video>
							</media>
						</file>
						<logginginfo>
							<description></description>
							<scene></scene>
							<shottake></shottake>
							<lognote></lognote>
							<good></good>
							<originalvideofilename></originalvideofilename>
							<originalaudiofilename></originalaudiofilename>
						</logginginfo>
						<colorinfo>
							<lut></lut>
							<lut1></lut1>
							<asc_sop></asc_sop>
							<asc_sat></asc_sat>
							<lut2></lut2>
						</colorinfo>
						<labels>
							<label2>Violet</label2>
						</labels>
					</clipitem>
					<clipitem id="clipitem-948">
						<masterclipid>masterclip-945</masterclipid>
						<name>TKO_015_CRA_Sh09930.mov</name>
						<enabled>TRUE</enabled>
						<duration>14</duration>
						<rate>
							<timebase>24</timebase>
							<ntsc>TRUE</ntsc>
						</rate>
						<start>71904</start>
						<end>71912</end>
						<in>2</in>
						<out>10</out>
						<pproTicksIn>21189168000</pproTicksIn>
						<pproTicksOut>105945840000</pproTicksOut>
						<alphatype>none</alphatype>
						<pixelaspectratio>square</pixelaspectratio>
						<anamorphic>FALSE</anamorphic>
						<file id="file-945">
							<name>TKO_015_CRA_Sh09930.mov</name>
							<pathurl>file://tri-stor01/Projects/TKO/SHOTS/_Refs_Movs_Burnin_FrameCounter/TKO_015_CRA_Sh09930.mov</pathurl>
							<rate>
								<timebase>24</timebase>
								<ntsc>TRUE</ntsc>
							</rate>
							<duration>14</duration>
							<timecode>
								<rate>
									<timebase>24</timebase>
									<ntsc>TRUE</ntsc>
								</rate>
								<string>00:40:22:03</string>
								<frame>58131</frame>
								<displayformat>NDF</displayformat>
							</timecode>
							<media>
								<video>
									<samplecharacteristics>
										<rate>
											<timebase>24</timebase>
											<ntsc>TRUE</ntsc>
										</rate>
										<width>1280</width>
										<height>720</height>
										<anamorphic>FALSE</anamorphic>
										<pixelaspectratio>square</pixelaspectratio>
										<fielddominance>none</fielddominance>
									</samplecharacteristics>
								</video>
							</media>
						</file>
						<logginginfo>
							<description></description>
							<scene></scene>
							<shottake></shottake>
							<lognote></lognote>
							<good></good>
							<originalvideofilename></originalvideofilename>
							<originalaudiofilename></originalaudiofilename>
						</logginginfo>
						<colorinfo>
							<lut></lut>
							<lut1></lut1>
							<asc_sop></asc_sop>
							<asc_sat></asc_sat>
							<lut2></lut2>
						</colorinfo>
						<labels>
							<label2>Violet</label2>
						</labels>
					</clipitem>
					<clipitem id="clipitem-949">
						<masterclipid>masterclip-946</masterclipid>
						<name>TKO_015_CRA_Sh09940.mov</name>
						<enabled>TRUE</enabled>
						<duration>39</duration>
						<rate>
							<timebase>24</timebase>
							<ntsc>TRUE</ntsc>
						</rate>
						<start>71912</start>
						<end>71941</end>
						<in>4</in>
						<out>33</out>
						<pproTicksIn>42378336000</pproTicksIn>
						<pproTicksOut>349621272000</pproTicksOut>
						<alphatype>none</alphatype>
						<pixelaspectratio>square</pixelaspectratio>
						<anamorphic>FALSE</anamorphic>
						<file id="file-946">
							<name>TKO_015_CRA_Sh09940.mov</name>
							<pathurl>file://tri-stor01/Projects/TKO/SHOTS/_Refs_Movs_Burnin_FrameCounter/TKO_015_CRA_Sh09940.mov</pathurl>
							<rate>
								<timebase>24</timebase>
								<ntsc>TRUE</ntsc>
							</rate>
							<duration>39</duration>
							<timecode>
								<rate>
									<timebase>24</timebase>
									<ntsc>TRUE</ntsc>
								</rate>
								<string>00:40:22:09</string>
								<frame>58137</frame>
								<displayformat>NDF</displayformat>
							</timecode>
							<media>
								<video>
									<samplecharacteristics>
										<rate>
											<timebase>24</timebase>
											<ntsc>TRUE</ntsc>
										</rate>
										<width>1280</width>
										<height>720</height>
										<anamorphic>FALSE</anamorphic>
										<pixelaspectratio>square</pixelaspectratio>
										<fielddominance>none</fielddominance>
									</samplecharacteristics>
								</video>
							</media>
						</file>
						<logginginfo>
							<description></description>
							<scene></scene>
							<shottake></shottake>
							<lognote></lognote>
							<good></good>
							<originalvideofilename></originalvideofilename>
							<originalaudiofilename></originalaudiofilename>
						</logginginfo>
						<colorinfo>
							<lut></lut>
							<lut1></lut1>
							<asc_sop></asc_sop>
							<asc_sat></asc_sat>
							<lut2></lut2>
						</colorinfo>
						<labels>
							<label2>Violet</label2>
						</labels>
					</clipitem>
					<clipitem id="clipitem-950">
						<masterclipid>masterclip-947</masterclipid>
						<name>TKO_015_CRA_Sh09950.mov</name>
						<enabled>TRUE</enabled>
						<duration>72</duration>
						<rate>
							<timebase>24</timebase>
							<ntsc>TRUE</ntsc>
						</rate>
						<start>71941</start>
						<end>72005</end>
						<in>4</in>
						<out>68</out>
						<pproTicksIn>42378336000</pproTicksIn>
						<pproTicksOut>720431712000</pproTicksOut>
						<alphatype>none</alphatype>
						<pixelaspectratio>square</pixelaspectratio>
						<anamorphic>FALSE</anamorphic>
						<file id="file-947">
							<name>TKO_015_CRA_Sh09950.mov</name>
							<pathurl>file://tri-stor01/Projects/TKO/SHOTS/_Refs_Movs_Burnin_FrameCounter/TKO_015_CRA_Sh09950.mov</pathurl>
							<rate>
								<timebase>24</timebase>
								<ntsc>TRUE</ntsc>
							</rate>
							<duration>72</duration>
							<timecode>
								<rate>
									<timebase>24</timebase>
									<ntsc>TRUE</ntsc>
								</rate>
								<string>00:40:23:16</string>
								<frame>58168</frame>
								<displayformat>NDF</displayformat>
							</timecode>
							<media>
								<video>
									<samplecharacteristics>
										<rate>
											<timebase>24</timebase>
											<ntsc>TRUE</ntsc>
										</rate>
										<width>1280</width>
										<height>720</height>
										<anamorphic>FALSE</anamorphic>
										<pixelaspectratio>square</pixelaspectratio>
										<fielddominance>none</fielddominance>
									</samplecharacteristics>
								</video>
							</media>
						</file>
						<logginginfo>
							<description></description>
							<scene></scene>
							<shottake></shottake>
							<lognote></lognote>
							<good></good>
							<originalvideofilename></originalvideofilename>
							<originalaudiofilename></originalaudiofilename>
						</logginginfo>
						<colorinfo>
							<lut></lut>
							<lut1></lut1>
							<asc_sop></asc_sop>
							<asc_sat></asc_sat>
							<lut2></lut2>
						</colorinfo>
						<labels>
							<label2>Violet</label2>
						</labels>
					</clipitem>
					<clipitem id="clipitem-951">
						<masterclipid>masterclip-948</masterclipid>
						<name>TKO_015_CRA_Sh09960.mov</name>
						<enabled>TRUE</enabled>
						<duration>123</duration>
						<rate>
							<timebase>24</timebase>
							<ntsc>TRUE</ntsc>
						</rate>
						<start>72005</start>
						<end>72120</end>
						<in>4</in>
						<out>119</out>
						<pproTicksIn>42378336000</pproTicksIn>
						<pproTicksOut>1260755496000</pproTicksOut>
						<alphatype>none</alphatype>
						<pixelaspectratio>square</pixelaspectratio>
						<anamorphic>FALSE</anamorphic>
						<file id="file-948">
							<name>TKO_015_CRA_Sh09960.mov</name>
							<pathurl>file://tri-stor01/Projects/TKO/SHOTS/_Refs_Movs_Burnin_FrameCounter/TKO_015_CRA_Sh09960.mov</pathurl>
							<rate>
								<timebase>24</timebase>
								<ntsc>TRUE</ntsc>
							</rate>
							<duration>123</duration>
							<timecode>
								<rate>
									<timebase>24</timebase>
									<ntsc>TRUE</ntsc>
								</rate>
								<string>03:09:08:14</string>
								<frame>272366</frame>
								<displayformat>NDF</displayformat>
								<reel>
									<name>C0050006</name>
								</reel>
							</timecode>
							<media>
								<video>
									<samplecharacteristics>
										<rate>
											<timebase>24</timebase>
											<ntsc>TRUE</ntsc>
										</rate>
										<width>3840</width>
										<height>2160</height>
										<anamorphic>FALSE</anamorphic>
										<pixelaspectratio>square</pixelaspectratio>
										<fielddominance>none</fielddominance>
									</samplecharacteristics>
								</video>
							</media>
						</file>
						<logginginfo>
							<description></description>
							<scene></scene>
							<shottake></shottake>
							<lognote></lognote>
							<good></good>
							<originalvideofilename></originalvideofilename>
							<originalaudiofilename></originalaudiofilename>
						</logginginfo>
						<colorinfo>
							<lut></lut>
							<lut1></lut1>
							<asc_sop></asc_sop>
							<asc_sat></asc_sat>
							<lut2></lut2>
						</colorinfo>
						<labels>
							<label2>Violet</label2>
						</labels>
					</clipitem>
					<clipitem id="clipitem-952">
						<masterclipid>masterclip-949</masterclipid>
						<name>TKO_015_CRA_Sh09970.mov</name>
						<enabled>TRUE</enabled>
						<duration>45</duration>
						<rate>
							<timebase>24</timebase>
							<ntsc>TRUE</ntsc>
						</rate>
						<start>72120</start>
						<end>72157</end>
						<in>4</in>
						<out>41</out>
						<pproTicksIn>42378336000</pproTicksIn>
						<pproTicksOut>434377944000</pproTicksOut>
						<alphatype>none</alphatype>
						<pixelaspectratio>square</pixelaspectratio>
						<anamorphic>FALSE</anamorphic>
						<file id="file-949">
							<name>TKO_015_CRA_Sh09970.mov</name>
							<pathurl>file://tri-stor01/Projects/TKO/SHOTS/_Refs_Movs_Burnin_FrameCounter/TKO_015_CRA_Sh09970.mov</pathurl>
							<rate>
								<timebase>24</timebase>
								<ntsc>TRUE</ntsc>
							</rate>
							<duration>45</duration>
							<timecode>
								<rate>
									<timebase>24</timebase>
									<ntsc>TRUE</ntsc>
								</rate>
								<string>18:14:34:15</string>
								<frame>1576191</frame>
								<displayformat>NDF</displayformat>
								<reel>
									<name>A0120008</name>
								</reel>
							</timecode>
							<media>
								<video>
									<samplecharacteristics>
										<rate>
											<timebase>24</timebase>
											<ntsc>TRUE</ntsc>
										</rate>
										<width>4096</width>
										<height>2160</height>
										<anamorphic>FALSE</anamorphic>
										<pixelaspectratio>square</pixelaspectratio>
										<fielddominance>none</fielddominance>
									</samplecharacteristics>
								</video>
							</media>
						</file>
						<logginginfo>
							<description></description>
							<scene></scene>
							<shottake></shottake>
							<lognote></lognote>
							<good></good>
							<originalvideofilename></originalvideofilename>
							<originalaudiofilename></originalaudiofilename>
						</logginginfo>
						<colorinfo>
							<lut></lut>
							<lut1></lut1>
							<asc_sop></asc_sop>
							<asc_sat></asc_sat>
							<lut2></lut2>
						</colorinfo>
						<labels>
							<label2>Violet</label2>
						</labels>
					</clipitem>
					<clipitem id="clipitem-953">
						<masterclipid>masterclip-950</masterclipid>
						<name>TKO_015_CRA_Sh09980.mov</name>
						<enabled>TRUE</enabled>
						<duration>25</duration>
						<rate>
							<timebase>24</timebase>
							<ntsc>TRUE</ntsc>
						</rate>
						<start>72157</start>
						<end>72174</end>
						<in>4</in>
						<out>21</out>
						<pproTicksIn>42378336000</pproTicksIn>
						<pproTicksOut>222486264000</pproTicksOut>
						<alphatype>none</alphatype>
						<pixelaspectratio>square</pixelaspectratio>
						<anamorphic>FALSE</anamorphic>
						<file id="file-950">
							<name>TKO_015_CRA_Sh09980.mov</name>
							<pathurl>file://tri-stor01/Projects/TKO/SHOTS/_Refs_Movs_Burnin_FrameCounter/TKO_015_CRA_Sh09980.mov</pathurl>
							<rate>
								<timebase>24</timebase>
								<ntsc>TRUE</ntsc>
							</rate>
							<duration>25</duration>
							<timecode>
								<rate>
									<timebase>24</timebase>
									<ntsc>TRUE</ntsc>
								</rate>
								<string>18:14:36:04</string>
								<frame>1576228</frame>
								<displayformat>NDF</displayformat>
								<reel>
									<name>B0090009</name>
								</reel>
							</timecode>
							<media>
								<video>
									<samplecharacteristics>
										<rate>
											<timebase>24</timebase>
											<ntsc>TRUE</ntsc>
										</rate>
										<width>4096</width>
										<height>2160</height>
										<anamorphic>FALSE</anamorphic>
										<pixelaspectratio>square</pixelaspectratio>
										<fielddominance>none</fielddominance>
									</samplecharacteristics>
								</video>
							</media>
						</file>
						<logginginfo>
							<description></description>
							<scene></scene>
							<shottake></shottake>
							<lognote></lognote>
							<good></good>
							<originalvideofilename></originalvideofilename>
							<originalaudiofilename></originalaudiofilename>
						</logginginfo>
						<colorinfo>
							<lut></lut>
							<lut1></lut1>
							<asc_sop></asc_sop>
							<asc_sat></asc_sat>
							<lut2></lut2>
						</colorinfo>
						<labels>
							<label2>Violet</label2>
						</labels>
					</clipitem>
					<clipitem id="clipitem-954">
						<masterclipid>masterclip-951</masterclipid>
						<name>TKO_015_CRA_Sh09990.mov</name>
						<enabled>TRUE</enabled>
						<duration>38</duration>
						<rate>
							<timebase>24</timebase>
							<ntsc>TRUE</ntsc>
						</rate>
						<start>72174</start>
						<end>72204</end>
						<in>4</in>
						<out>34</out>
						<pproTicksIn>42378336000</pproTicksIn>
						<pproTicksOut>360215856000</pproTicksOut>
						<alphatype>none</alphatype>
						<pixelaspectratio>square</pixelaspectratio>
						<anamorphic>FALSE</anamorphic>
						<file id="file-951">
							<name>TKO_015_CRA_Sh09990.mov</name>
							<pathurl>file://tri-stor01/Projects/TKO/SHOTS/_Refs_Movs_Burnin_FrameCounter/TKO_015_CRA_Sh09990.mov</pathurl>
							<rate>
								<timebase>24</timebase>
								<ntsc>TRUE</ntsc>
							</rate>
							<duration>38</duration>
							<timecode>
								<rate>
									<timebase>24</timebase>
									<ntsc>TRUE</ntsc>
								</rate>
								<string>17:30:24:02</string>
								<frame>1512578</frame>
								<displayformat>NDF</displayformat>
								<reel>
									<name>A0120005</name>
								</reel>
							</timecode>
							<media>
								<video>
									<samplecharacteristics>
										<rate>
											<timebase>24</timebase>
											<ntsc>TRUE</ntsc>
										</rate>
										<width>4096</width>
										<height>2160</height>
										<anamorphic>FALSE</anamorphic>
										<pixelaspectratio>square</pixelaspectratio>
										<fielddominance>none</fielddominance>
									</samplecharacteristics>
								</video>
							</media>
						</file>
						<logginginfo>
							<description></description>
							<scene></scene>
							<shottake></shottake>
							<lognote></lognote>
							<good></good>
							<originalvideofilename></originalvideofilename>
							<originalaudiofilename></originalaudiofilename>
						</logginginfo>
						<colorinfo>
							<lut></lut>
							<lut1></lut1>
							<asc_sop></asc_sop>
							<asc_sat></asc_sat>
							<lut2></lut2>
						</colorinfo>
						<labels>
							<label2>Violet</label2>
						</labels>
					</clipitem>
					<clipitem id="clipitem-955">
						<masterclipid>masterclip-952</masterclipid>
						<name>TKO_015_CRA_Sh10000.mov</name>
						<enabled>TRUE</enabled>
						<duration>133</duration>
						<rate>
							<timebase>24</timebase>
							<ntsc>TRUE</ntsc>
						</rate>
						<start>72204</start>
						<end>72329</end>
						<in>4</in>
						<out>129</out>
						<pproTicksIn>42378336000</pproTicksIn>
						<pproTicksOut>1366701336000</pproTicksOut>
						<alphatype>none</alphatype>
						<pixelaspectratio>square</pixelaspectratio>
						<anamorphic>FALSE</anamorphic>
						<file id="file-952">
							<name>TKO_015_CRA_Sh10000.mov</name>
							<pathurl>file://tri-stor01/Projects/TKO/SHOTS/_Refs_Movs_Burnin_FrameCounter/TKO_015_CRA_Sh10000.mov</pathurl>
							<rate>
								<timebase>24</timebase>
								<ntsc>TRUE</ntsc>
							</rate>
							<duration>133</duration>
							<timecode>
								<rate>
									<timebase>24</timebase>
									<ntsc>TRUE</ntsc>
								</rate>
								<string>17:17:05:06</string>
								<frame>1493406</frame>
								<displayformat>NDF</displayformat>
								<reel>
									<name>A0120004</name>
								</reel>
							</timecode>
							<media>
								<video>
									<samplecharacteristics>
										<rate>
											<timebase>24</timebase>
											<ntsc>TRUE</ntsc>
										</rate>
										<width>4096</width>
										<height>2160</height>
										<anamorphic>FALSE</anamorphic>
										<pixelaspectratio>square</pixelaspectratio>
										<fielddominance>none</fielddominance>
									</samplecharacteristics>
								</video>
							</media>
						</file>
						<logginginfo>
							<description></description>
							<scene></scene>
							<shottake></shottake>
							<lognote></lognote>
							<good></good>
							<originalvideofilename></originalvideofilename>
							<originalaudiofilename></originalaudiofilename>
						</logginginfo>
						<colorinfo>
							<lut></lut>
							<lut1></lut1>
							<asc_sop></asc_sop>
							<asc_sat></asc_sat>
							<lut2></lut2>
						</colorinfo>
						<labels>
							<label2>Violet</label2>
						</labels>
					</clipitem>
					<clipitem id="clipitem-956">
						<masterclipid>masterclip-953</masterclipid>
						<name>TKO_015_CRA_Sh10010.mov</name>
						<enabled>TRUE</enabled>
						<duration>38</duration>
						<rate>
							<timebase>24</timebase>
							<ntsc>TRUE</ntsc>
						</rate>
						<start>72329</start>
						<end>72359</end>
						<in>4</in>
						<out>34</out>
						<pproTicksIn>42378336000</pproTicksIn>
						<pproTicksOut>360215856000</pproTicksOut>
						<alphatype>none</alphatype>
						<pixelaspectratio>square</pixelaspectratio>
						<anamorphic>FALSE</anamorphic>
						<file id="file-953">
							<name>TKO_015_CRA_Sh10010.mov</name>
							<pathurl>file://tri-stor01/Projects/TKO/SHOTS/_Refs_Movs_Burnin_FrameCounter/TKO_015_CRA_Sh10010.mov</pathurl>
							<rate>
								<timebase>24</timebase>
								<ntsc>TRUE</ntsc>
							</rate>
							<duration>38</duration>
							<timecode>
								<rate>
									<timebase>24</timebase>
									<ntsc>TRUE</ntsc>
								</rate>
								<string>17:17:55:14</string>
								<frame>1494614</frame>
								<displayformat>NDF</displayformat>
								<reel>
									<name>B0090004</name>
								</reel>
							</timecode>
							<media>
								<video>
									<samplecharacteristics>
										<rate>
											<timebase>24</timebase>
											<ntsc>TRUE</ntsc>
										</rate>
										<width>4096</width>
										<height>2160</height>
										<anamorphic>FALSE</anamorphic>
										<pixelaspectratio>square</pixelaspectratio>
										<fielddominance>none</fielddominance>
									</samplecharacteristics>
								</video>
							</media>
						</file>
						<logginginfo>
							<description></description>
							<scene></scene>
							<shottake></shottake>
							<lognote></lognote>
							<good></good>
							<originalvideofilename></originalvideofilename>
							<originalaudiofilename></originalaudiofilename>
						</logginginfo>
						<colorinfo>
							<lut></lut>
							<lut1></lut1>
							<asc_sop></asc_sop>
							<asc_sat></asc_sat>
							<lut2></lut2>
						</colorinfo>
						<labels>
							<label2>Violet</label2>
						</labels>
					</clipitem>
					<clipitem id="clipitem-957">
						<masterclipid>masterclip-954</masterclipid>
						<name>TKO_015_CRA_Sh10020.mov</name>
						<enabled>TRUE</enabled>
						<duration>23</duration>
						<rate>
							<timebase>24</timebase>
							<ntsc>TRUE</ntsc>
						</rate>
						<start>72359</start>
						<end>72374</end>
						<in>4</in>
						<out>19</out>
						<pproTicksIn>42378336000</pproTicksIn>
						<pproTicksOut>201297096000</pproTicksOut>
						<alphatype>none</alphatype>
						<pixelaspectratio>square</pixelaspectratio>
						<anamorphic>FALSE</anamorphic>
						<file id="file-954">
							<name>TKO_015_CRA_Sh10020.mov</name>
							<pathurl>file://tri-stor01/Projects/TKO/SHOTS/_Refs_Movs_Burnin_FrameCounter/TKO_015_CRA_Sh10020.mov</pathurl>
							<rate>
								<timebase>24</timebase>
								<ntsc>TRUE</ntsc>
							</rate>
							<duration>23</duration>
							<timecode>
								<rate>
									<timebase>24</timebase>
									<ntsc>TRUE</ntsc>
								</rate>
								<string>17:30:25:15</string>
								<frame>1512615</frame>
								<displayformat>NDF</displayformat>
								<reel>
									<name>A0120005</name>
								</reel>
							</timecode>
							<media>
								<video>
									<samplecharacteristics>
										<rate>
											<timebase>24</timebase>
											<ntsc>TRUE</ntsc>
										</rate>
										<width>4096</width>
										<height>2160</height>
										<anamorphic>FALSE</anamorphic>
										<pixelaspectratio>square</pixelaspectratio>
										<fielddominance>none</fielddominance>
									</samplecharacteristics>
								</video>
							</media>
						</file>
						<logginginfo>
							<description></description>
							<scene></scene>
							<shottake></shottake>
							<lognote></lognote>
							<good></good>
							<originalvideofilename></originalvideofilename>
							<originalaudiofilename></originalaudiofilename>
						</logginginfo>
						<colorinfo>
							<lut></lut>
							<lut1></lut1>
							<asc_sop></asc_sop>
							<asc_sat></asc_sat>
							<lut2></lut2>
						</colorinfo>
						<labels>
							<label2>Violet</label2>
						</labels>
					</clipitem>
					<clipitem id="clipitem-958">
						<masterclipid>masterclip-955</masterclipid>
						<name>TKO_015_CRA_Sh10030.mov</name>
						<enabled>TRUE</enabled>
						<duration>158</duration>
						<rate>
							<timebase>24</timebase>
							<ntsc>TRUE</ntsc>
						</rate>
						<start>72374</start>
						<end>72524</end>
						<in>4</in>
						<out>154</out>
						<pproTicksIn>42378336000</pproTicksIn>
						<pproTicksOut>1631565936000</pproTicksOut>
						<alphatype>none</alphatype>
						<pixelaspectratio>square</pixelaspectratio>
						<anamorphic>FALSE</anamorphic>
						<file id="file-955">
							<name>TKO_015_CRA_Sh10030.mov</name>
							<pathurl>file://tri-stor01/Projects/TKO/SHOTS/_Refs_Movs_Burnin_FrameCounter/TKO_015_CRA_Sh10030.mov</pathurl>
							<rate>
								<timebase>24</timebase>
								<ntsc>TRUE</ntsc>
							</rate>
							<duration>158</duration>
							<timecode>
								<rate>
									<timebase>24</timebase>
									<ntsc>TRUE</ntsc>
								</rate>
								<string>17:01:23:06</string>
								<frame>1470798</frame>
								<displayformat>NDF</displayformat>
								<reel>
									<name>A0120003</name>
								</reel>
							</timecode>
							<media>
								<video>
									<samplecharacteristics>
										<rate>
											<timebase>24</timebase>
											<ntsc>TRUE</ntsc>
										</rate>
										<width>4096</width>
										<height>2160</height>
										<anamorphic>FALSE</anamorphic>
										<pixelaspectratio>square</pixelaspectratio>
										<fielddominance>none</fielddominance>
									</samplecharacteristics>
								</video>
							</media>
						</file>
						<logginginfo>
							<description></description>
							<scene></scene>
							<shottake></shottake>
							<lognote></lognote>
							<good></good>
							<originalvideofilename></originalvideofilename>
							<originalaudiofilename></originalaudiofilename>
						</logginginfo>
						<colorinfo>
							<lut></lut>
							<lut1></lut1>
							<asc_sop></asc_sop>
							<asc_sat></asc_sat>
							<lut2></lut2>
						</colorinfo>
						<labels>
							<label2>Violet</label2>
						</labels>
					</clipitem>
					<clipitem id="clipitem-959">
						<masterclipid>masterclip-956</masterclipid>
						<name>TKO_015_CRA_Sh10040.mov</name>
						<enabled>TRUE</enabled>
						<duration>40</duration>
						<rate>
							<timebase>24</timebase>
							<ntsc>TRUE</ntsc>
						</rate>
						<start>72524</start>
						<end>72556</end>
						<in>4</in>
						<out>36</out>
						<pproTicksIn>42378336000</pproTicksIn>
						<pproTicksOut>381405024000</pproTicksOut>
						<alphatype>none</alphatype>
						<pixelaspectratio>square</pixelaspectratio>
						<anamorphic>FALSE</anamorphic>
						<file id="file-956">
							<name>TKO_015_CRA_Sh10040.mov</name>
							<pathurl>file://tri-stor01/Projects/TKO/SHOTS/_Refs_Movs_Burnin_FrameCounter/TKO_015_CRA_Sh10040.mov</pathurl>
							<rate>
								<timebase>24</timebase>
								<ntsc>TRUE</ntsc>
							</rate>
							<duration>40</duration>
							<timecode>
								<rate>
									<timebase>24</timebase>
									<ntsc>TRUE</ntsc>
								</rate>
								<string>17:01:29:12</string>
								<frame>1470948</frame>
								<displayformat>NDF</displayformat>
								<reel>
									<name>B0090003</name>
								</reel>
							</timecode>
							<media>
								<video>
									<samplecharacteristics>
										<rate>
											<timebase>24</timebase>
											<ntsc>TRUE</ntsc>
										</rate>
										<width>4096</width>
										<height>2160</height>
										<anamorphic>FALSE</anamorphic>
										<pixelaspectratio>square</pixelaspectratio>
										<fielddominance>none</fielddominance>
									</samplecharacteristics>
								</video>
							</media>
						</file>
						<logginginfo>
							<description></description>
							<scene></scene>
							<shottake></shottake>
							<lognote></lognote>
							<good></good>
							<originalvideofilename></originalvideofilename>
							<originalaudiofilename></originalaudiofilename>
						</logginginfo>
						<colorinfo>
							<lut></lut>
							<lut1></lut1>
							<asc_sop></asc_sop>
							<asc_sat></asc_sat>
							<lut2></lut2>
						</colorinfo>
						<labels>
							<label2>Violet</label2>
						</labels>
					</clipitem>
					<clipitem id="clipitem-960">
						<masterclipid>masterclip-957</masterclipid>
						<name>TKO_015_CRA_Sh10050.mov</name>
						<enabled>TRUE</enabled>
						<duration>36</duration>
						<rate>
							<timebase>24</timebase>
							<ntsc>TRUE</ntsc>
						</rate>
						<start>72556</start>
						<end>72584</end>
						<in>4</in>
						<out>32</out>
						<pproTicksIn>42378336000</pproTicksIn>
						<pproTicksOut>339026688000</pproTicksOut>
						<alphatype>none</alphatype>
						<pixelaspectratio>square</pixelaspectratio>
						<anamorphic>FALSE</anamorphic>
						<file id="file-957">
							<name>TKO_015_CRA_Sh10050.mov</name>
							<pathurl>file://tri-stor01/Projects/TKO/SHOTS/_Refs_Movs_Burnin_FrameCounter/TKO_015_CRA_Sh10050.mov</pathurl>
							<rate>
								<timebase>24</timebase>
								<ntsc>TRUE</ntsc>
							</rate>
							<duration>36</duration>
							<timecode>
								<rate>
									<timebase>24</timebase>
									<ntsc>TRUE</ntsc>
								</rate>
								<string>17:47:33:06</string>
								<frame>1537278</frame>
								<displayformat>NDF</displayformat>
								<reel>
									<name>B0090006</name>
								</reel>
							</timecode>
							<media>
								<video>
									<samplecharacteristics>
										<rate>
											<timebase>24</timebase>
											<ntsc>TRUE</ntsc>
										</rate>
										<width>4096</width>
										<height>2160</height>
										<anamorphic>FALSE</anamorphic>
										<pixelaspectratio>square</pixelaspectratio>
										<fielddominance>none</fielddominance>
									</samplecharacteristics>
								</video>
							</media>
						</file>
						<logginginfo>
							<description></description>
							<scene></scene>
							<shottake></shottake>
							<lognote></lognote>
							<good></good>
							<originalvideofilename></originalvideofilename>
							<originalaudiofilename></originalaudiofilename>
						</logginginfo>
						<colorinfo>
							<lut></lut>
							<lut1></lut1>
							<asc_sop></asc_sop>
							<asc_sat></asc_sat>
							<lut2></lut2>
						</colorinfo>
						<labels>
							<label2>Violet</label2>
						</labels>
					</clipitem>
					<clipitem id="clipitem-961">
						<masterclipid>masterclip-958</masterclipid>
						<name>TKO_015_CRA_Sh10060.mov</name>
						<enabled>TRUE</enabled>
						<duration>56</duration>
						<rate>
							<timebase>24</timebase>
							<ntsc>TRUE</ntsc>
						</rate>
						<start>72584</start>
						<end>72632</end>
						<in>4</in>
						<out>52</out>
						<pproTicksIn>42378336000</pproTicksIn>
						<pproTicksOut>550918368000</pproTicksOut>
						<alphatype>none</alphatype>
						<pixelaspectratio>square</pixelaspectratio>
						<anamorphic>FALSE</anamorphic>
						<file id="file-958">
							<name>TKO_015_CRA_Sh10060.mov</name>
							<pathurl>file://tri-stor01/Projects/TKO/SHOTS/_Refs_Movs_Burnin_FrameCounter/TKO_015_CRA_Sh10060.mov</pathurl>
							<rate>
								<timebase>24</timebase>
								<ntsc>TRUE</ntsc>
							</rate>
							<duration>56</duration>
							<timecode>
								<rate>
									<timebase>24</timebase>
									<ntsc>TRUE</ntsc>
								</rate>
								<string>17:30:34:21</string>
								<frame>1512837</frame>
								<displayformat>NDF</displayformat>
								<reel>
									<name>A0120005</name>
								</reel>
							</timecode>
							<media>
								<video>
									<samplecharacteristics>
										<rate>
											<timebase>24</timebase>
											<ntsc>TRUE</ntsc>
										</rate>
										<width>4096</width>
										<height>2160</height>
										<anamorphic>FALSE</anamorphic>
										<pixelaspectratio>square</pixelaspectratio>
										<fielddominance>none</fielddominance>
									</samplecharacteristics>
								</video>
							</media>
						</file>
						<logginginfo>
							<description></description>
							<scene></scene>
							<shottake></shottake>
							<lognote></lognote>
							<good></good>
							<originalvideofilename></originalvideofilename>
							<originalaudiofilename></originalaudiofilename>
						</logginginfo>
						<colorinfo>
							<lut></lut>
							<lut1></lut1>
							<asc_sop></asc_sop>
							<asc_sat></asc_sat>
							<lut2></lut2>
						</colorinfo>
						<labels>
							<label2>Violet</label2>
						</labels>
					</clipitem>
					<clipitem id="clipitem-962">
						<masterclipid>masterclip-959</masterclipid>
						<name>TKO_015_CRA_Sh10070.mov</name>
						<enabled>TRUE</enabled>
						<duration>71</duration>
						<rate>
							<timebase>24</timebase>
							<ntsc>TRUE</ntsc>
						</rate>
						<start>72632</start>
						<end>72695</end>
						<in>4</in>
						<out>67</out>
						<pproTicksIn>42378336000</pproTicksIn>
						<pproTicksOut>709837128000</pproTicksOut>
						<alphatype>none</alphatype>
						<pixelaspectratio>square</pixelaspectratio>
						<anamorphic>FALSE</anamorphic>
						<file id="file-959">
							<name>TKO_015_CRA_Sh10070.mov</name>
							<pathurl>file://tri-stor01/Projects/TKO/SHOTS/_Refs_Movs_Burnin_FrameCounter/TKO_015_CRA_Sh10070.mov</pathurl>
							<rate>
								<timebase>24</timebase>
								<ntsc>TRUE</ntsc>
							</rate>
							<duration>71</duration>
							<timecode>
								<rate>
									<timebase>24</timebase>
									<ntsc>TRUE</ntsc>
								</rate>
								<string>17:47:37:20</string>
								<frame>1537388</frame>
								<displayformat>NDF</displayformat>
								<reel>
									<name>B0090006</name>
								</reel>
							</timecode>
							<media>
								<video>
									<samplecharacteristics>
										<rate>
											<timebase>24</timebase>
											<ntsc>TRUE</ntsc>
										</rate>
										<width>4096</width>
										<height>2160</height>
										<anamorphic>FALSE</anamorphic>
										<pixelaspectratio>square</pixelaspectratio>
										<fielddominance>none</fielddominance>
									</samplecharacteristics>
								</video>
							</media>
						</file>
						<logginginfo>
							<description></description>
							<scene></scene>
							<shottake></shottake>
							<lognote></lognote>
							<good></good>
							<originalvideofilename></originalvideofilename>
							<originalaudiofilename></originalaudiofilename>
						</logginginfo>
						<colorinfo>
							<lut></lut>
							<lut1></lut1>
							<asc_sop></asc_sop>
							<asc_sat></asc_sat>
							<lut2></lut2>
						</colorinfo>
						<labels>
							<label2>Violet</label2>
						</labels>
					</clipitem>
					<clipitem id="clipitem-963">
						<masterclipid>masterclip-960</masterclipid>
						<name>TKO_015_CRA_Sh10080.mov</name>
						<enabled>TRUE</enabled>
						<duration>83</duration>
						<rate>
							<timebase>24</timebase>
							<ntsc>TRUE</ntsc>
						</rate>
						<start>72695</start>
						<end>72770</end>
						<in>4</in>
						<out>79</out>
						<pproTicksIn>42378336000</pproTicksIn>
						<pproTicksOut>836972136000</pproTicksOut>
						<alphatype>none</alphatype>
						<pixelaspectratio>square</pixelaspectratio>
						<anamorphic>FALSE</anamorphic>
						<file id="file-960">
							<name>TKO_015_CRA_Sh10080.mov</name>
							<pathurl>file://tri-stor01/Projects/TKO/SHOTS/_Refs_Movs_Burnin_FrameCounter/TKO_015_CRA_Sh10080.mov</pathurl>
							<rate>
								<timebase>24</timebase>
								<ntsc>TRUE</ntsc>
							</rate>
							<duration>83</duration>
							<timecode>
								<rate>
									<timebase>24</timebase>
									<ntsc>TRUE</ntsc>
								</rate>
								<string>17:30:39:05</string>
								<frame>1512941</frame>
								<displayformat>NDF</displayformat>
								<reel>
									<name>A0120005</name>
								</reel>
							</timecode>
							<media>
								<video>
									<samplecharacteristics>
										<rate>
											<timebase>24</timebase>
											<ntsc>TRUE</ntsc>
										</rate>
										<width>4096</width>
										<height>2160</height>
										<anamorphic>FALSE</anamorphic>
										<pixelaspectratio>square</pixelaspectratio>
										<fielddominance>none</fielddominance>
									</samplecharacteristics>
								</video>
							</media>
						</file>
						<logginginfo>
							<description></description>
							<scene></scene>
							<shottake></shottake>
							<lognote></lognote>
							<good></good>
							<originalvideofilename></originalvideofilename>
							<originalaudiofilename></originalaudiofilename>
						</logginginfo>
						<colorinfo>
							<lut></lut>
							<lut1></lut1>
							<asc_sop></asc_sop>
							<asc_sat></asc_sat>
							<lut2></lut2>
						</colorinfo>
						<labels>
							<label2>Violet</label2>
						</labels>
					</clipitem>
					<clipitem id="clipitem-964">
						<masterclipid>masterclip-961</masterclipid>
						<name>TKO_015_CRA_Sh10090.mov</name>
						<enabled>TRUE</enabled>
						<duration>58</duration>
						<rate>
							<timebase>24</timebase>
							<ntsc>TRUE</ntsc>
						</rate>
						<start>72770</start>
						<end>72820</end>
						<in>4</in>
						<out>54</out>
						<pproTicksIn>42378336000</pproTicksIn>
						<pproTicksOut>572107536000</pproTicksOut>
						<alphatype>none</alphatype>
						<pixelaspectratio>square</pixelaspectratio>
						<anamorphic>FALSE</anamorphic>
						<file id="file-961">
							<name>TKO_015_CRA_Sh10090.mov</name>
							<pathurl>file://tri-stor01/Projects/TKO/SHOTS/_Refs_Movs_Burnin_FrameCounter/TKO_015_CRA_Sh10090.mov</pathurl>
							<rate>
								<timebase>24</timebase>
								<ntsc>TRUE</ntsc>
							</rate>
							<duration>58</duration>
							<timecode>
								<rate>
									<timebase>24</timebase>
									<ntsc>TRUE</ntsc>
								</rate>
								<string>17:47:43:14</string>
								<frame>1537526</frame>
								<displayformat>NDF</displayformat>
								<reel>
									<name>B0090006</name>
								</reel>
							</timecode>
							<media>
								<video>
									<samplecharacteristics>
										<rate>
											<timebase>24</timebase>
											<ntsc>TRUE</ntsc>
										</rate>
										<width>4096</width>
										<height>2160</height>
										<anamorphic>FALSE</anamorphic>
										<pixelaspectratio>square</pixelaspectratio>
										<fielddominance>none</fielddominance>
									</samplecharacteristics>
								</video>
							</media>
						</file>
						<logginginfo>
							<description></description>
							<scene></scene>
							<shottake></shottake>
							<lognote></lognote>
							<good></good>
							<originalvideofilename></originalvideofilename>
							<originalaudiofilename></originalaudiofilename>
						</logginginfo>
						<colorinfo>
							<lut></lut>
							<lut1></lut1>
							<asc_sop></asc_sop>
							<asc_sat></asc_sat>
							<lut2></lut2>
						</colorinfo>
						<labels>
							<label2>Violet</label2>
						</labels>
					</clipitem>
					<clipitem id="clipitem-965">
						<masterclipid>masterclip-962</masterclipid>
						<name>TKO_015_CRA_Sh10100.mov</name>
						<enabled>TRUE</enabled>
						<duration>31</duration>
						<rate>
							<timebase>24</timebase>
							<ntsc>TRUE</ntsc>
						</rate>
						<start>72820</start>
						<end>72843</end>
						<in>4</in>
						<out>27</out>
						<pproTicksIn>42378336000</pproTicksIn>
						<pproTicksOut>286053768000</pproTicksOut>
						<alphatype>none</alphatype>
						<pixelaspectratio>square</pixelaspectratio>
						<anamorphic>FALSE</anamorphic>
						<file id="file-962">
							<name>TKO_015_CRA_Sh10100.mov</name>
							<pathurl>file://tri-stor01/Projects/TKO/SHOTS/_Refs_Movs_Burnin_FrameCounter/TKO_015_CRA_Sh10100.mov</pathurl>
							<rate>
								<timebase>24</timebase>
								<ntsc>TRUE</ntsc>
							</rate>
							<duration>31</duration>
							<timecode>
								<rate>
									<timebase>24</timebase>
									<ntsc>TRUE</ntsc>
								</rate>
								<string>17:01:43:14</string>
								<frame>1471286</frame>
								<displayformat>NDF</displayformat>
								<reel>
									<name>A0120003</name>
								</reel>
							</timecode>
							<media>
								<video>
									<samplecharacteristics>
										<rate>
											<timebase>24</timebase>
											<ntsc>TRUE</ntsc>
										</rate>
										<width>4096</width>
										<height>2160</height>
										<anamorphic>FALSE</anamorphic>
										<pixelaspectratio>square</pixelaspectratio>
										<fielddominance>none</fielddominance>
									</samplecharacteristics>
								</video>
							</media>
						</file>
						<logginginfo>
							<description></description>
							<scene></scene>
							<shottake></shottake>
							<lognote></lognote>
							<good></good>
							<originalvideofilename></originalvideofilename>
							<originalaudiofilename></originalaudiofilename>
						</logginginfo>
						<colorinfo>
							<lut></lut>
							<lut1></lut1>
							<asc_sop></asc_sop>
							<asc_sat></asc_sat>
							<lut2></lut2>
						</colorinfo>
						<labels>
							<label2>Violet</label2>
						</labels>
					</clipitem>
					<clipitem id="clipitem-966">
						<masterclipid>masterclip-963</masterclipid>
						<name>TKO_015_CRA_Sh10110.mov</name>
						<enabled>TRUE</enabled>
						<duration>59</duration>
						<rate>
							<timebase>24</timebase>
							<ntsc>TRUE</ntsc>
						</rate>
						<start>72843</start>
						<end>72894</end>
						<in>4</in>
						<out>55</out>
						<pproTicksIn>42378336000</pproTicksIn>
						<pproTicksOut>582702120000</pproTicksOut>
						<alphatype>none</alphatype>
						<pixelaspectratio>square</pixelaspectratio>
						<anamorphic>FALSE</anamorphic>
						<file id="file-963">
							<name>TKO_015_CRA_Sh10110.mov</name>
							<pathurl>file://tri-stor01/Projects/TKO/SHOTS/_Refs_Movs_Burnin_FrameCounter/TKO_015_CRA_Sh10110.mov</pathurl>
							<rate>
								<timebase>24</timebase>
								<ntsc>TRUE</ntsc>
							</rate>
							<duration>59</duration>
							<timecode>
								<rate>
									<timebase>24</timebase>
									<ntsc>TRUE</ntsc>
								</rate>
								<string>17:30:46:08</string>
								<frame>1513112</frame>
								<displayformat>NDF</displayformat>
								<reel>
									<name>A0120005</name>
								</reel>
							</timecode>
							<media>
								<video>
									<samplecharacteristics>
										<rate>
											<timebase>24</timebase>
											<ntsc>TRUE</ntsc>
										</rate>
										<width>4096</width>
										<height>2160</height>
										<anamorphic>FALSE</anamorphic>
										<pixelaspectratio>square</pixelaspectratio>
										<fielddominance>none</fielddominance>
									</samplecharacteristics>
								</video>
							</media>
						</file>
						<logginginfo>
							<description></description>
							<scene></scene>
							<shottake></shottake>
							<lognote></lognote>
							<good></good>
							<originalvideofilename></originalvideofilename>
							<originalaudiofilename></originalaudiofilename>
						</logginginfo>
						<colorinfo>
							<lut></lut>
							<lut1></lut1>
							<asc_sop></asc_sop>
							<asc_sat></asc_sat>
							<lut2></lut2>
						</colorinfo>
						<labels>
							<label2>Violet</label2>
						</labels>
					</clipitem>
					<clipitem id="clipitem-967">
						<masterclipid>masterclip-964</masterclipid>
						<name>TKO_015_CRA_Sh10120.mov</name>
						<enabled>TRUE</enabled>
						<duration>66</duration>
						<rate>
							<timebase>24</timebase>
							<ntsc>TRUE</ntsc>
						</rate>
						<start>72894</start>
						<end>72952</end>
						<in>4</in>
						<out>62</out>
						<pproTicksIn>42378336000</pproTicksIn>
						<pproTicksOut>656864208000</pproTicksOut>
						<alphatype>none</alphatype>
						<pixelaspectratio>square</pixelaspectratio>
						<anamorphic>FALSE</anamorphic>
						<file id="file-964">
							<name>TKO_015_CRA_Sh10120.mov</name>
							<pathurl>file://tri-stor01/Projects/TKO/SHOTS/_Refs_Movs_Burnin_FrameCounter/TKO_015_CRA_Sh10120.mov</pathurl>
							<rate>
								<timebase>24</timebase>
								<ntsc>TRUE</ntsc>
							</rate>
							<duration>66</duration>
							<timecode>
								<rate>
									<timebase>24</timebase>
									<ntsc>TRUE</ntsc>
								</rate>
								<string>17:01:45:23</string>
								<frame>1471343</frame>
								<displayformat>NDF</displayformat>
								<reel>
									<name>B0090003</name>
								</reel>
							</timecode>
							<media>
								<video>
									<samplecharacteristics>
										<rate>
											<timebase>24</timebase>
											<ntsc>TRUE</ntsc>
										</rate>
										<width>4096</width>
										<height>2160</height>
										<anamorphic>FALSE</anamorphic>
										<pixelaspectratio>square</pixelaspectratio>
										<fielddominance>none</fielddominance>
									</samplecharacteristics>
								</video>
							</media>
						</file>
						<logginginfo>
							<description></description>
							<scene></scene>
							<shottake></shottake>
							<lognote></lognote>
							<good></good>
							<originalvideofilename></originalvideofilename>
							<originalaudiofilename></originalaudiofilename>
						</logginginfo>
						<colorinfo>
							<lut></lut>
							<lut1></lut1>
							<asc_sop></asc_sop>
							<asc_sat></asc_sat>
							<lut2></lut2>
						</colorinfo>
						<labels>
							<label2>Violet</label2>
						</labels>
					</clipitem>
					<clipitem id="clipitem-968">
						<masterclipid>masterclip-965</masterclipid>
						<name>TKO_015_CRA_Sh10130.mov</name>
						<enabled>TRUE</enabled>
						<duration>64</duration>
						<rate>
							<timebase>24</timebase>
							<ntsc>TRUE</ntsc>
						</rate>
						<start>72952</start>
						<end>73008</end>
						<in>4</in>
						<out>60</out>
						<pproTicksIn>42378336000</pproTicksIn>
						<pproTicksOut>635675040000</pproTicksOut>
						<alphatype>none</alphatype>
						<pixelaspectratio>square</pixelaspectratio>
						<anamorphic>FALSE</anamorphic>
						<file id="file-965">
							<name>TKO_015_CRA_Sh10130.mov</name>
							<pathurl>file://tri-stor01/Projects/TKO/SHOTS/_Refs_Movs_Burnin_FrameCounter/TKO_015_CRA_Sh10130.mov</pathurl>
							<rate>
								<timebase>24</timebase>
								<ntsc>TRUE</ntsc>
							</rate>
							<duration>64</duration>
							<timecode>
								<rate>
									<timebase>24</timebase>
									<ntsc>TRUE</ntsc>
								</rate>
								<string>17:30:51:12</string>
								<frame>1513236</frame>
								<displayformat>NDF</displayformat>
								<reel>
									<name>A0120005</name>
								</reel>
							</timecode>
							<media>
								<video>
									<samplecharacteristics>
										<rate>
											<timebase>24</timebase>
											<ntsc>TRUE</ntsc>
										</rate>
										<width>4096</width>
										<height>2160</height>
										<anamorphic>FALSE</anamorphic>
										<pixelaspectratio>square</pixelaspectratio>
										<fielddominance>none</fielddominance>
									</samplecharacteristics>
								</video>
							</media>
						</file>
						<logginginfo>
							<description></description>
							<scene></scene>
							<shottake></shottake>
							<lognote></lognote>
							<good></good>
							<originalvideofilename></originalvideofilename>
							<originalaudiofilename></originalaudiofilename>
						</logginginfo>
						<colorinfo>
							<lut></lut>
							<lut1></lut1>
							<asc_sop></asc_sop>
							<asc_sat></asc_sat>
							<lut2></lut2>
						</colorinfo>
						<labels>
							<label2>Violet</label2>
						</labels>
					</clipitem>
					<clipitem id="clipitem-969">
						<masterclipid>masterclip-966</masterclipid>
						<name>TKO_015_CRA_Sh10140.mov</name>
						<enabled>TRUE</enabled>
						<duration>34</duration>
						<rate>
							<timebase>24</timebase>
							<ntsc>TRUE</ntsc>
						</rate>
						<start>73008</start>
						<end>73034</end>
						<in>4</in>
						<out>30</out>
						<pproTicksIn>42378336000</pproTicksIn>
						<pproTicksOut>317837520000</pproTicksOut>
						<alphatype>none</alphatype>
						<pixelaspectratio>square</pixelaspectratio>
						<anamorphic>FALSE</anamorphic>
						<file id="file-966">
							<name>TKO_015_CRA_Sh10140.mov</name>
							<pathurl>file://tri-stor01/Projects/TKO/SHOTS/_Refs_Movs_Burnin_FrameCounter/TKO_015_CRA_Sh10140.mov</pathurl>
							<rate>
								<timebase>24</timebase>
								<ntsc>TRUE</ntsc>
							</rate>
							<duration>34</duration>
							<timecode>
								<rate>
									<timebase>24</timebase>
									<ntsc>TRUE</ntsc>
								</rate>
								<string>17:48:01:07</string>
								<frame>1537951</frame>
								<displayformat>NDF</displayformat>
								<reel>
									<name>B0090006</name>
								</reel>
							</timecode>
							<media>
								<video>
									<samplecharacteristics>
										<rate>
											<timebase>24</timebase>
											<ntsc>TRUE</ntsc>
										</rate>
										<width>4096</width>
										<height>2160</height>
										<anamorphic>FALSE</anamorphic>
										<pixelaspectratio>square</pixelaspectratio>
										<fielddominance>none</fielddominance>
									</samplecharacteristics>
								</video>
							</media>
						</file>
						<logginginfo>
							<description></description>
							<scene></scene>
							<shottake></shottake>
							<lognote></lognote>
							<good></good>
							<originalvideofilename></originalvideofilename>
							<originalaudiofilename></originalaudiofilename>
						</logginginfo>
						<colorinfo>
							<lut></lut>
							<lut1></lut1>
							<asc_sop></asc_sop>
							<asc_sat></asc_sat>
							<lut2></lut2>
						</colorinfo>
						<labels>
							<label2>Violet</label2>
						</labels>
					</clipitem>
					<clipitem id="clipitem-970">
						<masterclipid>masterclip-967</masterclipid>
						<name>TKO_015_CRA_Sh10150.mov</name>
						<enabled>TRUE</enabled>
						<duration>38</duration>
						<rate>
							<timebase>24</timebase>
							<ntsc>TRUE</ntsc>
						</rate>
						<start>73034</start>
						<end>73064</end>
						<in>4</in>
						<out>34</out>
						<pproTicksIn>42378336000</pproTicksIn>
						<pproTicksOut>360215856000</pproTicksOut>
						<alphatype>none</alphatype>
						<pixelaspectratio>square</pixelaspectratio>
						<anamorphic>FALSE</anamorphic>
						<file id="file-967">
							<name>TKO_015_CRA_Sh10150.mov</name>
							<pathurl>file://tri-stor01/Projects/TKO/SHOTS/_Refs_Movs_Burnin_FrameCounter/TKO_015_CRA_Sh10150.mov</pathurl>
							<rate>
								<timebase>24</timebase>
								<ntsc>TRUE</ntsc>
							</rate>
							<duration>38</duration>
							<timecode>
								<rate>
									<timebase>24</timebase>
									<ntsc>TRUE</ntsc>
								</rate>
								<string>03:13:01:00</string>
								<frame>277944</frame>
								<displayformat>NDF</displayformat>
								<reel>
									<name>C0060001</name>
								</reel>
							</timecode>
							<media>
								<video>
									<samplecharacteristics>
										<rate>
											<timebase>24</timebase>
											<ntsc>TRUE</ntsc>
										</rate>
										<width>3840</width>
										<height>2160</height>
										<anamorphic>FALSE</anamorphic>
										<pixelaspectratio>square</pixelaspectratio>
										<fielddominance>none</fielddominance>
									</samplecharacteristics>
								</video>
							</media>
						</file>
						<logginginfo>
							<description></description>
							<scene></scene>
							<shottake></shottake>
							<lognote></lognote>
							<good></good>
							<originalvideofilename></originalvideofilename>
							<originalaudiofilename></originalaudiofilename>
						</logginginfo>
						<colorinfo>
							<lut></lut>
							<lut1></lut1>
							<asc_sop></asc_sop>
							<asc_sat></asc_sat>
							<lut2></lut2>
						</colorinfo>
						<labels>
							<label2>Violet</label2>
						</labels>
					</clipitem>
					<clipitem id="clipitem-971">
						<masterclipid>masterclip-968</masterclipid>
						<name>TKO_015_CRA_Sh10160.mov</name>
						<enabled>TRUE</enabled>
						<duration>34</duration>
						<rate>
							<timebase>24</timebase>
							<ntsc>TRUE</ntsc>
						</rate>
						<start>73064</start>
						<end>73090</end>
						<in>4</in>
						<out>30</out>
						<pproTicksIn>42378336000</pproTicksIn>
						<pproTicksOut>317837520000</pproTicksOut>
						<alphatype>none</alphatype>
						<pixelaspectratio>square</pixelaspectratio>
						<anamorphic>FALSE</anamorphic>
						<file id="file-968">
							<name>TKO_015_CRA_Sh10160.mov</name>
							<pathurl>file://tri-stor01/Projects/TKO/SHOTS/_Refs_Movs_Burnin_FrameCounter/TKO_015_CRA_Sh10160.mov</pathurl>
							<rate>
								<timebase>24</timebase>
								<ntsc>TRUE</ntsc>
							</rate>
							<duration>34</duration>
							<timecode>
								<rate>
									<timebase>24</timebase>
									<ntsc>TRUE</ntsc>
								</rate>
								<string>17:48:06:13</string>
								<frame>1538077</frame>
								<displayformat>NDF</displayformat>
								<reel>
									<name>B0090006</name>
								</reel>
							</timecode>
							<media>
								<video>
									<samplecharacteristics>
										<rate>
											<timebase>24</timebase>
											<ntsc>TRUE</ntsc>
										</rate>
										<width>4096</width>
										<height>2160</height>
										<anamorphic>FALSE</anamorphic>
										<pixelaspectratio>square</pixelaspectratio>
										<fielddominance>none</fielddominance>
									</samplecharacteristics>
								</video>
							</media>
						</file>
						<logginginfo>
							<description></description>
							<scene></scene>
							<shottake></shottake>
							<lognote></lognote>
							<good></good>
							<originalvideofilename></originalvideofilename>
							<originalaudiofilename></originalaudiofilename>
						</logginginfo>
						<colorinfo>
							<lut></lut>
							<lut1></lut1>
							<asc_sop></asc_sop>
							<asc_sat></asc_sat>
							<lut2></lut2>
						</colorinfo>
						<labels>
							<label2>Violet</label2>
						</labels>
					</clipitem>
					<clipitem id="clipitem-972">
						<masterclipid>masterclip-969</masterclipid>
						<name>TKO_015_CRA_Sh10170.mov</name>
						<enabled>TRUE</enabled>
						<duration>21</duration>
						<rate>
							<timebase>24</timebase>
							<ntsc>TRUE</ntsc>
						</rate>
						<start>73090</start>
						<end>73103</end>
						<in>4</in>
						<out>17</out>
						<pproTicksIn>42378336000</pproTicksIn>
						<pproTicksOut>180107928000</pproTicksOut>
						<alphatype>none</alphatype>
						<pixelaspectratio>square</pixelaspectratio>
						<anamorphic>FALSE</anamorphic>
						<file id="file-969">
							<name>TKO_015_CRA_Sh10170.mov</name>
							<pathurl>file://tri-stor01/Projects/TKO/SHOTS/_Refs_Movs_Burnin_FrameCounter/TKO_015_CRA_Sh10170.mov</pathurl>
							<rate>
								<timebase>24</timebase>
								<ntsc>TRUE</ntsc>
							</rate>
							<duration>21</duration>
							<timecode>
								<rate>
									<timebase>24</timebase>
									<ntsc>TRUE</ntsc>
								</rate>
								<string>17:31:00:22</string>
								<frame>1513462</frame>
								<displayformat>NDF</displayformat>
								<reel>
									<name>A0120005</name>
								</reel>
							</timecode>
							<media>
								<video>
									<samplecharacteristics>
										<rate>
											<timebase>24</timebase>
											<ntsc>TRUE</ntsc>
										</rate>
										<width>4096</width>
										<height>2160</height>
										<anamorphic>FALSE</anamorphic>
										<pixelaspectratio>square</pixelaspectratio>
										<fielddominance>none</fielddominance>
									</samplecharacteristics>
								</video>
							</media>
						</file>
						<logginginfo>
							<description></description>
							<scene></scene>
							<shottake></shottake>
							<lognote></lognote>
							<good></good>
							<originalvideofilename></originalvideofilename>
							<originalaudiofilename></originalaudiofilename>
						</logginginfo>
						<colorinfo>
							<lut></lut>
							<lut1></lut1>
							<asc_sop></asc_sop>
							<asc_sat></asc_sat>
							<lut2></lut2>
						</colorinfo>
						<labels>
							<label2>Violet</label2>
						</labels>
					</clipitem>
					<clipitem id="clipitem-973">
						<masterclipid>masterclip-970</masterclipid>
						<name>TKO_015_CRA_Sh10180_MERGED.mov</name>
						<enabled>TRUE</enabled>
						<duration>22</duration>
						<rate>
							<timebase>24</timebase>
							<ntsc>TRUE</ntsc>
						</rate>
						<start>73103</start>
						<end>73117</end>
						<in>4</in>
						<out>18</out>
						<pproTicksIn>42378336000</pproTicksIn>
						<pproTicksOut>190702512000</pproTicksOut>
						<alphatype>none</alphatype>
						<pixelaspectratio>square</pixelaspectratio>
						<anamorphic>FALSE</anamorphic>
						<file id="file-970">
							<name>TKO_015_CRA_Sh10180_MERGED.mov</name>
							<pathurl>file://tri-stor01/Projects/TKO/SHOTS/_Refs_Movs_Burnin_FrameCounter/TKO_015_CRA_Sh10180_MERGED.mov</pathurl>
							<rate>
								<timebase>24</timebase>
								<ntsc>TRUE</ntsc>
							</rate>
							<duration>22</duration>
							<timecode>
								<rate>
									<timebase>24</timebase>
									<ntsc>TRUE</ntsc>
								</rate>
								<string>00:00:00:00</string>
								<frame>0</frame>
								<displayformat>NDF</displayformat>
							</timecode>
							<media>
								<video>
									<samplecharacteristics>
										<rate>
											<timebase>24</timebase>
											<ntsc>TRUE</ntsc>
										</rate>
										<width>1920</width>
										<height>1080</height>
										<anamorphic>FALSE</anamorphic>
										<pixelaspectratio>square</pixelaspectratio>
										<fielddominance>none</fielddominance>
									</samplecharacteristics>
								</video>
								<audio>
									<samplecharacteristics>
										<depth>16</depth>
										<samplerate>48000</samplerate>
									</samplecharacteristics>
									<channelcount>2</channelcount>
								</audio>
							</media>
						</file>
						<logginginfo>
							<description></description>
							<scene></scene>
							<shottake></shottake>
							<lognote></lognote>
							<good></good>
							<originalvideofilename></originalvideofilename>
							<originalaudiofilename></originalaudiofilename>
						</logginginfo>
						<colorinfo>
							<lut></lut>
							<lut1></lut1>
							<asc_sop></asc_sop>
							<asc_sat></asc_sat>
							<lut2></lut2>
						</colorinfo>
						<labels>
							<label2>Iris</label2>
						</labels>
					</clipitem>
					<clipitem id="clipitem-974">
						<masterclipid>masterclip-971</masterclipid>
						<name>TKO_015_CRA_Sh10190.mov</name>
						<enabled>TRUE</enabled>
						<duration>36</duration>
						<rate>
							<timebase>24</timebase>
							<ntsc>TRUE</ntsc>
						</rate>
						<start>73117</start>
						<end>73145</end>
						<in>4</in>
						<out>32</out>
						<pproTicksIn>42378336000</pproTicksIn>
						<pproTicksOut>339026688000</pproTicksOut>
						<alphatype>none</alphatype>
						<pixelaspectratio>square</pixelaspectratio>
						<anamorphic>FALSE</anamorphic>
						<file id="file-971">
							<name>TKO_015_CRA_Sh10190.mov</name>
							<pathurl>file://tri-stor01/Projects/TKO/SHOTS/_Refs_Movs_Burnin_FrameCounter/TKO_015_CRA_Sh10190.mov</pathurl>
							<rate>
								<timebase>24</timebase>
								<ntsc>TRUE</ntsc>
							</rate>
							<duration>36</duration>
							<timecode>
								<rate>
									<timebase>24</timebase>
									<ntsc>TRUE</ntsc>
								</rate>
								<string>17:31:02:03</string>
								<frame>1513491</frame>
								<displayformat>NDF</displayformat>
								<reel>
									<name>A0120005</name>
								</reel>
							</timecode>
							<media>
								<video>
									<samplecharacteristics>
										<rate>
											<timebase>24</timebase>
											<ntsc>TRUE</ntsc>
										</rate>
										<width>4096</width>
										<height>2160</height>
										<anamorphic>FALSE</anamorphic>
										<pixelaspectratio>square</pixelaspectratio>
										<fielddominance>none</fielddominance>
									</samplecharacteristics>
								</video>
							</media>
						</file>
						<logginginfo>
							<description></description>
							<scene></scene>
							<shottake></shottake>
							<lognote></lognote>
							<good></good>
							<originalvideofilename></originalvideofilename>
							<originalaudiofilename></originalaudiofilename>
						</logginginfo>
						<colorinfo>
							<lut></lut>
							<lut1></lut1>
							<asc_sop></asc_sop>
							<asc_sat></asc_sat>
							<lut2></lut2>
						</colorinfo>
						<labels>
							<label2>Violet</label2>
						</labels>
					</clipitem>
					<clipitem id="clipitem-975">
						<masterclipid>masterclip-972</masterclipid>
						<name>TKO_015_CRA_Sh10200.mov</name>
						<enabled>TRUE</enabled>
						<duration>100</duration>
						<rate>
							<timebase>24</timebase>
							<ntsc>TRUE</ntsc>
						</rate>
						<start>73145</start>
						<end>73237</end>
						<in>4</in>
						<out>96</out>
						<pproTicksIn>42378336000</pproTicksIn>
						<pproTicksOut>1017080064000</pproTicksOut>
						<alphatype>none</alphatype>
						<pixelaspectratio>square</pixelaspectratio>
						<anamorphic>FALSE</anamorphic>
						<file id="file-972">
							<name>TKO_015_CRA_Sh10200.mov</name>
							<pathurl>file://tri-stor01/Projects/TKO/SHOTS/_Refs_Movs_Burnin_FrameCounter/TKO_015_CRA_Sh10200.mov</pathurl>
							<rate>
								<timebase>24</timebase>
								<ntsc>TRUE</ntsc>
							</rate>
							<duration>100</duration>
							<timecode>
								<rate>
									<timebase>24</timebase>
									<ntsc>TRUE</ntsc>
								</rate>
								<string>17:02:00:09</string>
								<frame>1471689</frame>
								<displayformat>NDF</displayformat>
								<reel>
									<name>B0090003</name>
								</reel>
							</timecode>
							<media>
								<video>
									<samplecharacteristics>
										<rate>
											<timebase>24</timebase>
											<ntsc>TRUE</ntsc>
										</rate>
										<width>4096</width>
										<height>2160</height>
										<anamorphic>FALSE</anamorphic>
										<pixelaspectratio>square</pixelaspectratio>
										<fielddominance>none</fielddominance>
									</samplecharacteristics>
								</video>
							</media>
						</file>
						<logginginfo>
							<description></description>
							<scene></scene>
							<shottake></shottake>
							<lognote></lognote>
							<good></good>
							<originalvideofilename></originalvideofilename>
							<originalaudiofilename></originalaudiofilename>
						</logginginfo>
						<colorinfo>
							<lut></lut>
							<lut1></lut1>
							<asc_sop></asc_sop>
							<asc_sat></asc_sat>
							<lut2></lut2>
						</colorinfo>
						<labels>
							<label2>Violet</label2>
						</labels>
					</clipitem>
					<clipitem id="clipitem-976">
						<masterclipid>masterclip-973</masterclipid>
						<name>TKO_015_CRA_Sh10210.mov</name>
						<enabled>TRUE</enabled>
						<duration>88</duration>
						<rate>
							<timebase>24</timebase>
							<ntsc>TRUE</ntsc>
						</rate>
						<start>73237</start>
						<end>73317</end>
						<in>4</in>
						<out>84</out>
						<pproTicksIn>42378336000</pproTicksIn>
						<pproTicksOut>889945056000</pproTicksOut>
						<alphatype>none</alphatype>
						<pixelaspectratio>square</pixelaspectratio>
						<anamorphic>FALSE</anamorphic>
						<file id="file-973">
							<name>TKO_015_CRA_Sh10210.mov</name>
							<pathurl>file://tri-stor01/Projects/TKO/SHOTS/_Refs_Movs_Burnin_FrameCounter/TKO_015_CRA_Sh10210.mov</pathurl>
							<rate>
								<timebase>24</timebase>
								<ntsc>TRUE</ntsc>
							</rate>
							<duration>88</duration>
							<timecode>
								<rate>
									<timebase>24</timebase>
									<ntsc>TRUE</ntsc>
								</rate>
								<string>17:02:04:05</string>
								<frame>1471781</frame>
								<displayformat>NDF</displayformat>
								<reel>
									<name>A0120003</name>
								</reel>
							</timecode>
							<media>
								<video>
									<samplecharacteristics>
										<rate>
											<timebase>24</timebase>
											<ntsc>TRUE</ntsc>
										</rate>
										<width>4096</width>
										<height>2160</height>
										<anamorphic>FALSE</anamorphic>
										<pixelaspectratio>square</pixelaspectratio>
										<fielddominance>none</fielddominance>
									</samplecharacteristics>
								</video>
							</media>
						</file>
						<logginginfo>
							<description></description>
							<scene></scene>
							<shottake></shottake>
							<lognote></lognote>
							<good></good>
							<originalvideofilename></originalvideofilename>
							<originalaudiofilename></originalaudiofilename>
						</logginginfo>
						<colorinfo>
							<lut></lut>
							<lut1></lut1>
							<asc_sop></asc_sop>
							<asc_sat></asc_sat>
							<lut2></lut2>
						</colorinfo>
						<labels>
							<label2>Violet</label2>
						</labels>
					</clipitem>
					<clipitem id="clipitem-977">
						<masterclipid>masterclip-974</masterclipid>
						<name>TKO_015_CRA_Sh10220.mov</name>
						<enabled>TRUE</enabled>
						<duration>52</duration>
						<rate>
							<timebase>24</timebase>
							<ntsc>TRUE</ntsc>
						</rate>
						<start>73317</start>
						<end>73361</end>
						<in>4</in>
						<out>48</out>
						<pproTicksIn>42378336000</pproTicksIn>
						<pproTicksOut>508540032000</pproTicksOut>
						<alphatype>none</alphatype>
						<pixelaspectratio>square</pixelaspectratio>
						<anamorphic>FALSE</anamorphic>
						<file id="file-974">
							<name>TKO_015_CRA_Sh10220.mov</name>
							<pathurl>file://tri-stor01/Projects/TKO/SHOTS/_Refs_Movs_Burnin_FrameCounter/TKO_015_CRA_Sh10220.mov</pathurl>
							<rate>
								<timebase>24</timebase>
								<ntsc>TRUE</ntsc>
							</rate>
							<duration>52</duration>
							<timecode>
								<rate>
									<timebase>24</timebase>
									<ntsc>TRUE</ntsc>
								</rate>
								<string>03:15:45:18</string>
								<frame>281898</frame>
								<displayformat>NDF</displayformat>
								<reel>
									<name>C0060002</name>
								</reel>
							</timecode>
							<media>
								<video>
									<samplecharacteristics>
										<rate>
											<timebase>24</timebase>
											<ntsc>TRUE</ntsc>
										</rate>
										<width>3840</width>
										<height>2160</height>
										<anamorphic>FALSE</anamorphic>
										<pixelaspectratio>square</pixelaspectratio>
										<fielddominance>none</fielddominance>
									</samplecharacteristics>
								</video>
							</media>
						</file>
						<logginginfo>
							<description></description>
							<scene></scene>
							<shottake></shottake>
							<lognote></lognote>
							<good></good>
							<originalvideofilename></originalvideofilename>
							<originalaudiofilename></originalaudiofilename>
						</logginginfo>
						<colorinfo>
							<lut></lut>
							<lut1></lut1>
							<asc_sop></asc_sop>
							<asc_sat></asc_sat>
							<lut2></lut2>
						</colorinfo>
						<labels>
							<label2>Violet</label2>
						</labels>
					</clipitem>
					<clipitem id="clipitem-978">
						<masterclipid>masterclip-975</masterclipid>
						<name>TKO_015_CRA_Sh10230.mov</name>
						<enabled>TRUE</enabled>
						<duration>103</duration>
						<rate>
							<timebase>24</timebase>
							<ntsc>TRUE</ntsc>
						</rate>
						<start>73361</start>
						<end>73456</end>
						<in>4</in>
						<out>99</out>
						<pproTicksIn>42378336000</pproTicksIn>
						<pproTicksOut>1048863816000</pproTicksOut>
						<alphatype>none</alphatype>
						<pixelaspectratio>square</pixelaspectratio>
						<anamorphic>FALSE</anamorphic>
						<file id="file-975">
							<name>TKO_015_CRA_Sh10230.mov</name>
							<pathurl>file://tri-stor01/Projects/TKO/SHOTS/_Refs_Movs_Burnin_FrameCounter/TKO_015_CRA_Sh10230.mov</pathurl>
							<rate>
								<timebase>24</timebase>
								<ntsc>TRUE</ntsc>
							</rate>
							<duration>103</duration>
							<timecode>
								<rate>
									<timebase>24</timebase>
									<ntsc>TRUE</ntsc>
								</rate>
								<string>17:02:09:09</string>
								<frame>1471905</frame>
								<displayformat>NDF</displayformat>
								<reel>
									<name>B0090003</name>
								</reel>
							</timecode>
							<media>
								<video>
									<samplecharacteristics>
										<rate>
											<timebase>24</timebase>
											<ntsc>TRUE</ntsc>
										</rate>
										<width>4096</width>
										<height>2160</height>
										<anamorphic>FALSE</anamorphic>
										<pixelaspectratio>square</pixelaspectratio>
										<fielddominance>none</fielddominance>
									</samplecharacteristics>
								</video>
							</media>
						</file>
						<logginginfo>
							<description></description>
							<scene></scene>
							<shottake></shottake>
							<lognote></lognote>
							<good></good>
							<originalvideofilename></originalvideofilename>
							<originalaudiofilename></originalaudiofilename>
						</logginginfo>
						<colorinfo>
							<lut></lut>
							<lut1></lut1>
							<asc_sop></asc_sop>
							<asc_sat></asc_sat>
							<lut2></lut2>
						</colorinfo>
						<labels>
							<label2>Violet</label2>
						</labels>
					</clipitem>
					<clipitem id="clipitem-979">
						<masterclipid>masterclip-976</masterclipid>
						<name>TKO_015_CRA_Sh10240.mov</name>
						<enabled>TRUE</enabled>
						<duration>164</duration>
						<rate>
							<timebase>24</timebase>
							<ntsc>TRUE</ntsc>
						</rate>
						<start>73456</start>
						<end>73612</end>
						<in>4</in>
						<out>160</out>
						<pproTicksIn>42378336000</pproTicksIn>
						<pproTicksOut>1695133440000</pproTicksOut>
						<alphatype>none</alphatype>
						<pixelaspectratio>square</pixelaspectratio>
						<anamorphic>FALSE</anamorphic>
						<file id="file-976">
							<name>TKO_015_CRA_Sh10240.mov</name>
							<pathurl>file://tri-stor01/Projects/TKO/SHOTS/_Refs_Movs_Burnin_FrameCounter/TKO_015_CRA_Sh10240.mov</pathurl>
							<rate>
								<timebase>24</timebase>
								<ntsc>TRUE</ntsc>
							</rate>
							<duration>164</duration>
							<timecode>
								<rate>
									<timebase>24</timebase>
									<ntsc>TRUE</ntsc>
								</rate>
								<string>17:48:24:21</string>
								<frame>1538517</frame>
								<displayformat>NDF</displayformat>
								<reel>
									<name>A0120006</name>
								</reel>
							</timecode>
							<media>
								<video>
									<samplecharacteristics>
										<rate>
											<timebase>24</timebase>
											<ntsc>TRUE</ntsc>
										</rate>
										<width>4096</width>
										<height>2160</height>
										<anamorphic>FALSE</anamorphic>
										<pixelaspectratio>square</pixelaspectratio>
										<fielddominance>none</fielddominance>
									</samplecharacteristics>
								</video>
							</media>
						</file>
						<logginginfo>
							<description></description>
							<scene></scene>
							<shottake></shottake>
							<lognote></lognote>
							<good></good>
							<originalvideofilename></originalvideofilename>
							<originalaudiofilename></originalaudiofilename>
						</logginginfo>
						<colorinfo>
							<lut></lut>
							<lut1></lut1>
							<asc_sop></asc_sop>
							<asc_sat></asc_sat>
							<lut2></lut2>
						</colorinfo>
						<labels>
							<label2>Violet</label2>
						</labels>
					</clipitem>
					<clipitem id="clipitem-980">
						<masterclipid>masterclip-977</masterclipid>
						<name>TKO_015_CRA_Sh10250.mov</name>
						<enabled>TRUE</enabled>
						<duration>70</duration>
						<rate>
							<timebase>24</timebase>
							<ntsc>TRUE</ntsc>
						</rate>
						<start>73612</start>
						<end>73674</end>
						<in>4</in>
						<out>66</out>
						<pproTicksIn>42378336000</pproTicksIn>
						<pproTicksOut>699242544000</pproTicksOut>
						<alphatype>none</alphatype>
						<pixelaspectratio>square</pixelaspectratio>
						<anamorphic>FALSE</anamorphic>
						<file id="file-977">
							<name>TKO_015_CRA_Sh10250.mov</name>
							<pathurl>file://tri-stor01/Projects/TKO/SHOTS/_Refs_Movs_Burnin_FrameCounter/TKO_015_CRA_Sh10250.mov</pathurl>
							<rate>
								<timebase>24</timebase>
								<ntsc>TRUE</ntsc>
							</rate>
							<duration>70</duration>
							<timecode>
								<rate>
									<timebase>24</timebase>
									<ntsc>TRUE</ntsc>
								</rate>
								<string>17:02:25:07</string>
								<frame>1472287</frame>
								<displayformat>NDF</displayformat>
								<reel>
									<name>A0120003</name>
								</reel>
							</timecode>
							<media>
								<video>
									<samplecharacteristics>
										<rate>
											<timebase>24</timebase>
											<ntsc>TRUE</ntsc>
										</rate>
										<width>4096</width>
										<height>2160</height>
										<anamorphic>FALSE</anamorphic>
										<pixelaspectratio>square</pixelaspectratio>
										<fielddominance>none</fielddominance>
									</samplecharacteristics>
								</video>
							</media>
						</file>
						<logginginfo>
							<description></description>
							<scene></scene>
							<shottake></shottake>
							<lognote></lognote>
							<good></good>
							<originalvideofilename></originalvideofilename>
							<originalaudiofilename></originalaudiofilename>
						</logginginfo>
						<colorinfo>
							<lut></lut>
							<lut1></lut1>
							<asc_sop></asc_sop>
							<asc_sat></asc_sat>
							<lut2></lut2>
						</colorinfo>
						<labels>
							<label2>Violet</label2>
						</labels>
					</clipitem>
					<clipitem id="clipitem-981">
						<masterclipid>masterclip-978</masterclipid>
						<name>TKO_015_CRA_Sh10260.mov</name>
						<enabled>TRUE</enabled>
						<duration>128</duration>
						<rate>
							<timebase>24</timebase>
							<ntsc>TRUE</ntsc>
						</rate>
						<start>73674</start>
						<end>73794</end>
						<in>4</in>
						<out>124</out>
						<pproTicksIn>42378336000</pproTicksIn>
						<pproTicksOut>1313728416000</pproTicksOut>
						<alphatype>none</alphatype>
						<pixelaspectratio>square</pixelaspectratio>
						<anamorphic>FALSE</anamorphic>
						<file id="file-978">
							<name>TKO_015_CRA_Sh10260.mov</name>
							<pathurl>file://tri-stor01/Projects/TKO/SHOTS/_Refs_Movs_Burnin_FrameCounter/TKO_015_CRA_Sh10260.mov</pathurl>
							<rate>
								<timebase>24</timebase>
								<ntsc>TRUE</ntsc>
							</rate>
							<duration>128</duration>
							<timecode>
								<rate>
									<timebase>24</timebase>
									<ntsc>TRUE</ntsc>
								</rate>
								<string>17:50:09:19</string>
								<frame>1541035</frame>
								<displayformat>NDF</displayformat>
								<reel>
									<name>A0120006</name>
								</reel>
							</timecode>
							<media>
								<video>
									<samplecharacteristics>
										<rate>
											<timebase>24</timebase>
											<ntsc>TRUE</ntsc>
										</rate>
										<width>4096</width>
										<height>2160</height>
										<anamorphic>FALSE</anamorphic>
										<pixelaspectratio>square</pixelaspectratio>
										<fielddominance>none</fielddominance>
									</samplecharacteristics>
								</video>
							</media>
						</file>
						<logginginfo>
							<description></description>
							<scene></scene>
							<shottake></shottake>
							<lognote></lognote>
							<good></good>
							<originalvideofilename></originalvideofilename>
							<originalaudiofilename></originalaudiofilename>
						</logginginfo>
						<colorinfo>
							<lut></lut>
							<lut1></lut1>
							<asc_sop></asc_sop>
							<asc_sat></asc_sat>
							<lut2></lut2>
						</colorinfo>
						<labels>
							<label2>Violet</label2>
						</labels>
					</clipitem>
					<clipitem id="clipitem-982">
						<masterclipid>masterclip-979</masterclipid>
						<name>TKO_016_JAK_Sh10270.mov</name>
						<enabled>TRUE</enabled>
						<duration>61</duration>
						<rate>
							<timebase>24</timebase>
							<ntsc>TRUE</ntsc>
						</rate>
						<start>73794</start>
						<end>73847</end>
						<in>4</in>
						<out>57</out>
						<pproTicksIn>42378336000</pproTicksIn>
						<pproTicksOut>603891288000</pproTicksOut>
						<alphatype>none</alphatype>
						<pixelaspectratio>square</pixelaspectratio>
						<anamorphic>FALSE</anamorphic>
						<file id="file-979">
							<name>TKO_016_JAK_Sh10270.mov</name>
							<pathurl>file://tri-stor01/Projects/TKO/SHOTS/_Refs_Movs_Burnin_FrameCounter/TKO_016_JAK_Sh10270.mov</pathurl>
							<rate>
								<timebase>24</timebase>
								<ntsc>TRUE</ntsc>
							</rate>
							<duration>61</duration>
							<timecode>
								<rate>
									<timebase>24</timebase>
									<ntsc>TRUE</ntsc>
								</rate>
								<string>00:41:36:20</string>
								<frame>59924</frame>
								<displayformat>NDF</displayformat>
							</timecode>
							<media>
								<video>
									<samplecharacteristics>
										<rate>
											<timebase>24</timebase>
											<ntsc>TRUE</ntsc>
										</rate>
										<width>1280</width>
										<height>720</height>
										<anamorphic>FALSE</anamorphic>
										<pixelaspectratio>square</pixelaspectratio>
										<fielddominance>none</fielddominance>
									</samplecharacteristics>
								</video>
							</media>
						</file>
						<logginginfo>
							<description></description>
							<scene></scene>
							<shottake></shottake>
							<lognote></lognote>
							<good></good>
							<originalvideofilename></originalvideofilename>
							<originalaudiofilename></originalaudiofilename>
						</logginginfo>
						<colorinfo>
							<lut></lut>
							<lut1></lut1>
							<asc_sop></asc_sop>
							<asc_sat></asc_sat>
							<lut2></lut2>
						</colorinfo>
						<labels>
							<label2>Violet</label2>
						</labels>
					</clipitem>
					<clipitem id="clipitem-983">
						<masterclipid>masterclip-980</masterclipid>
						<name>TKO_016_JAK_Sh10280.mov</name>
						<enabled>TRUE</enabled>
						<duration>109</duration>
						<rate>
							<timebase>24</timebase>
							<ntsc>TRUE</ntsc>
						</rate>
						<start>73847</start>
						<end>73948</end>
						<in>4</in>
						<out>105</out>
						<pproTicksIn>42378336000</pproTicksIn>
						<pproTicksOut>1112431320000</pproTicksOut>
						<alphatype>none</alphatype>
						<pixelaspectratio>square</pixelaspectratio>
						<anamorphic>FALSE</anamorphic>
						<file id="file-980">
							<name>TKO_016_JAK_Sh10280.mov</name>
							<pathurl>file://tri-stor01/Projects/TKO/SHOTS/_Refs_Movs_Burnin_FrameCounter/TKO_016_JAK_Sh10280.mov</pathurl>
							<rate>
								<timebase>24</timebase>
								<ntsc>TRUE</ntsc>
							</rate>
							<duration>109</duration>
							<timecode>
								<rate>
									<timebase>24</timebase>
									<ntsc>TRUE</ntsc>
								</rate>
								<string>00:00:00:00</string>
								<frame>0</frame>
								<displayformat>NDF</displayformat>
							</timecode>
							<media>
								<video>
									<samplecharacteristics>
										<rate>
											<timebase>24</timebase>
											<ntsc>TRUE</ntsc>
										</rate>
										<width>4096</width>
										<height>2160</height>
										<anamorphic>FALSE</anamorphic>
										<pixelaspectratio>square</pixelaspectratio>
										<fielddominance>none</fielddominance>
									</samplecharacteristics>
								</video>
							</media>
						</file>
						<logginginfo>
							<description></description>
							<scene></scene>
							<shottake></shottake>
							<lognote></lognote>
							<good></good>
							<originalvideofilename></originalvideofilename>
							<originalaudiofilename></originalaudiofilename>
						</logginginfo>
						<colorinfo>
							<lut></lut>
							<lut1></lut1>
							<asc_sop></asc_sop>
							<asc_sat></asc_sat>
							<lut2></lut2>
						</colorinfo>
						<labels>
							<label2>Violet</label2>
						</labels>
					</clipitem>
					<clipitem id="clipitem-984">
						<masterclipid>masterclip-981</masterclipid>
						<name>TKO_016_JAK_Sh10290.mov</name>
						<enabled>TRUE</enabled>
						<duration>198</duration>
						<rate>
							<timebase>24</timebase>
							<ntsc>TRUE</ntsc>
						</rate>
						<start>73948</start>
						<end>74138</end>
						<in>4</in>
						<out>194</out>
						<pproTicksIn>42378336000</pproTicksIn>
						<pproTicksOut>2055349296000</pproTicksOut>
						<alphatype>none</alphatype>
						<pixelaspectratio>square</pixelaspectratio>
						<anamorphic>FALSE</anamorphic>
						<file id="file-981">
							<name>TKO_016_JAK_Sh10290.mov</name>
							<pathurl>file://tri-stor01/Projects/TKO/SHOTS/_Refs_Movs_Burnin_FrameCounter/TKO_016_JAK_Sh10290.mov</pathurl>
							<rate>
								<timebase>24</timebase>
								<ntsc>TRUE</ntsc>
							</rate>
							<duration>198</duration>
							<timecode>
								<rate>
									<timebase>24</timebase>
									<ntsc>TRUE</ntsc>
								</rate>
								<string>16:07:38:20</string>
								<frame>1393412</frame>
								<displayformat>NDF</displayformat>
								<reel>
									<name>A0180020</name>
								</reel>
							</timecode>
							<media>
								<video>
									<samplecharacteristics>
										<rate>
											<timebase>24</timebase>
											<ntsc>TRUE</ntsc>
										</rate>
										<width>4096</width>
										<height>2160</height>
										<anamorphic>FALSE</anamorphic>
										<pixelaspectratio>square</pixelaspectratio>
										<fielddominance>none</fielddominance>
									</samplecharacteristics>
								</video>
							</media>
						</file>
						<logginginfo>
							<description></description>
							<scene></scene>
							<shottake></shottake>
							<lognote></lognote>
							<good></good>
							<originalvideofilename></originalvideofilename>
							<originalaudiofilename></originalaudiofilename>
						</logginginfo>
						<colorinfo>
							<lut></lut>
							<lut1></lut1>
							<asc_sop></asc_sop>
							<asc_sat></asc_sat>
							<lut2></lut2>
						</colorinfo>
						<labels>
							<label2>Violet</label2>
						</labels>
					</clipitem>
					<clipitem id="clipitem-985">
						<masterclipid>masterclip-982</masterclipid>
						<name>TKO_016_JAK_Sh10300.mov</name>
						<enabled>TRUE</enabled>
						<duration>140</duration>
						<rate>
							<timebase>24</timebase>
							<ntsc>TRUE</ntsc>
						</rate>
						<start>74138</start>
						<end>74270</end>
						<in>4</in>
						<out>136</out>
						<pproTicksIn>42378336000</pproTicksIn>
						<pproTicksOut>1440863424000</pproTicksOut>
						<alphatype>none</alphatype>
						<pixelaspectratio>square</pixelaspectratio>
						<anamorphic>FALSE</anamorphic>
						<file id="file-982">
							<name>TKO_016_JAK_Sh10300.mov</name>
							<pathurl>file://tri-stor01/Projects/TKO/SHOTS/_Refs_Movs_Burnin_FrameCounter/TKO_016_JAK_Sh10300.mov</pathurl>
							<rate>
								<timebase>24</timebase>
								<ntsc>TRUE</ntsc>
							</rate>
							<duration>140</duration>
							<timecode>
								<rate>
									<timebase>24</timebase>
									<ntsc>TRUE</ntsc>
								</rate>
								<string>16:07:47:07</string>
								<frame>1393615</frame>
								<displayformat>NDF</displayformat>
								<reel>
									<name>B0150019</name>
								</reel>
							</timecode>
							<media>
								<video>
									<samplecharacteristics>
										<rate>
											<timebase>24</timebase>
											<ntsc>TRUE</ntsc>
										</rate>
										<width>4096</width>
										<height>2160</height>
										<anamorphic>FALSE</anamorphic>
										<pixelaspectratio>square</pixelaspectratio>
										<fielddominance>none</fielddominance>
									</samplecharacteristics>
								</video>
							</media>
						</file>
						<logginginfo>
							<description></description>
							<scene></scene>
							<shottake></shottake>
							<lognote></lognote>
							<good></good>
							<originalvideofilename></originalvideofilename>
							<originalaudiofilename></originalaudiofilename>
						</logginginfo>
						<colorinfo>
							<lut></lut>
							<lut1></lut1>
							<asc_sop></asc_sop>
							<asc_sat></asc_sat>
							<lut2></lut2>
						</colorinfo>
						<labels>
							<label2>Violet</label2>
						</labels>
					</clipitem>
					<clipitem id="clipitem-986">
						<masterclipid>masterclip-983</masterclipid>
						<name>TKO_016_JAK_Sh10310.mov</name>
						<enabled>TRUE</enabled>
						<duration>61</duration>
						<rate>
							<timebase>24</timebase>
							<ntsc>TRUE</ntsc>
						</rate>
						<start>74270</start>
						<end>74323</end>
						<in>4</in>
						<out>57</out>
						<pproTicksIn>42378336000</pproTicksIn>
						<pproTicksOut>603891288000</pproTicksOut>
						<alphatype>none</alphatype>
						<pixelaspectratio>square</pixelaspectratio>
						<anamorphic>FALSE</anamorphic>
						<file id="file-983">
							<name>TKO_016_JAK_Sh10310.mov</name>
							<pathurl>file://tri-stor01/Projects/TKO/SHOTS/_Refs_Movs_Burnin_FrameCounter/TKO_016_JAK_Sh10310.mov</pathurl>
							<rate>
								<timebase>24</timebase>
								<ntsc>TRUE</ntsc>
							</rate>
							<duration>61</duration>
							<timecode>
								<rate>
									<timebase>24</timebase>
									<ntsc>TRUE</ntsc>
								</rate>
								<string>05:13:37:21</string>
								<frame>451629</frame>
								<displayformat>NDF</displayformat>
								<reel>
									<name>C0110001</name>
								</reel>
							</timecode>
							<media>
								<video>
									<samplecharacteristics>
										<rate>
											<timebase>24</timebase>
											<ntsc>TRUE</ntsc>
										</rate>
										<width>3840</width>
										<height>2160</height>
										<anamorphic>FALSE</anamorphic>
										<pixelaspectratio>square</pixelaspectratio>
										<fielddominance>none</fielddominance>
									</samplecharacteristics>
								</video>
							</media>
						</file>
						<logginginfo>
							<description></description>
							<scene></scene>
							<shottake></shottake>
							<lognote></lognote>
							<good></good>
							<originalvideofilename></originalvideofilename>
							<originalaudiofilename></originalaudiofilename>
						</logginginfo>
						<colorinfo>
							<lut></lut>
							<lut1></lut1>
							<asc_sop></asc_sop>
							<asc_sat></asc_sat>
							<lut2></lut2>
						</colorinfo>
						<labels>
							<label2>Violet</label2>
						</labels>
					</clipitem>
					<clipitem id="clipitem-987">
						<masterclipid>masterclip-984</masterclipid>
						<name>TKO_016_JAK_Sh10320.mov</name>
						<enabled>TRUE</enabled>
						<duration>52</duration>
						<rate>
							<timebase>24</timebase>
							<ntsc>TRUE</ntsc>
						</rate>
						<start>74323</start>
						<end>74367</end>
						<in>4</in>
						<out>48</out>
						<pproTicksIn>42378336000</pproTicksIn>
						<pproTicksOut>508540032000</pproTicksOut>
						<alphatype>none</alphatype>
						<pixelaspectratio>square</pixelaspectratio>
						<anamorphic>FALSE</anamorphic>
						<file id="file-984">
							<name>TKO_016_JAK_Sh10320.mov</name>
							<pathurl>file://tri-stor01/Projects/TKO/SHOTS/_Refs_Movs_Burnin_FrameCounter/TKO_016_JAK_Sh10320.mov</pathurl>
							<rate>
								<timebase>24</timebase>
								<ntsc>TRUE</ntsc>
							</rate>
							<duration>52</duration>
							<timecode>
								<rate>
									<timebase>24</timebase>
									<ntsc>TRUE</ntsc>
								</rate>
								<string>16:07:54:21</string>
								<frame>1393797</frame>
								<displayformat>NDF</displayformat>
								<reel>
									<name>B0150019</name>
								</reel>
							</timecode>
							<media>
								<video>
									<samplecharacteristics>
										<rate>
											<timebase>24</timebase>
											<ntsc>TRUE</ntsc>
										</rate>
										<width>4096</width>
										<height>2160</height>
										<anamorphic>FALSE</anamorphic>
										<pixelaspectratio>square</pixelaspectratio>
										<fielddominance>none</fielddominance>
									</samplecharacteristics>
								</video>
							</media>
						</file>
						<logginginfo>
							<description></description>
							<scene></scene>
							<shottake></shottake>
							<lognote></lognote>
							<good></good>
							<originalvideofilename></originalvideofilename>
							<originalaudiofilename></originalaudiofilename>
						</logginginfo>
						<colorinfo>
							<lut></lut>
							<lut1></lut1>
							<asc_sop></asc_sop>
							<asc_sat></asc_sat>
							<lut2></lut2>
						</colorinfo>
						<labels>
							<label2>Violet</label2>
						</labels>
					</clipitem>
					<clipitem id="clipitem-988">
						<masterclipid>masterclip-985</masterclipid>
						<name>TKO_016_JAK_Sh10330.mov</name>
						<enabled>TRUE</enabled>
						<duration>86</duration>
						<rate>
							<timebase>24</timebase>
							<ntsc>TRUE</ntsc>
						</rate>
						<start>74367</start>
						<end>74445</end>
						<in>4</in>
						<out>82</out>
						<pproTicksIn>42378336000</pproTicksIn>
						<pproTicksOut>868755888000</pproTicksOut>
						<alphatype>none</alphatype>
						<pixelaspectratio>square</pixelaspectratio>
						<anamorphic>FALSE</anamorphic>
						<file id="file-985">
							<name>TKO_016_JAK_Sh10330.mov</name>
							<pathurl>file://tri-stor01/Projects/TKO/SHOTS/_Refs_Movs_Burnin_FrameCounter/TKO_016_JAK_Sh10330.mov</pathurl>
							<rate>
								<timebase>24</timebase>
								<ntsc>TRUE</ntsc>
							</rate>
							<duration>86</duration>
							<timecode>
								<rate>
									<timebase>24</timebase>
									<ntsc>TRUE</ntsc>
								</rate>
								<string>16:07:56:04</string>
								<frame>1393828</frame>
								<displayformat>NDF</displayformat>
								<reel>
									<name>A0180020</name>
								</reel>
							</timecode>
							<media>
								<video>
									<samplecharacteristics>
										<rate>
											<timebase>24</timebase>
											<ntsc>TRUE</ntsc>
										</rate>
										<width>4096</width>
										<height>2160</height>
										<anamorphic>FALSE</anamorphic>
										<pixelaspectratio>square</pixelaspectratio>
										<fielddominance>none</fielddominance>
									</samplecharacteristics>
								</video>
							</media>
						</file>
						<logginginfo>
							<description></description>
							<scene></scene>
							<shottake></shottake>
							<lognote></lognote>
							<good></good>
							<originalvideofilename></originalvideofilename>
							<originalaudiofilename></originalaudiofilename>
						</logginginfo>
						<colorinfo>
							<lut></lut>
							<lut1></lut1>
							<asc_sop></asc_sop>
							<asc_sat></asc_sat>
							<lut2></lut2>
						</colorinfo>
						<labels>
							<label2>Violet</label2>
						</labels>
					</clipitem>
					<clipitem id="clipitem-989">
						<masterclipid>masterclip-986</masterclipid>
						<name>TKO_016_JAK_Sh10340.mov</name>
						<enabled>TRUE</enabled>
						<duration>18</duration>
						<rate>
							<timebase>24</timebase>
							<ntsc>TRUE</ntsc>
						</rate>
						<start>74445</start>
						<end>74455</end>
						<in>4</in>
						<out>14</out>
						<pproTicksIn>42378336000</pproTicksIn>
						<pproTicksOut>148324176000</pproTicksOut>
						<alphatype>none</alphatype>
						<pixelaspectratio>square</pixelaspectratio>
						<anamorphic>FALSE</anamorphic>
						<file id="file-986">
							<name>TKO_016_JAK_Sh10340.mov</name>
							<pathurl>file://tri-stor01/Projects/TKO/SHOTS/_Refs_Movs_Burnin_FrameCounter/TKO_016_JAK_Sh10340.mov</pathurl>
							<rate>
								<timebase>24</timebase>
								<ntsc>TRUE</ntsc>
							</rate>
							<duration>18</duration>
							<timecode>
								<rate>
									<timebase>24</timebase>
									<ntsc>TRUE</ntsc>
								</rate>
								<string>07:21:22:00</string>
								<frame>635568</frame>
								<displayformat>NDF</displayformat>
								<reel>
									<name>C0180004</name>
								</reel>
							</timecode>
							<media>
								<video>
									<samplecharacteristics>
										<rate>
											<timebase>24</timebase>
											<ntsc>TRUE</ntsc>
										</rate>
										<width>3840</width>
										<height>2160</height>
										<anamorphic>FALSE</anamorphic>
										<pixelaspectratio>square</pixelaspectratio>
										<fielddominance>none</fielddominance>
									</samplecharacteristics>
								</video>
							</media>
						</file>
						<logginginfo>
							<description></description>
							<scene></scene>
							<shottake></shottake>
							<lognote></lognote>
							<good></good>
							<originalvideofilename></originalvideofilename>
							<originalaudiofilename></originalaudiofilename>
						</logginginfo>
						<colorinfo>
							<lut></lut>
							<lut1></lut1>
							<asc_sop></asc_sop>
							<asc_sat></asc_sat>
							<lut2></lut2>
						</colorinfo>
						<labels>
							<label2>Violet</label2>
						</labels>
					</clipitem>
					<clipitem id="clipitem-990">
						<masterclipid>masterclip-987</masterclipid>
						<name>TKO_016_JAK_Sh10350.mov</name>
						<enabled>TRUE</enabled>
						<duration>18</duration>
						<rate>
							<timebase>24</timebase>
							<ntsc>TRUE</ntsc>
						</rate>
						<start>74455</start>
						<end>74465</end>
						<in>5</in>
						<out>15</out>
						<pproTicksIn>52972920000</pproTicksIn>
						<pproTicksOut>158918760000</pproTicksOut>
						<alphatype>none</alphatype>
						<pixelaspectratio>square</pixelaspectratio>
						<anamorphic>FALSE</anamorphic>
						<file id="file-987">
							<name>TKO_016_JAK_Sh10350.mov</name>
							<pathurl>file://tri-stor01/Projects/TKO/SHOTS/_Refs_Movs_Burnin_FrameCounter/TKO_016_JAK_Sh10350.mov</pathurl>
							<rate>
								<timebase>24</timebase>
								<ntsc>TRUE</ntsc>
							</rate>
							<duration>18</duration>
							<timecode>
								<rate>
									<timebase>24</timebase>
									<ntsc>TRUE</ntsc>
								</rate>
								<string>07:23:47:19</string>
								<frame>639067</frame>
								<displayformat>NDF</displayformat>
								<reel>
									<name>C0180005</name>
								</reel>
							</timecode>
							<media>
								<video>
									<samplecharacteristics>
										<rate>
											<timebase>24</timebase>
											<ntsc>TRUE</ntsc>
										</rate>
										<width>3840</width>
										<height>2160</height>
										<anamorphic>FALSE</anamorphic>
										<pixelaspectratio>square</pixelaspectratio>
										<fielddominance>none</fielddominance>
									</samplecharacteristics>
								</video>
							</media>
						</file>
						<logginginfo>
							<description></description>
							<scene></scene>
							<shottake></shottake>
							<lognote></lognote>
							<good></good>
							<originalvideofilename></originalvideofilename>
							<originalaudiofilename></originalaudiofilename>
						</logginginfo>
						<colorinfo>
							<lut></lut>
							<lut1></lut1>
							<asc_sop></asc_sop>
							<asc_sat></asc_sat>
							<lut2></lut2>
						</colorinfo>
						<labels>
							<label2>Violet</label2>
						</labels>
					</clipitem>
					<clipitem id="clipitem-991">
						<masterclipid>masterclip-988</masterclipid>
						<name>TKO_016_JAK_Sh10360.mov</name>
						<enabled>TRUE</enabled>
						<duration>12</duration>
						<rate>
							<timebase>24</timebase>
							<ntsc>TRUE</ntsc>
						</rate>
						<start>74465</start>
						<end>74471</end>
						<in>5</in>
						<out>6</out>
						<pproTicksIn>52972920000</pproTicksIn>
						<pproTicksOut>84756672000</pproTicksOut>
						<alphatype>none</alphatype>
						<pixelaspectratio>square</pixelaspectratio>
						<anamorphic>FALSE</anamorphic>
						<file id="file-988">
							<name>TKO_016_JAK_Sh10360.mov</name>
							<pathurl>file://tri-stor01/Projects/TKO/SHOTS/_Refs_Movs_Burnin_FrameCounter/TKO_016_JAK_Sh10360.mov</pathurl>
							<rate>
								<timebase>24</timebase>
								<ntsc>TRUE</ntsc>
							</rate>
							<duration>14</duration>
							<timecode>
								<rate>
									<timebase>24</timebase>
									<ntsc>TRUE</ntsc>
								</rate>
								<string>07:21:35:19</string>
								<frame>635899</frame>
								<displayformat>NDF</displayformat>
								<reel>
									<name>C0180004</name>
								</reel>
							</timecode>
							<media>
								<video>
									<samplecharacteristics>
										<rate>
											<timebase>24</timebase>
											<ntsc>TRUE</ntsc>
										</rate>
										<width>3840</width>
										<height>2160</height>
										<anamorphic>FALSE</anamorphic>
										<pixelaspectratio>square</pixelaspectratio>
										<fielddominance>none</fielddominance>
									</samplecharacteristics>
								</video>
							</media>
						</file>
						<filter>
							<effect>
								<name>Time Remap</name>
								<effectid>timeremap</effectid>
								<effectcategory>motion</effectcategory>
								<effecttype>motion</effecttype>
								<mediatype>video</mediatype>
								<parameter authoringApp="PremierePro">
									<parameterid>variablespeed</parameterid>
									<name>variablespeed</name>
									<valuemin>0</valuemin>
									<valuemax>1</valuemax>
									<value>0</value>
								</parameter>
								<parameter authoringApp="PremierePro">
									<parameterid>speed</parameterid>
									<name>speed</name>
									<valuemin>-100000</valuemin>
									<valuemax>100000</valuemax>
									<value>114.286</value>
								</parameter>
								<parameter authoringApp="PremierePro">
									<parameterid>reverse</parameterid>
									<name>reverse</name>
									<value>FALSE</value>
								</parameter>
								<parameter authoringApp="PremierePro">
									<parameterid>frameblending</parameterid>
									<name>frameblending</name>
									<value>FALSE</value>
								</parameter>
								<parameter authoringApp="PremierePro">
									<parameterid>graphdict</parameterid>
									<name>graphdict</name>
									<valuemin>0</valuemin>
									<valuemax>13</valuemax>
									<value>0</value>
									<keyframe>
										<when>0</when>
										<value>0</value>
										<speedvirtualkf>TRUE</speedvirtualkf>
										<speedkfstart>TRUE</speedkfstart>
									</keyframe>
									<keyframe>
										<when>5</when>
										<value>5</value>
										<speedvirtualkf>TRUE</speedvirtualkf>
										<speedkfin>TRUE</speedkfin>
									</keyframe>
									<keyframe>
										<when>6</when>
										<value>6</value>
										<speedvirtualkf>TRUE</speedvirtualkf>
										<speedkfout>TRUE</speedkfout>
									</keyframe>
									<keyframe>
										<when>12</when>
										<value>13</value>
										<speedvirtualkf>TRUE</speedvirtualkf>
										<speedkfend>TRUE</speedkfend>
									</keyframe>
									<interpolation>
										<name>FCPCurve</name>
									</interpolation>
								</parameter>
							</effect>
						</filter>
						<logginginfo>
							<description></description>
							<scene></scene>
							<shottake></shottake>
							<lognote></lognote>
							<good></good>
							<originalvideofilename></originalvideofilename>
							<originalaudiofilename></originalaudiofilename>
						</logginginfo>
						<colorinfo>
							<lut></lut>
							<lut1></lut1>
							<asc_sop></asc_sop>
							<asc_sat></asc_sat>
							<lut2></lut2>
						</colorinfo>
						<labels>
							<label2>Violet</label2>
						</labels>
					</clipitem>
					<clipitem id="clipitem-992">
						<masterclipid>masterclip-989</masterclipid>
						<name>TKO_016_JAK_Sh10370.mov</name>
						<enabled>TRUE</enabled>
						<duration>13</duration>
						<rate>
							<timebase>24</timebase>
							<ntsc>TRUE</ntsc>
						</rate>
						<start>74471</start>
						<end>74479</end>
						<in>5</in>
						<out>10</out>
						<pproTicksIn>63567504000</pproTicksIn>
						<pproTicksOut>127135008000</pproTicksOut>
						<alphatype>none</alphatype>
						<pixelaspectratio>square</pixelaspectratio>
						<anamorphic>FALSE</anamorphic>
						<file id="file-989">
							<name>TKO_016_JAK_Sh10370.mov</name>
							<pathurl>file://tri-stor01/Projects/TKO/SHOTS/_Refs_Movs_Burnin_FrameCounter/TKO_016_JAK_Sh10370.mov</pathurl>
							<rate>
								<timebase>24</timebase>
								<ntsc>TRUE</ntsc>
							</rate>
							<duration>16</duration>
							<timecode>
								<rate>
									<timebase>24</timebase>
									<ntsc>TRUE</ntsc>
								</rate>
								<string>16:08:01:20</string>
								<frame>1393964</frame>
								<displayformat>NDF</displayformat>
								<reel>
									<name>A0180020</name>
								</reel>
							</timecode>
							<media>
								<video>
									<samplecharacteristics>
										<rate>
											<timebase>24</timebase>
											<ntsc>TRUE</ntsc>
										</rate>
										<width>4096</width>
										<height>2160</height>
										<anamorphic>FALSE</anamorphic>
										<pixelaspectratio>square</pixelaspectratio>
										<fielddominance>none</fielddominance>
									</samplecharacteristics>
								</video>
							</media>
						</file>
						<filter>
							<effect>
								<name>Time Remap</name>
								<effectid>timeremap</effectid>
								<effectcategory>motion</effectcategory>
								<effecttype>motion</effecttype>
								<mediatype>video</mediatype>
								<parameter authoringApp="PremierePro">
									<parameterid>variablespeed</parameterid>
									<name>variablespeed</name>
									<valuemin>0</valuemin>
									<valuemax>1</valuemax>
									<value>0</value>
								</parameter>
								<parameter authoringApp="PremierePro">
									<parameterid>speed</parameterid>
									<name>speed</name>
									<valuemin>-100000</valuemin>
									<valuemax>100000</valuemax>
									<value>120</value>
								</parameter>
								<parameter authoringApp="PremierePro">
									<parameterid>reverse</parameterid>
									<name>reverse</name>
									<value>FALSE</value>
								</parameter>
								<parameter authoringApp="PremierePro">
									<parameterid>frameblending</parameterid>
									<name>frameblending</name>
									<value>FALSE</value>
								</parameter>
								<parameter authoringApp="PremierePro">
									<parameterid>graphdict</parameterid>
									<name>graphdict</name>
									<valuemin>0</valuemin>
									<valuemax>15</valuemax>
									<value>0</value>
									<keyframe>
										<when>0</when>
										<value>0</value>
										<speedvirtualkf>TRUE</speedvirtualkf>
										<speedkfstart>TRUE</speedkfstart>
									</keyframe>
									<keyframe>
										<when>5</when>
										<value>6</value>
										<speedvirtualkf>TRUE</speedvirtualkf>
										<speedkfin>TRUE</speedkfin>
									</keyframe>
									<keyframe>
										<when>10</when>
										<value>12</value>
										<speedvirtualkf>TRUE</speedvirtualkf>
										<speedkfout>TRUE</speedkfout>
									</keyframe>
									<keyframe>
										<when>13</when>
										<value>15</value>
										<speedvirtualkf>TRUE</speedvirtualkf>
										<speedkfend>TRUE</speedkfend>
									</keyframe>
									<interpolation>
										<name>FCPCurve</name>
									</interpolation>
								</parameter>
							</effect>
						</filter>
						<logginginfo>
							<description></description>
							<scene></scene>
							<shottake></shottake>
							<lognote></lognote>
							<good></good>
							<originalvideofilename></originalvideofilename>
							<originalaudiofilename></originalaudiofilename>
						</logginginfo>
						<colorinfo>
							<lut></lut>
							<lut1></lut1>
							<asc_sop></asc_sop>
							<asc_sat></asc_sat>
							<lut2></lut2>
						</colorinfo>
						<labels>
							<label2>Violet</label2>
						</labels>
					</clipitem>
					<clipitem id="clipitem-993">
						<masterclipid>masterclip-990</masterclipid>
						<name>TKO_016_JAK_Sh10380.mov</name>
						<enabled>TRUE</enabled>
						<duration>73</duration>
						<rate>
							<timebase>24</timebase>
							<ntsc>TRUE</ntsc>
						</rate>
						<start>74479</start>
						<end>74544</end>
						<in>4</in>
						<out>69</out>
						<pproTicksIn>42378336000</pproTicksIn>
						<pproTicksOut>731026296000</pproTicksOut>
						<alphatype>none</alphatype>
						<pixelaspectratio>square</pixelaspectratio>
						<anamorphic>FALSE</anamorphic>
						<file id="file-990">
							<name>TKO_016_JAK_Sh10380.mov</name>
							<pathurl>file://tri-stor01/Projects/TKO/SHOTS/_Refs_Movs_Burnin_FrameCounter/TKO_016_JAK_Sh10380.mov</pathurl>
							<rate>
								<timebase>24</timebase>
								<ntsc>TRUE</ntsc>
							</rate>
							<duration>73</duration>
							<timecode>
								<rate>
									<timebase>24</timebase>
									<ntsc>TRUE</ntsc>
								</rate>
								<string>00:42:04:13</string>
								<frame>60589</frame>
								<displayformat>NDF</displayformat>
							</timecode>
							<media>
								<video>
									<samplecharacteristics>
										<rate>
											<timebase>24</timebase>
											<ntsc>TRUE</ntsc>
										</rate>
										<width>1280</width>
										<height>720</height>
										<anamorphic>FALSE</anamorphic>
										<pixelaspectratio>square</pixelaspectratio>
										<fielddominance>none</fielddominance>
									</samplecharacteristics>
								</video>
							</media>
						</file>
						<logginginfo>
							<description></description>
							<scene></scene>
							<shottake></shottake>
							<lognote></lognote>
							<good></good>
							<originalvideofilename></originalvideofilename>
							<originalaudiofilename></originalaudiofilename>
						</logginginfo>
						<colorinfo>
							<lut></lut>
							<lut1></lut1>
							<asc_sop></asc_sop>
							<asc_sat></asc_sat>
							<lut2></lut2>
						</colorinfo>
						<labels>
							<label2>Violet</label2>
						</labels>
					</clipitem>
					<clipitem id="clipitem-994">
						<masterclipid>masterclip-991</masterclipid>
						<name>TKO_016_JAK_Sh10390.mov</name>
						<enabled>TRUE</enabled>
						<duration>29</duration>
						<rate>
							<timebase>24</timebase>
							<ntsc>TRUE</ntsc>
						</rate>
						<start>74544</start>
						<end>74565</end>
						<in>4</in>
						<out>25</out>
						<pproTicksIn>42378336000</pproTicksIn>
						<pproTicksOut>264864600000</pproTicksOut>
						<alphatype>none</alphatype>
						<pixelaspectratio>square</pixelaspectratio>
						<anamorphic>FALSE</anamorphic>
						<file id="file-991">
							<name>TKO_016_JAK_Sh10390.mov</name>
							<pathurl>file://tri-stor01/Projects/TKO/SHOTS/_Refs_Movs_Burnin_FrameCounter/TKO_016_JAK_Sh10390.mov</pathurl>
							<rate>
								<timebase>24</timebase>
								<ntsc>TRUE</ntsc>
							</rate>
							<duration>29</duration>
							<timecode>
								<rate>
									<timebase>24</timebase>
									<ntsc>TRUE</ntsc>
								</rate>
								<string>00:42:07:06</string>
								<frame>60654</frame>
								<displayformat>NDF</displayformat>
							</timecode>
							<media>
								<video>
									<samplecharacteristics>
										<rate>
											<timebase>24</timebase>
											<ntsc>TRUE</ntsc>
										</rate>
										<width>1280</width>
										<height>720</height>
										<anamorphic>FALSE</anamorphic>
										<pixelaspectratio>square</pixelaspectratio>
										<fielddominance>none</fielddominance>
									</samplecharacteristics>
								</video>
							</media>
						</file>
						<logginginfo>
							<description></description>
							<scene></scene>
							<shottake></shottake>
							<lognote></lognote>
							<good></good>
							<originalvideofilename></originalvideofilename>
							<originalaudiofilename></originalaudiofilename>
						</logginginfo>
						<colorinfo>
							<lut></lut>
							<lut1></lut1>
							<asc_sop></asc_sop>
							<asc_sat></asc_sat>
							<lut2></lut2>
						</colorinfo>
						<labels>
							<label2>Violet</label2>
						</labels>
					</clipitem>
					<clipitem id="clipitem-995">
						<masterclipid>masterclip-992</masterclipid>
						<name>TKO_016_JAK_Sh10400.mov</name>
						<enabled>TRUE</enabled>
						<duration>73</duration>
						<rate>
							<timebase>24</timebase>
							<ntsc>TRUE</ntsc>
						</rate>
						<start>74565</start>
						<end>74630</end>
						<in>4</in>
						<out>69</out>
						<pproTicksIn>42378336000</pproTicksIn>
						<pproTicksOut>731026296000</pproTicksOut>
						<alphatype>none</alphatype>
						<pixelaspectratio>square</pixelaspectratio>
						<anamorphic>FALSE</anamorphic>
						<file id="file-992">
							<name>TKO_016_JAK_Sh10400.mov</name>
							<pathurl>file://tri-stor01/Projects/TKO/SHOTS/_Refs_Movs_Burnin_FrameCounter/TKO_016_JAK_Sh10400.mov</pathurl>
							<rate>
								<timebase>24</timebase>
								<ntsc>TRUE</ntsc>
							</rate>
							<duration>73</duration>
							<timecode>
								<rate>
									<timebase>24</timebase>
									<ntsc>TRUE</ntsc>
								</rate>
								<string>00:42:08:03</string>
								<frame>60675</frame>
								<displayformat>NDF</displayformat>
							</timecode>
							<media>
								<video>
									<samplecharacteristics>
										<rate>
											<timebase>24</timebase>
											<ntsc>TRUE</ntsc>
										</rate>
										<width>1280</width>
										<height>720</height>
										<anamorphic>FALSE</anamorphic>
										<pixelaspectratio>square</pixelaspectratio>
										<fielddominance>none</fielddominance>
									</samplecharacteristics>
								</video>
							</media>
						</file>
						<logginginfo>
							<description></description>
							<scene></scene>
							<shottake></shottake>
							<lognote></lognote>
							<good></good>
							<originalvideofilename></originalvideofilename>
							<originalaudiofilename></originalaudiofilename>
						</logginginfo>
						<colorinfo>
							<lut></lut>
							<lut1></lut1>
							<asc_sop></asc_sop>
							<asc_sat></asc_sat>
							<lut2></lut2>
						</colorinfo>
						<labels>
							<label2>Violet</label2>
						</labels>
					</clipitem>
					<clipitem id="clipitem-996">
						<masterclipid>masterclip-993</masterclipid>
						<name>TKO_016_JAK_Sh10410.mov</name>
						<enabled>TRUE</enabled>
						<duration>33</duration>
						<rate>
							<timebase>24</timebase>
							<ntsc>TRUE</ntsc>
						</rate>
						<start>74630</start>
						<end>74655</end>
						<in>4</in>
						<out>29</out>
						<pproTicksIn>42378336000</pproTicksIn>
						<pproTicksOut>307242936000</pproTicksOut>
						<alphatype>none</alphatype>
						<pixelaspectratio>square</pixelaspectratio>
						<anamorphic>FALSE</anamorphic>
						<file id="file-993">
							<name>TKO_016_JAK_Sh10410.mov</name>
							<pathurl>file://tri-stor01/Projects/TKO/SHOTS/_Refs_Movs_Burnin_FrameCounter/TKO_016_JAK_Sh10410.mov</pathurl>
							<rate>
								<timebase>24</timebase>
								<ntsc>TRUE</ntsc>
							</rate>
							<duration>33</duration>
							<timecode>
								<rate>
									<timebase>24</timebase>
									<ntsc>TRUE</ntsc>
								</rate>
								<string>07:21:04:15</string>
								<frame>635151</frame>
								<displayformat>NDF</displayformat>
								<reel>
									<name>C0180004</name>
								</reel>
							</timecode>
							<media>
								<video>
									<samplecharacteristics>
										<rate>
											<timebase>24</timebase>
											<ntsc>TRUE</ntsc>
										</rate>
										<width>3840</width>
										<height>2160</height>
										<anamorphic>FALSE</anamorphic>
										<pixelaspectratio>square</pixelaspectratio>
										<fielddominance>none</fielddominance>
									</samplecharacteristics>
								</video>
							</media>
						</file>
						<logginginfo>
							<description></description>
							<scene></scene>
							<shottake></shottake>
							<lognote></lognote>
							<good></good>
							<originalvideofilename></originalvideofilename>
							<originalaudiofilename></originalaudiofilename>
						</logginginfo>
						<colorinfo>
							<lut></lut>
							<lut1></lut1>
							<asc_sop></asc_sop>
							<asc_sat></asc_sat>
							<lut2></lut2>
						</colorinfo>
						<labels>
							<label2>Violet</label2>
						</labels>
					</clipitem>
					<clipitem id="clipitem-997">
						<masterclipid>masterclip-994</masterclipid>
						<name>TKO_016_JAK_Sh10420.mov</name>
						<enabled>TRUE</enabled>
						<duration>65</duration>
						<rate>
							<timebase>24</timebase>
							<ntsc>TRUE</ntsc>
						</rate>
						<start>74655</start>
						<end>74712</end>
						<in>4</in>
						<out>61</out>
						<pproTicksIn>42378336000</pproTicksIn>
						<pproTicksOut>646269624000</pproTicksOut>
						<alphatype>none</alphatype>
						<pixelaspectratio>square</pixelaspectratio>
						<anamorphic>FALSE</anamorphic>
						<file id="file-994">
							<name>TKO_016_JAK_Sh10420.mov</name>
							<pathurl>file://tri-stor01/Projects/TKO/SHOTS/_Refs_Movs_Burnin_FrameCounter/TKO_016_JAK_Sh10420.mov</pathurl>
							<rate>
								<timebase>24</timebase>
								<ntsc>TRUE</ntsc>
							</rate>
							<duration>65</duration>
							<timecode>
								<rate>
									<timebase>24</timebase>
									<ntsc>TRUE</ntsc>
								</rate>
								<string>00:42:11:21</string>
								<frame>60765</frame>
								<displayformat>NDF</displayformat>
							</timecode>
							<media>
								<video>
									<samplecharacteristics>
										<rate>
											<timebase>24</timebase>
											<ntsc>TRUE</ntsc>
										</rate>
										<width>1280</width>
										<height>720</height>
										<anamorphic>FALSE</anamorphic>
										<pixelaspectratio>square</pixelaspectratio>
										<fielddominance>none</fielddominance>
									</samplecharacteristics>
								</video>
							</media>
						</file>
						<logginginfo>
							<description></description>
							<scene></scene>
							<shottake></shottake>
							<lognote></lognote>
							<good></good>
							<originalvideofilename></originalvideofilename>
							<originalaudiofilename></originalaudiofilename>
						</logginginfo>
						<colorinfo>
							<lut></lut>
							<lut1></lut1>
							<asc_sop></asc_sop>
							<asc_sat></asc_sat>
							<lut2></lut2>
						</colorinfo>
						<labels>
							<label2>Violet</label2>
						</labels>
					</clipitem>
					<clipitem id="clipitem-998">
						<masterclipid>masterclip-995</masterclipid>
						<name>TKO_016_JAK_Sh10430.mov</name>
						<enabled>TRUE</enabled>
						<duration>31</duration>
						<rate>
							<timebase>24</timebase>
							<ntsc>TRUE</ntsc>
						</rate>
						<start>74712</start>
						<end>74735</end>
						<in>4</in>
						<out>27</out>
						<pproTicksIn>42378336000</pproTicksIn>
						<pproTicksOut>286053768000</pproTicksOut>
						<alphatype>none</alphatype>
						<pixelaspectratio>square</pixelaspectratio>
						<anamorphic>FALSE</anamorphic>
						<file id="file-995">
							<name>TKO_016_JAK_Sh10430.mov</name>
							<pathurl>file://tri-stor01/Projects/TKO/SHOTS/_Refs_Movs_Burnin_FrameCounter/TKO_016_JAK_Sh10430.mov</pathurl>
							<rate>
								<timebase>24</timebase>
								<ntsc>TRUE</ntsc>
							</rate>
							<duration>31</duration>
							<timecode>
								<rate>
									<timebase>24</timebase>
									<ntsc>TRUE</ntsc>
								</rate>
								<string>18:22:46:22</string>
								<frame>1588006</frame>
								<displayformat>NDF</displayformat>
								<reel>
									<name>A0190005</name>
								</reel>
							</timecode>
							<media>
								<video>
									<samplecharacteristics>
										<rate>
											<timebase>24</timebase>
											<ntsc>TRUE</ntsc>
										</rate>
										<width>4096</width>
										<height>2160</height>
										<anamorphic>FALSE</anamorphic>
										<pixelaspectratio>square</pixelaspectratio>
										<fielddominance>none</fielddominance>
									</samplecharacteristics>
								</video>
							</media>
						</file>
						<logginginfo>
							<description></description>
							<scene></scene>
							<shottake></shottake>
							<lognote></lognote>
							<good></good>
							<originalvideofilename></originalvideofilename>
							<originalaudiofilename></originalaudiofilename>
						</logginginfo>
						<colorinfo>
							<lut></lut>
							<lut1></lut1>
							<asc_sop></asc_sop>
							<asc_sat></asc_sat>
							<lut2></lut2>
						</colorinfo>
						<labels>
							<label2>Violet</label2>
						</labels>
					</clipitem>
					<clipitem id="clipitem-999">
						<masterclipid>masterclip-996</masterclipid>
						<name>TKO_016_JAK_Sh10440.mov</name>
						<enabled>TRUE</enabled>
						<duration>34</duration>
						<rate>
							<timebase>24</timebase>
							<ntsc>TRUE</ntsc>
						</rate>
						<start>74735</start>
						<end>74761</end>
						<in>4</in>
						<out>30</out>
						<pproTicksIn>42378336000</pproTicksIn>
						<pproTicksOut>317837520000</pproTicksOut>
						<alphatype>none</alphatype>
						<pixelaspectratio>square</pixelaspectratio>
						<anamorphic>FALSE</anamorphic>
						<file id="file-996">
							<name>TKO_016_JAK_Sh10440.mov</name>
							<pathurl>file://tri-stor01/Projects/TKO/SHOTS/_Refs_Movs_Burnin_FrameCounter/TKO_016_JAK_Sh10440.mov</pathurl>
							<rate>
								<timebase>24</timebase>
								<ntsc>TRUE</ntsc>
							</rate>
							<duration>34</duration>
							<timecode>
								<rate>
									<timebase>24</timebase>
									<ntsc>TRUE</ntsc>
								</rate>
								<string>07:21:33:00</string>
								<frame>635832</frame>
								<displayformat>NDF</displayformat>
								<reel>
									<name>C0180004</name>
								</reel>
							</timecode>
							<media>
								<video>
									<samplecharacteristics>
										<rate>
											<timebase>24</timebase>
											<ntsc>TRUE</ntsc>
										</rate>
										<width>3840</width>
										<height>2160</height>
										<anamorphic>FALSE</anamorphic>
										<pixelaspectratio>square</pixelaspectratio>
										<fielddominance>none</fielddominance>
									</samplecharacteristics>
								</video>
							</media>
						</file>
						<logginginfo>
							<description></description>
							<scene></scene>
							<shottake></shottake>
							<lognote></lognote>
							<good></good>
							<originalvideofilename></originalvideofilename>
							<originalaudiofilename></originalaudiofilename>
						</logginginfo>
						<colorinfo>
							<lut></lut>
							<lut1></lut1>
							<asc_sop></asc_sop>
							<asc_sat></asc_sat>
							<lut2></lut2>
						</colorinfo>
						<labels>
							<label2>Violet</label2>
						</labels>
					</clipitem>
					<clipitem id="clipitem-1000">
						<masterclipid>masterclip-997</masterclipid>
						<name>TKO_016_JAK_Sh10450.mov</name>
						<enabled>TRUE</enabled>
						<duration>35</duration>
						<rate>
							<timebase>24</timebase>
							<ntsc>TRUE</ntsc>
						</rate>
						<start>74761</start>
						<end>74788</end>
						<in>4</in>
						<out>31</out>
						<pproTicksIn>42378336000</pproTicksIn>
						<pproTicksOut>328432104000</pproTicksOut>
						<alphatype>none</alphatype>
						<pixelaspectratio>square</pixelaspectratio>
						<anamorphic>FALSE</anamorphic>
						<file id="file-997">
							<name>TKO_016_JAK_Sh10450.mov</name>
							<pathurl>file://tri-stor01/Projects/TKO/SHOTS/_Refs_Movs_Burnin_FrameCounter/TKO_016_JAK_Sh10450.mov</pathurl>
							<rate>
								<timebase>24</timebase>
								<ntsc>TRUE</ntsc>
							</rate>
							<duration>35</duration>
							<timecode>
								<rate>
									<timebase>24</timebase>
									<ntsc>TRUE</ntsc>
								</rate>
								<string>00:42:15:19</string>
								<frame>60859</frame>
								<displayformat>NDF</displayformat>
							</timecode>
							<media>
								<video>
									<samplecharacteristics>
										<rate>
											<timebase>24</timebase>
											<ntsc>TRUE</ntsc>
										</rate>
										<width>1280</width>
										<height>720</height>
										<anamorphic>FALSE</anamorphic>
										<pixelaspectratio>square</pixelaspectratio>
										<fielddominance>none</fielddominance>
									</samplecharacteristics>
								</video>
							</media>
						</file>
						<logginginfo>
							<description></description>
							<scene></scene>
							<shottake></shottake>
							<lognote></lognote>
							<good></good>
							<originalvideofilename></originalvideofilename>
							<originalaudiofilename></originalaudiofilename>
						</logginginfo>
						<colorinfo>
							<lut></lut>
							<lut1></lut1>
							<asc_sop></asc_sop>
							<asc_sat></asc_sat>
							<lut2></lut2>
						</colorinfo>
						<labels>
							<label2>Violet</label2>
						</labels>
					</clipitem>
					<clipitem id="clipitem-1001">
						<masterclipid>masterclip-998</masterclipid>
						<name>TKO_016_JAK_Sh10460.mov</name>
						<enabled>TRUE</enabled>
						<duration>46</duration>
						<rate>
							<timebase>24</timebase>
							<ntsc>TRUE</ntsc>
						</rate>
						<start>74788</start>
						<end>74826</end>
						<in>4</in>
						<out>42</out>
						<pproTicksIn>42378336000</pproTicksIn>
						<pproTicksOut>444972528000</pproTicksOut>
						<alphatype>none</alphatype>
						<pixelaspectratio>square</pixelaspectratio>
						<anamorphic>FALSE</anamorphic>
						<file id="file-998">
							<name>TKO_016_JAK_Sh10460.mov</name>
							<pathurl>file://tri-stor01/Projects/TKO/SHOTS/_Refs_Movs_Burnin_FrameCounter/TKO_016_JAK_Sh10460.mov</pathurl>
							<rate>
								<timebase>24</timebase>
								<ntsc>TRUE</ntsc>
							</rate>
							<duration>46</duration>
							<timecode>
								<rate>
									<timebase>24</timebase>
									<ntsc>TRUE</ntsc>
								</rate>
								<string>00:42:17:10</string>
								<frame>60898</frame>
								<displayformat>NDF</displayformat>
							</timecode>
							<media>
								<video>
									<samplecharacteristics>
										<rate>
											<timebase>24</timebase>
											<ntsc>TRUE</ntsc>
										</rate>
										<width>1280</width>
										<height>720</height>
										<anamorphic>FALSE</anamorphic>
										<pixelaspectratio>square</pixelaspectratio>
										<fielddominance>none</fielddominance>
									</samplecharacteristics>
								</video>
							</media>
						</file>
						<logginginfo>
							<description></description>
							<scene></scene>
							<shottake></shottake>
							<lognote></lognote>
							<good></good>
							<originalvideofilename></originalvideofilename>
							<originalaudiofilename></originalaudiofilename>
						</logginginfo>
						<colorinfo>
							<lut></lut>
							<lut1></lut1>
							<asc_sop></asc_sop>
							<asc_sat></asc_sat>
							<lut2></lut2>
						</colorinfo>
						<labels>
							<label2>Violet</label2>
						</labels>
					</clipitem>
					<clipitem id="clipitem-1002">
						<masterclipid>masterclip-999</masterclipid>
						<name>TKO_016_JAK_Sh10470.mov</name>
						<enabled>TRUE</enabled>
						<duration>126</duration>
						<rate>
							<timebase>24</timebase>
							<ntsc>TRUE</ntsc>
						</rate>
						<start>74826</start>
						<end>74944</end>
						<in>4</in>
						<out>122</out>
						<pproTicksIn>42378336000</pproTicksIn>
						<pproTicksOut>1292539248000</pproTicksOut>
						<alphatype>none</alphatype>
						<pixelaspectratio>square</pixelaspectratio>
						<anamorphic>FALSE</anamorphic>
						<file id="file-999">
							<name>TKO_016_JAK_Sh10470.mov</name>
							<pathurl>file://tri-stor01/Projects/TKO/SHOTS/_Refs_Movs_Burnin_FrameCounter/TKO_016_JAK_Sh10470.mov</pathurl>
							<rate>
								<timebase>24</timebase>
								<ntsc>TRUE</ntsc>
							</rate>
							<duration>126</duration>
							<timecode>
								<rate>
									<timebase>24</timebase>
									<ntsc>TRUE</ntsc>
								</rate>
								<string>00:42:19:00</string>
								<frame>60936</frame>
								<displayformat>NDF</displayformat>
							</timecode>
							<media>
								<video>
									<samplecharacteristics>
										<rate>
											<timebase>24</timebase>
											<ntsc>TRUE</ntsc>
										</rate>
										<width>1280</width>
										<height>720</height>
										<anamorphic>FALSE</anamorphic>
										<pixelaspectratio>square</pixelaspectratio>
										<fielddominance>none</fielddominance>
									</samplecharacteristics>
								</video>
							</media>
						</file>
						<logginginfo>
							<description></description>
							<scene></scene>
							<shottake></shottake>
							<lognote></lognote>
							<good></good>
							<originalvideofilename></originalvideofilename>
							<originalaudiofilename></originalaudiofilename>
						</logginginfo>
						<colorinfo>
							<lut></lut>
							<lut1></lut1>
							<asc_sop></asc_sop>
							<asc_sat></asc_sat>
							<lut2></lut2>
						</colorinfo>
						<labels>
							<label2>Violet</label2>
						</labels>
					</clipitem>
					<clipitem id="clipitem-1003">
						<masterclipid>masterclip-1000</masterclipid>
						<name>TKO_016_JAK_Sh10480.mov</name>
						<enabled>TRUE</enabled>
						<duration>33</duration>
						<rate>
							<timebase>24</timebase>
							<ntsc>TRUE</ntsc>
						</rate>
						<start>74944</start>
						<end>74969</end>
						<in>4</in>
						<out>29</out>
						<pproTicksIn>42378336000</pproTicksIn>
						<pproTicksOut>307242936000</pproTicksOut>
						<alphatype>none</alphatype>
						<pixelaspectratio>square</pixelaspectratio>
						<anamorphic>FALSE</anamorphic>
						<file id="file-1000">
							<name>TKO_016_JAK_Sh10480.mov</name>
							<pathurl>file://tri-stor01/Projects/TKO/SHOTS/_Refs_Movs_Burnin_FrameCounter/TKO_016_JAK_Sh10480.mov</pathurl>
							<rate>
								<timebase>24</timebase>
								<ntsc>TRUE</ntsc>
							</rate>
							<duration>33</duration>
							<timecode>
								<rate>
									<timebase>24</timebase>
									<ntsc>TRUE</ntsc>
								</rate>
								<string>07:21:09:05</string>
								<frame>635261</frame>
								<displayformat>NDF</displayformat>
								<reel>
									<name>C0180004</name>
								</reel>
							</timecode>
							<media>
								<video>
									<samplecharacteristics>
										<rate>
											<timebase>24</timebase>
											<ntsc>TRUE</ntsc>
										</rate>
										<width>3840</width>
										<height>2160</height>
										<anamorphic>FALSE</anamorphic>
										<pixelaspectratio>square</pixelaspectratio>
										<fielddominance>none</fielddominance>
									</samplecharacteristics>
								</video>
							</media>
						</file>
						<logginginfo>
							<description></description>
							<scene></scene>
							<shottake></shottake>
							<lognote></lognote>
							<good></good>
							<originalvideofilename></originalvideofilename>
							<originalaudiofilename></originalaudiofilename>
						</logginginfo>
						<colorinfo>
							<lut></lut>
							<lut1></lut1>
							<asc_sop></asc_sop>
							<asc_sat></asc_sat>
							<lut2></lut2>
						</colorinfo>
						<labels>
							<label2>Violet</label2>
						</labels>
					</clipitem>
					<clipitem id="clipitem-1004">
						<masterclipid>masterclip-1001</masterclipid>
						<name>TKO_016_JAK_Sh10500.mov</name>
						<enabled>TRUE</enabled>
						<duration>133</duration>
						<rate>
							<timebase>24</timebase>
							<ntsc>TRUE</ntsc>
						</rate>
						<start>74969</start>
						<end>75094</end>
						<in>4</in>
						<out>129</out>
						<pproTicksIn>42378336000</pproTicksIn>
						<pproTicksOut>1366701336000</pproTicksOut>
						<alphatype>none</alphatype>
						<pixelaspectratio>square</pixelaspectratio>
						<anamorphic>FALSE</anamorphic>
						<file id="file-1001">
							<name>TKO_016_JAK_Sh10500.mov</name>
							<pathurl>file://tri-stor01/Projects/TKO/SHOTS/_Refs_Movs_Burnin_FrameCounter/TKO_016_JAK_Sh10500.mov</pathurl>
							<rate>
								<timebase>24</timebase>
								<ntsc>TRUE</ntsc>
							</rate>
							<duration>133</duration>
							<timecode>
								<rate>
									<timebase>24</timebase>
									<ntsc>TRUE</ntsc>
								</rate>
								<string>00:42:23:22</string>
								<frame>61054</frame>
								<displayformat>NDF</displayformat>
							</timecode>
							<media>
								<video>
									<samplecharacteristics>
										<rate>
											<timebase>24</timebase>
											<ntsc>TRUE</ntsc>
										</rate>
										<width>1280</width>
										<height>720</height>
										<anamorphic>FALSE</anamorphic>
										<pixelaspectratio>square</pixelaspectratio>
										<fielddominance>none</fielddominance>
									</samplecharacteristics>
								</video>
							</media>
						</file>
						<logginginfo>
							<description></description>
							<scene></scene>
							<shottake></shottake>
							<lognote></lognote>
							<good></good>
							<originalvideofilename></originalvideofilename>
							<originalaudiofilename></originalaudiofilename>
						</logginginfo>
						<colorinfo>
							<lut></lut>
							<lut1></lut1>
							<asc_sop></asc_sop>
							<asc_sat></asc_sat>
							<lut2></lut2>
						</colorinfo>
						<labels>
							<label2>Violet</label2>
						</labels>
					</clipitem>
					<clipitem id="clipitem-1005">
						<masterclipid>masterclip-1002</masterclipid>
						<name>TKO_016_JAK_Sh10510.mov</name>
						<enabled>TRUE</enabled>
						<duration>51</duration>
						<rate>
							<timebase>24</timebase>
							<ntsc>TRUE</ntsc>
						</rate>
						<start>75094</start>
						<end>75137</end>
						<in>4</in>
						<out>47</out>
						<pproTicksIn>42378336000</pproTicksIn>
						<pproTicksOut>497945448000</pproTicksOut>
						<alphatype>none</alphatype>
						<pixelaspectratio>square</pixelaspectratio>
						<anamorphic>FALSE</anamorphic>
						<file id="file-1002">
							<name>TKO_016_JAK_Sh10510.mov</name>
							<pathurl>file://tri-stor01/Projects/TKO/SHOTS/_Refs_Movs_Burnin_FrameCounter/TKO_016_JAK_Sh10510.mov</pathurl>
							<rate>
								<timebase>24</timebase>
								<ntsc>TRUE</ntsc>
							</rate>
							<duration>51</duration>
							<timecode>
								<rate>
									<timebase>24</timebase>
									<ntsc>TRUE</ntsc>
								</rate>
								<string>05:26:52:13</string>
								<frame>470701</frame>
								<displayformat>NDF</displayformat>
								<reel>
									<name>C0110005</name>
								</reel>
							</timecode>
							<media>
								<video>
									<samplecharacteristics>
										<rate>
											<timebase>24</timebase>
											<ntsc>TRUE</ntsc>
										</rate>
										<width>3840</width>
										<height>2160</height>
										<anamorphic>FALSE</anamorphic>
										<pixelaspectratio>square</pixelaspectratio>
										<fielddominance>none</fielddominance>
									</samplecharacteristics>
								</video>
							</media>
						</file>
						<logginginfo>
							<description></description>
							<scene></scene>
							<shottake></shottake>
							<lognote></lognote>
							<good></good>
							<originalvideofilename></originalvideofilename>
							<originalaudiofilename></originalaudiofilename>
						</logginginfo>
						<colorinfo>
							<lut></lut>
							<lut1></lut1>
							<asc_sop></asc_sop>
							<asc_sat></asc_sat>
							<lut2></lut2>
						</colorinfo>
						<labels>
							<label2>Violet</label2>
						</labels>
					</clipitem>
					<clipitem id="clipitem-1006">
						<masterclipid>masterclip-1003</masterclipid>
						<name>TKO_016_JAK_Sh10520.mov</name>
						<enabled>TRUE</enabled>
						<duration>223</duration>
						<rate>
							<timebase>24</timebase>
							<ntsc>TRUE</ntsc>
						</rate>
						<start>75137</start>
						<end>75352</end>
						<in>4</in>
						<out>219</out>
						<pproTicksIn>42378336000</pproTicksIn>
						<pproTicksOut>2320213896000</pproTicksOut>
						<alphatype>none</alphatype>
						<pixelaspectratio>square</pixelaspectratio>
						<anamorphic>FALSE</anamorphic>
						<file id="file-1003">
							<name>TKO_016_JAK_Sh10520.mov</name>
							<pathurl>file://tri-stor01/Projects/TKO/SHOTS/_Refs_Movs_Burnin_FrameCounter/TKO_016_JAK_Sh10520.mov</pathurl>
							<rate>
								<timebase>24</timebase>
								<ntsc>TRUE</ntsc>
							</rate>
							<duration>223</duration>
							<timecode>
								<rate>
									<timebase>24</timebase>
									<ntsc>TRUE</ntsc>
								</rate>
								<string>05:20:01:09</string>
								<frame>460833</frame>
								<displayformat>NDF</displayformat>
								<reel>
									<name>C0110003</name>
								</reel>
							</timecode>
							<media>
								<video>
									<samplecharacteristics>
										<rate>
											<timebase>24</timebase>
											<ntsc>TRUE</ntsc>
										</rate>
										<width>3840</width>
										<height>2160</height>
										<anamorphic>FALSE</anamorphic>
										<pixelaspectratio>square</pixelaspectratio>
										<fielddominance>none</fielddominance>
									</samplecharacteristics>
								</video>
							</media>
						</file>
						<logginginfo>
							<description></description>
							<scene></scene>
							<shottake></shottake>
							<lognote></lognote>
							<good></good>
							<originalvideofilename></originalvideofilename>
							<originalaudiofilename></originalaudiofilename>
						</logginginfo>
						<colorinfo>
							<lut></lut>
							<lut1></lut1>
							<asc_sop></asc_sop>
							<asc_sat></asc_sat>
							<lut2></lut2>
						</colorinfo>
						<labels>
							<label2>Violet</label2>
						</labels>
					</clipitem>
					<clipitem id="clipitem-1007">
						<masterclipid>masterclip-1004</masterclipid>
						<name>TKO_016_JAK_Sh10530.mov</name>
						<enabled>TRUE</enabled>
						<duration>105</duration>
						<rate>
							<timebase>24</timebase>
							<ntsc>TRUE</ntsc>
						</rate>
						<start>75352</start>
						<end>75449</end>
						<in>4</in>
						<out>101</out>
						<pproTicksIn>42378336000</pproTicksIn>
						<pproTicksOut>1070052984000</pproTicksOut>
						<alphatype>none</alphatype>
						<pixelaspectratio>square</pixelaspectratio>
						<anamorphic>FALSE</anamorphic>
						<file id="file-1004">
							<name>TKO_016_JAK_Sh10530.mov</name>
							<pathurl>file://tri-stor01/Projects/TKO/SHOTS/_Refs_Movs_Burnin_FrameCounter/TKO_016_JAK_Sh10530.mov</pathurl>
							<rate>
								<timebase>24</timebase>
								<ntsc>TRUE</ntsc>
							</rate>
							<duration>105</duration>
							<timecode>
								<rate>
									<timebase>24</timebase>
									<ntsc>TRUE</ntsc>
								</rate>
								<string>18:22:05:10</string>
								<frame>1587010</frame>
								<displayformat>NDF</displayformat>
								<reel>
									<name>A0190005</name>
								</reel>
							</timecode>
							<media>
								<video>
									<samplecharacteristics>
										<rate>
											<timebase>24</timebase>
											<ntsc>TRUE</ntsc>
										</rate>
										<width>4096</width>
										<height>2160</height>
										<anamorphic>FALSE</anamorphic>
										<pixelaspectratio>square</pixelaspectratio>
										<fielddominance>none</fielddominance>
									</samplecharacteristics>
								</video>
							</media>
						</file>
						<logginginfo>
							<description></description>
							<scene></scene>
							<shottake></shottake>
							<lognote></lognote>
							<good></good>
							<originalvideofilename></originalvideofilename>
							<originalaudiofilename></originalaudiofilename>
						</logginginfo>
						<colorinfo>
							<lut></lut>
							<lut1></lut1>
							<asc_sop></asc_sop>
							<asc_sat></asc_sat>
							<lut2></lut2>
						</colorinfo>
						<labels>
							<label2>Violet</label2>
						</labels>
					</clipitem>
					<clipitem id="clipitem-1008">
						<masterclipid>masterclip-1005</masterclipid>
						<name>TKO_016_JAK_Sh10540.mov</name>
						<enabled>TRUE</enabled>
						<duration>94</duration>
						<rate>
							<timebase>24</timebase>
							<ntsc>TRUE</ntsc>
						</rate>
						<start>75449</start>
						<end>75535</end>
						<in>4</in>
						<out>90</out>
						<pproTicksIn>42378336000</pproTicksIn>
						<pproTicksOut>953512560000</pproTicksOut>
						<alphatype>none</alphatype>
						<pixelaspectratio>square</pixelaspectratio>
						<anamorphic>FALSE</anamorphic>
						<file id="file-1005">
							<name>TKO_016_JAK_Sh10540.mov</name>
							<pathurl>file://tri-stor01/Projects/TKO/SHOTS/_Refs_Movs_Burnin_FrameCounter/TKO_016_JAK_Sh10540.mov</pathurl>
							<rate>
								<timebase>24</timebase>
								<ntsc>TRUE</ntsc>
							</rate>
							<duration>94</duration>
							<timecode>
								<rate>
									<timebase>24</timebase>
									<ntsc>TRUE</ntsc>
								</rate>
								<string>05:30:50:04</string>
								<frame>476404</frame>
								<displayformat>NDF</displayformat>
								<reel>
									<name>C0110006</name>
								</reel>
							</timecode>
							<media>
								<video>
									<samplecharacteristics>
										<rate>
											<timebase>24</timebase>
											<ntsc>TRUE</ntsc>
										</rate>
										<width>3840</width>
										<height>2160</height>
										<anamorphic>FALSE</anamorphic>
										<pixelaspectratio>square</pixelaspectratio>
										<fielddominance>none</fielddominance>
									</samplecharacteristics>
								</video>
							</media>
						</file>
						<logginginfo>
							<description></description>
							<scene></scene>
							<shottake></shottake>
							<lognote></lognote>
							<good></good>
							<originalvideofilename></originalvideofilename>
							<originalaudiofilename></originalaudiofilename>
						</logginginfo>
						<colorinfo>
							<lut></lut>
							<lut1></lut1>
							<asc_sop></asc_sop>
							<asc_sat></asc_sat>
							<lut2></lut2>
						</colorinfo>
						<labels>
							<label2>Violet</label2>
						</labels>
					</clipitem>
					<clipitem id="clipitem-1009">
						<masterclipid>masterclip-1006</masterclipid>
						<name>TKO_016_JAK_Sh10550.mov</name>
						<enabled>TRUE</enabled>
						<duration>62</duration>
						<rate>
							<timebase>24</timebase>
							<ntsc>TRUE</ntsc>
						</rate>
						<start>75535</start>
						<end>75589</end>
						<in>4</in>
						<out>58</out>
						<pproTicksIn>42378336000</pproTicksIn>
						<pproTicksOut>614485872000</pproTicksOut>
						<alphatype>none</alphatype>
						<pixelaspectratio>square</pixelaspectratio>
						<anamorphic>FALSE</anamorphic>
						<file id="file-1006">
							<name>TKO_016_JAK_Sh10550.mov</name>
							<pathurl>file://tri-stor01/Projects/TKO/SHOTS/_Refs_Movs_Burnin_FrameCounter/TKO_016_JAK_Sh10550.mov</pathurl>
							<rate>
								<timebase>24</timebase>
								<ntsc>TRUE</ntsc>
							</rate>
							<duration>62</duration>
							<timecode>
								<rate>
									<timebase>24</timebase>
									<ntsc>TRUE</ntsc>
								</rate>
								<string>18:22:14:18</string>
								<frame>1587234</frame>
								<displayformat>NDF</displayformat>
								<reel>
									<name>B0160005</name>
								</reel>
							</timecode>
							<media>
								<video>
									<samplecharacteristics>
										<rate>
											<timebase>24</timebase>
											<ntsc>TRUE</ntsc>
										</rate>
										<width>4096</width>
										<height>2160</height>
										<anamorphic>FALSE</anamorphic>
										<pixelaspectratio>square</pixelaspectratio>
										<fielddominance>none</fielddominance>
									</samplecharacteristics>
								</video>
							</media>
						</file>
						<logginginfo>
							<description></description>
							<scene></scene>
							<shottake></shottake>
							<lognote></lognote>
							<good></good>
							<originalvideofilename></originalvideofilename>
							<originalaudiofilename></originalaudiofilename>
						</logginginfo>
						<colorinfo>
							<lut></lut>
							<lut1></lut1>
							<asc_sop></asc_sop>
							<asc_sat></asc_sat>
							<lut2></lut2>
						</colorinfo>
						<labels>
							<label2>Violet</label2>
						</labels>
					</clipitem>
					<clipitem id="clipitem-1010">
						<masterclipid>masterclip-1007</masterclipid>
						<name>TKO_016_JAK_Sh10560.mov</name>
						<enabled>TRUE</enabled>
						<duration>161</duration>
						<rate>
							<timebase>24</timebase>
							<ntsc>TRUE</ntsc>
						</rate>
						<start>75589</start>
						<end>75742</end>
						<in>4</in>
						<out>157</out>
						<pproTicksIn>42378336000</pproTicksIn>
						<pproTicksOut>1663349688000</pproTicksOut>
						<alphatype>none</alphatype>
						<pixelaspectratio>square</pixelaspectratio>
						<anamorphic>FALSE</anamorphic>
						<file id="file-1007">
							<name>TKO_016_JAK_Sh10560.mov</name>
							<pathurl>file://tri-stor01/Projects/TKO/SHOTS/_Refs_Movs_Burnin_FrameCounter/TKO_016_JAK_Sh10560.mov</pathurl>
							<rate>
								<timebase>24</timebase>
								<ntsc>TRUE</ntsc>
							</rate>
							<duration>161</duration>
							<timecode>
								<rate>
									<timebase>24</timebase>
									<ntsc>TRUE</ntsc>
								</rate>
								<string>17:52:03:06</string>
								<frame>1543758</frame>
								<displayformat>NDF</displayformat>
								<reel>
									<name>B0160003</name>
								</reel>
							</timecode>
							<media>
								<video>
									<samplecharacteristics>
										<rate>
											<timebase>24</timebase>
											<ntsc>TRUE</ntsc>
										</rate>
										<width>4096</width>
										<height>2160</height>
										<anamorphic>FALSE</anamorphic>
										<pixelaspectratio>square</pixelaspectratio>
										<fielddominance>none</fielddominance>
									</samplecharacteristics>
								</video>
							</media>
						</file>
						<logginginfo>
							<description></description>
							<scene></scene>
							<shottake></shottake>
							<lognote></lognote>
							<good></good>
							<originalvideofilename></originalvideofilename>
							<originalaudiofilename></originalaudiofilename>
						</logginginfo>
						<colorinfo>
							<lut></lut>
							<lut1></lut1>
							<asc_sop></asc_sop>
							<asc_sat></asc_sat>
							<lut2></lut2>
						</colorinfo>
						<labels>
							<label2>Violet</label2>
						</labels>
					</clipitem>
					<clipitem id="clipitem-1011">
						<masterclipid>masterclip-1008</masterclipid>
						<name>TKO_016_JAK_Sh10570.mov</name>
						<enabled>TRUE</enabled>
						<duration>97</duration>
						<rate>
							<timebase>24</timebase>
							<ntsc>TRUE</ntsc>
						</rate>
						<start>75742</start>
						<end>75831</end>
						<in>4</in>
						<out>93</out>
						<pproTicksIn>42378336000</pproTicksIn>
						<pproTicksOut>985296312000</pproTicksOut>
						<alphatype>none</alphatype>
						<pixelaspectratio>square</pixelaspectratio>
						<anamorphic>FALSE</anamorphic>
						<file id="file-1008">
							<name>TKO_016_JAK_Sh10570.mov</name>
							<pathurl>file://tri-stor01/Projects/TKO/SHOTS/_Refs_Movs_Burnin_FrameCounter/TKO_016_JAK_Sh10570.mov</pathurl>
							<rate>
								<timebase>24</timebase>
								<ntsc>TRUE</ntsc>
							</rate>
							<duration>97</duration>
							<timecode>
								<rate>
									<timebase>24</timebase>
									<ntsc>TRUE</ntsc>
								</rate>
								<string>18:22:21:19</string>
								<frame>1587403</frame>
								<displayformat>NDF</displayformat>
								<reel>
									<name>A0190005</name>
								</reel>
							</timecode>
							<media>
								<video>
									<samplecharacteristics>
										<rate>
											<timebase>24</timebase>
											<ntsc>TRUE</ntsc>
										</rate>
										<width>4096</width>
										<height>2160</height>
										<anamorphic>FALSE</anamorphic>
										<pixelaspectratio>square</pixelaspectratio>
										<fielddominance>none</fielddominance>
									</samplecharacteristics>
								</video>
							</media>
						</file>
						<logginginfo>
							<description></description>
							<scene></scene>
							<shottake></shottake>
							<lognote></lognote>
							<good></good>
							<originalvideofilename></originalvideofilename>
							<originalaudiofilename></originalaudiofilename>
						</logginginfo>
						<colorinfo>
							<lut></lut>
							<lut1></lut1>
							<asc_sop></asc_sop>
							<asc_sat></asc_sat>
							<lut2></lut2>
						</colorinfo>
						<labels>
							<label2>Violet</label2>
						</labels>
					</clipitem>
					<clipitem id="clipitem-1012">
						<masterclipid>masterclip-1009</masterclipid>
						<name>TKO_016_JAK_Sh10580.mov</name>
						<enabled>TRUE</enabled>
						<duration>98</duration>
						<rate>
							<timebase>24</timebase>
							<ntsc>TRUE</ntsc>
						</rate>
						<start>75831</start>
						<end>75921</end>
						<in>4</in>
						<out>94</out>
						<pproTicksIn>42378336000</pproTicksIn>
						<pproTicksOut>995890896000</pproTicksOut>
						<alphatype>none</alphatype>
						<pixelaspectratio>square</pixelaspectratio>
						<anamorphic>FALSE</anamorphic>
						<file id="file-1009">
							<name>TKO_016_JAK_Sh10580.mov</name>
							<pathurl>file://tri-stor01/Projects/TKO/SHOTS/_Refs_Movs_Burnin_FrameCounter/TKO_016_JAK_Sh10580.mov</pathurl>
							<rate>
								<timebase>24</timebase>
								<ntsc>TRUE</ntsc>
							</rate>
							<duration>98</duration>
							<timecode>
								<rate>
									<timebase>24</timebase>
									<ntsc>TRUE</ntsc>
								</rate>
								<string>00:00:00:00</string>
								<frame>0</frame>
								<displayformat>NDF</displayformat>
							</timecode>
							<media>
								<video>
									<samplecharacteristics>
										<rate>
											<timebase>24</timebase>
											<ntsc>TRUE</ntsc>
										</rate>
										<width>4096</width>
										<height>2160</height>
										<anamorphic>FALSE</anamorphic>
										<pixelaspectratio>square</pixelaspectratio>
										<fielddominance>none</fielddominance>
									</samplecharacteristics>
								</video>
							</media>
						</file>
						<logginginfo>
							<description></description>
							<scene></scene>
							<shottake></shottake>
							<lognote></lognote>
							<good></good>
							<originalvideofilename></originalvideofilename>
							<originalaudiofilename></originalaudiofilename>
						</logginginfo>
						<colorinfo>
							<lut></lut>
							<lut1></lut1>
							<asc_sop></asc_sop>
							<asc_sat></asc_sat>
							<lut2></lut2>
						</colorinfo>
						<labels>
							<label2>Violet</label2>
						</labels>
					</clipitem>
					<clipitem id="clipitem-1013">
						<masterclipid>masterclip-1010</masterclipid>
						<name>TKO_016_JAK_Sh10590.mov</name>
						<enabled>TRUE</enabled>
						<duration>122</duration>
						<rate>
							<timebase>24</timebase>
							<ntsc>TRUE</ntsc>
						</rate>
						<start>75921</start>
						<end>75973</end>
						<in>4</in>
						<out>56</out>
						<pproTicksIn>42378336000</pproTicksIn>
						<pproTicksOut>593296704000</pproTicksOut>
						<alphatype>none</alphatype>
						<pixelaspectratio>square</pixelaspectratio>
						<anamorphic>FALSE</anamorphic>
						<file id="file-1010">
							<name>TKO_016_JAK_Sh10590.mov</name>
							<pathurl>file://tri-stor01/Projects/TKO/SHOTS/_Refs_Movs_Burnin_FrameCounter/TKO_016_JAK_Sh10590.mov</pathurl>
							<rate>
								<timebase>24</timebase>
								<ntsc>TRUE</ntsc>
							</rate>
							<duration>122</duration>
							<timecode>
								<rate>
									<timebase>24</timebase>
									<ntsc>TRUE</ntsc>
								</rate>
								<string>18:22:25:12</string>
								<frame>1587492</frame>
								<displayformat>NDF</displayformat>
								<reel>
									<name>A0190005</name>
								</reel>
							</timecode>
							<media>
								<video>
									<samplecharacteristics>
										<rate>
											<timebase>24</timebase>
											<ntsc>TRUE</ntsc>
										</rate>
										<width>4096</width>
										<height>2160</height>
										<anamorphic>FALSE</anamorphic>
										<pixelaspectratio>square</pixelaspectratio>
										<fielddominance>none</fielddominance>
									</samplecharacteristics>
								</video>
							</media>
						</file>
						<logginginfo>
							<description></description>
							<scene></scene>
							<shottake></shottake>
							<lognote></lognote>
							<good></good>
							<originalvideofilename></originalvideofilename>
							<originalaudiofilename></originalaudiofilename>
						</logginginfo>
						<colorinfo>
							<lut></lut>
							<lut1></lut1>
							<asc_sop></asc_sop>
							<asc_sat></asc_sat>
							<lut2></lut2>
						</colorinfo>
						<labels>
							<label2>Violet</label2>
						</labels>
					</clipitem>
					<clipitem id="clipitem-1014">
						<masterclipid>masterclip-1011</masterclipid>
						<name>TKO_016_JAK_Sh10600.mov</name>
						<enabled>TRUE</enabled>
						<duration>119</duration>
						<rate>
							<timebase>24</timebase>
							<ntsc>TRUE</ntsc>
						</rate>
						<start>75973</start>
						<end>76084</end>
						<in>4</in>
						<out>115</out>
						<pproTicksIn>42378336000</pproTicksIn>
						<pproTicksOut>1218377160000</pproTicksOut>
						<alphatype>none</alphatype>
						<pixelaspectratio>square</pixelaspectratio>
						<anamorphic>FALSE</anamorphic>
						<file id="file-1011">
							<name>TKO_016_JAK_Sh10600.mov</name>
							<pathurl>file://tri-stor01/Projects/TKO/SHOTS/_Refs_Movs_Burnin_FrameCounter/TKO_016_JAK_Sh10600.mov</pathurl>
							<rate>
								<timebase>24</timebase>
								<ntsc>TRUE</ntsc>
							</rate>
							<duration>119</duration>
							<timecode>
								<rate>
									<timebase>24</timebase>
									<ntsc>TRUE</ntsc>
								</rate>
								<string>18:22:31:05</string>
								<frame>1587629</frame>
								<displayformat>NDF</displayformat>
								<reel>
									<name>B0160005</name>
								</reel>
							</timecode>
							<media>
								<video>
									<samplecharacteristics>
										<rate>
											<timebase>24</timebase>
											<ntsc>TRUE</ntsc>
										</rate>
										<width>4096</width>
										<height>2160</height>
										<anamorphic>FALSE</anamorphic>
										<pixelaspectratio>square</pixelaspectratio>
										<fielddominance>none</fielddominance>
									</samplecharacteristics>
								</video>
							</media>
						</file>
						<logginginfo>
							<description></description>
							<scene></scene>
							<shottake></shottake>
							<lognote></lognote>
							<good></good>
							<originalvideofilename></originalvideofilename>
							<originalaudiofilename></originalaudiofilename>
						</logginginfo>
						<colorinfo>
							<lut></lut>
							<lut1></lut1>
							<asc_sop></asc_sop>
							<asc_sat></asc_sat>
							<lut2></lut2>
						</colorinfo>
						<labels>
							<label2>Violet</label2>
						</labels>
					</clipitem>
					<clipitem id="clipitem-1015">
						<masterclipid>masterclip-1012</masterclipid>
						<name>TKO_016_JAK_Sh10610.mov</name>
						<enabled>TRUE</enabled>
						<duration>220</duration>
						<rate>
							<timebase>24</timebase>
							<ntsc>TRUE</ntsc>
						</rate>
						<start>76084</start>
						<end>76296</end>
						<in>4</in>
						<out>216</out>
						<pproTicksIn>42378336000</pproTicksIn>
						<pproTicksOut>2288430144000</pproTicksOut>
						<alphatype>none</alphatype>
						<pixelaspectratio>square</pixelaspectratio>
						<anamorphic>FALSE</anamorphic>
						<file id="file-1012">
							<name>TKO_016_JAK_Sh10610.mov</name>
							<pathurl>file://tri-stor01/Projects/TKO/SHOTS/_Refs_Movs_Burnin_FrameCounter/TKO_016_JAK_Sh10610.mov</pathurl>
							<rate>
								<timebase>24</timebase>
								<ntsc>TRUE</ntsc>
							</rate>
							<duration>220</duration>
							<timecode>
								<rate>
									<timebase>24</timebase>
									<ntsc>TRUE</ntsc>
								</rate>
								<string>17:52:24:05</string>
								<frame>1544261</frame>
								<displayformat>NDF</displayformat>
								<reel>
									<name>B0160003</name>
								</reel>
							</timecode>
							<media>
								<video>
									<samplecharacteristics>
										<rate>
											<timebase>24</timebase>
											<ntsc>TRUE</ntsc>
										</rate>
										<width>4096</width>
										<height>2160</height>
										<anamorphic>FALSE</anamorphic>
										<pixelaspectratio>square</pixelaspectratio>
										<fielddominance>none</fielddominance>
									</samplecharacteristics>
								</video>
							</media>
						</file>
						<logginginfo>
							<description></description>
							<scene></scene>
							<shottake></shottake>
							<lognote></lognote>
							<good></good>
							<originalvideofilename></originalvideofilename>
							<originalaudiofilename></originalaudiofilename>
						</logginginfo>
						<colorinfo>
							<lut></lut>
							<lut1></lut1>
							<asc_sop></asc_sop>
							<asc_sat></asc_sat>
							<lut2></lut2>
						</colorinfo>
						<labels>
							<label2>Violet</label2>
						</labels>
					</clipitem>
					<clipitem id="clipitem-1016">
						<masterclipid>masterclip-1013</masterclipid>
						<name>TKO_016_JAK_Sh10620.mov</name>
						<enabled>TRUE</enabled>
						<duration>28</duration>
						<rate>
							<timebase>24</timebase>
							<ntsc>TRUE</ntsc>
						</rate>
						<start>76296</start>
						<end>76316</end>
						<in>4</in>
						<out>24</out>
						<pproTicksIn>42378336000</pproTicksIn>
						<pproTicksOut>254270016000</pproTicksOut>
						<alphatype>none</alphatype>
						<pixelaspectratio>square</pixelaspectratio>
						<anamorphic>FALSE</anamorphic>
						<file id="file-1013">
							<name>TKO_016_JAK_Sh10620.mov</name>
							<pathurl>file://tri-stor01/Projects/TKO/SHOTS/_Refs_Movs_Burnin_FrameCounter/TKO_016_JAK_Sh10620.mov</pathurl>
							<rate>
								<timebase>24</timebase>
								<ntsc>TRUE</ntsc>
							</rate>
							<duration>28</duration>
							<timecode>
								<rate>
									<timebase>24</timebase>
									<ntsc>TRUE</ntsc>
								</rate>
								<string>00:42:56:19</string>
								<frame>61843</frame>
								<displayformat>NDF</displayformat>
							</timecode>
							<media>
								<video>
									<samplecharacteristics>
										<rate>
											<timebase>24</timebase>
											<ntsc>TRUE</ntsc>
										</rate>
										<width>1280</width>
										<height>720</height>
										<anamorphic>FALSE</anamorphic>
										<pixelaspectratio>square</pixelaspectratio>
										<fielddominance>none</fielddominance>
									</samplecharacteristics>
								</video>
							</media>
						</file>
						<logginginfo>
							<description></description>
							<scene></scene>
							<shottake></shottake>
							<lognote></lognote>
							<good></good>
							<originalvideofilename></originalvideofilename>
							<originalaudiofilename></originalaudiofilename>
						</logginginfo>
						<colorinfo>
							<lut></lut>
							<lut1></lut1>
							<asc_sop></asc_sop>
							<asc_sat></asc_sat>
							<lut2></lut2>
						</colorinfo>
						<labels>
							<label2>Violet</label2>
						</labels>
					</clipitem>
					<clipitem id="clipitem-1017">
						<masterclipid>masterclip-1014</masterclipid>
						<name>TKO_016_JAK_Sh10630.mov</name>
						<enabled>TRUE</enabled>
						<duration>35</duration>
						<rate>
							<timebase>24</timebase>
							<ntsc>TRUE</ntsc>
						</rate>
						<start>76316</start>
						<end>76343</end>
						<in>4</in>
						<out>31</out>
						<pproTicksIn>42378336000</pproTicksIn>
						<pproTicksOut>328432104000</pproTicksOut>
						<alphatype>none</alphatype>
						<pixelaspectratio>square</pixelaspectratio>
						<anamorphic>FALSE</anamorphic>
						<file id="file-1014">
							<name>TKO_016_JAK_Sh10630.mov</name>
							<pathurl>file://tri-stor01/Projects/TKO/SHOTS/_Refs_Movs_Burnin_FrameCounter/TKO_016_JAK_Sh10630.mov</pathurl>
							<rate>
								<timebase>24</timebase>
								<ntsc>TRUE</ntsc>
							</rate>
							<duration>35</duration>
							<timecode>
								<rate>
									<timebase>24</timebase>
									<ntsc>TRUE</ntsc>
								</rate>
								<string>17:52:33:22</string>
								<frame>1544494</frame>
								<displayformat>NDF</displayformat>
								<reel>
									<name>A0190003</name>
								</reel>
							</timecode>
							<media>
								<video>
									<samplecharacteristics>
										<rate>
											<timebase>24</timebase>
											<ntsc>TRUE</ntsc>
										</rate>
										<width>4096</width>
										<height>2160</height>
										<anamorphic>FALSE</anamorphic>
										<pixelaspectratio>square</pixelaspectratio>
										<fielddominance>none</fielddominance>
									</samplecharacteristics>
								</video>
							</media>
						</file>
						<logginginfo>
							<description></description>
							<scene></scene>
							<shottake></shottake>
							<lognote></lognote>
							<good></good>
							<originalvideofilename></originalvideofilename>
							<originalaudiofilename></originalaudiofilename>
						</logginginfo>
						<colorinfo>
							<lut></lut>
							<lut1></lut1>
							<asc_sop></asc_sop>
							<asc_sat></asc_sat>
							<lut2></lut2>
						</colorinfo>
						<labels>
							<label2>Violet</label2>
						</labels>
					</clipitem>
					<clipitem id="clipitem-1018">
						<masterclipid>masterclip-1015</masterclipid>
						<name>TKO_016_JAK_Sh10640.mov</name>
						<enabled>TRUE</enabled>
						<duration>34</duration>
						<rate>
							<timebase>24</timebase>
							<ntsc>TRUE</ntsc>
						</rate>
						<start>76343</start>
						<end>76369</end>
						<in>4</in>
						<out>30</out>
						<pproTicksIn>42378336000</pproTicksIn>
						<pproTicksOut>317837520000</pproTicksOut>
						<alphatype>none</alphatype>
						<pixelaspectratio>square</pixelaspectratio>
						<anamorphic>FALSE</anamorphic>
						<file id="file-1015">
							<name>TKO_016_JAK_Sh10640.mov</name>
							<pathurl>file://tri-stor01/Projects/TKO/SHOTS/_Refs_Movs_Burnin_FrameCounter/TKO_016_JAK_Sh10640.mov</pathurl>
							<rate>
								<timebase>24</timebase>
								<ntsc>TRUE</ntsc>
							</rate>
							<duration>34</duration>
							<timecode>
								<rate>
									<timebase>24</timebase>
									<ntsc>TRUE</ntsc>
								</rate>
								<string>00:42:58:05</string>
								<frame>61877</frame>
								<displayformat>NDF</displayformat>
							</timecode>
							<media>
								<video>
									<samplecharacteristics>
										<rate>
											<timebase>24</timebase>
											<ntsc>TRUE</ntsc>
										</rate>
										<width>1280</width>
										<height>720</height>
										<anamorphic>FALSE</anamorphic>
										<pixelaspectratio>square</pixelaspectratio>
										<fielddominance>none</fielddominance>
									</samplecharacteristics>
								</video>
							</media>
						</file>
						<logginginfo>
							<description></description>
							<scene></scene>
							<shottake></shottake>
							<lognote></lognote>
							<good></good>
							<originalvideofilename></originalvideofilename>
							<originalaudiofilename></originalaudiofilename>
						</logginginfo>
						<colorinfo>
							<lut></lut>
							<lut1></lut1>
							<asc_sop></asc_sop>
							<asc_sat></asc_sat>
							<lut2></lut2>
						</colorinfo>
						<labels>
							<label2>Violet</label2>
						</labels>
					</clipitem>
					<clipitem id="clipitem-1019">
						<masterclipid>masterclip-1016</masterclipid>
						<name>TKO_016_JAK_Sh10650.mov</name>
						<enabled>TRUE</enabled>
						<duration>22</duration>
						<rate>
							<timebase>24</timebase>
							<ntsc>TRUE</ntsc>
						</rate>
						<start>76369</start>
						<end>76383</end>
						<in>4</in>
						<out>18</out>
						<pproTicksIn>42378336000</pproTicksIn>
						<pproTicksOut>190702512000</pproTicksOut>
						<alphatype>none</alphatype>
						<pixelaspectratio>square</pixelaspectratio>
						<anamorphic>FALSE</anamorphic>
						<file id="file-1016">
							<name>TKO_016_JAK_Sh10650.mov</name>
							<pathurl>file://tri-stor01/Projects/TKO/SHOTS/_Refs_Movs_Burnin_FrameCounter/TKO_016_JAK_Sh10650.mov</pathurl>
							<rate>
								<timebase>24</timebase>
								<ntsc>TRUE</ntsc>
							</rate>
							<duration>22</duration>
							<timecode>
								<rate>
									<timebase>24</timebase>
									<ntsc>TRUE</ntsc>
								</rate>
								<string>07:26:53:21</string>
								<frame>643533</frame>
								<displayformat>NDF</displayformat>
								<reel>
									<name>C0180006</name>
								</reel>
							</timecode>
							<media>
								<video>
									<samplecharacteristics>
										<rate>
											<timebase>24</timebase>
											<ntsc>TRUE</ntsc>
										</rate>
										<width>3840</width>
										<height>2160</height>
										<anamorphic>FALSE</anamorphic>
										<pixelaspectratio>square</pixelaspectratio>
										<fielddominance>none</fielddominance>
									</samplecharacteristics>
								</video>
							</media>
						</file>
						<logginginfo>
							<description></description>
							<scene></scene>
							<shottake></shottake>
							<lognote></lognote>
							<good></good>
							<originalvideofilename></originalvideofilename>
							<originalaudiofilename></originalaudiofilename>
						</logginginfo>
						<colorinfo>
							<lut></lut>
							<lut1></lut1>
							<asc_sop></asc_sop>
							<asc_sat></asc_sat>
							<lut2></lut2>
						</colorinfo>
						<labels>
							<label2>Violet</label2>
						</labels>
					</clipitem>
					<clipitem id="clipitem-1020">
						<masterclipid>masterclip-1017</masterclipid>
						<name>TKO_016_JAK_Sh10660.mov</name>
						<enabled>TRUE</enabled>
						<duration>27</duration>
						<rate>
							<timebase>24</timebase>
							<ntsc>TRUE</ntsc>
						</rate>
						<start>76383</start>
						<end>76402</end>
						<in>4</in>
						<out>23</out>
						<pproTicksIn>42378336000</pproTicksIn>
						<pproTicksOut>243675432000</pproTicksOut>
						<alphatype>none</alphatype>
						<pixelaspectratio>square</pixelaspectratio>
						<anamorphic>FALSE</anamorphic>
						<file id="file-1017">
							<name>TKO_016_JAK_Sh10660.mov</name>
							<pathurl>file://tri-stor01/Projects/TKO/SHOTS/_Refs_Movs_Burnin_FrameCounter/TKO_016_JAK_Sh10660.mov</pathurl>
							<rate>
								<timebase>24</timebase>
								<ntsc>TRUE</ntsc>
							</rate>
							<duration>27</duration>
							<timecode>
								<rate>
									<timebase>24</timebase>
									<ntsc>TRUE</ntsc>
								</rate>
								<string>05:20:51:17</string>
								<frame>462041</frame>
								<displayformat>NDF</displayformat>
								<reel>
									<name>C0110003</name>
								</reel>
							</timecode>
							<media>
								<video>
									<samplecharacteristics>
										<rate>
											<timebase>24</timebase>
											<ntsc>TRUE</ntsc>
										</rate>
										<width>3840</width>
										<height>2160</height>
										<anamorphic>FALSE</anamorphic>
										<pixelaspectratio>square</pixelaspectratio>
										<fielddominance>none</fielddominance>
									</samplecharacteristics>
								</video>
							</media>
						</file>
						<logginginfo>
							<description></description>
							<scene></scene>
							<shottake></shottake>
							<lognote></lognote>
							<good></good>
							<originalvideofilename></originalvideofilename>
							<originalaudiofilename></originalaudiofilename>
						</logginginfo>
						<colorinfo>
							<lut></lut>
							<lut1></lut1>
							<asc_sop></asc_sop>
							<asc_sat></asc_sat>
							<lut2></lut2>
						</colorinfo>
						<labels>
							<label2>Violet</label2>
						</labels>
					</clipitem>
					<clipitem id="clipitem-1021">
						<masterclipid>masterclip-1018</masterclipid>
						<name>TKO_016_JAK_Sh10670.mov</name>
						<enabled>TRUE</enabled>
						<duration>22</duration>
						<rate>
							<timebase>24</timebase>
							<ntsc>TRUE</ntsc>
						</rate>
						<start>76402</start>
						<end>76416</end>
						<in>4</in>
						<out>18</out>
						<pproTicksIn>42378336000</pproTicksIn>
						<pproTicksOut>190702512000</pproTicksOut>
						<alphatype>none</alphatype>
						<pixelaspectratio>square</pixelaspectratio>
						<anamorphic>FALSE</anamorphic>
						<file id="file-1018">
							<name>TKO_016_JAK_Sh10670.mov</name>
							<pathurl>file://tri-stor01/Projects/TKO/SHOTS/_Refs_Movs_Burnin_FrameCounter/TKO_016_JAK_Sh10670.mov</pathurl>
							<rate>
								<timebase>24</timebase>
								<ntsc>TRUE</ntsc>
							</rate>
							<duration>22</duration>
							<timecode>
								<rate>
									<timebase>24</timebase>
									<ntsc>TRUE</ntsc>
								</rate>
								<string>17:52:38:01</string>
								<frame>1544593</frame>
								<displayformat>NDF</displayformat>
								<reel>
									<name>A0190003</name>
								</reel>
							</timecode>
							<media>
								<video>
									<samplecharacteristics>
										<rate>
											<timebase>24</timebase>
											<ntsc>TRUE</ntsc>
										</rate>
										<width>4096</width>
										<height>2160</height>
										<anamorphic>FALSE</anamorphic>
										<pixelaspectratio>square</pixelaspectratio>
										<fielddominance>none</fielddominance>
									</samplecharacteristics>
								</video>
							</media>
						</file>
						<logginginfo>
							<description></description>
							<scene></scene>
							<shottake></shottake>
							<lognote></lognote>
							<good></good>
							<originalvideofilename></originalvideofilename>
							<originalaudiofilename></originalaudiofilename>
						</logginginfo>
						<colorinfo>
							<lut></lut>
							<lut1></lut1>
							<asc_sop></asc_sop>
							<asc_sat></asc_sat>
							<lut2></lut2>
						</colorinfo>
						<labels>
							<label2>Violet</label2>
						</labels>
					</clipitem>
					<clipitem id="clipitem-1022">
						<masterclipid>masterclip-1019</masterclipid>
						<name>TKO_016_JAK_Sh10680.mov</name>
						<enabled>TRUE</enabled>
						<duration>28</duration>
						<rate>
							<timebase>24</timebase>
							<ntsc>TRUE</ntsc>
						</rate>
						<start>76416</start>
						<end>76436</end>
						<in>4</in>
						<out>24</out>
						<pproTicksIn>42378336000</pproTicksIn>
						<pproTicksOut>254270016000</pproTicksOut>
						<alphatype>none</alphatype>
						<pixelaspectratio>square</pixelaspectratio>
						<anamorphic>FALSE</anamorphic>
						<file id="file-1019">
							<name>TKO_016_JAK_Sh10680.mov</name>
							<pathurl>file://tri-stor01/Projects/TKO/SHOTS/_Refs_Movs_Burnin_FrameCounter/TKO_016_JAK_Sh10680.mov</pathurl>
							<rate>
								<timebase>24</timebase>
								<ntsc>TRUE</ntsc>
							</rate>
							<duration>28</duration>
							<timecode>
								<rate>
									<timebase>24</timebase>
									<ntsc>TRUE</ntsc>
								</rate>
								<string>00:42:58:05</string>
								<frame>61877</frame>
								<displayformat>NDF</displayformat>
							</timecode>
							<media>
								<video>
									<samplecharacteristics>
										<rate>
											<timebase>24</timebase>
											<ntsc>TRUE</ntsc>
										</rate>
										<width>1280</width>
										<height>720</height>
										<anamorphic>FALSE</anamorphic>
										<pixelaspectratio>square</pixelaspectratio>
										<fielddominance>none</fielddominance>
									</samplecharacteristics>
								</video>
							</media>
						</file>
						<logginginfo>
							<description></description>
							<scene></scene>
							<shottake></shottake>
							<lognote></lognote>
							<good></good>
							<originalvideofilename></originalvideofilename>
							<originalaudiofilename></originalaudiofilename>
						</logginginfo>
						<colorinfo>
							<lut></lut>
							<lut1></lut1>
							<asc_sop></asc_sop>
							<asc_sat></asc_sat>
							<lut2></lut2>
						</colorinfo>
						<labels>
							<label2>Violet</label2>
						</labels>
					</clipitem>
					<clipitem id="clipitem-1023">
						<masterclipid>masterclip-1020</masterclipid>
						<name>TKO_016_JAK_Sh10690.mov</name>
						<enabled>TRUE</enabled>
						<duration>48</duration>
						<rate>
							<timebase>24</timebase>
							<ntsc>TRUE</ntsc>
						</rate>
						<start>76436</start>
						<end>76476</end>
						<in>4</in>
						<out>44</out>
						<pproTicksIn>42378336000</pproTicksIn>
						<pproTicksOut>466161696000</pproTicksOut>
						<alphatype>none</alphatype>
						<pixelaspectratio>square</pixelaspectratio>
						<anamorphic>FALSE</anamorphic>
						<file id="file-1020">
							<name>TKO_016_JAK_Sh10690.mov</name>
							<pathurl>file://tri-stor01/Projects/TKO/SHOTS/_Refs_Movs_Burnin_FrameCounter/TKO_016_JAK_Sh10690.mov</pathurl>
							<rate>
								<timebase>24</timebase>
								<ntsc>TRUE</ntsc>
							</rate>
							<duration>48</duration>
							<timecode>
								<rate>
									<timebase>24</timebase>
									<ntsc>TRUE</ntsc>
								</rate>
								<string>00:43:01:22</string>
								<frame>61966</frame>
								<displayformat>NDF</displayformat>
							</timecode>
							<media>
								<video>
									<samplecharacteristics>
										<rate>
											<timebase>24</timebase>
											<ntsc>TRUE</ntsc>
										</rate>
										<width>1280</width>
										<height>720</height>
										<anamorphic>FALSE</anamorphic>
										<pixelaspectratio>square</pixelaspectratio>
										<fielddominance>none</fielddominance>
									</samplecharacteristics>
								</video>
							</media>
						</file>
						<logginginfo>
							<description></description>
							<scene></scene>
							<shottake></shottake>
							<lognote></lognote>
							<good></good>
							<originalvideofilename></originalvideofilename>
							<originalaudiofilename></originalaudiofilename>
						</logginginfo>
						<colorinfo>
							<lut></lut>
							<lut1></lut1>
							<asc_sop></asc_sop>
							<asc_sat></asc_sat>
							<lut2></lut2>
						</colorinfo>
						<labels>
							<label2>Violet</label2>
						</labels>
					</clipitem>
					<clipitem id="clipitem-1024">
						<masterclipid>masterclip-1021</masterclipid>
						<name>TKO_016_JAK_Sh10700.mov</name>
						<enabled>TRUE</enabled>
						<duration>387</duration>
						<rate>
							<timebase>24</timebase>
							<ntsc>TRUE</ntsc>
						</rate>
						<start>76476</start>
						<end>76540</end>
						<in>4</in>
						<out>68</out>
						<pproTicksIn>42378336000</pproTicksIn>
						<pproTicksOut>720431712000</pproTicksOut>
						<alphatype>none</alphatype>
						<pixelaspectratio>square</pixelaspectratio>
						<anamorphic>FALSE</anamorphic>
						<file id="file-1021">
							<name>TKO_016_JAK_Sh10700.mov</name>
							<pathurl>file://tri-stor01/Projects/TKO/SHOTS/_Refs_Movs_Burnin_FrameCounter/TKO_016_JAK_Sh10700.mov</pathurl>
							<rate>
								<timebase>24</timebase>
								<ntsc>TRUE</ntsc>
							</rate>
							<duration>387</duration>
							<timecode>
								<rate>
									<timebase>24</timebase>
									<ntsc>TRUE</ntsc>
								</rate>
								<string>15:20:50:13</string>
								<frame>1326013</frame>
								<displayformat>NDF</displayformat>
								<reel>
									<name>B0320013</name>
								</reel>
							</timecode>
							<media>
								<video>
									<samplecharacteristics>
										<rate>
											<timebase>24</timebase>
											<ntsc>TRUE</ntsc>
										</rate>
										<width>4096</width>
										<height>2160</height>
										<anamorphic>FALSE</anamorphic>
										<pixelaspectratio>square</pixelaspectratio>
										<fielddominance>none</fielddominance>
									</samplecharacteristics>
								</video>
							</media>
						</file>
						<logginginfo>
							<description></description>
							<scene></scene>
							<shottake></shottake>
							<lognote></lognote>
							<good></good>
							<originalvideofilename></originalvideofilename>
							<originalaudiofilename></originalaudiofilename>
						</logginginfo>
						<colorinfo>
							<lut></lut>
							<lut1></lut1>
							<asc_sop></asc_sop>
							<asc_sat></asc_sat>
							<lut2></lut2>
						</colorinfo>
						<labels>
							<label2>Violet</label2>
						</labels>
					</clipitem>
					<clipitem id="clipitem-1025">
						<masterclipid>masterclip-1022</masterclipid>
						<name>TKO_016_JAK_Sh10710_V02.mov</name>
						<enabled>TRUE</enabled>
						<duration>215</duration>
						<rate>
							<timebase>24</timebase>
							<ntsc>TRUE</ntsc>
						</rate>
						<start>76540</start>
						<end>76735</end>
						<in>4</in>
						<out>199</out>
						<pproTicksIn>42378336000</pproTicksIn>
						<pproTicksOut>2108322216000</pproTicksOut>
						<alphatype>none</alphatype>
						<pixelaspectratio>square</pixelaspectratio>
						<anamorphic>FALSE</anamorphic>
						<file id="file-1022">
							<name>TKO_016_JAK_Sh10710_V02.mov</name>
							<pathurl>file://tri-stor01/Projects/TKO/SHOTS/_Refs_Movs_Burnin_FrameCounter/TKO_016_JAK_Sh10710_V02.mov</pathurl>
							<rate>
								<timebase>24</timebase>
								<ntsc>TRUE</ntsc>
							</rate>
							<duration>215</duration>
							<timecode>
								<rate>
									<timebase>24</timebase>
									<ntsc>TRUE</ntsc>
								</rate>
								<string>15:11:11:21</string>
								<frame>1312125</frame>
								<displayformat>NDF</displayformat>
								<reel>
									<name>A0380010</name>
								</reel>
							</timecode>
							<media>
								<video>
									<samplecharacteristics>
										<rate>
											<timebase>24</timebase>
											<ntsc>TRUE</ntsc>
										</rate>
										<width>4096</width>
										<height>2160</height>
										<anamorphic>FALSE</anamorphic>
										<pixelaspectratio>square</pixelaspectratio>
										<fielddominance>none</fielddominance>
									</samplecharacteristics>
								</video>
							</media>
						</file>
						<logginginfo>
							<description></description>
							<scene></scene>
							<shottake></shottake>
							<lognote></lognote>
							<good></good>
							<originalvideofilename></originalvideofilename>
							<originalaudiofilename></originalaudiofilename>
						</logginginfo>
						<colorinfo>
							<lut></lut>
							<lut1></lut1>
							<asc_sop></asc_sop>
							<asc_sat></asc_sat>
							<lut2></lut2>
						</colorinfo>
						<labels>
							<label2>Violet</label2>
						</labels>
					</clipitem>
					<clipitem id="clipitem-1026">
						<masterclipid>masterclip-1023</masterclipid>
						<name>TKO_016_JAK_Sh10720.mov</name>
						<enabled>TRUE</enabled>
						<duration>89</duration>
						<rate>
							<timebase>24</timebase>
							<ntsc>TRUE</ntsc>
						</rate>
						<start>76735</start>
						<end>76816</end>
						<in>4</in>
						<out>85</out>
						<pproTicksIn>42378336000</pproTicksIn>
						<pproTicksOut>900539640000</pproTicksOut>
						<alphatype>none</alphatype>
						<pixelaspectratio>square</pixelaspectratio>
						<anamorphic>FALSE</anamorphic>
						<file id="file-1023">
							<name>TKO_016_JAK_Sh10720.mov</name>
							<pathurl>file://tri-stor01/Projects/TKO/SHOTS/_Refs_Movs_Burnin_FrameCounter/TKO_016_JAK_Sh10720.mov</pathurl>
							<rate>
								<timebase>24</timebase>
								<ntsc>TRUE</ntsc>
							</rate>
							<duration>89</duration>
							<timecode>
								<rate>
									<timebase>24</timebase>
									<ntsc>TRUE</ntsc>
								</rate>
								<string>15:11:20:22</string>
								<frame>1312342</frame>
								<displayformat>NDF</displayformat>
								<reel>
									<name>B0320011</name>
								</reel>
							</timecode>
							<media>
								<video>
									<samplecharacteristics>
										<rate>
											<timebase>24</timebase>
											<ntsc>TRUE</ntsc>
										</rate>
										<width>4096</width>
										<height>2160</height>
										<anamorphic>FALSE</anamorphic>
										<pixelaspectratio>square</pixelaspectratio>
										<fielddominance>none</fielddominance>
									</samplecharacteristics>
								</video>
							</media>
						</file>
						<logginginfo>
							<description></description>
							<scene></scene>
							<shottake></shottake>
							<lognote></lognote>
							<good></good>
							<originalvideofilename></originalvideofilename>
							<originalaudiofilename></originalaudiofilename>
						</logginginfo>
						<colorinfo>
							<lut></lut>
							<lut1></lut1>
							<asc_sop></asc_sop>
							<asc_sat></asc_sat>
							<lut2></lut2>
						</colorinfo>
						<labels>
							<label2>Violet</label2>
						</labels>
					</clipitem>
					<clipitem id="clipitem-1027">
						<masterclipid>masterclip-1024</masterclipid>
						<name>TKO_016_JAK_Sh10730_V02.mov</name>
						<enabled>TRUE</enabled>
						<duration>272</duration>
						<rate>
							<timebase>24</timebase>
							<ntsc>TRUE</ntsc>
						</rate>
						<start>76816</start>
						<end>77068</end>
						<in>4</in>
						<out>256</out>
						<pproTicksIn>42378336000</pproTicksIn>
						<pproTicksOut>2712213504000</pproTicksOut>
						<alphatype>none</alphatype>
						<pixelaspectratio>square</pixelaspectratio>
						<anamorphic>FALSE</anamorphic>
						<file id="file-1024">
							<name>TKO_016_JAK_Sh10730_V02.mov</name>
							<pathurl>file://tri-stor01/Projects/TKO/SHOTS/_Refs_Movs_Burnin_FrameCounter/TKO_016_JAK_Sh10730_V02.mov</pathurl>
							<rate>
								<timebase>24</timebase>
								<ntsc>TRUE</ntsc>
							</rate>
							<duration>272</duration>
							<timecode>
								<rate>
									<timebase>24</timebase>
									<ntsc>TRUE</ntsc>
								</rate>
								<string>15:21:26:01</string>
								<frame>1326865</frame>
								<displayformat>NDF</displayformat>
								<reel>
									<name>A0380012</name>
								</reel>
							</timecode>
							<media>
								<video>
									<samplecharacteristics>
										<rate>
											<timebase>24</timebase>
											<ntsc>TRUE</ntsc>
										</rate>
										<width>4096</width>
										<height>2160</height>
										<anamorphic>FALSE</anamorphic>
										<pixelaspectratio>square</pixelaspectratio>
										<fielddominance>none</fielddominance>
									</samplecharacteristics>
								</video>
							</media>
						</file>
						<logginginfo>
							<description></description>
							<scene></scene>
							<shottake></shottake>
							<lognote></lognote>
							<good></good>
							<originalvideofilename></originalvideofilename>
							<originalaudiofilename></originalaudiofilename>
						</logginginfo>
						<colorinfo>
							<lut></lut>
							<lut1></lut1>
							<asc_sop></asc_sop>
							<asc_sat></asc_sat>
							<lut2></lut2>
						</colorinfo>
						<labels>
							<label2>Violet</label2>
						</labels>
					</clipitem>
					<clipitem id="clipitem-1028">
						<masterclipid>masterclip-1025</masterclipid>
						<name>TKO_016_JAK_Sh10740.mov</name>
						<enabled>TRUE</enabled>
						<duration>88</duration>
						<rate>
							<timebase>24</timebase>
							<ntsc>TRUE</ntsc>
						</rate>
						<start>77068</start>
						<end>77148</end>
						<in>4</in>
						<out>84</out>
						<pproTicksIn>42378336000</pproTicksIn>
						<pproTicksOut>889945056000</pproTicksOut>
						<alphatype>none</alphatype>
						<pixelaspectratio>square</pixelaspectratio>
						<anamorphic>FALSE</anamorphic>
						<file id="file-1025">
							<name>TKO_016_JAK_Sh10740.mov</name>
							<pathurl>file://tri-stor01/Projects/TKO/SHOTS/_Refs_Movs_Burnin_FrameCounter/TKO_016_JAK_Sh10740.mov</pathurl>
							<rate>
								<timebase>24</timebase>
								<ntsc>TRUE</ntsc>
							</rate>
							<duration>88</duration>
							<timecode>
								<rate>
									<timebase>24</timebase>
									<ntsc>TRUE</ntsc>
								</rate>
								<string>17:51:40:03</string>
								<frame>1543203</frame>
								<displayformat>NDF</displayformat>
								<reel>
									<name>A0390002</name>
								</reel>
							</timecode>
							<media>
								<video>
									<samplecharacteristics>
										<rate>
											<timebase>24</timebase>
											<ntsc>TRUE</ntsc>
										</rate>
										<width>4096</width>
										<height>2160</height>
										<anamorphic>FALSE</anamorphic>
										<pixelaspectratio>square</pixelaspectratio>
										<fielddominance>none</fielddominance>
									</samplecharacteristics>
								</video>
							</media>
						</file>
						<logginginfo>
							<description></description>
							<scene></scene>
							<shottake></shottake>
							<lognote></lognote>
							<good></good>
							<originalvideofilename></originalvideofilename>
							<originalaudiofilename></originalaudiofilename>
						</logginginfo>
						<colorinfo>
							<lut></lut>
							<lut1></lut1>
							<asc_sop></asc_sop>
							<asc_sat></asc_sat>
							<lut2></lut2>
						</colorinfo>
						<labels>
							<label2>Violet</label2>
						</labels>
					</clipitem>
					<clipitem id="clipitem-1029">
						<masterclipid>masterclip-1026</masterclipid>
						<name>TKO_016_JAK_Sh10750.mov</name>
						<enabled>TRUE</enabled>
						<duration>54</duration>
						<rate>
							<timebase>24</timebase>
							<ntsc>TRUE</ntsc>
						</rate>
						<start>77148</start>
						<end>77194</end>
						<in>4</in>
						<out>50</out>
						<pproTicksIn>42378336000</pproTicksIn>
						<pproTicksOut>529729200000</pproTicksOut>
						<alphatype>none</alphatype>
						<pixelaspectratio>square</pixelaspectratio>
						<anamorphic>FALSE</anamorphic>
						<file id="file-1026">
							<name>TKO_016_JAK_Sh10750.mov</name>
							<pathurl>file://tri-stor01/Projects/TKO/SHOTS/_Refs_Movs_Burnin_FrameCounter/TKO_016_JAK_Sh10750.mov</pathurl>
							<rate>
								<timebase>24</timebase>
								<ntsc>TRUE</ntsc>
							</rate>
							<duration>54</duration>
							<timecode>
								<rate>
									<timebase>24</timebase>
									<ntsc>TRUE</ntsc>
								</rate>
								<string>17:51:43:11</string>
								<frame>1543283</frame>
								<displayformat>NDF</displayformat>
								<reel>
									<name>B0330002</name>
								</reel>
							</timecode>
							<media>
								<video>
									<samplecharacteristics>
										<rate>
											<timebase>24</timebase>
											<ntsc>TRUE</ntsc>
										</rate>
										<width>4096</width>
										<height>2160</height>
										<anamorphic>FALSE</anamorphic>
										<pixelaspectratio>square</pixelaspectratio>
										<fielddominance>none</fielddominance>
									</samplecharacteristics>
								</video>
							</media>
						</file>
						<logginginfo>
							<description></description>
							<scene></scene>
							<shottake></shottake>
							<lognote></lognote>
							<good></good>
							<originalvideofilename></originalvideofilename>
							<originalaudiofilename></originalaudiofilename>
						</logginginfo>
						<colorinfo>
							<lut></lut>
							<lut1></lut1>
							<asc_sop></asc_sop>
							<asc_sat></asc_sat>
							<lut2></lut2>
						</colorinfo>
						<labels>
							<label2>Violet</label2>
						</labels>
					</clipitem>
					<clipitem id="clipitem-1030">
						<masterclipid>masterclip-1027</masterclipid>
						<name>TKO_016_JAK_Sh10760_V02.mov</name>
						<enabled>TRUE</enabled>
						<duration>79</duration>
						<rate>
							<timebase>24</timebase>
							<ntsc>TRUE</ntsc>
						</rate>
						<start>77194</start>
						<end>77253</end>
						<in>4</in>
						<out>63</out>
						<pproTicksIn>42378336000</pproTicksIn>
						<pproTicksOut>667458792000</pproTicksOut>
						<alphatype>none</alphatype>
						<pixelaspectratio>square</pixelaspectratio>
						<anamorphic>FALSE</anamorphic>
						<file id="file-1027">
							<name>TKO_016_JAK_Sh10760_V02.mov</name>
							<pathurl>file://tri-stor01/Projects/TKO/SHOTS/_Refs_Movs_Burnin_FrameCounter/TKO_016_JAK_Sh10760_V02.mov</pathurl>
							<rate>
								<timebase>24</timebase>
								<ntsc>TRUE</ntsc>
							</rate>
							<duration>79</duration>
							<timecode>
								<rate>
									<timebase>24</timebase>
									<ntsc>TRUE</ntsc>
								</rate>
								<string>16:06:23:10</string>
								<frame>1391602</frame>
								<displayformat>NDF</displayformat>
								<reel>
									<name>A0380015</name>
								</reel>
							</timecode>
							<media>
								<video>
									<samplecharacteristics>
										<rate>
											<timebase>24</timebase>
											<ntsc>TRUE</ntsc>
										</rate>
										<width>4096</width>
										<height>2160</height>
										<anamorphic>FALSE</anamorphic>
										<pixelaspectratio>square</pixelaspectratio>
										<fielddominance>none</fielddominance>
									</samplecharacteristics>
								</video>
							</media>
						</file>
						<logginginfo>
							<description></description>
							<scene></scene>
							<shottake></shottake>
							<lognote></lognote>
							<good></good>
							<originalvideofilename></originalvideofilename>
							<originalaudiofilename></originalaudiofilename>
						</logginginfo>
						<colorinfo>
							<lut></lut>
							<lut1></lut1>
							<asc_sop></asc_sop>
							<asc_sat></asc_sat>
							<lut2></lut2>
						</colorinfo>
						<labels>
							<label2>Violet</label2>
						</labels>
					</clipitem>
					<clipitem id="clipitem-1031">
						<masterclipid>masterclip-1028</masterclipid>
						<name>TKO_016_JAK_Sh10770.mov</name>
						<enabled>TRUE</enabled>
						<duration>60</duration>
						<rate>
							<timebase>24</timebase>
							<ntsc>TRUE</ntsc>
						</rate>
						<start>77253</start>
						<end>77305</end>
						<in>4</in>
						<out>56</out>
						<pproTicksIn>42378336000</pproTicksIn>
						<pproTicksOut>593296704000</pproTicksOut>
						<alphatype>none</alphatype>
						<pixelaspectratio>square</pixelaspectratio>
						<anamorphic>FALSE</anamorphic>
						<file id="file-1028">
							<name>TKO_016_JAK_Sh10770.mov</name>
							<pathurl>file://tri-stor01/Projects/TKO/SHOTS/_Refs_Movs_Burnin_FrameCounter/TKO_016_JAK_Sh10770.mov</pathurl>
							<rate>
								<timebase>24</timebase>
								<ntsc>TRUE</ntsc>
							</rate>
							<duration>60</duration>
							<timecode>
								<rate>
									<timebase>24</timebase>
									<ntsc>TRUE</ntsc>
								</rate>
								<string>11:56:08:10</string>
								<frame>1031242</frame>
								<displayformat>NDF</displayformat>
								<reel>
									<name>C0270004</name>
								</reel>
							</timecode>
							<media>
								<video>
									<samplecharacteristics>
										<rate>
											<timebase>24</timebase>
											<ntsc>TRUE</ntsc>
										</rate>
										<width>3840</width>
										<height>2160</height>
										<anamorphic>FALSE</anamorphic>
										<pixelaspectratio>square</pixelaspectratio>
										<fielddominance>none</fielddominance>
									</samplecharacteristics>
								</video>
							</media>
						</file>
						<logginginfo>
							<description></description>
							<scene></scene>
							<shottake></shottake>
							<lognote></lognote>
							<good></good>
							<originalvideofilename></originalvideofilename>
							<originalaudiofilename></originalaudiofilename>
						</logginginfo>
						<colorinfo>
							<lut></lut>
							<lut1></lut1>
							<asc_sop></asc_sop>
							<asc_sat></asc_sat>
							<lut2></lut2>
						</colorinfo>
						<labels>
							<label2>Violet</label2>
						</labels>
					</clipitem>
					<clipitem id="clipitem-1032">
						<masterclipid>masterclip-1029</masterclipid>
						<name>TKO_016_JAK_Sh10780.mov</name>
						<enabled>TRUE</enabled>
						<duration>44</duration>
						<rate>
							<timebase>24</timebase>
							<ntsc>TRUE</ntsc>
						</rate>
						<start>77305</start>
						<end>77341</end>
						<in>4</in>
						<out>40</out>
						<pproTicksIn>42378336000</pproTicksIn>
						<pproTicksOut>423783360000</pproTicksOut>
						<alphatype>none</alphatype>
						<pixelaspectratio>square</pixelaspectratio>
						<anamorphic>FALSE</anamorphic>
						<file id="file-1029">
							<name>TKO_016_JAK_Sh10780.mov</name>
							<pathurl>file://tri-stor01/Projects/TKO/SHOTS/_Refs_Movs_Burnin_FrameCounter/TKO_016_JAK_Sh10780.mov</pathurl>
							<rate>
								<timebase>24</timebase>
								<ntsc>TRUE</ntsc>
							</rate>
							<duration>44</duration>
							<timecode>
								<rate>
									<timebase>24</timebase>
									<ntsc>TRUE</ntsc>
								</rate>
								<string>15:11:42:05</string>
								<frame>1312853</frame>
								<displayformat>NDF</displayformat>
								<reel>
									<name>B0320011</name>
								</reel>
							</timecode>
							<media>
								<video>
									<samplecharacteristics>
										<rate>
											<timebase>24</timebase>
											<ntsc>TRUE</ntsc>
										</rate>
										<width>4096</width>
										<height>2160</height>
										<anamorphic>FALSE</anamorphic>
										<pixelaspectratio>square</pixelaspectratio>
										<fielddominance>none</fielddominance>
									</samplecharacteristics>
								</video>
							</media>
						</file>
						<logginginfo>
							<description></description>
							<scene></scene>
							<shottake></shottake>
							<lognote></lognote>
							<good></good>
							<originalvideofilename></originalvideofilename>
							<originalaudiofilename></originalaudiofilename>
						</logginginfo>
						<colorinfo>
							<lut></lut>
							<lut1></lut1>
							<asc_sop></asc_sop>
							<asc_sat></asc_sat>
							<lut2></lut2>
						</colorinfo>
						<labels>
							<label2>Violet</label2>
						</labels>
					</clipitem>
					<clipitem id="clipitem-1033">
						<masterclipid>masterclip-1030</masterclipid>
						<name>TKO_016_JAK_Sh10790.mov</name>
						<enabled>TRUE</enabled>
						<duration>59</duration>
						<rate>
							<timebase>24</timebase>
							<ntsc>TRUE</ntsc>
						</rate>
						<start>77341</start>
						<end>77392</end>
						<in>4</in>
						<out>55</out>
						<pproTicksIn>42378336000</pproTicksIn>
						<pproTicksOut>582702120000</pproTicksOut>
						<alphatype>none</alphatype>
						<pixelaspectratio>square</pixelaspectratio>
						<anamorphic>FALSE</anamorphic>
						<file id="file-1030">
							<name>TKO_016_JAK_Sh10790.mov</name>
							<pathurl>file://tri-stor01/Projects/TKO/SHOTS/_Refs_Movs_Burnin_FrameCounter/TKO_016_JAK_Sh10790.mov</pathurl>
							<rate>
								<timebase>24</timebase>
								<ntsc>TRUE</ntsc>
							</rate>
							<duration>59</duration>
							<timecode>
								<rate>
									<timebase>24</timebase>
									<ntsc>TRUE</ntsc>
								</rate>
								<string>15:53:26:19</string>
								<frame>1372963</frame>
								<displayformat>NDF</displayformat>
								<reel>
									<name>B0320014</name>
								</reel>
							</timecode>
							<media>
								<video>
									<samplecharacteristics>
										<rate>
											<timebase>24</timebase>
											<ntsc>TRUE</ntsc>
										</rate>
										<width>4096</width>
										<height>2160</height>
										<anamorphic>FALSE</anamorphic>
										<pixelaspectratio>square</pixelaspectratio>
										<fielddominance>none</fielddominance>
									</samplecharacteristics>
								</video>
							</media>
						</file>
						<logginginfo>
							<description></description>
							<scene></scene>
							<shottake></shottake>
							<lognote></lognote>
							<good></good>
							<originalvideofilename></originalvideofilename>
							<originalaudiofilename></originalaudiofilename>
						</logginginfo>
						<colorinfo>
							<lut></lut>
							<lut1></lut1>
							<asc_sop></asc_sop>
							<asc_sat></asc_sat>
							<lut2></lut2>
						</colorinfo>
						<labels>
							<label2>Violet</label2>
						</labels>
					</clipitem>
					<clipitem id="clipitem-1034">
						<masterclipid>masterclip-1031</masterclipid>
						<name>TKO_016_JAK_Sh10800.mov</name>
						<enabled>TRUE</enabled>
						<duration>65</duration>
						<rate>
							<timebase>24</timebase>
							<ntsc>TRUE</ntsc>
						</rate>
						<start>77392</start>
						<end>77449</end>
						<in>4</in>
						<out>61</out>
						<pproTicksIn>42378336000</pproTicksIn>
						<pproTicksOut>646269624000</pproTicksOut>
						<alphatype>none</alphatype>
						<pixelaspectratio>square</pixelaspectratio>
						<anamorphic>FALSE</anamorphic>
						<file id="file-1031">
							<name>TKO_016_JAK_Sh10800.mov</name>
							<pathurl>file://tri-stor01/Projects/TKO/SHOTS/_Refs_Movs_Burnin_FrameCounter/TKO_016_JAK_Sh10800.mov</pathurl>
							<rate>
								<timebase>24</timebase>
								<ntsc>TRUE</ntsc>
							</rate>
							<duration>65</duration>
							<timecode>
								<rate>
									<timebase>24</timebase>
									<ntsc>TRUE</ntsc>
								</rate>
								<string>11:08:43:11</string>
								<frame>962963</frame>
								<displayformat>NDF</displayformat>
								<reel>
									<name>C0270001</name>
								</reel>
							</timecode>
							<media>
								<video>
									<samplecharacteristics>
										<rate>
											<timebase>24</timebase>
											<ntsc>TRUE</ntsc>
										</rate>
										<width>3840</width>
										<height>2160</height>
										<anamorphic>FALSE</anamorphic>
										<pixelaspectratio>square</pixelaspectratio>
										<fielddominance>none</fielddominance>
									</samplecharacteristics>
								</video>
							</media>
						</file>
						<logginginfo>
							<description></description>
							<scene></scene>
							<shottake></shottake>
							<lognote></lognote>
							<good></good>
							<originalvideofilename></originalvideofilename>
							<originalaudiofilename></originalaudiofilename>
						</logginginfo>
						<colorinfo>
							<lut></lut>
							<lut1></lut1>
							<asc_sop></asc_sop>
							<asc_sat></asc_sat>
							<lut2></lut2>
						</colorinfo>
						<labels>
							<label2>Violet</label2>
						</labels>
					</clipitem>
					<clipitem id="clipitem-1035">
						<masterclipid>masterclip-1032</masterclipid>
						<name>TKO_016_JAK_Sh10810.mov</name>
						<enabled>TRUE</enabled>
						<duration>40</duration>
						<rate>
							<timebase>24</timebase>
							<ntsc>TRUE</ntsc>
						</rate>
						<start>77449</start>
						<end>77481</end>
						<in>4</in>
						<out>36</out>
						<pproTicksIn>42378336000</pproTicksIn>
						<pproTicksOut>381405024000</pproTicksOut>
						<alphatype>none</alphatype>
						<pixelaspectratio>square</pixelaspectratio>
						<anamorphic>FALSE</anamorphic>
						<file id="file-1032">
							<name>TKO_016_JAK_Sh10810.mov</name>
							<pathurl>file://tri-stor01/Projects/TKO/SHOTS/_Refs_Movs_Burnin_FrameCounter/TKO_016_JAK_Sh10810.mov</pathurl>
							<rate>
								<timebase>24</timebase>
								<ntsc>TRUE</ntsc>
							</rate>
							<duration>40</duration>
							<timecode>
								<rate>
									<timebase>24</timebase>
									<ntsc>TRUE</ntsc>
								</rate>
								<string>18:13:35:08</string>
								<frame>1574768</frame>
								<displayformat>NDF</displayformat>
								<reel>
									<name>A0390003</name>
								</reel>
							</timecode>
							<media>
								<video>
									<samplecharacteristics>
										<rate>
											<timebase>24</timebase>
											<ntsc>TRUE</ntsc>
										</rate>
										<width>4096</width>
										<height>2160</height>
										<anamorphic>FALSE</anamorphic>
										<pixelaspectratio>square</pixelaspectratio>
										<fielddominance>none</fielddominance>
									</samplecharacteristics>
								</video>
							</media>
						</file>
						<logginginfo>
							<description></description>
							<scene></scene>
							<shottake></shottake>
							<lognote></lognote>
							<good></good>
							<originalvideofilename></originalvideofilename>
							<originalaudiofilename></originalaudiofilename>
						</logginginfo>
						<colorinfo>
							<lut></lut>
							<lut1></lut1>
							<asc_sop></asc_sop>
							<asc_sat></asc_sat>
							<lut2></lut2>
						</colorinfo>
						<labels>
							<label2>Violet</label2>
						</labels>
					</clipitem>
					<clipitem id="clipitem-1036">
						<masterclipid>masterclip-1033</masterclipid>
						<name>TKO_016_JAK_Sh10820_V02.mov</name>
						<enabled>TRUE</enabled>
						<duration>125</duration>
						<rate>
							<timebase>24</timebase>
							<ntsc>TRUE</ntsc>
						</rate>
						<start>77481</start>
						<end>77586</end>
						<in>4</in>
						<out>109</out>
						<pproTicksIn>42378336000</pproTicksIn>
						<pproTicksOut>1154809656000</pproTicksOut>
						<alphatype>none</alphatype>
						<pixelaspectratio>square</pixelaspectratio>
						<anamorphic>FALSE</anamorphic>
						<file id="file-1033">
							<name>TKO_016_JAK_Sh10820_V02.mov</name>
							<pathurl>file://tri-stor01/Projects/TKO/SHOTS/_Refs_Movs_Burnin_FrameCounter/TKO_016_JAK_Sh10820_V02.mov</pathurl>
							<rate>
								<timebase>24</timebase>
								<ntsc>TRUE</ntsc>
							</rate>
							<duration>125</duration>
							<timecode>
								<rate>
									<timebase>24</timebase>
									<ntsc>TRUE</ntsc>
								</rate>
								<string>15:11:44:17</string>
								<frame>1312913</frame>
								<displayformat>NDF</displayformat>
								<reel>
									<name>A0380010</name>
								</reel>
							</timecode>
							<media>
								<video>
									<samplecharacteristics>
										<rate>
											<timebase>24</timebase>
											<ntsc>TRUE</ntsc>
										</rate>
										<width>4096</width>
										<height>2160</height>
										<anamorphic>FALSE</anamorphic>
										<pixelaspectratio>square</pixelaspectratio>
										<fielddominance>none</fielddominance>
									</samplecharacteristics>
								</video>
							</media>
						</file>
						<logginginfo>
							<description></description>
							<scene></scene>
							<shottake></shottake>
							<lognote></lognote>
							<good></good>
							<originalvideofilename></originalvideofilename>
							<originalaudiofilename></originalaudiofilename>
						</logginginfo>
						<colorinfo>
							<lut></lut>
							<lut1></lut1>
							<asc_sop></asc_sop>
							<asc_sat></asc_sat>
							<lut2></lut2>
						</colorinfo>
						<labels>
							<label2>Violet</label2>
						</labels>
					</clipitem>
					<clipitem id="clipitem-1037">
						<masterclipid>masterclip-1034</masterclipid>
						<name>TKO_016_JAK_Sh10830.mov</name>
						<enabled>TRUE</enabled>
						<duration>52</duration>
						<rate>
							<timebase>24</timebase>
							<ntsc>TRUE</ntsc>
						</rate>
						<start>77586</start>
						<end>77630</end>
						<in>4</in>
						<out>48</out>
						<pproTicksIn>42378336000</pproTicksIn>
						<pproTicksOut>508540032000</pproTicksOut>
						<alphatype>none</alphatype>
						<pixelaspectratio>square</pixelaspectratio>
						<anamorphic>FALSE</anamorphic>
						<file id="file-1034">
							<name>TKO_016_JAK_Sh10830.mov</name>
							<pathurl>file://tri-stor01/Projects/TKO/SHOTS/_Refs_Movs_Burnin_FrameCounter/TKO_016_JAK_Sh10830.mov</pathurl>
							<rate>
								<timebase>24</timebase>
								<ntsc>TRUE</ntsc>
							</rate>
							<duration>52</duration>
							<timecode>
								<rate>
									<timebase>24</timebase>
									<ntsc>TRUE</ntsc>
								</rate>
								<string>15:11:50:00</string>
								<frame>1313040</frame>
								<displayformat>NDF</displayformat>
								<reel>
									<name>B0320011</name>
								</reel>
							</timecode>
							<media>
								<video>
									<samplecharacteristics>
										<rate>
											<timebase>24</timebase>
											<ntsc>TRUE</ntsc>
										</rate>
										<width>4096</width>
										<height>2160</height>
										<anamorphic>FALSE</anamorphic>
										<pixelaspectratio>square</pixelaspectratio>
										<fielddominance>none</fielddominance>
									</samplecharacteristics>
								</video>
							</media>
						</file>
						<logginginfo>
							<description></description>
							<scene></scene>
							<shottake></shottake>
							<lognote></lognote>
							<good></good>
							<originalvideofilename></originalvideofilename>
							<originalaudiofilename></originalaudiofilename>
						</logginginfo>
						<colorinfo>
							<lut></lut>
							<lut1></lut1>
							<asc_sop></asc_sop>
							<asc_sat></asc_sat>
							<lut2></lut2>
						</colorinfo>
						<labels>
							<label2>Violet</label2>
						</labels>
					</clipitem>
					<clipitem id="clipitem-1038">
						<masterclipid>masterclip-1035</masterclipid>
						<name>TKO_016_JAK_Sh10840.mov</name>
						<enabled>TRUE</enabled>
						<duration>42</duration>
						<rate>
							<timebase>24</timebase>
							<ntsc>TRUE</ntsc>
						</rate>
						<start>77630</start>
						<end>77664</end>
						<in>4</in>
						<out>38</out>
						<pproTicksIn>42378336000</pproTicksIn>
						<pproTicksOut>402594192000</pproTicksOut>
						<alphatype>none</alphatype>
						<pixelaspectratio>square</pixelaspectratio>
						<anamorphic>FALSE</anamorphic>
						<file id="file-1035">
							<name>TKO_016_JAK_Sh10840.mov</name>
							<pathurl>file://tri-stor01/Projects/TKO/SHOTS/_Refs_Movs_Burnin_FrameCounter/TKO_016_JAK_Sh10840.mov</pathurl>
							<rate>
								<timebase>24</timebase>
								<ntsc>TRUE</ntsc>
							</rate>
							<duration>42</duration>
							<timecode>
								<rate>
									<timebase>24</timebase>
									<ntsc>TRUE</ntsc>
								</rate>
								<string>11:56:19:13</string>
								<frame>1031509</frame>
								<displayformat>NDF</displayformat>
								<reel>
									<name>C0270004</name>
								</reel>
							</timecode>
							<media>
								<video>
									<samplecharacteristics>
										<rate>
											<timebase>24</timebase>
											<ntsc>TRUE</ntsc>
										</rate>
										<width>3840</width>
										<height>2160</height>
										<anamorphic>FALSE</anamorphic>
										<pixelaspectratio>square</pixelaspectratio>
										<fielddominance>none</fielddominance>
									</samplecharacteristics>
								</video>
							</media>
						</file>
						<logginginfo>
							<description></description>
							<scene></scene>
							<shottake></shottake>
							<lognote></lognote>
							<good></good>
							<originalvideofilename></originalvideofilename>
							<originalaudiofilename></originalaudiofilename>
						</logginginfo>
						<colorinfo>
							<lut></lut>
							<lut1></lut1>
							<asc_sop></asc_sop>
							<asc_sat></asc_sat>
							<lut2></lut2>
						</colorinfo>
						<labels>
							<label2>Violet</label2>
						</labels>
					</clipitem>
					<clipitem id="clipitem-1039">
						<masterclipid>masterclip-1036</masterclipid>
						<name>TKO_016_JAK_Sh10850.mov</name>
						<enabled>TRUE</enabled>
						<duration>52</duration>
						<rate>
							<timebase>24</timebase>
							<ntsc>TRUE</ntsc>
						</rate>
						<start>77664</start>
						<end>77708</end>
						<in>4</in>
						<out>48</out>
						<pproTicksIn>42378336000</pproTicksIn>
						<pproTicksOut>508540032000</pproTicksOut>
						<alphatype>none</alphatype>
						<pixelaspectratio>square</pixelaspectratio>
						<anamorphic>FALSE</anamorphic>
						<file id="file-1036">
							<name>TKO_016_JAK_Sh10850.mov</name>
							<pathurl>file://tri-stor01/Projects/TKO/SHOTS/_Refs_Movs_Burnin_FrameCounter/TKO_016_JAK_Sh10850.mov</pathurl>
							<rate>
								<timebase>24</timebase>
								<ntsc>TRUE</ntsc>
							</rate>
							<duration>52</duration>
							<timecode>
								<rate>
									<timebase>24</timebase>
									<ntsc>TRUE</ntsc>
								</rate>
								<string>15:11:52:13</string>
								<frame>1313101</frame>
								<displayformat>NDF</displayformat>
								<reel>
									<name>B0320011</name>
								</reel>
							</timecode>
							<media>
								<video>
									<samplecharacteristics>
										<rate>
											<timebase>24</timebase>
											<ntsc>TRUE</ntsc>
										</rate>
										<width>4096</width>
										<height>2160</height>
										<anamorphic>FALSE</anamorphic>
										<pixelaspectratio>square</pixelaspectratio>
										<fielddominance>none</fielddominance>
									</samplecharacteristics>
								</video>
							</media>
						</file>
						<logginginfo>
							<description></description>
							<scene></scene>
							<shottake></shottake>
							<lognote></lognote>
							<good></good>
							<originalvideofilename></originalvideofilename>
							<originalaudiofilename></originalaudiofilename>
						</logginginfo>
						<colorinfo>
							<lut></lut>
							<lut1></lut1>
							<asc_sop></asc_sop>
							<asc_sat></asc_sat>
							<lut2></lut2>
						</colorinfo>
						<labels>
							<label2>Violet</label2>
						</labels>
					</clipitem>
					<clipitem id="clipitem-1040">
						<masterclipid>masterclip-1037</masterclipid>
						<name>TKO_016_JAK_Sh10860_V02.mov</name>
						<enabled>TRUE</enabled>
						<duration>83</duration>
						<rate>
							<timebase>24</timebase>
							<ntsc>TRUE</ntsc>
						</rate>
						<start>77708</start>
						<end>77771</end>
						<in>4</in>
						<out>67</out>
						<pproTicksIn>42378336000</pproTicksIn>
						<pproTicksOut>709837128000</pproTicksOut>
						<alphatype>none</alphatype>
						<pixelaspectratio>square</pixelaspectratio>
						<anamorphic>FALSE</anamorphic>
						<file id="file-1037">
							<name>TKO_016_JAK_Sh10860_V02.mov</name>
							<pathurl>file://tri-stor01/Projects/TKO/SHOTS/_Refs_Movs_Burnin_FrameCounter/TKO_016_JAK_Sh10860_V02.mov</pathurl>
							<rate>
								<timebase>24</timebase>
								<ntsc>TRUE</ntsc>
							</rate>
							<duration>83</duration>
							<timecode>
								<rate>
									<timebase>24</timebase>
									<ntsc>TRUE</ntsc>
								</rate>
								<string>16:06:40:11</string>
								<frame>1392011</frame>
								<displayformat>NDF</displayformat>
								<reel>
									<name>A0380015</name>
								</reel>
							</timecode>
							<media>
								<video>
									<samplecharacteristics>
										<rate>
											<timebase>24</timebase>
											<ntsc>TRUE</ntsc>
										</rate>
										<width>4096</width>
										<height>2160</height>
										<anamorphic>FALSE</anamorphic>
										<pixelaspectratio>square</pixelaspectratio>
										<fielddominance>none</fielddominance>
									</samplecharacteristics>
								</video>
							</media>
						</file>
						<logginginfo>
							<description></description>
							<scene></scene>
							<shottake></shottake>
							<lognote></lognote>
							<good></good>
							<originalvideofilename></originalvideofilename>
							<originalaudiofilename></originalaudiofilename>
						</logginginfo>
						<colorinfo>
							<lut></lut>
							<lut1></lut1>
							<asc_sop></asc_sop>
							<asc_sat></asc_sat>
							<lut2></lut2>
						</colorinfo>
						<labels>
							<label2>Violet</label2>
						</labels>
					</clipitem>
					<clipitem id="clipitem-1041">
						<masterclipid>masterclip-1038</masterclipid>
						<name>TKO_016_JAK_Sh10870.mov</name>
						<enabled>TRUE</enabled>
						<duration>112</duration>
						<rate>
							<timebase>24</timebase>
							<ntsc>TRUE</ntsc>
						</rate>
						<start>77771</start>
						<end>77875</end>
						<in>4</in>
						<out>108</out>
						<pproTicksIn>42378336000</pproTicksIn>
						<pproTicksOut>1144215072000</pproTicksOut>
						<alphatype>none</alphatype>
						<pixelaspectratio>square</pixelaspectratio>
						<anamorphic>FALSE</anamorphic>
						<file id="file-1038">
							<name>TKO_016_JAK_Sh10870.mov</name>
							<pathurl>file://tri-stor01/Projects/TKO/SHOTS/_Refs_Movs_Burnin_FrameCounter/TKO_016_JAK_Sh10870.mov</pathurl>
							<rate>
								<timebase>24</timebase>
								<ntsc>TRUE</ntsc>
							</rate>
							<duration>112</duration>
							<timecode>
								<rate>
									<timebase>24</timebase>
									<ntsc>TRUE</ntsc>
								</rate>
								<string>15:22:02:16</string>
								<frame>1327744</frame>
								<displayformat>NDF</displayformat>
								<reel>
									<name>B0320013</name>
								</reel>
							</timecode>
							<media>
								<video>
									<samplecharacteristics>
										<rate>
											<timebase>24</timebase>
											<ntsc>TRUE</ntsc>
										</rate>
										<width>4096</width>
										<height>2160</height>
										<anamorphic>FALSE</anamorphic>
										<pixelaspectratio>square</pixelaspectratio>
										<fielddominance>none</fielddominance>
									</samplecharacteristics>
								</video>
							</media>
						</file>
						<logginginfo>
							<description></description>
							<scene></scene>
							<shottake></shottake>
							<lognote></lognote>
							<good></good>
							<originalvideofilename></originalvideofilename>
							<originalaudiofilename></originalaudiofilename>
						</logginginfo>
						<colorinfo>
							<lut></lut>
							<lut1></lut1>
							<asc_sop></asc_sop>
							<asc_sat></asc_sat>
							<lut2></lut2>
						</colorinfo>
						<labels>
							<label2>Violet</label2>
						</labels>
					</clipitem>
					<clipitem id="clipitem-1042">
						<masterclipid>masterclip-1039</masterclipid>
						<name>TKO_016_JAK_Sh10880.mov</name>
						<enabled>TRUE</enabled>
						<duration>56</duration>
						<rate>
							<timebase>24</timebase>
							<ntsc>TRUE</ntsc>
						</rate>
						<start>77875</start>
						<end>77923</end>
						<in>4</in>
						<out>52</out>
						<pproTicksIn>42378336000</pproTicksIn>
						<pproTicksOut>550918368000</pproTicksOut>
						<alphatype>none</alphatype>
						<pixelaspectratio>square</pixelaspectratio>
						<anamorphic>FALSE</anamorphic>
						<file id="file-1039">
							<name>TKO_016_JAK_Sh10880.mov</name>
							<pathurl>file://tri-stor01/Projects/TKO/SHOTS/_Refs_Movs_Burnin_FrameCounter/TKO_016_JAK_Sh10880.mov</pathurl>
							<rate>
								<timebase>24</timebase>
								<ntsc>TRUE</ntsc>
							</rate>
							<duration>56</duration>
							<timecode>
								<rate>
									<timebase>24</timebase>
									<ntsc>TRUE</ntsc>
								</rate>
								<string>17:15:29:16</string>
								<frame>1491112</frame>
								<displayformat>NDF</displayformat>
								<reel>
									<name>A0390001</name>
								</reel>
							</timecode>
							<media>
								<video>
									<samplecharacteristics>
										<rate>
											<timebase>24</timebase>
											<ntsc>TRUE</ntsc>
										</rate>
										<width>4096</width>
										<height>2160</height>
										<anamorphic>FALSE</anamorphic>
										<pixelaspectratio>square</pixelaspectratio>
										<fielddominance>none</fielddominance>
									</samplecharacteristics>
								</video>
							</media>
						</file>
						<logginginfo>
							<description></description>
							<scene></scene>
							<shottake></shottake>
							<lognote></lognote>
							<good></good>
							<originalvideofilename></originalvideofilename>
							<originalaudiofilename></originalaudiofilename>
						</logginginfo>
						<colorinfo>
							<lut></lut>
							<lut1></lut1>
							<asc_sop></asc_sop>
							<asc_sat></asc_sat>
							<lut2></lut2>
						</colorinfo>
						<labels>
							<label2>Violet</label2>
						</labels>
					</clipitem>
					<clipitem id="clipitem-1043">
						<masterclipid>masterclip-1040</masterclipid>
						<name>TKO_016_JAK_Sh10890.mov</name>
						<enabled>TRUE</enabled>
						<duration>43</duration>
						<rate>
							<timebase>24</timebase>
							<ntsc>TRUE</ntsc>
						</rate>
						<start>77923</start>
						<end>77958</end>
						<in>4</in>
						<out>39</out>
						<pproTicksIn>42378336000</pproTicksIn>
						<pproTicksOut>413188776000</pproTicksOut>
						<alphatype>none</alphatype>
						<pixelaspectratio>square</pixelaspectratio>
						<anamorphic>FALSE</anamorphic>
						<file id="file-1040">
							<name>TKO_016_JAK_Sh10890.mov</name>
							<pathurl>file://tri-stor01/Projects/TKO/SHOTS/_Refs_Movs_Burnin_FrameCounter/TKO_016_JAK_Sh10890.mov</pathurl>
							<rate>
								<timebase>24</timebase>
								<ntsc>TRUE</ntsc>
							</rate>
							<duration>43</duration>
							<timecode>
								<rate>
									<timebase>24</timebase>
									<ntsc>TRUE</ntsc>
								</rate>
								<string>18:20:34:03</string>
								<frame>1584819</frame>
								<displayformat>NDF</displayformat>
								<reel>
									<name>A0390004</name>
								</reel>
							</timecode>
							<media>
								<video>
									<samplecharacteristics>
										<rate>
											<timebase>24</timebase>
											<ntsc>TRUE</ntsc>
										</rate>
										<width>4096</width>
										<height>2160</height>
										<anamorphic>FALSE</anamorphic>
										<pixelaspectratio>square</pixelaspectratio>
										<fielddominance>none</fielddominance>
									</samplecharacteristics>
								</video>
							</media>
						</file>
						<logginginfo>
							<description></description>
							<scene></scene>
							<shottake></shottake>
							<lognote></lognote>
							<good></good>
							<originalvideofilename></originalvideofilename>
							<originalaudiofilename></originalaudiofilename>
						</logginginfo>
						<colorinfo>
							<lut></lut>
							<lut1></lut1>
							<asc_sop></asc_sop>
							<asc_sat></asc_sat>
							<lut2></lut2>
						</colorinfo>
						<labels>
							<label2>Violet</label2>
						</labels>
					</clipitem>
					<clipitem id="clipitem-1044">
						<masterclipid>masterclip-1041</masterclipid>
						<name>TKO_016_JAK_Sh10900.mov</name>
						<enabled>TRUE</enabled>
						<duration>53</duration>
						<rate>
							<timebase>24</timebase>
							<ntsc>TRUE</ntsc>
						</rate>
						<start>77958</start>
						<end>77998</end>
						<in>4</in>
						<out>44</out>
						<pproTicksIn>42378336000</pproTicksIn>
						<pproTicksOut>466161696000</pproTicksOut>
						<alphatype>none</alphatype>
						<pixelaspectratio>square</pixelaspectratio>
						<anamorphic>FALSE</anamorphic>
						<file id="file-1041">
							<name>TKO_016_JAK_Sh10900.mov</name>
							<pathurl>file://tri-stor01/Projects/TKO/SHOTS/_Refs_Movs_Burnin_FrameCounter/TKO_016_JAK_Sh10900.mov</pathurl>
							<rate>
								<timebase>24</timebase>
								<ntsc>TRUE</ntsc>
							</rate>
							<duration>53</duration>
							<timecode>
								<rate>
									<timebase>24</timebase>
									<ntsc>TRUE</ntsc>
								</rate>
								<string>18:20:35:14</string>
								<frame>1584854</frame>
								<displayformat>NDF</displayformat>
								<reel>
									<name>B0330004</name>
								</reel>
							</timecode>
							<media>
								<video>
									<samplecharacteristics>
										<rate>
											<timebase>24</timebase>
											<ntsc>TRUE</ntsc>
										</rate>
										<width>4096</width>
										<height>2160</height>
										<anamorphic>FALSE</anamorphic>
										<pixelaspectratio>square</pixelaspectratio>
										<fielddominance>none</fielddominance>
									</samplecharacteristics>
								</video>
							</media>
						</file>
						<logginginfo>
							<description></description>
							<scene></scene>
							<shottake></shottake>
							<lognote></lognote>
							<good></good>
							<originalvideofilename></originalvideofilename>
							<originalaudiofilename></originalaudiofilename>
						</logginginfo>
						<colorinfo>
							<lut></lut>
							<lut1></lut1>
							<asc_sop></asc_sop>
							<asc_sat></asc_sat>
							<lut2></lut2>
						</colorinfo>
						<labels>
							<label2>Violet</label2>
						</labels>
					</clipitem>
					<clipitem id="clipitem-1045">
						<masterclipid>masterclip-1042</masterclipid>
						<name>TKO_016_JAK_Sh10910.mov</name>
						<enabled>TRUE</enabled>
						<duration>38</duration>
						<rate>
							<timebase>24</timebase>
							<ntsc>TRUE</ntsc>
						</rate>
						<start>77998</start>
						<end>78019</end>
						<in>13</in>
						<out>34</out>
						<pproTicksIn>137729592000</pproTicksIn>
						<pproTicksOut>360215856000</pproTicksOut>
						<alphatype>none</alphatype>
						<pixelaspectratio>square</pixelaspectratio>
						<anamorphic>FALSE</anamorphic>
						<file id="file-1042">
							<name>TKO_016_JAK_Sh10910.mov</name>
							<pathurl>file://tri-stor01/Projects/TKO/SHOTS/_Refs_Movs_Burnin_FrameCounter/TKO_016_JAK_Sh10910.mov</pathurl>
							<rate>
								<timebase>24</timebase>
								<ntsc>TRUE</ntsc>
							</rate>
							<duration>38</duration>
							<timecode>
								<rate>
									<timebase>24</timebase>
									<ntsc>TRUE</ntsc>
								</rate>
								<string>16:06:54:14</string>
								<frame>1392350</frame>
								<displayformat>NDF</displayformat>
								<reel>
									<name>B0320016</name>
								</reel>
							</timecode>
							<media>
								<video>
									<samplecharacteristics>
										<rate>
											<timebase>24</timebase>
											<ntsc>TRUE</ntsc>
										</rate>
										<width>4096</width>
										<height>2160</height>
										<anamorphic>FALSE</anamorphic>
										<pixelaspectratio>square</pixelaspectratio>
										<fielddominance>none</fielddominance>
									</samplecharacteristics>
								</video>
							</media>
						</file>
						<logginginfo>
							<description></description>
							<scene></scene>
							<shottake></shottake>
							<lognote></lognote>
							<good></good>
							<originalvideofilename></originalvideofilename>
							<originalaudiofilename></originalaudiofilename>
						</logginginfo>
						<colorinfo>
							<lut></lut>
							<lut1></lut1>
							<asc_sop></asc_sop>
							<asc_sat></asc_sat>
							<lut2></lut2>
						</colorinfo>
						<labels>
							<label2>Violet</label2>
						</labels>
					</clipitem>
					<clipitem id="clipitem-1046">
						<masterclipid>masterclip-1043</masterclipid>
						<name>TKO_016_JAK_Sh10920.mov</name>
						<enabled>TRUE</enabled>
						<duration>47</duration>
						<rate>
							<timebase>24</timebase>
							<ntsc>TRUE</ntsc>
						</rate>
						<start>78019</start>
						<end>78058</end>
						<in>4</in>
						<out>43</out>
						<pproTicksIn>42378336000</pproTicksIn>
						<pproTicksOut>455567112000</pproTicksOut>
						<alphatype>none</alphatype>
						<pixelaspectratio>square</pixelaspectratio>
						<anamorphic>FALSE</anamorphic>
						<file id="file-1043">
							<name>TKO_016_JAK_Sh10920.mov</name>
							<pathurl>file://tri-stor01/Projects/TKO/SHOTS/_Refs_Movs_Burnin_FrameCounter/TKO_016_JAK_Sh10920.mov</pathurl>
							<rate>
								<timebase>24</timebase>
								<ntsc>TRUE</ntsc>
							</rate>
							<duration>47</duration>
							<timecode>
								<rate>
									<timebase>24</timebase>
									<ntsc>TRUE</ntsc>
								</rate>
								<string>18:20:38:07</string>
								<frame>1584919</frame>
								<displayformat>NDF</displayformat>
								<reel>
									<name>A0390004</name>
								</reel>
							</timecode>
							<media>
								<video>
									<samplecharacteristics>
										<rate>
											<timebase>24</timebase>
											<ntsc>TRUE</ntsc>
										</rate>
										<width>4096</width>
										<height>2160</height>
										<anamorphic>FALSE</anamorphic>
										<pixelaspectratio>square</pixelaspectratio>
										<fielddominance>none</fielddominance>
									</samplecharacteristics>
								</video>
							</media>
						</file>
						<logginginfo>
							<description></description>
							<scene></scene>
							<shottake></shottake>
							<lognote></lognote>
							<good></good>
							<originalvideofilename></originalvideofilename>
							<originalaudiofilename></originalaudiofilename>
						</logginginfo>
						<colorinfo>
							<lut></lut>
							<lut1></lut1>
							<asc_sop></asc_sop>
							<asc_sat></asc_sat>
							<lut2></lut2>
						</colorinfo>
						<labels>
							<label2>Violet</label2>
						</labels>
					</clipitem>
					<clipitem id="clipitem-1047">
						<masterclipid>masterclip-1044</masterclipid>
						<name>TKO_016_JAK_Sh10930.mov</name>
						<enabled>TRUE</enabled>
						<duration>100</duration>
						<rate>
							<timebase>24</timebase>
							<ntsc>TRUE</ntsc>
						</rate>
						<start>78058</start>
						<end>78150</end>
						<in>4</in>
						<out>96</out>
						<pproTicksIn>42378336000</pproTicksIn>
						<pproTicksOut>1017080064000</pproTicksOut>
						<alphatype>none</alphatype>
						<pixelaspectratio>square</pixelaspectratio>
						<anamorphic>FALSE</anamorphic>
						<file id="file-1044">
							<name>TKO_016_JAK_Sh10930.mov</name>
							<pathurl>file://tri-stor01/Projects/TKO/SHOTS/_Refs_Movs_Burnin_FrameCounter/TKO_016_JAK_Sh10930.mov</pathurl>
							<rate>
								<timebase>24</timebase>
								<ntsc>TRUE</ntsc>
							</rate>
							<duration>100</duration>
							<timecode>
								<rate>
									<timebase>24</timebase>
									<ntsc>TRUE</ntsc>
								</rate>
								<string>16:06:57:06</string>
								<frame>1392414</frame>
								<displayformat>NDF</displayformat>
								<reel>
									<name>B0320016</name>
								</reel>
							</timecode>
							<media>
								<video>
									<samplecharacteristics>
										<rate>
											<timebase>24</timebase>
											<ntsc>TRUE</ntsc>
										</rate>
										<width>4096</width>
										<height>2160</height>
										<anamorphic>FALSE</anamorphic>
										<pixelaspectratio>square</pixelaspectratio>
										<fielddominance>none</fielddominance>
									</samplecharacteristics>
								</video>
							</media>
						</file>
						<logginginfo>
							<description></description>
							<scene></scene>
							<shottake></shottake>
							<lognote></lognote>
							<good></good>
							<originalvideofilename></originalvideofilename>
							<originalaudiofilename></originalaudiofilename>
						</logginginfo>
						<colorinfo>
							<lut></lut>
							<lut1></lut1>
							<asc_sop></asc_sop>
							<asc_sat></asc_sat>
							<lut2></lut2>
						</colorinfo>
						<labels>
							<label2>Violet</label2>
						</labels>
					</clipitem>
					<clipitem id="clipitem-1048">
						<masterclipid>masterclip-1045</masterclipid>
						<name>TKO_016_JAK_Sh10940.mov</name>
						<enabled>TRUE</enabled>
						<duration>56</duration>
						<rate>
							<timebase>24</timebase>
							<ntsc>TRUE</ntsc>
						</rate>
						<start>78150</start>
						<end>78198</end>
						<in>4</in>
						<out>52</out>
						<pproTicksIn>42378336000</pproTicksIn>
						<pproTicksOut>550918368000</pproTicksOut>
						<alphatype>none</alphatype>
						<pixelaspectratio>square</pixelaspectratio>
						<anamorphic>FALSE</anamorphic>
						<file id="file-1045">
							<name>TKO_016_JAK_Sh10940.mov</name>
							<pathurl>file://tri-stor01/Projects/TKO/SHOTS/_Refs_Movs_Burnin_FrameCounter/TKO_016_JAK_Sh10940.mov</pathurl>
							<rate>
								<timebase>24</timebase>
								<ntsc>TRUE</ntsc>
							</rate>
							<duration>56</duration>
							<timecode>
								<rate>
									<timebase>24</timebase>
									<ntsc>TRUE</ntsc>
								</rate>
								<string>18:34:17:19</string>
								<frame>1604587</frame>
								<displayformat>NDF</displayformat>
								<reel>
									<name>A0390006</name>
								</reel>
							</timecode>
							<media>
								<video>
									<samplecharacteristics>
										<rate>
											<timebase>24</timebase>
											<ntsc>TRUE</ntsc>
										</rate>
										<width>4096</width>
										<height>2160</height>
										<anamorphic>FALSE</anamorphic>
										<pixelaspectratio>square</pixelaspectratio>
										<fielddominance>none</fielddominance>
									</samplecharacteristics>
								</video>
							</media>
						</file>
						<logginginfo>
							<description></description>
							<scene></scene>
							<shottake></shottake>
							<lognote></lognote>
							<good></good>
							<originalvideofilename></originalvideofilename>
							<originalaudiofilename></originalaudiofilename>
						</logginginfo>
						<colorinfo>
							<lut></lut>
							<lut1></lut1>
							<asc_sop></asc_sop>
							<asc_sat></asc_sat>
							<lut2></lut2>
						</colorinfo>
						<labels>
							<label2>Violet</label2>
						</labels>
					</clipitem>
					<clipitem id="clipitem-1049">
						<masterclipid>masterclip-1046</masterclipid>
						<name>TKO_016_JAK_Sh10950.mov</name>
						<enabled>TRUE</enabled>
						<duration>104</duration>
						<rate>
							<timebase>24</timebase>
							<ntsc>TRUE</ntsc>
						</rate>
						<start>78198</start>
						<end>78294</end>
						<in>4</in>
						<out>100</out>
						<pproTicksIn>42378336000</pproTicksIn>
						<pproTicksOut>1059458400000</pproTicksOut>
						<alphatype>none</alphatype>
						<pixelaspectratio>square</pixelaspectratio>
						<anamorphic>FALSE</anamorphic>
						<file id="file-1046">
							<name>TKO_016_JAK_Sh10950.mov</name>
							<pathurl>file://tri-stor01/Projects/TKO/SHOTS/_Refs_Movs_Burnin_FrameCounter/TKO_016_JAK_Sh10950.mov</pathurl>
							<rate>
								<timebase>24</timebase>
								<ntsc>TRUE</ntsc>
							</rate>
							<duration>104</duration>
							<timecode>
								<rate>
									<timebase>24</timebase>
									<ntsc>TRUE</ntsc>
								</rate>
								<string>18:34:19:19</string>
								<frame>1604635</frame>
								<displayformat>NDF</displayformat>
								<reel>
									<name>B0330006</name>
								</reel>
							</timecode>
							<media>
								<video>
									<samplecharacteristics>
										<rate>
											<timebase>24</timebase>
											<ntsc>TRUE</ntsc>
										</rate>
										<width>4096</width>
										<height>2160</height>
										<anamorphic>FALSE</anamorphic>
										<pixelaspectratio>square</pixelaspectratio>
										<fielddominance>none</fielddominance>
									</samplecharacteristics>
								</video>
							</media>
						</file>
						<logginginfo>
							<description></description>
							<scene></scene>
							<shottake></shottake>
							<lognote></lognote>
							<good></good>
							<originalvideofilename></originalvideofilename>
							<originalaudiofilename></originalaudiofilename>
						</logginginfo>
						<colorinfo>
							<lut></lut>
							<lut1></lut1>
							<asc_sop></asc_sop>
							<asc_sat></asc_sat>
							<lut2></lut2>
						</colorinfo>
						<labels>
							<label2>Violet</label2>
						</labels>
					</clipitem>
					<clipitem id="clipitem-1050">
						<masterclipid>masterclip-1047</masterclipid>
						<name>TKO_016_JAK_Sh10960.mov</name>
						<enabled>TRUE</enabled>
						<duration>42</duration>
						<rate>
							<timebase>24</timebase>
							<ntsc>TRUE</ntsc>
						</rate>
						<start>78294</start>
						<end>78328</end>
						<in>4</in>
						<out>38</out>
						<pproTicksIn>42378336000</pproTicksIn>
						<pproTicksOut>402594192000</pproTicksOut>
						<alphatype>none</alphatype>
						<pixelaspectratio>square</pixelaspectratio>
						<anamorphic>FALSE</anamorphic>
						<file id="file-1047">
							<name>TKO_016_JAK_Sh10960.mov</name>
							<pathurl>file://tri-stor01/Projects/TKO/SHOTS/_Refs_Movs_Burnin_FrameCounter/TKO_016_JAK_Sh10960.mov</pathurl>
							<rate>
								<timebase>24</timebase>
								<ntsc>TRUE</ntsc>
							</rate>
							<duration>42</duration>
							<timecode>
								<rate>
									<timebase>24</timebase>
									<ntsc>TRUE</ntsc>
								</rate>
								<string>16:07:05:23</string>
								<frame>1392623</frame>
								<displayformat>NDF</displayformat>
								<reel>
									<name>B0320016</name>
								</reel>
							</timecode>
							<media>
								<video>
									<samplecharacteristics>
										<rate>
											<timebase>24</timebase>
											<ntsc>TRUE</ntsc>
										</rate>
										<width>4096</width>
										<height>2160</height>
										<anamorphic>FALSE</anamorphic>
										<pixelaspectratio>square</pixelaspectratio>
										<fielddominance>none</fielddominance>
									</samplecharacteristics>
								</video>
							</media>
						</file>
						<logginginfo>
							<description></description>
							<scene></scene>
							<shottake></shottake>
							<lognote></lognote>
							<good></good>
							<originalvideofilename></originalvideofilename>
							<originalaudiofilename></originalaudiofilename>
						</logginginfo>
						<colorinfo>
							<lut></lut>
							<lut1></lut1>
							<asc_sop></asc_sop>
							<asc_sat></asc_sat>
							<lut2></lut2>
						</colorinfo>
						<labels>
							<label2>Violet</label2>
						</labels>
					</clipitem>
					<clipitem id="clipitem-1051">
						<masterclipid>masterclip-1048</masterclipid>
						<name>TKO_016_JAK_Sh10970.mov</name>
						<enabled>TRUE</enabled>
						<duration>41</duration>
						<rate>
							<timebase>24</timebase>
							<ntsc>TRUE</ntsc>
						</rate>
						<start>78328</start>
						<end>78361</end>
						<in>4</in>
						<out>37</out>
						<pproTicksIn>42378336000</pproTicksIn>
						<pproTicksOut>391999608000</pproTicksOut>
						<alphatype>none</alphatype>
						<pixelaspectratio>square</pixelaspectratio>
						<anamorphic>FALSE</anamorphic>
						<file id="file-1048">
							<name>TKO_016_JAK_Sh10970.mov</name>
							<pathurl>file://tri-stor01/Projects/TKO/SHOTS/_Refs_Movs_Burnin_FrameCounter/TKO_016_JAK_Sh10970.mov</pathurl>
							<rate>
								<timebase>24</timebase>
								<ntsc>TRUE</ntsc>
							</rate>
							<duration>41</duration>
							<timecode>
								<rate>
									<timebase>24</timebase>
									<ntsc>TRUE</ntsc>
								</rate>
								<string>18:34:31:20</string>
								<frame>1604924</frame>
								<displayformat>NDF</displayformat>
								<reel>
									<name>B0330006</name>
								</reel>
							</timecode>
							<media>
								<video>
									<samplecharacteristics>
										<rate>
											<timebase>24</timebase>
											<ntsc>TRUE</ntsc>
										</rate>
										<width>4096</width>
										<height>2160</height>
										<anamorphic>FALSE</anamorphic>
										<pixelaspectratio>square</pixelaspectratio>
										<fielddominance>none</fielddominance>
									</samplecharacteristics>
								</video>
							</media>
						</file>
						<logginginfo>
							<description></description>
							<scene></scene>
							<shottake></shottake>
							<lognote></lognote>
							<good></good>
							<originalvideofilename></originalvideofilename>
							<originalaudiofilename></originalaudiofilename>
						</logginginfo>
						<colorinfo>
							<lut></lut>
							<lut1></lut1>
							<asc_sop></asc_sop>
							<asc_sat></asc_sat>
							<lut2></lut2>
						</colorinfo>
						<labels>
							<label2>Violet</label2>
						</labels>
					</clipitem>
					<clipitem id="clipitem-1052">
						<masterclipid>masterclip-1049</masterclipid>
						<name>TKO_016_JAK_Sh10980.mov</name>
						<enabled>TRUE</enabled>
						<duration>60</duration>
						<rate>
							<timebase>24</timebase>
							<ntsc>TRUE</ntsc>
						</rate>
						<start>78361</start>
						<end>78413</end>
						<in>4</in>
						<out>56</out>
						<pproTicksIn>42378336000</pproTicksIn>
						<pproTicksOut>593296704000</pproTicksOut>
						<alphatype>none</alphatype>
						<pixelaspectratio>square</pixelaspectratio>
						<anamorphic>FALSE</anamorphic>
						<file id="file-1049">
							<name>TKO_016_JAK_Sh10980.mov</name>
							<pathurl>file://tri-stor01/Projects/TKO/SHOTS/_Refs_Movs_Burnin_FrameCounter/TKO_016_JAK_Sh10980.mov</pathurl>
							<rate>
								<timebase>24</timebase>
								<ntsc>TRUE</ntsc>
							</rate>
							<duration>60</duration>
							<timecode>
								<rate>
									<timebase>24</timebase>
									<ntsc>TRUE</ntsc>
								</rate>
								<string>17:15:55:06</string>
								<frame>1491726</frame>
								<displayformat>NDF</displayformat>
								<reel>
									<name>B0330001</name>
								</reel>
							</timecode>
							<media>
								<video>
									<samplecharacteristics>
										<rate>
											<timebase>24</timebase>
											<ntsc>TRUE</ntsc>
										</rate>
										<width>4096</width>
										<height>2160</height>
										<anamorphic>FALSE</anamorphic>
										<pixelaspectratio>square</pixelaspectratio>
										<fielddominance>none</fielddominance>
									</samplecharacteristics>
								</video>
							</media>
						</file>
						<logginginfo>
							<description></description>
							<scene></scene>
							<shottake></shottake>
							<lognote></lognote>
							<good></good>
							<originalvideofilename></originalvideofilename>
							<originalaudiofilename></originalaudiofilename>
						</logginginfo>
						<colorinfo>
							<lut></lut>
							<lut1></lut1>
							<asc_sop></asc_sop>
							<asc_sat></asc_sat>
							<lut2></lut2>
						</colorinfo>
						<labels>
							<label2>Violet</label2>
						</labels>
					</clipitem>
					<clipitem id="clipitem-1053">
						<masterclipid>masterclip-1050</masterclipid>
						<name>TKO_016_JAK_Sh10990.mov</name>
						<enabled>TRUE</enabled>
						<duration>42</duration>
						<rate>
							<timebase>24</timebase>
							<ntsc>TRUE</ntsc>
						</rate>
						<start>78413</start>
						<end>78447</end>
						<in>4</in>
						<out>38</out>
						<pproTicksIn>42378336000</pproTicksIn>
						<pproTicksOut>402594192000</pproTicksOut>
						<alphatype>none</alphatype>
						<pixelaspectratio>square</pixelaspectratio>
						<anamorphic>FALSE</anamorphic>
						<file id="file-1050">
							<name>TKO_016_JAK_Sh10990.mov</name>
							<pathurl>file://tri-stor01/Projects/TKO/SHOTS/_Refs_Movs_Burnin_FrameCounter/TKO_016_JAK_Sh10990.mov</pathurl>
							<rate>
								<timebase>24</timebase>
								<ntsc>TRUE</ntsc>
							</rate>
							<duration>42</duration>
							<timecode>
								<rate>
									<timebase>24</timebase>
									<ntsc>TRUE</ntsc>
								</rate>
								<string>18:34:35:09</string>
								<frame>1605009</frame>
								<displayformat>NDF</displayformat>
								<reel>
									<name>B0330006</name>
								</reel>
							</timecode>
							<media>
								<video>
									<samplecharacteristics>
										<rate>
											<timebase>24</timebase>
											<ntsc>TRUE</ntsc>
										</rate>
										<width>4096</width>
										<height>2160</height>
										<anamorphic>FALSE</anamorphic>
										<pixelaspectratio>square</pixelaspectratio>
										<fielddominance>none</fielddominance>
									</samplecharacteristics>
								</video>
							</media>
						</file>
						<logginginfo>
							<description></description>
							<scene></scene>
							<shottake></shottake>
							<lognote></lognote>
							<good></good>
							<originalvideofilename></originalvideofilename>
							<originalaudiofilename></originalaudiofilename>
						</logginginfo>
						<colorinfo>
							<lut></lut>
							<lut1></lut1>
							<asc_sop></asc_sop>
							<asc_sat></asc_sat>
							<lut2></lut2>
						</colorinfo>
						<labels>
							<label2>Violet</label2>
						</labels>
					</clipitem>
					<clipitem id="clipitem-1054">
						<masterclipid>masterclip-1051</masterclipid>
						<name>TKO_016_JAK_Sh11000.mov</name>
						<enabled>TRUE</enabled>
						<duration>91</duration>
						<rate>
							<timebase>24</timebase>
							<ntsc>TRUE</ntsc>
						</rate>
						<start>78447</start>
						<end>78530</end>
						<in>4</in>
						<out>87</out>
						<pproTicksIn>42378336000</pproTicksIn>
						<pproTicksOut>921728808000</pproTicksOut>
						<alphatype>none</alphatype>
						<pixelaspectratio>square</pixelaspectratio>
						<anamorphic>FALSE</anamorphic>
						<file id="file-1051">
							<name>TKO_016_JAK_Sh11000.mov</name>
							<pathurl>file://tri-stor01/Projects/TKO/SHOTS/_Refs_Movs_Burnin_FrameCounter/TKO_016_JAK_Sh11000.mov</pathurl>
							<rate>
								<timebase>24</timebase>
								<ntsc>TRUE</ntsc>
							</rate>
							<duration>91</duration>
							<timecode>
								<rate>
									<timebase>24</timebase>
									<ntsc>TRUE</ntsc>
								</rate>
								<string>18:34:37:15</string>
								<frame>1605063</frame>
								<displayformat>NDF</displayformat>
								<reel>
									<name>A0390006</name>
								</reel>
							</timecode>
							<media>
								<video>
									<samplecharacteristics>
										<rate>
											<timebase>24</timebase>
											<ntsc>TRUE</ntsc>
										</rate>
										<width>4096</width>
										<height>2160</height>
										<anamorphic>FALSE</anamorphic>
										<pixelaspectratio>square</pixelaspectratio>
										<fielddominance>none</fielddominance>
									</samplecharacteristics>
								</video>
							</media>
						</file>
						<logginginfo>
							<description></description>
							<scene></scene>
							<shottake></shottake>
							<lognote></lognote>
							<good></good>
							<originalvideofilename></originalvideofilename>
							<originalaudiofilename></originalaudiofilename>
						</logginginfo>
						<colorinfo>
							<lut></lut>
							<lut1></lut1>
							<asc_sop></asc_sop>
							<asc_sat></asc_sat>
							<lut2></lut2>
						</colorinfo>
						<labels>
							<label2>Violet</label2>
						</labels>
					</clipitem>
					<clipitem id="clipitem-1055">
						<masterclipid>masterclip-1052</masterclipid>
						<name>TKO_016_JAK_Sh11010.mov</name>
						<enabled>TRUE</enabled>
						<duration>49</duration>
						<rate>
							<timebase>24</timebase>
							<ntsc>TRUE</ntsc>
						</rate>
						<start>78530</start>
						<end>78571</end>
						<in>4</in>
						<out>45</out>
						<pproTicksIn>42378336000</pproTicksIn>
						<pproTicksOut>476756280000</pproTicksOut>
						<alphatype>none</alphatype>
						<pixelaspectratio>square</pixelaspectratio>
						<anamorphic>FALSE</anamorphic>
						<file id="file-1052">
							<name>TKO_016_JAK_Sh11010.mov</name>
							<pathurl>file://tri-stor01/Projects/TKO/SHOTS/_Refs_Movs_Burnin_FrameCounter/TKO_016_JAK_Sh11010.mov</pathurl>
							<rate>
								<timebase>24</timebase>
								<ntsc>TRUE</ntsc>
							</rate>
							<duration>49</duration>
							<timecode>
								<rate>
									<timebase>24</timebase>
									<ntsc>TRUE</ntsc>
								</rate>
								<string>16:07:19:01</string>
								<frame>1392937</frame>
								<displayformat>NDF</displayformat>
								<reel>
									<name>B0320016</name>
								</reel>
							</timecode>
							<media>
								<video>
									<samplecharacteristics>
										<rate>
											<timebase>24</timebase>
											<ntsc>TRUE</ntsc>
										</rate>
										<width>4096</width>
										<height>2160</height>
										<anamorphic>FALSE</anamorphic>
										<pixelaspectratio>square</pixelaspectratio>
										<fielddominance>none</fielddominance>
									</samplecharacteristics>
								</video>
							</media>
						</file>
						<logginginfo>
							<description></description>
							<scene></scene>
							<shottake></shottake>
							<lognote></lognote>
							<good></good>
							<originalvideofilename></originalvideofilename>
							<originalaudiofilename></originalaudiofilename>
						</logginginfo>
						<colorinfo>
							<lut></lut>
							<lut1></lut1>
							<asc_sop></asc_sop>
							<asc_sat></asc_sat>
							<lut2></lut2>
						</colorinfo>
						<labels>
							<label2>Violet</label2>
						</labels>
					</clipitem>
					<clipitem id="clipitem-1056">
						<masterclipid>masterclip-1053</masterclipid>
						<name>TKO_016_JAK_Sh11020.mov</name>
						<enabled>TRUE</enabled>
						<duration>71</duration>
						<rate>
							<timebase>24</timebase>
							<ntsc>TRUE</ntsc>
						</rate>
						<start>78571</start>
						<end>78634</end>
						<in>4</in>
						<out>67</out>
						<pproTicksIn>42378336000</pproTicksIn>
						<pproTicksOut>709837128000</pproTicksOut>
						<alphatype>none</alphatype>
						<pixelaspectratio>square</pixelaspectratio>
						<anamorphic>FALSE</anamorphic>
						<file id="file-1053">
							<name>TKO_016_JAK_Sh11020.mov</name>
							<pathurl>file://tri-stor01/Projects/TKO/SHOTS/_Refs_Movs_Burnin_FrameCounter/TKO_016_JAK_Sh11020.mov</pathurl>
							<rate>
								<timebase>24</timebase>
								<ntsc>TRUE</ntsc>
							</rate>
							<duration>71</duration>
							<timecode>
								<rate>
									<timebase>24</timebase>
									<ntsc>TRUE</ntsc>
								</rate>
								<string>17:15:34:12</string>
								<frame>1491228</frame>
								<displayformat>NDF</displayformat>
								<reel>
									<name>A0390001</name>
								</reel>
							</timecode>
							<media>
								<video>
									<samplecharacteristics>
										<rate>
											<timebase>24</timebase>
											<ntsc>TRUE</ntsc>
										</rate>
										<width>4096</width>
										<height>2160</height>
										<anamorphic>FALSE</anamorphic>
										<pixelaspectratio>square</pixelaspectratio>
										<fielddominance>none</fielddominance>
									</samplecharacteristics>
								</video>
							</media>
						</file>
						<logginginfo>
							<description></description>
							<scene></scene>
							<shottake></shottake>
							<lognote></lognote>
							<good></good>
							<originalvideofilename></originalvideofilename>
							<originalaudiofilename></originalaudiofilename>
						</logginginfo>
						<colorinfo>
							<lut></lut>
							<lut1></lut1>
							<asc_sop></asc_sop>
							<asc_sat></asc_sat>
							<lut2></lut2>
						</colorinfo>
						<labels>
							<label2>Violet</label2>
						</labels>
					</clipitem>
					<clipitem id="clipitem-1057">
						<masterclipid>masterclip-1054</masterclipid>
						<name>TKO_016_JAK_Sh11030.mov</name>
						<enabled>TRUE</enabled>
						<duration>144</duration>
						<rate>
							<timebase>24</timebase>
							<ntsc>TRUE</ntsc>
						</rate>
						<start>78634</start>
						<end>78770</end>
						<in>4</in>
						<out>140</out>
						<pproTicksIn>42378336000</pproTicksIn>
						<pproTicksOut>1483241760000</pproTicksOut>
						<alphatype>none</alphatype>
						<pixelaspectratio>square</pixelaspectratio>
						<anamorphic>FALSE</anamorphic>
						<file id="file-1054">
							<name>TKO_016_JAK_Sh11030.mov</name>
							<pathurl>file://tri-stor01/Projects/TKO/SHOTS/_Refs_Movs_Burnin_FrameCounter/TKO_016_JAK_Sh11030.mov</pathurl>
							<rate>
								<timebase>24</timebase>
								<ntsc>TRUE</ntsc>
							</rate>
							<duration>144</duration>
							<timecode>
								<rate>
									<timebase>24</timebase>
									<ntsc>TRUE</ntsc>
								</rate>
								<string>15:22:42:16</string>
								<frame>1328704</frame>
								<displayformat>NDF</displayformat>
								<reel>
									<name>B0320013</name>
								</reel>
							</timecode>
							<media>
								<video>
									<samplecharacteristics>
										<rate>
											<timebase>24</timebase>
											<ntsc>TRUE</ntsc>
										</rate>
										<width>4096</width>
										<height>2160</height>
										<anamorphic>FALSE</anamorphic>
										<pixelaspectratio>square</pixelaspectratio>
										<fielddominance>none</fielddominance>
									</samplecharacteristics>
								</video>
							</media>
						</file>
						<logginginfo>
							<description></description>
							<scene></scene>
							<shottake></shottake>
							<lognote></lognote>
							<good></good>
							<originalvideofilename></originalvideofilename>
							<originalaudiofilename></originalaudiofilename>
						</logginginfo>
						<colorinfo>
							<lut></lut>
							<lut1></lut1>
							<asc_sop></asc_sop>
							<asc_sat></asc_sat>
							<lut2></lut2>
						</colorinfo>
						<labels>
							<label2>Violet</label2>
						</labels>
					</clipitem>
					<clipitem id="clipitem-1058">
						<masterclipid>masterclip-1055</masterclipid>
						<name>TKO_016_JAK_Sh11040.mov</name>
						<enabled>TRUE</enabled>
						<duration>103</duration>
						<rate>
							<timebase>24</timebase>
							<ntsc>TRUE</ntsc>
						</rate>
						<start>78770</start>
						<end>78865</end>
						<in>4</in>
						<out>99</out>
						<pproTicksIn>42378336000</pproTicksIn>
						<pproTicksOut>1048863816000</pproTicksOut>
						<alphatype>none</alphatype>
						<pixelaspectratio>square</pixelaspectratio>
						<anamorphic>FALSE</anamorphic>
						<file id="file-1055">
							<name>TKO_016_JAK_Sh11040.mov</name>
							<pathurl>file://tri-stor01/Projects/TKO/SHOTS/_Refs_Movs_Burnin_FrameCounter/TKO_016_JAK_Sh11040.mov</pathurl>
							<rate>
								<timebase>24</timebase>
								<ntsc>TRUE</ntsc>
							</rate>
							<duration>103</duration>
							<timecode>
								<rate>
									<timebase>24</timebase>
									<ntsc>TRUE</ntsc>
								</rate>
								<string>18:34:55:08</string>
								<frame>1605488</frame>
								<displayformat>NDF</displayformat>
								<reel>
									<name>B0330006</name>
								</reel>
							</timecode>
							<media>
								<video>
									<samplecharacteristics>
										<rate>
											<timebase>24</timebase>
											<ntsc>TRUE</ntsc>
										</rate>
										<width>4096</width>
										<height>2160</height>
										<anamorphic>FALSE</anamorphic>
										<pixelaspectratio>square</pixelaspectratio>
										<fielddominance>none</fielddominance>
									</samplecharacteristics>
								</video>
							</media>
						</file>
						<logginginfo>
							<description></description>
							<scene></scene>
							<shottake></shottake>
							<lognote></lognote>
							<good></good>
							<originalvideofilename></originalvideofilename>
							<originalaudiofilename></originalaudiofilename>
						</logginginfo>
						<colorinfo>
							<lut></lut>
							<lut1></lut1>
							<asc_sop></asc_sop>
							<asc_sat></asc_sat>
							<lut2></lut2>
						</colorinfo>
						<labels>
							<label2>Violet</label2>
						</labels>
					</clipitem>
					<clipitem id="clipitem-1059">
						<masterclipid>masterclip-1056</masterclipid>
						<name>TKO_016_JAK_Sh11050.mov</name>
						<enabled>TRUE</enabled>
						<duration>71</duration>
						<rate>
							<timebase>24</timebase>
							<ntsc>TRUE</ntsc>
						</rate>
						<start>78865</start>
						<end>78928</end>
						<in>4</in>
						<out>67</out>
						<pproTicksIn>42378336000</pproTicksIn>
						<pproTicksOut>709837128000</pproTicksOut>
						<alphatype>none</alphatype>
						<pixelaspectratio>square</pixelaspectratio>
						<anamorphic>FALSE</anamorphic>
						<file id="file-1056">
							<name>TKO_016_JAK_Sh11050.mov</name>
							<pathurl>file://tri-stor01/Projects/TKO/SHOTS/_Refs_Movs_Burnin_FrameCounter/TKO_016_JAK_Sh11050.mov</pathurl>
							<rate>
								<timebase>24</timebase>
								<ntsc>TRUE</ntsc>
							</rate>
							<duration>71</duration>
							<timecode>
								<rate>
									<timebase>24</timebase>
									<ntsc>TRUE</ntsc>
								</rate>
								<string>17:16:11:03</string>
								<frame>1492107</frame>
								<displayformat>NDF</displayformat>
								<reel>
									<name>A0390001</name>
								</reel>
							</timecode>
							<media>
								<video>
									<samplecharacteristics>
										<rate>
											<timebase>24</timebase>
											<ntsc>TRUE</ntsc>
										</rate>
										<width>4096</width>
										<height>2160</height>
										<anamorphic>FALSE</anamorphic>
										<pixelaspectratio>square</pixelaspectratio>
										<fielddominance>none</fielddominance>
									</samplecharacteristics>
								</video>
							</media>
						</file>
						<logginginfo>
							<description></description>
							<scene></scene>
							<shottake></shottake>
							<lognote></lognote>
							<good></good>
							<originalvideofilename></originalvideofilename>
							<originalaudiofilename></originalaudiofilename>
						</logginginfo>
						<colorinfo>
							<lut></lut>
							<lut1></lut1>
							<asc_sop></asc_sop>
							<asc_sat></asc_sat>
							<lut2></lut2>
						</colorinfo>
						<labels>
							<label2>Violet</label2>
						</labels>
					</clipitem>
					<clipitem id="clipitem-1060">
						<masterclipid>masterclip-1057</masterclipid>
						<name>TKO_016_JAK_Sh11060.mov</name>
						<enabled>TRUE</enabled>
						<duration>33</duration>
						<rate>
							<timebase>24</timebase>
							<ntsc>TRUE</ntsc>
						</rate>
						<start>78928</start>
						<end>78953</end>
						<in>4</in>
						<out>29</out>
						<pproTicksIn>42378336000</pproTicksIn>
						<pproTicksOut>307242936000</pproTicksOut>
						<alphatype>none</alphatype>
						<pixelaspectratio>square</pixelaspectratio>
						<anamorphic>FALSE</anamorphic>
						<file id="file-1057">
							<name>TKO_016_JAK_Sh11060.mov</name>
							<pathurl>file://tri-stor01/Projects/TKO/SHOTS/_Refs_Movs_Burnin_FrameCounter/TKO_016_JAK_Sh11060.mov</pathurl>
							<rate>
								<timebase>24</timebase>
								<ntsc>TRUE</ntsc>
							</rate>
							<duration>33</duration>
							<timecode>
								<rate>
									<timebase>24</timebase>
									<ntsc>TRUE</ntsc>
								</rate>
								<string>16:07:38:03</string>
								<frame>1393395</frame>
								<displayformat>NDF</displayformat>
								<reel>
									<name>B0320016</name>
								</reel>
							</timecode>
							<media>
								<video>
									<samplecharacteristics>
										<rate>
											<timebase>24</timebase>
											<ntsc>TRUE</ntsc>
										</rate>
										<width>4096</width>
										<height>2160</height>
										<anamorphic>FALSE</anamorphic>
										<pixelaspectratio>square</pixelaspectratio>
										<fielddominance>none</fielddominance>
									</samplecharacteristics>
								</video>
							</media>
						</file>
						<logginginfo>
							<description></description>
							<scene></scene>
							<shottake></shottake>
							<lognote></lognote>
							<good></good>
							<originalvideofilename></originalvideofilename>
							<originalaudiofilename></originalaudiofilename>
						</logginginfo>
						<colorinfo>
							<lut></lut>
							<lut1></lut1>
							<asc_sop></asc_sop>
							<asc_sat></asc_sat>
							<lut2></lut2>
						</colorinfo>
						<labels>
							<label2>Violet</label2>
						</labels>
					</clipitem>
					<clipitem id="clipitem-1061">
						<masterclipid>masterclip-1058</masterclipid>
						<name>TKO_016_JAK_Sh11070.mov</name>
						<enabled>TRUE</enabled>
						<duration>34</duration>
						<rate>
							<timebase>24</timebase>
							<ntsc>TRUE</ntsc>
						</rate>
						<start>78953</start>
						<end>78979</end>
						<in>4</in>
						<out>30</out>
						<pproTicksIn>42378336000</pproTicksIn>
						<pproTicksOut>317837520000</pproTicksOut>
						<alphatype>none</alphatype>
						<pixelaspectratio>square</pixelaspectratio>
						<anamorphic>FALSE</anamorphic>
						<file id="file-1058">
							<name>TKO_016_JAK_Sh11070.mov</name>
							<pathurl>file://tri-stor01/Projects/TKO/SHOTS/_Refs_Movs_Burnin_FrameCounter/TKO_016_JAK_Sh11070.mov</pathurl>
							<rate>
								<timebase>24</timebase>
								<ntsc>TRUE</ntsc>
							</rate>
							<duration>34</duration>
							<timecode>
								<rate>
									<timebase>24</timebase>
									<ntsc>TRUE</ntsc>
								</rate>
								<string>18:35:03:04</string>
								<frame>1605676</frame>
								<displayformat>NDF</displayformat>
								<reel>
									<name>A0390006</name>
								</reel>
							</timecode>
							<media>
								<video>
									<samplecharacteristics>
										<rate>
											<timebase>24</timebase>
											<ntsc>TRUE</ntsc>
										</rate>
										<width>4096</width>
										<height>2160</height>
										<anamorphic>FALSE</anamorphic>
										<pixelaspectratio>square</pixelaspectratio>
										<fielddominance>none</fielddominance>
									</samplecharacteristics>
								</video>
							</media>
						</file>
						<logginginfo>
							<description></description>
							<scene></scene>
							<shottake></shottake>
							<lognote></lognote>
							<good></good>
							<originalvideofilename></originalvideofilename>
							<originalaudiofilename></originalaudiofilename>
						</logginginfo>
						<colorinfo>
							<lut></lut>
							<lut1></lut1>
							<asc_sop></asc_sop>
							<asc_sat></asc_sat>
							<lut2></lut2>
						</colorinfo>
						<labels>
							<label2>Violet</label2>
						</labels>
					</clipitem>
					<clipitem id="clipitem-1062">
						<masterclipid>masterclip-1059</masterclipid>
						<name>TKO_016_JAK_Sh11080.mov</name>
						<enabled>TRUE</enabled>
						<duration>47</duration>
						<rate>
							<timebase>24</timebase>
							<ntsc>TRUE</ntsc>
						</rate>
						<start>78979</start>
						<end>79018</end>
						<in>4</in>
						<out>43</out>
						<pproTicksIn>42378336000</pproTicksIn>
						<pproTicksOut>455567112000</pproTicksOut>
						<alphatype>none</alphatype>
						<pixelaspectratio>square</pixelaspectratio>
						<anamorphic>FALSE</anamorphic>
						<file id="file-1059">
							<name>TKO_016_JAK_Sh11080.mov</name>
							<pathurl>file://tri-stor01/Projects/TKO/SHOTS/_Refs_Movs_Burnin_FrameCounter/TKO_016_JAK_Sh11080.mov</pathurl>
							<rate>
								<timebase>24</timebase>
								<ntsc>TRUE</ntsc>
							</rate>
							<duration>47</duration>
							<timecode>
								<rate>
									<timebase>24</timebase>
									<ntsc>TRUE</ntsc>
								</rate>
								<string>16:07:40:06</string>
								<frame>1393446</frame>
								<displayformat>NDF</displayformat>
								<reel>
									<name>B0320016</name>
								</reel>
							</timecode>
							<media>
								<video>
									<samplecharacteristics>
										<rate>
											<timebase>24</timebase>
											<ntsc>TRUE</ntsc>
										</rate>
										<width>4096</width>
										<height>2160</height>
										<anamorphic>FALSE</anamorphic>
										<pixelaspectratio>square</pixelaspectratio>
										<fielddominance>none</fielddominance>
									</samplecharacteristics>
								</video>
							</media>
						</file>
						<logginginfo>
							<description></description>
							<scene></scene>
							<shottake></shottake>
							<lognote></lognote>
							<good></good>
							<originalvideofilename></originalvideofilename>
							<originalaudiofilename></originalaudiofilename>
						</logginginfo>
						<colorinfo>
							<lut></lut>
							<lut1></lut1>
							<asc_sop></asc_sop>
							<asc_sat></asc_sat>
							<lut2></lut2>
						</colorinfo>
						<labels>
							<label2>Violet</label2>
						</labels>
					</clipitem>
					<clipitem id="clipitem-1063">
						<masterclipid>masterclip-1060</masterclipid>
						<name>TKO_016_JAK_Sh11090.mov</name>
						<enabled>TRUE</enabled>
						<duration>81</duration>
						<rate>
							<timebase>24</timebase>
							<ntsc>TRUE</ntsc>
						</rate>
						<start>79018</start>
						<end>79091</end>
						<in>4</in>
						<out>77</out>
						<pproTicksIn>42378336000</pproTicksIn>
						<pproTicksOut>815782968000</pproTicksOut>
						<alphatype>none</alphatype>
						<pixelaspectratio>square</pixelaspectratio>
						<anamorphic>FALSE</anamorphic>
						<file id="file-1060">
							<name>TKO_016_JAK_Sh11090.mov</name>
							<pathurl>file://tri-stor01/Projects/TKO/SHOTS/_Refs_Movs_Burnin_FrameCounter/TKO_016_JAK_Sh11090.mov</pathurl>
							<rate>
								<timebase>24</timebase>
								<ntsc>TRUE</ntsc>
							</rate>
							<duration>81</duration>
							<timecode>
								<rate>
									<timebase>24</timebase>
									<ntsc>TRUE</ntsc>
								</rate>
								<string>18:35:05:21</string>
								<frame>1605741</frame>
								<displayformat>NDF</displayformat>
								<reel>
									<name>A0390006</name>
								</reel>
							</timecode>
							<media>
								<video>
									<samplecharacteristics>
										<rate>
											<timebase>24</timebase>
											<ntsc>TRUE</ntsc>
										</rate>
										<width>4096</width>
										<height>2160</height>
										<anamorphic>FALSE</anamorphic>
										<pixelaspectratio>square</pixelaspectratio>
										<fielddominance>none</fielddominance>
									</samplecharacteristics>
								</video>
							</media>
						</file>
						<logginginfo>
							<description></description>
							<scene></scene>
							<shottake></shottake>
							<lognote></lognote>
							<good></good>
							<originalvideofilename></originalvideofilename>
							<originalaudiofilename></originalaudiofilename>
						</logginginfo>
						<colorinfo>
							<lut></lut>
							<lut1></lut1>
							<asc_sop></asc_sop>
							<asc_sat></asc_sat>
							<lut2></lut2>
						</colorinfo>
						<labels>
							<label2>Violet</label2>
						</labels>
					</clipitem>
					<clipitem id="clipitem-1064">
						<masterclipid>masterclip-1061</masterclipid>
						<name>TKO_016_JAK_Sh11100.mov</name>
						<enabled>TRUE</enabled>
						<duration>47</duration>
						<rate>
							<timebase>24</timebase>
							<ntsc>TRUE</ntsc>
						</rate>
						<start>79091</start>
						<end>79130</end>
						<in>4</in>
						<out>43</out>
						<pproTicksIn>42378336000</pproTicksIn>
						<pproTicksOut>455567112000</pproTicksOut>
						<alphatype>none</alphatype>
						<pixelaspectratio>square</pixelaspectratio>
						<anamorphic>FALSE</anamorphic>
						<file id="file-1061">
							<name>TKO_016_JAK_Sh11100.mov</name>
							<pathurl>file://tri-stor01/Projects/TKO/SHOTS/_Refs_Movs_Burnin_FrameCounter/TKO_016_JAK_Sh11100.mov</pathurl>
							<rate>
								<timebase>24</timebase>
								<ntsc>TRUE</ntsc>
							</rate>
							<duration>47</duration>
							<timecode>
								<rate>
									<timebase>24</timebase>
									<ntsc>TRUE</ntsc>
								</rate>
								<string>15:55:33:18</string>
								<frame>1376010</frame>
								<displayformat>NDF</displayformat>
								<reel>
									<name>B0320014</name>
								</reel>
							</timecode>
							<media>
								<video>
									<samplecharacteristics>
										<rate>
											<timebase>24</timebase>
											<ntsc>TRUE</ntsc>
										</rate>
										<width>4096</width>
										<height>2160</height>
										<anamorphic>FALSE</anamorphic>
										<pixelaspectratio>square</pixelaspectratio>
										<fielddominance>none</fielddominance>
									</samplecharacteristics>
								</video>
							</media>
						</file>
						<logginginfo>
							<description></description>
							<scene></scene>
							<shottake></shottake>
							<lognote></lognote>
							<good></good>
							<originalvideofilename></originalvideofilename>
							<originalaudiofilename></originalaudiofilename>
						</logginginfo>
						<colorinfo>
							<lut></lut>
							<lut1></lut1>
							<asc_sop></asc_sop>
							<asc_sat></asc_sat>
							<lut2></lut2>
						</colorinfo>
						<labels>
							<label2>Violet</label2>
						</labels>
					</clipitem>
					<clipitem id="clipitem-1065">
						<masterclipid>masterclip-1062</masterclipid>
						<name>TKO_016_JAK_Sh11110.mov</name>
						<enabled>TRUE</enabled>
						<duration>41</duration>
						<rate>
							<timebase>24</timebase>
							<ntsc>TRUE</ntsc>
						</rate>
						<start>79130</start>
						<end>79163</end>
						<in>4</in>
						<out>37</out>
						<pproTicksIn>42378336000</pproTicksIn>
						<pproTicksOut>391999608000</pproTicksOut>
						<alphatype>none</alphatype>
						<pixelaspectratio>square</pixelaspectratio>
						<anamorphic>FALSE</anamorphic>
						<file id="file-1062">
							<name>TKO_016_JAK_Sh11110.mov</name>
							<pathurl>file://tri-stor01/Projects/TKO/SHOTS/_Refs_Movs_Burnin_FrameCounter/TKO_016_JAK_Sh11110.mov</pathurl>
							<rate>
								<timebase>24</timebase>
								<ntsc>TRUE</ntsc>
							</rate>
							<duration>41</duration>
							<timecode>
								<rate>
									<timebase>24</timebase>
									<ntsc>TRUE</ntsc>
								</rate>
								<string>18:35:11:13</string>
								<frame>1605877</frame>
								<displayformat>NDF</displayformat>
								<reel>
									<name>A0390006</name>
								</reel>
							</timecode>
							<media>
								<video>
									<samplecharacteristics>
										<rate>
											<timebase>24</timebase>
											<ntsc>TRUE</ntsc>
										</rate>
										<width>4096</width>
										<height>2160</height>
										<anamorphic>FALSE</anamorphic>
										<pixelaspectratio>square</pixelaspectratio>
										<fielddominance>none</fielddominance>
									</samplecharacteristics>
								</video>
							</media>
						</file>
						<logginginfo>
							<description></description>
							<scene></scene>
							<shottake></shottake>
							<lognote></lognote>
							<good></good>
							<originalvideofilename></originalvideofilename>
							<originalaudiofilename></originalaudiofilename>
						</logginginfo>
						<colorinfo>
							<lut></lut>
							<lut1></lut1>
							<asc_sop></asc_sop>
							<asc_sat></asc_sat>
							<lut2></lut2>
						</colorinfo>
						<labels>
							<label2>Violet</label2>
						</labels>
					</clipitem>
					<clipitem id="clipitem-1066">
						<masterclipid>masterclip-1063</masterclipid>
						<name>TKO_016_JAK_Sh11120.mov</name>
						<enabled>TRUE</enabled>
						<duration>53</duration>
						<rate>
							<timebase>24</timebase>
							<ntsc>TRUE</ntsc>
						</rate>
						<start>79163</start>
						<end>79208</end>
						<in>4</in>
						<out>49</out>
						<pproTicksIn>42378336000</pproTicksIn>
						<pproTicksOut>519134616000</pproTicksOut>
						<alphatype>none</alphatype>
						<pixelaspectratio>square</pixelaspectratio>
						<anamorphic>FALSE</anamorphic>
						<file id="file-1063">
							<name>TKO_016_JAK_Sh11120.mov</name>
							<pathurl>file://tri-stor01/Projects/TKO/SHOTS/_Refs_Movs_Burnin_FrameCounter/TKO_016_JAK_Sh11120.mov</pathurl>
							<rate>
								<timebase>24</timebase>
								<ntsc>TRUE</ntsc>
							</rate>
							<duration>53</duration>
							<timecode>
								<rate>
									<timebase>24</timebase>
									<ntsc>TRUE</ntsc>
								</rate>
								<string>15:23:16:18</string>
								<frame>1329522</frame>
								<displayformat>NDF</displayformat>
								<reel>
									<name>B0320013</name>
								</reel>
							</timecode>
							<media>
								<video>
									<samplecharacteristics>
										<rate>
											<timebase>24</timebase>
											<ntsc>TRUE</ntsc>
										</rate>
										<width>4096</width>
										<height>2160</height>
										<anamorphic>FALSE</anamorphic>
										<pixelaspectratio>square</pixelaspectratio>
										<fielddominance>none</fielddominance>
									</samplecharacteristics>
								</video>
							</media>
						</file>
						<logginginfo>
							<description></description>
							<scene></scene>
							<shottake></shottake>
							<lognote></lognote>
							<good></good>
							<originalvideofilename></originalvideofilename>
							<originalaudiofilename></originalaudiofilename>
						</logginginfo>
						<colorinfo>
							<lut></lut>
							<lut1></lut1>
							<asc_sop></asc_sop>
							<asc_sat></asc_sat>
							<lut2></lut2>
						</colorinfo>
						<labels>
							<label2>Violet</label2>
						</labels>
					</clipitem>
					<clipitem id="clipitem-1067">
						<masterclipid>masterclip-1064</masterclipid>
						<name>TKO_016_JAK_Sh11130.mov</name>
						<enabled>TRUE</enabled>
						<duration>82</duration>
						<rate>
							<timebase>24</timebase>
							<ntsc>TRUE</ntsc>
						</rate>
						<start>79208</start>
						<end>79282</end>
						<in>4</in>
						<out>78</out>
						<pproTicksIn>42378336000</pproTicksIn>
						<pproTicksOut>826377552000</pproTicksOut>
						<alphatype>none</alphatype>
						<pixelaspectratio>square</pixelaspectratio>
						<anamorphic>FALSE</anamorphic>
						<file id="file-1064">
							<name>TKO_016_JAK_Sh11130.mov</name>
							<pathurl>file://tri-stor01/Projects/TKO/SHOTS/_Refs_Movs_Burnin_FrameCounter/TKO_016_JAK_Sh11130.mov</pathurl>
							<rate>
								<timebase>24</timebase>
								<ntsc>TRUE</ntsc>
							</rate>
							<duration>82</duration>
							<timecode>
								<rate>
									<timebase>24</timebase>
									<ntsc>TRUE</ntsc>
								</rate>
								<string>15:55:38:15</string>
								<frame>1376127</frame>
								<displayformat>NDF</displayformat>
								<reel>
									<name>B0320014</name>
								</reel>
							</timecode>
							<media>
								<video>
									<samplecharacteristics>
										<rate>
											<timebase>24</timebase>
											<ntsc>TRUE</ntsc>
										</rate>
										<width>4096</width>
										<height>2160</height>
										<anamorphic>FALSE</anamorphic>
										<pixelaspectratio>square</pixelaspectratio>
										<fielddominance>none</fielddominance>
									</samplecharacteristics>
								</video>
							</media>
						</file>
						<logginginfo>
							<description></description>
							<scene></scene>
							<shottake></shottake>
							<lognote></lognote>
							<good></good>
							<originalvideofilename></originalvideofilename>
							<originalaudiofilename></originalaudiofilename>
						</logginginfo>
						<colorinfo>
							<lut></lut>
							<lut1></lut1>
							<asc_sop></asc_sop>
							<asc_sat></asc_sat>
							<lut2></lut2>
						</colorinfo>
						<labels>
							<label2>Violet</label2>
						</labels>
					</clipitem>
					<clipitem id="clipitem-1068">
						<masterclipid>masterclip-1065</masterclipid>
						<name>TKO_016_JAK_Sh11140.mov</name>
						<enabled>TRUE</enabled>
						<duration>61</duration>
						<rate>
							<timebase>24</timebase>
							<ntsc>TRUE</ntsc>
						</rate>
						<start>79282</start>
						<end>79335</end>
						<in>4</in>
						<out>57</out>
						<pproTicksIn>42378336000</pproTicksIn>
						<pproTicksOut>603891288000</pproTicksOut>
						<alphatype>none</alphatype>
						<pixelaspectratio>square</pixelaspectratio>
						<anamorphic>FALSE</anamorphic>
						<file id="file-1065">
							<name>TKO_016_JAK_Sh11140.mov</name>
							<pathurl>file://tri-stor01/Projects/TKO/SHOTS/_Refs_Movs_Burnin_FrameCounter/TKO_016_JAK_Sh11140.mov</pathurl>
							<rate>
								<timebase>24</timebase>
								<ntsc>TRUE</ntsc>
							</rate>
							<duration>61</duration>
							<timecode>
								<rate>
									<timebase>24</timebase>
									<ntsc>TRUE</ntsc>
								</rate>
								<string>18:35:14:23</string>
								<frame>1605959</frame>
								<displayformat>NDF</displayformat>
								<reel>
									<name>A0390006</name>
								</reel>
							</timecode>
							<media>
								<video>
									<samplecharacteristics>
										<rate>
											<timebase>24</timebase>
											<ntsc>TRUE</ntsc>
										</rate>
										<width>4096</width>
										<height>2160</height>
										<anamorphic>FALSE</anamorphic>
										<pixelaspectratio>square</pixelaspectratio>
										<fielddominance>none</fielddominance>
									</samplecharacteristics>
								</video>
							</media>
						</file>
						<logginginfo>
							<description></description>
							<scene></scene>
							<shottake></shottake>
							<lognote></lognote>
							<good></good>
							<originalvideofilename></originalvideofilename>
							<originalaudiofilename></originalaudiofilename>
						</logginginfo>
						<colorinfo>
							<lut></lut>
							<lut1></lut1>
							<asc_sop></asc_sop>
							<asc_sat></asc_sat>
							<lut2></lut2>
						</colorinfo>
						<labels>
							<label2>Violet</label2>
						</labels>
					</clipitem>
					<clipitem id="clipitem-1069">
						<masterclipid>masterclip-1066</masterclipid>
						<name>TKO_016_JAK_Sh11150.mov</name>
						<enabled>TRUE</enabled>
						<duration>29</duration>
						<rate>
							<timebase>24</timebase>
							<ntsc>TRUE</ntsc>
						</rate>
						<start>79335</start>
						<end>79356</end>
						<in>4</in>
						<out>25</out>
						<pproTicksIn>42378336000</pproTicksIn>
						<pproTicksOut>264864600000</pproTicksOut>
						<alphatype>none</alphatype>
						<pixelaspectratio>square</pixelaspectratio>
						<anamorphic>FALSE</anamorphic>
						<file id="file-1066">
							<name>TKO_016_JAK_Sh11150.mov</name>
							<pathurl>file://tri-stor01/Projects/TKO/SHOTS/_Refs_Movs_Burnin_FrameCounter/TKO_016_JAK_Sh11150.mov</pathurl>
							<rate>
								<timebase>24</timebase>
								<ntsc>TRUE</ntsc>
							</rate>
							<duration>29</duration>
							<timecode>
								<rate>
									<timebase>24</timebase>
									<ntsc>TRUE</ntsc>
								</rate>
								<string>15:55:43:22</string>
								<frame>1376254</frame>
								<displayformat>NDF</displayformat>
								<reel>
									<name>B0320014</name>
								</reel>
							</timecode>
							<media>
								<video>
									<samplecharacteristics>
										<rate>
											<timebase>24</timebase>
											<ntsc>TRUE</ntsc>
										</rate>
										<width>4096</width>
										<height>2160</height>
										<anamorphic>FALSE</anamorphic>
										<pixelaspectratio>square</pixelaspectratio>
										<fielddominance>none</fielddominance>
									</samplecharacteristics>
								</video>
							</media>
						</file>
						<logginginfo>
							<description></description>
							<scene></scene>
							<shottake></shottake>
							<lognote></lognote>
							<good></good>
							<originalvideofilename></originalvideofilename>
							<originalaudiofilename></originalaudiofilename>
						</logginginfo>
						<colorinfo>
							<lut></lut>
							<lut1></lut1>
							<asc_sop></asc_sop>
							<asc_sat></asc_sat>
							<lut2></lut2>
						</colorinfo>
						<labels>
							<label2>Violet</label2>
						</labels>
					</clipitem>
					<clipitem id="clipitem-1070">
						<masterclipid>masterclip-1067</masterclipid>
						<name>TKO_016_JAK_Sh11160_V02.mov</name>
						<enabled>TRUE</enabled>
						<duration>87</duration>
						<rate>
							<timebase>24</timebase>
							<ntsc>TRUE</ntsc>
						</rate>
						<start>79356</start>
						<end>79423</end>
						<in>4</in>
						<out>71</out>
						<pproTicksIn>42378336000</pproTicksIn>
						<pproTicksOut>752215464000</pproTicksOut>
						<alphatype>none</alphatype>
						<pixelaspectratio>square</pixelaspectratio>
						<anamorphic>FALSE</anamorphic>
						<file id="file-1067">
							<name>TKO_016_JAK_Sh11160_V02.mov</name>
							<pathurl>file://tri-stor01/Projects/TKO/SHOTS/_Refs_Movs_Burnin_FrameCounter/TKO_016_JAK_Sh11160_V02.mov</pathurl>
							<rate>
								<timebase>24</timebase>
								<ntsc>TRUE</ntsc>
							</rate>
							<duration>87</duration>
							<timecode>
								<rate>
									<timebase>24</timebase>
									<ntsc>TRUE</ntsc>
								</rate>
								<string>15:23:35:13</string>
								<frame>1329973</frame>
								<displayformat>NDF</displayformat>
								<reel>
									<name>A0380012</name>
								</reel>
							</timecode>
							<media>
								<video>
									<samplecharacteristics>
										<rate>
											<timebase>24</timebase>
											<ntsc>TRUE</ntsc>
										</rate>
										<width>4096</width>
										<height>2160</height>
										<anamorphic>FALSE</anamorphic>
										<pixelaspectratio>square</pixelaspectratio>
										<fielddominance>none</fielddominance>
									</samplecharacteristics>
								</video>
							</media>
						</file>
						<logginginfo>
							<description></description>
							<scene></scene>
							<shottake></shottake>
							<lognote></lognote>
							<good></good>
							<originalvideofilename></originalvideofilename>
							<originalaudiofilename></originalaudiofilename>
						</logginginfo>
						<colorinfo>
							<lut></lut>
							<lut1></lut1>
							<asc_sop></asc_sop>
							<asc_sat></asc_sat>
							<lut2></lut2>
						</colorinfo>
						<labels>
							<label2>Violet</label2>
						</labels>
					</clipitem>
					<clipitem id="clipitem-1071">
						<masterclipid>masterclip-1068</masterclipid>
						<name>TKO_016_JAK_Sh11170.mov</name>
						<enabled>TRUE</enabled>
						<duration>84</duration>
						<rate>
							<timebase>24</timebase>
							<ntsc>TRUE</ntsc>
						</rate>
						<start>79423</start>
						<end>79499</end>
						<in>4</in>
						<out>80</out>
						<pproTicksIn>42378336000</pproTicksIn>
						<pproTicksOut>847566720000</pproTicksOut>
						<alphatype>none</alphatype>
						<pixelaspectratio>square</pixelaspectratio>
						<anamorphic>FALSE</anamorphic>
						<file id="file-1068">
							<name>TKO_016_JAK_Sh11170.mov</name>
							<pathurl>file://tri-stor01/Projects/TKO/SHOTS/_Refs_Movs_Burnin_FrameCounter/TKO_016_JAK_Sh11170.mov</pathurl>
							<rate>
								<timebase>24</timebase>
								<ntsc>TRUE</ntsc>
							</rate>
							<duration>84</duration>
							<timecode>
								<rate>
									<timebase>24</timebase>
									<ntsc>TRUE</ntsc>
								</rate>
								<string>00:00:00:00</string>
								<frame>0</frame>
								<displayformat>NDF</displayformat>
							</timecode>
							<media>
								<video>
									<samplecharacteristics>
										<rate>
											<timebase>24</timebase>
											<ntsc>TRUE</ntsc>
										</rate>
										<width>4096</width>
										<height>2160</height>
										<anamorphic>FALSE</anamorphic>
										<pixelaspectratio>square</pixelaspectratio>
										<fielddominance>none</fielddominance>
									</samplecharacteristics>
								</video>
							</media>
						</file>
						<logginginfo>
							<description></description>
							<scene></scene>
							<shottake></shottake>
							<lognote></lognote>
							<good></good>
							<originalvideofilename></originalvideofilename>
							<originalaudiofilename></originalaudiofilename>
						</logginginfo>
						<colorinfo>
							<lut></lut>
							<lut1></lut1>
							<asc_sop></asc_sop>
							<asc_sat></asc_sat>
							<lut2></lut2>
						</colorinfo>
						<labels>
							<label2>Violet</label2>
						</labels>
					</clipitem>
					<clipitem id="clipitem-1072">
						<masterclipid>masterclip-1069</masterclipid>
						<name>TKO_016_JAK_Sh11180.mov</name>
						<enabled>TRUE</enabled>
						<duration>33</duration>
						<rate>
							<timebase>24</timebase>
							<ntsc>TRUE</ntsc>
						</rate>
						<start>79499</start>
						<end>79524</end>
						<in>4</in>
						<out>29</out>
						<pproTicksIn>42378336000</pproTicksIn>
						<pproTicksOut>307242936000</pproTicksOut>
						<alphatype>none</alphatype>
						<pixelaspectratio>square</pixelaspectratio>
						<anamorphic>FALSE</anamorphic>
						<file id="file-1069">
							<name>TKO_016_JAK_Sh11180.mov</name>
							<pathurl>file://tri-stor01/Projects/TKO/SHOTS/_Refs_Movs_Burnin_FrameCounter/TKO_016_JAK_Sh11180.mov</pathurl>
							<rate>
								<timebase>24</timebase>
								<ntsc>TRUE</ntsc>
							</rate>
							<duration>33</duration>
							<timecode>
								<rate>
									<timebase>24</timebase>
									<ntsc>TRUE</ntsc>
								</rate>
								<string>16:08:20:01</string>
								<frame>1394401</frame>
								<displayformat>NDF</displayformat>
								<reel>
									<name>B0320016</name>
								</reel>
							</timecode>
							<media>
								<video>
									<samplecharacteristics>
										<rate>
											<timebase>24</timebase>
											<ntsc>TRUE</ntsc>
										</rate>
										<width>4096</width>
										<height>2160</height>
										<anamorphic>FALSE</anamorphic>
										<pixelaspectratio>square</pixelaspectratio>
										<fielddominance>none</fielddominance>
									</samplecharacteristics>
								</video>
							</media>
						</file>
						<logginginfo>
							<description></description>
							<scene></scene>
							<shottake></shottake>
							<lognote></lognote>
							<good></good>
							<originalvideofilename></originalvideofilename>
							<originalaudiofilename></originalaudiofilename>
						</logginginfo>
						<colorinfo>
							<lut></lut>
							<lut1></lut1>
							<asc_sop></asc_sop>
							<asc_sat></asc_sat>
							<lut2></lut2>
						</colorinfo>
						<labels>
							<label2>Violet</label2>
						</labels>
					</clipitem>
					<clipitem id="clipitem-1073">
						<masterclipid>masterclip-1070</masterclipid>
						<name>TKO_016_JAK_Sh11190_V02.mov</name>
						<enabled>TRUE</enabled>
						<duration>39</duration>
						<rate>
							<timebase>24</timebase>
							<ntsc>TRUE</ntsc>
						</rate>
						<start>79524</start>
						<end>79543</end>
						<in>4</in>
						<out>23</out>
						<pproTicksIn>42378336000</pproTicksIn>
						<pproTicksOut>243675432000</pproTicksOut>
						<alphatype>none</alphatype>
						<pixelaspectratio>square</pixelaspectratio>
						<anamorphic>FALSE</anamorphic>
						<file id="file-1070">
							<name>TKO_016_JAK_Sh11190_V02.mov</name>
							<pathurl>file://tri-stor01/Projects/TKO/SHOTS/_Refs_Movs_Burnin_FrameCounter/TKO_016_JAK_Sh11190_V02.mov</pathurl>
							<rate>
								<timebase>24</timebase>
								<ntsc>TRUE</ntsc>
							</rate>
							<duration>39</duration>
							<timecode>
								<rate>
									<timebase>24</timebase>
									<ntsc>TRUE</ntsc>
								</rate>
								<string>16:08:20:04</string>
								<frame>1394404</frame>
								<displayformat>NDF</displayformat>
								<reel>
									<name>A0380015</name>
								</reel>
							</timecode>
							<media>
								<video>
									<samplecharacteristics>
										<rate>
											<timebase>24</timebase>
											<ntsc>TRUE</ntsc>
										</rate>
										<width>4096</width>
										<height>2160</height>
										<anamorphic>FALSE</anamorphic>
										<pixelaspectratio>square</pixelaspectratio>
										<fielddominance>none</fielddominance>
									</samplecharacteristics>
								</video>
							</media>
						</file>
						<logginginfo>
							<description></description>
							<scene></scene>
							<shottake></shottake>
							<lognote></lognote>
							<good></good>
							<originalvideofilename></originalvideofilename>
							<originalaudiofilename></originalaudiofilename>
						</logginginfo>
						<colorinfo>
							<lut></lut>
							<lut1></lut1>
							<asc_sop></asc_sop>
							<asc_sat></asc_sat>
							<lut2></lut2>
						</colorinfo>
						<labels>
							<label2>Violet</label2>
						</labels>
					</clipitem>
					<clipitem id="clipitem-1074">
						<masterclipid>masterclip-1071</masterclipid>
						<name>TKO_016_JAK_Sh11200_V02.mov</name>
						<enabled>TRUE</enabled>
						<duration>32</duration>
						<rate>
							<timebase>24</timebase>
							<ntsc>TRUE</ntsc>
						</rate>
						<start>79543</start>
						<end>79555</end>
						<in>4</in>
						<out>16</out>
						<pproTicksIn>42378336000</pproTicksIn>
						<pproTicksOut>169513344000</pproTicksOut>
						<alphatype>none</alphatype>
						<pixelaspectratio>square</pixelaspectratio>
						<anamorphic>FALSE</anamorphic>
						<file id="file-1071">
							<name>TKO_016_JAK_Sh11200_V02.mov</name>
							<pathurl>file://tri-stor01/Projects/TKO/SHOTS/_Refs_Movs_Burnin_FrameCounter/TKO_016_JAK_Sh11200_V02.mov</pathurl>
							<rate>
								<timebase>24</timebase>
								<ntsc>TRUE</ntsc>
							</rate>
							<duration>32</duration>
							<timecode>
								<rate>
									<timebase>24</timebase>
									<ntsc>TRUE</ntsc>
								</rate>
								<string>15:23:42:22</string>
								<frame>1330150</frame>
								<displayformat>NDF</displayformat>
								<reel>
									<name>A0380012</name>
								</reel>
							</timecode>
							<media>
								<video>
									<samplecharacteristics>
										<rate>
											<timebase>24</timebase>
											<ntsc>TRUE</ntsc>
										</rate>
										<width>4096</width>
										<height>2160</height>
										<anamorphic>FALSE</anamorphic>
										<pixelaspectratio>square</pixelaspectratio>
										<fielddominance>none</fielddominance>
									</samplecharacteristics>
								</video>
							</media>
						</file>
						<logginginfo>
							<description></description>
							<scene></scene>
							<shottake></shottake>
							<lognote></lognote>
							<good></good>
							<originalvideofilename></originalvideofilename>
							<originalaudiofilename></originalaudiofilename>
						</logginginfo>
						<colorinfo>
							<lut></lut>
							<lut1></lut1>
							<asc_sop></asc_sop>
							<asc_sat></asc_sat>
							<lut2></lut2>
						</colorinfo>
						<labels>
							<label2>Violet</label2>
						</labels>
					</clipitem>
					<clipitem id="clipitem-1075">
						<masterclipid>masterclip-1072</masterclipid>
						<name>Grenade_JAK_SH11230.mp4</name>
						<enabled>TRUE</enabled>
						<duration>32</duration>
						<rate>
							<timebase>24</timebase>
							<ntsc>TRUE</ntsc>
						</rate>
						<start>79555</start>
						<end>79579</end>
						<in>4</in>
						<out>28</out>
						<pproTicksIn>42378336000</pproTicksIn>
						<pproTicksOut>296648352000</pproTicksOut>
						<alphatype>none</alphatype>
						<pixelaspectratio>square</pixelaspectratio>
						<anamorphic>FALSE</anamorphic>
						<file id="file-1072">
							<name>Grenade_JAK_SH11230.mp4</name>
							<pathurl>file://localhost/W%3a/TKO/SHOTS/TKO_016_JAK/TKO_016_JAK_Sh11230/PLATES/Grenade_JAK_SH11230.mp4</pathurl>
							<rate>
								<timebase>24</timebase>
								<ntsc>FALSE</ntsc>
							</rate>
							<duration>33</duration>
							<timecode>
								<rate>
									<timebase>24</timebase>
									<ntsc>FALSE</ntsc>
								</rate>
								<string>00:00:00:00</string>
								<frame>0</frame>
								<displayformat>NDF</displayformat>
							</timecode>
							<media>
								<video>
									<samplecharacteristics>
										<rate>
											<timebase>24</timebase>
											<ntsc>FALSE</ntsc>
										</rate>
										<width>960</width>
										<height>540</height>
										<anamorphic>FALSE</anamorphic>
										<pixelaspectratio>square</pixelaspectratio>
										<fielddominance>none</fielddominance>
									</samplecharacteristics>
								</video>
							</media>
						</file>
						<logginginfo>
							<description></description>
							<scene></scene>
							<shottake></shottake>
							<lognote></lognote>
							<good></good>
							<originalvideofilename></originalvideofilename>
							<originalaudiofilename></originalaudiofilename>
						</logginginfo>
						<colorinfo>
							<lut></lut>
							<lut1></lut1>
							<asc_sop></asc_sop>
							<asc_sat></asc_sat>
							<lut2></lut2>
						</colorinfo>
						<labels>
							<label2>Violet</label2>
						</labels>
					</clipitem>
					<clipitem id="clipitem-1076">
						<masterclipid>masterclip-1073</masterclipid>
						<name>TKO_016_JAK_Sh11240.mov</name>
						<enabled>TRUE</enabled>
						<duration>47</duration>
						<rate>
							<timebase>24</timebase>
							<ntsc>TRUE</ntsc>
						</rate>
						<start>79579</start>
						<end>79602</end>
						<in>20</in>
						<out>43</out>
						<pproTicksIn>211891680000</pproTicksIn>
						<pproTicksOut>455567112000</pproTicksOut>
						<alphatype>none</alphatype>
						<pixelaspectratio>square</pixelaspectratio>
						<anamorphic>FALSE</anamorphic>
						<file id="file-1073">
							<name>TKO_016_JAK_Sh11240.mov</name>
							<pathurl>file://tri-stor01/Projects/TKO/SHOTS/_Refs_Movs_Burnin_FrameCounter/TKO_016_JAK_Sh11240.mov</pathurl>
							<rate>
								<timebase>24</timebase>
								<ntsc>TRUE</ntsc>
							</rate>
							<duration>47</duration>
							<timecode>
								<rate>
									<timebase>24</timebase>
									<ntsc>TRUE</ntsc>
								</rate>
								<string>12:09:09:13</string>
								<frame>1049989</frame>
								<displayformat>NDF</displayformat>
								<reel>
									<name>C0280004</name>
								</reel>
							</timecode>
							<media>
								<video>
									<samplecharacteristics>
										<rate>
											<timebase>24</timebase>
											<ntsc>TRUE</ntsc>
										</rate>
										<width>3840</width>
										<height>2160</height>
										<anamorphic>FALSE</anamorphic>
										<pixelaspectratio>square</pixelaspectratio>
										<fielddominance>none</fielddominance>
									</samplecharacteristics>
								</video>
							</media>
						</file>
						<logginginfo>
							<description></description>
							<scene></scene>
							<shottake></shottake>
							<lognote></lognote>
							<good></good>
							<originalvideofilename></originalvideofilename>
							<originalaudiofilename></originalaudiofilename>
						</logginginfo>
						<colorinfo>
							<lut></lut>
							<lut1></lut1>
							<asc_sop></asc_sop>
							<asc_sat></asc_sat>
							<lut2></lut2>
						</colorinfo>
						<labels>
							<label2>Violet</label2>
						</labels>
					</clipitem>
					<clipitem id="clipitem-1077">
						<masterclipid>masterclip-1074</masterclipid>
						<name>TKO_016_JAK_Sh11250.mov</name>
						<enabled>TRUE</enabled>
						<duration>35</duration>
						<rate>
							<timebase>24</timebase>
							<ntsc>TRUE</ntsc>
						</rate>
						<start>79602</start>
						<end>79629</end>
						<in>4</in>
						<out>31</out>
						<pproTicksIn>42378336000</pproTicksIn>
						<pproTicksOut>328432104000</pproTicksOut>
						<alphatype>none</alphatype>
						<pixelaspectratio>square</pixelaspectratio>
						<anamorphic>FALSE</anamorphic>
						<file id="file-1074">
							<name>TKO_016_JAK_Sh11250.mov</name>
							<pathurl>file://tri-stor01/Projects/TKO/SHOTS/_Refs_Movs_Burnin_FrameCounter/TKO_016_JAK_Sh11250.mov</pathurl>
							<rate>
								<timebase>24</timebase>
								<ntsc>TRUE</ntsc>
							</rate>
							<duration>35</duration>
							<timecode>
								<rate>
									<timebase>24</timebase>
									<ntsc>TRUE</ntsc>
								</rate>
								<string>18:35:32:07</string>
								<frame>1606375</frame>
								<displayformat>NDF</displayformat>
								<reel>
									<name>A0390006</name>
								</reel>
							</timecode>
							<media>
								<video>
									<samplecharacteristics>
										<rate>
											<timebase>24</timebase>
											<ntsc>TRUE</ntsc>
										</rate>
										<width>4096</width>
										<height>2160</height>
										<anamorphic>FALSE</anamorphic>
										<pixelaspectratio>square</pixelaspectratio>
										<fielddominance>none</fielddominance>
									</samplecharacteristics>
								</video>
							</media>
						</file>
						<logginginfo>
							<description></description>
							<scene></scene>
							<shottake></shottake>
							<lognote></lognote>
							<good></good>
							<originalvideofilename></originalvideofilename>
							<originalaudiofilename></originalaudiofilename>
						</logginginfo>
						<colorinfo>
							<lut></lut>
							<lut1></lut1>
							<asc_sop></asc_sop>
							<asc_sat></asc_sat>
							<lut2></lut2>
						</colorinfo>
						<labels>
							<label2>Violet</label2>
						</labels>
					</clipitem>
					<clipitem id="clipitem-1078">
						<masterclipid>masterclip-1075</masterclipid>
						<name>TKO_017_SIX_Sh11260.mov</name>
						<enabled>TRUE</enabled>
						<duration>79</duration>
						<rate>
							<timebase>24</timebase>
							<ntsc>TRUE</ntsc>
						</rate>
						<start>79629</start>
						<end>79700</end>
						<in>4</in>
						<out>75</out>
						<pproTicksIn>42378336000</pproTicksIn>
						<pproTicksOut>794593800000</pproTicksOut>
						<alphatype>none</alphatype>
						<pixelaspectratio>square</pixelaspectratio>
						<anamorphic>FALSE</anamorphic>
						<file id="file-1075">
							<name>TKO_017_SIX_Sh11260.mov</name>
							<pathurl>file://tri-stor01/Projects/TKO/SHOTS/_Refs_Movs_Burnin_FrameCounter/TKO_017_SIX_Sh11260.mov</pathurl>
							<rate>
								<timebase>24</timebase>
								<ntsc>TRUE</ntsc>
							</rate>
							<duration>79</duration>
							<timecode>
								<rate>
									<timebase>24</timebase>
									<ntsc>TRUE</ntsc>
								</rate>
								<string>05:38:02:06</string>
								<frame>486774</frame>
								<displayformat>NDF</displayformat>
								<reel>
									<name>B0470022</name>
								</reel>
							</timecode>
							<media>
								<video>
									<samplecharacteristics>
										<rate>
											<timebase>24</timebase>
											<ntsc>TRUE</ntsc>
										</rate>
										<width>4096</width>
										<height>2160</height>
										<anamorphic>FALSE</anamorphic>
										<pixelaspectratio>square</pixelaspectratio>
										<fielddominance>none</fielddominance>
									</samplecharacteristics>
								</video>
							</media>
						</file>
						<logginginfo>
							<description></description>
							<scene></scene>
							<shottake></shottake>
							<lognote></lognote>
							<good></good>
							<originalvideofilename></originalvideofilename>
							<originalaudiofilename></originalaudiofilename>
						</logginginfo>
						<colorinfo>
							<lut></lut>
							<lut1></lut1>
							<asc_sop></asc_sop>
							<asc_sat></asc_sat>
							<lut2></lut2>
						</colorinfo>
						<labels>
							<label2>Violet</label2>
						</labels>
					</clipitem>
					<clipitem id="clipitem-1079">
						<masterclipid>masterclip-1076</masterclipid>
						<name>TKO_017_SIX_Sh11270_MERGED.mov</name>
						<enabled>TRUE</enabled>
						<duration>262</duration>
						<rate>
							<timebase>24</timebase>
							<ntsc>TRUE</ntsc>
						</rate>
						<start>79700</start>
						<end>79954</end>
						<in>4</in>
						<out>258</out>
						<pproTicksIn>42378336000</pproTicksIn>
						<pproTicksOut>2733402672000</pproTicksOut>
						<alphatype>none</alphatype>
						<pixelaspectratio>square</pixelaspectratio>
						<anamorphic>FALSE</anamorphic>
						<file id="file-1076">
							<name>TKO_017_SIX_Sh11270_MERGED.mov</name>
							<pathurl>file://tri-stor01/Projects/TKO/SHOTS/_Refs_Movs_Burnin_FrameCounter/TKO_017_SIX_Sh11270_MERGED.mov</pathurl>
							<rate>
								<timebase>24</timebase>
								<ntsc>TRUE</ntsc>
							</rate>
							<duration>262</duration>
							<timecode>
								<rate>
									<timebase>24</timebase>
									<ntsc>TRUE</ntsc>
								</rate>
								<string>00:00:00:00</string>
								<frame>0</frame>
								<displayformat>NDF</displayformat>
							</timecode>
							<media>
								<video>
									<samplecharacteristics>
										<rate>
											<timebase>24</timebase>
											<ntsc>TRUE</ntsc>
										</rate>
										<width>1920</width>
										<height>1080</height>
										<anamorphic>FALSE</anamorphic>
										<pixelaspectratio>square</pixelaspectratio>
										<fielddominance>none</fielddominance>
									</samplecharacteristics>
								</video>
								<audio>
									<samplecharacteristics>
										<depth>16</depth>
										<samplerate>48000</samplerate>
									</samplecharacteristics>
									<channelcount>2</channelcount>
								</audio>
							</media>
						</file>
						<logginginfo>
							<description></description>
							<scene></scene>
							<shottake></shottake>
							<lognote></lognote>
							<good></good>
							<originalvideofilename></originalvideofilename>
							<originalaudiofilename></originalaudiofilename>
						</logginginfo>
						<colorinfo>
							<lut></lut>
							<lut1></lut1>
							<asc_sop></asc_sop>
							<asc_sat></asc_sat>
							<lut2></lut2>
						</colorinfo>
						<labels>
							<label2>Iris</label2>
						</labels>
					</clipitem>
					<clipitem id="clipitem-1080">
						<masterclipid>masterclip-1077</masterclipid>
						<name>TKO_017_SIX_Sh11280.mov</name>
						<enabled>TRUE</enabled>
						<duration>346</duration>
						<rate>
							<timebase>24</timebase>
							<ntsc>TRUE</ntsc>
						</rate>
						<start>79954</start>
						<end>80292</end>
						<in>4</in>
						<out>342</out>
						<pproTicksIn>42378336000</pproTicksIn>
						<pproTicksOut>3623347728000</pproTicksOut>
						<alphatype>none</alphatype>
						<pixelaspectratio>square</pixelaspectratio>
						<anamorphic>FALSE</anamorphic>
						<file id="file-1077">
							<name>TKO_017_SIX_Sh11280.mov</name>
							<pathurl>file://tri-stor01/Projects/TKO/SHOTS/_Refs_Movs_Burnin_FrameCounter/TKO_017_SIX_Sh11280.mov</pathurl>
							<rate>
								<timebase>24</timebase>
								<ntsc>TRUE</ntsc>
							</rate>
							<duration>346</duration>
							<timecode>
								<rate>
									<timebase>24</timebase>
									<ntsc>TRUE</ntsc>
								</rate>
								<string>19:22:55:17</string>
								<frame>1674617</frame>
								<displayformat>NDF</displayformat>
								<reel>
									<name>B0240007</name>
								</reel>
							</timecode>
							<media>
								<video>
									<samplecharacteristics>
										<rate>
											<timebase>24</timebase>
											<ntsc>TRUE</ntsc>
										</rate>
										<width>4096</width>
										<height>2160</height>
										<anamorphic>FALSE</anamorphic>
										<pixelaspectratio>square</pixelaspectratio>
										<fielddominance>none</fielddominance>
									</samplecharacteristics>
								</video>
							</media>
						</file>
						<logginginfo>
							<description></description>
							<scene></scene>
							<shottake></shottake>
							<lognote></lognote>
							<good></good>
							<originalvideofilename></originalvideofilename>
							<originalaudiofilename></originalaudiofilename>
						</logginginfo>
						<colorinfo>
							<lut></lut>
							<lut1></lut1>
							<asc_sop></asc_sop>
							<asc_sat></asc_sat>
							<lut2></lut2>
						</colorinfo>
						<labels>
							<label2>Violet</label2>
						</labels>
					</clipitem>
					<clipitem id="clipitem-1081">
						<masterclipid>masterclip-1078</masterclipid>
						<name>TKO_017_SIX_Sh11290_MERGED.mov</name>
						<enabled>TRUE</enabled>
						<duration>115</duration>
						<rate>
							<timebase>24</timebase>
							<ntsc>TRUE</ntsc>
						</rate>
						<start>80292</start>
						<end>80399</end>
						<in>4</in>
						<out>111</out>
						<pproTicksIn>42378336000</pproTicksIn>
						<pproTicksOut>1175998824000</pproTicksOut>
						<alphatype>none</alphatype>
						<pixelaspectratio>square</pixelaspectratio>
						<anamorphic>FALSE</anamorphic>
						<file id="file-1078">
							<name>TKO_017_SIX_Sh11290_MERGED.mov</name>
							<pathurl>file://tri-stor01/Projects/TKO/SHOTS/_Refs_Movs_Burnin_FrameCounter/TKO_017_SIX_Sh11290_MERGED.mov</pathurl>
							<rate>
								<timebase>24</timebase>
								<ntsc>TRUE</ntsc>
							</rate>
							<duration>115</duration>
							<timecode>
								<rate>
									<timebase>24</timebase>
									<ntsc>TRUE</ntsc>
								</rate>
								<string>00:00:00:00</string>
								<frame>0</frame>
								<displayformat>NDF</displayformat>
							</timecode>
							<media>
								<video>
									<samplecharacteristics>
										<rate>
											<timebase>24</timebase>
											<ntsc>TRUE</ntsc>
										</rate>
										<width>1920</width>
										<height>1080</height>
										<anamorphic>FALSE</anamorphic>
										<pixelaspectratio>square</pixelaspectratio>
										<fielddominance>none</fielddominance>
									</samplecharacteristics>
								</video>
								<audio>
									<samplecharacteristics>
										<depth>16</depth>
										<samplerate>48000</samplerate>
									</samplecharacteristics>
									<channelcount>2</channelcount>
								</audio>
							</media>
						</file>
						<logginginfo>
							<description></description>
							<scene></scene>
							<shottake></shottake>
							<lognote></lognote>
							<good></good>
							<originalvideofilename></originalvideofilename>
							<originalaudiofilename></originalaudiofilename>
						</logginginfo>
						<colorinfo>
							<lut></lut>
							<lut1></lut1>
							<asc_sop></asc_sop>
							<asc_sat></asc_sat>
							<lut2></lut2>
						</colorinfo>
						<labels>
							<label2>Iris</label2>
						</labels>
					</clipitem>
					<clipitem id="clipitem-1082">
						<masterclipid>masterclip-1079</masterclipid>
						<name>TKO_017_SIX_Sh11300.mov</name>
						<enabled>TRUE</enabled>
						<duration>360</duration>
						<rate>
							<timebase>24</timebase>
							<ntsc>TRUE</ntsc>
						</rate>
						<start>80399</start>
						<end>80751</end>
						<in>4</in>
						<out>356</out>
						<pproTicksIn>42378336000</pproTicksIn>
						<pproTicksOut>3771671904000</pproTicksOut>
						<alphatype>none</alphatype>
						<pixelaspectratio>square</pixelaspectratio>
						<anamorphic>FALSE</anamorphic>
						<file id="file-1079">
							<name>TKO_017_SIX_Sh11300.mov</name>
							<pathurl>file://tri-stor01/Projects/TKO/SHOTS/_Refs_Movs_Burnin_FrameCounter/TKO_017_SIX_Sh11300.mov</pathurl>
							<rate>
								<timebase>24</timebase>
								<ntsc>TRUE</ntsc>
							</rate>
							<duration>360</duration>
							<timecode>
								<rate>
									<timebase>24</timebase>
									<ntsc>TRUE</ntsc>
								</rate>
								<string>19:23:15:05</string>
								<frame>1675085</frame>
								<displayformat>NDF</displayformat>
								<reel>
									<name>B0240007</name>
								</reel>
							</timecode>
							<media>
								<video>
									<samplecharacteristics>
										<rate>
											<timebase>24</timebase>
											<ntsc>TRUE</ntsc>
										</rate>
										<width>4096</width>
										<height>2160</height>
										<anamorphic>FALSE</anamorphic>
										<pixelaspectratio>square</pixelaspectratio>
										<fielddominance>none</fielddominance>
									</samplecharacteristics>
								</video>
							</media>
						</file>
						<logginginfo>
							<description></description>
							<scene></scene>
							<shottake></shottake>
							<lognote></lognote>
							<good></good>
							<originalvideofilename></originalvideofilename>
							<originalaudiofilename></originalaudiofilename>
						</logginginfo>
						<colorinfo>
							<lut></lut>
							<lut1></lut1>
							<asc_sop></asc_sop>
							<asc_sat></asc_sat>
							<lut2></lut2>
						</colorinfo>
						<labels>
							<label2>Violet</label2>
						</labels>
					</clipitem>
					<clipitem id="clipitem-1083">
						<masterclipid>masterclip-1080</masterclipid>
						<name>TKO_017_SIX_Sh11310.mov</name>
						<enabled>TRUE</enabled>
						<duration>196</duration>
						<rate>
							<timebase>24</timebase>
							<ntsc>TRUE</ntsc>
						</rate>
						<start>80751</start>
						<end>80939</end>
						<in>4</in>
						<out>192</out>
						<pproTicksIn>42378336000</pproTicksIn>
						<pproTicksOut>2034160128000</pproTicksOut>
						<alphatype>none</alphatype>
						<pixelaspectratio>square</pixelaspectratio>
						<anamorphic>FALSE</anamorphic>
						<file id="file-1080">
							<name>TKO_017_SIX_Sh11310.mov</name>
							<pathurl>file://tri-stor01/Projects/TKO/SHOTS/_Refs_Movs_Burnin_FrameCounter/TKO_017_SIX_Sh11310.mov</pathurl>
							<rate>
								<timebase>24</timebase>
								<ntsc>TRUE</ntsc>
							</rate>
							<duration>196</duration>
							<timecode>
								<rate>
									<timebase>24</timebase>
									<ntsc>TRUE</ntsc>
								</rate>
								<string>19:49:37:09</string>
								<frame>1713057</frame>
								<displayformat>NDF</displayformat>
								<reel>
									<name>B0240009</name>
								</reel>
							</timecode>
							<media>
								<video>
									<samplecharacteristics>
										<rate>
											<timebase>24</timebase>
											<ntsc>TRUE</ntsc>
										</rate>
										<width>4096</width>
										<height>2160</height>
										<anamorphic>FALSE</anamorphic>
										<pixelaspectratio>square</pixelaspectratio>
										<fielddominance>none</fielddominance>
									</samplecharacteristics>
								</video>
							</media>
						</file>
						<logginginfo>
							<description></description>
							<scene></scene>
							<shottake></shottake>
							<lognote></lognote>
							<good></good>
							<originalvideofilename></originalvideofilename>
							<originalaudiofilename></originalaudiofilename>
						</logginginfo>
						<colorinfo>
							<lut></lut>
							<lut1></lut1>
							<asc_sop></asc_sop>
							<asc_sat></asc_sat>
							<lut2></lut2>
						</colorinfo>
						<labels>
							<label2>Violet</label2>
						</labels>
					</clipitem>
					<clipitem id="clipitem-1084">
						<masterclipid>masterclip-1081</masterclipid>
						<name>TKO_017_SIX_Sh11320_COMP_V04.mov</name>
						<enabled>TRUE</enabled>
						<duration>53</duration>
						<rate>
							<timebase>24</timebase>
							<ntsc>TRUE</ntsc>
						</rate>
						<start>80939</start>
						<end>80984</end>
						<in>4</in>
						<out>49</out>
						<pproTicksIn>42378336000</pproTicksIn>
						<pproTicksOut>519134616000</pproTicksOut>
						<alphatype>none</alphatype>
						<pixelaspectratio>square</pixelaspectratio>
						<anamorphic>FALSE</anamorphic>
						<file id="file-1081">
							<name>TKO_017_SIX_Sh11320_COMP_V04.mov</name>
							<pathurl>file://localhost/W%3a/TKO/SHOTS/TKO_017_SIX/TKO_017_SIX_Sh11320/COMP/V04/TKO_017_SIX_Sh11320_COMP_V04.mov</pathurl>
							<rate>
								<timebase>24</timebase>
								<ntsc>TRUE</ntsc>
							</rate>
							<duration>53</duration>
							<timecode>
								<rate>
									<timebase>24</timebase>
									<ntsc>TRUE</ntsc>
								</rate>
								<string>00:00:00:00</string>
								<frame>0</frame>
								<displayformat>NDF</displayformat>
								<reel>
									<name>B0270001</name>
								</reel>
							</timecode>
							<media>
								<video>
									<samplecharacteristics>
										<rate>
											<timebase>24</timebase>
											<ntsc>TRUE</ntsc>
										</rate>
										<width>4096</width>
										<height>2160</height>
										<anamorphic>FALSE</anamorphic>
										<pixelaspectratio>square</pixelaspectratio>
										<fielddominance>none</fielddominance>
									</samplecharacteristics>
								</video>
							</media>
						</file>
						<logginginfo>
							<description></description>
							<scene></scene>
							<shottake></shottake>
							<lognote></lognote>
							<good></good>
							<originalvideofilename></originalvideofilename>
							<originalaudiofilename></originalaudiofilename>
						</logginginfo>
						<colorinfo>
							<lut></lut>
							<lut1></lut1>
							<asc_sop></asc_sop>
							<asc_sat></asc_sat>
							<lut2></lut2>
						</colorinfo>
						<labels>
							<label2>Violet</label2>
						</labels>
					</clipitem>
					<clipitem id="clipitem-1085">
						<masterclipid>masterclip-1082</masterclipid>
						<name>TKO_017_SIX_Sh11330.mov</name>
						<enabled>TRUE</enabled>
						<duration>154</duration>
						<rate>
							<timebase>24</timebase>
							<ntsc>TRUE</ntsc>
						</rate>
						<start>80984</start>
						<end>81130</end>
						<in>4</in>
						<out>150</out>
						<pproTicksIn>42378336000</pproTicksIn>
						<pproTicksOut>1589187600000</pproTicksOut>
						<alphatype>none</alphatype>
						<pixelaspectratio>square</pixelaspectratio>
						<anamorphic>FALSE</anamorphic>
						<file id="file-1082">
							<name>TKO_017_SIX_Sh11330.mov</name>
							<pathurl>file://tri-stor01/Projects/TKO/SHOTS/_Refs_Movs_Burnin_FrameCounter/TKO_017_SIX_Sh11330.mov</pathurl>
							<rate>
								<timebase>24</timebase>
								<ntsc>TRUE</ntsc>
							</rate>
							<duration>154</duration>
							<timecode>
								<rate>
									<timebase>24</timebase>
									<ntsc>TRUE</ntsc>
								</rate>
								<string>19:49:48:16</string>
								<frame>1713328</frame>
								<displayformat>NDF</displayformat>
								<reel>
									<name>B0240009</name>
								</reel>
							</timecode>
							<media>
								<video>
									<samplecharacteristics>
										<rate>
											<timebase>24</timebase>
											<ntsc>TRUE</ntsc>
										</rate>
										<width>4096</width>
										<height>2160</height>
										<anamorphic>FALSE</anamorphic>
										<pixelaspectratio>square</pixelaspectratio>
										<fielddominance>none</fielddominance>
									</samplecharacteristics>
								</video>
							</media>
						</file>
						<logginginfo>
							<description></description>
							<scene></scene>
							<shottake></shottake>
							<lognote></lognote>
							<good></good>
							<originalvideofilename></originalvideofilename>
							<originalaudiofilename></originalaudiofilename>
						</logginginfo>
						<colorinfo>
							<lut></lut>
							<lut1></lut1>
							<asc_sop></asc_sop>
							<asc_sat></asc_sat>
							<lut2></lut2>
						</colorinfo>
						<labels>
							<label2>Violet</label2>
						</labels>
					</clipitem>
					<clipitem id="clipitem-1086">
						<masterclipid>masterclip-1083</masterclipid>
						<name>TKO_017_SIX_Sh11340_V02.mov</name>
						<enabled>TRUE</enabled>
						<duration>83</duration>
						<rate>
							<timebase>24</timebase>
							<ntsc>TRUE</ntsc>
						</rate>
						<start>81130</start>
						<end>81199</end>
						<in>11</in>
						<out>80</out>
						<pproTicksIn>116540424000</pproTicksIn>
						<pproTicksOut>847566720000</pproTicksOut>
						<alphatype>none</alphatype>
						<pixelaspectratio>square</pixelaspectratio>
						<anamorphic>FALSE</anamorphic>
						<file id="file-1083">
							<name>TKO_017_SIX_Sh11340_V02.mov</name>
							<pathurl>file://tri-stor01/Projects/TKO/SHOTS/_Refs_Movs_Burnin_FrameCounter/TKO_017_SIX_Sh11340_V02.mov</pathurl>
							<rate>
								<timebase>24</timebase>
								<ntsc>TRUE</ntsc>
							</rate>
							<duration>83</duration>
							<timecode>
								<rate>
									<timebase>24</timebase>
									<ntsc>TRUE</ntsc>
								</rate>
								<string>10:26:25:10</string>
								<frame>902050</frame>
								<displayformat>NDF</displayformat>
								<reel>
									<name>A0330003</name>
								</reel>
							</timecode>
							<media>
								<video>
									<samplecharacteristics>
										<rate>
											<timebase>24</timebase>
											<ntsc>TRUE</ntsc>
										</rate>
										<width>4096</width>
										<height>2160</height>
										<anamorphic>FALSE</anamorphic>
										<pixelaspectratio>square</pixelaspectratio>
										<fielddominance>none</fielddominance>
									</samplecharacteristics>
								</video>
							</media>
						</file>
						<logginginfo>
							<description></description>
							<scene></scene>
							<shottake></shottake>
							<lognote></lognote>
							<good></good>
							<originalvideofilename></originalvideofilename>
							<originalaudiofilename></originalaudiofilename>
						</logginginfo>
						<colorinfo>
							<lut></lut>
							<lut1></lut1>
							<asc_sop></asc_sop>
							<asc_sat></asc_sat>
							<lut2></lut2>
						</colorinfo>
						<labels>
							<label2>Violet</label2>
						</labels>
					</clipitem>
					<clipitem id="clipitem-1087">
						<masterclipid>masterclip-1084</masterclipid>
						<name>TKO_017_SIX_Sh11350.mov</name>
						<enabled>TRUE</enabled>
						<duration>148</duration>
						<rate>
							<timebase>24</timebase>
							<ntsc>TRUE</ntsc>
						</rate>
						<start>81199</start>
						<end>81339</end>
						<in>4</in>
						<out>144</out>
						<pproTicksIn>42378336000</pproTicksIn>
						<pproTicksOut>1525620096000</pproTicksOut>
						<alphatype>none</alphatype>
						<pixelaspectratio>square</pixelaspectratio>
						<anamorphic>FALSE</anamorphic>
						<file id="file-1084">
							<name>TKO_017_SIX_Sh11350.mov</name>
							<pathurl>file://tri-stor01/Projects/TKO/SHOTS/_Refs_Movs_Burnin_FrameCounter/TKO_017_SIX_Sh11350.mov</pathurl>
							<rate>
								<timebase>24</timebase>
								<ntsc>TRUE</ntsc>
							</rate>
							<duration>148</duration>
							<timecode>
								<rate>
									<timebase>24</timebase>
									<ntsc>TRUE</ntsc>
								</rate>
								<string>19:49:57:15</string>
								<frame>1713543</frame>
								<displayformat>NDF</displayformat>
								<reel>
									<name>B0240009</name>
								</reel>
							</timecode>
							<media>
								<video>
									<samplecharacteristics>
										<rate>
											<timebase>24</timebase>
											<ntsc>TRUE</ntsc>
										</rate>
										<width>4096</width>
										<height>2160</height>
										<anamorphic>FALSE</anamorphic>
										<pixelaspectratio>square</pixelaspectratio>
										<fielddominance>none</fielddominance>
									</samplecharacteristics>
								</video>
							</media>
						</file>
						<logginginfo>
							<description></description>
							<scene></scene>
							<shottake></shottake>
							<lognote></lognote>
							<good></good>
							<originalvideofilename></originalvideofilename>
							<originalaudiofilename></originalaudiofilename>
						</logginginfo>
						<colorinfo>
							<lut></lut>
							<lut1></lut1>
							<asc_sop></asc_sop>
							<asc_sat></asc_sat>
							<lut2></lut2>
						</colorinfo>
						<labels>
							<label2>Violet</label2>
						</labels>
					</clipitem>
					<clipitem id="clipitem-1088">
						<masterclipid>masterclip-1085</masterclipid>
						<name>TKO_017_SIX_Sh11360.mov</name>
						<enabled>TRUE</enabled>
						<duration>106</duration>
						<rate>
							<timebase>24</timebase>
							<ntsc>TRUE</ntsc>
						</rate>
						<start>81339</start>
						<end>81437</end>
						<in>4</in>
						<out>102</out>
						<pproTicksIn>42378336000</pproTicksIn>
						<pproTicksOut>1080647568000</pproTicksOut>
						<alphatype>none</alphatype>
						<pixelaspectratio>square</pixelaspectratio>
						<anamorphic>FALSE</anamorphic>
						<file id="file-1085">
							<name>TKO_017_SIX_Sh11360.mov</name>
							<pathurl>file://tri-stor01/Projects/TKO/SHOTS/_Refs_Movs_Burnin_FrameCounter/TKO_017_SIX_Sh11360.mov</pathurl>
							<rate>
								<timebase>24</timebase>
								<ntsc>TRUE</ntsc>
							</rate>
							<duration>106</duration>
							<timecode>
								<rate>
									<timebase>24</timebase>
									<ntsc>TRUE</ntsc>
								</rate>
								<string>10:13:35:15</string>
								<frame>883575</frame>
								<displayformat>NDF</displayformat>
								<reel>
									<name>B0270002</name>
								</reel>
							</timecode>
							<media>
								<video>
									<samplecharacteristics>
										<rate>
											<timebase>24</timebase>
											<ntsc>TRUE</ntsc>
										</rate>
										<width>4096</width>
										<height>2160</height>
										<anamorphic>FALSE</anamorphic>
										<pixelaspectratio>square</pixelaspectratio>
										<fielddominance>none</fielddominance>
									</samplecharacteristics>
								</video>
							</media>
						</file>
						<logginginfo>
							<description></description>
							<scene></scene>
							<shottake></shottake>
							<lognote></lognote>
							<good></good>
							<originalvideofilename></originalvideofilename>
							<originalaudiofilename></originalaudiofilename>
						</logginginfo>
						<colorinfo>
							<lut></lut>
							<lut1></lut1>
							<asc_sop></asc_sop>
							<asc_sat></asc_sat>
							<lut2></lut2>
						</colorinfo>
						<labels>
							<label2>Violet</label2>
						</labels>
					</clipitem>
					<clipitem id="clipitem-1089">
						<masterclipid>masterclip-1086</masterclipid>
						<name>TKO_017_SIX_Sh11370.mov</name>
						<enabled>TRUE</enabled>
						<duration>127</duration>
						<rate>
							<timebase>24</timebase>
							<ntsc>TRUE</ntsc>
						</rate>
						<start>81437</start>
						<end>81556</end>
						<in>4</in>
						<out>123</out>
						<pproTicksIn>42378336000</pproTicksIn>
						<pproTicksOut>1303133832000</pproTicksOut>
						<alphatype>none</alphatype>
						<pixelaspectratio>square</pixelaspectratio>
						<anamorphic>FALSE</anamorphic>
						<file id="file-1086">
							<name>TKO_017_SIX_Sh11370.mov</name>
							<pathurl>file://tri-stor01/Projects/TKO/SHOTS/_Refs_Movs_Burnin_FrameCounter/TKO_017_SIX_Sh11370.mov</pathurl>
							<rate>
								<timebase>24</timebase>
								<ntsc>TRUE</ntsc>
							</rate>
							<duration>127</duration>
							<timecode>
								<rate>
									<timebase>24</timebase>
									<ntsc>TRUE</ntsc>
								</rate>
								<string>19:50:06:09</string>
								<frame>1713753</frame>
								<displayformat>NDF</displayformat>
								<reel>
									<name>A0280009</name>
								</reel>
							</timecode>
							<media>
								<video>
									<samplecharacteristics>
										<rate>
											<timebase>24</timebase>
											<ntsc>TRUE</ntsc>
										</rate>
										<width>4096</width>
										<height>2160</height>
										<anamorphic>FALSE</anamorphic>
										<pixelaspectratio>square</pixelaspectratio>
										<fielddominance>none</fielddominance>
									</samplecharacteristics>
								</video>
							</media>
						</file>
						<logginginfo>
							<description></description>
							<scene></scene>
							<shottake></shottake>
							<lognote></lognote>
							<good></good>
							<originalvideofilename></originalvideofilename>
							<originalaudiofilename></originalaudiofilename>
						</logginginfo>
						<colorinfo>
							<lut></lut>
							<lut1></lut1>
							<asc_sop></asc_sop>
							<asc_sat></asc_sat>
							<lut2></lut2>
						</colorinfo>
						<labels>
							<label2>Violet</label2>
						</labels>
					</clipitem>
					<clipitem id="clipitem-1090">
						<masterclipid>masterclip-1087</masterclipid>
						<name>TKO_017_SIX_Sh11380_V02.mov</name>
						<enabled>TRUE</enabled>
						<duration>87</duration>
						<rate>
							<timebase>24</timebase>
							<ntsc>TRUE</ntsc>
						</rate>
						<start>81556</start>
						<end>81629</end>
						<in>11</in>
						<out>84</out>
						<pproTicksIn>116540424000</pproTicksIn>
						<pproTicksOut>889945056000</pproTicksOut>
						<alphatype>none</alphatype>
						<pixelaspectratio>square</pixelaspectratio>
						<anamorphic>FALSE</anamorphic>
						<file id="file-1087">
							<name>TKO_017_SIX_Sh11380_V02.mov</name>
							<pathurl>file://tri-stor01/Projects/TKO/SHOTS/_Refs_Movs_Burnin_FrameCounter/TKO_017_SIX_Sh11380_V02.mov</pathurl>
							<rate>
								<timebase>24</timebase>
								<ntsc>TRUE</ntsc>
							</rate>
							<duration>87</duration>
							<timecode>
								<rate>
									<timebase>24</timebase>
									<ntsc>TRUE</ntsc>
								</rate>
								<string>10:27:41:21</string>
								<frame>903885</frame>
								<displayformat>NDF</displayformat>
								<reel>
									<name>A0330003</name>
								</reel>
							</timecode>
							<media>
								<video>
									<samplecharacteristics>
										<rate>
											<timebase>24</timebase>
											<ntsc>TRUE</ntsc>
										</rate>
										<width>4096</width>
										<height>2160</height>
										<anamorphic>FALSE</anamorphic>
										<pixelaspectratio>square</pixelaspectratio>
										<fielddominance>none</fielddominance>
									</samplecharacteristics>
								</video>
							</media>
						</file>
						<logginginfo>
							<description></description>
							<scene></scene>
							<shottake></shottake>
							<lognote></lognote>
							<good></good>
							<originalvideofilename></originalvideofilename>
							<originalaudiofilename></originalaudiofilename>
						</logginginfo>
						<colorinfo>
							<lut></lut>
							<lut1></lut1>
							<asc_sop></asc_sop>
							<asc_sat></asc_sat>
							<lut2></lut2>
						</colorinfo>
						<labels>
							<label2>Violet</label2>
						</labels>
					</clipitem>
					<clipitem id="clipitem-1091">
						<masterclipid>masterclip-1088</masterclipid>
						<name>TKO_017_SIX_Sh11390.mov</name>
						<enabled>TRUE</enabled>
						<duration>174</duration>
						<rate>
							<timebase>24</timebase>
							<ntsc>TRUE</ntsc>
						</rate>
						<start>81629</start>
						<end>81795</end>
						<in>4</in>
						<out>170</out>
						<pproTicksIn>42378336000</pproTicksIn>
						<pproTicksOut>1801079280000</pproTicksOut>
						<alphatype>none</alphatype>
						<pixelaspectratio>square</pixelaspectratio>
						<anamorphic>FALSE</anamorphic>
						<file id="file-1088">
							<name>TKO_017_SIX_Sh11390.mov</name>
							<pathurl>file://tri-stor01/Projects/TKO/SHOTS/_Refs_Movs_Burnin_FrameCounter/TKO_017_SIX_Sh11390.mov</pathurl>
							<rate>
								<timebase>24</timebase>
								<ntsc>TRUE</ntsc>
							</rate>
							<duration>174</duration>
							<timecode>
								<rate>
									<timebase>24</timebase>
									<ntsc>TRUE</ntsc>
								</rate>
								<string>19:50:13:11</string>
								<frame>1713923</frame>
								<displayformat>NDF</displayformat>
								<reel>
									<name>B0240009</name>
								</reel>
							</timecode>
							<media>
								<video>
									<samplecharacteristics>
										<rate>
											<timebase>24</timebase>
											<ntsc>TRUE</ntsc>
										</rate>
										<width>4096</width>
										<height>2160</height>
										<anamorphic>FALSE</anamorphic>
										<pixelaspectratio>square</pixelaspectratio>
										<fielddominance>none</fielddominance>
									</samplecharacteristics>
								</video>
							</media>
						</file>
						<logginginfo>
							<description></description>
							<scene></scene>
							<shottake></shottake>
							<lognote></lognote>
							<good></good>
							<originalvideofilename></originalvideofilename>
							<originalaudiofilename></originalaudiofilename>
						</logginginfo>
						<colorinfo>
							<lut></lut>
							<lut1></lut1>
							<asc_sop></asc_sop>
							<asc_sat></asc_sat>
							<lut2></lut2>
						</colorinfo>
						<labels>
							<label2>Violet</label2>
						</labels>
					</clipitem>
					<clipitem id="clipitem-1092">
						<masterclipid>masterclip-1089</masterclipid>
						<name>TKO_017_SIX_Sh11400_V02.mov</name>
						<enabled>TRUE</enabled>
						<duration>61</duration>
						<rate>
							<timebase>24</timebase>
							<ntsc>TRUE</ntsc>
						</rate>
						<start>81795</start>
						<end>81842</end>
						<in>11</in>
						<out>58</out>
						<pproTicksIn>116540424000</pproTicksIn>
						<pproTicksOut>614485872000</pproTicksOut>
						<alphatype>none</alphatype>
						<pixelaspectratio>square</pixelaspectratio>
						<anamorphic>FALSE</anamorphic>
						<file id="file-1089">
							<name>TKO_017_SIX_Sh11400_V02.mov</name>
							<pathurl>file://tri-stor01/Projects/TKO/SHOTS/_Refs_Movs_Burnin_FrameCounter/TKO_017_SIX_Sh11400_V02.mov</pathurl>
							<rate>
								<timebase>24</timebase>
								<ntsc>TRUE</ntsc>
							</rate>
							<duration>61</duration>
							<timecode>
								<rate>
									<timebase>24</timebase>
									<ntsc>TRUE</ntsc>
								</rate>
								<string>10:27:47:23</string>
								<frame>904031</frame>
								<displayformat>NDF</displayformat>
								<reel>
									<name>A0330003</name>
								</reel>
							</timecode>
							<media>
								<video>
									<samplecharacteristics>
										<rate>
											<timebase>24</timebase>
											<ntsc>TRUE</ntsc>
										</rate>
										<width>4096</width>
										<height>2160</height>
										<anamorphic>FALSE</anamorphic>
										<pixelaspectratio>square</pixelaspectratio>
										<fielddominance>none</fielddominance>
									</samplecharacteristics>
								</video>
							</media>
						</file>
						<logginginfo>
							<description></description>
							<scene></scene>
							<shottake></shottake>
							<lognote></lognote>
							<good></good>
							<originalvideofilename></originalvideofilename>
							<originalaudiofilename></originalaudiofilename>
						</logginginfo>
						<colorinfo>
							<lut></lut>
							<lut1></lut1>
							<asc_sop></asc_sop>
							<asc_sat></asc_sat>
							<lut2></lut2>
						</colorinfo>
						<labels>
							<label2>Violet</label2>
						</labels>
					</clipitem>
					<clipitem id="clipitem-1093">
						<masterclipid>masterclip-1090</masterclipid>
						<name>TKO_017_SIX_Sh11410.mov</name>
						<enabled>TRUE</enabled>
						<duration>216</duration>
						<rate>
							<timebase>24</timebase>
							<ntsc>TRUE</ntsc>
						</rate>
						<start>81842</start>
						<end>82050</end>
						<in>4</in>
						<out>212</out>
						<pproTicksIn>42378336000</pproTicksIn>
						<pproTicksOut>2246051808000</pproTicksOut>
						<alphatype>none</alphatype>
						<pixelaspectratio>square</pixelaspectratio>
						<anamorphic>FALSE</anamorphic>
						<file id="file-1090">
							<name>TKO_017_SIX_Sh11410.mov</name>
							<pathurl>file://tri-stor01/Projects/TKO/SHOTS/_Refs_Movs_Burnin_FrameCounter/TKO_017_SIX_Sh11410.mov</pathurl>
							<rate>
								<timebase>24</timebase>
								<ntsc>TRUE</ntsc>
							</rate>
							<duration>216</duration>
							<timecode>
								<rate>
									<timebase>24</timebase>
									<ntsc>TRUE</ntsc>
								</rate>
								<string>19:50:26:04</string>
								<frame>1714228</frame>
								<displayformat>NDF</displayformat>
								<reel>
									<name>B0240009</name>
								</reel>
							</timecode>
							<media>
								<video>
									<samplecharacteristics>
										<rate>
											<timebase>24</timebase>
											<ntsc>TRUE</ntsc>
										</rate>
										<width>4096</width>
										<height>2160</height>
										<anamorphic>FALSE</anamorphic>
										<pixelaspectratio>square</pixelaspectratio>
										<fielddominance>none</fielddominance>
									</samplecharacteristics>
								</video>
							</media>
						</file>
						<logginginfo>
							<description></description>
							<scene></scene>
							<shottake></shottake>
							<lognote></lognote>
							<good></good>
							<originalvideofilename></originalvideofilename>
							<originalaudiofilename></originalaudiofilename>
						</logginginfo>
						<colorinfo>
							<lut></lut>
							<lut1></lut1>
							<asc_sop></asc_sop>
							<asc_sat></asc_sat>
							<lut2></lut2>
						</colorinfo>
						<labels>
							<label2>Violet</label2>
						</labels>
					</clipitem>
					<clipitem id="clipitem-1094">
						<masterclipid>masterclip-1091</masterclipid>
						<name>TKO_017_SIX_Sh11420.mov</name>
						<enabled>TRUE</enabled>
						<duration>94</duration>
						<rate>
							<timebase>24</timebase>
							<ntsc>TRUE</ntsc>
						</rate>
						<start>82050</start>
						<end>82136</end>
						<in>4</in>
						<out>90</out>
						<pproTicksIn>42378336000</pproTicksIn>
						<pproTicksOut>953512560000</pproTicksOut>
						<alphatype>none</alphatype>
						<pixelaspectratio>square</pixelaspectratio>
						<anamorphic>FALSE</anamorphic>
						<file id="file-1091">
							<name>TKO_017_SIX_Sh11420.mov</name>
							<pathurl>file://tri-stor01/Projects/TKO/SHOTS/_Refs_Movs_Burnin_FrameCounter/TKO_017_SIX_Sh11420.mov</pathurl>
							<rate>
								<timebase>24</timebase>
								<ntsc>TRUE</ntsc>
							</rate>
							<duration>94</duration>
							<timecode>
								<rate>
									<timebase>24</timebase>
									<ntsc>TRUE</ntsc>
								</rate>
								<string>00:00:00:00</string>
								<frame>0</frame>
								<displayformat>NDF</displayformat>
							</timecode>
							<media>
								<video>
									<samplecharacteristics>
										<rate>
											<timebase>24</timebase>
											<ntsc>TRUE</ntsc>
										</rate>
										<width>4096</width>
										<height>2160</height>
										<anamorphic>FALSE</anamorphic>
										<pixelaspectratio>square</pixelaspectratio>
										<fielddominance>none</fielddominance>
									</samplecharacteristics>
								</video>
							</media>
						</file>
						<logginginfo>
							<description></description>
							<scene></scene>
							<shottake></shottake>
							<lognote></lognote>
							<good></good>
							<originalvideofilename></originalvideofilename>
							<originalaudiofilename></originalaudiofilename>
						</logginginfo>
						<colorinfo>
							<lut></lut>
							<lut1></lut1>
							<asc_sop></asc_sop>
							<asc_sat></asc_sat>
							<lut2></lut2>
						</colorinfo>
						<labels>
							<label2>Violet</label2>
						</labels>
					</clipitem>
					<clipitem id="clipitem-1095">
						<masterclipid>masterclip-1092</masterclipid>
						<name>TKO_017_SIX_Sh11430.mov</name>
						<enabled>TRUE</enabled>
						<duration>53</duration>
						<rate>
							<timebase>24</timebase>
							<ntsc>TRUE</ntsc>
						</rate>
						<start>82136</start>
						<end>82181</end>
						<in>4</in>
						<out>49</out>
						<pproTicksIn>42378336000</pproTicksIn>
						<pproTicksOut>519134616000</pproTicksOut>
						<alphatype>none</alphatype>
						<pixelaspectratio>square</pixelaspectratio>
						<anamorphic>FALSE</anamorphic>
						<file id="file-1092">
							<name>TKO_017_SIX_Sh11430.mov</name>
							<pathurl>file://tri-stor01/Projects/TKO/SHOTS/_Refs_Movs_Burnin_FrameCounter/TKO_017_SIX_Sh11430.mov</pathurl>
							<rate>
								<timebase>24</timebase>
								<ntsc>TRUE</ntsc>
							</rate>
							<duration>53</duration>
							<timecode>
								<rate>
									<timebase>24</timebase>
									<ntsc>TRUE</ntsc>
								</rate>
								<string>10:35:57:11</string>
								<frame>915779</frame>
								<displayformat>NDF</displayformat>
								<reel>
									<name>A0050003</name>
								</reel>
							</timecode>
							<media>
								<video>
									<samplecharacteristics>
										<rate>
											<timebase>24</timebase>
											<ntsc>TRUE</ntsc>
										</rate>
										<width>4096</width>
										<height>2160</height>
										<anamorphic>FALSE</anamorphic>
										<pixelaspectratio>square</pixelaspectratio>
										<fielddominance>none</fielddominance>
									</samplecharacteristics>
								</video>
							</media>
						</file>
						<logginginfo>
							<description></description>
							<scene></scene>
							<shottake></shottake>
							<lognote></lognote>
							<good></good>
							<originalvideofilename></originalvideofilename>
							<originalaudiofilename></originalaudiofilename>
						</logginginfo>
						<colorinfo>
							<lut></lut>
							<lut1></lut1>
							<asc_sop></asc_sop>
							<asc_sat></asc_sat>
							<lut2></lut2>
						</colorinfo>
						<labels>
							<label2>Violet</label2>
						</labels>
					</clipitem>
					<clipitem id="clipitem-1096">
						<masterclipid>masterclip-1093</masterclipid>
						<name>TKO_017_SIX_Sh11440.mov</name>
						<enabled>TRUE</enabled>
						<duration>179</duration>
						<rate>
							<timebase>24</timebase>
							<ntsc>TRUE</ntsc>
						</rate>
						<start>82181</start>
						<end>82352</end>
						<in>4</in>
						<out>175</out>
						<pproTicksIn>42378336000</pproTicksIn>
						<pproTicksOut>1854052200000</pproTicksOut>
						<alphatype>none</alphatype>
						<pixelaspectratio>square</pixelaspectratio>
						<anamorphic>FALSE</anamorphic>
						<file id="file-1093">
							<name>TKO_017_SIX_Sh11440.mov</name>
							<pathurl>file://tri-stor01/Projects/TKO/SHOTS/_Refs_Movs_Burnin_FrameCounter/TKO_017_SIX_Sh11440.mov</pathurl>
							<rate>
								<timebase>24</timebase>
								<ntsc>TRUE</ntsc>
							</rate>
							<duration>179</duration>
							<timecode>
								<rate>
									<timebase>24</timebase>
									<ntsc>TRUE</ntsc>
								</rate>
								<string>11:38:56:14</string>
								<frame>1006478</frame>
								<displayformat>NDF</displayformat>
								<reel>
									<name>B0030008</name>
								</reel>
							</timecode>
							<media>
								<video>
									<samplecharacteristics>
										<rate>
											<timebase>24</timebase>
											<ntsc>TRUE</ntsc>
										</rate>
										<width>4096</width>
										<height>2160</height>
										<anamorphic>FALSE</anamorphic>
										<pixelaspectratio>square</pixelaspectratio>
										<fielddominance>none</fielddominance>
									</samplecharacteristics>
								</video>
							</media>
						</file>
						<logginginfo>
							<description></description>
							<scene></scene>
							<shottake></shottake>
							<lognote></lognote>
							<good></good>
							<originalvideofilename></originalvideofilename>
							<originalaudiofilename></originalaudiofilename>
						</logginginfo>
						<colorinfo>
							<lut></lut>
							<lut1></lut1>
							<asc_sop></asc_sop>
							<asc_sat></asc_sat>
							<lut2></lut2>
						</colorinfo>
						<labels>
							<label2>Violet</label2>
						</labels>
					</clipitem>
					<clipitem id="clipitem-1097">
						<masterclipid>masterclip-1094</masterclipid>
						<name>TKO_017_SIX_Sh11450.mov</name>
						<enabled>TRUE</enabled>
						<duration>39</duration>
						<rate>
							<timebase>24</timebase>
							<ntsc>TRUE</ntsc>
						</rate>
						<start>82352</start>
						<end>82383</end>
						<in>4</in>
						<out>35</out>
						<pproTicksIn>42378336000</pproTicksIn>
						<pproTicksOut>370810440000</pproTicksOut>
						<alphatype>none</alphatype>
						<pixelaspectratio>square</pixelaspectratio>
						<anamorphic>FALSE</anamorphic>
						<file id="file-1094">
							<name>TKO_017_SIX_Sh11450.mov</name>
							<pathurl>file://tri-stor01/Projects/TKO/SHOTS/_Refs_Movs_Burnin_FrameCounter/TKO_017_SIX_Sh11450.mov</pathurl>
							<rate>
								<timebase>24</timebase>
								<ntsc>TRUE</ntsc>
							</rate>
							<duration>39</duration>
							<timecode>
								<rate>
									<timebase>24</timebase>
									<ntsc>TRUE</ntsc>
								</rate>
								<string>10:36:00:16</string>
								<frame>915856</frame>
								<displayformat>NDF</displayformat>
								<reel>
									<name>A0050003</name>
								</reel>
							</timecode>
							<media>
								<video>
									<samplecharacteristics>
										<rate>
											<timebase>24</timebase>
											<ntsc>TRUE</ntsc>
										</rate>
										<width>4096</width>
										<height>2160</height>
										<anamorphic>FALSE</anamorphic>
										<pixelaspectratio>square</pixelaspectratio>
										<fielddominance>none</fielddominance>
									</samplecharacteristics>
								</video>
							</media>
						</file>
						<logginginfo>
							<description></description>
							<scene></scene>
							<shottake></shottake>
							<lognote></lognote>
							<good></good>
							<originalvideofilename></originalvideofilename>
							<originalaudiofilename></originalaudiofilename>
						</logginginfo>
						<colorinfo>
							<lut></lut>
							<lut1></lut1>
							<asc_sop></asc_sop>
							<asc_sat></asc_sat>
							<lut2></lut2>
						</colorinfo>
						<labels>
							<label2>Violet</label2>
						</labels>
					</clipitem>
					<clipitem id="clipitem-1098">
						<masterclipid>masterclip-1095</masterclipid>
						<name>TKO_017_SIX_Sh11460.mov</name>
						<enabled>TRUE</enabled>
						<duration>61</duration>
						<rate>
							<timebase>24</timebase>
							<ntsc>TRUE</ntsc>
						</rate>
						<start>82383</start>
						<end>82436</end>
						<in>4</in>
						<out>57</out>
						<pproTicksIn>42378336000</pproTicksIn>
						<pproTicksOut>603891288000</pproTicksOut>
						<alphatype>none</alphatype>
						<pixelaspectratio>square</pixelaspectratio>
						<anamorphic>FALSE</anamorphic>
						<file id="file-1095">
							<name>TKO_017_SIX_Sh11460.mov</name>
							<pathurl>file://tri-stor01/Projects/TKO/SHOTS/_Refs_Movs_Burnin_FrameCounter/TKO_017_SIX_Sh11460.mov</pathurl>
							<rate>
								<timebase>24</timebase>
								<ntsc>TRUE</ntsc>
							</rate>
							<duration>61</duration>
							<timecode>
								<rate>
									<timebase>24</timebase>
									<ntsc>TRUE</ntsc>
								</rate>
								<string>11:37:02:15</string>
								<frame>1003743</frame>
								<displayformat>NDF</displayformat>
								<reel>
									<name>A0050007</name>
								</reel>
							</timecode>
							<media>
								<video>
									<samplecharacteristics>
										<rate>
											<timebase>24</timebase>
											<ntsc>TRUE</ntsc>
										</rate>
										<width>4096</width>
										<height>2160</height>
										<anamorphic>FALSE</anamorphic>
										<pixelaspectratio>square</pixelaspectratio>
										<fielddominance>none</fielddominance>
									</samplecharacteristics>
								</video>
							</media>
						</file>
						<logginginfo>
							<description></description>
							<scene></scene>
							<shottake></shottake>
							<lognote></lognote>
							<good></good>
							<originalvideofilename></originalvideofilename>
							<originalaudiofilename></originalaudiofilename>
						</logginginfo>
						<colorinfo>
							<lut></lut>
							<lut1></lut1>
							<asc_sop></asc_sop>
							<asc_sat></asc_sat>
							<lut2></lut2>
						</colorinfo>
						<labels>
							<label2>Violet</label2>
						</labels>
					</clipitem>
					<clipitem id="clipitem-1099">
						<masterclipid>masterclip-1096</masterclipid>
						<name>TKO_017_SIX_Sh11470.mov</name>
						<enabled>TRUE</enabled>
						<duration>40</duration>
						<rate>
							<timebase>24</timebase>
							<ntsc>TRUE</ntsc>
						</rate>
						<start>82436</start>
						<end>82468</end>
						<in>4</in>
						<out>36</out>
						<pproTicksIn>42378336000</pproTicksIn>
						<pproTicksOut>381405024000</pproTicksOut>
						<alphatype>none</alphatype>
						<pixelaspectratio>square</pixelaspectratio>
						<anamorphic>FALSE</anamorphic>
						<file id="file-1096">
							<name>TKO_017_SIX_Sh11470.mov</name>
							<pathurl>file://tri-stor01/Projects/TKO/SHOTS/_Refs_Movs_Burnin_FrameCounter/TKO_017_SIX_Sh11470.mov</pathurl>
							<rate>
								<timebase>24</timebase>
								<ntsc>TRUE</ntsc>
							</rate>
							<duration>40</duration>
							<timecode>
								<rate>
									<timebase>24</timebase>
									<ntsc>TRUE</ntsc>
								</rate>
								<string>10:36:04:04</string>
								<frame>915940</frame>
								<displayformat>NDF</displayformat>
								<reel>
									<name>A0050003</name>
								</reel>
							</timecode>
							<media>
								<video>
									<samplecharacteristics>
										<rate>
											<timebase>24</timebase>
											<ntsc>TRUE</ntsc>
										</rate>
										<width>4096</width>
										<height>2160</height>
										<anamorphic>FALSE</anamorphic>
										<pixelaspectratio>square</pixelaspectratio>
										<fielddominance>none</fielddominance>
									</samplecharacteristics>
								</video>
							</media>
						</file>
						<logginginfo>
							<description></description>
							<scene></scene>
							<shottake></shottake>
							<lognote></lognote>
							<good></good>
							<originalvideofilename></originalvideofilename>
							<originalaudiofilename></originalaudiofilename>
						</logginginfo>
						<colorinfo>
							<lut></lut>
							<lut1></lut1>
							<asc_sop></asc_sop>
							<asc_sat></asc_sat>
							<lut2></lut2>
						</colorinfo>
						<labels>
							<label2>Violet</label2>
						</labels>
					</clipitem>
					<clipitem id="clipitem-1100">
						<masterclipid>masterclip-1097</masterclipid>
						<name>TKO_017_SIX_Sh11480.mov</name>
						<enabled>TRUE</enabled>
						<duration>68</duration>
						<rate>
							<timebase>24</timebase>
							<ntsc>TRUE</ntsc>
						</rate>
						<start>82468</start>
						<end>82528</end>
						<in>4</in>
						<out>64</out>
						<pproTicksIn>42378336000</pproTicksIn>
						<pproTicksOut>678053376000</pproTicksOut>
						<alphatype>none</alphatype>
						<pixelaspectratio>square</pixelaspectratio>
						<anamorphic>FALSE</anamorphic>
						<file id="file-1097">
							<name>TKO_017_SIX_Sh11480.mov</name>
							<pathurl>file://tri-stor01/Projects/TKO/SHOTS/_Refs_Movs_Burnin_FrameCounter/TKO_017_SIX_Sh11480.mov</pathurl>
							<rate>
								<timebase>24</timebase>
								<ntsc>TRUE</ntsc>
							</rate>
							<duration>68</duration>
							<timecode>
								<rate>
									<timebase>24</timebase>
									<ntsc>TRUE</ntsc>
								</rate>
								<string>11:37:05:16</string>
								<frame>1003816</frame>
								<displayformat>NDF</displayformat>
								<reel>
									<name>B0030007</name>
								</reel>
							</timecode>
							<media>
								<video>
									<samplecharacteristics>
										<rate>
											<timebase>24</timebase>
											<ntsc>TRUE</ntsc>
										</rate>
										<width>4096</width>
										<height>2160</height>
										<anamorphic>FALSE</anamorphic>
										<pixelaspectratio>square</pixelaspectratio>
										<fielddominance>none</fielddominance>
									</samplecharacteristics>
								</video>
							</media>
						</file>
						<logginginfo>
							<description></description>
							<scene></scene>
							<shottake></shottake>
							<lognote></lognote>
							<good></good>
							<originalvideofilename></originalvideofilename>
							<originalaudiofilename></originalaudiofilename>
						</logginginfo>
						<colorinfo>
							<lut></lut>
							<lut1></lut1>
							<asc_sop></asc_sop>
							<asc_sat></asc_sat>
							<lut2></lut2>
						</colorinfo>
						<labels>
							<label2>Violet</label2>
						</labels>
					</clipitem>
					<clipitem id="clipitem-1101">
						<masterclipid>masterclip-1098</masterclipid>
						<name>TKO_017_SIX_Sh11490.mov</name>
						<enabled>TRUE</enabled>
						<duration>56</duration>
						<rate>
							<timebase>24</timebase>
							<ntsc>TRUE</ntsc>
						</rate>
						<start>82528</start>
						<end>82576</end>
						<in>4</in>
						<out>52</out>
						<pproTicksIn>42378336000</pproTicksIn>
						<pproTicksOut>550918368000</pproTicksOut>
						<alphatype>none</alphatype>
						<pixelaspectratio>square</pixelaspectratio>
						<anamorphic>FALSE</anamorphic>
						<file id="file-1098">
							<name>TKO_017_SIX_Sh11490.mov</name>
							<pathurl>file://tri-stor01/Projects/TKO/SHOTS/_Refs_Movs_Burnin_FrameCounter/TKO_017_SIX_Sh11490.mov</pathurl>
							<rate>
								<timebase>24</timebase>
								<ntsc>TRUE</ntsc>
							</rate>
							<duration>56</duration>
							<timecode>
								<rate>
									<timebase>24</timebase>
									<ntsc>TRUE</ntsc>
								</rate>
								<string>11:37:07:17</string>
								<frame>1003865</frame>
								<displayformat>NDF</displayformat>
								<reel>
									<name>A0050007</name>
								</reel>
							</timecode>
							<media>
								<video>
									<samplecharacteristics>
										<rate>
											<timebase>24</timebase>
											<ntsc>TRUE</ntsc>
										</rate>
										<width>4096</width>
										<height>2160</height>
										<anamorphic>FALSE</anamorphic>
										<pixelaspectratio>square</pixelaspectratio>
										<fielddominance>none</fielddominance>
									</samplecharacteristics>
								</video>
							</media>
						</file>
						<logginginfo>
							<description></description>
							<scene></scene>
							<shottake></shottake>
							<lognote></lognote>
							<good></good>
							<originalvideofilename></originalvideofilename>
							<originalaudiofilename></originalaudiofilename>
						</logginginfo>
						<colorinfo>
							<lut></lut>
							<lut1></lut1>
							<asc_sop></asc_sop>
							<asc_sat></asc_sat>
							<lut2></lut2>
						</colorinfo>
						<labels>
							<label2>Violet</label2>
						</labels>
					</clipitem>
					<clipitem id="clipitem-1102">
						<masterclipid>masterclip-1099</masterclipid>
						<name>TKO_017_SIX_Sh11500.mov</name>
						<enabled>TRUE</enabled>
						<duration>42</duration>
						<rate>
							<timebase>24</timebase>
							<ntsc>TRUE</ntsc>
						</rate>
						<start>82576</start>
						<end>82610</end>
						<in>4</in>
						<out>38</out>
						<pproTicksIn>42378336000</pproTicksIn>
						<pproTicksOut>402594192000</pproTicksOut>
						<alphatype>none</alphatype>
						<pixelaspectratio>square</pixelaspectratio>
						<anamorphic>FALSE</anamorphic>
						<file id="file-1099">
							<name>TKO_017_SIX_Sh11500.mov</name>
							<pathurl>file://tri-stor01/Projects/TKO/SHOTS/_Refs_Movs_Burnin_FrameCounter/TKO_017_SIX_Sh11500.mov</pathurl>
							<rate>
								<timebase>24</timebase>
								<ntsc>TRUE</ntsc>
							</rate>
							<duration>42</duration>
							<timecode>
								<rate>
									<timebase>24</timebase>
									<ntsc>TRUE</ntsc>
								</rate>
								<string>11:12:23:10</string>
								<frame>968242</frame>
								<displayformat>NDF</displayformat>
								<reel>
									<name>A0050004</name>
								</reel>
							</timecode>
							<media>
								<video>
									<samplecharacteristics>
										<rate>
											<timebase>24</timebase>
											<ntsc>TRUE</ntsc>
										</rate>
										<width>4096</width>
										<height>2160</height>
										<anamorphic>FALSE</anamorphic>
										<pixelaspectratio>square</pixelaspectratio>
										<fielddominance>none</fielddominance>
									</samplecharacteristics>
								</video>
							</media>
						</file>
						<logginginfo>
							<description></description>
							<scene></scene>
							<shottake></shottake>
							<lognote></lognote>
							<good></good>
							<originalvideofilename></originalvideofilename>
							<originalaudiofilename></originalaudiofilename>
						</logginginfo>
						<colorinfo>
							<lut></lut>
							<lut1></lut1>
							<asc_sop></asc_sop>
							<asc_sat></asc_sat>
							<lut2></lut2>
						</colorinfo>
						<labels>
							<label2>Violet</label2>
						</labels>
					</clipitem>
					<clipitem id="clipitem-1103">
						<masterclipid>masterclip-1100</masterclipid>
						<name>TKO_017_SIX_Sh11510.mov</name>
						<enabled>TRUE</enabled>
						<duration>46</duration>
						<rate>
							<timebase>24</timebase>
							<ntsc>TRUE</ntsc>
						</rate>
						<start>82610</start>
						<end>82648</end>
						<in>4</in>
						<out>42</out>
						<pproTicksIn>42378336000</pproTicksIn>
						<pproTicksOut>444972528000</pproTicksOut>
						<alphatype>none</alphatype>
						<pixelaspectratio>square</pixelaspectratio>
						<anamorphic>FALSE</anamorphic>
						<file id="file-1100">
							<name>TKO_017_SIX_Sh11510.mov</name>
							<pathurl>file://tri-stor01/Projects/TKO/SHOTS/_Refs_Movs_Burnin_FrameCounter/TKO_017_SIX_Sh11510.mov</pathurl>
							<rate>
								<timebase>24</timebase>
								<ntsc>TRUE</ntsc>
							</rate>
							<duration>46</duration>
							<timecode>
								<rate>
									<timebase>24</timebase>
									<ntsc>TRUE</ntsc>
								</rate>
								<string>11:37:11:03</string>
								<frame>1003947</frame>
								<displayformat>NDF</displayformat>
								<reel>
									<name>A0050007</name>
								</reel>
							</timecode>
							<media>
								<video>
									<samplecharacteristics>
										<rate>
											<timebase>24</timebase>
											<ntsc>TRUE</ntsc>
										</rate>
										<width>4096</width>
										<height>2160</height>
										<anamorphic>FALSE</anamorphic>
										<pixelaspectratio>square</pixelaspectratio>
										<fielddominance>none</fielddominance>
									</samplecharacteristics>
								</video>
							</media>
						</file>
						<logginginfo>
							<description></description>
							<scene></scene>
							<shottake></shottake>
							<lognote></lognote>
							<good></good>
							<originalvideofilename></originalvideofilename>
							<originalaudiofilename></originalaudiofilename>
						</logginginfo>
						<colorinfo>
							<lut></lut>
							<lut1></lut1>
							<asc_sop></asc_sop>
							<asc_sat></asc_sat>
							<lut2></lut2>
						</colorinfo>
						<labels>
							<label2>Violet</label2>
						</labels>
					</clipitem>
					<clipitem id="clipitem-1104">
						<masterclipid>masterclip-1101</masterclipid>
						<name>TKO_017_SIX_Sh11520.mov</name>
						<enabled>TRUE</enabled>
						<duration>37</duration>
						<rate>
							<timebase>24</timebase>
							<ntsc>TRUE</ntsc>
						</rate>
						<start>82648</start>
						<end>82677</end>
						<in>4</in>
						<out>33</out>
						<pproTicksIn>42378336000</pproTicksIn>
						<pproTicksOut>349621272000</pproTicksOut>
						<alphatype>none</alphatype>
						<pixelaspectratio>square</pixelaspectratio>
						<anamorphic>FALSE</anamorphic>
						<file id="file-1101">
							<name>TKO_017_SIX_Sh11520.mov</name>
							<pathurl>file://tri-stor01/Projects/TKO/SHOTS/_Refs_Movs_Burnin_FrameCounter/TKO_017_SIX_Sh11520.mov</pathurl>
							<rate>
								<timebase>24</timebase>
								<ntsc>TRUE</ntsc>
							</rate>
							<duration>37</duration>
							<timecode>
								<rate>
									<timebase>24</timebase>
									<ntsc>TRUE</ntsc>
								</rate>
								<string>11:12:25:20</string>
								<frame>968300</frame>
								<displayformat>NDF</displayformat>
								<reel>
									<name>A0050004</name>
								</reel>
							</timecode>
							<media>
								<video>
									<samplecharacteristics>
										<rate>
											<timebase>24</timebase>
											<ntsc>TRUE</ntsc>
										</rate>
										<width>4096</width>
										<height>2160</height>
										<anamorphic>FALSE</anamorphic>
										<pixelaspectratio>square</pixelaspectratio>
										<fielddominance>none</fielddominance>
									</samplecharacteristics>
								</video>
							</media>
						</file>
						<logginginfo>
							<description></description>
							<scene></scene>
							<shottake></shottake>
							<lognote></lognote>
							<good></good>
							<originalvideofilename></originalvideofilename>
							<originalaudiofilename></originalaudiofilename>
						</logginginfo>
						<colorinfo>
							<lut></lut>
							<lut1></lut1>
							<asc_sop></asc_sop>
							<asc_sat></asc_sat>
							<lut2></lut2>
						</colorinfo>
						<labels>
							<label2>Violet</label2>
						</labels>
					</clipitem>
					<clipitem id="clipitem-1105">
						<masterclipid>masterclip-1102</masterclipid>
						<name>TKO_017_SIX_Sh11530.mov</name>
						<enabled>TRUE</enabled>
						<duration>32</duration>
						<rate>
							<timebase>24</timebase>
							<ntsc>TRUE</ntsc>
						</rate>
						<start>82677</start>
						<end>82701</end>
						<in>4</in>
						<out>28</out>
						<pproTicksIn>42378336000</pproTicksIn>
						<pproTicksOut>296648352000</pproTicksOut>
						<alphatype>none</alphatype>
						<pixelaspectratio>square</pixelaspectratio>
						<anamorphic>FALSE</anamorphic>
						<file id="file-1102">
							<name>TKO_017_SIX_Sh11530.mov</name>
							<pathurl>file://tri-stor01/Projects/TKO/SHOTS/_Refs_Movs_Burnin_FrameCounter/TKO_017_SIX_Sh11530.mov</pathurl>
							<rate>
								<timebase>24</timebase>
								<ntsc>TRUE</ntsc>
							</rate>
							<duration>32</duration>
							<timecode>
								<rate>
									<timebase>24</timebase>
									<ntsc>TRUE</ntsc>
								</rate>
								<string>11:39:15:23</string>
								<frame>1006943</frame>
								<displayformat>NDF</displayformat>
								<reel>
									<name>A0050008</name>
								</reel>
							</timecode>
							<media>
								<video>
									<samplecharacteristics>
										<rate>
											<timebase>24</timebase>
											<ntsc>TRUE</ntsc>
										</rate>
										<width>4096</width>
										<height>2160</height>
										<anamorphic>FALSE</anamorphic>
										<pixelaspectratio>square</pixelaspectratio>
										<fielddominance>none</fielddominance>
									</samplecharacteristics>
								</video>
							</media>
						</file>
						<logginginfo>
							<description></description>
							<scene></scene>
							<shottake></shottake>
							<lognote></lognote>
							<good></good>
							<originalvideofilename></originalvideofilename>
							<originalaudiofilename></originalaudiofilename>
						</logginginfo>
						<colorinfo>
							<lut></lut>
							<lut1></lut1>
							<asc_sop></asc_sop>
							<asc_sat></asc_sat>
							<lut2></lut2>
						</colorinfo>
						<labels>
							<label2>Violet</label2>
						</labels>
					</clipitem>
					<clipitem id="clipitem-1106">
						<masterclipid>masterclip-1103</masterclipid>
						<name>TKO_017_SIX_Sh11540.mov</name>
						<enabled>TRUE</enabled>
						<duration>61</duration>
						<rate>
							<timebase>24</timebase>
							<ntsc>TRUE</ntsc>
						</rate>
						<start>82701</start>
						<end>82754</end>
						<in>4</in>
						<out>57</out>
						<pproTicksIn>42378336000</pproTicksIn>
						<pproTicksOut>603891288000</pproTicksOut>
						<alphatype>none</alphatype>
						<pixelaspectratio>square</pixelaspectratio>
						<anamorphic>FALSE</anamorphic>
						<file id="file-1103">
							<name>TKO_017_SIX_Sh11540.mov</name>
							<pathurl>file://tri-stor01/Projects/TKO/SHOTS/_Refs_Movs_Burnin_FrameCounter/TKO_017_SIX_Sh11540.mov</pathurl>
							<rate>
								<timebase>24</timebase>
								<ntsc>TRUE</ntsc>
							</rate>
							<duration>61</duration>
							<timecode>
								<rate>
									<timebase>24</timebase>
									<ntsc>TRUE</ntsc>
								</rate>
								<string>11:39:16:23</string>
								<frame>1006967</frame>
								<displayformat>NDF</displayformat>
								<reel>
									<name>B0030008</name>
								</reel>
							</timecode>
							<media>
								<video>
									<samplecharacteristics>
										<rate>
											<timebase>24</timebase>
											<ntsc>TRUE</ntsc>
										</rate>
										<width>4096</width>
										<height>2160</height>
										<anamorphic>FALSE</anamorphic>
										<pixelaspectratio>square</pixelaspectratio>
										<fielddominance>none</fielddominance>
									</samplecharacteristics>
								</video>
							</media>
						</file>
						<logginginfo>
							<description></description>
							<scene></scene>
							<shottake></shottake>
							<lognote></lognote>
							<good></good>
							<originalvideofilename></originalvideofilename>
							<originalaudiofilename></originalaudiofilename>
						</logginginfo>
						<colorinfo>
							<lut></lut>
							<lut1></lut1>
							<asc_sop></asc_sop>
							<asc_sat></asc_sat>
							<lut2></lut2>
						</colorinfo>
						<labels>
							<label2>Violet</label2>
						</labels>
					</clipitem>
					<clipitem id="clipitem-1107">
						<masterclipid>masterclip-1104</masterclipid>
						<name>TKO_017_SIX_Sh11550.mov</name>
						<enabled>TRUE</enabled>
						<duration>55</duration>
						<rate>
							<timebase>24</timebase>
							<ntsc>TRUE</ntsc>
						</rate>
						<start>82754</start>
						<end>82801</end>
						<in>4</in>
						<out>51</out>
						<pproTicksIn>42378336000</pproTicksIn>
						<pproTicksOut>540323784000</pproTicksOut>
						<alphatype>none</alphatype>
						<pixelaspectratio>square</pixelaspectratio>
						<anamorphic>FALSE</anamorphic>
						<file id="file-1104">
							<name>TKO_017_SIX_Sh11550.mov</name>
							<pathurl>file://tri-stor01/Projects/TKO/SHOTS/_Refs_Movs_Burnin_FrameCounter/TKO_017_SIX_Sh11550.mov</pathurl>
							<rate>
								<timebase>24</timebase>
								<ntsc>TRUE</ntsc>
							</rate>
							<duration>55</duration>
							<timecode>
								<rate>
									<timebase>24</timebase>
									<ntsc>TRUE</ntsc>
								</rate>
								<string>11:12:31:11</string>
								<frame>968435</frame>
								<displayformat>NDF</displayformat>
								<reel>
									<name>A0050004</name>
								</reel>
							</timecode>
							<media>
								<video>
									<samplecharacteristics>
										<rate>
											<timebase>24</timebase>
											<ntsc>TRUE</ntsc>
										</rate>
										<width>4096</width>
										<height>2160</height>
										<anamorphic>FALSE</anamorphic>
										<pixelaspectratio>square</pixelaspectratio>
										<fielddominance>none</fielddominance>
									</samplecharacteristics>
								</video>
							</media>
						</file>
						<logginginfo>
							<description></description>
							<scene></scene>
							<shottake></shottake>
							<lognote></lognote>
							<good></good>
							<originalvideofilename></originalvideofilename>
							<originalaudiofilename></originalaudiofilename>
						</logginginfo>
						<colorinfo>
							<lut></lut>
							<lut1></lut1>
							<asc_sop></asc_sop>
							<asc_sat></asc_sat>
							<lut2></lut2>
						</colorinfo>
						<labels>
							<label2>Violet</label2>
						</labels>
					</clipitem>
					<clipitem id="clipitem-1108">
						<masterclipid>masterclip-1105</masterclipid>
						<name>TKO_017_SIX_Sh11560.mov</name>
						<enabled>TRUE</enabled>
						<duration>40</duration>
						<rate>
							<timebase>24</timebase>
							<ntsc>TRUE</ntsc>
						</rate>
						<start>82801</start>
						<end>82833</end>
						<in>4</in>
						<out>36</out>
						<pproTicksIn>42378336000</pproTicksIn>
						<pproTicksOut>381405024000</pproTicksOut>
						<alphatype>none</alphatype>
						<pixelaspectratio>square</pixelaspectratio>
						<anamorphic>FALSE</anamorphic>
						<file id="file-1105">
							<name>TKO_017_SIX_Sh11560.mov</name>
							<pathurl>file://tri-stor01/Projects/TKO/SHOTS/_Refs_Movs_Burnin_FrameCounter/TKO_017_SIX_Sh11560.mov</pathurl>
							<rate>
								<timebase>24</timebase>
								<ntsc>TRUE</ntsc>
							</rate>
							<duration>40</duration>
							<timecode>
								<rate>
									<timebase>24</timebase>
									<ntsc>TRUE</ntsc>
								</rate>
								<string>11:35:50:17</string>
								<frame>1002017</frame>
								<displayformat>NDF</displayformat>
								<reel>
									<name>B0030006</name>
								</reel>
							</timecode>
							<media>
								<video>
									<samplecharacteristics>
										<rate>
											<timebase>24</timebase>
											<ntsc>TRUE</ntsc>
										</rate>
										<width>4096</width>
										<height>2160</height>
										<anamorphic>FALSE</anamorphic>
										<pixelaspectratio>square</pixelaspectratio>
										<fielddominance>none</fielddominance>
									</samplecharacteristics>
								</video>
							</media>
						</file>
						<logginginfo>
							<description></description>
							<scene></scene>
							<shottake></shottake>
							<lognote></lognote>
							<good></good>
							<originalvideofilename></originalvideofilename>
							<originalaudiofilename></originalaudiofilename>
						</logginginfo>
						<colorinfo>
							<lut></lut>
							<lut1></lut1>
							<asc_sop></asc_sop>
							<asc_sat></asc_sat>
							<lut2></lut2>
						</colorinfo>
						<labels>
							<label2>Violet</label2>
						</labels>
					</clipitem>
					<clipitem id="clipitem-1109">
						<masterclipid>masterclip-1106</masterclipid>
						<name>TKO_017_SIX_Sh11570.mov</name>
						<enabled>TRUE</enabled>
						<duration>53</duration>
						<rate>
							<timebase>24</timebase>
							<ntsc>TRUE</ntsc>
						</rate>
						<start>82833</start>
						<end>82878</end>
						<in>4</in>
						<out>49</out>
						<pproTicksIn>42378336000</pproTicksIn>
						<pproTicksOut>519134616000</pproTicksOut>
						<alphatype>none</alphatype>
						<pixelaspectratio>square</pixelaspectratio>
						<anamorphic>FALSE</anamorphic>
						<file id="file-1106">
							<name>TKO_017_SIX_Sh11570.mov</name>
							<pathurl>file://tri-stor01/Projects/TKO/SHOTS/_Refs_Movs_Burnin_FrameCounter/TKO_017_SIX_Sh11570.mov</pathurl>
							<rate>
								<timebase>24</timebase>
								<ntsc>TRUE</ntsc>
							</rate>
							<duration>53</duration>
							<timecode>
								<rate>
									<timebase>24</timebase>
									<ntsc>TRUE</ntsc>
								</rate>
								<string>11:12:34:18</string>
								<frame>968514</frame>
								<displayformat>NDF</displayformat>
								<reel>
									<name>A0050004</name>
								</reel>
							</timecode>
							<media>
								<video>
									<samplecharacteristics>
										<rate>
											<timebase>24</timebase>
											<ntsc>TRUE</ntsc>
										</rate>
										<width>4096</width>
										<height>2160</height>
										<anamorphic>FALSE</anamorphic>
										<pixelaspectratio>square</pixelaspectratio>
										<fielddominance>none</fielddominance>
									</samplecharacteristics>
								</video>
							</media>
						</file>
						<logginginfo>
							<description></description>
							<scene></scene>
							<shottake></shottake>
							<lognote></lognote>
							<good></good>
							<originalvideofilename></originalvideofilename>
							<originalaudiofilename></originalaudiofilename>
						</logginginfo>
						<colorinfo>
							<lut></lut>
							<lut1></lut1>
							<asc_sop></asc_sop>
							<asc_sat></asc_sat>
							<lut2></lut2>
						</colorinfo>
						<labels>
							<label2>Violet</label2>
						</labels>
					</clipitem>
					<clipitem id="clipitem-1110">
						<masterclipid>masterclip-1107</masterclipid>
						<name>TKO_017_SIX_Sh11580.mov</name>
						<enabled>TRUE</enabled>
						<duration>45</duration>
						<rate>
							<timebase>24</timebase>
							<ntsc>TRUE</ntsc>
						</rate>
						<start>82878</start>
						<end>82915</end>
						<in>4</in>
						<out>41</out>
						<pproTicksIn>42378336000</pproTicksIn>
						<pproTicksOut>434377944000</pproTicksOut>
						<alphatype>none</alphatype>
						<pixelaspectratio>square</pixelaspectratio>
						<anamorphic>FALSE</anamorphic>
						<file id="file-1107">
							<name>TKO_017_SIX_Sh11580.mov</name>
							<pathurl>file://tri-stor01/Projects/TKO/SHOTS/_Refs_Movs_Burnin_FrameCounter/TKO_017_SIX_Sh11580.mov</pathurl>
							<rate>
								<timebase>24</timebase>
								<ntsc>TRUE</ntsc>
							</rate>
							<duration>45</duration>
							<timecode>
								<rate>
									<timebase>24</timebase>
									<ntsc>TRUE</ntsc>
								</rate>
								<string>11:35:57:07</string>
								<frame>1002175</frame>
								<displayformat>NDF</displayformat>
								<reel>
									<name>B0030006</name>
								</reel>
							</timecode>
							<media>
								<video>
									<samplecharacteristics>
										<rate>
											<timebase>24</timebase>
											<ntsc>TRUE</ntsc>
										</rate>
										<width>4096</width>
										<height>2160</height>
										<anamorphic>FALSE</anamorphic>
										<pixelaspectratio>square</pixelaspectratio>
										<fielddominance>none</fielddominance>
									</samplecharacteristics>
								</video>
							</media>
						</file>
						<logginginfo>
							<description></description>
							<scene></scene>
							<shottake></shottake>
							<lognote></lognote>
							<good></good>
							<originalvideofilename></originalvideofilename>
							<originalaudiofilename></originalaudiofilename>
						</logginginfo>
						<colorinfo>
							<lut></lut>
							<lut1></lut1>
							<asc_sop></asc_sop>
							<asc_sat></asc_sat>
							<lut2></lut2>
						</colorinfo>
						<labels>
							<label2>Violet</label2>
						</labels>
					</clipitem>
					<clipitem id="clipitem-1111">
						<masterclipid>masterclip-1108</masterclipid>
						<name>TKO_017_SIX_Sh11590.mov</name>
						<enabled>TRUE</enabled>
						<duration>36</duration>
						<rate>
							<timebase>24</timebase>
							<ntsc>TRUE</ntsc>
						</rate>
						<start>82915</start>
						<end>82943</end>
						<in>4</in>
						<out>32</out>
						<pproTicksIn>42378336000</pproTicksIn>
						<pproTicksOut>339026688000</pproTicksOut>
						<alphatype>none</alphatype>
						<pixelaspectratio>square</pixelaspectratio>
						<anamorphic>FALSE</anamorphic>
						<file id="file-1108">
							<name>TKO_017_SIX_Sh11590.mov</name>
							<pathurl>file://tri-stor01/Projects/TKO/SHOTS/_Refs_Movs_Burnin_FrameCounter/TKO_017_SIX_Sh11590.mov</pathurl>
							<rate>
								<timebase>24</timebase>
								<ntsc>TRUE</ntsc>
							</rate>
							<duration>36</duration>
							<timecode>
								<rate>
									<timebase>24</timebase>
									<ntsc>TRUE</ntsc>
								</rate>
								<string>11:21:44:16</string>
								<frame>981712</frame>
								<displayformat>NDF</displayformat>
								<reel>
									<name>A0050005</name>
								</reel>
							</timecode>
							<media>
								<video>
									<samplecharacteristics>
										<rate>
											<timebase>24</timebase>
											<ntsc>TRUE</ntsc>
										</rate>
										<width>4096</width>
										<height>2160</height>
										<anamorphic>FALSE</anamorphic>
										<pixelaspectratio>square</pixelaspectratio>
										<fielddominance>none</fielddominance>
									</samplecharacteristics>
								</video>
							</media>
						</file>
						<logginginfo>
							<description></description>
							<scene></scene>
							<shottake></shottake>
							<lognote></lognote>
							<good></good>
							<originalvideofilename></originalvideofilename>
							<originalaudiofilename></originalaudiofilename>
						</logginginfo>
						<colorinfo>
							<lut></lut>
							<lut1></lut1>
							<asc_sop></asc_sop>
							<asc_sat></asc_sat>
							<lut2></lut2>
						</colorinfo>
						<labels>
							<label2>Violet</label2>
						</labels>
					</clipitem>
					<clipitem id="clipitem-1112">
						<masterclipid>masterclip-1109</masterclipid>
						<name>TKO_017_SIX_Sh11600.mov</name>
						<enabled>TRUE</enabled>
						<duration>125</duration>
						<rate>
							<timebase>24</timebase>
							<ntsc>TRUE</ntsc>
						</rate>
						<start>82943</start>
						<end>83060</end>
						<in>4</in>
						<out>121</out>
						<pproTicksIn>42378336000</pproTicksIn>
						<pproTicksOut>1281944664000</pproTicksOut>
						<alphatype>none</alphatype>
						<pixelaspectratio>square</pixelaspectratio>
						<anamorphic>FALSE</anamorphic>
						<file id="file-1109">
							<name>TKO_017_SIX_Sh11600.mov</name>
							<pathurl>file://tri-stor01/Projects/TKO/SHOTS/_Refs_Movs_Burnin_FrameCounter/TKO_017_SIX_Sh11600.mov</pathurl>
							<rate>
								<timebase>24</timebase>
								<ntsc>TRUE</ntsc>
							</rate>
							<duration>125</duration>
							<timecode>
								<rate>
									<timebase>24</timebase>
									<ntsc>TRUE</ntsc>
								</rate>
								<string>11:37:32:01</string>
								<frame>1004449</frame>
								<displayformat>NDF</displayformat>
								<reel>
									<name>B0030007</name>
								</reel>
							</timecode>
							<media>
								<video>
									<samplecharacteristics>
										<rate>
											<timebase>24</timebase>
											<ntsc>TRUE</ntsc>
										</rate>
										<width>4096</width>
										<height>2160</height>
										<anamorphic>FALSE</anamorphic>
										<pixelaspectratio>square</pixelaspectratio>
										<fielddominance>none</fielddominance>
									</samplecharacteristics>
								</video>
							</media>
						</file>
						<logginginfo>
							<description></description>
							<scene></scene>
							<shottake></shottake>
							<lognote></lognote>
							<good></good>
							<originalvideofilename></originalvideofilename>
							<originalaudiofilename></originalaudiofilename>
						</logginginfo>
						<colorinfo>
							<lut></lut>
							<lut1></lut1>
							<asc_sop></asc_sop>
							<asc_sat></asc_sat>
							<lut2></lut2>
						</colorinfo>
						<labels>
							<label2>Violet</label2>
						</labels>
					</clipitem>
					<clipitem id="clipitem-1113">
						<masterclipid>masterclip-1110</masterclipid>
						<name>TKO_017_SIX_Sh11610.mov</name>
						<enabled>TRUE</enabled>
						<duration>199</duration>
						<rate>
							<timebase>24</timebase>
							<ntsc>TRUE</ntsc>
						</rate>
						<start>83060</start>
						<end>83251</end>
						<in>4</in>
						<out>195</out>
						<pproTicksIn>42378336000</pproTicksIn>
						<pproTicksOut>2065943880000</pproTicksOut>
						<alphatype>none</alphatype>
						<pixelaspectratio>square</pixelaspectratio>
						<anamorphic>FALSE</anamorphic>
						<file id="file-1110">
							<name>TKO_017_SIX_Sh11610.mov</name>
							<pathurl>file://tri-stor01/Projects/TKO/SHOTS/_Refs_Movs_Burnin_FrameCounter/TKO_017_SIX_Sh11610.mov</pathurl>
							<rate>
								<timebase>24</timebase>
								<ntsc>TRUE</ntsc>
							</rate>
							<duration>199</duration>
							<timecode>
								<rate>
									<timebase>24</timebase>
									<ntsc>TRUE</ntsc>
								</rate>
								<string>11:22:19:09</string>
								<frame>982545</frame>
								<displayformat>NDF</displayformat>
								<reel>
									<name>B0030005</name>
								</reel>
							</timecode>
							<media>
								<video>
									<samplecharacteristics>
										<rate>
											<timebase>24</timebase>
											<ntsc>TRUE</ntsc>
										</rate>
										<width>4096</width>
										<height>2160</height>
										<anamorphic>FALSE</anamorphic>
										<pixelaspectratio>square</pixelaspectratio>
										<fielddominance>none</fielddominance>
									</samplecharacteristics>
								</video>
							</media>
						</file>
						<logginginfo>
							<description></description>
							<scene></scene>
							<shottake></shottake>
							<lognote></lognote>
							<good></good>
							<originalvideofilename></originalvideofilename>
							<originalaudiofilename></originalaudiofilename>
						</logginginfo>
						<colorinfo>
							<lut></lut>
							<lut1></lut1>
							<asc_sop></asc_sop>
							<asc_sat></asc_sat>
							<lut2></lut2>
						</colorinfo>
						<labels>
							<label2>Violet</label2>
						</labels>
					</clipitem>
					<clipitem id="clipitem-1114">
						<masterclipid>masterclip-1111</masterclipid>
						<name>TKO_017_SIX_Sh11620_MERGED.mov</name>
						<enabled>TRUE</enabled>
						<duration>246</duration>
						<rate>
							<timebase>24</timebase>
							<ntsc>TRUE</ntsc>
						</rate>
						<start>83251</start>
						<end>83489</end>
						<in>4</in>
						<out>242</out>
						<pproTicksIn>42378336000</pproTicksIn>
						<pproTicksOut>2563889328000</pproTicksOut>
						<alphatype>none</alphatype>
						<pixelaspectratio>square</pixelaspectratio>
						<anamorphic>FALSE</anamorphic>
						<file id="file-1111">
							<name>TKO_017_SIX_Sh11620_MERGED.mov</name>
							<pathurl>file://tri-stor01/Projects/TKO/SHOTS/_Refs_Movs_Burnin_FrameCounter/TKO_017_SIX_Sh11620_MERGED.mov</pathurl>
							<rate>
								<timebase>24</timebase>
								<ntsc>TRUE</ntsc>
							</rate>
							<duration>246</duration>
							<timecode>
								<rate>
									<timebase>24</timebase>
									<ntsc>TRUE</ntsc>
								</rate>
								<string>00:00:00:00</string>
								<frame>0</frame>
								<displayformat>NDF</displayformat>
							</timecode>
							<media>
								<video>
									<samplecharacteristics>
										<rate>
											<timebase>24</timebase>
											<ntsc>TRUE</ntsc>
										</rate>
										<width>1920</width>
										<height>1080</height>
										<anamorphic>FALSE</anamorphic>
										<pixelaspectratio>square</pixelaspectratio>
										<fielddominance>none</fielddominance>
									</samplecharacteristics>
								</video>
								<audio>
									<samplecharacteristics>
										<depth>16</depth>
										<samplerate>48000</samplerate>
									</samplecharacteristics>
									<channelcount>2</channelcount>
								</audio>
							</media>
						</file>
						<logginginfo>
							<description></description>
							<scene></scene>
							<shottake></shottake>
							<lognote></lognote>
							<good></good>
							<originalvideofilename></originalvideofilename>
							<originalaudiofilename></originalaudiofilename>
						</logginginfo>
						<colorinfo>
							<lut></lut>
							<lut1></lut1>
							<asc_sop></asc_sop>
							<asc_sat></asc_sat>
							<lut2></lut2>
						</colorinfo>
						<labels>
							<label2>Iris</label2>
						</labels>
					</clipitem>
					<clipitem id="clipitem-1115">
						<masterclipid>masterclip-1112</masterclipid>
						<name>TKO_017_SIX_Sh11630.mov</name>
						<enabled>TRUE</enabled>
						<duration>29</duration>
						<rate>
							<timebase>24</timebase>
							<ntsc>TRUE</ntsc>
						</rate>
						<start>83489</start>
						<end>83511</end>
						<in>3</in>
						<out>25</out>
						<pproTicksIn>31783752000</pproTicksIn>
						<pproTicksOut>264864600000</pproTicksOut>
						<alphatype>none</alphatype>
						<pixelaspectratio>square</pixelaspectratio>
						<anamorphic>FALSE</anamorphic>
						<file id="file-1112">
							<name>TKO_017_SIX_Sh11630.mov</name>
							<pathurl>file://tri-stor01/Projects/TKO/SHOTS/_Refs_Movs_Burnin_FrameCounter/TKO_017_SIX_Sh11630.mov</pathurl>
							<rate>
								<timebase>24</timebase>
								<ntsc>TRUE</ntsc>
							</rate>
							<duration>29</duration>
							<timecode>
								<rate>
									<timebase>24</timebase>
									<ntsc>TRUE</ntsc>
								</rate>
								<string>11:22:37:04</string>
								<frame>982972</frame>
								<displayformat>NDF</displayformat>
								<reel>
									<name>B0030005</name>
								</reel>
							</timecode>
							<media>
								<video>
									<samplecharacteristics>
										<rate>
											<timebase>24</timebase>
											<ntsc>TRUE</ntsc>
										</rate>
										<width>4096</width>
										<height>2160</height>
										<anamorphic>FALSE</anamorphic>
										<pixelaspectratio>square</pixelaspectratio>
										<fielddominance>none</fielddominance>
									</samplecharacteristics>
								</video>
							</media>
						</file>
						<logginginfo>
							<description></description>
							<scene></scene>
							<shottake></shottake>
							<lognote></lognote>
							<good></good>
							<originalvideofilename></originalvideofilename>
							<originalaudiofilename></originalaudiofilename>
						</logginginfo>
						<colorinfo>
							<lut></lut>
							<lut1></lut1>
							<asc_sop></asc_sop>
							<asc_sat></asc_sat>
							<lut2></lut2>
						</colorinfo>
						<labels>
							<label2>Violet</label2>
						</labels>
					</clipitem>
					<clipitem id="clipitem-1116">
						<masterclipid>masterclip-1113</masterclipid>
						<name>TKO_017_SIX_Sh11640.mov</name>
						<enabled>TRUE</enabled>
						<duration>118</duration>
						<rate>
							<timebase>24</timebase>
							<ntsc>TRUE</ntsc>
						</rate>
						<start>83511</start>
						<end>83617</end>
						<in>12</in>
						<out>113</out>
						<pproTicksIn>181514041188</pproTicksIn>
						<pproTicksOut>1822268448000</pproTicksOut>
						<alphatype>none</alphatype>
						<pixelaspectratio>square</pixelaspectratio>
						<anamorphic>FALSE</anamorphic>
						<file id="file-1113">
							<name>TKO_017_SIX_Sh11640.mov</name>
							<pathurl>file://tri-stor01/Projects/TKO/SHOTS/_Refs_Movs_Burnin_FrameCounter/TKO_017_SIX_Sh11640.mov</pathurl>
							<rate>
								<timebase>24</timebase>
								<ntsc>TRUE</ntsc>
							</rate>
							<duration>180</duration>
							<timecode>
								<rate>
									<timebase>24</timebase>
									<ntsc>TRUE</ntsc>
								</rate>
								<string>18:53:46:00</string>
								<frame>1632624</frame>
								<displayformat>NDF</displayformat>
								<reel>
									<name>A0070009</name>
								</reel>
							</timecode>
							<media>
								<video>
									<samplecharacteristics>
										<rate>
											<timebase>24</timebase>
											<ntsc>TRUE</ntsc>
										</rate>
										<width>4096</width>
										<height>2160</height>
										<anamorphic>FALSE</anamorphic>
										<pixelaspectratio>square</pixelaspectratio>
										<fielddominance>none</fielddominance>
									</samplecharacteristics>
								</video>
							</media>
						</file>
						<filter>
							<effect>
								<name>Time Remap</name>
								<effectid>timeremap</effectid>
								<effectcategory>motion</effectcategory>
								<effecttype>motion</effecttype>
								<mediatype>video</mediatype>
								<parameter authoringApp="PremierePro">
									<parameterid>variablespeed</parameterid>
									<name>variablespeed</name>
									<valuemin>0</valuemin>
									<valuemax>1</valuemax>
									<value>0</value>
								</parameter>
								<parameter authoringApp="PremierePro">
									<parameterid>speed</parameterid>
									<name>speed</name>
									<valuemin>-100000</valuemin>
									<valuemax>100000</valuemax>
									<value>152.212</value>
								</parameter>
								<parameter authoringApp="PremierePro">
									<parameterid>reverse</parameterid>
									<name>reverse</name>
									<value>FALSE</value>
								</parameter>
								<parameter authoringApp="PremierePro">
									<parameterid>frameblending</parameterid>
									<name>frameblending</name>
									<value>FALSE</value>
								</parameter>
								<parameter authoringApp="PremierePro">
									<parameterid>graphdict</parameterid>
									<name>graphdict</name>
									<valuemin>0</valuemin>
									<valuemax>179</valuemax>
									<value>0</value>
									<keyframe>
										<when>0</when>
										<value>0</value>
										<speedvirtualkf>TRUE</speedvirtualkf>
										<speedkfstart>TRUE</speedkfstart>
									</keyframe>
									<keyframe>
										<when>12</when>
										<value>18</value>
										<speedvirtualkf>TRUE</speedvirtualkf>
										<speedkfin>TRUE</speedkfin>
									</keyframe>
									<keyframe>
										<when>113</when>
										<value>171</value>
										<speedvirtualkf>TRUE</speedvirtualkf>
										<speedkfout>TRUE</speedkfout>
									</keyframe>
									<keyframe>
										<when>118</when>
										<value>179</value>
										<speedvirtualkf>TRUE</speedvirtualkf>
										<speedkfend>TRUE</speedkfend>
									</keyframe>
									<interpolation>
										<name>FCPCurve</name>
									</interpolation>
								</parameter>
							</effect>
						</filter>
						<logginginfo>
							<description></description>
							<scene></scene>
							<shottake></shottake>
							<lognote></lognote>
							<good></good>
							<originalvideofilename></originalvideofilename>
							<originalaudiofilename></originalaudiofilename>
						</logginginfo>
						<colorinfo>
							<lut></lut>
							<lut1></lut1>
							<asc_sop></asc_sop>
							<asc_sat></asc_sat>
							<lut2></lut2>
						</colorinfo>
						<labels>
							<label2>Violet</label2>
						</labels>
					</clipitem>
					<clipitem id="clipitem-1117">
						<masterclipid>masterclip-1114</masterclipid>
						<name>TKO_017_SIX_Sh11650.mov</name>
						<enabled>TRUE</enabled>
						<duration>65</duration>
						<rate>
							<timebase>24</timebase>
							<ntsc>TRUE</ntsc>
						</rate>
						<start>83617</start>
						<end>83674</end>
						<in>4</in>
						<out>61</out>
						<pproTicksIn>42378336000</pproTicksIn>
						<pproTicksOut>646269624000</pproTicksOut>
						<alphatype>none</alphatype>
						<pixelaspectratio>square</pixelaspectratio>
						<anamorphic>FALSE</anamorphic>
						<file id="file-1114">
							<name>TKO_017_SIX_Sh11650.mov</name>
							<pathurl>file://tri-stor01/Projects/TKO/SHOTS/_Refs_Movs_Burnin_FrameCounter/TKO_017_SIX_Sh11650.mov</pathurl>
							<rate>
								<timebase>24</timebase>
								<ntsc>TRUE</ntsc>
							</rate>
							<duration>65</duration>
							<timecode>
								<rate>
									<timebase>24</timebase>
									<ntsc>TRUE</ntsc>
								</rate>
								<string>11:22:39:11</string>
								<frame>983027</frame>
								<displayformat>NDF</displayformat>
								<reel>
									<name>B0030005</name>
								</reel>
							</timecode>
							<media>
								<video>
									<samplecharacteristics>
										<rate>
											<timebase>24</timebase>
											<ntsc>TRUE</ntsc>
										</rate>
										<width>4096</width>
										<height>2160</height>
										<anamorphic>FALSE</anamorphic>
										<pixelaspectratio>square</pixelaspectratio>
										<fielddominance>none</fielddominance>
									</samplecharacteristics>
								</video>
							</media>
						</file>
						<logginginfo>
							<description></description>
							<scene></scene>
							<shottake></shottake>
							<lognote></lognote>
							<good></good>
							<originalvideofilename></originalvideofilename>
							<originalaudiofilename></originalaudiofilename>
						</logginginfo>
						<colorinfo>
							<lut></lut>
							<lut1></lut1>
							<asc_sop></asc_sop>
							<asc_sat></asc_sat>
							<lut2></lut2>
						</colorinfo>
						<labels>
							<label2>Violet</label2>
						</labels>
					</clipitem>
					<clipitem id="clipitem-1118">
						<masterclipid>masterclip-1115</masterclipid>
						<name>TKO_017_SIX_Sh11660.mov</name>
						<enabled>TRUE</enabled>
						<duration>48</duration>
						<rate>
							<timebase>24</timebase>
							<ntsc>TRUE</ntsc>
						</rate>
						<start>83674</start>
						<end>83714</end>
						<in>4</in>
						<out>44</out>
						<pproTicksIn>42378336000</pproTicksIn>
						<pproTicksOut>466161696000</pproTicksOut>
						<alphatype>none</alphatype>
						<pixelaspectratio>square</pixelaspectratio>
						<anamorphic>FALSE</anamorphic>
						<file id="file-1115">
							<name>TKO_017_SIX_Sh11660.mov</name>
							<pathurl>file://tri-stor01/Projects/TKO/SHOTS/_Refs_Movs_Burnin_FrameCounter/TKO_017_SIX_Sh11660.mov</pathurl>
							<rate>
								<timebase>24</timebase>
								<ntsc>TRUE</ntsc>
							</rate>
							<duration>48</duration>
							<timecode>
								<rate>
									<timebase>24</timebase>
									<ntsc>TRUE</ntsc>
								</rate>
								<string>18:53:55:21</string>
								<frame>1632861</frame>
								<displayformat>NDF</displayformat>
								<reel>
									<name>A0070009</name>
								</reel>
							</timecode>
							<media>
								<video>
									<samplecharacteristics>
										<rate>
											<timebase>24</timebase>
											<ntsc>TRUE</ntsc>
										</rate>
										<width>4096</width>
										<height>2160</height>
										<anamorphic>FALSE</anamorphic>
										<pixelaspectratio>square</pixelaspectratio>
										<fielddominance>none</fielddominance>
									</samplecharacteristics>
								</video>
							</media>
						</file>
						<logginginfo>
							<description></description>
							<scene></scene>
							<shottake></shottake>
							<lognote></lognote>
							<good></good>
							<originalvideofilename></originalvideofilename>
							<originalaudiofilename></originalaudiofilename>
						</logginginfo>
						<colorinfo>
							<lut></lut>
							<lut1></lut1>
							<asc_sop></asc_sop>
							<asc_sat></asc_sat>
							<lut2></lut2>
						</colorinfo>
						<labels>
							<label2>Violet</label2>
						</labels>
					</clipitem>
					<clipitem id="clipitem-1119">
						<masterclipid>masterclip-1116</masterclipid>
						<name>TKO_017_SIX_Sh11670.mov</name>
						<enabled>TRUE</enabled>
						<duration>39</duration>
						<rate>
							<timebase>24</timebase>
							<ntsc>TRUE</ntsc>
						</rate>
						<start>83714</start>
						<end>83745</end>
						<in>4</in>
						<out>35</out>
						<pproTicksIn>42378336000</pproTicksIn>
						<pproTicksOut>370810440000</pproTicksOut>
						<alphatype>none</alphatype>
						<pixelaspectratio>square</pixelaspectratio>
						<anamorphic>FALSE</anamorphic>
						<file id="file-1116">
							<name>TKO_017_SIX_Sh11670.mov</name>
							<pathurl>file://tri-stor01/Projects/TKO/SHOTS/_Refs_Movs_Burnin_FrameCounter/TKO_017_SIX_Sh11670.mov</pathurl>
							<rate>
								<timebase>24</timebase>
								<ntsc>TRUE</ntsc>
							</rate>
							<duration>39</duration>
							<timecode>
								<rate>
									<timebase>24</timebase>
									<ntsc>TRUE</ntsc>
								</rate>
								<string>10:37:01:11</string>
								<frame>917315</frame>
								<displayformat>NDF</displayformat>
								<reel>
									<name>B0030003</name>
								</reel>
							</timecode>
							<media>
								<video>
									<samplecharacteristics>
										<rate>
											<timebase>24</timebase>
											<ntsc>TRUE</ntsc>
										</rate>
										<width>4096</width>
										<height>2160</height>
										<anamorphic>FALSE</anamorphic>
										<pixelaspectratio>square</pixelaspectratio>
										<fielddominance>none</fielddominance>
									</samplecharacteristics>
								</video>
							</media>
						</file>
						<logginginfo>
							<description></description>
							<scene></scene>
							<shottake></shottake>
							<lognote></lognote>
							<good></good>
							<originalvideofilename></originalvideofilename>
							<originalaudiofilename></originalaudiofilename>
						</logginginfo>
						<colorinfo>
							<lut></lut>
							<lut1></lut1>
							<asc_sop></asc_sop>
							<asc_sat></asc_sat>
							<lut2></lut2>
						</colorinfo>
						<labels>
							<label2>Violet</label2>
						</labels>
					</clipitem>
					<clipitem id="clipitem-1120">
						<masterclipid>masterclip-1117</masterclipid>
						<name>TKO_017_SIX_Sh11710.mov</name>
						<enabled>TRUE</enabled>
						<duration>136</duration>
						<rate>
							<timebase>24</timebase>
							<ntsc>TRUE</ntsc>
						</rate>
						<start>83745</start>
						<end>83871</end>
						<in>6</in>
						<out>132</out>
						<pproTicksIn>63567504000</pproTicksIn>
						<pproTicksOut>1398485088000</pproTicksOut>
						<alphatype>none</alphatype>
						<pixelaspectratio>square</pixelaspectratio>
						<anamorphic>FALSE</anamorphic>
						<file id="file-1117">
							<name>TKO_017_SIX_Sh11710.mov</name>
							<pathurl>file://tri-stor01/Projects/TKO/SHOTS/_Refs_Movs_Burnin_FrameCounter/TKO_017_SIX_Sh11710.mov</pathurl>
							<rate>
								<timebase>24</timebase>
								<ntsc>TRUE</ntsc>
							</rate>
							<duration>136</duration>
							<timecode>
								<rate>
									<timebase>24</timebase>
									<ntsc>TRUE</ntsc>
								</rate>
								<string>11:13:42:03</string>
								<frame>970131</frame>
								<displayformat>NDF</displayformat>
								<reel>
									<name>B0030004</name>
								</reel>
							</timecode>
							<media>
								<video>
									<samplecharacteristics>
										<rate>
											<timebase>24</timebase>
											<ntsc>TRUE</ntsc>
										</rate>
										<width>4096</width>
										<height>2160</height>
										<anamorphic>FALSE</anamorphic>
										<pixelaspectratio>square</pixelaspectratio>
										<fielddominance>none</fielddominance>
									</samplecharacteristics>
								</video>
							</media>
						</file>
						<logginginfo>
							<description></description>
							<scene></scene>
							<shottake></shottake>
							<lognote></lognote>
							<good></good>
							<originalvideofilename></originalvideofilename>
							<originalaudiofilename></originalaudiofilename>
						</logginginfo>
						<colorinfo>
							<lut></lut>
							<lut1></lut1>
							<asc_sop></asc_sop>
							<asc_sat></asc_sat>
							<lut2></lut2>
						</colorinfo>
						<labels>
							<label2>Violet</label2>
						</labels>
					</clipitem>
					<clipitem id="clipitem-1121">
						<masterclipid>masterclip-1118</masterclipid>
						<name>TKO_017_SIX_Sh11720.mov</name>
						<enabled>TRUE</enabled>
						<duration>63</duration>
						<rate>
							<timebase>24</timebase>
							<ntsc>TRUE</ntsc>
						</rate>
						<start>83871</start>
						<end>83926</end>
						<in>4</in>
						<out>59</out>
						<pproTicksIn>42378336000</pproTicksIn>
						<pproTicksOut>625080456000</pproTicksOut>
						<alphatype>none</alphatype>
						<pixelaspectratio>square</pixelaspectratio>
						<anamorphic>FALSE</anamorphic>
						<file id="file-1118">
							<name>TKO_017_SIX_Sh11720.mov</name>
							<pathurl>file://tri-stor01/Projects/TKO/SHOTS/_Refs_Movs_Burnin_FrameCounter/TKO_017_SIX_Sh11720.mov</pathurl>
							<rate>
								<timebase>24</timebase>
								<ntsc>TRUE</ntsc>
							</rate>
							<duration>63</duration>
							<timecode>
								<rate>
									<timebase>24</timebase>
									<ntsc>TRUE</ntsc>
								</rate>
								<string>16:26:31:23</string>
								<frame>1420607</frame>
								<displayformat>NDF</displayformat>
								<reel>
									<name>B0040013</name>
								</reel>
							</timecode>
							<media>
								<video>
									<samplecharacteristics>
										<rate>
											<timebase>24</timebase>
											<ntsc>TRUE</ntsc>
										</rate>
										<width>4096</width>
										<height>2160</height>
										<anamorphic>FALSE</anamorphic>
										<pixelaspectratio>square</pixelaspectratio>
										<fielddominance>none</fielddominance>
									</samplecharacteristics>
								</video>
							</media>
						</file>
						<logginginfo>
							<description></description>
							<scene></scene>
							<shottake></shottake>
							<lognote></lognote>
							<good></good>
							<originalvideofilename></originalvideofilename>
							<originalaudiofilename></originalaudiofilename>
						</logginginfo>
						<colorinfo>
							<lut></lut>
							<lut1></lut1>
							<asc_sop></asc_sop>
							<asc_sat></asc_sat>
							<lut2></lut2>
						</colorinfo>
						<labels>
							<label2>Violet</label2>
						</labels>
					</clipitem>
					<clipitem id="clipitem-1122">
						<masterclipid>masterclip-1119</masterclipid>
						<name>TKO_017_SIX_Sh11730.mov</name>
						<enabled>TRUE</enabled>
						<duration>64</duration>
						<rate>
							<timebase>24</timebase>
							<ntsc>TRUE</ntsc>
						</rate>
						<start>83926</start>
						<end>83982</end>
						<in>4</in>
						<out>60</out>
						<pproTicksIn>42378336000</pproTicksIn>
						<pproTicksOut>635675040000</pproTicksOut>
						<alphatype>none</alphatype>
						<pixelaspectratio>square</pixelaspectratio>
						<anamorphic>FALSE</anamorphic>
						<file id="file-1119">
							<name>TKO_017_SIX_Sh11730.mov</name>
							<pathurl>file://tri-stor01/Projects/TKO/SHOTS/_Refs_Movs_Burnin_FrameCounter/TKO_017_SIX_Sh11730.mov</pathurl>
							<rate>
								<timebase>24</timebase>
								<ntsc>TRUE</ntsc>
							</rate>
							<duration>64</duration>
							<timecode>
								<rate>
									<timebase>24</timebase>
									<ntsc>TRUE</ntsc>
								</rate>
								<string>01:36:41:17</string>
								<frame>139241</frame>
								<displayformat>NDF</displayformat>
								<reel>
									<name>C0020007</name>
								</reel>
							</timecode>
							<media>
								<video>
									<samplecharacteristics>
										<rate>
											<timebase>24</timebase>
											<ntsc>TRUE</ntsc>
										</rate>
										<width>3840</width>
										<height>2160</height>
										<anamorphic>FALSE</anamorphic>
										<pixelaspectratio>square</pixelaspectratio>
										<fielddominance>none</fielddominance>
									</samplecharacteristics>
								</video>
							</media>
						</file>
						<logginginfo>
							<description></description>
							<scene></scene>
							<shottake></shottake>
							<lognote></lognote>
							<good></good>
							<originalvideofilename></originalvideofilename>
							<originalaudiofilename></originalaudiofilename>
						</logginginfo>
						<colorinfo>
							<lut></lut>
							<lut1></lut1>
							<asc_sop></asc_sop>
							<asc_sat></asc_sat>
							<lut2></lut2>
						</colorinfo>
						<labels>
							<label2>Violet</label2>
						</labels>
					</clipitem>
					<clipitem id="clipitem-1123">
						<masterclipid>masterclip-1120</masterclipid>
						<name>TKO_017_SIX_Sh11740.mov</name>
						<enabled>TRUE</enabled>
						<duration>68</duration>
						<rate>
							<timebase>24</timebase>
							<ntsc>TRUE</ntsc>
						</rate>
						<start>83982</start>
						<end>84042</end>
						<in>4</in>
						<out>64</out>
						<pproTicksIn>42378336000</pproTicksIn>
						<pproTicksOut>678053376000</pproTicksOut>
						<alphatype>none</alphatype>
						<pixelaspectratio>square</pixelaspectratio>
						<anamorphic>FALSE</anamorphic>
						<file id="file-1120">
							<name>TKO_017_SIX_Sh11740.mov</name>
							<pathurl>file://tri-stor01/Projects/TKO/SHOTS/_Refs_Movs_Burnin_FrameCounter/TKO_017_SIX_Sh11740.mov</pathurl>
							<rate>
								<timebase>24</timebase>
								<ntsc>TRUE</ntsc>
							</rate>
							<duration>68</duration>
							<timecode>
								<rate>
									<timebase>24</timebase>
									<ntsc>TRUE</ntsc>
								</rate>
								<string>10:37:45:03</string>
								<frame>918363</frame>
								<displayformat>NDF</displayformat>
								<reel>
									<name>B0030003</name>
								</reel>
							</timecode>
							<media>
								<video>
									<samplecharacteristics>
										<rate>
											<timebase>24</timebase>
											<ntsc>TRUE</ntsc>
										</rate>
										<width>4096</width>
										<height>2160</height>
										<anamorphic>FALSE</anamorphic>
										<pixelaspectratio>square</pixelaspectratio>
										<fielddominance>none</fielddominance>
									</samplecharacteristics>
								</video>
							</media>
						</file>
						<logginginfo>
							<description></description>
							<scene></scene>
							<shottake></shottake>
							<lognote></lognote>
							<good></good>
							<originalvideofilename></originalvideofilename>
							<originalaudiofilename></originalaudiofilename>
						</logginginfo>
						<colorinfo>
							<lut></lut>
							<lut1></lut1>
							<asc_sop></asc_sop>
							<asc_sat></asc_sat>
							<lut2></lut2>
						</colorinfo>
						<labels>
							<label2>Violet</label2>
						</labels>
					</clipitem>
					<clipitem id="clipitem-1124">
						<masterclipid>masterclip-1121</masterclipid>
						<name>TKO_017_SIX_Sh11750.mov</name>
						<enabled>TRUE</enabled>
						<duration>57</duration>
						<rate>
							<timebase>24</timebase>
							<ntsc>TRUE</ntsc>
						</rate>
						<start>84042</start>
						<end>84091</end>
						<in>4</in>
						<out>53</out>
						<pproTicksIn>42378336000</pproTicksIn>
						<pproTicksOut>561512952000</pproTicksOut>
						<alphatype>none</alphatype>
						<pixelaspectratio>square</pixelaspectratio>
						<anamorphic>FALSE</anamorphic>
						<file id="file-1121">
							<name>TKO_017_SIX_Sh11750.mov</name>
							<pathurl>file://tri-stor01/Projects/TKO/SHOTS/_Refs_Movs_Burnin_FrameCounter/TKO_017_SIX_Sh11750.mov</pathurl>
							<rate>
								<timebase>24</timebase>
								<ntsc>TRUE</ntsc>
							</rate>
							<duration>57</duration>
							<timecode>
								<rate>
									<timebase>24</timebase>
									<ntsc>TRUE</ntsc>
								</rate>
								<string>10:37:47:22</string>
								<frame>918430</frame>
								<displayformat>NDF</displayformat>
								<reel>
									<name>A0050003</name>
								</reel>
							</timecode>
							<media>
								<video>
									<samplecharacteristics>
										<rate>
											<timebase>24</timebase>
											<ntsc>TRUE</ntsc>
										</rate>
										<width>4096</width>
										<height>2160</height>
										<anamorphic>FALSE</anamorphic>
										<pixelaspectratio>square</pixelaspectratio>
										<fielddominance>none</fielddominance>
									</samplecharacteristics>
								</video>
							</media>
						</file>
						<logginginfo>
							<description></description>
							<scene></scene>
							<shottake></shottake>
							<lognote></lognote>
							<good></good>
							<originalvideofilename></originalvideofilename>
							<originalaudiofilename></originalaudiofilename>
						</logginginfo>
						<colorinfo>
							<lut></lut>
							<lut1></lut1>
							<asc_sop></asc_sop>
							<asc_sat></asc_sat>
							<lut2></lut2>
						</colorinfo>
						<labels>
							<label2>Violet</label2>
						</labels>
					</clipitem>
					<clipitem id="clipitem-1125">
						<masterclipid>masterclip-1122</masterclipid>
						<name>TKO_017_SIX_Sh11760.mov</name>
						<enabled>TRUE</enabled>
						<duration>124</duration>
						<rate>
							<timebase>24</timebase>
							<ntsc>TRUE</ntsc>
						</rate>
						<start>84091</start>
						<end>84207</end>
						<in>4</in>
						<out>120</out>
						<pproTicksIn>42378336000</pproTicksIn>
						<pproTicksOut>1271350080000</pproTicksOut>
						<alphatype>none</alphatype>
						<pixelaspectratio>square</pixelaspectratio>
						<anamorphic>FALSE</anamorphic>
						<file id="file-1122">
							<name>TKO_017_SIX_Sh11760.mov</name>
							<pathurl>file://tri-stor01/Projects/TKO/SHOTS/_Refs_Movs_Burnin_FrameCounter/TKO_017_SIX_Sh11760.mov</pathurl>
							<rate>
								<timebase>24</timebase>
								<ntsc>TRUE</ntsc>
							</rate>
							<duration>124</duration>
							<timecode>
								<rate>
									<timebase>24</timebase>
									<ntsc>TRUE</ntsc>
								</rate>
								<string>10:15:04:03</string>
								<frame>885699</frame>
								<displayformat>NDF</displayformat>
								<reel>
									<name>B0030001</name>
								</reel>
							</timecode>
							<media>
								<video>
									<samplecharacteristics>
										<rate>
											<timebase>24</timebase>
											<ntsc>TRUE</ntsc>
										</rate>
										<width>4096</width>
										<height>2160</height>
										<anamorphic>FALSE</anamorphic>
										<pixelaspectratio>square</pixelaspectratio>
										<fielddominance>none</fielddominance>
									</samplecharacteristics>
								</video>
							</media>
						</file>
						<logginginfo>
							<description></description>
							<scene></scene>
							<shottake></shottake>
							<lognote></lognote>
							<good></good>
							<originalvideofilename></originalvideofilename>
							<originalaudiofilename></originalaudiofilename>
						</logginginfo>
						<colorinfo>
							<lut></lut>
							<lut1></lut1>
							<asc_sop></asc_sop>
							<asc_sat></asc_sat>
							<lut2></lut2>
						</colorinfo>
						<labels>
							<label2>Violet</label2>
						</labels>
					</clipitem>
					<clipitem id="clipitem-1126">
						<masterclipid>masterclip-1123</masterclipid>
						<name>TKO_017_SIX_Sh11770.mov</name>
						<enabled>TRUE</enabled>
						<duration>115</duration>
						<rate>
							<timebase>24</timebase>
							<ntsc>TRUE</ntsc>
						</rate>
						<start>84207</start>
						<end>84314</end>
						<in>4</in>
						<out>111</out>
						<pproTicksIn>42378336000</pproTicksIn>
						<pproTicksOut>1175998824000</pproTicksOut>
						<alphatype>none</alphatype>
						<pixelaspectratio>square</pixelaspectratio>
						<anamorphic>FALSE</anamorphic>
						<file id="file-1123">
							<name>TKO_017_SIX_Sh11770.mov</name>
							<pathurl>file://tri-stor01/Projects/TKO/SHOTS/_Refs_Movs_Burnin_FrameCounter/TKO_017_SIX_Sh11770.mov</pathurl>
							<rate>
								<timebase>24</timebase>
								<ntsc>TRUE</ntsc>
							</rate>
							<duration>115</duration>
							<timecode>
								<rate>
									<timebase>24</timebase>
									<ntsc>TRUE</ntsc>
								</rate>
								<string>10:37:55:16</string>
								<frame>918616</frame>
								<displayformat>NDF</displayformat>
								<reel>
									<name>B0030003</name>
								</reel>
							</timecode>
							<media>
								<video>
									<samplecharacteristics>
										<rate>
											<timebase>24</timebase>
											<ntsc>TRUE</ntsc>
										</rate>
										<width>4096</width>
										<height>2160</height>
										<anamorphic>FALSE</anamorphic>
										<pixelaspectratio>square</pixelaspectratio>
										<fielddominance>none</fielddominance>
									</samplecharacteristics>
								</video>
							</media>
						</file>
						<logginginfo>
							<description></description>
							<scene></scene>
							<shottake></shottake>
							<lognote></lognote>
							<good></good>
							<originalvideofilename></originalvideofilename>
							<originalaudiofilename></originalaudiofilename>
						</logginginfo>
						<colorinfo>
							<lut></lut>
							<lut1></lut1>
							<asc_sop></asc_sop>
							<asc_sat></asc_sat>
							<lut2></lut2>
						</colorinfo>
						<labels>
							<label2>Violet</label2>
						</labels>
					</clipitem>
					<clipitem id="clipitem-1127">
						<masterclipid>masterclip-1124</masterclipid>
						<name>TKO_017_SIX_Sh11780.mov</name>
						<enabled>TRUE</enabled>
						<duration>64</duration>
						<rate>
							<timebase>24</timebase>
							<ntsc>TRUE</ntsc>
						</rate>
						<start>84314</start>
						<end>84370</end>
						<in>4</in>
						<out>60</out>
						<pproTicksIn>42378336000</pproTicksIn>
						<pproTicksOut>635675040000</pproTicksOut>
						<alphatype>none</alphatype>
						<pixelaspectratio>square</pixelaspectratio>
						<anamorphic>FALSE</anamorphic>
						<file id="file-1124">
							<name>TKO_017_SIX_Sh11780.mov</name>
							<pathurl>file://tri-stor01/Projects/TKO/SHOTS/_Refs_Movs_Burnin_FrameCounter/TKO_017_SIX_Sh11780.mov</pathurl>
							<rate>
								<timebase>24</timebase>
								<ntsc>TRUE</ntsc>
							</rate>
							<duration>64</duration>
							<timecode>
								<rate>
									<timebase>24</timebase>
									<ntsc>TRUE</ntsc>
								</rate>
								<string>10:38:02:00</string>
								<frame>918768</frame>
								<displayformat>NDF</displayformat>
								<reel>
									<name>A0050003</name>
								</reel>
							</timecode>
							<media>
								<video>
									<samplecharacteristics>
										<rate>
											<timebase>24</timebase>
											<ntsc>TRUE</ntsc>
										</rate>
										<width>4096</width>
										<height>2160</height>
										<anamorphic>FALSE</anamorphic>
										<pixelaspectratio>square</pixelaspectratio>
										<fielddominance>none</fielddominance>
									</samplecharacteristics>
								</video>
							</media>
						</file>
						<logginginfo>
							<description></description>
							<scene></scene>
							<shottake></shottake>
							<lognote></lognote>
							<good></good>
							<originalvideofilename></originalvideofilename>
							<originalaudiofilename></originalaudiofilename>
						</logginginfo>
						<colorinfo>
							<lut></lut>
							<lut1></lut1>
							<asc_sop></asc_sop>
							<asc_sat></asc_sat>
							<lut2></lut2>
						</colorinfo>
						<labels>
							<label2>Violet</label2>
						</labels>
					</clipitem>
					<clipitem id="clipitem-1128">
						<masterclipid>masterclip-1125</masterclipid>
						<name>TKO_017_SIX_Sh11790.mov</name>
						<enabled>TRUE</enabled>
						<duration>67</duration>
						<rate>
							<timebase>24</timebase>
							<ntsc>TRUE</ntsc>
						</rate>
						<start>84370</start>
						<end>84429</end>
						<in>4</in>
						<out>63</out>
						<pproTicksIn>42378336000</pproTicksIn>
						<pproTicksOut>667458792000</pproTicksOut>
						<alphatype>none</alphatype>
						<pixelaspectratio>square</pixelaspectratio>
						<anamorphic>FALSE</anamorphic>
						<file id="file-1125">
							<name>TKO_017_SIX_Sh11790.mov</name>
							<pathurl>file://tri-stor01/Projects/TKO/SHOTS/_Refs_Movs_Burnin_FrameCounter/TKO_017_SIX_Sh11790.mov</pathurl>
							<rate>
								<timebase>24</timebase>
								<ntsc>TRUE</ntsc>
							</rate>
							<duration>67</duration>
							<timecode>
								<rate>
									<timebase>24</timebase>
									<ntsc>TRUE</ntsc>
								</rate>
								<string>10:38:05:00</string>
								<frame>918840</frame>
								<displayformat>NDF</displayformat>
								<reel>
									<name>B0030003</name>
								</reel>
							</timecode>
							<media>
								<video>
									<samplecharacteristics>
										<rate>
											<timebase>24</timebase>
											<ntsc>TRUE</ntsc>
										</rate>
										<width>4096</width>
										<height>2160</height>
										<anamorphic>FALSE</anamorphic>
										<pixelaspectratio>square</pixelaspectratio>
										<fielddominance>none</fielddominance>
									</samplecharacteristics>
								</video>
							</media>
						</file>
						<logginginfo>
							<description></description>
							<scene></scene>
							<shottake></shottake>
							<lognote></lognote>
							<good></good>
							<originalvideofilename></originalvideofilename>
							<originalaudiofilename></originalaudiofilename>
						</logginginfo>
						<colorinfo>
							<lut></lut>
							<lut1></lut1>
							<asc_sop></asc_sop>
							<asc_sat></asc_sat>
							<lut2></lut2>
						</colorinfo>
						<labels>
							<label2>Violet</label2>
						</labels>
					</clipitem>
					<clipitem id="clipitem-1129">
						<masterclipid>masterclip-1126</masterclipid>
						<name>TKO_017_SIX_Sh11800.mov</name>
						<enabled>TRUE</enabled>
						<duration>87</duration>
						<rate>
							<timebase>24</timebase>
							<ntsc>TRUE</ntsc>
						</rate>
						<start>84429</start>
						<end>84508</end>
						<in>4</in>
						<out>83</out>
						<pproTicksIn>42378336000</pproTicksIn>
						<pproTicksOut>879350472000</pproTicksOut>
						<alphatype>none</alphatype>
						<pixelaspectratio>square</pixelaspectratio>
						<anamorphic>FALSE</anamorphic>
						<file id="file-1126">
							<name>TKO_017_SIX_Sh11800.mov</name>
							<pathurl>file://tri-stor01/Projects/TKO/SHOTS/_Refs_Movs_Burnin_FrameCounter/TKO_017_SIX_Sh11800.mov</pathurl>
							<rate>
								<timebase>24</timebase>
								<ntsc>TRUE</ntsc>
							</rate>
							<duration>87</duration>
							<timecode>
								<rate>
									<timebase>24</timebase>
									<ntsc>TRUE</ntsc>
								</rate>
								<string>10:38:07:11</string>
								<frame>918899</frame>
								<displayformat>NDF</displayformat>
								<reel>
									<name>A0050003</name>
								</reel>
							</timecode>
							<media>
								<video>
									<samplecharacteristics>
										<rate>
											<timebase>24</timebase>
											<ntsc>TRUE</ntsc>
										</rate>
										<width>4096</width>
										<height>2160</height>
										<anamorphic>FALSE</anamorphic>
										<pixelaspectratio>square</pixelaspectratio>
										<fielddominance>none</fielddominance>
									</samplecharacteristics>
								</video>
							</media>
						</file>
						<logginginfo>
							<description></description>
							<scene></scene>
							<shottake></shottake>
							<lognote></lognote>
							<good></good>
							<originalvideofilename></originalvideofilename>
							<originalaudiofilename></originalaudiofilename>
						</logginginfo>
						<colorinfo>
							<lut></lut>
							<lut1></lut1>
							<asc_sop></asc_sop>
							<asc_sat></asc_sat>
							<lut2></lut2>
						</colorinfo>
						<labels>
							<label2>Violet</label2>
						</labels>
					</clipitem>
					<clipitem id="clipitem-1130">
						<masterclipid>masterclip-1127</masterclipid>
						<name>TKO_017_SIX_Sh11810.mov</name>
						<enabled>TRUE</enabled>
						<duration>65</duration>
						<rate>
							<timebase>24</timebase>
							<ntsc>TRUE</ntsc>
						</rate>
						<start>84508</start>
						<end>84565</end>
						<in>4</in>
						<out>61</out>
						<pproTicksIn>42378336000</pproTicksIn>
						<pproTicksOut>646269624000</pproTicksOut>
						<alphatype>none</alphatype>
						<pixelaspectratio>square</pixelaspectratio>
						<anamorphic>FALSE</anamorphic>
						<file id="file-1127">
							<name>TKO_017_SIX_Sh11810.mov</name>
							<pathurl>file://tri-stor01/Projects/TKO/SHOTS/_Refs_Movs_Burnin_FrameCounter/TKO_017_SIX_Sh11810.mov</pathurl>
							<rate>
								<timebase>24</timebase>
								<ntsc>TRUE</ntsc>
							</rate>
							<duration>65</duration>
							<timecode>
								<rate>
									<timebase>24</timebase>
									<ntsc>TRUE</ntsc>
								</rate>
								<string>11:23:29:17</string>
								<frame>984233</frame>
								<displayformat>NDF</displayformat>
								<reel>
									<name>B0030005</name>
								</reel>
							</timecode>
							<media>
								<video>
									<samplecharacteristics>
										<rate>
											<timebase>24</timebase>
											<ntsc>TRUE</ntsc>
										</rate>
										<width>4096</width>
										<height>2160</height>
										<anamorphic>FALSE</anamorphic>
										<pixelaspectratio>square</pixelaspectratio>
										<fielddominance>none</fielddominance>
									</samplecharacteristics>
								</video>
							</media>
						</file>
						<logginginfo>
							<description></description>
							<scene></scene>
							<shottake></shottake>
							<lognote></lognote>
							<good></good>
							<originalvideofilename></originalvideofilename>
							<originalaudiofilename></originalaudiofilename>
						</logginginfo>
						<colorinfo>
							<lut></lut>
							<lut1></lut1>
							<asc_sop></asc_sop>
							<asc_sat></asc_sat>
							<lut2></lut2>
						</colorinfo>
						<labels>
							<label2>Violet</label2>
						</labels>
					</clipitem>
					<clipitem id="clipitem-1131">
						<masterclipid>masterclip-1128</masterclipid>
						<name>TKO_017_SIX_Sh11820.mov</name>
						<enabled>TRUE</enabled>
						<duration>116</duration>
						<rate>
							<timebase>24</timebase>
							<ntsc>TRUE</ntsc>
						</rate>
						<start>84565</start>
						<end>84673</end>
						<in>4</in>
						<out>112</out>
						<pproTicksIn>42378336000</pproTicksIn>
						<pproTicksOut>1186593408000</pproTicksOut>
						<alphatype>none</alphatype>
						<pixelaspectratio>square</pixelaspectratio>
						<anamorphic>FALSE</anamorphic>
						<file id="file-1128">
							<name>TKO_017_SIX_Sh11820.mov</name>
							<pathurl>file://tri-stor01/Projects/TKO/SHOTS/_Refs_Movs_Burnin_FrameCounter/TKO_017_SIX_Sh11820.mov</pathurl>
							<rate>
								<timebase>24</timebase>
								<ntsc>TRUE</ntsc>
							</rate>
							<duration>116</duration>
							<timecode>
								<rate>
									<timebase>24</timebase>
									<ntsc>TRUE</ntsc>
								</rate>
								<string>13:11:35:18</string>
								<frame>1139898</frame>
								<displayformat>NDF</displayformat>
								<reel>
									<name>B0030013</name>
								</reel>
							</timecode>
							<media>
								<video>
									<samplecharacteristics>
										<rate>
											<timebase>24</timebase>
											<ntsc>TRUE</ntsc>
										</rate>
										<width>4096</width>
										<height>2160</height>
										<anamorphic>FALSE</anamorphic>
										<pixelaspectratio>square</pixelaspectratio>
										<fielddominance>none</fielddominance>
									</samplecharacteristics>
								</video>
							</media>
						</file>
						<logginginfo>
							<description></description>
							<scene></scene>
							<shottake></shottake>
							<lognote></lognote>
							<good></good>
							<originalvideofilename></originalvideofilename>
							<originalaudiofilename></originalaudiofilename>
						</logginginfo>
						<colorinfo>
							<lut></lut>
							<lut1></lut1>
							<asc_sop></asc_sop>
							<asc_sat></asc_sat>
							<lut2></lut2>
						</colorinfo>
						<labels>
							<label2>Violet</label2>
						</labels>
					</clipitem>
					<clipitem id="clipitem-1132">
						<masterclipid>masterclip-1129</masterclipid>
						<name>TKO_017_SIX_Sh11830.mov</name>
						<enabled>TRUE</enabled>
						<duration>48</duration>
						<rate>
							<timebase>24</timebase>
							<ntsc>TRUE</ntsc>
						</rate>
						<start>84673</start>
						<end>84713</end>
						<in>4</in>
						<out>44</out>
						<pproTicksIn>42378336000</pproTicksIn>
						<pproTicksOut>466161696000</pproTicksOut>
						<alphatype>none</alphatype>
						<pixelaspectratio>square</pixelaspectratio>
						<anamorphic>FALSE</anamorphic>
						<file id="file-1129">
							<name>TKO_017_SIX_Sh11830.mov</name>
							<pathurl>file://tri-stor01/Projects/TKO/SHOTS/_Refs_Movs_Burnin_FrameCounter/TKO_017_SIX_Sh11830.mov</pathurl>
							<rate>
								<timebase>24</timebase>
								<ntsc>TRUE</ntsc>
							</rate>
							<duration>48</duration>
							<timecode>
								<rate>
									<timebase>24</timebase>
									<ntsc>TRUE</ntsc>
								</rate>
								<string>01:27:16:15</string>
								<frame>125679</frame>
								<displayformat>NDF</displayformat>
								<reel>
									<name>C0020003</name>
								</reel>
							</timecode>
							<media>
								<video>
									<samplecharacteristics>
										<rate>
											<timebase>24</timebase>
											<ntsc>TRUE</ntsc>
										</rate>
										<width>3840</width>
										<height>2160</height>
										<anamorphic>FALSE</anamorphic>
										<pixelaspectratio>square</pixelaspectratio>
										<fielddominance>none</fielddominance>
									</samplecharacteristics>
								</video>
							</media>
						</file>
						<logginginfo>
							<description></description>
							<scene></scene>
							<shottake></shottake>
							<lognote></lognote>
							<good></good>
							<originalvideofilename></originalvideofilename>
							<originalaudiofilename></originalaudiofilename>
						</logginginfo>
						<colorinfo>
							<lut></lut>
							<lut1></lut1>
							<asc_sop></asc_sop>
							<asc_sat></asc_sat>
							<lut2></lut2>
						</colorinfo>
						<labels>
							<label2>Violet</label2>
						</labels>
					</clipitem>
					<clipitem id="clipitem-1133">
						<masterclipid>masterclip-1130</masterclipid>
						<name>TKO_017_SIX_Sh11840.mov</name>
						<enabled>TRUE</enabled>
						<duration>46</duration>
						<rate>
							<timebase>24</timebase>
							<ntsc>TRUE</ntsc>
						</rate>
						<start>84713</start>
						<end>84751</end>
						<in>4</in>
						<out>42</out>
						<pproTicksIn>42378336000</pproTicksIn>
						<pproTicksOut>444972528000</pproTicksOut>
						<alphatype>none</alphatype>
						<pixelaspectratio>square</pixelaspectratio>
						<anamorphic>FALSE</anamorphic>
						<file id="file-1130">
							<name>TKO_017_SIX_Sh11840.mov</name>
							<pathurl>file://tri-stor01/Projects/TKO/SHOTS/_Refs_Movs_Burnin_FrameCounter/TKO_017_SIX_Sh11840.mov</pathurl>
							<rate>
								<timebase>24</timebase>
								<ntsc>TRUE</ntsc>
							</rate>
							<duration>46</duration>
							<timecode>
								<rate>
									<timebase>24</timebase>
									<ntsc>TRUE</ntsc>
								</rate>
								<string>14:54:28:08</string>
								<frame>1288040</frame>
								<displayformat>NDF</displayformat>
								<reel>
									<name>A0060004</name>
								</reel>
							</timecode>
							<media>
								<video>
									<samplecharacteristics>
										<rate>
											<timebase>24</timebase>
											<ntsc>TRUE</ntsc>
										</rate>
										<width>4096</width>
										<height>2160</height>
										<anamorphic>FALSE</anamorphic>
										<pixelaspectratio>square</pixelaspectratio>
										<fielddominance>none</fielddominance>
									</samplecharacteristics>
								</video>
							</media>
						</file>
						<logginginfo>
							<description></description>
							<scene></scene>
							<shottake></shottake>
							<lognote></lognote>
							<good></good>
							<originalvideofilename></originalvideofilename>
							<originalaudiofilename></originalaudiofilename>
						</logginginfo>
						<colorinfo>
							<lut></lut>
							<lut1></lut1>
							<asc_sop></asc_sop>
							<asc_sat></asc_sat>
							<lut2></lut2>
						</colorinfo>
						<labels>
							<label2>Violet</label2>
						</labels>
					</clipitem>
					<clipitem id="clipitem-1134">
						<masterclipid>masterclip-1131</masterclipid>
						<name>TKO_017_SIX_Sh11850.mov</name>
						<enabled>TRUE</enabled>
						<duration>94</duration>
						<rate>
							<timebase>24</timebase>
							<ntsc>TRUE</ntsc>
						</rate>
						<start>84751</start>
						<end>84837</end>
						<in>4</in>
						<out>90</out>
						<pproTicksIn>42378336000</pproTicksIn>
						<pproTicksOut>953512560000</pproTicksOut>
						<alphatype>none</alphatype>
						<pixelaspectratio>square</pixelaspectratio>
						<anamorphic>FALSE</anamorphic>
						<file id="file-1131">
							<name>TKO_017_SIX_Sh11850.mov</name>
							<pathurl>file://tri-stor01/Projects/TKO/SHOTS/_Refs_Movs_Burnin_FrameCounter/TKO_017_SIX_Sh11850.mov</pathurl>
							<rate>
								<timebase>24</timebase>
								<ntsc>TRUE</ntsc>
							</rate>
							<duration>94</duration>
							<timecode>
								<rate>
									<timebase>24</timebase>
									<ntsc>TRUE</ntsc>
								</rate>
								<string>01:27:23:12</string>
								<frame>125844</frame>
								<displayformat>NDF</displayformat>
								<reel>
									<name>C0020003</name>
								</reel>
							</timecode>
							<media>
								<video>
									<samplecharacteristics>
										<rate>
											<timebase>24</timebase>
											<ntsc>TRUE</ntsc>
										</rate>
										<width>3840</width>
										<height>2160</height>
										<anamorphic>FALSE</anamorphic>
										<pixelaspectratio>square</pixelaspectratio>
										<fielddominance>none</fielddominance>
									</samplecharacteristics>
								</video>
							</media>
						</file>
						<logginginfo>
							<description></description>
							<scene></scene>
							<shottake></shottake>
							<lognote></lognote>
							<good></good>
							<originalvideofilename></originalvideofilename>
							<originalaudiofilename></originalaudiofilename>
						</logginginfo>
						<colorinfo>
							<lut></lut>
							<lut1></lut1>
							<asc_sop></asc_sop>
							<asc_sat></asc_sat>
							<lut2></lut2>
						</colorinfo>
						<labels>
							<label2>Violet</label2>
						</labels>
					</clipitem>
					<clipitem id="clipitem-1135">
						<masterclipid>masterclip-1132</masterclipid>
						<name>TKO_017_SIX_Sh11860.mov</name>
						<enabled>TRUE</enabled>
						<duration>96</duration>
						<rate>
							<timebase>24</timebase>
							<ntsc>TRUE</ntsc>
						</rate>
						<start>84837</start>
						<end>84925</end>
						<in>4</in>
						<out>92</out>
						<pproTicksIn>42378336000</pproTicksIn>
						<pproTicksOut>974701728000</pproTicksOut>
						<alphatype>none</alphatype>
						<pixelaspectratio>square</pixelaspectratio>
						<anamorphic>FALSE</anamorphic>
						<file id="file-1132">
							<name>TKO_017_SIX_Sh11860.mov</name>
							<pathurl>file://tri-stor01/Projects/TKO/SHOTS/_Refs_Movs_Burnin_FrameCounter/TKO_017_SIX_Sh11860.mov</pathurl>
							<rate>
								<timebase>24</timebase>
								<ntsc>TRUE</ntsc>
							</rate>
							<duration>96</duration>
							<timecode>
								<rate>
									<timebase>24</timebase>
									<ntsc>TRUE</ntsc>
								</rate>
								<string>01:30:15:23</string>
								<frame>129983</frame>
								<displayformat>NDF</displayformat>
								<reel>
									<name>C0020004</name>
								</reel>
							</timecode>
							<media>
								<video>
									<samplecharacteristics>
										<rate>
											<timebase>24</timebase>
											<ntsc>TRUE</ntsc>
										</rate>
										<width>3840</width>
										<height>2160</height>
										<anamorphic>FALSE</anamorphic>
										<pixelaspectratio>square</pixelaspectratio>
										<fielddominance>none</fielddominance>
									</samplecharacteristics>
								</video>
							</media>
						</file>
						<logginginfo>
							<description></description>
							<scene></scene>
							<shottake></shottake>
							<lognote></lognote>
							<good></good>
							<originalvideofilename></originalvideofilename>
							<originalaudiofilename></originalaudiofilename>
						</logginginfo>
						<colorinfo>
							<lut></lut>
							<lut1></lut1>
							<asc_sop></asc_sop>
							<asc_sat></asc_sat>
							<lut2></lut2>
						</colorinfo>
						<labels>
							<label2>Violet</label2>
						</labels>
					</clipitem>
					<clipitem id="clipitem-1136">
						<masterclipid>masterclip-1133</masterclipid>
						<name>TKO_017_SIX_Sh11870.mov</name>
						<enabled>TRUE</enabled>
						<duration>74</duration>
						<rate>
							<timebase>24</timebase>
							<ntsc>TRUE</ntsc>
						</rate>
						<start>84925</start>
						<end>84991</end>
						<in>4</in>
						<out>70</out>
						<pproTicksIn>42378336000</pproTicksIn>
						<pproTicksOut>741620880000</pproTicksOut>
						<alphatype>none</alphatype>
						<pixelaspectratio>square</pixelaspectratio>
						<anamorphic>FALSE</anamorphic>
						<file id="file-1133">
							<name>TKO_017_SIX_Sh11870.mov</name>
							<pathurl>file://tri-stor01/Projects/TKO/SHOTS/_Refs_Movs_Burnin_FrameCounter/TKO_017_SIX_Sh11870.mov</pathurl>
							<rate>
								<timebase>24</timebase>
								<ntsc>TRUE</ntsc>
							</rate>
							<duration>74</duration>
							<timecode>
								<rate>
									<timebase>24</timebase>
									<ntsc>TRUE</ntsc>
								</rate>
								<string>14:44:20:09</string>
								<frame>1273449</frame>
								<displayformat>NDF</displayformat>
								<reel>
									<name>B0040003</name>
								</reel>
							</timecode>
							<media>
								<video>
									<samplecharacteristics>
										<rate>
											<timebase>24</timebase>
											<ntsc>TRUE</ntsc>
										</rate>
										<width>4096</width>
										<height>2160</height>
										<anamorphic>FALSE</anamorphic>
										<pixelaspectratio>square</pixelaspectratio>
										<fielddominance>none</fielddominance>
									</samplecharacteristics>
								</video>
							</media>
						</file>
						<logginginfo>
							<description></description>
							<scene></scene>
							<shottake></shottake>
							<lognote></lognote>
							<good></good>
							<originalvideofilename></originalvideofilename>
							<originalaudiofilename></originalaudiofilename>
						</logginginfo>
						<colorinfo>
							<lut></lut>
							<lut1></lut1>
							<asc_sop></asc_sop>
							<asc_sat></asc_sat>
							<lut2></lut2>
						</colorinfo>
						<labels>
							<label2>Violet</label2>
						</labels>
					</clipitem>
					<clipitem id="clipitem-1137">
						<masterclipid>masterclip-1134</masterclipid>
						<name>TKO_017_SIX_Sh11880.mov</name>
						<enabled>TRUE</enabled>
						<duration>62</duration>
						<rate>
							<timebase>24</timebase>
							<ntsc>TRUE</ntsc>
						</rate>
						<start>84991</start>
						<end>85042</end>
						<in>4</in>
						<out>55</out>
						<pproTicksIn>42378336000</pproTicksIn>
						<pproTicksOut>582702120000</pproTicksOut>
						<alphatype>none</alphatype>
						<pixelaspectratio>square</pixelaspectratio>
						<anamorphic>FALSE</anamorphic>
						<file id="file-1134">
							<name>TKO_017_SIX_Sh11880.mov</name>
							<pathurl>file://tri-stor01/Projects/TKO/SHOTS/_Refs_Movs_Burnin_FrameCounter/TKO_017_SIX_Sh11880.mov</pathurl>
							<rate>
								<timebase>24</timebase>
								<ntsc>TRUE</ntsc>
							</rate>
							<duration>62</duration>
							<timecode>
								<rate>
									<timebase>24</timebase>
									<ntsc>TRUE</ntsc>
								</rate>
								<string>14:54:39:19</string>
								<frame>1288315</frame>
								<displayformat>NDF</displayformat>
								<reel>
									<name>A0060004</name>
								</reel>
							</timecode>
							<media>
								<video>
									<samplecharacteristics>
										<rate>
											<timebase>24</timebase>
											<ntsc>TRUE</ntsc>
										</rate>
										<width>4096</width>
										<height>2160</height>
										<anamorphic>FALSE</anamorphic>
										<pixelaspectratio>square</pixelaspectratio>
										<fielddominance>none</fielddominance>
									</samplecharacteristics>
								</video>
							</media>
						</file>
						<logginginfo>
							<description></description>
							<scene></scene>
							<shottake></shottake>
							<lognote></lognote>
							<good></good>
							<originalvideofilename></originalvideofilename>
							<originalaudiofilename></originalaudiofilename>
						</logginginfo>
						<colorinfo>
							<lut></lut>
							<lut1></lut1>
							<asc_sop></asc_sop>
							<asc_sat></asc_sat>
							<lut2></lut2>
						</colorinfo>
						<labels>
							<label2>Violet</label2>
						</labels>
					</clipitem>
					<clipitem id="clipitem-1138">
						<masterclipid>masterclip-1135</masterclipid>
						<name>TKO_017_SIX_Sh11900.mov</name>
						<enabled>TRUE</enabled>
						<duration>68</duration>
						<rate>
							<timebase>24</timebase>
							<ntsc>TRUE</ntsc>
						</rate>
						<start>85042</start>
						<end>85096</end>
						<in>10</in>
						<out>64</out>
						<pproTicksIn>105945840000</pproTicksIn>
						<pproTicksOut>678053376000</pproTicksOut>
						<alphatype>none</alphatype>
						<pixelaspectratio>square</pixelaspectratio>
						<anamorphic>FALSE</anamorphic>
						<file id="file-1135">
							<name>TKO_017_SIX_Sh11900.mov</name>
							<pathurl>file://tri-stor01/Projects/TKO/SHOTS/_Refs_Movs_Burnin_FrameCounter/TKO_017_SIX_Sh11900.mov</pathurl>
							<rate>
								<timebase>24</timebase>
								<ntsc>TRUE</ntsc>
							</rate>
							<duration>68</duration>
							<timecode>
								<rate>
									<timebase>24</timebase>
									<ntsc>TRUE</ntsc>
								</rate>
								<string>01:27:37:23</string>
								<frame>126191</frame>
								<displayformat>NDF</displayformat>
								<reel>
									<name>C0020003</name>
								</reel>
							</timecode>
							<media>
								<video>
									<samplecharacteristics>
										<rate>
											<timebase>24</timebase>
											<ntsc>TRUE</ntsc>
										</rate>
										<width>3840</width>
										<height>2160</height>
										<anamorphic>FALSE</anamorphic>
										<pixelaspectratio>square</pixelaspectratio>
										<fielddominance>none</fielddominance>
									</samplecharacteristics>
								</video>
							</media>
						</file>
						<logginginfo>
							<description></description>
							<scene></scene>
							<shottake></shottake>
							<lognote></lognote>
							<good></good>
							<originalvideofilename></originalvideofilename>
							<originalaudiofilename></originalaudiofilename>
						</logginginfo>
						<colorinfo>
							<lut></lut>
							<lut1></lut1>
							<asc_sop></asc_sop>
							<asc_sat></asc_sat>
							<lut2></lut2>
						</colorinfo>
						<labels>
							<label2>Violet</label2>
						</labels>
					</clipitem>
					<clipitem id="clipitem-1139">
						<masterclipid>masterclip-1136</masterclipid>
						<name>TKO_017_SIX_Sh11910.mov</name>
						<enabled>TRUE</enabled>
						<duration>140</duration>
						<rate>
							<timebase>24</timebase>
							<ntsc>TRUE</ntsc>
						</rate>
						<start>85096</start>
						<end>85228</end>
						<in>4</in>
						<out>136</out>
						<pproTicksIn>42378336000</pproTicksIn>
						<pproTicksOut>1440863424000</pproTicksOut>
						<alphatype>none</alphatype>
						<pixelaspectratio>square</pixelaspectratio>
						<anamorphic>FALSE</anamorphic>
						<file id="file-1136">
							<name>TKO_017_SIX_Sh11910.mov</name>
							<pathurl>file://tri-stor01/Projects/TKO/SHOTS/_Refs_Movs_Burnin_FrameCounter/TKO_017_SIX_Sh11910.mov</pathurl>
							<rate>
								<timebase>24</timebase>
								<ntsc>TRUE</ntsc>
							</rate>
							<duration>140</duration>
							<timecode>
								<rate>
									<timebase>24</timebase>
									<ntsc>TRUE</ntsc>
								</rate>
								<string>13:12:04:02</string>
								<frame>1140578</frame>
								<displayformat>NDF</displayformat>
								<reel>
									<name>A0050013</name>
								</reel>
							</timecode>
							<media>
								<video>
									<samplecharacteristics>
										<rate>
											<timebase>24</timebase>
											<ntsc>TRUE</ntsc>
										</rate>
										<width>4096</width>
										<height>2160</height>
										<anamorphic>FALSE</anamorphic>
										<pixelaspectratio>square</pixelaspectratio>
										<fielddominance>none</fielddominance>
									</samplecharacteristics>
								</video>
							</media>
						</file>
						<logginginfo>
							<description></description>
							<scene></scene>
							<shottake></shottake>
							<lognote></lognote>
							<good></good>
							<originalvideofilename></originalvideofilename>
							<originalaudiofilename></originalaudiofilename>
						</logginginfo>
						<colorinfo>
							<lut></lut>
							<lut1></lut1>
							<asc_sop></asc_sop>
							<asc_sat></asc_sat>
							<lut2></lut2>
						</colorinfo>
						<labels>
							<label2>Violet</label2>
						</labels>
					</clipitem>
					<clipitem id="clipitem-1140">
						<masterclipid>masterclip-1137</masterclipid>
						<name>TKO_017_SIX_Sh11920.mov</name>
						<enabled>TRUE</enabled>
						<duration>57</duration>
						<rate>
							<timebase>24</timebase>
							<ntsc>TRUE</ntsc>
						</rate>
						<start>85228</start>
						<end>85277</end>
						<in>4</in>
						<out>53</out>
						<pproTicksIn>42378336000</pproTicksIn>
						<pproTicksOut>561512952000</pproTicksOut>
						<alphatype>none</alphatype>
						<pixelaspectratio>square</pixelaspectratio>
						<anamorphic>FALSE</anamorphic>
						<file id="file-1137">
							<name>TKO_017_SIX_Sh11920.mov</name>
							<pathurl>file://tri-stor01/Projects/TKO/SHOTS/_Refs_Movs_Burnin_FrameCounter/TKO_017_SIX_Sh11920.mov</pathurl>
							<rate>
								<timebase>24</timebase>
								<ntsc>TRUE</ntsc>
							</rate>
							<duration>57</duration>
							<timecode>
								<rate>
									<timebase>24</timebase>
									<ntsc>TRUE</ntsc>
								</rate>
								<string>01:36:41:17</string>
								<frame>139241</frame>
								<displayformat>NDF</displayformat>
								<reel>
									<name>C0020007</name>
								</reel>
							</timecode>
							<media>
								<video>
									<samplecharacteristics>
										<rate>
											<timebase>24</timebase>
											<ntsc>TRUE</ntsc>
										</rate>
										<width>3840</width>
										<height>2160</height>
										<anamorphic>FALSE</anamorphic>
										<pixelaspectratio>square</pixelaspectratio>
										<fielddominance>none</fielddominance>
									</samplecharacteristics>
								</video>
							</media>
						</file>
						<logginginfo>
							<description></description>
							<scene></scene>
							<shottake></shottake>
							<lognote></lognote>
							<good></good>
							<originalvideofilename></originalvideofilename>
							<originalaudiofilename></originalaudiofilename>
						</logginginfo>
						<colorinfo>
							<lut></lut>
							<lut1></lut1>
							<asc_sop></asc_sop>
							<asc_sat></asc_sat>
							<lut2></lut2>
						</colorinfo>
						<labels>
							<label2>Violet</label2>
						</labels>
					</clipitem>
					<clipitem id="clipitem-1141">
						<masterclipid>masterclip-1138</masterclipid>
						<name>TKO_017_SIX_Sh11940.mov</name>
						<enabled>TRUE</enabled>
						<duration>48</duration>
						<rate>
							<timebase>24</timebase>
							<ntsc>TRUE</ntsc>
						</rate>
						<start>85277</start>
						<end>85317</end>
						<in>4</in>
						<out>44</out>
						<pproTicksIn>42378336000</pproTicksIn>
						<pproTicksOut>466161696000</pproTicksOut>
						<alphatype>none</alphatype>
						<pixelaspectratio>square</pixelaspectratio>
						<anamorphic>FALSE</anamorphic>
						<file id="file-1138">
							<name>TKO_017_SIX_Sh11940.mov</name>
							<pathurl>file://tri-stor01/Projects/TKO/SHOTS/_Refs_Movs_Burnin_FrameCounter/TKO_017_SIX_Sh11940.mov</pathurl>
							<rate>
								<timebase>24</timebase>
								<ntsc>TRUE</ntsc>
							</rate>
							<duration>48</duration>
							<timecode>
								<rate>
									<timebase>24</timebase>
									<ntsc>TRUE</ntsc>
								</rate>
								<string>13:12:10:22</string>
								<frame>1140742</frame>
								<displayformat>NDF</displayformat>
								<reel>
									<name>A0050013</name>
								</reel>
							</timecode>
							<media>
								<video>
									<samplecharacteristics>
										<rate>
											<timebase>24</timebase>
											<ntsc>TRUE</ntsc>
										</rate>
										<width>4096</width>
										<height>2160</height>
										<anamorphic>FALSE</anamorphic>
										<pixelaspectratio>square</pixelaspectratio>
										<fielddominance>none</fielddominance>
									</samplecharacteristics>
								</video>
							</media>
						</file>
						<logginginfo>
							<description></description>
							<scene></scene>
							<shottake></shottake>
							<lognote></lognote>
							<good></good>
							<originalvideofilename></originalvideofilename>
							<originalaudiofilename></originalaudiofilename>
						</logginginfo>
						<colorinfo>
							<lut></lut>
							<lut1></lut1>
							<asc_sop></asc_sop>
							<asc_sat></asc_sat>
							<lut2></lut2>
						</colorinfo>
						<labels>
							<label2>Violet</label2>
						</labels>
					</clipitem>
					<clipitem id="clipitem-1142">
						<masterclipid>masterclip-1139</masterclipid>
						<name>TKO_017_SIX_Sh11950.mov</name>
						<enabled>TRUE</enabled>
						<duration>430</duration>
						<rate>
							<timebase>24</timebase>
							<ntsc>TRUE</ntsc>
						</rate>
						<start>85317</start>
						<end>85628</end>
						<in>115</in>
						<out>426</out>
						<pproTicksIn>1218377160000</pproTicksIn>
						<pproTicksOut>4513292784000</pproTicksOut>
						<alphatype>none</alphatype>
						<pixelaspectratio>square</pixelaspectratio>
						<anamorphic>FALSE</anamorphic>
						<file id="file-1139">
							<name>TKO_017_SIX_Sh11950.mov</name>
							<pathurl>file://tri-stor01/Projects/TKO/SHOTS/_Refs_Movs_Burnin_FrameCounter/TKO_017_SIX_Sh11950.mov</pathurl>
							<rate>
								<timebase>24</timebase>
								<ntsc>TRUE</ntsc>
							</rate>
							<duration>430</duration>
							<timecode>
								<rate>
									<timebase>24</timebase>
									<ntsc>TRUE</ntsc>
								</rate>
								<string>19:20:01:08</string>
								<frame>1670432</frame>
								<displayformat>NDF</displayformat>
								<reel>
									<name>A0070010</name>
								</reel>
							</timecode>
							<media>
								<video>
									<samplecharacteristics>
										<rate>
											<timebase>24</timebase>
											<ntsc>TRUE</ntsc>
										</rate>
										<width>4096</width>
										<height>2160</height>
										<anamorphic>FALSE</anamorphic>
										<pixelaspectratio>square</pixelaspectratio>
										<fielddominance>none</fielddominance>
									</samplecharacteristics>
								</video>
							</media>
						</file>
						<logginginfo>
							<description></description>
							<scene></scene>
							<shottake></shottake>
							<lognote></lognote>
							<good></good>
							<originalvideofilename></originalvideofilename>
							<originalaudiofilename></originalaudiofilename>
						</logginginfo>
						<colorinfo>
							<lut></lut>
							<lut1></lut1>
							<asc_sop></asc_sop>
							<asc_sat></asc_sat>
							<lut2></lut2>
						</colorinfo>
						<labels>
							<label2>Violet</label2>
						</labels>
					</clipitem>
					<clipitem id="clipitem-1143">
						<masterclipid>masterclip-1140</masterclipid>
						<name>TKO_017_SIX_Sh11960.mov</name>
						<enabled>TRUE</enabled>
						<duration>113</duration>
						<rate>
							<timebase>24</timebase>
							<ntsc>TRUE</ntsc>
						</rate>
						<start>85628</start>
						<end>85733</end>
						<in>4</in>
						<out>109</out>
						<pproTicksIn>42378336000</pproTicksIn>
						<pproTicksOut>1154809656000</pproTicksOut>
						<alphatype>none</alphatype>
						<pixelaspectratio>square</pixelaspectratio>
						<anamorphic>FALSE</anamorphic>
						<file id="file-1140">
							<name>TKO_017_SIX_Sh11960.mov</name>
							<pathurl>file://tri-stor01/Projects/TKO/SHOTS/_Refs_Movs_Burnin_FrameCounter/TKO_017_SIX_Sh11960.mov</pathurl>
							<rate>
								<timebase>24</timebase>
								<ntsc>TRUE</ntsc>
							</rate>
							<duration>113</duration>
							<timecode>
								<rate>
									<timebase>24</timebase>
									<ntsc>TRUE</ntsc>
								</rate>
								<string>19:20:34:12</string>
								<frame>1671228</frame>
								<displayformat>NDF</displayformat>
								<reel>
									<name>B0040025</name>
								</reel>
							</timecode>
							<media>
								<video>
									<samplecharacteristics>
										<rate>
											<timebase>24</timebase>
											<ntsc>TRUE</ntsc>
										</rate>
										<width>4096</width>
										<height>2160</height>
										<anamorphic>FALSE</anamorphic>
										<pixelaspectratio>square</pixelaspectratio>
										<fielddominance>none</fielddominance>
									</samplecharacteristics>
								</video>
							</media>
						</file>
						<logginginfo>
							<description></description>
							<scene></scene>
							<shottake></shottake>
							<lognote></lognote>
							<good></good>
							<originalvideofilename></originalvideofilename>
							<originalaudiofilename></originalaudiofilename>
						</logginginfo>
						<colorinfo>
							<lut></lut>
							<lut1></lut1>
							<asc_sop></asc_sop>
							<asc_sat></asc_sat>
							<lut2></lut2>
						</colorinfo>
						<labels>
							<label2>Violet</label2>
						</labels>
					</clipitem>
					<clipitem id="clipitem-1144">
						<masterclipid>masterclip-1141</masterclipid>
						<name>TKO_017_SIX_Sh11970.mov</name>
						<enabled>TRUE</enabled>
						<duration>266</duration>
						<rate>
							<timebase>24</timebase>
							<ntsc>TRUE</ntsc>
						</rate>
						<start>85733</start>
						<end>85991</end>
						<in>4</in>
						<out>262</out>
						<pproTicksIn>42378336000</pproTicksIn>
						<pproTicksOut>2775781008000</pproTicksOut>
						<alphatype>none</alphatype>
						<pixelaspectratio>square</pixelaspectratio>
						<anamorphic>FALSE</anamorphic>
						<file id="file-1141">
							<name>TKO_017_SIX_Sh11970.mov</name>
							<pathurl>file://tri-stor01/Projects/TKO/SHOTS/_Refs_Movs_Burnin_FrameCounter/TKO_017_SIX_Sh11970.mov</pathurl>
							<rate>
								<timebase>24</timebase>
								<ntsc>TRUE</ntsc>
							</rate>
							<duration>266</duration>
							<timecode>
								<rate>
									<timebase>24</timebase>
									<ntsc>TRUE</ntsc>
								</rate>
								<string>13:12:11:16</string>
								<frame>1140760</frame>
								<displayformat>NDF</displayformat>
								<reel>
									<name>A0050013</name>
								</reel>
							</timecode>
							<media>
								<video>
									<samplecharacteristics>
										<rate>
											<timebase>24</timebase>
											<ntsc>TRUE</ntsc>
										</rate>
										<width>4096</width>
										<height>2160</height>
										<anamorphic>FALSE</anamorphic>
										<pixelaspectratio>square</pixelaspectratio>
										<fielddominance>none</fielddominance>
									</samplecharacteristics>
								</video>
							</media>
						</file>
						<logginginfo>
							<description></description>
							<scene></scene>
							<shottake></shottake>
							<lognote></lognote>
							<good></good>
							<originalvideofilename></originalvideofilename>
							<originalaudiofilename></originalaudiofilename>
						</logginginfo>
						<colorinfo>
							<lut></lut>
							<lut1></lut1>
							<asc_sop></asc_sop>
							<asc_sat></asc_sat>
							<lut2></lut2>
						</colorinfo>
						<labels>
							<label2>Violet</label2>
						</labels>
					</clipitem>
					<clipitem id="clipitem-1145">
						<masterclipid>masterclip-1142</masterclipid>
						<name>TKO_017_SIX_Sh11980.mov</name>
						<enabled>TRUE</enabled>
						<duration>72</duration>
						<rate>
							<timebase>24</timebase>
							<ntsc>TRUE</ntsc>
						</rate>
						<start>85991</start>
						<end>86055</end>
						<in>4</in>
						<out>68</out>
						<pproTicksIn>42378336000</pproTicksIn>
						<pproTicksOut>720431712000</pproTicksOut>
						<alphatype>none</alphatype>
						<pixelaspectratio>square</pixelaspectratio>
						<anamorphic>FALSE</anamorphic>
						<file id="file-1142">
							<name>TKO_017_SIX_Sh11980.mov</name>
							<pathurl>file://tri-stor01/Projects/TKO/SHOTS/_Refs_Movs_Burnin_FrameCounter/TKO_017_SIX_Sh11980.mov</pathurl>
							<rate>
								<timebase>24</timebase>
								<ntsc>TRUE</ntsc>
							</rate>
							<duration>72</duration>
							<timecode>
								<rate>
									<timebase>24</timebase>
									<ntsc>TRUE</ntsc>
								</rate>
								<string>14:58:30:19</string>
								<frame>1293859</frame>
								<displayformat>NDF</displayformat>
								<reel>
									<name>A0060005</name>
								</reel>
							</timecode>
							<media>
								<video>
									<samplecharacteristics>
										<rate>
											<timebase>24</timebase>
											<ntsc>TRUE</ntsc>
										</rate>
										<width>4096</width>
										<height>2160</height>
										<anamorphic>FALSE</anamorphic>
										<pixelaspectratio>square</pixelaspectratio>
										<fielddominance>none</fielddominance>
									</samplecharacteristics>
								</video>
							</media>
						</file>
						<logginginfo>
							<description></description>
							<scene></scene>
							<shottake></shottake>
							<lognote></lognote>
							<good></good>
							<originalvideofilename></originalvideofilename>
							<originalaudiofilename></originalaudiofilename>
						</logginginfo>
						<colorinfo>
							<lut></lut>
							<lut1></lut1>
							<asc_sop></asc_sop>
							<asc_sat></asc_sat>
							<lut2></lut2>
						</colorinfo>
						<labels>
							<label2>Violet</label2>
						</labels>
					</clipitem>
					<clipitem id="clipitem-1146">
						<masterclipid>masterclip-1143</masterclipid>
						<name>TKO_017_SIX_Sh11990.mov</name>
						<enabled>TRUE</enabled>
						<duration>121</duration>
						<rate>
							<timebase>24</timebase>
							<ntsc>TRUE</ntsc>
						</rate>
						<start>86055</start>
						<end>86168</end>
						<in>4</in>
						<out>117</out>
						<pproTicksIn>42378336000</pproTicksIn>
						<pproTicksOut>1239566328000</pproTicksOut>
						<alphatype>none</alphatype>
						<pixelaspectratio>square</pixelaspectratio>
						<anamorphic>FALSE</anamorphic>
						<file id="file-1143">
							<name>TKO_017_SIX_Sh11990.mov</name>
							<pathurl>file://tri-stor01/Projects/TKO/SHOTS/_Refs_Movs_Burnin_FrameCounter/TKO_017_SIX_Sh11990.mov</pathurl>
							<rate>
								<timebase>24</timebase>
								<ntsc>TRUE</ntsc>
							</rate>
							<duration>121</duration>
							<timecode>
								<rate>
									<timebase>24</timebase>
									<ntsc>TRUE</ntsc>
								</rate>
								<string>13:12:59:11</string>
								<frame>1141907</frame>
								<displayformat>NDF</displayformat>
								<reel>
									<name>A0050013</name>
								</reel>
							</timecode>
							<media>
								<video>
									<samplecharacteristics>
										<rate>
											<timebase>24</timebase>
											<ntsc>TRUE</ntsc>
										</rate>
										<width>4096</width>
										<height>2160</height>
										<anamorphic>FALSE</anamorphic>
										<pixelaspectratio>square</pixelaspectratio>
										<fielddominance>none</fielddominance>
									</samplecharacteristics>
								</video>
							</media>
						</file>
						<logginginfo>
							<description></description>
							<scene></scene>
							<shottake></shottake>
							<lognote></lognote>
							<good></good>
							<originalvideofilename></originalvideofilename>
							<originalaudiofilename></originalaudiofilename>
						</logginginfo>
						<colorinfo>
							<lut></lut>
							<lut1></lut1>
							<asc_sop></asc_sop>
							<asc_sat></asc_sat>
							<lut2></lut2>
						</colorinfo>
						<labels>
							<label2>Violet</label2>
						</labels>
					</clipitem>
					<clipitem id="clipitem-1147">
						<masterclipid>masterclip-1144</masterclipid>
						<name>TKO_017_SIX_Sh12000.mov</name>
						<enabled>TRUE</enabled>
						<duration>29</duration>
						<rate>
							<timebase>24</timebase>
							<ntsc>TRUE</ntsc>
						</rate>
						<start>86168</start>
						<end>86189</end>
						<in>4</in>
						<out>25</out>
						<pproTicksIn>42378336000</pproTicksIn>
						<pproTicksOut>264864600000</pproTicksOut>
						<alphatype>none</alphatype>
						<pixelaspectratio>square</pixelaspectratio>
						<anamorphic>FALSE</anamorphic>
						<file id="file-1144">
							<name>TKO_017_SIX_Sh12000.mov</name>
							<pathurl>file://tri-stor01/Projects/TKO/SHOTS/_Refs_Movs_Burnin_FrameCounter/TKO_017_SIX_Sh12000.mov</pathurl>
							<rate>
								<timebase>24</timebase>
								<ntsc>TRUE</ntsc>
							</rate>
							<duration>29</duration>
							<timecode>
								<rate>
									<timebase>24</timebase>
									<ntsc>TRUE</ntsc>
								</rate>
								<string>15:19:17:15</string>
								<frame>1323783</frame>
								<displayformat>NDF</displayformat>
								<reel>
									<name>B0040006</name>
								</reel>
							</timecode>
							<media>
								<video>
									<samplecharacteristics>
										<rate>
											<timebase>24</timebase>
											<ntsc>TRUE</ntsc>
										</rate>
										<width>4096</width>
										<height>2160</height>
										<anamorphic>FALSE</anamorphic>
										<pixelaspectratio>square</pixelaspectratio>
										<fielddominance>none</fielddominance>
									</samplecharacteristics>
								</video>
							</media>
						</file>
						<logginginfo>
							<description></description>
							<scene></scene>
							<shottake></shottake>
							<lognote></lognote>
							<good></good>
							<originalvideofilename></originalvideofilename>
							<originalaudiofilename></originalaudiofilename>
						</logginginfo>
						<colorinfo>
							<lut></lut>
							<lut1></lut1>
							<asc_sop></asc_sop>
							<asc_sat></asc_sat>
							<lut2></lut2>
						</colorinfo>
						<labels>
							<label2>Violet</label2>
						</labels>
					</clipitem>
					<clipitem id="clipitem-1148">
						<masterclipid>masterclip-1145</masterclipid>
						<name>TKO_017_SIX_Sh12010.mov</name>
						<enabled>TRUE</enabled>
						<duration>53</duration>
						<rate>
							<timebase>24</timebase>
							<ntsc>TRUE</ntsc>
						</rate>
						<start>86189</start>
						<end>86234</end>
						<in>4</in>
						<out>49</out>
						<pproTicksIn>42378336000</pproTicksIn>
						<pproTicksOut>519134616000</pproTicksOut>
						<alphatype>none</alphatype>
						<pixelaspectratio>square</pixelaspectratio>
						<anamorphic>FALSE</anamorphic>
						<file id="file-1145">
							<name>TKO_017_SIX_Sh12010.mov</name>
							<pathurl>file://tri-stor01/Projects/TKO/SHOTS/_Refs_Movs_Burnin_FrameCounter/TKO_017_SIX_Sh12010.mov</pathurl>
							<rate>
								<timebase>24</timebase>
								<ntsc>TRUE</ntsc>
							</rate>
							<duration>53</duration>
							<timecode>
								<rate>
									<timebase>24</timebase>
									<ntsc>TRUE</ntsc>
								</rate>
								<string>15:19:18:12</string>
								<frame>1323804</frame>
								<displayformat>NDF</displayformat>
								<reel>
									<name>A0060006</name>
								</reel>
							</timecode>
							<media>
								<video>
									<samplecharacteristics>
										<rate>
											<timebase>24</timebase>
											<ntsc>TRUE</ntsc>
										</rate>
										<width>4096</width>
										<height>2160</height>
										<anamorphic>FALSE</anamorphic>
										<pixelaspectratio>square</pixelaspectratio>
										<fielddominance>none</fielddominance>
									</samplecharacteristics>
								</video>
							</media>
						</file>
						<logginginfo>
							<description></description>
							<scene></scene>
							<shottake></shottake>
							<lognote></lognote>
							<good></good>
							<originalvideofilename></originalvideofilename>
							<originalaudiofilename></originalaudiofilename>
						</logginginfo>
						<colorinfo>
							<lut></lut>
							<lut1></lut1>
							<asc_sop></asc_sop>
							<asc_sat></asc_sat>
							<lut2></lut2>
						</colorinfo>
						<labels>
							<label2>Violet</label2>
						</labels>
					</clipitem>
					<clipitem id="clipitem-1149">
						<masterclipid>masterclip-1146</masterclipid>
						<name>TKO_017_SIX_Sh12020.mov</name>
						<enabled>TRUE</enabled>
						<duration>36</duration>
						<rate>
							<timebase>24</timebase>
							<ntsc>TRUE</ntsc>
						</rate>
						<start>86234</start>
						<end>86262</end>
						<in>4</in>
						<out>32</out>
						<pproTicksIn>42378336000</pproTicksIn>
						<pproTicksOut>339026688000</pproTicksOut>
						<alphatype>none</alphatype>
						<pixelaspectratio>square</pixelaspectratio>
						<anamorphic>FALSE</anamorphic>
						<file id="file-1146">
							<name>TKO_017_SIX_Sh12020.mov</name>
							<pathurl>file://tri-stor01/Projects/TKO/SHOTS/_Refs_Movs_Burnin_FrameCounter/TKO_017_SIX_Sh12020.mov</pathurl>
							<rate>
								<timebase>24</timebase>
								<ntsc>TRUE</ntsc>
							</rate>
							<duration>36</duration>
							<timecode>
								<rate>
									<timebase>24</timebase>
									<ntsc>TRUE</ntsc>
								</rate>
								<string>15:37:20:07</string>
								<frame>1349767</frame>
								<displayformat>NDF</displayformat>
								<reel>
									<name>A0060010</name>
								</reel>
							</timecode>
							<media>
								<video>
									<samplecharacteristics>
										<rate>
											<timebase>24</timebase>
											<ntsc>TRUE</ntsc>
										</rate>
										<width>4096</width>
										<height>2160</height>
										<anamorphic>FALSE</anamorphic>
										<pixelaspectratio>square</pixelaspectratio>
										<fielddominance>none</fielddominance>
									</samplecharacteristics>
								</video>
							</media>
						</file>
						<logginginfo>
							<description></description>
							<scene></scene>
							<shottake></shottake>
							<lognote></lognote>
							<good></good>
							<originalvideofilename></originalvideofilename>
							<originalaudiofilename></originalaudiofilename>
						</logginginfo>
						<colorinfo>
							<lut></lut>
							<lut1></lut1>
							<asc_sop></asc_sop>
							<asc_sat></asc_sat>
							<lut2></lut2>
						</colorinfo>
						<labels>
							<label2>Violet</label2>
						</labels>
					</clipitem>
					<clipitem id="clipitem-1150">
						<masterclipid>masterclip-1147</masterclipid>
						<name>TKO_017_SIX_Sh12030.mov</name>
						<enabled>TRUE</enabled>
						<duration>30</duration>
						<rate>
							<timebase>24</timebase>
							<ntsc>TRUE</ntsc>
						</rate>
						<start>86262</start>
						<end>86284</end>
						<in>4</in>
						<out>26</out>
						<pproTicksIn>42378336000</pproTicksIn>
						<pproTicksOut>275459184000</pproTicksOut>
						<alphatype>none</alphatype>
						<pixelaspectratio>square</pixelaspectratio>
						<anamorphic>FALSE</anamorphic>
						<file id="file-1147">
							<name>TKO_017_SIX_Sh12030.mov</name>
							<pathurl>file://tri-stor01/Projects/TKO/SHOTS/_Refs_Movs_Burnin_FrameCounter/TKO_017_SIX_Sh12030.mov</pathurl>
							<rate>
								<timebase>24</timebase>
								<ntsc>TRUE</ntsc>
							</rate>
							<duration>30</duration>
							<timecode>
								<rate>
									<timebase>24</timebase>
									<ntsc>TRUE</ntsc>
								</rate>
								<string>18:23:03:11</string>
								<frame>1588403</frame>
								<displayformat>NDF</displayformat>
								<reel>
									<name>A0070007</name>
								</reel>
							</timecode>
							<media>
								<video>
									<samplecharacteristics>
										<rate>
											<timebase>24</timebase>
											<ntsc>TRUE</ntsc>
										</rate>
										<width>4096</width>
										<height>2160</height>
										<anamorphic>FALSE</anamorphic>
										<pixelaspectratio>square</pixelaspectratio>
										<fielddominance>none</fielddominance>
									</samplecharacteristics>
								</video>
							</media>
						</file>
						<logginginfo>
							<description></description>
							<scene></scene>
							<shottake></shottake>
							<lognote></lognote>
							<good></good>
							<originalvideofilename></originalvideofilename>
							<originalaudiofilename></originalaudiofilename>
						</logginginfo>
						<colorinfo>
							<lut></lut>
							<lut1></lut1>
							<asc_sop></asc_sop>
							<asc_sat></asc_sat>
							<lut2></lut2>
						</colorinfo>
						<labels>
							<label2>Violet</label2>
						</labels>
					</clipitem>
					<clipitem id="clipitem-1151">
						<masterclipid>masterclip-1148</masterclipid>
						<name>TKO_017_SIX_Sh12040.mov</name>
						<enabled>TRUE</enabled>
						<duration>49</duration>
						<rate>
							<timebase>24</timebase>
							<ntsc>TRUE</ntsc>
						</rate>
						<start>86284</start>
						<end>86325</end>
						<in>4</in>
						<out>45</out>
						<pproTicksIn>42378336000</pproTicksIn>
						<pproTicksOut>476756280000</pproTicksOut>
						<alphatype>none</alphatype>
						<pixelaspectratio>square</pixelaspectratio>
						<anamorphic>FALSE</anamorphic>
						<file id="file-1148">
							<name>TKO_017_SIX_Sh12040.mov</name>
							<pathurl>file://tri-stor01/Projects/TKO/SHOTS/_Refs_Movs_Burnin_FrameCounter/TKO_017_SIX_Sh12040.mov</pathurl>
							<rate>
								<timebase>24</timebase>
								<ntsc>TRUE</ntsc>
							</rate>
							<duration>49</duration>
							<timecode>
								<rate>
									<timebase>24</timebase>
									<ntsc>TRUE</ntsc>
								</rate>
								<string>15:22:53:05</string>
								<frame>1328957</frame>
								<displayformat>NDF</displayformat>
								<reel>
									<name>B0040007</name>
								</reel>
							</timecode>
							<media>
								<video>
									<samplecharacteristics>
										<rate>
											<timebase>24</timebase>
											<ntsc>TRUE</ntsc>
										</rate>
										<width>4096</width>
										<height>2160</height>
										<anamorphic>FALSE</anamorphic>
										<pixelaspectratio>square</pixelaspectratio>
										<fielddominance>none</fielddominance>
									</samplecharacteristics>
								</video>
							</media>
						</file>
						<logginginfo>
							<description></description>
							<scene></scene>
							<shottake></shottake>
							<lognote></lognote>
							<good></good>
							<originalvideofilename></originalvideofilename>
							<originalaudiofilename></originalaudiofilename>
						</logginginfo>
						<colorinfo>
							<lut></lut>
							<lut1></lut1>
							<asc_sop></asc_sop>
							<asc_sat></asc_sat>
							<lut2></lut2>
						</colorinfo>
						<labels>
							<label2>Violet</label2>
						</labels>
					</clipitem>
					<clipitem id="clipitem-1152">
						<masterclipid>masterclip-1149</masterclipid>
						<name>TKO_017_SIX_Sh12050.mov</name>
						<enabled>TRUE</enabled>
						<duration>22</duration>
						<rate>
							<timebase>24</timebase>
							<ntsc>TRUE</ntsc>
						</rate>
						<start>86325</start>
						<end>86339</end>
						<in>4</in>
						<out>18</out>
						<pproTicksIn>42378336000</pproTicksIn>
						<pproTicksOut>190702512000</pproTicksOut>
						<alphatype>none</alphatype>
						<pixelaspectratio>square</pixelaspectratio>
						<anamorphic>FALSE</anamorphic>
						<file id="file-1149">
							<name>TKO_017_SIX_Sh12050.mov</name>
							<pathurl>file://tri-stor01/Projects/TKO/SHOTS/_Refs_Movs_Burnin_FrameCounter/TKO_017_SIX_Sh12050.mov</pathurl>
							<rate>
								<timebase>24</timebase>
								<ntsc>TRUE</ntsc>
							</rate>
							<duration>22</duration>
							<timecode>
								<rate>
									<timebase>24</timebase>
									<ntsc>TRUE</ntsc>
								</rate>
								<string>15:37:22:12</string>
								<frame>1349820</frame>
								<displayformat>NDF</displayformat>
								<reel>
									<name>B0040011</name>
								</reel>
							</timecode>
							<media>
								<video>
									<samplecharacteristics>
										<rate>
											<timebase>24</timebase>
											<ntsc>TRUE</ntsc>
										</rate>
										<width>4096</width>
										<height>2160</height>
										<anamorphic>FALSE</anamorphic>
										<pixelaspectratio>square</pixelaspectratio>
										<fielddominance>none</fielddominance>
									</samplecharacteristics>
								</video>
							</media>
						</file>
						<logginginfo>
							<description></description>
							<scene></scene>
							<shottake></shottake>
							<lognote></lognote>
							<good></good>
							<originalvideofilename></originalvideofilename>
							<originalaudiofilename></originalaudiofilename>
						</logginginfo>
						<colorinfo>
							<lut></lut>
							<lut1></lut1>
							<asc_sop></asc_sop>
							<asc_sat></asc_sat>
							<lut2></lut2>
						</colorinfo>
						<labels>
							<label2>Violet</label2>
						</labels>
					</clipitem>
					<clipitem id="clipitem-1153">
						<masterclipid>masterclip-1150</masterclipid>
						<name>TKO_017_SIX_Sh12060.mov</name>
						<enabled>TRUE</enabled>
						<duration>35</duration>
						<rate>
							<timebase>24</timebase>
							<ntsc>TRUE</ntsc>
						</rate>
						<start>86339</start>
						<end>86366</end>
						<in>4</in>
						<out>31</out>
						<pproTicksIn>42378336000</pproTicksIn>
						<pproTicksOut>328432104000</pproTicksOut>
						<alphatype>none</alphatype>
						<pixelaspectratio>square</pixelaspectratio>
						<anamorphic>FALSE</anamorphic>
						<file id="file-1150">
							<name>TKO_017_SIX_Sh12060.mov</name>
							<pathurl>file://tri-stor01/Projects/TKO/SHOTS/_Refs_Movs_Burnin_FrameCounter/TKO_017_SIX_Sh12060.mov</pathurl>
							<rate>
								<timebase>24</timebase>
								<ntsc>TRUE</ntsc>
							</rate>
							<duration>35</duration>
							<timecode>
								<rate>
									<timebase>24</timebase>
									<ntsc>TRUE</ntsc>
								</rate>
								<string>15:37:23:02</string>
								<frame>1349834</frame>
								<displayformat>NDF</displayformat>
								<reel>
									<name>A0060010</name>
								</reel>
							</timecode>
							<media>
								<video>
									<samplecharacteristics>
										<rate>
											<timebase>24</timebase>
											<ntsc>TRUE</ntsc>
										</rate>
										<width>4096</width>
										<height>2160</height>
										<anamorphic>FALSE</anamorphic>
										<pixelaspectratio>square</pixelaspectratio>
										<fielddominance>none</fielddominance>
									</samplecharacteristics>
								</video>
							</media>
						</file>
						<logginginfo>
							<description></description>
							<scene></scene>
							<shottake></shottake>
							<lognote></lognote>
							<good></good>
							<originalvideofilename></originalvideofilename>
							<originalaudiofilename></originalaudiofilename>
						</logginginfo>
						<colorinfo>
							<lut></lut>
							<lut1></lut1>
							<asc_sop></asc_sop>
							<asc_sat></asc_sat>
							<lut2></lut2>
						</colorinfo>
						<labels>
							<label2>Violet</label2>
						</labels>
					</clipitem>
					<clipitem id="clipitem-1154">
						<masterclipid>masterclip-1151</masterclipid>
						<name>TKO_017_SIX_Sh12070.mov</name>
						<enabled>TRUE</enabled>
						<duration>32</duration>
						<rate>
							<timebase>24</timebase>
							<ntsc>TRUE</ntsc>
						</rate>
						<start>86366</start>
						<end>86390</end>
						<in>4</in>
						<out>28</out>
						<pproTicksIn>42378336000</pproTicksIn>
						<pproTicksOut>296648352000</pproTicksOut>
						<alphatype>none</alphatype>
						<pixelaspectratio>square</pixelaspectratio>
						<anamorphic>FALSE</anamorphic>
						<file id="file-1151">
							<name>TKO_017_SIX_Sh12070.mov</name>
							<pathurl>file://tri-stor01/Projects/TKO/SHOTS/_Refs_Movs_Burnin_FrameCounter/TKO_017_SIX_Sh12070.mov</pathurl>
							<rate>
								<timebase>24</timebase>
								<ntsc>TRUE</ntsc>
							</rate>
							<duration>32</duration>
							<timecode>
								<rate>
									<timebase>24</timebase>
									<ntsc>TRUE</ntsc>
								</rate>
								<string>15:22:55:21</string>
								<frame>1329021</frame>
								<displayformat>NDF</displayformat>
								<reel>
									<name>A0060007</name>
								</reel>
							</timecode>
							<media>
								<video>
									<samplecharacteristics>
										<rate>
											<timebase>24</timebase>
											<ntsc>TRUE</ntsc>
										</rate>
										<width>4096</width>
										<height>2160</height>
										<anamorphic>FALSE</anamorphic>
										<pixelaspectratio>square</pixelaspectratio>
										<fielddominance>none</fielddominance>
									</samplecharacteristics>
								</video>
							</media>
						</file>
						<logginginfo>
							<description></description>
							<scene></scene>
							<shottake></shottake>
							<lognote></lognote>
							<good></good>
							<originalvideofilename></originalvideofilename>
							<originalaudiofilename></originalaudiofilename>
						</logginginfo>
						<colorinfo>
							<lut></lut>
							<lut1></lut1>
							<asc_sop></asc_sop>
							<asc_sat></asc_sat>
							<lut2></lut2>
						</colorinfo>
						<labels>
							<label2>Violet</label2>
						</labels>
					</clipitem>
					<clipitem id="clipitem-1155">
						<masterclipid>masterclip-1152</masterclipid>
						<name>TKO_017_SIX_Sh12080.mov</name>
						<enabled>TRUE</enabled>
						<duration>34</duration>
						<rate>
							<timebase>24</timebase>
							<ntsc>TRUE</ntsc>
						</rate>
						<start>86390</start>
						<end>86416</end>
						<in>4</in>
						<out>30</out>
						<pproTicksIn>42378336000</pproTicksIn>
						<pproTicksOut>317837520000</pproTicksOut>
						<alphatype>none</alphatype>
						<pixelaspectratio>square</pixelaspectratio>
						<anamorphic>FALSE</anamorphic>
						<file id="file-1152">
							<name>TKO_017_SIX_Sh12080.mov</name>
							<pathurl>file://tri-stor01/Projects/TKO/SHOTS/_Refs_Movs_Burnin_FrameCounter/TKO_017_SIX_Sh12080.mov</pathurl>
							<rate>
								<timebase>24</timebase>
								<ntsc>TRUE</ntsc>
							</rate>
							<duration>34</duration>
							<timecode>
								<rate>
									<timebase>24</timebase>
									<ntsc>TRUE</ntsc>
								</rate>
								<string>16:26:34:15</string>
								<frame>1420671</frame>
								<displayformat>NDF</displayformat>
								<reel>
									<name>B0040013</name>
								</reel>
							</timecode>
							<media>
								<video>
									<samplecharacteristics>
										<rate>
											<timebase>24</timebase>
											<ntsc>TRUE</ntsc>
										</rate>
										<width>4096</width>
										<height>2160</height>
										<anamorphic>FALSE</anamorphic>
										<pixelaspectratio>square</pixelaspectratio>
										<fielddominance>none</fielddominance>
									</samplecharacteristics>
								</video>
							</media>
						</file>
						<logginginfo>
							<description></description>
							<scene></scene>
							<shottake></shottake>
							<lognote></lognote>
							<good></good>
							<originalvideofilename></originalvideofilename>
							<originalaudiofilename></originalaudiofilename>
						</logginginfo>
						<colorinfo>
							<lut></lut>
							<lut1></lut1>
							<asc_sop></asc_sop>
							<asc_sat></asc_sat>
							<lut2></lut2>
						</colorinfo>
						<labels>
							<label2>Violet</label2>
						</labels>
					</clipitem>
					<clipitem id="clipitem-1156">
						<masterclipid>masterclip-1153</masterclipid>
						<name>TKO_017_SIX_Sh12090.mov</name>
						<enabled>TRUE</enabled>
						<duration>50</duration>
						<rate>
							<timebase>24</timebase>
							<ntsc>TRUE</ntsc>
						</rate>
						<start>86416</start>
						<end>86458</end>
						<in>4</in>
						<out>46</out>
						<pproTicksIn>42378336000</pproTicksIn>
						<pproTicksOut>487350864000</pproTicksOut>
						<alphatype>none</alphatype>
						<pixelaspectratio>square</pixelaspectratio>
						<anamorphic>FALSE</anamorphic>
						<file id="file-1153">
							<name>TKO_017_SIX_Sh12090.mov</name>
							<pathurl>file://tri-stor01/Projects/TKO/SHOTS/_Refs_Movs_Burnin_FrameCounter/TKO_017_SIX_Sh12090.mov</pathurl>
							<rate>
								<timebase>24</timebase>
								<ntsc>TRUE</ntsc>
							</rate>
							<duration>50</duration>
							<timecode>
								<rate>
									<timebase>24</timebase>
									<ntsc>TRUE</ntsc>
								</rate>
								<string>18:23:05:07</string>
								<frame>1588447</frame>
								<displayformat>NDF</displayformat>
								<reel>
									<name>A0070007</name>
								</reel>
							</timecode>
							<media>
								<video>
									<samplecharacteristics>
										<rate>
											<timebase>24</timebase>
											<ntsc>TRUE</ntsc>
										</rate>
										<width>4096</width>
										<height>2160</height>
										<anamorphic>FALSE</anamorphic>
										<pixelaspectratio>square</pixelaspectratio>
										<fielddominance>none</fielddominance>
									</samplecharacteristics>
								</video>
							</media>
						</file>
						<logginginfo>
							<description></description>
							<scene></scene>
							<shottake></shottake>
							<lognote></lognote>
							<good></good>
							<originalvideofilename></originalvideofilename>
							<originalaudiofilename></originalaudiofilename>
						</logginginfo>
						<colorinfo>
							<lut></lut>
							<lut1></lut1>
							<asc_sop></asc_sop>
							<asc_sat></asc_sat>
							<lut2></lut2>
						</colorinfo>
						<labels>
							<label2>Violet</label2>
						</labels>
					</clipitem>
					<clipitem id="clipitem-1157">
						<masterclipid>masterclip-1154</masterclipid>
						<name>TKO_017_SIX_Sh12100.mov</name>
						<enabled>TRUE</enabled>
						<duration>93</duration>
						<rate>
							<timebase>24</timebase>
							<ntsc>TRUE</ntsc>
						</rate>
						<start>86458</start>
						<end>86543</end>
						<in>4</in>
						<out>89</out>
						<pproTicksIn>42378336000</pproTicksIn>
						<pproTicksOut>942917976000</pproTicksOut>
						<alphatype>none</alphatype>
						<pixelaspectratio>square</pixelaspectratio>
						<anamorphic>FALSE</anamorphic>
						<file id="file-1154">
							<name>TKO_017_SIX_Sh12100.mov</name>
							<pathurl>file://tri-stor01/Projects/TKO/SHOTS/_Refs_Movs_Burnin_FrameCounter/TKO_017_SIX_Sh12100.mov</pathurl>
							<rate>
								<timebase>24</timebase>
								<ntsc>TRUE</ntsc>
							</rate>
							<duration>93</duration>
							<timecode>
								<rate>
									<timebase>24</timebase>
									<ntsc>TRUE</ntsc>
								</rate>
								<string>01:36:46:21</string>
								<frame>139365</frame>
								<displayformat>NDF</displayformat>
								<reel>
									<name>C0020007</name>
								</reel>
							</timecode>
							<media>
								<video>
									<samplecharacteristics>
										<rate>
											<timebase>24</timebase>
											<ntsc>TRUE</ntsc>
										</rate>
										<width>3840</width>
										<height>2160</height>
										<anamorphic>FALSE</anamorphic>
										<pixelaspectratio>square</pixelaspectratio>
										<fielddominance>none</fielddominance>
									</samplecharacteristics>
								</video>
							</media>
						</file>
						<logginginfo>
							<description></description>
							<scene></scene>
							<shottake></shottake>
							<lognote></lognote>
							<good></good>
							<originalvideofilename></originalvideofilename>
							<originalaudiofilename></originalaudiofilename>
						</logginginfo>
						<colorinfo>
							<lut></lut>
							<lut1></lut1>
							<asc_sop></asc_sop>
							<asc_sat></asc_sat>
							<lut2></lut2>
						</colorinfo>
						<labels>
							<label2>Violet</label2>
						</labels>
					</clipitem>
					<clipitem id="clipitem-1158">
						<masterclipid>masterclip-1155</masterclipid>
						<name>TKO_017_SIX_Sh12110.mov</name>
						<enabled>TRUE</enabled>
						<duration>63</duration>
						<rate>
							<timebase>24</timebase>
							<ntsc>TRUE</ntsc>
						</rate>
						<start>86543</start>
						<end>86598</end>
						<in>4</in>
						<out>59</out>
						<pproTicksIn>42378336000</pproTicksIn>
						<pproTicksOut>625080456000</pproTicksOut>
						<alphatype>none</alphatype>
						<pixelaspectratio>square</pixelaspectratio>
						<anamorphic>FALSE</anamorphic>
						<file id="file-1155">
							<name>TKO_017_SIX_Sh12110.mov</name>
							<pathurl>file://tri-stor01/Projects/TKO/SHOTS/_Refs_Movs_Burnin_FrameCounter/TKO_017_SIX_Sh12110.mov</pathurl>
							<rate>
								<timebase>24</timebase>
								<ntsc>TRUE</ntsc>
							</rate>
							<duration>63</duration>
							<timecode>
								<rate>
									<timebase>24</timebase>
									<ntsc>TRUE</ntsc>
								</rate>
								<string>18:24:31:03</string>
								<frame>1590507</frame>
								<displayformat>NDF</displayformat>
								<reel>
									<name>A0070007</name>
								</reel>
							</timecode>
							<media>
								<video>
									<samplecharacteristics>
										<rate>
											<timebase>24</timebase>
											<ntsc>TRUE</ntsc>
										</rate>
										<width>4096</width>
										<height>2160</height>
										<anamorphic>FALSE</anamorphic>
										<pixelaspectratio>square</pixelaspectratio>
										<fielddominance>none</fielddominance>
									</samplecharacteristics>
								</video>
							</media>
						</file>
						<logginginfo>
							<description></description>
							<scene></scene>
							<shottake></shottake>
							<lognote></lognote>
							<good></good>
							<originalvideofilename></originalvideofilename>
							<originalaudiofilename></originalaudiofilename>
						</logginginfo>
						<colorinfo>
							<lut></lut>
							<lut1></lut1>
							<asc_sop></asc_sop>
							<asc_sat></asc_sat>
							<lut2></lut2>
						</colorinfo>
						<labels>
							<label2>Violet</label2>
						</labels>
					</clipitem>
					<clipitem id="clipitem-1159">
						<masterclipid>masterclip-1156</masterclipid>
						<name>TKO_017_SIX_Sh12120.mov</name>
						<enabled>TRUE</enabled>
						<duration>185</duration>
						<rate>
							<timebase>24</timebase>
							<ntsc>TRUE</ntsc>
						</rate>
						<start>86598</start>
						<end>86775</end>
						<in>4</in>
						<out>181</out>
						<pproTicksIn>42378336000</pproTicksIn>
						<pproTicksOut>1917619704000</pproTicksOut>
						<alphatype>none</alphatype>
						<pixelaspectratio>square</pixelaspectratio>
						<anamorphic>FALSE</anamorphic>
						<file id="file-1156">
							<name>TKO_017_SIX_Sh12120.mov</name>
							<pathurl>file://tri-stor01/Projects/TKO/SHOTS/_Refs_Movs_Burnin_FrameCounter/TKO_017_SIX_Sh12120.mov</pathurl>
							<rate>
								<timebase>24</timebase>
								<ntsc>TRUE</ntsc>
							</rate>
							<duration>185</duration>
							<timecode>
								<rate>
									<timebase>24</timebase>
									<ntsc>TRUE</ntsc>
								</rate>
								<string>17:47:23:15</string>
								<frame>1537047</frame>
								<displayformat>NDF</displayformat>
								<reel>
									<name>A0070002</name>
								</reel>
							</timecode>
							<media>
								<video>
									<samplecharacteristics>
										<rate>
											<timebase>24</timebase>
											<ntsc>TRUE</ntsc>
										</rate>
										<width>4096</width>
										<height>2160</height>
										<anamorphic>FALSE</anamorphic>
										<pixelaspectratio>square</pixelaspectratio>
										<fielddominance>none</fielddominance>
									</samplecharacteristics>
								</video>
							</media>
						</file>
						<logginginfo>
							<description></description>
							<scene></scene>
							<shottake></shottake>
							<lognote></lognote>
							<good></good>
							<originalvideofilename></originalvideofilename>
							<originalaudiofilename></originalaudiofilename>
						</logginginfo>
						<colorinfo>
							<lut></lut>
							<lut1></lut1>
							<asc_sop></asc_sop>
							<asc_sat></asc_sat>
							<lut2></lut2>
						</colorinfo>
						<labels>
							<label2>Violet</label2>
						</labels>
					</clipitem>
					<clipitem id="clipitem-1160">
						<masterclipid>masterclip-1157</masterclipid>
						<name>TKO_017_SIX_Sh12130.mov</name>
						<enabled>TRUE</enabled>
						<duration>32</duration>
						<rate>
							<timebase>24</timebase>
							<ntsc>TRUE</ntsc>
						</rate>
						<start>86775</start>
						<end>86799</end>
						<in>4</in>
						<out>28</out>
						<pproTicksIn>42378336000</pproTicksIn>
						<pproTicksOut>296648352000</pproTicksOut>
						<alphatype>none</alphatype>
						<pixelaspectratio>square</pixelaspectratio>
						<anamorphic>FALSE</anamorphic>
						<file id="file-1157">
							<name>TKO_017_SIX_Sh12130.mov</name>
							<pathurl>file://tri-stor01/Projects/TKO/SHOTS/_Refs_Movs_Burnin_FrameCounter/TKO_017_SIX_Sh12130.mov</pathurl>
							<rate>
								<timebase>24</timebase>
								<ntsc>TRUE</ntsc>
							</rate>
							<duration>32</duration>
							<timecode>
								<rate>
									<timebase>24</timebase>
									<ntsc>TRUE</ntsc>
								</rate>
								<string>19:26:14:03</string>
								<frame>1679379</frame>
								<displayformat>NDF</displayformat>
								<reel>
									<name>A0070012</name>
								</reel>
							</timecode>
							<media>
								<video>
									<samplecharacteristics>
										<rate>
											<timebase>24</timebase>
											<ntsc>TRUE</ntsc>
										</rate>
										<width>4096</width>
										<height>2160</height>
										<anamorphic>FALSE</anamorphic>
										<pixelaspectratio>square</pixelaspectratio>
										<fielddominance>none</fielddominance>
									</samplecharacteristics>
								</video>
							</media>
						</file>
						<logginginfo>
							<description></description>
							<scene></scene>
							<shottake></shottake>
							<lognote></lognote>
							<good></good>
							<originalvideofilename></originalvideofilename>
							<originalaudiofilename></originalaudiofilename>
						</logginginfo>
						<colorinfo>
							<lut></lut>
							<lut1></lut1>
							<asc_sop></asc_sop>
							<asc_sat></asc_sat>
							<lut2></lut2>
						</colorinfo>
						<labels>
							<label2>Violet</label2>
						</labels>
					</clipitem>
					<clipitem id="clipitem-1161">
						<masterclipid>masterclip-1158</masterclipid>
						<name>TKO_017_SIX_Sh12140.mov</name>
						<enabled>TRUE</enabled>
						<duration>57</duration>
						<rate>
							<timebase>24</timebase>
							<ntsc>TRUE</ntsc>
						</rate>
						<start>86799</start>
						<end>86848</end>
						<in>4</in>
						<out>53</out>
						<pproTicksIn>42378336000</pproTicksIn>
						<pproTicksOut>561512952000</pproTicksOut>
						<alphatype>none</alphatype>
						<pixelaspectratio>square</pixelaspectratio>
						<anamorphic>FALSE</anamorphic>
						<file id="file-1158">
							<name>TKO_017_SIX_Sh12140.mov</name>
							<pathurl>file://tri-stor01/Projects/TKO/SHOTS/_Refs_Movs_Burnin_FrameCounter/TKO_017_SIX_Sh12140.mov</pathurl>
							<rate>
								<timebase>24</timebase>
								<ntsc>TRUE</ntsc>
							</rate>
							<duration>57</duration>
							<timecode>
								<rate>
									<timebase>24</timebase>
									<ntsc>TRUE</ntsc>
								</rate>
								<string>19:26:15:03</string>
								<frame>1679403</frame>
								<displayformat>NDF</displayformat>
								<reel>
									<name>B0040029</name>
								</reel>
							</timecode>
							<media>
								<video>
									<samplecharacteristics>
										<rate>
											<timebase>24</timebase>
											<ntsc>TRUE</ntsc>
										</rate>
										<width>4096</width>
										<height>2160</height>
										<anamorphic>FALSE</anamorphic>
										<pixelaspectratio>square</pixelaspectratio>
										<fielddominance>none</fielddominance>
									</samplecharacteristics>
								</video>
							</media>
						</file>
						<logginginfo>
							<description></description>
							<scene></scene>
							<shottake></shottake>
							<lognote></lognote>
							<good></good>
							<originalvideofilename></originalvideofilename>
							<originalaudiofilename></originalaudiofilename>
						</logginginfo>
						<colorinfo>
							<lut></lut>
							<lut1></lut1>
							<asc_sop></asc_sop>
							<asc_sat></asc_sat>
							<lut2></lut2>
						</colorinfo>
						<labels>
							<label2>Violet</label2>
						</labels>
					</clipitem>
					<clipitem id="clipitem-1162">
						<masterclipid>masterclip-1159</masterclipid>
						<name>TKO_017_SIX_Sh12150.mov</name>
						<enabled>TRUE</enabled>
						<duration>44</duration>
						<rate>
							<timebase>24</timebase>
							<ntsc>TRUE</ntsc>
						</rate>
						<start>86848</start>
						<end>86884</end>
						<in>4</in>
						<out>40</out>
						<pproTicksIn>42378336000</pproTicksIn>
						<pproTicksOut>423783360000</pproTicksOut>
						<alphatype>none</alphatype>
						<pixelaspectratio>square</pixelaspectratio>
						<anamorphic>FALSE</anamorphic>
						<file id="file-1159">
							<name>TKO_017_SIX_Sh12150.mov</name>
							<pathurl>file://tri-stor01/Projects/TKO/SHOTS/_Refs_Movs_Burnin_FrameCounter/TKO_017_SIX_Sh12150.mov</pathurl>
							<rate>
								<timebase>24</timebase>
								<ntsc>TRUE</ntsc>
							</rate>
							<duration>44</duration>
							<timecode>
								<rate>
									<timebase>24</timebase>
									<ntsc>TRUE</ntsc>
								</rate>
								<string>18:05:26:02</string>
								<frame>1563026</frame>
								<displayformat>NDF</displayformat>
								<reel>
									<name>A0070004</name>
								</reel>
							</timecode>
							<media>
								<video>
									<samplecharacteristics>
										<rate>
											<timebase>24</timebase>
											<ntsc>TRUE</ntsc>
										</rate>
										<width>4096</width>
										<height>2160</height>
										<anamorphic>FALSE</anamorphic>
										<pixelaspectratio>square</pixelaspectratio>
										<fielddominance>none</fielddominance>
									</samplecharacteristics>
								</video>
							</media>
						</file>
						<logginginfo>
							<description></description>
							<scene></scene>
							<shottake></shottake>
							<lognote></lognote>
							<good></good>
							<originalvideofilename></originalvideofilename>
							<originalaudiofilename></originalaudiofilename>
						</logginginfo>
						<colorinfo>
							<lut></lut>
							<lut1></lut1>
							<asc_sop></asc_sop>
							<asc_sat></asc_sat>
							<lut2></lut2>
						</colorinfo>
						<labels>
							<label2>Violet</label2>
						</labels>
					</clipitem>
					<clipitem id="clipitem-1163">
						<masterclipid>masterclip-1160</masterclipid>
						<name>TKO_017_SIX_Sh12160.mov</name>
						<enabled>TRUE</enabled>
						<duration>47</duration>
						<rate>
							<timebase>24</timebase>
							<ntsc>TRUE</ntsc>
						</rate>
						<start>86884</start>
						<end>86923</end>
						<in>4</in>
						<out>43</out>
						<pproTicksIn>42378336000</pproTicksIn>
						<pproTicksOut>455567112000</pproTicksOut>
						<alphatype>none</alphatype>
						<pixelaspectratio>square</pixelaspectratio>
						<anamorphic>FALSE</anamorphic>
						<file id="file-1160">
							<name>TKO_017_SIX_Sh12160.mov</name>
							<pathurl>file://tri-stor01/Projects/TKO/SHOTS/_Refs_Movs_Burnin_FrameCounter/TKO_017_SIX_Sh12160.mov</pathurl>
							<rate>
								<timebase>24</timebase>
								<ntsc>TRUE</ntsc>
							</rate>
							<duration>47</duration>
							<timecode>
								<rate>
									<timebase>24</timebase>
									<ntsc>TRUE</ntsc>
								</rate>
								<string>19:26:19:08</string>
								<frame>1679504</frame>
								<displayformat>NDF</displayformat>
								<reel>
									<name>B0040029</name>
								</reel>
							</timecode>
							<media>
								<video>
									<samplecharacteristics>
										<rate>
											<timebase>24</timebase>
											<ntsc>TRUE</ntsc>
										</rate>
										<width>4096</width>
										<height>2160</height>
										<anamorphic>FALSE</anamorphic>
										<pixelaspectratio>square</pixelaspectratio>
										<fielddominance>none</fielddominance>
									</samplecharacteristics>
								</video>
							</media>
						</file>
						<logginginfo>
							<description></description>
							<scene></scene>
							<shottake></shottake>
							<lognote></lognote>
							<good></good>
							<originalvideofilename></originalvideofilename>
							<originalaudiofilename></originalaudiofilename>
						</logginginfo>
						<colorinfo>
							<lut></lut>
							<lut1></lut1>
							<asc_sop></asc_sop>
							<asc_sat></asc_sat>
							<lut2></lut2>
						</colorinfo>
						<labels>
							<label2>Violet</label2>
						</labels>
					</clipitem>
					<clipitem id="clipitem-1164">
						<masterclipid>masterclip-1161</masterclipid>
						<name>TKO_017_SIX_Sh12170.mov</name>
						<enabled>TRUE</enabled>
						<duration>29</duration>
						<rate>
							<timebase>24</timebase>
							<ntsc>TRUE</ntsc>
						</rate>
						<start>86923</start>
						<end>86944</end>
						<in>4</in>
						<out>25</out>
						<pproTicksIn>42378336000</pproTicksIn>
						<pproTicksOut>264864600000</pproTicksOut>
						<alphatype>none</alphatype>
						<pixelaspectratio>square</pixelaspectratio>
						<anamorphic>FALSE</anamorphic>
						<file id="file-1161">
							<name>TKO_017_SIX_Sh12170.mov</name>
							<pathurl>file://tri-stor01/Projects/TKO/SHOTS/_Refs_Movs_Burnin_FrameCounter/TKO_017_SIX_Sh12170.mov</pathurl>
							<rate>
								<timebase>24</timebase>
								<ntsc>TRUE</ntsc>
							</rate>
							<duration>29</duration>
							<timecode>
								<rate>
									<timebase>24</timebase>
									<ntsc>TRUE</ntsc>
								</rate>
								<string>19:26:20:23</string>
								<frame>1679543</frame>
								<displayformat>NDF</displayformat>
								<reel>
									<name>A0070012</name>
								</reel>
							</timecode>
							<media>
								<video>
									<samplecharacteristics>
										<rate>
											<timebase>24</timebase>
											<ntsc>TRUE</ntsc>
										</rate>
										<width>4096</width>
										<height>2160</height>
										<anamorphic>FALSE</anamorphic>
										<pixelaspectratio>square</pixelaspectratio>
										<fielddominance>none</fielddominance>
									</samplecharacteristics>
								</video>
							</media>
						</file>
						<logginginfo>
							<description></description>
							<scene></scene>
							<shottake></shottake>
							<lognote></lognote>
							<good></good>
							<originalvideofilename></originalvideofilename>
							<originalaudiofilename></originalaudiofilename>
						</logginginfo>
						<colorinfo>
							<lut></lut>
							<lut1></lut1>
							<asc_sop></asc_sop>
							<asc_sat></asc_sat>
							<lut2></lut2>
						</colorinfo>
						<labels>
							<label2>Violet</label2>
						</labels>
					</clipitem>
					<clipitem id="clipitem-1165">
						<masterclipid>masterclip-1162</masterclipid>
						<name>TKO_017_SIX_Sh12180.mov</name>
						<enabled>TRUE</enabled>
						<duration>35</duration>
						<rate>
							<timebase>24</timebase>
							<ntsc>TRUE</ntsc>
						</rate>
						<start>86944</start>
						<end>86971</end>
						<in>4</in>
						<out>31</out>
						<pproTicksIn>42378336000</pproTicksIn>
						<pproTicksOut>328432104000</pproTicksOut>
						<alphatype>none</alphatype>
						<pixelaspectratio>square</pixelaspectratio>
						<anamorphic>FALSE</anamorphic>
						<file id="file-1162">
							<name>TKO_017_SIX_Sh12180.mov</name>
							<pathurl>file://tri-stor01/Projects/TKO/SHOTS/_Refs_Movs_Burnin_FrameCounter/TKO_017_SIX_Sh12180.mov</pathurl>
							<rate>
								<timebase>24</timebase>
								<ntsc>TRUE</ntsc>
							</rate>
							<duration>35</duration>
							<timecode>
								<rate>
									<timebase>24</timebase>
									<ntsc>TRUE</ntsc>
								</rate>
								<string>19:41:06:16</string>
								<frame>1700800</frame>
								<displayformat>NDF</displayformat>
								<reel>
									<name>A0070015</name>
								</reel>
							</timecode>
							<media>
								<video>
									<samplecharacteristics>
										<rate>
											<timebase>24</timebase>
											<ntsc>TRUE</ntsc>
										</rate>
										<width>4096</width>
										<height>2160</height>
										<anamorphic>FALSE</anamorphic>
										<pixelaspectratio>square</pixelaspectratio>
										<fielddominance>none</fielddominance>
									</samplecharacteristics>
								</video>
							</media>
						</file>
						<logginginfo>
							<description></description>
							<scene></scene>
							<shottake></shottake>
							<lognote></lognote>
							<good></good>
							<originalvideofilename></originalvideofilename>
							<originalaudiofilename></originalaudiofilename>
						</logginginfo>
						<colorinfo>
							<lut></lut>
							<lut1></lut1>
							<asc_sop></asc_sop>
							<asc_sat></asc_sat>
							<lut2></lut2>
						</colorinfo>
						<labels>
							<label2>Violet</label2>
						</labels>
					</clipitem>
					<clipitem id="clipitem-1166">
						<masterclipid>masterclip-1163</masterclipid>
						<name>TKO_017_SIX_Sh12190.mov</name>
						<enabled>TRUE</enabled>
						<duration>42</duration>
						<rate>
							<timebase>24</timebase>
							<ntsc>TRUE</ntsc>
						</rate>
						<start>86971</start>
						<end>87005</end>
						<in>4</in>
						<out>38</out>
						<pproTicksIn>42378336000</pproTicksIn>
						<pproTicksOut>402594192000</pproTicksOut>
						<alphatype>none</alphatype>
						<pixelaspectratio>square</pixelaspectratio>
						<anamorphic>FALSE</anamorphic>
						<file id="file-1163">
							<name>TKO_017_SIX_Sh12190.mov</name>
							<pathurl>file://tri-stor01/Projects/TKO/SHOTS/_Refs_Movs_Burnin_FrameCounter/TKO_017_SIX_Sh12190.mov</pathurl>
							<rate>
								<timebase>24</timebase>
								<ntsc>TRUE</ntsc>
							</rate>
							<duration>42</duration>
							<timecode>
								<rate>
									<timebase>24</timebase>
									<ntsc>TRUE</ntsc>
								</rate>
								<string>18:05:26:17</string>
								<frame>1563041</frame>
								<displayformat>NDF</displayformat>
								<reel>
									<name>B0040023</name>
								</reel>
							</timecode>
							<media>
								<video>
									<samplecharacteristics>
										<rate>
											<timebase>24</timebase>
											<ntsc>TRUE</ntsc>
										</rate>
										<width>4096</width>
										<height>2160</height>
										<anamorphic>FALSE</anamorphic>
										<pixelaspectratio>square</pixelaspectratio>
										<fielddominance>none</fielddominance>
									</samplecharacteristics>
								</video>
							</media>
						</file>
						<logginginfo>
							<description></description>
							<scene></scene>
							<shottake></shottake>
							<lognote></lognote>
							<good></good>
							<originalvideofilename></originalvideofilename>
							<originalaudiofilename></originalaudiofilename>
						</logginginfo>
						<colorinfo>
							<lut></lut>
							<lut1></lut1>
							<asc_sop></asc_sop>
							<asc_sat></asc_sat>
							<lut2></lut2>
						</colorinfo>
						<labels>
							<label2>Violet</label2>
						</labels>
					</clipitem>
					<clipitem id="clipitem-1167">
						<masterclipid>masterclip-1164</masterclipid>
						<name>TKO_017_SIX_Sh12200.mov</name>
						<enabled>TRUE</enabled>
						<duration>30</duration>
						<rate>
							<timebase>24</timebase>
							<ntsc>TRUE</ntsc>
						</rate>
						<start>87005</start>
						<end>87027</end>
						<in>4</in>
						<out>26</out>
						<pproTicksIn>42378336000</pproTicksIn>
						<pproTicksOut>275459184000</pproTicksOut>
						<alphatype>none</alphatype>
						<pixelaspectratio>square</pixelaspectratio>
						<anamorphic>FALSE</anamorphic>
						<file id="file-1164">
							<name>TKO_017_SIX_Sh12200.mov</name>
							<pathurl>file://tri-stor01/Projects/TKO/SHOTS/_Refs_Movs_Burnin_FrameCounter/TKO_017_SIX_Sh12200.mov</pathurl>
							<rate>
								<timebase>24</timebase>
								<ntsc>TRUE</ntsc>
							</rate>
							<duration>30</duration>
							<timecode>
								<rate>
									<timebase>24</timebase>
									<ntsc>TRUE</ntsc>
								</rate>
								<string>19:26:24:21</string>
								<frame>1679637</frame>
								<displayformat>NDF</displayformat>
								<reel>
									<name>B0040029</name>
								</reel>
							</timecode>
							<media>
								<video>
									<samplecharacteristics>
										<rate>
											<timebase>24</timebase>
											<ntsc>TRUE</ntsc>
										</rate>
										<width>4096</width>
										<height>2160</height>
										<anamorphic>FALSE</anamorphic>
										<pixelaspectratio>square</pixelaspectratio>
										<fielddominance>none</fielddominance>
									</samplecharacteristics>
								</video>
							</media>
						</file>
						<logginginfo>
							<description></description>
							<scene></scene>
							<shottake></shottake>
							<lognote></lognote>
							<good></good>
							<originalvideofilename></originalvideofilename>
							<originalaudiofilename></originalaudiofilename>
						</logginginfo>
						<colorinfo>
							<lut></lut>
							<lut1></lut1>
							<asc_sop></asc_sop>
							<asc_sat></asc_sat>
							<lut2></lut2>
						</colorinfo>
						<labels>
							<label2>Violet</label2>
						</labels>
					</clipitem>
					<clipitem id="clipitem-1168">
						<masterclipid>masterclip-1165</masterclipid>
						<name>TKO_017_SIX_Sh12210.mov</name>
						<enabled>TRUE</enabled>
						<duration>33</duration>
						<rate>
							<timebase>24</timebase>
							<ntsc>TRUE</ntsc>
						</rate>
						<start>87027</start>
						<end>87052</end>
						<in>4</in>
						<out>29</out>
						<pproTicksIn>42378336000</pproTicksIn>
						<pproTicksOut>307242936000</pproTicksOut>
						<alphatype>none</alphatype>
						<pixelaspectratio>square</pixelaspectratio>
						<anamorphic>FALSE</anamorphic>
						<file id="file-1165">
							<name>TKO_017_SIX_Sh12210.mov</name>
							<pathurl>file://tri-stor01/Projects/TKO/SHOTS/_Refs_Movs_Burnin_FrameCounter/TKO_017_SIX_Sh12210.mov</pathurl>
							<rate>
								<timebase>24</timebase>
								<ntsc>TRUE</ntsc>
							</rate>
							<duration>33</duration>
							<timecode>
								<rate>
									<timebase>24</timebase>
									<ntsc>TRUE</ntsc>
								</rate>
								<string>19:41:08:15</string>
								<frame>1700847</frame>
								<displayformat>NDF</displayformat>
								<reel>
									<name>A0070015</name>
								</reel>
							</timecode>
							<media>
								<video>
									<samplecharacteristics>
										<rate>
											<timebase>24</timebase>
											<ntsc>TRUE</ntsc>
										</rate>
										<width>4096</width>
										<height>2160</height>
										<anamorphic>FALSE</anamorphic>
										<pixelaspectratio>square</pixelaspectratio>
										<fielddominance>none</fielddominance>
									</samplecharacteristics>
								</video>
							</media>
						</file>
						<logginginfo>
							<description></description>
							<scene></scene>
							<shottake></shottake>
							<lognote></lognote>
							<good></good>
							<originalvideofilename></originalvideofilename>
							<originalaudiofilename></originalaudiofilename>
						</logginginfo>
						<colorinfo>
							<lut></lut>
							<lut1></lut1>
							<asc_sop></asc_sop>
							<asc_sat></asc_sat>
							<lut2></lut2>
						</colorinfo>
						<labels>
							<label2>Violet</label2>
						</labels>
					</clipitem>
					<clipitem id="clipitem-1169">
						<masterclipid>masterclip-1166</masterclipid>
						<name>TKO_017_SIX_Sh12220.mov</name>
						<enabled>TRUE</enabled>
						<duration>28</duration>
						<rate>
							<timebase>24</timebase>
							<ntsc>TRUE</ntsc>
						</rate>
						<start>87052</start>
						<end>87072</end>
						<in>4</in>
						<out>24</out>
						<pproTicksIn>42378336000</pproTicksIn>
						<pproTicksOut>254270016000</pproTicksOut>
						<alphatype>none</alphatype>
						<pixelaspectratio>square</pixelaspectratio>
						<anamorphic>FALSE</anamorphic>
						<file id="file-1166">
							<name>TKO_017_SIX_Sh12220.mov</name>
							<pathurl>file://tri-stor01/Projects/TKO/SHOTS/_Refs_Movs_Burnin_FrameCounter/TKO_017_SIX_Sh12220.mov</pathurl>
							<rate>
								<timebase>24</timebase>
								<ntsc>TRUE</ntsc>
							</rate>
							<duration>28</duration>
							<timecode>
								<rate>
									<timebase>24</timebase>
									<ntsc>TRUE</ntsc>
								</rate>
								<string>18:05:28:14</string>
								<frame>1563086</frame>
								<displayformat>NDF</displayformat>
								<reel>
									<name>B0040023</name>
								</reel>
							</timecode>
							<media>
								<video>
									<samplecharacteristics>
										<rate>
											<timebase>24</timebase>
											<ntsc>TRUE</ntsc>
										</rate>
										<width>4096</width>
										<height>2160</height>
										<anamorphic>FALSE</anamorphic>
										<pixelaspectratio>square</pixelaspectratio>
										<fielddominance>none</fielddominance>
									</samplecharacteristics>
								</video>
							</media>
						</file>
						<logginginfo>
							<description></description>
							<scene></scene>
							<shottake></shottake>
							<lognote></lognote>
							<good></good>
							<originalvideofilename></originalvideofilename>
							<originalaudiofilename></originalaudiofilename>
						</logginginfo>
						<colorinfo>
							<lut></lut>
							<lut1></lut1>
							<asc_sop></asc_sop>
							<asc_sat></asc_sat>
							<lut2></lut2>
						</colorinfo>
						<labels>
							<label2>Violet</label2>
						</labels>
					</clipitem>
					<clipitem id="clipitem-1170">
						<masterclipid>masterclip-1167</masterclipid>
						<name>TKO_017_SIX_Sh12230.mov</name>
						<enabled>TRUE</enabled>
						<duration>29</duration>
						<rate>
							<timebase>24</timebase>
							<ntsc>TRUE</ntsc>
						</rate>
						<start>87072</start>
						<end>87093</end>
						<in>4</in>
						<out>25</out>
						<pproTicksIn>42378336000</pproTicksIn>
						<pproTicksOut>264864600000</pproTicksOut>
						<alphatype>none</alphatype>
						<pixelaspectratio>square</pixelaspectratio>
						<anamorphic>FALSE</anamorphic>
						<file id="file-1167">
							<name>TKO_017_SIX_Sh12230.mov</name>
							<pathurl>file://tri-stor01/Projects/TKO/SHOTS/_Refs_Movs_Burnin_FrameCounter/TKO_017_SIX_Sh12230.mov</pathurl>
							<rate>
								<timebase>24</timebase>
								<ntsc>TRUE</ntsc>
							</rate>
							<duration>29</duration>
							<timecode>
								<rate>
									<timebase>24</timebase>
									<ntsc>TRUE</ntsc>
								</rate>
								<string>19:41:09:21</string>
								<frame>1700877</frame>
								<displayformat>NDF</displayformat>
								<reel>
									<name>A0070015</name>
								</reel>
							</timecode>
							<media>
								<video>
									<samplecharacteristics>
										<rate>
											<timebase>24</timebase>
											<ntsc>TRUE</ntsc>
										</rate>
										<width>4096</width>
										<height>2160</height>
										<anamorphic>FALSE</anamorphic>
										<pixelaspectratio>square</pixelaspectratio>
										<fielddominance>none</fielddominance>
									</samplecharacteristics>
								</video>
							</media>
						</file>
						<logginginfo>
							<description></description>
							<scene></scene>
							<shottake></shottake>
							<lognote></lognote>
							<good></good>
							<originalvideofilename></originalvideofilename>
							<originalaudiofilename></originalaudiofilename>
						</logginginfo>
						<colorinfo>
							<lut></lut>
							<lut1></lut1>
							<asc_sop></asc_sop>
							<asc_sat></asc_sat>
							<lut2></lut2>
						</colorinfo>
						<labels>
							<label2>Violet</label2>
						</labels>
					</clipitem>
					<clipitem id="clipitem-1171">
						<masterclipid>masterclip-1168</masterclipid>
						<name>TKO_017_SIX_Sh12240.mov</name>
						<enabled>TRUE</enabled>
						<duration>49</duration>
						<rate>
							<timebase>24</timebase>
							<ntsc>TRUE</ntsc>
						</rate>
						<start>87093</start>
						<end>87134</end>
						<in>4</in>
						<out>45</out>
						<pproTicksIn>42378336000</pproTicksIn>
						<pproTicksOut>476756280000</pproTicksOut>
						<alphatype>none</alphatype>
						<pixelaspectratio>square</pixelaspectratio>
						<anamorphic>FALSE</anamorphic>
						<file id="file-1168">
							<name>TKO_017_SIX_Sh12240.mov</name>
							<pathurl>file://tri-stor01/Projects/TKO/SHOTS/_Refs_Movs_Burnin_FrameCounter/TKO_017_SIX_Sh12240.mov</pathurl>
							<rate>
								<timebase>24</timebase>
								<ntsc>TRUE</ntsc>
							</rate>
							<duration>49</duration>
							<timecode>
								<rate>
									<timebase>24</timebase>
									<ntsc>TRUE</ntsc>
								</rate>
								<string>18:05:30:07</string>
								<frame>1563127</frame>
								<displayformat>NDF</displayformat>
								<reel>
									<name>B0040023</name>
								</reel>
							</timecode>
							<media>
								<video>
									<samplecharacteristics>
										<rate>
											<timebase>24</timebase>
											<ntsc>TRUE</ntsc>
										</rate>
										<width>4096</width>
										<height>2160</height>
										<anamorphic>FALSE</anamorphic>
										<pixelaspectratio>square</pixelaspectratio>
										<fielddominance>none</fielddominance>
									</samplecharacteristics>
								</video>
							</media>
						</file>
						<logginginfo>
							<description></description>
							<scene></scene>
							<shottake></shottake>
							<lognote></lognote>
							<good></good>
							<originalvideofilename></originalvideofilename>
							<originalaudiofilename></originalaudiofilename>
						</logginginfo>
						<colorinfo>
							<lut></lut>
							<lut1></lut1>
							<asc_sop></asc_sop>
							<asc_sat></asc_sat>
							<lut2></lut2>
						</colorinfo>
						<labels>
							<label2>Violet</label2>
						</labels>
					</clipitem>
					<clipitem id="clipitem-1172">
						<masterclipid>masterclip-1169</masterclipid>
						<name>TKO_017_SIX_Sh12250.mov</name>
						<enabled>TRUE</enabled>
						<duration>34</duration>
						<rate>
							<timebase>24</timebase>
							<ntsc>TRUE</ntsc>
						</rate>
						<start>87134</start>
						<end>87160</end>
						<in>4</in>
						<out>30</out>
						<pproTicksIn>42378336000</pproTicksIn>
						<pproTicksOut>317837520000</pproTicksOut>
						<alphatype>none</alphatype>
						<pixelaspectratio>square</pixelaspectratio>
						<anamorphic>FALSE</anamorphic>
						<file id="file-1169">
							<name>TKO_017_SIX_Sh12250.mov</name>
							<pathurl>file://tri-stor01/Projects/TKO/SHOTS/_Refs_Movs_Burnin_FrameCounter/TKO_017_SIX_Sh12250.mov</pathurl>
							<rate>
								<timebase>24</timebase>
								<ntsc>TRUE</ntsc>
							</rate>
							<duration>34</duration>
							<timecode>
								<rate>
									<timebase>24</timebase>
									<ntsc>TRUE</ntsc>
								</rate>
								<string>19:26:26:17</string>
								<frame>1679681</frame>
								<displayformat>NDF</displayformat>
								<reel>
									<name>B0040029</name>
								</reel>
							</timecode>
							<media>
								<video>
									<samplecharacteristics>
										<rate>
											<timebase>24</timebase>
											<ntsc>TRUE</ntsc>
										</rate>
										<width>4096</width>
										<height>2160</height>
										<anamorphic>FALSE</anamorphic>
										<pixelaspectratio>square</pixelaspectratio>
										<fielddominance>none</fielddominance>
									</samplecharacteristics>
								</video>
							</media>
						</file>
						<logginginfo>
							<description></description>
							<scene></scene>
							<shottake></shottake>
							<lognote></lognote>
							<good></good>
							<originalvideofilename></originalvideofilename>
							<originalaudiofilename></originalaudiofilename>
						</logginginfo>
						<colorinfo>
							<lut></lut>
							<lut1></lut1>
							<asc_sop></asc_sop>
							<asc_sat></asc_sat>
							<lut2></lut2>
						</colorinfo>
						<labels>
							<label2>Violet</label2>
						</labels>
					</clipitem>
					<clipitem id="clipitem-1173">
						<masterclipid>masterclip-1170</masterclipid>
						<name>TKO_017_SIX_Sh12260.mov</name>
						<enabled>TRUE</enabled>
						<duration>45</duration>
						<rate>
							<timebase>24</timebase>
							<ntsc>TRUE</ntsc>
						</rate>
						<start>87160</start>
						<end>87197</end>
						<in>4</in>
						<out>41</out>
						<pproTicksIn>42378336000</pproTicksIn>
						<pproTicksOut>434377944000</pproTicksOut>
						<alphatype>none</alphatype>
						<pixelaspectratio>square</pixelaspectratio>
						<anamorphic>FALSE</anamorphic>
						<file id="file-1170">
							<name>TKO_017_SIX_Sh12260.mov</name>
							<pathurl>file://tri-stor01/Projects/TKO/SHOTS/_Refs_Movs_Burnin_FrameCounter/TKO_017_SIX_Sh12260.mov</pathurl>
							<rate>
								<timebase>24</timebase>
								<ntsc>TRUE</ntsc>
							</rate>
							<duration>45</duration>
							<timecode>
								<rate>
									<timebase>24</timebase>
									<ntsc>TRUE</ntsc>
								</rate>
								<string>18:05:33:02</string>
								<frame>1563194</frame>
								<displayformat>NDF</displayformat>
								<reel>
									<name>B0040023</name>
								</reel>
							</timecode>
							<media>
								<video>
									<samplecharacteristics>
										<rate>
											<timebase>24</timebase>
											<ntsc>TRUE</ntsc>
										</rate>
										<width>4096</width>
										<height>2160</height>
										<anamorphic>FALSE</anamorphic>
										<pixelaspectratio>square</pixelaspectratio>
										<fielddominance>none</fielddominance>
									</samplecharacteristics>
								</video>
							</media>
						</file>
						<logginginfo>
							<description></description>
							<scene></scene>
							<shottake></shottake>
							<lognote></lognote>
							<good></good>
							<originalvideofilename></originalvideofilename>
							<originalaudiofilename></originalaudiofilename>
						</logginginfo>
						<colorinfo>
							<lut></lut>
							<lut1></lut1>
							<asc_sop></asc_sop>
							<asc_sat></asc_sat>
							<lut2></lut2>
						</colorinfo>
						<labels>
							<label2>Violet</label2>
						</labels>
					</clipitem>
					<clipitem id="clipitem-1174">
						<masterclipid>masterclip-1171</masterclipid>
						<name>TKO_017_SIX_Sh12270.mov</name>
						<enabled>TRUE</enabled>
						<duration>38</duration>
						<rate>
							<timebase>24</timebase>
							<ntsc>TRUE</ntsc>
						</rate>
						<start>87197</start>
						<end>87227</end>
						<in>4</in>
						<out>34</out>
						<pproTicksIn>42378336000</pproTicksIn>
						<pproTicksOut>360215856000</pproTicksOut>
						<alphatype>none</alphatype>
						<pixelaspectratio>square</pixelaspectratio>
						<anamorphic>FALSE</anamorphic>
						<file id="file-1171">
							<name>TKO_017_SIX_Sh12270.mov</name>
							<pathurl>file://tri-stor01/Projects/TKO/SHOTS/_Refs_Movs_Burnin_FrameCounter/TKO_017_SIX_Sh12270.mov</pathurl>
							<rate>
								<timebase>24</timebase>
								<ntsc>TRUE</ntsc>
							</rate>
							<duration>38</duration>
							<timecode>
								<rate>
									<timebase>24</timebase>
									<ntsc>TRUE</ntsc>
								</rate>
								<string>19:41:12:13</string>
								<frame>1700941</frame>
								<displayformat>NDF</displayformat>
								<reel>
									<name>B0040031</name>
								</reel>
							</timecode>
							<media>
								<video>
									<samplecharacteristics>
										<rate>
											<timebase>24</timebase>
											<ntsc>TRUE</ntsc>
										</rate>
										<width>4096</width>
										<height>2160</height>
										<anamorphic>FALSE</anamorphic>
										<pixelaspectratio>square</pixelaspectratio>
										<fielddominance>none</fielddominance>
									</samplecharacteristics>
								</video>
							</media>
						</file>
						<logginginfo>
							<description></description>
							<scene></scene>
							<shottake></shottake>
							<lognote></lognote>
							<good></good>
							<originalvideofilename></originalvideofilename>
							<originalaudiofilename></originalaudiofilename>
						</logginginfo>
						<colorinfo>
							<lut></lut>
							<lut1></lut1>
							<asc_sop></asc_sop>
							<asc_sat></asc_sat>
							<lut2></lut2>
						</colorinfo>
						<labels>
							<label2>Violet</label2>
						</labels>
					</clipitem>
					<clipitem id="clipitem-1175">
						<masterclipid>masterclip-1172</masterclipid>
						<name>TKO_017_SIX_Sh12280.mov</name>
						<enabled>TRUE</enabled>
						<duration>29</duration>
						<rate>
							<timebase>24</timebase>
							<ntsc>TRUE</ntsc>
						</rate>
						<start>87227</start>
						<end>87248</end>
						<in>4</in>
						<out>25</out>
						<pproTicksIn>42378336000</pproTicksIn>
						<pproTicksOut>264864600000</pproTicksOut>
						<alphatype>none</alphatype>
						<pixelaspectratio>square</pixelaspectratio>
						<anamorphic>FALSE</anamorphic>
						<file id="file-1172">
							<name>TKO_017_SIX_Sh12280.mov</name>
							<pathurl>file://tri-stor01/Projects/TKO/SHOTS/_Refs_Movs_Burnin_FrameCounter/TKO_017_SIX_Sh12280.mov</pathurl>
							<rate>
								<timebase>24</timebase>
								<ntsc>TRUE</ntsc>
							</rate>
							<duration>29</duration>
							<timecode>
								<rate>
									<timebase>24</timebase>
									<ntsc>TRUE</ntsc>
								</rate>
								<string>01:42:02:11</string>
								<frame>146939</frame>
								<displayformat>NDF</displayformat>
								<reel>
									<name>C0020009</name>
								</reel>
							</timecode>
							<media>
								<video>
									<samplecharacteristics>
										<rate>
											<timebase>24</timebase>
											<ntsc>TRUE</ntsc>
										</rate>
										<width>3840</width>
										<height>2160</height>
										<anamorphic>FALSE</anamorphic>
										<pixelaspectratio>square</pixelaspectratio>
										<fielddominance>none</fielddominance>
									</samplecharacteristics>
								</video>
							</media>
						</file>
						<logginginfo>
							<description></description>
							<scene></scene>
							<shottake></shottake>
							<lognote></lognote>
							<good></good>
							<originalvideofilename></originalvideofilename>
							<originalaudiofilename></originalaudiofilename>
						</logginginfo>
						<colorinfo>
							<lut></lut>
							<lut1></lut1>
							<asc_sop></asc_sop>
							<asc_sat></asc_sat>
							<lut2></lut2>
						</colorinfo>
						<labels>
							<label2>Violet</label2>
						</labels>
					</clipitem>
					<clipitem id="clipitem-1176">
						<masterclipid>masterclip-1173</masterclipid>
						<name>TKO_017_SIX_Sh12290.mov</name>
						<enabled>TRUE</enabled>
						<duration>57</duration>
						<rate>
							<timebase>24</timebase>
							<ntsc>TRUE</ntsc>
						</rate>
						<start>87248</start>
						<end>87297</end>
						<in>4</in>
						<out>53</out>
						<pproTicksIn>42378336000</pproTicksIn>
						<pproTicksOut>561512952000</pproTicksOut>
						<alphatype>none</alphatype>
						<pixelaspectratio>square</pixelaspectratio>
						<anamorphic>FALSE</anamorphic>
						<file id="file-1173">
							<name>TKO_017_SIX_Sh12290.mov</name>
							<pathurl>file://tri-stor01/Projects/TKO/SHOTS/_Refs_Movs_Burnin_FrameCounter/TKO_017_SIX_Sh12290.mov</pathurl>
							<rate>
								<timebase>24</timebase>
								<ntsc>TRUE</ntsc>
							</rate>
							<duration>57</duration>
							<timecode>
								<rate>
									<timebase>24</timebase>
									<ntsc>TRUE</ntsc>
								</rate>
								<string>16:44:16:11</string>
								<frame>1446155</frame>
								<displayformat>NDF</displayformat>
								<reel>
									<name>B0040015</name>
								</reel>
							</timecode>
							<media>
								<video>
									<samplecharacteristics>
										<rate>
											<timebase>24</timebase>
											<ntsc>TRUE</ntsc>
										</rate>
										<width>4096</width>
										<height>2160</height>
										<anamorphic>FALSE</anamorphic>
										<pixelaspectratio>square</pixelaspectratio>
										<fielddominance>none</fielddominance>
									</samplecharacteristics>
								</video>
							</media>
						</file>
						<logginginfo>
							<description></description>
							<scene></scene>
							<shottake></shottake>
							<lognote></lognote>
							<good></good>
							<originalvideofilename></originalvideofilename>
							<originalaudiofilename></originalaudiofilename>
						</logginginfo>
						<colorinfo>
							<lut></lut>
							<lut1></lut1>
							<asc_sop></asc_sop>
							<asc_sat></asc_sat>
							<lut2></lut2>
						</colorinfo>
						<labels>
							<label2>Violet</label2>
						</labels>
					</clipitem>
					<clipitem id="clipitem-1177">
						<masterclipid>masterclip-1174</masterclipid>
						<name>TKO_017_SIX_Sh12300.mov</name>
						<enabled>TRUE</enabled>
						<duration>24</duration>
						<rate>
							<timebase>24</timebase>
							<ntsc>TRUE</ntsc>
						</rate>
						<start>87297</start>
						<end>87313</end>
						<in>4</in>
						<out>20</out>
						<pproTicksIn>42378336000</pproTicksIn>
						<pproTicksOut>211891680000</pproTicksOut>
						<alphatype>none</alphatype>
						<pixelaspectratio>square</pixelaspectratio>
						<anamorphic>FALSE</anamorphic>
						<file id="file-1174">
							<name>TKO_017_SIX_Sh12300.mov</name>
							<pathurl>file://tri-stor01/Projects/TKO/SHOTS/_Refs_Movs_Burnin_FrameCounter/TKO_017_SIX_Sh12300.mov</pathurl>
							<rate>
								<timebase>24</timebase>
								<ntsc>TRUE</ntsc>
							</rate>
							<duration>24</duration>
							<timecode>
								<rate>
									<timebase>24</timebase>
									<ntsc>TRUE</ntsc>
								</rate>
								<string>19:41:14:06</string>
								<frame>1700982</frame>
								<displayformat>NDF</displayformat>
								<reel>
									<name>A0070015</name>
								</reel>
							</timecode>
							<media>
								<video>
									<samplecharacteristics>
										<rate>
											<timebase>24</timebase>
											<ntsc>TRUE</ntsc>
										</rate>
										<width>4096</width>
										<height>2160</height>
										<anamorphic>FALSE</anamorphic>
										<pixelaspectratio>square</pixelaspectratio>
										<fielddominance>none</fielddominance>
									</samplecharacteristics>
								</video>
							</media>
						</file>
						<logginginfo>
							<description></description>
							<scene></scene>
							<shottake></shottake>
							<lognote></lognote>
							<good></good>
							<originalvideofilename></originalvideofilename>
							<originalaudiofilename></originalaudiofilename>
						</logginginfo>
						<colorinfo>
							<lut></lut>
							<lut1></lut1>
							<asc_sop></asc_sop>
							<asc_sat></asc_sat>
							<lut2></lut2>
						</colorinfo>
						<labels>
							<label2>Violet</label2>
						</labels>
					</clipitem>
					<clipitem id="clipitem-1178">
						<masterclipid>masterclip-1175</masterclipid>
						<name>TKO_017_SIX_Sh12310.mov</name>
						<enabled>TRUE</enabled>
						<duration>47</duration>
						<rate>
							<timebase>24</timebase>
							<ntsc>TRUE</ntsc>
						</rate>
						<start>87313</start>
						<end>87352</end>
						<in>4</in>
						<out>43</out>
						<pproTicksIn>42378336000</pproTicksIn>
						<pproTicksOut>455567112000</pproTicksOut>
						<alphatype>none</alphatype>
						<pixelaspectratio>square</pixelaspectratio>
						<anamorphic>FALSE</anamorphic>
						<file id="file-1175">
							<name>TKO_017_SIX_Sh12310.mov</name>
							<pathurl>file://tri-stor01/Projects/TKO/SHOTS/_Refs_Movs_Burnin_FrameCounter/TKO_017_SIX_Sh12310.mov</pathurl>
							<rate>
								<timebase>24</timebase>
								<ntsc>TRUE</ntsc>
							</rate>
							<duration>47</duration>
							<timecode>
								<rate>
									<timebase>24</timebase>
									<ntsc>TRUE</ntsc>
								</rate>
								<string>16:44:18:18</string>
								<frame>1446210</frame>
								<displayformat>NDF</displayformat>
								<reel>
									<name>A0060014</name>
								</reel>
							</timecode>
							<media>
								<video>
									<samplecharacteristics>
										<rate>
											<timebase>24</timebase>
											<ntsc>TRUE</ntsc>
										</rate>
										<width>4096</width>
										<height>2160</height>
										<anamorphic>FALSE</anamorphic>
										<pixelaspectratio>square</pixelaspectratio>
										<fielddominance>none</fielddominance>
									</samplecharacteristics>
								</video>
							</media>
						</file>
						<logginginfo>
							<description></description>
							<scene></scene>
							<shottake></shottake>
							<lognote></lognote>
							<good></good>
							<originalvideofilename></originalvideofilename>
							<originalaudiofilename></originalaudiofilename>
						</logginginfo>
						<colorinfo>
							<lut></lut>
							<lut1></lut1>
							<asc_sop></asc_sop>
							<asc_sat></asc_sat>
							<lut2></lut2>
						</colorinfo>
						<labels>
							<label2>Violet</label2>
						</labels>
					</clipitem>
					<clipitem id="clipitem-1179">
						<masterclipid>masterclip-1176</masterclipid>
						<name>TKO_017_SIX_Sh12320.mov</name>
						<enabled>TRUE</enabled>
						<duration>25</duration>
						<rate>
							<timebase>24</timebase>
							<ntsc>TRUE</ntsc>
						</rate>
						<start>87352</start>
						<end>87369</end>
						<in>4</in>
						<out>21</out>
						<pproTicksIn>42378336000</pproTicksIn>
						<pproTicksOut>222486264000</pproTicksOut>
						<alphatype>none</alphatype>
						<pixelaspectratio>square</pixelaspectratio>
						<anamorphic>FALSE</anamorphic>
						<file id="file-1176">
							<name>TKO_017_SIX_Sh12320.mov</name>
							<pathurl>file://tri-stor01/Projects/TKO/SHOTS/_Refs_Movs_Burnin_FrameCounter/TKO_017_SIX_Sh12320.mov</pathurl>
							<rate>
								<timebase>24</timebase>
								<ntsc>TRUE</ntsc>
							</rate>
							<duration>25</duration>
							<timecode>
								<rate>
									<timebase>24</timebase>
									<ntsc>TRUE</ntsc>
								</rate>
								<string>16:44:20:18</string>
								<frame>1446258</frame>
								<displayformat>NDF</displayformat>
								<reel>
									<name>B0040015</name>
								</reel>
							</timecode>
							<media>
								<video>
									<samplecharacteristics>
										<rate>
											<timebase>24</timebase>
											<ntsc>TRUE</ntsc>
										</rate>
										<width>4096</width>
										<height>2160</height>
										<anamorphic>FALSE</anamorphic>
										<pixelaspectratio>square</pixelaspectratio>
										<fielddominance>none</fielddominance>
									</samplecharacteristics>
								</video>
							</media>
						</file>
						<logginginfo>
							<description></description>
							<scene></scene>
							<shottake></shottake>
							<lognote></lognote>
							<good></good>
							<originalvideofilename></originalvideofilename>
							<originalaudiofilename></originalaudiofilename>
						</logginginfo>
						<colorinfo>
							<lut></lut>
							<lut1></lut1>
							<asc_sop></asc_sop>
							<asc_sat></asc_sat>
							<lut2></lut2>
						</colorinfo>
						<labels>
							<label2>Violet</label2>
						</labels>
					</clipitem>
					<clipitem id="clipitem-1180">
						<masterclipid>masterclip-1177</masterclipid>
						<name>TKO_017_SIX_Sh12330.mov</name>
						<enabled>TRUE</enabled>
						<duration>21</duration>
						<rate>
							<timebase>24</timebase>
							<ntsc>TRUE</ntsc>
						</rate>
						<start>87369</start>
						<end>87382</end>
						<in>4</in>
						<out>17</out>
						<pproTicksIn>42378336000</pproTicksIn>
						<pproTicksOut>180107928000</pproTicksOut>
						<alphatype>none</alphatype>
						<pixelaspectratio>square</pixelaspectratio>
						<anamorphic>FALSE</anamorphic>
						<file id="file-1177">
							<name>TKO_017_SIX_Sh12330.mov</name>
							<pathurl>file://tri-stor01/Projects/TKO/SHOTS/_Refs_Movs_Burnin_FrameCounter/TKO_017_SIX_Sh12330.mov</pathurl>
							<rate>
								<timebase>24</timebase>
								<ntsc>TRUE</ntsc>
							</rate>
							<duration>21</duration>
							<timecode>
								<rate>
									<timebase>24</timebase>
									<ntsc>TRUE</ntsc>
								</rate>
								<string>16:44:21:13</string>
								<frame>1446277</frame>
								<displayformat>NDF</displayformat>
								<reel>
									<name>A0060014</name>
								</reel>
							</timecode>
							<media>
								<video>
									<samplecharacteristics>
										<rate>
											<timebase>24</timebase>
											<ntsc>TRUE</ntsc>
										</rate>
										<width>4096</width>
										<height>2160</height>
										<anamorphic>FALSE</anamorphic>
										<pixelaspectratio>square</pixelaspectratio>
										<fielddominance>none</fielddominance>
									</samplecharacteristics>
								</video>
							</media>
						</file>
						<logginginfo>
							<description></description>
							<scene></scene>
							<shottake></shottake>
							<lognote></lognote>
							<good></good>
							<originalvideofilename></originalvideofilename>
							<originalaudiofilename></originalaudiofilename>
						</logginginfo>
						<colorinfo>
							<lut></lut>
							<lut1></lut1>
							<asc_sop></asc_sop>
							<asc_sat></asc_sat>
							<lut2></lut2>
						</colorinfo>
						<labels>
							<label2>Violet</label2>
						</labels>
					</clipitem>
					<clipitem id="clipitem-1181">
						<masterclipid>masterclip-1178</masterclipid>
						<name>TKO_017_SIX_Sh12340_MERGED.mov</name>
						<enabled>TRUE</enabled>
						<duration>24</duration>
						<rate>
							<timebase>24</timebase>
							<ntsc>TRUE</ntsc>
						</rate>
						<start>87382</start>
						<end>87398</end>
						<in>4</in>
						<out>20</out>
						<pproTicksIn>42378336000</pproTicksIn>
						<pproTicksOut>211891680000</pproTicksOut>
						<alphatype>none</alphatype>
						<pixelaspectratio>square</pixelaspectratio>
						<anamorphic>FALSE</anamorphic>
						<file id="file-1178">
							<name>TKO_017_SIX_Sh12340_MERGED.mov</name>
							<pathurl>file://tri-stor01/Projects/TKO/SHOTS/_Refs_Movs_Burnin_FrameCounter/TKO_017_SIX_Sh12340_MERGED.mov</pathurl>
							<rate>
								<timebase>24</timebase>
								<ntsc>TRUE</ntsc>
							</rate>
							<duration>24</duration>
							<timecode>
								<rate>
									<timebase>24</timebase>
									<ntsc>TRUE</ntsc>
								</rate>
								<string>00:00:00:00</string>
								<frame>0</frame>
								<displayformat>NDF</displayformat>
							</timecode>
							<media>
								<video>
									<samplecharacteristics>
										<rate>
											<timebase>24</timebase>
											<ntsc>TRUE</ntsc>
										</rate>
										<width>1920</width>
										<height>1080</height>
										<anamorphic>FALSE</anamorphic>
										<pixelaspectratio>square</pixelaspectratio>
										<fielddominance>none</fielddominance>
									</samplecharacteristics>
								</video>
								<audio>
									<samplecharacteristics>
										<depth>16</depth>
										<samplerate>48000</samplerate>
									</samplecharacteristics>
									<channelcount>2</channelcount>
								</audio>
							</media>
						</file>
						<logginginfo>
							<description></description>
							<scene></scene>
							<shottake></shottake>
							<lognote></lognote>
							<good></good>
							<originalvideofilename></originalvideofilename>
							<originalaudiofilename></originalaudiofilename>
						</logginginfo>
						<colorinfo>
							<lut></lut>
							<lut1></lut1>
							<asc_sop></asc_sop>
							<asc_sat></asc_sat>
							<lut2></lut2>
						</colorinfo>
						<labels>
							<label2>Iris</label2>
						</labels>
					</clipitem>
					<clipitem id="clipitem-1182">
						<masterclipid>masterclip-1179</masterclipid>
						<name>TKO_017_SIX_Sh12350.mov</name>
						<enabled>TRUE</enabled>
						<duration>22</duration>
						<rate>
							<timebase>24</timebase>
							<ntsc>TRUE</ntsc>
						</rate>
						<start>87398</start>
						<end>87412</end>
						<in>4</in>
						<out>18</out>
						<pproTicksIn>42378336000</pproTicksIn>
						<pproTicksOut>190702512000</pproTicksOut>
						<alphatype>none</alphatype>
						<pixelaspectratio>square</pixelaspectratio>
						<anamorphic>FALSE</anamorphic>
						<file id="file-1179">
							<name>TKO_017_SIX_Sh12350.mov</name>
							<pathurl>file://tri-stor01/Projects/TKO/SHOTS/_Refs_Movs_Burnin_FrameCounter/TKO_017_SIX_Sh12350.mov</pathurl>
							<rate>
								<timebase>24</timebase>
								<ntsc>TRUE</ntsc>
							</rate>
							<duration>22</duration>
							<timecode>
								<rate>
									<timebase>24</timebase>
									<ntsc>TRUE</ntsc>
								</rate>
								<string>01:44:40:01</string>
								<frame>150721</frame>
								<displayformat>NDF</displayformat>
								<reel>
									<name>C0020010</name>
								</reel>
							</timecode>
							<media>
								<video>
									<samplecharacteristics>
										<rate>
											<timebase>24</timebase>
											<ntsc>TRUE</ntsc>
										</rate>
										<width>3840</width>
										<height>2160</height>
										<anamorphic>FALSE</anamorphic>
										<pixelaspectratio>square</pixelaspectratio>
										<fielddominance>none</fielddominance>
									</samplecharacteristics>
								</video>
							</media>
						</file>
						<logginginfo>
							<description></description>
							<scene></scene>
							<shottake></shottake>
							<lognote></lognote>
							<good></good>
							<originalvideofilename></originalvideofilename>
							<originalaudiofilename></originalaudiofilename>
						</logginginfo>
						<colorinfo>
							<lut></lut>
							<lut1></lut1>
							<asc_sop></asc_sop>
							<asc_sat></asc_sat>
							<lut2></lut2>
						</colorinfo>
						<labels>
							<label2>Violet</label2>
						</labels>
					</clipitem>
					<clipitem id="clipitem-1183">
						<masterclipid>masterclip-1180</masterclipid>
						<name>TKO_017_SIX_Sh12360_MERGED.mov</name>
						<enabled>TRUE</enabled>
						<duration>44</duration>
						<rate>
							<timebase>24</timebase>
							<ntsc>TRUE</ntsc>
						</rate>
						<start>87412</start>
						<end>87448</end>
						<in>4</in>
						<out>40</out>
						<pproTicksIn>42378336000</pproTicksIn>
						<pproTicksOut>423783360000</pproTicksOut>
						<alphatype>none</alphatype>
						<pixelaspectratio>square</pixelaspectratio>
						<anamorphic>FALSE</anamorphic>
						<file id="file-1180">
							<name>TKO_017_SIX_Sh12360_MERGED.mov</name>
							<pathurl>file://tri-stor01/Projects/TKO/SHOTS/_Refs_Movs_Burnin_FrameCounter/TKO_017_SIX_Sh12360_MERGED.mov</pathurl>
							<rate>
								<timebase>24</timebase>
								<ntsc>TRUE</ntsc>
							</rate>
							<duration>44</duration>
							<timecode>
								<rate>
									<timebase>24</timebase>
									<ntsc>TRUE</ntsc>
								</rate>
								<string>00:00:00:00</string>
								<frame>0</frame>
								<displayformat>NDF</displayformat>
							</timecode>
							<media>
								<video>
									<samplecharacteristics>
										<rate>
											<timebase>24</timebase>
											<ntsc>TRUE</ntsc>
										</rate>
										<width>1920</width>
										<height>1080</height>
										<anamorphic>FALSE</anamorphic>
										<pixelaspectratio>square</pixelaspectratio>
										<fielddominance>none</fielddominance>
									</samplecharacteristics>
								</video>
								<audio>
									<samplecharacteristics>
										<depth>16</depth>
										<samplerate>48000</samplerate>
									</samplecharacteristics>
									<channelcount>2</channelcount>
								</audio>
							</media>
						</file>
						<logginginfo>
							<description></description>
							<scene></scene>
							<shottake></shottake>
							<lognote></lognote>
							<good></good>
							<originalvideofilename></originalvideofilename>
							<originalaudiofilename></originalaudiofilename>
						</logginginfo>
						<colorinfo>
							<lut></lut>
							<lut1></lut1>
							<asc_sop></asc_sop>
							<asc_sat></asc_sat>
							<lut2></lut2>
						</colorinfo>
						<labels>
							<label2>Iris</label2>
						</labels>
					</clipitem>
					<clipitem id="clipitem-1184">
						<masterclipid>masterclip-1181</masterclipid>
						<name>TKO_017_SIX_Sh12370.mov</name>
						<enabled>TRUE</enabled>
						<duration>23</duration>
						<rate>
							<timebase>24</timebase>
							<ntsc>TRUE</ntsc>
						</rate>
						<start>87448</start>
						<end>87463</end>
						<in>4</in>
						<out>19</out>
						<pproTicksIn>42378336000</pproTicksIn>
						<pproTicksOut>201297096000</pproTicksOut>
						<alphatype>none</alphatype>
						<pixelaspectratio>square</pixelaspectratio>
						<anamorphic>FALSE</anamorphic>
						<file id="file-1181">
							<name>TKO_017_SIX_Sh12370.mov</name>
							<pathurl>file://tri-stor01/Projects/TKO/SHOTS/_Refs_Movs_Burnin_FrameCounter/TKO_017_SIX_Sh12370.mov</pathurl>
							<rate>
								<timebase>24</timebase>
								<ntsc>TRUE</ntsc>
							</rate>
							<duration>23</duration>
							<timecode>
								<rate>
									<timebase>24</timebase>
									<ntsc>TRUE</ntsc>
								</rate>
								<string>19:41:16:17</string>
								<frame>1701041</frame>
								<displayformat>NDF</displayformat>
								<reel>
									<name>A0070015</name>
								</reel>
							</timecode>
							<media>
								<video>
									<samplecharacteristics>
										<rate>
											<timebase>24</timebase>
											<ntsc>TRUE</ntsc>
										</rate>
										<width>4096</width>
										<height>2160</height>
										<anamorphic>FALSE</anamorphic>
										<pixelaspectratio>square</pixelaspectratio>
										<fielddominance>none</fielddominance>
									</samplecharacteristics>
								</video>
							</media>
						</file>
						<logginginfo>
							<description></description>
							<scene></scene>
							<shottake></shottake>
							<lognote></lognote>
							<good></good>
							<originalvideofilename></originalvideofilename>
							<originalaudiofilename></originalaudiofilename>
						</logginginfo>
						<colorinfo>
							<lut></lut>
							<lut1></lut1>
							<asc_sop></asc_sop>
							<asc_sat></asc_sat>
							<lut2></lut2>
						</colorinfo>
						<labels>
							<label2>Violet</label2>
						</labels>
					</clipitem>
					<clipitem id="clipitem-1185">
						<masterclipid>masterclip-1182</masterclipid>
						<name>TKO_017_SIX_Sh12380.mov</name>
						<enabled>TRUE</enabled>
						<duration>76</duration>
						<rate>
							<timebase>24</timebase>
							<ntsc>TRUE</ntsc>
						</rate>
						<start>87463</start>
						<end>87531</end>
						<in>4</in>
						<out>72</out>
						<pproTicksIn>42378336000</pproTicksIn>
						<pproTicksOut>762810048000</pproTicksOut>
						<alphatype>none</alphatype>
						<pixelaspectratio>square</pixelaspectratio>
						<anamorphic>FALSE</anamorphic>
						<file id="file-1182">
							<name>TKO_017_SIX_Sh12380.mov</name>
							<pathurl>file://tri-stor01/Projects/TKO/SHOTS/_Refs_Movs_Burnin_FrameCounter/TKO_017_SIX_Sh12380.mov</pathurl>
							<rate>
								<timebase>24</timebase>
								<ntsc>TRUE</ntsc>
							</rate>
							<duration>76</duration>
							<timecode>
								<rate>
									<timebase>24</timebase>
									<ntsc>TRUE</ntsc>
								</rate>
								<string>16:54:17:05</string>
								<frame>1460573</frame>
								<displayformat>NDF</displayformat>
								<reel>
									<name>A0060015</name>
								</reel>
							</timecode>
							<media>
								<video>
									<samplecharacteristics>
										<rate>
											<timebase>24</timebase>
											<ntsc>TRUE</ntsc>
										</rate>
										<width>4096</width>
										<height>2160</height>
										<anamorphic>FALSE</anamorphic>
										<pixelaspectratio>square</pixelaspectratio>
										<fielddominance>none</fielddominance>
									</samplecharacteristics>
								</video>
							</media>
						</file>
						<logginginfo>
							<description></description>
							<scene></scene>
							<shottake></shottake>
							<lognote></lognote>
							<good></good>
							<originalvideofilename></originalvideofilename>
							<originalaudiofilename></originalaudiofilename>
						</logginginfo>
						<colorinfo>
							<lut></lut>
							<lut1></lut1>
							<asc_sop></asc_sop>
							<asc_sat></asc_sat>
							<lut2></lut2>
						</colorinfo>
						<labels>
							<label2>Violet</label2>
						</labels>
					</clipitem>
					<clipitem id="clipitem-1186">
						<masterclipid>masterclip-1183</masterclipid>
						<name>TKO_017_SIX_Sh12390.mov</name>
						<enabled>TRUE</enabled>
						<duration>32</duration>
						<rate>
							<timebase>24</timebase>
							<ntsc>TRUE</ntsc>
						</rate>
						<start>87531</start>
						<end>87555</end>
						<in>4</in>
						<out>28</out>
						<pproTicksIn>42378336000</pproTicksIn>
						<pproTicksOut>296648352000</pproTicksOut>
						<alphatype>none</alphatype>
						<pixelaspectratio>square</pixelaspectratio>
						<anamorphic>FALSE</anamorphic>
						<file id="file-1183">
							<name>TKO_017_SIX_Sh12390.mov</name>
							<pathurl>file://tri-stor01/Projects/TKO/SHOTS/_Refs_Movs_Burnin_FrameCounter/TKO_017_SIX_Sh12390.mov</pathurl>
							<rate>
								<timebase>24</timebase>
								<ntsc>TRUE</ntsc>
							</rate>
							<duration>32</duration>
							<timecode>
								<rate>
									<timebase>24</timebase>
									<ntsc>TRUE</ntsc>
								</rate>
								<string>19:41:17:16</string>
								<frame>1701064</frame>
								<displayformat>NDF</displayformat>
								<reel>
									<name>B0040031</name>
								</reel>
							</timecode>
							<media>
								<video>
									<samplecharacteristics>
										<rate>
											<timebase>24</timebase>
											<ntsc>TRUE</ntsc>
										</rate>
										<width>4096</width>
										<height>2160</height>
										<anamorphic>FALSE</anamorphic>
										<pixelaspectratio>square</pixelaspectratio>
										<fielddominance>none</fielddominance>
									</samplecharacteristics>
								</video>
							</media>
						</file>
						<logginginfo>
							<description></description>
							<scene></scene>
							<shottake></shottake>
							<lognote></lognote>
							<good></good>
							<originalvideofilename></originalvideofilename>
							<originalaudiofilename></originalaudiofilename>
						</logginginfo>
						<colorinfo>
							<lut></lut>
							<lut1></lut1>
							<asc_sop></asc_sop>
							<asc_sat></asc_sat>
							<lut2></lut2>
						</colorinfo>
						<labels>
							<label2>Violet</label2>
						</labels>
					</clipitem>
					<clipitem id="clipitem-1187">
						<masterclipid>masterclip-1184</masterclipid>
						<name>TKO_017_SIX_Sh12400.mov</name>
						<enabled>TRUE</enabled>
						<duration>27</duration>
						<rate>
							<timebase>24</timebase>
							<ntsc>TRUE</ntsc>
						</rate>
						<start>87555</start>
						<end>87574</end>
						<in>4</in>
						<out>23</out>
						<pproTicksIn>42378336000</pproTicksIn>
						<pproTicksOut>243675432000</pproTicksOut>
						<alphatype>none</alphatype>
						<pixelaspectratio>square</pixelaspectratio>
						<anamorphic>FALSE</anamorphic>
						<file id="file-1184">
							<name>TKO_017_SIX_Sh12400.mov</name>
							<pathurl>file://tri-stor01/Projects/TKO/SHOTS/_Refs_Movs_Burnin_FrameCounter/TKO_017_SIX_Sh12400.mov</pathurl>
							<rate>
								<timebase>24</timebase>
								<ntsc>TRUE</ntsc>
							</rate>
							<duration>27</duration>
							<timecode>
								<rate>
									<timebase>24</timebase>
									<ntsc>TRUE</ntsc>
								</rate>
								<string>16:44:28:04</string>
								<frame>1446436</frame>
								<displayformat>NDF</displayformat>
								<reel>
									<name>A0060014</name>
								</reel>
							</timecode>
							<media>
								<video>
									<samplecharacteristics>
										<rate>
											<timebase>24</timebase>
											<ntsc>TRUE</ntsc>
										</rate>
										<width>4096</width>
										<height>2160</height>
										<anamorphic>FALSE</anamorphic>
										<pixelaspectratio>square</pixelaspectratio>
										<fielddominance>none</fielddominance>
									</samplecharacteristics>
								</video>
							</media>
						</file>
						<logginginfo>
							<description></description>
							<scene></scene>
							<shottake></shottake>
							<lognote></lognote>
							<good></good>
							<originalvideofilename></originalvideofilename>
							<originalaudiofilename></originalaudiofilename>
						</logginginfo>
						<colorinfo>
							<lut></lut>
							<lut1></lut1>
							<asc_sop></asc_sop>
							<asc_sat></asc_sat>
							<lut2></lut2>
						</colorinfo>
						<labels>
							<label2>Violet</label2>
						</labels>
					</clipitem>
					<clipitem id="clipitem-1188">
						<masterclipid>masterclip-1185</masterclipid>
						<name>TKO_017_SIX_Sh12410.mov</name>
						<enabled>TRUE</enabled>
						<duration>37</duration>
						<rate>
							<timebase>24</timebase>
							<ntsc>TRUE</ntsc>
						</rate>
						<start>87574</start>
						<end>87603</end>
						<in>4</in>
						<out>33</out>
						<pproTicksIn>42378336000</pproTicksIn>
						<pproTicksOut>349621272000</pproTicksOut>
						<alphatype>none</alphatype>
						<pixelaspectratio>square</pixelaspectratio>
						<anamorphic>FALSE</anamorphic>
						<file id="file-1185">
							<name>TKO_017_SIX_Sh12410.mov</name>
							<pathurl>file://tri-stor01/Projects/TKO/SHOTS/_Refs_Movs_Burnin_FrameCounter/TKO_017_SIX_Sh12410.mov</pathurl>
							<rate>
								<timebase>24</timebase>
								<ntsc>TRUE</ntsc>
							</rate>
							<duration>37</duration>
							<timecode>
								<rate>
									<timebase>24</timebase>
									<ntsc>TRUE</ntsc>
								</rate>
								<string>16:54:21:20</string>
								<frame>1460684</frame>
								<displayformat>NDF</displayformat>
								<reel>
									<name>A0060015</name>
								</reel>
							</timecode>
							<media>
								<video>
									<samplecharacteristics>
										<rate>
											<timebase>24</timebase>
											<ntsc>TRUE</ntsc>
										</rate>
										<width>4096</width>
										<height>2160</height>
										<anamorphic>FALSE</anamorphic>
										<pixelaspectratio>square</pixelaspectratio>
										<fielddominance>none</fielddominance>
									</samplecharacteristics>
								</video>
							</media>
						</file>
						<logginginfo>
							<description></description>
							<scene></scene>
							<shottake></shottake>
							<lognote></lognote>
							<good></good>
							<originalvideofilename></originalvideofilename>
							<originalaudiofilename></originalaudiofilename>
						</logginginfo>
						<colorinfo>
							<lut></lut>
							<lut1></lut1>
							<asc_sop></asc_sop>
							<asc_sat></asc_sat>
							<lut2></lut2>
						</colorinfo>
						<labels>
							<label2>Violet</label2>
						</labels>
					</clipitem>
					<clipitem id="clipitem-1189">
						<masterclipid>masterclip-1186</masterclipid>
						<name>TKO_017_SIX_Sh12420.mov</name>
						<enabled>TRUE</enabled>
						<duration>97</duration>
						<rate>
							<timebase>24</timebase>
							<ntsc>TRUE</ntsc>
						</rate>
						<start>87603</start>
						<end>87692</end>
						<in>4</in>
						<out>93</out>
						<pproTicksIn>42378336000</pproTicksIn>
						<pproTicksOut>985296312000</pproTicksOut>
						<alphatype>none</alphatype>
						<pixelaspectratio>square</pixelaspectratio>
						<anamorphic>FALSE</anamorphic>
						<file id="file-1186">
							<name>TKO_017_SIX_Sh12420.mov</name>
							<pathurl>file://tri-stor01/Projects/TKO/SHOTS/_Refs_Movs_Burnin_FrameCounter/TKO_017_SIX_Sh12420.mov</pathurl>
							<rate>
								<timebase>24</timebase>
								<ntsc>TRUE</ntsc>
							</rate>
							<duration>97</duration>
							<timecode>
								<rate>
									<timebase>24</timebase>
									<ntsc>TRUE</ntsc>
								</rate>
								<string>16:54:23:01</string>
								<frame>1460713</frame>
								<displayformat>NDF</displayformat>
								<reel>
									<name>B0040016</name>
								</reel>
							</timecode>
							<media>
								<video>
									<samplecharacteristics>
										<rate>
											<timebase>24</timebase>
											<ntsc>TRUE</ntsc>
										</rate>
										<width>4096</width>
										<height>2160</height>
										<anamorphic>FALSE</anamorphic>
										<pixelaspectratio>square</pixelaspectratio>
										<fielddominance>none</fielddominance>
									</samplecharacteristics>
								</video>
							</media>
						</file>
						<logginginfo>
							<description></description>
							<scene></scene>
							<shottake></shottake>
							<lognote></lognote>
							<good></good>
							<originalvideofilename></originalvideofilename>
							<originalaudiofilename></originalaudiofilename>
						</logginginfo>
						<colorinfo>
							<lut></lut>
							<lut1></lut1>
							<asc_sop></asc_sop>
							<asc_sat></asc_sat>
							<lut2></lut2>
						</colorinfo>
						<labels>
							<label2>Violet</label2>
						</labels>
					</clipitem>
					<clipitem id="clipitem-1190">
						<masterclipid>masterclip-1187</masterclipid>
						<name>TKO_017_SIX_Sh12430.mov</name>
						<enabled>TRUE</enabled>
						<duration>22</duration>
						<rate>
							<timebase>24</timebase>
							<ntsc>TRUE</ntsc>
						</rate>
						<start>87692</start>
						<end>87706</end>
						<in>4</in>
						<out>18</out>
						<pproTicksIn>42378336000</pproTicksIn>
						<pproTicksOut>190702512000</pproTicksOut>
						<alphatype>none</alphatype>
						<pixelaspectratio>square</pixelaspectratio>
						<anamorphic>FALSE</anamorphic>
						<file id="file-1187">
							<name>TKO_017_SIX_Sh12430.mov</name>
							<pathurl>file://tri-stor01/Projects/TKO/SHOTS/_Refs_Movs_Burnin_FrameCounter/TKO_017_SIX_Sh12430.mov</pathurl>
							<rate>
								<timebase>24</timebase>
								<ntsc>TRUE</ntsc>
							</rate>
							<duration>22</duration>
							<timecode>
								<rate>
									<timebase>24</timebase>
									<ntsc>TRUE</ntsc>
								</rate>
								<string>01:44:40:05</string>
								<frame>150725</frame>
								<displayformat>NDF</displayformat>
								<reel>
									<name>C0020010</name>
								</reel>
							</timecode>
							<media>
								<video>
									<samplecharacteristics>
										<rate>
											<timebase>24</timebase>
											<ntsc>TRUE</ntsc>
										</rate>
										<width>3840</width>
										<height>2160</height>
										<anamorphic>FALSE</anamorphic>
										<pixelaspectratio>square</pixelaspectratio>
										<fielddominance>none</fielddominance>
									</samplecharacteristics>
								</video>
							</media>
						</file>
						<logginginfo>
							<description></description>
							<scene></scene>
							<shottake></shottake>
							<lognote></lognote>
							<good></good>
							<originalvideofilename></originalvideofilename>
							<originalaudiofilename></originalaudiofilename>
						</logginginfo>
						<colorinfo>
							<lut></lut>
							<lut1></lut1>
							<asc_sop></asc_sop>
							<asc_sat></asc_sat>
							<lut2></lut2>
						</colorinfo>
						<labels>
							<label2>Violet</label2>
						</labels>
					</clipitem>
					<clipitem id="clipitem-1191">
						<masterclipid>masterclip-1188</masterclipid>
						<name>TKO_017_SIX_Sh12440.mov</name>
						<enabled>TRUE</enabled>
						<duration>22</duration>
						<rate>
							<timebase>24</timebase>
							<ntsc>TRUE</ntsc>
						</rate>
						<start>87706</start>
						<end>87720</end>
						<in>4</in>
						<out>18</out>
						<pproTicksIn>42378336000</pproTicksIn>
						<pproTicksOut>190702512000</pproTicksOut>
						<alphatype>none</alphatype>
						<pixelaspectratio>square</pixelaspectratio>
						<anamorphic>FALSE</anamorphic>
						<file id="file-1188">
							<name>TKO_017_SIX_Sh12440.mov</name>
							<pathurl>file://tri-stor01/Projects/TKO/SHOTS/_Refs_Movs_Burnin_FrameCounter/TKO_017_SIX_Sh12440.mov</pathurl>
							<rate>
								<timebase>24</timebase>
								<ntsc>TRUE</ntsc>
							</rate>
							<duration>22</duration>
							<timecode>
								<rate>
									<timebase>24</timebase>
									<ntsc>TRUE</ntsc>
								</rate>
								<string>01:42:22:00</string>
								<frame>147408</frame>
								<displayformat>NDF</displayformat>
								<reel>
									<name>C0020009</name>
								</reel>
							</timecode>
							<media>
								<video>
									<samplecharacteristics>
										<rate>
											<timebase>24</timebase>
											<ntsc>TRUE</ntsc>
										</rate>
										<width>3840</width>
										<height>2160</height>
										<anamorphic>FALSE</anamorphic>
										<pixelaspectratio>square</pixelaspectratio>
										<fielddominance>none</fielddominance>
									</samplecharacteristics>
								</video>
							</media>
						</file>
						<logginginfo>
							<description></description>
							<scene></scene>
							<shottake></shottake>
							<lognote></lognote>
							<good></good>
							<originalvideofilename></originalvideofilename>
							<originalaudiofilename></originalaudiofilename>
						</logginginfo>
						<colorinfo>
							<lut></lut>
							<lut1></lut1>
							<asc_sop></asc_sop>
							<asc_sat></asc_sat>
							<lut2></lut2>
						</colorinfo>
						<labels>
							<label2>Violet</label2>
						</labels>
					</clipitem>
					<clipitem id="clipitem-1192">
						<masterclipid>masterclip-1189</masterclipid>
						<name>TKO_017_SIX_Sh12450.mov</name>
						<enabled>TRUE</enabled>
						<duration>14</duration>
						<rate>
							<timebase>24</timebase>
							<ntsc>TRUE</ntsc>
						</rate>
						<start>87720</start>
						<end>87726</end>
						<in>4</in>
						<out>10</out>
						<pproTicksIn>42378336000</pproTicksIn>
						<pproTicksOut>105945840000</pproTicksOut>
						<alphatype>none</alphatype>
						<pixelaspectratio>square</pixelaspectratio>
						<anamorphic>FALSE</anamorphic>
						<file id="file-1189">
							<name>TKO_017_SIX_Sh12450.mov</name>
							<pathurl>file://tri-stor01/Projects/TKO/SHOTS/_Refs_Movs_Burnin_FrameCounter/TKO_017_SIX_Sh12450.mov</pathurl>
							<rate>
								<timebase>24</timebase>
								<ntsc>TRUE</ntsc>
							</rate>
							<duration>14</duration>
							<timecode>
								<rate>
									<timebase>24</timebase>
									<ntsc>TRUE</ntsc>
								</rate>
								<string>16:44:35:23</string>
								<frame>1446623</frame>
								<displayformat>NDF</displayformat>
								<reel>
									<name>B0040015</name>
								</reel>
							</timecode>
							<media>
								<video>
									<samplecharacteristics>
										<rate>
											<timebase>24</timebase>
											<ntsc>TRUE</ntsc>
										</rate>
										<width>4096</width>
										<height>2160</height>
										<anamorphic>FALSE</anamorphic>
										<pixelaspectratio>square</pixelaspectratio>
										<fielddominance>none</fielddominance>
									</samplecharacteristics>
								</video>
							</media>
						</file>
						<logginginfo>
							<description></description>
							<scene></scene>
							<shottake></shottake>
							<lognote></lognote>
							<good></good>
							<originalvideofilename></originalvideofilename>
							<originalaudiofilename></originalaudiofilename>
						</logginginfo>
						<colorinfo>
							<lut></lut>
							<lut1></lut1>
							<asc_sop></asc_sop>
							<asc_sat></asc_sat>
							<lut2></lut2>
						</colorinfo>
						<labels>
							<label2>Violet</label2>
						</labels>
					</clipitem>
					<clipitem id="clipitem-1193">
						<masterclipid>masterclip-1190</masterclipid>
						<name>TKO_017_SIX_Sh12460.mov</name>
						<enabled>TRUE</enabled>
						<duration>32</duration>
						<rate>
							<timebase>24</timebase>
							<ntsc>TRUE</ntsc>
						</rate>
						<start>87726</start>
						<end>87750</end>
						<in>4</in>
						<out>28</out>
						<pproTicksIn>42378336000</pproTicksIn>
						<pproTicksOut>296648352000</pproTicksOut>
						<alphatype>none</alphatype>
						<pixelaspectratio>square</pixelaspectratio>
						<anamorphic>FALSE</anamorphic>
						<file id="file-1190">
							<name>TKO_017_SIX_Sh12460.mov</name>
							<pathurl>file://tri-stor01/Projects/TKO/SHOTS/_Refs_Movs_Burnin_FrameCounter/TKO_017_SIX_Sh12460.mov</pathurl>
							<rate>
								<timebase>24</timebase>
								<ntsc>TRUE</ntsc>
							</rate>
							<duration>32</duration>
							<timecode>
								<rate>
									<timebase>24</timebase>
									<ntsc>TRUE</ntsc>
								</rate>
								<string>16:44:36:05</string>
								<frame>1446629</frame>
								<displayformat>NDF</displayformat>
								<reel>
									<name>A0060014</name>
								</reel>
							</timecode>
							<media>
								<video>
									<samplecharacteristics>
										<rate>
											<timebase>24</timebase>
											<ntsc>TRUE</ntsc>
										</rate>
										<width>4096</width>
										<height>2160</height>
										<anamorphic>FALSE</anamorphic>
										<pixelaspectratio>square</pixelaspectratio>
										<fielddominance>none</fielddominance>
									</samplecharacteristics>
								</video>
							</media>
						</file>
						<logginginfo>
							<description></description>
							<scene></scene>
							<shottake></shottake>
							<lognote></lognote>
							<good></good>
							<originalvideofilename></originalvideofilename>
							<originalaudiofilename></originalaudiofilename>
						</logginginfo>
						<colorinfo>
							<lut></lut>
							<lut1></lut1>
							<asc_sop></asc_sop>
							<asc_sat></asc_sat>
							<lut2></lut2>
						</colorinfo>
						<labels>
							<label2>Violet</label2>
						</labels>
					</clipitem>
					<clipitem id="clipitem-1194">
						<masterclipid>masterclip-1191</masterclipid>
						<name>TKO_017_SIX_Sh12470.mov</name>
						<enabled>TRUE</enabled>
						<duration>31</duration>
						<rate>
							<timebase>24</timebase>
							<ntsc>TRUE</ntsc>
						</rate>
						<start>87750</start>
						<end>87773</end>
						<in>4</in>
						<out>27</out>
						<pproTicksIn>42378336000</pproTicksIn>
						<pproTicksOut>286053768000</pproTicksOut>
						<alphatype>none</alphatype>
						<pixelaspectratio>square</pixelaspectratio>
						<anamorphic>FALSE</anamorphic>
						<file id="file-1191">
							<name>TKO_017_SIX_Sh12470.mov</name>
							<pathurl>file://tri-stor01/Projects/TKO/SHOTS/_Refs_Movs_Burnin_FrameCounter/TKO_017_SIX_Sh12470.mov</pathurl>
							<rate>
								<timebase>24</timebase>
								<ntsc>TRUE</ntsc>
							</rate>
							<duration>31</duration>
							<timecode>
								<rate>
									<timebase>24</timebase>
									<ntsc>TRUE</ntsc>
								</rate>
								<string>13:29:34:16</string>
								<frame>1165792</frame>
								<displayformat>NDF</displayformat>
								<reel>
									<name>C0350002</name>
								</reel>
							</timecode>
							<media>
								<video>
									<samplecharacteristics>
										<rate>
											<timebase>24</timebase>
											<ntsc>TRUE</ntsc>
										</rate>
										<width>3840</width>
										<height>2160</height>
										<anamorphic>FALSE</anamorphic>
										<pixelaspectratio>square</pixelaspectratio>
										<fielddominance>none</fielddominance>
									</samplecharacteristics>
								</video>
							</media>
						</file>
						<logginginfo>
							<description></description>
							<scene></scene>
							<shottake></shottake>
							<lognote></lognote>
							<good></good>
							<originalvideofilename></originalvideofilename>
							<originalaudiofilename></originalaudiofilename>
						</logginginfo>
						<colorinfo>
							<lut></lut>
							<lut1></lut1>
							<asc_sop></asc_sop>
							<asc_sat></asc_sat>
							<lut2></lut2>
						</colorinfo>
						<labels>
							<label2>Violet</label2>
						</labels>
					</clipitem>
					<clipitem id="clipitem-1195">
						<masterclipid>masterclip-1192</masterclipid>
						<name>TKO_017_SIX_Sh12480.mov</name>
						<enabled>TRUE</enabled>
						<duration>26</duration>
						<rate>
							<timebase>24</timebase>
							<ntsc>TRUE</ntsc>
						</rate>
						<start>87773</start>
						<end>87791</end>
						<in>4</in>
						<out>22</out>
						<pproTicksIn>42378336000</pproTicksIn>
						<pproTicksOut>233080848000</pproTicksOut>
						<alphatype>none</alphatype>
						<pixelaspectratio>square</pixelaspectratio>
						<anamorphic>FALSE</anamorphic>
						<file id="file-1192">
							<name>TKO_017_SIX_Sh12480.mov</name>
							<pathurl>file://tri-stor01/Projects/TKO/SHOTS/_Refs_Movs_Burnin_FrameCounter/TKO_017_SIX_Sh12480.mov</pathurl>
							<rate>
								<timebase>24</timebase>
								<ntsc>TRUE</ntsc>
							</rate>
							<duration>26</duration>
							<timecode>
								<rate>
									<timebase>24</timebase>
									<ntsc>TRUE</ntsc>
								</rate>
								<string>19:41:18:22</string>
								<frame>1701094</frame>
								<displayformat>NDF</displayformat>
								<reel>
									<name>B0040031</name>
								</reel>
							</timecode>
							<media>
								<video>
									<samplecharacteristics>
										<rate>
											<timebase>24</timebase>
											<ntsc>TRUE</ntsc>
										</rate>
										<width>4096</width>
										<height>2160</height>
										<anamorphic>FALSE</anamorphic>
										<pixelaspectratio>square</pixelaspectratio>
										<fielddominance>none</fielddominance>
									</samplecharacteristics>
								</video>
							</media>
						</file>
						<logginginfo>
							<description></description>
							<scene></scene>
							<shottake></shottake>
							<lognote></lognote>
							<good></good>
							<originalvideofilename></originalvideofilename>
							<originalaudiofilename></originalaudiofilename>
						</logginginfo>
						<colorinfo>
							<lut></lut>
							<lut1></lut1>
							<asc_sop></asc_sop>
							<asc_sat></asc_sat>
							<lut2></lut2>
						</colorinfo>
						<labels>
							<label2>Violet</label2>
						</labels>
					</clipitem>
					<clipitem id="clipitem-1196">
						<masterclipid>masterclip-1193</masterclipid>
						<name>TKO_017_SIX_Sh12490.mov</name>
						<enabled>TRUE</enabled>
						<duration>22</duration>
						<rate>
							<timebase>24</timebase>
							<ntsc>TRUE</ntsc>
						</rate>
						<start>87791</start>
						<end>87805</end>
						<in>4</in>
						<out>18</out>
						<pproTicksIn>42378336000</pproTicksIn>
						<pproTicksOut>190702512000</pproTicksOut>
						<alphatype>none</alphatype>
						<pixelaspectratio>square</pixelaspectratio>
						<anamorphic>FALSE</anamorphic>
						<file id="file-1193">
							<name>TKO_017_SIX_Sh12490.mov</name>
							<pathurl>file://tri-stor01/Projects/TKO/SHOTS/_Refs_Movs_Burnin_FrameCounter/TKO_017_SIX_Sh12490.mov</pathurl>
							<rate>
								<timebase>24</timebase>
								<ntsc>TRUE</ntsc>
							</rate>
							<duration>22</duration>
							<timecode>
								<rate>
									<timebase>24</timebase>
									<ntsc>TRUE</ntsc>
								</rate>
								<string>16:44:37:09</string>
								<frame>1446657</frame>
								<displayformat>NDF</displayformat>
								<reel>
									<name>B0040015</name>
								</reel>
							</timecode>
							<media>
								<video>
									<samplecharacteristics>
										<rate>
											<timebase>24</timebase>
											<ntsc>TRUE</ntsc>
										</rate>
										<width>4096</width>
										<height>2160</height>
										<anamorphic>FALSE</anamorphic>
										<pixelaspectratio>square</pixelaspectratio>
										<fielddominance>none</fielddominance>
									</samplecharacteristics>
								</video>
							</media>
						</file>
						<logginginfo>
							<description></description>
							<scene></scene>
							<shottake></shottake>
							<lognote></lognote>
							<good></good>
							<originalvideofilename></originalvideofilename>
							<originalaudiofilename></originalaudiofilename>
						</logginginfo>
						<colorinfo>
							<lut></lut>
							<lut1></lut1>
							<asc_sop></asc_sop>
							<asc_sat></asc_sat>
							<lut2></lut2>
						</colorinfo>
						<labels>
							<label2>Violet</label2>
						</labels>
					</clipitem>
					<clipitem id="clipitem-1197">
						<masterclipid>masterclip-1194</masterclipid>
						<name>TKO_017_SIX_Sh12500.mov</name>
						<enabled>TRUE</enabled>
						<duration>43</duration>
						<rate>
							<timebase>24</timebase>
							<ntsc>TRUE</ntsc>
						</rate>
						<start>87805</start>
						<end>87840</end>
						<in>4</in>
						<out>39</out>
						<pproTicksIn>42378336000</pproTicksIn>
						<pproTicksOut>413188776000</pproTicksOut>
						<alphatype>none</alphatype>
						<pixelaspectratio>square</pixelaspectratio>
						<anamorphic>FALSE</anamorphic>
						<file id="file-1194">
							<name>TKO_017_SIX_Sh12500.mov</name>
							<pathurl>file://tri-stor01/Projects/TKO/SHOTS/_Refs_Movs_Burnin_FrameCounter/TKO_017_SIX_Sh12500.mov</pathurl>
							<rate>
								<timebase>24</timebase>
								<ntsc>TRUE</ntsc>
							</rate>
							<duration>43</duration>
							<timecode>
								<rate>
									<timebase>24</timebase>
									<ntsc>TRUE</ntsc>
								</rate>
								<string>17:01:26:07</string>
								<frame>1470871</frame>
								<displayformat>NDF</displayformat>
								<reel>
									<name>A0060016</name>
								</reel>
							</timecode>
							<media>
								<video>
									<samplecharacteristics>
										<rate>
											<timebase>24</timebase>
											<ntsc>TRUE</ntsc>
										</rate>
										<width>4096</width>
										<height>2160</height>
										<anamorphic>FALSE</anamorphic>
										<pixelaspectratio>square</pixelaspectratio>
										<fielddominance>none</fielddominance>
									</samplecharacteristics>
								</video>
							</media>
						</file>
						<logginginfo>
							<description></description>
							<scene></scene>
							<shottake></shottake>
							<lognote></lognote>
							<good></good>
							<originalvideofilename></originalvideofilename>
							<originalaudiofilename></originalaudiofilename>
						</logginginfo>
						<colorinfo>
							<lut></lut>
							<lut1></lut1>
							<asc_sop></asc_sop>
							<asc_sat></asc_sat>
							<lut2></lut2>
						</colorinfo>
						<labels>
							<label2>Violet</label2>
						</labels>
					</clipitem>
					<clipitem id="clipitem-1198">
						<masterclipid>masterclip-1195</masterclipid>
						<name>TKO_017_SIX_Sh12510.mov</name>
						<enabled>TRUE</enabled>
						<duration>41</duration>
						<rate>
							<timebase>24</timebase>
							<ntsc>TRUE</ntsc>
						</rate>
						<start>87840</start>
						<end>87873</end>
						<in>4</in>
						<out>37</out>
						<pproTicksIn>42378336000</pproTicksIn>
						<pproTicksOut>391999608000</pproTicksOut>
						<alphatype>none</alphatype>
						<pixelaspectratio>square</pixelaspectratio>
						<anamorphic>FALSE</anamorphic>
						<file id="file-1195">
							<name>TKO_017_SIX_Sh12510.mov</name>
							<pathurl>file://tri-stor01/Projects/TKO/SHOTS/_Refs_Movs_Burnin_FrameCounter/TKO_017_SIX_Sh12510.mov</pathurl>
							<rate>
								<timebase>24</timebase>
								<ntsc>TRUE</ntsc>
							</rate>
							<duration>41</duration>
							<timecode>
								<rate>
									<timebase>24</timebase>
									<ntsc>TRUE</ntsc>
								</rate>
								<string>01:37:23:00</string>
								<frame>140232</frame>
								<displayformat>NDF</displayformat>
								<reel>
									<name>C0020007</name>
								</reel>
							</timecode>
							<media>
								<video>
									<samplecharacteristics>
										<rate>
											<timebase>24</timebase>
											<ntsc>TRUE</ntsc>
										</rate>
										<width>3840</width>
										<height>2160</height>
										<anamorphic>FALSE</anamorphic>
										<pixelaspectratio>square</pixelaspectratio>
										<fielddominance>none</fielddominance>
									</samplecharacteristics>
								</video>
							</media>
						</file>
						<logginginfo>
							<description></description>
							<scene></scene>
							<shottake></shottake>
							<lognote></lognote>
							<good></good>
							<originalvideofilename></originalvideofilename>
							<originalaudiofilename></originalaudiofilename>
						</logginginfo>
						<colorinfo>
							<lut></lut>
							<lut1></lut1>
							<asc_sop></asc_sop>
							<asc_sat></asc_sat>
							<lut2></lut2>
						</colorinfo>
						<labels>
							<label2>Violet</label2>
						</labels>
					</clipitem>
					<clipitem id="clipitem-1199">
						<masterclipid>masterclip-1196</masterclipid>
						<name>TKO_017_SIX_Sh12520.mov</name>
						<enabled>TRUE</enabled>
						<duration>37</duration>
						<rate>
							<timebase>24</timebase>
							<ntsc>TRUE</ntsc>
						</rate>
						<start>87873</start>
						<end>87902</end>
						<in>4</in>
						<out>33</out>
						<pproTicksIn>42378336000</pproTicksIn>
						<pproTicksOut>349621272000</pproTicksOut>
						<alphatype>none</alphatype>
						<pixelaspectratio>square</pixelaspectratio>
						<anamorphic>FALSE</anamorphic>
						<file id="file-1196">
							<name>TKO_017_SIX_Sh12520.mov</name>
							<pathurl>file://tri-stor01/Projects/TKO/SHOTS/_Refs_Movs_Burnin_FrameCounter/TKO_017_SIX_Sh12520.mov</pathurl>
							<rate>
								<timebase>24</timebase>
								<ntsc>TRUE</ntsc>
							</rate>
							<duration>37</duration>
							<timecode>
								<rate>
									<timebase>24</timebase>
									<ntsc>TRUE</ntsc>
								</rate>
								<string>16:27:12:03</string>
								<frame>1421571</frame>
								<displayformat>NDF</displayformat>
								<reel>
									<name>B0040013</name>
								</reel>
							</timecode>
							<media>
								<video>
									<samplecharacteristics>
										<rate>
											<timebase>24</timebase>
											<ntsc>TRUE</ntsc>
										</rate>
										<width>4096</width>
										<height>2160</height>
										<anamorphic>FALSE</anamorphic>
										<pixelaspectratio>square</pixelaspectratio>
										<fielddominance>none</fielddominance>
									</samplecharacteristics>
								</video>
							</media>
						</file>
						<logginginfo>
							<description></description>
							<scene></scene>
							<shottake></shottake>
							<lognote></lognote>
							<good></good>
							<originalvideofilename></originalvideofilename>
							<originalaudiofilename></originalaudiofilename>
						</logginginfo>
						<colorinfo>
							<lut></lut>
							<lut1></lut1>
							<asc_sop></asc_sop>
							<asc_sat></asc_sat>
							<lut2></lut2>
						</colorinfo>
						<labels>
							<label2>Violet</label2>
						</labels>
					</clipitem>
					<clipitem id="clipitem-1200">
						<masterclipid>masterclip-1197</masterclipid>
						<name>TKO_017_SIX_Sh12530.mov</name>
						<enabled>TRUE</enabled>
						<duration>68</duration>
						<rate>
							<timebase>24</timebase>
							<ntsc>TRUE</ntsc>
						</rate>
						<start>87902</start>
						<end>87962</end>
						<in>4</in>
						<out>64</out>
						<pproTicksIn>42378336000</pproTicksIn>
						<pproTicksOut>678053376000</pproTicksOut>
						<alphatype>none</alphatype>
						<pixelaspectratio>square</pixelaspectratio>
						<anamorphic>FALSE</anamorphic>
						<file id="file-1197">
							<name>TKO_017_SIX_Sh12530.mov</name>
							<pathurl>file://tri-stor01/Projects/TKO/SHOTS/_Refs_Movs_Burnin_FrameCounter/TKO_017_SIX_Sh12530.mov</pathurl>
							<rate>
								<timebase>24</timebase>
								<ntsc>TRUE</ntsc>
							</rate>
							<duration>68</duration>
							<timecode>
								<rate>
									<timebase>24</timebase>
									<ntsc>TRUE</ntsc>
								</rate>
								<string>01:37:26:13</string>
								<frame>140317</frame>
								<displayformat>NDF</displayformat>
								<reel>
									<name>C0020007</name>
								</reel>
							</timecode>
							<media>
								<video>
									<samplecharacteristics>
										<rate>
											<timebase>24</timebase>
											<ntsc>TRUE</ntsc>
										</rate>
										<width>3840</width>
										<height>2160</height>
										<anamorphic>FALSE</anamorphic>
										<pixelaspectratio>square</pixelaspectratio>
										<fielddominance>none</fielddominance>
									</samplecharacteristics>
								</video>
							</media>
						</file>
						<logginginfo>
							<description></description>
							<scene></scene>
							<shottake></shottake>
							<lognote></lognote>
							<good></good>
							<originalvideofilename></originalvideofilename>
							<originalaudiofilename></originalaudiofilename>
						</logginginfo>
						<colorinfo>
							<lut></lut>
							<lut1></lut1>
							<asc_sop></asc_sop>
							<asc_sat></asc_sat>
							<lut2></lut2>
						</colorinfo>
						<labels>
							<label2>Violet</label2>
						</labels>
					</clipitem>
					<clipitem id="clipitem-1201">
						<masterclipid>masterclip-1198</masterclipid>
						<name>TKO_018_SEW_Sh12540.mov</name>
						<enabled>TRUE</enabled>
						<duration>464</duration>
						<rate>
							<timebase>24</timebase>
							<ntsc>TRUE</ntsc>
						</rate>
						<start>87962</start>
						<end>88418</end>
						<in>4</in>
						<out>460</out>
						<pproTicksIn>42378336000</pproTicksIn>
						<pproTicksOut>4873508640000</pproTicksOut>
						<alphatype>none</alphatype>
						<pixelaspectratio>square</pixelaspectratio>
						<anamorphic>FALSE</anamorphic>
						<file id="file-1198">
							<name>TKO_018_SEW_Sh12540.mov</name>
							<pathurl>file://tri-stor01/Projects/TKO/SHOTS/_Refs_Movs_Burnin_FrameCounter/TKO_018_SEW_Sh12540.mov</pathurl>
							<rate>
								<timebase>24</timebase>
								<ntsc>TRUE</ntsc>
							</rate>
							<duration>464</duration>
							<timecode>
								<rate>
									<timebase>24</timebase>
									<ntsc>TRUE</ntsc>
								</rate>
								<string>12:04:38:10</string>
								<frame>1043482</frame>
								<displayformat>NDF</displayformat>
								<reel>
									<name>B0320008</name>
								</reel>
							</timecode>
							<media>
								<video>
									<samplecharacteristics>
										<rate>
											<timebase>24</timebase>
											<ntsc>TRUE</ntsc>
										</rate>
										<width>4096</width>
										<height>2160</height>
										<anamorphic>FALSE</anamorphic>
										<pixelaspectratio>square</pixelaspectratio>
										<fielddominance>none</fielddominance>
									</samplecharacteristics>
								</video>
							</media>
						</file>
						<logginginfo>
							<description></description>
							<scene></scene>
							<shottake></shottake>
							<lognote></lognote>
							<good></good>
							<originalvideofilename></originalvideofilename>
							<originalaudiofilename></originalaudiofilename>
						</logginginfo>
						<colorinfo>
							<lut></lut>
							<lut1></lut1>
							<asc_sop></asc_sop>
							<asc_sat></asc_sat>
							<lut2></lut2>
						</colorinfo>
						<labels>
							<label2>Violet</label2>
						</labels>
					</clipitem>
					<clipitem id="clipitem-1202">
						<masterclipid>masterclip-1199</masterclipid>
						<name>TKO_018_SEW_Sh12550_V02.mov</name>
						<enabled>TRUE</enabled>
						<duration>176</duration>
						<rate>
							<timebase>24</timebase>
							<ntsc>TRUE</ntsc>
						</rate>
						<start>88418</start>
						<end>88574</end>
						<in>4</in>
						<out>160</out>
						<pproTicksIn>42378336000</pproTicksIn>
						<pproTicksOut>1695133440000</pproTicksOut>
						<alphatype>none</alphatype>
						<pixelaspectratio>square</pixelaspectratio>
						<anamorphic>FALSE</anamorphic>
						<file id="file-1199">
							<name>TKO_018_SEW_Sh12550_V02.mov</name>
							<pathurl>file://tri-stor01/Projects/TKO/SHOTS/_Refs_Movs_Burnin_FrameCounter/TKO_018_SEW_Sh12550_V02.mov</pathurl>
							<rate>
								<timebase>24</timebase>
								<ntsc>TRUE</ntsc>
							</rate>
							<duration>176</duration>
							<timecode>
								<rate>
									<timebase>24</timebase>
									<ntsc>TRUE</ntsc>
								</rate>
								<string>11:50:40:16</string>
								<frame>1023376</frame>
								<displayformat>NDF</displayformat>
								<reel>
									<name>A0380004</name>
								</reel>
							</timecode>
							<media>
								<video>
									<samplecharacteristics>
										<rate>
											<timebase>24</timebase>
											<ntsc>TRUE</ntsc>
										</rate>
										<width>4096</width>
										<height>2160</height>
										<anamorphic>FALSE</anamorphic>
										<pixelaspectratio>square</pixelaspectratio>
										<fielddominance>none</fielddominance>
									</samplecharacteristics>
								</video>
							</media>
						</file>
						<logginginfo>
							<description></description>
							<scene></scene>
							<shottake></shottake>
							<lognote></lognote>
							<good></good>
							<originalvideofilename></originalvideofilename>
							<originalaudiofilename></originalaudiofilename>
						</logginginfo>
						<colorinfo>
							<lut></lut>
							<lut1></lut1>
							<asc_sop></asc_sop>
							<asc_sat></asc_sat>
							<lut2></lut2>
						</colorinfo>
						<labels>
							<label2>Violet</label2>
						</labels>
					</clipitem>
					<clipitem id="clipitem-1203">
						<masterclipid>masterclip-1200</masterclipid>
						<name>TKO_018_SEW_Sh12560.mov</name>
						<enabled>TRUE</enabled>
						<duration>68</duration>
						<rate>
							<timebase>24</timebase>
							<ntsc>TRUE</ntsc>
						</rate>
						<start>88574</start>
						<end>88634</end>
						<in>4</in>
						<out>64</out>
						<pproTicksIn>42378336000</pproTicksIn>
						<pproTicksOut>678053376000</pproTicksOut>
						<alphatype>none</alphatype>
						<pixelaspectratio>square</pixelaspectratio>
						<anamorphic>FALSE</anamorphic>
						<file id="file-1200">
							<name>TKO_018_SEW_Sh12560.mov</name>
							<pathurl>file://tri-stor01/Projects/TKO/SHOTS/_Refs_Movs_Burnin_FrameCounter/TKO_018_SEW_Sh12560.mov</pathurl>
							<rate>
								<timebase>24</timebase>
								<ntsc>TRUE</ntsc>
							</rate>
							<duration>68</duration>
							<timecode>
								<rate>
									<timebase>24</timebase>
									<ntsc>TRUE</ntsc>
								</rate>
								<string>11:50:48:01</string>
								<frame>1023553</frame>
								<displayformat>NDF</displayformat>
								<reel>
									<name>B0320005</name>
								</reel>
							</timecode>
							<media>
								<video>
									<samplecharacteristics>
										<rate>
											<timebase>24</timebase>
											<ntsc>TRUE</ntsc>
										</rate>
										<width>4096</width>
										<height>2160</height>
										<anamorphic>FALSE</anamorphic>
										<pixelaspectratio>square</pixelaspectratio>
										<fielddominance>none</fielddominance>
									</samplecharacteristics>
								</video>
							</media>
						</file>
						<logginginfo>
							<description></description>
							<scene></scene>
							<shottake></shottake>
							<lognote></lognote>
							<good></good>
							<originalvideofilename></originalvideofilename>
							<originalaudiofilename></originalaudiofilename>
						</logginginfo>
						<colorinfo>
							<lut></lut>
							<lut1></lut1>
							<asc_sop></asc_sop>
							<asc_sat></asc_sat>
							<lut2></lut2>
						</colorinfo>
						<labels>
							<label2>Violet</label2>
						</labels>
					</clipitem>
					<clipitem id="clipitem-1204">
						<masterclipid>masterclip-1201</masterclipid>
						<name>TKO_018_SEW_Sh12570_V02.mov</name>
						<enabled>TRUE</enabled>
						<duration>138</duration>
						<rate>
							<timebase>24</timebase>
							<ntsc>TRUE</ntsc>
						</rate>
						<start>88634</start>
						<end>88752</end>
						<in>4</in>
						<out>122</out>
						<pproTicksIn>42378336000</pproTicksIn>
						<pproTicksOut>1292539248000</pproTicksOut>
						<alphatype>none</alphatype>
						<pixelaspectratio>square</pixelaspectratio>
						<anamorphic>FALSE</anamorphic>
						<file id="file-1201">
							<name>TKO_018_SEW_Sh12570_V02.mov</name>
							<pathurl>file://tri-stor01/Projects/TKO/SHOTS/_Refs_Movs_Burnin_FrameCounter/TKO_018_SEW_Sh12570_V02.mov</pathurl>
							<rate>
								<timebase>24</timebase>
								<ntsc>TRUE</ntsc>
							</rate>
							<duration>138</duration>
							<timecode>
								<rate>
									<timebase>24</timebase>
									<ntsc>TRUE</ntsc>
								</rate>
								<string>11:50:50:18</string>
								<frame>1023618</frame>
								<displayformat>NDF</displayformat>
								<reel>
									<name>A0380004</name>
								</reel>
							</timecode>
							<media>
								<video>
									<samplecharacteristics>
										<rate>
											<timebase>24</timebase>
											<ntsc>TRUE</ntsc>
										</rate>
										<width>4096</width>
										<height>2160</height>
										<anamorphic>FALSE</anamorphic>
										<pixelaspectratio>square</pixelaspectratio>
										<fielddominance>none</fielddominance>
									</samplecharacteristics>
								</video>
							</media>
						</file>
						<logginginfo>
							<description></description>
							<scene></scene>
							<shottake></shottake>
							<lognote></lognote>
							<good></good>
							<originalvideofilename></originalvideofilename>
							<originalaudiofilename></originalaudiofilename>
						</logginginfo>
						<colorinfo>
							<lut></lut>
							<lut1></lut1>
							<asc_sop></asc_sop>
							<asc_sat></asc_sat>
							<lut2></lut2>
						</colorinfo>
						<labels>
							<label2>Violet</label2>
						</labels>
					</clipitem>
					<clipitem id="clipitem-1205">
						<masterclipid>masterclip-1202</masterclipid>
						<name>TKO_018_SEW_Sh12580.mov</name>
						<enabled>TRUE</enabled>
						<duration>137</duration>
						<rate>
							<timebase>24</timebase>
							<ntsc>TRUE</ntsc>
						</rate>
						<start>88752</start>
						<end>88881</end>
						<in>4</in>
						<out>133</out>
						<pproTicksIn>42378336000</pproTicksIn>
						<pproTicksOut>1409079672000</pproTicksOut>
						<alphatype>none</alphatype>
						<pixelaspectratio>square</pixelaspectratio>
						<anamorphic>FALSE</anamorphic>
						<file id="file-1202">
							<name>TKO_018_SEW_Sh12580.mov</name>
							<pathurl>file://tri-stor01/Projects/TKO/SHOTS/_Refs_Movs_Burnin_FrameCounter/TKO_018_SEW_Sh12580.mov</pathurl>
							<rate>
								<timebase>24</timebase>
								<ntsc>TRUE</ntsc>
							</rate>
							<duration>137</duration>
							<timecode>
								<rate>
									<timebase>24</timebase>
									<ntsc>TRUE</ntsc>
								</rate>
								<string>11:51:15:09</string>
								<frame>1024209</frame>
								<displayformat>NDF</displayformat>
								<reel>
									<name>B0320005</name>
								</reel>
							</timecode>
							<media>
								<video>
									<samplecharacteristics>
										<rate>
											<timebase>24</timebase>
											<ntsc>TRUE</ntsc>
										</rate>
										<width>4096</width>
										<height>2160</height>
										<anamorphic>FALSE</anamorphic>
										<pixelaspectratio>square</pixelaspectratio>
										<fielddominance>none</fielddominance>
									</samplecharacteristics>
								</video>
							</media>
						</file>
						<logginginfo>
							<description></description>
							<scene></scene>
							<shottake></shottake>
							<lognote></lognote>
							<good></good>
							<originalvideofilename></originalvideofilename>
							<originalaudiofilename></originalaudiofilename>
						</logginginfo>
						<colorinfo>
							<lut></lut>
							<lut1></lut1>
							<asc_sop></asc_sop>
							<asc_sat></asc_sat>
							<lut2></lut2>
						</colorinfo>
						<labels>
							<label2>Violet</label2>
						</labels>
					</clipitem>
					<clipitem id="clipitem-1206">
						<masterclipid>masterclip-1203</masterclipid>
						<name>TKO_018_SEW_Sh12590.mov</name>
						<enabled>TRUE</enabled>
						<duration>98</duration>
						<rate>
							<timebase>24</timebase>
							<ntsc>TRUE</ntsc>
						</rate>
						<start>88881</start>
						<end>88971</end>
						<in>4</in>
						<out>94</out>
						<pproTicksIn>42378336000</pproTicksIn>
						<pproTicksOut>995890896000</pproTicksOut>
						<alphatype>none</alphatype>
						<pixelaspectratio>square</pixelaspectratio>
						<anamorphic>FALSE</anamorphic>
						<file id="file-1203">
							<name>TKO_018_SEW_Sh12590.mov</name>
							<pathurl>file://tri-stor01/Projects/TKO/SHOTS/_Refs_Movs_Burnin_FrameCounter/TKO_018_SEW_Sh12590.mov</pathurl>
							<rate>
								<timebase>24</timebase>
								<ntsc>TRUE</ntsc>
							</rate>
							<duration>98</duration>
							<timecode>
								<rate>
									<timebase>24</timebase>
									<ntsc>TRUE</ntsc>
								</rate>
								<string>12:57:16:21</string>
								<frame>1119285</frame>
								<displayformat>NDF</displayformat>
								<reel>
									<name>B0170009</name>
								</reel>
							</timecode>
							<media>
								<video>
									<samplecharacteristics>
										<rate>
											<timebase>24</timebase>
											<ntsc>TRUE</ntsc>
										</rate>
										<width>4096</width>
										<height>2160</height>
										<anamorphic>FALSE</anamorphic>
										<pixelaspectratio>square</pixelaspectratio>
										<fielddominance>none</fielddominance>
									</samplecharacteristics>
								</video>
							</media>
						</file>
						<logginginfo>
							<description></description>
							<scene></scene>
							<shottake></shottake>
							<lognote></lognote>
							<good></good>
							<originalvideofilename></originalvideofilename>
							<originalaudiofilename></originalaudiofilename>
						</logginginfo>
						<colorinfo>
							<lut></lut>
							<lut1></lut1>
							<asc_sop></asc_sop>
							<asc_sat></asc_sat>
							<lut2></lut2>
						</colorinfo>
						<labels>
							<label2>Violet</label2>
						</labels>
					</clipitem>
					<clipitem id="clipitem-1207">
						<masterclipid>masterclip-1204</masterclipid>
						<name>TKO_018_SEW_Sh12600.mov</name>
						<enabled>TRUE</enabled>
						<duration>55</duration>
						<rate>
							<timebase>24</timebase>
							<ntsc>TRUE</ntsc>
						</rate>
						<start>88971</start>
						<end>89018</end>
						<in>4</in>
						<out>51</out>
						<pproTicksIn>42378336000</pproTicksIn>
						<pproTicksOut>540323784000</pproTicksOut>
						<alphatype>none</alphatype>
						<pixelaspectratio>square</pixelaspectratio>
						<anamorphic>FALSE</anamorphic>
						<file id="file-1204">
							<name>TKO_018_SEW_Sh12600.mov</name>
							<pathurl>file://tri-stor01/Projects/TKO/SHOTS/_Refs_Movs_Burnin_FrameCounter/TKO_018_SEW_Sh12600.mov</pathurl>
							<rate>
								<timebase>24</timebase>
								<ntsc>TRUE</ntsc>
							</rate>
							<duration>55</duration>
							<timecode>
								<rate>
									<timebase>24</timebase>
									<ntsc>TRUE</ntsc>
								</rate>
								<string>13:00:07:21</string>
								<frame>1123389</frame>
								<displayformat>NDF</displayformat>
								<reel>
									<name>B0170010</name>
								</reel>
							</timecode>
							<media>
								<video>
									<samplecharacteristics>
										<rate>
											<timebase>24</timebase>
											<ntsc>TRUE</ntsc>
										</rate>
										<width>4096</width>
										<height>2160</height>
										<anamorphic>FALSE</anamorphic>
										<pixelaspectratio>square</pixelaspectratio>
										<fielddominance>none</fielddominance>
									</samplecharacteristics>
								</video>
							</media>
						</file>
						<logginginfo>
							<description></description>
							<scene></scene>
							<shottake></shottake>
							<lognote></lognote>
							<good></good>
							<originalvideofilename></originalvideofilename>
							<originalaudiofilename></originalaudiofilename>
						</logginginfo>
						<colorinfo>
							<lut></lut>
							<lut1></lut1>
							<asc_sop></asc_sop>
							<asc_sat></asc_sat>
							<lut2></lut2>
						</colorinfo>
						<labels>
							<label2>Violet</label2>
						</labels>
					</clipitem>
					<clipitem id="clipitem-1208">
						<masterclipid>masterclip-1205</masterclipid>
						<name>TKO_018_SEW_Sh12610.mov</name>
						<enabled>TRUE</enabled>
						<duration>57</duration>
						<rate>
							<timebase>24</timebase>
							<ntsc>TRUE</ntsc>
						</rate>
						<start>89018</start>
						<end>89067</end>
						<in>4</in>
						<out>53</out>
						<pproTicksIn>42378336000</pproTicksIn>
						<pproTicksOut>561512952000</pproTicksOut>
						<alphatype>none</alphatype>
						<pixelaspectratio>square</pixelaspectratio>
						<anamorphic>FALSE</anamorphic>
						<file id="file-1205">
							<name>TKO_018_SEW_Sh12610.mov</name>
							<pathurl>file://tri-stor01/Projects/TKO/SHOTS/_Refs_Movs_Burnin_FrameCounter/TKO_018_SEW_Sh12610.mov</pathurl>
							<rate>
								<timebase>24</timebase>
								<ntsc>TRUE</ntsc>
							</rate>
							<duration>57</duration>
							<timecode>
								<rate>
									<timebase>24</timebase>
									<ntsc>TRUE</ntsc>
								</rate>
								<string>12:57:26:01</string>
								<frame>1119505</frame>
								<displayformat>NDF</displayformat>
								<reel>
									<name>B0170009</name>
								</reel>
							</timecode>
							<media>
								<video>
									<samplecharacteristics>
										<rate>
											<timebase>24</timebase>
											<ntsc>TRUE</ntsc>
										</rate>
										<width>4096</width>
										<height>2160</height>
										<anamorphic>FALSE</anamorphic>
										<pixelaspectratio>square</pixelaspectratio>
										<fielddominance>none</fielddominance>
									</samplecharacteristics>
								</video>
							</media>
						</file>
						<logginginfo>
							<description></description>
							<scene></scene>
							<shottake></shottake>
							<lognote></lognote>
							<good></good>
							<originalvideofilename></originalvideofilename>
							<originalaudiofilename></originalaudiofilename>
						</logginginfo>
						<colorinfo>
							<lut></lut>
							<lut1></lut1>
							<asc_sop></asc_sop>
							<asc_sat></asc_sat>
							<lut2></lut2>
						</colorinfo>
						<labels>
							<label2>Violet</label2>
						</labels>
					</clipitem>
					<clipitem id="clipitem-1209">
						<masterclipid>masterclip-1206</masterclipid>
						<name>TKO_018_SEW_Sh12620.mov</name>
						<enabled>TRUE</enabled>
						<duration>39</duration>
						<rate>
							<timebase>24</timebase>
							<ntsc>TRUE</ntsc>
						</rate>
						<start>89067</start>
						<end>89098</end>
						<in>4</in>
						<out>35</out>
						<pproTicksIn>42378336000</pproTicksIn>
						<pproTicksOut>370810440000</pproTicksOut>
						<alphatype>none</alphatype>
						<pixelaspectratio>square</pixelaspectratio>
						<anamorphic>FALSE</anamorphic>
						<file id="file-1206">
							<name>TKO_018_SEW_Sh12620.mov</name>
							<pathurl>file://tri-stor01/Projects/TKO/SHOTS/_Refs_Movs_Burnin_FrameCounter/TKO_018_SEW_Sh12620.mov</pathurl>
							<rate>
								<timebase>24</timebase>
								<ntsc>TRUE</ntsc>
							</rate>
							<duration>39</duration>
							<timecode>
								<rate>
									<timebase>24</timebase>
									<ntsc>TRUE</ntsc>
								</rate>
								<string>10:22:04:01</string>
								<frame>895777</frame>
								<displayformat>NDF</displayformat>
								<reel>
									<name>C0240008</name>
								</reel>
							</timecode>
							<media>
								<video>
									<samplecharacteristics>
										<rate>
											<timebase>24</timebase>
											<ntsc>TRUE</ntsc>
										</rate>
										<width>3840</width>
										<height>2160</height>
										<anamorphic>FALSE</anamorphic>
										<pixelaspectratio>square</pixelaspectratio>
										<fielddominance>none</fielddominance>
									</samplecharacteristics>
								</video>
							</media>
						</file>
						<logginginfo>
							<description></description>
							<scene></scene>
							<shottake></shottake>
							<lognote></lognote>
							<good></good>
							<originalvideofilename></originalvideofilename>
							<originalaudiofilename></originalaudiofilename>
						</logginginfo>
						<colorinfo>
							<lut></lut>
							<lut1></lut1>
							<asc_sop></asc_sop>
							<asc_sat></asc_sat>
							<lut2></lut2>
						</colorinfo>
						<labels>
							<label2>Violet</label2>
						</labels>
					</clipitem>
					<clipitem id="clipitem-1210">
						<masterclipid>masterclip-1207</masterclipid>
						<name>TKO_018_SEW_Sh12630.mov</name>
						<enabled>TRUE</enabled>
						<duration>49</duration>
						<rate>
							<timebase>24</timebase>
							<ntsc>TRUE</ntsc>
						</rate>
						<start>89098</start>
						<end>89139</end>
						<in>4</in>
						<out>45</out>
						<pproTicksIn>42378336000</pproTicksIn>
						<pproTicksOut>476756280000</pproTicksOut>
						<alphatype>none</alphatype>
						<pixelaspectratio>square</pixelaspectratio>
						<anamorphic>FALSE</anamorphic>
						<file id="file-1207">
							<name>TKO_018_SEW_Sh12630.mov</name>
							<pathurl>file://tri-stor01/Projects/TKO/SHOTS/_Refs_Movs_Burnin_FrameCounter/TKO_018_SEW_Sh12630.mov</pathurl>
							<rate>
								<timebase>24</timebase>
								<ntsc>TRUE</ntsc>
							</rate>
							<duration>49</duration>
							<timecode>
								<rate>
									<timebase>24</timebase>
									<ntsc>TRUE</ntsc>
								</rate>
								<string>12:55:57:08</string>
								<frame>1117376</frame>
								<displayformat>NDF</displayformat>
								<reel>
									<name>B0170009</name>
								</reel>
							</timecode>
							<media>
								<video>
									<samplecharacteristics>
										<rate>
											<timebase>24</timebase>
											<ntsc>TRUE</ntsc>
										</rate>
										<width>4096</width>
										<height>2160</height>
										<anamorphic>FALSE</anamorphic>
										<pixelaspectratio>square</pixelaspectratio>
										<fielddominance>none</fielddominance>
									</samplecharacteristics>
								</video>
							</media>
						</file>
						<logginginfo>
							<description></description>
							<scene></scene>
							<shottake></shottake>
							<lognote></lognote>
							<good></good>
							<originalvideofilename></originalvideofilename>
							<originalaudiofilename></originalaudiofilename>
						</logginginfo>
						<colorinfo>
							<lut></lut>
							<lut1></lut1>
							<asc_sop></asc_sop>
							<asc_sat></asc_sat>
							<lut2></lut2>
						</colorinfo>
						<labels>
							<label2>Violet</label2>
						</labels>
					</clipitem>
					<clipitem id="clipitem-1211">
						<masterclipid>masterclip-1208</masterclipid>
						<name>TKO_018_SEW_Sh12640.mov</name>
						<enabled>TRUE</enabled>
						<duration>85</duration>
						<rate>
							<timebase>24</timebase>
							<ntsc>TRUE</ntsc>
						</rate>
						<start>89139</start>
						<end>89216</end>
						<in>4</in>
						<out>81</out>
						<pproTicksIn>42378336000</pproTicksIn>
						<pproTicksOut>858161304000</pproTicksOut>
						<alphatype>none</alphatype>
						<pixelaspectratio>square</pixelaspectratio>
						<anamorphic>FALSE</anamorphic>
						<file id="file-1208">
							<name>TKO_018_SEW_Sh12640.mov</name>
							<pathurl>file://tri-stor01/Projects/TKO/SHOTS/_Refs_Movs_Burnin_FrameCounter/TKO_018_SEW_Sh12640.mov</pathurl>
							<rate>
								<timebase>24</timebase>
								<ntsc>TRUE</ntsc>
							</rate>
							<duration>85</duration>
							<timecode>
								<rate>
									<timebase>24</timebase>
									<ntsc>TRUE</ntsc>
								</rate>
								<string>13:01:20:07</string>
								<frame>1125127</frame>
								<displayformat>NDF</displayformat>
								<reel>
									<name>B0170010</name>
								</reel>
							</timecode>
							<media>
								<video>
									<samplecharacteristics>
										<rate>
											<timebase>24</timebase>
											<ntsc>TRUE</ntsc>
										</rate>
										<width>4096</width>
										<height>2160</height>
										<anamorphic>FALSE</anamorphic>
										<pixelaspectratio>square</pixelaspectratio>
										<fielddominance>none</fielddominance>
									</samplecharacteristics>
								</video>
							</media>
						</file>
						<logginginfo>
							<description></description>
							<scene></scene>
							<shottake></shottake>
							<lognote></lognote>
							<good></good>
							<originalvideofilename></originalvideofilename>
							<originalaudiofilename></originalaudiofilename>
						</logginginfo>
						<colorinfo>
							<lut></lut>
							<lut1></lut1>
							<asc_sop></asc_sop>
							<asc_sat></asc_sat>
							<lut2></lut2>
						</colorinfo>
						<labels>
							<label2>Violet</label2>
						</labels>
					</clipitem>
					<clipitem id="clipitem-1212">
						<masterclipid>masterclip-1209</masterclipid>
						<name>TKO_018_SEW_Sh12650.mov</name>
						<enabled>TRUE</enabled>
						<duration>89</duration>
						<rate>
							<timebase>24</timebase>
							<ntsc>TRUE</ntsc>
						</rate>
						<start>89216</start>
						<end>89297</end>
						<in>4</in>
						<out>85</out>
						<pproTicksIn>42378336000</pproTicksIn>
						<pproTicksOut>900539640000</pproTicksOut>
						<alphatype>none</alphatype>
						<pixelaspectratio>square</pixelaspectratio>
						<anamorphic>FALSE</anamorphic>
						<file id="file-1209">
							<name>TKO_018_SEW_Sh12650.mov</name>
							<pathurl>file://tri-stor01/Projects/TKO/SHOTS/_Refs_Movs_Burnin_FrameCounter/TKO_018_SEW_Sh12650.mov</pathurl>
							<rate>
								<timebase>24</timebase>
								<ntsc>TRUE</ntsc>
							</rate>
							<duration>89</duration>
							<timecode>
								<rate>
									<timebase>24</timebase>
									<ntsc>TRUE</ntsc>
								</rate>
								<string>12:57:29:03</string>
								<frame>1119579</frame>
								<displayformat>NDF</displayformat>
								<reel>
									<name>B0170009</name>
								</reel>
							</timecode>
							<media>
								<video>
									<samplecharacteristics>
										<rate>
											<timebase>24</timebase>
											<ntsc>TRUE</ntsc>
										</rate>
										<width>4096</width>
										<height>2160</height>
										<anamorphic>FALSE</anamorphic>
										<pixelaspectratio>square</pixelaspectratio>
										<fielddominance>none</fielddominance>
									</samplecharacteristics>
								</video>
							</media>
						</file>
						<logginginfo>
							<description></description>
							<scene></scene>
							<shottake></shottake>
							<lognote></lognote>
							<good></good>
							<originalvideofilename></originalvideofilename>
							<originalaudiofilename></originalaudiofilename>
						</logginginfo>
						<colorinfo>
							<lut></lut>
							<lut1></lut1>
							<asc_sop></asc_sop>
							<asc_sat></asc_sat>
							<lut2></lut2>
						</colorinfo>
						<labels>
							<label2>Violet</label2>
						</labels>
					</clipitem>
					<clipitem id="clipitem-1213">
						<masterclipid>masterclip-1210</masterclipid>
						<name>TKO_018_SEW_Sh12660.mov</name>
						<enabled>TRUE</enabled>
						<duration>86</duration>
						<rate>
							<timebase>24</timebase>
							<ntsc>TRUE</ntsc>
						</rate>
						<start>89297</start>
						<end>89375</end>
						<in>4</in>
						<out>82</out>
						<pproTicksIn>42378336000</pproTicksIn>
						<pproTicksOut>868755888000</pproTicksOut>
						<alphatype>none</alphatype>
						<pixelaspectratio>square</pixelaspectratio>
						<anamorphic>FALSE</anamorphic>
						<file id="file-1210">
							<name>TKO_018_SEW_Sh12660.mov</name>
							<pathurl>file://tri-stor01/Projects/TKO/SHOTS/_Refs_Movs_Burnin_FrameCounter/TKO_018_SEW_Sh12660.mov</pathurl>
							<rate>
								<timebase>24</timebase>
								<ntsc>TRUE</ntsc>
							</rate>
							<duration>86</duration>
							<timecode>
								<rate>
									<timebase>24</timebase>
									<ntsc>TRUE</ntsc>
								</rate>
								<string>00:00:00:00</string>
								<frame>0</frame>
								<displayformat>NDF</displayformat>
							</timecode>
							<media>
								<video>
									<samplecharacteristics>
										<rate>
											<timebase>24</timebase>
											<ntsc>TRUE</ntsc>
										</rate>
										<width>4096</width>
										<height>2160</height>
										<anamorphic>FALSE</anamorphic>
										<pixelaspectratio>square</pixelaspectratio>
										<fielddominance>none</fielddominance>
									</samplecharacteristics>
								</video>
							</media>
						</file>
						<logginginfo>
							<description></description>
							<scene></scene>
							<shottake></shottake>
							<lognote></lognote>
							<good></good>
							<originalvideofilename></originalvideofilename>
							<originalaudiofilename></originalaudiofilename>
						</logginginfo>
						<colorinfo>
							<lut></lut>
							<lut1></lut1>
							<asc_sop></asc_sop>
							<asc_sat></asc_sat>
							<lut2></lut2>
						</colorinfo>
						<labels>
							<label2>Violet</label2>
						</labels>
					</clipitem>
					<clipitem id="clipitem-1214">
						<masterclipid>masterclip-1211</masterclipid>
						<name>TKO_018_SEW_Sh12670.mov</name>
						<enabled>TRUE</enabled>
						<duration>134</duration>
						<rate>
							<timebase>24</timebase>
							<ntsc>TRUE</ntsc>
						</rate>
						<start>89375</start>
						<end>89501</end>
						<in>4</in>
						<out>130</out>
						<pproTicksIn>42378336000</pproTicksIn>
						<pproTicksOut>1377295920000</pproTicksOut>
						<alphatype>none</alphatype>
						<pixelaspectratio>square</pixelaspectratio>
						<anamorphic>FALSE</anamorphic>
						<file id="file-1211">
							<name>TKO_018_SEW_Sh12670.mov</name>
							<pathurl>file://tri-stor01/Projects/TKO/SHOTS/_Refs_Movs_Burnin_FrameCounter/TKO_018_SEW_Sh12670.mov</pathurl>
							<rate>
								<timebase>24</timebase>
								<ntsc>TRUE</ntsc>
							</rate>
							<duration>134</duration>
							<timecode>
								<rate>
									<timebase>24</timebase>
									<ntsc>TRUE</ntsc>
								</rate>
								<string>05:42:57:04</string>
								<frame>493852</frame>
								<displayformat>NDF</displayformat>
								<reel>
									<name>C0120001</name>
								</reel>
							</timecode>
							<media>
								<video>
									<samplecharacteristics>
										<rate>
											<timebase>24</timebase>
											<ntsc>TRUE</ntsc>
										</rate>
										<width>3840</width>
										<height>2160</height>
										<anamorphic>FALSE</anamorphic>
										<pixelaspectratio>square</pixelaspectratio>
										<fielddominance>none</fielddominance>
									</samplecharacteristics>
								</video>
							</media>
						</file>
						<logginginfo>
							<description></description>
							<scene></scene>
							<shottake></shottake>
							<lognote></lognote>
							<good></good>
							<originalvideofilename></originalvideofilename>
							<originalaudiofilename></originalaudiofilename>
						</logginginfo>
						<colorinfo>
							<lut></lut>
							<lut1></lut1>
							<asc_sop></asc_sop>
							<asc_sat></asc_sat>
							<lut2></lut2>
						</colorinfo>
						<labels>
							<label2>Violet</label2>
						</labels>
					</clipitem>
					<clipitem id="clipitem-1215">
						<masterclipid>masterclip-1212</masterclipid>
						<name>TKO_018_SEW_Sh12680_V02.mov</name>
						<enabled>TRUE</enabled>
						<duration>228</duration>
						<rate>
							<timebase>24</timebase>
							<ntsc>TRUE</ntsc>
						</rate>
						<start>89501</start>
						<end>89699</end>
						<in>27</in>
						<out>225</out>
						<pproTicksIn>286053768000</pproTicksIn>
						<pproTicksOut>2383781400000</pproTicksOut>
						<alphatype>none</alphatype>
						<pixelaspectratio>square</pixelaspectratio>
						<anamorphic>FALSE</anamorphic>
						<file id="file-1212">
							<name>TKO_018_SEW_Sh12680_V02.mov</name>
							<pathurl>file://tri-stor01/Projects/TKO/SHOTS/_Refs_Movs_Burnin_FrameCounter/TKO_018_SEW_Sh12680_V02.mov</pathurl>
							<rate>
								<timebase>24</timebase>
								<ntsc>TRUE</ntsc>
							</rate>
							<duration>228</duration>
							<timecode>
								<rate>
									<timebase>24</timebase>
									<ntsc>TRUE</ntsc>
								</rate>
								<string>11:54:32:21</string>
								<frame>1028949</frame>
								<displayformat>NDF</displayformat>
								<reel>
									<name>A0200009</name>
								</reel>
							</timecode>
							<media>
								<video>
									<samplecharacteristics>
										<rate>
											<timebase>24</timebase>
											<ntsc>TRUE</ntsc>
										</rate>
										<width>4096</width>
										<height>2160</height>
										<anamorphic>FALSE</anamorphic>
										<pixelaspectratio>square</pixelaspectratio>
										<fielddominance>none</fielddominance>
									</samplecharacteristics>
								</video>
							</media>
						</file>
						<logginginfo>
							<description></description>
							<scene></scene>
							<shottake></shottake>
							<lognote></lognote>
							<good></good>
							<originalvideofilename></originalvideofilename>
							<originalaudiofilename></originalaudiofilename>
						</logginginfo>
						<colorinfo>
							<lut></lut>
							<lut1></lut1>
							<asc_sop></asc_sop>
							<asc_sat></asc_sat>
							<lut2></lut2>
						</colorinfo>
						<labels>
							<label2>Violet</label2>
						</labels>
					</clipitem>
					<clipitem id="clipitem-1216">
						<masterclipid>masterclip-1213</masterclipid>
						<name>TKO_018_SEW_Sh12690.mov</name>
						<enabled>TRUE</enabled>
						<duration>242</duration>
						<rate>
							<timebase>24</timebase>
							<ntsc>TRUE</ntsc>
						</rate>
						<start>89699</start>
						<end>89933</end>
						<in>4</in>
						<out>238</out>
						<pproTicksIn>42378336000</pproTicksIn>
						<pproTicksOut>2521510992000</pproTicksOut>
						<alphatype>none</alphatype>
						<pixelaspectratio>square</pixelaspectratio>
						<anamorphic>FALSE</anamorphic>
						<file id="file-1213">
							<name>TKO_018_SEW_Sh12690.mov</name>
							<pathurl>file://tri-stor01/Projects/TKO/SHOTS/_Refs_Movs_Burnin_FrameCounter/TKO_018_SEW_Sh12690.mov</pathurl>
							<rate>
								<timebase>24</timebase>
								<ntsc>TRUE</ntsc>
							</rate>
							<duration>242</duration>
							<timecode>
								<rate>
									<timebase>24</timebase>
									<ntsc>TRUE</ntsc>
								</rate>
								<string>12:07:13:00</string>
								<frame>1047192</frame>
								<displayformat>NDF</displayformat>
								<reel>
									<name>B0170005</name>
								</reel>
							</timecode>
							<media>
								<video>
									<samplecharacteristics>
										<rate>
											<timebase>24</timebase>
											<ntsc>TRUE</ntsc>
										</rate>
										<width>4096</width>
										<height>2160</height>
										<anamorphic>FALSE</anamorphic>
										<pixelaspectratio>square</pixelaspectratio>
										<fielddominance>none</fielddominance>
									</samplecharacteristics>
								</video>
							</media>
						</file>
						<logginginfo>
							<description></description>
							<scene></scene>
							<shottake></shottake>
							<lognote></lognote>
							<good></good>
							<originalvideofilename></originalvideofilename>
							<originalaudiofilename></originalaudiofilename>
						</logginginfo>
						<colorinfo>
							<lut></lut>
							<lut1></lut1>
							<asc_sop></asc_sop>
							<asc_sat></asc_sat>
							<lut2></lut2>
						</colorinfo>
						<labels>
							<label2>Violet</label2>
						</labels>
					</clipitem>
					<clipitem id="clipitem-1217">
						<masterclipid>masterclip-1214</masterclipid>
						<name>TKO_018_SEW_Sh12700_V02.mov</name>
						<enabled>TRUE</enabled>
						<duration>107</duration>
						<rate>
							<timebase>24</timebase>
							<ntsc>TRUE</ntsc>
						</rate>
						<start>89933</start>
						<end>90009</end>
						<in>27</in>
						<out>103</out>
						<pproTicksIn>286053768000</pproTicksIn>
						<pproTicksOut>1091242152000</pproTicksOut>
						<alphatype>none</alphatype>
						<pixelaspectratio>square</pixelaspectratio>
						<anamorphic>FALSE</anamorphic>
						<file id="file-1214">
							<name>TKO_018_SEW_Sh12700_V02.mov</name>
							<pathurl>file://tri-stor01/Projects/TKO/SHOTS/_Refs_Movs_Burnin_FrameCounter/TKO_018_SEW_Sh12700_V02.mov</pathurl>
							<rate>
								<timebase>24</timebase>
								<ntsc>TRUE</ntsc>
							</rate>
							<duration>107</duration>
							<timecode>
								<rate>
									<timebase>24</timebase>
									<ntsc>TRUE</ntsc>
								</rate>
								<string>12:07:22:10</string>
								<frame>1047418</frame>
								<displayformat>NDF</displayformat>
								<reel>
									<name>A0200011</name>
								</reel>
							</timecode>
							<media>
								<video>
									<samplecharacteristics>
										<rate>
											<timebase>24</timebase>
											<ntsc>TRUE</ntsc>
										</rate>
										<width>4096</width>
										<height>2160</height>
										<anamorphic>FALSE</anamorphic>
										<pixelaspectratio>square</pixelaspectratio>
										<fielddominance>none</fielddominance>
									</samplecharacteristics>
								</video>
							</media>
						</file>
						<logginginfo>
							<description></description>
							<scene></scene>
							<shottake></shottake>
							<lognote></lognote>
							<good></good>
							<originalvideofilename></originalvideofilename>
							<originalaudiofilename></originalaudiofilename>
						</logginginfo>
						<colorinfo>
							<lut></lut>
							<lut1></lut1>
							<asc_sop></asc_sop>
							<asc_sat></asc_sat>
							<lut2></lut2>
						</colorinfo>
						<labels>
							<label2>Violet</label2>
						</labels>
					</clipitem>
					<clipitem id="clipitem-1218">
						<masterclipid>masterclip-1215</masterclipid>
						<name>TKO_018_SEW_Sh12710.mov</name>
						<enabled>TRUE</enabled>
						<duration>230</duration>
						<rate>
							<timebase>24</timebase>
							<ntsc>TRUE</ntsc>
						</rate>
						<start>90009</start>
						<end>90231</end>
						<in>4</in>
						<out>226</out>
						<pproTicksIn>42378336000</pproTicksIn>
						<pproTicksOut>2394375984000</pproTicksOut>
						<alphatype>none</alphatype>
						<pixelaspectratio>square</pixelaspectratio>
						<anamorphic>FALSE</anamorphic>
						<file id="file-1215">
							<name>TKO_018_SEW_Sh12710.mov</name>
							<pathurl>file://tri-stor01/Projects/TKO/SHOTS/_Refs_Movs_Burnin_FrameCounter/TKO_018_SEW_Sh12710.mov</pathurl>
							<rate>
								<timebase>24</timebase>
								<ntsc>TRUE</ntsc>
							</rate>
							<duration>230</duration>
							<timecode>
								<rate>
									<timebase>24</timebase>
									<ntsc>TRUE</ntsc>
								</rate>
								<string>12:07:25:22</string>
								<frame>1047502</frame>
								<displayformat>NDF</displayformat>
								<reel>
									<name>B0170005</name>
								</reel>
							</timecode>
							<media>
								<video>
									<samplecharacteristics>
										<rate>
											<timebase>24</timebase>
											<ntsc>TRUE</ntsc>
										</rate>
										<width>4096</width>
										<height>2160</height>
										<anamorphic>FALSE</anamorphic>
										<pixelaspectratio>square</pixelaspectratio>
										<fielddominance>none</fielddominance>
									</samplecharacteristics>
								</video>
							</media>
						</file>
						<logginginfo>
							<description></description>
							<scene></scene>
							<shottake></shottake>
							<lognote></lognote>
							<good></good>
							<originalvideofilename></originalvideofilename>
							<originalaudiofilename></originalaudiofilename>
						</logginginfo>
						<colorinfo>
							<lut></lut>
							<lut1></lut1>
							<asc_sop></asc_sop>
							<asc_sat></asc_sat>
							<lut2></lut2>
						</colorinfo>
						<labels>
							<label2>Violet</label2>
						</labels>
					</clipitem>
					<clipitem id="clipitem-1219">
						<masterclipid>masterclip-1216</masterclipid>
						<name>TKO_018_SEW_Sh12720_V02.mov</name>
						<enabled>TRUE</enabled>
						<duration>138</duration>
						<rate>
							<timebase>24</timebase>
							<ntsc>TRUE</ntsc>
						</rate>
						<start>90231</start>
						<end>90338</end>
						<in>27</in>
						<out>134</out>
						<pproTicksIn>286053768000</pproTicksIn>
						<pproTicksOut>1419674256000</pproTicksOut>
						<alphatype>none</alphatype>
						<pixelaspectratio>square</pixelaspectratio>
						<anamorphic>FALSE</anamorphic>
						<file id="file-1216">
							<name>TKO_018_SEW_Sh12720_V02.mov</name>
							<pathurl>file://tri-stor01/Projects/TKO/SHOTS/_Refs_Movs_Burnin_FrameCounter/TKO_018_SEW_Sh12720_V02.mov</pathurl>
							<rate>
								<timebase>24</timebase>
								<ntsc>TRUE</ntsc>
							</rate>
							<duration>138</duration>
							<timecode>
								<rate>
									<timebase>24</timebase>
									<ntsc>TRUE</ntsc>
								</rate>
								<string>12:07:34:20</string>
								<frame>1047716</frame>
								<displayformat>NDF</displayformat>
								<reel>
									<name>A0200011</name>
								</reel>
							</timecode>
							<media>
								<video>
									<samplecharacteristics>
										<rate>
											<timebase>24</timebase>
											<ntsc>TRUE</ntsc>
										</rate>
										<width>4096</width>
										<height>2160</height>
										<anamorphic>FALSE</anamorphic>
										<pixelaspectratio>square</pixelaspectratio>
										<fielddominance>none</fielddominance>
									</samplecharacteristics>
								</video>
							</media>
						</file>
						<logginginfo>
							<description></description>
							<scene></scene>
							<shottake></shottake>
							<lognote></lognote>
							<good></good>
							<originalvideofilename></originalvideofilename>
							<originalaudiofilename></originalaudiofilename>
						</logginginfo>
						<colorinfo>
							<lut></lut>
							<lut1></lut1>
							<asc_sop></asc_sop>
							<asc_sat></asc_sat>
							<lut2></lut2>
						</colorinfo>
						<labels>
							<label2>Violet</label2>
						</labels>
					</clipitem>
					<clipitem id="clipitem-1220">
						<masterclipid>masterclip-1217</masterclipid>
						<name>TKO_018_SEW_Sh12730.mov</name>
						<enabled>TRUE</enabled>
						<duration>167</duration>
						<rate>
							<timebase>24</timebase>
							<ntsc>TRUE</ntsc>
						</rate>
						<start>90338</start>
						<end>90497</end>
						<in>4</in>
						<out>163</out>
						<pproTicksIn>42378336000</pproTicksIn>
						<pproTicksOut>1726917192000</pproTicksOut>
						<alphatype>none</alphatype>
						<pixelaspectratio>square</pixelaspectratio>
						<anamorphic>FALSE</anamorphic>
						<file id="file-1217">
							<name>TKO_018_SEW_Sh12730.mov</name>
							<pathurl>file://tri-stor01/Projects/TKO/SHOTS/_Refs_Movs_Burnin_FrameCounter/TKO_018_SEW_Sh12730.mov</pathurl>
							<rate>
								<timebase>24</timebase>
								<ntsc>TRUE</ntsc>
							</rate>
							<duration>167</duration>
							<timecode>
								<rate>
									<timebase>24</timebase>
									<ntsc>TRUE</ntsc>
								</rate>
								<string>12:07:39:15</string>
								<frame>1047831</frame>
								<displayformat>NDF</displayformat>
								<reel>
									<name>B0170005</name>
								</reel>
							</timecode>
							<media>
								<video>
									<samplecharacteristics>
										<rate>
											<timebase>24</timebase>
											<ntsc>TRUE</ntsc>
										</rate>
										<width>4096</width>
										<height>2160</height>
										<anamorphic>FALSE</anamorphic>
										<pixelaspectratio>square</pixelaspectratio>
										<fielddominance>none</fielddominance>
									</samplecharacteristics>
								</video>
							</media>
						</file>
						<logginginfo>
							<description></description>
							<scene></scene>
							<shottake></shottake>
							<lognote></lognote>
							<good></good>
							<originalvideofilename></originalvideofilename>
							<originalaudiofilename></originalaudiofilename>
						</logginginfo>
						<colorinfo>
							<lut></lut>
							<lut1></lut1>
							<asc_sop></asc_sop>
							<asc_sat></asc_sat>
							<lut2></lut2>
						</colorinfo>
						<labels>
							<label2>Violet</label2>
						</labels>
					</clipitem>
					<clipitem id="clipitem-1221">
						<masterclipid>masterclip-1218</masterclipid>
						<name>TKO_018_SEW_Sh12740_V02.mov</name>
						<enabled>TRUE</enabled>
						<duration>314</duration>
						<rate>
							<timebase>24</timebase>
							<ntsc>TRUE</ntsc>
						</rate>
						<start>90497</start>
						<end>90781</end>
						<in>27</in>
						<out>311</out>
						<pproTicksIn>286053768000</pproTicksIn>
						<pproTicksOut>3294915624000</pproTicksOut>
						<alphatype>none</alphatype>
						<pixelaspectratio>square</pixelaspectratio>
						<anamorphic>FALSE</anamorphic>
						<file id="file-1218">
							<name>TKO_018_SEW_Sh12740_V02.mov</name>
							<pathurl>file://tri-stor01/Projects/TKO/SHOTS/_Refs_Movs_Burnin_FrameCounter/TKO_018_SEW_Sh12740_V02.mov</pathurl>
							<rate>
								<timebase>24</timebase>
								<ntsc>TRUE</ntsc>
							</rate>
							<duration>314</duration>
							<timecode>
								<rate>
									<timebase>24</timebase>
									<ntsc>TRUE</ntsc>
								</rate>
								<string>12:07:45:22</string>
								<frame>1047982</frame>
								<displayformat>NDF</displayformat>
								<reel>
									<name>A0200011</name>
								</reel>
							</timecode>
							<media>
								<video>
									<samplecharacteristics>
										<rate>
											<timebase>24</timebase>
											<ntsc>TRUE</ntsc>
										</rate>
										<width>4096</width>
										<height>2160</height>
										<anamorphic>FALSE</anamorphic>
										<pixelaspectratio>square</pixelaspectratio>
										<fielddominance>none</fielddominance>
									</samplecharacteristics>
								</video>
							</media>
						</file>
						<logginginfo>
							<description></description>
							<scene></scene>
							<shottake></shottake>
							<lognote></lognote>
							<good></good>
							<originalvideofilename></originalvideofilename>
							<originalaudiofilename></originalaudiofilename>
						</logginginfo>
						<colorinfo>
							<lut></lut>
							<lut1></lut1>
							<asc_sop></asc_sop>
							<asc_sat></asc_sat>
							<lut2></lut2>
						</colorinfo>
						<labels>
							<label2>Violet</label2>
						</labels>
					</clipitem>
					<clipitem id="clipitem-1222">
						<masterclipid>masterclip-1219</masterclipid>
						<name>TKO_018_SEW_Sh12750.mov</name>
						<enabled>TRUE</enabled>
						<duration>53</duration>
						<rate>
							<timebase>24</timebase>
							<ntsc>TRUE</ntsc>
						</rate>
						<start>90781</start>
						<end>90826</end>
						<in>4</in>
						<out>49</out>
						<pproTicksIn>42378336000</pproTicksIn>
						<pproTicksOut>519134616000</pproTicksOut>
						<alphatype>none</alphatype>
						<pixelaspectratio>square</pixelaspectratio>
						<anamorphic>FALSE</anamorphic>
						<file id="file-1219">
							<name>TKO_018_SEW_Sh12750.mov</name>
							<pathurl>file://tri-stor01/Projects/TKO/SHOTS/_Refs_Movs_Burnin_FrameCounter/TKO_018_SEW_Sh12750.mov</pathurl>
							<rate>
								<timebase>24</timebase>
								<ntsc>TRUE</ntsc>
							</rate>
							<duration>53</duration>
							<timecode>
								<rate>
									<timebase>24</timebase>
									<ntsc>TRUE</ntsc>
								</rate>
								<string>15:22:18:16</string>
								<frame>1328128</frame>
								<displayformat>NDF</displayformat>
								<reel>
									<name>A0210001</name>
								</reel>
							</timecode>
							<media>
								<video>
									<samplecharacteristics>
										<rate>
											<timebase>24</timebase>
											<ntsc>TRUE</ntsc>
										</rate>
										<width>4096</width>
										<height>2160</height>
										<anamorphic>FALSE</anamorphic>
										<pixelaspectratio>square</pixelaspectratio>
										<fielddominance>none</fielddominance>
									</samplecharacteristics>
								</video>
							</media>
						</file>
						<logginginfo>
							<description></description>
							<scene></scene>
							<shottake></shottake>
							<lognote></lognote>
							<good></good>
							<originalvideofilename></originalvideofilename>
							<originalaudiofilename></originalaudiofilename>
						</logginginfo>
						<colorinfo>
							<lut></lut>
							<lut1></lut1>
							<asc_sop></asc_sop>
							<asc_sat></asc_sat>
							<lut2></lut2>
						</colorinfo>
						<labels>
							<label2>Violet</label2>
						</labels>
					</clipitem>
					<clipitem id="clipitem-1223">
						<masterclipid>masterclip-1220</masterclipid>
						<name>TKO_018_SEW_Sh12760.mov</name>
						<enabled>TRUE</enabled>
						<duration>30</duration>
						<rate>
							<timebase>24</timebase>
							<ntsc>TRUE</ntsc>
						</rate>
						<start>90826</start>
						<end>90848</end>
						<in>4</in>
						<out>26</out>
						<pproTicksIn>42378336000</pproTicksIn>
						<pproTicksOut>275459184000</pproTicksOut>
						<alphatype>none</alphatype>
						<pixelaspectratio>square</pixelaspectratio>
						<anamorphic>FALSE</anamorphic>
						<file id="file-1220">
							<name>TKO_018_SEW_Sh12760.mov</name>
							<pathurl>file://tri-stor01/Projects/TKO/SHOTS/_Refs_Movs_Burnin_FrameCounter/TKO_018_SEW_Sh12760.mov</pathurl>
							<rate>
								<timebase>24</timebase>
								<ntsc>TRUE</ntsc>
							</rate>
							<duration>30</duration>
							<timecode>
								<rate>
									<timebase>24</timebase>
									<ntsc>TRUE</ntsc>
								</rate>
								<string>15:22:20:13</string>
								<frame>1328173</frame>
								<displayformat>NDF</displayformat>
								<reel>
									<name>B0180001</name>
								</reel>
							</timecode>
							<media>
								<video>
									<samplecharacteristics>
										<rate>
											<timebase>24</timebase>
											<ntsc>TRUE</ntsc>
										</rate>
										<width>4096</width>
										<height>2160</height>
										<anamorphic>FALSE</anamorphic>
										<pixelaspectratio>square</pixelaspectratio>
										<fielddominance>none</fielddominance>
									</samplecharacteristics>
								</video>
							</media>
						</file>
						<logginginfo>
							<description></description>
							<scene></scene>
							<shottake></shottake>
							<lognote></lognote>
							<good></good>
							<originalvideofilename></originalvideofilename>
							<originalaudiofilename></originalaudiofilename>
						</logginginfo>
						<colorinfo>
							<lut></lut>
							<lut1></lut1>
							<asc_sop></asc_sop>
							<asc_sat></asc_sat>
							<lut2></lut2>
						</colorinfo>
						<labels>
							<label2>Violet</label2>
						</labels>
					</clipitem>
					<clipitem id="clipitem-1224">
						<masterclipid>masterclip-1221</masterclipid>
						<name>TKO_018_SEW_Sh12770.mov</name>
						<enabled>TRUE</enabled>
						<duration>38</duration>
						<rate>
							<timebase>24</timebase>
							<ntsc>TRUE</ntsc>
						</rate>
						<start>90848</start>
						<end>90878</end>
						<in>4</in>
						<out>34</out>
						<pproTicksIn>42378336000</pproTicksIn>
						<pproTicksOut>360215856000</pproTicksOut>
						<alphatype>none</alphatype>
						<pixelaspectratio>square</pixelaspectratio>
						<anamorphic>FALSE</anamorphic>
						<file id="file-1221">
							<name>TKO_018_SEW_Sh12770.mov</name>
							<pathurl>file://tri-stor01/Projects/TKO/SHOTS/_Refs_Movs_Burnin_FrameCounter/TKO_018_SEW_Sh12770.mov</pathurl>
							<rate>
								<timebase>24</timebase>
								<ntsc>TRUE</ntsc>
							</rate>
							<duration>38</duration>
							<timecode>
								<rate>
									<timebase>24</timebase>
									<ntsc>TRUE</ntsc>
								</rate>
								<string>19:41:01:02</string>
								<frame>1700666</frame>
								<displayformat>NDF</displayformat>
								<reel>
									<name>A0240013</name>
								</reel>
							</timecode>
							<media>
								<video>
									<samplecharacteristics>
										<rate>
											<timebase>24</timebase>
											<ntsc>TRUE</ntsc>
										</rate>
										<width>4096</width>
										<height>2160</height>
										<anamorphic>FALSE</anamorphic>
										<pixelaspectratio>square</pixelaspectratio>
										<fielddominance>none</fielddominance>
									</samplecharacteristics>
								</video>
							</media>
						</file>
						<logginginfo>
							<description></description>
							<scene></scene>
							<shottake></shottake>
							<lognote></lognote>
							<good></good>
							<originalvideofilename></originalvideofilename>
							<originalaudiofilename></originalaudiofilename>
						</logginginfo>
						<colorinfo>
							<lut></lut>
							<lut1></lut1>
							<asc_sop></asc_sop>
							<asc_sat></asc_sat>
							<lut2></lut2>
						</colorinfo>
						<labels>
							<label2>Violet</label2>
						</labels>
					</clipitem>
					<clipitem id="clipitem-1225">
						<masterclipid>masterclip-1222</masterclipid>
						<name>TKO_018_SEW_Sh12780.mov</name>
						<enabled>TRUE</enabled>
						<duration>124</duration>
						<rate>
							<timebase>24</timebase>
							<ntsc>TRUE</ntsc>
						</rate>
						<start>90878</start>
						<end>90994</end>
						<in>4</in>
						<out>120</out>
						<pproTicksIn>42378336000</pproTicksIn>
						<pproTicksOut>1271350080000</pproTicksOut>
						<alphatype>none</alphatype>
						<pixelaspectratio>square</pixelaspectratio>
						<anamorphic>FALSE</anamorphic>
						<file id="file-1222">
							<name>TKO_018_SEW_Sh12780.mov</name>
							<pathurl>file://tri-stor01/Projects/TKO/SHOTS/_Refs_Movs_Burnin_FrameCounter/TKO_018_SEW_Sh12780.mov</pathurl>
							<rate>
								<timebase>24</timebase>
								<ntsc>TRUE</ntsc>
							</rate>
							<duration>124</duration>
							<timecode>
								<rate>
									<timebase>24</timebase>
									<ntsc>TRUE</ntsc>
								</rate>
								<string>15:27:35:09</string>
								<frame>1335729</frame>
								<displayformat>NDF</displayformat>
								<reel>
									<name>B0180003</name>
								</reel>
							</timecode>
							<media>
								<video>
									<samplecharacteristics>
										<rate>
											<timebase>24</timebase>
											<ntsc>TRUE</ntsc>
										</rate>
										<width>4096</width>
										<height>2160</height>
										<anamorphic>FALSE</anamorphic>
										<pixelaspectratio>square</pixelaspectratio>
										<fielddominance>none</fielddominance>
									</samplecharacteristics>
								</video>
							</media>
						</file>
						<logginginfo>
							<description></description>
							<scene></scene>
							<shottake></shottake>
							<lognote></lognote>
							<good></good>
							<originalvideofilename></originalvideofilename>
							<originalaudiofilename></originalaudiofilename>
						</logginginfo>
						<colorinfo>
							<lut></lut>
							<lut1></lut1>
							<asc_sop></asc_sop>
							<asc_sat></asc_sat>
							<lut2></lut2>
						</colorinfo>
						<labels>
							<label2>Violet</label2>
						</labels>
					</clipitem>
					<clipitem id="clipitem-1226">
						<masterclipid>masterclip-1223</masterclipid>
						<name>TKO_018_SEW_Sh12790.mov</name>
						<enabled>TRUE</enabled>
						<duration>31</duration>
						<rate>
							<timebase>24</timebase>
							<ntsc>TRUE</ntsc>
						</rate>
						<start>90994</start>
						<end>91017</end>
						<in>4</in>
						<out>27</out>
						<pproTicksIn>42378336000</pproTicksIn>
						<pproTicksOut>286053768000</pproTicksOut>
						<alphatype>none</alphatype>
						<pixelaspectratio>square</pixelaspectratio>
						<anamorphic>FALSE</anamorphic>
						<file id="file-1223">
							<name>TKO_018_SEW_Sh12790.mov</name>
							<pathurl>file://tri-stor01/Projects/TKO/SHOTS/_Refs_Movs_Burnin_FrameCounter/TKO_018_SEW_Sh12790.mov</pathurl>
							<rate>
								<timebase>24</timebase>
								<ntsc>TRUE</ntsc>
							</rate>
							<duration>31</duration>
							<timecode>
								<rate>
									<timebase>24</timebase>
									<ntsc>TRUE</ntsc>
								</rate>
								<string>15:27:40:05</string>
								<frame>1335845</frame>
								<displayformat>NDF</displayformat>
								<reel>
									<name>A0210002</name>
								</reel>
							</timecode>
							<media>
								<video>
									<samplecharacteristics>
										<rate>
											<timebase>24</timebase>
											<ntsc>TRUE</ntsc>
										</rate>
										<width>4096</width>
										<height>2160</height>
										<anamorphic>FALSE</anamorphic>
										<pixelaspectratio>square</pixelaspectratio>
										<fielddominance>none</fielddominance>
									</samplecharacteristics>
								</video>
							</media>
						</file>
						<logginginfo>
							<description></description>
							<scene></scene>
							<shottake></shottake>
							<lognote></lognote>
							<good></good>
							<originalvideofilename></originalvideofilename>
							<originalaudiofilename></originalaudiofilename>
						</logginginfo>
						<colorinfo>
							<lut></lut>
							<lut1></lut1>
							<asc_sop></asc_sop>
							<asc_sat></asc_sat>
							<lut2></lut2>
						</colorinfo>
						<labels>
							<label2>Violet</label2>
						</labels>
					</clipitem>
					<clipitem id="clipitem-1227">
						<masterclipid>masterclip-1224</masterclipid>
						<name>TKO_018_SEW_Sh12800.mov</name>
						<enabled>TRUE</enabled>
						<duration>44</duration>
						<rate>
							<timebase>24</timebase>
							<ntsc>TRUE</ntsc>
						</rate>
						<start>91017</start>
						<end>91053</end>
						<in>4</in>
						<out>40</out>
						<pproTicksIn>42378336000</pproTicksIn>
						<pproTicksOut>423783360000</pproTicksOut>
						<alphatype>none</alphatype>
						<pixelaspectratio>square</pixelaspectratio>
						<anamorphic>FALSE</anamorphic>
						<file id="file-1224">
							<name>TKO_018_SEW_Sh12800.mov</name>
							<pathurl>file://tri-stor01/Projects/TKO/SHOTS/_Refs_Movs_Burnin_FrameCounter/TKO_018_SEW_Sh12800.mov</pathurl>
							<rate>
								<timebase>24</timebase>
								<ntsc>TRUE</ntsc>
							</rate>
							<duration>44</duration>
							<timecode>
								<rate>
									<timebase>24</timebase>
									<ntsc>TRUE</ntsc>
								</rate>
								<string>16:13:40:05</string>
								<frame>1402085</frame>
								<displayformat>NDF</displayformat>
								<reel>
									<name>A0210005</name>
								</reel>
							</timecode>
							<media>
								<video>
									<samplecharacteristics>
										<rate>
											<timebase>24</timebase>
											<ntsc>TRUE</ntsc>
										</rate>
										<width>4096</width>
										<height>2160</height>
										<anamorphic>FALSE</anamorphic>
										<pixelaspectratio>square</pixelaspectratio>
										<fielddominance>none</fielddominance>
									</samplecharacteristics>
								</video>
							</media>
						</file>
						<logginginfo>
							<description></description>
							<scene></scene>
							<shottake></shottake>
							<lognote></lognote>
							<good></good>
							<originalvideofilename></originalvideofilename>
							<originalaudiofilename></originalaudiofilename>
						</logginginfo>
						<colorinfo>
							<lut></lut>
							<lut1></lut1>
							<asc_sop></asc_sop>
							<asc_sat></asc_sat>
							<lut2></lut2>
						</colorinfo>
						<labels>
							<label2>Violet</label2>
						</labels>
					</clipitem>
					<clipitem id="clipitem-1228">
						<masterclipid>masterclip-1225</masterclipid>
						<name>TKO_018_SEW_Sh12810.mov</name>
						<enabled>TRUE</enabled>
						<duration>40</duration>
						<rate>
							<timebase>24</timebase>
							<ntsc>TRUE</ntsc>
						</rate>
						<start>91053</start>
						<end>91085</end>
						<in>4</in>
						<out>36</out>
						<pproTicksIn>42378336000</pproTicksIn>
						<pproTicksOut>381405024000</pproTicksOut>
						<alphatype>none</alphatype>
						<pixelaspectratio>square</pixelaspectratio>
						<anamorphic>FALSE</anamorphic>
						<file id="file-1225">
							<name>TKO_018_SEW_Sh12810.mov</name>
							<pathurl>file://tri-stor01/Projects/TKO/SHOTS/_Refs_Movs_Burnin_FrameCounter/TKO_018_SEW_Sh12810.mov</pathurl>
							<rate>
								<timebase>24</timebase>
								<ntsc>TRUE</ntsc>
							</rate>
							<duration>40</duration>
							<timecode>
								<rate>
									<timebase>24</timebase>
									<ntsc>TRUE</ntsc>
								</rate>
								<string>15:27:43:21</string>
								<frame>1335933</frame>
								<displayformat>NDF</displayformat>
								<reel>
									<name>B0180003</name>
								</reel>
							</timecode>
							<media>
								<video>
									<samplecharacteristics>
										<rate>
											<timebase>24</timebase>
											<ntsc>TRUE</ntsc>
										</rate>
										<width>4096</width>
										<height>2160</height>
										<anamorphic>FALSE</anamorphic>
										<pixelaspectratio>square</pixelaspectratio>
										<fielddominance>none</fielddominance>
									</samplecharacteristics>
								</video>
							</media>
						</file>
						<logginginfo>
							<description></description>
							<scene></scene>
							<shottake></shottake>
							<lognote></lognote>
							<good></good>
							<originalvideofilename></originalvideofilename>
							<originalaudiofilename></originalaudiofilename>
						</logginginfo>
						<colorinfo>
							<lut></lut>
							<lut1></lut1>
							<asc_sop></asc_sop>
							<asc_sat></asc_sat>
							<lut2></lut2>
						</colorinfo>
						<labels>
							<label2>Violet</label2>
						</labels>
					</clipitem>
					<clipitem id="clipitem-1229">
						<masterclipid>masterclip-1226</masterclipid>
						<name>TKO_018_SEW_Sh12820.mov</name>
						<enabled>TRUE</enabled>
						<duration>33</duration>
						<rate>
							<timebase>24</timebase>
							<ntsc>TRUE</ntsc>
						</rate>
						<start>91085</start>
						<end>91110</end>
						<in>4</in>
						<out>29</out>
						<pproTicksIn>42378336000</pproTicksIn>
						<pproTicksOut>307242936000</pproTicksOut>
						<alphatype>none</alphatype>
						<pixelaspectratio>square</pixelaspectratio>
						<anamorphic>FALSE</anamorphic>
						<file id="file-1226">
							<name>TKO_018_SEW_Sh12820.mov</name>
							<pathurl>file://tri-stor01/Projects/TKO/SHOTS/_Refs_Movs_Burnin_FrameCounter/TKO_018_SEW_Sh12820.mov</pathurl>
							<rate>
								<timebase>24</timebase>
								<ntsc>TRUE</ntsc>
							</rate>
							<duration>33</duration>
							<timecode>
								<rate>
									<timebase>24</timebase>
									<ntsc>TRUE</ntsc>
								</rate>
								<string>15:27:46:03</string>
								<frame>1335987</frame>
								<displayformat>NDF</displayformat>
								<reel>
									<name>A0210002</name>
								</reel>
							</timecode>
							<media>
								<video>
									<samplecharacteristics>
										<rate>
											<timebase>24</timebase>
											<ntsc>TRUE</ntsc>
										</rate>
										<width>4096</width>
										<height>2160</height>
										<anamorphic>FALSE</anamorphic>
										<pixelaspectratio>square</pixelaspectratio>
										<fielddominance>none</fielddominance>
									</samplecharacteristics>
								</video>
							</media>
						</file>
						<logginginfo>
							<description></description>
							<scene></scene>
							<shottake></shottake>
							<lognote></lognote>
							<good></good>
							<originalvideofilename></originalvideofilename>
							<originalaudiofilename></originalaudiofilename>
						</logginginfo>
						<colorinfo>
							<lut></lut>
							<lut1></lut1>
							<asc_sop></asc_sop>
							<asc_sat></asc_sat>
							<lut2></lut2>
						</colorinfo>
						<labels>
							<label2>Violet</label2>
						</labels>
					</clipitem>
					<clipitem id="clipitem-1230">
						<masterclipid>masterclip-1227</masterclipid>
						<name>TKO_018_SEW_Sh12830.mov</name>
						<enabled>TRUE</enabled>
						<duration>37</duration>
						<rate>
							<timebase>24</timebase>
							<ntsc>TRUE</ntsc>
						</rate>
						<start>91110</start>
						<end>91139</end>
						<in>4</in>
						<out>33</out>
						<pproTicksIn>42378336000</pproTicksIn>
						<pproTicksOut>349621272000</pproTicksOut>
						<alphatype>none</alphatype>
						<pixelaspectratio>square</pixelaspectratio>
						<anamorphic>FALSE</anamorphic>
						<file id="file-1227">
							<name>TKO_018_SEW_Sh12830.mov</name>
							<pathurl>file://tri-stor01/Projects/TKO/SHOTS/_Refs_Movs_Burnin_FrameCounter/TKO_018_SEW_Sh12830.mov</pathurl>
							<rate>
								<timebase>24</timebase>
								<ntsc>TRUE</ntsc>
							</rate>
							<duration>37</duration>
							<timecode>
								<rate>
									<timebase>24</timebase>
									<ntsc>TRUE</ntsc>
								</rate>
								<string>16:13:43:21</string>
								<frame>1402173</frame>
								<displayformat>NDF</displayformat>
								<reel>
									<name>A0210005</name>
								</reel>
							</timecode>
							<media>
								<video>
									<samplecharacteristics>
										<rate>
											<timebase>24</timebase>
											<ntsc>TRUE</ntsc>
										</rate>
										<width>4096</width>
										<height>2160</height>
										<anamorphic>FALSE</anamorphic>
										<pixelaspectratio>square</pixelaspectratio>
										<fielddominance>none</fielddominance>
									</samplecharacteristics>
								</video>
							</media>
						</file>
						<logginginfo>
							<description></description>
							<scene></scene>
							<shottake></shottake>
							<lognote></lognote>
							<good></good>
							<originalvideofilename></originalvideofilename>
							<originalaudiofilename></originalaudiofilename>
						</logginginfo>
						<colorinfo>
							<lut></lut>
							<lut1></lut1>
							<asc_sop></asc_sop>
							<asc_sat></asc_sat>
							<lut2></lut2>
						</colorinfo>
						<labels>
							<label2>Violet</label2>
						</labels>
					</clipitem>
					<clipitem id="clipitem-1231">
						<masterclipid>masterclip-1228</masterclipid>
						<name>TKO_018_SEW_Sh12840.mov</name>
						<enabled>TRUE</enabled>
						<duration>23</duration>
						<rate>
							<timebase>24</timebase>
							<ntsc>TRUE</ntsc>
						</rate>
						<start>91139</start>
						<end>91154</end>
						<in>4</in>
						<out>19</out>
						<pproTicksIn>42378336000</pproTicksIn>
						<pproTicksOut>201297096000</pproTicksOut>
						<alphatype>none</alphatype>
						<pixelaspectratio>square</pixelaspectratio>
						<anamorphic>FALSE</anamorphic>
						<file id="file-1228">
							<name>TKO_018_SEW_Sh12840.mov</name>
							<pathurl>file://tri-stor01/Projects/TKO/SHOTS/_Refs_Movs_Burnin_FrameCounter/TKO_018_SEW_Sh12840.mov</pathurl>
							<rate>
								<timebase>24</timebase>
								<ntsc>TRUE</ntsc>
							</rate>
							<duration>23</duration>
							<timecode>
								<rate>
									<timebase>24</timebase>
									<ntsc>TRUE</ntsc>
								</rate>
								<string>15:27:48:09</string>
								<frame>1336041</frame>
								<displayformat>NDF</displayformat>
								<reel>
									<name>B0180003</name>
								</reel>
							</timecode>
							<media>
								<video>
									<samplecharacteristics>
										<rate>
											<timebase>24</timebase>
											<ntsc>TRUE</ntsc>
										</rate>
										<width>4096</width>
										<height>2160</height>
										<anamorphic>FALSE</anamorphic>
										<pixelaspectratio>square</pixelaspectratio>
										<fielddominance>none</fielddominance>
									</samplecharacteristics>
								</video>
							</media>
						</file>
						<logginginfo>
							<description></description>
							<scene></scene>
							<shottake></shottake>
							<lognote></lognote>
							<good></good>
							<originalvideofilename></originalvideofilename>
							<originalaudiofilename></originalaudiofilename>
						</logginginfo>
						<colorinfo>
							<lut></lut>
							<lut1></lut1>
							<asc_sop></asc_sop>
							<asc_sat></asc_sat>
							<lut2></lut2>
						</colorinfo>
						<labels>
							<label2>Violet</label2>
						</labels>
					</clipitem>
					<clipitem id="clipitem-1232">
						<masterclipid>masterclip-1229</masterclipid>
						<name>TKO_018_SEW_Sh12850_V02.mov</name>
						<enabled>TRUE</enabled>
						<duration>33</duration>
						<rate>
							<timebase>24</timebase>
							<ntsc>TRUE</ntsc>
						</rate>
						<start>91154</start>
						<end>91167</end>
						<in>4</in>
						<out>17</out>
						<pproTicksIn>42378336000</pproTicksIn>
						<pproTicksOut>180107928000</pproTicksOut>
						<alphatype>none</alphatype>
						<pixelaspectratio>square</pixelaspectratio>
						<anamorphic>FALSE</anamorphic>
						<file id="file-1229">
							<name>TKO_018_SEW_Sh12850_V02.mov</name>
							<pathurl>file://tri-stor01/Projects/TKO/SHOTS/_Refs_Movs_Burnin_FrameCounter/TKO_018_SEW_Sh12850_V02.mov</pathurl>
							<rate>
								<timebase>24</timebase>
								<ntsc>TRUE</ntsc>
							</rate>
							<duration>33</duration>
							<timecode>
								<rate>
									<timebase>24</timebase>
									<ntsc>TRUE</ntsc>
								</rate>
								<string>12:34:55:17</string>
								<frame>1087097</frame>
								<displayformat>NDF</displayformat>
								<reel>
									<name>A0250007</name>
								</reel>
							</timecode>
							<media>
								<video>
									<samplecharacteristics>
										<rate>
											<timebase>24</timebase>
											<ntsc>TRUE</ntsc>
										</rate>
										<width>4096</width>
										<height>2160</height>
										<anamorphic>FALSE</anamorphic>
										<pixelaspectratio>square</pixelaspectratio>
										<fielddominance>none</fielddominance>
									</samplecharacteristics>
								</video>
							</media>
						</file>
						<logginginfo>
							<description></description>
							<scene></scene>
							<shottake></shottake>
							<lognote></lognote>
							<good></good>
							<originalvideofilename></originalvideofilename>
							<originalaudiofilename></originalaudiofilename>
						</logginginfo>
						<colorinfo>
							<lut></lut>
							<lut1></lut1>
							<asc_sop></asc_sop>
							<asc_sat></asc_sat>
							<lut2></lut2>
						</colorinfo>
						<labels>
							<label2>Violet</label2>
						</labels>
					</clipitem>
					<clipitem id="clipitem-1233">
						<masterclipid>masterclip-1230</masterclipid>
						<name>TKO_018_SEW_Sh12860.mov</name>
						<enabled>TRUE</enabled>
						<duration>17</duration>
						<rate>
							<timebase>24</timebase>
							<ntsc>TRUE</ntsc>
						</rate>
						<start>91167</start>
						<end>91176</end>
						<in>4</in>
						<out>13</out>
						<pproTicksIn>42378336000</pproTicksIn>
						<pproTicksOut>137729592000</pproTicksOut>
						<alphatype>none</alphatype>
						<pixelaspectratio>square</pixelaspectratio>
						<anamorphic>FALSE</anamorphic>
						<file id="file-1230">
							<name>TKO_018_SEW_Sh12860.mov</name>
							<pathurl>file://tri-stor01/Projects/TKO/SHOTS/_Refs_Movs_Burnin_FrameCounter/TKO_018_SEW_Sh12860.mov</pathurl>
							<rate>
								<timebase>24</timebase>
								<ntsc>TRUE</ntsc>
							</rate>
							<duration>17</duration>
							<timecode>
								<rate>
									<timebase>24</timebase>
									<ntsc>TRUE</ntsc>
								</rate>
								<string>15:27:49:03</string>
								<frame>1336059</frame>
								<displayformat>NDF</displayformat>
								<reel>
									<name>B0180003</name>
								</reel>
							</timecode>
							<media>
								<video>
									<samplecharacteristics>
										<rate>
											<timebase>24</timebase>
											<ntsc>TRUE</ntsc>
										</rate>
										<width>4096</width>
										<height>2160</height>
										<anamorphic>FALSE</anamorphic>
										<pixelaspectratio>square</pixelaspectratio>
										<fielddominance>none</fielddominance>
									</samplecharacteristics>
								</video>
							</media>
						</file>
						<logginginfo>
							<description></description>
							<scene></scene>
							<shottake></shottake>
							<lognote></lognote>
							<good></good>
							<originalvideofilename></originalvideofilename>
							<originalaudiofilename></originalaudiofilename>
						</logginginfo>
						<colorinfo>
							<lut></lut>
							<lut1></lut1>
							<asc_sop></asc_sop>
							<asc_sat></asc_sat>
							<lut2></lut2>
						</colorinfo>
						<labels>
							<label2>Violet</label2>
						</labels>
					</clipitem>
					<clipitem id="clipitem-1234">
						<masterclipid>masterclip-1231</masterclipid>
						<name>TKO_018_SEW_Sh12870.mov</name>
						<enabled>TRUE</enabled>
						<duration>22</duration>
						<rate>
							<timebase>24</timebase>
							<ntsc>TRUE</ntsc>
						</rate>
						<start>91176</start>
						<end>91190</end>
						<in>4</in>
						<out>18</out>
						<pproTicksIn>42378336000</pproTicksIn>
						<pproTicksOut>190702512000</pproTicksOut>
						<alphatype>none</alphatype>
						<pixelaspectratio>square</pixelaspectratio>
						<anamorphic>FALSE</anamorphic>
						<file id="file-1231">
							<name>TKO_018_SEW_Sh12870.mov</name>
							<pathurl>file://tri-stor01/Projects/TKO/SHOTS/_Refs_Movs_Burnin_FrameCounter/TKO_018_SEW_Sh12870.mov</pathurl>
							<rate>
								<timebase>24</timebase>
								<ntsc>TRUE</ntsc>
							</rate>
							<duration>22</duration>
							<timecode>
								<rate>
									<timebase>24</timebase>
									<ntsc>TRUE</ntsc>
								</rate>
								<string>16:01:06:15</string>
								<frame>1383999</frame>
								<displayformat>NDF</displayformat>
								<reel>
									<name>A0210004</name>
								</reel>
							</timecode>
							<media>
								<video>
									<samplecharacteristics>
										<rate>
											<timebase>24</timebase>
											<ntsc>TRUE</ntsc>
										</rate>
										<width>4096</width>
										<height>2160</height>
										<anamorphic>FALSE</anamorphic>
										<pixelaspectratio>square</pixelaspectratio>
										<fielddominance>none</fielddominance>
									</samplecharacteristics>
								</video>
							</media>
						</file>
						<logginginfo>
							<description></description>
							<scene></scene>
							<shottake></shottake>
							<lognote></lognote>
							<good></good>
							<originalvideofilename></originalvideofilename>
							<originalaudiofilename></originalaudiofilename>
						</logginginfo>
						<colorinfo>
							<lut></lut>
							<lut1></lut1>
							<asc_sop></asc_sop>
							<asc_sat></asc_sat>
							<lut2></lut2>
						</colorinfo>
						<labels>
							<label2>Violet</label2>
						</labels>
					</clipitem>
					<clipitem id="clipitem-1235">
						<masterclipid>masterclip-1232</masterclipid>
						<name>TKO_018_SEW_Sh12880.mov</name>
						<enabled>TRUE</enabled>
						<duration>51</duration>
						<rate>
							<timebase>24</timebase>
							<ntsc>TRUE</ntsc>
						</rate>
						<start>91190</start>
						<end>91233</end>
						<in>4</in>
						<out>47</out>
						<pproTicksIn>42378336000</pproTicksIn>
						<pproTicksOut>497945448000</pproTicksOut>
						<alphatype>none</alphatype>
						<pixelaspectratio>square</pixelaspectratio>
						<anamorphic>FALSE</anamorphic>
						<file id="file-1232">
							<name>TKO_018_SEW_Sh12880.mov</name>
							<pathurl>file://tri-stor01/Projects/TKO/SHOTS/_Refs_Movs_Burnin_FrameCounter/TKO_018_SEW_Sh12880.mov</pathurl>
							<rate>
								<timebase>24</timebase>
								<ntsc>TRUE</ntsc>
							</rate>
							<duration>51</duration>
							<timecode>
								<rate>
									<timebase>24</timebase>
									<ntsc>TRUE</ntsc>
								</rate>
								<string>15:27:50:08</string>
								<frame>1336088</frame>
								<displayformat>NDF</displayformat>
								<reel>
									<name>A0210002</name>
								</reel>
							</timecode>
							<media>
								<video>
									<samplecharacteristics>
										<rate>
											<timebase>24</timebase>
											<ntsc>TRUE</ntsc>
										</rate>
										<width>4096</width>
										<height>2160</height>
										<anamorphic>FALSE</anamorphic>
										<pixelaspectratio>square</pixelaspectratio>
										<fielddominance>none</fielddominance>
									</samplecharacteristics>
								</video>
							</media>
						</file>
						<logginginfo>
							<description></description>
							<scene></scene>
							<shottake></shottake>
							<lognote></lognote>
							<good></good>
							<originalvideofilename></originalvideofilename>
							<originalaudiofilename></originalaudiofilename>
						</logginginfo>
						<colorinfo>
							<lut></lut>
							<lut1></lut1>
							<asc_sop></asc_sop>
							<asc_sat></asc_sat>
							<lut2></lut2>
						</colorinfo>
						<labels>
							<label2>Violet</label2>
						</labels>
					</clipitem>
					<clipitem id="clipitem-1236">
						<masterclipid>masterclip-1233</masterclipid>
						<name>TKO_018_SEW_Sh12890.mov</name>
						<enabled>TRUE</enabled>
						<duration>33</duration>
						<rate>
							<timebase>24</timebase>
							<ntsc>TRUE</ntsc>
						</rate>
						<start>91233</start>
						<end>91258</end>
						<in>4</in>
						<out>29</out>
						<pproTicksIn>42378336000</pproTicksIn>
						<pproTicksOut>307242936000</pproTicksOut>
						<alphatype>none</alphatype>
						<pixelaspectratio>square</pixelaspectratio>
						<anamorphic>FALSE</anamorphic>
						<file id="file-1233">
							<name>TKO_018_SEW_Sh12890.mov</name>
							<pathurl>file://tri-stor01/Projects/TKO/SHOTS/_Refs_Movs_Burnin_FrameCounter/TKO_018_SEW_Sh12890.mov</pathurl>
							<rate>
								<timebase>24</timebase>
								<ntsc>TRUE</ntsc>
							</rate>
							<duration>33</duration>
							<timecode>
								<rate>
									<timebase>24</timebase>
									<ntsc>TRUE</ntsc>
								</rate>
								<string>15:27:52:03</string>
								<frame>1336131</frame>
								<displayformat>NDF</displayformat>
								<reel>
									<name>B0180003</name>
								</reel>
							</timecode>
							<media>
								<video>
									<samplecharacteristics>
										<rate>
											<timebase>24</timebase>
											<ntsc>TRUE</ntsc>
										</rate>
										<width>4096</width>
										<height>2160</height>
										<anamorphic>FALSE</anamorphic>
										<pixelaspectratio>square</pixelaspectratio>
										<fielddominance>none</fielddominance>
									</samplecharacteristics>
								</video>
							</media>
						</file>
						<logginginfo>
							<description></description>
							<scene></scene>
							<shottake></shottake>
							<lognote></lognote>
							<good></good>
							<originalvideofilename></originalvideofilename>
							<originalaudiofilename></originalaudiofilename>
						</logginginfo>
						<colorinfo>
							<lut></lut>
							<lut1></lut1>
							<asc_sop></asc_sop>
							<asc_sat></asc_sat>
							<lut2></lut2>
						</colorinfo>
						<labels>
							<label2>Violet</label2>
						</labels>
					</clipitem>
					<clipitem id="clipitem-1237">
						<masterclipid>masterclip-1234</masterclipid>
						<name>TKO_018_SEW_Sh12900_V02.mov</name>
						<enabled>TRUE</enabled>
						<duration>35</duration>
						<rate>
							<timebase>24</timebase>
							<ntsc>TRUE</ntsc>
						</rate>
						<start>91258</start>
						<end>91273</end>
						<in>4</in>
						<out>19</out>
						<pproTicksIn>42378336000</pproTicksIn>
						<pproTicksOut>201297096000</pproTicksOut>
						<alphatype>none</alphatype>
						<pixelaspectratio>square</pixelaspectratio>
						<anamorphic>FALSE</anamorphic>
						<file id="file-1234">
							<name>TKO_018_SEW_Sh12900_V02.mov</name>
							<pathurl>file://tri-stor01/Projects/TKO/SHOTS/_Refs_Movs_Burnin_FrameCounter/TKO_018_SEW_Sh12900_V02.mov</pathurl>
							<rate>
								<timebase>24</timebase>
								<ntsc>TRUE</ntsc>
							</rate>
							<duration>35</duration>
							<timecode>
								<rate>
									<timebase>24</timebase>
									<ntsc>TRUE</ntsc>
								</rate>
								<string>12:34:56:14</string>
								<frame>1087118</frame>
								<displayformat>NDF</displayformat>
								<reel>
									<name>A0250007</name>
								</reel>
							</timecode>
							<media>
								<video>
									<samplecharacteristics>
										<rate>
											<timebase>24</timebase>
											<ntsc>TRUE</ntsc>
										</rate>
										<width>4096</width>
										<height>2160</height>
										<anamorphic>FALSE</anamorphic>
										<pixelaspectratio>square</pixelaspectratio>
										<fielddominance>none</fielddominance>
									</samplecharacteristics>
								</video>
							</media>
						</file>
						<logginginfo>
							<description></description>
							<scene></scene>
							<shottake></shottake>
							<lognote></lognote>
							<good></good>
							<originalvideofilename></originalvideofilename>
							<originalaudiofilename></originalaudiofilename>
						</logginginfo>
						<colorinfo>
							<lut></lut>
							<lut1></lut1>
							<asc_sop></asc_sop>
							<asc_sat></asc_sat>
							<lut2></lut2>
						</colorinfo>
						<labels>
							<label2>Violet</label2>
						</labels>
					</clipitem>
					<clipitem id="clipitem-1238">
						<masterclipid>masterclip-1235</masterclipid>
						<name>TKO_018_SEW_Sh12910.mov</name>
						<enabled>TRUE</enabled>
						<duration>29</duration>
						<rate>
							<timebase>24</timebase>
							<ntsc>TRUE</ntsc>
						</rate>
						<start>91273</start>
						<end>91294</end>
						<in>4</in>
						<out>25</out>
						<pproTicksIn>42378336000</pproTicksIn>
						<pproTicksOut>264864600000</pproTicksOut>
						<alphatype>none</alphatype>
						<pixelaspectratio>square</pixelaspectratio>
						<anamorphic>FALSE</anamorphic>
						<file id="file-1235">
							<name>TKO_018_SEW_Sh12910.mov</name>
							<pathurl>file://tri-stor01/Projects/TKO/SHOTS/_Refs_Movs_Burnin_FrameCounter/TKO_018_SEW_Sh12910.mov</pathurl>
							<rate>
								<timebase>24</timebase>
								<ntsc>TRUE</ntsc>
							</rate>
							<duration>29</duration>
							<timecode>
								<rate>
									<timebase>24</timebase>
									<ntsc>TRUE</ntsc>
								</rate>
								<string>15:27:53:04</string>
								<frame>1336156</frame>
								<displayformat>NDF</displayformat>
								<reel>
									<name>A0210002</name>
								</reel>
							</timecode>
							<media>
								<video>
									<samplecharacteristics>
										<rate>
											<timebase>24</timebase>
											<ntsc>TRUE</ntsc>
										</rate>
										<width>4096</width>
										<height>2160</height>
										<anamorphic>FALSE</anamorphic>
										<pixelaspectratio>square</pixelaspectratio>
										<fielddominance>none</fielddominance>
									</samplecharacteristics>
								</video>
							</media>
						</file>
						<logginginfo>
							<description></description>
							<scene></scene>
							<shottake></shottake>
							<lognote></lognote>
							<good></good>
							<originalvideofilename></originalvideofilename>
							<originalaudiofilename></originalaudiofilename>
						</logginginfo>
						<colorinfo>
							<lut></lut>
							<lut1></lut1>
							<asc_sop></asc_sop>
							<asc_sat></asc_sat>
							<lut2></lut2>
						</colorinfo>
						<labels>
							<label2>Violet</label2>
						</labels>
					</clipitem>
					<clipitem id="clipitem-1239">
						<masterclipid>masterclip-1236</masterclipid>
						<name>TKO_018_SEW_Sh12920_V02.mov</name>
						<enabled>TRUE</enabled>
						<duration>52</duration>
						<rate>
							<timebase>24</timebase>
							<ntsc>TRUE</ntsc>
						</rate>
						<start>91294</start>
						<end>91326</end>
						<in>4</in>
						<out>36</out>
						<pproTicksIn>42378336000</pproTicksIn>
						<pproTicksOut>381405024000</pproTicksOut>
						<alphatype>none</alphatype>
						<pixelaspectratio>square</pixelaspectratio>
						<anamorphic>FALSE</anamorphic>
						<file id="file-1236">
							<name>TKO_018_SEW_Sh12920_V02.mov</name>
							<pathurl>file://tri-stor01/Projects/TKO/SHOTS/_Refs_Movs_Burnin_FrameCounter/TKO_018_SEW_Sh12920_V02.mov</pathurl>
							<rate>
								<timebase>24</timebase>
								<ntsc>TRUE</ntsc>
							</rate>
							<duration>52</duration>
							<timecode>
								<rate>
									<timebase>24</timebase>
									<ntsc>TRUE</ntsc>
								</rate>
								<string>12:34:57:23</string>
								<frame>1087151</frame>
								<displayformat>NDF</displayformat>
								<reel>
									<name>A0250007</name>
								</reel>
							</timecode>
							<media>
								<video>
									<samplecharacteristics>
										<rate>
											<timebase>24</timebase>
											<ntsc>TRUE</ntsc>
										</rate>
										<width>4096</width>
										<height>2160</height>
										<anamorphic>FALSE</anamorphic>
										<pixelaspectratio>square</pixelaspectratio>
										<fielddominance>none</fielddominance>
									</samplecharacteristics>
								</video>
							</media>
						</file>
						<logginginfo>
							<description></description>
							<scene></scene>
							<shottake></shottake>
							<lognote></lognote>
							<good></good>
							<originalvideofilename></originalvideofilename>
							<originalaudiofilename></originalaudiofilename>
						</logginginfo>
						<colorinfo>
							<lut></lut>
							<lut1></lut1>
							<asc_sop></asc_sop>
							<asc_sat></asc_sat>
							<lut2></lut2>
						</colorinfo>
						<labels>
							<label2>Violet</label2>
						</labels>
					</clipitem>
					<clipitem id="clipitem-1240">
						<masterclipid>masterclip-1237</masterclipid>
						<name>TKO_018_SEW_Sh12930.mov</name>
						<enabled>TRUE</enabled>
						<duration>50</duration>
						<rate>
							<timebase>24</timebase>
							<ntsc>TRUE</ntsc>
						</rate>
						<start>91326</start>
						<end>91368</end>
						<in>4</in>
						<out>46</out>
						<pproTicksIn>42378336000</pproTicksIn>
						<pproTicksOut>487350864000</pproTicksOut>
						<alphatype>none</alphatype>
						<pixelaspectratio>square</pixelaspectratio>
						<anamorphic>FALSE</anamorphic>
						<file id="file-1237">
							<name>TKO_018_SEW_Sh12930.mov</name>
							<pathurl>file://tri-stor01/Projects/TKO/SHOTS/_Refs_Movs_Burnin_FrameCounter/TKO_018_SEW_Sh12930.mov</pathurl>
							<rate>
								<timebase>24</timebase>
								<ntsc>TRUE</ntsc>
							</rate>
							<duration>50</duration>
							<timecode>
								<rate>
									<timebase>24</timebase>
									<ntsc>TRUE</ntsc>
								</rate>
								<string>11:29:28:03</string>
								<frame>992835</frame>
								<displayformat>NDF</displayformat>
								<reel>
									<name>A0230002</name>
								</reel>
							</timecode>
							<media>
								<video>
									<samplecharacteristics>
										<rate>
											<timebase>24</timebase>
											<ntsc>TRUE</ntsc>
										</rate>
										<width>4096</width>
										<height>2160</height>
										<anamorphic>FALSE</anamorphic>
										<pixelaspectratio>square</pixelaspectratio>
										<fielddominance>none</fielddominance>
									</samplecharacteristics>
								</video>
							</media>
						</file>
						<logginginfo>
							<description></description>
							<scene></scene>
							<shottake></shottake>
							<lognote></lognote>
							<good></good>
							<originalvideofilename></originalvideofilename>
							<originalaudiofilename></originalaudiofilename>
						</logginginfo>
						<colorinfo>
							<lut></lut>
							<lut1></lut1>
							<asc_sop></asc_sop>
							<asc_sat></asc_sat>
							<lut2></lut2>
						</colorinfo>
						<labels>
							<label2>Violet</label2>
						</labels>
					</clipitem>
					<clipitem id="clipitem-1241">
						<masterclipid>masterclip-1238</masterclipid>
						<name>TKO_018_SEW_Sh12940.mov</name>
						<enabled>TRUE</enabled>
						<duration>65</duration>
						<rate>
							<timebase>24</timebase>
							<ntsc>TRUE</ntsc>
						</rate>
						<start>91368</start>
						<end>91425</end>
						<in>4</in>
						<out>61</out>
						<pproTicksIn>42378336000</pproTicksIn>
						<pproTicksOut>646269624000</pproTicksOut>
						<alphatype>none</alphatype>
						<pixelaspectratio>square</pixelaspectratio>
						<anamorphic>FALSE</anamorphic>
						<file id="file-1238">
							<name>TKO_018_SEW_Sh12940.mov</name>
							<pathurl>file://tri-stor01/Projects/TKO/SHOTS/_Refs_Movs_Burnin_FrameCounter/TKO_018_SEW_Sh12940.mov</pathurl>
							<rate>
								<timebase>24</timebase>
								<ntsc>TRUE</ntsc>
							</rate>
							<duration>65</duration>
							<timecode>
								<rate>
									<timebase>24</timebase>
									<ntsc>TRUE</ntsc>
								</rate>
								<string>06:46:40:08</string>
								<frame>585608</frame>
								<displayformat>NDF</displayformat>
								<reel>
									<name>C0150008</name>
								</reel>
							</timecode>
							<media>
								<video>
									<samplecharacteristics>
										<rate>
											<timebase>24</timebase>
											<ntsc>TRUE</ntsc>
										</rate>
										<width>3840</width>
										<height>2160</height>
										<anamorphic>FALSE</anamorphic>
										<pixelaspectratio>square</pixelaspectratio>
										<fielddominance>none</fielddominance>
									</samplecharacteristics>
								</video>
							</media>
						</file>
						<logginginfo>
							<description></description>
							<scene></scene>
							<shottake></shottake>
							<lognote></lognote>
							<good></good>
							<originalvideofilename></originalvideofilename>
							<originalaudiofilename></originalaudiofilename>
						</logginginfo>
						<colorinfo>
							<lut></lut>
							<lut1></lut1>
							<asc_sop></asc_sop>
							<asc_sat></asc_sat>
							<lut2></lut2>
						</colorinfo>
						<labels>
							<label2>Violet</label2>
						</labels>
					</clipitem>
					<clipitem id="clipitem-1242">
						<masterclipid>masterclip-1239</masterclipid>
						<name>TKO_018_SEW_Sh12950.mov</name>
						<enabled>TRUE</enabled>
						<duration>42</duration>
						<rate>
							<timebase>24</timebase>
							<ntsc>TRUE</ntsc>
						</rate>
						<start>91425</start>
						<end>91459</end>
						<in>4</in>
						<out>38</out>
						<pproTicksIn>42378336000</pproTicksIn>
						<pproTicksOut>402594192000</pproTicksOut>
						<alphatype>none</alphatype>
						<pixelaspectratio>square</pixelaspectratio>
						<anamorphic>FALSE</anamorphic>
						<file id="file-1239">
							<name>TKO_018_SEW_Sh12950.mov</name>
							<pathurl>file://tri-stor01/Projects/TKO/SHOTS/_Refs_Movs_Burnin_FrameCounter/TKO_018_SEW_Sh12950.mov</pathurl>
							<rate>
								<timebase>24</timebase>
								<ntsc>TRUE</ntsc>
							</rate>
							<duration>42</duration>
							<timecode>
								<rate>
									<timebase>24</timebase>
									<ntsc>TRUE</ntsc>
								</rate>
								<string>06:47:54:17</string>
								<frame>587393</frame>
								<displayformat>NDF</displayformat>
								<reel>
									<name>C0150009</name>
								</reel>
							</timecode>
							<media>
								<video>
									<samplecharacteristics>
										<rate>
											<timebase>24</timebase>
											<ntsc>TRUE</ntsc>
										</rate>
										<width>3840</width>
										<height>2160</height>
										<anamorphic>FALSE</anamorphic>
										<pixelaspectratio>square</pixelaspectratio>
										<fielddominance>none</fielddominance>
									</samplecharacteristics>
								</video>
							</media>
						</file>
						<logginginfo>
							<description></description>
							<scene></scene>
							<shottake></shottake>
							<lognote></lognote>
							<good></good>
							<originalvideofilename></originalvideofilename>
							<originalaudiofilename></originalaudiofilename>
						</logginginfo>
						<colorinfo>
							<lut></lut>
							<lut1></lut1>
							<asc_sop></asc_sop>
							<asc_sat></asc_sat>
							<lut2></lut2>
						</colorinfo>
						<labels>
							<label2>Violet</label2>
						</labels>
					</clipitem>
					<clipitem id="clipitem-1243">
						<masterclipid>masterclip-1240</masterclipid>
						<name>TKO_018_SEW_Sh12960.mov</name>
						<enabled>TRUE</enabled>
						<duration>19</duration>
						<rate>
							<timebase>24</timebase>
							<ntsc>TRUE</ntsc>
						</rate>
						<start>91459</start>
						<end>91470</end>
						<in>4</in>
						<out>15</out>
						<pproTicksIn>42378336000</pproTicksIn>
						<pproTicksOut>158918760000</pproTicksOut>
						<alphatype>none</alphatype>
						<pixelaspectratio>square</pixelaspectratio>
						<anamorphic>FALSE</anamorphic>
						<file id="file-1240">
							<name>TKO_018_SEW_Sh12960.mov</name>
							<pathurl>file://tri-stor01/Projects/TKO/SHOTS/_Refs_Movs_Burnin_FrameCounter/TKO_018_SEW_Sh12960.mov</pathurl>
							<rate>
								<timebase>24</timebase>
								<ntsc>TRUE</ntsc>
							</rate>
							<duration>19</duration>
							<timecode>
								<rate>
									<timebase>24</timebase>
									<ntsc>TRUE</ntsc>
								</rate>
								<string>06:46:44:07</string>
								<frame>585703</frame>
								<displayformat>NDF</displayformat>
								<reel>
									<name>C0150008</name>
								</reel>
							</timecode>
							<media>
								<video>
									<samplecharacteristics>
										<rate>
											<timebase>24</timebase>
											<ntsc>TRUE</ntsc>
										</rate>
										<width>3840</width>
										<height>2160</height>
										<anamorphic>FALSE</anamorphic>
										<pixelaspectratio>square</pixelaspectratio>
										<fielddominance>none</fielddominance>
									</samplecharacteristics>
								</video>
							</media>
						</file>
						<logginginfo>
							<description></description>
							<scene></scene>
							<shottake></shottake>
							<lognote></lognote>
							<good></good>
							<originalvideofilename></originalvideofilename>
							<originalaudiofilename></originalaudiofilename>
						</logginginfo>
						<colorinfo>
							<lut></lut>
							<lut1></lut1>
							<asc_sop></asc_sop>
							<asc_sat></asc_sat>
							<lut2></lut2>
						</colorinfo>
						<labels>
							<label2>Violet</label2>
						</labels>
					</clipitem>
					<clipitem id="clipitem-1244">
						<masterclipid>masterclip-1241</masterclipid>
						<name>TKO_018_SEW_Sh12970.mov</name>
						<enabled>TRUE</enabled>
						<duration>25</duration>
						<rate>
							<timebase>24</timebase>
							<ntsc>TRUE</ntsc>
						</rate>
						<start>91470</start>
						<end>91487</end>
						<in>4</in>
						<out>21</out>
						<pproTicksIn>42378336000</pproTicksIn>
						<pproTicksOut>222486264000</pproTicksOut>
						<alphatype>none</alphatype>
						<pixelaspectratio>square</pixelaspectratio>
						<anamorphic>FALSE</anamorphic>
						<file id="file-1241">
							<name>TKO_018_SEW_Sh12970.mov</name>
							<pathurl>file://tri-stor01/Projects/TKO/SHOTS/_Refs_Movs_Burnin_FrameCounter/TKO_018_SEW_Sh12970.mov</pathurl>
							<rate>
								<timebase>24</timebase>
								<ntsc>TRUE</ntsc>
							</rate>
							<duration>25</duration>
							<timecode>
								<rate>
									<timebase>24</timebase>
									<ntsc>TRUE</ntsc>
								</rate>
								<string>06:47:58:04</string>
								<frame>587476</frame>
								<displayformat>NDF</displayformat>
								<reel>
									<name>C0150009</name>
								</reel>
							</timecode>
							<media>
								<video>
									<samplecharacteristics>
										<rate>
											<timebase>24</timebase>
											<ntsc>TRUE</ntsc>
										</rate>
										<width>3840</width>
										<height>2160</height>
										<anamorphic>FALSE</anamorphic>
										<pixelaspectratio>square</pixelaspectratio>
										<fielddominance>none</fielddominance>
									</samplecharacteristics>
								</video>
							</media>
						</file>
						<logginginfo>
							<description></description>
							<scene></scene>
							<shottake></shottake>
							<lognote></lognote>
							<good></good>
							<originalvideofilename></originalvideofilename>
							<originalaudiofilename></originalaudiofilename>
						</logginginfo>
						<colorinfo>
							<lut></lut>
							<lut1></lut1>
							<asc_sop></asc_sop>
							<asc_sat></asc_sat>
							<lut2></lut2>
						</colorinfo>
						<labels>
							<label2>Violet</label2>
						</labels>
					</clipitem>
					<clipitem id="clipitem-1245">
						<masterclipid>masterclip-1242</masterclipid>
						<name>TKO_018_SEW_Sh12980.mov</name>
						<enabled>TRUE</enabled>
						<duration>40</duration>
						<rate>
							<timebase>24</timebase>
							<ntsc>TRUE</ntsc>
						</rate>
						<start>91487</start>
						<end>91519</end>
						<in>4</in>
						<out>36</out>
						<pproTicksIn>42378336000</pproTicksIn>
						<pproTicksOut>381405024000</pproTicksOut>
						<alphatype>none</alphatype>
						<pixelaspectratio>square</pixelaspectratio>
						<anamorphic>FALSE</anamorphic>
						<file id="file-1242">
							<name>TKO_018_SEW_Sh12980.mov</name>
							<pathurl>file://tri-stor01/Projects/TKO/SHOTS/_Refs_Movs_Burnin_FrameCounter/TKO_018_SEW_Sh12980.mov</pathurl>
							<rate>
								<timebase>24</timebase>
								<ntsc>TRUE</ntsc>
							</rate>
							<duration>40</duration>
							<timecode>
								<rate>
									<timebase>24</timebase>
									<ntsc>TRUE</ntsc>
								</rate>
								<string>06:50:23:03</string>
								<frame>590955</frame>
								<displayformat>NDF</displayformat>
								<reel>
									<name>C0150010</name>
								</reel>
							</timecode>
							<media>
								<video>
									<samplecharacteristics>
										<rate>
											<timebase>24</timebase>
											<ntsc>TRUE</ntsc>
										</rate>
										<width>3840</width>
										<height>2160</height>
										<anamorphic>FALSE</anamorphic>
										<pixelaspectratio>square</pixelaspectratio>
										<fielddominance>none</fielddominance>
									</samplecharacteristics>
								</video>
							</media>
						</file>
						<logginginfo>
							<description></description>
							<scene></scene>
							<shottake></shottake>
							<lognote></lognote>
							<good></good>
							<originalvideofilename></originalvideofilename>
							<originalaudiofilename></originalaudiofilename>
						</logginginfo>
						<colorinfo>
							<lut></lut>
							<lut1></lut1>
							<asc_sop></asc_sop>
							<asc_sat></asc_sat>
							<lut2></lut2>
						</colorinfo>
						<labels>
							<label2>Violet</label2>
						</labels>
					</clipitem>
					<clipitem id="clipitem-1246">
						<masterclipid>masterclip-1243</masterclipid>
						<name>TKO_018_SEW_Sh12990.mov</name>
						<enabled>TRUE</enabled>
						<duration>41</duration>
						<rate>
							<timebase>24</timebase>
							<ntsc>TRUE</ntsc>
						</rate>
						<start>91519</start>
						<end>91552</end>
						<in>4</in>
						<out>37</out>
						<pproTicksIn>42378336000</pproTicksIn>
						<pproTicksOut>391999608000</pproTicksOut>
						<alphatype>none</alphatype>
						<pixelaspectratio>square</pixelaspectratio>
						<anamorphic>FALSE</anamorphic>
						<file id="file-1243">
							<name>TKO_018_SEW_Sh12990.mov</name>
							<pathurl>file://tri-stor01/Projects/TKO/SHOTS/_Refs_Movs_Burnin_FrameCounter/TKO_018_SEW_Sh12990.mov</pathurl>
							<rate>
								<timebase>24</timebase>
								<ntsc>TRUE</ntsc>
							</rate>
							<duration>41</duration>
							<timecode>
								<rate>
									<timebase>24</timebase>
									<ntsc>TRUE</ntsc>
								</rate>
								<string>06:48:00:11</string>
								<frame>587531</frame>
								<displayformat>NDF</displayformat>
								<reel>
									<name>C0150009</name>
								</reel>
							</timecode>
							<media>
								<video>
									<samplecharacteristics>
										<rate>
											<timebase>24</timebase>
											<ntsc>TRUE</ntsc>
										</rate>
										<width>3840</width>
										<height>2160</height>
										<anamorphic>FALSE</anamorphic>
										<pixelaspectratio>square</pixelaspectratio>
										<fielddominance>none</fielddominance>
									</samplecharacteristics>
								</video>
							</media>
						</file>
						<logginginfo>
							<description></description>
							<scene></scene>
							<shottake></shottake>
							<lognote></lognote>
							<good></good>
							<originalvideofilename></originalvideofilename>
							<originalaudiofilename></originalaudiofilename>
						</logginginfo>
						<colorinfo>
							<lut></lut>
							<lut1></lut1>
							<asc_sop></asc_sop>
							<asc_sat></asc_sat>
							<lut2></lut2>
						</colorinfo>
						<labels>
							<label2>Violet</label2>
						</labels>
					</clipitem>
					<clipitem id="clipitem-1247">
						<masterclipid>masterclip-1244</masterclipid>
						<name>TKO_018_SEW_Sh13000.mov</name>
						<enabled>TRUE</enabled>
						<duration>56</duration>
						<rate>
							<timebase>24</timebase>
							<ntsc>TRUE</ntsc>
						</rate>
						<start>91552</start>
						<end>91600</end>
						<in>4</in>
						<out>52</out>
						<pproTicksIn>42378336000</pproTicksIn>
						<pproTicksOut>550918368000</pproTicksOut>
						<alphatype>none</alphatype>
						<pixelaspectratio>square</pixelaspectratio>
						<anamorphic>FALSE</anamorphic>
						<file id="file-1244">
							<name>TKO_018_SEW_Sh13000.mov</name>
							<pathurl>file://tri-stor01/Projects/TKO/SHOTS/_Refs_Movs_Burnin_FrameCounter/TKO_018_SEW_Sh13000.mov</pathurl>
							<rate>
								<timebase>24</timebase>
								<ntsc>TRUE</ntsc>
							</rate>
							<duration>56</duration>
							<timecode>
								<rate>
									<timebase>24</timebase>
									<ntsc>TRUE</ntsc>
								</rate>
								<string>11:24:51:17</string>
								<frame>986201</frame>
								<displayformat>NDF</displayformat>
								<reel>
									<name>B0190002</name>
								</reel>
							</timecode>
							<media>
								<video>
									<samplecharacteristics>
										<rate>
											<timebase>24</timebase>
											<ntsc>TRUE</ntsc>
										</rate>
										<width>4096</width>
										<height>2160</height>
										<anamorphic>FALSE</anamorphic>
										<pixelaspectratio>square</pixelaspectratio>
										<fielddominance>none</fielddominance>
									</samplecharacteristics>
								</video>
							</media>
						</file>
						<logginginfo>
							<description></description>
							<scene></scene>
							<shottake></shottake>
							<lognote></lognote>
							<good></good>
							<originalvideofilename></originalvideofilename>
							<originalaudiofilename></originalaudiofilename>
						</logginginfo>
						<colorinfo>
							<lut></lut>
							<lut1></lut1>
							<asc_sop></asc_sop>
							<asc_sat></asc_sat>
							<lut2></lut2>
						</colorinfo>
						<labels>
							<label2>Violet</label2>
						</labels>
					</clipitem>
					<clipitem id="clipitem-1248">
						<masterclipid>masterclip-1245</masterclipid>
						<name>TKO_018_SEW_Sh13010.mov</name>
						<enabled>TRUE</enabled>
						<duration>32</duration>
						<rate>
							<timebase>24</timebase>
							<ntsc>TRUE</ntsc>
						</rate>
						<start>91600</start>
						<end>91624</end>
						<in>4</in>
						<out>28</out>
						<pproTicksIn>42378336000</pproTicksIn>
						<pproTicksOut>296648352000</pproTicksOut>
						<alphatype>none</alphatype>
						<pixelaspectratio>square</pixelaspectratio>
						<anamorphic>FALSE</anamorphic>
						<file id="file-1245">
							<name>TKO_018_SEW_Sh13010.mov</name>
							<pathurl>file://tri-stor01/Projects/TKO/SHOTS/_Refs_Movs_Burnin_FrameCounter/TKO_018_SEW_Sh13010.mov</pathurl>
							<rate>
								<timebase>24</timebase>
								<ntsc>TRUE</ntsc>
							</rate>
							<duration>32</duration>
							<timecode>
								<rate>
									<timebase>24</timebase>
									<ntsc>TRUE</ntsc>
								</rate>
								<string>12:41:28:21</string>
								<frame>1096533</frame>
								<displayformat>NDF</displayformat>
								<reel>
									<name>B0190007</name>
								</reel>
							</timecode>
							<media>
								<video>
									<samplecharacteristics>
										<rate>
											<timebase>24</timebase>
											<ntsc>TRUE</ntsc>
										</rate>
										<width>4096</width>
										<height>2160</height>
										<anamorphic>FALSE</anamorphic>
										<pixelaspectratio>square</pixelaspectratio>
										<fielddominance>none</fielddominance>
									</samplecharacteristics>
								</video>
							</media>
						</file>
						<logginginfo>
							<description></description>
							<scene></scene>
							<shottake></shottake>
							<lognote></lognote>
							<good></good>
							<originalvideofilename></originalvideofilename>
							<originalaudiofilename></originalaudiofilename>
						</logginginfo>
						<colorinfo>
							<lut></lut>
							<lut1></lut1>
							<asc_sop></asc_sop>
							<asc_sat></asc_sat>
							<lut2></lut2>
						</colorinfo>
						<labels>
							<label2>Violet</label2>
						</labels>
					</clipitem>
					<clipitem id="clipitem-1249">
						<masterclipid>masterclip-1246</masterclipid>
						<name>TKO_018_SEW_Sh13020.mov</name>
						<enabled>TRUE</enabled>
						<duration>35</duration>
						<rate>
							<timebase>24</timebase>
							<ntsc>TRUE</ntsc>
						</rate>
						<start>91624</start>
						<end>91651</end>
						<in>4</in>
						<out>31</out>
						<pproTicksIn>42378336000</pproTicksIn>
						<pproTicksOut>328432104000</pproTicksOut>
						<alphatype>none</alphatype>
						<pixelaspectratio>square</pixelaspectratio>
						<anamorphic>FALSE</anamorphic>
						<file id="file-1246">
							<name>TKO_018_SEW_Sh13020.mov</name>
							<pathurl>file://tri-stor01/Projects/TKO/SHOTS/_Refs_Movs_Burnin_FrameCounter/TKO_018_SEW_Sh13020.mov</pathurl>
							<rate>
								<timebase>24</timebase>
								<ntsc>TRUE</ntsc>
							</rate>
							<duration>35</duration>
							<timecode>
								<rate>
									<timebase>24</timebase>
									<ntsc>TRUE</ntsc>
								</rate>
								<string>06:38:22:03</string>
								<frame>573651</frame>
								<displayformat>NDF</displayformat>
								<reel>
									<name>C0150003</name>
								</reel>
							</timecode>
							<media>
								<video>
									<samplecharacteristics>
										<rate>
											<timebase>24</timebase>
											<ntsc>TRUE</ntsc>
										</rate>
										<width>3840</width>
										<height>2160</height>
										<anamorphic>FALSE</anamorphic>
										<pixelaspectratio>square</pixelaspectratio>
										<fielddominance>none</fielddominance>
									</samplecharacteristics>
								</video>
							</media>
						</file>
						<logginginfo>
							<description></description>
							<scene></scene>
							<shottake></shottake>
							<lognote></lognote>
							<good></good>
							<originalvideofilename></originalvideofilename>
							<originalaudiofilename></originalaudiofilename>
						</logginginfo>
						<colorinfo>
							<lut></lut>
							<lut1></lut1>
							<asc_sop></asc_sop>
							<asc_sat></asc_sat>
							<lut2></lut2>
						</colorinfo>
						<labels>
							<label2>Violet</label2>
						</labels>
					</clipitem>
					<clipitem id="clipitem-1250">
						<masterclipid>masterclip-1247</masterclipid>
						<name>TKO_018_SEW_Sh13030.mov</name>
						<enabled>TRUE</enabled>
						<duration>76</duration>
						<rate>
							<timebase>24</timebase>
							<ntsc>TRUE</ntsc>
						</rate>
						<start>91651</start>
						<end>91719</end>
						<in>4</in>
						<out>72</out>
						<pproTicksIn>42378336000</pproTicksIn>
						<pproTicksOut>762810048000</pproTicksOut>
						<alphatype>none</alphatype>
						<pixelaspectratio>square</pixelaspectratio>
						<anamorphic>FALSE</anamorphic>
						<file id="file-1247">
							<name>TKO_018_SEW_Sh13030.mov</name>
							<pathurl>file://tri-stor01/Projects/TKO/SHOTS/_Refs_Movs_Burnin_FrameCounter/TKO_018_SEW_Sh13030.mov</pathurl>
							<rate>
								<timebase>24</timebase>
								<ntsc>TRUE</ntsc>
							</rate>
							<duration>76</duration>
							<timecode>
								<rate>
									<timebase>24</timebase>
									<ntsc>TRUE</ntsc>
								</rate>
								<string>12:41:31:06</string>
								<frame>1096590</frame>
								<displayformat>NDF</displayformat>
								<reel>
									<name>B0190007</name>
								</reel>
							</timecode>
							<media>
								<video>
									<samplecharacteristics>
										<rate>
											<timebase>24</timebase>
											<ntsc>TRUE</ntsc>
										</rate>
										<width>4096</width>
										<height>2160</height>
										<anamorphic>FALSE</anamorphic>
										<pixelaspectratio>square</pixelaspectratio>
										<fielddominance>none</fielddominance>
									</samplecharacteristics>
								</video>
							</media>
						</file>
						<logginginfo>
							<description></description>
							<scene></scene>
							<shottake></shottake>
							<lognote></lognote>
							<good></good>
							<originalvideofilename></originalvideofilename>
							<originalaudiofilename></originalaudiofilename>
						</logginginfo>
						<colorinfo>
							<lut></lut>
							<lut1></lut1>
							<asc_sop></asc_sop>
							<asc_sat></asc_sat>
							<lut2></lut2>
						</colorinfo>
						<labels>
							<label2>Violet</label2>
						</labels>
					</clipitem>
					<clipitem id="clipitem-1251">
						<masterclipid>masterclip-1248</masterclipid>
						<name>TKO_018_SEW_Sh13040.mov</name>
						<enabled>TRUE</enabled>
						<duration>40</duration>
						<rate>
							<timebase>24</timebase>
							<ntsc>TRUE</ntsc>
						</rate>
						<start>91719</start>
						<end>91751</end>
						<in>4</in>
						<out>36</out>
						<pproTicksIn>42378336000</pproTicksIn>
						<pproTicksOut>381405024000</pproTicksOut>
						<alphatype>none</alphatype>
						<pixelaspectratio>square</pixelaspectratio>
						<anamorphic>FALSE</anamorphic>
						<file id="file-1248">
							<name>TKO_018_SEW_Sh13040.mov</name>
							<pathurl>file://tri-stor01/Projects/TKO/SHOTS/_Refs_Movs_Burnin_FrameCounter/TKO_018_SEW_Sh13040.mov</pathurl>
							<rate>
								<timebase>24</timebase>
								<ntsc>TRUE</ntsc>
							</rate>
							<duration>40</duration>
							<timecode>
								<rate>
									<timebase>24</timebase>
									<ntsc>TRUE</ntsc>
								</rate>
								<string>06:38:24:16</string>
								<frame>573712</frame>
								<displayformat>NDF</displayformat>
								<reel>
									<name>C0150003</name>
								</reel>
							</timecode>
							<media>
								<video>
									<samplecharacteristics>
										<rate>
											<timebase>24</timebase>
											<ntsc>TRUE</ntsc>
										</rate>
										<width>3840</width>
										<height>2160</height>
										<anamorphic>FALSE</anamorphic>
										<pixelaspectratio>square</pixelaspectratio>
										<fielddominance>none</fielddominance>
									</samplecharacteristics>
								</video>
							</media>
						</file>
						<logginginfo>
							<description></description>
							<scene></scene>
							<shottake></shottake>
							<lognote></lognote>
							<good></good>
							<originalvideofilename></originalvideofilename>
							<originalaudiofilename></originalaudiofilename>
						</logginginfo>
						<colorinfo>
							<lut></lut>
							<lut1></lut1>
							<asc_sop></asc_sop>
							<asc_sat></asc_sat>
							<lut2></lut2>
						</colorinfo>
						<labels>
							<label2>Violet</label2>
						</labels>
					</clipitem>
					<clipitem id="clipitem-1252">
						<masterclipid>masterclip-1249</masterclipid>
						<name>TKO_018_SEW_Sh13050.mov</name>
						<enabled>TRUE</enabled>
						<duration>67</duration>
						<rate>
							<timebase>24</timebase>
							<ntsc>TRUE</ntsc>
						</rate>
						<start>91751</start>
						<end>91810</end>
						<in>4</in>
						<out>63</out>
						<pproTicksIn>42378336000</pproTicksIn>
						<pproTicksOut>667458792000</pproTicksOut>
						<alphatype>none</alphatype>
						<pixelaspectratio>square</pixelaspectratio>
						<anamorphic>FALSE</anamorphic>
						<file id="file-1249">
							<name>TKO_018_SEW_Sh13050.mov</name>
							<pathurl>file://tri-stor01/Projects/TKO/SHOTS/_Refs_Movs_Burnin_FrameCounter/TKO_018_SEW_Sh13050.mov</pathurl>
							<rate>
								<timebase>24</timebase>
								<ntsc>TRUE</ntsc>
							</rate>
							<duration>67</duration>
							<timecode>
								<rate>
									<timebase>24</timebase>
									<ntsc>TRUE</ntsc>
								</rate>
								<string>06:48:43:11</string>
								<frame>588563</frame>
								<displayformat>NDF</displayformat>
								<reel>
									<name>C0150009</name>
								</reel>
							</timecode>
							<media>
								<video>
									<samplecharacteristics>
										<rate>
											<timebase>24</timebase>
											<ntsc>TRUE</ntsc>
										</rate>
										<width>3840</width>
										<height>2160</height>
										<anamorphic>FALSE</anamorphic>
										<pixelaspectratio>square</pixelaspectratio>
										<fielddominance>none</fielddominance>
									</samplecharacteristics>
								</video>
							</media>
						</file>
						<logginginfo>
							<description></description>
							<scene></scene>
							<shottake></shottake>
							<lognote></lognote>
							<good></good>
							<originalvideofilename></originalvideofilename>
							<originalaudiofilename></originalaudiofilename>
						</logginginfo>
						<colorinfo>
							<lut></lut>
							<lut1></lut1>
							<asc_sop></asc_sop>
							<asc_sat></asc_sat>
							<lut2></lut2>
						</colorinfo>
						<labels>
							<label2>Violet</label2>
						</labels>
					</clipitem>
					<clipitem id="clipitem-1253">
						<masterclipid>masterclip-1250</masterclipid>
						<name>TKO_018_SEW_Sh13060.mov</name>
						<enabled>TRUE</enabled>
						<duration>55</duration>
						<rate>
							<timebase>24</timebase>
							<ntsc>TRUE</ntsc>
						</rate>
						<start>91810</start>
						<end>91857</end>
						<in>4</in>
						<out>51</out>
						<pproTicksIn>42378336000</pproTicksIn>
						<pproTicksOut>540323784000</pproTicksOut>
						<alphatype>none</alphatype>
						<pixelaspectratio>square</pixelaspectratio>
						<anamorphic>FALSE</anamorphic>
						<file id="file-1250">
							<name>TKO_018_SEW_Sh13060.mov</name>
							<pathurl>file://tri-stor01/Projects/TKO/SHOTS/_Refs_Movs_Burnin_FrameCounter/TKO_018_SEW_Sh13060.mov</pathurl>
							<rate>
								<timebase>24</timebase>
								<ntsc>TRUE</ntsc>
							</rate>
							<duration>55</duration>
							<timecode>
								<rate>
									<timebase>24</timebase>
									<ntsc>TRUE</ntsc>
								</rate>
								<string>06:44:30:19</string>
								<frame>582499</frame>
								<displayformat>NDF</displayformat>
								<reel>
									<name>C0150007</name>
								</reel>
							</timecode>
							<media>
								<video>
									<samplecharacteristics>
										<rate>
											<timebase>24</timebase>
											<ntsc>TRUE</ntsc>
										</rate>
										<width>3840</width>
										<height>2160</height>
										<anamorphic>FALSE</anamorphic>
										<pixelaspectratio>square</pixelaspectratio>
										<fielddominance>none</fielddominance>
									</samplecharacteristics>
								</video>
							</media>
						</file>
						<logginginfo>
							<description></description>
							<scene></scene>
							<shottake></shottake>
							<lognote></lognote>
							<good></good>
							<originalvideofilename></originalvideofilename>
							<originalaudiofilename></originalaudiofilename>
						</logginginfo>
						<colorinfo>
							<lut></lut>
							<lut1></lut1>
							<asc_sop></asc_sop>
							<asc_sat></asc_sat>
							<lut2></lut2>
						</colorinfo>
						<labels>
							<label2>Violet</label2>
						</labels>
					</clipitem>
					<clipitem id="clipitem-1254">
						<masterclipid>masterclip-1251</masterclipid>
						<name>TKO_018_SEW_Sh13070.mov</name>
						<enabled>TRUE</enabled>
						<duration>47</duration>
						<rate>
							<timebase>24</timebase>
							<ntsc>TRUE</ntsc>
						</rate>
						<start>91857</start>
						<end>91896</end>
						<in>4</in>
						<out>43</out>
						<pproTicksIn>42378336000</pproTicksIn>
						<pproTicksOut>455567112000</pproTicksOut>
						<alphatype>none</alphatype>
						<pixelaspectratio>square</pixelaspectratio>
						<anamorphic>FALSE</anamorphic>
						<file id="file-1251">
							<name>TKO_018_SEW_Sh13070.mov</name>
							<pathurl>file://tri-stor01/Projects/TKO/SHOTS/_Refs_Movs_Burnin_FrameCounter/TKO_018_SEW_Sh13070.mov</pathurl>
							<rate>
								<timebase>24</timebase>
								<ntsc>TRUE</ntsc>
							</rate>
							<duration>47</duration>
							<timecode>
								<rate>
									<timebase>24</timebase>
									<ntsc>TRUE</ntsc>
								</rate>
								<string>06:50:45:14</string>
								<frame>591494</frame>
								<displayformat>NDF</displayformat>
								<reel>
									<name>C0150010</name>
								</reel>
							</timecode>
							<media>
								<video>
									<samplecharacteristics>
										<rate>
											<timebase>24</timebase>
											<ntsc>TRUE</ntsc>
										</rate>
										<width>3840</width>
										<height>2160</height>
										<anamorphic>FALSE</anamorphic>
										<pixelaspectratio>square</pixelaspectratio>
										<fielddominance>none</fielddominance>
									</samplecharacteristics>
								</video>
							</media>
						</file>
						<logginginfo>
							<description></description>
							<scene></scene>
							<shottake></shottake>
							<lognote></lognote>
							<good></good>
							<originalvideofilename></originalvideofilename>
							<originalaudiofilename></originalaudiofilename>
						</logginginfo>
						<colorinfo>
							<lut></lut>
							<lut1></lut1>
							<asc_sop></asc_sop>
							<asc_sat></asc_sat>
							<lut2></lut2>
						</colorinfo>
						<labels>
							<label2>Violet</label2>
						</labels>
					</clipitem>
					<clipitem id="clipitem-1255">
						<masterclipid>masterclip-1252</masterclipid>
						<name>TKO_018_SEW_Sh13080.mov</name>
						<enabled>TRUE</enabled>
						<duration>71</duration>
						<rate>
							<timebase>24</timebase>
							<ntsc>TRUE</ntsc>
						</rate>
						<start>91896</start>
						<end>91959</end>
						<in>4</in>
						<out>67</out>
						<pproTicksIn>42378336000</pproTicksIn>
						<pproTicksOut>709837128000</pproTicksOut>
						<alphatype>none</alphatype>
						<pixelaspectratio>square</pixelaspectratio>
						<anamorphic>FALSE</anamorphic>
						<file id="file-1252">
							<name>TKO_018_SEW_Sh13080.mov</name>
							<pathurl>file://tri-stor01/Projects/TKO/SHOTS/_Refs_Movs_Burnin_FrameCounter/TKO_018_SEW_Sh13080.mov</pathurl>
							<rate>
								<timebase>24</timebase>
								<ntsc>TRUE</ntsc>
							</rate>
							<duration>71</duration>
							<timecode>
								<rate>
									<timebase>24</timebase>
									<ntsc>TRUE</ntsc>
								</rate>
								<string>06:38:30:20</string>
								<frame>573860</frame>
								<displayformat>NDF</displayformat>
								<reel>
									<name>C0150003</name>
								</reel>
							</timecode>
							<media>
								<video>
									<samplecharacteristics>
										<rate>
											<timebase>24</timebase>
											<ntsc>TRUE</ntsc>
										</rate>
										<width>3840</width>
										<height>2160</height>
										<anamorphic>FALSE</anamorphic>
										<pixelaspectratio>square</pixelaspectratio>
										<fielddominance>none</fielddominance>
									</samplecharacteristics>
								</video>
							</media>
						</file>
						<logginginfo>
							<description></description>
							<scene></scene>
							<shottake></shottake>
							<lognote></lognote>
							<good></good>
							<originalvideofilename></originalvideofilename>
							<originalaudiofilename></originalaudiofilename>
						</logginginfo>
						<colorinfo>
							<lut></lut>
							<lut1></lut1>
							<asc_sop></asc_sop>
							<asc_sat></asc_sat>
							<lut2></lut2>
						</colorinfo>
						<labels>
							<label2>Violet</label2>
						</labels>
					</clipitem>
					<clipitem id="clipitem-1256">
						<masterclipid>masterclip-1253</masterclipid>
						<name>TKO_018_SEW_Sh13090.mov</name>
						<enabled>TRUE</enabled>
						<duration>31</duration>
						<rate>
							<timebase>24</timebase>
							<ntsc>TRUE</ntsc>
						</rate>
						<start>91959</start>
						<end>91982</end>
						<in>4</in>
						<out>27</out>
						<pproTicksIn>42378336000</pproTicksIn>
						<pproTicksOut>286053768000</pproTicksOut>
						<alphatype>none</alphatype>
						<pixelaspectratio>square</pixelaspectratio>
						<anamorphic>FALSE</anamorphic>
						<file id="file-1253">
							<name>TKO_018_SEW_Sh13090.mov</name>
							<pathurl>file://tri-stor01/Projects/TKO/SHOTS/_Refs_Movs_Burnin_FrameCounter/TKO_018_SEW_Sh13090.mov</pathurl>
							<rate>
								<timebase>24</timebase>
								<ntsc>TRUE</ntsc>
							</rate>
							<duration>31</duration>
							<timecode>
								<rate>
									<timebase>24</timebase>
									<ntsc>TRUE</ntsc>
								</rate>
								<string>06:49:11:18</string>
								<frame>589242</frame>
								<displayformat>NDF</displayformat>
								<reel>
									<name>C0150009</name>
								</reel>
							</timecode>
							<media>
								<video>
									<samplecharacteristics>
										<rate>
											<timebase>24</timebase>
											<ntsc>TRUE</ntsc>
										</rate>
										<width>3840</width>
										<height>2160</height>
										<anamorphic>FALSE</anamorphic>
										<pixelaspectratio>square</pixelaspectratio>
										<fielddominance>none</fielddominance>
									</samplecharacteristics>
								</video>
							</media>
						</file>
						<logginginfo>
							<description></description>
							<scene></scene>
							<shottake></shottake>
							<lognote></lognote>
							<good></good>
							<originalvideofilename></originalvideofilename>
							<originalaudiofilename></originalaudiofilename>
						</logginginfo>
						<colorinfo>
							<lut></lut>
							<lut1></lut1>
							<asc_sop></asc_sop>
							<asc_sat></asc_sat>
							<lut2></lut2>
						</colorinfo>
						<labels>
							<label2>Violet</label2>
						</labels>
					</clipitem>
					<clipitem id="clipitem-1257">
						<masterclipid>masterclip-1254</masterclipid>
						<name>TKO_018_SEW_Sh13100.mov</name>
						<enabled>TRUE</enabled>
						<duration>43</duration>
						<rate>
							<timebase>24</timebase>
							<ntsc>TRUE</ntsc>
						</rate>
						<start>91982</start>
						<end>92017</end>
						<in>4</in>
						<out>39</out>
						<pproTicksIn>42378336000</pproTicksIn>
						<pproTicksOut>413188776000</pproTicksOut>
						<alphatype>none</alphatype>
						<pixelaspectratio>square</pixelaspectratio>
						<anamorphic>FALSE</anamorphic>
						<file id="file-1254">
							<name>TKO_018_SEW_Sh13100.mov</name>
							<pathurl>file://tri-stor01/Projects/TKO/SHOTS/_Refs_Movs_Burnin_FrameCounter/TKO_018_SEW_Sh13100.mov</pathurl>
							<rate>
								<timebase>24</timebase>
								<ntsc>TRUE</ntsc>
							</rate>
							<duration>43</duration>
							<timecode>
								<rate>
									<timebase>24</timebase>
									<ntsc>TRUE</ntsc>
								</rate>
								<string>06:51:30:23</string>
								<frame>592583</frame>
								<displayformat>NDF</displayformat>
								<reel>
									<name>C0150010</name>
								</reel>
							</timecode>
							<media>
								<video>
									<samplecharacteristics>
										<rate>
											<timebase>24</timebase>
											<ntsc>TRUE</ntsc>
										</rate>
										<width>3840</width>
										<height>2160</height>
										<anamorphic>FALSE</anamorphic>
										<pixelaspectratio>square</pixelaspectratio>
										<fielddominance>none</fielddominance>
									</samplecharacteristics>
								</video>
							</media>
						</file>
						<logginginfo>
							<description></description>
							<scene></scene>
							<shottake></shottake>
							<lognote></lognote>
							<good></good>
							<originalvideofilename></originalvideofilename>
							<originalaudiofilename></originalaudiofilename>
						</logginginfo>
						<colorinfo>
							<lut></lut>
							<lut1></lut1>
							<asc_sop></asc_sop>
							<asc_sat></asc_sat>
							<lut2></lut2>
						</colorinfo>
						<labels>
							<label2>Violet</label2>
						</labels>
					</clipitem>
					<clipitem id="clipitem-1258">
						<masterclipid>masterclip-1255</masterclipid>
						<name>TKO_018_SEW_Sh13110.mov</name>
						<enabled>TRUE</enabled>
						<duration>40</duration>
						<rate>
							<timebase>24</timebase>
							<ntsc>TRUE</ntsc>
						</rate>
						<start>92017</start>
						<end>92049</end>
						<in>4</in>
						<out>36</out>
						<pproTicksIn>42378336000</pproTicksIn>
						<pproTicksOut>381405024000</pproTicksOut>
						<alphatype>none</alphatype>
						<pixelaspectratio>square</pixelaspectratio>
						<anamorphic>FALSE</anamorphic>
						<file id="file-1255">
							<name>TKO_018_SEW_Sh13110.mov</name>
							<pathurl>file://tri-stor01/Projects/TKO/SHOTS/_Refs_Movs_Burnin_FrameCounter/TKO_018_SEW_Sh13110.mov</pathurl>
							<rate>
								<timebase>24</timebase>
								<ntsc>TRUE</ntsc>
							</rate>
							<duration>40</duration>
							<timecode>
								<rate>
									<timebase>24</timebase>
									<ntsc>TRUE</ntsc>
								</rate>
								<string>12:41:45:16</string>
								<frame>1096936</frame>
								<displayformat>NDF</displayformat>
								<reel>
									<name>A0230006</name>
								</reel>
							</timecode>
							<media>
								<video>
									<samplecharacteristics>
										<rate>
											<timebase>24</timebase>
											<ntsc>TRUE</ntsc>
										</rate>
										<width>4096</width>
										<height>2160</height>
										<anamorphic>FALSE</anamorphic>
										<pixelaspectratio>square</pixelaspectratio>
										<fielddominance>none</fielddominance>
									</samplecharacteristics>
								</video>
							</media>
						</file>
						<logginginfo>
							<description></description>
							<scene></scene>
							<shottake></shottake>
							<lognote></lognote>
							<good></good>
							<originalvideofilename></originalvideofilename>
							<originalaudiofilename></originalaudiofilename>
						</logginginfo>
						<colorinfo>
							<lut></lut>
							<lut1></lut1>
							<asc_sop></asc_sop>
							<asc_sat></asc_sat>
							<lut2></lut2>
						</colorinfo>
						<labels>
							<label2>Violet</label2>
						</labels>
					</clipitem>
					<clipitem id="clipitem-1259">
						<masterclipid>masterclip-1256</masterclipid>
						<name>TKO_018_SEW_Sh13120.mov</name>
						<enabled>TRUE</enabled>
						<duration>41</duration>
						<rate>
							<timebase>24</timebase>
							<ntsc>TRUE</ntsc>
						</rate>
						<start>92049</start>
						<end>92082</end>
						<in>4</in>
						<out>37</out>
						<pproTicksIn>42378336000</pproTicksIn>
						<pproTicksOut>391999608000</pproTicksOut>
						<alphatype>none</alphatype>
						<pixelaspectratio>square</pixelaspectratio>
						<anamorphic>FALSE</anamorphic>
						<file id="file-1256">
							<name>TKO_018_SEW_Sh13120.mov</name>
							<pathurl>file://tri-stor01/Projects/TKO/SHOTS/_Refs_Movs_Burnin_FrameCounter/TKO_018_SEW_Sh13120.mov</pathurl>
							<rate>
								<timebase>24</timebase>
								<ntsc>TRUE</ntsc>
							</rate>
							<duration>41</duration>
							<timecode>
								<rate>
									<timebase>24</timebase>
									<ntsc>TRUE</ntsc>
								</rate>
								<string>06:51:33:08</string>
								<frame>592640</frame>
								<displayformat>NDF</displayformat>
								<reel>
									<name>C0150010</name>
								</reel>
							</timecode>
							<media>
								<video>
									<samplecharacteristics>
										<rate>
											<timebase>24</timebase>
											<ntsc>TRUE</ntsc>
										</rate>
										<width>3840</width>
										<height>2160</height>
										<anamorphic>FALSE</anamorphic>
										<pixelaspectratio>square</pixelaspectratio>
										<fielddominance>none</fielddominance>
									</samplecharacteristics>
								</video>
							</media>
						</file>
						<logginginfo>
							<description></description>
							<scene></scene>
							<shottake></shottake>
							<lognote></lognote>
							<good></good>
							<originalvideofilename></originalvideofilename>
							<originalaudiofilename></originalaudiofilename>
						</logginginfo>
						<colorinfo>
							<lut></lut>
							<lut1></lut1>
							<asc_sop></asc_sop>
							<asc_sat></asc_sat>
							<lut2></lut2>
						</colorinfo>
						<labels>
							<label2>Violet</label2>
						</labels>
					</clipitem>
					<clipitem id="clipitem-1260">
						<masterclipid>masterclip-1257</masterclipid>
						<name>TKO_018_SEW_Sh13130.mov</name>
						<enabled>TRUE</enabled>
						<duration>36</duration>
						<rate>
							<timebase>24</timebase>
							<ntsc>TRUE</ntsc>
						</rate>
						<start>92082</start>
						<end>92110</end>
						<in>4</in>
						<out>32</out>
						<pproTicksIn>42378336000</pproTicksIn>
						<pproTicksOut>339026688000</pproTicksOut>
						<alphatype>none</alphatype>
						<pixelaspectratio>square</pixelaspectratio>
						<anamorphic>FALSE</anamorphic>
						<file id="file-1257">
							<name>TKO_018_SEW_Sh13130.mov</name>
							<pathurl>file://tri-stor01/Projects/TKO/SHOTS/_Refs_Movs_Burnin_FrameCounter/TKO_018_SEW_Sh13130.mov</pathurl>
							<rate>
								<timebase>24</timebase>
								<ntsc>TRUE</ntsc>
							</rate>
							<duration>36</duration>
							<timecode>
								<rate>
									<timebase>24</timebase>
									<ntsc>TRUE</ntsc>
								</rate>
								<string>13:27:02:11</string>
								<frame>1162139</frame>
								<displayformat>NDF</displayformat>
								<reel>
									<name>A0230008</name>
								</reel>
							</timecode>
							<media>
								<video>
									<samplecharacteristics>
										<rate>
											<timebase>24</timebase>
											<ntsc>TRUE</ntsc>
										</rate>
										<width>4096</width>
										<height>2160</height>
										<anamorphic>FALSE</anamorphic>
										<pixelaspectratio>square</pixelaspectratio>
										<fielddominance>none</fielddominance>
									</samplecharacteristics>
								</video>
							</media>
						</file>
						<logginginfo>
							<description></description>
							<scene></scene>
							<shottake></shottake>
							<lognote></lognote>
							<good></good>
							<originalvideofilename></originalvideofilename>
							<originalaudiofilename></originalaudiofilename>
						</logginginfo>
						<colorinfo>
							<lut></lut>
							<lut1></lut1>
							<asc_sop></asc_sop>
							<asc_sat></asc_sat>
							<lut2></lut2>
						</colorinfo>
						<labels>
							<label2>Violet</label2>
						</labels>
					</clipitem>
					<clipitem id="clipitem-1261">
						<masterclipid>masterclip-1258</masterclipid>
						<name>TKO_018_SEW_Sh13140.mov</name>
						<enabled>TRUE</enabled>
						<duration>24</duration>
						<rate>
							<timebase>24</timebase>
							<ntsc>TRUE</ntsc>
						</rate>
						<start>92110</start>
						<end>92126</end>
						<in>4</in>
						<out>20</out>
						<pproTicksIn>42378336000</pproTicksIn>
						<pproTicksOut>211891680000</pproTicksOut>
						<alphatype>none</alphatype>
						<pixelaspectratio>square</pixelaspectratio>
						<anamorphic>FALSE</anamorphic>
						<file id="file-1258">
							<name>TKO_018_SEW_Sh13140.mov</name>
							<pathurl>file://tri-stor01/Projects/TKO/SHOTS/_Refs_Movs_Burnin_FrameCounter/TKO_018_SEW_Sh13140.mov</pathurl>
							<rate>
								<timebase>24</timebase>
								<ntsc>TRUE</ntsc>
							</rate>
							<duration>24</duration>
							<timecode>
								<rate>
									<timebase>24</timebase>
									<ntsc>TRUE</ntsc>
								</rate>
								<string>13:27:04:05</string>
								<frame>1162181</frame>
								<displayformat>NDF</displayformat>
								<reel>
									<name>B0190009</name>
								</reel>
							</timecode>
							<media>
								<video>
									<samplecharacteristics>
										<rate>
											<timebase>24</timebase>
											<ntsc>TRUE</ntsc>
										</rate>
										<width>4096</width>
										<height>2160</height>
										<anamorphic>FALSE</anamorphic>
										<pixelaspectratio>square</pixelaspectratio>
										<fielddominance>none</fielddominance>
									</samplecharacteristics>
								</video>
							</media>
						</file>
						<logginginfo>
							<description></description>
							<scene></scene>
							<shottake></shottake>
							<lognote></lognote>
							<good></good>
							<originalvideofilename></originalvideofilename>
							<originalaudiofilename></originalaudiofilename>
						</logginginfo>
						<colorinfo>
							<lut></lut>
							<lut1></lut1>
							<asc_sop></asc_sop>
							<asc_sat></asc_sat>
							<lut2></lut2>
						</colorinfo>
						<labels>
							<label2>Violet</label2>
						</labels>
					</clipitem>
					<clipitem id="clipitem-1262">
						<masterclipid>masterclip-1259</masterclipid>
						<name>TKO_018_SEW_Sh13150.mov</name>
						<enabled>TRUE</enabled>
						<duration>30</duration>
						<rate>
							<timebase>24</timebase>
							<ntsc>TRUE</ntsc>
						</rate>
						<start>92126</start>
						<end>92148</end>
						<in>4</in>
						<out>26</out>
						<pproTicksIn>42378336000</pproTicksIn>
						<pproTicksOut>275459184000</pproTicksOut>
						<alphatype>none</alphatype>
						<pixelaspectratio>square</pixelaspectratio>
						<anamorphic>FALSE</anamorphic>
						<file id="file-1259">
							<name>TKO_018_SEW_Sh13150.mov</name>
							<pathurl>file://tri-stor01/Projects/TKO/SHOTS/_Refs_Movs_Burnin_FrameCounter/TKO_018_SEW_Sh13150.mov</pathurl>
							<rate>
								<timebase>24</timebase>
								<ntsc>TRUE</ntsc>
							</rate>
							<duration>30</duration>
							<timecode>
								<rate>
									<timebase>24</timebase>
									<ntsc>TRUE</ntsc>
								</rate>
								<string>06:50:57:16</string>
								<frame>591784</frame>
								<displayformat>NDF</displayformat>
							</timecode>
							<media>
								<video>
									<samplecharacteristics>
										<rate>
											<timebase>24</timebase>
											<ntsc>TRUE</ntsc>
										</rate>
										<width>3840</width>
										<height>2160</height>
										<anamorphic>FALSE</anamorphic>
										<pixelaspectratio>square</pixelaspectratio>
										<fielddominance>none</fielddominance>
									</samplecharacteristics>
								</video>
							</media>
						</file>
						<logginginfo>
							<description></description>
							<scene></scene>
							<shottake></shottake>
							<lognote></lognote>
							<good></good>
							<originalvideofilename></originalvideofilename>
							<originalaudiofilename></originalaudiofilename>
						</logginginfo>
						<colorinfo>
							<lut></lut>
							<lut1></lut1>
							<asc_sop></asc_sop>
							<asc_sat></asc_sat>
							<lut2></lut2>
						</colorinfo>
						<labels>
							<label2>Violet</label2>
						</labels>
					</clipitem>
					<clipitem id="clipitem-1263">
						<masterclipid>masterclip-1260</masterclipid>
						<name>TKO_018_SEW_Sh13160.mov</name>
						<enabled>TRUE</enabled>
						<duration>21</duration>
						<rate>
							<timebase>24</timebase>
							<ntsc>TRUE</ntsc>
						</rate>
						<start>92148</start>
						<end>92161</end>
						<in>4</in>
						<out>17</out>
						<pproTicksIn>42378336000</pproTicksIn>
						<pproTicksOut>180107928000</pproTicksOut>
						<alphatype>none</alphatype>
						<pixelaspectratio>square</pixelaspectratio>
						<anamorphic>FALSE</anamorphic>
						<file id="file-1260">
							<name>TKO_018_SEW_Sh13160.mov</name>
							<pathurl>file://tri-stor01/Projects/TKO/SHOTS/_Refs_Movs_Burnin_FrameCounter/TKO_018_SEW_Sh13160.mov</pathurl>
							<rate>
								<timebase>24</timebase>
								<ntsc>TRUE</ntsc>
							</rate>
							<duration>21</duration>
							<timecode>
								<rate>
									<timebase>24</timebase>
									<ntsc>TRUE</ntsc>
								</rate>
								<string>06:56:05:22</string>
								<frame>599182</frame>
								<displayformat>NDF</displayformat>
								<reel>
									<name>C0150015</name>
								</reel>
							</timecode>
							<media>
								<video>
									<samplecharacteristics>
										<rate>
											<timebase>24</timebase>
											<ntsc>TRUE</ntsc>
										</rate>
										<width>3840</width>
										<height>2160</height>
										<anamorphic>FALSE</anamorphic>
										<pixelaspectratio>square</pixelaspectratio>
										<fielddominance>none</fielddominance>
									</samplecharacteristics>
								</video>
							</media>
						</file>
						<logginginfo>
							<description></description>
							<scene></scene>
							<shottake></shottake>
							<lognote></lognote>
							<good></good>
							<originalvideofilename></originalvideofilename>
							<originalaudiofilename></originalaudiofilename>
						</logginginfo>
						<colorinfo>
							<lut></lut>
							<lut1></lut1>
							<asc_sop></asc_sop>
							<asc_sat></asc_sat>
							<lut2></lut2>
						</colorinfo>
						<labels>
							<label2>Violet</label2>
						</labels>
					</clipitem>
					<clipitem id="clipitem-1264">
						<masterclipid>masterclip-1261</masterclipid>
						<name>TKO_018_SEW_Sh13170.mov</name>
						<enabled>TRUE</enabled>
						<duration>36</duration>
						<rate>
							<timebase>24</timebase>
							<ntsc>TRUE</ntsc>
						</rate>
						<start>92161</start>
						<end>92189</end>
						<in>4</in>
						<out>32</out>
						<pproTicksIn>42378336000</pproTicksIn>
						<pproTicksOut>339026688000</pproTicksOut>
						<alphatype>none</alphatype>
						<pixelaspectratio>square</pixelaspectratio>
						<anamorphic>FALSE</anamorphic>
						<file id="file-1261">
							<name>TKO_018_SEW_Sh13170.mov</name>
							<pathurl>file://tri-stor01/Projects/TKO/SHOTS/_Refs_Movs_Burnin_FrameCounter/TKO_018_SEW_Sh13170.mov</pathurl>
							<rate>
								<timebase>24</timebase>
								<ntsc>TRUE</ntsc>
							</rate>
							<duration>36</duration>
							<timecode>
								<rate>
									<timebase>24</timebase>
									<ntsc>TRUE</ntsc>
								</rate>
								<string>14:43:09:11</string>
								<frame>1271747</frame>
								<displayformat>NDF</displayformat>
								<reel>
									<name>B0190014</name>
								</reel>
							</timecode>
							<media>
								<video>
									<samplecharacteristics>
										<rate>
											<timebase>24</timebase>
											<ntsc>TRUE</ntsc>
										</rate>
										<width>4096</width>
										<height>2160</height>
										<anamorphic>FALSE</anamorphic>
										<pixelaspectratio>square</pixelaspectratio>
										<fielddominance>none</fielddominance>
									</samplecharacteristics>
								</video>
							</media>
						</file>
						<logginginfo>
							<description></description>
							<scene></scene>
							<shottake></shottake>
							<lognote></lognote>
							<good></good>
							<originalvideofilename></originalvideofilename>
							<originalaudiofilename></originalaudiofilename>
						</logginginfo>
						<colorinfo>
							<lut></lut>
							<lut1></lut1>
							<asc_sop></asc_sop>
							<asc_sat></asc_sat>
							<lut2></lut2>
						</colorinfo>
						<labels>
							<label2>Violet</label2>
						</labels>
					</clipitem>
					<clipitem id="clipitem-1265">
						<masterclipid>masterclip-1262</masterclipid>
						<name>TKO_018_SEW_Sh13180.mov</name>
						<enabled>TRUE</enabled>
						<duration>33</duration>
						<rate>
							<timebase>24</timebase>
							<ntsc>TRUE</ntsc>
						</rate>
						<start>92189</start>
						<end>92214</end>
						<in>4</in>
						<out>29</out>
						<pproTicksIn>42378336000</pproTicksIn>
						<pproTicksOut>307242936000</pproTicksOut>
						<alphatype>none</alphatype>
						<pixelaspectratio>square</pixelaspectratio>
						<anamorphic>FALSE</anamorphic>
						<file id="file-1262">
							<name>TKO_018_SEW_Sh13180.mov</name>
							<pathurl>file://tri-stor01/Projects/TKO/SHOTS/_Refs_Movs_Burnin_FrameCounter/TKO_018_SEW_Sh13180.mov</pathurl>
							<rate>
								<timebase>24</timebase>
								<ntsc>TRUE</ntsc>
							</rate>
							<duration>33</duration>
							<timecode>
								<rate>
									<timebase>24</timebase>
									<ntsc>TRUE</ntsc>
								</rate>
								<string>12:31:21:02</string>
								<frame>1081946</frame>
								<displayformat>NDF</displayformat>
								<reel>
									<name>A0540011</name>
								</reel>
							</timecode>
							<media>
								<video>
									<samplecharacteristics>
										<rate>
											<timebase>24</timebase>
											<ntsc>TRUE</ntsc>
										</rate>
										<width>4096</width>
										<height>2160</height>
										<anamorphic>FALSE</anamorphic>
										<pixelaspectratio>square</pixelaspectratio>
										<fielddominance>none</fielddominance>
									</samplecharacteristics>
								</video>
							</media>
						</file>
						<logginginfo>
							<description></description>
							<scene></scene>
							<shottake></shottake>
							<lognote></lognote>
							<good></good>
							<originalvideofilename></originalvideofilename>
							<originalaudiofilename></originalaudiofilename>
						</logginginfo>
						<colorinfo>
							<lut></lut>
							<lut1></lut1>
							<asc_sop></asc_sop>
							<asc_sat></asc_sat>
							<lut2></lut2>
						</colorinfo>
						<labels>
							<label2>Violet</label2>
						</labels>
					</clipitem>
					<clipitem id="clipitem-1266">
						<masterclipid>masterclip-1263</masterclipid>
						<name>TKO_018_SEW_Sh13190.mov</name>
						<enabled>TRUE</enabled>
						<duration>88</duration>
						<rate>
							<timebase>24</timebase>
							<ntsc>TRUE</ntsc>
						</rate>
						<start>92214</start>
						<end>92294</end>
						<in>4</in>
						<out>84</out>
						<pproTicksIn>42378336000</pproTicksIn>
						<pproTicksOut>889945056000</pproTicksOut>
						<alphatype>none</alphatype>
						<pixelaspectratio>square</pixelaspectratio>
						<anamorphic>FALSE</anamorphic>
						<file id="file-1263">
							<name>TKO_018_SEW_Sh13190.mov</name>
							<pathurl>file://tri-stor01/Projects/TKO/SHOTS/_Refs_Movs_Burnin_FrameCounter/TKO_018_SEW_Sh13190.mov</pathurl>
							<rate>
								<timebase>24</timebase>
								<ntsc>TRUE</ntsc>
							</rate>
							<duration>88</duration>
							<timecode>
								<rate>
									<timebase>24</timebase>
									<ntsc>TRUE</ntsc>
								</rate>
								<string>00:11:12:12</string>
								<frame>16140</frame>
								<displayformat>NDF</displayformat>
								<reel>
									<name>B0470011</name>
								</reel>
							</timecode>
							<media>
								<video>
									<samplecharacteristics>
										<rate>
											<timebase>24</timebase>
											<ntsc>TRUE</ntsc>
										</rate>
										<width>4096</width>
										<height>2160</height>
										<anamorphic>FALSE</anamorphic>
										<pixelaspectratio>square</pixelaspectratio>
										<fielddominance>none</fielddominance>
									</samplecharacteristics>
								</video>
							</media>
						</file>
						<logginginfo>
							<description></description>
							<scene></scene>
							<shottake></shottake>
							<lognote></lognote>
							<good></good>
							<originalvideofilename></originalvideofilename>
							<originalaudiofilename></originalaudiofilename>
						</logginginfo>
						<colorinfo>
							<lut></lut>
							<lut1></lut1>
							<asc_sop></asc_sop>
							<asc_sat></asc_sat>
							<lut2></lut2>
						</colorinfo>
						<labels>
							<label2>Violet</label2>
						</labels>
					</clipitem>
					<clipitem id="clipitem-1267">
						<masterclipid>masterclip-1264</masterclipid>
						<name>TKO_018_SEW_Sh13200.mov</name>
						<enabled>TRUE</enabled>
						<duration>38</duration>
						<rate>
							<timebase>24</timebase>
							<ntsc>TRUE</ntsc>
						</rate>
						<start>92294</start>
						<end>92324</end>
						<in>4</in>
						<out>34</out>
						<pproTicksIn>42378336000</pproTicksIn>
						<pproTicksOut>360215856000</pproTicksOut>
						<alphatype>none</alphatype>
						<pixelaspectratio>square</pixelaspectratio>
						<anamorphic>FALSE</anamorphic>
						<file id="file-1264">
							<name>TKO_018_SEW_Sh13200.mov</name>
							<pathurl>file://tri-stor01/Projects/TKO/SHOTS/_Refs_Movs_Burnin_FrameCounter/TKO_018_SEW_Sh13200.mov</pathurl>
							<rate>
								<timebase>24</timebase>
								<ntsc>TRUE</ntsc>
							</rate>
							<duration>38</duration>
							<timecode>
								<rate>
									<timebase>24</timebase>
									<ntsc>TRUE</ntsc>
								</rate>
								<string>12:43:42:13</string>
								<frame>1099741</frame>
								<displayformat>NDF</displayformat>
								<reel>
									<name>B0210007</name>
								</reel>
							</timecode>
							<media>
								<video>
									<samplecharacteristics>
										<rate>
											<timebase>24</timebase>
											<ntsc>TRUE</ntsc>
										</rate>
										<width>4096</width>
										<height>2160</height>
										<anamorphic>FALSE</anamorphic>
										<pixelaspectratio>square</pixelaspectratio>
										<fielddominance>none</fielddominance>
									</samplecharacteristics>
								</video>
							</media>
						</file>
						<logginginfo>
							<description></description>
							<scene></scene>
							<shottake></shottake>
							<lognote></lognote>
							<good></good>
							<originalvideofilename></originalvideofilename>
							<originalaudiofilename></originalaudiofilename>
						</logginginfo>
						<colorinfo>
							<lut></lut>
							<lut1></lut1>
							<asc_sop></asc_sop>
							<asc_sat></asc_sat>
							<lut2></lut2>
						</colorinfo>
						<labels>
							<label2>Violet</label2>
						</labels>
					</clipitem>
					<clipitem id="clipitem-1268">
						<masterclipid>masterclip-1265</masterclipid>
						<name>TKO_018_SEW_Sh13210_V02.mov</name>
						<enabled>TRUE</enabled>
						<duration>65</duration>
						<rate>
							<timebase>24</timebase>
							<ntsc>TRUE</ntsc>
						</rate>
						<start>92324</start>
						<end>92370</end>
						<in>4</in>
						<out>50</out>
						<pproTicksIn>42378336000</pproTicksIn>
						<pproTicksOut>529729200000</pproTicksOut>
						<alphatype>none</alphatype>
						<pixelaspectratio>square</pixelaspectratio>
						<anamorphic>FALSE</anamorphic>
						<file id="file-1265">
							<name>TKO_018_SEW_Sh13210_V02.mov</name>
							<pathurl>file://tri-stor01/Projects/TKO/SHOTS/_Refs_Movs_Burnin_FrameCounter/TKO_018_SEW_Sh13210_V02.mov</pathurl>
							<rate>
								<timebase>24</timebase>
								<ntsc>TRUE</ntsc>
							</rate>
							<duration>65</duration>
							<timecode>
								<rate>
									<timebase>24</timebase>
									<ntsc>TRUE</ntsc>
								</rate>
								<string>12:43:50:18</string>
								<frame>1099938</frame>
								<displayformat>NDF</displayformat>
								<reel>
									<name>A0250008</name>
								</reel>
							</timecode>
							<media>
								<video>
									<samplecharacteristics>
										<rate>
											<timebase>24</timebase>
											<ntsc>TRUE</ntsc>
										</rate>
										<width>4096</width>
										<height>2160</height>
										<anamorphic>FALSE</anamorphic>
										<pixelaspectratio>square</pixelaspectratio>
										<fielddominance>none</fielddominance>
									</samplecharacteristics>
								</video>
							</media>
						</file>
						<logginginfo>
							<description></description>
							<scene></scene>
							<shottake></shottake>
							<lognote></lognote>
							<good></good>
							<originalvideofilename></originalvideofilename>
							<originalaudiofilename></originalaudiofilename>
						</logginginfo>
						<colorinfo>
							<lut></lut>
							<lut1></lut1>
							<asc_sop></asc_sop>
							<asc_sat></asc_sat>
							<lut2></lut2>
						</colorinfo>
						<labels>
							<label2>Violet</label2>
						</labels>
					</clipitem>
					<clipitem id="clipitem-1269">
						<masterclipid>masterclip-1266</masterclipid>
						<name>TKO_018_SEW_Sh13220.mov</name>
						<enabled>TRUE</enabled>
						<duration>132</duration>
						<rate>
							<timebase>24</timebase>
							<ntsc>TRUE</ntsc>
						</rate>
						<start>92370</start>
						<end>92494</end>
						<in>4</in>
						<out>128</out>
						<pproTicksIn>42378336000</pproTicksIn>
						<pproTicksOut>1356106752000</pproTicksOut>
						<alphatype>none</alphatype>
						<pixelaspectratio>square</pixelaspectratio>
						<anamorphic>FALSE</anamorphic>
						<file id="file-1266">
							<name>TKO_018_SEW_Sh13220.mov</name>
							<pathurl>file://tri-stor01/Projects/TKO/SHOTS/_Refs_Movs_Burnin_FrameCounter/TKO_018_SEW_Sh13220.mov</pathurl>
							<rate>
								<timebase>24</timebase>
								<ntsc>TRUE</ntsc>
							</rate>
							<duration>132</duration>
							<timecode>
								<rate>
									<timebase>24</timebase>
									<ntsc>TRUE</ntsc>
								</rate>
								<string>13:25:09:01</string>
								<frame>1159417</frame>
								<displayformat>NDF</displayformat>
								<reel>
									<name>A0410009</name>
								</reel>
							</timecode>
							<media>
								<video>
									<samplecharacteristics>
										<rate>
											<timebase>24</timebase>
											<ntsc>TRUE</ntsc>
										</rate>
										<width>4096</width>
										<height>2160</height>
										<anamorphic>FALSE</anamorphic>
										<pixelaspectratio>square</pixelaspectratio>
										<fielddominance>none</fielddominance>
									</samplecharacteristics>
								</video>
							</media>
						</file>
						<logginginfo>
							<description></description>
							<scene></scene>
							<shottake></shottake>
							<lognote></lognote>
							<good></good>
							<originalvideofilename></originalvideofilename>
							<originalaudiofilename></originalaudiofilename>
						</logginginfo>
						<colorinfo>
							<lut></lut>
							<lut1></lut1>
							<asc_sop></asc_sop>
							<asc_sat></asc_sat>
							<lut2></lut2>
						</colorinfo>
						<labels>
							<label2>Violet</label2>
						</labels>
					</clipitem>
					<clipitem id="clipitem-1270">
						<masterclipid>masterclip-1267</masterclipid>
						<name>TKO_018_SEW_Sh13230.mov</name>
						<enabled>TRUE</enabled>
						<duration>282</duration>
						<rate>
							<timebase>24</timebase>
							<ntsc>TRUE</ntsc>
						</rate>
						<start>92494</start>
						<end>92768</end>
						<in>4</in>
						<out>278</out>
						<pproTicksIn>42378336000</pproTicksIn>
						<pproTicksOut>2945294352000</pproTicksOut>
						<alphatype>none</alphatype>
						<pixelaspectratio>square</pixelaspectratio>
						<anamorphic>FALSE</anamorphic>
						<file id="file-1267">
							<name>TKO_018_SEW_Sh13230.mov</name>
							<pathurl>file://tri-stor01/Projects/TKO/SHOTS/_Refs_Movs_Burnin_FrameCounter/TKO_018_SEW_Sh13230.mov</pathurl>
							<rate>
								<timebase>24</timebase>
								<ntsc>TRUE</ntsc>
							</rate>
							<duration>282</duration>
							<timecode>
								<rate>
									<timebase>24</timebase>
									<ntsc>TRUE</ntsc>
								</rate>
								<string>12:24:46:13</string>
								<frame>1072477</frame>
								<displayformat>NDF</displayformat>
								<reel>
									<name>A0410004</name>
								</reel>
							</timecode>
							<media>
								<video>
									<samplecharacteristics>
										<rate>
											<timebase>24</timebase>
											<ntsc>TRUE</ntsc>
										</rate>
										<width>4096</width>
										<height>2160</height>
										<anamorphic>FALSE</anamorphic>
										<pixelaspectratio>square</pixelaspectratio>
										<fielddominance>none</fielddominance>
									</samplecharacteristics>
								</video>
							</media>
						</file>
						<logginginfo>
							<description></description>
							<scene></scene>
							<shottake></shottake>
							<lognote></lognote>
							<good></good>
							<originalvideofilename></originalvideofilename>
							<originalaudiofilename></originalaudiofilename>
						</logginginfo>
						<colorinfo>
							<lut></lut>
							<lut1></lut1>
							<asc_sop></asc_sop>
							<asc_sat></asc_sat>
							<lut2></lut2>
						</colorinfo>
						<labels>
							<label2>Violet</label2>
						</labels>
					</clipitem>
					<clipitem id="clipitem-1271">
						<masterclipid>masterclip-1268</masterclipid>
						<name>TKO_018_SEW_Sh13240.mov</name>
						<enabled>TRUE</enabled>
						<duration>105</duration>
						<rate>
							<timebase>24</timebase>
							<ntsc>TRUE</ntsc>
						</rate>
						<start>92768</start>
						<end>92865</end>
						<in>4</in>
						<out>101</out>
						<pproTicksIn>42378336000</pproTicksIn>
						<pproTicksOut>1070052984000</pproTicksOut>
						<alphatype>none</alphatype>
						<pixelaspectratio>square</pixelaspectratio>
						<anamorphic>FALSE</anamorphic>
						<file id="file-1268">
							<name>TKO_018_SEW_Sh13240.mov</name>
							<pathurl>file://tri-stor01/Projects/TKO/SHOTS/_Refs_Movs_Burnin_FrameCounter/TKO_018_SEW_Sh13240.mov</pathurl>
							<rate>
								<timebase>24</timebase>
								<ntsc>TRUE</ntsc>
							</rate>
							<duration>105</duration>
							<timecode>
								<rate>
									<timebase>24</timebase>
									<ntsc>TRUE</ntsc>
								</rate>
								<string>13:25:27:03</string>
								<frame>1159851</frame>
								<displayformat>NDF</displayformat>
								<reel>
									<name>B0350009</name>
								</reel>
							</timecode>
							<media>
								<video>
									<samplecharacteristics>
										<rate>
											<timebase>24</timebase>
											<ntsc>TRUE</ntsc>
										</rate>
										<width>4096</width>
										<height>2160</height>
										<anamorphic>FALSE</anamorphic>
										<pixelaspectratio>square</pixelaspectratio>
										<fielddominance>none</fielddominance>
									</samplecharacteristics>
								</video>
							</media>
						</file>
						<logginginfo>
							<description></description>
							<scene></scene>
							<shottake></shottake>
							<lognote></lognote>
							<good></good>
							<originalvideofilename></originalvideofilename>
							<originalaudiofilename></originalaudiofilename>
						</logginginfo>
						<colorinfo>
							<lut></lut>
							<lut1></lut1>
							<asc_sop></asc_sop>
							<asc_sat></asc_sat>
							<lut2></lut2>
						</colorinfo>
						<labels>
							<label2>Violet</label2>
						</labels>
					</clipitem>
					<clipitem id="clipitem-1272">
						<masterclipid>masterclip-1269</masterclipid>
						<name>TKO_018_SEW_Sh13250.mov</name>
						<enabled>TRUE</enabled>
						<duration>79</duration>
						<rate>
							<timebase>24</timebase>
							<ntsc>TRUE</ntsc>
						</rate>
						<start>92865</start>
						<end>92936</end>
						<in>4</in>
						<out>75</out>
						<pproTicksIn>42378336000</pproTicksIn>
						<pproTicksOut>794593800000</pproTicksOut>
						<alphatype>none</alphatype>
						<pixelaspectratio>square</pixelaspectratio>
						<anamorphic>FALSE</anamorphic>
						<file id="file-1269">
							<name>TKO_018_SEW_Sh13250.mov</name>
							<pathurl>file://tri-stor01/Projects/TKO/SHOTS/_Refs_Movs_Burnin_FrameCounter/TKO_018_SEW_Sh13250.mov</pathurl>
							<rate>
								<timebase>24</timebase>
								<ntsc>TRUE</ntsc>
							</rate>
							<duration>79</duration>
							<timecode>
								<rate>
									<timebase>24</timebase>
									<ntsc>TRUE</ntsc>
								</rate>
								<string>13:02:43:10</string>
								<frame>1127122</frame>
								<displayformat>NDF</displayformat>
								<reel>
									<name>A0410007</name>
								</reel>
							</timecode>
							<media>
								<video>
									<samplecharacteristics>
										<rate>
											<timebase>24</timebase>
											<ntsc>TRUE</ntsc>
										</rate>
										<width>4096</width>
										<height>2160</height>
										<anamorphic>FALSE</anamorphic>
										<pixelaspectratio>square</pixelaspectratio>
										<fielddominance>none</fielddominance>
									</samplecharacteristics>
								</video>
							</media>
						</file>
						<logginginfo>
							<description></description>
							<scene></scene>
							<shottake></shottake>
							<lognote></lognote>
							<good></good>
							<originalvideofilename></originalvideofilename>
							<originalaudiofilename></originalaudiofilename>
						</logginginfo>
						<colorinfo>
							<lut></lut>
							<lut1></lut1>
							<asc_sop></asc_sop>
							<asc_sat></asc_sat>
							<lut2></lut2>
						</colorinfo>
						<labels>
							<label2>Violet</label2>
						</labels>
					</clipitem>
					<clipitem id="clipitem-1273">
						<masterclipid>masterclip-1270</masterclipid>
						<name>TKO_018_SEW_Sh13260.mov</name>
						<enabled>TRUE</enabled>
						<duration>156</duration>
						<rate>
							<timebase>24</timebase>
							<ntsc>TRUE</ntsc>
						</rate>
						<start>92936</start>
						<end>93084</end>
						<in>4</in>
						<out>152</out>
						<pproTicksIn>42378336000</pproTicksIn>
						<pproTicksOut>1610376768000</pproTicksOut>
						<alphatype>none</alphatype>
						<pixelaspectratio>square</pixelaspectratio>
						<anamorphic>FALSE</anamorphic>
						<file id="file-1270">
							<name>TKO_018_SEW_Sh13260.mov</name>
							<pathurl>file://tri-stor01/Projects/TKO/SHOTS/_Refs_Movs_Burnin_FrameCounter/TKO_018_SEW_Sh13260.mov</pathurl>
							<rate>
								<timebase>24</timebase>
								<ntsc>TRUE</ntsc>
							</rate>
							<duration>156</duration>
							<timecode>
								<rate>
									<timebase>24</timebase>
									<ntsc>TRUE</ntsc>
								</rate>
								<string>13:02:46:09</string>
								<frame>1127193</frame>
								<displayformat>NDF</displayformat>
								<reel>
									<name>B0350007</name>
								</reel>
							</timecode>
							<media>
								<video>
									<samplecharacteristics>
										<rate>
											<timebase>24</timebase>
											<ntsc>TRUE</ntsc>
										</rate>
										<width>4096</width>
										<height>2160</height>
										<anamorphic>FALSE</anamorphic>
										<pixelaspectratio>square</pixelaspectratio>
										<fielddominance>none</fielddominance>
									</samplecharacteristics>
								</video>
							</media>
						</file>
						<logginginfo>
							<description></description>
							<scene></scene>
							<shottake></shottake>
							<lognote></lognote>
							<good></good>
							<originalvideofilename></originalvideofilename>
							<originalaudiofilename></originalaudiofilename>
						</logginginfo>
						<colorinfo>
							<lut></lut>
							<lut1></lut1>
							<asc_sop></asc_sop>
							<asc_sat></asc_sat>
							<lut2></lut2>
						</colorinfo>
						<labels>
							<label2>Violet</label2>
						</labels>
					</clipitem>
					<clipitem id="clipitem-1274">
						<masterclipid>masterclip-1271</masterclipid>
						<name>TKO_018_SEW_Sh13270.mov</name>
						<enabled>TRUE</enabled>
						<duration>76</duration>
						<rate>
							<timebase>24</timebase>
							<ntsc>TRUE</ntsc>
						</rate>
						<start>93084</start>
						<end>93152</end>
						<in>4</in>
						<out>72</out>
						<pproTicksIn>42378336000</pproTicksIn>
						<pproTicksOut>762810048000</pproTicksOut>
						<alphatype>none</alphatype>
						<pixelaspectratio>square</pixelaspectratio>
						<anamorphic>FALSE</anamorphic>
						<file id="file-1271">
							<name>TKO_018_SEW_Sh13270.mov</name>
							<pathurl>file://tri-stor01/Projects/TKO/SHOTS/_Refs_Movs_Burnin_FrameCounter/TKO_018_SEW_Sh13270.mov</pathurl>
							<rate>
								<timebase>24</timebase>
								<ntsc>TRUE</ntsc>
							</rate>
							<duration>76</duration>
							<timecode>
								<rate>
									<timebase>24</timebase>
									<ntsc>TRUE</ntsc>
								</rate>
								<string>13:25:39:23</string>
								<frame>1160159</frame>
								<displayformat>NDF</displayformat>
								<reel>
									<name>B0350009</name>
								</reel>
							</timecode>
							<media>
								<video>
									<samplecharacteristics>
										<rate>
											<timebase>24</timebase>
											<ntsc>TRUE</ntsc>
										</rate>
										<width>4096</width>
										<height>2160</height>
										<anamorphic>FALSE</anamorphic>
										<pixelaspectratio>square</pixelaspectratio>
										<fielddominance>none</fielddominance>
									</samplecharacteristics>
								</video>
							</media>
						</file>
						<logginginfo>
							<description></description>
							<scene></scene>
							<shottake></shottake>
							<lognote></lognote>
							<good></good>
							<originalvideofilename></originalvideofilename>
							<originalaudiofilename></originalaudiofilename>
						</logginginfo>
						<colorinfo>
							<lut></lut>
							<lut1></lut1>
							<asc_sop></asc_sop>
							<asc_sat></asc_sat>
							<lut2></lut2>
						</colorinfo>
						<labels>
							<label2>Violet</label2>
						</labels>
					</clipitem>
					<clipitem id="clipitem-1275">
						<masterclipid>masterclip-1272</masterclipid>
						<name>TKO_018_SEW_Sh13280.mov</name>
						<enabled>TRUE</enabled>
						<duration>58</duration>
						<rate>
							<timebase>24</timebase>
							<ntsc>TRUE</ntsc>
						</rate>
						<start>93152</start>
						<end>93202</end>
						<in>4</in>
						<out>54</out>
						<pproTicksIn>42378336000</pproTicksIn>
						<pproTicksOut>572107536000</pproTicksOut>
						<alphatype>none</alphatype>
						<pixelaspectratio>square</pixelaspectratio>
						<anamorphic>FALSE</anamorphic>
						<file id="file-1272">
							<name>TKO_018_SEW_Sh13280.mov</name>
							<pathurl>file://tri-stor01/Projects/TKO/SHOTS/_Refs_Movs_Burnin_FrameCounter/TKO_018_SEW_Sh13280.mov</pathurl>
							<rate>
								<timebase>24</timebase>
								<ntsc>TRUE</ntsc>
							</rate>
							<duration>58</duration>
							<timecode>
								<rate>
									<timebase>24</timebase>
									<ntsc>TRUE</ntsc>
								</rate>
								<string>12:25:14:06</string>
								<frame>1073142</frame>
								<displayformat>NDF</displayformat>
								<reel>
									<name>A0410004</name>
								</reel>
							</timecode>
							<media>
								<video>
									<samplecharacteristics>
										<rate>
											<timebase>24</timebase>
											<ntsc>TRUE</ntsc>
										</rate>
										<width>4096</width>
										<height>2160</height>
										<anamorphic>FALSE</anamorphic>
										<pixelaspectratio>square</pixelaspectratio>
										<fielddominance>none</fielddominance>
									</samplecharacteristics>
								</video>
							</media>
						</file>
						<logginginfo>
							<description></description>
							<scene></scene>
							<shottake></shottake>
							<lognote></lognote>
							<good></good>
							<originalvideofilename></originalvideofilename>
							<originalaudiofilename></originalaudiofilename>
						</logginginfo>
						<colorinfo>
							<lut></lut>
							<lut1></lut1>
							<asc_sop></asc_sop>
							<asc_sat></asc_sat>
							<lut2></lut2>
						</colorinfo>
						<labels>
							<label2>Violet</label2>
						</labels>
					</clipitem>
					<clipitem id="clipitem-1276">
						<masterclipid>masterclip-1273</masterclipid>
						<name>TKO_018_SEW_Sh13290.mov</name>
						<enabled>TRUE</enabled>
						<duration>117</duration>
						<rate>
							<timebase>24</timebase>
							<ntsc>TRUE</ntsc>
						</rate>
						<start>93202</start>
						<end>93311</end>
						<in>4</in>
						<out>113</out>
						<pproTicksIn>42378336000</pproTicksIn>
						<pproTicksOut>1197187992000</pproTicksOut>
						<alphatype>none</alphatype>
						<pixelaspectratio>square</pixelaspectratio>
						<anamorphic>FALSE</anamorphic>
						<file id="file-1273">
							<name>TKO_018_SEW_Sh13290.mov</name>
							<pathurl>file://tri-stor01/Projects/TKO/SHOTS/_Refs_Movs_Burnin_FrameCounter/TKO_018_SEW_Sh13290.mov</pathurl>
							<rate>
								<timebase>24</timebase>
								<ntsc>TRUE</ntsc>
							</rate>
							<duration>117</duration>
							<timecode>
								<rate>
									<timebase>24</timebase>
									<ntsc>TRUE</ntsc>
								</rate>
								<string>12:25:16:08</string>
								<frame>1073192</frame>
								<displayformat>NDF</displayformat>
								<reel>
									<name>B0350004</name>
								</reel>
							</timecode>
							<media>
								<video>
									<samplecharacteristics>
										<rate>
											<timebase>24</timebase>
											<ntsc>TRUE</ntsc>
										</rate>
										<width>4096</width>
										<height>2160</height>
										<anamorphic>FALSE</anamorphic>
										<pixelaspectratio>square</pixelaspectratio>
										<fielddominance>none</fielddominance>
									</samplecharacteristics>
								</video>
							</media>
						</file>
						<logginginfo>
							<description></description>
							<scene></scene>
							<shottake></shottake>
							<lognote></lognote>
							<good></good>
							<originalvideofilename></originalvideofilename>
							<originalaudiofilename></originalaudiofilename>
						</logginginfo>
						<colorinfo>
							<lut></lut>
							<lut1></lut1>
							<asc_sop></asc_sop>
							<asc_sat></asc_sat>
							<lut2></lut2>
						</colorinfo>
						<labels>
							<label2>Violet</label2>
						</labels>
					</clipitem>
					<clipitem id="clipitem-1277">
						<masterclipid>masterclip-1274</masterclipid>
						<name>TKO_018_SEW_Sh13300.mov</name>
						<enabled>TRUE</enabled>
						<duration>112</duration>
						<rate>
							<timebase>24</timebase>
							<ntsc>TRUE</ntsc>
						</rate>
						<start>93311</start>
						<end>93415</end>
						<in>4</in>
						<out>108</out>
						<pproTicksIn>42378336000</pproTicksIn>
						<pproTicksOut>1144215072000</pproTicksOut>
						<alphatype>none</alphatype>
						<pixelaspectratio>square</pixelaspectratio>
						<anamorphic>FALSE</anamorphic>
						<file id="file-1274">
							<name>TKO_018_SEW_Sh13300.mov</name>
							<pathurl>file://tri-stor01/Projects/TKO/SHOTS/_Refs_Movs_Burnin_FrameCounter/TKO_018_SEW_Sh13300.mov</pathurl>
							<rate>
								<timebase>24</timebase>
								<ntsc>TRUE</ntsc>
							</rate>
							<duration>112</duration>
							<timecode>
								<rate>
									<timebase>24</timebase>
									<ntsc>TRUE</ntsc>
								</rate>
								<string>12:25:20:21</string>
								<frame>1073301</frame>
								<displayformat>NDF</displayformat>
								<reel>
									<name>A0410004</name>
								</reel>
							</timecode>
							<media>
								<video>
									<samplecharacteristics>
										<rate>
											<timebase>24</timebase>
											<ntsc>TRUE</ntsc>
										</rate>
										<width>4096</width>
										<height>2160</height>
										<anamorphic>FALSE</anamorphic>
										<pixelaspectratio>square</pixelaspectratio>
										<fielddominance>none</fielddominance>
									</samplecharacteristics>
								</video>
							</media>
						</file>
						<logginginfo>
							<description></description>
							<scene></scene>
							<shottake></shottake>
							<lognote></lognote>
							<good></good>
							<originalvideofilename></originalvideofilename>
							<originalaudiofilename></originalaudiofilename>
						</logginginfo>
						<colorinfo>
							<lut></lut>
							<lut1></lut1>
							<asc_sop></asc_sop>
							<asc_sat></asc_sat>
							<lut2></lut2>
						</colorinfo>
						<labels>
							<label2>Violet</label2>
						</labels>
					</clipitem>
					<clipitem id="clipitem-1278">
						<masterclipid>masterclip-1275</masterclipid>
						<name>TKO_018_SEW_Sh13310.mov</name>
						<enabled>TRUE</enabled>
						<duration>93</duration>
						<rate>
							<timebase>24</timebase>
							<ntsc>TRUE</ntsc>
						</rate>
						<start>93415</start>
						<end>93500</end>
						<in>4</in>
						<out>89</out>
						<pproTicksIn>42378336000</pproTicksIn>
						<pproTicksOut>942917976000</pproTicksOut>
						<alphatype>none</alphatype>
						<pixelaspectratio>square</pixelaspectratio>
						<anamorphic>FALSE</anamorphic>
						<file id="file-1275">
							<name>TKO_018_SEW_Sh13310.mov</name>
							<pathurl>file://tri-stor01/Projects/TKO/SHOTS/_Refs_Movs_Burnin_FrameCounter/TKO_018_SEW_Sh13310.mov</pathurl>
							<rate>
								<timebase>24</timebase>
								<ntsc>TRUE</ntsc>
							</rate>
							<duration>93</duration>
							<timecode>
								<rate>
									<timebase>24</timebase>
									<ntsc>TRUE</ntsc>
								</rate>
								<string>12:25:25:05</string>
								<frame>1073405</frame>
								<displayformat>NDF</displayformat>
								<reel>
									<name>B0350004</name>
								</reel>
							</timecode>
							<media>
								<video>
									<samplecharacteristics>
										<rate>
											<timebase>24</timebase>
											<ntsc>TRUE</ntsc>
										</rate>
										<width>4096</width>
										<height>2160</height>
										<anamorphic>FALSE</anamorphic>
										<pixelaspectratio>square</pixelaspectratio>
										<fielddominance>none</fielddominance>
									</samplecharacteristics>
								</video>
							</media>
						</file>
						<logginginfo>
							<description></description>
							<scene></scene>
							<shottake></shottake>
							<lognote></lognote>
							<good></good>
							<originalvideofilename></originalvideofilename>
							<originalaudiofilename></originalaudiofilename>
						</logginginfo>
						<colorinfo>
							<lut></lut>
							<lut1></lut1>
							<asc_sop></asc_sop>
							<asc_sat></asc_sat>
							<lut2></lut2>
						</colorinfo>
						<labels>
							<label2>Violet</label2>
						</labels>
					</clipitem>
					<clipitem id="clipitem-1279">
						<masterclipid>masterclip-1276</masterclipid>
						<name>TKO_018_SEW_Sh13320.mov</name>
						<enabled>TRUE</enabled>
						<duration>95</duration>
						<rate>
							<timebase>24</timebase>
							<ntsc>TRUE</ntsc>
						</rate>
						<start>93500</start>
						<end>93587</end>
						<in>4</in>
						<out>91</out>
						<pproTicksIn>42378336000</pproTicksIn>
						<pproTicksOut>964107144000</pproTicksOut>
						<alphatype>none</alphatype>
						<pixelaspectratio>square</pixelaspectratio>
						<anamorphic>FALSE</anamorphic>
						<file id="file-1276">
							<name>TKO_018_SEW_Sh13320.mov</name>
							<pathurl>file://tri-stor01/Projects/TKO/SHOTS/_Refs_Movs_Burnin_FrameCounter/TKO_018_SEW_Sh13320.mov</pathurl>
							<rate>
								<timebase>24</timebase>
								<ntsc>TRUE</ntsc>
							</rate>
							<duration>95</duration>
							<timecode>
								<rate>
									<timebase>24</timebase>
									<ntsc>TRUE</ntsc>
								</rate>
								<string>13:03:09:11</string>
								<frame>1127747</frame>
								<displayformat>NDF</displayformat>
								<reel>
									<name>A0410007</name>
								</reel>
							</timecode>
							<media>
								<video>
									<samplecharacteristics>
										<rate>
											<timebase>24</timebase>
											<ntsc>TRUE</ntsc>
										</rate>
										<width>4096</width>
										<height>2160</height>
										<anamorphic>FALSE</anamorphic>
										<pixelaspectratio>square</pixelaspectratio>
										<fielddominance>none</fielddominance>
									</samplecharacteristics>
								</video>
							</media>
						</file>
						<logginginfo>
							<description></description>
							<scene></scene>
							<shottake></shottake>
							<lognote></lognote>
							<good></good>
							<originalvideofilename></originalvideofilename>
							<originalaudiofilename></originalaudiofilename>
						</logginginfo>
						<colorinfo>
							<lut></lut>
							<lut1></lut1>
							<asc_sop></asc_sop>
							<asc_sat></asc_sat>
							<lut2></lut2>
						</colorinfo>
						<labels>
							<label2>Violet</label2>
						</labels>
					</clipitem>
					<clipitem id="clipitem-1280">
						<masterclipid>masterclip-1277</masterclipid>
						<name>TKO_018_SEW_Sh13330.mov</name>
						<enabled>TRUE</enabled>
						<duration>62</duration>
						<rate>
							<timebase>24</timebase>
							<ntsc>TRUE</ntsc>
						</rate>
						<start>93587</start>
						<end>93641</end>
						<in>4</in>
						<out>58</out>
						<pproTicksIn>42378336000</pproTicksIn>
						<pproTicksOut>614485872000</pproTicksOut>
						<alphatype>none</alphatype>
						<pixelaspectratio>square</pixelaspectratio>
						<anamorphic>FALSE</anamorphic>
						<file id="file-1277">
							<name>TKO_018_SEW_Sh13330.mov</name>
							<pathurl>file://tri-stor01/Projects/TKO/SHOTS/_Refs_Movs_Burnin_FrameCounter/TKO_018_SEW_Sh13330.mov</pathurl>
							<rate>
								<timebase>24</timebase>
								<ntsc>TRUE</ntsc>
							</rate>
							<duration>62</duration>
							<timecode>
								<rate>
									<timebase>24</timebase>
									<ntsc>TRUE</ntsc>
								</rate>
								<string>12:25:32:01</string>
								<frame>1073569</frame>
								<displayformat>NDF</displayformat>
								<reel>
									<name>B0350004</name>
								</reel>
							</timecode>
							<media>
								<video>
									<samplecharacteristics>
										<rate>
											<timebase>24</timebase>
											<ntsc>TRUE</ntsc>
										</rate>
										<width>4096</width>
										<height>2160</height>
										<anamorphic>FALSE</anamorphic>
										<pixelaspectratio>square</pixelaspectratio>
										<fielddominance>none</fielddominance>
									</samplecharacteristics>
								</video>
							</media>
						</file>
						<logginginfo>
							<description></description>
							<scene></scene>
							<shottake></shottake>
							<lognote></lognote>
							<good></good>
							<originalvideofilename></originalvideofilename>
							<originalaudiofilename></originalaudiofilename>
						</logginginfo>
						<colorinfo>
							<lut></lut>
							<lut1></lut1>
							<asc_sop></asc_sop>
							<asc_sat></asc_sat>
							<lut2></lut2>
						</colorinfo>
						<labels>
							<label2>Violet</label2>
						</labels>
					</clipitem>
					<clipitem id="clipitem-1281">
						<masterclipid>masterclip-1278</masterclipid>
						<name>TKO_018_SEW_Sh13340.mov</name>
						<enabled>TRUE</enabled>
						<duration>268</duration>
						<rate>
							<timebase>24</timebase>
							<ntsc>TRUE</ntsc>
						</rate>
						<start>93641</start>
						<end>93901</end>
						<in>4</in>
						<out>264</out>
						<pproTicksIn>42378336000</pproTicksIn>
						<pproTicksOut>2796970176000</pproTicksOut>
						<alphatype>none</alphatype>
						<pixelaspectratio>square</pixelaspectratio>
						<anamorphic>FALSE</anamorphic>
						<file id="file-1278">
							<name>TKO_018_SEW_Sh13340.mov</name>
							<pathurl>file://tri-stor01/Projects/TKO/SHOTS/_Refs_Movs_Burnin_FrameCounter/TKO_018_SEW_Sh13340.mov</pathurl>
							<rate>
								<timebase>24</timebase>
								<ntsc>TRUE</ntsc>
							</rate>
							<duration>268</duration>
							<timecode>
								<rate>
									<timebase>24</timebase>
									<ntsc>TRUE</ntsc>
								</rate>
								<string>12:25:34:07</string>
								<frame>1073623</frame>
								<displayformat>NDF</displayformat>
								<reel>
									<name>A0410004</name>
								</reel>
							</timecode>
							<media>
								<video>
									<samplecharacteristics>
										<rate>
											<timebase>24</timebase>
											<ntsc>TRUE</ntsc>
										</rate>
										<width>4096</width>
										<height>2160</height>
										<anamorphic>FALSE</anamorphic>
										<pixelaspectratio>square</pixelaspectratio>
										<fielddominance>none</fielddominance>
									</samplecharacteristics>
								</video>
							</media>
						</file>
						<logginginfo>
							<description></description>
							<scene></scene>
							<shottake></shottake>
							<lognote></lognote>
							<good></good>
							<originalvideofilename></originalvideofilename>
							<originalaudiofilename></originalaudiofilename>
						</logginginfo>
						<colorinfo>
							<lut></lut>
							<lut1></lut1>
							<asc_sop></asc_sop>
							<asc_sat></asc_sat>
							<lut2></lut2>
						</colorinfo>
						<labels>
							<label2>Violet</label2>
						</labels>
					</clipitem>
					<clipitem id="clipitem-1282">
						<masterclipid>masterclip-1279</masterclipid>
						<name>TKO_018_SEW_Sh13350.mov</name>
						<enabled>TRUE</enabled>
						<duration>71</duration>
						<rate>
							<timebase>24</timebase>
							<ntsc>TRUE</ntsc>
						</rate>
						<start>93901</start>
						<end>93964</end>
						<in>4</in>
						<out>67</out>
						<pproTicksIn>42378336000</pproTicksIn>
						<pproTicksOut>709837128000</pproTicksOut>
						<alphatype>none</alphatype>
						<pixelaspectratio>square</pixelaspectratio>
						<anamorphic>FALSE</anamorphic>
						<file id="file-1279">
							<name>TKO_018_SEW_Sh13350.mov</name>
							<pathurl>file://tri-stor01/Projects/TKO/SHOTS/_Refs_Movs_Burnin_FrameCounter/TKO_018_SEW_Sh13350.mov</pathurl>
							<rate>
								<timebase>24</timebase>
								<ntsc>TRUE</ntsc>
							</rate>
							<duration>71</duration>
							<timecode>
								<rate>
									<timebase>24</timebase>
									<ntsc>TRUE</ntsc>
								</rate>
								<string>13:03:27:13</string>
								<frame>1128181</frame>
								<displayformat>NDF</displayformat>
								<reel>
									<name>B0350007</name>
								</reel>
							</timecode>
							<media>
								<video>
									<samplecharacteristics>
										<rate>
											<timebase>24</timebase>
											<ntsc>TRUE</ntsc>
										</rate>
										<width>4096</width>
										<height>2160</height>
										<anamorphic>FALSE</anamorphic>
										<pixelaspectratio>square</pixelaspectratio>
										<fielddominance>none</fielddominance>
									</samplecharacteristics>
								</video>
							</media>
						</file>
						<logginginfo>
							<description></description>
							<scene></scene>
							<shottake></shottake>
							<lognote></lognote>
							<good></good>
							<originalvideofilename></originalvideofilename>
							<originalaudiofilename></originalaudiofilename>
						</logginginfo>
						<colorinfo>
							<lut></lut>
							<lut1></lut1>
							<asc_sop></asc_sop>
							<asc_sat></asc_sat>
							<lut2></lut2>
						</colorinfo>
						<labels>
							<label2>Violet</label2>
						</labels>
					</clipitem>
					<clipitem id="clipitem-1283">
						<masterclipid>masterclip-1280</masterclipid>
						<name>TKO_018_SEW_Sh13360.mov</name>
						<enabled>TRUE</enabled>
						<duration>188</duration>
						<rate>
							<timebase>24</timebase>
							<ntsc>TRUE</ntsc>
						</rate>
						<start>93964</start>
						<end>94144</end>
						<in>4</in>
						<out>184</out>
						<pproTicksIn>42378336000</pproTicksIn>
						<pproTicksOut>1949403456000</pproTicksOut>
						<alphatype>none</alphatype>
						<pixelaspectratio>square</pixelaspectratio>
						<anamorphic>FALSE</anamorphic>
						<file id="file-1280">
							<name>TKO_018_SEW_Sh13360.mov</name>
							<pathurl>file://tri-stor01/Projects/TKO/SHOTS/_Refs_Movs_Burnin_FrameCounter/TKO_018_SEW_Sh13360.mov</pathurl>
							<rate>
								<timebase>24</timebase>
								<ntsc>TRUE</ntsc>
							</rate>
							<duration>188</duration>
							<timecode>
								<rate>
									<timebase>24</timebase>
									<ntsc>TRUE</ntsc>
								</rate>
								<string>13:03:30:04</string>
								<frame>1128244</frame>
								<displayformat>NDF</displayformat>
								<reel>
									<name>A0410007</name>
								</reel>
							</timecode>
							<media>
								<video>
									<samplecharacteristics>
										<rate>
											<timebase>24</timebase>
											<ntsc>TRUE</ntsc>
										</rate>
										<width>4096</width>
										<height>2160</height>
										<anamorphic>FALSE</anamorphic>
										<pixelaspectratio>square</pixelaspectratio>
										<fielddominance>none</fielddominance>
									</samplecharacteristics>
								</video>
							</media>
						</file>
						<logginginfo>
							<description></description>
							<scene></scene>
							<shottake></shottake>
							<lognote></lognote>
							<good></good>
							<originalvideofilename></originalvideofilename>
							<originalaudiofilename></originalaudiofilename>
						</logginginfo>
						<colorinfo>
							<lut></lut>
							<lut1></lut1>
							<asc_sop></asc_sop>
							<asc_sat></asc_sat>
							<lut2></lut2>
						</colorinfo>
						<labels>
							<label2>Violet</label2>
						</labels>
					</clipitem>
					<clipitem id="clipitem-1284">
						<masterclipid>masterclip-1281</masterclipid>
						<name>TKO_018_SEW_Sh13370.mov</name>
						<enabled>TRUE</enabled>
						<duration>121</duration>
						<rate>
							<timebase>24</timebase>
							<ntsc>TRUE</ntsc>
						</rate>
						<start>94144</start>
						<end>94257</end>
						<in>4</in>
						<out>117</out>
						<pproTicksIn>42378336000</pproTicksIn>
						<pproTicksOut>1239566328000</pproTicksOut>
						<alphatype>none</alphatype>
						<pixelaspectratio>square</pixelaspectratio>
						<anamorphic>FALSE</anamorphic>
						<file id="file-1281">
							<name>TKO_018_SEW_Sh13370.mov</name>
							<pathurl>file://tri-stor01/Projects/TKO/SHOTS/_Refs_Movs_Burnin_FrameCounter/TKO_018_SEW_Sh13370.mov</pathurl>
							<rate>
								<timebase>24</timebase>
								<ntsc>TRUE</ntsc>
							</rate>
							<duration>121</duration>
							<timecode>
								<rate>
									<timebase>24</timebase>
									<ntsc>TRUE</ntsc>
								</rate>
								<string>13:03:37:16</string>
								<frame>1128424</frame>
								<displayformat>NDF</displayformat>
								<reel>
									<name>B0350007</name>
								</reel>
							</timecode>
							<media>
								<video>
									<samplecharacteristics>
										<rate>
											<timebase>24</timebase>
											<ntsc>TRUE</ntsc>
										</rate>
										<width>4096</width>
										<height>2160</height>
										<anamorphic>FALSE</anamorphic>
										<pixelaspectratio>square</pixelaspectratio>
										<fielddominance>none</fielddominance>
									</samplecharacteristics>
								</video>
							</media>
						</file>
						<logginginfo>
							<description></description>
							<scene></scene>
							<shottake></shottake>
							<lognote></lognote>
							<good></good>
							<originalvideofilename></originalvideofilename>
							<originalaudiofilename></originalaudiofilename>
						</logginginfo>
						<colorinfo>
							<lut></lut>
							<lut1></lut1>
							<asc_sop></asc_sop>
							<asc_sat></asc_sat>
							<lut2></lut2>
						</colorinfo>
						<labels>
							<label2>Violet</label2>
						</labels>
					</clipitem>
					<clipitem id="clipitem-1285">
						<masterclipid>masterclip-1282</masterclipid>
						<name>TKO_018_SEW_Sh13380.mov</name>
						<enabled>TRUE</enabled>
						<duration>73</duration>
						<rate>
							<timebase>24</timebase>
							<ntsc>TRUE</ntsc>
						</rate>
						<start>94257</start>
						<end>94322</end>
						<in>4</in>
						<out>69</out>
						<pproTicksIn>42378336000</pproTicksIn>
						<pproTicksOut>731026296000</pproTicksOut>
						<alphatype>none</alphatype>
						<pixelaspectratio>square</pixelaspectratio>
						<anamorphic>FALSE</anamorphic>
						<file id="file-1282">
							<name>TKO_018_SEW_Sh13380.mov</name>
							<pathurl>file://tri-stor01/Projects/TKO/SHOTS/_Refs_Movs_Burnin_FrameCounter/TKO_018_SEW_Sh13380.mov</pathurl>
							<rate>
								<timebase>24</timebase>
								<ntsc>TRUE</ntsc>
							</rate>
							<duration>73</duration>
							<timecode>
								<rate>
									<timebase>24</timebase>
									<ntsc>TRUE</ntsc>
								</rate>
								<string>13:03:42:09</string>
								<frame>1128537</frame>
								<displayformat>NDF</displayformat>
								<reel>
									<name>A0410007</name>
								</reel>
							</timecode>
							<media>
								<video>
									<samplecharacteristics>
										<rate>
											<timebase>24</timebase>
											<ntsc>TRUE</ntsc>
										</rate>
										<width>4096</width>
										<height>2160</height>
										<anamorphic>FALSE</anamorphic>
										<pixelaspectratio>square</pixelaspectratio>
										<fielddominance>none</fielddominance>
									</samplecharacteristics>
								</video>
							</media>
						</file>
						<logginginfo>
							<description></description>
							<scene></scene>
							<shottake></shottake>
							<lognote></lognote>
							<good></good>
							<originalvideofilename></originalvideofilename>
							<originalaudiofilename></originalaudiofilename>
						</logginginfo>
						<colorinfo>
							<lut></lut>
							<lut1></lut1>
							<asc_sop></asc_sop>
							<asc_sat></asc_sat>
							<lut2></lut2>
						</colorinfo>
						<labels>
							<label2>Violet</label2>
						</labels>
					</clipitem>
					<clipitem id="clipitem-1286">
						<masterclipid>masterclip-1283</masterclipid>
						<name>TKO_018_SEW_Sh13390.mov</name>
						<enabled>TRUE</enabled>
						<duration>40</duration>
						<rate>
							<timebase>24</timebase>
							<ntsc>TRUE</ntsc>
						</rate>
						<start>94322</start>
						<end>94354</end>
						<in>4</in>
						<out>36</out>
						<pproTicksIn>42378336000</pproTicksIn>
						<pproTicksOut>381405024000</pproTicksOut>
						<alphatype>none</alphatype>
						<pixelaspectratio>square</pixelaspectratio>
						<anamorphic>FALSE</anamorphic>
						<file id="file-1283">
							<name>TKO_018_SEW_Sh13390.mov</name>
							<pathurl>file://tri-stor01/Projects/TKO/SHOTS/_Refs_Movs_Burnin_FrameCounter/TKO_018_SEW_Sh13390.mov</pathurl>
							<rate>
								<timebase>24</timebase>
								<ntsc>TRUE</ntsc>
							</rate>
							<duration>40</duration>
							<timecode>
								<rate>
									<timebase>24</timebase>
									<ntsc>TRUE</ntsc>
								</rate>
								<string>13:03:45:02</string>
								<frame>1128602</frame>
								<displayformat>NDF</displayformat>
								<reel>
									<name>B0350007</name>
								</reel>
							</timecode>
							<media>
								<video>
									<samplecharacteristics>
										<rate>
											<timebase>24</timebase>
											<ntsc>TRUE</ntsc>
										</rate>
										<width>4096</width>
										<height>2160</height>
										<anamorphic>FALSE</anamorphic>
										<pixelaspectratio>square</pixelaspectratio>
										<fielddominance>none</fielddominance>
									</samplecharacteristics>
								</video>
							</media>
						</file>
						<logginginfo>
							<description></description>
							<scene></scene>
							<shottake></shottake>
							<lognote></lognote>
							<good></good>
							<originalvideofilename></originalvideofilename>
							<originalaudiofilename></originalaudiofilename>
						</logginginfo>
						<colorinfo>
							<lut></lut>
							<lut1></lut1>
							<asc_sop></asc_sop>
							<asc_sat></asc_sat>
							<lut2></lut2>
						</colorinfo>
						<labels>
							<label2>Violet</label2>
						</labels>
					</clipitem>
					<clipitem id="clipitem-1287">
						<masterclipid>masterclip-1284</masterclipid>
						<name>TKO_018_SEW_Sh13400.mov</name>
						<enabled>TRUE</enabled>
						<duration>28</duration>
						<rate>
							<timebase>24</timebase>
							<ntsc>TRUE</ntsc>
						</rate>
						<start>94354</start>
						<end>94374</end>
						<in>4</in>
						<out>24</out>
						<pproTicksIn>42378336000</pproTicksIn>
						<pproTicksOut>254270016000</pproTicksOut>
						<alphatype>none</alphatype>
						<pixelaspectratio>square</pixelaspectratio>
						<anamorphic>FALSE</anamorphic>
						<file id="file-1284">
							<name>TKO_018_SEW_Sh13400.mov</name>
							<pathurl>file://tri-stor01/Projects/TKO/SHOTS/_Refs_Movs_Burnin_FrameCounter/TKO_018_SEW_Sh13400.mov</pathurl>
							<rate>
								<timebase>24</timebase>
								<ntsc>TRUE</ntsc>
							</rate>
							<duration>28</duration>
							<timecode>
								<rate>
									<timebase>24</timebase>
									<ntsc>TRUE</ntsc>
								</rate>
								<string>18:13:56:16</string>
								<frame>1575280</frame>
								<displayformat>NDF</displayformat>
								<reel>
									<name>A0240009</name>
								</reel>
							</timecode>
							<media>
								<video>
									<samplecharacteristics>
										<rate>
											<timebase>24</timebase>
											<ntsc>TRUE</ntsc>
										</rate>
										<width>4096</width>
										<height>2160</height>
										<anamorphic>FALSE</anamorphic>
										<pixelaspectratio>square</pixelaspectratio>
										<fielddominance>none</fielddominance>
									</samplecharacteristics>
								</video>
							</media>
						</file>
						<logginginfo>
							<description></description>
							<scene></scene>
							<shottake></shottake>
							<lognote></lognote>
							<good></good>
							<originalvideofilename></originalvideofilename>
							<originalaudiofilename></originalaudiofilename>
						</logginginfo>
						<colorinfo>
							<lut></lut>
							<lut1></lut1>
							<asc_sop></asc_sop>
							<asc_sat></asc_sat>
							<lut2></lut2>
						</colorinfo>
						<labels>
							<label2>Violet</label2>
						</labels>
					</clipitem>
					<clipitem id="clipitem-1288">
						<masterclipid>masterclip-1285</masterclipid>
						<name>TKO_018_SEW_Sh13410.mov</name>
						<enabled>TRUE</enabled>
						<duration>70</duration>
						<rate>
							<timebase>24</timebase>
							<ntsc>TRUE</ntsc>
						</rate>
						<start>94374</start>
						<end>94436</end>
						<in>4</in>
						<out>66</out>
						<pproTicksIn>42378336000</pproTicksIn>
						<pproTicksOut>699242544000</pproTicksOut>
						<alphatype>none</alphatype>
						<pixelaspectratio>square</pixelaspectratio>
						<anamorphic>FALSE</anamorphic>
						<file id="file-1285">
							<name>TKO_018_SEW_Sh13410.mov</name>
							<pathurl>file://tri-stor01/Projects/TKO/SHOTS/_Refs_Movs_Burnin_FrameCounter/TKO_018_SEW_Sh13410.mov</pathurl>
							<rate>
								<timebase>24</timebase>
								<ntsc>TRUE</ntsc>
							</rate>
							<duration>70</duration>
							<timecode>
								<rate>
									<timebase>24</timebase>
									<ntsc>TRUE</ntsc>
								</rate>
								<string>17:11:24:20</string>
								<frame>1485236</frame>
								<displayformat>NDF</displayformat>
								<reel>
									<name>A0240005</name>
								</reel>
							</timecode>
							<media>
								<video>
									<samplecharacteristics>
										<rate>
											<timebase>24</timebase>
											<ntsc>TRUE</ntsc>
										</rate>
										<width>4096</width>
										<height>2160</height>
										<anamorphic>FALSE</anamorphic>
										<pixelaspectratio>square</pixelaspectratio>
										<fielddominance>none</fielddominance>
									</samplecharacteristics>
								</video>
							</media>
						</file>
						<logginginfo>
							<description></description>
							<scene></scene>
							<shottake></shottake>
							<lognote></lognote>
							<good></good>
							<originalvideofilename></originalvideofilename>
							<originalaudiofilename></originalaudiofilename>
						</logginginfo>
						<colorinfo>
							<lut></lut>
							<lut1></lut1>
							<asc_sop></asc_sop>
							<asc_sat></asc_sat>
							<lut2></lut2>
						</colorinfo>
						<labels>
							<label2>Violet</label2>
						</labels>
					</clipitem>
					<clipitem id="clipitem-1289">
						<masterclipid>masterclip-1286</masterclipid>
						<name>TKO_018_SEW_Sh13420.mov</name>
						<enabled>TRUE</enabled>
						<duration>66</duration>
						<rate>
							<timebase>24</timebase>
							<ntsc>TRUE</ntsc>
						</rate>
						<start>94436</start>
						<end>94494</end>
						<in>4</in>
						<out>62</out>
						<pproTicksIn>42378336000</pproTicksIn>
						<pproTicksOut>656864208000</pproTicksOut>
						<alphatype>none</alphatype>
						<pixelaspectratio>square</pixelaspectratio>
						<anamorphic>FALSE</anamorphic>
						<file id="file-1286">
							<name>TKO_018_SEW_Sh13420.mov</name>
							<pathurl>file://tri-stor01/Projects/TKO/SHOTS/_Refs_Movs_Burnin_FrameCounter/TKO_018_SEW_Sh13420.mov</pathurl>
							<rate>
								<timebase>24</timebase>
								<ntsc>TRUE</ntsc>
							</rate>
							<duration>66</duration>
							<timecode>
								<rate>
									<timebase>24</timebase>
									<ntsc>TRUE</ntsc>
								</rate>
								<string>18:14:00:13</string>
								<frame>1575373</frame>
								<displayformat>NDF</displayformat>
								<reel>
									<name>A0240009</name>
								</reel>
							</timecode>
							<media>
								<video>
									<samplecharacteristics>
										<rate>
											<timebase>24</timebase>
											<ntsc>TRUE</ntsc>
										</rate>
										<width>4096</width>
										<height>2160</height>
										<anamorphic>FALSE</anamorphic>
										<pixelaspectratio>square</pixelaspectratio>
										<fielddominance>none</fielddominance>
									</samplecharacteristics>
								</video>
							</media>
						</file>
						<logginginfo>
							<description></description>
							<scene></scene>
							<shottake></shottake>
							<lognote></lognote>
							<good></good>
							<originalvideofilename></originalvideofilename>
							<originalaudiofilename></originalaudiofilename>
						</logginginfo>
						<colorinfo>
							<lut></lut>
							<lut1></lut1>
							<asc_sop></asc_sop>
							<asc_sat></asc_sat>
							<lut2></lut2>
						</colorinfo>
						<labels>
							<label2>Violet</label2>
						</labels>
					</clipitem>
					<clipitem id="clipitem-1290">
						<masterclipid>masterclip-1287</masterclipid>
						<name>TKO_018_SEW_Sh13430.mov</name>
						<enabled>TRUE</enabled>
						<duration>107</duration>
						<rate>
							<timebase>24</timebase>
							<ntsc>TRUE</ntsc>
						</rate>
						<start>94494</start>
						<end>94593</end>
						<in>4</in>
						<out>103</out>
						<pproTicksIn>42378336000</pproTicksIn>
						<pproTicksOut>1091242152000</pproTicksOut>
						<alphatype>none</alphatype>
						<pixelaspectratio>square</pixelaspectratio>
						<anamorphic>FALSE</anamorphic>
						<file id="file-1287">
							<name>TKO_018_SEW_Sh13430.mov</name>
							<pathurl>file://tri-stor01/Projects/TKO/SHOTS/_Refs_Movs_Burnin_FrameCounter/TKO_018_SEW_Sh13430.mov</pathurl>
							<rate>
								<timebase>24</timebase>
								<ntsc>TRUE</ntsc>
							</rate>
							<duration>107</duration>
							<timecode>
								<rate>
									<timebase>24</timebase>
									<ntsc>TRUE</ntsc>
								</rate>
								<string>16:49:15:20</string>
								<frame>1453340</frame>
								<displayformat>NDF</displayformat>
								<reel>
									<name>B0200003</name>
								</reel>
							</timecode>
							<media>
								<video>
									<samplecharacteristics>
										<rate>
											<timebase>24</timebase>
											<ntsc>TRUE</ntsc>
										</rate>
										<width>4096</width>
										<height>2160</height>
										<anamorphic>FALSE</anamorphic>
										<pixelaspectratio>square</pixelaspectratio>
										<fielddominance>none</fielddominance>
									</samplecharacteristics>
								</video>
							</media>
						</file>
						<logginginfo>
							<description></description>
							<scene></scene>
							<shottake></shottake>
							<lognote></lognote>
							<good></good>
							<originalvideofilename></originalvideofilename>
							<originalaudiofilename></originalaudiofilename>
						</logginginfo>
						<colorinfo>
							<lut></lut>
							<lut1></lut1>
							<asc_sop></asc_sop>
							<asc_sat></asc_sat>
							<lut2></lut2>
						</colorinfo>
						<labels>
							<label2>Violet</label2>
						</labels>
					</clipitem>
					<clipitem id="clipitem-1291">
						<masterclipid>masterclip-1288</masterclipid>
						<name>TKO_018_SEW_Sh13440.mov</name>
						<enabled>TRUE</enabled>
						<duration>55</duration>
						<rate>
							<timebase>24</timebase>
							<ntsc>TRUE</ntsc>
						</rate>
						<start>94593</start>
						<end>94640</end>
						<in>4</in>
						<out>51</out>
						<pproTicksIn>42378336000</pproTicksIn>
						<pproTicksOut>540323784000</pproTicksOut>
						<alphatype>none</alphatype>
						<pixelaspectratio>square</pixelaspectratio>
						<anamorphic>FALSE</anamorphic>
						<file id="file-1288">
							<name>TKO_018_SEW_Sh13440.mov</name>
							<pathurl>file://tri-stor01/Projects/TKO/SHOTS/_Refs_Movs_Burnin_FrameCounter/TKO_018_SEW_Sh13440.mov</pathurl>
							<rate>
								<timebase>24</timebase>
								<ntsc>TRUE</ntsc>
							</rate>
							<duration>55</duration>
							<timecode>
								<rate>
									<timebase>24</timebase>
									<ntsc>TRUE</ntsc>
								</rate>
								<string>18:14:07:00</string>
								<frame>1575528</frame>
								<displayformat>NDF</displayformat>
								<reel>
									<name>A0240009</name>
								</reel>
							</timecode>
							<media>
								<video>
									<samplecharacteristics>
										<rate>
											<timebase>24</timebase>
											<ntsc>TRUE</ntsc>
										</rate>
										<width>4096</width>
										<height>2160</height>
										<anamorphic>FALSE</anamorphic>
										<pixelaspectratio>square</pixelaspectratio>
										<fielddominance>none</fielddominance>
									</samplecharacteristics>
								</video>
							</media>
						</file>
						<logginginfo>
							<description></description>
							<scene></scene>
							<shottake></shottake>
							<lognote></lognote>
							<good></good>
							<originalvideofilename></originalvideofilename>
							<originalaudiofilename></originalaudiofilename>
						</logginginfo>
						<colorinfo>
							<lut></lut>
							<lut1></lut1>
							<asc_sop></asc_sop>
							<asc_sat></asc_sat>
							<lut2></lut2>
						</colorinfo>
						<labels>
							<label2>Violet</label2>
						</labels>
					</clipitem>
					<clipitem id="clipitem-1292">
						<masterclipid>masterclip-1289</masterclipid>
						<name>TKO_018_SEW_Sh13450.mov</name>
						<enabled>TRUE</enabled>
						<duration>51</duration>
						<rate>
							<timebase>24</timebase>
							<ntsc>TRUE</ntsc>
						</rate>
						<start>94640</start>
						<end>94683</end>
						<in>4</in>
						<out>47</out>
						<pproTicksIn>42378336000</pproTicksIn>
						<pproTicksOut>497945448000</pproTicksOut>
						<alphatype>none</alphatype>
						<pixelaspectratio>square</pixelaspectratio>
						<anamorphic>FALSE</anamorphic>
						<file id="file-1289">
							<name>TKO_018_SEW_Sh13450.mov</name>
							<pathurl>file://tri-stor01/Projects/TKO/SHOTS/_Refs_Movs_Burnin_FrameCounter/TKO_018_SEW_Sh13450.mov</pathurl>
							<rate>
								<timebase>24</timebase>
								<ntsc>TRUE</ntsc>
							</rate>
							<duration>51</duration>
							<timecode>
								<rate>
									<timebase>24</timebase>
									<ntsc>TRUE</ntsc>
								</rate>
								<string>16:49:23:15</string>
								<frame>1453527</frame>
								<displayformat>NDF</displayformat>
								<reel>
									<name>A0240003</name>
								</reel>
							</timecode>
							<media>
								<video>
									<samplecharacteristics>
										<rate>
											<timebase>24</timebase>
											<ntsc>TRUE</ntsc>
										</rate>
										<width>4096</width>
										<height>2160</height>
										<anamorphic>FALSE</anamorphic>
										<pixelaspectratio>square</pixelaspectratio>
										<fielddominance>none</fielddominance>
									</samplecharacteristics>
								</video>
							</media>
						</file>
						<logginginfo>
							<description></description>
							<scene></scene>
							<shottake></shottake>
							<lognote></lognote>
							<good></good>
							<originalvideofilename></originalvideofilename>
							<originalaudiofilename></originalaudiofilename>
						</logginginfo>
						<colorinfo>
							<lut></lut>
							<lut1></lut1>
							<asc_sop></asc_sop>
							<asc_sat></asc_sat>
							<lut2></lut2>
						</colorinfo>
						<labels>
							<label2>Violet</label2>
						</labels>
					</clipitem>
					<clipitem id="clipitem-1293">
						<masterclipid>masterclip-1290</masterclipid>
						<name>TKO_018_SEW_Sh13460.mov</name>
						<enabled>TRUE</enabled>
						<duration>50</duration>
						<rate>
							<timebase>24</timebase>
							<ntsc>TRUE</ntsc>
						</rate>
						<start>94683</start>
						<end>94725</end>
						<in>4</in>
						<out>46</out>
						<pproTicksIn>42378336000</pproTicksIn>
						<pproTicksOut>487350864000</pproTicksOut>
						<alphatype>none</alphatype>
						<pixelaspectratio>square</pixelaspectratio>
						<anamorphic>FALSE</anamorphic>
						<file id="file-1290">
							<name>TKO_018_SEW_Sh13460.mov</name>
							<pathurl>file://tri-stor01/Projects/TKO/SHOTS/_Refs_Movs_Burnin_FrameCounter/TKO_018_SEW_Sh13460.mov</pathurl>
							<rate>
								<timebase>24</timebase>
								<ntsc>TRUE</ntsc>
							</rate>
							<duration>50</duration>
							<timecode>
								<rate>
									<timebase>24</timebase>
									<ntsc>TRUE</ntsc>
								</rate>
								<string>17:11:41:10</string>
								<frame>1485634</frame>
								<displayformat>NDF</displayformat>
								<reel>
									<name>A0240005</name>
								</reel>
							</timecode>
							<media>
								<video>
									<samplecharacteristics>
										<rate>
											<timebase>24</timebase>
											<ntsc>TRUE</ntsc>
										</rate>
										<width>4096</width>
										<height>2160</height>
										<anamorphic>FALSE</anamorphic>
										<pixelaspectratio>square</pixelaspectratio>
										<fielddominance>none</fielddominance>
									</samplecharacteristics>
								</video>
							</media>
						</file>
						<logginginfo>
							<description></description>
							<scene></scene>
							<shottake></shottake>
							<lognote></lognote>
							<good></good>
							<originalvideofilename></originalvideofilename>
							<originalaudiofilename></originalaudiofilename>
						</logginginfo>
						<colorinfo>
							<lut></lut>
							<lut1></lut1>
							<asc_sop></asc_sop>
							<asc_sat></asc_sat>
							<lut2></lut2>
						</colorinfo>
						<labels>
							<label2>Violet</label2>
						</labels>
					</clipitem>
					<clipitem id="clipitem-1294">
						<masterclipid>masterclip-1291</masterclipid>
						<name>TKO_018_SEW_Sh13470.mov</name>
						<enabled>TRUE</enabled>
						<duration>43</duration>
						<rate>
							<timebase>24</timebase>
							<ntsc>TRUE</ntsc>
						</rate>
						<start>94725</start>
						<end>94760</end>
						<in>4</in>
						<out>39</out>
						<pproTicksIn>42378336000</pproTicksIn>
						<pproTicksOut>413188776000</pproTicksOut>
						<alphatype>none</alphatype>
						<pixelaspectratio>square</pixelaspectratio>
						<anamorphic>FALSE</anamorphic>
						<file id="file-1291">
							<name>TKO_018_SEW_Sh13470.mov</name>
							<pathurl>file://tri-stor01/Projects/TKO/SHOTS/_Refs_Movs_Burnin_FrameCounter/TKO_018_SEW_Sh13470.mov</pathurl>
							<rate>
								<timebase>24</timebase>
								<ntsc>TRUE</ntsc>
							</rate>
							<duration>43</duration>
							<timecode>
								<rate>
									<timebase>24</timebase>
									<ntsc>TRUE</ntsc>
								</rate>
								<string>07:01:31:23</string>
								<frame>607007</frame>
								<displayformat>NDF</displayformat>
								<reel>
									<name>C0160003</name>
								</reel>
							</timecode>
							<media>
								<video>
									<samplecharacteristics>
										<rate>
											<timebase>24</timebase>
											<ntsc>TRUE</ntsc>
										</rate>
										<width>3840</width>
										<height>2160</height>
										<anamorphic>FALSE</anamorphic>
										<pixelaspectratio>square</pixelaspectratio>
										<fielddominance>none</fielddominance>
									</samplecharacteristics>
								</video>
							</media>
						</file>
						<logginginfo>
							<description></description>
							<scene></scene>
							<shottake></shottake>
							<lognote></lognote>
							<good></good>
							<originalvideofilename></originalvideofilename>
							<originalaudiofilename></originalaudiofilename>
						</logginginfo>
						<colorinfo>
							<lut></lut>
							<lut1></lut1>
							<asc_sop></asc_sop>
							<asc_sat></asc_sat>
							<lut2></lut2>
						</colorinfo>
						<labels>
							<label2>Violet</label2>
						</labels>
					</clipitem>
					<clipitem id="clipitem-1295">
						<masterclipid>masterclip-1292</masterclipid>
						<name>TKO_018_SEW_Sh13480.mov</name>
						<enabled>TRUE</enabled>
						<duration>34</duration>
						<rate>
							<timebase>24</timebase>
							<ntsc>TRUE</ntsc>
						</rate>
						<start>94760</start>
						<end>94786</end>
						<in>4</in>
						<out>30</out>
						<pproTicksIn>42378336000</pproTicksIn>
						<pproTicksOut>317837520000</pproTicksOut>
						<alphatype>none</alphatype>
						<pixelaspectratio>square</pixelaspectratio>
						<anamorphic>FALSE</anamorphic>
						<file id="file-1292">
							<name>TKO_018_SEW_Sh13480.mov</name>
							<pathurl>file://tri-stor01/Projects/TKO/SHOTS/_Refs_Movs_Burnin_FrameCounter/TKO_018_SEW_Sh13480.mov</pathurl>
							<rate>
								<timebase>24</timebase>
								<ntsc>TRUE</ntsc>
							</rate>
							<duration>34</duration>
							<timecode>
								<rate>
									<timebase>24</timebase>
									<ntsc>TRUE</ntsc>
								</rate>
								<string>17:11:45:04</string>
								<frame>1485724</frame>
								<displayformat>NDF</displayformat>
								<reel>
									<name>A0240005</name>
								</reel>
							</timecode>
							<media>
								<video>
									<samplecharacteristics>
										<rate>
											<timebase>24</timebase>
											<ntsc>TRUE</ntsc>
										</rate>
										<width>4096</width>
										<height>2160</height>
										<anamorphic>FALSE</anamorphic>
										<pixelaspectratio>square</pixelaspectratio>
										<fielddominance>none</fielddominance>
									</samplecharacteristics>
								</video>
							</media>
						</file>
						<logginginfo>
							<description></description>
							<scene></scene>
							<shottake></shottake>
							<lognote></lognote>
							<good></good>
							<originalvideofilename></originalvideofilename>
							<originalaudiofilename></originalaudiofilename>
						</logginginfo>
						<colorinfo>
							<lut></lut>
							<lut1></lut1>
							<asc_sop></asc_sop>
							<asc_sat></asc_sat>
							<lut2></lut2>
						</colorinfo>
						<labels>
							<label2>Violet</label2>
						</labels>
					</clipitem>
					<clipitem id="clipitem-1296">
						<masterclipid>masterclip-1293</masterclipid>
						<name>TKO_018_SEW_Sh13490.mov</name>
						<enabled>TRUE</enabled>
						<duration>27</duration>
						<rate>
							<timebase>24</timebase>
							<ntsc>TRUE</ntsc>
						</rate>
						<start>94786</start>
						<end>94805</end>
						<in>4</in>
						<out>23</out>
						<pproTicksIn>42378336000</pproTicksIn>
						<pproTicksOut>243675432000</pproTicksOut>
						<alphatype>none</alphatype>
						<pixelaspectratio>square</pixelaspectratio>
						<anamorphic>FALSE</anamorphic>
						<file id="file-1293">
							<name>TKO_018_SEW_Sh13490.mov</name>
							<pathurl>file://tri-stor01/Projects/TKO/SHOTS/_Refs_Movs_Burnin_FrameCounter/TKO_018_SEW_Sh13490.mov</pathurl>
							<rate>
								<timebase>24</timebase>
								<ntsc>TRUE</ntsc>
							</rate>
							<duration>27</duration>
							<timecode>
								<rate>
									<timebase>24</timebase>
									<ntsc>TRUE</ntsc>
								</rate>
								<string>16:49:29:22</string>
								<frame>1453678</frame>
								<displayformat>NDF</displayformat>
								<reel>
									<name>B0200003</name>
								</reel>
							</timecode>
							<media>
								<video>
									<samplecharacteristics>
										<rate>
											<timebase>24</timebase>
											<ntsc>TRUE</ntsc>
										</rate>
										<width>4096</width>
										<height>2160</height>
										<anamorphic>FALSE</anamorphic>
										<pixelaspectratio>square</pixelaspectratio>
										<fielddominance>none</fielddominance>
									</samplecharacteristics>
								</video>
							</media>
						</file>
						<logginginfo>
							<description></description>
							<scene></scene>
							<shottake></shottake>
							<lognote></lognote>
							<good></good>
							<originalvideofilename></originalvideofilename>
							<originalaudiofilename></originalaudiofilename>
						</logginginfo>
						<colorinfo>
							<lut></lut>
							<lut1></lut1>
							<asc_sop></asc_sop>
							<asc_sat></asc_sat>
							<lut2></lut2>
						</colorinfo>
						<labels>
							<label2>Violet</label2>
						</labels>
					</clipitem>
					<clipitem id="clipitem-1297">
						<masterclipid>masterclip-1294</masterclipid>
						<name>TKO_018_SEW_Sh13500.mov</name>
						<enabled>TRUE</enabled>
						<duration>32</duration>
						<rate>
							<timebase>24</timebase>
							<ntsc>TRUE</ntsc>
						</rate>
						<start>94805</start>
						<end>94829</end>
						<in>4</in>
						<out>28</out>
						<pproTicksIn>42378336000</pproTicksIn>
						<pproTicksOut>296648352000</pproTicksOut>
						<alphatype>none</alphatype>
						<pixelaspectratio>square</pixelaspectratio>
						<anamorphic>FALSE</anamorphic>
						<file id="file-1294">
							<name>TKO_018_SEW_Sh13500.mov</name>
							<pathurl>file://tri-stor01/Projects/TKO/SHOTS/_Refs_Movs_Burnin_FrameCounter/TKO_018_SEW_Sh13500.mov</pathurl>
							<rate>
								<timebase>24</timebase>
								<ntsc>TRUE</ntsc>
							</rate>
							<duration>32</duration>
							<timecode>
								<rate>
									<timebase>24</timebase>
									<ntsc>TRUE</ntsc>
								</rate>
								<string>07:01:36:01</string>
								<frame>607105</frame>
								<displayformat>NDF</displayformat>
								<reel>
									<name>C0160003</name>
								</reel>
							</timecode>
							<media>
								<video>
									<samplecharacteristics>
										<rate>
											<timebase>24</timebase>
											<ntsc>TRUE</ntsc>
										</rate>
										<width>3840</width>
										<height>2160</height>
										<anamorphic>FALSE</anamorphic>
										<pixelaspectratio>square</pixelaspectratio>
										<fielddominance>none</fielddominance>
									</samplecharacteristics>
								</video>
							</media>
						</file>
						<logginginfo>
							<description></description>
							<scene></scene>
							<shottake></shottake>
							<lognote></lognote>
							<good></good>
							<originalvideofilename></originalvideofilename>
							<originalaudiofilename></originalaudiofilename>
						</logginginfo>
						<colorinfo>
							<lut></lut>
							<lut1></lut1>
							<asc_sop></asc_sop>
							<asc_sat></asc_sat>
							<lut2></lut2>
						</colorinfo>
						<labels>
							<label2>Violet</label2>
						</labels>
					</clipitem>
					<clipitem id="clipitem-1298">
						<masterclipid>masterclip-1295</masterclipid>
						<name>TKO_018_SEW_Sh13510.mov</name>
						<enabled>TRUE</enabled>
						<duration>33</duration>
						<rate>
							<timebase>24</timebase>
							<ntsc>TRUE</ntsc>
						</rate>
						<start>94829</start>
						<end>94854</end>
						<in>4</in>
						<out>29</out>
						<pproTicksIn>42378336000</pproTicksIn>
						<pproTicksOut>307242936000</pproTicksOut>
						<alphatype>none</alphatype>
						<pixelaspectratio>square</pixelaspectratio>
						<anamorphic>FALSE</anamorphic>
						<file id="file-1295">
							<name>TKO_018_SEW_Sh13510.mov</name>
							<pathurl>file://tri-stor01/Projects/TKO/SHOTS/_Refs_Movs_Burnin_FrameCounter/TKO_018_SEW_Sh13510.mov</pathurl>
							<rate>
								<timebase>24</timebase>
								<ntsc>TRUE</ntsc>
							</rate>
							<duration>33</duration>
							<timecode>
								<rate>
									<timebase>24</timebase>
									<ntsc>TRUE</ntsc>
								</rate>
								<string>17:11:47:03</string>
								<frame>1485771</frame>
								<displayformat>NDF</displayformat>
								<reel>
									<name>A0240005</name>
								</reel>
							</timecode>
							<media>
								<video>
									<samplecharacteristics>
										<rate>
											<timebase>24</timebase>
											<ntsc>TRUE</ntsc>
										</rate>
										<width>4096</width>
										<height>2160</height>
										<anamorphic>FALSE</anamorphic>
										<pixelaspectratio>square</pixelaspectratio>
										<fielddominance>none</fielddominance>
									</samplecharacteristics>
								</video>
							</media>
						</file>
						<logginginfo>
							<description></description>
							<scene></scene>
							<shottake></shottake>
							<lognote></lognote>
							<good></good>
							<originalvideofilename></originalvideofilename>
							<originalaudiofilename></originalaudiofilename>
						</logginginfo>
						<colorinfo>
							<lut></lut>
							<lut1></lut1>
							<asc_sop></asc_sop>
							<asc_sat></asc_sat>
							<lut2></lut2>
						</colorinfo>
						<labels>
							<label2>Violet</label2>
						</labels>
					</clipitem>
					<clipitem id="clipitem-1299">
						<masterclipid>masterclip-1296</masterclipid>
						<name>TKO_018_SEW_Sh13520.mov</name>
						<enabled>TRUE</enabled>
						<duration>35</duration>
						<rate>
							<timebase>24</timebase>
							<ntsc>TRUE</ntsc>
						</rate>
						<start>94854</start>
						<end>94881</end>
						<in>4</in>
						<out>31</out>
						<pproTicksIn>42378336000</pproTicksIn>
						<pproTicksOut>328432104000</pproTicksOut>
						<alphatype>none</alphatype>
						<pixelaspectratio>square</pixelaspectratio>
						<anamorphic>FALSE</anamorphic>
						<file id="file-1296">
							<name>TKO_018_SEW_Sh13520.mov</name>
							<pathurl>file://tri-stor01/Projects/TKO/SHOTS/_Refs_Movs_Burnin_FrameCounter/TKO_018_SEW_Sh13520.mov</pathurl>
							<rate>
								<timebase>24</timebase>
								<ntsc>TRUE</ntsc>
							</rate>
							<duration>35</duration>
							<timecode>
								<rate>
									<timebase>24</timebase>
									<ntsc>TRUE</ntsc>
								</rate>
								<string>07:01:38:02</string>
								<frame>607154</frame>
								<displayformat>NDF</displayformat>
								<reel>
									<name>C0160003</name>
								</reel>
							</timecode>
							<media>
								<video>
									<samplecharacteristics>
										<rate>
											<timebase>24</timebase>
											<ntsc>TRUE</ntsc>
										</rate>
										<width>3840</width>
										<height>2160</height>
										<anamorphic>FALSE</anamorphic>
										<pixelaspectratio>square</pixelaspectratio>
										<fielddominance>none</fielddominance>
									</samplecharacteristics>
								</video>
							</media>
						</file>
						<logginginfo>
							<description></description>
							<scene></scene>
							<shottake></shottake>
							<lognote></lognote>
							<good></good>
							<originalvideofilename></originalvideofilename>
							<originalaudiofilename></originalaudiofilename>
						</logginginfo>
						<colorinfo>
							<lut></lut>
							<lut1></lut1>
							<asc_sop></asc_sop>
							<asc_sat></asc_sat>
							<lut2></lut2>
						</colorinfo>
						<labels>
							<label2>Violet</label2>
						</labels>
					</clipitem>
					<clipitem id="clipitem-1300">
						<masterclipid>masterclip-1297</masterclipid>
						<name>TKO_018_SEW_Sh13530.mov</name>
						<enabled>TRUE</enabled>
						<duration>58</duration>
						<rate>
							<timebase>24</timebase>
							<ntsc>TRUE</ntsc>
						</rate>
						<start>94881</start>
						<end>94931</end>
						<in>4</in>
						<out>54</out>
						<pproTicksIn>42378336000</pproTicksIn>
						<pproTicksOut>572107536000</pproTicksOut>
						<alphatype>none</alphatype>
						<pixelaspectratio>square</pixelaspectratio>
						<anamorphic>FALSE</anamorphic>
						<file id="file-1297">
							<name>TKO_018_SEW_Sh13530.mov</name>
							<pathurl>file://tri-stor01/Projects/TKO/SHOTS/_Refs_Movs_Burnin_FrameCounter/TKO_018_SEW_Sh13530.mov</pathurl>
							<rate>
								<timebase>24</timebase>
								<ntsc>TRUE</ntsc>
							</rate>
							<duration>58</duration>
							<timecode>
								<rate>
									<timebase>24</timebase>
									<ntsc>TRUE</ntsc>
								</rate>
								<string>17:11:48:13</string>
								<frame>1485805</frame>
								<displayformat>NDF</displayformat>
								<reel>
									<name>A0240005</name>
								</reel>
							</timecode>
							<media>
								<video>
									<samplecharacteristics>
										<rate>
											<timebase>24</timebase>
											<ntsc>TRUE</ntsc>
										</rate>
										<width>4096</width>
										<height>2160</height>
										<anamorphic>FALSE</anamorphic>
										<pixelaspectratio>square</pixelaspectratio>
										<fielddominance>none</fielddominance>
									</samplecharacteristics>
								</video>
							</media>
						</file>
						<logginginfo>
							<description></description>
							<scene></scene>
							<shottake></shottake>
							<lognote></lognote>
							<good></good>
							<originalvideofilename></originalvideofilename>
							<originalaudiofilename></originalaudiofilename>
						</logginginfo>
						<colorinfo>
							<lut></lut>
							<lut1></lut1>
							<asc_sop></asc_sop>
							<asc_sat></asc_sat>
							<lut2></lut2>
						</colorinfo>
						<labels>
							<label2>Violet</label2>
						</labels>
					</clipitem>
					<clipitem id="clipitem-1301">
						<masterclipid>masterclip-1298</masterclipid>
						<name>TKO_018_SEW_Sh13540.mov</name>
						<enabled>TRUE</enabled>
						<duration>52</duration>
						<rate>
							<timebase>24</timebase>
							<ntsc>TRUE</ntsc>
						</rate>
						<start>94931</start>
						<end>94975</end>
						<in>4</in>
						<out>48</out>
						<pproTicksIn>42378336000</pproTicksIn>
						<pproTicksOut>508540032000</pproTicksOut>
						<alphatype>none</alphatype>
						<pixelaspectratio>square</pixelaspectratio>
						<anamorphic>FALSE</anamorphic>
						<file id="file-1298">
							<name>TKO_018_SEW_Sh13540.mov</name>
							<pathurl>file://tri-stor01/Projects/TKO/SHOTS/_Refs_Movs_Burnin_FrameCounter/TKO_018_SEW_Sh13540.mov</pathurl>
							<rate>
								<timebase>24</timebase>
								<ntsc>TRUE</ntsc>
							</rate>
							<duration>52</duration>
							<timecode>
								<rate>
									<timebase>24</timebase>
									<ntsc>TRUE</ntsc>
								</rate>
								<string>18:01:57:12</string>
								<frame>1558020</frame>
								<displayformat>NDF</displayformat>
								<reel>
									<name>A0240008</name>
								</reel>
							</timecode>
							<media>
								<video>
									<samplecharacteristics>
										<rate>
											<timebase>24</timebase>
											<ntsc>TRUE</ntsc>
										</rate>
										<width>4096</width>
										<height>2160</height>
										<anamorphic>FALSE</anamorphic>
										<pixelaspectratio>square</pixelaspectratio>
										<fielddominance>none</fielddominance>
									</samplecharacteristics>
								</video>
							</media>
						</file>
						<logginginfo>
							<description></description>
							<scene></scene>
							<shottake></shottake>
							<lognote></lognote>
							<good></good>
							<originalvideofilename></originalvideofilename>
							<originalaudiofilename></originalaudiofilename>
						</logginginfo>
						<colorinfo>
							<lut></lut>
							<lut1></lut1>
							<asc_sop></asc_sop>
							<asc_sat></asc_sat>
							<lut2></lut2>
						</colorinfo>
						<labels>
							<label2>Violet</label2>
						</labels>
					</clipitem>
					<clipitem id="clipitem-1302">
						<masterclipid>masterclip-1299</masterclipid>
						<name>TKO_018_SEW_Sh13550.mov</name>
						<enabled>TRUE</enabled>
						<duration>103</duration>
						<rate>
							<timebase>24</timebase>
							<ntsc>TRUE</ntsc>
						</rate>
						<start>94975</start>
						<end>95070</end>
						<in>4</in>
						<out>99</out>
						<pproTicksIn>42378336000</pproTicksIn>
						<pproTicksOut>1048863816000</pproTicksOut>
						<alphatype>none</alphatype>
						<pixelaspectratio>square</pixelaspectratio>
						<anamorphic>FALSE</anamorphic>
						<file id="file-1299">
							<name>TKO_018_SEW_Sh13550.mov</name>
							<pathurl>file://tri-stor01/Projects/TKO/SHOTS/_Refs_Movs_Burnin_FrameCounter/TKO_018_SEW_Sh13550.mov</pathurl>
							<rate>
								<timebase>24</timebase>
								<ntsc>TRUE</ntsc>
							</rate>
							<duration>103</duration>
							<timecode>
								<rate>
									<timebase>24</timebase>
									<ntsc>TRUE</ntsc>
								</rate>
								<string>07:01:40:03</string>
								<frame>607203</frame>
								<displayformat>NDF</displayformat>
								<reel>
									<name>C0160003</name>
								</reel>
							</timecode>
							<media>
								<video>
									<samplecharacteristics>
										<rate>
											<timebase>24</timebase>
											<ntsc>TRUE</ntsc>
										</rate>
										<width>3840</width>
										<height>2160</height>
										<anamorphic>FALSE</anamorphic>
										<pixelaspectratio>square</pixelaspectratio>
										<fielddominance>none</fielddominance>
									</samplecharacteristics>
								</video>
							</media>
						</file>
						<logginginfo>
							<description></description>
							<scene></scene>
							<shottake></shottake>
							<lognote></lognote>
							<good></good>
							<originalvideofilename></originalvideofilename>
							<originalaudiofilename></originalaudiofilename>
						</logginginfo>
						<colorinfo>
							<lut></lut>
							<lut1></lut1>
							<asc_sop></asc_sop>
							<asc_sat></asc_sat>
							<lut2></lut2>
						</colorinfo>
						<labels>
							<label2>Violet</label2>
						</labels>
					</clipitem>
					<clipitem id="clipitem-1303">
						<masterclipid>masterclip-1300</masterclipid>
						<name>TKO_019_GAS_Sh13560.mov</name>
						<enabled>TRUE</enabled>
						<duration>28</duration>
						<rate>
							<timebase>24</timebase>
							<ntsc>TRUE</ntsc>
						</rate>
						<start>95070</start>
						<end>95090</end>
						<in>4</in>
						<out>24</out>
						<pproTicksIn>42378336000</pproTicksIn>
						<pproTicksOut>254270016000</pproTicksOut>
						<alphatype>none</alphatype>
						<pixelaspectratio>square</pixelaspectratio>
						<anamorphic>FALSE</anamorphic>
						<file id="file-1300">
							<name>TKO_019_GAS_Sh13560.mov</name>
							<pathurl>file://tri-stor01/Projects/TKO/SHOTS/_Refs_Movs_Burnin_FrameCounter/TKO_019_GAS_Sh13560.mov</pathurl>
							<rate>
								<timebase>24</timebase>
								<ntsc>TRUE</ntsc>
							</rate>
							<duration>28</duration>
							<timecode>
								<rate>
									<timebase>24</timebase>
									<ntsc>TRUE</ntsc>
								</rate>
								<string>14:05:28:18</string>
								<frame>1217490</frame>
								<displayformat>NDF</displayformat>
								<reel>
									<name>A0510010</name>
								</reel>
							</timecode>
							<media>
								<video>
									<samplecharacteristics>
										<rate>
											<timebase>24</timebase>
											<ntsc>TRUE</ntsc>
										</rate>
										<width>4096</width>
										<height>2160</height>
										<anamorphic>FALSE</anamorphic>
										<pixelaspectratio>square</pixelaspectratio>
										<fielddominance>none</fielddominance>
									</samplecharacteristics>
								</video>
							</media>
						</file>
						<logginginfo>
							<description></description>
							<scene></scene>
							<shottake></shottake>
							<lognote></lognote>
							<good></good>
							<originalvideofilename></originalvideofilename>
							<originalaudiofilename></originalaudiofilename>
						</logginginfo>
						<colorinfo>
							<lut></lut>
							<lut1></lut1>
							<asc_sop></asc_sop>
							<asc_sat></asc_sat>
							<lut2></lut2>
						</colorinfo>
						<labels>
							<label2>Violet</label2>
						</labels>
					</clipitem>
					<clipitem id="clipitem-1304">
						<masterclipid>masterclip-1301</masterclipid>
						<name>TKO_019_GAS_Sh13570.mov</name>
						<enabled>TRUE</enabled>
						<duration>44</duration>
						<rate>
							<timebase>24</timebase>
							<ntsc>TRUE</ntsc>
						</rate>
						<start>95090</start>
						<end>95126</end>
						<in>4</in>
						<out>40</out>
						<pproTicksIn>42378336000</pproTicksIn>
						<pproTicksOut>423783360000</pproTicksOut>
						<alphatype>none</alphatype>
						<pixelaspectratio>square</pixelaspectratio>
						<anamorphic>FALSE</anamorphic>
						<file id="file-1301">
							<name>TKO_019_GAS_Sh13570.mov</name>
							<pathurl>file://tri-stor01/Projects/TKO/SHOTS/_Refs_Movs_Burnin_FrameCounter/TKO_019_GAS_Sh13570.mov</pathurl>
							<rate>
								<timebase>24</timebase>
								<ntsc>TRUE</ntsc>
							</rate>
							<duration>44</duration>
							<timecode>
								<rate>
									<timebase>24</timebase>
									<ntsc>TRUE</ntsc>
								</rate>
								<string>13:18:05:02</string>
								<frame>1149242</frame>
								<displayformat>NDF</displayformat>
								<reel>
									<name>B0440002</name>
								</reel>
							</timecode>
							<media>
								<video>
									<samplecharacteristics>
										<rate>
											<timebase>24</timebase>
											<ntsc>TRUE</ntsc>
										</rate>
										<width>4096</width>
										<height>2160</height>
										<anamorphic>FALSE</anamorphic>
										<pixelaspectratio>square</pixelaspectratio>
										<fielddominance>none</fielddominance>
									</samplecharacteristics>
								</video>
							</media>
						</file>
						<logginginfo>
							<description></description>
							<scene></scene>
							<shottake></shottake>
							<lognote></lognote>
							<good></good>
							<originalvideofilename></originalvideofilename>
							<originalaudiofilename></originalaudiofilename>
						</logginginfo>
						<colorinfo>
							<lut></lut>
							<lut1></lut1>
							<asc_sop></asc_sop>
							<asc_sat></asc_sat>
							<lut2></lut2>
						</colorinfo>
						<labels>
							<label2>Violet</label2>
						</labels>
					</clipitem>
					<clipitem id="clipitem-1305">
						<masterclipid>masterclip-1302</masterclipid>
						<name>TKO_019_GAS_Sh13580.mov</name>
						<enabled>TRUE</enabled>
						<duration>56</duration>
						<rate>
							<timebase>24</timebase>
							<ntsc>TRUE</ntsc>
						</rate>
						<start>95126</start>
						<end>95174</end>
						<in>4</in>
						<out>52</out>
						<pproTicksIn>42378336000</pproTicksIn>
						<pproTicksOut>550918368000</pproTicksOut>
						<alphatype>none</alphatype>
						<pixelaspectratio>square</pixelaspectratio>
						<anamorphic>FALSE</anamorphic>
						<file id="file-1302">
							<name>TKO_019_GAS_Sh13580.mov</name>
							<pathurl>file://tri-stor01/Projects/TKO/SHOTS/_Refs_Movs_Burnin_FrameCounter/TKO_019_GAS_Sh13580.mov</pathurl>
							<rate>
								<timebase>24</timebase>
								<ntsc>TRUE</ntsc>
							</rate>
							<duration>56</duration>
							<timecode>
								<rate>
									<timebase>24</timebase>
									<ntsc>TRUE</ntsc>
								</rate>
								<string>13:35:27:03</string>
								<frame>1174251</frame>
								<displayformat>NDF</displayformat>
								<reel>
									<name>A0510007</name>
								</reel>
							</timecode>
							<media>
								<video>
									<samplecharacteristics>
										<rate>
											<timebase>24</timebase>
											<ntsc>TRUE</ntsc>
										</rate>
										<width>4096</width>
										<height>2160</height>
										<anamorphic>FALSE</anamorphic>
										<pixelaspectratio>square</pixelaspectratio>
										<fielddominance>none</fielddominance>
									</samplecharacteristics>
								</video>
							</media>
						</file>
						<logginginfo>
							<description></description>
							<scene></scene>
							<shottake></shottake>
							<lognote></lognote>
							<good></good>
							<originalvideofilename></originalvideofilename>
							<originalaudiofilename></originalaudiofilename>
						</logginginfo>
						<colorinfo>
							<lut></lut>
							<lut1></lut1>
							<asc_sop></asc_sop>
							<asc_sat></asc_sat>
							<lut2></lut2>
						</colorinfo>
						<labels>
							<label2>Violet</label2>
						</labels>
					</clipitem>
					<clipitem id="clipitem-1306">
						<masterclipid>masterclip-1303</masterclipid>
						<name>TKO_019_GAS_Sh13590.mov</name>
						<enabled>TRUE</enabled>
						<duration>79</duration>
						<rate>
							<timebase>24</timebase>
							<ntsc>TRUE</ntsc>
						</rate>
						<start>95174</start>
						<end>95245</end>
						<in>4</in>
						<out>75</out>
						<pproTicksIn>42378336000</pproTicksIn>
						<pproTicksOut>794593800000</pproTicksOut>
						<alphatype>none</alphatype>
						<pixelaspectratio>square</pixelaspectratio>
						<anamorphic>FALSE</anamorphic>
						<file id="file-1303">
							<name>TKO_019_GAS_Sh13590.mov</name>
							<pathurl>file://tri-stor01/Projects/TKO/SHOTS/_Refs_Movs_Burnin_FrameCounter/TKO_019_GAS_Sh13590.mov</pathurl>
							<rate>
								<timebase>24</timebase>
								<ntsc>TRUE</ntsc>
							</rate>
							<duration>79</duration>
							<timecode>
								<rate>
									<timebase>24</timebase>
									<ntsc>TRUE</ntsc>
								</rate>
								<string>14:21:14:15</string>
								<frame>1240191</frame>
								<displayformat>NDF</displayformat>
								<reel>
									<name>A0510012</name>
								</reel>
							</timecode>
							<media>
								<video>
									<samplecharacteristics>
										<rate>
											<timebase>24</timebase>
											<ntsc>TRUE</ntsc>
										</rate>
										<width>4096</width>
										<height>2160</height>
										<anamorphic>FALSE</anamorphic>
										<pixelaspectratio>square</pixelaspectratio>
										<fielddominance>none</fielddominance>
									</samplecharacteristics>
								</video>
							</media>
						</file>
						<logginginfo>
							<description></description>
							<scene></scene>
							<shottake></shottake>
							<lognote></lognote>
							<good></good>
							<originalvideofilename></originalvideofilename>
							<originalaudiofilename></originalaudiofilename>
						</logginginfo>
						<colorinfo>
							<lut></lut>
							<lut1></lut1>
							<asc_sop></asc_sop>
							<asc_sat></asc_sat>
							<lut2></lut2>
						</colorinfo>
						<labels>
							<label2>Violet</label2>
						</labels>
					</clipitem>
					<clipitem id="clipitem-1307">
						<masterclipid>masterclip-1304</masterclipid>
						<name>TKO_019_GAS_Sh13600.mov</name>
						<enabled>TRUE</enabled>
						<duration>135</duration>
						<rate>
							<timebase>24</timebase>
							<ntsc>TRUE</ntsc>
						</rate>
						<start>95245</start>
						<end>95372</end>
						<in>4</in>
						<out>131</out>
						<pproTicksIn>42378336000</pproTicksIn>
						<pproTicksOut>1387890504000</pproTicksOut>
						<alphatype>none</alphatype>
						<pixelaspectratio>square</pixelaspectratio>
						<anamorphic>FALSE</anamorphic>
						<file id="file-1304">
							<name>TKO_019_GAS_Sh13600.mov</name>
							<pathurl>file://tri-stor01/Projects/TKO/SHOTS/_Refs_Movs_Burnin_FrameCounter/TKO_019_GAS_Sh13600.mov</pathurl>
							<rate>
								<timebase>24</timebase>
								<ntsc>TRUE</ntsc>
							</rate>
							<duration>135</duration>
							<timecode>
								<rate>
									<timebase>24</timebase>
									<ntsc>TRUE</ntsc>
								</rate>
								<string>13:35:32:02</string>
								<frame>1174370</frame>
								<displayformat>NDF</displayformat>
								<reel>
									<name>B0440006</name>
								</reel>
							</timecode>
							<media>
								<video>
									<samplecharacteristics>
										<rate>
											<timebase>24</timebase>
											<ntsc>TRUE</ntsc>
										</rate>
										<width>4096</width>
										<height>2160</height>
										<anamorphic>FALSE</anamorphic>
										<pixelaspectratio>square</pixelaspectratio>
										<fielddominance>none</fielddominance>
									</samplecharacteristics>
								</video>
							</media>
						</file>
						<logginginfo>
							<description></description>
							<scene></scene>
							<shottake></shottake>
							<lognote></lognote>
							<good></good>
							<originalvideofilename></originalvideofilename>
							<originalaudiofilename></originalaudiofilename>
						</logginginfo>
						<colorinfo>
							<lut></lut>
							<lut1></lut1>
							<asc_sop></asc_sop>
							<asc_sat></asc_sat>
							<lut2></lut2>
						</colorinfo>
						<labels>
							<label2>Violet</label2>
						</labels>
					</clipitem>
					<clipitem id="clipitem-1308">
						<masterclipid>masterclip-1305</masterclipid>
						<name>TKO_019_GAS_Sh13610.mov</name>
						<enabled>TRUE</enabled>
						<duration>73</duration>
						<rate>
							<timebase>24</timebase>
							<ntsc>TRUE</ntsc>
						</rate>
						<start>95372</start>
						<end>95437</end>
						<in>4</in>
						<out>69</out>
						<pproTicksIn>42378336000</pproTicksIn>
						<pproTicksOut>731026296000</pproTicksOut>
						<alphatype>none</alphatype>
						<pixelaspectratio>square</pixelaspectratio>
						<anamorphic>FALSE</anamorphic>
						<file id="file-1305">
							<name>TKO_019_GAS_Sh13610.mov</name>
							<pathurl>file://tri-stor01/Projects/TKO/SHOTS/_Refs_Movs_Burnin_FrameCounter/TKO_019_GAS_Sh13610.mov</pathurl>
							<rate>
								<timebase>24</timebase>
								<ntsc>TRUE</ntsc>
							</rate>
							<duration>73</duration>
							<timecode>
								<rate>
									<timebase>24</timebase>
									<ntsc>TRUE</ntsc>
								</rate>
								<string>14:21:24:18</string>
								<frame>1240434</frame>
								<displayformat>NDF</displayformat>
								<reel>
									<name>A0510012</name>
								</reel>
							</timecode>
							<media>
								<video>
									<samplecharacteristics>
										<rate>
											<timebase>24</timebase>
											<ntsc>TRUE</ntsc>
										</rate>
										<width>4096</width>
										<height>2160</height>
										<anamorphic>FALSE</anamorphic>
										<pixelaspectratio>square</pixelaspectratio>
										<fielddominance>none</fielddominance>
									</samplecharacteristics>
								</video>
							</media>
						</file>
						<logginginfo>
							<description></description>
							<scene></scene>
							<shottake></shottake>
							<lognote></lognote>
							<good></good>
							<originalvideofilename></originalvideofilename>
							<originalaudiofilename></originalaudiofilename>
						</logginginfo>
						<colorinfo>
							<lut></lut>
							<lut1></lut1>
							<asc_sop></asc_sop>
							<asc_sat></asc_sat>
							<lut2></lut2>
						</colorinfo>
						<labels>
							<label2>Violet</label2>
						</labels>
					</clipitem>
					<clipitem id="clipitem-1309">
						<masterclipid>masterclip-1306</masterclipid>
						<name>TKO_019_GAS_Sh13620.mov</name>
						<enabled>TRUE</enabled>
						<duration>36</duration>
						<rate>
							<timebase>24</timebase>
							<ntsc>TRUE</ntsc>
						</rate>
						<start>95437</start>
						<end>95465</end>
						<in>4</in>
						<out>32</out>
						<pproTicksIn>42378336000</pproTicksIn>
						<pproTicksOut>339026688000</pproTicksOut>
						<alphatype>none</alphatype>
						<pixelaspectratio>square</pixelaspectratio>
						<anamorphic>FALSE</anamorphic>
						<file id="file-1306">
							<name>TKO_019_GAS_Sh13620.mov</name>
							<pathurl>file://tri-stor01/Projects/TKO/SHOTS/_Refs_Movs_Burnin_FrameCounter/TKO_019_GAS_Sh13620.mov</pathurl>
							<rate>
								<timebase>24</timebase>
								<ntsc>TRUE</ntsc>
							</rate>
							<duration>36</duration>
							<timecode>
								<rate>
									<timebase>24</timebase>
									<ntsc>TRUE</ntsc>
								</rate>
								<string>13:35:40:02</string>
								<frame>1174562</frame>
								<displayformat>NDF</displayformat>
								<reel>
									<name>A0510007</name>
								</reel>
							</timecode>
							<media>
								<video>
									<samplecharacteristics>
										<rate>
											<timebase>24</timebase>
											<ntsc>TRUE</ntsc>
										</rate>
										<width>4096</width>
										<height>2160</height>
										<anamorphic>FALSE</anamorphic>
										<pixelaspectratio>square</pixelaspectratio>
										<fielddominance>none</fielddominance>
									</samplecharacteristics>
								</video>
							</media>
						</file>
						<logginginfo>
							<description></description>
							<scene></scene>
							<shottake></shottake>
							<lognote></lognote>
							<good></good>
							<originalvideofilename></originalvideofilename>
							<originalaudiofilename></originalaudiofilename>
						</logginginfo>
						<colorinfo>
							<lut></lut>
							<lut1></lut1>
							<asc_sop></asc_sop>
							<asc_sat></asc_sat>
							<lut2></lut2>
						</colorinfo>
						<labels>
							<label2>Violet</label2>
						</labels>
					</clipitem>
					<clipitem id="clipitem-1310">
						<masterclipid>masterclip-1307</masterclipid>
						<name>TKO_019_GAS_Sh13630.mov</name>
						<enabled>TRUE</enabled>
						<duration>41</duration>
						<rate>
							<timebase>24</timebase>
							<ntsc>TRUE</ntsc>
						</rate>
						<start>95465</start>
						<end>95498</end>
						<in>4</in>
						<out>37</out>
						<pproTicksIn>42378336000</pproTicksIn>
						<pproTicksOut>391999608000</pproTicksOut>
						<alphatype>none</alphatype>
						<pixelaspectratio>square</pixelaspectratio>
						<anamorphic>FALSE</anamorphic>
						<file id="file-1307">
							<name>TKO_019_GAS_Sh13630.mov</name>
							<pathurl>file://tri-stor01/Projects/TKO/SHOTS/_Refs_Movs_Burnin_FrameCounter/TKO_019_GAS_Sh13630.mov</pathurl>
							<rate>
								<timebase>24</timebase>
								<ntsc>TRUE</ntsc>
							</rate>
							<duration>41</duration>
							<timecode>
								<rate>
									<timebase>24</timebase>
									<ntsc>TRUE</ntsc>
								</rate>
								<string>13:35:41:06</string>
								<frame>1174590</frame>
								<displayformat>NDF</displayformat>
								<reel>
									<name>B0440006</name>
								</reel>
							</timecode>
							<media>
								<video>
									<samplecharacteristics>
										<rate>
											<timebase>24</timebase>
											<ntsc>TRUE</ntsc>
										</rate>
										<width>4096</width>
										<height>2160</height>
										<anamorphic>FALSE</anamorphic>
										<pixelaspectratio>square</pixelaspectratio>
										<fielddominance>none</fielddominance>
									</samplecharacteristics>
								</video>
							</media>
						</file>
						<logginginfo>
							<description></description>
							<scene></scene>
							<shottake></shottake>
							<lognote></lognote>
							<good></good>
							<originalvideofilename></originalvideofilename>
							<originalaudiofilename></originalaudiofilename>
						</logginginfo>
						<colorinfo>
							<lut></lut>
							<lut1></lut1>
							<asc_sop></asc_sop>
							<asc_sat></asc_sat>
							<lut2></lut2>
						</colorinfo>
						<labels>
							<label2>Violet</label2>
						</labels>
					</clipitem>
					<clipitem id="clipitem-1311">
						<masterclipid>masterclip-1308</masterclipid>
						<name>TKO_019_GAS_Sh13640.mov</name>
						<enabled>TRUE</enabled>
						<duration>66</duration>
						<rate>
							<timebase>24</timebase>
							<ntsc>TRUE</ntsc>
						</rate>
						<start>95498</start>
						<end>95556</end>
						<in>4</in>
						<out>62</out>
						<pproTicksIn>42378336000</pproTicksIn>
						<pproTicksOut>656864208000</pproTicksOut>
						<alphatype>none</alphatype>
						<pixelaspectratio>square</pixelaspectratio>
						<anamorphic>FALSE</anamorphic>
						<file id="file-1308">
							<name>TKO_019_GAS_Sh13640.mov</name>
							<pathurl>file://tri-stor01/Projects/TKO/SHOTS/_Refs_Movs_Burnin_FrameCounter/TKO_019_GAS_Sh13640.mov</pathurl>
							<rate>
								<timebase>24</timebase>
								<ntsc>TRUE</ntsc>
							</rate>
							<duration>66</duration>
							<timecode>
								<rate>
									<timebase>24</timebase>
									<ntsc>TRUE</ntsc>
								</rate>
								<string>13:57:40:08</string>
								<frame>1206248</frame>
								<displayformat>NDF</displayformat>
								<reel>
									<name>A0510009</name>
								</reel>
							</timecode>
							<media>
								<video>
									<samplecharacteristics>
										<rate>
											<timebase>24</timebase>
											<ntsc>TRUE</ntsc>
										</rate>
										<width>4096</width>
										<height>2160</height>
										<anamorphic>FALSE</anamorphic>
										<pixelaspectratio>square</pixelaspectratio>
										<fielddominance>none</fielddominance>
									</samplecharacteristics>
								</video>
							</media>
						</file>
						<logginginfo>
							<description></description>
							<scene></scene>
							<shottake></shottake>
							<lognote></lognote>
							<good></good>
							<originalvideofilename></originalvideofilename>
							<originalaudiofilename></originalaudiofilename>
						</logginginfo>
						<colorinfo>
							<lut></lut>
							<lut1></lut1>
							<asc_sop></asc_sop>
							<asc_sat></asc_sat>
							<lut2></lut2>
						</colorinfo>
						<labels>
							<label2>Violet</label2>
						</labels>
					</clipitem>
					<clipitem id="clipitem-1312">
						<masterclipid>masterclip-1309</masterclipid>
						<name>TKO_019_GAS_Sh13650.mov</name>
						<enabled>TRUE</enabled>
						<duration>39</duration>
						<rate>
							<timebase>24</timebase>
							<ntsc>TRUE</ntsc>
						</rate>
						<start>95556</start>
						<end>95587</end>
						<in>4</in>
						<out>35</out>
						<pproTicksIn>42378336000</pproTicksIn>
						<pproTicksOut>370810440000</pproTicksOut>
						<alphatype>none</alphatype>
						<pixelaspectratio>square</pixelaspectratio>
						<anamorphic>FALSE</anamorphic>
						<file id="file-1309">
							<name>TKO_019_GAS_Sh13650.mov</name>
							<pathurl>file://tri-stor01/Projects/TKO/SHOTS/_Refs_Movs_Burnin_FrameCounter/TKO_019_GAS_Sh13650.mov</pathurl>
							<rate>
								<timebase>24</timebase>
								<ntsc>TRUE</ntsc>
							</rate>
							<duration>39</duration>
							<timecode>
								<rate>
									<timebase>24</timebase>
									<ntsc>TRUE</ntsc>
								</rate>
								<string>13:35:45:22</string>
								<frame>1174702</frame>
								<displayformat>NDF</displayformat>
								<reel>
									<name>B0440006</name>
								</reel>
							</timecode>
							<media>
								<video>
									<samplecharacteristics>
										<rate>
											<timebase>24</timebase>
											<ntsc>TRUE</ntsc>
										</rate>
										<width>4096</width>
										<height>2160</height>
										<anamorphic>FALSE</anamorphic>
										<pixelaspectratio>square</pixelaspectratio>
										<fielddominance>none</fielddominance>
									</samplecharacteristics>
								</video>
							</media>
						</file>
						<logginginfo>
							<description></description>
							<scene></scene>
							<shottake></shottake>
							<lognote></lognote>
							<good></good>
							<originalvideofilename></originalvideofilename>
							<originalaudiofilename></originalaudiofilename>
						</logginginfo>
						<colorinfo>
							<lut></lut>
							<lut1></lut1>
							<asc_sop></asc_sop>
							<asc_sat></asc_sat>
							<lut2></lut2>
						</colorinfo>
						<labels>
							<label2>Violet</label2>
						</labels>
					</clipitem>
					<clipitem id="clipitem-1313">
						<masterclipid>masterclip-1310</masterclipid>
						<name>TKO_019_GAS_Sh13660.mov</name>
						<enabled>TRUE</enabled>
						<duration>78</duration>
						<rate>
							<timebase>24</timebase>
							<ntsc>TRUE</ntsc>
						</rate>
						<start>95587</start>
						<end>95657</end>
						<in>4</in>
						<out>74</out>
						<pproTicksIn>42378336000</pproTicksIn>
						<pproTicksOut>783999216000</pproTicksOut>
						<alphatype>none</alphatype>
						<pixelaspectratio>square</pixelaspectratio>
						<anamorphic>FALSE</anamorphic>
						<file id="file-1310">
							<name>TKO_019_GAS_Sh13660.mov</name>
							<pathurl>file://tri-stor01/Projects/TKO/SHOTS/_Refs_Movs_Burnin_FrameCounter/TKO_019_GAS_Sh13660.mov</pathurl>
							<rate>
								<timebase>24</timebase>
								<ntsc>TRUE</ntsc>
							</rate>
							<duration>78</duration>
							<timecode>
								<rate>
									<timebase>24</timebase>
									<ntsc>TRUE</ntsc>
								</rate>
								<string>13:53:09:07</string>
								<frame>1199743</frame>
								<displayformat>NDF</displayformat>
								<reel>
									<name>B0440007</name>
								</reel>
							</timecode>
							<media>
								<video>
									<samplecharacteristics>
										<rate>
											<timebase>24</timebase>
											<ntsc>TRUE</ntsc>
										</rate>
										<width>4096</width>
										<height>2160</height>
										<anamorphic>FALSE</anamorphic>
										<pixelaspectratio>square</pixelaspectratio>
										<fielddominance>none</fielddominance>
									</samplecharacteristics>
								</video>
							</media>
						</file>
						<logginginfo>
							<description></description>
							<scene></scene>
							<shottake></shottake>
							<lognote></lognote>
							<good></good>
							<originalvideofilename></originalvideofilename>
							<originalaudiofilename></originalaudiofilename>
						</logginginfo>
						<colorinfo>
							<lut></lut>
							<lut1></lut1>
							<asc_sop></asc_sop>
							<asc_sat></asc_sat>
							<lut2></lut2>
						</colorinfo>
						<labels>
							<label2>Violet</label2>
						</labels>
					</clipitem>
					<clipitem id="clipitem-1314">
						<masterclipid>masterclip-1311</masterclipid>
						<name>TKO_019_GAS_Sh13670.mov</name>
						<enabled>TRUE</enabled>
						<duration>55</duration>
						<rate>
							<timebase>24</timebase>
							<ntsc>TRUE</ntsc>
						</rate>
						<start>95657</start>
						<end>95704</end>
						<in>4</in>
						<out>51</out>
						<pproTicksIn>42378336000</pproTicksIn>
						<pproTicksOut>540323784000</pproTicksOut>
						<alphatype>none</alphatype>
						<pixelaspectratio>square</pixelaspectratio>
						<anamorphic>FALSE</anamorphic>
						<file id="file-1311">
							<name>TKO_019_GAS_Sh13670.mov</name>
							<pathurl>file://tri-stor01/Projects/TKO/SHOTS/_Refs_Movs_Burnin_FrameCounter/TKO_019_GAS_Sh13670.mov</pathurl>
							<rate>
								<timebase>24</timebase>
								<ntsc>TRUE</ntsc>
							</rate>
							<duration>55</duration>
							<timecode>
								<rate>
									<timebase>24</timebase>
									<ntsc>TRUE</ntsc>
								</rate>
								<string>14:08:48:16</string>
								<frame>1222288</frame>
								<displayformat>NDF</displayformat>
								<reel>
									<name>B0440010</name>
								</reel>
							</timecode>
							<media>
								<video>
									<samplecharacteristics>
										<rate>
											<timebase>24</timebase>
											<ntsc>TRUE</ntsc>
										</rate>
										<width>4096</width>
										<height>2160</height>
										<anamorphic>FALSE</anamorphic>
										<pixelaspectratio>square</pixelaspectratio>
										<fielddominance>none</fielddominance>
									</samplecharacteristics>
								</video>
							</media>
						</file>
						<logginginfo>
							<description></description>
							<scene></scene>
							<shottake></shottake>
							<lognote></lognote>
							<good></good>
							<originalvideofilename></originalvideofilename>
							<originalaudiofilename></originalaudiofilename>
						</logginginfo>
						<colorinfo>
							<lut></lut>
							<lut1></lut1>
							<asc_sop></asc_sop>
							<asc_sat></asc_sat>
							<lut2></lut2>
						</colorinfo>
						<labels>
							<label2>Violet</label2>
						</labels>
					</clipitem>
					<clipitem id="clipitem-1315">
						<masterclipid>masterclip-1312</masterclipid>
						<name>TKO_019_GAS_Sh13680.mov</name>
						<enabled>TRUE</enabled>
						<duration>91</duration>
						<rate>
							<timebase>24</timebase>
							<ntsc>TRUE</ntsc>
						</rate>
						<start>95704</start>
						<end>95787</end>
						<in>4</in>
						<out>87</out>
						<pproTicksIn>42378336000</pproTicksIn>
						<pproTicksOut>921728808000</pproTicksOut>
						<alphatype>none</alphatype>
						<pixelaspectratio>square</pixelaspectratio>
						<anamorphic>FALSE</anamorphic>
						<file id="file-1312">
							<name>TKO_019_GAS_Sh13680.mov</name>
							<pathurl>file://tri-stor01/Projects/TKO/SHOTS/_Refs_Movs_Burnin_FrameCounter/TKO_019_GAS_Sh13680.mov</pathurl>
							<rate>
								<timebase>24</timebase>
								<ntsc>TRUE</ntsc>
							</rate>
							<duration>91</duration>
							<timecode>
								<rate>
									<timebase>24</timebase>
									<ntsc>TRUE</ntsc>
								</rate>
								<string>13:57:48:04</string>
								<frame>1206436</frame>
								<displayformat>NDF</displayformat>
								<reel>
									<name>B0440008</name>
								</reel>
							</timecode>
							<media>
								<video>
									<samplecharacteristics>
										<rate>
											<timebase>24</timebase>
											<ntsc>TRUE</ntsc>
										</rate>
										<width>4096</width>
										<height>2160</height>
										<anamorphic>FALSE</anamorphic>
										<pixelaspectratio>square</pixelaspectratio>
										<fielddominance>none</fielddominance>
									</samplecharacteristics>
								</video>
							</media>
						</file>
						<logginginfo>
							<description></description>
							<scene></scene>
							<shottake></shottake>
							<lognote></lognote>
							<good></good>
							<originalvideofilename></originalvideofilename>
							<originalaudiofilename></originalaudiofilename>
						</logginginfo>
						<colorinfo>
							<lut></lut>
							<lut1></lut1>
							<asc_sop></asc_sop>
							<asc_sat></asc_sat>
							<lut2></lut2>
						</colorinfo>
						<labels>
							<label2>Violet</label2>
						</labels>
					</clipitem>
					<clipitem id="clipitem-1316">
						<masterclipid>masterclip-1313</masterclipid>
						<name>TKO_019_GAS_Sh13690.mov</name>
						<enabled>TRUE</enabled>
						<duration>69</duration>
						<rate>
							<timebase>24</timebase>
							<ntsc>TRUE</ntsc>
						</rate>
						<start>95787</start>
						<end>95848</end>
						<in>4</in>
						<out>65</out>
						<pproTicksIn>42378336000</pproTicksIn>
						<pproTicksOut>688647960000</pproTicksOut>
						<alphatype>none</alphatype>
						<pixelaspectratio>square</pixelaspectratio>
						<anamorphic>FALSE</anamorphic>
						<file id="file-1313">
							<name>TKO_019_GAS_Sh13690.mov</name>
							<pathurl>file://tri-stor01/Projects/TKO/SHOTS/_Refs_Movs_Burnin_FrameCounter/TKO_019_GAS_Sh13690.mov</pathurl>
							<rate>
								<timebase>24</timebase>
								<ntsc>TRUE</ntsc>
							</rate>
							<duration>69</duration>
							<timecode>
								<rate>
									<timebase>24</timebase>
									<ntsc>TRUE</ntsc>
								</rate>
								<string>13:53:17:23</string>
								<frame>1199951</frame>
								<displayformat>NDF</displayformat>
								<reel>
									<name>B0440007</name>
								</reel>
							</timecode>
							<media>
								<video>
									<samplecharacteristics>
										<rate>
											<timebase>24</timebase>
											<ntsc>TRUE</ntsc>
										</rate>
										<width>4096</width>
										<height>2160</height>
										<anamorphic>FALSE</anamorphic>
										<pixelaspectratio>square</pixelaspectratio>
										<fielddominance>none</fielddominance>
									</samplecharacteristics>
								</video>
							</media>
						</file>
						<logginginfo>
							<description></description>
							<scene></scene>
							<shottake></shottake>
							<lognote></lognote>
							<good></good>
							<originalvideofilename></originalvideofilename>
							<originalaudiofilename></originalaudiofilename>
						</logginginfo>
						<colorinfo>
							<lut></lut>
							<lut1></lut1>
							<asc_sop></asc_sop>
							<asc_sat></asc_sat>
							<lut2></lut2>
						</colorinfo>
						<labels>
							<label2>Violet</label2>
						</labels>
					</clipitem>
					<clipitem id="clipitem-1317">
						<masterclipid>masterclip-1314</masterclipid>
						<name>TKO_019_GAS_Sh13700.mov</name>
						<enabled>TRUE</enabled>
						<duration>67</duration>
						<rate>
							<timebase>24</timebase>
							<ntsc>TRUE</ntsc>
						</rate>
						<start>95848</start>
						<end>95907</end>
						<in>4</in>
						<out>63</out>
						<pproTicksIn>42378336000</pproTicksIn>
						<pproTicksOut>667458792000</pproTicksOut>
						<alphatype>none</alphatype>
						<pixelaspectratio>square</pixelaspectratio>
						<anamorphic>FALSE</anamorphic>
						<file id="file-1314">
							<name>TKO_019_GAS_Sh13700.mov</name>
							<pathurl>file://tri-stor01/Projects/TKO/SHOTS/_Refs_Movs_Burnin_FrameCounter/TKO_019_GAS_Sh13700.mov</pathurl>
							<rate>
								<timebase>24</timebase>
								<ntsc>TRUE</ntsc>
							</rate>
							<duration>67</duration>
							<timecode>
								<rate>
									<timebase>24</timebase>
									<ntsc>TRUE</ntsc>
								</rate>
								<string>13:53:20:12</string>
								<frame>1200012</frame>
								<displayformat>NDF</displayformat>
								<reel>
									<name>A0510008</name>
								</reel>
							</timecode>
							<media>
								<video>
									<samplecharacteristics>
										<rate>
											<timebase>24</timebase>
											<ntsc>TRUE</ntsc>
										</rate>
										<width>4096</width>
										<height>2160</height>
										<anamorphic>FALSE</anamorphic>
										<pixelaspectratio>square</pixelaspectratio>
										<fielddominance>none</fielddominance>
									</samplecharacteristics>
								</video>
							</media>
						</file>
						<logginginfo>
							<description></description>
							<scene></scene>
							<shottake></shottake>
							<lognote></lognote>
							<good></good>
							<originalvideofilename></originalvideofilename>
							<originalaudiofilename></originalaudiofilename>
						</logginginfo>
						<colorinfo>
							<lut></lut>
							<lut1></lut1>
							<asc_sop></asc_sop>
							<asc_sat></asc_sat>
							<lut2></lut2>
						</colorinfo>
						<labels>
							<label2>Violet</label2>
						</labels>
					</clipitem>
					<clipitem id="clipitem-1318">
						<masterclipid>masterclip-1315</masterclipid>
						<name>TKO_019_GAS_Sh13710.mov</name>
						<enabled>TRUE</enabled>
						<duration>60</duration>
						<rate>
							<timebase>24</timebase>
							<ntsc>TRUE</ntsc>
						</rate>
						<start>95907</start>
						<end>95959</end>
						<in>4</in>
						<out>56</out>
						<pproTicksIn>42378336000</pproTicksIn>
						<pproTicksOut>593296704000</pproTicksOut>
						<alphatype>none</alphatype>
						<pixelaspectratio>square</pixelaspectratio>
						<anamorphic>FALSE</anamorphic>
						<file id="file-1315">
							<name>TKO_019_GAS_Sh13710.mov</name>
							<pathurl>file://tri-stor01/Projects/TKO/SHOTS/_Refs_Movs_Burnin_FrameCounter/TKO_019_GAS_Sh13710.mov</pathurl>
							<rate>
								<timebase>24</timebase>
								<ntsc>TRUE</ntsc>
							</rate>
							<duration>60</duration>
							<timecode>
								<rate>
									<timebase>24</timebase>
									<ntsc>TRUE</ntsc>
								</rate>
								<string>13:53:22:23</string>
								<frame>1200071</frame>
								<displayformat>NDF</displayformat>
								<reel>
									<name>B0440007</name>
								</reel>
							</timecode>
							<media>
								<video>
									<samplecharacteristics>
										<rate>
											<timebase>24</timebase>
											<ntsc>TRUE</ntsc>
										</rate>
										<width>4096</width>
										<height>2160</height>
										<anamorphic>FALSE</anamorphic>
										<pixelaspectratio>square</pixelaspectratio>
										<fielddominance>none</fielddominance>
									</samplecharacteristics>
								</video>
							</media>
						</file>
						<logginginfo>
							<description></description>
							<scene></scene>
							<shottake></shottake>
							<lognote></lognote>
							<good></good>
							<originalvideofilename></originalvideofilename>
							<originalaudiofilename></originalaudiofilename>
						</logginginfo>
						<colorinfo>
							<lut></lut>
							<lut1></lut1>
							<asc_sop></asc_sop>
							<asc_sat></asc_sat>
							<lut2></lut2>
						</colorinfo>
						<labels>
							<label2>Violet</label2>
						</labels>
					</clipitem>
					<clipitem id="clipitem-1319">
						<masterclipid>masterclip-1316</masterclipid>
						<name>TKO_019_GAS_Sh13720.mov</name>
						<enabled>TRUE</enabled>
						<duration>99</duration>
						<rate>
							<timebase>24</timebase>
							<ntsc>TRUE</ntsc>
						</rate>
						<start>95959</start>
						<end>96050</end>
						<in>4</in>
						<out>95</out>
						<pproTicksIn>42378336000</pproTicksIn>
						<pproTicksOut>1006485480000</pproTicksOut>
						<alphatype>none</alphatype>
						<pixelaspectratio>square</pixelaspectratio>
						<anamorphic>FALSE</anamorphic>
						<file id="file-1316">
							<name>TKO_019_GAS_Sh13720.mov</name>
							<pathurl>file://tri-stor01/Projects/TKO/SHOTS/_Refs_Movs_Burnin_FrameCounter/TKO_019_GAS_Sh13720.mov</pathurl>
							<rate>
								<timebase>24</timebase>
								<ntsc>TRUE</ntsc>
							</rate>
							<duration>99</duration>
							<timecode>
								<rate>
									<timebase>24</timebase>
									<ntsc>TRUE</ntsc>
								</rate>
								<string>13:36:03:04</string>
								<frame>1175116</frame>
								<displayformat>NDF</displayformat>
								<reel>
									<name>A0510007</name>
								</reel>
							</timecode>
							<media>
								<video>
									<samplecharacteristics>
										<rate>
											<timebase>24</timebase>
											<ntsc>TRUE</ntsc>
										</rate>
										<width>4096</width>
										<height>2160</height>
										<anamorphic>FALSE</anamorphic>
										<pixelaspectratio>square</pixelaspectratio>
										<fielddominance>none</fielddominance>
									</samplecharacteristics>
								</video>
							</media>
						</file>
						<logginginfo>
							<description></description>
							<scene></scene>
							<shottake></shottake>
							<lognote></lognote>
							<good></good>
							<originalvideofilename></originalvideofilename>
							<originalaudiofilename></originalaudiofilename>
						</logginginfo>
						<colorinfo>
							<lut></lut>
							<lut1></lut1>
							<asc_sop></asc_sop>
							<asc_sat></asc_sat>
							<lut2></lut2>
						</colorinfo>
						<labels>
							<label2>Violet</label2>
						</labels>
					</clipitem>
					<clipitem id="clipitem-1320">
						<masterclipid>masterclip-1317</masterclipid>
						<name>TKO_019_GAS_Sh13730.mov</name>
						<enabled>TRUE</enabled>
						<duration>133</duration>
						<rate>
							<timebase>24</timebase>
							<ntsc>TRUE</ntsc>
						</rate>
						<start>96050</start>
						<end>96175</end>
						<in>4</in>
						<out>129</out>
						<pproTicksIn>42378336000</pproTicksIn>
						<pproTicksOut>1366701336000</pproTicksOut>
						<alphatype>none</alphatype>
						<pixelaspectratio>square</pixelaspectratio>
						<anamorphic>FALSE</anamorphic>
						<file id="file-1317">
							<name>TKO_019_GAS_Sh13730.mov</name>
							<pathurl>file://tri-stor01/Projects/TKO/SHOTS/_Refs_Movs_Burnin_FrameCounter/TKO_019_GAS_Sh13730.mov</pathurl>
							<rate>
								<timebase>24</timebase>
								<ntsc>TRUE</ntsc>
							</rate>
							<duration>133</duration>
							<timecode>
								<rate>
									<timebase>24</timebase>
									<ntsc>TRUE</ntsc>
								</rate>
								<string>13:36:09:12</string>
								<frame>1175268</frame>
								<displayformat>NDF</displayformat>
								<reel>
									<name>B0440006</name>
								</reel>
							</timecode>
							<media>
								<video>
									<samplecharacteristics>
										<rate>
											<timebase>24</timebase>
											<ntsc>TRUE</ntsc>
										</rate>
										<width>4096</width>
										<height>2160</height>
										<anamorphic>FALSE</anamorphic>
										<pixelaspectratio>square</pixelaspectratio>
										<fielddominance>none</fielddominance>
									</samplecharacteristics>
								</video>
							</media>
						</file>
						<logginginfo>
							<description></description>
							<scene></scene>
							<shottake></shottake>
							<lognote></lognote>
							<good></good>
							<originalvideofilename></originalvideofilename>
							<originalaudiofilename></originalaudiofilename>
						</logginginfo>
						<colorinfo>
							<lut></lut>
							<lut1></lut1>
							<asc_sop></asc_sop>
							<asc_sat></asc_sat>
							<lut2></lut2>
						</colorinfo>
						<labels>
							<label2>Violet</label2>
						</labels>
					</clipitem>
					<clipitem id="clipitem-1321">
						<masterclipid>masterclip-1318</masterclipid>
						<name>TKO_019_GAS_Sh13740.mov</name>
						<enabled>TRUE</enabled>
						<duration>85</duration>
						<rate>
							<timebase>24</timebase>
							<ntsc>TRUE</ntsc>
						</rate>
						<start>96175</start>
						<end>96252</end>
						<in>4</in>
						<out>81</out>
						<pproTicksIn>42378336000</pproTicksIn>
						<pproTicksOut>858161304000</pproTicksOut>
						<alphatype>none</alphatype>
						<pixelaspectratio>square</pixelaspectratio>
						<anamorphic>FALSE</anamorphic>
						<file id="file-1318">
							<name>TKO_019_GAS_Sh13740.mov</name>
							<pathurl>file://tri-stor01/Projects/TKO/SHOTS/_Refs_Movs_Burnin_FrameCounter/TKO_019_GAS_Sh13740.mov</pathurl>
							<rate>
								<timebase>24</timebase>
								<ntsc>TRUE</ntsc>
							</rate>
							<duration>85</duration>
							<timecode>
								<rate>
									<timebase>24</timebase>
									<ntsc>TRUE</ntsc>
								</rate>
								<string>13:36:14:16</string>
								<frame>1175392</frame>
								<displayformat>NDF</displayformat>
								<reel>
									<name>A0510007</name>
								</reel>
							</timecode>
							<media>
								<video>
									<samplecharacteristics>
										<rate>
											<timebase>24</timebase>
											<ntsc>TRUE</ntsc>
										</rate>
										<width>4096</width>
										<height>2160</height>
										<anamorphic>FALSE</anamorphic>
										<pixelaspectratio>square</pixelaspectratio>
										<fielddominance>none</fielddominance>
									</samplecharacteristics>
								</video>
							</media>
						</file>
						<logginginfo>
							<description></description>
							<scene></scene>
							<shottake></shottake>
							<lognote></lognote>
							<good></good>
							<originalvideofilename></originalvideofilename>
							<originalaudiofilename></originalaudiofilename>
						</logginginfo>
						<colorinfo>
							<lut></lut>
							<lut1></lut1>
							<asc_sop></asc_sop>
							<asc_sat></asc_sat>
							<lut2></lut2>
						</colorinfo>
						<labels>
							<label2>Violet</label2>
						</labels>
					</clipitem>
					<clipitem id="clipitem-1322">
						<masterclipid>masterclip-1319</masterclipid>
						<name>TKO_019_GAS_Sh13750.mov</name>
						<enabled>TRUE</enabled>
						<duration>60</duration>
						<rate>
							<timebase>24</timebase>
							<ntsc>TRUE</ntsc>
						</rate>
						<start>96252</start>
						<end>96304</end>
						<in>4</in>
						<out>56</out>
						<pproTicksIn>42378336000</pproTicksIn>
						<pproTicksOut>593296704000</pproTicksOut>
						<alphatype>none</alphatype>
						<pixelaspectratio>square</pixelaspectratio>
						<anamorphic>FALSE</anamorphic>
						<file id="file-1319">
							<name>TKO_019_GAS_Sh13750.mov</name>
							<pathurl>file://tri-stor01/Projects/TKO/SHOTS/_Refs_Movs_Burnin_FrameCounter/TKO_019_GAS_Sh13750.mov</pathurl>
							<rate>
								<timebase>24</timebase>
								<ntsc>TRUE</ntsc>
							</rate>
							<duration>60</duration>
							<timecode>
								<rate>
									<timebase>24</timebase>
									<ntsc>TRUE</ntsc>
								</rate>
								<string>13:53:41:22</string>
								<frame>1200526</frame>
								<displayformat>NDF</displayformat>
								<reel>
									<name>B0440007</name>
								</reel>
							</timecode>
							<media>
								<video>
									<samplecharacteristics>
										<rate>
											<timebase>24</timebase>
											<ntsc>TRUE</ntsc>
										</rate>
										<width>4096</width>
										<height>2160</height>
										<anamorphic>FALSE</anamorphic>
										<pixelaspectratio>square</pixelaspectratio>
										<fielddominance>none</fielddominance>
									</samplecharacteristics>
								</video>
							</media>
						</file>
						<logginginfo>
							<description></description>
							<scene></scene>
							<shottake></shottake>
							<lognote></lognote>
							<good></good>
							<originalvideofilename></originalvideofilename>
							<originalaudiofilename></originalaudiofilename>
						</logginginfo>
						<colorinfo>
							<lut></lut>
							<lut1></lut1>
							<asc_sop></asc_sop>
							<asc_sat></asc_sat>
							<lut2></lut2>
						</colorinfo>
						<labels>
							<label2>Violet</label2>
						</labels>
					</clipitem>
					<clipitem id="clipitem-1323">
						<masterclipid>masterclip-1320</masterclipid>
						<name>TKO_019_GAS_Sh13760.mov</name>
						<enabled>TRUE</enabled>
						<duration>49</duration>
						<rate>
							<timebase>24</timebase>
							<ntsc>TRUE</ntsc>
						</rate>
						<start>96304</start>
						<end>96345</end>
						<in>4</in>
						<out>45</out>
						<pproTicksIn>42378336000</pproTicksIn>
						<pproTicksOut>476756280000</pproTicksOut>
						<alphatype>none</alphatype>
						<pixelaspectratio>square</pixelaspectratio>
						<anamorphic>FALSE</anamorphic>
						<file id="file-1320">
							<name>TKO_019_GAS_Sh13760.mov</name>
							<pathurl>file://tri-stor01/Projects/TKO/SHOTS/_Refs_Movs_Burnin_FrameCounter/TKO_019_GAS_Sh13760.mov</pathurl>
							<rate>
								<timebase>24</timebase>
								<ntsc>TRUE</ntsc>
							</rate>
							<duration>49</duration>
							<timecode>
								<rate>
									<timebase>24</timebase>
									<ntsc>TRUE</ntsc>
								</rate>
								<string>14:09:07:17</string>
								<frame>1222745</frame>
								<displayformat>NDF</displayformat>
								<reel>
									<name>A0510011</name>
								</reel>
							</timecode>
							<media>
								<video>
									<samplecharacteristics>
										<rate>
											<timebase>24</timebase>
											<ntsc>TRUE</ntsc>
										</rate>
										<width>4096</width>
										<height>2160</height>
										<anamorphic>FALSE</anamorphic>
										<pixelaspectratio>square</pixelaspectratio>
										<fielddominance>none</fielddominance>
									</samplecharacteristics>
								</video>
							</media>
						</file>
						<logginginfo>
							<description></description>
							<scene></scene>
							<shottake></shottake>
							<lognote></lognote>
							<good></good>
							<originalvideofilename></originalvideofilename>
							<originalaudiofilename></originalaudiofilename>
						</logginginfo>
						<colorinfo>
							<lut></lut>
							<lut1></lut1>
							<asc_sop></asc_sop>
							<asc_sat></asc_sat>
							<lut2></lut2>
						</colorinfo>
						<labels>
							<label2>Violet</label2>
						</labels>
					</clipitem>
					<clipitem id="clipitem-1324">
						<masterclipid>masterclip-1321</masterclipid>
						<name>TKO_019_GAS_Sh13770.mov</name>
						<enabled>TRUE</enabled>
						<duration>49</duration>
						<rate>
							<timebase>24</timebase>
							<ntsc>TRUE</ntsc>
						</rate>
						<start>96345</start>
						<end>96386</end>
						<in>4</in>
						<out>45</out>
						<pproTicksIn>42378336000</pproTicksIn>
						<pproTicksOut>476756280000</pproTicksOut>
						<alphatype>none</alphatype>
						<pixelaspectratio>square</pixelaspectratio>
						<anamorphic>FALSE</anamorphic>
						<file id="file-1321">
							<name>TKO_019_GAS_Sh13770.mov</name>
							<pathurl>file://tri-stor01/Projects/TKO/SHOTS/_Refs_Movs_Burnin_FrameCounter/TKO_019_GAS_Sh13770.mov</pathurl>
							<rate>
								<timebase>24</timebase>
								<ntsc>TRUE</ntsc>
							</rate>
							<duration>49</duration>
							<timecode>
								<rate>
									<timebase>24</timebase>
									<ntsc>TRUE</ntsc>
								</rate>
								<string>14:09:09:10</string>
								<frame>1222786</frame>
								<displayformat>NDF</displayformat>
								<reel>
									<name>B0440010</name>
								</reel>
							</timecode>
							<media>
								<video>
									<samplecharacteristics>
										<rate>
											<timebase>24</timebase>
											<ntsc>TRUE</ntsc>
										</rate>
										<width>4096</width>
										<height>2160</height>
										<anamorphic>FALSE</anamorphic>
										<pixelaspectratio>square</pixelaspectratio>
										<fielddominance>none</fielddominance>
									</samplecharacteristics>
								</video>
							</media>
						</file>
						<logginginfo>
							<description></description>
							<scene></scene>
							<shottake></shottake>
							<lognote></lognote>
							<good></good>
							<originalvideofilename></originalvideofilename>
							<originalaudiofilename></originalaudiofilename>
						</logginginfo>
						<colorinfo>
							<lut></lut>
							<lut1></lut1>
							<asc_sop></asc_sop>
							<asc_sat></asc_sat>
							<lut2></lut2>
						</colorinfo>
						<labels>
							<label2>Violet</label2>
						</labels>
					</clipitem>
					<clipitem id="clipitem-1325">
						<masterclipid>masterclip-1322</masterclipid>
						<name>TKO_019_GAS_Sh13780.mov</name>
						<enabled>TRUE</enabled>
						<duration>36</duration>
						<rate>
							<timebase>24</timebase>
							<ntsc>TRUE</ntsc>
						</rate>
						<start>96386</start>
						<end>96414</end>
						<in>4</in>
						<out>32</out>
						<pproTicksIn>42378336000</pproTicksIn>
						<pproTicksOut>339026688000</pproTicksOut>
						<alphatype>none</alphatype>
						<pixelaspectratio>square</pixelaspectratio>
						<anamorphic>FALSE</anamorphic>
						<file id="file-1322">
							<name>TKO_019_GAS_Sh13780.mov</name>
							<pathurl>file://tri-stor01/Projects/TKO/SHOTS/_Refs_Movs_Burnin_FrameCounter/TKO_019_GAS_Sh13780.mov</pathurl>
							<rate>
								<timebase>24</timebase>
								<ntsc>TRUE</ntsc>
							</rate>
							<duration>36</duration>
							<timecode>
								<rate>
									<timebase>24</timebase>
									<ntsc>TRUE</ntsc>
								</rate>
								<string>13:53:47:12</string>
								<frame>1200660</frame>
								<displayformat>NDF</displayformat>
								<reel>
									<name>B0440007</name>
								</reel>
							</timecode>
							<media>
								<video>
									<samplecharacteristics>
										<rate>
											<timebase>24</timebase>
											<ntsc>TRUE</ntsc>
										</rate>
										<width>4096</width>
										<height>2160</height>
										<anamorphic>FALSE</anamorphic>
										<pixelaspectratio>square</pixelaspectratio>
										<fielddominance>none</fielddominance>
									</samplecharacteristics>
								</video>
							</media>
						</file>
						<logginginfo>
							<description></description>
							<scene></scene>
							<shottake></shottake>
							<lognote></lognote>
							<good></good>
							<originalvideofilename></originalvideofilename>
							<originalaudiofilename></originalaudiofilename>
						</logginginfo>
						<colorinfo>
							<lut></lut>
							<lut1></lut1>
							<asc_sop></asc_sop>
							<asc_sat></asc_sat>
							<lut2></lut2>
						</colorinfo>
						<labels>
							<label2>Violet</label2>
						</labels>
					</clipitem>
					<clipitem id="clipitem-1326">
						<masterclipid>masterclip-1323</masterclipid>
						<name>TKO_019_GAS_Sh13790.mov</name>
						<enabled>TRUE</enabled>
						<duration>187</duration>
						<rate>
							<timebase>24</timebase>
							<ntsc>TRUE</ntsc>
						</rate>
						<start>96414</start>
						<end>96593</end>
						<in>4</in>
						<out>183</out>
						<pproTicksIn>42378336000</pproTicksIn>
						<pproTicksOut>1938808872000</pproTicksOut>
						<alphatype>none</alphatype>
						<pixelaspectratio>square</pixelaspectratio>
						<anamorphic>FALSE</anamorphic>
						<file id="file-1323">
							<name>TKO_019_GAS_Sh13790.mov</name>
							<pathurl>file://tri-stor01/Projects/TKO/SHOTS/_Refs_Movs_Burnin_FrameCounter/TKO_019_GAS_Sh13790.mov</pathurl>
							<rate>
								<timebase>24</timebase>
								<ntsc>TRUE</ntsc>
							</rate>
							<duration>187</duration>
							<timecode>
								<rate>
									<timebase>24</timebase>
									<ntsc>TRUE</ntsc>
								</rate>
								<string>13:58:27:00</string>
								<frame>1207368</frame>
								<displayformat>NDF</displayformat>
								<reel>
									<name>A0510009</name>
								</reel>
							</timecode>
							<media>
								<video>
									<samplecharacteristics>
										<rate>
											<timebase>24</timebase>
											<ntsc>TRUE</ntsc>
										</rate>
										<width>4096</width>
										<height>2160</height>
										<anamorphic>FALSE</anamorphic>
										<pixelaspectratio>square</pixelaspectratio>
										<fielddominance>none</fielddominance>
									</samplecharacteristics>
								</video>
							</media>
						</file>
						<logginginfo>
							<description></description>
							<scene></scene>
							<shottake></shottake>
							<lognote></lognote>
							<good></good>
							<originalvideofilename></originalvideofilename>
							<originalaudiofilename></originalaudiofilename>
						</logginginfo>
						<colorinfo>
							<lut></lut>
							<lut1></lut1>
							<asc_sop></asc_sop>
							<asc_sat></asc_sat>
							<lut2></lut2>
						</colorinfo>
						<labels>
							<label2>Violet</label2>
						</labels>
					</clipitem>
					<clipitem id="clipitem-1327">
						<masterclipid>masterclip-1324</masterclipid>
						<name>TKO_019_GAS_Sh13800.mov</name>
						<enabled>TRUE</enabled>
						<duration>80</duration>
						<rate>
							<timebase>24</timebase>
							<ntsc>TRUE</ntsc>
						</rate>
						<start>96593</start>
						<end>96665</end>
						<in>4</in>
						<out>76</out>
						<pproTicksIn>42378336000</pproTicksIn>
						<pproTicksOut>805188384000</pproTicksOut>
						<alphatype>none</alphatype>
						<pixelaspectratio>square</pixelaspectratio>
						<anamorphic>FALSE</anamorphic>
						<file id="file-1324">
							<name>TKO_019_GAS_Sh13800.mov</name>
							<pathurl>file://tri-stor01/Projects/TKO/SHOTS/_Refs_Movs_Burnin_FrameCounter/TKO_019_GAS_Sh13800.mov</pathurl>
							<rate>
								<timebase>24</timebase>
								<ntsc>TRUE</ntsc>
							</rate>
							<duration>80</duration>
							<timecode>
								<rate>
									<timebase>24</timebase>
									<ntsc>TRUE</ntsc>
								</rate>
								<string>13:58:35:13</string>
								<frame>1207573</frame>
								<displayformat>NDF</displayformat>
								<reel>
									<name>B0440008</name>
								</reel>
							</timecode>
							<media>
								<video>
									<samplecharacteristics>
										<rate>
											<timebase>24</timebase>
											<ntsc>TRUE</ntsc>
										</rate>
										<width>4096</width>
										<height>2160</height>
										<anamorphic>FALSE</anamorphic>
										<pixelaspectratio>square</pixelaspectratio>
										<fielddominance>none</fielddominance>
									</samplecharacteristics>
								</video>
							</media>
						</file>
						<logginginfo>
							<description></description>
							<scene></scene>
							<shottake></shottake>
							<lognote></lognote>
							<good></good>
							<originalvideofilename></originalvideofilename>
							<originalaudiofilename></originalaudiofilename>
						</logginginfo>
						<colorinfo>
							<lut></lut>
							<lut1></lut1>
							<asc_sop></asc_sop>
							<asc_sat></asc_sat>
							<lut2></lut2>
						</colorinfo>
						<labels>
							<label2>Violet</label2>
						</labels>
					</clipitem>
					<clipitem id="clipitem-1328">
						<masterclipid>masterclip-1325</masterclipid>
						<name>TKO_019_GAS_Sh13810.mov</name>
						<enabled>TRUE</enabled>
						<duration>109</duration>
						<rate>
							<timebase>24</timebase>
							<ntsc>TRUE</ntsc>
						</rate>
						<start>96665</start>
						<end>96766</end>
						<in>4</in>
						<out>105</out>
						<pproTicksIn>42378336000</pproTicksIn>
						<pproTicksOut>1112431320000</pproTicksOut>
						<alphatype>none</alphatype>
						<pixelaspectratio>square</pixelaspectratio>
						<anamorphic>FALSE</anamorphic>
						<file id="file-1325">
							<name>TKO_019_GAS_Sh13810.mov</name>
							<pathurl>file://tri-stor01/Projects/TKO/SHOTS/_Refs_Movs_Burnin_FrameCounter/TKO_019_GAS_Sh13810.mov</pathurl>
							<rate>
								<timebase>24</timebase>
								<ntsc>TRUE</ntsc>
							</rate>
							<duration>109</duration>
							<timecode>
								<rate>
									<timebase>24</timebase>
									<ntsc>TRUE</ntsc>
								</rate>
								<string>13:58:39:05</string>
								<frame>1207661</frame>
								<displayformat>NDF</displayformat>
								<reel>
									<name>A0510009</name>
								</reel>
							</timecode>
							<media>
								<video>
									<samplecharacteristics>
										<rate>
											<timebase>24</timebase>
											<ntsc>TRUE</ntsc>
										</rate>
										<width>4096</width>
										<height>2160</height>
										<anamorphic>FALSE</anamorphic>
										<pixelaspectratio>square</pixelaspectratio>
										<fielddominance>none</fielddominance>
									</samplecharacteristics>
								</video>
							</media>
						</file>
						<logginginfo>
							<description></description>
							<scene></scene>
							<shottake></shottake>
							<lognote></lognote>
							<good></good>
							<originalvideofilename></originalvideofilename>
							<originalaudiofilename></originalaudiofilename>
						</logginginfo>
						<colorinfo>
							<lut></lut>
							<lut1></lut1>
							<asc_sop></asc_sop>
							<asc_sat></asc_sat>
							<lut2></lut2>
						</colorinfo>
						<labels>
							<label2>Violet</label2>
						</labels>
					</clipitem>
					<clipitem id="clipitem-1329">
						<masterclipid>masterclip-1326</masterclipid>
						<name>TKO_019_GAS_Sh13820.mov</name>
						<enabled>TRUE</enabled>
						<duration>48</duration>
						<rate>
							<timebase>24</timebase>
							<ntsc>TRUE</ntsc>
						</rate>
						<start>96766</start>
						<end>96806</end>
						<in>4</in>
						<out>44</out>
						<pproTicksIn>42378336000</pproTicksIn>
						<pproTicksOut>466161696000</pproTicksOut>
						<alphatype>none</alphatype>
						<pixelaspectratio>square</pixelaspectratio>
						<anamorphic>FALSE</anamorphic>
						<file id="file-1326">
							<name>TKO_019_GAS_Sh13820.mov</name>
							<pathurl>file://tri-stor01/Projects/TKO/SHOTS/_Refs_Movs_Burnin_FrameCounter/TKO_019_GAS_Sh13820.mov</pathurl>
							<rate>
								<timebase>24</timebase>
								<ntsc>TRUE</ntsc>
							</rate>
							<duration>48</duration>
							<timecode>
								<rate>
									<timebase>24</timebase>
									<ntsc>TRUE</ntsc>
								</rate>
								<string>14:09:18:10</string>
								<frame>1223002</frame>
								<displayformat>NDF</displayformat>
								<reel>
									<name>A0510011</name>
								</reel>
							</timecode>
							<media>
								<video>
									<samplecharacteristics>
										<rate>
											<timebase>24</timebase>
											<ntsc>TRUE</ntsc>
										</rate>
										<width>4096</width>
										<height>2160</height>
										<anamorphic>FALSE</anamorphic>
										<pixelaspectratio>square</pixelaspectratio>
										<fielddominance>none</fielddominance>
									</samplecharacteristics>
								</video>
							</media>
						</file>
						<logginginfo>
							<description></description>
							<scene></scene>
							<shottake></shottake>
							<lognote></lognote>
							<good></good>
							<originalvideofilename></originalvideofilename>
							<originalaudiofilename></originalaudiofilename>
						</logginginfo>
						<colorinfo>
							<lut></lut>
							<lut1></lut1>
							<asc_sop></asc_sop>
							<asc_sat></asc_sat>
							<lut2></lut2>
						</colorinfo>
						<labels>
							<label2>Violet</label2>
						</labels>
					</clipitem>
					<clipitem id="clipitem-1330">
						<masterclipid>masterclip-1327</masterclipid>
						<name>TKO_019_GAS_Sh13830.mov</name>
						<enabled>TRUE</enabled>
						<duration>132</duration>
						<rate>
							<timebase>24</timebase>
							<ntsc>TRUE</ntsc>
						</rate>
						<start>96806</start>
						<end>96930</end>
						<in>4</in>
						<out>128</out>
						<pproTicksIn>42378336000</pproTicksIn>
						<pproTicksOut>1356106752000</pproTicksOut>
						<alphatype>none</alphatype>
						<pixelaspectratio>square</pixelaspectratio>
						<anamorphic>FALSE</anamorphic>
						<file id="file-1327">
							<name>TKO_019_GAS_Sh13830.mov</name>
							<pathurl>file://tri-stor01/Projects/TKO/SHOTS/_Refs_Movs_Burnin_FrameCounter/TKO_019_GAS_Sh13830.mov</pathurl>
							<rate>
								<timebase>24</timebase>
								<ntsc>TRUE</ntsc>
							</rate>
							<duration>132</duration>
							<timecode>
								<rate>
									<timebase>24</timebase>
									<ntsc>TRUE</ntsc>
								</rate>
								<string>13:36:40:18</string>
								<frame>1176018</frame>
								<displayformat>NDF</displayformat>
								<reel>
									<name>A0510007</name>
								</reel>
							</timecode>
							<media>
								<video>
									<samplecharacteristics>
										<rate>
											<timebase>24</timebase>
											<ntsc>TRUE</ntsc>
										</rate>
										<width>4096</width>
										<height>2160</height>
										<anamorphic>FALSE</anamorphic>
										<pixelaspectratio>square</pixelaspectratio>
										<fielddominance>none</fielddominance>
									</samplecharacteristics>
								</video>
							</media>
						</file>
						<logginginfo>
							<description></description>
							<scene></scene>
							<shottake></shottake>
							<lognote></lognote>
							<good></good>
							<originalvideofilename></originalvideofilename>
							<originalaudiofilename></originalaudiofilename>
						</logginginfo>
						<colorinfo>
							<lut></lut>
							<lut1></lut1>
							<asc_sop></asc_sop>
							<asc_sat></asc_sat>
							<lut2></lut2>
						</colorinfo>
						<labels>
							<label2>Violet</label2>
						</labels>
					</clipitem>
					<clipitem id="clipitem-1331">
						<masterclipid>masterclip-1328</masterclipid>
						<name>TKO_019_GAS_Sh13840.mov</name>
						<enabled>TRUE</enabled>
						<duration>61</duration>
						<rate>
							<timebase>24</timebase>
							<ntsc>TRUE</ntsc>
						</rate>
						<start>96930</start>
						<end>96983</end>
						<in>4</in>
						<out>57</out>
						<pproTicksIn>42378336000</pproTicksIn>
						<pproTicksOut>603891288000</pproTicksOut>
						<alphatype>none</alphatype>
						<pixelaspectratio>square</pixelaspectratio>
						<anamorphic>FALSE</anamorphic>
						<file id="file-1328">
							<name>TKO_019_GAS_Sh13840.mov</name>
							<pathurl>file://tri-stor01/Projects/TKO/SHOTS/_Refs_Movs_Burnin_FrameCounter/TKO_019_GAS_Sh13840.mov</pathurl>
							<rate>
								<timebase>24</timebase>
								<ntsc>TRUE</ntsc>
							</rate>
							<duration>61</duration>
							<timecode>
								<rate>
									<timebase>24</timebase>
									<ntsc>TRUE</ntsc>
								</rate>
								<string>13:36:45:22</string>
								<frame>1176142</frame>
								<displayformat>NDF</displayformat>
								<reel>
									<name>B0440006</name>
								</reel>
							</timecode>
							<media>
								<video>
									<samplecharacteristics>
										<rate>
											<timebase>24</timebase>
											<ntsc>TRUE</ntsc>
										</rate>
										<width>4096</width>
										<height>2160</height>
										<anamorphic>FALSE</anamorphic>
										<pixelaspectratio>square</pixelaspectratio>
										<fielddominance>none</fielddominance>
									</samplecharacteristics>
								</video>
							</media>
						</file>
						<logginginfo>
							<description></description>
							<scene></scene>
							<shottake></shottake>
							<lognote></lognote>
							<good></good>
							<originalvideofilename></originalvideofilename>
							<originalaudiofilename></originalaudiofilename>
						</logginginfo>
						<colorinfo>
							<lut></lut>
							<lut1></lut1>
							<asc_sop></asc_sop>
							<asc_sat></asc_sat>
							<lut2></lut2>
						</colorinfo>
						<labels>
							<label2>Violet</label2>
						</labels>
					</clipitem>
					<clipitem id="clipitem-1332">
						<masterclipid>masterclip-1329</masterclipid>
						<name>TKO_019_GAS_Sh13860.mov</name>
						<enabled>TRUE</enabled>
						<duration>73</duration>
						<rate>
							<timebase>24</timebase>
							<ntsc>TRUE</ntsc>
						</rate>
						<start>96983</start>
						<end>97048</end>
						<in>4</in>
						<out>69</out>
						<pproTicksIn>42378336000</pproTicksIn>
						<pproTicksOut>731026296000</pproTicksOut>
						<alphatype>none</alphatype>
						<pixelaspectratio>square</pixelaspectratio>
						<anamorphic>FALSE</anamorphic>
						<file id="file-1329">
							<name>TKO_019_GAS_Sh13860.mov</name>
							<pathurl>file://tri-stor01/Projects/TKO/SHOTS/_Refs_Movs_Burnin_FrameCounter/TKO_019_GAS_Sh13860.mov</pathurl>
							<rate>
								<timebase>24</timebase>
								<ntsc>TRUE</ntsc>
							</rate>
							<duration>73</duration>
							<timecode>
								<rate>
									<timebase>24</timebase>
									<ntsc>TRUE</ntsc>
								</rate>
								<string>09:44:58:17</string>
								<frame>842369</frame>
								<displayformat>NDF</displayformat>
								<reel>
									<name>B0370004</name>
								</reel>
							</timecode>
							<media>
								<video>
									<samplecharacteristics>
										<rate>
											<timebase>24</timebase>
											<ntsc>TRUE</ntsc>
										</rate>
										<width>4096</width>
										<height>2160</height>
										<anamorphic>FALSE</anamorphic>
										<pixelaspectratio>square</pixelaspectratio>
										<fielddominance>none</fielddominance>
									</samplecharacteristics>
								</video>
							</media>
						</file>
						<logginginfo>
							<description></description>
							<scene></scene>
							<shottake></shottake>
							<lognote></lognote>
							<good></good>
							<originalvideofilename></originalvideofilename>
							<originalaudiofilename></originalaudiofilename>
						</logginginfo>
						<colorinfo>
							<lut></lut>
							<lut1></lut1>
							<asc_sop></asc_sop>
							<asc_sat></asc_sat>
							<lut2></lut2>
						</colorinfo>
						<labels>
							<label2>Violet</label2>
						</labels>
					</clipitem>
					<clipitem id="clipitem-1333">
						<masterclipid>masterclip-1330</masterclipid>
						<name>TKO_019_GAS_Sh13870.mov</name>
						<enabled>TRUE</enabled>
						<duration>78</duration>
						<rate>
							<timebase>24</timebase>
							<ntsc>TRUE</ntsc>
						</rate>
						<start>97048</start>
						<end>97118</end>
						<in>4</in>
						<out>74</out>
						<pproTicksIn>42378336000</pproTicksIn>
						<pproTicksOut>783999216000</pproTicksOut>
						<alphatype>none</alphatype>
						<pixelaspectratio>square</pixelaspectratio>
						<anamorphic>FALSE</anamorphic>
						<file id="file-1330">
							<name>TKO_019_GAS_Sh13870.mov</name>
							<pathurl>file://tri-stor01/Projects/TKO/SHOTS/_Refs_Movs_Burnin_FrameCounter/TKO_019_GAS_Sh13870.mov</pathurl>
							<rate>
								<timebase>24</timebase>
								<ntsc>TRUE</ntsc>
							</rate>
							<duration>78</duration>
							<timecode>
								<rate>
									<timebase>24</timebase>
									<ntsc>TRUE</ntsc>
								</rate>
								<string>09:45:06:21</string>
								<frame>842565</frame>
								<displayformat>NDF</displayformat>
								<reel>
									<name>A0430003</name>
								</reel>
							</timecode>
							<media>
								<video>
									<samplecharacteristics>
										<rate>
											<timebase>24</timebase>
											<ntsc>TRUE</ntsc>
										</rate>
										<width>4096</width>
										<height>2160</height>
										<anamorphic>FALSE</anamorphic>
										<pixelaspectratio>square</pixelaspectratio>
										<fielddominance>none</fielddominance>
									</samplecharacteristics>
								</video>
							</media>
						</file>
						<logginginfo>
							<description></description>
							<scene></scene>
							<shottake></shottake>
							<lognote></lognote>
							<good></good>
							<originalvideofilename></originalvideofilename>
							<originalaudiofilename></originalaudiofilename>
						</logginginfo>
						<colorinfo>
							<lut></lut>
							<lut1></lut1>
							<asc_sop></asc_sop>
							<asc_sat></asc_sat>
							<lut2></lut2>
						</colorinfo>
						<labels>
							<label2>Violet</label2>
						</labels>
					</clipitem>
					<clipitem id="clipitem-1334">
						<masterclipid>masterclip-1331</masterclipid>
						<name>TKO_019_GAS_Sh13880.mov</name>
						<enabled>TRUE</enabled>
						<duration>139</duration>
						<rate>
							<timebase>24</timebase>
							<ntsc>TRUE</ntsc>
						</rate>
						<start>97118</start>
						<end>97251</end>
						<in>4</in>
						<out>137</out>
						<pproTicksIn>42378336000</pproTicksIn>
						<pproTicksOut>1451458008000</pproTicksOut>
						<alphatype>none</alphatype>
						<pixelaspectratio>square</pixelaspectratio>
						<anamorphic>FALSE</anamorphic>
						<file id="file-1331">
							<name>TKO_019_GAS_Sh13880.mov</name>
							<pathurl>file://tri-stor01/Projects/TKO/SHOTS/_Refs_Movs_Burnin_FrameCounter/TKO_019_GAS_Sh13880.mov</pathurl>
							<rate>
								<timebase>24</timebase>
								<ntsc>TRUE</ntsc>
							</rate>
							<duration>139</duration>
							<timecode>
								<rate>
									<timebase>24</timebase>
									<ntsc>TRUE</ntsc>
								</rate>
								<string>19:48:30:23</string>
								<frame>1711463</frame>
								<displayformat>NDF</displayformat>
								<reel>
									<name>A0470003</name>
								</reel>
							</timecode>
							<media>
								<video>
									<samplecharacteristics>
										<rate>
											<timebase>24</timebase>
											<ntsc>TRUE</ntsc>
										</rate>
										<width>4096</width>
										<height>2160</height>
										<anamorphic>FALSE</anamorphic>
										<pixelaspectratio>square</pixelaspectratio>
										<fielddominance>none</fielddominance>
									</samplecharacteristics>
								</video>
							</media>
						</file>
						<logginginfo>
							<description></description>
							<scene></scene>
							<shottake></shottake>
							<lognote></lognote>
							<good></good>
							<originalvideofilename></originalvideofilename>
							<originalaudiofilename></originalaudiofilename>
						</logginginfo>
						<colorinfo>
							<lut></lut>
							<lut1></lut1>
							<asc_sop></asc_sop>
							<asc_sat></asc_sat>
							<lut2></lut2>
						</colorinfo>
						<labels>
							<label2>Violet</label2>
						</labels>
					</clipitem>
					<clipitem id="clipitem-1335">
						<masterclipid>masterclip-1332</masterclipid>
						<name>TKO_019_GAS_Sh13890.mov</name>
						<enabled>TRUE</enabled>
						<duration>86</duration>
						<rate>
							<timebase>24</timebase>
							<ntsc>TRUE</ntsc>
						</rate>
						<start>97251</start>
						<end>97329</end>
						<in>4</in>
						<out>82</out>
						<pproTicksIn>42378336000</pproTicksIn>
						<pproTicksOut>868755888000</pproTicksOut>
						<alphatype>none</alphatype>
						<pixelaspectratio>square</pixelaspectratio>
						<anamorphic>FALSE</anamorphic>
						<file id="file-1332">
							<name>TKO_019_GAS_Sh13890.mov</name>
							<pathurl>file://tri-stor01/Projects/TKO/SHOTS/_Refs_Movs_Burnin_FrameCounter/TKO_019_GAS_Sh13890.mov</pathurl>
							<rate>
								<timebase>24</timebase>
								<ntsc>TRUE</ntsc>
							</rate>
							<duration>86</duration>
							<timecode>
								<rate>
									<timebase>24</timebase>
									<ntsc>TRUE</ntsc>
								</rate>
								<string>00:00:00:00</string>
								<frame>0</frame>
								<displayformat>NDF</displayformat>
							</timecode>
							<media>
								<video>
									<samplecharacteristics>
										<rate>
											<timebase>24</timebase>
											<ntsc>TRUE</ntsc>
										</rate>
										<width>4096</width>
										<height>2160</height>
										<anamorphic>FALSE</anamorphic>
										<pixelaspectratio>square</pixelaspectratio>
										<fielddominance>none</fielddominance>
									</samplecharacteristics>
								</video>
							</media>
						</file>
						<logginginfo>
							<description></description>
							<scene></scene>
							<shottake></shottake>
							<lognote></lognote>
							<good></good>
							<originalvideofilename></originalvideofilename>
							<originalaudiofilename></originalaudiofilename>
						</logginginfo>
						<colorinfo>
							<lut></lut>
							<lut1></lut1>
							<asc_sop></asc_sop>
							<asc_sat></asc_sat>
							<lut2></lut2>
						</colorinfo>
						<labels>
							<label2>Violet</label2>
						</labels>
					</clipitem>
					<clipitem id="clipitem-1336">
						<masterclipid>masterclip-1333</masterclipid>
						<name>TKO_019_GAS_Sh13900.mov</name>
						<enabled>TRUE</enabled>
						<duration>147</duration>
						<rate>
							<timebase>24</timebase>
							<ntsc>TRUE</ntsc>
						</rate>
						<start>97329</start>
						<end>97468</end>
						<in>4</in>
						<out>143</out>
						<pproTicksIn>42378336000</pproTicksIn>
						<pproTicksOut>1515025512000</pproTicksOut>
						<alphatype>none</alphatype>
						<pixelaspectratio>square</pixelaspectratio>
						<anamorphic>FALSE</anamorphic>
						<file id="file-1333">
							<name>TKO_019_GAS_Sh13900.mov</name>
							<pathurl>file://tri-stor01/Projects/TKO/SHOTS/_Refs_Movs_Burnin_FrameCounter/TKO_019_GAS_Sh13900.mov</pathurl>
							<rate>
								<timebase>24</timebase>
								<ntsc>TRUE</ntsc>
							</rate>
							<duration>147</duration>
							<timecode>
								<rate>
									<timebase>24</timebase>
									<ntsc>TRUE</ntsc>
								</rate>
								<string>11:32:24:11</string>
								<frame>997067</frame>
								<displayformat>NDF</displayformat>
								<reel>
									<name>A0270003</name>
								</reel>
							</timecode>
							<media>
								<video>
									<samplecharacteristics>
										<rate>
											<timebase>24</timebase>
											<ntsc>TRUE</ntsc>
										</rate>
										<width>4096</width>
										<height>2160</height>
										<anamorphic>FALSE</anamorphic>
										<pixelaspectratio>square</pixelaspectratio>
										<fielddominance>none</fielddominance>
									</samplecharacteristics>
								</video>
							</media>
						</file>
						<logginginfo>
							<description></description>
							<scene></scene>
							<shottake></shottake>
							<lognote></lognote>
							<good></good>
							<originalvideofilename></originalvideofilename>
							<originalaudiofilename></originalaudiofilename>
						</logginginfo>
						<colorinfo>
							<lut></lut>
							<lut1></lut1>
							<asc_sop></asc_sop>
							<asc_sat></asc_sat>
							<lut2></lut2>
						</colorinfo>
						<labels>
							<label2>Violet</label2>
						</labels>
					</clipitem>
					<clipitem id="clipitem-1337">
						<masterclipid>masterclip-1334</masterclipid>
						<name>TKO_019_GAS_Sh13910.mov</name>
						<enabled>TRUE</enabled>
						<duration>45</duration>
						<rate>
							<timebase>24</timebase>
							<ntsc>TRUE</ntsc>
						</rate>
						<start>97468</start>
						<end>97505</end>
						<in>4</in>
						<out>41</out>
						<pproTicksIn>42378336000</pproTicksIn>
						<pproTicksOut>434377944000</pproTicksOut>
						<alphatype>none</alphatype>
						<pixelaspectratio>square</pixelaspectratio>
						<anamorphic>FALSE</anamorphic>
						<file id="file-1334">
							<name>TKO_019_GAS_Sh13910.mov</name>
							<pathurl>file://tri-stor01/Projects/TKO/SHOTS/_Refs_Movs_Burnin_FrameCounter/TKO_019_GAS_Sh13910.mov</pathurl>
							<rate>
								<timebase>24</timebase>
								<ntsc>TRUE</ntsc>
							</rate>
							<duration>45</duration>
							<timecode>
								<rate>
									<timebase>24</timebase>
									<ntsc>TRUE</ntsc>
								</rate>
								<string>12:11:46:00</string>
								<frame>1053744</frame>
								<displayformat>NDF</displayformat>
								<reel>
									<name>A0270006</name>
								</reel>
							</timecode>
							<media>
								<video>
									<samplecharacteristics>
										<rate>
											<timebase>24</timebase>
											<ntsc>TRUE</ntsc>
										</rate>
										<width>4096</width>
										<height>2160</height>
										<anamorphic>FALSE</anamorphic>
										<pixelaspectratio>square</pixelaspectratio>
										<fielddominance>none</fielddominance>
									</samplecharacteristics>
								</video>
							</media>
						</file>
						<logginginfo>
							<description></description>
							<scene></scene>
							<shottake></shottake>
							<lognote></lognote>
							<good></good>
							<originalvideofilename></originalvideofilename>
							<originalaudiofilename></originalaudiofilename>
						</logginginfo>
						<colorinfo>
							<lut></lut>
							<lut1></lut1>
							<asc_sop></asc_sop>
							<asc_sat></asc_sat>
							<lut2></lut2>
						</colorinfo>
						<labels>
							<label2>Violet</label2>
						</labels>
					</clipitem>
					<clipitem id="clipitem-1338">
						<masterclipid>masterclip-1335</masterclipid>
						<name>TKO_019_GAS_Sh13920.mov</name>
						<enabled>TRUE</enabled>
						<duration>107</duration>
						<rate>
							<timebase>24</timebase>
							<ntsc>TRUE</ntsc>
						</rate>
						<start>97505</start>
						<end>97604</end>
						<in>4</in>
						<out>103</out>
						<pproTicksIn>42378336000</pproTicksIn>
						<pproTicksOut>1091242152000</pproTicksOut>
						<alphatype>none</alphatype>
						<pixelaspectratio>square</pixelaspectratio>
						<anamorphic>FALSE</anamorphic>
						<file id="file-1335">
							<name>TKO_019_GAS_Sh13920.mov</name>
							<pathurl>file://tri-stor01/Projects/TKO/SHOTS/_Refs_Movs_Burnin_FrameCounter/TKO_019_GAS_Sh13920.mov</pathurl>
							<rate>
								<timebase>24</timebase>
								<ntsc>TRUE</ntsc>
							</rate>
							<duration>107</duration>
							<timecode>
								<rate>
									<timebase>24</timebase>
									<ntsc>TRUE</ntsc>
								</rate>
								<string>12:11:47:14</string>
								<frame>1053782</frame>
								<displayformat>NDF</displayformat>
								<reel>
									<name>B0230006</name>
								</reel>
							</timecode>
							<media>
								<video>
									<samplecharacteristics>
										<rate>
											<timebase>24</timebase>
											<ntsc>TRUE</ntsc>
										</rate>
										<width>4096</width>
										<height>2160</height>
										<anamorphic>FALSE</anamorphic>
										<pixelaspectratio>square</pixelaspectratio>
										<fielddominance>none</fielddominance>
									</samplecharacteristics>
								</video>
							</media>
						</file>
						<logginginfo>
							<description></description>
							<scene></scene>
							<shottake></shottake>
							<lognote></lognote>
							<good></good>
							<originalvideofilename></originalvideofilename>
							<originalaudiofilename></originalaudiofilename>
						</logginginfo>
						<colorinfo>
							<lut></lut>
							<lut1></lut1>
							<asc_sop></asc_sop>
							<asc_sat></asc_sat>
							<lut2></lut2>
						</colorinfo>
						<labels>
							<label2>Violet</label2>
						</labels>
					</clipitem>
					<clipitem id="clipitem-1339">
						<masterclipid>masterclip-1336</masterclipid>
						<name>TKO_019_GAS_Sh13930.mov</name>
						<enabled>TRUE</enabled>
						<duration>41</duration>
						<rate>
							<timebase>24</timebase>
							<ntsc>TRUE</ntsc>
						</rate>
						<start>97604</start>
						<end>97637</end>
						<in>4</in>
						<out>37</out>
						<pproTicksIn>42378336000</pproTicksIn>
						<pproTicksOut>391999608000</pproTicksOut>
						<alphatype>none</alphatype>
						<pixelaspectratio>square</pixelaspectratio>
						<anamorphic>FALSE</anamorphic>
						<file id="file-1336">
							<name>TKO_019_GAS_Sh13930.mov</name>
							<pathurl>file://tri-stor01/Projects/TKO/SHOTS/_Refs_Movs_Burnin_FrameCounter/TKO_019_GAS_Sh13930.mov</pathurl>
							<rate>
								<timebase>24</timebase>
								<ntsc>TRUE</ntsc>
							</rate>
							<duration>41</duration>
							<timecode>
								<rate>
									<timebase>24</timebase>
									<ntsc>TRUE</ntsc>
								</rate>
								<string>11:32:35:22</string>
								<frame>997342</frame>
								<displayformat>NDF</displayformat>
								<reel>
									<name>A0270003</name>
								</reel>
							</timecode>
							<media>
								<video>
									<samplecharacteristics>
										<rate>
											<timebase>24</timebase>
											<ntsc>TRUE</ntsc>
										</rate>
										<width>4096</width>
										<height>2160</height>
										<anamorphic>FALSE</anamorphic>
										<pixelaspectratio>square</pixelaspectratio>
										<fielddominance>none</fielddominance>
									</samplecharacteristics>
								</video>
							</media>
						</file>
						<logginginfo>
							<description></description>
							<scene></scene>
							<shottake></shottake>
							<lognote></lognote>
							<good></good>
							<originalvideofilename></originalvideofilename>
							<originalaudiofilename></originalaudiofilename>
						</logginginfo>
						<colorinfo>
							<lut></lut>
							<lut1></lut1>
							<asc_sop></asc_sop>
							<asc_sat></asc_sat>
							<lut2></lut2>
						</colorinfo>
						<labels>
							<label2>Violet</label2>
						</labels>
					</clipitem>
					<clipitem id="clipitem-1340">
						<masterclipid>masterclip-1337</masterclipid>
						<name>TKO_019_GAS_Sh13940.mov</name>
						<enabled>TRUE</enabled>
						<duration>38</duration>
						<rate>
							<timebase>24</timebase>
							<ntsc>TRUE</ntsc>
						</rate>
						<start>97637</start>
						<end>97667</end>
						<in>4</in>
						<out>34</out>
						<pproTicksIn>42378336000</pproTicksIn>
						<pproTicksOut>360215856000</pproTicksOut>
						<alphatype>none</alphatype>
						<pixelaspectratio>square</pixelaspectratio>
						<anamorphic>FALSE</anamorphic>
						<file id="file-1337">
							<name>TKO_019_GAS_Sh13940.mov</name>
							<pathurl>file://tri-stor01/Projects/TKO/SHOTS/_Refs_Movs_Burnin_FrameCounter/TKO_019_GAS_Sh13940.mov</pathurl>
							<rate>
								<timebase>24</timebase>
								<ntsc>TRUE</ntsc>
							</rate>
							<duration>38</duration>
							<timecode>
								<rate>
									<timebase>24</timebase>
									<ntsc>TRUE</ntsc>
								</rate>
								<string>12:16:25:14</string>
								<frame>1060454</frame>
								<displayformat>NDF</displayformat>
								<reel>
									<name>B0230008</name>
								</reel>
							</timecode>
							<media>
								<video>
									<samplecharacteristics>
										<rate>
											<timebase>24</timebase>
											<ntsc>TRUE</ntsc>
										</rate>
										<width>4096</width>
										<height>2160</height>
										<anamorphic>FALSE</anamorphic>
										<pixelaspectratio>square</pixelaspectratio>
										<fielddominance>none</fielddominance>
									</samplecharacteristics>
								</video>
							</media>
						</file>
						<logginginfo>
							<description></description>
							<scene></scene>
							<shottake></shottake>
							<lognote></lognote>
							<good></good>
							<originalvideofilename></originalvideofilename>
							<originalaudiofilename></originalaudiofilename>
						</logginginfo>
						<colorinfo>
							<lut></lut>
							<lut1></lut1>
							<asc_sop></asc_sop>
							<asc_sat></asc_sat>
							<lut2></lut2>
						</colorinfo>
						<labels>
							<label2>Violet</label2>
						</labels>
					</clipitem>
					<clipitem id="clipitem-1341">
						<masterclipid>masterclip-1338</masterclipid>
						<name>TKO_019_GAS_Sh13950.mov</name>
						<enabled>TRUE</enabled>
						<duration>116</duration>
						<rate>
							<timebase>24</timebase>
							<ntsc>TRUE</ntsc>
						</rate>
						<start>97667</start>
						<end>97721</end>
						<in>61</in>
						<out>110</out>
						<pproTicksIn>903692058469</pproTicksIn>
						<pproTicksOut>1652755104000</pproTicksOut>
						<alphatype>none</alphatype>
						<pixelaspectratio>square</pixelaspectratio>
						<anamorphic>FALSE</anamorphic>
						<file id="file-1338">
							<name>TKO_019_GAS_Sh13950.mov</name>
							<pathurl>file://tri-stor01/Projects/TKO/SHOTS/_Refs_Movs_Burnin_FrameCounter/TKO_019_GAS_Sh13950.mov</pathurl>
							<rate>
								<timebase>24</timebase>
								<ntsc>TRUE</ntsc>
							</rate>
							<duration>164</duration>
							<timecode>
								<rate>
									<timebase>24</timebase>
									<ntsc>TRUE</ntsc>
								</rate>
								<string>00:00:00:00</string>
								<frame>0</frame>
								<displayformat>NDF</displayformat>
							</timecode>
							<media>
								<video>
									<samplecharacteristics>
										<rate>
											<timebase>24</timebase>
											<ntsc>TRUE</ntsc>
										</rate>
										<width>4096</width>
										<height>2160</height>
										<anamorphic>FALSE</anamorphic>
										<pixelaspectratio>square</pixelaspectratio>
										<fielddominance>none</fielddominance>
									</samplecharacteristics>
								</video>
							</media>
						</file>
						<filter>
							<effect>
								<name>Time Remap</name>
								<effectid>timeremap</effectid>
								<effectcategory>motion</effectcategory>
								<effecttype>motion</effecttype>
								<mediatype>video</mediatype>
								<parameter authoringApp="PremierePro">
									<parameterid>variablespeed</parameterid>
									<name>variablespeed</name>
									<valuemin>0</valuemin>
									<valuemax>1</valuemax>
									<value>0</value>
								</parameter>
								<parameter authoringApp="PremierePro">
									<parameterid>speed</parameterid>
									<name>speed</name>
									<valuemin>-100000</valuemin>
									<valuemax>100000</valuemax>
									<value>140.541</value>
								</parameter>
								<parameter authoringApp="PremierePro">
									<parameterid>reverse</parameterid>
									<name>reverse</name>
									<value>FALSE</value>
								</parameter>
								<parameter authoringApp="PremierePro">
									<parameterid>frameblending</parameterid>
									<name>frameblending</name>
									<value>FALSE</value>
								</parameter>
								<parameter authoringApp="PremierePro">
									<parameterid>graphdict</parameterid>
									<name>graphdict</name>
									<valuemin>0</valuemin>
									<valuemax>163</valuemax>
									<value>0</value>
									<keyframe>
										<when>0</when>
										<value>0</value>
										<speedvirtualkf>TRUE</speedvirtualkf>
										<speedkfstart>TRUE</speedkfstart>
									</keyframe>
									<keyframe>
										<when>61</when>
										<value>85</value>
										<speedvirtualkf>TRUE</speedvirtualkf>
										<speedkfin>TRUE</speedkfin>
									</keyframe>
									<keyframe>
										<when>110</when>
										<value>154</value>
										<speedvirtualkf>TRUE</speedvirtualkf>
										<speedkfout>TRUE</speedkfout>
									</keyframe>
									<keyframe>
										<when>116</when>
										<value>163</value>
										<speedvirtualkf>TRUE</speedvirtualkf>
										<speedkfend>TRUE</speedkfend>
									</keyframe>
									<interpolation>
										<name>FCPCurve</name>
									</interpolation>
								</parameter>
							</effect>
						</filter>
						<logginginfo>
							<description></description>
							<scene></scene>
							<shottake></shottake>
							<lognote></lognote>
							<good></good>
							<originalvideofilename></originalvideofilename>
							<originalaudiofilename></originalaudiofilename>
						</logginginfo>
						<colorinfo>
							<lut></lut>
							<lut1></lut1>
							<asc_sop></asc_sop>
							<asc_sat></asc_sat>
							<lut2></lut2>
						</colorinfo>
						<labels>
							<label2>Violet</label2>
						</labels>
					</clipitem>
					<clipitem id="clipitem-1342">
						<masterclipid>masterclip-1339</masterclipid>
						<name>TKO_019_GAS_Sh13960.mov</name>
						<enabled>TRUE</enabled>
						<duration>42</duration>
						<rate>
							<timebase>24</timebase>
							<ntsc>TRUE</ntsc>
						</rate>
						<start>97721</start>
						<end>97755</end>
						<in>4</in>
						<out>38</out>
						<pproTicksIn>42378336000</pproTicksIn>
						<pproTicksOut>402594192000</pproTicksOut>
						<alphatype>none</alphatype>
						<pixelaspectratio>square</pixelaspectratio>
						<anamorphic>FALSE</anamorphic>
						<file id="file-1339">
							<name>TKO_019_GAS_Sh13960.mov</name>
							<pathurl>file://tri-stor01/Projects/TKO/SHOTS/_Refs_Movs_Burnin_FrameCounter/TKO_019_GAS_Sh13960.mov</pathurl>
							<rate>
								<timebase>24</timebase>
								<ntsc>TRUE</ntsc>
							</rate>
							<duration>42</duration>
							<timecode>
								<rate>
									<timebase>24</timebase>
									<ntsc>TRUE</ntsc>
								</rate>
								<string>12:12:00:12</string>
								<frame>1054092</frame>
								<displayformat>NDF</displayformat>
								<reel>
									<name>B0230006</name>
								</reel>
							</timecode>
							<media>
								<video>
									<samplecharacteristics>
										<rate>
											<timebase>24</timebase>
											<ntsc>TRUE</ntsc>
										</rate>
										<width>4096</width>
										<height>2160</height>
										<anamorphic>FALSE</anamorphic>
										<pixelaspectratio>square</pixelaspectratio>
										<fielddominance>none</fielddominance>
									</samplecharacteristics>
								</video>
							</media>
						</file>
						<logginginfo>
							<description></description>
							<scene></scene>
							<shottake></shottake>
							<lognote></lognote>
							<good></good>
							<originalvideofilename></originalvideofilename>
							<originalaudiofilename></originalaudiofilename>
						</logginginfo>
						<colorinfo>
							<lut></lut>
							<lut1></lut1>
							<asc_sop></asc_sop>
							<asc_sat></asc_sat>
							<lut2></lut2>
						</colorinfo>
						<labels>
							<label2>Violet</label2>
						</labels>
					</clipitem>
					<clipitem id="clipitem-1343">
						<masterclipid>masterclip-1340</masterclipid>
						<name>TKO_019_GAS_Sh13970.mov</name>
						<enabled>TRUE</enabled>
						<duration>44</duration>
						<rate>
							<timebase>24</timebase>
							<ntsc>TRUE</ntsc>
						</rate>
						<start>97755</start>
						<end>97791</end>
						<in>4</in>
						<out>40</out>
						<pproTicksIn>42378336000</pproTicksIn>
						<pproTicksOut>423783360000</pproTicksOut>
						<alphatype>none</alphatype>
						<pixelaspectratio>square</pixelaspectratio>
						<anamorphic>FALSE</anamorphic>
						<file id="file-1340">
							<name>TKO_019_GAS_Sh13970.mov</name>
							<pathurl>file://tri-stor01/Projects/TKO/SHOTS/_Refs_Movs_Burnin_FrameCounter/TKO_019_GAS_Sh13970.mov</pathurl>
							<rate>
								<timebase>24</timebase>
								<ntsc>TRUE</ntsc>
							</rate>
							<duration>44</duration>
							<timecode>
								<rate>
									<timebase>24</timebase>
									<ntsc>TRUE</ntsc>
								</rate>
								<string>11:32:43:10</string>
								<frame>997522</frame>
								<displayformat>NDF</displayformat>
								<reel>
									<name>A0270003</name>
								</reel>
							</timecode>
							<media>
								<video>
									<samplecharacteristics>
										<rate>
											<timebase>24</timebase>
											<ntsc>TRUE</ntsc>
										</rate>
										<width>4096</width>
										<height>2160</height>
										<anamorphic>FALSE</anamorphic>
										<pixelaspectratio>square</pixelaspectratio>
										<fielddominance>none</fielddominance>
									</samplecharacteristics>
								</video>
							</media>
						</file>
						<logginginfo>
							<description></description>
							<scene></scene>
							<shottake></shottake>
							<lognote></lognote>
							<good></good>
							<originalvideofilename></originalvideofilename>
							<originalaudiofilename></originalaudiofilename>
						</logginginfo>
						<colorinfo>
							<lut></lut>
							<lut1></lut1>
							<asc_sop></asc_sop>
							<asc_sat></asc_sat>
							<lut2></lut2>
						</colorinfo>
						<labels>
							<label2>Violet</label2>
						</labels>
					</clipitem>
					<clipitem id="clipitem-1344">
						<masterclipid>masterclip-1341</masterclipid>
						<name>TKO_019_GAS_Sh13980.mov</name>
						<enabled>TRUE</enabled>
						<duration>226</duration>
						<rate>
							<timebase>24</timebase>
							<ntsc>TRUE</ntsc>
						</rate>
						<start>97791</start>
						<end>98009</end>
						<in>4</in>
						<out>222</out>
						<pproTicksIn>42378336000</pproTicksIn>
						<pproTicksOut>2351997648000</pproTicksOut>
						<alphatype>none</alphatype>
						<pixelaspectratio>square</pixelaspectratio>
						<anamorphic>FALSE</anamorphic>
						<file id="file-1341">
							<name>TKO_019_GAS_Sh13980.mov</name>
							<pathurl>file://tri-stor01/Projects/TKO/SHOTS/_Refs_Movs_Burnin_FrameCounter/TKO_019_GAS_Sh13980.mov</pathurl>
							<rate>
								<timebase>24</timebase>
								<ntsc>TRUE</ntsc>
							</rate>
							<duration>226</duration>
							<timecode>
								<rate>
									<timebase>24</timebase>
									<ntsc>TRUE</ntsc>
								</rate>
								<string>11:32:44:22</string>
								<frame>997558</frame>
								<displayformat>NDF</displayformat>
								<reel>
									<name>B0230003</name>
								</reel>
							</timecode>
							<media>
								<video>
									<samplecharacteristics>
										<rate>
											<timebase>24</timebase>
											<ntsc>TRUE</ntsc>
										</rate>
										<width>4096</width>
										<height>2160</height>
										<anamorphic>FALSE</anamorphic>
										<pixelaspectratio>square</pixelaspectratio>
										<fielddominance>none</fielddominance>
									</samplecharacteristics>
								</video>
							</media>
						</file>
						<logginginfo>
							<description></description>
							<scene></scene>
							<shottake></shottake>
							<lognote></lognote>
							<good></good>
							<originalvideofilename></originalvideofilename>
							<originalaudiofilename></originalaudiofilename>
						</logginginfo>
						<colorinfo>
							<lut></lut>
							<lut1></lut1>
							<asc_sop></asc_sop>
							<asc_sat></asc_sat>
							<lut2></lut2>
						</colorinfo>
						<labels>
							<label2>Violet</label2>
						</labels>
					</clipitem>
					<clipitem id="clipitem-1345">
						<masterclipid>masterclip-1342</masterclipid>
						<name>TKO_019_GAS_Sh13990.mov</name>
						<enabled>TRUE</enabled>
						<duration>119</duration>
						<rate>
							<timebase>24</timebase>
							<ntsc>TRUE</ntsc>
						</rate>
						<start>98009</start>
						<end>98120</end>
						<in>4</in>
						<out>115</out>
						<pproTicksIn>42378336000</pproTicksIn>
						<pproTicksOut>1218377160000</pproTicksOut>
						<alphatype>none</alphatype>
						<pixelaspectratio>square</pixelaspectratio>
						<anamorphic>FALSE</anamorphic>
						<file id="file-1342">
							<name>TKO_019_GAS_Sh13990.mov</name>
							<pathurl>file://tri-stor01/Projects/TKO/SHOTS/_Refs_Movs_Burnin_FrameCounter/TKO_019_GAS_Sh13990.mov</pathurl>
							<rate>
								<timebase>24</timebase>
								<ntsc>TRUE</ntsc>
							</rate>
							<duration>119</duration>
							<timecode>
								<rate>
									<timebase>24</timebase>
									<ntsc>TRUE</ntsc>
								</rate>
								<string>12:12:08:14</string>
								<frame>1054286</frame>
								<displayformat>NDF</displayformat>
								<reel>
									<name>B0230006</name>
								</reel>
							</timecode>
							<media>
								<video>
									<samplecharacteristics>
										<rate>
											<timebase>24</timebase>
											<ntsc>TRUE</ntsc>
										</rate>
										<width>4096</width>
										<height>2160</height>
										<anamorphic>FALSE</anamorphic>
										<pixelaspectratio>square</pixelaspectratio>
										<fielddominance>none</fielddominance>
									</samplecharacteristics>
								</video>
							</media>
						</file>
						<logginginfo>
							<description></description>
							<scene></scene>
							<shottake></shottake>
							<lognote></lognote>
							<good></good>
							<originalvideofilename></originalvideofilename>
							<originalaudiofilename></originalaudiofilename>
						</logginginfo>
						<colorinfo>
							<lut></lut>
							<lut1></lut1>
							<asc_sop></asc_sop>
							<asc_sat></asc_sat>
							<lut2></lut2>
						</colorinfo>
						<labels>
							<label2>Violet</label2>
						</labels>
					</clipitem>
					<clipitem id="clipitem-1346">
						<masterclipid>masterclip-1343</masterclipid>
						<name>TKO_019_GAS_Sh14000.mov</name>
						<enabled>TRUE</enabled>
						<duration>86</duration>
						<rate>
							<timebase>24</timebase>
							<ntsc>TRUE</ntsc>
						</rate>
						<start>98120</start>
						<end>98198</end>
						<in>4</in>
						<out>82</out>
						<pproTicksIn>42378336000</pproTicksIn>
						<pproTicksOut>868755888000</pproTicksOut>
						<alphatype>none</alphatype>
						<pixelaspectratio>square</pixelaspectratio>
						<anamorphic>FALSE</anamorphic>
						<file id="file-1343">
							<name>TKO_019_GAS_Sh14000.mov</name>
							<pathurl>file://tri-stor01/Projects/TKO/SHOTS/_Refs_Movs_Burnin_FrameCounter/TKO_019_GAS_Sh14000.mov</pathurl>
							<rate>
								<timebase>24</timebase>
								<ntsc>TRUE</ntsc>
							</rate>
							<duration>86</duration>
							<timecode>
								<rate>
									<timebase>24</timebase>
									<ntsc>TRUE</ntsc>
								</rate>
								<string>12:16:41:15</string>
								<frame>1060839</frame>
								<displayformat>NDF</displayformat>
								<reel>
									<name>A0270008</name>
								</reel>
							</timecode>
							<media>
								<video>
									<samplecharacteristics>
										<rate>
											<timebase>24</timebase>
											<ntsc>TRUE</ntsc>
										</rate>
										<width>4096</width>
										<height>2160</height>
										<anamorphic>FALSE</anamorphic>
										<pixelaspectratio>square</pixelaspectratio>
										<fielddominance>none</fielddominance>
									</samplecharacteristics>
								</video>
							</media>
						</file>
						<logginginfo>
							<description></description>
							<scene></scene>
							<shottake></shottake>
							<lognote></lognote>
							<good></good>
							<originalvideofilename></originalvideofilename>
							<originalaudiofilename></originalaudiofilename>
						</logginginfo>
						<colorinfo>
							<lut></lut>
							<lut1></lut1>
							<asc_sop></asc_sop>
							<asc_sat></asc_sat>
							<lut2></lut2>
						</colorinfo>
						<labels>
							<label2>Violet</label2>
						</labels>
					</clipitem>
					<clipitem id="clipitem-1347">
						<masterclipid>masterclip-1344</masterclipid>
						<name>TKO_019_GAS_Sh14010.mov</name>
						<enabled>TRUE</enabled>
						<duration>89</duration>
						<rate>
							<timebase>24</timebase>
							<ntsc>TRUE</ntsc>
						</rate>
						<start>98198</start>
						<end>98279</end>
						<in>4</in>
						<out>85</out>
						<pproTicksIn>42378336000</pproTicksIn>
						<pproTicksOut>900539640000</pproTicksOut>
						<alphatype>none</alphatype>
						<pixelaspectratio>square</pixelaspectratio>
						<anamorphic>FALSE</anamorphic>
						<file id="file-1344">
							<name>TKO_019_GAS_Sh14010.mov</name>
							<pathurl>file://tri-stor01/Projects/TKO/SHOTS/_Refs_Movs_Burnin_FrameCounter/TKO_019_GAS_Sh14010.mov</pathurl>
							<rate>
								<timebase>24</timebase>
								<ntsc>TRUE</ntsc>
							</rate>
							<duration>89</duration>
							<timecode>
								<rate>
									<timebase>24</timebase>
									<ntsc>TRUE</ntsc>
								</rate>
								<string>07:35:38:22</string>
								<frame>656134</frame>
								<displayformat>NDF</displayformat>
								<reel>
									<name>C0190002</name>
								</reel>
							</timecode>
							<media>
								<video>
									<samplecharacteristics>
										<rate>
											<timebase>24</timebase>
											<ntsc>TRUE</ntsc>
										</rate>
										<width>3840</width>
										<height>2160</height>
										<anamorphic>FALSE</anamorphic>
										<pixelaspectratio>square</pixelaspectratio>
										<fielddominance>none</fielddominance>
									</samplecharacteristics>
								</video>
							</media>
						</file>
						<logginginfo>
							<description></description>
							<scene></scene>
							<shottake></shottake>
							<lognote></lognote>
							<good></good>
							<originalvideofilename></originalvideofilename>
							<originalaudiofilename></originalaudiofilename>
						</logginginfo>
						<colorinfo>
							<lut></lut>
							<lut1></lut1>
							<asc_sop></asc_sop>
							<asc_sat></asc_sat>
							<lut2></lut2>
						</colorinfo>
						<labels>
							<label2>Violet</label2>
						</labels>
					</clipitem>
					<clipitem id="clipitem-1348">
						<masterclipid>masterclip-1345</masterclipid>
						<name>TKO_019_GAS_Sh14020.mov</name>
						<enabled>TRUE</enabled>
						<duration>84</duration>
						<rate>
							<timebase>24</timebase>
							<ntsc>TRUE</ntsc>
						</rate>
						<start>98279</start>
						<end>98355</end>
						<in>4</in>
						<out>80</out>
						<pproTicksIn>42378336000</pproTicksIn>
						<pproTicksOut>847566720000</pproTicksOut>
						<alphatype>none</alphatype>
						<pixelaspectratio>square</pixelaspectratio>
						<anamorphic>FALSE</anamorphic>
						<file id="file-1345">
							<name>TKO_019_GAS_Sh14020.mov</name>
							<pathurl>file://tri-stor01/Projects/TKO/SHOTS/_Refs_Movs_Burnin_FrameCounter/TKO_019_GAS_Sh14020.mov</pathurl>
							<rate>
								<timebase>24</timebase>
								<ntsc>TRUE</ntsc>
							</rate>
							<duration>84</duration>
							<timecode>
								<rate>
									<timebase>24</timebase>
									<ntsc>TRUE</ntsc>
								</rate>
								<string>13:11:31:12</string>
								<frame>1139796</frame>
								<displayformat>NDF</displayformat>
								<reel>
									<name>A0270010</name>
								</reel>
							</timecode>
							<media>
								<video>
									<samplecharacteristics>
										<rate>
											<timebase>24</timebase>
											<ntsc>TRUE</ntsc>
										</rate>
										<width>4096</width>
										<height>2160</height>
										<anamorphic>FALSE</anamorphic>
										<pixelaspectratio>square</pixelaspectratio>
										<fielddominance>none</fielddominance>
									</samplecharacteristics>
								</video>
							</media>
						</file>
						<logginginfo>
							<description></description>
							<scene></scene>
							<shottake></shottake>
							<lognote></lognote>
							<good></good>
							<originalvideofilename></originalvideofilename>
							<originalaudiofilename></originalaudiofilename>
						</logginginfo>
						<colorinfo>
							<lut></lut>
							<lut1></lut1>
							<asc_sop></asc_sop>
							<asc_sat></asc_sat>
							<lut2></lut2>
						</colorinfo>
						<labels>
							<label2>Violet</label2>
						</labels>
					</clipitem>
					<clipitem id="clipitem-1349">
						<masterclipid>masterclip-1346</masterclipid>
						<name>TKO_019_GAS_Sh14030.mov</name>
						<enabled>TRUE</enabled>
						<duration>134</duration>
						<rate>
							<timebase>24</timebase>
							<ntsc>TRUE</ntsc>
						</rate>
						<start>98355</start>
						<end>98481</end>
						<in>4</in>
						<out>130</out>
						<pproTicksIn>42378336000</pproTicksIn>
						<pproTicksOut>1377295920000</pproTicksOut>
						<alphatype>none</alphatype>
						<pixelaspectratio>square</pixelaspectratio>
						<anamorphic>FALSE</anamorphic>
						<file id="file-1346">
							<name>TKO_019_GAS_Sh14030.mov</name>
							<pathurl>file://tri-stor01/Projects/TKO/SHOTS/_Refs_Movs_Burnin_FrameCounter/TKO_019_GAS_Sh14030.mov</pathurl>
							<rate>
								<timebase>24</timebase>
								<ntsc>TRUE</ntsc>
							</rate>
							<duration>134</duration>
							<timecode>
								<rate>
									<timebase>24</timebase>
									<ntsc>TRUE</ntsc>
								</rate>
								<string>07:40:34:05</string>
								<frame>663221</frame>
								<displayformat>NDF</displayformat>
								<reel>
									<name>C0190005</name>
								</reel>
							</timecode>
							<media>
								<video>
									<samplecharacteristics>
										<rate>
											<timebase>24</timebase>
											<ntsc>TRUE</ntsc>
										</rate>
										<width>3840</width>
										<height>2160</height>
										<anamorphic>FALSE</anamorphic>
										<pixelaspectratio>square</pixelaspectratio>
										<fielddominance>none</fielddominance>
									</samplecharacteristics>
								</video>
							</media>
						</file>
						<logginginfo>
							<description></description>
							<scene></scene>
							<shottake></shottake>
							<lognote></lognote>
							<good></good>
							<originalvideofilename></originalvideofilename>
							<originalaudiofilename></originalaudiofilename>
						</logginginfo>
						<colorinfo>
							<lut></lut>
							<lut1></lut1>
							<asc_sop></asc_sop>
							<asc_sat></asc_sat>
							<lut2></lut2>
						</colorinfo>
						<labels>
							<label2>Violet</label2>
						</labels>
					</clipitem>
					<clipitem id="clipitem-1350">
						<masterclipid>masterclip-1347</masterclipid>
						<name>TKO_019_GAS_Sh14040.mov</name>
						<enabled>TRUE</enabled>
						<duration>68</duration>
						<rate>
							<timebase>24</timebase>
							<ntsc>TRUE</ntsc>
						</rate>
						<start>98481</start>
						<end>98541</end>
						<in>4</in>
						<out>64</out>
						<pproTicksIn>42378336000</pproTicksIn>
						<pproTicksOut>678053376000</pproTicksOut>
						<alphatype>none</alphatype>
						<pixelaspectratio>square</pixelaspectratio>
						<anamorphic>FALSE</anamorphic>
						<file id="file-1347">
							<name>TKO_019_GAS_Sh14040.mov</name>
							<pathurl>file://tri-stor01/Projects/TKO/SHOTS/_Refs_Movs_Burnin_FrameCounter/TKO_019_GAS_Sh14040.mov</pathurl>
							<rate>
								<timebase>24</timebase>
								<ntsc>TRUE</ntsc>
							</rate>
							<duration>68</duration>
							<timecode>
								<rate>
									<timebase>24</timebase>
									<ntsc>TRUE</ntsc>
								</rate>
								<string>13:11:42:19</string>
								<frame>1140067</frame>
								<displayformat>NDF</displayformat>
								<reel>
									<name>B0230010</name>
								</reel>
							</timecode>
							<media>
								<video>
									<samplecharacteristics>
										<rate>
											<timebase>24</timebase>
											<ntsc>TRUE</ntsc>
										</rate>
										<width>4096</width>
										<height>2160</height>
										<anamorphic>FALSE</anamorphic>
										<pixelaspectratio>square</pixelaspectratio>
										<fielddominance>none</fielddominance>
									</samplecharacteristics>
								</video>
							</media>
						</file>
						<logginginfo>
							<description></description>
							<scene></scene>
							<shottake></shottake>
							<lognote></lognote>
							<good></good>
							<originalvideofilename></originalvideofilename>
							<originalaudiofilename></originalaudiofilename>
						</logginginfo>
						<colorinfo>
							<lut></lut>
							<lut1></lut1>
							<asc_sop></asc_sop>
							<asc_sat></asc_sat>
							<lut2></lut2>
						</colorinfo>
						<labels>
							<label2>Violet</label2>
						</labels>
					</clipitem>
					<clipitem id="clipitem-1351">
						<masterclipid>masterclip-1348</masterclipid>
						<name>TKO_019_GAS_Sh14050.mov</name>
						<enabled>TRUE</enabled>
						<duration>82</duration>
						<rate>
							<timebase>24</timebase>
							<ntsc>TRUE</ntsc>
						</rate>
						<start>98541</start>
						<end>98615</end>
						<in>4</in>
						<out>78</out>
						<pproTicksIn>42378336000</pproTicksIn>
						<pproTicksOut>826377552000</pproTicksOut>
						<alphatype>none</alphatype>
						<pixelaspectratio>square</pixelaspectratio>
						<anamorphic>FALSE</anamorphic>
						<file id="file-1348">
							<name>TKO_019_GAS_Sh14050.mov</name>
							<pathurl>file://tri-stor01/Projects/TKO/SHOTS/_Refs_Movs_Burnin_FrameCounter/TKO_019_GAS_Sh14050.mov</pathurl>
							<rate>
								<timebase>24</timebase>
								<ntsc>TRUE</ntsc>
							</rate>
							<duration>82</duration>
							<timecode>
								<rate>
									<timebase>24</timebase>
									<ntsc>TRUE</ntsc>
								</rate>
								<string>19:13:00:15</string>
								<frame>1660335</frame>
								<displayformat>NDF</displayformat>
								<reel>
									<name>B0200009</name>
								</reel>
							</timecode>
							<media>
								<video>
									<samplecharacteristics>
										<rate>
											<timebase>24</timebase>
											<ntsc>TRUE</ntsc>
										</rate>
										<width>4096</width>
										<height>2160</height>
										<anamorphic>FALSE</anamorphic>
										<pixelaspectratio>square</pixelaspectratio>
										<fielddominance>none</fielddominance>
									</samplecharacteristics>
								</video>
							</media>
						</file>
						<logginginfo>
							<description></description>
							<scene></scene>
							<shottake></shottake>
							<lognote></lognote>
							<good></good>
							<originalvideofilename></originalvideofilename>
							<originalaudiofilename></originalaudiofilename>
						</logginginfo>
						<colorinfo>
							<lut></lut>
							<lut1></lut1>
							<asc_sop></asc_sop>
							<asc_sat></asc_sat>
							<lut2></lut2>
						</colorinfo>
						<labels>
							<label2>Violet</label2>
						</labels>
					</clipitem>
					<clipitem id="clipitem-1352">
						<masterclipid>masterclip-1349</masterclipid>
						<name>TKO_019_GAS_Sh14060.mov</name>
						<enabled>TRUE</enabled>
						<duration>49</duration>
						<rate>
							<timebase>24</timebase>
							<ntsc>TRUE</ntsc>
						</rate>
						<start>98615</start>
						<end>98656</end>
						<in>4</in>
						<out>45</out>
						<pproTicksIn>42378336000</pproTicksIn>
						<pproTicksOut>476756280000</pproTicksOut>
						<alphatype>none</alphatype>
						<pixelaspectratio>square</pixelaspectratio>
						<anamorphic>FALSE</anamorphic>
						<file id="file-1349">
							<name>TKO_019_GAS_Sh14060.mov</name>
							<pathurl>file://tri-stor01/Projects/TKO/SHOTS/_Refs_Movs_Burnin_FrameCounter/TKO_019_GAS_Sh14060.mov</pathurl>
							<rate>
								<timebase>24</timebase>
								<ntsc>TRUE</ntsc>
							</rate>
							<duration>49</duration>
							<timecode>
								<rate>
									<timebase>24</timebase>
									<ntsc>TRUE</ntsc>
								</rate>
								<string>19:13:02:04</string>
								<frame>1660372</frame>
								<displayformat>NDF</displayformat>
								<reel>
									<name>A0240012</name>
								</reel>
							</timecode>
							<media>
								<video>
									<samplecharacteristics>
										<rate>
											<timebase>24</timebase>
											<ntsc>TRUE</ntsc>
										</rate>
										<width>4096</width>
										<height>2160</height>
										<anamorphic>FALSE</anamorphic>
										<pixelaspectratio>square</pixelaspectratio>
										<fielddominance>none</fielddominance>
									</samplecharacteristics>
								</video>
							</media>
						</file>
						<logginginfo>
							<description></description>
							<scene></scene>
							<shottake></shottake>
							<lognote></lognote>
							<good></good>
							<originalvideofilename></originalvideofilename>
							<originalaudiofilename></originalaudiofilename>
						</logginginfo>
						<colorinfo>
							<lut></lut>
							<lut1></lut1>
							<asc_sop></asc_sop>
							<asc_sat></asc_sat>
							<lut2></lut2>
						</colorinfo>
						<labels>
							<label2>Violet</label2>
						</labels>
					</clipitem>
					<clipitem id="clipitem-1353">
						<masterclipid>masterclip-1350</masterclipid>
						<name>TKO_019_GAS_Sh14070.mov</name>
						<enabled>TRUE</enabled>
						<duration>97</duration>
						<rate>
							<timebase>24</timebase>
							<ntsc>TRUE</ntsc>
						</rate>
						<start>98656</start>
						<end>98745</end>
						<in>4</in>
						<out>93</out>
						<pproTicksIn>42378336000</pproTicksIn>
						<pproTicksOut>985296312000</pproTicksOut>
						<alphatype>none</alphatype>
						<pixelaspectratio>square</pixelaspectratio>
						<anamorphic>FALSE</anamorphic>
						<file id="file-1350">
							<name>TKO_019_GAS_Sh14070.mov</name>
							<pathurl>file://tri-stor01/Projects/TKO/SHOTS/_Refs_Movs_Burnin_FrameCounter/TKO_019_GAS_Sh14070.mov</pathurl>
							<rate>
								<timebase>24</timebase>
								<ntsc>TRUE</ntsc>
							</rate>
							<duration>97</duration>
							<timecode>
								<rate>
									<timebase>24</timebase>
									<ntsc>TRUE</ntsc>
								</rate>
								<string>19:13:32:14</string>
								<frame>1661102</frame>
								<displayformat>NDF</displayformat>
								<reel>
									<name>B0200009</name>
								</reel>
							</timecode>
							<media>
								<video>
									<samplecharacteristics>
										<rate>
											<timebase>24</timebase>
											<ntsc>TRUE</ntsc>
										</rate>
										<width>4096</width>
										<height>2160</height>
										<anamorphic>FALSE</anamorphic>
										<pixelaspectratio>square</pixelaspectratio>
										<fielddominance>none</fielddominance>
									</samplecharacteristics>
								</video>
							</media>
						</file>
						<logginginfo>
							<description></description>
							<scene></scene>
							<shottake></shottake>
							<lognote></lognote>
							<good></good>
							<originalvideofilename></originalvideofilename>
							<originalaudiofilename></originalaudiofilename>
						</logginginfo>
						<colorinfo>
							<lut></lut>
							<lut1></lut1>
							<asc_sop></asc_sop>
							<asc_sat></asc_sat>
							<lut2></lut2>
						</colorinfo>
						<labels>
							<label2>Violet</label2>
						</labels>
					</clipitem>
					<clipitem id="clipitem-1354">
						<masterclipid>masterclip-1351</masterclipid>
						<name>TKO_019_GAS_Sh14080.mov</name>
						<enabled>TRUE</enabled>
						<duration>75</duration>
						<rate>
							<timebase>24</timebase>
							<ntsc>TRUE</ntsc>
						</rate>
						<start>98745</start>
						<end>98812</end>
						<in>4</in>
						<out>71</out>
						<pproTicksIn>42378336000</pproTicksIn>
						<pproTicksOut>752215464000</pproTicksOut>
						<alphatype>none</alphatype>
						<pixelaspectratio>square</pixelaspectratio>
						<anamorphic>FALSE</anamorphic>
						<file id="file-1351">
							<name>TKO_019_GAS_Sh14080.mov</name>
							<pathurl>file://tri-stor01/Projects/TKO/SHOTS/_Refs_Movs_Burnin_FrameCounter/TKO_019_GAS_Sh14080.mov</pathurl>
							<rate>
								<timebase>24</timebase>
								<ntsc>TRUE</ntsc>
							</rate>
							<duration>75</duration>
							<timecode>
								<rate>
									<timebase>24</timebase>
									<ntsc>TRUE</ntsc>
								</rate>
								<string>07:05:21:08</string>
								<frame>612512</frame>
								<displayformat>NDF</displayformat>
								<reel>
									<name>C0160006</name>
								</reel>
							</timecode>
							<media>
								<video>
									<samplecharacteristics>
										<rate>
											<timebase>24</timebase>
											<ntsc>TRUE</ntsc>
										</rate>
										<width>3840</width>
										<height>2160</height>
										<anamorphic>FALSE</anamorphic>
										<pixelaspectratio>square</pixelaspectratio>
										<fielddominance>none</fielddominance>
									</samplecharacteristics>
								</video>
							</media>
						</file>
						<logginginfo>
							<description></description>
							<scene></scene>
							<shottake></shottake>
							<lognote></lognote>
							<good></good>
							<originalvideofilename></originalvideofilename>
							<originalaudiofilename></originalaudiofilename>
						</logginginfo>
						<colorinfo>
							<lut></lut>
							<lut1></lut1>
							<asc_sop></asc_sop>
							<asc_sat></asc_sat>
							<lut2></lut2>
						</colorinfo>
						<labels>
							<label2>Violet</label2>
						</labels>
					</clipitem>
					<clipitem id="clipitem-1355">
						<masterclipid>masterclip-1352</masterclipid>
						<name>TKO_019_GAS_Sh14090.mov</name>
						<enabled>TRUE</enabled>
						<duration>49</duration>
						<rate>
							<timebase>24</timebase>
							<ntsc>TRUE</ntsc>
						</rate>
						<start>98812</start>
						<end>98853</end>
						<in>4</in>
						<out>45</out>
						<pproTicksIn>42378336000</pproTicksIn>
						<pproTicksOut>476756280000</pproTicksOut>
						<alphatype>none</alphatype>
						<pixelaspectratio>square</pixelaspectratio>
						<anamorphic>FALSE</anamorphic>
						<file id="file-1352">
							<name>TKO_019_GAS_Sh14090.mov</name>
							<pathurl>file://tri-stor01/Projects/TKO/SHOTS/_Refs_Movs_Burnin_FrameCounter/TKO_019_GAS_Sh14090.mov</pathurl>
							<rate>
								<timebase>24</timebase>
								<ntsc>TRUE</ntsc>
							</rate>
							<duration>49</duration>
							<timecode>
								<rate>
									<timebase>24</timebase>
									<ntsc>TRUE</ntsc>
								</rate>
								<string>19:13:38:13</string>
								<frame>1661245</frame>
								<displayformat>NDF</displayformat>
								<reel>
									<name>B0200009</name>
								</reel>
							</timecode>
							<media>
								<video>
									<samplecharacteristics>
										<rate>
											<timebase>24</timebase>
											<ntsc>TRUE</ntsc>
										</rate>
										<width>4096</width>
										<height>2160</height>
										<anamorphic>FALSE</anamorphic>
										<pixelaspectratio>square</pixelaspectratio>
										<fielddominance>none</fielddominance>
									</samplecharacteristics>
								</video>
							</media>
						</file>
						<logginginfo>
							<description></description>
							<scene></scene>
							<shottake></shottake>
							<lognote></lognote>
							<good></good>
							<originalvideofilename></originalvideofilename>
							<originalaudiofilename></originalaudiofilename>
						</logginginfo>
						<colorinfo>
							<lut></lut>
							<lut1></lut1>
							<asc_sop></asc_sop>
							<asc_sat></asc_sat>
							<lut2></lut2>
						</colorinfo>
						<labels>
							<label2>Violet</label2>
						</labels>
					</clipitem>
					<clipitem id="clipitem-1356">
						<masterclipid>masterclip-1353</masterclipid>
						<name>TKO_019_GAS_Sh14100.mov</name>
						<enabled>TRUE</enabled>
						<duration>23</duration>
						<rate>
							<timebase>24</timebase>
							<ntsc>TRUE</ntsc>
						</rate>
						<start>98853</start>
						<end>98868</end>
						<in>4</in>
						<out>19</out>
						<pproTicksIn>42378336000</pproTicksIn>
						<pproTicksOut>201297096000</pproTicksOut>
						<alphatype>none</alphatype>
						<pixelaspectratio>square</pixelaspectratio>
						<anamorphic>FALSE</anamorphic>
						<file id="file-1353">
							<name>TKO_019_GAS_Sh14100.mov</name>
							<pathurl>file://tri-stor01/Projects/TKO/SHOTS/_Refs_Movs_Burnin_FrameCounter/TKO_019_GAS_Sh14100.mov</pathurl>
							<rate>
								<timebase>24</timebase>
								<ntsc>TRUE</ntsc>
							</rate>
							<duration>23</duration>
							<timecode>
								<rate>
									<timebase>24</timebase>
									<ntsc>TRUE</ntsc>
								</rate>
								<string>19:08:07:04</string>
								<frame>1653292</frame>
								<displayformat>NDF</displayformat>
								<reel>
									<name>A0240011</name>
								</reel>
							</timecode>
							<media>
								<video>
									<samplecharacteristics>
										<rate>
											<timebase>24</timebase>
											<ntsc>TRUE</ntsc>
										</rate>
										<width>4096</width>
										<height>2160</height>
										<anamorphic>FALSE</anamorphic>
										<pixelaspectratio>square</pixelaspectratio>
										<fielddominance>none</fielddominance>
									</samplecharacteristics>
								</video>
							</media>
						</file>
						<logginginfo>
							<description></description>
							<scene></scene>
							<shottake></shottake>
							<lognote></lognote>
							<good></good>
							<originalvideofilename></originalvideofilename>
							<originalaudiofilename></originalaudiofilename>
						</logginginfo>
						<colorinfo>
							<lut></lut>
							<lut1></lut1>
							<asc_sop></asc_sop>
							<asc_sat></asc_sat>
							<lut2></lut2>
						</colorinfo>
						<labels>
							<label2>Violet</label2>
						</labels>
					</clipitem>
					<clipitem id="clipitem-1357">
						<masterclipid>masterclip-1354</masterclipid>
						<name>TKO_019_GAS_Sh14110.mov</name>
						<enabled>TRUE</enabled>
						<duration>40</duration>
						<rate>
							<timebase>24</timebase>
							<ntsc>TRUE</ntsc>
						</rate>
						<start>98868</start>
						<end>98900</end>
						<in>4</in>
						<out>36</out>
						<pproTicksIn>42378336000</pproTicksIn>
						<pproTicksOut>381405024000</pproTicksOut>
						<alphatype>none</alphatype>
						<pixelaspectratio>square</pixelaspectratio>
						<anamorphic>FALSE</anamorphic>
						<file id="file-1354">
							<name>TKO_019_GAS_Sh14110.mov</name>
							<pathurl>file://tri-stor01/Projects/TKO/SHOTS/_Refs_Movs_Burnin_FrameCounter/TKO_019_GAS_Sh14110.mov</pathurl>
							<rate>
								<timebase>24</timebase>
								<ntsc>TRUE</ntsc>
							</rate>
							<duration>40</duration>
							<timecode>
								<rate>
									<timebase>24</timebase>
									<ntsc>TRUE</ntsc>
								</rate>
								<string>07:03:40:12</string>
								<frame>610092</frame>
								<displayformat>NDF</displayformat>
								<reel>
									<name>C0160005</name>
								</reel>
							</timecode>
							<media>
								<video>
									<samplecharacteristics>
										<rate>
											<timebase>24</timebase>
											<ntsc>TRUE</ntsc>
										</rate>
										<width>3840</width>
										<height>2160</height>
										<anamorphic>FALSE</anamorphic>
										<pixelaspectratio>square</pixelaspectratio>
										<fielddominance>none</fielddominance>
									</samplecharacteristics>
								</video>
							</media>
						</file>
						<logginginfo>
							<description></description>
							<scene></scene>
							<shottake></shottake>
							<lognote></lognote>
							<good></good>
							<originalvideofilename></originalvideofilename>
							<originalaudiofilename></originalaudiofilename>
						</logginginfo>
						<colorinfo>
							<lut></lut>
							<lut1></lut1>
							<asc_sop></asc_sop>
							<asc_sat></asc_sat>
							<lut2></lut2>
						</colorinfo>
						<labels>
							<label2>Violet</label2>
						</labels>
					</clipitem>
					<clipitem id="clipitem-1358">
						<masterclipid>masterclip-1355</masterclipid>
						<name>TKO_019_GAS_Sh14120.mov</name>
						<enabled>TRUE</enabled>
						<duration>39</duration>
						<rate>
							<timebase>24</timebase>
							<ntsc>TRUE</ntsc>
						</rate>
						<start>98900</start>
						<end>98931</end>
						<in>4</in>
						<out>35</out>
						<pproTicksIn>42378336000</pproTicksIn>
						<pproTicksOut>370810440000</pproTicksOut>
						<alphatype>none</alphatype>
						<pixelaspectratio>square</pixelaspectratio>
						<anamorphic>FALSE</anamorphic>
						<file id="file-1355">
							<name>TKO_019_GAS_Sh14120.mov</name>
							<pathurl>file://tri-stor01/Projects/TKO/SHOTS/_Refs_Movs_Burnin_FrameCounter/TKO_019_GAS_Sh14120.mov</pathurl>
							<rate>
								<timebase>24</timebase>
								<ntsc>TRUE</ntsc>
							</rate>
							<duration>39</duration>
							<timecode>
								<rate>
									<timebase>24</timebase>
									<ntsc>TRUE</ntsc>
								</rate>
								<string>19:08:09:04</string>
								<frame>1653340</frame>
								<displayformat>NDF</displayformat>
								<reel>
									<name>B0200008</name>
								</reel>
							</timecode>
							<media>
								<video>
									<samplecharacteristics>
										<rate>
											<timebase>24</timebase>
											<ntsc>TRUE</ntsc>
										</rate>
										<width>4096</width>
										<height>2160</height>
										<anamorphic>FALSE</anamorphic>
										<pixelaspectratio>square</pixelaspectratio>
										<fielddominance>none</fielddominance>
									</samplecharacteristics>
								</video>
							</media>
						</file>
						<logginginfo>
							<description></description>
							<scene></scene>
							<shottake></shottake>
							<lognote></lognote>
							<good></good>
							<originalvideofilename></originalvideofilename>
							<originalaudiofilename></originalaudiofilename>
						</logginginfo>
						<colorinfo>
							<lut></lut>
							<lut1></lut1>
							<asc_sop></asc_sop>
							<asc_sat></asc_sat>
							<lut2></lut2>
						</colorinfo>
						<labels>
							<label2>Violet</label2>
						</labels>
					</clipitem>
					<clipitem id="clipitem-1359">
						<masterclipid>masterclip-1356</masterclipid>
						<name>TKO_019_GAS_Sh14130.mov</name>
						<enabled>TRUE</enabled>
						<duration>31</duration>
						<rate>
							<timebase>24</timebase>
							<ntsc>TRUE</ntsc>
						</rate>
						<start>98931</start>
						<end>98954</end>
						<in>4</in>
						<out>27</out>
						<pproTicksIn>42378336000</pproTicksIn>
						<pproTicksOut>286053768000</pproTicksOut>
						<alphatype>none</alphatype>
						<pixelaspectratio>square</pixelaspectratio>
						<anamorphic>FALSE</anamorphic>
						<file id="file-1356">
							<name>TKO_019_GAS_Sh14130.mov</name>
							<pathurl>file://tri-stor01/Projects/TKO/SHOTS/_Refs_Movs_Burnin_FrameCounter/TKO_019_GAS_Sh14130.mov</pathurl>
							<rate>
								<timebase>24</timebase>
								<ntsc>TRUE</ntsc>
							</rate>
							<duration>31</duration>
							<timecode>
								<rate>
									<timebase>24</timebase>
									<ntsc>TRUE</ntsc>
								</rate>
								<string>06:19:12:13</string>
								<frame>546061</frame>
								<displayformat>NDF</displayformat>
								<reel>
									<name>C0130007</name>
								</reel>
							</timecode>
							<media>
								<video>
									<samplecharacteristics>
										<rate>
											<timebase>24</timebase>
											<ntsc>TRUE</ntsc>
										</rate>
										<width>3840</width>
										<height>2160</height>
										<anamorphic>FALSE</anamorphic>
										<pixelaspectratio>square</pixelaspectratio>
										<fielddominance>none</fielddominance>
									</samplecharacteristics>
								</video>
							</media>
						</file>
						<logginginfo>
							<description></description>
							<scene></scene>
							<shottake></shottake>
							<lognote></lognote>
							<good></good>
							<originalvideofilename></originalvideofilename>
							<originalaudiofilename></originalaudiofilename>
						</logginginfo>
						<colorinfo>
							<lut></lut>
							<lut1></lut1>
							<asc_sop></asc_sop>
							<asc_sat></asc_sat>
							<lut2></lut2>
						</colorinfo>
						<labels>
							<label2>Violet</label2>
						</labels>
					</clipitem>
					<clipitem id="clipitem-1360">
						<masterclipid>masterclip-1357</masterclipid>
						<name>TKO_019_GAS_Sh14140.mov</name>
						<enabled>TRUE</enabled>
						<duration>37</duration>
						<rate>
							<timebase>24</timebase>
							<ntsc>TRUE</ntsc>
						</rate>
						<start>98954</start>
						<end>98983</end>
						<in>4</in>
						<out>33</out>
						<pproTicksIn>42378336000</pproTicksIn>
						<pproTicksOut>349621272000</pproTicksOut>
						<alphatype>none</alphatype>
						<pixelaspectratio>square</pixelaspectratio>
						<anamorphic>FALSE</anamorphic>
						<file id="file-1357">
							<name>TKO_019_GAS_Sh14140.mov</name>
							<pathurl>file://tri-stor01/Projects/TKO/SHOTS/_Refs_Movs_Burnin_FrameCounter/TKO_019_GAS_Sh14140.mov</pathurl>
							<rate>
								<timebase>24</timebase>
								<ntsc>TRUE</ntsc>
							</rate>
							<duration>37</duration>
							<timecode>
								<rate>
									<timebase>24</timebase>
									<ntsc>TRUE</ntsc>
								</rate>
								<string>19:08:12:03</string>
								<frame>1653411</frame>
								<displayformat>NDF</displayformat>
								<reel>
									<name>B0200008</name>
								</reel>
							</timecode>
							<media>
								<video>
									<samplecharacteristics>
										<rate>
											<timebase>24</timebase>
											<ntsc>TRUE</ntsc>
										</rate>
										<width>4096</width>
										<height>2160</height>
										<anamorphic>FALSE</anamorphic>
										<pixelaspectratio>square</pixelaspectratio>
										<fielddominance>none</fielddominance>
									</samplecharacteristics>
								</video>
							</media>
						</file>
						<logginginfo>
							<description></description>
							<scene></scene>
							<shottake></shottake>
							<lognote></lognote>
							<good></good>
							<originalvideofilename></originalvideofilename>
							<originalaudiofilename></originalaudiofilename>
						</logginginfo>
						<colorinfo>
							<lut></lut>
							<lut1></lut1>
							<asc_sop></asc_sop>
							<asc_sat></asc_sat>
							<lut2></lut2>
						</colorinfo>
						<labels>
							<label2>Violet</label2>
						</labels>
					</clipitem>
					<clipitem id="clipitem-1361">
						<masterclipid>masterclip-1358</masterclipid>
						<name>TKO_019_GAS_Sh14150.mov</name>
						<enabled>TRUE</enabled>
						<duration>45</duration>
						<rate>
							<timebase>24</timebase>
							<ntsc>TRUE</ntsc>
						</rate>
						<start>98983</start>
						<end>99020</end>
						<in>4</in>
						<out>41</out>
						<pproTicksIn>42378336000</pproTicksIn>
						<pproTicksOut>434377944000</pproTicksOut>
						<alphatype>none</alphatype>
						<pixelaspectratio>square</pixelaspectratio>
						<anamorphic>FALSE</anamorphic>
						<file id="file-1358">
							<name>TKO_019_GAS_Sh14150.mov</name>
							<pathurl>file://tri-stor01/Projects/TKO/SHOTS/_Refs_Movs_Burnin_FrameCounter/TKO_019_GAS_Sh14150.mov</pathurl>
							<rate>
								<timebase>24</timebase>
								<ntsc>TRUE</ntsc>
							</rate>
							<duration>45</duration>
							<timecode>
								<rate>
									<timebase>24</timebase>
									<ntsc>TRUE</ntsc>
								</rate>
								<string>07:03:46:04</string>
								<frame>610228</frame>
								<displayformat>NDF</displayformat>
								<reel>
									<name>C0160005</name>
								</reel>
							</timecode>
							<media>
								<video>
									<samplecharacteristics>
										<rate>
											<timebase>24</timebase>
											<ntsc>TRUE</ntsc>
										</rate>
										<width>3840</width>
										<height>2160</height>
										<anamorphic>FALSE</anamorphic>
										<pixelaspectratio>square</pixelaspectratio>
										<fielddominance>none</fielddominance>
									</samplecharacteristics>
								</video>
							</media>
						</file>
						<logginginfo>
							<description></description>
							<scene></scene>
							<shottake></shottake>
							<lognote></lognote>
							<good></good>
							<originalvideofilename></originalvideofilename>
							<originalaudiofilename></originalaudiofilename>
						</logginginfo>
						<colorinfo>
							<lut></lut>
							<lut1></lut1>
							<asc_sop></asc_sop>
							<asc_sat></asc_sat>
							<lut2></lut2>
						</colorinfo>
						<labels>
							<label2>Violet</label2>
						</labels>
					</clipitem>
					<clipitem id="clipitem-1362">
						<masterclipid>masterclip-1359</masterclipid>
						<name>TKO_019_GAS_Sh14160.mov</name>
						<enabled>TRUE</enabled>
						<duration>40</duration>
						<rate>
							<timebase>24</timebase>
							<ntsc>TRUE</ntsc>
						</rate>
						<start>99020</start>
						<end>99052</end>
						<in>4</in>
						<out>36</out>
						<pproTicksIn>42378336000</pproTicksIn>
						<pproTicksOut>381405024000</pproTicksOut>
						<alphatype>none</alphatype>
						<pixelaspectratio>square</pixelaspectratio>
						<anamorphic>FALSE</anamorphic>
						<file id="file-1359">
							<name>TKO_019_GAS_Sh14160.mov</name>
							<pathurl>file://tri-stor01/Projects/TKO/SHOTS/_Refs_Movs_Burnin_FrameCounter/TKO_019_GAS_Sh14160.mov</pathurl>
							<rate>
								<timebase>24</timebase>
								<ntsc>TRUE</ntsc>
							</rate>
							<duration>40</duration>
							<timecode>
								<rate>
									<timebase>24</timebase>
									<ntsc>TRUE</ntsc>
								</rate>
								<string>17:41:24:00</string>
								<frame>1528416</frame>
								<displayformat>NDF</displayformat>
								<reel>
									<name>B0180010</name>
								</reel>
							</timecode>
							<media>
								<video>
									<samplecharacteristics>
										<rate>
											<timebase>24</timebase>
											<ntsc>TRUE</ntsc>
										</rate>
										<width>4096</width>
										<height>2160</height>
										<anamorphic>FALSE</anamorphic>
										<pixelaspectratio>square</pixelaspectratio>
										<fielddominance>none</fielddominance>
									</samplecharacteristics>
								</video>
							</media>
						</file>
						<logginginfo>
							<description></description>
							<scene></scene>
							<shottake></shottake>
							<lognote></lognote>
							<good></good>
							<originalvideofilename></originalvideofilename>
							<originalaudiofilename></originalaudiofilename>
						</logginginfo>
						<colorinfo>
							<lut></lut>
							<lut1></lut1>
							<asc_sop></asc_sop>
							<asc_sat></asc_sat>
							<lut2></lut2>
						</colorinfo>
						<labels>
							<label2>Violet</label2>
						</labels>
					</clipitem>
					<clipitem id="clipitem-1363">
						<masterclipid>masterclip-1360</masterclipid>
						<name>TKO_019_GAS_Sh14170.mov</name>
						<enabled>TRUE</enabled>
						<duration>63</duration>
						<rate>
							<timebase>24</timebase>
							<ntsc>TRUE</ntsc>
						</rate>
						<start>99052</start>
						<end>99107</end>
						<in>4</in>
						<out>59</out>
						<pproTicksIn>42378336000</pproTicksIn>
						<pproTicksOut>625080456000</pproTicksOut>
						<alphatype>none</alphatype>
						<pixelaspectratio>square</pixelaspectratio>
						<anamorphic>FALSE</anamorphic>
						<file id="file-1360">
							<name>TKO_019_GAS_Sh14170.mov</name>
							<pathurl>file://tri-stor01/Projects/TKO/SHOTS/_Refs_Movs_Burnin_FrameCounter/TKO_019_GAS_Sh14170.mov</pathurl>
							<rate>
								<timebase>24</timebase>
								<ntsc>TRUE</ntsc>
							</rate>
							<duration>63</duration>
							<timecode>
								<rate>
									<timebase>24</timebase>
									<ntsc>TRUE</ntsc>
								</rate>
								<string>17:41:25:08</string>
								<frame>1528448</frame>
								<displayformat>NDF</displayformat>
								<reel>
									<name>A0210010</name>
								</reel>
							</timecode>
							<media>
								<video>
									<samplecharacteristics>
										<rate>
											<timebase>24</timebase>
											<ntsc>TRUE</ntsc>
										</rate>
										<width>4096</width>
										<height>2160</height>
										<anamorphic>FALSE</anamorphic>
										<pixelaspectratio>square</pixelaspectratio>
										<fielddominance>none</fielddominance>
									</samplecharacteristics>
								</video>
							</media>
						</file>
						<logginginfo>
							<description></description>
							<scene></scene>
							<shottake></shottake>
							<lognote></lognote>
							<good></good>
							<originalvideofilename></originalvideofilename>
							<originalaudiofilename></originalaudiofilename>
						</logginginfo>
						<colorinfo>
							<lut></lut>
							<lut1></lut1>
							<asc_sop></asc_sop>
							<asc_sat></asc_sat>
							<lut2></lut2>
						</colorinfo>
						<labels>
							<label2>Violet</label2>
						</labels>
					</clipitem>
					<clipitem id="clipitem-1364">
						<masterclipid>masterclip-1361</masterclipid>
						<name>TKO_019_GAS_Sh14180.mov</name>
						<enabled>TRUE</enabled>
						<duration>180</duration>
						<rate>
							<timebase>24</timebase>
							<ntsc>TRUE</ntsc>
						</rate>
						<start>99107</start>
						<end>99279</end>
						<in>4</in>
						<out>176</out>
						<pproTicksIn>42378336000</pproTicksIn>
						<pproTicksOut>1864646784000</pproTicksOut>
						<alphatype>none</alphatype>
						<pixelaspectratio>square</pixelaspectratio>
						<anamorphic>FALSE</anamorphic>
						<file id="file-1361">
							<name>TKO_019_GAS_Sh14180.mov</name>
							<pathurl>file://tri-stor01/Projects/TKO/SHOTS/_Refs_Movs_Burnin_FrameCounter/TKO_019_GAS_Sh14180.mov</pathurl>
							<rate>
								<timebase>24</timebase>
								<ntsc>TRUE</ntsc>
							</rate>
							<duration>180</duration>
							<timecode>
								<rate>
									<timebase>24</timebase>
									<ntsc>TRUE</ntsc>
								</rate>
								<string>17:41:27:15</string>
								<frame>1528503</frame>
								<displayformat>NDF</displayformat>
								<reel>
									<name>B0180010</name>
								</reel>
							</timecode>
							<media>
								<video>
									<samplecharacteristics>
										<rate>
											<timebase>24</timebase>
											<ntsc>TRUE</ntsc>
										</rate>
										<width>4096</width>
										<height>2160</height>
										<anamorphic>FALSE</anamorphic>
										<pixelaspectratio>square</pixelaspectratio>
										<fielddominance>none</fielddominance>
									</samplecharacteristics>
								</video>
							</media>
						</file>
						<logginginfo>
							<description></description>
							<scene></scene>
							<shottake></shottake>
							<lognote></lognote>
							<good></good>
							<originalvideofilename></originalvideofilename>
							<originalaudiofilename></originalaudiofilename>
						</logginginfo>
						<colorinfo>
							<lut></lut>
							<lut1></lut1>
							<asc_sop></asc_sop>
							<asc_sat></asc_sat>
							<lut2></lut2>
						</colorinfo>
						<labels>
							<label2>Violet</label2>
						</labels>
					</clipitem>
					<clipitem id="clipitem-1365">
						<masterclipid>masterclip-1362</masterclipid>
						<name>TKO_019_GAS_Sh14190.mov</name>
						<enabled>TRUE</enabled>
						<duration>123</duration>
						<rate>
							<timebase>24</timebase>
							<ntsc>TRUE</ntsc>
						</rate>
						<start>99279</start>
						<end>99394</end>
						<in>4</in>
						<out>119</out>
						<pproTicksIn>42378336000</pproTicksIn>
						<pproTicksOut>1260755496000</pproTicksOut>
						<alphatype>none</alphatype>
						<pixelaspectratio>square</pixelaspectratio>
						<anamorphic>FALSE</anamorphic>
						<file id="file-1362">
							<name>TKO_019_GAS_Sh14190.mov</name>
							<pathurl>file://tri-stor01/Projects/TKO/SHOTS/_Refs_Movs_Burnin_FrameCounter/TKO_019_GAS_Sh14190.mov</pathurl>
							<rate>
								<timebase>24</timebase>
								<ntsc>TRUE</ntsc>
							</rate>
							<duration>123</duration>
							<timecode>
								<rate>
									<timebase>24</timebase>
									<ntsc>TRUE</ntsc>
								</rate>
								<string>17:41:34:19</string>
								<frame>1528675</frame>
								<displayformat>NDF</displayformat>
								<reel>
									<name>A0210010</name>
								</reel>
							</timecode>
							<media>
								<video>
									<samplecharacteristics>
										<rate>
											<timebase>24</timebase>
											<ntsc>TRUE</ntsc>
										</rate>
										<width>4096</width>
										<height>2160</height>
										<anamorphic>FALSE</anamorphic>
										<pixelaspectratio>square</pixelaspectratio>
										<fielddominance>none</fielddominance>
									</samplecharacteristics>
								</video>
							</media>
						</file>
						<logginginfo>
							<description></description>
							<scene></scene>
							<shottake></shottake>
							<lognote></lognote>
							<good></good>
							<originalvideofilename></originalvideofilename>
							<originalaudiofilename></originalaudiofilename>
						</logginginfo>
						<colorinfo>
							<lut></lut>
							<lut1></lut1>
							<asc_sop></asc_sop>
							<asc_sat></asc_sat>
							<lut2></lut2>
						</colorinfo>
						<labels>
							<label2>Violet</label2>
						</labels>
					</clipitem>
					<clipitem id="clipitem-1366">
						<masterclipid>masterclip-1363</masterclipid>
						<name>TKO_019_GAS_Sh14200.mov</name>
						<enabled>TRUE</enabled>
						<duration>58</duration>
						<rate>
							<timebase>24</timebase>
							<ntsc>TRUE</ntsc>
						</rate>
						<start>99394</start>
						<end>99444</end>
						<in>4</in>
						<out>54</out>
						<pproTicksIn>42378336000</pproTicksIn>
						<pproTicksOut>572107536000</pproTicksOut>
						<alphatype>none</alphatype>
						<pixelaspectratio>square</pixelaspectratio>
						<anamorphic>FALSE</anamorphic>
						<file id="file-1363">
							<name>TKO_019_GAS_Sh14200.mov</name>
							<pathurl>file://tri-stor01/Projects/TKO/SHOTS/_Refs_Movs_Burnin_FrameCounter/TKO_019_GAS_Sh14200.mov</pathurl>
							<rate>
								<timebase>24</timebase>
								<ntsc>TRUE</ntsc>
							</rate>
							<duration>58</duration>
							<timecode>
								<rate>
									<timebase>24</timebase>
									<ntsc>TRUE</ntsc>
								</rate>
								<string>17:41:39:14</string>
								<frame>1528790</frame>
								<displayformat>NDF</displayformat>
								<reel>
									<name>B0180010</name>
								</reel>
							</timecode>
							<media>
								<video>
									<samplecharacteristics>
										<rate>
											<timebase>24</timebase>
											<ntsc>TRUE</ntsc>
										</rate>
										<width>4096</width>
										<height>2160</height>
										<anamorphic>FALSE</anamorphic>
										<pixelaspectratio>square</pixelaspectratio>
										<fielddominance>none</fielddominance>
									</samplecharacteristics>
								</video>
							</media>
						</file>
						<logginginfo>
							<description></description>
							<scene></scene>
							<shottake></shottake>
							<lognote></lognote>
							<good></good>
							<originalvideofilename></originalvideofilename>
							<originalaudiofilename></originalaudiofilename>
						</logginginfo>
						<colorinfo>
							<lut></lut>
							<lut1></lut1>
							<asc_sop></asc_sop>
							<asc_sat></asc_sat>
							<lut2></lut2>
						</colorinfo>
						<labels>
							<label2>Violet</label2>
						</labels>
					</clipitem>
					<clipitem id="clipitem-1367">
						<masterclipid>masterclip-1364</masterclipid>
						<name>TKO_019_GAS_Sh14210.mov</name>
						<enabled>TRUE</enabled>
						<duration>106</duration>
						<rate>
							<timebase>24</timebase>
							<ntsc>TRUE</ntsc>
						</rate>
						<start>99444</start>
						<end>99542</end>
						<in>4</in>
						<out>102</out>
						<pproTicksIn>42378336000</pproTicksIn>
						<pproTicksOut>1080647568000</pproTicksOut>
						<alphatype>none</alphatype>
						<pixelaspectratio>square</pixelaspectratio>
						<anamorphic>FALSE</anamorphic>
						<file id="file-1364">
							<name>TKO_019_GAS_Sh14210.mov</name>
							<pathurl>file://tri-stor01/Projects/TKO/SHOTS/_Refs_Movs_Burnin_FrameCounter/TKO_019_GAS_Sh14210.mov</pathurl>
							<rate>
								<timebase>24</timebase>
								<ntsc>TRUE</ntsc>
							</rate>
							<duration>106</duration>
							<timecode>
								<rate>
									<timebase>24</timebase>
									<ntsc>TRUE</ntsc>
								</rate>
								<string>17:41:41:16</string>
								<frame>1528840</frame>
								<displayformat>NDF</displayformat>
								<reel>
									<name>A0210010</name>
								</reel>
							</timecode>
							<media>
								<video>
									<samplecharacteristics>
										<rate>
											<timebase>24</timebase>
											<ntsc>TRUE</ntsc>
										</rate>
										<width>4096</width>
										<height>2160</height>
										<anamorphic>FALSE</anamorphic>
										<pixelaspectratio>square</pixelaspectratio>
										<fielddominance>none</fielddominance>
									</samplecharacteristics>
								</video>
							</media>
						</file>
						<logginginfo>
							<description></description>
							<scene></scene>
							<shottake></shottake>
							<lognote></lognote>
							<good></good>
							<originalvideofilename></originalvideofilename>
							<originalaudiofilename></originalaudiofilename>
						</logginginfo>
						<colorinfo>
							<lut></lut>
							<lut1></lut1>
							<asc_sop></asc_sop>
							<asc_sat></asc_sat>
							<lut2></lut2>
						</colorinfo>
						<labels>
							<label2>Violet</label2>
						</labels>
					</clipitem>
					<clipitem id="clipitem-1368">
						<masterclipid>masterclip-1365</masterclipid>
						<name>TKO_019_GAS_Sh14220.mov</name>
						<enabled>TRUE</enabled>
						<duration>84</duration>
						<rate>
							<timebase>24</timebase>
							<ntsc>TRUE</ntsc>
						</rate>
						<start>99542</start>
						<end>99618</end>
						<in>4</in>
						<out>80</out>
						<pproTicksIn>42378336000</pproTicksIn>
						<pproTicksOut>847566720000</pproTicksOut>
						<alphatype>none</alphatype>
						<pixelaspectratio>square</pixelaspectratio>
						<anamorphic>FALSE</anamorphic>
						<file id="file-1365">
							<name>TKO_019_GAS_Sh14220.mov</name>
							<pathurl>file://tri-stor01/Projects/TKO/SHOTS/_Refs_Movs_Burnin_FrameCounter/TKO_019_GAS_Sh14220.mov</pathurl>
							<rate>
								<timebase>24</timebase>
								<ntsc>TRUE</ntsc>
							</rate>
							<duration>84</duration>
							<timecode>
								<rate>
									<timebase>24</timebase>
									<ntsc>TRUE</ntsc>
								</rate>
								<string>17:41:45:18</string>
								<frame>1528938</frame>
								<displayformat>NDF</displayformat>
								<reel>
									<name>B0180010</name>
								</reel>
							</timecode>
							<media>
								<video>
									<samplecharacteristics>
										<rate>
											<timebase>24</timebase>
											<ntsc>TRUE</ntsc>
										</rate>
										<width>4096</width>
										<height>2160</height>
										<anamorphic>FALSE</anamorphic>
										<pixelaspectratio>square</pixelaspectratio>
										<fielddominance>none</fielddominance>
									</samplecharacteristics>
								</video>
							</media>
						</file>
						<logginginfo>
							<description></description>
							<scene></scene>
							<shottake></shottake>
							<lognote></lognote>
							<good></good>
							<originalvideofilename></originalvideofilename>
							<originalaudiofilename></originalaudiofilename>
						</logginginfo>
						<colorinfo>
							<lut></lut>
							<lut1></lut1>
							<asc_sop></asc_sop>
							<asc_sat></asc_sat>
							<lut2></lut2>
						</colorinfo>
						<labels>
							<label2>Violet</label2>
						</labels>
					</clipitem>
					<clipitem id="clipitem-1369">
						<masterclipid>masterclip-1366</masterclipid>
						<name>TKO_019_GAS_Sh14230.mov</name>
						<enabled>TRUE</enabled>
						<duration>128</duration>
						<rate>
							<timebase>24</timebase>
							<ntsc>TRUE</ntsc>
						</rate>
						<start>99618</start>
						<end>99738</end>
						<in>4</in>
						<out>124</out>
						<pproTicksIn>42378336000</pproTicksIn>
						<pproTicksOut>1313728416000</pproTicksOut>
						<alphatype>none</alphatype>
						<pixelaspectratio>square</pixelaspectratio>
						<anamorphic>FALSE</anamorphic>
						<file id="file-1366">
							<name>TKO_019_GAS_Sh14230.mov</name>
							<pathurl>file://tri-stor01/Projects/TKO/SHOTS/_Refs_Movs_Burnin_FrameCounter/TKO_019_GAS_Sh14230.mov</pathurl>
							<rate>
								<timebase>24</timebase>
								<ntsc>TRUE</ntsc>
							</rate>
							<duration>128</duration>
							<timecode>
								<rate>
									<timebase>24</timebase>
									<ntsc>TRUE</ntsc>
								</rate>
								<string>12:29:17:05</string>
								<frame>1078973</frame>
								<displayformat>NDF</displayformat>
								<reel>
									<name>A0480007</name>
								</reel>
							</timecode>
							<media>
								<video>
									<samplecharacteristics>
										<rate>
											<timebase>24</timebase>
											<ntsc>TRUE</ntsc>
										</rate>
										<width>4096</width>
										<height>2160</height>
										<anamorphic>FALSE</anamorphic>
										<pixelaspectratio>square</pixelaspectratio>
										<fielddominance>none</fielddominance>
									</samplecharacteristics>
								</video>
							</media>
						</file>
						<logginginfo>
							<description></description>
							<scene></scene>
							<shottake></shottake>
							<lognote></lognote>
							<good></good>
							<originalvideofilename></originalvideofilename>
							<originalaudiofilename></originalaudiofilename>
						</logginginfo>
						<colorinfo>
							<lut></lut>
							<lut1></lut1>
							<asc_sop></asc_sop>
							<asc_sat></asc_sat>
							<lut2></lut2>
						</colorinfo>
						<labels>
							<label2>Violet</label2>
						</labels>
					</clipitem>
					<clipitem id="clipitem-1370">
						<masterclipid>masterclip-1367</masterclipid>
						<name>TKO_019_GAS_Sh14240.mov</name>
						<enabled>TRUE</enabled>
						<duration>83</duration>
						<rate>
							<timebase>24</timebase>
							<ntsc>TRUE</ntsc>
						</rate>
						<start>99738</start>
						<end>99813</end>
						<in>4</in>
						<out>79</out>
						<pproTicksIn>42378336000</pproTicksIn>
						<pproTicksOut>836972136000</pproTicksOut>
						<alphatype>none</alphatype>
						<pixelaspectratio>square</pixelaspectratio>
						<anamorphic>FALSE</anamorphic>
						<file id="file-1367">
							<name>TKO_019_GAS_Sh14240.mov</name>
							<pathurl>file://tri-stor01/Projects/TKO/SHOTS/_Refs_Movs_Burnin_FrameCounter/TKO_019_GAS_Sh14240.mov</pathurl>
							<rate>
								<timebase>24</timebase>
								<ntsc>TRUE</ntsc>
							</rate>
							<duration>83</duration>
							<timecode>
								<rate>
									<timebase>24</timebase>
									<ntsc>TRUE</ntsc>
								</rate>
								<string>12:29:22:05</string>
								<frame>1079093</frame>
								<displayformat>NDF</displayformat>
								<reel>
									<name>B0410007</name>
								</reel>
							</timecode>
							<media>
								<video>
									<samplecharacteristics>
										<rate>
											<timebase>24</timebase>
											<ntsc>TRUE</ntsc>
										</rate>
										<width>4096</width>
										<height>2160</height>
										<anamorphic>FALSE</anamorphic>
										<pixelaspectratio>square</pixelaspectratio>
										<fielddominance>none</fielddominance>
									</samplecharacteristics>
								</video>
							</media>
						</file>
						<logginginfo>
							<description></description>
							<scene></scene>
							<shottake></shottake>
							<lognote></lognote>
							<good></good>
							<originalvideofilename></originalvideofilename>
							<originalaudiofilename></originalaudiofilename>
						</logginginfo>
						<colorinfo>
							<lut></lut>
							<lut1></lut1>
							<asc_sop></asc_sop>
							<asc_sat></asc_sat>
							<lut2></lut2>
						</colorinfo>
						<labels>
							<label2>Violet</label2>
						</labels>
					</clipitem>
					<clipitem id="clipitem-1371">
						<masterclipid>masterclip-1368</masterclipid>
						<name>TKO_019_GAS_Sh14250.mov</name>
						<enabled>TRUE</enabled>
						<duration>54</duration>
						<rate>
							<timebase>24</timebase>
							<ntsc>TRUE</ntsc>
						</rate>
						<start>99813</start>
						<end>99859</end>
						<in>4</in>
						<out>50</out>
						<pproTicksIn>42378336000</pproTicksIn>
						<pproTicksOut>529729200000</pproTicksOut>
						<alphatype>none</alphatype>
						<pixelaspectratio>square</pixelaspectratio>
						<anamorphic>FALSE</anamorphic>
						<file id="file-1368">
							<name>TKO_019_GAS_Sh14250.mov</name>
							<pathurl>file://tri-stor01/Projects/TKO/SHOTS/_Refs_Movs_Burnin_FrameCounter/TKO_019_GAS_Sh14250.mov</pathurl>
							<rate>
								<timebase>24</timebase>
								<ntsc>TRUE</ntsc>
							</rate>
							<duration>54</duration>
							<timecode>
								<rate>
									<timebase>24</timebase>
									<ntsc>TRUE</ntsc>
								</rate>
								<string>13:17:00:03</string>
								<frame>1147683</frame>
								<displayformat>NDF</displayformat>
								<reel>
									<name>A0480012</name>
								</reel>
							</timecode>
							<media>
								<video>
									<samplecharacteristics>
										<rate>
											<timebase>24</timebase>
											<ntsc>TRUE</ntsc>
										</rate>
										<width>4096</width>
										<height>2160</height>
										<anamorphic>FALSE</anamorphic>
										<pixelaspectratio>square</pixelaspectratio>
										<fielddominance>none</fielddominance>
									</samplecharacteristics>
								</video>
							</media>
						</file>
						<logginginfo>
							<description></description>
							<scene></scene>
							<shottake></shottake>
							<lognote></lognote>
							<good></good>
							<originalvideofilename></originalvideofilename>
							<originalaudiofilename></originalaudiofilename>
						</logginginfo>
						<colorinfo>
							<lut></lut>
							<lut1></lut1>
							<asc_sop></asc_sop>
							<asc_sat></asc_sat>
							<lut2></lut2>
						</colorinfo>
						<labels>
							<label2>Violet</label2>
						</labels>
					</clipitem>
					<clipitem id="clipitem-1372">
						<masterclipid>masterclip-1369</masterclipid>
						<name>TKO_019_GAS_Sh14260.mov</name>
						<enabled>TRUE</enabled>
						<duration>75</duration>
						<rate>
							<timebase>24</timebase>
							<ntsc>TRUE</ntsc>
						</rate>
						<start>99859</start>
						<end>99926</end>
						<in>4</in>
						<out>71</out>
						<pproTicksIn>42378336000</pproTicksIn>
						<pproTicksOut>752215464000</pproTicksOut>
						<alphatype>none</alphatype>
						<pixelaspectratio>square</pixelaspectratio>
						<anamorphic>FALSE</anamorphic>
						<file id="file-1369">
							<name>TKO_019_GAS_Sh14260.mov</name>
							<pathurl>file://tri-stor01/Projects/TKO/SHOTS/_Refs_Movs_Burnin_FrameCounter/TKO_019_GAS_Sh14260.mov</pathurl>
							<rate>
								<timebase>24</timebase>
								<ntsc>TRUE</ntsc>
							</rate>
							<duration>75</duration>
							<timecode>
								<rate>
									<timebase>24</timebase>
									<ntsc>TRUE</ntsc>
								</rate>
								<string>12:29:26:16</string>
								<frame>1079200</frame>
								<displayformat>NDF</displayformat>
								<reel>
									<name>B0410007</name>
								</reel>
							</timecode>
							<media>
								<video>
									<samplecharacteristics>
										<rate>
											<timebase>24</timebase>
											<ntsc>TRUE</ntsc>
										</rate>
										<width>4096</width>
										<height>2160</height>
										<anamorphic>FALSE</anamorphic>
										<pixelaspectratio>square</pixelaspectratio>
										<fielddominance>none</fielddominance>
									</samplecharacteristics>
								</video>
							</media>
						</file>
						<logginginfo>
							<description></description>
							<scene></scene>
							<shottake></shottake>
							<lognote></lognote>
							<good></good>
							<originalvideofilename></originalvideofilename>
							<originalaudiofilename></originalaudiofilename>
						</logginginfo>
						<colorinfo>
							<lut></lut>
							<lut1></lut1>
							<asc_sop></asc_sop>
							<asc_sat></asc_sat>
							<lut2></lut2>
						</colorinfo>
						<labels>
							<label2>Violet</label2>
						</labels>
					</clipitem>
					<clipitem id="clipitem-1373">
						<masterclipid>masterclip-1370</masterclipid>
						<name>TKO_019_GAS_Sh14270.mov</name>
						<enabled>TRUE</enabled>
						<duration>123</duration>
						<rate>
							<timebase>24</timebase>
							<ntsc>TRUE</ntsc>
						</rate>
						<start>99926</start>
						<end>100041</end>
						<in>4</in>
						<out>119</out>
						<pproTicksIn>42378336000</pproTicksIn>
						<pproTicksOut>1260755496000</pproTicksOut>
						<alphatype>none</alphatype>
						<pixelaspectratio>square</pixelaspectratio>
						<anamorphic>FALSE</anamorphic>
						<file id="file-1370">
							<name>TKO_019_GAS_Sh14270.mov</name>
							<pathurl>file://tri-stor01/Projects/TKO/SHOTS/_Refs_Movs_Burnin_FrameCounter/TKO_019_GAS_Sh14270.mov</pathurl>
							<rate>
								<timebase>24</timebase>
								<ntsc>TRUE</ntsc>
							</rate>
							<duration>123</duration>
							<timecode>
								<rate>
									<timebase>24</timebase>
									<ntsc>TRUE</ntsc>
								</rate>
								<string>13:17:03:02</string>
								<frame>1147754</frame>
								<displayformat>NDF</displayformat>
								<reel>
									<name>B0410012</name>
								</reel>
							</timecode>
							<media>
								<video>
									<samplecharacteristics>
										<rate>
											<timebase>24</timebase>
											<ntsc>TRUE</ntsc>
										</rate>
										<width>4096</width>
										<height>2160</height>
										<anamorphic>FALSE</anamorphic>
										<pixelaspectratio>square</pixelaspectratio>
										<fielddominance>none</fielddominance>
									</samplecharacteristics>
								</video>
							</media>
						</file>
						<logginginfo>
							<description></description>
							<scene></scene>
							<shottake></shottake>
							<lognote></lognote>
							<good></good>
							<originalvideofilename></originalvideofilename>
							<originalaudiofilename></originalaudiofilename>
						</logginginfo>
						<colorinfo>
							<lut></lut>
							<lut1></lut1>
							<asc_sop></asc_sop>
							<asc_sat></asc_sat>
							<lut2></lut2>
						</colorinfo>
						<labels>
							<label2>Violet</label2>
						</labels>
					</clipitem>
					<clipitem id="clipitem-1374">
						<masterclipid>masterclip-1371</masterclipid>
						<name>TKO_019_GAS_Sh14280.mov</name>
						<enabled>TRUE</enabled>
						<duration>38</duration>
						<rate>
							<timebase>24</timebase>
							<ntsc>TRUE</ntsc>
						</rate>
						<start>100041</start>
						<end>100071</end>
						<in>4</in>
						<out>34</out>
						<pproTicksIn>42378336000</pproTicksIn>
						<pproTicksOut>360215856000</pproTicksOut>
						<alphatype>none</alphatype>
						<pixelaspectratio>square</pixelaspectratio>
						<anamorphic>FALSE</anamorphic>
						<file id="file-1371">
							<name>TKO_019_GAS_Sh14280.mov</name>
							<pathurl>file://tri-stor01/Projects/TKO/SHOTS/_Refs_Movs_Burnin_FrameCounter/TKO_019_GAS_Sh14280.mov</pathurl>
							<rate>
								<timebase>24</timebase>
								<ntsc>TRUE</ntsc>
							</rate>
							<duration>38</duration>
							<timecode>
								<rate>
									<timebase>24</timebase>
									<ntsc>TRUE</ntsc>
								</rate>
								<string>12:29:31:16</string>
								<frame>1079320</frame>
								<displayformat>NDF</displayformat>
								<reel>
									<name>B0410007</name>
								</reel>
							</timecode>
							<media>
								<video>
									<samplecharacteristics>
										<rate>
											<timebase>24</timebase>
											<ntsc>TRUE</ntsc>
										</rate>
										<width>4096</width>
										<height>2160</height>
										<anamorphic>FALSE</anamorphic>
										<pixelaspectratio>square</pixelaspectratio>
										<fielddominance>none</fielddominance>
									</samplecharacteristics>
								</video>
							</media>
						</file>
						<logginginfo>
							<description></description>
							<scene></scene>
							<shottake></shottake>
							<lognote></lognote>
							<good></good>
							<originalvideofilename></originalvideofilename>
							<originalaudiofilename></originalaudiofilename>
						</logginginfo>
						<colorinfo>
							<lut></lut>
							<lut1></lut1>
							<asc_sop></asc_sop>
							<asc_sat></asc_sat>
							<lut2></lut2>
						</colorinfo>
						<labels>
							<label2>Violet</label2>
						</labels>
					</clipitem>
					<clipitem id="clipitem-1375">
						<masterclipid>masterclip-1372</masterclipid>
						<name>TKO_019_GAS_Sh14290.mov</name>
						<enabled>TRUE</enabled>
						<duration>64</duration>
						<rate>
							<timebase>24</timebase>
							<ntsc>TRUE</ntsc>
						</rate>
						<start>100071</start>
						<end>100127</end>
						<in>4</in>
						<out>60</out>
						<pproTicksIn>42378336000</pproTicksIn>
						<pproTicksOut>635675040000</pproTicksOut>
						<alphatype>none</alphatype>
						<pixelaspectratio>square</pixelaspectratio>
						<anamorphic>FALSE</anamorphic>
						<file id="file-1372">
							<name>TKO_019_GAS_Sh14290.mov</name>
							<pathurl>file://tri-stor01/Projects/TKO/SHOTS/_Refs_Movs_Burnin_FrameCounter/TKO_019_GAS_Sh14290.mov</pathurl>
							<rate>
								<timebase>24</timebase>
								<ntsc>TRUE</ntsc>
							</rate>
							<duration>64</duration>
							<timecode>
								<rate>
									<timebase>24</timebase>
									<ntsc>TRUE</ntsc>
								</rate>
								<string>12:29:32:22</string>
								<frame>1079350</frame>
								<displayformat>NDF</displayformat>
								<reel>
									<name>A0480007</name>
								</reel>
							</timecode>
							<media>
								<video>
									<samplecharacteristics>
										<rate>
											<timebase>24</timebase>
											<ntsc>TRUE</ntsc>
										</rate>
										<width>4096</width>
										<height>2160</height>
										<anamorphic>FALSE</anamorphic>
										<pixelaspectratio>square</pixelaspectratio>
										<fielddominance>none</fielddominance>
									</samplecharacteristics>
								</video>
							</media>
						</file>
						<logginginfo>
							<description></description>
							<scene></scene>
							<shottake></shottake>
							<lognote></lognote>
							<good></good>
							<originalvideofilename></originalvideofilename>
							<originalaudiofilename></originalaudiofilename>
						</logginginfo>
						<colorinfo>
							<lut></lut>
							<lut1></lut1>
							<asc_sop></asc_sop>
							<asc_sat></asc_sat>
							<lut2></lut2>
						</colorinfo>
						<labels>
							<label2>Violet</label2>
						</labels>
					</clipitem>
					<clipitem id="clipitem-1376">
						<masterclipid>masterclip-1373</masterclipid>
						<name>TKO_019_GAS_Sh14300.mov</name>
						<enabled>TRUE</enabled>
						<duration>78</duration>
						<rate>
							<timebase>24</timebase>
							<ntsc>TRUE</ntsc>
						</rate>
						<start>100127</start>
						<end>100197</end>
						<in>4</in>
						<out>74</out>
						<pproTicksIn>42378336000</pproTicksIn>
						<pproTicksOut>783999216000</pproTicksOut>
						<alphatype>none</alphatype>
						<pixelaspectratio>square</pixelaspectratio>
						<anamorphic>FALSE</anamorphic>
						<file id="file-1373">
							<name>TKO_019_GAS_Sh14300.mov</name>
							<pathurl>file://tri-stor01/Projects/TKO/SHOTS/_Refs_Movs_Burnin_FrameCounter/TKO_019_GAS_Sh14300.mov</pathurl>
							<rate>
								<timebase>24</timebase>
								<ntsc>TRUE</ntsc>
							</rate>
							<duration>78</duration>
							<timecode>
								<rate>
									<timebase>24</timebase>
									<ntsc>TRUE</ntsc>
								</rate>
								<string>12:29:35:06</string>
								<frame>1079406</frame>
								<displayformat>NDF</displayformat>
								<reel>
									<name>B0410007</name>
								</reel>
							</timecode>
							<media>
								<video>
									<samplecharacteristics>
										<rate>
											<timebase>24</timebase>
											<ntsc>TRUE</ntsc>
										</rate>
										<width>4096</width>
										<height>2160</height>
										<anamorphic>FALSE</anamorphic>
										<pixelaspectratio>square</pixelaspectratio>
										<fielddominance>none</fielddominance>
									</samplecharacteristics>
								</video>
							</media>
						</file>
						<logginginfo>
							<description></description>
							<scene></scene>
							<shottake></shottake>
							<lognote></lognote>
							<good></good>
							<originalvideofilename></originalvideofilename>
							<originalaudiofilename></originalaudiofilename>
						</logginginfo>
						<colorinfo>
							<lut></lut>
							<lut1></lut1>
							<asc_sop></asc_sop>
							<asc_sat></asc_sat>
							<lut2></lut2>
						</colorinfo>
						<labels>
							<label2>Violet</label2>
						</labels>
					</clipitem>
					<clipitem id="clipitem-1377">
						<masterclipid>masterclip-1374</masterclipid>
						<name>TKO_019_GAS_Sh14310.mov</name>
						<enabled>TRUE</enabled>
						<duration>101</duration>
						<rate>
							<timebase>24</timebase>
							<ntsc>TRUE</ntsc>
						</rate>
						<start>100197</start>
						<end>100290</end>
						<in>4</in>
						<out>97</out>
						<pproTicksIn>42378336000</pproTicksIn>
						<pproTicksOut>1027674648000</pproTicksOut>
						<alphatype>none</alphatype>
						<pixelaspectratio>square</pixelaspectratio>
						<anamorphic>FALSE</anamorphic>
						<file id="file-1374">
							<name>TKO_019_GAS_Sh14310.mov</name>
							<pathurl>file://tri-stor01/Projects/TKO/SHOTS/_Refs_Movs_Burnin_FrameCounter/TKO_019_GAS_Sh14310.mov</pathurl>
							<rate>
								<timebase>24</timebase>
								<ntsc>TRUE</ntsc>
							</rate>
							<duration>101</duration>
							<timecode>
								<rate>
									<timebase>24</timebase>
									<ntsc>TRUE</ntsc>
								</rate>
								<string>13:17:11:14</string>
								<frame>1147958</frame>
								<displayformat>NDF</displayformat>
								<reel>
									<name>A0480012</name>
								</reel>
							</timecode>
							<media>
								<video>
									<samplecharacteristics>
										<rate>
											<timebase>24</timebase>
											<ntsc>TRUE</ntsc>
										</rate>
										<width>4096</width>
										<height>2160</height>
										<anamorphic>FALSE</anamorphic>
										<pixelaspectratio>square</pixelaspectratio>
										<fielddominance>none</fielddominance>
									</samplecharacteristics>
								</video>
							</media>
						</file>
						<logginginfo>
							<description></description>
							<scene></scene>
							<shottake></shottake>
							<lognote></lognote>
							<good></good>
							<originalvideofilename></originalvideofilename>
							<originalaudiofilename></originalaudiofilename>
						</logginginfo>
						<colorinfo>
							<lut></lut>
							<lut1></lut1>
							<asc_sop></asc_sop>
							<asc_sat></asc_sat>
							<lut2></lut2>
						</colorinfo>
						<labels>
							<label2>Violet</label2>
						</labels>
					</clipitem>
					<clipitem id="clipitem-1378">
						<masterclipid>masterclip-1375</masterclipid>
						<name>TKO_019_GAS_Sh14320.mov</name>
						<enabled>TRUE</enabled>
						<duration>88</duration>
						<rate>
							<timebase>24</timebase>
							<ntsc>TRUE</ntsc>
						</rate>
						<start>100290</start>
						<end>100370</end>
						<in>4</in>
						<out>84</out>
						<pproTicksIn>42378336000</pproTicksIn>
						<pproTicksOut>889945056000</pproTicksOut>
						<alphatype>none</alphatype>
						<pixelaspectratio>square</pixelaspectratio>
						<anamorphic>FALSE</anamorphic>
						<file id="file-1375">
							<name>TKO_019_GAS_Sh14320.mov</name>
							<pathurl>file://tri-stor01/Projects/TKO/SHOTS/_Refs_Movs_Burnin_FrameCounter/TKO_019_GAS_Sh14320.mov</pathurl>
							<rate>
								<timebase>24</timebase>
								<ntsc>TRUE</ntsc>
							</rate>
							<duration>88</duration>
							<timecode>
								<rate>
									<timebase>24</timebase>
									<ntsc>TRUE</ntsc>
								</rate>
								<string>12:20:58:11</string>
								<frame>1067003</frame>
								<displayformat>NDF</displayformat>
								<reel>
									<name>B0410005</name>
								</reel>
							</timecode>
							<media>
								<video>
									<samplecharacteristics>
										<rate>
											<timebase>24</timebase>
											<ntsc>TRUE</ntsc>
										</rate>
										<width>4096</width>
										<height>2160</height>
										<anamorphic>FALSE</anamorphic>
										<pixelaspectratio>square</pixelaspectratio>
										<fielddominance>none</fielddominance>
									</samplecharacteristics>
								</video>
							</media>
						</file>
						<logginginfo>
							<description></description>
							<scene></scene>
							<shottake></shottake>
							<lognote></lognote>
							<good></good>
							<originalvideofilename></originalvideofilename>
							<originalaudiofilename></originalaudiofilename>
						</logginginfo>
						<colorinfo>
							<lut></lut>
							<lut1></lut1>
							<asc_sop></asc_sop>
							<asc_sat></asc_sat>
							<lut2></lut2>
						</colorinfo>
						<labels>
							<label2>Violet</label2>
						</labels>
					</clipitem>
					<clipitem id="clipitem-1379">
						<masterclipid>masterclip-1376</masterclipid>
						<name>TKO_019_GAS_Sh14330.mov</name>
						<enabled>TRUE</enabled>
						<duration>86</duration>
						<rate>
							<timebase>24</timebase>
							<ntsc>TRUE</ntsc>
						</rate>
						<start>100370</start>
						<end>100448</end>
						<in>4</in>
						<out>82</out>
						<pproTicksIn>42378336000</pproTicksIn>
						<pproTicksOut>868755888000</pproTicksOut>
						<alphatype>none</alphatype>
						<pixelaspectratio>square</pixelaspectratio>
						<anamorphic>FALSE</anamorphic>
						<file id="file-1376">
							<name>TKO_019_GAS_Sh14330.mov</name>
							<pathurl>file://tri-stor01/Projects/TKO/SHOTS/_Refs_Movs_Burnin_FrameCounter/TKO_019_GAS_Sh14330.mov</pathurl>
							<rate>
								<timebase>24</timebase>
								<ntsc>TRUE</ntsc>
							</rate>
							<duration>86</duration>
							<timecode>
								<rate>
									<timebase>24</timebase>
									<ntsc>TRUE</ntsc>
								</rate>
								<string>13:17:18:18</string>
								<frame>1148130</frame>
								<displayformat>NDF</displayformat>
								<reel>
									<name>A0480012</name>
								</reel>
							</timecode>
							<media>
								<video>
									<samplecharacteristics>
										<rate>
											<timebase>24</timebase>
											<ntsc>TRUE</ntsc>
										</rate>
										<width>4096</width>
										<height>2160</height>
										<anamorphic>FALSE</anamorphic>
										<pixelaspectratio>square</pixelaspectratio>
										<fielddominance>none</fielddominance>
									</samplecharacteristics>
								</video>
							</media>
						</file>
						<logginginfo>
							<description></description>
							<scene></scene>
							<shottake></shottake>
							<lognote></lognote>
							<good></good>
							<originalvideofilename></originalvideofilename>
							<originalaudiofilename></originalaudiofilename>
						</logginginfo>
						<colorinfo>
							<lut></lut>
							<lut1></lut1>
							<asc_sop></asc_sop>
							<asc_sat></asc_sat>
							<lut2></lut2>
						</colorinfo>
						<labels>
							<label2>Violet</label2>
						</labels>
					</clipitem>
					<clipitem id="clipitem-1380">
						<masterclipid>masterclip-1377</masterclipid>
						<name>TKO_019_GAS_Sh14340.mov</name>
						<enabled>TRUE</enabled>
						<duration>56</duration>
						<rate>
							<timebase>24</timebase>
							<ntsc>TRUE</ntsc>
						</rate>
						<start>100448</start>
						<end>100496</end>
						<in>4</in>
						<out>52</out>
						<pproTicksIn>42378336000</pproTicksIn>
						<pproTicksOut>550918368000</pproTicksOut>
						<alphatype>none</alphatype>
						<pixelaspectratio>square</pixelaspectratio>
						<anamorphic>FALSE</anamorphic>
						<file id="file-1377">
							<name>TKO_019_GAS_Sh14340.mov</name>
							<pathurl>file://tri-stor01/Projects/TKO/SHOTS/_Refs_Movs_Burnin_FrameCounter/TKO_019_GAS_Sh14340.mov</pathurl>
							<rate>
								<timebase>24</timebase>
								<ntsc>TRUE</ntsc>
							</rate>
							<duration>56</duration>
							<timecode>
								<rate>
									<timebase>24</timebase>
									<ntsc>TRUE</ntsc>
								</rate>
								<string>13:17:23:08</string>
								<frame>1148240</frame>
								<displayformat>NDF</displayformat>
								<reel>
									<name>B0410012</name>
								</reel>
							</timecode>
							<media>
								<video>
									<samplecharacteristics>
										<rate>
											<timebase>24</timebase>
											<ntsc>TRUE</ntsc>
										</rate>
										<width>4096</width>
										<height>2160</height>
										<anamorphic>FALSE</anamorphic>
										<pixelaspectratio>square</pixelaspectratio>
										<fielddominance>none</fielddominance>
									</samplecharacteristics>
								</video>
							</media>
						</file>
						<logginginfo>
							<description></description>
							<scene></scene>
							<shottake></shottake>
							<lognote></lognote>
							<good></good>
							<originalvideofilename></originalvideofilename>
							<originalaudiofilename></originalaudiofilename>
						</logginginfo>
						<colorinfo>
							<lut></lut>
							<lut1></lut1>
							<asc_sop></asc_sop>
							<asc_sat></asc_sat>
							<lut2></lut2>
						</colorinfo>
						<labels>
							<label2>Violet</label2>
						</labels>
					</clipitem>
					<clipitem id="clipitem-1381">
						<masterclipid>masterclip-1378</masterclipid>
						<name>TKO_019_GAS_Sh14350.mov</name>
						<enabled>TRUE</enabled>
						<duration>35</duration>
						<rate>
							<timebase>24</timebase>
							<ntsc>TRUE</ntsc>
						</rate>
						<start>100496</start>
						<end>100523</end>
						<in>4</in>
						<out>31</out>
						<pproTicksIn>42378336000</pproTicksIn>
						<pproTicksOut>328432104000</pproTicksOut>
						<alphatype>none</alphatype>
						<pixelaspectratio>square</pixelaspectratio>
						<anamorphic>FALSE</anamorphic>
						<file id="file-1378">
							<name>TKO_019_GAS_Sh14350.mov</name>
							<pathurl>file://tri-stor01/Projects/TKO/SHOTS/_Refs_Movs_Burnin_FrameCounter/TKO_019_GAS_Sh14350.mov</pathurl>
							<rate>
								<timebase>24</timebase>
								<ntsc>TRUE</ntsc>
							</rate>
							<duration>35</duration>
							<timecode>
								<rate>
									<timebase>24</timebase>
									<ntsc>TRUE</ntsc>
								</rate>
								<string>13:29:33:03</string>
								<frame>1165755</frame>
								<displayformat>NDF</displayformat>
								<reel>
									<name>B0410013</name>
								</reel>
							</timecode>
							<media>
								<video>
									<samplecharacteristics>
										<rate>
											<timebase>24</timebase>
											<ntsc>TRUE</ntsc>
										</rate>
										<width>4096</width>
										<height>2160</height>
										<anamorphic>FALSE</anamorphic>
										<pixelaspectratio>square</pixelaspectratio>
										<fielddominance>none</fielddominance>
									</samplecharacteristics>
								</video>
							</media>
						</file>
						<logginginfo>
							<description></description>
							<scene></scene>
							<shottake></shottake>
							<lognote></lognote>
							<good></good>
							<originalvideofilename></originalvideofilename>
							<originalaudiofilename></originalaudiofilename>
						</logginginfo>
						<colorinfo>
							<lut></lut>
							<lut1></lut1>
							<asc_sop></asc_sop>
							<asc_sat></asc_sat>
							<lut2></lut2>
						</colorinfo>
						<labels>
							<label2>Violet</label2>
						</labels>
					</clipitem>
					<clipitem id="clipitem-1382">
						<masterclipid>masterclip-1379</masterclipid>
						<name>TKO_019_GAS_Sh14360.mov</name>
						<enabled>TRUE</enabled>
						<duration>37</duration>
						<rate>
							<timebase>24</timebase>
							<ntsc>TRUE</ntsc>
						</rate>
						<start>100523</start>
						<end>100552</end>
						<in>4</in>
						<out>33</out>
						<pproTicksIn>42378336000</pproTicksIn>
						<pproTicksOut>349621272000</pproTicksOut>
						<alphatype>none</alphatype>
						<pixelaspectratio>square</pixelaspectratio>
						<anamorphic>FALSE</anamorphic>
						<file id="file-1379">
							<name>TKO_019_GAS_Sh14360.mov</name>
							<pathurl>file://tri-stor01/Projects/TKO/SHOTS/_Refs_Movs_Burnin_FrameCounter/TKO_019_GAS_Sh14360.mov</pathurl>
							<rate>
								<timebase>24</timebase>
								<ntsc>TRUE</ntsc>
							</rate>
							<duration>37</duration>
							<timecode>
								<rate>
									<timebase>24</timebase>
									<ntsc>TRUE</ntsc>
								</rate>
								<string>13:29:49:12</string>
								<frame>1166148</frame>
								<displayformat>NDF</displayformat>
								<reel>
									<name>B0410013</name>
								</reel>
							</timecode>
							<media>
								<video>
									<samplecharacteristics>
										<rate>
											<timebase>24</timebase>
											<ntsc>TRUE</ntsc>
										</rate>
										<width>4096</width>
										<height>2160</height>
										<anamorphic>FALSE</anamorphic>
										<pixelaspectratio>square</pixelaspectratio>
										<fielddominance>none</fielddominance>
									</samplecharacteristics>
								</video>
							</media>
						</file>
						<logginginfo>
							<description></description>
							<scene></scene>
							<shottake></shottake>
							<lognote></lognote>
							<good></good>
							<originalvideofilename></originalvideofilename>
							<originalaudiofilename></originalaudiofilename>
						</logginginfo>
						<colorinfo>
							<lut></lut>
							<lut1></lut1>
							<asc_sop></asc_sop>
							<asc_sat></asc_sat>
							<lut2></lut2>
						</colorinfo>
						<labels>
							<label2>Violet</label2>
						</labels>
					</clipitem>
					<clipitem id="clipitem-1383">
						<masterclipid>masterclip-1380</masterclipid>
						<name>TKO_019_GAS_Sh14370.mov</name>
						<enabled>TRUE</enabled>
						<duration>71</duration>
						<rate>
							<timebase>24</timebase>
							<ntsc>TRUE</ntsc>
						</rate>
						<start>100552</start>
						<end>100615</end>
						<in>4</in>
						<out>67</out>
						<pproTicksIn>42378336000</pproTicksIn>
						<pproTicksOut>709837128000</pproTicksOut>
						<alphatype>none</alphatype>
						<pixelaspectratio>square</pixelaspectratio>
						<anamorphic>FALSE</anamorphic>
						<file id="file-1380">
							<name>TKO_019_GAS_Sh14370.mov</name>
							<pathurl>file://tri-stor01/Projects/TKO/SHOTS/_Refs_Movs_Burnin_FrameCounter/TKO_019_GAS_Sh14370.mov</pathurl>
							<rate>
								<timebase>24</timebase>
								<ntsc>TRUE</ntsc>
							</rate>
							<duration>71</duration>
							<timecode>
								<rate>
									<timebase>24</timebase>
									<ntsc>TRUE</ntsc>
								</rate>
								<string>12:29:45:20</string>
								<frame>1079660</frame>
								<displayformat>NDF</displayformat>
								<reel>
									<name>B0410007</name>
								</reel>
							</timecode>
							<media>
								<video>
									<samplecharacteristics>
										<rate>
											<timebase>24</timebase>
											<ntsc>TRUE</ntsc>
										</rate>
										<width>4096</width>
										<height>2160</height>
										<anamorphic>FALSE</anamorphic>
										<pixelaspectratio>square</pixelaspectratio>
										<fielddominance>none</fielddominance>
									</samplecharacteristics>
								</video>
							</media>
						</file>
						<logginginfo>
							<description></description>
							<scene></scene>
							<shottake></shottake>
							<lognote></lognote>
							<good></good>
							<originalvideofilename></originalvideofilename>
							<originalaudiofilename></originalaudiofilename>
						</logginginfo>
						<colorinfo>
							<lut></lut>
							<lut1></lut1>
							<asc_sop></asc_sop>
							<asc_sat></asc_sat>
							<lut2></lut2>
						</colorinfo>
						<labels>
							<label2>Violet</label2>
						</labels>
					</clipitem>
					<clipitem id="clipitem-1384">
						<masterclipid>masterclip-1381</masterclipid>
						<name>TKO_019_GAS_Sh14380.mov</name>
						<enabled>TRUE</enabled>
						<duration>96</duration>
						<rate>
							<timebase>24</timebase>
							<ntsc>TRUE</ntsc>
						</rate>
						<start>100615</start>
						<end>100703</end>
						<in>4</in>
						<out>92</out>
						<pproTicksIn>42378336000</pproTicksIn>
						<pproTicksOut>974701728000</pproTicksOut>
						<alphatype>none</alphatype>
						<pixelaspectratio>square</pixelaspectratio>
						<anamorphic>FALSE</anamorphic>
						<file id="file-1381">
							<name>TKO_019_GAS_Sh14380.mov</name>
							<pathurl>file://tri-stor01/Projects/TKO/SHOTS/_Refs_Movs_Burnin_FrameCounter/TKO_019_GAS_Sh14380.mov</pathurl>
							<rate>
								<timebase>24</timebase>
								<ntsc>TRUE</ntsc>
							</rate>
							<duration>96</duration>
							<timecode>
								<rate>
									<timebase>24</timebase>
									<ntsc>TRUE</ntsc>
								</rate>
								<string>13:17:34:15</string>
								<frame>1148511</frame>
								<displayformat>NDF</displayformat>
								<reel>
									<name>B0410012</name>
								</reel>
							</timecode>
							<media>
								<video>
									<samplecharacteristics>
										<rate>
											<timebase>24</timebase>
											<ntsc>TRUE</ntsc>
										</rate>
										<width>4096</width>
										<height>2160</height>
										<anamorphic>FALSE</anamorphic>
										<pixelaspectratio>square</pixelaspectratio>
										<fielddominance>none</fielddominance>
									</samplecharacteristics>
								</video>
							</media>
						</file>
						<logginginfo>
							<description></description>
							<scene></scene>
							<shottake></shottake>
							<lognote></lognote>
							<good></good>
							<originalvideofilename></originalvideofilename>
							<originalaudiofilename></originalaudiofilename>
						</logginginfo>
						<colorinfo>
							<lut></lut>
							<lut1></lut1>
							<asc_sop></asc_sop>
							<asc_sat></asc_sat>
							<lut2></lut2>
						</colorinfo>
						<labels>
							<label2>Violet</label2>
						</labels>
					</clipitem>
					<clipitem id="clipitem-1385">
						<masterclipid>masterclip-1382</masterclipid>
						<name>TKO_019_GAS_Sh14390.mov</name>
						<enabled>TRUE</enabled>
						<duration>37</duration>
						<rate>
							<timebase>24</timebase>
							<ntsc>TRUE</ntsc>
						</rate>
						<start>100703</start>
						<end>100732</end>
						<in>4</in>
						<out>33</out>
						<pproTicksIn>42378336000</pproTicksIn>
						<pproTicksOut>349621272000</pproTicksOut>
						<alphatype>none</alphatype>
						<pixelaspectratio>square</pixelaspectratio>
						<anamorphic>FALSE</anamorphic>
						<file id="file-1382">
							<name>TKO_019_GAS_Sh14390.mov</name>
							<pathurl>file://tri-stor01/Projects/TKO/SHOTS/_Refs_Movs_Burnin_FrameCounter/TKO_019_GAS_Sh14390.mov</pathurl>
							<rate>
								<timebase>24</timebase>
								<ntsc>TRUE</ntsc>
							</rate>
							<duration>37</duration>
							<timecode>
								<rate>
									<timebase>24</timebase>
									<ntsc>TRUE</ntsc>
								</rate>
								<string>12:29:49:11</string>
								<frame>1079747</frame>
								<displayformat>NDF</displayformat>
								<reel>
									<name>B0410007</name>
								</reel>
							</timecode>
							<media>
								<video>
									<samplecharacteristics>
										<rate>
											<timebase>24</timebase>
											<ntsc>TRUE</ntsc>
										</rate>
										<width>4096</width>
										<height>2160</height>
										<anamorphic>FALSE</anamorphic>
										<pixelaspectratio>square</pixelaspectratio>
										<fielddominance>none</fielddominance>
									</samplecharacteristics>
								</video>
							</media>
						</file>
						<logginginfo>
							<description></description>
							<scene></scene>
							<shottake></shottake>
							<lognote></lognote>
							<good></good>
							<originalvideofilename></originalvideofilename>
							<originalaudiofilename></originalaudiofilename>
						</logginginfo>
						<colorinfo>
							<lut></lut>
							<lut1></lut1>
							<asc_sop></asc_sop>
							<asc_sat></asc_sat>
							<lut2></lut2>
						</colorinfo>
						<labels>
							<label2>Violet</label2>
						</labels>
					</clipitem>
					<clipitem id="clipitem-1386">
						<masterclipid>masterclip-1383</masterclipid>
						<name>TKO_019_GAS_Sh14400.mov</name>
						<enabled>TRUE</enabled>
						<duration>50</duration>
						<rate>
							<timebase>24</timebase>
							<ntsc>TRUE</ntsc>
						</rate>
						<start>100732</start>
						<end>100774</end>
						<in>4</in>
						<out>46</out>
						<pproTicksIn>42378336000</pproTicksIn>
						<pproTicksOut>487350864000</pproTicksOut>
						<alphatype>none</alphatype>
						<pixelaspectratio>square</pixelaspectratio>
						<anamorphic>FALSE</anamorphic>
						<file id="file-1383">
							<name>TKO_019_GAS_Sh14400.mov</name>
							<pathurl>file://tri-stor01/Projects/TKO/SHOTS/_Refs_Movs_Burnin_FrameCounter/TKO_019_GAS_Sh14400.mov</pathurl>
							<rate>
								<timebase>24</timebase>
								<ntsc>TRUE</ntsc>
							</rate>
							<duration>50</duration>
							<timecode>
								<rate>
									<timebase>24</timebase>
									<ntsc>TRUE</ntsc>
								</rate>
								<string>13:17:39:12</string>
								<frame>1148628</frame>
								<displayformat>NDF</displayformat>
								<reel>
									<name>B0410012</name>
								</reel>
							</timecode>
							<media>
								<video>
									<samplecharacteristics>
										<rate>
											<timebase>24</timebase>
											<ntsc>TRUE</ntsc>
										</rate>
										<width>4096</width>
										<height>2160</height>
										<anamorphic>FALSE</anamorphic>
										<pixelaspectratio>square</pixelaspectratio>
										<fielddominance>none</fielddominance>
									</samplecharacteristics>
								</video>
							</media>
						</file>
						<logginginfo>
							<description></description>
							<scene></scene>
							<shottake></shottake>
							<lognote></lognote>
							<good></good>
							<originalvideofilename></originalvideofilename>
							<originalaudiofilename></originalaudiofilename>
						</logginginfo>
						<colorinfo>
							<lut></lut>
							<lut1></lut1>
							<asc_sop></asc_sop>
							<asc_sat></asc_sat>
							<lut2></lut2>
						</colorinfo>
						<labels>
							<label2>Violet</label2>
						</labels>
					</clipitem>
					<clipitem id="clipitem-1387">
						<masterclipid>masterclip-1384</masterclipid>
						<name>TKO_019_GAS_Sh14410.mov</name>
						<enabled>TRUE</enabled>
						<duration>85</duration>
						<rate>
							<timebase>24</timebase>
							<ntsc>TRUE</ntsc>
						</rate>
						<start>100774</start>
						<end>100851</end>
						<in>4</in>
						<out>81</out>
						<pproTicksIn>42378336000</pproTicksIn>
						<pproTicksOut>858161304000</pproTicksOut>
						<alphatype>none</alphatype>
						<pixelaspectratio>square</pixelaspectratio>
						<anamorphic>FALSE</anamorphic>
						<file id="file-1384">
							<name>TKO_019_GAS_Sh14410.mov</name>
							<pathurl>file://tri-stor01/Projects/TKO/SHOTS/_Refs_Movs_Burnin_FrameCounter/TKO_019_GAS_Sh14410.mov</pathurl>
							<rate>
								<timebase>24</timebase>
								<ntsc>TRUE</ntsc>
							</rate>
							<duration>85</duration>
							<timecode>
								<rate>
									<timebase>24</timebase>
									<ntsc>TRUE</ntsc>
								</rate>
								<string>12:29:52:19</string>
								<frame>1079827</frame>
								<displayformat>NDF</displayformat>
								<reel>
									<name>B0410007</name>
								</reel>
							</timecode>
							<media>
								<video>
									<samplecharacteristics>
										<rate>
											<timebase>24</timebase>
											<ntsc>TRUE</ntsc>
										</rate>
										<width>4096</width>
										<height>2160</height>
										<anamorphic>FALSE</anamorphic>
										<pixelaspectratio>square</pixelaspectratio>
										<fielddominance>none</fielddominance>
									</samplecharacteristics>
								</video>
							</media>
						</file>
						<logginginfo>
							<description></description>
							<scene></scene>
							<shottake></shottake>
							<lognote></lognote>
							<good></good>
							<originalvideofilename></originalvideofilename>
							<originalaudiofilename></originalaudiofilename>
						</logginginfo>
						<colorinfo>
							<lut></lut>
							<lut1></lut1>
							<asc_sop></asc_sop>
							<asc_sat></asc_sat>
							<lut2></lut2>
						</colorinfo>
						<labels>
							<label2>Violet</label2>
						</labels>
					</clipitem>
					<clipitem id="clipitem-1388">
						<masterclipid>masterclip-1385</masterclipid>
						<name>TKO_019_GAS_Sh14420.mov</name>
						<enabled>TRUE</enabled>
						<duration>85</duration>
						<rate>
							<timebase>24</timebase>
							<ntsc>TRUE</ntsc>
						</rate>
						<start>100851</start>
						<end>100928</end>
						<in>4</in>
						<out>81</out>
						<pproTicksIn>42378336000</pproTicksIn>
						<pproTicksOut>858161304000</pproTicksOut>
						<alphatype>none</alphatype>
						<pixelaspectratio>square</pixelaspectratio>
						<anamorphic>FALSE</anamorphic>
						<file id="file-1385">
							<name>TKO_019_GAS_Sh14420.mov</name>
							<pathurl>file://tri-stor01/Projects/TKO/SHOTS/_Refs_Movs_Burnin_FrameCounter/TKO_019_GAS_Sh14420.mov</pathurl>
							<rate>
								<timebase>24</timebase>
								<ntsc>TRUE</ntsc>
							</rate>
							<duration>85</duration>
							<timecode>
								<rate>
									<timebase>24</timebase>
									<ntsc>TRUE</ntsc>
								</rate>
								<string>13:17:46:08</string>
								<frame>1148792</frame>
								<displayformat>NDF</displayformat>
								<reel>
									<name>A0480012</name>
								</reel>
							</timecode>
							<media>
								<video>
									<samplecharacteristics>
										<rate>
											<timebase>24</timebase>
											<ntsc>TRUE</ntsc>
										</rate>
										<width>4096</width>
										<height>2160</height>
										<anamorphic>FALSE</anamorphic>
										<pixelaspectratio>square</pixelaspectratio>
										<fielddominance>none</fielddominance>
									</samplecharacteristics>
								</video>
							</media>
						</file>
						<logginginfo>
							<description></description>
							<scene></scene>
							<shottake></shottake>
							<lognote></lognote>
							<good></good>
							<originalvideofilename></originalvideofilename>
							<originalaudiofilename></originalaudiofilename>
						</logginginfo>
						<colorinfo>
							<lut></lut>
							<lut1></lut1>
							<asc_sop></asc_sop>
							<asc_sat></asc_sat>
							<lut2></lut2>
						</colorinfo>
						<labels>
							<label2>Violet</label2>
						</labels>
					</clipitem>
					<clipitem id="clipitem-1389">
						<masterclipid>masterclip-1386</masterclipid>
						<name>TKO_019_GAS_Sh14430.mov</name>
						<enabled>TRUE</enabled>
						<duration>37</duration>
						<rate>
							<timebase>24</timebase>
							<ntsc>TRUE</ntsc>
						</rate>
						<start>100928</start>
						<end>100957</end>
						<in>4</in>
						<out>33</out>
						<pproTicksIn>42378336000</pproTicksIn>
						<pproTicksOut>349621272000</pproTicksOut>
						<alphatype>none</alphatype>
						<pixelaspectratio>square</pixelaspectratio>
						<anamorphic>FALSE</anamorphic>
						<file id="file-1386">
							<name>TKO_019_GAS_Sh14430.mov</name>
							<pathurl>file://tri-stor01/Projects/TKO/SHOTS/_Refs_Movs_Burnin_FrameCounter/TKO_019_GAS_Sh14430.mov</pathurl>
							<rate>
								<timebase>24</timebase>
								<ntsc>TRUE</ntsc>
							</rate>
							<duration>37</duration>
							<timecode>
								<rate>
									<timebase>24</timebase>
									<ntsc>TRUE</ntsc>
								</rate>
								<string>12:45:41:11</string>
								<frame>1102595</frame>
								<displayformat>NDF</displayformat>
								<reel>
									<name>A0480009</name>
								</reel>
							</timecode>
							<media>
								<video>
									<samplecharacteristics>
										<rate>
											<timebase>24</timebase>
											<ntsc>TRUE</ntsc>
										</rate>
										<width>4096</width>
										<height>2160</height>
										<anamorphic>FALSE</anamorphic>
										<pixelaspectratio>square</pixelaspectratio>
										<fielddominance>none</fielddominance>
									</samplecharacteristics>
								</video>
							</media>
						</file>
						<logginginfo>
							<description></description>
							<scene></scene>
							<shottake></shottake>
							<lognote></lognote>
							<good></good>
							<originalvideofilename></originalvideofilename>
							<originalaudiofilename></originalaudiofilename>
						</logginginfo>
						<colorinfo>
							<lut></lut>
							<lut1></lut1>
							<asc_sop></asc_sop>
							<asc_sat></asc_sat>
							<lut2></lut2>
						</colorinfo>
						<labels>
							<label2>Violet</label2>
						</labels>
					</clipitem>
					<clipitem id="clipitem-1390">
						<masterclipid>masterclip-1387</masterclipid>
						<name>TKO_019_GAS_Sh14440.mov</name>
						<enabled>TRUE</enabled>
						<duration>39</duration>
						<rate>
							<timebase>24</timebase>
							<ntsc>TRUE</ntsc>
						</rate>
						<start>100957</start>
						<end>100988</end>
						<in>4</in>
						<out>35</out>
						<pproTicksIn>42378336000</pproTicksIn>
						<pproTicksOut>370810440000</pproTicksOut>
						<alphatype>none</alphatype>
						<pixelaspectratio>square</pixelaspectratio>
						<anamorphic>FALSE</anamorphic>
						<file id="file-1387">
							<name>TKO_019_GAS_Sh14440.mov</name>
							<pathurl>file://tri-stor01/Projects/TKO/SHOTS/_Refs_Movs_Burnin_FrameCounter/TKO_019_GAS_Sh14440.mov</pathurl>
							<rate>
								<timebase>24</timebase>
								<ntsc>TRUE</ntsc>
							</rate>
							<duration>39</duration>
							<timecode>
								<rate>
									<timebase>24</timebase>
									<ntsc>TRUE</ntsc>
								</rate>
								<string>13:17:49:15</string>
								<frame>1148871</frame>
								<displayformat>NDF</displayformat>
								<reel>
									<name>A0480012</name>
								</reel>
							</timecode>
							<media>
								<video>
									<samplecharacteristics>
										<rate>
											<timebase>24</timebase>
											<ntsc>TRUE</ntsc>
										</rate>
										<width>4096</width>
										<height>2160</height>
										<anamorphic>FALSE</anamorphic>
										<pixelaspectratio>square</pixelaspectratio>
										<fielddominance>none</fielddominance>
									</samplecharacteristics>
								</video>
							</media>
						</file>
						<logginginfo>
							<description></description>
							<scene></scene>
							<shottake></shottake>
							<lognote></lognote>
							<good></good>
							<originalvideofilename></originalvideofilename>
							<originalaudiofilename></originalaudiofilename>
						</logginginfo>
						<colorinfo>
							<lut></lut>
							<lut1></lut1>
							<asc_sop></asc_sop>
							<asc_sat></asc_sat>
							<lut2></lut2>
						</colorinfo>
						<labels>
							<label2>Violet</label2>
						</labels>
					</clipitem>
					<clipitem id="clipitem-1391">
						<masterclipid>masterclip-1388</masterclipid>
						<name>TKO_019_GAS_Sh14450.mov</name>
						<enabled>TRUE</enabled>
						<duration>53</duration>
						<rate>
							<timebase>24</timebase>
							<ntsc>TRUE</ntsc>
						</rate>
						<start>100988</start>
						<end>101033</end>
						<in>4</in>
						<out>49</out>
						<pproTicksIn>42378336000</pproTicksIn>
						<pproTicksOut>519134616000</pproTicksOut>
						<alphatype>none</alphatype>
						<pixelaspectratio>square</pixelaspectratio>
						<anamorphic>FALSE</anamorphic>
						<file id="file-1388">
							<name>TKO_019_GAS_Sh14450.mov</name>
							<pathurl>file://tri-stor01/Projects/TKO/SHOTS/_Refs_Movs_Burnin_FrameCounter/TKO_019_GAS_Sh14450.mov</pathurl>
							<rate>
								<timebase>24</timebase>
								<ntsc>TRUE</ntsc>
							</rate>
							<duration>53</duration>
							<timecode>
								<rate>
									<timebase>24</timebase>
									<ntsc>TRUE</ntsc>
								</rate>
								<string>13:39:35:08</string>
								<frame>1180208</frame>
								<displayformat>NDF</displayformat>
								<reel>
									<name>B0410014</name>
								</reel>
							</timecode>
							<media>
								<video>
									<samplecharacteristics>
										<rate>
											<timebase>24</timebase>
											<ntsc>TRUE</ntsc>
										</rate>
										<width>4096</width>
										<height>2160</height>
										<anamorphic>FALSE</anamorphic>
										<pixelaspectratio>square</pixelaspectratio>
										<fielddominance>none</fielddominance>
									</samplecharacteristics>
								</video>
							</media>
						</file>
						<logginginfo>
							<description></description>
							<scene></scene>
							<shottake></shottake>
							<lognote></lognote>
							<good></good>
							<originalvideofilename></originalvideofilename>
							<originalaudiofilename></originalaudiofilename>
						</logginginfo>
						<colorinfo>
							<lut></lut>
							<lut1></lut1>
							<asc_sop></asc_sop>
							<asc_sat></asc_sat>
							<lut2></lut2>
						</colorinfo>
						<labels>
							<label2>Violet</label2>
						</labels>
					</clipitem>
					<clipitem id="clipitem-1392">
						<masterclipid>masterclip-1389</masterclipid>
						<name>TKO_019_GAS_Sh14460.mov</name>
						<enabled>TRUE</enabled>
						<duration>53</duration>
						<rate>
							<timebase>24</timebase>
							<ntsc>TRUE</ntsc>
						</rate>
						<start>101033</start>
						<end>101078</end>
						<in>4</in>
						<out>49</out>
						<pproTicksIn>42378336000</pproTicksIn>
						<pproTicksOut>519134616000</pproTicksOut>
						<alphatype>none</alphatype>
						<pixelaspectratio>square</pixelaspectratio>
						<anamorphic>FALSE</anamorphic>
						<file id="file-1389">
							<name>TKO_019_GAS_Sh14460.mov</name>
							<pathurl>file://tri-stor01/Projects/TKO/SHOTS/_Refs_Movs_Burnin_FrameCounter/TKO_019_GAS_Sh14460.mov</pathurl>
							<rate>
								<timebase>24</timebase>
								<ntsc>TRUE</ntsc>
							</rate>
							<duration>53</duration>
							<timecode>
								<rate>
									<timebase>24</timebase>
									<ntsc>TRUE</ntsc>
								</rate>
								<string>12:45:42:20</string>
								<frame>1102628</frame>
								<displayformat>NDF</displayformat>
								<reel>
									<name>A0480009</name>
								</reel>
							</timecode>
							<media>
								<video>
									<samplecharacteristics>
										<rate>
											<timebase>24</timebase>
											<ntsc>TRUE</ntsc>
										</rate>
										<width>4096</width>
										<height>2160</height>
										<anamorphic>FALSE</anamorphic>
										<pixelaspectratio>square</pixelaspectratio>
										<fielddominance>none</fielddominance>
									</samplecharacteristics>
								</video>
							</media>
						</file>
						<logginginfo>
							<description></description>
							<scene></scene>
							<shottake></shottake>
							<lognote></lognote>
							<good></good>
							<originalvideofilename></originalvideofilename>
							<originalaudiofilename></originalaudiofilename>
						</logginginfo>
						<colorinfo>
							<lut></lut>
							<lut1></lut1>
							<asc_sop></asc_sop>
							<asc_sat></asc_sat>
							<lut2></lut2>
						</colorinfo>
						<labels>
							<label2>Violet</label2>
						</labels>
					</clipitem>
					<clipitem id="clipitem-1393">
						<masterclipid>masterclip-1390</masterclipid>
						<name>TKO_019_GAS_Sh14470.mov</name>
						<enabled>TRUE</enabled>
						<duration>39</duration>
						<rate>
							<timebase>24</timebase>
							<ntsc>TRUE</ntsc>
						</rate>
						<start>101078</start>
						<end>101109</end>
						<in>4</in>
						<out>35</out>
						<pproTicksIn>42378336000</pproTicksIn>
						<pproTicksOut>370810440000</pproTicksOut>
						<alphatype>none</alphatype>
						<pixelaspectratio>square</pixelaspectratio>
						<anamorphic>FALSE</anamorphic>
						<file id="file-1390">
							<name>TKO_019_GAS_Sh14470.mov</name>
							<pathurl>file://tri-stor01/Projects/TKO/SHOTS/_Refs_Movs_Burnin_FrameCounter/TKO_019_GAS_Sh14470.mov</pathurl>
							<rate>
								<timebase>24</timebase>
								<ntsc>TRUE</ntsc>
							</rate>
							<duration>39</duration>
							<timecode>
								<rate>
									<timebase>24</timebase>
									<ntsc>TRUE</ntsc>
								</rate>
								<string>13:17:53:20</string>
								<frame>1148972</frame>
								<displayformat>NDF</displayformat>
								<reel>
									<name>A0480012</name>
								</reel>
							</timecode>
							<media>
								<video>
									<samplecharacteristics>
										<rate>
											<timebase>24</timebase>
											<ntsc>TRUE</ntsc>
										</rate>
										<width>4096</width>
										<height>2160</height>
										<anamorphic>FALSE</anamorphic>
										<pixelaspectratio>square</pixelaspectratio>
										<fielddominance>none</fielddominance>
									</samplecharacteristics>
								</video>
							</media>
						</file>
						<logginginfo>
							<description></description>
							<scene></scene>
							<shottake></shottake>
							<lognote></lognote>
							<good></good>
							<originalvideofilename></originalvideofilename>
							<originalaudiofilename></originalaudiofilename>
						</logginginfo>
						<colorinfo>
							<lut></lut>
							<lut1></lut1>
							<asc_sop></asc_sop>
							<asc_sat></asc_sat>
							<lut2></lut2>
						</colorinfo>
						<labels>
							<label2>Violet</label2>
						</labels>
					</clipitem>
					<clipitem id="clipitem-1394">
						<masterclipid>masterclip-1391</masterclipid>
						<name>TKO_019_GAS_Sh14480.mov</name>
						<enabled>TRUE</enabled>
						<duration>39</duration>
						<rate>
							<timebase>24</timebase>
							<ntsc>TRUE</ntsc>
						</rate>
						<start>101109</start>
						<end>101140</end>
						<in>4</in>
						<out>35</out>
						<pproTicksIn>42378336000</pproTicksIn>
						<pproTicksOut>370810440000</pproTicksOut>
						<alphatype>none</alphatype>
						<pixelaspectratio>square</pixelaspectratio>
						<anamorphic>FALSE</anamorphic>
						<file id="file-1391">
							<name>TKO_019_GAS_Sh14480.mov</name>
							<pathurl>file://tri-stor01/Projects/TKO/SHOTS/_Refs_Movs_Burnin_FrameCounter/TKO_019_GAS_Sh14480.mov</pathurl>
							<rate>
								<timebase>24</timebase>
								<ntsc>TRUE</ntsc>
							</rate>
							<duration>39</duration>
							<timecode>
								<rate>
									<timebase>24</timebase>
									<ntsc>TRUE</ntsc>
								</rate>
								<string>12:45:52:16</string>
								<frame>1102864</frame>
								<displayformat>NDF</displayformat>
								<reel>
									<name>A0480009</name>
								</reel>
							</timecode>
							<media>
								<video>
									<samplecharacteristics>
										<rate>
											<timebase>24</timebase>
											<ntsc>TRUE</ntsc>
										</rate>
										<width>4096</width>
										<height>2160</height>
										<anamorphic>FALSE</anamorphic>
										<pixelaspectratio>square</pixelaspectratio>
										<fielddominance>none</fielddominance>
									</samplecharacteristics>
								</video>
							</media>
						</file>
						<logginginfo>
							<description></description>
							<scene></scene>
							<shottake></shottake>
							<lognote></lognote>
							<good></good>
							<originalvideofilename></originalvideofilename>
							<originalaudiofilename></originalaudiofilename>
						</logginginfo>
						<colorinfo>
							<lut></lut>
							<lut1></lut1>
							<asc_sop></asc_sop>
							<asc_sat></asc_sat>
							<lut2></lut2>
						</colorinfo>
						<labels>
							<label2>Violet</label2>
						</labels>
					</clipitem>
					<clipitem id="clipitem-1395">
						<masterclipid>masterclip-1392</masterclipid>
						<name>TKO_019_GAS_Sh14490.mov</name>
						<enabled>TRUE</enabled>
						<duration>28</duration>
						<rate>
							<timebase>24</timebase>
							<ntsc>TRUE</ntsc>
						</rate>
						<start>101140</start>
						<end>101160</end>
						<in>4</in>
						<out>24</out>
						<pproTicksIn>42378336000</pproTicksIn>
						<pproTicksOut>254270016000</pproTicksOut>
						<alphatype>none</alphatype>
						<pixelaspectratio>square</pixelaspectratio>
						<anamorphic>FALSE</anamorphic>
						<file id="file-1392">
							<name>TKO_019_GAS_Sh14490.mov</name>
							<pathurl>file://tri-stor01/Projects/TKO/SHOTS/_Refs_Movs_Burnin_FrameCounter/TKO_019_GAS_Sh14490.mov</pathurl>
							<rate>
								<timebase>24</timebase>
								<ntsc>TRUE</ntsc>
							</rate>
							<duration>28</duration>
							<timecode>
								<rate>
									<timebase>24</timebase>
									<ntsc>TRUE</ntsc>
								</rate>
								<string>12:45:53:23</string>
								<frame>1102895</frame>
								<displayformat>NDF</displayformat>
								<reel>
									<name>B0410009</name>
								</reel>
							</timecode>
							<media>
								<video>
									<samplecharacteristics>
										<rate>
											<timebase>24</timebase>
											<ntsc>TRUE</ntsc>
										</rate>
										<width>4096</width>
										<height>2160</height>
										<anamorphic>FALSE</anamorphic>
										<pixelaspectratio>square</pixelaspectratio>
										<fielddominance>none</fielddominance>
									</samplecharacteristics>
								</video>
							</media>
						</file>
						<logginginfo>
							<description></description>
							<scene></scene>
							<shottake></shottake>
							<lognote></lognote>
							<good></good>
							<originalvideofilename></originalvideofilename>
							<originalaudiofilename></originalaudiofilename>
						</logginginfo>
						<colorinfo>
							<lut></lut>
							<lut1></lut1>
							<asc_sop></asc_sop>
							<asc_sat></asc_sat>
							<lut2></lut2>
						</colorinfo>
						<labels>
							<label2>Violet</label2>
						</labels>
					</clipitem>
					<clipitem id="clipitem-1396">
						<masterclipid>masterclip-1393</masterclipid>
						<name>TKO_019_GAS_Sh14500.mov</name>
						<enabled>TRUE</enabled>
						<duration>40</duration>
						<rate>
							<timebase>24</timebase>
							<ntsc>TRUE</ntsc>
						</rate>
						<start>101160</start>
						<end>101192</end>
						<in>4</in>
						<out>36</out>
						<pproTicksIn>42378336000</pproTicksIn>
						<pproTicksOut>381405024000</pproTicksOut>
						<alphatype>none</alphatype>
						<pixelaspectratio>square</pixelaspectratio>
						<anamorphic>FALSE</anamorphic>
						<file id="file-1393">
							<name>TKO_019_GAS_Sh14500.mov</name>
							<pathurl>file://tri-stor01/Projects/TKO/SHOTS/_Refs_Movs_Burnin_FrameCounter/TKO_019_GAS_Sh14500.mov</pathurl>
							<rate>
								<timebase>24</timebase>
								<ntsc>TRUE</ntsc>
							</rate>
							<duration>40</duration>
							<timecode>
								<rate>
									<timebase>24</timebase>
									<ntsc>TRUE</ntsc>
								</rate>
								<string>13:17:56:23</string>
								<frame>1149047</frame>
								<displayformat>NDF</displayformat>
								<reel>
									<name>B0410012</name>
								</reel>
							</timecode>
							<media>
								<video>
									<samplecharacteristics>
										<rate>
											<timebase>24</timebase>
											<ntsc>TRUE</ntsc>
										</rate>
										<width>4096</width>
										<height>2160</height>
										<anamorphic>FALSE</anamorphic>
										<pixelaspectratio>square</pixelaspectratio>
										<fielddominance>none</fielddominance>
									</samplecharacteristics>
								</video>
							</media>
						</file>
						<logginginfo>
							<description></description>
							<scene></scene>
							<shottake></shottake>
							<lognote></lognote>
							<good></good>
							<originalvideofilename></originalvideofilename>
							<originalaudiofilename></originalaudiofilename>
						</logginginfo>
						<colorinfo>
							<lut></lut>
							<lut1></lut1>
							<asc_sop></asc_sop>
							<asc_sat></asc_sat>
							<lut2></lut2>
						</colorinfo>
						<labels>
							<label2>Violet</label2>
						</labels>
					</clipitem>
					<clipitem id="clipitem-1397">
						<masterclipid>masterclip-1394</masterclipid>
						<name>TKO_019_GAS_Sh14510.mov</name>
						<enabled>TRUE</enabled>
						<duration>62</duration>
						<rate>
							<timebase>24</timebase>
							<ntsc>TRUE</ntsc>
						</rate>
						<start>101192</start>
						<end>101246</end>
						<in>4</in>
						<out>58</out>
						<pproTicksIn>42378336000</pproTicksIn>
						<pproTicksOut>614485872000</pproTicksOut>
						<alphatype>none</alphatype>
						<pixelaspectratio>square</pixelaspectratio>
						<anamorphic>FALSE</anamorphic>
						<file id="file-1394">
							<name>TKO_019_GAS_Sh14510.mov</name>
							<pathurl>file://tri-stor01/Projects/TKO/SHOTS/_Refs_Movs_Burnin_FrameCounter/TKO_019_GAS_Sh14510.mov</pathurl>
							<rate>
								<timebase>24</timebase>
								<ntsc>TRUE</ntsc>
							</rate>
							<duration>62</duration>
							<timecode>
								<rate>
									<timebase>24</timebase>
									<ntsc>TRUE</ntsc>
								</rate>
								<string>13:41:10:23</string>
								<frame>1182503</frame>
								<displayformat>NDF</displayformat>
								<reel>
									<name>A0480014</name>
								</reel>
							</timecode>
							<media>
								<video>
									<samplecharacteristics>
										<rate>
											<timebase>24</timebase>
											<ntsc>TRUE</ntsc>
										</rate>
										<width>4096</width>
										<height>2160</height>
										<anamorphic>FALSE</anamorphic>
										<pixelaspectratio>square</pixelaspectratio>
										<fielddominance>none</fielddominance>
									</samplecharacteristics>
								</video>
							</media>
						</file>
						<logginginfo>
							<description></description>
							<scene></scene>
							<shottake></shottake>
							<lognote></lognote>
							<good></good>
							<originalvideofilename></originalvideofilename>
							<originalaudiofilename></originalaudiofilename>
						</logginginfo>
						<colorinfo>
							<lut></lut>
							<lut1></lut1>
							<asc_sop></asc_sop>
							<asc_sat></asc_sat>
							<lut2></lut2>
						</colorinfo>
						<labels>
							<label2>Violet</label2>
						</labels>
					</clipitem>
					<clipitem id="clipitem-1398">
						<masterclipid>masterclip-1395</masterclipid>
						<name>TKO_019_GAS_Sh14520.mov</name>
						<enabled>TRUE</enabled>
						<duration>65</duration>
						<rate>
							<timebase>24</timebase>
							<ntsc>TRUE</ntsc>
						</rate>
						<start>101246</start>
						<end>101303</end>
						<in>4</in>
						<out>61</out>
						<pproTicksIn>42378336000</pproTicksIn>
						<pproTicksOut>646269624000</pproTicksOut>
						<alphatype>none</alphatype>
						<pixelaspectratio>square</pixelaspectratio>
						<anamorphic>FALSE</anamorphic>
						<file id="file-1395">
							<name>TKO_019_GAS_Sh14520.mov</name>
							<pathurl>file://tri-stor01/Projects/TKO/SHOTS/_Refs_Movs_Burnin_FrameCounter/TKO_019_GAS_Sh14520.mov</pathurl>
							<rate>
								<timebase>24</timebase>
								<ntsc>TRUE</ntsc>
							</rate>
							<duration>65</duration>
							<timecode>
								<rate>
									<timebase>24</timebase>
									<ntsc>TRUE</ntsc>
								</rate>
								<string>12:26:32:06</string>
								<frame>1075014</frame>
								<displayformat>NDF</displayformat>
								<reel>
									<name>B0410006</name>
								</reel>
							</timecode>
							<media>
								<video>
									<samplecharacteristics>
										<rate>
											<timebase>24</timebase>
											<ntsc>TRUE</ntsc>
										</rate>
										<width>4096</width>
										<height>2160</height>
										<anamorphic>FALSE</anamorphic>
										<pixelaspectratio>square</pixelaspectratio>
										<fielddominance>none</fielddominance>
									</samplecharacteristics>
								</video>
							</media>
						</file>
						<logginginfo>
							<description></description>
							<scene></scene>
							<shottake></shottake>
							<lognote></lognote>
							<good></good>
							<originalvideofilename></originalvideofilename>
							<originalaudiofilename></originalaudiofilename>
						</logginginfo>
						<colorinfo>
							<lut></lut>
							<lut1></lut1>
							<asc_sop></asc_sop>
							<asc_sat></asc_sat>
							<lut2></lut2>
						</colorinfo>
						<labels>
							<label2>Violet</label2>
						</labels>
					</clipitem>
					<clipitem id="clipitem-1399">
						<masterclipid>masterclip-1396</masterclipid>
						<name>TKO_019_GAS_Sh14530.mov</name>
						<enabled>TRUE</enabled>
						<duration>33</duration>
						<rate>
							<timebase>24</timebase>
							<ntsc>TRUE</ntsc>
						</rate>
						<start>101303</start>
						<end>101328</end>
						<in>4</in>
						<out>29</out>
						<pproTicksIn>42378336000</pproTicksIn>
						<pproTicksOut>307242936000</pproTicksOut>
						<alphatype>none</alphatype>
						<pixelaspectratio>square</pixelaspectratio>
						<anamorphic>FALSE</anamorphic>
						<file id="file-1396">
							<name>TKO_019_GAS_Sh14530.mov</name>
							<pathurl>file://tri-stor01/Projects/TKO/SHOTS/_Refs_Movs_Burnin_FrameCounter/TKO_019_GAS_Sh14530.mov</pathurl>
							<rate>
								<timebase>24</timebase>
								<ntsc>TRUE</ntsc>
							</rate>
							<duration>33</duration>
							<timecode>
								<rate>
									<timebase>24</timebase>
									<ntsc>TRUE</ntsc>
								</rate>
								<string>12:21:45:20</string>
								<frame>1068140</frame>
								<displayformat>NDF</displayformat>
								<reel>
									<name>A0480005</name>
								</reel>
							</timecode>
							<media>
								<video>
									<samplecharacteristics>
										<rate>
											<timebase>24</timebase>
											<ntsc>TRUE</ntsc>
										</rate>
										<width>4096</width>
										<height>2160</height>
										<anamorphic>FALSE</anamorphic>
										<pixelaspectratio>square</pixelaspectratio>
										<fielddominance>none</fielddominance>
									</samplecharacteristics>
								</video>
							</media>
						</file>
						<logginginfo>
							<description></description>
							<scene></scene>
							<shottake></shottake>
							<lognote></lognote>
							<good></good>
							<originalvideofilename></originalvideofilename>
							<originalaudiofilename></originalaudiofilename>
						</logginginfo>
						<colorinfo>
							<lut></lut>
							<lut1></lut1>
							<asc_sop></asc_sop>
							<asc_sat></asc_sat>
							<lut2></lut2>
						</colorinfo>
						<labels>
							<label2>Violet</label2>
						</labels>
					</clipitem>
					<clipitem id="clipitem-1400">
						<masterclipid>masterclip-1397</masterclipid>
						<name>TKO_019_GAS_Sh14540.mov</name>
						<enabled>TRUE</enabled>
						<duration>79</duration>
						<rate>
							<timebase>24</timebase>
							<ntsc>TRUE</ntsc>
						</rate>
						<start>101328</start>
						<end>101399</end>
						<in>4</in>
						<out>75</out>
						<pproTicksIn>42378336000</pproTicksIn>
						<pproTicksOut>794593800000</pproTicksOut>
						<alphatype>none</alphatype>
						<pixelaspectratio>square</pixelaspectratio>
						<anamorphic>FALSE</anamorphic>
						<file id="file-1397">
							<name>TKO_019_GAS_Sh14540.mov</name>
							<pathurl>file://tri-stor01/Projects/TKO/SHOTS/_Refs_Movs_Burnin_FrameCounter/TKO_019_GAS_Sh14540.mov</pathurl>
							<rate>
								<timebase>24</timebase>
								<ntsc>TRUE</ntsc>
							</rate>
							<duration>79</duration>
							<timecode>
								<rate>
									<timebase>24</timebase>
									<ntsc>TRUE</ntsc>
								</rate>
								<string>13:18:00:21</string>
								<frame>1149141</frame>
								<displayformat>NDF</displayformat>
								<reel>
									<name>A0480012</name>
								</reel>
							</timecode>
							<media>
								<video>
									<samplecharacteristics>
										<rate>
											<timebase>24</timebase>
											<ntsc>TRUE</ntsc>
										</rate>
										<width>4096</width>
										<height>2160</height>
										<anamorphic>FALSE</anamorphic>
										<pixelaspectratio>square</pixelaspectratio>
										<fielddominance>none</fielddominance>
									</samplecharacteristics>
								</video>
							</media>
						</file>
						<logginginfo>
							<description></description>
							<scene></scene>
							<shottake></shottake>
							<lognote></lognote>
							<good></good>
							<originalvideofilename></originalvideofilename>
							<originalaudiofilename></originalaudiofilename>
						</logginginfo>
						<colorinfo>
							<lut></lut>
							<lut1></lut1>
							<asc_sop></asc_sop>
							<asc_sat></asc_sat>
							<lut2></lut2>
						</colorinfo>
						<labels>
							<label2>Violet</label2>
						</labels>
					</clipitem>
					<clipitem id="clipitem-1401">
						<masterclipid>masterclip-1398</masterclipid>
						<name>TKO_019_GAS_Sh14550.mov</name>
						<enabled>TRUE</enabled>
						<duration>76</duration>
						<rate>
							<timebase>24</timebase>
							<ntsc>TRUE</ntsc>
						</rate>
						<start>101399</start>
						<end>101467</end>
						<in>4</in>
						<out>72</out>
						<pproTicksIn>42378336000</pproTicksIn>
						<pproTicksOut>762810048000</pproTicksOut>
						<alphatype>none</alphatype>
						<pixelaspectratio>square</pixelaspectratio>
						<anamorphic>FALSE</anamorphic>
						<file id="file-1398">
							<name>TKO_019_GAS_Sh14550.mov</name>
							<pathurl>file://tri-stor01/Projects/TKO/SHOTS/_Refs_Movs_Burnin_FrameCounter/TKO_019_GAS_Sh14550.mov</pathurl>
							<rate>
								<timebase>24</timebase>
								<ntsc>TRUE</ntsc>
							</rate>
							<duration>76</duration>
							<timecode>
								<rate>
									<timebase>24</timebase>
									<ntsc>TRUE</ntsc>
								</rate>
								<string>12:46:02:11</string>
								<frame>1103099</frame>
								<displayformat>NDF</displayformat>
								<reel>
									<name>A0480009</name>
								</reel>
							</timecode>
							<media>
								<video>
									<samplecharacteristics>
										<rate>
											<timebase>24</timebase>
											<ntsc>TRUE</ntsc>
										</rate>
										<width>4096</width>
										<height>2160</height>
										<anamorphic>FALSE</anamorphic>
										<pixelaspectratio>square</pixelaspectratio>
										<fielddominance>none</fielddominance>
									</samplecharacteristics>
								</video>
							</media>
						</file>
						<logginginfo>
							<description></description>
							<scene></scene>
							<shottake></shottake>
							<lognote></lognote>
							<good></good>
							<originalvideofilename></originalvideofilename>
							<originalaudiofilename></originalaudiofilename>
						</logginginfo>
						<colorinfo>
							<lut></lut>
							<lut1></lut1>
							<asc_sop></asc_sop>
							<asc_sat></asc_sat>
							<lut2></lut2>
						</colorinfo>
						<labels>
							<label2>Violet</label2>
						</labels>
					</clipitem>
					<clipitem id="clipitem-1402">
						<masterclipid>masterclip-1399</masterclipid>
						<name>TKO_020_CHA_Sh14560.mov</name>
						<enabled>TRUE</enabled>
						<duration>60</duration>
						<rate>
							<timebase>24</timebase>
							<ntsc>TRUE</ntsc>
						</rate>
						<start>101467</start>
						<end>101519</end>
						<in>4</in>
						<out>56</out>
						<pproTicksIn>42378336000</pproTicksIn>
						<pproTicksOut>593296704000</pproTicksOut>
						<alphatype>none</alphatype>
						<pixelaspectratio>square</pixelaspectratio>
						<anamorphic>FALSE</anamorphic>
						<file id="file-1399">
							<name>TKO_020_CHA_Sh14560.mov</name>
							<pathurl>file://tri-stor01/Projects/TKO/SHOTS/_Refs_Movs_Burnin_FrameCounter/TKO_020_CHA_Sh14560.mov</pathurl>
							<rate>
								<timebase>24</timebase>
								<ntsc>TRUE</ntsc>
							</rate>
							<duration>60</duration>
							<timecode>
								<rate>
									<timebase>24</timebase>
									<ntsc>TRUE</ntsc>
								</rate>
								<string>00:57:40:15</string>
								<frame>83055</frame>
								<displayformat>NDF</displayformat>
							</timecode>
							<media>
								<video>
									<samplecharacteristics>
										<rate>
											<timebase>24</timebase>
											<ntsc>TRUE</ntsc>
										</rate>
										<width>1280</width>
										<height>720</height>
										<anamorphic>FALSE</anamorphic>
										<pixelaspectratio>square</pixelaspectratio>
										<fielddominance>none</fielddominance>
									</samplecharacteristics>
								</video>
							</media>
						</file>
						<logginginfo>
							<description></description>
							<scene></scene>
							<shottake></shottake>
							<lognote></lognote>
							<good></good>
							<originalvideofilename></originalvideofilename>
							<originalaudiofilename></originalaudiofilename>
						</logginginfo>
						<colorinfo>
							<lut></lut>
							<lut1></lut1>
							<asc_sop></asc_sop>
							<asc_sat></asc_sat>
							<lut2></lut2>
						</colorinfo>
						<labels>
							<label2>Violet</label2>
						</labels>
					</clipitem>
					<clipitem id="clipitem-1403">
						<masterclipid>masterclip-1400</masterclipid>
						<name>TKO_020_CHA_Sh14570.mov</name>
						<enabled>TRUE</enabled>
						<duration>198</duration>
						<rate>
							<timebase>24</timebase>
							<ntsc>TRUE</ntsc>
						</rate>
						<start>101519</start>
						<end>101709</end>
						<in>4</in>
						<out>194</out>
						<pproTicksIn>42378336000</pproTicksIn>
						<pproTicksOut>2055349296000</pproTicksOut>
						<alphatype>none</alphatype>
						<pixelaspectratio>square</pixelaspectratio>
						<anamorphic>FALSE</anamorphic>
						<file id="file-1400">
							<name>TKO_020_CHA_Sh14570.mov</name>
							<pathurl>file://tri-stor01/Projects/TKO/SHOTS/_Refs_Movs_Burnin_FrameCounter/TKO_020_CHA_Sh14570.mov</pathurl>
							<rate>
								<timebase>24</timebase>
								<ntsc>TRUE</ntsc>
							</rate>
							<duration>198</duration>
							<timecode>
								<rate>
									<timebase>24</timebase>
									<ntsc>TRUE</ntsc>
								</rate>
								<string>10:35:38:15</string>
								<frame>915327</frame>
								<displayformat>NDF</displayformat>
								<reel>
									<name>B0410001</name>
								</reel>
							</timecode>
							<media>
								<video>
									<samplecharacteristics>
										<rate>
											<timebase>24</timebase>
											<ntsc>TRUE</ntsc>
										</rate>
										<width>4096</width>
										<height>2160</height>
										<anamorphic>FALSE</anamorphic>
										<pixelaspectratio>square</pixelaspectratio>
										<fielddominance>none</fielddominance>
									</samplecharacteristics>
								</video>
							</media>
						</file>
						<logginginfo>
							<description></description>
							<scene></scene>
							<shottake></shottake>
							<lognote></lognote>
							<good></good>
							<originalvideofilename></originalvideofilename>
							<originalaudiofilename></originalaudiofilename>
						</logginginfo>
						<colorinfo>
							<lut></lut>
							<lut1></lut1>
							<asc_sop></asc_sop>
							<asc_sat></asc_sat>
							<lut2></lut2>
						</colorinfo>
						<labels>
							<label2>Violet</label2>
						</labels>
					</clipitem>
					<clipitem id="clipitem-1404">
						<masterclipid>masterclip-1401</masterclipid>
						<name>TKO_020_CHA_Sh14580.mov</name>
						<enabled>TRUE</enabled>
						<duration>110</duration>
						<rate>
							<timebase>24</timebase>
							<ntsc>TRUE</ntsc>
						</rate>
						<start>101709</start>
						<end>101811</end>
						<in>4</in>
						<out>106</out>
						<pproTicksIn>42378336000</pproTicksIn>
						<pproTicksOut>1123025904000</pproTicksOut>
						<alphatype>none</alphatype>
						<pixelaspectratio>square</pixelaspectratio>
						<anamorphic>FALSE</anamorphic>
						<file id="file-1401">
							<name>TKO_020_CHA_Sh14580.mov</name>
							<pathurl>file://tri-stor01/Projects/TKO/SHOTS/_Refs_Movs_Burnin_FrameCounter/TKO_020_CHA_Sh14580.mov</pathurl>
							<rate>
								<timebase>24</timebase>
								<ntsc>TRUE</ntsc>
							</rate>
							<duration>110</duration>
							<timecode>
								<rate>
									<timebase>24</timebase>
									<ntsc>TRUE</ntsc>
								</rate>
								<string>12:52:33:09</string>
								<frame>1112481</frame>
								<displayformat>NDF</displayformat>
								<reel>
									<name>C0320002</name>
								</reel>
							</timecode>
							<media>
								<video>
									<samplecharacteristics>
										<rate>
											<timebase>24</timebase>
											<ntsc>TRUE</ntsc>
										</rate>
										<width>3840</width>
										<height>2160</height>
										<anamorphic>FALSE</anamorphic>
										<pixelaspectratio>square</pixelaspectratio>
										<fielddominance>none</fielddominance>
									</samplecharacteristics>
								</video>
							</media>
						</file>
						<logginginfo>
							<description></description>
							<scene></scene>
							<shottake></shottake>
							<lognote></lognote>
							<good></good>
							<originalvideofilename></originalvideofilename>
							<originalaudiofilename></originalaudiofilename>
						</logginginfo>
						<colorinfo>
							<lut></lut>
							<lut1></lut1>
							<asc_sop></asc_sop>
							<asc_sat></asc_sat>
							<lut2></lut2>
						</colorinfo>
						<labels>
							<label2>Violet</label2>
						</labels>
					</clipitem>
					<clipitem id="clipitem-1405">
						<masterclipid>masterclip-1402</masterclipid>
						<name>TKO_020_CHA_Sh14590.mov</name>
						<enabled>TRUE</enabled>
						<duration>55</duration>
						<rate>
							<timebase>24</timebase>
							<ntsc>TRUE</ntsc>
						</rate>
						<start>101811</start>
						<end>101858</end>
						<in>4</in>
						<out>51</out>
						<pproTicksIn>42378336000</pproTicksIn>
						<pproTicksOut>540323784000</pproTicksOut>
						<alphatype>none</alphatype>
						<pixelaspectratio>square</pixelaspectratio>
						<anamorphic>FALSE</anamorphic>
						<file id="file-1402">
							<name>TKO_020_CHA_Sh14590.mov</name>
							<pathurl>file://tri-stor01/Projects/TKO/SHOTS/_Refs_Movs_Burnin_FrameCounter/TKO_020_CHA_Sh14590.mov</pathurl>
							<rate>
								<timebase>24</timebase>
								<ntsc>TRUE</ntsc>
							</rate>
							<duration>55</duration>
							<timecode>
								<rate>
									<timebase>24</timebase>
									<ntsc>TRUE</ntsc>
								</rate>
								<string>10:38:35:23</string>
								<frame>919583</frame>
								<displayformat>NDF</displayformat>
								<reel>
									<name>B0410001</name>
								</reel>
							</timecode>
							<media>
								<video>
									<samplecharacteristics>
										<rate>
											<timebase>24</timebase>
											<ntsc>TRUE</ntsc>
										</rate>
										<width>4096</width>
										<height>2160</height>
										<anamorphic>FALSE</anamorphic>
										<pixelaspectratio>square</pixelaspectratio>
										<fielddominance>none</fielddominance>
									</samplecharacteristics>
								</video>
							</media>
						</file>
						<logginginfo>
							<description></description>
							<scene></scene>
							<shottake></shottake>
							<lognote></lognote>
							<good></good>
							<originalvideofilename></originalvideofilename>
							<originalaudiofilename></originalaudiofilename>
						</logginginfo>
						<colorinfo>
							<lut></lut>
							<lut1></lut1>
							<asc_sop></asc_sop>
							<asc_sat></asc_sat>
							<lut2></lut2>
						</colorinfo>
						<labels>
							<label2>Violet</label2>
						</labels>
					</clipitem>
					<clipitem id="clipitem-1406">
						<masterclipid>masterclip-1403</masterclipid>
						<name>TKO_020_CHA_Sh14600_MERGED.mov</name>
						<enabled>TRUE</enabled>
						<duration>44</duration>
						<rate>
							<timebase>24</timebase>
							<ntsc>TRUE</ntsc>
						</rate>
						<start>101858</start>
						<end>101894</end>
						<in>4</in>
						<out>40</out>
						<pproTicksIn>42378336000</pproTicksIn>
						<pproTicksOut>423783360000</pproTicksOut>
						<alphatype>none</alphatype>
						<pixelaspectratio>square</pixelaspectratio>
						<anamorphic>FALSE</anamorphic>
						<file id="file-1403">
							<name>TKO_020_CHA_Sh14600_MERGED.mov</name>
							<pathurl>file://tri-stor01/Projects/TKO/SHOTS/_Refs_Movs_Burnin_FrameCounter/TKO_020_CHA_Sh14600_MERGED.mov</pathurl>
							<rate>
								<timebase>24</timebase>
								<ntsc>TRUE</ntsc>
							</rate>
							<duration>44</duration>
							<timecode>
								<rate>
									<timebase>24</timebase>
									<ntsc>TRUE</ntsc>
								</rate>
								<string>00:00:00:00</string>
								<frame>0</frame>
								<displayformat>NDF</displayformat>
							</timecode>
							<media>
								<video>
									<samplecharacteristics>
										<rate>
											<timebase>24</timebase>
											<ntsc>TRUE</ntsc>
										</rate>
										<width>1920</width>
										<height>1080</height>
										<anamorphic>FALSE</anamorphic>
										<pixelaspectratio>square</pixelaspectratio>
										<fielddominance>none</fielddominance>
									</samplecharacteristics>
								</video>
								<audio>
									<samplecharacteristics>
										<depth>16</depth>
										<samplerate>48000</samplerate>
									</samplecharacteristics>
									<channelcount>2</channelcount>
								</audio>
							</media>
						</file>
						<logginginfo>
							<description></description>
							<scene></scene>
							<shottake></shottake>
							<lognote></lognote>
							<good></good>
							<originalvideofilename></originalvideofilename>
							<originalaudiofilename></originalaudiofilename>
						</logginginfo>
						<colorinfo>
							<lut></lut>
							<lut1></lut1>
							<asc_sop></asc_sop>
							<asc_sat></asc_sat>
							<lut2></lut2>
						</colorinfo>
						<labels>
							<label2>Iris</label2>
						</labels>
					</clipitem>
					<clipitem id="clipitem-1407">
						<masterclipid>masterclip-1404</masterclipid>
						<name>TKO_020_CHA_Sh14610.mov</name>
						<enabled>TRUE</enabled>
						<duration>140</duration>
						<rate>
							<timebase>24</timebase>
							<ntsc>TRUE</ntsc>
						</rate>
						<start>101894</start>
						<end>102026</end>
						<in>4</in>
						<out>136</out>
						<pproTicksIn>42378336000</pproTicksIn>
						<pproTicksOut>1440863424000</pproTicksOut>
						<alphatype>none</alphatype>
						<pixelaspectratio>square</pixelaspectratio>
						<anamorphic>FALSE</anamorphic>
						<file id="file-1404">
							<name>TKO_020_CHA_Sh14610.mov</name>
							<pathurl>file://tri-stor01/Projects/TKO/SHOTS/_Refs_Movs_Burnin_FrameCounter/TKO_020_CHA_Sh14610.mov</pathurl>
							<rate>
								<timebase>24</timebase>
								<ntsc>TRUE</ntsc>
							</rate>
							<duration>140</duration>
							<timecode>
								<rate>
									<timebase>24</timebase>
									<ntsc>TRUE</ntsc>
								</rate>
								<string>10:45:51:20</string>
								<frame>930044</frame>
								<displayformat>NDF</displayformat>
								<reel>
									<name>A0480002</name>
								</reel>
							</timecode>
							<media>
								<video>
									<samplecharacteristics>
										<rate>
											<timebase>24</timebase>
											<ntsc>TRUE</ntsc>
										</rate>
										<width>4096</width>
										<height>2160</height>
										<anamorphic>FALSE</anamorphic>
										<pixelaspectratio>square</pixelaspectratio>
										<fielddominance>none</fielddominance>
									</samplecharacteristics>
								</video>
							</media>
						</file>
						<logginginfo>
							<description></description>
							<scene></scene>
							<shottake></shottake>
							<lognote></lognote>
							<good></good>
							<originalvideofilename></originalvideofilename>
							<originalaudiofilename></originalaudiofilename>
						</logginginfo>
						<colorinfo>
							<lut></lut>
							<lut1></lut1>
							<asc_sop></asc_sop>
							<asc_sat></asc_sat>
							<lut2></lut2>
						</colorinfo>
						<labels>
							<label2>Violet</label2>
						</labels>
					</clipitem>
					<clipitem id="clipitem-1408">
						<masterclipid>masterclip-1405</masterclipid>
						<name>TKO_020_CHA_Sh14620_MERGED.mov</name>
						<enabled>TRUE</enabled>
						<duration>113</duration>
						<rate>
							<timebase>24</timebase>
							<ntsc>TRUE</ntsc>
						</rate>
						<start>102026</start>
						<end>102131</end>
						<in>4</in>
						<out>109</out>
						<pproTicksIn>42378336000</pproTicksIn>
						<pproTicksOut>1154809656000</pproTicksOut>
						<alphatype>none</alphatype>
						<pixelaspectratio>square</pixelaspectratio>
						<anamorphic>FALSE</anamorphic>
						<file id="file-1405">
							<name>TKO_020_CHA_Sh14620_MERGED.mov</name>
							<pathurl>file://tri-stor01/Projects/TKO/SHOTS/_Refs_Movs_Burnin_FrameCounter/TKO_020_CHA_Sh14620_MERGED.mov</pathurl>
							<rate>
								<timebase>24</timebase>
								<ntsc>TRUE</ntsc>
							</rate>
							<duration>113</duration>
							<timecode>
								<rate>
									<timebase>24</timebase>
									<ntsc>TRUE</ntsc>
								</rate>
								<string>00:00:00:00</string>
								<frame>0</frame>
								<displayformat>NDF</displayformat>
							</timecode>
							<media>
								<video>
									<samplecharacteristics>
										<rate>
											<timebase>24</timebase>
											<ntsc>TRUE</ntsc>
										</rate>
										<width>1920</width>
										<height>1080</height>
										<anamorphic>FALSE</anamorphic>
										<pixelaspectratio>square</pixelaspectratio>
										<fielddominance>none</fielddominance>
									</samplecharacteristics>
								</video>
								<audio>
									<samplecharacteristics>
										<depth>16</depth>
										<samplerate>48000</samplerate>
									</samplecharacteristics>
									<channelcount>2</channelcount>
								</audio>
							</media>
						</file>
						<logginginfo>
							<description></description>
							<scene></scene>
							<shottake></shottake>
							<lognote></lognote>
							<good></good>
							<originalvideofilename></originalvideofilename>
							<originalaudiofilename></originalaudiofilename>
						</logginginfo>
						<colorinfo>
							<lut></lut>
							<lut1></lut1>
							<asc_sop></asc_sop>
							<asc_sat></asc_sat>
							<lut2></lut2>
						</colorinfo>
						<labels>
							<label2>Iris</label2>
						</labels>
					</clipitem>
					<clipitem id="clipitem-1409">
						<masterclipid>masterclip-1406</masterclipid>
						<name>TKO_020_CHA_Sh14630.mov</name>
						<enabled>TRUE</enabled>
						<duration>95</duration>
						<rate>
							<timebase>24</timebase>
							<ntsc>TRUE</ntsc>
						</rate>
						<start>102131</start>
						<end>102218</end>
						<in>4</in>
						<out>91</out>
						<pproTicksIn>42378336000</pproTicksIn>
						<pproTicksOut>964107144000</pproTicksOut>
						<alphatype>none</alphatype>
						<pixelaspectratio>square</pixelaspectratio>
						<anamorphic>FALSE</anamorphic>
						<file id="file-1406">
							<name>TKO_020_CHA_Sh14630.mov</name>
							<pathurl>file://tri-stor01/Projects/TKO/SHOTS/_Refs_Movs_Burnin_FrameCounter/TKO_020_CHA_Sh14630.mov</pathurl>
							<rate>
								<timebase>24</timebase>
								<ntsc>TRUE</ntsc>
							</rate>
							<duration>95</duration>
							<timecode>
								<rate>
									<timebase>24</timebase>
									<ntsc>TRUE</ntsc>
								</rate>
								<string>10:46:02:19</string>
								<frame>930307</frame>
								<displayformat>NDF</displayformat>
								<reel>
									<name>A0480002</name>
								</reel>
							</timecode>
							<media>
								<video>
									<samplecharacteristics>
										<rate>
											<timebase>24</timebase>
											<ntsc>TRUE</ntsc>
										</rate>
										<width>4096</width>
										<height>2160</height>
										<anamorphic>FALSE</anamorphic>
										<pixelaspectratio>square</pixelaspectratio>
										<fielddominance>none</fielddominance>
									</samplecharacteristics>
								</video>
							</media>
						</file>
						<logginginfo>
							<description></description>
							<scene></scene>
							<shottake></shottake>
							<lognote></lognote>
							<good></good>
							<originalvideofilename></originalvideofilename>
							<originalaudiofilename></originalaudiofilename>
						</logginginfo>
						<colorinfo>
							<lut></lut>
							<lut1></lut1>
							<asc_sop></asc_sop>
							<asc_sat></asc_sat>
							<lut2></lut2>
						</colorinfo>
						<labels>
							<label2>Violet</label2>
						</labels>
					</clipitem>
					<clipitem id="clipitem-1410">
						<masterclipid>masterclip-1407</masterclipid>
						<name>TKO_020_CHA_Sh14640.mov</name>
						<enabled>TRUE</enabled>
						<duration>50</duration>
						<rate>
							<timebase>24</timebase>
							<ntsc>TRUE</ntsc>
						</rate>
						<start>102218</start>
						<end>102260</end>
						<in>4</in>
						<out>46</out>
						<pproTicksIn>42378336000</pproTicksIn>
						<pproTicksOut>487350864000</pproTicksOut>
						<alphatype>none</alphatype>
						<pixelaspectratio>square</pixelaspectratio>
						<anamorphic>FALSE</anamorphic>
						<file id="file-1407">
							<name>TKO_020_CHA_Sh14640.mov</name>
							<pathurl>file://tri-stor01/Projects/TKO/SHOTS/_Refs_Movs_Burnin_FrameCounter/TKO_020_CHA_Sh14640.mov</pathurl>
							<rate>
								<timebase>24</timebase>
								<ntsc>TRUE</ntsc>
							</rate>
							<duration>50</duration>
							<timecode>
								<rate>
									<timebase>24</timebase>
									<ntsc>TRUE</ntsc>
								</rate>
								<string>10:46:06:19</string>
								<frame>930403</frame>
								<displayformat>NDF</displayformat>
								<reel>
									<name>B0410002</name>
								</reel>
							</timecode>
							<media>
								<video>
									<samplecharacteristics>
										<rate>
											<timebase>24</timebase>
											<ntsc>TRUE</ntsc>
										</rate>
										<width>4096</width>
										<height>2160</height>
										<anamorphic>FALSE</anamorphic>
										<pixelaspectratio>square</pixelaspectratio>
										<fielddominance>none</fielddominance>
									</samplecharacteristics>
								</video>
							</media>
						</file>
						<logginginfo>
							<description></description>
							<scene></scene>
							<shottake></shottake>
							<lognote></lognote>
							<good></good>
							<originalvideofilename></originalvideofilename>
							<originalaudiofilename></originalaudiofilename>
						</logginginfo>
						<colorinfo>
							<lut></lut>
							<lut1></lut1>
							<asc_sop></asc_sop>
							<asc_sat></asc_sat>
							<lut2></lut2>
						</colorinfo>
						<labels>
							<label2>Violet</label2>
						</labels>
					</clipitem>
					<clipitem id="clipitem-1411">
						<masterclipid>masterclip-1408</masterclipid>
						<name>TKO_020_CHA_Sh14650_MERGED.mov</name>
						<enabled>TRUE</enabled>
						<duration>61</duration>
						<rate>
							<timebase>24</timebase>
							<ntsc>TRUE</ntsc>
						</rate>
						<start>102260</start>
						<end>102313</end>
						<in>4</in>
						<out>57</out>
						<pproTicksIn>42378336000</pproTicksIn>
						<pproTicksOut>603891288000</pproTicksOut>
						<alphatype>none</alphatype>
						<pixelaspectratio>square</pixelaspectratio>
						<anamorphic>FALSE</anamorphic>
						<file id="file-1408">
							<name>TKO_020_CHA_Sh14650_MERGED.mov</name>
							<pathurl>file://tri-stor01/Projects/TKO/SHOTS/_Refs_Movs_Burnin_FrameCounter/TKO_020_CHA_Sh14650_MERGED.mov</pathurl>
							<rate>
								<timebase>24</timebase>
								<ntsc>TRUE</ntsc>
							</rate>
							<duration>61</duration>
							<timecode>
								<rate>
									<timebase>24</timebase>
									<ntsc>TRUE</ntsc>
								</rate>
								<string>00:00:00:00</string>
								<frame>0</frame>
								<displayformat>NDF</displayformat>
							</timecode>
							<media>
								<video>
									<samplecharacteristics>
										<rate>
											<timebase>24</timebase>
											<ntsc>TRUE</ntsc>
										</rate>
										<width>1920</width>
										<height>1080</height>
										<anamorphic>FALSE</anamorphic>
										<pixelaspectratio>square</pixelaspectratio>
										<fielddominance>none</fielddominance>
									</samplecharacteristics>
								</video>
								<audio>
									<samplecharacteristics>
										<depth>16</depth>
										<samplerate>48000</samplerate>
									</samplecharacteristics>
									<channelcount>2</channelcount>
								</audio>
							</media>
						</file>
						<logginginfo>
							<description></description>
							<scene></scene>
							<shottake></shottake>
							<lognote></lognote>
							<good></good>
							<originalvideofilename></originalvideofilename>
							<originalaudiofilename></originalaudiofilename>
						</logginginfo>
						<colorinfo>
							<lut></lut>
							<lut1></lut1>
							<asc_sop></asc_sop>
							<asc_sat></asc_sat>
							<lut2></lut2>
						</colorinfo>
						<labels>
							<label2>Iris</label2>
						</labels>
					</clipitem>
					<clipitem id="clipitem-1412">
						<masterclipid>masterclip-1409</masterclipid>
						<name>TKO_020_CHA_Sh14660.mov</name>
						<enabled>TRUE</enabled>
						<duration>30</duration>
						<rate>
							<timebase>24</timebase>
							<ntsc>TRUE</ntsc>
						</rate>
						<start>102313</start>
						<end>102335</end>
						<in>4</in>
						<out>26</out>
						<pproTicksIn>42378336000</pproTicksIn>
						<pproTicksOut>275459184000</pproTicksOut>
						<alphatype>none</alphatype>
						<pixelaspectratio>square</pixelaspectratio>
						<anamorphic>FALSE</anamorphic>
						<file id="file-1409">
							<name>TKO_020_CHA_Sh14660.mov</name>
							<pathurl>file://tri-stor01/Projects/TKO/SHOTS/_Refs_Movs_Burnin_FrameCounter/TKO_020_CHA_Sh14660.mov</pathurl>
							<rate>
								<timebase>24</timebase>
								<ntsc>TRUE</ntsc>
							</rate>
							<duration>30</duration>
							<timecode>
								<rate>
									<timebase>24</timebase>
									<ntsc>TRUE</ntsc>
								</rate>
								<string>10:46:11:23</string>
								<frame>930527</frame>
								<displayformat>NDF</displayformat>
								<reel>
									<name>A0480002</name>
								</reel>
							</timecode>
							<media>
								<video>
									<samplecharacteristics>
										<rate>
											<timebase>24</timebase>
											<ntsc>TRUE</ntsc>
										</rate>
										<width>4096</width>
										<height>2160</height>
										<anamorphic>FALSE</anamorphic>
										<pixelaspectratio>square</pixelaspectratio>
										<fielddominance>none</fielddominance>
									</samplecharacteristics>
								</video>
							</media>
						</file>
						<logginginfo>
							<description></description>
							<scene></scene>
							<shottake></shottake>
							<lognote></lognote>
							<good></good>
							<originalvideofilename></originalvideofilename>
							<originalaudiofilename></originalaudiofilename>
						</logginginfo>
						<colorinfo>
							<lut></lut>
							<lut1></lut1>
							<asc_sop></asc_sop>
							<asc_sat></asc_sat>
							<lut2></lut2>
						</colorinfo>
						<labels>
							<label2>Violet</label2>
						</labels>
					</clipitem>
					<clipitem id="clipitem-1413">
						<masterclipid>masterclip-1410</masterclipid>
						<name>TKO_020_CHA_Sh14670.mov</name>
						<enabled>TRUE</enabled>
						<duration>40</duration>
						<rate>
							<timebase>24</timebase>
							<ntsc>TRUE</ntsc>
						</rate>
						<start>102335</start>
						<end>102367</end>
						<in>4</in>
						<out>36</out>
						<pproTicksIn>42378336000</pproTicksIn>
						<pproTicksOut>381405024000</pproTicksOut>
						<alphatype>none</alphatype>
						<pixelaspectratio>square</pixelaspectratio>
						<anamorphic>FALSE</anamorphic>
						<file id="file-1410">
							<name>TKO_020_CHA_Sh14670.mov</name>
							<pathurl>file://tri-stor01/Projects/TKO/SHOTS/_Refs_Movs_Burnin_FrameCounter/TKO_020_CHA_Sh14670.mov</pathurl>
							<rate>
								<timebase>24</timebase>
								<ntsc>TRUE</ntsc>
							</rate>
							<duration>40</duration>
							<timecode>
								<rate>
									<timebase>24</timebase>
									<ntsc>TRUE</ntsc>
								</rate>
								<string>10:46:14:18</string>
								<frame>930594</frame>
								<displayformat>NDF</displayformat>
								<reel>
									<name>B0410002</name>
								</reel>
							</timecode>
							<media>
								<video>
									<samplecharacteristics>
										<rate>
											<timebase>24</timebase>
											<ntsc>TRUE</ntsc>
										</rate>
										<width>4096</width>
										<height>2160</height>
										<anamorphic>FALSE</anamorphic>
										<pixelaspectratio>square</pixelaspectratio>
										<fielddominance>none</fielddominance>
									</samplecharacteristics>
								</video>
							</media>
						</file>
						<logginginfo>
							<description></description>
							<scene></scene>
							<shottake></shottake>
							<lognote></lognote>
							<good></good>
							<originalvideofilename></originalvideofilename>
							<originalaudiofilename></originalaudiofilename>
						</logginginfo>
						<colorinfo>
							<lut></lut>
							<lut1></lut1>
							<asc_sop></asc_sop>
							<asc_sat></asc_sat>
							<lut2></lut2>
						</colorinfo>
						<labels>
							<label2>Violet</label2>
						</labels>
					</clipitem>
					<clipitem id="clipitem-1414">
						<masterclipid>masterclip-1411</masterclipid>
						<name>TKO_020_CHA_Sh14680.mov</name>
						<enabled>TRUE</enabled>
						<duration>24</duration>
						<rate>
							<timebase>24</timebase>
							<ntsc>TRUE</ntsc>
						</rate>
						<start>102367</start>
						<end>102383</end>
						<in>4</in>
						<out>20</out>
						<pproTicksIn>42378336000</pproTicksIn>
						<pproTicksOut>211891680000</pproTicksOut>
						<alphatype>none</alphatype>
						<pixelaspectratio>square</pixelaspectratio>
						<anamorphic>FALSE</anamorphic>
						<file id="file-1411">
							<name>TKO_020_CHA_Sh14680.mov</name>
							<pathurl>file://tri-stor01/Projects/TKO/SHOTS/_Refs_Movs_Burnin_FrameCounter/TKO_020_CHA_Sh14680.mov</pathurl>
							<rate>
								<timebase>24</timebase>
								<ntsc>TRUE</ntsc>
							</rate>
							<duration>24</duration>
							<timecode>
								<rate>
									<timebase>24</timebase>
									<ntsc>TRUE</ntsc>
								</rate>
								<string>12:54:14:10</string>
								<frame>1114906</frame>
								<displayformat>NDF</displayformat>
								<reel>
									<name>C0320002</name>
								</reel>
							</timecode>
							<media>
								<video>
									<samplecharacteristics>
										<rate>
											<timebase>24</timebase>
											<ntsc>TRUE</ntsc>
										</rate>
										<width>3840</width>
										<height>2160</height>
										<anamorphic>FALSE</anamorphic>
										<pixelaspectratio>square</pixelaspectratio>
										<fielddominance>none</fielddominance>
									</samplecharacteristics>
								</video>
							</media>
						</file>
						<logginginfo>
							<description></description>
							<scene></scene>
							<shottake></shottake>
							<lognote></lognote>
							<good></good>
							<originalvideofilename></originalvideofilename>
							<originalaudiofilename></originalaudiofilename>
						</logginginfo>
						<colorinfo>
							<lut></lut>
							<lut1></lut1>
							<asc_sop></asc_sop>
							<asc_sat></asc_sat>
							<lut2></lut2>
						</colorinfo>
						<labels>
							<label2>Violet</label2>
						</labels>
					</clipitem>
					<clipitem id="clipitem-1415">
						<masterclipid>masterclip-1412</masterclipid>
						<name>TKO_020_CHA_Sh14690.mov</name>
						<enabled>TRUE</enabled>
						<duration>42</duration>
						<rate>
							<timebase>24</timebase>
							<ntsc>TRUE</ntsc>
						</rate>
						<start>102383</start>
						<end>102417</end>
						<in>4</in>
						<out>38</out>
						<pproTicksIn>42378336000</pproTicksIn>
						<pproTicksOut>402594192000</pproTicksOut>
						<alphatype>none</alphatype>
						<pixelaspectratio>square</pixelaspectratio>
						<anamorphic>FALSE</anamorphic>
						<file id="file-1412">
							<name>TKO_020_CHA_Sh14690.mov</name>
							<pathurl>file://tri-stor01/Projects/TKO/SHOTS/_Refs_Movs_Burnin_FrameCounter/TKO_020_CHA_Sh14690.mov</pathurl>
							<rate>
								<timebase>24</timebase>
								<ntsc>TRUE</ntsc>
							</rate>
							<duration>42</duration>
							<timecode>
								<rate>
									<timebase>24</timebase>
									<ntsc>TRUE</ntsc>
								</rate>
								<string>12:55:29:20</string>
								<frame>1116716</frame>
								<displayformat>NDF</displayformat>
								<reel>
									<name>C0320002</name>
								</reel>
							</timecode>
							<media>
								<video>
									<samplecharacteristics>
										<rate>
											<timebase>24</timebase>
											<ntsc>TRUE</ntsc>
										</rate>
										<width>3840</width>
										<height>2160</height>
										<anamorphic>FALSE</anamorphic>
										<pixelaspectratio>square</pixelaspectratio>
										<fielddominance>none</fielddominance>
									</samplecharacteristics>
								</video>
							</media>
						</file>
						<logginginfo>
							<description></description>
							<scene></scene>
							<shottake></shottake>
							<lognote></lognote>
							<good></good>
							<originalvideofilename></originalvideofilename>
							<originalaudiofilename></originalaudiofilename>
						</logginginfo>
						<colorinfo>
							<lut></lut>
							<lut1></lut1>
							<asc_sop></asc_sop>
							<asc_sat></asc_sat>
							<lut2></lut2>
						</colorinfo>
						<labels>
							<label2>Violet</label2>
						</labels>
					</clipitem>
					<clipitem id="clipitem-1416">
						<masterclipid>masterclip-1413</masterclipid>
						<name>TKO_020_CHA_Sh14700_CG_BG_BEAUTY_V02.mov</name>
						<enabled>TRUE</enabled>
						<duration>71</duration>
						<rate>
							<timebase>24</timebase>
							<ntsc>TRUE</ntsc>
						</rate>
						<start>102417</start>
						<end>102479</end>
						<in>4</in>
						<out>66</out>
						<pproTicksIn>42378336000</pproTicksIn>
						<pproTicksOut>699242544000</pproTicksOut>
						<alphatype>none</alphatype>
						<pixelaspectratio>square</pixelaspectratio>
						<anamorphic>FALSE</anamorphic>
						<file id="file-1413">
							<name>TKO_020_CHA_Sh14700_CG_BG_BEAUTY_V02.mov</name>
							<pathurl>file://localhost/W%3a/TKO/SHOTS/TKO_020_CHA/TKO_020_CHA_Sh14700/CG/BG/BEAUTY/V02/TKO_020_CHA_Sh14700_CG_BG_BEAUTY_V02.mov</pathurl>
							<rate>
								<timebase>24</timebase>
								<ntsc>TRUE</ntsc>
							</rate>
							<duration>71</duration>
							<timecode>
								<rate>
									<timebase>24</timebase>
									<ntsc>TRUE</ntsc>
								</rate>
								<string>00:00:00:00</string>
								<frame>0</frame>
								<displayformat>NDF</displayformat>
							</timecode>
							<media>
								<video>
									<samplecharacteristics>
										<rate>
											<timebase>24</timebase>
											<ntsc>TRUE</ntsc>
										</rate>
										<width>1920</width>
										<height>1080</height>
										<anamorphic>FALSE</anamorphic>
										<pixelaspectratio>square</pixelaspectratio>
										<fielddominance>none</fielddominance>
									</samplecharacteristics>
								</video>
							</media>
						</file>
						<logginginfo>
							<description></description>
							<scene></scene>
							<shottake></shottake>
							<lognote></lognote>
							<good></good>
							<originalvideofilename></originalvideofilename>
							<originalaudiofilename></originalaudiofilename>
						</logginginfo>
						<colorinfo>
							<lut></lut>
							<lut1></lut1>
							<asc_sop></asc_sop>
							<asc_sat></asc_sat>
							<lut2></lut2>
						</colorinfo>
						<labels>
							<label2>Violet</label2>
						</labels>
					</clipitem>
					<clipitem id="clipitem-1417">
						<masterclipid>masterclip-1414</masterclipid>
						<name>TKO_020_CHA_Sh14710.mov</name>
						<enabled>TRUE</enabled>
						<duration>75</duration>
						<rate>
							<timebase>24</timebase>
							<ntsc>TRUE</ntsc>
						</rate>
						<start>102479</start>
						<end>102547</end>
						<in>4</in>
						<out>72</out>
						<pproTicksIn>42378336000</pproTicksIn>
						<pproTicksOut>762810048000</pproTicksOut>
						<alphatype>none</alphatype>
						<pixelaspectratio>square</pixelaspectratio>
						<anamorphic>FALSE</anamorphic>
						<file id="file-1414">
							<name>TKO_020_CHA_Sh14710.mov</name>
							<pathurl>file://tri-stor01/Projects/TKO/SHOTS/_Refs_Movs_Burnin_FrameCounter/TKO_020_CHA_Sh14710.mov</pathurl>
							<rate>
								<timebase>24</timebase>
								<ntsc>FALSE</ntsc>
							</rate>
							<duration>76</duration>
							<timecode>
								<rate>
									<timebase>24</timebase>
									<ntsc>FALSE</ntsc>
								</rate>
								<string>00:00:00:09</string>
								<frame>9</frame>
								<displayformat>NDF</displayformat>
							</timecode>
							<media>
								<video>
									<samplecharacteristics>
										<rate>
											<timebase>24</timebase>
											<ntsc>FALSE</ntsc>
										</rate>
										<width>960</width>
										<height>420</height>
										<anamorphic>FALSE</anamorphic>
										<pixelaspectratio>square</pixelaspectratio>
										<fielddominance>none</fielddominance>
									</samplecharacteristics>
								</video>
							</media>
						</file>
						<logginginfo>
							<description></description>
							<scene></scene>
							<shottake></shottake>
							<lognote></lognote>
							<good></good>
							<originalvideofilename></originalvideofilename>
							<originalaudiofilename></originalaudiofilename>
						</logginginfo>
						<colorinfo>
							<lut></lut>
							<lut1></lut1>
							<asc_sop></asc_sop>
							<asc_sat></asc_sat>
							<lut2></lut2>
						</colorinfo>
						<labels>
							<label2>Violet</label2>
						</labels>
					</clipitem>
					<clipitem id="clipitem-1418">
						<masterclipid>masterclip-1415</masterclipid>
						<name>TKO_020_CHA_Sh14720.mov</name>
						<enabled>TRUE</enabled>
						<duration>55</duration>
						<rate>
							<timebase>24</timebase>
							<ntsc>TRUE</ntsc>
						</rate>
						<start>102547</start>
						<end>102594</end>
						<in>4</in>
						<out>51</out>
						<pproTicksIn>42378336000</pproTicksIn>
						<pproTicksOut>540323784000</pproTicksOut>
						<alphatype>none</alphatype>
						<pixelaspectratio>square</pixelaspectratio>
						<anamorphic>FALSE</anamorphic>
						<file id="file-1415">
							<name>TKO_020_CHA_Sh14720.mov</name>
							<pathurl>file://tri-stor01/Projects/TKO/SHOTS/_Refs_Movs_Burnin_FrameCounter/TKO_020_CHA_Sh14720.mov</pathurl>
							<rate>
								<timebase>24</timebase>
								<ntsc>TRUE</ntsc>
							</rate>
							<duration>55</duration>
							<timecode>
								<rate>
									<timebase>24</timebase>
									<ntsc>TRUE</ntsc>
								</rate>
								<string>00:58:10:08</string>
								<frame>83768</frame>
								<displayformat>NDF</displayformat>
							</timecode>
							<media>
								<video>
									<samplecharacteristics>
										<rate>
											<timebase>24</timebase>
											<ntsc>TRUE</ntsc>
										</rate>
										<width>1280</width>
										<height>720</height>
										<anamorphic>FALSE</anamorphic>
										<pixelaspectratio>square</pixelaspectratio>
										<fielddominance>none</fielddominance>
									</samplecharacteristics>
								</video>
							</media>
						</file>
						<logginginfo>
							<description></description>
							<scene></scene>
							<shottake></shottake>
							<lognote></lognote>
							<good></good>
							<originalvideofilename></originalvideofilename>
							<originalaudiofilename></originalaudiofilename>
						</logginginfo>
						<colorinfo>
							<lut></lut>
							<lut1></lut1>
							<asc_sop></asc_sop>
							<asc_sat></asc_sat>
							<lut2></lut2>
						</colorinfo>
						<labels>
							<label2>Violet</label2>
						</labels>
					</clipitem>
					<clipitem id="clipitem-1419">
						<masterclipid>masterclip-1416</masterclipid>
						<name>TKO_020_CHA_Sh14730.mov</name>
						<enabled>TRUE</enabled>
						<duration>57</duration>
						<rate>
							<timebase>24</timebase>
							<ntsc>TRUE</ntsc>
						</rate>
						<start>102594</start>
						<end>102643</end>
						<in>4</in>
						<out>53</out>
						<pproTicksIn>42378336000</pproTicksIn>
						<pproTicksOut>561512952000</pproTicksOut>
						<alphatype>none</alphatype>
						<pixelaspectratio>square</pixelaspectratio>
						<anamorphic>FALSE</anamorphic>
						<file id="file-1416">
							<name>TKO_020_CHA_Sh14730.mov</name>
							<pathurl>file://tri-stor01/Projects/TKO/SHOTS/_Refs_Movs_Burnin_FrameCounter/TKO_020_CHA_Sh14730.mov</pathurl>
							<rate>
								<timebase>24</timebase>
								<ntsc>TRUE</ntsc>
							</rate>
							<duration>57</duration>
							<timecode>
								<rate>
									<timebase>24</timebase>
									<ntsc>TRUE</ntsc>
								</rate>
								<string>00:58:17:05</string>
								<frame>83933</frame>
								<displayformat>NDF</displayformat>
							</timecode>
							<media>
								<video>
									<samplecharacteristics>
										<rate>
											<timebase>24</timebase>
											<ntsc>TRUE</ntsc>
										</rate>
										<width>1280</width>
										<height>720</height>
										<anamorphic>FALSE</anamorphic>
										<pixelaspectratio>square</pixelaspectratio>
										<fielddominance>none</fielddominance>
									</samplecharacteristics>
								</video>
							</media>
						</file>
						<logginginfo>
							<description></description>
							<scene></scene>
							<shottake></shottake>
							<lognote></lognote>
							<good></good>
							<originalvideofilename></originalvideofilename>
							<originalaudiofilename></originalaudiofilename>
						</logginginfo>
						<colorinfo>
							<lut></lut>
							<lut1></lut1>
							<asc_sop></asc_sop>
							<asc_sat></asc_sat>
							<lut2></lut2>
						</colorinfo>
						<labels>
							<label2>Violet</label2>
						</labels>
					</clipitem>
					<clipitem id="clipitem-1420">
						<masterclipid>masterclip-1417</masterclipid>
						<name>TKO_020_CHA_Sh14740.mov</name>
						<enabled>TRUE</enabled>
						<duration>66</duration>
						<rate>
							<timebase>24</timebase>
							<ntsc>TRUE</ntsc>
						</rate>
						<start>102643</start>
						<end>102701</end>
						<in>4</in>
						<out>62</out>
						<pproTicksIn>42378336000</pproTicksIn>
						<pproTicksOut>656864208000</pproTicksOut>
						<alphatype>none</alphatype>
						<pixelaspectratio>square</pixelaspectratio>
						<anamorphic>FALSE</anamorphic>
						<file id="file-1417">
							<name>TKO_020_CHA_Sh14740.mov</name>
							<pathurl>file://tri-stor01/Projects/TKO/SHOTS/_Refs_Movs_Burnin_FrameCounter/TKO_020_CHA_Sh14740.mov</pathurl>
							<rate>
								<timebase>24</timebase>
								<ntsc>TRUE</ntsc>
							</rate>
							<duration>66</duration>
							<timecode>
								<rate>
									<timebase>24</timebase>
									<ntsc>TRUE</ntsc>
								</rate>
								<string>14:33:12:06</string>
								<frame>1257414</frame>
								<displayformat>NDF</displayformat>
								<reel>
									<name>B0230013</name>
								</reel>
							</timecode>
							<media>
								<video>
									<samplecharacteristics>
										<rate>
											<timebase>24</timebase>
											<ntsc>TRUE</ntsc>
										</rate>
										<width>4096</width>
										<height>2160</height>
										<anamorphic>FALSE</anamorphic>
										<pixelaspectratio>square</pixelaspectratio>
										<fielddominance>none</fielddominance>
									</samplecharacteristics>
								</video>
							</media>
						</file>
						<logginginfo>
							<description></description>
							<scene></scene>
							<shottake></shottake>
							<lognote></lognote>
							<good></good>
							<originalvideofilename></originalvideofilename>
							<originalaudiofilename></originalaudiofilename>
						</logginginfo>
						<colorinfo>
							<lut></lut>
							<lut1></lut1>
							<asc_sop></asc_sop>
							<asc_sat></asc_sat>
							<lut2></lut2>
						</colorinfo>
						<labels>
							<label2>Violet</label2>
						</labels>
					</clipitem>
					<clipitem id="clipitem-1421">
						<masterclipid>masterclip-1418</masterclipid>
						<name>TKO_020_CHA_Sh14750.mov</name>
						<enabled>TRUE</enabled>
						<duration>61</duration>
						<rate>
							<timebase>24</timebase>
							<ntsc>TRUE</ntsc>
						</rate>
						<start>102701</start>
						<end>102754</end>
						<in>4</in>
						<out>57</out>
						<pproTicksIn>42378336000</pproTicksIn>
						<pproTicksOut>603891288000</pproTicksOut>
						<alphatype>none</alphatype>
						<pixelaspectratio>square</pixelaspectratio>
						<anamorphic>FALSE</anamorphic>
						<file id="file-1418">
							<name>TKO_020_CHA_Sh14750.mov</name>
							<pathurl>file://tri-stor01/Projects/TKO/SHOTS/_Refs_Movs_Burnin_FrameCounter/TKO_020_CHA_Sh14750.mov</pathurl>
							<rate>
								<timebase>24</timebase>
								<ntsc>TRUE</ntsc>
							</rate>
							<duration>61</duration>
							<timecode>
								<rate>
									<timebase>24</timebase>
									<ntsc>TRUE</ntsc>
								</rate>
								<string>07:43:58:09</string>
								<frame>668121</frame>
								<displayformat>NDF</displayformat>
								<reel>
									<name>C0190006</name>
								</reel>
							</timecode>
							<media>
								<video>
									<samplecharacteristics>
										<rate>
											<timebase>24</timebase>
											<ntsc>TRUE</ntsc>
										</rate>
										<width>3840</width>
										<height>2160</height>
										<anamorphic>FALSE</anamorphic>
										<pixelaspectratio>square</pixelaspectratio>
										<fielddominance>none</fielddominance>
									</samplecharacteristics>
								</video>
							</media>
						</file>
						<logginginfo>
							<description></description>
							<scene></scene>
							<shottake></shottake>
							<lognote></lognote>
							<good></good>
							<originalvideofilename></originalvideofilename>
							<originalaudiofilename></originalaudiofilename>
						</logginginfo>
						<colorinfo>
							<lut></lut>
							<lut1></lut1>
							<asc_sop></asc_sop>
							<asc_sat></asc_sat>
							<lut2></lut2>
						</colorinfo>
						<labels>
							<label2>Violet</label2>
						</labels>
					</clipitem>
					<clipitem id="clipitem-1422">
						<masterclipid>masterclip-1419</masterclipid>
						<name>TKO_020_CHA_Sh14760.mov</name>
						<enabled>TRUE</enabled>
						<duration>180</duration>
						<rate>
							<timebase>24</timebase>
							<ntsc>TRUE</ntsc>
						</rate>
						<start>102754</start>
						<end>102926</end>
						<in>4</in>
						<out>176</out>
						<pproTicksIn>42378336000</pproTicksIn>
						<pproTicksOut>1864646784000</pproTicksOut>
						<alphatype>none</alphatype>
						<pixelaspectratio>square</pixelaspectratio>
						<anamorphic>FALSE</anamorphic>
						<file id="file-1419">
							<name>TKO_020_CHA_Sh14760.mov</name>
							<pathurl>file://localhost/W%3a/TKO/SHOTS/TKO_020_CHA/TKO_020_CHA_Sh14760/PLATES/_Reference/TKO_020_CHA_Sh14760.mov</pathurl>
							<rate>
								<timebase>24</timebase>
								<ntsc>TRUE</ntsc>
							</rate>
							<duration>180</duration>
							<timecode>
								<rate>
									<timebase>24</timebase>
									<ntsc>TRUE</ntsc>
								</rate>
								<string>14:33:16:21</string>
								<frame>1257525</frame>
								<displayformat>NDF</displayformat>
								<reel>
									<name>A0270013</name>
								</reel>
							</timecode>
							<media>
								<video>
									<samplecharacteristics>
										<rate>
											<timebase>24</timebase>
											<ntsc>TRUE</ntsc>
										</rate>
										<width>4096</width>
										<height>2160</height>
										<anamorphic>FALSE</anamorphic>
										<pixelaspectratio>square</pixelaspectratio>
										<fielddominance>none</fielddominance>
									</samplecharacteristics>
								</video>
							</media>
						</file>
						<logginginfo>
							<description></description>
							<scene></scene>
							<shottake></shottake>
							<lognote></lognote>
							<good></good>
							<originalvideofilename></originalvideofilename>
							<originalaudiofilename></originalaudiofilename>
						</logginginfo>
						<colorinfo>
							<lut></lut>
							<lut1></lut1>
							<asc_sop></asc_sop>
							<asc_sat></asc_sat>
							<lut2></lut2>
						</colorinfo>
						<labels>
							<label2>Violet</label2>
						</labels>
					</clipitem>
					<clipitem id="clipitem-1423">
						<masterclipid>masterclip-1420</masterclipid>
						<name>TKO_020_CHA_Sh14770.mov</name>
						<enabled>TRUE</enabled>
						<duration>62</duration>
						<rate>
							<timebase>24</timebase>
							<ntsc>TRUE</ntsc>
						</rate>
						<start>102926</start>
						<end>102980</end>
						<in>4</in>
						<out>58</out>
						<pproTicksIn>42378336000</pproTicksIn>
						<pproTicksOut>614485872000</pproTicksOut>
						<alphatype>none</alphatype>
						<pixelaspectratio>square</pixelaspectratio>
						<anamorphic>FALSE</anamorphic>
						<file id="file-1420">
							<name>TKO_020_CHA_Sh14770.mov</name>
							<pathurl>file://tri-stor01/Projects/TKO/SHOTS/_Refs_Movs_Burnin_FrameCounter/TKO_020_CHA_Sh14770.mov</pathurl>
							<rate>
								<timebase>24</timebase>
								<ntsc>TRUE</ntsc>
							</rate>
							<duration>62</duration>
							<timecode>
								<rate>
									<timebase>24</timebase>
									<ntsc>TRUE</ntsc>
								</rate>
								<string>14:33:24:01</string>
								<frame>1257697</frame>
								<displayformat>NDF</displayformat>
								<reel>
									<name>B0230013</name>
								</reel>
							</timecode>
							<media>
								<video>
									<samplecharacteristics>
										<rate>
											<timebase>24</timebase>
											<ntsc>TRUE</ntsc>
										</rate>
										<width>4096</width>
										<height>2160</height>
										<anamorphic>FALSE</anamorphic>
										<pixelaspectratio>square</pixelaspectratio>
										<fielddominance>none</fielddominance>
									</samplecharacteristics>
								</video>
							</media>
						</file>
						<logginginfo>
							<description></description>
							<scene></scene>
							<shottake></shottake>
							<lognote></lognote>
							<good></good>
							<originalvideofilename></originalvideofilename>
							<originalaudiofilename></originalaudiofilename>
						</logginginfo>
						<colorinfo>
							<lut></lut>
							<lut1></lut1>
							<asc_sop></asc_sop>
							<asc_sat></asc_sat>
							<lut2></lut2>
						</colorinfo>
						<labels>
							<label2>Violet</label2>
						</labels>
					</clipitem>
					<clipitem id="clipitem-1424">
						<masterclipid>masterclip-1421</masterclipid>
						<name>TKO_020_CHA_Sh14780.mov</name>
						<enabled>TRUE</enabled>
						<duration>44</duration>
						<rate>
							<timebase>24</timebase>
							<ntsc>TRUE</ntsc>
						</rate>
						<start>102980</start>
						<end>103016</end>
						<in>4</in>
						<out>40</out>
						<pproTicksIn>42378336000</pproTicksIn>
						<pproTicksOut>423783360000</pproTicksOut>
						<alphatype>none</alphatype>
						<pixelaspectratio>square</pixelaspectratio>
						<anamorphic>FALSE</anamorphic>
						<file id="file-1421">
							<name>TKO_020_CHA_Sh14780.mov</name>
							<pathurl>file://tri-stor01/Projects/TKO/SHOTS/_Refs_Movs_Burnin_FrameCounter/TKO_020_CHA_Sh14780.mov</pathurl>
							<rate>
								<timebase>24</timebase>
								<ntsc>TRUE</ntsc>
							</rate>
							<duration>44</duration>
							<timecode>
								<rate>
									<timebase>24</timebase>
									<ntsc>TRUE</ntsc>
								</rate>
								<string>07:44:10:00</string>
								<frame>668400</frame>
								<displayformat>NDF</displayformat>
								<reel>
									<name>C0190006</name>
								</reel>
							</timecode>
							<media>
								<video>
									<samplecharacteristics>
										<rate>
											<timebase>24</timebase>
											<ntsc>TRUE</ntsc>
										</rate>
										<width>3840</width>
										<height>2160</height>
										<anamorphic>FALSE</anamorphic>
										<pixelaspectratio>square</pixelaspectratio>
										<fielddominance>none</fielddominance>
									</samplecharacteristics>
								</video>
							</media>
						</file>
						<logginginfo>
							<description></description>
							<scene></scene>
							<shottake></shottake>
							<lognote></lognote>
							<good></good>
							<originalvideofilename></originalvideofilename>
							<originalaudiofilename></originalaudiofilename>
						</logginginfo>
						<colorinfo>
							<lut></lut>
							<lut1></lut1>
							<asc_sop></asc_sop>
							<asc_sat></asc_sat>
							<lut2></lut2>
						</colorinfo>
						<labels>
							<label2>Violet</label2>
						</labels>
					</clipitem>
					<clipitem id="clipitem-1425">
						<masterclipid>masterclip-1422</masterclipid>
						<name>TKO_020_CHA_Sh14790.mov</name>
						<enabled>TRUE</enabled>
						<duration>60</duration>
						<rate>
							<timebase>24</timebase>
							<ntsc>TRUE</ntsc>
						</rate>
						<start>103016</start>
						<end>103068</end>
						<in>4</in>
						<out>56</out>
						<pproTicksIn>42378336000</pproTicksIn>
						<pproTicksOut>593296704000</pproTicksOut>
						<alphatype>none</alphatype>
						<pixelaspectratio>square</pixelaspectratio>
						<anamorphic>FALSE</anamorphic>
						<file id="file-1422">
							<name>TKO_020_CHA_Sh14790.mov</name>
							<pathurl>file://tri-stor01/Projects/TKO/SHOTS/_Refs_Movs_Burnin_FrameCounter/TKO_020_CHA_Sh14790.mov</pathurl>
							<rate>
								<timebase>24</timebase>
								<ntsc>TRUE</ntsc>
							</rate>
							<duration>60</duration>
							<timecode>
								<rate>
									<timebase>24</timebase>
									<ntsc>TRUE</ntsc>
								</rate>
								<string>13:27:02:22</string>
								<frame>1162150</frame>
								<displayformat>NDF</displayformat>
								<reel>
									<name>A0330010</name>
								</reel>
							</timecode>
							<media>
								<video>
									<samplecharacteristics>
										<rate>
											<timebase>24</timebase>
											<ntsc>TRUE</ntsc>
										</rate>
										<width>4096</width>
										<height>2160</height>
										<anamorphic>FALSE</anamorphic>
										<pixelaspectratio>square</pixelaspectratio>
										<fielddominance>none</fielddominance>
									</samplecharacteristics>
								</video>
							</media>
						</file>
						<logginginfo>
							<description></description>
							<scene></scene>
							<shottake></shottake>
							<lognote></lognote>
							<good></good>
							<originalvideofilename></originalvideofilename>
							<originalaudiofilename></originalaudiofilename>
						</logginginfo>
						<colorinfo>
							<lut></lut>
							<lut1></lut1>
							<asc_sop></asc_sop>
							<asc_sat></asc_sat>
							<lut2></lut2>
						</colorinfo>
						<labels>
							<label2>Violet</label2>
						</labels>
					</clipitem>
					<clipitem id="clipitem-1426">
						<masterclipid>masterclip-1423</masterclipid>
						<name>TKO_020_CHA_Sh14800_CG_BG_BEAUTY_V02.mov</name>
						<enabled>TRUE</enabled>
						<duration>51</duration>
						<rate>
							<timebase>24</timebase>
							<ntsc>TRUE</ntsc>
						</rate>
						<start>103068</start>
						<end>103110</end>
						<in>4</in>
						<out>46</out>
						<pproTicksIn>42378336000</pproTicksIn>
						<pproTicksOut>487350864000</pproTicksOut>
						<alphatype>none</alphatype>
						<pixelaspectratio>square</pixelaspectratio>
						<anamorphic>FALSE</anamorphic>
						<file id="file-1423">
							<name>TKO_020_CHA_Sh14800_CG_BG_BEAUTY_V02.mov</name>
							<pathurl>file://localhost/W%3a/TKO/SHOTS/TKO_020_CHA/TKO_020_CHA_Sh14800/CG/BG/BEAUTY/V02/TKO_020_CHA_Sh14800_CG_BG_BEAUTY_V02.mov</pathurl>
							<rate>
								<timebase>24</timebase>
								<ntsc>TRUE</ntsc>
							</rate>
							<duration>51</duration>
							<timecode>
								<rate>
									<timebase>24</timebase>
									<ntsc>TRUE</ntsc>
								</rate>
								<string>00:00:00:00</string>
								<frame>0</frame>
								<displayformat>NDF</displayformat>
							</timecode>
							<media>
								<video>
									<samplecharacteristics>
										<rate>
											<timebase>24</timebase>
											<ntsc>TRUE</ntsc>
										</rate>
										<width>1920</width>
										<height>1080</height>
										<anamorphic>FALSE</anamorphic>
										<pixelaspectratio>square</pixelaspectratio>
										<fielddominance>none</fielddominance>
									</samplecharacteristics>
								</video>
							</media>
						</file>
						<logginginfo>
							<description></description>
							<scene></scene>
							<shottake></shottake>
							<lognote></lognote>
							<good></good>
							<originalvideofilename></originalvideofilename>
							<originalaudiofilename></originalaudiofilename>
						</logginginfo>
						<colorinfo>
							<lut></lut>
							<lut1></lut1>
							<asc_sop></asc_sop>
							<asc_sat></asc_sat>
							<lut2></lut2>
						</colorinfo>
						<labels>
							<label2>Violet</label2>
						</labels>
					</clipitem>
					<clipitem id="clipitem-1427">
						<masterclipid>masterclip-1424</masterclipid>
						<name>TKO_020_CHA_Sh14810.mov</name>
						<enabled>TRUE</enabled>
						<duration>50</duration>
						<rate>
							<timebase>24</timebase>
							<ntsc>TRUE</ntsc>
						</rate>
						<start>103110</start>
						<end>103152</end>
						<in>4</in>
						<out>46</out>
						<pproTicksIn>42378336000</pproTicksIn>
						<pproTicksOut>487350864000</pproTicksOut>
						<alphatype>none</alphatype>
						<pixelaspectratio>square</pixelaspectratio>
						<anamorphic>FALSE</anamorphic>
						<file id="file-1424">
							<name>TKO_020_CHA_Sh14810.mov</name>
							<pathurl>file://tri-stor01/Projects/TKO/SHOTS/_Refs_Movs_Burnin_FrameCounter/TKO_020_CHA_Sh14810.mov</pathurl>
							<rate>
								<timebase>24</timebase>
								<ntsc>TRUE</ntsc>
							</rate>
							<duration>50</duration>
							<timecode>
								<rate>
									<timebase>24</timebase>
									<ntsc>TRUE</ntsc>
								</rate>
								<string>15:05:04:17</string>
								<frame>1303313</frame>
								<displayformat>NDF</displayformat>
								<reel>
									<name>A0270016</name>
								</reel>
							</timecode>
							<media>
								<video>
									<samplecharacteristics>
										<rate>
											<timebase>24</timebase>
											<ntsc>TRUE</ntsc>
										</rate>
										<width>4096</width>
										<height>2160</height>
										<anamorphic>FALSE</anamorphic>
										<pixelaspectratio>square</pixelaspectratio>
										<fielddominance>none</fielddominance>
									</samplecharacteristics>
								</video>
							</media>
						</file>
						<logginginfo>
							<description></description>
							<scene></scene>
							<shottake></shottake>
							<lognote></lognote>
							<good></good>
							<originalvideofilename></originalvideofilename>
							<originalaudiofilename></originalaudiofilename>
						</logginginfo>
						<colorinfo>
							<lut></lut>
							<lut1></lut1>
							<asc_sop></asc_sop>
							<asc_sat></asc_sat>
							<lut2></lut2>
						</colorinfo>
						<labels>
							<label2>Violet</label2>
						</labels>
					</clipitem>
					<clipitem id="clipitem-1428">
						<masterclipid>masterclip-1425</masterclipid>
						<name>TKO_020_CHA_Sh14820.mov</name>
						<enabled>TRUE</enabled>
						<duration>56</duration>
						<rate>
							<timebase>24</timebase>
							<ntsc>TRUE</ntsc>
						</rate>
						<start>103152</start>
						<end>103200</end>
						<in>4</in>
						<out>52</out>
						<pproTicksIn>42378336000</pproTicksIn>
						<pproTicksOut>550918368000</pproTicksOut>
						<alphatype>none</alphatype>
						<pixelaspectratio>square</pixelaspectratio>
						<anamorphic>FALSE</anamorphic>
						<file id="file-1425">
							<name>TKO_020_CHA_Sh14820.mov</name>
							<pathurl>file://tri-stor01/Projects/TKO/SHOTS/_Refs_Movs_Burnin_FrameCounter/TKO_020_CHA_Sh14820.mov</pathurl>
							<rate>
								<timebase>24</timebase>
								<ntsc>TRUE</ntsc>
							</rate>
							<duration>56</duration>
							<timecode>
								<rate>
									<timebase>24</timebase>
									<ntsc>TRUE</ntsc>
								</rate>
								<string>13:27:06:19</string>
								<frame>1162243</frame>
								<displayformat>NDF</displayformat>
								<reel>
									<name>B0270007</name>
								</reel>
							</timecode>
							<media>
								<video>
									<samplecharacteristics>
										<rate>
											<timebase>24</timebase>
											<ntsc>TRUE</ntsc>
										</rate>
										<width>4096</width>
										<height>2160</height>
										<anamorphic>FALSE</anamorphic>
										<pixelaspectratio>square</pixelaspectratio>
										<fielddominance>none</fielddominance>
									</samplecharacteristics>
								</video>
							</media>
						</file>
						<logginginfo>
							<description></description>
							<scene></scene>
							<shottake></shottake>
							<lognote></lognote>
							<good></good>
							<originalvideofilename></originalvideofilename>
							<originalaudiofilename></originalaudiofilename>
						</logginginfo>
						<colorinfo>
							<lut></lut>
							<lut1></lut1>
							<asc_sop></asc_sop>
							<asc_sat></asc_sat>
							<lut2></lut2>
						</colorinfo>
						<labels>
							<label2>Violet</label2>
						</labels>
					</clipitem>
					<clipitem id="clipitem-1429">
						<masterclipid>masterclip-1426</masterclipid>
						<name>TKO_020_CHA_Sh14830.mov</name>
						<enabled>TRUE</enabled>
						<duration>51</duration>
						<rate>
							<timebase>24</timebase>
							<ntsc>TRUE</ntsc>
						</rate>
						<start>103200</start>
						<end>103243</end>
						<in>4</in>
						<out>47</out>
						<pproTicksIn>42378336000</pproTicksIn>
						<pproTicksOut>497945448000</pproTicksOut>
						<alphatype>none</alphatype>
						<pixelaspectratio>square</pixelaspectratio>
						<anamorphic>FALSE</anamorphic>
						<file id="file-1426">
							<name>TKO_020_CHA_Sh14830.mov</name>
							<pathurl>file://tri-stor01/Projects/TKO/SHOTS/_Refs_Movs_Burnin_FrameCounter/TKO_020_CHA_Sh14830.mov</pathurl>
							<rate>
								<timebase>24</timebase>
								<ntsc>TRUE</ntsc>
							</rate>
							<duration>51</duration>
							<timecode>
								<rate>
									<timebase>24</timebase>
									<ntsc>TRUE</ntsc>
								</rate>
								<string>13:27:08:14</string>
								<frame>1162286</frame>
								<displayformat>NDF</displayformat>
								<reel>
									<name>A0330010</name>
								</reel>
							</timecode>
							<media>
								<video>
									<samplecharacteristics>
										<rate>
											<timebase>24</timebase>
											<ntsc>TRUE</ntsc>
										</rate>
										<width>4096</width>
										<height>2160</height>
										<anamorphic>FALSE</anamorphic>
										<pixelaspectratio>square</pixelaspectratio>
										<fielddominance>none</fielddominance>
									</samplecharacteristics>
								</video>
							</media>
						</file>
						<logginginfo>
							<description></description>
							<scene></scene>
							<shottake></shottake>
							<lognote></lognote>
							<good></good>
							<originalvideofilename></originalvideofilename>
							<originalaudiofilename></originalaudiofilename>
						</logginginfo>
						<colorinfo>
							<lut></lut>
							<lut1></lut1>
							<asc_sop></asc_sop>
							<asc_sat></asc_sat>
							<lut2></lut2>
						</colorinfo>
						<labels>
							<label2>Violet</label2>
						</labels>
					</clipitem>
					<clipitem id="clipitem-1430">
						<masterclipid>masterclip-1427</masterclipid>
						<name>TKO_020_CHA_Sh14840.mov</name>
						<enabled>TRUE</enabled>
						<duration>60</duration>
						<rate>
							<timebase>24</timebase>
							<ntsc>TRUE</ntsc>
						</rate>
						<start>103243</start>
						<end>103295</end>
						<in>4</in>
						<out>56</out>
						<pproTicksIn>42378336000</pproTicksIn>
						<pproTicksOut>593296704000</pproTicksOut>
						<alphatype>none</alphatype>
						<pixelaspectratio>square</pixelaspectratio>
						<anamorphic>FALSE</anamorphic>
						<file id="file-1427">
							<name>TKO_020_CHA_Sh14840.mov</name>
							<pathurl>file://tri-stor01/Projects/TKO/SHOTS/_Refs_Movs_Burnin_FrameCounter/TKO_020_CHA_Sh14840.mov</pathurl>
							<rate>
								<timebase>24</timebase>
								<ntsc>TRUE</ntsc>
							</rate>
							<duration>60</duration>
							<timecode>
								<rate>
									<timebase>24</timebase>
									<ntsc>TRUE</ntsc>
								</rate>
								<string>16:39:46:08</string>
								<frame>1439672</frame>
								<displayformat>NDF</displayformat>
								<reel>
									<name>B0280002</name>
								</reel>
							</timecode>
							<media>
								<video>
									<samplecharacteristics>
										<rate>
											<timebase>24</timebase>
											<ntsc>TRUE</ntsc>
										</rate>
										<width>4096</width>
										<height>2160</height>
										<anamorphic>FALSE</anamorphic>
										<pixelaspectratio>square</pixelaspectratio>
										<fielddominance>none</fielddominance>
									</samplecharacteristics>
								</video>
							</media>
						</file>
						<logginginfo>
							<description></description>
							<scene></scene>
							<shottake></shottake>
							<lognote></lognote>
							<good></good>
							<originalvideofilename></originalvideofilename>
							<originalaudiofilename></originalaudiofilename>
						</logginginfo>
						<colorinfo>
							<lut></lut>
							<lut1></lut1>
							<asc_sop></asc_sop>
							<asc_sat></asc_sat>
							<lut2></lut2>
						</colorinfo>
						<labels>
							<label2>Violet</label2>
						</labels>
					</clipitem>
					<clipitem id="clipitem-1431">
						<masterclipid>masterclip-1428</masterclipid>
						<name>TKO_020_CHA_Sh14850.mov</name>
						<enabled>TRUE</enabled>
						<duration>50</duration>
						<rate>
							<timebase>24</timebase>
							<ntsc>TRUE</ntsc>
						</rate>
						<start>103295</start>
						<end>103337</end>
						<in>4</in>
						<out>46</out>
						<pproTicksIn>42378336000</pproTicksIn>
						<pproTicksOut>487350864000</pproTicksOut>
						<alphatype>none</alphatype>
						<pixelaspectratio>square</pixelaspectratio>
						<anamorphic>FALSE</anamorphic>
						<file id="file-1428">
							<name>TKO_020_CHA_Sh14850.mov</name>
							<pathurl>file://tri-stor01/Projects/TKO/SHOTS/_Refs_Movs_Burnin_FrameCounter/TKO_020_CHA_Sh14850.mov</pathurl>
							<rate>
								<timebase>24</timebase>
								<ntsc>TRUE</ntsc>
							</rate>
							<duration>50</duration>
							<timecode>
								<rate>
									<timebase>24</timebase>
									<ntsc>TRUE</ntsc>
								</rate>
								<string>14:45:32:09</string>
								<frame>1275177</frame>
								<displayformat>NDF</displayformat>
								<reel>
									<name>B0230016</name>
								</reel>
							</timecode>
							<media>
								<video>
									<samplecharacteristics>
										<rate>
											<timebase>24</timebase>
											<ntsc>TRUE</ntsc>
										</rate>
										<width>4096</width>
										<height>2160</height>
										<anamorphic>FALSE</anamorphic>
										<pixelaspectratio>square</pixelaspectratio>
										<fielddominance>none</fielddominance>
									</samplecharacteristics>
								</video>
							</media>
						</file>
						<logginginfo>
							<description></description>
							<scene></scene>
							<shottake></shottake>
							<lognote></lognote>
							<good></good>
							<originalvideofilename></originalvideofilename>
							<originalaudiofilename></originalaudiofilename>
						</logginginfo>
						<colorinfo>
							<lut></lut>
							<lut1></lut1>
							<asc_sop></asc_sop>
							<asc_sat></asc_sat>
							<lut2></lut2>
						</colorinfo>
						<labels>
							<label2>Violet</label2>
						</labels>
					</clipitem>
					<clipitem id="clipitem-1432">
						<masterclipid>masterclip-1429</masterclipid>
						<name>TKO_020_CHA_Sh14860.mov</name>
						<enabled>TRUE</enabled>
						<duration>34</duration>
						<rate>
							<timebase>24</timebase>
							<ntsc>TRUE</ntsc>
						</rate>
						<start>103337</start>
						<end>103363</end>
						<in>4</in>
						<out>30</out>
						<pproTicksIn>42378336000</pproTicksIn>
						<pproTicksOut>317837520000</pproTicksOut>
						<alphatype>none</alphatype>
						<pixelaspectratio>square</pixelaspectratio>
						<anamorphic>FALSE</anamorphic>
						<file id="file-1429">
							<name>TKO_020_CHA_Sh14860.mov</name>
							<pathurl>file://tri-stor01/Projects/TKO/SHOTS/_Refs_Movs_Burnin_FrameCounter/TKO_020_CHA_Sh14860.mov</pathurl>
							<rate>
								<timebase>24</timebase>
								<ntsc>TRUE</ntsc>
							</rate>
							<duration>34</duration>
							<timecode>
								<rate>
									<timebase>24</timebase>
									<ntsc>TRUE</ntsc>
								</rate>
								<string>00:58:33:09</string>
								<frame>84321</frame>
								<displayformat>NDF</displayformat>
							</timecode>
							<media>
								<video>
									<samplecharacteristics>
										<rate>
											<timebase>24</timebase>
											<ntsc>TRUE</ntsc>
										</rate>
										<width>1280</width>
										<height>720</height>
										<anamorphic>FALSE</anamorphic>
										<pixelaspectratio>square</pixelaspectratio>
										<fielddominance>none</fielddominance>
									</samplecharacteristics>
								</video>
							</media>
						</file>
						<logginginfo>
							<description></description>
							<scene></scene>
							<shottake></shottake>
							<lognote></lognote>
							<good></good>
							<originalvideofilename></originalvideofilename>
							<originalaudiofilename></originalaudiofilename>
						</logginginfo>
						<colorinfo>
							<lut></lut>
							<lut1></lut1>
							<asc_sop></asc_sop>
							<asc_sat></asc_sat>
							<lut2></lut2>
						</colorinfo>
						<labels>
							<label2>Violet</label2>
						</labels>
					</clipitem>
					<clipitem id="clipitem-1433">
						<masterclipid>masterclip-1430</masterclipid>
						<name>TKO_020_CHA_Sh14870.mov</name>
						<enabled>TRUE</enabled>
						<duration>36</duration>
						<rate>
							<timebase>24</timebase>
							<ntsc>TRUE</ntsc>
						</rate>
						<start>103363</start>
						<end>103391</end>
						<in>4</in>
						<out>32</out>
						<pproTicksIn>42378336000</pproTicksIn>
						<pproTicksOut>339026688000</pproTicksOut>
						<alphatype>none</alphatype>
						<pixelaspectratio>square</pixelaspectratio>
						<anamorphic>FALSE</anamorphic>
						<file id="file-1430">
							<name>TKO_020_CHA_Sh14870.mov</name>
							<pathurl>file://tri-stor01/Projects/TKO/SHOTS/_Refs_Movs_Burnin_FrameCounter/TKO_020_CHA_Sh14870.mov</pathurl>
							<rate>
								<timebase>24</timebase>
								<ntsc>TRUE</ntsc>
							</rate>
							<duration>36</duration>
							<timecode>
								<rate>
									<timebase>24</timebase>
									<ntsc>TRUE</ntsc>
								</rate>
								<string>00:58:34:11</string>
								<frame>84347</frame>
								<displayformat>NDF</displayformat>
							</timecode>
							<media>
								<video>
									<samplecharacteristics>
										<rate>
											<timebase>24</timebase>
											<ntsc>TRUE</ntsc>
										</rate>
										<width>1280</width>
										<height>720</height>
										<anamorphic>FALSE</anamorphic>
										<pixelaspectratio>square</pixelaspectratio>
										<fielddominance>none</fielddominance>
									</samplecharacteristics>
								</video>
							</media>
						</file>
						<logginginfo>
							<description></description>
							<scene></scene>
							<shottake></shottake>
							<lognote></lognote>
							<good></good>
							<originalvideofilename></originalvideofilename>
							<originalaudiofilename></originalaudiofilename>
						</logginginfo>
						<colorinfo>
							<lut></lut>
							<lut1></lut1>
							<asc_sop></asc_sop>
							<asc_sat></asc_sat>
							<lut2></lut2>
						</colorinfo>
						<labels>
							<label2>Violet</label2>
						</labels>
					</clipitem>
					<clipitem id="clipitem-1434">
						<masterclipid>masterclip-1431</masterclipid>
						<name>TKO_020_CHA_Sh14880.mov</name>
						<enabled>TRUE</enabled>
						<duration>30</duration>
						<rate>
							<timebase>24</timebase>
							<ntsc>TRUE</ntsc>
						</rate>
						<start>103391</start>
						<end>103413</end>
						<in>4</in>
						<out>26</out>
						<pproTicksIn>42378336000</pproTicksIn>
						<pproTicksOut>275459184000</pproTicksOut>
						<alphatype>none</alphatype>
						<pixelaspectratio>square</pixelaspectratio>
						<anamorphic>FALSE</anamorphic>
						<file id="file-1431">
							<name>TKO_020_CHA_Sh14880.mov</name>
							<pathurl>file://tri-stor01/Projects/TKO/SHOTS/_Refs_Movs_Burnin_FrameCounter/TKO_020_CHA_Sh14880.mov</pathurl>
							<rate>
								<timebase>24</timebase>
								<ntsc>TRUE</ntsc>
							</rate>
							<duration>30</duration>
							<timecode>
								<rate>
									<timebase>24</timebase>
									<ntsc>TRUE</ntsc>
								</rate>
								<string>09:58:45:09</string>
								<frame>862209</frame>
								<displayformat>NDF</displayformat>
								<reel>
									<name>C0230011</name>
								</reel>
							</timecode>
							<media>
								<video>
									<samplecharacteristics>
										<rate>
											<timebase>24</timebase>
											<ntsc>TRUE</ntsc>
										</rate>
										<width>3840</width>
										<height>2160</height>
										<anamorphic>FALSE</anamorphic>
										<pixelaspectratio>square</pixelaspectratio>
										<fielddominance>none</fielddominance>
									</samplecharacteristics>
								</video>
							</media>
						</file>
						<logginginfo>
							<description></description>
							<scene></scene>
							<shottake></shottake>
							<lognote></lognote>
							<good></good>
							<originalvideofilename></originalvideofilename>
							<originalaudiofilename></originalaudiofilename>
						</logginginfo>
						<colorinfo>
							<lut></lut>
							<lut1></lut1>
							<asc_sop></asc_sop>
							<asc_sat></asc_sat>
							<lut2></lut2>
						</colorinfo>
						<labels>
							<label2>Violet</label2>
						</labels>
					</clipitem>
					<clipitem id="clipitem-1435">
						<masterclipid>masterclip-1432</masterclipid>
						<name>TKO_020_CHA_Sh14890.mov</name>
						<enabled>TRUE</enabled>
						<duration>32</duration>
						<rate>
							<timebase>24</timebase>
							<ntsc>TRUE</ntsc>
						</rate>
						<start>103413</start>
						<end>103437</end>
						<in>4</in>
						<out>28</out>
						<pproTicksIn>42378336000</pproTicksIn>
						<pproTicksOut>296648352000</pproTicksOut>
						<alphatype>none</alphatype>
						<pixelaspectratio>square</pixelaspectratio>
						<anamorphic>FALSE</anamorphic>
						<file id="file-1432">
							<name>TKO_020_CHA_Sh14890.mov</name>
							<pathurl>file://tri-stor01/Projects/TKO/SHOTS/_Refs_Movs_Burnin_FrameCounter/TKO_020_CHA_Sh14890.mov</pathurl>
							<rate>
								<timebase>24</timebase>
								<ntsc>TRUE</ntsc>
							</rate>
							<duration>32</duration>
							<timecode>
								<rate>
									<timebase>24</timebase>
									<ntsc>TRUE</ntsc>
								</rate>
								<string>14:44:13:13</string>
								<frame>1273285</frame>
								<displayformat>NDF</displayformat>
								<reel>
									<name>A0330014</name>
								</reel>
							</timecode>
							<media>
								<video>
									<samplecharacteristics>
										<rate>
											<timebase>24</timebase>
											<ntsc>TRUE</ntsc>
										</rate>
										<width>4096</width>
										<height>2160</height>
										<anamorphic>FALSE</anamorphic>
										<pixelaspectratio>square</pixelaspectratio>
										<fielddominance>none</fielddominance>
									</samplecharacteristics>
								</video>
							</media>
						</file>
						<logginginfo>
							<description></description>
							<scene></scene>
							<shottake></shottake>
							<lognote></lognote>
							<good></good>
							<originalvideofilename></originalvideofilename>
							<originalaudiofilename></originalaudiofilename>
						</logginginfo>
						<colorinfo>
							<lut></lut>
							<lut1></lut1>
							<asc_sop></asc_sop>
							<asc_sat></asc_sat>
							<lut2></lut2>
						</colorinfo>
						<labels>
							<label2>Violet</label2>
						</labels>
					</clipitem>
					<clipitem id="clipitem-1436">
						<masterclipid>masterclip-1433</masterclipid>
						<name>TKO_020_CHA_Sh14900.mov</name>
						<enabled>TRUE</enabled>
						<duration>33</duration>
						<rate>
							<timebase>24</timebase>
							<ntsc>TRUE</ntsc>
						</rate>
						<start>103437</start>
						<end>103462</end>
						<in>4</in>
						<out>29</out>
						<pproTicksIn>42378336000</pproTicksIn>
						<pproTicksOut>307242936000</pproTicksOut>
						<alphatype>none</alphatype>
						<pixelaspectratio>square</pixelaspectratio>
						<anamorphic>FALSE</anamorphic>
						<file id="file-1433">
							<name>TKO_020_CHA_Sh14900.mov</name>
							<pathurl>file://tri-stor01/Projects/TKO/SHOTS/_Refs_Movs_Burnin_FrameCounter/TKO_020_CHA_Sh14900.mov</pathurl>
							<rate>
								<timebase>24</timebase>
								<ntsc>TRUE</ntsc>
							</rate>
							<duration>33</duration>
							<timecode>
								<rate>
									<timebase>24</timebase>
									<ntsc>TRUE</ntsc>
								</rate>
								<string>09:58:48:19</string>
								<frame>862291</frame>
								<displayformat>NDF</displayformat>
								<reel>
									<name>C0230011</name>
								</reel>
							</timecode>
							<media>
								<video>
									<samplecharacteristics>
										<rate>
											<timebase>24</timebase>
											<ntsc>TRUE</ntsc>
										</rate>
										<width>3840</width>
										<height>2160</height>
										<anamorphic>FALSE</anamorphic>
										<pixelaspectratio>square</pixelaspectratio>
										<fielddominance>none</fielddominance>
									</samplecharacteristics>
								</video>
							</media>
						</file>
						<logginginfo>
							<description></description>
							<scene></scene>
							<shottake></shottake>
							<lognote></lognote>
							<good></good>
							<originalvideofilename></originalvideofilename>
							<originalaudiofilename></originalaudiofilename>
						</logginginfo>
						<colorinfo>
							<lut></lut>
							<lut1></lut1>
							<asc_sop></asc_sop>
							<asc_sat></asc_sat>
							<lut2></lut2>
						</colorinfo>
						<labels>
							<label2>Violet</label2>
						</labels>
					</clipitem>
					<clipitem id="clipitem-1437">
						<masterclipid>masterclip-1434</masterclipid>
						<name>TKO_020_CHA_Sh14910.mov</name>
						<enabled>TRUE</enabled>
						<duration>29</duration>
						<rate>
							<timebase>24</timebase>
							<ntsc>TRUE</ntsc>
						</rate>
						<start>103462</start>
						<end>103483</end>
						<in>4</in>
						<out>25</out>
						<pproTicksIn>42378336000</pproTicksIn>
						<pproTicksOut>264864600000</pproTicksOut>
						<alphatype>none</alphatype>
						<pixelaspectratio>square</pixelaspectratio>
						<anamorphic>FALSE</anamorphic>
						<file id="file-1434">
							<name>TKO_020_CHA_Sh14910.mov</name>
							<pathurl>file://tri-stor01/Projects/TKO/SHOTS/_Refs_Movs_Burnin_FrameCounter/TKO_020_CHA_Sh14910.mov</pathurl>
							<rate>
								<timebase>24</timebase>
								<ntsc>TRUE</ntsc>
							</rate>
							<duration>29</duration>
							<timecode>
								<rate>
									<timebase>24</timebase>
									<ntsc>TRUE</ntsc>
								</rate>
								<string>14:44:17:02</string>
								<frame>1273370</frame>
								<displayformat>NDF</displayformat>
								<reel>
									<name>A0330014</name>
								</reel>
							</timecode>
							<media>
								<video>
									<samplecharacteristics>
										<rate>
											<timebase>24</timebase>
											<ntsc>TRUE</ntsc>
										</rate>
										<width>4096</width>
										<height>2160</height>
										<anamorphic>FALSE</anamorphic>
										<pixelaspectratio>square</pixelaspectratio>
										<fielddominance>none</fielddominance>
									</samplecharacteristics>
								</video>
							</media>
						</file>
						<logginginfo>
							<description></description>
							<scene></scene>
							<shottake></shottake>
							<lognote></lognote>
							<good></good>
							<originalvideofilename></originalvideofilename>
							<originalaudiofilename></originalaudiofilename>
						</logginginfo>
						<colorinfo>
							<lut></lut>
							<lut1></lut1>
							<asc_sop></asc_sop>
							<asc_sat></asc_sat>
							<lut2></lut2>
						</colorinfo>
						<labels>
							<label2>Violet</label2>
						</labels>
					</clipitem>
					<clipitem id="clipitem-1438">
						<masterclipid>masterclip-1435</masterclipid>
						<name>TKO_020_CHA_Sh14920.mov</name>
						<enabled>TRUE</enabled>
						<duration>31</duration>
						<rate>
							<timebase>24</timebase>
							<ntsc>TRUE</ntsc>
						</rate>
						<start>103483</start>
						<end>103506</end>
						<in>4</in>
						<out>27</out>
						<pproTicksIn>42378336000</pproTicksIn>
						<pproTicksOut>286053768000</pproTicksOut>
						<alphatype>none</alphatype>
						<pixelaspectratio>square</pixelaspectratio>
						<anamorphic>FALSE</anamorphic>
						<file id="file-1435">
							<name>TKO_020_CHA_Sh14920.mov</name>
							<pathurl>file://tri-stor01/Projects/TKO/SHOTS/_Refs_Movs_Burnin_FrameCounter/TKO_020_CHA_Sh14920.mov</pathurl>
							<rate>
								<timebase>24</timebase>
								<ntsc>TRUE</ntsc>
							</rate>
							<duration>31</duration>
							<timecode>
								<rate>
									<timebase>24</timebase>
									<ntsc>TRUE</ntsc>
								</rate>
								<string>14:44:18:04</string>
								<frame>1273396</frame>
								<displayformat>NDF</displayformat>
								<reel>
									<name>B0270011</name>
								</reel>
							</timecode>
							<media>
								<video>
									<samplecharacteristics>
										<rate>
											<timebase>24</timebase>
											<ntsc>TRUE</ntsc>
										</rate>
										<width>4096</width>
										<height>2160</height>
										<anamorphic>FALSE</anamorphic>
										<pixelaspectratio>square</pixelaspectratio>
										<fielddominance>none</fielddominance>
									</samplecharacteristics>
								</video>
							</media>
						</file>
						<logginginfo>
							<description></description>
							<scene></scene>
							<shottake></shottake>
							<lognote></lognote>
							<good></good>
							<originalvideofilename></originalvideofilename>
							<originalaudiofilename></originalaudiofilename>
						</logginginfo>
						<colorinfo>
							<lut></lut>
							<lut1></lut1>
							<asc_sop></asc_sop>
							<asc_sat></asc_sat>
							<lut2></lut2>
						</colorinfo>
						<labels>
							<label2>Violet</label2>
						</labels>
					</clipitem>
					<clipitem id="clipitem-1439">
						<masterclipid>masterclip-1436</masterclipid>
						<name>TKO_020_CHA_Sh14930.mov</name>
						<enabled>TRUE</enabled>
						<duration>33</duration>
						<rate>
							<timebase>24</timebase>
							<ntsc>TRUE</ntsc>
						</rate>
						<start>103506</start>
						<end>103531</end>
						<in>4</in>
						<out>29</out>
						<pproTicksIn>42378336000</pproTicksIn>
						<pproTicksOut>307242936000</pproTicksOut>
						<alphatype>none</alphatype>
						<pixelaspectratio>square</pixelaspectratio>
						<anamorphic>FALSE</anamorphic>
						<file id="file-1436">
							<name>TKO_020_CHA_Sh14930.mov</name>
							<pathurl>file://tri-stor01/Projects/TKO/SHOTS/_Refs_Movs_Burnin_FrameCounter/TKO_020_CHA_Sh14930.mov</pathurl>
							<rate>
								<timebase>24</timebase>
								<ntsc>TRUE</ntsc>
							</rate>
							<duration>33</duration>
							<timecode>
								<rate>
									<timebase>24</timebase>
									<ntsc>TRUE</ntsc>
								</rate>
								<string>17:09:58:05</string>
								<frame>1483157</frame>
								<displayformat>NDF</displayformat>
								<reel>
									<name>B0220005</name>
								</reel>
							</timecode>
							<media>
								<video>
									<samplecharacteristics>
										<rate>
											<timebase>24</timebase>
											<ntsc>TRUE</ntsc>
										</rate>
										<width>4096</width>
										<height>2160</height>
										<anamorphic>FALSE</anamorphic>
										<pixelaspectratio>square</pixelaspectratio>
										<fielddominance>none</fielddominance>
									</samplecharacteristics>
								</video>
							</media>
						</file>
						<logginginfo>
							<description></description>
							<scene></scene>
							<shottake></shottake>
							<lognote></lognote>
							<good></good>
							<originalvideofilename></originalvideofilename>
							<originalaudiofilename></originalaudiofilename>
						</logginginfo>
						<colorinfo>
							<lut></lut>
							<lut1></lut1>
							<asc_sop></asc_sop>
							<asc_sat></asc_sat>
							<lut2></lut2>
						</colorinfo>
						<labels>
							<label2>Violet</label2>
						</labels>
					</clipitem>
					<clipitem id="clipitem-1440">
						<masterclipid>masterclip-1437</masterclipid>
						<name>TKO_020_CHA_Sh14940.mov</name>
						<enabled>TRUE</enabled>
						<duration>25</duration>
						<rate>
							<timebase>24</timebase>
							<ntsc>TRUE</ntsc>
						</rate>
						<start>103531</start>
						<end>103548</end>
						<in>4</in>
						<out>21</out>
						<pproTicksIn>42378336000</pproTicksIn>
						<pproTicksOut>222486264000</pproTicksOut>
						<alphatype>none</alphatype>
						<pixelaspectratio>square</pixelaspectratio>
						<anamorphic>FALSE</anamorphic>
						<file id="file-1437">
							<name>TKO_020_CHA_Sh14940.mov</name>
							<pathurl>file://tri-stor01/Projects/TKO/SHOTS/_Refs_Movs_Burnin_FrameCounter/TKO_020_CHA_Sh14940.mov</pathurl>
							<rate>
								<timebase>24</timebase>
								<ntsc>TRUE</ntsc>
							</rate>
							<duration>25</duration>
							<timecode>
								<rate>
									<timebase>24</timebase>
									<ntsc>TRUE</ntsc>
								</rate>
								<string>14:44:19:13</string>
								<frame>1273429</frame>
								<displayformat>NDF</displayformat>
								<reel>
									<name>A0330014</name>
								</reel>
							</timecode>
							<media>
								<video>
									<samplecharacteristics>
										<rate>
											<timebase>24</timebase>
											<ntsc>TRUE</ntsc>
										</rate>
										<width>4096</width>
										<height>2160</height>
										<anamorphic>FALSE</anamorphic>
										<pixelaspectratio>square</pixelaspectratio>
										<fielddominance>none</fielddominance>
									</samplecharacteristics>
								</video>
							</media>
						</file>
						<logginginfo>
							<description></description>
							<scene></scene>
							<shottake></shottake>
							<lognote></lognote>
							<good></good>
							<originalvideofilename></originalvideofilename>
							<originalaudiofilename></originalaudiofilename>
						</logginginfo>
						<colorinfo>
							<lut></lut>
							<lut1></lut1>
							<asc_sop></asc_sop>
							<asc_sat></asc_sat>
							<lut2></lut2>
						</colorinfo>
						<labels>
							<label2>Violet</label2>
						</labels>
					</clipitem>
					<clipitem id="clipitem-1441">
						<masterclipid>masterclip-1438</masterclipid>
						<name>TKO_020_CHA_Sh14950.mov</name>
						<enabled>TRUE</enabled>
						<duration>35</duration>
						<rate>
							<timebase>24</timebase>
							<ntsc>TRUE</ntsc>
						</rate>
						<start>103548</start>
						<end>103575</end>
						<in>4</in>
						<out>31</out>
						<pproTicksIn>42378336000</pproTicksIn>
						<pproTicksOut>328432104000</pproTicksOut>
						<alphatype>none</alphatype>
						<pixelaspectratio>square</pixelaspectratio>
						<anamorphic>FALSE</anamorphic>
						<file id="file-1438">
							<name>TKO_020_CHA_Sh14950.mov</name>
							<pathurl>file://tri-stor01/Projects/TKO/SHOTS/_Refs_Movs_Burnin_FrameCounter/TKO_020_CHA_Sh14950.mov</pathurl>
							<rate>
								<timebase>24</timebase>
								<ntsc>TRUE</ntsc>
							</rate>
							<duration>35</duration>
							<timecode>
								<rate>
									<timebase>24</timebase>
									<ntsc>TRUE</ntsc>
								</rate>
								<string>00:58:39:13</string>
								<frame>84469</frame>
								<displayformat>NDF</displayformat>
							</timecode>
							<media>
								<video>
									<samplecharacteristics>
										<rate>
											<timebase>24</timebase>
											<ntsc>TRUE</ntsc>
										</rate>
										<width>1280</width>
										<height>720</height>
										<anamorphic>FALSE</anamorphic>
										<pixelaspectratio>square</pixelaspectratio>
										<fielddominance>none</fielddominance>
									</samplecharacteristics>
								</video>
							</media>
						</file>
						<logginginfo>
							<description></description>
							<scene></scene>
							<shottake></shottake>
							<lognote></lognote>
							<good></good>
							<originalvideofilename></originalvideofilename>
							<originalaudiofilename></originalaudiofilename>
						</logginginfo>
						<colorinfo>
							<lut></lut>
							<lut1></lut1>
							<asc_sop></asc_sop>
							<asc_sat></asc_sat>
							<lut2></lut2>
						</colorinfo>
						<labels>
							<label2>Violet</label2>
						</labels>
					</clipitem>
					<clipitem id="clipitem-1442">
						<masterclipid>masterclip-1439</masterclipid>
						<name>TKO_020_CHA_Sh14960.mov</name>
						<enabled>TRUE</enabled>
						<duration>31</duration>
						<rate>
							<timebase>24</timebase>
							<ntsc>TRUE</ntsc>
						</rate>
						<start>103575</start>
						<end>103598</end>
						<in>4</in>
						<out>27</out>
						<pproTicksIn>42378336000</pproTicksIn>
						<pproTicksOut>286053768000</pproTicksOut>
						<alphatype>none</alphatype>
						<pixelaspectratio>square</pixelaspectratio>
						<anamorphic>FALSE</anamorphic>
						<file id="file-1439">
							<name>TKO_020_CHA_Sh14960.mov</name>
							<pathurl>file://tri-stor01/Projects/TKO/SHOTS/_Refs_Movs_Burnin_FrameCounter/TKO_020_CHA_Sh14960.mov</pathurl>
							<rate>
								<timebase>24</timebase>
								<ntsc>TRUE</ntsc>
							</rate>
							<duration>31</duration>
							<timecode>
								<rate>
									<timebase>24</timebase>
									<ntsc>TRUE</ntsc>
								</rate>
								<string>17:01:12:17</string>
								<frame>1470545</frame>
								<displayformat>NDF</displayformat>
								<reel>
									<name>A0340004</name>
								</reel>
							</timecode>
							<media>
								<video>
									<samplecharacteristics>
										<rate>
											<timebase>24</timebase>
											<ntsc>TRUE</ntsc>
										</rate>
										<width>4096</width>
										<height>2160</height>
										<anamorphic>FALSE</anamorphic>
										<pixelaspectratio>square</pixelaspectratio>
										<fielddominance>none</fielddominance>
									</samplecharacteristics>
								</video>
							</media>
						</file>
						<logginginfo>
							<description></description>
							<scene></scene>
							<shottake></shottake>
							<lognote></lognote>
							<good></good>
							<originalvideofilename></originalvideofilename>
							<originalaudiofilename></originalaudiofilename>
						</logginginfo>
						<colorinfo>
							<lut></lut>
							<lut1></lut1>
							<asc_sop></asc_sop>
							<asc_sat></asc_sat>
							<lut2></lut2>
						</colorinfo>
						<labels>
							<label2>Violet</label2>
						</labels>
					</clipitem>
					<clipitem id="clipitem-1443">
						<masterclipid>masterclip-1440</masterclipid>
						<name>TKO_020_CHA_Sh14970.mov</name>
						<enabled>TRUE</enabled>
						<duration>22</duration>
						<rate>
							<timebase>24</timebase>
							<ntsc>TRUE</ntsc>
						</rate>
						<start>103598</start>
						<end>103615</end>
						<in>6</in>
						<out>18</out>
						<pproTicksIn>95351256000</pproTicksIn>
						<pproTicksOut>307242936000</pproTicksOut>
						<alphatype>none</alphatype>
						<pixelaspectratio>square</pixelaspectratio>
						<anamorphic>FALSE</anamorphic>
						<file id="file-1440">
							<name>TKO_020_CHA_Sh14970.mov</name>
							<pathurl>file://tri-stor01/Projects/TKO/SHOTS/_Refs_Movs_Burnin_FrameCounter/TKO_020_CHA_Sh14970.mov</pathurl>
							<rate>
								<timebase>24</timebase>
								<ntsc>TRUE</ntsc>
							</rate>
							<duration>37</duration>
							<timecode>
								<rate>
									<timebase>24</timebase>
									<ntsc>TRUE</ntsc>
								</rate>
								<string>12:55:41:19</string>
								<frame>1117003</frame>
								<displayformat>NDF</displayformat>
								<reel>
									<name>C0320002</name>
								</reel>
							</timecode>
							<media>
								<video>
									<samplecharacteristics>
										<rate>
											<timebase>24</timebase>
											<ntsc>TRUE</ntsc>
										</rate>
										<width>3840</width>
										<height>2160</height>
										<anamorphic>FALSE</anamorphic>
										<pixelaspectratio>square</pixelaspectratio>
										<fielddominance>none</fielddominance>
									</samplecharacteristics>
								</video>
							</media>
						</file>
						<filter>
							<effect>
								<name>Time Remap</name>
								<effectid>timeremap</effectid>
								<effectcategory>motion</effectcategory>
								<effecttype>motion</effecttype>
								<mediatype>video</mediatype>
								<parameter authoringApp="PremierePro">
									<parameterid>variablespeed</parameterid>
									<name>variablespeed</name>
									<valuemin>0</valuemin>
									<valuemax>1</valuemax>
									<value>0</value>
								</parameter>
								<parameter authoringApp="PremierePro">
									<parameterid>speed</parameterid>
									<name>speed</name>
									<valuemin>-100000</valuemin>
									<valuemax>100000</valuemax>
									<value>161.111</value>
								</parameter>
								<parameter authoringApp="PremierePro">
									<parameterid>reverse</parameterid>
									<name>reverse</name>
									<value>FALSE</value>
								</parameter>
								<parameter authoringApp="PremierePro">
									<parameterid>frameblending</parameterid>
									<name>frameblending</name>
									<value>FALSE</value>
								</parameter>
								<parameter authoringApp="PremierePro">
									<parameterid>graphdict</parameterid>
									<name>graphdict</name>
									<valuemin>0</valuemin>
									<valuemax>35</valuemax>
									<value>0</value>
									<keyframe>
										<when>0</when>
										<value>0</value>
										<speedvirtualkf>TRUE</speedvirtualkf>
										<speedkfstart>TRUE</speedkfstart>
									</keyframe>
									<keyframe>
										<when>6</when>
										<value>9</value>
										<speedvirtualkf>TRUE</speedvirtualkf>
										<speedkfin>TRUE</speedkfin>
									</keyframe>
									<keyframe>
										<when>18</when>
										<value>28</value>
										<speedvirtualkf>TRUE</speedvirtualkf>
										<speedkfout>TRUE</speedkfout>
									</keyframe>
									<keyframe>
										<when>22</when>
										<value>35</value>
										<speedvirtualkf>TRUE</speedvirtualkf>
										<speedkfend>TRUE</speedkfend>
									</keyframe>
									<interpolation>
										<name>FCPCurve</name>
									</interpolation>
								</parameter>
							</effect>
						</filter>
						<logginginfo>
							<description></description>
							<scene></scene>
							<shottake></shottake>
							<lognote></lognote>
							<good></good>
							<originalvideofilename></originalvideofilename>
							<originalaudiofilename></originalaudiofilename>
						</logginginfo>
						<colorinfo>
							<lut></lut>
							<lut1></lut1>
							<asc_sop></asc_sop>
							<asc_sat></asc_sat>
							<lut2></lut2>
						</colorinfo>
						<labels>
							<label2>Violet</label2>
						</labels>
					</clipitem>
					<clipitem id="clipitem-1444">
						<masterclipid>masterclip-1441</masterclipid>
						<name>TKO_020_CHA_Sh14980.mov</name>
						<enabled>TRUE</enabled>
						<duration>18</duration>
						<rate>
							<timebase>24</timebase>
							<ntsc>TRUE</ntsc>
						</rate>
						<start>103615</start>
						<end>103625</end>
						<in>4</in>
						<out>14</out>
						<pproTicksIn>42378336000</pproTicksIn>
						<pproTicksOut>148324176000</pproTicksOut>
						<alphatype>none</alphatype>
						<pixelaspectratio>square</pixelaspectratio>
						<anamorphic>FALSE</anamorphic>
						<file id="file-1441">
							<name>TKO_020_CHA_Sh14980.mov</name>
							<pathurl>file://tri-stor01/Projects/TKO/SHOTS/_Refs_Movs_Burnin_FrameCounter/TKO_020_CHA_Sh14980.mov</pathurl>
							<rate>
								<timebase>24</timebase>
								<ntsc>TRUE</ntsc>
							</rate>
							<duration>18</duration>
							<timecode>
								<rate>
									<timebase>24</timebase>
									<ntsc>TRUE</ntsc>
								</rate>
								<string>17:01:51:22</string>
								<frame>1471486</frame>
								<displayformat>NDF</displayformat>
								<reel>
									<name>B0280004</name>
								</reel>
							</timecode>
							<media>
								<video>
									<samplecharacteristics>
										<rate>
											<timebase>24</timebase>
											<ntsc>TRUE</ntsc>
										</rate>
										<width>4096</width>
										<height>2160</height>
										<anamorphic>FALSE</anamorphic>
										<pixelaspectratio>square</pixelaspectratio>
										<fielddominance>none</fielddominance>
									</samplecharacteristics>
								</video>
							</media>
						</file>
						<logginginfo>
							<description></description>
							<scene></scene>
							<shottake></shottake>
							<lognote></lognote>
							<good></good>
							<originalvideofilename></originalvideofilename>
							<originalaudiofilename></originalaudiofilename>
						</logginginfo>
						<colorinfo>
							<lut></lut>
							<lut1></lut1>
							<asc_sop></asc_sop>
							<asc_sat></asc_sat>
							<lut2></lut2>
						</colorinfo>
						<labels>
							<label2>Violet</label2>
						</labels>
					</clipitem>
					<clipitem id="clipitem-1445">
						<masterclipid>masterclip-1442</masterclipid>
						<name>TKO_020_CHA_Sh14990.mov</name>
						<enabled>TRUE</enabled>
						<duration>22</duration>
						<rate>
							<timebase>24</timebase>
							<ntsc>TRUE</ntsc>
						</rate>
						<start>103625</start>
						<end>103639</end>
						<in>4</in>
						<out>18</out>
						<pproTicksIn>42378336000</pproTicksIn>
						<pproTicksOut>190702512000</pproTicksOut>
						<alphatype>none</alphatype>
						<pixelaspectratio>square</pixelaspectratio>
						<anamorphic>FALSE</anamorphic>
						<file id="file-1442">
							<name>TKO_020_CHA_Sh14990.mov</name>
							<pathurl>file://tri-stor01/Projects/TKO/SHOTS/_Refs_Movs_Burnin_FrameCounter/TKO_020_CHA_Sh14990.mov</pathurl>
							<rate>
								<timebase>24</timebase>
								<ntsc>TRUE</ntsc>
							</rate>
							<duration>22</duration>
							<timecode>
								<rate>
									<timebase>24</timebase>
									<ntsc>TRUE</ntsc>
								</rate>
								<string>17:01:52:08</string>
								<frame>1471496</frame>
								<displayformat>NDF</displayformat>
								<reel>
									<name>A0340004</name>
								</reel>
							</timecode>
							<media>
								<video>
									<samplecharacteristics>
										<rate>
											<timebase>24</timebase>
											<ntsc>TRUE</ntsc>
										</rate>
										<width>4096</width>
										<height>2160</height>
										<anamorphic>FALSE</anamorphic>
										<pixelaspectratio>square</pixelaspectratio>
										<fielddominance>none</fielddominance>
									</samplecharacteristics>
								</video>
							</media>
						</file>
						<logginginfo>
							<description></description>
							<scene></scene>
							<shottake></shottake>
							<lognote></lognote>
							<good></good>
							<originalvideofilename></originalvideofilename>
							<originalaudiofilename></originalaudiofilename>
						</logginginfo>
						<colorinfo>
							<lut></lut>
							<lut1></lut1>
							<asc_sop></asc_sop>
							<asc_sat></asc_sat>
							<lut2></lut2>
						</colorinfo>
						<labels>
							<label2>Violet</label2>
						</labels>
					</clipitem>
					<clipitem id="clipitem-1446">
						<masterclipid>masterclip-1443</masterclipid>
						<name>TKO_020_CHA_Sh15000.mov</name>
						<enabled>TRUE</enabled>
						<duration>59</duration>
						<rate>
							<timebase>24</timebase>
							<ntsc>TRUE</ntsc>
						</rate>
						<start>103639</start>
						<end>103690</end>
						<in>4</in>
						<out>55</out>
						<pproTicksIn>42378336000</pproTicksIn>
						<pproTicksOut>582702120000</pproTicksOut>
						<alphatype>none</alphatype>
						<pixelaspectratio>square</pixelaspectratio>
						<anamorphic>FALSE</anamorphic>
						<file id="file-1443">
							<name>TKO_020_CHA_Sh15000.mov</name>
							<pathurl>file://tri-stor01/Projects/TKO/SHOTS/_Refs_Movs_Burnin_FrameCounter/TKO_020_CHA_Sh15000.mov</pathurl>
							<rate>
								<timebase>24</timebase>
								<ntsc>TRUE</ntsc>
							</rate>
							<duration>59</duration>
							<timecode>
								<rate>
									<timebase>24</timebase>
									<ntsc>TRUE</ntsc>
								</rate>
								<string>00:58:43:19</string>
								<frame>84571</frame>
								<displayformat>NDF</displayformat>
							</timecode>
							<media>
								<video>
									<samplecharacteristics>
										<rate>
											<timebase>24</timebase>
											<ntsc>TRUE</ntsc>
										</rate>
										<width>1280</width>
										<height>720</height>
										<anamorphic>FALSE</anamorphic>
										<pixelaspectratio>square</pixelaspectratio>
										<fielddominance>none</fielddominance>
									</samplecharacteristics>
								</video>
							</media>
						</file>
						<logginginfo>
							<description></description>
							<scene></scene>
							<shottake></shottake>
							<lognote></lognote>
							<good></good>
							<originalvideofilename></originalvideofilename>
							<originalaudiofilename></originalaudiofilename>
						</logginginfo>
						<colorinfo>
							<lut></lut>
							<lut1></lut1>
							<asc_sop></asc_sop>
							<asc_sat></asc_sat>
							<lut2></lut2>
						</colorinfo>
						<labels>
							<label2>Violet</label2>
						</labels>
					</clipitem>
					<clipitem id="clipitem-1447">
						<masterclipid>masterclip-1444</masterclipid>
						<name>TKO_020_CHA_Sh15010.mov</name>
						<enabled>TRUE</enabled>
						<duration>119</duration>
						<rate>
							<timebase>24</timebase>
							<ntsc>TRUE</ntsc>
						</rate>
						<start>103690</start>
						<end>103801</end>
						<in>4</in>
						<out>115</out>
						<pproTicksIn>42378336000</pproTicksIn>
						<pproTicksOut>1218377160000</pproTicksOut>
						<alphatype>none</alphatype>
						<pixelaspectratio>square</pixelaspectratio>
						<anamorphic>FALSE</anamorphic>
						<file id="file-1444">
							<name>TKO_020_CHA_Sh15010.mov</name>
							<pathurl>file://tri-stor01/Projects/TKO/SHOTS/_Refs_Movs_Burnin_FrameCounter/TKO_020_CHA_Sh15010.mov</pathurl>
							<rate>
								<timebase>24</timebase>
								<ntsc>TRUE</ntsc>
							</rate>
							<duration>119</duration>
							<timecode>
								<rate>
									<timebase>24</timebase>
									<ntsc>TRUE</ntsc>
								</rate>
								<string>00:58:45:22</string>
								<frame>84622</frame>
								<displayformat>NDF</displayformat>
							</timecode>
							<media>
								<video>
									<samplecharacteristics>
										<rate>
											<timebase>24</timebase>
											<ntsc>TRUE</ntsc>
										</rate>
										<width>1280</width>
										<height>720</height>
										<anamorphic>FALSE</anamorphic>
										<pixelaspectratio>square</pixelaspectratio>
										<fielddominance>none</fielddominance>
									</samplecharacteristics>
								</video>
							</media>
						</file>
						<logginginfo>
							<description></description>
							<scene></scene>
							<shottake></shottake>
							<lognote></lognote>
							<good></good>
							<originalvideofilename></originalvideofilename>
							<originalaudiofilename></originalaudiofilename>
						</logginginfo>
						<colorinfo>
							<lut></lut>
							<lut1></lut1>
							<asc_sop></asc_sop>
							<asc_sat></asc_sat>
							<lut2></lut2>
						</colorinfo>
						<labels>
							<label2>Violet</label2>
						</labels>
					</clipitem>
					<clipitem id="clipitem-1448">
						<masterclipid>masterclip-1445</masterclipid>
						<name>TKO_020_CHA_Sh15020.mov</name>
						<enabled>TRUE</enabled>
						<duration>71</duration>
						<rate>
							<timebase>24</timebase>
							<ntsc>TRUE</ntsc>
						</rate>
						<start>103801</start>
						<end>103864</end>
						<in>4</in>
						<out>67</out>
						<pproTicksIn>42378336000</pproTicksIn>
						<pproTicksOut>709837128000</pproTicksOut>
						<alphatype>none</alphatype>
						<pixelaspectratio>square</pixelaspectratio>
						<anamorphic>FALSE</anamorphic>
						<file id="file-1445">
							<name>TKO_020_CHA_Sh15020.mov</name>
							<pathurl>file://tri-stor01/Projects/TKO/SHOTS/_Refs_Movs_Burnin_FrameCounter/TKO_020_CHA_Sh15020.mov</pathurl>
							<rate>
								<timebase>24</timebase>
								<ntsc>TRUE</ntsc>
							</rate>
							<duration>71</duration>
							<timecode>
								<rate>
									<timebase>24</timebase>
									<ntsc>TRUE</ntsc>
								</rate>
								<string>09:42:22:01</string>
								<frame>838609</frame>
								<displayformat>NDF</displayformat>
								<reel>
									<name>C0230005</name>
								</reel>
							</timecode>
							<media>
								<video>
									<samplecharacteristics>
										<rate>
											<timebase>24</timebase>
											<ntsc>TRUE</ntsc>
										</rate>
										<width>3840</width>
										<height>2160</height>
										<anamorphic>FALSE</anamorphic>
										<pixelaspectratio>square</pixelaspectratio>
										<fielddominance>none</fielddominance>
									</samplecharacteristics>
								</video>
							</media>
						</file>
						<logginginfo>
							<description></description>
							<scene></scene>
							<shottake></shottake>
							<lognote></lognote>
							<good></good>
							<originalvideofilename></originalvideofilename>
							<originalaudiofilename></originalaudiofilename>
						</logginginfo>
						<colorinfo>
							<lut></lut>
							<lut1></lut1>
							<asc_sop></asc_sop>
							<asc_sat></asc_sat>
							<lut2></lut2>
						</colorinfo>
						<labels>
							<label2>Violet</label2>
						</labels>
					</clipitem>
					<clipitem id="clipitem-1449">
						<masterclipid>masterclip-1446</masterclipid>
						<name>TKO_020_CHA_Sh15030.mov</name>
						<enabled>TRUE</enabled>
						<duration>45</duration>
						<rate>
							<timebase>24</timebase>
							<ntsc>TRUE</ntsc>
						</rate>
						<start>103864</start>
						<end>103901</end>
						<in>4</in>
						<out>41</out>
						<pproTicksIn>42378336000</pproTicksIn>
						<pproTicksOut>434377944000</pproTicksOut>
						<alphatype>none</alphatype>
						<pixelaspectratio>square</pixelaspectratio>
						<anamorphic>FALSE</anamorphic>
						<file id="file-1446">
							<name>TKO_020_CHA_Sh15030.mov</name>
							<pathurl>file://tri-stor01/Projects/TKO/SHOTS/_Refs_Movs_Burnin_FrameCounter/TKO_020_CHA_Sh15030.mov</pathurl>
							<rate>
								<timebase>24</timebase>
								<ntsc>TRUE</ntsc>
							</rate>
							<duration>45</duration>
							<timecode>
								<rate>
									<timebase>24</timebase>
									<ntsc>TRUE</ntsc>
								</rate>
								<string>09:46:17:01</string>
								<frame>844249</frame>
								<displayformat>NDF</displayformat>
								<reel>
									<name>C0230007</name>
								</reel>
							</timecode>
							<media>
								<video>
									<samplecharacteristics>
										<rate>
											<timebase>24</timebase>
											<ntsc>TRUE</ntsc>
										</rate>
										<width>3840</width>
										<height>2160</height>
										<anamorphic>FALSE</anamorphic>
										<pixelaspectratio>square</pixelaspectratio>
										<fielddominance>none</fielddominance>
									</samplecharacteristics>
								</video>
							</media>
						</file>
						<logginginfo>
							<description></description>
							<scene></scene>
							<shottake></shottake>
							<lognote></lognote>
							<good></good>
							<originalvideofilename></originalvideofilename>
							<originalaudiofilename></originalaudiofilename>
						</logginginfo>
						<colorinfo>
							<lut></lut>
							<lut1></lut1>
							<asc_sop></asc_sop>
							<asc_sat></asc_sat>
							<lut2></lut2>
						</colorinfo>
						<labels>
							<label2>Violet</label2>
						</labels>
					</clipitem>
					<clipitem id="clipitem-1450">
						<masterclipid>masterclip-1447</masterclipid>
						<name>TKO_020_CHA_Sh15040.mov</name>
						<enabled>TRUE</enabled>
						<duration>44</duration>
						<rate>
							<timebase>24</timebase>
							<ntsc>TRUE</ntsc>
						</rate>
						<start>103901</start>
						<end>103937</end>
						<in>4</in>
						<out>40</out>
						<pproTicksIn>42378336000</pproTicksIn>
						<pproTicksOut>423783360000</pproTicksOut>
						<alphatype>none</alphatype>
						<pixelaspectratio>square</pixelaspectratio>
						<anamorphic>FALSE</anamorphic>
						<file id="file-1447">
							<name>TKO_020_CHA_Sh15040.mov</name>
							<pathurl>file://tri-stor01/Projects/TKO/SHOTS/_Refs_Movs_Burnin_FrameCounter/TKO_020_CHA_Sh15040.mov</pathurl>
							<rate>
								<timebase>24</timebase>
								<ntsc>TRUE</ntsc>
							</rate>
							<duration>44</duration>
							<timecode>
								<rate>
									<timebase>24</timebase>
									<ntsc>TRUE</ntsc>
								</rate>
								<string>13:27:15:10</string>
								<frame>1162450</frame>
								<displayformat>NDF</displayformat>
								<reel>
									<name>A0330010</name>
								</reel>
							</timecode>
							<media>
								<video>
									<samplecharacteristics>
										<rate>
											<timebase>24</timebase>
											<ntsc>TRUE</ntsc>
										</rate>
										<width>4096</width>
										<height>2160</height>
										<anamorphic>FALSE</anamorphic>
										<pixelaspectratio>square</pixelaspectratio>
										<fielddominance>none</fielddominance>
									</samplecharacteristics>
								</video>
							</media>
						</file>
						<logginginfo>
							<description></description>
							<scene></scene>
							<shottake></shottake>
							<lognote></lognote>
							<good></good>
							<originalvideofilename></originalvideofilename>
							<originalaudiofilename></originalaudiofilename>
						</logginginfo>
						<colorinfo>
							<lut></lut>
							<lut1></lut1>
							<asc_sop></asc_sop>
							<asc_sat></asc_sat>
							<lut2></lut2>
						</colorinfo>
						<labels>
							<label2>Violet</label2>
						</labels>
					</clipitem>
					<clipitem id="clipitem-1451">
						<masterclipid>masterclip-1448</masterclipid>
						<name>TKO_020_CHA_Sh15050.mov</name>
						<enabled>TRUE</enabled>
						<duration>38</duration>
						<rate>
							<timebase>24</timebase>
							<ntsc>TRUE</ntsc>
						</rate>
						<start>103937</start>
						<end>103967</end>
						<in>4</in>
						<out>34</out>
						<pproTicksIn>42378336000</pproTicksIn>
						<pproTicksOut>360215856000</pproTicksOut>
						<alphatype>none</alphatype>
						<pixelaspectratio>square</pixelaspectratio>
						<anamorphic>FALSE</anamorphic>
						<file id="file-1448">
							<name>TKO_020_CHA_Sh15050.mov</name>
							<pathurl>file://tri-stor01/Projects/TKO/SHOTS/_Refs_Movs_Burnin_FrameCounter/TKO_020_CHA_Sh15050.mov</pathurl>
							<rate>
								<timebase>24</timebase>
								<ntsc>TRUE</ntsc>
							</rate>
							<duration>38</duration>
							<timecode>
								<rate>
									<timebase>24</timebase>
									<ntsc>TRUE</ntsc>
								</rate>
								<string>09:46:21:11</string>
								<frame>844355</frame>
								<displayformat>NDF</displayformat>
								<reel>
									<name>C0230007</name>
								</reel>
							</timecode>
							<media>
								<video>
									<samplecharacteristics>
										<rate>
											<timebase>24</timebase>
											<ntsc>TRUE</ntsc>
										</rate>
										<width>3840</width>
										<height>2160</height>
										<anamorphic>FALSE</anamorphic>
										<pixelaspectratio>square</pixelaspectratio>
										<fielddominance>none</fielddominance>
									</samplecharacteristics>
								</video>
							</media>
						</file>
						<logginginfo>
							<description></description>
							<scene></scene>
							<shottake></shottake>
							<lognote></lognote>
							<good></good>
							<originalvideofilename></originalvideofilename>
							<originalaudiofilename></originalaudiofilename>
						</logginginfo>
						<colorinfo>
							<lut></lut>
							<lut1></lut1>
							<asc_sop></asc_sop>
							<asc_sat></asc_sat>
							<lut2></lut2>
						</colorinfo>
						<labels>
							<label2>Violet</label2>
						</labels>
					</clipitem>
					<clipitem id="clipitem-1452">
						<masterclipid>masterclip-1449</masterclipid>
						<name>TKO_020_CHA_Sh15060.mov</name>
						<enabled>TRUE</enabled>
						<duration>38</duration>
						<rate>
							<timebase>24</timebase>
							<ntsc>TRUE</ntsc>
						</rate>
						<start>103967</start>
						<end>103997</end>
						<in>4</in>
						<out>34</out>
						<pproTicksIn>42378336000</pproTicksIn>
						<pproTicksOut>360215856000</pproTicksOut>
						<alphatype>none</alphatype>
						<pixelaspectratio>square</pixelaspectratio>
						<anamorphic>FALSE</anamorphic>
						<file id="file-1449">
							<name>TKO_020_CHA_Sh15060.mov</name>
							<pathurl>file://tri-stor01/Projects/TKO/SHOTS/_Refs_Movs_Burnin_FrameCounter/TKO_020_CHA_Sh15060.mov</pathurl>
							<rate>
								<timebase>24</timebase>
								<ntsc>TRUE</ntsc>
							</rate>
							<duration>38</duration>
							<timecode>
								<rate>
									<timebase>24</timebase>
									<ntsc>TRUE</ntsc>
								</rate>
								<string>13:27:17:20</string>
								<frame>1162508</frame>
								<displayformat>NDF</displayformat>
								<reel>
									<name>A0330010</name>
								</reel>
							</timecode>
							<media>
								<video>
									<samplecharacteristics>
										<rate>
											<timebase>24</timebase>
											<ntsc>TRUE</ntsc>
										</rate>
										<width>4096</width>
										<height>2160</height>
										<anamorphic>FALSE</anamorphic>
										<pixelaspectratio>square</pixelaspectratio>
										<fielddominance>none</fielddominance>
									</samplecharacteristics>
								</video>
							</media>
						</file>
						<logginginfo>
							<description></description>
							<scene></scene>
							<shottake></shottake>
							<lognote></lognote>
							<good></good>
							<originalvideofilename></originalvideofilename>
							<originalaudiofilename></originalaudiofilename>
						</logginginfo>
						<colorinfo>
							<lut></lut>
							<lut1></lut1>
							<asc_sop></asc_sop>
							<asc_sat></asc_sat>
							<lut2></lut2>
						</colorinfo>
						<labels>
							<label2>Violet</label2>
						</labels>
					</clipitem>
					<clipitem id="clipitem-1453">
						<masterclipid>masterclip-1450</masterclipid>
						<name>TKO_020_CHA_Sh15070.mov</name>
						<enabled>TRUE</enabled>
						<duration>39</duration>
						<rate>
							<timebase>24</timebase>
							<ntsc>TRUE</ntsc>
						</rate>
						<start>103997</start>
						<end>104028</end>
						<in>4</in>
						<out>35</out>
						<pproTicksIn>42378336000</pproTicksIn>
						<pproTicksOut>370810440000</pproTicksOut>
						<alphatype>none</alphatype>
						<pixelaspectratio>square</pixelaspectratio>
						<anamorphic>FALSE</anamorphic>
						<file id="file-1450">
							<name>TKO_020_CHA_Sh15070.mov</name>
							<pathurl>file://tri-stor01/Projects/TKO/SHOTS/_Refs_Movs_Burnin_FrameCounter/TKO_020_CHA_Sh15070.mov</pathurl>
							<rate>
								<timebase>24</timebase>
								<ntsc>TRUE</ntsc>
							</rate>
							<duration>39</duration>
							<timecode>
								<rate>
									<timebase>24</timebase>
									<ntsc>TRUE</ntsc>
								</rate>
								<string>00:58:54:20</string>
								<frame>84836</frame>
								<displayformat>NDF</displayformat>
							</timecode>
							<media>
								<video>
									<samplecharacteristics>
										<rate>
											<timebase>24</timebase>
											<ntsc>TRUE</ntsc>
										</rate>
										<width>1280</width>
										<height>720</height>
										<anamorphic>FALSE</anamorphic>
										<pixelaspectratio>square</pixelaspectratio>
										<fielddominance>none</fielddominance>
									</samplecharacteristics>
								</video>
							</media>
						</file>
						<logginginfo>
							<description></description>
							<scene></scene>
							<shottake></shottake>
							<lognote></lognote>
							<good></good>
							<originalvideofilename></originalvideofilename>
							<originalaudiofilename></originalaudiofilename>
						</logginginfo>
						<colorinfo>
							<lut></lut>
							<lut1></lut1>
							<asc_sop></asc_sop>
							<asc_sat></asc_sat>
							<lut2></lut2>
						</colorinfo>
						<labels>
							<label2>Violet</label2>
						</labels>
					</clipitem>
					<clipitem id="clipitem-1454">
						<masterclipid>masterclip-1451</masterclipid>
						<name>TKO_020_CHA_Sh15080.mov</name>
						<enabled>TRUE</enabled>
						<duration>63</duration>
						<rate>
							<timebase>24</timebase>
							<ntsc>TRUE</ntsc>
						</rate>
						<start>104028</start>
						<end>104083</end>
						<in>4</in>
						<out>59</out>
						<pproTicksIn>42378336000</pproTicksIn>
						<pproTicksOut>625080456000</pproTicksOut>
						<alphatype>none</alphatype>
						<pixelaspectratio>square</pixelaspectratio>
						<anamorphic>FALSE</anamorphic>
						<file id="file-1451">
							<name>TKO_020_CHA_Sh15080.mov</name>
							<pathurl>file://tri-stor01/Projects/TKO/SHOTS/_Refs_Movs_Burnin_FrameCounter/TKO_020_CHA_Sh15080.mov</pathurl>
							<rate>
								<timebase>24</timebase>
								<ntsc>TRUE</ntsc>
							</rate>
							<duration>63</duration>
							<timecode>
								<rate>
									<timebase>24</timebase>
									<ntsc>TRUE</ntsc>
								</rate>
								<string>12:59:26:15</string>
								<frame>1122399</frame>
								<displayformat>NDF</displayformat>
								<reel>
									<name>A0330007</name>
								</reel>
							</timecode>
							<media>
								<video>
									<samplecharacteristics>
										<rate>
											<timebase>24</timebase>
											<ntsc>TRUE</ntsc>
										</rate>
										<width>4096</width>
										<height>2160</height>
										<anamorphic>FALSE</anamorphic>
										<pixelaspectratio>square</pixelaspectratio>
										<fielddominance>none</fielddominance>
									</samplecharacteristics>
								</video>
							</media>
						</file>
						<logginginfo>
							<description></description>
							<scene></scene>
							<shottake></shottake>
							<lognote></lognote>
							<good></good>
							<originalvideofilename></originalvideofilename>
							<originalaudiofilename></originalaudiofilename>
						</logginginfo>
						<colorinfo>
							<lut></lut>
							<lut1></lut1>
							<asc_sop></asc_sop>
							<asc_sat></asc_sat>
							<lut2></lut2>
						</colorinfo>
						<labels>
							<label2>Violet</label2>
						</labels>
					</clipitem>
					<clipitem id="clipitem-1455">
						<masterclipid>masterclip-1452</masterclipid>
						<name>TKO_020_CHA_Sh15090.mov</name>
						<enabled>TRUE</enabled>
						<duration>73</duration>
						<rate>
							<timebase>24</timebase>
							<ntsc>TRUE</ntsc>
						</rate>
						<start>104083</start>
						<end>104148</end>
						<in>4</in>
						<out>69</out>
						<pproTicksIn>42378336000</pproTicksIn>
						<pproTicksOut>731026296000</pproTicksOut>
						<alphatype>none</alphatype>
						<pixelaspectratio>square</pixelaspectratio>
						<anamorphic>FALSE</anamorphic>
						<file id="file-1452">
							<name>TKO_020_CHA_Sh15090.mov</name>
							<pathurl>file://tri-stor01/Projects/TKO/SHOTS/_Refs_Movs_Burnin_FrameCounter/TKO_020_CHA_Sh15090.mov</pathurl>
							<rate>
								<timebase>24</timebase>
								<ntsc>TRUE</ntsc>
							</rate>
							<duration>73</duration>
							<timecode>
								<rate>
									<timebase>24</timebase>
									<ntsc>TRUE</ntsc>
								</rate>
								<string>00:58:58:10</string>
								<frame>84922</frame>
								<displayformat>NDF</displayformat>
							</timecode>
							<media>
								<video>
									<samplecharacteristics>
										<rate>
											<timebase>24</timebase>
											<ntsc>TRUE</ntsc>
										</rate>
										<width>1280</width>
										<height>720</height>
										<anamorphic>FALSE</anamorphic>
										<pixelaspectratio>square</pixelaspectratio>
										<fielddominance>none</fielddominance>
									</samplecharacteristics>
								</video>
							</media>
						</file>
						<logginginfo>
							<description></description>
							<scene></scene>
							<shottake></shottake>
							<lognote></lognote>
							<good></good>
							<originalvideofilename></originalvideofilename>
							<originalaudiofilename></originalaudiofilename>
						</logginginfo>
						<colorinfo>
							<lut></lut>
							<lut1></lut1>
							<asc_sop></asc_sop>
							<asc_sat></asc_sat>
							<lut2></lut2>
						</colorinfo>
						<labels>
							<label2>Violet</label2>
						</labels>
					</clipitem>
					<clipitem id="clipitem-1456">
						<masterclipid>masterclip-1453</masterclipid>
						<name>TKO_020_CHA_Sh15100.mov</name>
						<enabled>TRUE</enabled>
						<duration>99</duration>
						<rate>
							<timebase>24</timebase>
							<ntsc>TRUE</ntsc>
						</rate>
						<start>104148</start>
						<end>104239</end>
						<in>4</in>
						<out>95</out>
						<pproTicksIn>42378336000</pproTicksIn>
						<pproTicksOut>1006485480000</pproTicksOut>
						<alphatype>none</alphatype>
						<pixelaspectratio>square</pixelaspectratio>
						<anamorphic>FALSE</anamorphic>
						<file id="file-1453">
							<name>TKO_020_CHA_Sh15100.mov</name>
							<pathurl>file://tri-stor01/Projects/TKO/SHOTS/_Refs_Movs_Burnin_FrameCounter/TKO_020_CHA_Sh15100.mov</pathurl>
							<rate>
								<timebase>24</timebase>
								<ntsc>TRUE</ntsc>
							</rate>
							<duration>99</duration>
							<timecode>
								<rate>
									<timebase>24</timebase>
									<ntsc>TRUE</ntsc>
								</rate>
								<string>15:06:39:11</string>
								<frame>1305587</frame>
								<displayformat>NDF</displayformat>
								<reel>
									<name>A0270016</name>
								</reel>
							</timecode>
							<media>
								<video>
									<samplecharacteristics>
										<rate>
											<timebase>24</timebase>
											<ntsc>TRUE</ntsc>
										</rate>
										<width>4096</width>
										<height>2160</height>
										<anamorphic>FALSE</anamorphic>
										<pixelaspectratio>square</pixelaspectratio>
										<fielddominance>none</fielddominance>
									</samplecharacteristics>
								</video>
							</media>
						</file>
						<logginginfo>
							<description></description>
							<scene></scene>
							<shottake></shottake>
							<lognote></lognote>
							<good></good>
							<originalvideofilename></originalvideofilename>
							<originalaudiofilename></originalaudiofilename>
						</logginginfo>
						<colorinfo>
							<lut></lut>
							<lut1></lut1>
							<asc_sop></asc_sop>
							<asc_sat></asc_sat>
							<lut2></lut2>
						</colorinfo>
						<labels>
							<label2>Violet</label2>
						</labels>
					</clipitem>
					<clipitem id="clipitem-1457">
						<masterclipid>masterclip-1454</masterclipid>
						<name>TKO_020_CHA_Sh15110.mov</name>
						<enabled>TRUE</enabled>
						<duration>122</duration>
						<rate>
							<timebase>24</timebase>
							<ntsc>TRUE</ntsc>
						</rate>
						<start>104239</start>
						<end>104353</end>
						<in>4</in>
						<out>118</out>
						<pproTicksIn>42378336000</pproTicksIn>
						<pproTicksOut>1250160912000</pproTicksOut>
						<alphatype>none</alphatype>
						<pixelaspectratio>square</pixelaspectratio>
						<anamorphic>FALSE</anamorphic>
						<file id="file-1454">
							<name>TKO_020_CHA_Sh15110.mov</name>
							<pathurl>file://tri-stor01/Projects/TKO/SHOTS/_Refs_Movs_Burnin_FrameCounter/TKO_020_CHA_Sh15110.mov</pathurl>
							<rate>
								<timebase>24</timebase>
								<ntsc>TRUE</ntsc>
							</rate>
							<duration>122</duration>
							<timecode>
								<rate>
									<timebase>24</timebase>
									<ntsc>TRUE</ntsc>
								</rate>
								<string>14:45:33:18</string>
								<frame>1275210</frame>
								<displayformat>NDF</displayformat>
								<reel>
									<name>A0270015</name>
								</reel>
							</timecode>
							<media>
								<video>
									<samplecharacteristics>
										<rate>
											<timebase>24</timebase>
											<ntsc>TRUE</ntsc>
										</rate>
										<width>4096</width>
										<height>2160</height>
										<anamorphic>FALSE</anamorphic>
										<pixelaspectratio>square</pixelaspectratio>
										<fielddominance>none</fielddominance>
									</samplecharacteristics>
								</video>
							</media>
						</file>
						<logginginfo>
							<description></description>
							<scene></scene>
							<shottake></shottake>
							<lognote></lognote>
							<good></good>
							<originalvideofilename></originalvideofilename>
							<originalaudiofilename></originalaudiofilename>
						</logginginfo>
						<colorinfo>
							<lut></lut>
							<lut1></lut1>
							<asc_sop></asc_sop>
							<asc_sat></asc_sat>
							<lut2></lut2>
						</colorinfo>
						<labels>
							<label2>Violet</label2>
						</labels>
					</clipitem>
					<clipitem id="clipitem-1458">
						<masterclipid>masterclip-1455</masterclipid>
						<name>TKO_020_CHA_Sh15120.mov</name>
						<enabled>TRUE</enabled>
						<duration>68</duration>
						<rate>
							<timebase>24</timebase>
							<ntsc>TRUE</ntsc>
						</rate>
						<start>104353</start>
						<end>104413</end>
						<in>4</in>
						<out>64</out>
						<pproTicksIn>42378336000</pproTicksIn>
						<pproTicksOut>678053376000</pproTicksOut>
						<alphatype>none</alphatype>
						<pixelaspectratio>square</pixelaspectratio>
						<anamorphic>FALSE</anamorphic>
						<file id="file-1455">
							<name>TKO_020_CHA_Sh15120.mov</name>
							<pathurl>file://tri-stor01/Projects/TKO/SHOTS/_Refs_Movs_Burnin_FrameCounter/TKO_020_CHA_Sh15120.mov</pathurl>
							<rate>
								<timebase>24</timebase>
								<ntsc>TRUE</ntsc>
							</rate>
							<duration>68</duration>
							<timecode>
								<rate>
									<timebase>24</timebase>
									<ntsc>TRUE</ntsc>
								</rate>
								<string>14:13:18:16</string>
								<frame>1228768</frame>
								<displayformat>NDF</displayformat>
								<reel>
									<name>B0270009</name>
								</reel>
							</timecode>
							<media>
								<video>
									<samplecharacteristics>
										<rate>
											<timebase>24</timebase>
											<ntsc>TRUE</ntsc>
										</rate>
										<width>4096</width>
										<height>2160</height>
										<anamorphic>FALSE</anamorphic>
										<pixelaspectratio>square</pixelaspectratio>
										<fielddominance>none</fielddominance>
									</samplecharacteristics>
								</video>
							</media>
						</file>
						<logginginfo>
							<description></description>
							<scene></scene>
							<shottake></shottake>
							<lognote></lognote>
							<good></good>
							<originalvideofilename></originalvideofilename>
							<originalaudiofilename></originalaudiofilename>
						</logginginfo>
						<colorinfo>
							<lut></lut>
							<lut1></lut1>
							<asc_sop></asc_sop>
							<asc_sat></asc_sat>
							<lut2></lut2>
						</colorinfo>
						<labels>
							<label2>Violet</label2>
						</labels>
					</clipitem>
					<clipitem id="clipitem-1459">
						<masterclipid>masterclip-1456</masterclipid>
						<name>TKO_020_CHA_Sh15130.mov</name>
						<enabled>TRUE</enabled>
						<duration>40</duration>
						<rate>
							<timebase>24</timebase>
							<ntsc>TRUE</ntsc>
						</rate>
						<start>104413</start>
						<end>104445</end>
						<in>4</in>
						<out>36</out>
						<pproTicksIn>42378336000</pproTicksIn>
						<pproTicksOut>381405024000</pproTicksOut>
						<alphatype>none</alphatype>
						<pixelaspectratio>square</pixelaspectratio>
						<anamorphic>FALSE</anamorphic>
						<file id="file-1456">
							<name>TKO_020_CHA_Sh15130.mov</name>
							<pathurl>file://tri-stor01/Projects/TKO/SHOTS/_Refs_Movs_Burnin_FrameCounter/TKO_020_CHA_Sh15130.mov</pathurl>
							<rate>
								<timebase>24</timebase>
								<ntsc>TRUE</ntsc>
							</rate>
							<duration>40</duration>
							<timecode>
								<rate>
									<timebase>24</timebase>
									<ntsc>TRUE</ntsc>
								</rate>
								<string>13:27:26:14</string>
								<frame>1162718</frame>
								<displayformat>NDF</displayformat>
								<reel>
									<name>B0270007</name>
								</reel>
							</timecode>
							<media>
								<video>
									<samplecharacteristics>
										<rate>
											<timebase>24</timebase>
											<ntsc>TRUE</ntsc>
										</rate>
										<width>4096</width>
										<height>2160</height>
										<anamorphic>FALSE</anamorphic>
										<pixelaspectratio>square</pixelaspectratio>
										<fielddominance>none</fielddominance>
									</samplecharacteristics>
								</video>
							</media>
						</file>
						<logginginfo>
							<description></description>
							<scene></scene>
							<shottake></shottake>
							<lognote></lognote>
							<good></good>
							<originalvideofilename></originalvideofilename>
							<originalaudiofilename></originalaudiofilename>
						</logginginfo>
						<colorinfo>
							<lut></lut>
							<lut1></lut1>
							<asc_sop></asc_sop>
							<asc_sat></asc_sat>
							<lut2></lut2>
						</colorinfo>
						<labels>
							<label2>Violet</label2>
						</labels>
					</clipitem>
					<clipitem id="clipitem-1460">
						<masterclipid>masterclip-1457</masterclipid>
						<name>TKO_020_CHA_Sh15140.mov</name>
						<enabled>TRUE</enabled>
						<duration>31</duration>
						<rate>
							<timebase>24</timebase>
							<ntsc>TRUE</ntsc>
						</rate>
						<start>104445</start>
						<end>104468</end>
						<in>4</in>
						<out>27</out>
						<pproTicksIn>42378336000</pproTicksIn>
						<pproTicksOut>286053768000</pproTicksOut>
						<alphatype>none</alphatype>
						<pixelaspectratio>square</pixelaspectratio>
						<anamorphic>FALSE</anamorphic>
						<file id="file-1457">
							<name>TKO_020_CHA_Sh15140.mov</name>
							<pathurl>file://tri-stor01/Projects/TKO/SHOTS/_Refs_Movs_Burnin_FrameCounter/TKO_020_CHA_Sh15140.mov</pathurl>
							<rate>
								<timebase>24</timebase>
								<ntsc>TRUE</ntsc>
							</rate>
							<duration>31</duration>
							<timecode>
								<rate>
									<timebase>24</timebase>
									<ntsc>TRUE</ntsc>
								</rate>
								<string>09:53:39:05</string>
								<frame>854861</frame>
								<displayformat>NDF</displayformat>
								<reel>
									<name>C0230009</name>
								</reel>
							</timecode>
							<media>
								<video>
									<samplecharacteristics>
										<rate>
											<timebase>24</timebase>
											<ntsc>TRUE</ntsc>
										</rate>
										<width>3840</width>
										<height>2160</height>
										<anamorphic>FALSE</anamorphic>
										<pixelaspectratio>square</pixelaspectratio>
										<fielddominance>none</fielddominance>
									</samplecharacteristics>
								</video>
							</media>
						</file>
						<logginginfo>
							<description></description>
							<scene></scene>
							<shottake></shottake>
							<lognote></lognote>
							<good></good>
							<originalvideofilename></originalvideofilename>
							<originalaudiofilename></originalaudiofilename>
						</logginginfo>
						<colorinfo>
							<lut></lut>
							<lut1></lut1>
							<asc_sop></asc_sop>
							<asc_sat></asc_sat>
							<lut2></lut2>
						</colorinfo>
						<labels>
							<label2>Violet</label2>
						</labels>
					</clipitem>
					<clipitem id="clipitem-1461">
						<masterclipid>masterclip-1458</masterclipid>
						<name>TKO_020_CHA_Sh15150.mov</name>
						<enabled>TRUE</enabled>
						<duration>32</duration>
						<rate>
							<timebase>24</timebase>
							<ntsc>TRUE</ntsc>
						</rate>
						<start>104468</start>
						<end>104492</end>
						<in>4</in>
						<out>28</out>
						<pproTicksIn>42378336000</pproTicksIn>
						<pproTicksOut>296648352000</pproTicksOut>
						<alphatype>none</alphatype>
						<pixelaspectratio>square</pixelaspectratio>
						<anamorphic>FALSE</anamorphic>
						<file id="file-1458">
							<name>TKO_020_CHA_Sh15150.mov</name>
							<pathurl>file://tri-stor01/Projects/TKO/SHOTS/_Refs_Movs_Burnin_FrameCounter/TKO_020_CHA_Sh15150.mov</pathurl>
							<rate>
								<timebase>24</timebase>
								<ntsc>TRUE</ntsc>
							</rate>
							<duration>32</duration>
							<timecode>
								<rate>
									<timebase>24</timebase>
									<ntsc>TRUE</ntsc>
								</rate>
								<string>14:13:22:17</string>
								<frame>1228865</frame>
								<displayformat>NDF</displayformat>
								<reel>
									<name>A0330012</name>
								</reel>
							</timecode>
							<media>
								<video>
									<samplecharacteristics>
										<rate>
											<timebase>24</timebase>
											<ntsc>TRUE</ntsc>
										</rate>
										<width>4096</width>
										<height>2160</height>
										<anamorphic>FALSE</anamorphic>
										<pixelaspectratio>square</pixelaspectratio>
										<fielddominance>none</fielddominance>
									</samplecharacteristics>
								</video>
							</media>
						</file>
						<logginginfo>
							<description></description>
							<scene></scene>
							<shottake></shottake>
							<lognote></lognote>
							<good></good>
							<originalvideofilename></originalvideofilename>
							<originalaudiofilename></originalaudiofilename>
						</logginginfo>
						<colorinfo>
							<lut></lut>
							<lut1></lut1>
							<asc_sop></asc_sop>
							<asc_sat></asc_sat>
							<lut2></lut2>
						</colorinfo>
						<labels>
							<label2>Violet</label2>
						</labels>
					</clipitem>
					<clipitem id="clipitem-1462">
						<masterclipid>masterclip-1459</masterclipid>
						<name>TKO_020_CHA_Sh15160.mov</name>
						<enabled>TRUE</enabled>
						<duration>18</duration>
						<rate>
							<timebase>24</timebase>
							<ntsc>TRUE</ntsc>
						</rate>
						<start>104492</start>
						<end>104502</end>
						<in>4</in>
						<out>14</out>
						<pproTicksIn>42378336000</pproTicksIn>
						<pproTicksOut>148324176000</pproTicksOut>
						<alphatype>none</alphatype>
						<pixelaspectratio>square</pixelaspectratio>
						<anamorphic>FALSE</anamorphic>
						<file id="file-1459">
							<name>TKO_020_CHA_Sh15160.mov</name>
							<pathurl>file://tri-stor01/Projects/TKO/SHOTS/_Refs_Movs_Burnin_FrameCounter/TKO_020_CHA_Sh15160.mov</pathurl>
							<rate>
								<timebase>24</timebase>
								<ntsc>TRUE</ntsc>
							</rate>
							<duration>18</duration>
							<timecode>
								<rate>
									<timebase>24</timebase>
									<ntsc>TRUE</ntsc>
								</rate>
								<string>14:13:24:01</string>
								<frame>1228897</frame>
								<displayformat>NDF</displayformat>
								<reel>
									<name>B0270009</name>
								</reel>
							</timecode>
							<media>
								<video>
									<samplecharacteristics>
										<rate>
											<timebase>24</timebase>
											<ntsc>TRUE</ntsc>
										</rate>
										<width>4096</width>
										<height>2160</height>
										<anamorphic>FALSE</anamorphic>
										<pixelaspectratio>square</pixelaspectratio>
										<fielddominance>none</fielddominance>
									</samplecharacteristics>
								</video>
							</media>
						</file>
						<logginginfo>
							<description></description>
							<scene></scene>
							<shottake></shottake>
							<lognote></lognote>
							<good></good>
							<originalvideofilename></originalvideofilename>
							<originalaudiofilename></originalaudiofilename>
						</logginginfo>
						<colorinfo>
							<lut></lut>
							<lut1></lut1>
							<asc_sop></asc_sop>
							<asc_sat></asc_sat>
							<lut2></lut2>
						</colorinfo>
						<labels>
							<label2>Violet</label2>
						</labels>
					</clipitem>
					<clipitem id="clipitem-1463">
						<masterclipid>masterclip-1460</masterclipid>
						<name>TKO_020_CHA_Sh15170.mov</name>
						<enabled>TRUE</enabled>
						<duration>23</duration>
						<rate>
							<timebase>24</timebase>
							<ntsc>TRUE</ntsc>
						</rate>
						<start>104502</start>
						<end>104517</end>
						<in>5</in>
						<out>20</out>
						<pproTicksIn>52972920000</pproTicksIn>
						<pproTicksOut>211891680000</pproTicksOut>
						<alphatype>none</alphatype>
						<pixelaspectratio>square</pixelaspectratio>
						<anamorphic>FALSE</anamorphic>
						<file id="file-1460">
							<name>TKO_020_CHA_Sh15170.mov</name>
							<pathurl>file://tri-stor01/Projects/TKO/SHOTS/_Refs_Movs_Burnin_FrameCounter/TKO_020_CHA_Sh15170.mov</pathurl>
							<rate>
								<timebase>24</timebase>
								<ntsc>TRUE</ntsc>
							</rate>
							<duration>23</duration>
							<timecode>
								<rate>
									<timebase>24</timebase>
									<ntsc>TRUE</ntsc>
								</rate>
								<string>00:58:33:17</string>
								<frame>84329</frame>
								<displayformat>NDF</displayformat>
							</timecode>
							<media>
								<video>
									<samplecharacteristics>
										<rate>
											<timebase>24</timebase>
											<ntsc>TRUE</ntsc>
										</rate>
										<width>1280</width>
										<height>720</height>
										<anamorphic>FALSE</anamorphic>
										<pixelaspectratio>square</pixelaspectratio>
										<fielddominance>none</fielddominance>
									</samplecharacteristics>
								</video>
							</media>
						</file>
						<logginginfo>
							<description></description>
							<scene></scene>
							<shottake></shottake>
							<lognote></lognote>
							<good></good>
							<originalvideofilename></originalvideofilename>
							<originalaudiofilename></originalaudiofilename>
						</logginginfo>
						<colorinfo>
							<lut></lut>
							<lut1></lut1>
							<asc_sop></asc_sop>
							<asc_sat></asc_sat>
							<lut2></lut2>
						</colorinfo>
						<labels>
							<label2>Violet</label2>
						</labels>
					</clipitem>
					<clipitem id="clipitem-1464">
						<masterclipid>masterclip-1461</masterclipid>
						<name>TKO_020_CHA_Sh15180.mov</name>
						<enabled>TRUE</enabled>
						<duration>31</duration>
						<rate>
							<timebase>24</timebase>
							<ntsc>TRUE</ntsc>
						</rate>
						<start>104517</start>
						<end>104540</end>
						<in>4</in>
						<out>27</out>
						<pproTicksIn>42378336000</pproTicksIn>
						<pproTicksOut>286053768000</pproTicksOut>
						<alphatype>none</alphatype>
						<pixelaspectratio>square</pixelaspectratio>
						<anamorphic>FALSE</anamorphic>
						<file id="file-1461">
							<name>TKO_020_CHA_Sh15180.mov</name>
							<pathurl>file://tri-stor01/Projects/TKO/SHOTS/_Refs_Movs_Burnin_FrameCounter/TKO_020_CHA_Sh15180.mov</pathurl>
							<rate>
								<timebase>24</timebase>
								<ntsc>TRUE</ntsc>
							</rate>
							<duration>31</duration>
							<timecode>
								<rate>
									<timebase>24</timebase>
									<ntsc>TRUE</ntsc>
								</rate>
								<string>14:13:25:10</string>
								<frame>1228930</frame>
								<displayformat>NDF</displayformat>
								<reel>
									<name>B0270009</name>
								</reel>
							</timecode>
							<media>
								<video>
									<samplecharacteristics>
										<rate>
											<timebase>24</timebase>
											<ntsc>TRUE</ntsc>
										</rate>
										<width>4096</width>
										<height>2160</height>
										<anamorphic>FALSE</anamorphic>
										<pixelaspectratio>square</pixelaspectratio>
										<fielddominance>none</fielddominance>
									</samplecharacteristics>
								</video>
							</media>
						</file>
						<logginginfo>
							<description></description>
							<scene></scene>
							<shottake></shottake>
							<lognote></lognote>
							<good></good>
							<originalvideofilename></originalvideofilename>
							<originalaudiofilename></originalaudiofilename>
						</logginginfo>
						<colorinfo>
							<lut></lut>
							<lut1></lut1>
							<asc_sop></asc_sop>
							<asc_sat></asc_sat>
							<lut2></lut2>
						</colorinfo>
						<labels>
							<label2>Violet</label2>
						</labels>
					</clipitem>
					<clipitem id="clipitem-1465">
						<masterclipid>masterclip-1462</masterclipid>
						<name>TKO_020_CHA_Sh15190.mov</name>
						<enabled>TRUE</enabled>
						<duration>39</duration>
						<rate>
							<timebase>24</timebase>
							<ntsc>TRUE</ntsc>
						</rate>
						<start>104540</start>
						<end>104571</end>
						<in>4</in>
						<out>35</out>
						<pproTicksIn>42378336000</pproTicksIn>
						<pproTicksOut>370810440000</pproTicksOut>
						<alphatype>none</alphatype>
						<pixelaspectratio>square</pixelaspectratio>
						<anamorphic>FALSE</anamorphic>
						<file id="file-1462">
							<name>TKO_020_CHA_Sh15190.mov</name>
							<pathurl>file://tri-stor01/Projects/TKO/SHOTS/_Refs_Movs_Burnin_FrameCounter/TKO_020_CHA_Sh15190.mov</pathurl>
							<rate>
								<timebase>24</timebase>
								<ntsc>TRUE</ntsc>
							</rate>
							<duration>39</duration>
							<timecode>
								<rate>
									<timebase>24</timebase>
									<ntsc>TRUE</ntsc>
								</rate>
								<string>13:27:33:20</string>
								<frame>1162892</frame>
								<displayformat>NDF</displayformat>
								<reel>
									<name>B0270007</name>
								</reel>
							</timecode>
							<media>
								<video>
									<samplecharacteristics>
										<rate>
											<timebase>24</timebase>
											<ntsc>TRUE</ntsc>
										</rate>
										<width>4096</width>
										<height>2160</height>
										<anamorphic>FALSE</anamorphic>
										<pixelaspectratio>square</pixelaspectratio>
										<fielddominance>none</fielddominance>
									</samplecharacteristics>
								</video>
							</media>
						</file>
						<logginginfo>
							<description></description>
							<scene></scene>
							<shottake></shottake>
							<lognote></lognote>
							<good></good>
							<originalvideofilename></originalvideofilename>
							<originalaudiofilename></originalaudiofilename>
						</logginginfo>
						<colorinfo>
							<lut></lut>
							<lut1></lut1>
							<asc_sop></asc_sop>
							<asc_sat></asc_sat>
							<lut2></lut2>
						</colorinfo>
						<labels>
							<label2>Violet</label2>
						</labels>
					</clipitem>
					<clipitem id="clipitem-1466">
						<masterclipid>masterclip-1463</masterclipid>
						<name>TKO_020_CHA_Sh15200.mov</name>
						<enabled>TRUE</enabled>
						<duration>41</duration>
						<rate>
							<timebase>24</timebase>
							<ntsc>TRUE</ntsc>
						</rate>
						<start>104571</start>
						<end>104604</end>
						<in>4</in>
						<out>37</out>
						<pproTicksIn>42378336000</pproTicksIn>
						<pproTicksOut>391999608000</pproTicksOut>
						<alphatype>none</alphatype>
						<pixelaspectratio>square</pixelaspectratio>
						<anamorphic>FALSE</anamorphic>
						<file id="file-1463">
							<name>TKO_020_CHA_Sh15200.mov</name>
							<pathurl>file://tri-stor01/Projects/TKO/SHOTS/_Refs_Movs_Burnin_FrameCounter/TKO_020_CHA_Sh15200.mov</pathurl>
							<rate>
								<timebase>24</timebase>
								<ntsc>TRUE</ntsc>
							</rate>
							<duration>41</duration>
							<timecode>
								<rate>
									<timebase>24</timebase>
									<ntsc>TRUE</ntsc>
								</rate>
								<string>12:59:36:21</string>
								<frame>1122645</frame>
								<displayformat>NDF</displayformat>
								<reel>
									<name>A0330007</name>
								</reel>
							</timecode>
							<media>
								<video>
									<samplecharacteristics>
										<rate>
											<timebase>24</timebase>
											<ntsc>TRUE</ntsc>
										</rate>
										<width>4096</width>
										<height>2160</height>
										<anamorphic>FALSE</anamorphic>
										<pixelaspectratio>square</pixelaspectratio>
										<fielddominance>none</fielddominance>
									</samplecharacteristics>
								</video>
							</media>
						</file>
						<logginginfo>
							<description></description>
							<scene></scene>
							<shottake></shottake>
							<lognote></lognote>
							<good></good>
							<originalvideofilename></originalvideofilename>
							<originalaudiofilename></originalaudiofilename>
						</logginginfo>
						<colorinfo>
							<lut></lut>
							<lut1></lut1>
							<asc_sop></asc_sop>
							<asc_sat></asc_sat>
							<lut2></lut2>
						</colorinfo>
						<labels>
							<label2>Violet</label2>
						</labels>
					</clipitem>
					<clipitem id="clipitem-1467">
						<masterclipid>masterclip-1464</masterclipid>
						<name>TKO_020_CHA_Sh15210.mov</name>
						<enabled>TRUE</enabled>
						<duration>25</duration>
						<rate>
							<timebase>24</timebase>
							<ntsc>TRUE</ntsc>
						</rate>
						<start>104604</start>
						<end>104621</end>
						<in>4</in>
						<out>21</out>
						<pproTicksIn>42378336000</pproTicksIn>
						<pproTicksOut>222486264000</pproTicksOut>
						<alphatype>none</alphatype>
						<pixelaspectratio>square</pixelaspectratio>
						<anamorphic>FALSE</anamorphic>
						<file id="file-1464">
							<name>TKO_020_CHA_Sh15210.mov</name>
							<pathurl>file://tri-stor01/Projects/TKO/SHOTS/_Refs_Movs_Burnin_FrameCounter/TKO_020_CHA_Sh15210.mov</pathurl>
							<rate>
								<timebase>24</timebase>
								<ntsc>TRUE</ntsc>
							</rate>
							<duration>25</duration>
							<timecode>
								<rate>
									<timebase>24</timebase>
									<ntsc>TRUE</ntsc>
								</rate>
								<string>13:22:35:14</string>
								<frame>1155734</frame>
								<displayformat>NDF</displayformat>
								<reel>
									<name>A0330009</name>
								</reel>
							</timecode>
							<media>
								<video>
									<samplecharacteristics>
										<rate>
											<timebase>24</timebase>
											<ntsc>TRUE</ntsc>
										</rate>
										<width>4096</width>
										<height>2160</height>
										<anamorphic>FALSE</anamorphic>
										<pixelaspectratio>square</pixelaspectratio>
										<fielddominance>none</fielddominance>
									</samplecharacteristics>
								</video>
							</media>
						</file>
						<logginginfo>
							<description></description>
							<scene></scene>
							<shottake></shottake>
							<lognote></lognote>
							<good></good>
							<originalvideofilename></originalvideofilename>
							<originalaudiofilename></originalaudiofilename>
						</logginginfo>
						<colorinfo>
							<lut></lut>
							<lut1></lut1>
							<asc_sop></asc_sop>
							<asc_sat></asc_sat>
							<lut2></lut2>
						</colorinfo>
						<labels>
							<label2>Violet</label2>
						</labels>
					</clipitem>
					<clipitem id="clipitem-1468">
						<masterclipid>masterclip-1465</masterclipid>
						<name>TKO_020_CHA_Sh15220.mov</name>
						<enabled>TRUE</enabled>
						<duration>25</duration>
						<rate>
							<timebase>24</timebase>
							<ntsc>TRUE</ntsc>
						</rate>
						<start>104621</start>
						<end>104638</end>
						<in>4</in>
						<out>21</out>
						<pproTicksIn>42378336000</pproTicksIn>
						<pproTicksOut>222486264000</pproTicksOut>
						<alphatype>none</alphatype>
						<pixelaspectratio>square</pixelaspectratio>
						<anamorphic>FALSE</anamorphic>
						<file id="file-1465">
							<name>TKO_020_CHA_Sh15220.mov</name>
							<pathurl>file://tri-stor01/Projects/TKO/SHOTS/_Refs_Movs_Burnin_FrameCounter/TKO_020_CHA_Sh15220.mov</pathurl>
							<rate>
								<timebase>24</timebase>
								<ntsc>TRUE</ntsc>
							</rate>
							<duration>25</duration>
							<timecode>
								<rate>
									<timebase>24</timebase>
									<ntsc>TRUE</ntsc>
								</rate>
								<string>02:57:42:08</string>
								<frame>255896</frame>
								<displayformat>NDF</displayformat>
								<reel>
									<name>C0040015</name>
								</reel>
							</timecode>
							<media>
								<video>
									<samplecharacteristics>
										<rate>
											<timebase>24</timebase>
											<ntsc>TRUE</ntsc>
										</rate>
										<width>3840</width>
										<height>2160</height>
										<anamorphic>FALSE</anamorphic>
										<pixelaspectratio>square</pixelaspectratio>
										<fielddominance>none</fielddominance>
									</samplecharacteristics>
								</video>
							</media>
						</file>
						<logginginfo>
							<description></description>
							<scene></scene>
							<shottake></shottake>
							<lognote></lognote>
							<good></good>
							<originalvideofilename></originalvideofilename>
							<originalaudiofilename></originalaudiofilename>
						</logginginfo>
						<colorinfo>
							<lut></lut>
							<lut1></lut1>
							<asc_sop></asc_sop>
							<asc_sat></asc_sat>
							<lut2></lut2>
						</colorinfo>
						<labels>
							<label2>Violet</label2>
						</labels>
					</clipitem>
					<clipitem id="clipitem-1469">
						<masterclipid>masterclip-1466</masterclipid>
						<name>TKO_020_CHA_Sh15230.mov</name>
						<enabled>TRUE</enabled>
						<duration>23</duration>
						<rate>
							<timebase>24</timebase>
							<ntsc>TRUE</ntsc>
						</rate>
						<start>104638</start>
						<end>104653</end>
						<in>4</in>
						<out>19</out>
						<pproTicksIn>42378336000</pproTicksIn>
						<pproTicksOut>201297096000</pproTicksOut>
						<alphatype>none</alphatype>
						<pixelaspectratio>square</pixelaspectratio>
						<anamorphic>FALSE</anamorphic>
						<file id="file-1466">
							<name>TKO_020_CHA_Sh15230.mov</name>
							<pathurl>file://tri-stor01/Projects/TKO/SHOTS/_Refs_Movs_Burnin_FrameCounter/TKO_020_CHA_Sh15230.mov</pathurl>
							<rate>
								<timebase>24</timebase>
								<ntsc>TRUE</ntsc>
							</rate>
							<duration>23</duration>
							<timecode>
								<rate>
									<timebase>24</timebase>
									<ntsc>TRUE</ntsc>
								</rate>
								<string>13:22:36:17</string>
								<frame>1155761</frame>
								<displayformat>NDF</displayformat>
								<reel>
									<name>A0330009</name>
								</reel>
							</timecode>
							<media>
								<video>
									<samplecharacteristics>
										<rate>
											<timebase>24</timebase>
											<ntsc>TRUE</ntsc>
										</rate>
										<width>4096</width>
										<height>2160</height>
										<anamorphic>FALSE</anamorphic>
										<pixelaspectratio>square</pixelaspectratio>
										<fielddominance>none</fielddominance>
									</samplecharacteristics>
								</video>
							</media>
						</file>
						<logginginfo>
							<description></description>
							<scene></scene>
							<shottake></shottake>
							<lognote></lognote>
							<good></good>
							<originalvideofilename></originalvideofilename>
							<originalaudiofilename></originalaudiofilename>
						</logginginfo>
						<colorinfo>
							<lut></lut>
							<lut1></lut1>
							<asc_sop></asc_sop>
							<asc_sat></asc_sat>
							<lut2></lut2>
						</colorinfo>
						<labels>
							<label2>Violet</label2>
						</labels>
					</clipitem>
					<clipitem id="clipitem-1470">
						<masterclipid>masterclip-1467</masterclipid>
						<name>TKO_020_CHA_Sh15240.mov</name>
						<enabled>TRUE</enabled>
						<duration>31</duration>
						<rate>
							<timebase>24</timebase>
							<ntsc>TRUE</ntsc>
						</rate>
						<start>104653</start>
						<end>104676</end>
						<in>4</in>
						<out>27</out>
						<pproTicksIn>42378336000</pproTicksIn>
						<pproTicksOut>286053768000</pproTicksOut>
						<alphatype>none</alphatype>
						<pixelaspectratio>square</pixelaspectratio>
						<anamorphic>FALSE</anamorphic>
						<file id="file-1467">
							<name>TKO_020_CHA_Sh15240.mov</name>
							<pathurl>file://tri-stor01/Projects/TKO/SHOTS/_Refs_Movs_Burnin_FrameCounter/TKO_020_CHA_Sh15240.mov</pathurl>
							<rate>
								<timebase>24</timebase>
								<ntsc>TRUE</ntsc>
							</rate>
							<duration>31</duration>
							<timecode>
								<rate>
									<timebase>24</timebase>
									<ntsc>TRUE</ntsc>
								</rate>
								<string>00:59:18:09</string>
								<frame>85401</frame>
								<displayformat>NDF</displayformat>
							</timecode>
							<media>
								<video>
									<samplecharacteristics>
										<rate>
											<timebase>24</timebase>
											<ntsc>TRUE</ntsc>
										</rate>
										<width>1280</width>
										<height>720</height>
										<anamorphic>FALSE</anamorphic>
										<pixelaspectratio>square</pixelaspectratio>
										<fielddominance>none</fielddominance>
									</samplecharacteristics>
								</video>
							</media>
						</file>
						<logginginfo>
							<description></description>
							<scene></scene>
							<shottake></shottake>
							<lognote></lognote>
							<good></good>
							<originalvideofilename></originalvideofilename>
							<originalaudiofilename></originalaudiofilename>
						</logginginfo>
						<colorinfo>
							<lut></lut>
							<lut1></lut1>
							<asc_sop></asc_sop>
							<asc_sat></asc_sat>
							<lut2></lut2>
						</colorinfo>
						<labels>
							<label2>Violet</label2>
						</labels>
					</clipitem>
					<clipitem id="clipitem-1471">
						<masterclipid>masterclip-1468</masterclipid>
						<name>TKO_020_CHA_Sh15250.mov</name>
						<enabled>TRUE</enabled>
						<duration>60</duration>
						<rate>
							<timebase>24</timebase>
							<ntsc>TRUE</ntsc>
						</rate>
						<start>104676</start>
						<end>104728</end>
						<in>4</in>
						<out>56</out>
						<pproTicksIn>42378336000</pproTicksIn>
						<pproTicksOut>593296704000</pproTicksOut>
						<alphatype>none</alphatype>
						<pixelaspectratio>square</pixelaspectratio>
						<anamorphic>FALSE</anamorphic>
						<file id="file-1468">
							<name>TKO_020_CHA_Sh15250.mov</name>
							<pathurl>file://tri-stor01/Projects/TKO/SHOTS/_Refs_Movs_Burnin_FrameCounter/TKO_020_CHA_Sh15250.mov</pathurl>
							<rate>
								<timebase>24</timebase>
								<ntsc>TRUE</ntsc>
							</rate>
							<duration>60</duration>
							<timecode>
								<rate>
									<timebase>24</timebase>
									<ntsc>TRUE</ntsc>
								</rate>
								<string>12:59:40:00</string>
								<frame>1122720</frame>
								<displayformat>NDF</displayformat>
								<reel>
									<name>A0330007</name>
								</reel>
							</timecode>
							<media>
								<video>
									<samplecharacteristics>
										<rate>
											<timebase>24</timebase>
											<ntsc>TRUE</ntsc>
										</rate>
										<width>4096</width>
										<height>2160</height>
										<anamorphic>FALSE</anamorphic>
										<pixelaspectratio>square</pixelaspectratio>
										<fielddominance>none</fielddominance>
									</samplecharacteristics>
								</video>
							</media>
						</file>
						<logginginfo>
							<description></description>
							<scene></scene>
							<shottake></shottake>
							<lognote></lognote>
							<good></good>
							<originalvideofilename></originalvideofilename>
							<originalaudiofilename></originalaudiofilename>
						</logginginfo>
						<colorinfo>
							<lut></lut>
							<lut1></lut1>
							<asc_sop></asc_sop>
							<asc_sat></asc_sat>
							<lut2></lut2>
						</colorinfo>
						<labels>
							<label2>Violet</label2>
						</labels>
					</clipitem>
					<clipitem id="clipitem-1472">
						<masterclipid>masterclip-1469</masterclipid>
						<name>TKO_020_CHA_Sh15260.mov</name>
						<enabled>TRUE</enabled>
						<duration>160</duration>
						<rate>
							<timebase>24</timebase>
							<ntsc>TRUE</ntsc>
						</rate>
						<start>104728</start>
						<end>104880</end>
						<in>4</in>
						<out>156</out>
						<pproTicksIn>42378336000</pproTicksIn>
						<pproTicksOut>1652755104000</pproTicksOut>
						<alphatype>none</alphatype>
						<pixelaspectratio>square</pixelaspectratio>
						<anamorphic>FALSE</anamorphic>
						<file id="file-1469">
							<name>TKO_020_CHA_Sh15260.mov</name>
							<pathurl>file://tri-stor01/Projects/TKO/SHOTS/_Refs_Movs_Burnin_FrameCounter/TKO_020_CHA_Sh15260.mov</pathurl>
							<rate>
								<timebase>24</timebase>
								<ntsc>TRUE</ntsc>
							</rate>
							<duration>160</duration>
							<timecode>
								<rate>
									<timebase>24</timebase>
									<ntsc>TRUE</ntsc>
								</rate>
								<string>00:59:21:12</string>
								<frame>85476</frame>
								<displayformat>NDF</displayformat>
							</timecode>
							<media>
								<video>
									<samplecharacteristics>
										<rate>
											<timebase>24</timebase>
											<ntsc>TRUE</ntsc>
										</rate>
										<width>1280</width>
										<height>720</height>
										<anamorphic>FALSE</anamorphic>
										<pixelaspectratio>square</pixelaspectratio>
										<fielddominance>none</fielddominance>
									</samplecharacteristics>
								</video>
							</media>
						</file>
						<logginginfo>
							<description></description>
							<scene></scene>
							<shottake></shottake>
							<lognote></lognote>
							<good></good>
							<originalvideofilename></originalvideofilename>
							<originalaudiofilename></originalaudiofilename>
						</logginginfo>
						<colorinfo>
							<lut></lut>
							<lut1></lut1>
							<asc_sop></asc_sop>
							<asc_sat></asc_sat>
							<lut2></lut2>
						</colorinfo>
						<labels>
							<label2>Violet</label2>
						</labels>
					</clipitem>
					<clipitem id="clipitem-1473">
						<masterclipid>masterclip-1470</masterclipid>
						<name>TKO_020_CHA_Sh15270_CG_BG_BEAUTY_V02.mov</name>
						<enabled>TRUE</enabled>
						<duration>74</duration>
						<rate>
							<timebase>24</timebase>
							<ntsc>TRUE</ntsc>
						</rate>
						<start>104880</start>
						<end>104945</end>
						<in>4</in>
						<out>69</out>
						<pproTicksIn>42378336000</pproTicksIn>
						<pproTicksOut>731026296000</pproTicksOut>
						<alphatype>none</alphatype>
						<pixelaspectratio>square</pixelaspectratio>
						<anamorphic>FALSE</anamorphic>
						<file id="file-1470">
							<name>TKO_020_CHA_Sh15270_CG_BG_BEAUTY_V02.mov</name>
							<pathurl>file://localhost/W%3a/TKO/SHOTS/TKO_020_CHA/TKO_020_CHA_Sh15270/CG/BG/BEAUTY/V02/TKO_020_CHA_Sh15270_CG_BG_BEAUTY_V02.mov</pathurl>
							<rate>
								<timebase>24</timebase>
								<ntsc>TRUE</ntsc>
							</rate>
							<duration>74</duration>
							<timecode>
								<rate>
									<timebase>24</timebase>
									<ntsc>TRUE</ntsc>
								</rate>
								<string>00:00:00:00</string>
								<frame>0</frame>
								<displayformat>NDF</displayformat>
							</timecode>
							<media>
								<video>
									<samplecharacteristics>
										<rate>
											<timebase>24</timebase>
											<ntsc>TRUE</ntsc>
										</rate>
										<width>1920</width>
										<height>1080</height>
										<anamorphic>FALSE</anamorphic>
										<pixelaspectratio>square</pixelaspectratio>
										<fielddominance>none</fielddominance>
									</samplecharacteristics>
								</video>
							</media>
						</file>
						<logginginfo>
							<description></description>
							<scene></scene>
							<shottake></shottake>
							<lognote></lognote>
							<good></good>
							<originalvideofilename></originalvideofilename>
							<originalaudiofilename></originalaudiofilename>
						</logginginfo>
						<colorinfo>
							<lut></lut>
							<lut1></lut1>
							<asc_sop></asc_sop>
							<asc_sat></asc_sat>
							<lut2></lut2>
						</colorinfo>
						<labels>
							<label2>Violet</label2>
						</labels>
					</clipitem>
					<clipitem id="clipitem-1474">
						<masterclipid>masterclip-1471</masterclipid>
						<name>TKO_020_CHA_Sh15280_CG_BG_BEAUTY_V01.mov</name>
						<enabled>TRUE</enabled>
						<duration>87</duration>
						<rate>
							<timebase>24</timebase>
							<ntsc>TRUE</ntsc>
						</rate>
						<start>104945</start>
						<end>105023</end>
						<in>4</in>
						<out>82</out>
						<pproTicksIn>42378336000</pproTicksIn>
						<pproTicksOut>868755888000</pproTicksOut>
						<alphatype>none</alphatype>
						<pixelaspectratio>square</pixelaspectratio>
						<anamorphic>FALSE</anamorphic>
						<file id="file-1471">
							<name>TKO_020_CHA_Sh15280_CG_BG_BEAUTY_V01.mov</name>
							<pathurl>file://localhost/W%3a/TKO/SHOTS/TKO_020_CHA/TKO_020_CHA_Sh15280/CG/BG/BEAUTY/V01/TKO_020_CHA_Sh15280_CG_BG_BEAUTY_V01.mov</pathurl>
							<rate>
								<timebase>24</timebase>
								<ntsc>TRUE</ntsc>
							</rate>
							<duration>87</duration>
							<timecode>
								<rate>
									<timebase>24</timebase>
									<ntsc>TRUE</ntsc>
								</rate>
								<string>00:00:00:00</string>
								<frame>0</frame>
								<displayformat>NDF</displayformat>
							</timecode>
							<media>
								<video>
									<samplecharacteristics>
										<rate>
											<timebase>24</timebase>
											<ntsc>TRUE</ntsc>
										</rate>
										<width>1920</width>
										<height>1080</height>
										<anamorphic>FALSE</anamorphic>
										<pixelaspectratio>square</pixelaspectratio>
										<fielddominance>none</fielddominance>
									</samplecharacteristics>
								</video>
							</media>
						</file>
						<logginginfo>
							<description></description>
							<scene></scene>
							<shottake></shottake>
							<lognote></lognote>
							<good></good>
							<originalvideofilename></originalvideofilename>
							<originalaudiofilename></originalaudiofilename>
						</logginginfo>
						<colorinfo>
							<lut></lut>
							<lut1></lut1>
							<asc_sop></asc_sop>
							<asc_sat></asc_sat>
							<lut2></lut2>
						</colorinfo>
						<labels>
							<label2>Violet</label2>
						</labels>
					</clipitem>
					<clipitem id="clipitem-1475">
						<masterclipid>masterclip-1472</masterclipid>
						<name>TKO_020_CHA_Sh15290.mov</name>
						<enabled>TRUE</enabled>
						<duration>57</duration>
						<rate>
							<timebase>24</timebase>
							<ntsc>TRUE</ntsc>
						</rate>
						<start>105023</start>
						<end>105072</end>
						<in>4</in>
						<out>53</out>
						<pproTicksIn>42378336000</pproTicksIn>
						<pproTicksOut>561512952000</pproTicksOut>
						<alphatype>none</alphatype>
						<pixelaspectratio>square</pixelaspectratio>
						<anamorphic>FALSE</anamorphic>
						<file id="file-1472">
							<name>TKO_020_CHA_Sh15290.mov</name>
							<pathurl>file://tri-stor01/Projects/TKO/SHOTS/_Refs_Movs_Burnin_FrameCounter/TKO_020_CHA_Sh15290.mov</pathurl>
							<rate>
								<timebase>24</timebase>
								<ntsc>TRUE</ntsc>
							</rate>
							<duration>57</duration>
							<timecode>
								<rate>
									<timebase>24</timebase>
									<ntsc>TRUE</ntsc>
								</rate>
								<string>13:27:51:20</string>
								<frame>1163324</frame>
								<displayformat>NDF</displayformat>
								<reel>
									<name>B0270007</name>
								</reel>
							</timecode>
							<media>
								<video>
									<samplecharacteristics>
										<rate>
											<timebase>24</timebase>
											<ntsc>TRUE</ntsc>
										</rate>
										<width>4096</width>
										<height>2160</height>
										<anamorphic>FALSE</anamorphic>
										<pixelaspectratio>square</pixelaspectratio>
										<fielddominance>none</fielddominance>
									</samplecharacteristics>
								</video>
							</media>
						</file>
						<logginginfo>
							<description></description>
							<scene></scene>
							<shottake></shottake>
							<lognote></lognote>
							<good></good>
							<originalvideofilename></originalvideofilename>
							<originalaudiofilename></originalaudiofilename>
						</logginginfo>
						<colorinfo>
							<lut></lut>
							<lut1></lut1>
							<asc_sop></asc_sop>
							<asc_sat></asc_sat>
							<lut2></lut2>
						</colorinfo>
						<labels>
							<label2>Violet</label2>
						</labels>
					</clipitem>
					<clipitem id="clipitem-1476">
						<masterclipid>masterclip-1473</masterclipid>
						<name>TKO_020_CHA_Sh15300.mov</name>
						<enabled>TRUE</enabled>
						<duration>37</duration>
						<rate>
							<timebase>24</timebase>
							<ntsc>TRUE</ntsc>
						</rate>
						<start>105072</start>
						<end>105101</end>
						<in>4</in>
						<out>33</out>
						<pproTicksIn>42378336000</pproTicksIn>
						<pproTicksOut>349621272000</pproTicksOut>
						<alphatype>none</alphatype>
						<pixelaspectratio>square</pixelaspectratio>
						<anamorphic>FALSE</anamorphic>
						<file id="file-1473">
							<name>TKO_020_CHA_Sh15300.mov</name>
							<pathurl>file://tri-stor01/Projects/TKO/SHOTS/_Refs_Movs_Burnin_FrameCounter/TKO_020_CHA_Sh15300.mov</pathurl>
							<rate>
								<timebase>24</timebase>
								<ntsc>TRUE</ntsc>
							</rate>
							<duration>37</duration>
							<timecode>
								<rate>
									<timebase>24</timebase>
									<ntsc>TRUE</ntsc>
								</rate>
								<string>17:42:23:03</string>
								<frame>1529835</frame>
								<displayformat>NDF</displayformat>
								<reel>
									<name>B0280005</name>
								</reel>
							</timecode>
							<media>
								<video>
									<samplecharacteristics>
										<rate>
											<timebase>24</timebase>
											<ntsc>TRUE</ntsc>
										</rate>
										<width>4096</width>
										<height>2160</height>
										<anamorphic>FALSE</anamorphic>
										<pixelaspectratio>square</pixelaspectratio>
										<fielddominance>none</fielddominance>
									</samplecharacteristics>
								</video>
							</media>
						</file>
						<logginginfo>
							<description></description>
							<scene></scene>
							<shottake></shottake>
							<lognote></lognote>
							<good></good>
							<originalvideofilename></originalvideofilename>
							<originalaudiofilename></originalaudiofilename>
						</logginginfo>
						<colorinfo>
							<lut></lut>
							<lut1></lut1>
							<asc_sop></asc_sop>
							<asc_sat></asc_sat>
							<lut2></lut2>
						</colorinfo>
						<labels>
							<label2>Violet</label2>
						</labels>
					</clipitem>
					<clipitem id="clipitem-1477">
						<masterclipid>masterclip-1474</masterclipid>
						<name>TKO_020_CHA_Sh15310.mov</name>
						<enabled>TRUE</enabled>
						<duration>48</duration>
						<rate>
							<timebase>24</timebase>
							<ntsc>TRUE</ntsc>
						</rate>
						<start>105101</start>
						<end>105141</end>
						<in>4</in>
						<out>44</out>
						<pproTicksIn>42378336000</pproTicksIn>
						<pproTicksOut>466161696000</pproTicksOut>
						<alphatype>none</alphatype>
						<pixelaspectratio>square</pixelaspectratio>
						<anamorphic>FALSE</anamorphic>
						<file id="file-1474">
							<name>TKO_020_CHA_Sh15310.mov</name>
							<pathurl>file://tri-stor01/Projects/TKO/SHOTS/_Refs_Movs_Burnin_FrameCounter/TKO_020_CHA_Sh15310.mov</pathurl>
							<rate>
								<timebase>24</timebase>
								<ntsc>TRUE</ntsc>
							</rate>
							<duration>48</duration>
							<timecode>
								<rate>
									<timebase>24</timebase>
									<ntsc>TRUE</ntsc>
								</rate>
								<string>17:42:25:00</string>
								<frame>1529880</frame>
								<displayformat>NDF</displayformat>
								<reel>
									<name>A0340005</name>
								</reel>
							</timecode>
							<media>
								<video>
									<samplecharacteristics>
										<rate>
											<timebase>24</timebase>
											<ntsc>TRUE</ntsc>
										</rate>
										<width>4096</width>
										<height>2160</height>
										<anamorphic>FALSE</anamorphic>
										<pixelaspectratio>square</pixelaspectratio>
										<fielddominance>none</fielddominance>
									</samplecharacteristics>
								</video>
							</media>
						</file>
						<logginginfo>
							<description></description>
							<scene></scene>
							<shottake></shottake>
							<lognote></lognote>
							<good></good>
							<originalvideofilename></originalvideofilename>
							<originalaudiofilename></originalaudiofilename>
						</logginginfo>
						<colorinfo>
							<lut></lut>
							<lut1></lut1>
							<asc_sop></asc_sop>
							<asc_sat></asc_sat>
							<lut2></lut2>
						</colorinfo>
						<labels>
							<label2>Violet</label2>
						</labels>
					</clipitem>
					<clipitem id="clipitem-1478">
						<masterclipid>masterclip-1475</masterclipid>
						<name>TKO_020_CHA_Sh15320.mov</name>
						<enabled>TRUE</enabled>
						<duration>23</duration>
						<rate>
							<timebase>24</timebase>
							<ntsc>TRUE</ntsc>
						</rate>
						<start>105141</start>
						<end>105156</end>
						<in>4</in>
						<out>19</out>
						<pproTicksIn>42378336000</pproTicksIn>
						<pproTicksOut>201297096000</pproTicksOut>
						<alphatype>none</alphatype>
						<pixelaspectratio>square</pixelaspectratio>
						<anamorphic>FALSE</anamorphic>
						<file id="file-1475">
							<name>TKO_020_CHA_Sh15320.mov</name>
							<pathurl>file://tri-stor01/Projects/TKO/SHOTS/_Refs_Movs_Burnin_FrameCounter/TKO_020_CHA_Sh15320.mov</pathurl>
							<rate>
								<timebase>24</timebase>
								<ntsc>TRUE</ntsc>
							</rate>
							<duration>23</duration>
							<timecode>
								<rate>
									<timebase>24</timebase>
									<ntsc>TRUE</ntsc>
								</rate>
								<string>00:58:33:17</string>
								<frame>84329</frame>
								<displayformat>NDF</displayformat>
							</timecode>
							<media>
								<video>
									<samplecharacteristics>
										<rate>
											<timebase>24</timebase>
											<ntsc>TRUE</ntsc>
										</rate>
										<width>1280</width>
										<height>720</height>
										<anamorphic>FALSE</anamorphic>
										<pixelaspectratio>square</pixelaspectratio>
										<fielddominance>none</fielddominance>
									</samplecharacteristics>
								</video>
							</media>
						</file>
						<logginginfo>
							<description></description>
							<scene></scene>
							<shottake></shottake>
							<lognote></lognote>
							<good></good>
							<originalvideofilename></originalvideofilename>
							<originalaudiofilename></originalaudiofilename>
						</logginginfo>
						<colorinfo>
							<lut></lut>
							<lut1></lut1>
							<asc_sop></asc_sop>
							<asc_sat></asc_sat>
							<lut2></lut2>
						</colorinfo>
						<labels>
							<label2>Violet</label2>
						</labels>
					</clipitem>
					<clipitem id="clipitem-1479">
						<masterclipid>masterclip-1476</masterclipid>
						<name>TKO_020_CHA_Sh15330.mov</name>
						<enabled>TRUE</enabled>
						<duration>26</duration>
						<rate>
							<timebase>24</timebase>
							<ntsc>TRUE</ntsc>
						</rate>
						<start>105156</start>
						<end>105174</end>
						<in>4</in>
						<out>22</out>
						<pproTicksIn>42378336000</pproTicksIn>
						<pproTicksOut>233080848000</pproTicksOut>
						<alphatype>none</alphatype>
						<pixelaspectratio>square</pixelaspectratio>
						<anamorphic>FALSE</anamorphic>
						<file id="file-1476">
							<name>TKO_020_CHA_Sh15330.mov</name>
							<pathurl>file://tri-stor01/Projects/TKO/SHOTS/_Refs_Movs_Burnin_FrameCounter/TKO_020_CHA_Sh15330.mov</pathurl>
							<rate>
								<timebase>24</timebase>
								<ntsc>TRUE</ntsc>
							</rate>
							<duration>26</duration>
							<timecode>
								<rate>
									<timebase>24</timebase>
									<ntsc>TRUE</ntsc>
								</rate>
								<string>17:42:28:07</string>
								<frame>1529959</frame>
								<displayformat>NDF</displayformat>
								<reel>
									<name>B0280005</name>
								</reel>
							</timecode>
							<media>
								<video>
									<samplecharacteristics>
										<rate>
											<timebase>24</timebase>
											<ntsc>TRUE</ntsc>
										</rate>
										<width>4096</width>
										<height>2160</height>
										<anamorphic>FALSE</anamorphic>
										<pixelaspectratio>square</pixelaspectratio>
										<fielddominance>none</fielddominance>
									</samplecharacteristics>
								</video>
							</media>
						</file>
						<logginginfo>
							<description></description>
							<scene></scene>
							<shottake></shottake>
							<lognote></lognote>
							<good></good>
							<originalvideofilename></originalvideofilename>
							<originalaudiofilename></originalaudiofilename>
						</logginginfo>
						<colorinfo>
							<lut></lut>
							<lut1></lut1>
							<asc_sop></asc_sop>
							<asc_sat></asc_sat>
							<lut2></lut2>
						</colorinfo>
						<labels>
							<label2>Violet</label2>
						</labels>
					</clipitem>
					<clipitem id="clipitem-1480">
						<masterclipid>masterclip-1477</masterclipid>
						<name>TKO_020_CHA_Sh15340.mov</name>
						<enabled>TRUE</enabled>
						<duration>28</duration>
						<rate>
							<timebase>24</timebase>
							<ntsc>TRUE</ntsc>
						</rate>
						<start>105174</start>
						<end>105194</end>
						<in>4</in>
						<out>24</out>
						<pproTicksIn>42378336000</pproTicksIn>
						<pproTicksOut>254270016000</pproTicksOut>
						<alphatype>none</alphatype>
						<pixelaspectratio>square</pixelaspectratio>
						<anamorphic>FALSE</anamorphic>
						<file id="file-1477">
							<name>TKO_020_CHA_Sh15340.mov</name>
							<pathurl>file://tri-stor01/Projects/TKO/SHOTS/_Refs_Movs_Burnin_FrameCounter/TKO_020_CHA_Sh15340.mov</pathurl>
							<rate>
								<timebase>24</timebase>
								<ntsc>TRUE</ntsc>
							</rate>
							<duration>28</duration>
							<timecode>
								<rate>
									<timebase>24</timebase>
									<ntsc>TRUE</ntsc>
								</rate>
								<string>00:58:43:19</string>
								<frame>84571</frame>
								<displayformat>NDF</displayformat>
							</timecode>
							<media>
								<video>
									<samplecharacteristics>
										<rate>
											<timebase>24</timebase>
											<ntsc>TRUE</ntsc>
										</rate>
										<width>1280</width>
										<height>720</height>
										<anamorphic>FALSE</anamorphic>
										<pixelaspectratio>square</pixelaspectratio>
										<fielddominance>none</fielddominance>
									</samplecharacteristics>
								</video>
							</media>
						</file>
						<logginginfo>
							<description></description>
							<scene></scene>
							<shottake></shottake>
							<lognote></lognote>
							<good></good>
							<originalvideofilename></originalvideofilename>
							<originalaudiofilename></originalaudiofilename>
						</logginginfo>
						<colorinfo>
							<lut></lut>
							<lut1></lut1>
							<asc_sop></asc_sop>
							<asc_sat></asc_sat>
							<lut2></lut2>
						</colorinfo>
						<labels>
							<label2>Violet</label2>
						</labels>
					</clipitem>
					<clipitem id="clipitem-1481">
						<masterclipid>masterclip-1478</masterclipid>
						<name>TKO_020_CHA_Sh15350.mov</name>
						<enabled>TRUE</enabled>
						<duration>72</duration>
						<rate>
							<timebase>24</timebase>
							<ntsc>TRUE</ntsc>
						</rate>
						<start>105194</start>
						<end>105260</end>
						<in>4</in>
						<out>70</out>
						<pproTicksIn>42378336000</pproTicksIn>
						<pproTicksOut>741620880000</pproTicksOut>
						<alphatype>none</alphatype>
						<pixelaspectratio>square</pixelaspectratio>
						<anamorphic>FALSE</anamorphic>
						<file id="file-1478">
							<name>TKO_020_CHA_Sh15350.mov</name>
							<pathurl>file://tri-stor01/Projects/TKO/SHOTS/_Refs_Movs_Burnin_FrameCounter/TKO_020_CHA_Sh15350.mov</pathurl>
							<rate>
								<timebase>24</timebase>
								<ntsc>TRUE</ntsc>
							</rate>
							<duration>72</duration>
							<timecode>
								<rate>
									<timebase>24</timebase>
									<ntsc>TRUE</ntsc>
								</rate>
								<string>17:42:28:23</string>
								<frame>1529975</frame>
								<displayformat>NDF</displayformat>
								<reel>
									<name>A0340005</name>
								</reel>
							</timecode>
							<media>
								<video>
									<samplecharacteristics>
										<rate>
											<timebase>24</timebase>
											<ntsc>TRUE</ntsc>
										</rate>
										<width>4096</width>
										<height>2160</height>
										<anamorphic>FALSE</anamorphic>
										<pixelaspectratio>square</pixelaspectratio>
										<fielddominance>none</fielddominance>
									</samplecharacteristics>
								</video>
							</media>
						</file>
						<logginginfo>
							<description></description>
							<scene></scene>
							<shottake></shottake>
							<lognote></lognote>
							<good></good>
							<originalvideofilename></originalvideofilename>
							<originalaudiofilename></originalaudiofilename>
						</logginginfo>
						<colorinfo>
							<lut></lut>
							<lut1></lut1>
							<asc_sop></asc_sop>
							<asc_sat></asc_sat>
							<lut2></lut2>
						</colorinfo>
						<labels>
							<label2>Violet</label2>
						</labels>
					</clipitem>
					<clipitem id="clipitem-1482">
						<masterclipid>masterclip-1479</masterclipid>
						<name>TKO_020_CHA_Sh15360.mov</name>
						<enabled>TRUE</enabled>
						<duration>60</duration>
						<rate>
							<timebase>24</timebase>
							<ntsc>TRUE</ntsc>
						</rate>
						<start>105260</start>
						<end>105312</end>
						<in>4</in>
						<out>56</out>
						<pproTicksIn>42378336000</pproTicksIn>
						<pproTicksOut>593296704000</pproTicksOut>
						<alphatype>none</alphatype>
						<pixelaspectratio>square</pixelaspectratio>
						<anamorphic>FALSE</anamorphic>
						<file id="file-1479">
							<name>TKO_020_CHA_Sh15360.mov</name>
							<pathurl>file://tri-stor01/Projects/TKO/SHOTS/_Refs_Movs_Burnin_FrameCounter/TKO_020_CHA_Sh15360.mov</pathurl>
							<rate>
								<timebase>24</timebase>
								<ntsc>TRUE</ntsc>
							</rate>
							<duration>60</duration>
							<timecode>
								<rate>
									<timebase>24</timebase>
									<ntsc>TRUE</ntsc>
								</rate>
								<string>11:28:38:16</string>
								<frame>991648</frame>
								<displayformat>NDF</displayformat>
								<reel>
									<name>A0330005</name>
								</reel>
							</timecode>
							<media>
								<video>
									<samplecharacteristics>
										<rate>
											<timebase>24</timebase>
											<ntsc>TRUE</ntsc>
										</rate>
										<width>4096</width>
										<height>2160</height>
										<anamorphic>FALSE</anamorphic>
										<pixelaspectratio>square</pixelaspectratio>
										<fielddominance>none</fielddominance>
									</samplecharacteristics>
								</video>
							</media>
						</file>
						<logginginfo>
							<description></description>
							<scene></scene>
							<shottake></shottake>
							<lognote></lognote>
							<good></good>
							<originalvideofilename></originalvideofilename>
							<originalaudiofilename></originalaudiofilename>
						</logginginfo>
						<colorinfo>
							<lut></lut>
							<lut1></lut1>
							<asc_sop></asc_sop>
							<asc_sat></asc_sat>
							<lut2></lut2>
						</colorinfo>
						<labels>
							<label2>Violet</label2>
						</labels>
					</clipitem>
					<clipitem id="clipitem-1483">
						<masterclipid>masterclip-1480</masterclipid>
						<name>TKO_020_CHA_Sh15370.mov</name>
						<enabled>TRUE</enabled>
						<duration>124</duration>
						<rate>
							<timebase>24</timebase>
							<ntsc>TRUE</ntsc>
						</rate>
						<start>105312</start>
						<end>105428</end>
						<in>4</in>
						<out>120</out>
						<pproTicksIn>42378336000</pproTicksIn>
						<pproTicksOut>1271350080000</pproTicksOut>
						<alphatype>none</alphatype>
						<pixelaspectratio>square</pixelaspectratio>
						<anamorphic>FALSE</anamorphic>
						<file id="file-1480">
							<name>TKO_020_CHA_Sh15370.mov</name>
							<pathurl>file://tri-stor01/Projects/TKO/SHOTS/_Refs_Movs_Burnin_FrameCounter/TKO_020_CHA_Sh15370.mov</pathurl>
							<rate>
								<timebase>24</timebase>
								<ntsc>TRUE</ntsc>
							</rate>
							<duration>124</duration>
							<timecode>
								<rate>
									<timebase>24</timebase>
									<ntsc>TRUE</ntsc>
								</rate>
								<string>16:40:44:00</string>
								<frame>1441056</frame>
								<displayformat>NDF</displayformat>
								<reel>
									<name>B0280002</name>
								</reel>
							</timecode>
							<media>
								<video>
									<samplecharacteristics>
										<rate>
											<timebase>24</timebase>
											<ntsc>TRUE</ntsc>
										</rate>
										<width>4096</width>
										<height>2160</height>
										<anamorphic>FALSE</anamorphic>
										<pixelaspectratio>square</pixelaspectratio>
										<fielddominance>none</fielddominance>
									</samplecharacteristics>
								</video>
							</media>
						</file>
						<logginginfo>
							<description></description>
							<scene></scene>
							<shottake></shottake>
							<lognote></lognote>
							<good></good>
							<originalvideofilename></originalvideofilename>
							<originalaudiofilename></originalaudiofilename>
						</logginginfo>
						<colorinfo>
							<lut></lut>
							<lut1></lut1>
							<asc_sop></asc_sop>
							<asc_sat></asc_sat>
							<lut2></lut2>
						</colorinfo>
						<labels>
							<label2>Violet</label2>
						</labels>
					</clipitem>
					<clipitem id="clipitem-1484">
						<masterclipid>masterclip-1481</masterclipid>
						<name>TKO_020_CHA_Sh15380.mov</name>
						<enabled>TRUE</enabled>
						<duration>38</duration>
						<rate>
							<timebase>24</timebase>
							<ntsc>TRUE</ntsc>
						</rate>
						<start>105428</start>
						<end>105458</end>
						<in>4</in>
						<out>34</out>
						<pproTicksIn>42378336000</pproTicksIn>
						<pproTicksOut>360215856000</pproTicksOut>
						<alphatype>none</alphatype>
						<pixelaspectratio>square</pixelaspectratio>
						<anamorphic>FALSE</anamorphic>
						<file id="file-1481">
							<name>TKO_020_CHA_Sh15380.mov</name>
							<pathurl>file://tri-stor01/Projects/TKO/SHOTS/_Refs_Movs_Burnin_FrameCounter/TKO_020_CHA_Sh15380.mov</pathurl>
							<rate>
								<timebase>24</timebase>
								<ntsc>TRUE</ntsc>
							</rate>
							<duration>38</duration>
							<timecode>
								<rate>
									<timebase>24</timebase>
									<ntsc>TRUE</ntsc>
								</rate>
								<string>10:02:59:16</string>
								<frame>868312</frame>
								<displayformat>NDF</displayformat>
								<reel>
									<name>C0240002</name>
								</reel>
							</timecode>
							<media>
								<video>
									<samplecharacteristics>
										<rate>
											<timebase>24</timebase>
											<ntsc>TRUE</ntsc>
										</rate>
										<width>3840</width>
										<height>2160</height>
										<anamorphic>FALSE</anamorphic>
										<pixelaspectratio>square</pixelaspectratio>
										<fielddominance>none</fielddominance>
									</samplecharacteristics>
								</video>
							</media>
						</file>
						<logginginfo>
							<description></description>
							<scene></scene>
							<shottake></shottake>
							<lognote></lognote>
							<good></good>
							<originalvideofilename></originalvideofilename>
							<originalaudiofilename></originalaudiofilename>
						</logginginfo>
						<colorinfo>
							<lut></lut>
							<lut1></lut1>
							<asc_sop></asc_sop>
							<asc_sat></asc_sat>
							<lut2></lut2>
						</colorinfo>
						<labels>
							<label2>Violet</label2>
						</labels>
					</clipitem>
					<clipitem id="clipitem-1485">
						<masterclipid>masterclip-1482</masterclipid>
						<name>TKO_020_CHA_Sh15390.mov</name>
						<enabled>TRUE</enabled>
						<duration>79</duration>
						<rate>
							<timebase>24</timebase>
							<ntsc>TRUE</ntsc>
						</rate>
						<start>105458</start>
						<end>105529</end>
						<in>4</in>
						<out>75</out>
						<pproTicksIn>42378336000</pproTicksIn>
						<pproTicksOut>794593800000</pproTicksOut>
						<alphatype>none</alphatype>
						<pixelaspectratio>square</pixelaspectratio>
						<anamorphic>FALSE</anamorphic>
						<file id="file-1482">
							<name>TKO_020_CHA_Sh15390.mov</name>
							<pathurl>file://tri-stor01/Projects/TKO/SHOTS/_Refs_Movs_Burnin_FrameCounter/TKO_020_CHA_Sh15390.mov</pathurl>
							<rate>
								<timebase>24</timebase>
								<ntsc>TRUE</ntsc>
							</rate>
							<duration>79</duration>
							<timecode>
								<rate>
									<timebase>24</timebase>
									<ntsc>TRUE</ntsc>
								</rate>
								<string>16:39:25:05</string>
								<frame>1439165</frame>
								<displayformat>NDF</displayformat>
								<reel>
									<name>A0340002</name>
								</reel>
							</timecode>
							<media>
								<video>
									<samplecharacteristics>
										<rate>
											<timebase>24</timebase>
											<ntsc>TRUE</ntsc>
										</rate>
										<width>4096</width>
										<height>2160</height>
										<anamorphic>FALSE</anamorphic>
										<pixelaspectratio>square</pixelaspectratio>
										<fielddominance>none</fielddominance>
									</samplecharacteristics>
								</video>
							</media>
						</file>
						<logginginfo>
							<description></description>
							<scene></scene>
							<shottake></shottake>
							<lognote></lognote>
							<good></good>
							<originalvideofilename></originalvideofilename>
							<originalaudiofilename></originalaudiofilename>
						</logginginfo>
						<colorinfo>
							<lut></lut>
							<lut1></lut1>
							<asc_sop></asc_sop>
							<asc_sat></asc_sat>
							<lut2></lut2>
						</colorinfo>
						<labels>
							<label2>Violet</label2>
						</labels>
					</clipitem>
					<clipitem id="clipitem-1486">
						<masterclipid>masterclip-1483</masterclipid>
						<name>TKO_020_CHA_Sh15400.mov</name>
						<enabled>TRUE</enabled>
						<duration>39</duration>
						<rate>
							<timebase>24</timebase>
							<ntsc>TRUE</ntsc>
						</rate>
						<start>105529</start>
						<end>105560</end>
						<in>4</in>
						<out>35</out>
						<pproTicksIn>42378336000</pproTicksIn>
						<pproTicksOut>370810440000</pproTicksOut>
						<alphatype>none</alphatype>
						<pixelaspectratio>square</pixelaspectratio>
						<anamorphic>FALSE</anamorphic>
						<file id="file-1483">
							<name>TKO_020_CHA_Sh15400.mov</name>
							<pathurl>file://tri-stor01/Projects/TKO/SHOTS/_Refs_Movs_Burnin_FrameCounter/TKO_020_CHA_Sh15400.mov</pathurl>
							<rate>
								<timebase>24</timebase>
								<ntsc>TRUE</ntsc>
							</rate>
							<duration>39</duration>
							<timecode>
								<rate>
									<timebase>24</timebase>
									<ntsc>TRUE</ntsc>
								</rate>
								<string>02:57:49:10</string>
								<frame>256066</frame>
								<displayformat>NDF</displayformat>
								<reel>
									<name>C0040015</name>
								</reel>
							</timecode>
							<media>
								<video>
									<samplecharacteristics>
										<rate>
											<timebase>24</timebase>
											<ntsc>TRUE</ntsc>
										</rate>
										<width>3840</width>
										<height>2160</height>
										<anamorphic>FALSE</anamorphic>
										<pixelaspectratio>square</pixelaspectratio>
										<fielddominance>none</fielddominance>
									</samplecharacteristics>
								</video>
							</media>
						</file>
						<logginginfo>
							<description></description>
							<scene></scene>
							<shottake></shottake>
							<lognote></lognote>
							<good></good>
							<originalvideofilename></originalvideofilename>
							<originalaudiofilename></originalaudiofilename>
						</logginginfo>
						<colorinfo>
							<lut></lut>
							<lut1></lut1>
							<asc_sop></asc_sop>
							<asc_sat></asc_sat>
							<lut2></lut2>
						</colorinfo>
						<labels>
							<label2>Violet</label2>
						</labels>
					</clipitem>
					<clipitem id="clipitem-1487">
						<masterclipid>masterclip-1484</masterclipid>
						<name>TKO_020_CHA_Sh15410.mov</name>
						<enabled>TRUE</enabled>
						<duration>43</duration>
						<rate>
							<timebase>24</timebase>
							<ntsc>TRUE</ntsc>
						</rate>
						<start>105560</start>
						<end>105595</end>
						<in>4</in>
						<out>39</out>
						<pproTicksIn>42378336000</pproTicksIn>
						<pproTicksOut>413188776000</pproTicksOut>
						<alphatype>none</alphatype>
						<pixelaspectratio>square</pixelaspectratio>
						<anamorphic>FALSE</anamorphic>
						<file id="file-1484">
							<name>TKO_020_CHA_Sh15410.mov</name>
							<pathurl>file://tri-stor01/Projects/TKO/SHOTS/_Refs_Movs_Burnin_FrameCounter/TKO_020_CHA_Sh15410.mov</pathurl>
							<rate>
								<timebase>24</timebase>
								<ntsc>TRUE</ntsc>
							</rate>
							<duration>43</duration>
							<timecode>
								<rate>
									<timebase>24</timebase>
									<ntsc>TRUE</ntsc>
								</rate>
								<string>16:44:36:05</string>
								<frame>1446629</frame>
								<displayformat>NDF</displayformat>
								<reel>
									<name>B0280003</name>
								</reel>
							</timecode>
							<media>
								<video>
									<samplecharacteristics>
										<rate>
											<timebase>24</timebase>
											<ntsc>TRUE</ntsc>
										</rate>
										<width>4096</width>
										<height>2160</height>
										<anamorphic>FALSE</anamorphic>
										<pixelaspectratio>square</pixelaspectratio>
										<fielddominance>none</fielddominance>
									</samplecharacteristics>
								</video>
							</media>
						</file>
						<logginginfo>
							<description></description>
							<scene></scene>
							<shottake></shottake>
							<lognote></lognote>
							<good></good>
							<originalvideofilename></originalvideofilename>
							<originalaudiofilename></originalaudiofilename>
						</logginginfo>
						<colorinfo>
							<lut></lut>
							<lut1></lut1>
							<asc_sop></asc_sop>
							<asc_sat></asc_sat>
							<lut2></lut2>
						</colorinfo>
						<labels>
							<label2>Violet</label2>
						</labels>
					</clipitem>
					<clipitem id="clipitem-1488">
						<masterclipid>masterclip-1485</masterclipid>
						<name>TKO_020_CHA_Sh15420.mov</name>
						<enabled>TRUE</enabled>
						<duration>69</duration>
						<rate>
							<timebase>24</timebase>
							<ntsc>TRUE</ntsc>
						</rate>
						<start>105595</start>
						<end>105656</end>
						<in>4</in>
						<out>65</out>
						<pproTicksIn>42378336000</pproTicksIn>
						<pproTicksOut>688647960000</pproTicksOut>
						<alphatype>none</alphatype>
						<pixelaspectratio>square</pixelaspectratio>
						<anamorphic>FALSE</anamorphic>
						<file id="file-1485">
							<name>TKO_020_CHA_Sh15420.mov</name>
							<pathurl>file://tri-stor01/Projects/TKO/SHOTS/_Refs_Movs_Burnin_FrameCounter/TKO_020_CHA_Sh15420.mov</pathurl>
							<rate>
								<timebase>24</timebase>
								<ntsc>TRUE</ntsc>
							</rate>
							<duration>69</duration>
							<timecode>
								<rate>
									<timebase>24</timebase>
									<ntsc>TRUE</ntsc>
								</rate>
								<string>16:39:28:04</string>
								<frame>1439236</frame>
								<displayformat>NDF</displayformat>
								<reel>
									<name>A0340002</name>
								</reel>
							</timecode>
							<media>
								<video>
									<samplecharacteristics>
										<rate>
											<timebase>24</timebase>
											<ntsc>TRUE</ntsc>
										</rate>
										<width>4096</width>
										<height>2160</height>
										<anamorphic>FALSE</anamorphic>
										<pixelaspectratio>square</pixelaspectratio>
										<fielddominance>none</fielddominance>
									</samplecharacteristics>
								</video>
							</media>
						</file>
						<logginginfo>
							<description></description>
							<scene></scene>
							<shottake></shottake>
							<lognote></lognote>
							<good></good>
							<originalvideofilename></originalvideofilename>
							<originalaudiofilename></originalaudiofilename>
						</logginginfo>
						<colorinfo>
							<lut></lut>
							<lut1></lut1>
							<asc_sop></asc_sop>
							<asc_sat></asc_sat>
							<lut2></lut2>
						</colorinfo>
						<labels>
							<label2>Violet</label2>
						</labels>
					</clipitem>
					<clipitem id="clipitem-1489">
						<masterclipid>masterclip-1486</masterclipid>
						<name>TKO_020_CHA_Sh15430.mov</name>
						<enabled>TRUE</enabled>
						<duration>28</duration>
						<rate>
							<timebase>24</timebase>
							<ntsc>TRUE</ntsc>
						</rate>
						<start>105656</start>
						<end>105676</end>
						<in>4</in>
						<out>24</out>
						<pproTicksIn>42378336000</pproTicksIn>
						<pproTicksOut>254270016000</pproTicksOut>
						<alphatype>none</alphatype>
						<pixelaspectratio>square</pixelaspectratio>
						<anamorphic>FALSE</anamorphic>
						<file id="file-1486">
							<name>TKO_020_CHA_Sh15430.mov</name>
							<pathurl>file://tri-stor01/Projects/TKO/SHOTS/_Refs_Movs_Burnin_FrameCounter/TKO_020_CHA_Sh15430.mov</pathurl>
							<rate>
								<timebase>24</timebase>
								<ntsc>TRUE</ntsc>
							</rate>
							<duration>28</duration>
							<timecode>
								<rate>
									<timebase>24</timebase>
									<ntsc>TRUE</ntsc>
								</rate>
								<string>13:47:04:16</string>
								<frame>1190992</frame>
								<displayformat>NDF</displayformat>
								<reel>
									<name>A0330011</name>
								</reel>
							</timecode>
							<media>
								<video>
									<samplecharacteristics>
										<rate>
											<timebase>24</timebase>
											<ntsc>TRUE</ntsc>
										</rate>
										<width>4096</width>
										<height>2160</height>
										<anamorphic>FALSE</anamorphic>
										<pixelaspectratio>square</pixelaspectratio>
										<fielddominance>none</fielddominance>
									</samplecharacteristics>
								</video>
							</media>
						</file>
						<logginginfo>
							<description></description>
							<scene></scene>
							<shottake></shottake>
							<lognote></lognote>
							<good></good>
							<originalvideofilename></originalvideofilename>
							<originalaudiofilename></originalaudiofilename>
						</logginginfo>
						<colorinfo>
							<lut></lut>
							<lut1></lut1>
							<asc_sop></asc_sop>
							<asc_sat></asc_sat>
							<lut2></lut2>
						</colorinfo>
						<labels>
							<label2>Violet</label2>
						</labels>
					</clipitem>
					<clipitem id="clipitem-1490">
						<masterclipid>masterclip-1487</masterclipid>
						<name>TKO_020_CHA_Sh15440.mov</name>
						<enabled>TRUE</enabled>
						<duration>36</duration>
						<rate>
							<timebase>24</timebase>
							<ntsc>TRUE</ntsc>
						</rate>
						<start>105676</start>
						<end>105704</end>
						<in>4</in>
						<out>32</out>
						<pproTicksIn>42378336000</pproTicksIn>
						<pproTicksOut>339026688000</pproTicksOut>
						<alphatype>none</alphatype>
						<pixelaspectratio>square</pixelaspectratio>
						<anamorphic>FALSE</anamorphic>
						<file id="file-1487">
							<name>TKO_020_CHA_Sh15440.mov</name>
							<pathurl>file://tri-stor01/Projects/TKO/SHOTS/_Refs_Movs_Burnin_FrameCounter/TKO_020_CHA_Sh15440.mov</pathurl>
							<rate>
								<timebase>24</timebase>
								<ntsc>TRUE</ntsc>
							</rate>
							<duration>36</duration>
							<timecode>
								<rate>
									<timebase>24</timebase>
									<ntsc>TRUE</ntsc>
								</rate>
								<string>00:59:49:01</string>
								<frame>86137</frame>
								<displayformat>NDF</displayformat>
							</timecode>
							<media>
								<video>
									<samplecharacteristics>
										<rate>
											<timebase>24</timebase>
											<ntsc>TRUE</ntsc>
										</rate>
										<width>1280</width>
										<height>720</height>
										<anamorphic>FALSE</anamorphic>
										<pixelaspectratio>square</pixelaspectratio>
										<fielddominance>none</fielddominance>
									</samplecharacteristics>
								</video>
							</media>
						</file>
						<logginginfo>
							<description></description>
							<scene></scene>
							<shottake></shottake>
							<lognote></lognote>
							<good></good>
							<originalvideofilename></originalvideofilename>
							<originalaudiofilename></originalaudiofilename>
						</logginginfo>
						<colorinfo>
							<lut></lut>
							<lut1></lut1>
							<asc_sop></asc_sop>
							<asc_sat></asc_sat>
							<lut2></lut2>
						</colorinfo>
						<labels>
							<label2>Violet</label2>
						</labels>
					</clipitem>
					<clipitem id="clipitem-1491">
						<masterclipid>masterclip-1488</masterclipid>
						<name>TKO_020_CHA_Sh15450.mov</name>
						<enabled>TRUE</enabled>
						<duration>25</duration>
						<rate>
							<timebase>24</timebase>
							<ntsc>TRUE</ntsc>
						</rate>
						<start>105704</start>
						<end>105721</end>
						<in>4</in>
						<out>21</out>
						<pproTicksIn>42378336000</pproTicksIn>
						<pproTicksOut>222486264000</pproTicksOut>
						<alphatype>none</alphatype>
						<pixelaspectratio>square</pixelaspectratio>
						<anamorphic>FALSE</anamorphic>
						<file id="file-1488">
							<name>TKO_020_CHA_Sh15450.mov</name>
							<pathurl>file://tri-stor01/Projects/TKO/SHOTS/_Refs_Movs_Burnin_FrameCounter/TKO_020_CHA_Sh15450.mov</pathurl>
							<rate>
								<timebase>24</timebase>
								<ntsc>TRUE</ntsc>
							</rate>
							<duration>25</duration>
							<timecode>
								<rate>
									<timebase>24</timebase>
									<ntsc>TRUE</ntsc>
								</rate>
								<string>16:39:33:07</string>
								<frame>1439359</frame>
								<displayformat>NDF</displayformat>
								<reel>
									<name>A0340002</name>
								</reel>
							</timecode>
							<media>
								<video>
									<samplecharacteristics>
										<rate>
											<timebase>24</timebase>
											<ntsc>TRUE</ntsc>
										</rate>
										<width>4096</width>
										<height>2160</height>
										<anamorphic>FALSE</anamorphic>
										<pixelaspectratio>square</pixelaspectratio>
										<fielddominance>none</fielddominance>
									</samplecharacteristics>
								</video>
							</media>
						</file>
						<logginginfo>
							<description></description>
							<scene></scene>
							<shottake></shottake>
							<lognote></lognote>
							<good></good>
							<originalvideofilename></originalvideofilename>
							<originalaudiofilename></originalaudiofilename>
						</logginginfo>
						<colorinfo>
							<lut></lut>
							<lut1></lut1>
							<asc_sop></asc_sop>
							<asc_sat></asc_sat>
							<lut2></lut2>
						</colorinfo>
						<labels>
							<label2>Violet</label2>
						</labels>
					</clipitem>
					<clipitem id="clipitem-1492">
						<masterclipid>masterclip-1489</masterclipid>
						<name>TKO_020_CHA_Sh15480.mov</name>
						<enabled>TRUE</enabled>
						<duration>33</duration>
						<rate>
							<timebase>24</timebase>
							<ntsc>TRUE</ntsc>
						</rate>
						<start>105721</start>
						<end>105745</end>
						<in>4</in>
						<out>28</out>
						<pproTicksIn>42378336000</pproTicksIn>
						<pproTicksOut>296648352000</pproTicksOut>
						<alphatype>none</alphatype>
						<pixelaspectratio>square</pixelaspectratio>
						<anamorphic>FALSE</anamorphic>
						<file id="file-1489">
							<name>TKO_020_CHA_Sh15480.mov</name>
							<pathurl>file://tri-stor01/Projects/TKO/SHOTS/_Refs_Movs_Burnin_FrameCounter/TKO_020_CHA_Sh15480.mov</pathurl>
							<rate>
								<timebase>24</timebase>
								<ntsc>TRUE</ntsc>
							</rate>
							<duration>33</duration>
							<timecode>
								<rate>
									<timebase>24</timebase>
									<ntsc>TRUE</ntsc>
								</rate>
								<string>09:36:59:20</string>
								<frame>830876</frame>
								<displayformat>NDF</displayformat>
								<reel>
									<name>C0230002</name>
								</reel>
							</timecode>
							<media>
								<video>
									<samplecharacteristics>
										<rate>
											<timebase>24</timebase>
											<ntsc>TRUE</ntsc>
										</rate>
										<width>3840</width>
										<height>2160</height>
										<anamorphic>FALSE</anamorphic>
										<pixelaspectratio>square</pixelaspectratio>
										<fielddominance>none</fielddominance>
									</samplecharacteristics>
								</video>
							</media>
						</file>
						<logginginfo>
							<description></description>
							<scene></scene>
							<shottake></shottake>
							<lognote></lognote>
							<good></good>
							<originalvideofilename></originalvideofilename>
							<originalaudiofilename></originalaudiofilename>
						</logginginfo>
						<colorinfo>
							<lut></lut>
							<lut1></lut1>
							<asc_sop></asc_sop>
							<asc_sat></asc_sat>
							<lut2></lut2>
						</colorinfo>
						<labels>
							<label2>Violet</label2>
						</labels>
					</clipitem>
					<clipitem id="clipitem-1493">
						<masterclipid>masterclip-1490</masterclipid>
						<name>TKO_020_CHA_Sh15500.mov</name>
						<enabled>TRUE</enabled>
						<duration>25</duration>
						<rate>
							<timebase>24</timebase>
							<ntsc>TRUE</ntsc>
						</rate>
						<start>105745</start>
						<end>105762</end>
						<in>4</in>
						<out>21</out>
						<pproTicksIn>42378336000</pproTicksIn>
						<pproTicksOut>222486264000</pproTicksOut>
						<alphatype>none</alphatype>
						<pixelaspectratio>square</pixelaspectratio>
						<anamorphic>FALSE</anamorphic>
						<file id="file-1490">
							<name>TKO_020_CHA_Sh15500.mov</name>
							<pathurl>file://tri-stor01/Projects/TKO/SHOTS/_Refs_Movs_Burnin_FrameCounter/TKO_020_CHA_Sh15500.mov</pathurl>
							<rate>
								<timebase>24</timebase>
								<ntsc>TRUE</ntsc>
							</rate>
							<duration>25</duration>
							<timecode>
								<rate>
									<timebase>24</timebase>
									<ntsc>TRUE</ntsc>
								</rate>
								<string>00:59:52:15</string>
								<frame>86223</frame>
								<displayformat>NDF</displayformat>
							</timecode>
							<media>
								<video>
									<samplecharacteristics>
										<rate>
											<timebase>24</timebase>
											<ntsc>TRUE</ntsc>
										</rate>
										<width>1280</width>
										<height>720</height>
										<anamorphic>FALSE</anamorphic>
										<pixelaspectratio>square</pixelaspectratio>
										<fielddominance>none</fielddominance>
									</samplecharacteristics>
								</video>
							</media>
						</file>
						<logginginfo>
							<description></description>
							<scene></scene>
							<shottake></shottake>
							<lognote></lognote>
							<good></good>
							<originalvideofilename></originalvideofilename>
							<originalaudiofilename></originalaudiofilename>
						</logginginfo>
						<colorinfo>
							<lut></lut>
							<lut1></lut1>
							<asc_sop></asc_sop>
							<asc_sat></asc_sat>
							<lut2></lut2>
						</colorinfo>
						<labels>
							<label2>Violet</label2>
						</labels>
					</clipitem>
					<clipitem id="clipitem-1494">
						<masterclipid>masterclip-1491</masterclipid>
						<name>TKO_020_CHA_Sh15510_CG_BG_BEAUTY_V02.mov</name>
						<enabled>TRUE</enabled>
						<duration>27</duration>
						<rate>
							<timebase>24</timebase>
							<ntsc>TRUE</ntsc>
						</rate>
						<start>105762</start>
						<end>105780</end>
						<in>4</in>
						<out>22</out>
						<pproTicksIn>42378336000</pproTicksIn>
						<pproTicksOut>233080848000</pproTicksOut>
						<alphatype>none</alphatype>
						<pixelaspectratio>square</pixelaspectratio>
						<anamorphic>FALSE</anamorphic>
						<file id="file-1491">
							<name>TKO_020_CHA_Sh15510_CG_BG_BEAUTY_V02.mov</name>
							<pathurl>file://localhost/W%3a/TKO/SHOTS/TKO_020_CHA/TKO_020_CHA_Sh15510/CG/BG/BEAUTY/V02/TKO_020_CHA_Sh15510_CG_BG_BEAUTY_V02.mov</pathurl>
							<rate>
								<timebase>24</timebase>
								<ntsc>TRUE</ntsc>
							</rate>
							<duration>27</duration>
							<timecode>
								<rate>
									<timebase>24</timebase>
									<ntsc>TRUE</ntsc>
								</rate>
								<string>00:00:00:00</string>
								<frame>0</frame>
								<displayformat>NDF</displayformat>
							</timecode>
							<media>
								<video>
									<samplecharacteristics>
										<rate>
											<timebase>24</timebase>
											<ntsc>TRUE</ntsc>
										</rate>
										<width>1920</width>
										<height>1080</height>
										<anamorphic>FALSE</anamorphic>
										<pixelaspectratio>square</pixelaspectratio>
										<fielddominance>none</fielddominance>
									</samplecharacteristics>
								</video>
							</media>
						</file>
						<logginginfo>
							<description></description>
							<scene></scene>
							<shottake></shottake>
							<lognote></lognote>
							<good></good>
							<originalvideofilename></originalvideofilename>
							<originalaudiofilename></originalaudiofilename>
						</logginginfo>
						<colorinfo>
							<lut></lut>
							<lut1></lut1>
							<asc_sop></asc_sop>
							<asc_sat></asc_sat>
							<lut2></lut2>
						</colorinfo>
						<labels>
							<label2>Violet</label2>
						</labels>
					</clipitem>
					<clipitem id="clipitem-1495">
						<masterclipid>masterclip-1492</masterclipid>
						<name>TKO_020_CHA_Sh15520.mov</name>
						<enabled>TRUE</enabled>
						<duration>26</duration>
						<rate>
							<timebase>24</timebase>
							<ntsc>TRUE</ntsc>
						</rate>
						<start>105780</start>
						<end>105798</end>
						<in>4</in>
						<out>22</out>
						<pproTicksIn>42378336000</pproTicksIn>
						<pproTicksOut>233080848000</pproTicksOut>
						<alphatype>none</alphatype>
						<pixelaspectratio>square</pixelaspectratio>
						<anamorphic>FALSE</anamorphic>
						<file id="file-1492">
							<name>TKO_020_CHA_Sh15520.mov</name>
							<pathurl>file://tri-stor01/Projects/TKO/SHOTS/_Refs_Movs_Burnin_FrameCounter/TKO_020_CHA_Sh15520.mov</pathurl>
							<rate>
								<timebase>24</timebase>
								<ntsc>TRUE</ntsc>
							</rate>
							<duration>26</duration>
							<timecode>
								<rate>
									<timebase>24</timebase>
									<ntsc>TRUE</ntsc>
								</rate>
								<string>16:39:36:14</string>
								<frame>1439438</frame>
								<displayformat>NDF</displayformat>
								<reel>
									<name>A0340002</name>
								</reel>
							</timecode>
							<media>
								<video>
									<samplecharacteristics>
										<rate>
											<timebase>24</timebase>
											<ntsc>TRUE</ntsc>
										</rate>
										<width>4096</width>
										<height>2160</height>
										<anamorphic>FALSE</anamorphic>
										<pixelaspectratio>square</pixelaspectratio>
										<fielddominance>none</fielddominance>
									</samplecharacteristics>
								</video>
							</media>
						</file>
						<logginginfo>
							<description></description>
							<scene></scene>
							<shottake></shottake>
							<lognote></lognote>
							<good></good>
							<originalvideofilename></originalvideofilename>
							<originalaudiofilename></originalaudiofilename>
						</logginginfo>
						<colorinfo>
							<lut></lut>
							<lut1></lut1>
							<asc_sop></asc_sop>
							<asc_sat></asc_sat>
							<lut2></lut2>
						</colorinfo>
						<labels>
							<label2>Violet</label2>
						</labels>
					</clipitem>
					<clipitem id="clipitem-1496">
						<masterclipid>masterclip-1493</masterclipid>
						<name>TKO_020_CHA_Sh15540.mov</name>
						<enabled>TRUE</enabled>
						<duration>81</duration>
						<rate>
							<timebase>24</timebase>
							<ntsc>TRUE</ntsc>
						</rate>
						<start>105798</start>
						<end>105826</end>
						<in>4</in>
						<out>32</out>
						<pproTicksIn>42378336000</pproTicksIn>
						<pproTicksOut>339026688000</pproTicksOut>
						<alphatype>none</alphatype>
						<pixelaspectratio>square</pixelaspectratio>
						<anamorphic>FALSE</anamorphic>
						<file id="file-1493">
							<name>TKO_020_CHA_Sh15540.mov</name>
							<pathurl>file://tri-stor01/Projects/TKO/SHOTS/_Refs_Movs_Burnin_FrameCounter/TKO_020_CHA_Sh15540.mov</pathurl>
							<rate>
								<timebase>24</timebase>
								<ntsc>TRUE</ntsc>
							</rate>
							<duration>81</duration>
							<timecode>
								<rate>
									<timebase>24</timebase>
									<ntsc>TRUE</ntsc>
								</rate>
								<string>00:59:55:09</string>
								<frame>86289</frame>
								<displayformat>NDF</displayformat>
							</timecode>
							<media>
								<video>
									<samplecharacteristics>
										<rate>
											<timebase>24</timebase>
											<ntsc>TRUE</ntsc>
										</rate>
										<width>1280</width>
										<height>720</height>
										<anamorphic>FALSE</anamorphic>
										<pixelaspectratio>square</pixelaspectratio>
										<fielddominance>none</fielddominance>
									</samplecharacteristics>
								</video>
							</media>
						</file>
						<logginginfo>
							<description></description>
							<scene></scene>
							<shottake></shottake>
							<lognote></lognote>
							<good></good>
							<originalvideofilename></originalvideofilename>
							<originalaudiofilename></originalaudiofilename>
						</logginginfo>
						<colorinfo>
							<lut></lut>
							<lut1></lut1>
							<asc_sop></asc_sop>
							<asc_sat></asc_sat>
							<lut2></lut2>
						</colorinfo>
						<labels>
							<label2>Violet</label2>
						</labels>
					</clipitem>
					<clipitem id="clipitem-1497">
						<masterclipid>masterclip-1494</masterclipid>
						<name>TKO_020_CHA_Sh15545.mov</name>
						<enabled>TRUE</enabled>
						<duration>82</duration>
						<rate>
							<timebase>24</timebase>
							<ntsc>TRUE</ntsc>
						</rate>
						<start>105826</start>
						<end>105908</end>
						<in>0</in>
						<out>82</out>
						<pproTicksIn>0</pproTicksIn>
						<pproTicksOut>868755888000</pproTicksOut>
						<alphatype>none</alphatype>
						<pixelaspectratio>square</pixelaspectratio>
						<anamorphic>FALSE</anamorphic>
						<file id="file-1494">
							<name>TKO_020_CHA_Sh15545.mov</name>
							<pathurl>file://tri-stor01/Projects/TKO/SHOTS/_Refs_Movs_Burnin_FrameCounter/TKO_020_CHA_Sh15545.mov</pathurl>
							<rate>
								<timebase>24</timebase>
								<ntsc>TRUE</ntsc>
							</rate>
							<duration>82</duration>
							<timecode>
								<rate>
									<timebase>24</timebase>
									<ntsc>TRUE</ntsc>
								</rate>
								<string>00:00:00:00</string>
								<frame>0</frame>
								<displayformat>NDF</displayformat>
							</timecode>
							<media>
								<video>
									<samplecharacteristics>
										<rate>
											<timebase>24</timebase>
											<ntsc>TRUE</ntsc>
										</rate>
										<width>4096</width>
										<height>2160</height>
										<anamorphic>FALSE</anamorphic>
										<pixelaspectratio>square</pixelaspectratio>
										<fielddominance>none</fielddominance>
									</samplecharacteristics>
								</video>
								<audio>
									<samplecharacteristics>
										<depth>16</depth>
										<samplerate>48000</samplerate>
									</samplecharacteristics>
									<channelcount>2</channelcount>
								</audio>
							</media>
						</file>
						<logginginfo>
							<description></description>
							<scene></scene>
							<shottake></shottake>
							<lognote></lognote>
							<good></good>
							<originalvideofilename></originalvideofilename>
							<originalaudiofilename></originalaudiofilename>
						</logginginfo>
						<colorinfo>
							<lut></lut>
							<lut1></lut1>
							<asc_sop></asc_sop>
							<asc_sat></asc_sat>
							<lut2></lut2>
						</colorinfo>
						<labels>
							<label2>Iris</label2>
						</labels>
					</clipitem>
					<clipitem id="clipitem-1498">
						<masterclipid>masterclip-1495</masterclipid>
						<name>TKO_021_HIG_Sh15550.mov</name>
						<enabled>TRUE</enabled>
						<duration>138</duration>
						<rate>
							<timebase>24</timebase>
							<ntsc>TRUE</ntsc>
						</rate>
						<start>105908</start>
						<end>106016</end>
						<in>26</in>
						<out>134</out>
						<pproTicksIn>275459184000</pproTicksIn>
						<pproTicksOut>1419674256000</pproTicksOut>
						<alphatype>none</alphatype>
						<pixelaspectratio>square</pixelaspectratio>
						<anamorphic>FALSE</anamorphic>
						<file id="file-1495">
							<name>TKO_021_HIG_Sh15550.mov</name>
							<pathurl>file://tri-stor01/Projects/TKO/SHOTS/_Refs_Movs_Burnin_FrameCounter/TKO_021_HIG_Sh15550.mov</pathurl>
							<rate>
								<timebase>24</timebase>
								<ntsc>TRUE</ntsc>
							</rate>
							<duration>138</duration>
							<timecode>
								<rate>
									<timebase>24</timebase>
									<ntsc>TRUE</ntsc>
								</rate>
								<string>18:32:26:11</string>
								<frame>1601915</frame>
								<displayformat>NDF</displayformat>
								<reel>
									<name>A0340006</name>
								</reel>
							</timecode>
							<media>
								<video>
									<samplecharacteristics>
										<rate>
											<timebase>24</timebase>
											<ntsc>TRUE</ntsc>
										</rate>
										<width>4096</width>
										<height>2160</height>
										<anamorphic>FALSE</anamorphic>
										<pixelaspectratio>square</pixelaspectratio>
										<fielddominance>none</fielddominance>
									</samplecharacteristics>
								</video>
							</media>
						</file>
						<logginginfo>
							<description></description>
							<scene></scene>
							<shottake></shottake>
							<lognote></lognote>
							<good></good>
							<originalvideofilename></originalvideofilename>
							<originalaudiofilename></originalaudiofilename>
						</logginginfo>
						<colorinfo>
							<lut></lut>
							<lut1></lut1>
							<asc_sop></asc_sop>
							<asc_sat></asc_sat>
							<lut2></lut2>
						</colorinfo>
						<labels>
							<label2>Violet</label2>
						</labels>
					</clipitem>
					<clipitem id="clipitem-1499">
						<masterclipid>masterclip-1496</masterclipid>
						<name>TKO_021_HIG_Sh15560.mov</name>
						<enabled>TRUE</enabled>
						<duration>86</duration>
						<rate>
							<timebase>24</timebase>
							<ntsc>TRUE</ntsc>
						</rate>
						<start>106016</start>
						<end>106094</end>
						<in>4</in>
						<out>82</out>
						<pproTicksIn>42378336000</pproTicksIn>
						<pproTicksOut>868755888000</pproTicksOut>
						<alphatype>none</alphatype>
						<pixelaspectratio>square</pixelaspectratio>
						<anamorphic>FALSE</anamorphic>
						<file id="file-1496">
							<name>TKO_021_HIG_Sh15560.mov</name>
							<pathurl>file://tri-stor01/Projects/TKO/SHOTS/_Refs_Movs_Burnin_FrameCounter/TKO_021_HIG_Sh15560.mov</pathurl>
							<rate>
								<timebase>24</timebase>
								<ntsc>TRUE</ntsc>
							</rate>
							<duration>86</duration>
							<timecode>
								<rate>
									<timebase>24</timebase>
									<ntsc>TRUE</ntsc>
								</rate>
								<string>18:53:19:14</string>
								<frame>1631990</frame>
								<displayformat>NDF</displayformat>
								<reel>
									<name>B0280007</name>
								</reel>
							</timecode>
							<media>
								<video>
									<samplecharacteristics>
										<rate>
											<timebase>24</timebase>
											<ntsc>TRUE</ntsc>
										</rate>
										<width>4096</width>
										<height>2160</height>
										<anamorphic>FALSE</anamorphic>
										<pixelaspectratio>square</pixelaspectratio>
										<fielddominance>none</fielddominance>
									</samplecharacteristics>
								</video>
							</media>
						</file>
						<logginginfo>
							<description></description>
							<scene></scene>
							<shottake></shottake>
							<lognote></lognote>
							<good></good>
							<originalvideofilename></originalvideofilename>
							<originalaudiofilename></originalaudiofilename>
						</logginginfo>
						<colorinfo>
							<lut></lut>
							<lut1></lut1>
							<asc_sop></asc_sop>
							<asc_sat></asc_sat>
							<lut2></lut2>
						</colorinfo>
						<labels>
							<label2>Violet</label2>
						</labels>
					</clipitem>
					<clipitem id="clipitem-1500">
						<masterclipid>masterclip-1497</masterclipid>
						<name>TKO_021_HIG_Sh15570.mov</name>
						<enabled>TRUE</enabled>
						<duration>186</duration>
						<rate>
							<timebase>24</timebase>
							<ntsc>TRUE</ntsc>
						</rate>
						<start>106094</start>
						<end>106272</end>
						<in>4</in>
						<out>182</out>
						<pproTicksIn>42378336000</pproTicksIn>
						<pproTicksOut>1928214288000</pproTicksOut>
						<alphatype>none</alphatype>
						<pixelaspectratio>square</pixelaspectratio>
						<anamorphic>FALSE</anamorphic>
						<file id="file-1497">
							<name>TKO_021_HIG_Sh15570.mov</name>
							<pathurl>file://tri-stor01/Projects/TKO/SHOTS/_Refs_Movs_Burnin_FrameCounter/TKO_021_HIG_Sh15570.mov</pathurl>
							<rate>
								<timebase>24</timebase>
								<ntsc>TRUE</ntsc>
							</rate>
							<duration>186</duration>
							<timecode>
								<rate>
									<timebase>24</timebase>
									<ntsc>TRUE</ntsc>
								</rate>
								<string>18:51:31:08</string>
								<frame>1629392</frame>
								<displayformat>NDF</displayformat>
								<reel>
									<name>A0340007</name>
								</reel>
							</timecode>
							<media>
								<video>
									<samplecharacteristics>
										<rate>
											<timebase>24</timebase>
											<ntsc>TRUE</ntsc>
										</rate>
										<width>4096</width>
										<height>2160</height>
										<anamorphic>FALSE</anamorphic>
										<pixelaspectratio>square</pixelaspectratio>
										<fielddominance>none</fielddominance>
									</samplecharacteristics>
								</video>
							</media>
						</file>
						<logginginfo>
							<description></description>
							<scene></scene>
							<shottake></shottake>
							<lognote></lognote>
							<good></good>
							<originalvideofilename></originalvideofilename>
							<originalaudiofilename></originalaudiofilename>
						</logginginfo>
						<colorinfo>
							<lut></lut>
							<lut1></lut1>
							<asc_sop></asc_sop>
							<asc_sat></asc_sat>
							<lut2></lut2>
						</colorinfo>
						<labels>
							<label2>Violet</label2>
						</labels>
					</clipitem>
					<clipitem id="clipitem-1501">
						<masterclipid>masterclip-1498</masterclipid>
						<name>TKO_021_HIG_Sh15580_CG_BG_BEAUTY_V05.mov</name>
						<enabled>TRUE</enabled>
						<duration>44</duration>
						<rate>
							<timebase>24</timebase>
							<ntsc>TRUE</ntsc>
						</rate>
						<start>106272</start>
						<end>106307</end>
						<in>4</in>
						<out>39</out>
						<pproTicksIn>42378336000</pproTicksIn>
						<pproTicksOut>413188776000</pproTicksOut>
						<alphatype>none</alphatype>
						<pixelaspectratio>square</pixelaspectratio>
						<anamorphic>FALSE</anamorphic>
						<file id="file-1498">
							<name>TKO_021_HIG_Sh15580_CG_BG_BEAUTY_V05.mov</name>
							<pathurl>file://localhost/W%3a/TKO/SHOTS/TKO_021_HIG/TKO_021_HIG_Sh15580/CG/BG/BEAUTY/V05/TKO_021_HIG_Sh15580_CG_BG_BEAUTY_V05.mov</pathurl>
							<rate>
								<timebase>24</timebase>
								<ntsc>TRUE</ntsc>
							</rate>
							<duration>44</duration>
							<timecode>
								<rate>
									<timebase>24</timebase>
									<ntsc>TRUE</ntsc>
								</rate>
								<string>00:00:00:00</string>
								<frame>0</frame>
								<displayformat>NDF</displayformat>
							</timecode>
							<media>
								<video>
									<samplecharacteristics>
										<rate>
											<timebase>24</timebase>
											<ntsc>TRUE</ntsc>
										</rate>
										<width>1920</width>
										<height>1080</height>
										<anamorphic>FALSE</anamorphic>
										<pixelaspectratio>square</pixelaspectratio>
										<fielddominance>none</fielddominance>
									</samplecharacteristics>
								</video>
							</media>
						</file>
						<logginginfo>
							<description></description>
							<scene></scene>
							<shottake></shottake>
							<lognote></lognote>
							<good></good>
							<originalvideofilename></originalvideofilename>
							<originalaudiofilename></originalaudiofilename>
						</logginginfo>
						<colorinfo>
							<lut></lut>
							<lut1></lut1>
							<asc_sop></asc_sop>
							<asc_sat></asc_sat>
							<lut2></lut2>
						</colorinfo>
						<labels>
							<label2>Violet</label2>
						</labels>
					</clipitem>
					<clipitem id="clipitem-1502">
						<masterclipid>masterclip-1499</masterclipid>
						<name>TKO_021_HIG_Sh15590.mov</name>
						<enabled>TRUE</enabled>
						<duration>50</duration>
						<rate>
							<timebase>24</timebase>
							<ntsc>TRUE</ntsc>
						</rate>
						<start>106307</start>
						<end>106349</end>
						<in>4</in>
						<out>46</out>
						<pproTicksIn>42378336000</pproTicksIn>
						<pproTicksOut>487350864000</pproTicksOut>
						<alphatype>none</alphatype>
						<pixelaspectratio>square</pixelaspectratio>
						<anamorphic>FALSE</anamorphic>
						<file id="file-1499">
							<name>TKO_021_HIG_Sh15590.mov</name>
							<pathurl>file://tri-stor01/Projects/TKO/SHOTS/_Refs_Movs_Burnin_FrameCounter/TKO_021_HIG_Sh15590.mov</pathurl>
							<rate>
								<timebase>24</timebase>
								<ntsc>TRUE</ntsc>
							</rate>
							<duration>50</duration>
							<timecode>
								<rate>
									<timebase>24</timebase>
									<ntsc>TRUE</ntsc>
								</rate>
								<string>13:46:12:01</string>
								<frame>1189729</frame>
								<displayformat>NDF</displayformat>
								<reel>
									<name>A0330011</name>
								</reel>
							</timecode>
							<media>
								<video>
									<samplecharacteristics>
										<rate>
											<timebase>24</timebase>
											<ntsc>TRUE</ntsc>
										</rate>
										<width>4096</width>
										<height>2160</height>
										<anamorphic>FALSE</anamorphic>
										<pixelaspectratio>square</pixelaspectratio>
										<fielddominance>none</fielddominance>
									</samplecharacteristics>
								</video>
							</media>
						</file>
						<logginginfo>
							<description></description>
							<scene></scene>
							<shottake></shottake>
							<lognote></lognote>
							<good></good>
							<originalvideofilename></originalvideofilename>
							<originalaudiofilename></originalaudiofilename>
						</logginginfo>
						<colorinfo>
							<lut></lut>
							<lut1></lut1>
							<asc_sop></asc_sop>
							<asc_sat></asc_sat>
							<lut2></lut2>
						</colorinfo>
						<labels>
							<label2>Violet</label2>
						</labels>
					</clipitem>
					<clipitem id="clipitem-1503">
						<masterclipid>masterclip-1500</masterclipid>
						<name>TKO_021_HIG_Sh15600_MERGED.mov</name>
						<enabled>TRUE</enabled>
						<duration>83</duration>
						<rate>
							<timebase>24</timebase>
							<ntsc>TRUE</ntsc>
						</rate>
						<start>106349</start>
						<end>106424</end>
						<in>4</in>
						<out>79</out>
						<pproTicksIn>42378336000</pproTicksIn>
						<pproTicksOut>836972136000</pproTicksOut>
						<alphatype>none</alphatype>
						<pixelaspectratio>square</pixelaspectratio>
						<anamorphic>FALSE</anamorphic>
						<file id="file-1500">
							<name>TKO_021_HIG_Sh15600_MERGED.mov</name>
							<pathurl>file://tri-stor01/Projects/TKO/SHOTS/_Refs_Movs_Burnin_FrameCounter/TKO_021_HIG_Sh15600_MERGED.mov</pathurl>
							<rate>
								<timebase>24</timebase>
								<ntsc>TRUE</ntsc>
							</rate>
							<duration>83</duration>
							<timecode>
								<rate>
									<timebase>24</timebase>
									<ntsc>TRUE</ntsc>
								</rate>
								<string>00:00:00:00</string>
								<frame>0</frame>
								<displayformat>NDF</displayformat>
							</timecode>
							<media>
								<video>
									<samplecharacteristics>
										<rate>
											<timebase>24</timebase>
											<ntsc>TRUE</ntsc>
										</rate>
										<width>1920</width>
										<height>1080</height>
										<anamorphic>FALSE</anamorphic>
										<pixelaspectratio>square</pixelaspectratio>
										<fielddominance>none</fielddominance>
									</samplecharacteristics>
								</video>
								<audio>
									<samplecharacteristics>
										<depth>16</depth>
										<samplerate>48000</samplerate>
									</samplecharacteristics>
									<channelcount>2</channelcount>
								</audio>
							</media>
						</file>
						<logginginfo>
							<description></description>
							<scene></scene>
							<shottake></shottake>
							<lognote></lognote>
							<good></good>
							<originalvideofilename></originalvideofilename>
							<originalaudiofilename></originalaudiofilename>
						</logginginfo>
						<colorinfo>
							<lut></lut>
							<lut1></lut1>
							<asc_sop></asc_sop>
							<asc_sat></asc_sat>
							<lut2></lut2>
						</colorinfo>
						<labels>
							<label2>Iris</label2>
						</labels>
					</clipitem>
					<clipitem id="clipitem-1504">
						<masterclipid>masterclip-1501</masterclipid>
						<name>TKO_021_HIG_Sh15610.mov</name>
						<enabled>TRUE</enabled>
						<duration>21</duration>
						<rate>
							<timebase>24</timebase>
							<ntsc>TRUE</ntsc>
						</rate>
						<start>106424</start>
						<end>106437</end>
						<in>4</in>
						<out>17</out>
						<pproTicksIn>42378336000</pproTicksIn>
						<pproTicksOut>180107928000</pproTicksOut>
						<alphatype>none</alphatype>
						<pixelaspectratio>square</pixelaspectratio>
						<anamorphic>FALSE</anamorphic>
						<file id="file-1501">
							<name>TKO_021_HIG_Sh15610.mov</name>
							<pathurl>file://tri-stor01/Projects/TKO/SHOTS/_Refs_Movs_Burnin_FrameCounter/TKO_021_HIG_Sh15610.mov</pathurl>
							<rate>
								<timebase>24</timebase>
								<ntsc>TRUE</ntsc>
							</rate>
							<duration>21</duration>
							<timecode>
								<rate>
									<timebase>24</timebase>
									<ntsc>TRUE</ntsc>
								</rate>
								<string>13:46:18:03</string>
								<frame>1189875</frame>
								<displayformat>NDF</displayformat>
								<reel>
									<name>A0330011</name>
								</reel>
							</timecode>
							<media>
								<video>
									<samplecharacteristics>
										<rate>
											<timebase>24</timebase>
											<ntsc>TRUE</ntsc>
										</rate>
										<width>4096</width>
										<height>2160</height>
										<anamorphic>FALSE</anamorphic>
										<pixelaspectratio>square</pixelaspectratio>
										<fielddominance>none</fielddominance>
									</samplecharacteristics>
								</video>
							</media>
						</file>
						<logginginfo>
							<description></description>
							<scene></scene>
							<shottake></shottake>
							<lognote></lognote>
							<good></good>
							<originalvideofilename></originalvideofilename>
							<originalaudiofilename></originalaudiofilename>
						</logginginfo>
						<colorinfo>
							<lut></lut>
							<lut1></lut1>
							<asc_sop></asc_sop>
							<asc_sat></asc_sat>
							<lut2></lut2>
						</colorinfo>
						<labels>
							<label2>Violet</label2>
						</labels>
					</clipitem>
					<clipitem id="clipitem-1505">
						<masterclipid>masterclip-1502</masterclipid>
						<name>TKO_021_HIG_Sh15620.mov</name>
						<enabled>TRUE</enabled>
						<duration>21</duration>
						<rate>
							<timebase>24</timebase>
							<ntsc>TRUE</ntsc>
						</rate>
						<start>106437</start>
						<end>106450</end>
						<in>4</in>
						<out>17</out>
						<pproTicksIn>42378336000</pproTicksIn>
						<pproTicksOut>180107928000</pproTicksOut>
						<alphatype>none</alphatype>
						<pixelaspectratio>square</pixelaspectratio>
						<anamorphic>FALSE</anamorphic>
						<file id="file-1502">
							<name>TKO_021_HIG_Sh15620.mov</name>
							<pathurl>file://tri-stor01/Projects/TKO/SHOTS/_Refs_Movs_Burnin_FrameCounter/TKO_021_HIG_Sh15620.mov</pathurl>
							<rate>
								<timebase>24</timebase>
								<ntsc>TRUE</ntsc>
							</rate>
							<duration>21</duration>
							<timecode>
								<rate>
									<timebase>24</timebase>
									<ntsc>TRUE</ntsc>
								</rate>
								<string>07:21:12:15</string>
								<frame>635343</frame>
								<displayformat>NDF</displayformat>
								<reel>
									<name>C0180004</name>
								</reel>
							</timecode>
							<media>
								<video>
									<samplecharacteristics>
										<rate>
											<timebase>24</timebase>
											<ntsc>TRUE</ntsc>
										</rate>
										<width>3840</width>
										<height>2160</height>
										<anamorphic>FALSE</anamorphic>
										<pixelaspectratio>square</pixelaspectratio>
										<fielddominance>none</fielddominance>
									</samplecharacteristics>
								</video>
							</media>
						</file>
						<logginginfo>
							<description></description>
							<scene></scene>
							<shottake></shottake>
							<lognote></lognote>
							<good></good>
							<originalvideofilename></originalvideofilename>
							<originalaudiofilename></originalaudiofilename>
						</logginginfo>
						<colorinfo>
							<lut></lut>
							<lut1></lut1>
							<asc_sop></asc_sop>
							<asc_sat></asc_sat>
							<lut2></lut2>
						</colorinfo>
						<labels>
							<label2>Violet</label2>
						</labels>
					</clipitem>
					<clipitem id="clipitem-1506">
						<masterclipid>masterclip-1503</masterclipid>
						<name>TKO_021_HIG_Sh15630.mov</name>
						<enabled>TRUE</enabled>
						<duration>21</duration>
						<rate>
							<timebase>24</timebase>
							<ntsc>TRUE</ntsc>
						</rate>
						<start>106450</start>
						<end>106463</end>
						<in>4</in>
						<out>17</out>
						<pproTicksIn>42378336000</pproTicksIn>
						<pproTicksOut>180107928000</pproTicksOut>
						<alphatype>none</alphatype>
						<pixelaspectratio>square</pixelaspectratio>
						<anamorphic>FALSE</anamorphic>
						<file id="file-1503">
							<name>TKO_021_HIG_Sh15630.mov</name>
							<pathurl>file://tri-stor01/Projects/TKO/SHOTS/_Refs_Movs_Burnin_FrameCounter/TKO_021_HIG_Sh15630.mov</pathurl>
							<rate>
								<timebase>24</timebase>
								<ntsc>TRUE</ntsc>
							</rate>
							<duration>21</duration>
							<timecode>
								<rate>
									<timebase>24</timebase>
									<ntsc>TRUE</ntsc>
								</rate>
								<string>07:23:18:22</string>
								<frame>638374</frame>
								<displayformat>NDF</displayformat>
								<reel>
									<name>C0180005</name>
								</reel>
							</timecode>
							<media>
								<video>
									<samplecharacteristics>
										<rate>
											<timebase>24</timebase>
											<ntsc>TRUE</ntsc>
										</rate>
										<width>3840</width>
										<height>2160</height>
										<anamorphic>FALSE</anamorphic>
										<pixelaspectratio>square</pixelaspectratio>
										<fielddominance>none</fielddominance>
									</samplecharacteristics>
								</video>
							</media>
						</file>
						<logginginfo>
							<description></description>
							<scene></scene>
							<shottake></shottake>
							<lognote></lognote>
							<good></good>
							<originalvideofilename></originalvideofilename>
							<originalaudiofilename></originalaudiofilename>
						</logginginfo>
						<colorinfo>
							<lut></lut>
							<lut1></lut1>
							<asc_sop></asc_sop>
							<asc_sat></asc_sat>
							<lut2></lut2>
						</colorinfo>
						<labels>
							<label2>Violet</label2>
						</labels>
					</clipitem>
					<clipitem id="clipitem-1507">
						<masterclipid>masterclip-1504</masterclipid>
						<name>TKO_021_HIG_Sh15640.mov</name>
						<enabled>TRUE</enabled>
						<duration>28</duration>
						<rate>
							<timebase>24</timebase>
							<ntsc>TRUE</ntsc>
						</rate>
						<start>106463</start>
						<end>106483</end>
						<in>4</in>
						<out>24</out>
						<pproTicksIn>42378336000</pproTicksIn>
						<pproTicksOut>254270016000</pproTicksOut>
						<alphatype>none</alphatype>
						<pixelaspectratio>square</pixelaspectratio>
						<anamorphic>FALSE</anamorphic>
						<file id="file-1504">
							<name>TKO_021_HIG_Sh15640.mov</name>
							<pathurl>file://tri-stor01/Projects/TKO/SHOTS/_Refs_Movs_Burnin_FrameCounter/TKO_021_HIG_Sh15640.mov</pathurl>
							<rate>
								<timebase>24</timebase>
								<ntsc>TRUE</ntsc>
							</rate>
							<duration>28</duration>
							<timecode>
								<rate>
									<timebase>24</timebase>
									<ntsc>TRUE</ntsc>
								</rate>
								<string>18:53:34:16</string>
								<frame>1632352</frame>
								<displayformat>NDF</displayformat>
								<reel>
									<name>A0340007</name>
								</reel>
							</timecode>
							<media>
								<video>
									<samplecharacteristics>
										<rate>
											<timebase>24</timebase>
											<ntsc>TRUE</ntsc>
										</rate>
										<width>4096</width>
										<height>2160</height>
										<anamorphic>FALSE</anamorphic>
										<pixelaspectratio>square</pixelaspectratio>
										<fielddominance>none</fielddominance>
									</samplecharacteristics>
								</video>
							</media>
						</file>
						<logginginfo>
							<description></description>
							<scene></scene>
							<shottake></shottake>
							<lognote></lognote>
							<good></good>
							<originalvideofilename></originalvideofilename>
							<originalaudiofilename></originalaudiofilename>
						</logginginfo>
						<colorinfo>
							<lut></lut>
							<lut1></lut1>
							<asc_sop></asc_sop>
							<asc_sat></asc_sat>
							<lut2></lut2>
						</colorinfo>
						<labels>
							<label2>Violet</label2>
						</labels>
					</clipitem>
					<clipitem id="clipitem-1508">
						<masterclipid>masterclip-1505</masterclipid>
						<name>TKO_021_HIG_Sh15650.mov</name>
						<enabled>TRUE</enabled>
						<duration>20</duration>
						<rate>
							<timebase>24</timebase>
							<ntsc>TRUE</ntsc>
						</rate>
						<start>106483</start>
						<end>106495</end>
						<in>4</in>
						<out>16</out>
						<pproTicksIn>42378336000</pproTicksIn>
						<pproTicksOut>169513344000</pproTicksOut>
						<alphatype>none</alphatype>
						<pixelaspectratio>square</pixelaspectratio>
						<anamorphic>FALSE</anamorphic>
						<file id="file-1505">
							<name>TKO_021_HIG_Sh15650.mov</name>
							<pathurl>file://tri-stor01/Projects/TKO/SHOTS/_Refs_Movs_Burnin_FrameCounter/TKO_021_HIG_Sh15650.mov</pathurl>
							<rate>
								<timebase>24</timebase>
								<ntsc>TRUE</ntsc>
							</rate>
							<duration>20</duration>
							<timecode>
								<rate>
									<timebase>24</timebase>
									<ntsc>TRUE</ntsc>
								</rate>
								<string>13:46:19:03</string>
								<frame>1189899</frame>
								<displayformat>NDF</displayformat>
								<reel>
									<name>A0330011</name>
								</reel>
							</timecode>
							<media>
								<video>
									<samplecharacteristics>
										<rate>
											<timebase>24</timebase>
											<ntsc>TRUE</ntsc>
										</rate>
										<width>4096</width>
										<height>2160</height>
										<anamorphic>FALSE</anamorphic>
										<pixelaspectratio>square</pixelaspectratio>
										<fielddominance>none</fielddominance>
									</samplecharacteristics>
								</video>
							</media>
						</file>
						<logginginfo>
							<description></description>
							<scene></scene>
							<shottake></shottake>
							<lognote></lognote>
							<good></good>
							<originalvideofilename></originalvideofilename>
							<originalaudiofilename></originalaudiofilename>
						</logginginfo>
						<colorinfo>
							<lut></lut>
							<lut1></lut1>
							<asc_sop></asc_sop>
							<asc_sat></asc_sat>
							<lut2></lut2>
						</colorinfo>
						<labels>
							<label2>Violet</label2>
						</labels>
					</clipitem>
					<clipitem id="clipitem-1509">
						<masterclipid>masterclip-1506</masterclipid>
						<name>TKO_021_HIG_Sh15660.mov</name>
						<enabled>TRUE</enabled>
						<duration>25</duration>
						<rate>
							<timebase>24</timebase>
							<ntsc>TRUE</ntsc>
						</rate>
						<start>106495</start>
						<end>106512</end>
						<in>4</in>
						<out>21</out>
						<pproTicksIn>42378336000</pproTicksIn>
						<pproTicksOut>222486264000</pproTicksOut>
						<alphatype>none</alphatype>
						<pixelaspectratio>square</pixelaspectratio>
						<anamorphic>FALSE</anamorphic>
						<file id="file-1506">
							<name>TKO_021_HIG_Sh15660.mov</name>
							<pathurl>file://tri-stor01/Projects/TKO/SHOTS/_Refs_Movs_Burnin_FrameCounter/TKO_021_HIG_Sh15660.mov</pathurl>
							<rate>
								<timebase>24</timebase>
								<ntsc>TRUE</ntsc>
							</rate>
							<duration>25</duration>
							<timecode>
								<rate>
									<timebase>24</timebase>
									<ntsc>TRUE</ntsc>
								</rate>
								<string>07:16:30:14</string>
								<frame>628574</frame>
								<displayformat>NDF</displayformat>
								<reel>
									<name>C0180002</name>
								</reel>
							</timecode>
							<media>
								<video>
									<samplecharacteristics>
										<rate>
											<timebase>24</timebase>
											<ntsc>TRUE</ntsc>
										</rate>
										<width>3840</width>
										<height>2160</height>
										<anamorphic>FALSE</anamorphic>
										<pixelaspectratio>square</pixelaspectratio>
										<fielddominance>none</fielddominance>
									</samplecharacteristics>
								</video>
							</media>
						</file>
						<logginginfo>
							<description></description>
							<scene></scene>
							<shottake></shottake>
							<lognote></lognote>
							<good></good>
							<originalvideofilename></originalvideofilename>
							<originalaudiofilename></originalaudiofilename>
						</logginginfo>
						<colorinfo>
							<lut></lut>
							<lut1></lut1>
							<asc_sop></asc_sop>
							<asc_sat></asc_sat>
							<lut2></lut2>
						</colorinfo>
						<labels>
							<label2>Violet</label2>
						</labels>
					</clipitem>
					<clipitem id="clipitem-1510">
						<masterclipid>masterclip-1507</masterclipid>
						<name>TKO_021_HIG_Sh15670.mov</name>
						<enabled>TRUE</enabled>
						<duration>23</duration>
						<rate>
							<timebase>24</timebase>
							<ntsc>TRUE</ntsc>
						</rate>
						<start>106512</start>
						<end>106527</end>
						<in>4</in>
						<out>19</out>
						<pproTicksIn>42378336000</pproTicksIn>
						<pproTicksOut>201297096000</pproTicksOut>
						<alphatype>none</alphatype>
						<pixelaspectratio>square</pixelaspectratio>
						<anamorphic>FALSE</anamorphic>
						<file id="file-1507">
							<name>TKO_021_HIG_Sh15670.mov</name>
							<pathurl>file://tri-stor01/Projects/TKO/SHOTS/_Refs_Movs_Burnin_FrameCounter/TKO_021_HIG_Sh15670.mov</pathurl>
							<rate>
								<timebase>24</timebase>
								<ntsc>TRUE</ntsc>
							</rate>
							<duration>23</duration>
							<timecode>
								<rate>
									<timebase>24</timebase>
									<ntsc>TRUE</ntsc>
								</rate>
								<string>18:53:39:03</string>
								<frame>1632459</frame>
								<displayformat>NDF</displayformat>
								<reel>
									<name>B0280007</name>
								</reel>
							</timecode>
							<media>
								<video>
									<samplecharacteristics>
										<rate>
											<timebase>24</timebase>
											<ntsc>TRUE</ntsc>
										</rate>
										<width>4096</width>
										<height>2160</height>
										<anamorphic>FALSE</anamorphic>
										<pixelaspectratio>square</pixelaspectratio>
										<fielddominance>none</fielddominance>
									</samplecharacteristics>
								</video>
							</media>
						</file>
						<logginginfo>
							<description></description>
							<scene></scene>
							<shottake></shottake>
							<lognote></lognote>
							<good></good>
							<originalvideofilename></originalvideofilename>
							<originalaudiofilename></originalaudiofilename>
						</logginginfo>
						<colorinfo>
							<lut></lut>
							<lut1></lut1>
							<asc_sop></asc_sop>
							<asc_sat></asc_sat>
							<lut2></lut2>
						</colorinfo>
						<labels>
							<label2>Violet</label2>
						</labels>
					</clipitem>
					<clipitem id="clipitem-1511">
						<masterclipid>masterclip-1508</masterclipid>
						<name>TKO_021_HIG_Sh15680.mov</name>
						<enabled>TRUE</enabled>
						<duration>32</duration>
						<rate>
							<timebase>24</timebase>
							<ntsc>TRUE</ntsc>
						</rate>
						<start>106527</start>
						<end>106539</end>
						<in>16</in>
						<out>28</out>
						<pproTicksIn>169513344000</pproTicksIn>
						<pproTicksOut>296648352000</pproTicksOut>
						<alphatype>none</alphatype>
						<pixelaspectratio>square</pixelaspectratio>
						<anamorphic>FALSE</anamorphic>
						<file id="file-1508">
							<name>TKO_021_HIG_Sh15680.mov</name>
							<pathurl>file://tri-stor01/Projects/TKO/SHOTS/_Refs_Movs_Burnin_FrameCounter/TKO_021_HIG_Sh15680.mov</pathurl>
							<rate>
								<timebase>24</timebase>
								<ntsc>TRUE</ntsc>
							</rate>
							<duration>32</duration>
							<timecode>
								<rate>
									<timebase>24</timebase>
									<ntsc>TRUE</ntsc>
								</rate>
								<string>08:21:49:16</string>
								<frame>722632</frame>
								<displayformat>NDF</displayformat>
								<reel>
									<name>A0290003</name>
								</reel>
							</timecode>
							<media>
								<video>
									<samplecharacteristics>
										<rate>
											<timebase>24</timebase>
											<ntsc>TRUE</ntsc>
										</rate>
										<width>4096</width>
										<height>2160</height>
										<anamorphic>FALSE</anamorphic>
										<pixelaspectratio>square</pixelaspectratio>
										<fielddominance>none</fielddominance>
									</samplecharacteristics>
								</video>
							</media>
						</file>
						<logginginfo>
							<description></description>
							<scene></scene>
							<shottake></shottake>
							<lognote></lognote>
							<good></good>
							<originalvideofilename></originalvideofilename>
							<originalaudiofilename></originalaudiofilename>
						</logginginfo>
						<colorinfo>
							<lut></lut>
							<lut1></lut1>
							<asc_sop></asc_sop>
							<asc_sat></asc_sat>
							<lut2></lut2>
						</colorinfo>
						<labels>
							<label2>Violet</label2>
						</labels>
					</clipitem>
					<clipitem id="clipitem-1512">
						<masterclipid>masterclip-1509</masterclipid>
						<name>TKO_021_HIG_Sh15690.mov</name>
						<enabled>TRUE</enabled>
						<duration>53</duration>
						<rate>
							<timebase>24</timebase>
							<ntsc>TRUE</ntsc>
						</rate>
						<start>106539</start>
						<end>106584</end>
						<in>4</in>
						<out>49</out>
						<pproTicksIn>42378336000</pproTicksIn>
						<pproTicksOut>519134616000</pproTicksOut>
						<alphatype>none</alphatype>
						<pixelaspectratio>square</pixelaspectratio>
						<anamorphic>FALSE</anamorphic>
						<file id="file-1509">
							<name>TKO_021_HIG_Sh15690.mov</name>
							<pathurl>file://tri-stor01/Projects/TKO/SHOTS/_Refs_Movs_Burnin_FrameCounter/TKO_021_HIG_Sh15690.mov</pathurl>
							<rate>
								<timebase>24</timebase>
								<ntsc>TRUE</ntsc>
							</rate>
							<duration>53</duration>
							<timecode>
								<rate>
									<timebase>24</timebase>
									<ntsc>TRUE</ntsc>
								</rate>
								<string>08:30:00:01</string>
								<frame>734401</frame>
								<displayformat>NDF</displayformat>
								<reel>
									<name>B0250007</name>
								</reel>
							</timecode>
							<media>
								<video>
									<samplecharacteristics>
										<rate>
											<timebase>24</timebase>
											<ntsc>TRUE</ntsc>
										</rate>
										<width>4096</width>
										<height>2160</height>
										<anamorphic>FALSE</anamorphic>
										<pixelaspectratio>square</pixelaspectratio>
										<fielddominance>none</fielddominance>
									</samplecharacteristics>
								</video>
							</media>
						</file>
						<logginginfo>
							<description></description>
							<scene></scene>
							<shottake></shottake>
							<lognote></lognote>
							<good></good>
							<originalvideofilename></originalvideofilename>
							<originalaudiofilename></originalaudiofilename>
						</logginginfo>
						<colorinfo>
							<lut></lut>
							<lut1></lut1>
							<asc_sop></asc_sop>
							<asc_sat></asc_sat>
							<lut2></lut2>
						</colorinfo>
						<labels>
							<label2>Violet</label2>
						</labels>
					</clipitem>
					<clipitem id="clipitem-1513">
						<masterclipid>masterclip-1510</masterclipid>
						<name>TKO_021_HIG_Sh15700.mov</name>
						<enabled>TRUE</enabled>
						<duration>97</duration>
						<rate>
							<timebase>24</timebase>
							<ntsc>TRUE</ntsc>
						</rate>
						<start>106584</start>
						<end>106673</end>
						<in>4</in>
						<out>93</out>
						<pproTicksIn>42378336000</pproTicksIn>
						<pproTicksOut>985296312000</pproTicksOut>
						<alphatype>none</alphatype>
						<pixelaspectratio>square</pixelaspectratio>
						<anamorphic>FALSE</anamorphic>
						<file id="file-1510">
							<name>TKO_021_HIG_Sh15700.mov</name>
							<pathurl>file://tri-stor01/Projects/TKO/SHOTS/_Refs_Movs_Burnin_FrameCounter/TKO_021_HIG_Sh15700.mov</pathurl>
							<rate>
								<timebase>24</timebase>
								<ntsc>TRUE</ntsc>
							</rate>
							<duration>97</duration>
							<timecode>
								<rate>
									<timebase>24</timebase>
									<ntsc>TRUE</ntsc>
								</rate>
								<string>08:22:45:15</string>
								<frame>723975</frame>
								<displayformat>NDF</displayformat>
								<reel>
									<name>C0210005</name>
								</reel>
							</timecode>
							<media>
								<video>
									<samplecharacteristics>
										<rate>
											<timebase>24</timebase>
											<ntsc>TRUE</ntsc>
										</rate>
										<width>3840</width>
										<height>2160</height>
										<anamorphic>FALSE</anamorphic>
										<pixelaspectratio>square</pixelaspectratio>
										<fielddominance>none</fielddominance>
									</samplecharacteristics>
								</video>
							</media>
						</file>
						<logginginfo>
							<description></description>
							<scene></scene>
							<shottake></shottake>
							<lognote></lognote>
							<good></good>
							<originalvideofilename></originalvideofilename>
							<originalaudiofilename></originalaudiofilename>
						</logginginfo>
						<colorinfo>
							<lut></lut>
							<lut1></lut1>
							<asc_sop></asc_sop>
							<asc_sat></asc_sat>
							<lut2></lut2>
						</colorinfo>
						<labels>
							<label2>Violet</label2>
						</labels>
					</clipitem>
					<clipitem id="clipitem-1514">
						<masterclipid>masterclip-1511</masterclipid>
						<name>TKO_021_HIG_Sh15710.mov</name>
						<enabled>TRUE</enabled>
						<duration>99</duration>
						<rate>
							<timebase>24</timebase>
							<ntsc>TRUE</ntsc>
						</rate>
						<start>106673</start>
						<end>106764</end>
						<in>4</in>
						<out>95</out>
						<pproTicksIn>42378336000</pproTicksIn>
						<pproTicksOut>1006485480000</pproTicksOut>
						<alphatype>none</alphatype>
						<pixelaspectratio>square</pixelaspectratio>
						<anamorphic>FALSE</anamorphic>
						<file id="file-1511">
							<name>TKO_021_HIG_Sh15710.mov</name>
							<pathurl>file://tri-stor01/Projects/TKO/SHOTS/_Refs_Movs_Burnin_FrameCounter/TKO_021_HIG_Sh15710.mov</pathurl>
							<rate>
								<timebase>24</timebase>
								<ntsc>TRUE</ntsc>
							</rate>
							<duration>99</duration>
							<timecode>
								<rate>
									<timebase>24</timebase>
									<ntsc>TRUE</ntsc>
								</rate>
								<string>11:14:08:23</string>
								<frame>970775</frame>
								<displayformat>NDF</displayformat>
								<reel>
									<name>A0290009</name>
								</reel>
							</timecode>
							<media>
								<video>
									<samplecharacteristics>
										<rate>
											<timebase>24</timebase>
											<ntsc>TRUE</ntsc>
										</rate>
										<width>4096</width>
										<height>2160</height>
										<anamorphic>FALSE</anamorphic>
										<pixelaspectratio>square</pixelaspectratio>
										<fielddominance>none</fielddominance>
									</samplecharacteristics>
								</video>
							</media>
						</file>
						<logginginfo>
							<description></description>
							<scene></scene>
							<shottake></shottake>
							<lognote></lognote>
							<good></good>
							<originalvideofilename></originalvideofilename>
							<originalaudiofilename></originalaudiofilename>
						</logginginfo>
						<colorinfo>
							<lut></lut>
							<lut1></lut1>
							<asc_sop></asc_sop>
							<asc_sat></asc_sat>
							<lut2></lut2>
						</colorinfo>
						<labels>
							<label2>Violet</label2>
						</labels>
					</clipitem>
					<clipitem id="clipitem-1515">
						<masterclipid>masterclip-1512</masterclipid>
						<name>TKO_021_HIG_Sh15720.mov</name>
						<enabled>TRUE</enabled>
						<duration>90</duration>
						<rate>
							<timebase>24</timebase>
							<ntsc>TRUE</ntsc>
						</rate>
						<start>106764</start>
						<end>106846</end>
						<in>4</in>
						<out>86</out>
						<pproTicksIn>42378336000</pproTicksIn>
						<pproTicksOut>911134224000</pproTicksOut>
						<alphatype>none</alphatype>
						<pixelaspectratio>square</pixelaspectratio>
						<anamorphic>FALSE</anamorphic>
						<file id="file-1512">
							<name>TKO_021_HIG_Sh15720.mov</name>
							<pathurl>file://tri-stor01/Projects/TKO/SHOTS/_Refs_Movs_Burnin_FrameCounter/TKO_021_HIG_Sh15720.mov</pathurl>
							<rate>
								<timebase>24</timebase>
								<ntsc>TRUE</ntsc>
							</rate>
							<duration>90</duration>
							<timecode>
								<rate>
									<timebase>24</timebase>
									<ntsc>TRUE</ntsc>
								</rate>
								<string>11:43:13:16</string>
								<frame>1012648</frame>
								<displayformat>NDF</displayformat>
								<reel>
									<name>A0290010</name>
								</reel>
							</timecode>
							<media>
								<video>
									<samplecharacteristics>
										<rate>
											<timebase>24</timebase>
											<ntsc>TRUE</ntsc>
										</rate>
										<width>4096</width>
										<height>2160</height>
										<anamorphic>FALSE</anamorphic>
										<pixelaspectratio>square</pixelaspectratio>
										<fielddominance>none</fielddominance>
									</samplecharacteristics>
								</video>
							</media>
						</file>
						<logginginfo>
							<description></description>
							<scene></scene>
							<shottake></shottake>
							<lognote></lognote>
							<good></good>
							<originalvideofilename></originalvideofilename>
							<originalaudiofilename></originalaudiofilename>
						</logginginfo>
						<colorinfo>
							<lut></lut>
							<lut1></lut1>
							<asc_sop></asc_sop>
							<asc_sat></asc_sat>
							<lut2></lut2>
						</colorinfo>
						<labels>
							<label2>Violet</label2>
						</labels>
					</clipitem>
					<clipitem id="clipitem-1516">
						<masterclipid>masterclip-1513</masterclipid>
						<name>TKO_021_HIG_Sh15730.mov</name>
						<enabled>TRUE</enabled>
						<duration>79</duration>
						<rate>
							<timebase>24</timebase>
							<ntsc>TRUE</ntsc>
						</rate>
						<start>106846</start>
						<end>106917</end>
						<in>4</in>
						<out>75</out>
						<pproTicksIn>42378336000</pproTicksIn>
						<pproTicksOut>794593800000</pproTicksOut>
						<alphatype>none</alphatype>
						<pixelaspectratio>square</pixelaspectratio>
						<anamorphic>FALSE</anamorphic>
						<file id="file-1513">
							<name>TKO_021_HIG_Sh15730.mov</name>
							<pathurl>file://tri-stor01/Projects/TKO/SHOTS/_Refs_Movs_Burnin_FrameCounter/TKO_021_HIG_Sh15730.mov</pathurl>
							<rate>
								<timebase>24</timebase>
								<ntsc>TRUE</ntsc>
							</rate>
							<duration>79</duration>
							<timecode>
								<rate>
									<timebase>24</timebase>
									<ntsc>TRUE</ntsc>
								</rate>
								<string>11:11:19:20</string>
								<frame>966716</frame>
								<displayformat>NDF</displayformat>
								<reel>
									<name>A0290008</name>
								</reel>
							</timecode>
							<media>
								<video>
									<samplecharacteristics>
										<rate>
											<timebase>24</timebase>
											<ntsc>TRUE</ntsc>
										</rate>
										<width>4096</width>
										<height>2160</height>
										<anamorphic>FALSE</anamorphic>
										<pixelaspectratio>square</pixelaspectratio>
										<fielddominance>none</fielddominance>
									</samplecharacteristics>
								</video>
							</media>
						</file>
						<logginginfo>
							<description></description>
							<scene></scene>
							<shottake></shottake>
							<lognote></lognote>
							<good></good>
							<originalvideofilename></originalvideofilename>
							<originalaudiofilename></originalaudiofilename>
						</logginginfo>
						<colorinfo>
							<lut></lut>
							<lut1></lut1>
							<asc_sop></asc_sop>
							<asc_sat></asc_sat>
							<lut2></lut2>
						</colorinfo>
						<labels>
							<label2>Violet</label2>
						</labels>
					</clipitem>
					<clipitem id="clipitem-1517">
						<masterclipid>masterclip-1514</masterclipid>
						<name>TKO_021_HIG_Sh15740.mov</name>
						<enabled>TRUE</enabled>
						<duration>57</duration>
						<rate>
							<timebase>24</timebase>
							<ntsc>TRUE</ntsc>
						</rate>
						<start>106917</start>
						<end>106966</end>
						<in>4</in>
						<out>53</out>
						<pproTicksIn>42378336000</pproTicksIn>
						<pproTicksOut>561512952000</pproTicksOut>
						<alphatype>none</alphatype>
						<pixelaspectratio>square</pixelaspectratio>
						<anamorphic>FALSE</anamorphic>
						<file id="file-1514">
							<name>TKO_021_HIG_Sh15740.mov</name>
							<pathurl>file://tri-stor01/Projects/TKO/SHOTS/_Refs_Movs_Burnin_FrameCounter/TKO_021_HIG_Sh15740.mov</pathurl>
							<rate>
								<timebase>24</timebase>
								<ntsc>TRUE</ntsc>
							</rate>
							<duration>57</duration>
							<timecode>
								<rate>
									<timebase>24</timebase>
									<ntsc>TRUE</ntsc>
								</rate>
								<string>11:43:18:23</string>
								<frame>1012775</frame>
								<displayformat>NDF</displayformat>
								<reel>
									<name>A0290010</name>
								</reel>
							</timecode>
							<media>
								<video>
									<samplecharacteristics>
										<rate>
											<timebase>24</timebase>
											<ntsc>TRUE</ntsc>
										</rate>
										<width>4096</width>
										<height>2160</height>
										<anamorphic>FALSE</anamorphic>
										<pixelaspectratio>square</pixelaspectratio>
										<fielddominance>none</fielddominance>
									</samplecharacteristics>
								</video>
							</media>
						</file>
						<logginginfo>
							<description></description>
							<scene></scene>
							<shottake></shottake>
							<lognote></lognote>
							<good></good>
							<originalvideofilename></originalvideofilename>
							<originalaudiofilename></originalaudiofilename>
						</logginginfo>
						<colorinfo>
							<lut></lut>
							<lut1></lut1>
							<asc_sop></asc_sop>
							<asc_sat></asc_sat>
							<lut2></lut2>
						</colorinfo>
						<labels>
							<label2>Violet</label2>
						</labels>
					</clipitem>
					<clipitem id="clipitem-1518">
						<masterclipid>masterclip-1515</masterclipid>
						<name>TKO_021_HIG_Sh15750.mov</name>
						<enabled>TRUE</enabled>
						<duration>52</duration>
						<rate>
							<timebase>24</timebase>
							<ntsc>TRUE</ntsc>
						</rate>
						<start>106966</start>
						<end>106987</end>
						<in>4</in>
						<out>25</out>
						<pproTicksIn>42378336000</pproTicksIn>
						<pproTicksOut>264864600000</pproTicksOut>
						<alphatype>none</alphatype>
						<pixelaspectratio>square</pixelaspectratio>
						<anamorphic>FALSE</anamorphic>
						<file id="file-1515">
							<name>TKO_021_HIG_Sh15750.mov</name>
							<pathurl>file://tri-stor01/Projects/TKO/SHOTS/_Refs_Movs_Burnin_FrameCounter/TKO_021_HIG_Sh15750.mov</pathurl>
							<rate>
								<timebase>24</timebase>
								<ntsc>TRUE</ntsc>
							</rate>
							<duration>30</duration>
							<timecode>
								<rate>
									<timebase>24</timebase>
									<ntsc>TRUE</ntsc>
								</rate>
								<string>02:18:22:07</string>
								<frame>199255</frame>
								<displayformat>NDF</displayformat>
							</timecode>
							<media>
								<video>
									<samplecharacteristics>
										<rate>
											<timebase>24</timebase>
											<ntsc>TRUE</ntsc>
										</rate>
										<width>4096</width>
										<height>2160</height>
										<anamorphic>FALSE</anamorphic>
										<pixelaspectratio>square</pixelaspectratio>
										<fielddominance>none</fielddominance>
									</samplecharacteristics>
								</video>
							</media>
						</file>
						<logginginfo>
							<description></description>
							<scene></scene>
							<shottake></shottake>
							<lognote></lognote>
							<good></good>
							<originalvideofilename></originalvideofilename>
							<originalaudiofilename></originalaudiofilename>
						</logginginfo>
						<colorinfo>
							<lut></lut>
							<lut1></lut1>
							<asc_sop></asc_sop>
							<asc_sat></asc_sat>
							<lut2></lut2>
						</colorinfo>
						<labels>
							<label2>Violet</label2>
						</labels>
					</clipitem>
					<clipitem id="clipitem-1519">
						<masterclipid>masterclip-1516</masterclipid>
						<name>TKO_021_HIG_Sh15760.mov</name>
						<enabled>TRUE</enabled>
						<duration>84</duration>
						<rate>
							<timebase>24</timebase>
							<ntsc>TRUE</ntsc>
						</rate>
						<start>106987</start>
						<end>107063</end>
						<in>4</in>
						<out>80</out>
						<pproTicksIn>42378336000</pproTicksIn>
						<pproTicksOut>847566720000</pproTicksOut>
						<alphatype>none</alphatype>
						<pixelaspectratio>square</pixelaspectratio>
						<anamorphic>FALSE</anamorphic>
						<file id="file-1516">
							<name>TKO_021_HIG_Sh15760.mov</name>
							<pathurl>file://tri-stor01/Projects/TKO/SHOTS/_Refs_Movs_Burnin_FrameCounter/TKO_021_HIG_Sh15760.mov</pathurl>
							<rate>
								<timebase>24</timebase>
								<ntsc>TRUE</ntsc>
							</rate>
							<duration>84</duration>
							<timecode>
								<rate>
									<timebase>24</timebase>
									<ntsc>TRUE</ntsc>
								</rate>
								<string>08:32:09:10</string>
								<frame>737506</frame>
								<displayformat>NDF</displayformat>
								<reel>
									<name>C0210010</name>
								</reel>
							</timecode>
							<media>
								<video>
									<samplecharacteristics>
										<rate>
											<timebase>24</timebase>
											<ntsc>TRUE</ntsc>
										</rate>
										<width>3840</width>
										<height>2160</height>
										<anamorphic>FALSE</anamorphic>
										<pixelaspectratio>square</pixelaspectratio>
										<fielddominance>none</fielddominance>
									</samplecharacteristics>
								</video>
							</media>
						</file>
						<logginginfo>
							<description></description>
							<scene></scene>
							<shottake></shottake>
							<lognote></lognote>
							<good></good>
							<originalvideofilename></originalvideofilename>
							<originalaudiofilename></originalaudiofilename>
						</logginginfo>
						<colorinfo>
							<lut></lut>
							<lut1></lut1>
							<asc_sop></asc_sop>
							<asc_sat></asc_sat>
							<lut2></lut2>
						</colorinfo>
						<labels>
							<label2>Violet</label2>
						</labels>
					</clipitem>
					<clipitem id="clipitem-1520">
						<masterclipid>masterclip-1517</masterclipid>
						<name>TKO_021_HIG_Sh15770.mov</name>
						<enabled>TRUE</enabled>
						<duration>74</duration>
						<rate>
							<timebase>24</timebase>
							<ntsc>TRUE</ntsc>
						</rate>
						<start>107063</start>
						<end>107129</end>
						<in>4</in>
						<out>70</out>
						<pproTicksIn>42378336000</pproTicksIn>
						<pproTicksOut>741620880000</pproTicksOut>
						<alphatype>none</alphatype>
						<pixelaspectratio>square</pixelaspectratio>
						<anamorphic>FALSE</anamorphic>
						<file id="file-1517">
							<name>TKO_021_HIG_Sh15770.mov</name>
							<pathurl>file://tri-stor01/Projects/TKO/SHOTS/_Refs_Movs_Burnin_FrameCounter/TKO_021_HIG_Sh15770.mov</pathurl>
							<rate>
								<timebase>24</timebase>
								<ntsc>TRUE</ntsc>
							</rate>
							<duration>74</duration>
							<timecode>
								<rate>
									<timebase>24</timebase>
									<ntsc>TRUE</ntsc>
								</rate>
								<string>16:31:22:07</string>
								<frame>1427575</frame>
								<displayformat>NDF</displayformat>
								<reel>
									<name>A0300006</name>
								</reel>
							</timecode>
							<media>
								<video>
									<samplecharacteristics>
										<rate>
											<timebase>24</timebase>
											<ntsc>TRUE</ntsc>
										</rate>
										<width>4096</width>
										<height>2160</height>
										<anamorphic>FALSE</anamorphic>
										<pixelaspectratio>square</pixelaspectratio>
										<fielddominance>none</fielddominance>
									</samplecharacteristics>
								</video>
							</media>
						</file>
						<logginginfo>
							<description></description>
							<scene></scene>
							<shottake></shottake>
							<lognote></lognote>
							<good></good>
							<originalvideofilename></originalvideofilename>
							<originalaudiofilename></originalaudiofilename>
						</logginginfo>
						<colorinfo>
							<lut></lut>
							<lut1></lut1>
							<asc_sop></asc_sop>
							<asc_sat></asc_sat>
							<lut2></lut2>
						</colorinfo>
						<labels>
							<label2>Violet</label2>
						</labels>
					</clipitem>
					<clipitem id="clipitem-1521">
						<masterclipid>masterclip-1518</masterclipid>
						<name>TKO_021_HIG_Sh15780.mov</name>
						<enabled>TRUE</enabled>
						<duration>45</duration>
						<rate>
							<timebase>24</timebase>
							<ntsc>TRUE</ntsc>
						</rate>
						<start>107129</start>
						<end>107166</end>
						<in>4</in>
						<out>41</out>
						<pproTicksIn>42378336000</pproTicksIn>
						<pproTicksOut>434377944000</pproTicksOut>
						<alphatype>none</alphatype>
						<pixelaspectratio>square</pixelaspectratio>
						<anamorphic>FALSE</anamorphic>
						<file id="file-1518">
							<name>TKO_021_HIG_Sh15780.mov</name>
							<pathurl>file://tri-stor01/Projects/TKO/SHOTS/_Refs_Movs_Burnin_FrameCounter/TKO_021_HIG_Sh15780.mov</pathurl>
							<rate>
								<timebase>24</timebase>
								<ntsc>TRUE</ntsc>
							</rate>
							<duration>45</duration>
							<timecode>
								<rate>
									<timebase>24</timebase>
									<ntsc>TRUE</ntsc>
								</rate>
								<string>08:41:03:16</string>
								<frame>750328</frame>
								<displayformat>NDF</displayformat>
								<reel>
									<name>C0220005</name>
								</reel>
							</timecode>
							<media>
								<video>
									<samplecharacteristics>
										<rate>
											<timebase>24</timebase>
											<ntsc>TRUE</ntsc>
										</rate>
										<width>3840</width>
										<height>2160</height>
										<anamorphic>FALSE</anamorphic>
										<pixelaspectratio>square</pixelaspectratio>
										<fielddominance>none</fielddominance>
									</samplecharacteristics>
								</video>
							</media>
						</file>
						<logginginfo>
							<description></description>
							<scene></scene>
							<shottake></shottake>
							<lognote></lognote>
							<good></good>
							<originalvideofilename></originalvideofilename>
							<originalaudiofilename></originalaudiofilename>
						</logginginfo>
						<colorinfo>
							<lut></lut>
							<lut1></lut1>
							<asc_sop></asc_sop>
							<asc_sat></asc_sat>
							<lut2></lut2>
						</colorinfo>
						<labels>
							<label2>Violet</label2>
						</labels>
					</clipitem>
					<clipitem id="clipitem-1522">
						<masterclipid>masterclip-1519</masterclipid>
						<name>TKO_021_HIG_Sh15790.mov</name>
						<enabled>TRUE</enabled>
						<duration>56</duration>
						<rate>
							<timebase>24</timebase>
							<ntsc>TRUE</ntsc>
						</rate>
						<start>107166</start>
						<end>107214</end>
						<in>4</in>
						<out>52</out>
						<pproTicksIn>42378336000</pproTicksIn>
						<pproTicksOut>550918368000</pproTicksOut>
						<alphatype>none</alphatype>
						<pixelaspectratio>square</pixelaspectratio>
						<anamorphic>FALSE</anamorphic>
						<file id="file-1519">
							<name>TKO_021_HIG_Sh15790.mov</name>
							<pathurl>file://tri-stor01/Projects/TKO/SHOTS/_Refs_Movs_Burnin_FrameCounter/TKO_021_HIG_Sh15790.mov</pathurl>
							<rate>
								<timebase>24</timebase>
								<ntsc>TRUE</ntsc>
							</rate>
							<duration>56</duration>
							<timecode>
								<rate>
									<timebase>24</timebase>
									<ntsc>TRUE</ntsc>
								</rate>
								<string>16:17:36:14</string>
								<frame>1407758</frame>
								<displayformat>NDF</displayformat>
								<reel>
									<name>B0260005</name>
								</reel>
							</timecode>
							<media>
								<video>
									<samplecharacteristics>
										<rate>
											<timebase>24</timebase>
											<ntsc>TRUE</ntsc>
										</rate>
										<width>4096</width>
										<height>2160</height>
										<anamorphic>FALSE</anamorphic>
										<pixelaspectratio>square</pixelaspectratio>
										<fielddominance>none</fielddominance>
									</samplecharacteristics>
								</video>
							</media>
						</file>
						<logginginfo>
							<description></description>
							<scene></scene>
							<shottake></shottake>
							<lognote></lognote>
							<good></good>
							<originalvideofilename></originalvideofilename>
							<originalaudiofilename></originalaudiofilename>
						</logginginfo>
						<colorinfo>
							<lut></lut>
							<lut1></lut1>
							<asc_sop></asc_sop>
							<asc_sat></asc_sat>
							<lut2></lut2>
						</colorinfo>
						<labels>
							<label2>Violet</label2>
						</labels>
					</clipitem>
					<clipitem id="clipitem-1523">
						<masterclipid>masterclip-1520</masterclipid>
						<name>TKO_021_HIG_Sh15800.mov</name>
						<enabled>TRUE</enabled>
						<duration>58</duration>
						<rate>
							<timebase>24</timebase>
							<ntsc>TRUE</ntsc>
						</rate>
						<start>107214</start>
						<end>107264</end>
						<in>4</in>
						<out>54</out>
						<pproTicksIn>42378336000</pproTicksIn>
						<pproTicksOut>572107536000</pproTicksOut>
						<alphatype>none</alphatype>
						<pixelaspectratio>square</pixelaspectratio>
						<anamorphic>FALSE</anamorphic>
						<file id="file-1520">
							<name>TKO_021_HIG_Sh15800.mov</name>
							<pathurl>file://tri-stor01/Projects/TKO/SHOTS/_Refs_Movs_Burnin_FrameCounter/TKO_021_HIG_Sh15800.mov</pathurl>
							<rate>
								<timebase>24</timebase>
								<ntsc>TRUE</ntsc>
							</rate>
							<duration>58</duration>
							<timecode>
								<rate>
									<timebase>24</timebase>
									<ntsc>TRUE</ntsc>
								</rate>
								<string>17:20:38:13</string>
								<frame>1498525</frame>
								<displayformat>NDF</displayformat>
								<reel>
									<name>A0300010</name>
								</reel>
							</timecode>
							<media>
								<video>
									<samplecharacteristics>
										<rate>
											<timebase>24</timebase>
											<ntsc>TRUE</ntsc>
										</rate>
										<width>4096</width>
										<height>2160</height>
										<anamorphic>FALSE</anamorphic>
										<pixelaspectratio>square</pixelaspectratio>
										<fielddominance>none</fielddominance>
									</samplecharacteristics>
								</video>
							</media>
						</file>
						<logginginfo>
							<description></description>
							<scene></scene>
							<shottake></shottake>
							<lognote></lognote>
							<good></good>
							<originalvideofilename></originalvideofilename>
							<originalaudiofilename></originalaudiofilename>
						</logginginfo>
						<colorinfo>
							<lut></lut>
							<lut1></lut1>
							<asc_sop></asc_sop>
							<asc_sat></asc_sat>
							<lut2></lut2>
						</colorinfo>
						<labels>
							<label2>Violet</label2>
						</labels>
					</clipitem>
					<clipitem id="clipitem-1524">
						<masterclipid>masterclip-1521</masterclipid>
						<name>TKO_021_HIG_Sh15810.mov</name>
						<enabled>TRUE</enabled>
						<duration>74</duration>
						<rate>
							<timebase>24</timebase>
							<ntsc>TRUE</ntsc>
						</rate>
						<start>107264</start>
						<end>107330</end>
						<in>4</in>
						<out>70</out>
						<pproTicksIn>42378336000</pproTicksIn>
						<pproTicksOut>741620880000</pproTicksOut>
						<alphatype>none</alphatype>
						<pixelaspectratio>square</pixelaspectratio>
						<anamorphic>FALSE</anamorphic>
						<file id="file-1521">
							<name>TKO_021_HIG_Sh15810.mov</name>
							<pathurl>file://tri-stor01/Projects/TKO/SHOTS/_Refs_Movs_Burnin_FrameCounter/TKO_021_HIG_Sh15810.mov</pathurl>
							<rate>
								<timebase>24</timebase>
								<ntsc>TRUE</ntsc>
							</rate>
							<duration>74</duration>
							<timecode>
								<rate>
									<timebase>24</timebase>
									<ntsc>TRUE</ntsc>
								</rate>
								<string>16:49:42:06</string>
								<frame>1453974</frame>
								<displayformat>NDF</displayformat>
								<reel>
									<name>A0300007</name>
								</reel>
							</timecode>
							<media>
								<video>
									<samplecharacteristics>
										<rate>
											<timebase>24</timebase>
											<ntsc>TRUE</ntsc>
										</rate>
										<width>4096</width>
										<height>2160</height>
										<anamorphic>FALSE</anamorphic>
										<pixelaspectratio>square</pixelaspectratio>
										<fielddominance>none</fielddominance>
									</samplecharacteristics>
								</video>
							</media>
						</file>
						<logginginfo>
							<description></description>
							<scene></scene>
							<shottake></shottake>
							<lognote></lognote>
							<good></good>
							<originalvideofilename></originalvideofilename>
							<originalaudiofilename></originalaudiofilename>
						</logginginfo>
						<colorinfo>
							<lut></lut>
							<lut1></lut1>
							<asc_sop></asc_sop>
							<asc_sat></asc_sat>
							<lut2></lut2>
						</colorinfo>
						<labels>
							<label2>Violet</label2>
						</labels>
					</clipitem>
					<clipitem id="clipitem-1525">
						<masterclipid>masterclip-1522</masterclipid>
						<name>TKO_021_HIG_Sh15820.mov</name>
						<enabled>TRUE</enabled>
						<duration>136</duration>
						<rate>
							<timebase>24</timebase>
							<ntsc>TRUE</ntsc>
						</rate>
						<start>107330</start>
						<end>107458</end>
						<in>4</in>
						<out>132</out>
						<pproTicksIn>42378336000</pproTicksIn>
						<pproTicksOut>1398485088000</pproTicksOut>
						<alphatype>none</alphatype>
						<pixelaspectratio>square</pixelaspectratio>
						<anamorphic>FALSE</anamorphic>
						<file id="file-1522">
							<name>TKO_021_HIG_Sh15820.mov</name>
							<pathurl>file://tri-stor01/Projects/TKO/SHOTS/_Refs_Movs_Burnin_FrameCounter/TKO_021_HIG_Sh15820.mov</pathurl>
							<rate>
								<timebase>24</timebase>
								<ntsc>TRUE</ntsc>
							</rate>
							<duration>136</duration>
							<timecode>
								<rate>
									<timebase>24</timebase>
									<ntsc>TRUE</ntsc>
								</rate>
								<string>16:49:45:00</string>
								<frame>1454040</frame>
								<displayformat>NDF</displayformat>
								<reel>
									<name>B0260007</name>
								</reel>
							</timecode>
							<media>
								<video>
									<samplecharacteristics>
										<rate>
											<timebase>24</timebase>
											<ntsc>TRUE</ntsc>
										</rate>
										<width>4096</width>
										<height>2160</height>
										<anamorphic>FALSE</anamorphic>
										<pixelaspectratio>square</pixelaspectratio>
										<fielddominance>none</fielddominance>
									</samplecharacteristics>
								</video>
							</media>
						</file>
						<logginginfo>
							<description></description>
							<scene></scene>
							<shottake></shottake>
							<lognote></lognote>
							<good></good>
							<originalvideofilename></originalvideofilename>
							<originalaudiofilename></originalaudiofilename>
						</logginginfo>
						<colorinfo>
							<lut></lut>
							<lut1></lut1>
							<asc_sop></asc_sop>
							<asc_sat></asc_sat>
							<lut2></lut2>
						</colorinfo>
						<labels>
							<label2>Violet</label2>
						</labels>
					</clipitem>
					<clipitem id="clipitem-1526">
						<masterclipid>masterclip-1523</masterclipid>
						<name>TKO_021_HIG_Sh15830.mov</name>
						<enabled>TRUE</enabled>
						<duration>43</duration>
						<rate>
							<timebase>24</timebase>
							<ntsc>TRUE</ntsc>
						</rate>
						<start>107458</start>
						<end>107493</end>
						<in>4</in>
						<out>39</out>
						<pproTicksIn>42378336000</pproTicksIn>
						<pproTicksOut>413188776000</pproTicksOut>
						<alphatype>none</alphatype>
						<pixelaspectratio>square</pixelaspectratio>
						<anamorphic>FALSE</anamorphic>
						<file id="file-1523">
							<name>TKO_021_HIG_Sh15830.mov</name>
							<pathurl>file://tri-stor01/Projects/TKO/SHOTS/_Refs_Movs_Burnin_FrameCounter/TKO_021_HIG_Sh15830.mov</pathurl>
							<rate>
								<timebase>24</timebase>
								<ntsc>TRUE</ntsc>
							</rate>
							<duration>43</duration>
							<timecode>
								<rate>
									<timebase>24</timebase>
									<ntsc>TRUE</ntsc>
								</rate>
								<string>16:49:50:08</string>
								<frame>1454168</frame>
								<displayformat>NDF</displayformat>
								<reel>
									<name>A0300007</name>
								</reel>
							</timecode>
							<media>
								<video>
									<samplecharacteristics>
										<rate>
											<timebase>24</timebase>
											<ntsc>TRUE</ntsc>
										</rate>
										<width>4096</width>
										<height>2160</height>
										<anamorphic>FALSE</anamorphic>
										<pixelaspectratio>square</pixelaspectratio>
										<fielddominance>none</fielddominance>
									</samplecharacteristics>
								</video>
							</media>
						</file>
						<logginginfo>
							<description></description>
							<scene></scene>
							<shottake></shottake>
							<lognote></lognote>
							<good></good>
							<originalvideofilename></originalvideofilename>
							<originalaudiofilename></originalaudiofilename>
						</logginginfo>
						<colorinfo>
							<lut></lut>
							<lut1></lut1>
							<asc_sop></asc_sop>
							<asc_sat></asc_sat>
							<lut2></lut2>
						</colorinfo>
						<labels>
							<label2>Violet</label2>
						</labels>
					</clipitem>
					<clipitem id="clipitem-1527">
						<masterclipid>masterclip-1524</masterclipid>
						<name>TKO_021_HIG_Sh15840.mov</name>
						<enabled>TRUE</enabled>
						<duration>40</duration>
						<rate>
							<timebase>24</timebase>
							<ntsc>TRUE</ntsc>
						</rate>
						<start>107493</start>
						<end>107525</end>
						<in>4</in>
						<out>36</out>
						<pproTicksIn>42378336000</pproTicksIn>
						<pproTicksOut>381405024000</pproTicksOut>
						<alphatype>none</alphatype>
						<pixelaspectratio>square</pixelaspectratio>
						<anamorphic>FALSE</anamorphic>
						<file id="file-1524">
							<name>TKO_021_HIG_Sh15840.mov</name>
							<pathurl>file://tri-stor01/Projects/TKO/SHOTS/_Refs_Movs_Burnin_FrameCounter/TKO_021_HIG_Sh15840.mov</pathurl>
							<rate>
								<timebase>24</timebase>
								<ntsc>TRUE</ntsc>
							</rate>
							<duration>40</duration>
							<timecode>
								<rate>
									<timebase>24</timebase>
									<ntsc>TRUE</ntsc>
								</rate>
								<string>16:49:51:19</string>
								<frame>1454203</frame>
								<displayformat>NDF</displayformat>
								<reel>
									<name>B0260007</name>
								</reel>
							</timecode>
							<media>
								<video>
									<samplecharacteristics>
										<rate>
											<timebase>24</timebase>
											<ntsc>TRUE</ntsc>
										</rate>
										<width>4096</width>
										<height>2160</height>
										<anamorphic>FALSE</anamorphic>
										<pixelaspectratio>square</pixelaspectratio>
										<fielddominance>none</fielddominance>
									</samplecharacteristics>
								</video>
							</media>
						</file>
						<logginginfo>
							<description></description>
							<scene></scene>
							<shottake></shottake>
							<lognote></lognote>
							<good></good>
							<originalvideofilename></originalvideofilename>
							<originalaudiofilename></originalaudiofilename>
						</logginginfo>
						<colorinfo>
							<lut></lut>
							<lut1></lut1>
							<asc_sop></asc_sop>
							<asc_sat></asc_sat>
							<lut2></lut2>
						</colorinfo>
						<labels>
							<label2>Violet</label2>
						</labels>
					</clipitem>
					<clipitem id="clipitem-1528">
						<masterclipid>masterclip-1525</masterclipid>
						<name>TKO_021_HIG_Sh15850.mov</name>
						<enabled>TRUE</enabled>
						<duration>48</duration>
						<rate>
							<timebase>24</timebase>
							<ntsc>TRUE</ntsc>
						</rate>
						<start>107525</start>
						<end>107565</end>
						<in>4</in>
						<out>44</out>
						<pproTicksIn>42378336000</pproTicksIn>
						<pproTicksOut>466161696000</pproTicksOut>
						<alphatype>none</alphatype>
						<pixelaspectratio>square</pixelaspectratio>
						<anamorphic>FALSE</anamorphic>
						<file id="file-1525">
							<name>TKO_021_HIG_Sh15850.mov</name>
							<pathurl>file://tri-stor01/Projects/TKO/SHOTS/_Refs_Movs_Burnin_FrameCounter/TKO_021_HIG_Sh15850.mov</pathurl>
							<rate>
								<timebase>24</timebase>
								<ntsc>TRUE</ntsc>
							</rate>
							<duration>48</duration>
							<timecode>
								<rate>
									<timebase>24</timebase>
									<ntsc>TRUE</ntsc>
								</rate>
								<string>17:15:45:17</string>
								<frame>1491497</frame>
								<displayformat>NDF</displayformat>
								<reel>
									<name>A0300009</name>
								</reel>
							</timecode>
							<media>
								<video>
									<samplecharacteristics>
										<rate>
											<timebase>24</timebase>
											<ntsc>TRUE</ntsc>
										</rate>
										<width>4096</width>
										<height>2160</height>
										<anamorphic>FALSE</anamorphic>
										<pixelaspectratio>square</pixelaspectratio>
										<fielddominance>none</fielddominance>
									</samplecharacteristics>
								</video>
							</media>
						</file>
						<logginginfo>
							<description></description>
							<scene></scene>
							<shottake></shottake>
							<lognote></lognote>
							<good></good>
							<originalvideofilename></originalvideofilename>
							<originalaudiofilename></originalaudiofilename>
						</logginginfo>
						<colorinfo>
							<lut></lut>
							<lut1></lut1>
							<asc_sop></asc_sop>
							<asc_sat></asc_sat>
							<lut2></lut2>
						</colorinfo>
						<labels>
							<label2>Violet</label2>
						</labels>
					</clipitem>
					<clipitem id="clipitem-1529">
						<masterclipid>masterclip-1526</masterclipid>
						<name>TKO_021_HIG_Sh15860.mov</name>
						<enabled>TRUE</enabled>
						<duration>95</duration>
						<rate>
							<timebase>24</timebase>
							<ntsc>TRUE</ntsc>
						</rate>
						<start>107565</start>
						<end>107652</end>
						<in>4</in>
						<out>91</out>
						<pproTicksIn>42378336000</pproTicksIn>
						<pproTicksOut>964107144000</pproTicksOut>
						<alphatype>none</alphatype>
						<pixelaspectratio>square</pixelaspectratio>
						<anamorphic>FALSE</anamorphic>
						<file id="file-1526">
							<name>TKO_021_HIG_Sh15860.mov</name>
							<pathurl>file://tri-stor01/Projects/TKO/SHOTS/_Refs_Movs_Burnin_FrameCounter/TKO_021_HIG_Sh15860.mov</pathurl>
							<rate>
								<timebase>24</timebase>
								<ntsc>TRUE</ntsc>
							</rate>
							<duration>95</duration>
							<timecode>
								<rate>
									<timebase>24</timebase>
									<ntsc>TRUE</ntsc>
								</rate>
								<string>16:49:55:21</string>
								<frame>1454301</frame>
								<displayformat>NDF</displayformat>
								<reel>
									<name>B0260007</name>
								</reel>
							</timecode>
							<media>
								<video>
									<samplecharacteristics>
										<rate>
											<timebase>24</timebase>
											<ntsc>TRUE</ntsc>
										</rate>
										<width>4096</width>
										<height>2160</height>
										<anamorphic>FALSE</anamorphic>
										<pixelaspectratio>square</pixelaspectratio>
										<fielddominance>none</fielddominance>
									</samplecharacteristics>
								</video>
							</media>
						</file>
						<logginginfo>
							<description></description>
							<scene></scene>
							<shottake></shottake>
							<lognote></lognote>
							<good></good>
							<originalvideofilename></originalvideofilename>
							<originalaudiofilename></originalaudiofilename>
						</logginginfo>
						<colorinfo>
							<lut></lut>
							<lut1></lut1>
							<asc_sop></asc_sop>
							<asc_sat></asc_sat>
							<lut2></lut2>
						</colorinfo>
						<labels>
							<label2>Violet</label2>
						</labels>
					</clipitem>
					<clipitem id="clipitem-1530">
						<masterclipid>masterclip-1527</masterclipid>
						<name>TKO_021_HIG_Sh15870.mov</name>
						<enabled>TRUE</enabled>
						<duration>54</duration>
						<rate>
							<timebase>24</timebase>
							<ntsc>TRUE</ntsc>
						</rate>
						<start>107652</start>
						<end>107698</end>
						<in>4</in>
						<out>50</out>
						<pproTicksIn>42378336000</pproTicksIn>
						<pproTicksOut>529729200000</pproTicksOut>
						<alphatype>none</alphatype>
						<pixelaspectratio>square</pixelaspectratio>
						<anamorphic>FALSE</anamorphic>
						<file id="file-1527">
							<name>TKO_021_HIG_Sh15870.mov</name>
							<pathurl>file://tri-stor01/Projects/TKO/SHOTS/_Refs_Movs_Burnin_FrameCounter/TKO_021_HIG_Sh15870.mov</pathurl>
							<rate>
								<timebase>24</timebase>
								<ntsc>TRUE</ntsc>
							</rate>
							<duration>54</duration>
							<timecode>
								<rate>
									<timebase>24</timebase>
									<ntsc>TRUE</ntsc>
								</rate>
								<string>08:43:48:15</string>
								<frame>754287</frame>
								<displayformat>NDF</displayformat>
								<reel>
									<name>C0220006</name>
								</reel>
							</timecode>
							<media>
								<video>
									<samplecharacteristics>
										<rate>
											<timebase>24</timebase>
											<ntsc>TRUE</ntsc>
										</rate>
										<width>3840</width>
										<height>2160</height>
										<anamorphic>FALSE</anamorphic>
										<pixelaspectratio>square</pixelaspectratio>
										<fielddominance>none</fielddominance>
									</samplecharacteristics>
								</video>
							</media>
						</file>
						<logginginfo>
							<description></description>
							<scene></scene>
							<shottake></shottake>
							<lognote></lognote>
							<good></good>
							<originalvideofilename></originalvideofilename>
							<originalaudiofilename></originalaudiofilename>
						</logginginfo>
						<colorinfo>
							<lut></lut>
							<lut1></lut1>
							<asc_sop></asc_sop>
							<asc_sat></asc_sat>
							<lut2></lut2>
						</colorinfo>
						<labels>
							<label2>Violet</label2>
						</labels>
					</clipitem>
					<clipitem id="clipitem-1531">
						<masterclipid>masterclip-1528</masterclipid>
						<name>TKO_021_HIG_Sh15880.mov</name>
						<enabled>TRUE</enabled>
						<duration>91</duration>
						<rate>
							<timebase>24</timebase>
							<ntsc>TRUE</ntsc>
						</rate>
						<start>107698</start>
						<end>107781</end>
						<in>4</in>
						<out>87</out>
						<pproTicksIn>42378336000</pproTicksIn>
						<pproTicksOut>921728808000</pproTicksOut>
						<alphatype>none</alphatype>
						<pixelaspectratio>square</pixelaspectratio>
						<anamorphic>FALSE</anamorphic>
						<file id="file-1528">
							<name>TKO_021_HIG_Sh15880.mov</name>
							<pathurl>file://tri-stor01/Projects/TKO/SHOTS/_Refs_Movs_Burnin_FrameCounter/TKO_021_HIG_Sh15880.mov</pathurl>
							<rate>
								<timebase>24</timebase>
								<ntsc>TRUE</ntsc>
							</rate>
							<duration>91</duration>
							<timecode>
								<rate>
									<timebase>24</timebase>
									<ntsc>TRUE</ntsc>
								</rate>
								<string>16:50:03:02</string>
								<frame>1454474</frame>
								<displayformat>NDF</displayformat>
								<reel>
									<name>B0260007</name>
								</reel>
							</timecode>
							<media>
								<video>
									<samplecharacteristics>
										<rate>
											<timebase>24</timebase>
											<ntsc>TRUE</ntsc>
										</rate>
										<width>4096</width>
										<height>2160</height>
										<anamorphic>FALSE</anamorphic>
										<pixelaspectratio>square</pixelaspectratio>
										<fielddominance>none</fielddominance>
									</samplecharacteristics>
								</video>
							</media>
						</file>
						<logginginfo>
							<description></description>
							<scene></scene>
							<shottake></shottake>
							<lognote></lognote>
							<good></good>
							<originalvideofilename></originalvideofilename>
							<originalaudiofilename></originalaudiofilename>
						</logginginfo>
						<colorinfo>
							<lut></lut>
							<lut1></lut1>
							<asc_sop></asc_sop>
							<asc_sat></asc_sat>
							<lut2></lut2>
						</colorinfo>
						<labels>
							<label2>Violet</label2>
						</labels>
					</clipitem>
					<clipitem id="clipitem-1532">
						<masterclipid>masterclip-1529</masterclipid>
						<name>TKO_021_HIG_Sh15890.mov</name>
						<enabled>TRUE</enabled>
						<duration>34</duration>
						<rate>
							<timebase>24</timebase>
							<ntsc>TRUE</ntsc>
						</rate>
						<start>107781</start>
						<end>107807</end>
						<in>4</in>
						<out>30</out>
						<pproTicksIn>42378336000</pproTicksIn>
						<pproTicksOut>317837520000</pproTicksOut>
						<alphatype>none</alphatype>
						<pixelaspectratio>square</pixelaspectratio>
						<anamorphic>FALSE</anamorphic>
						<file id="file-1529">
							<name>TKO_021_HIG_Sh15890.mov</name>
							<pathurl>file://tri-stor01/Projects/TKO/SHOTS/_Refs_Movs_Burnin_FrameCounter/TKO_021_HIG_Sh15890.mov</pathurl>
							<rate>
								<timebase>24</timebase>
								<ntsc>TRUE</ntsc>
							</rate>
							<duration>34</duration>
							<timecode>
								<rate>
									<timebase>24</timebase>
									<ntsc>TRUE</ntsc>
								</rate>
								<string>14:41:34:07</string>
								<frame>1269463</frame>
								<displayformat>NDF</displayformat>
								<reel>
									<name>B0260001</name>
								</reel>
							</timecode>
							<media>
								<video>
									<samplecharacteristics>
										<rate>
											<timebase>24</timebase>
											<ntsc>TRUE</ntsc>
										</rate>
										<width>4096</width>
										<height>2160</height>
										<anamorphic>FALSE</anamorphic>
										<pixelaspectratio>square</pixelaspectratio>
										<fielddominance>none</fielddominance>
									</samplecharacteristics>
								</video>
							</media>
						</file>
						<logginginfo>
							<description></description>
							<scene></scene>
							<shottake></shottake>
							<lognote></lognote>
							<good></good>
							<originalvideofilename></originalvideofilename>
							<originalaudiofilename></originalaudiofilename>
						</logginginfo>
						<colorinfo>
							<lut></lut>
							<lut1></lut1>
							<asc_sop></asc_sop>
							<asc_sat></asc_sat>
							<lut2></lut2>
						</colorinfo>
						<labels>
							<label2>Violet</label2>
						</labels>
					</clipitem>
					<clipitem id="clipitem-1533">
						<masterclipid>masterclip-1530</masterclipid>
						<name>TKO_021_HIG_Sh15900.mov</name>
						<enabled>TRUE</enabled>
						<duration>42</duration>
						<rate>
							<timebase>24</timebase>
							<ntsc>TRUE</ntsc>
						</rate>
						<start>107807</start>
						<end>107841</end>
						<in>4</in>
						<out>38</out>
						<pproTicksIn>42378336000</pproTicksIn>
						<pproTicksOut>402594192000</pproTicksOut>
						<alphatype>none</alphatype>
						<pixelaspectratio>square</pixelaspectratio>
						<anamorphic>FALSE</anamorphic>
						<file id="file-1530">
							<name>TKO_021_HIG_Sh15900.mov</name>
							<pathurl>file://tri-stor01/Projects/TKO/SHOTS/_Refs_Movs_Burnin_FrameCounter/TKO_021_HIG_Sh15900.mov</pathurl>
							<rate>
								<timebase>24</timebase>
								<ntsc>TRUE</ntsc>
							</rate>
							<duration>42</duration>
							<timecode>
								<rate>
									<timebase>24</timebase>
									<ntsc>TRUE</ntsc>
								</rate>
								<string>16:50:07:15</string>
								<frame>1454583</frame>
								<displayformat>NDF</displayformat>
								<reel>
									<name>A0300007</name>
								</reel>
							</timecode>
							<media>
								<video>
									<samplecharacteristics>
										<rate>
											<timebase>24</timebase>
											<ntsc>TRUE</ntsc>
										</rate>
										<width>4096</width>
										<height>2160</height>
										<anamorphic>FALSE</anamorphic>
										<pixelaspectratio>square</pixelaspectratio>
										<fielddominance>none</fielddominance>
									</samplecharacteristics>
								</video>
							</media>
						</file>
						<logginginfo>
							<description></description>
							<scene></scene>
							<shottake></shottake>
							<lognote></lognote>
							<good></good>
							<originalvideofilename></originalvideofilename>
							<originalaudiofilename></originalaudiofilename>
						</logginginfo>
						<colorinfo>
							<lut></lut>
							<lut1></lut1>
							<asc_sop></asc_sop>
							<asc_sat></asc_sat>
							<lut2></lut2>
						</colorinfo>
						<labels>
							<label2>Violet</label2>
						</labels>
					</clipitem>
					<clipitem id="clipitem-1534">
						<masterclipid>masterclip-1531</masterclipid>
						<name>TKO_021_HIG_Sh15910.mov</name>
						<enabled>TRUE</enabled>
						<duration>51</duration>
						<rate>
							<timebase>24</timebase>
							<ntsc>TRUE</ntsc>
						</rate>
						<start>107841</start>
						<end>107884</end>
						<in>4</in>
						<out>47</out>
						<pproTicksIn>42378336000</pproTicksIn>
						<pproTicksOut>497945448000</pproTicksOut>
						<alphatype>none</alphatype>
						<pixelaspectratio>square</pixelaspectratio>
						<anamorphic>FALSE</anamorphic>
						<file id="file-1531">
							<name>TKO_021_HIG_Sh15910.mov</name>
							<pathurl>file://tri-stor01/Projects/TKO/SHOTS/_Refs_Movs_Burnin_FrameCounter/TKO_021_HIG_Sh15910.mov</pathurl>
							<rate>
								<timebase>24</timebase>
								<ntsc>TRUE</ntsc>
							</rate>
							<duration>51</duration>
							<timecode>
								<rate>
									<timebase>24</timebase>
									<ntsc>TRUE</ntsc>
								</rate>
								<string>14:41:36:23</string>
								<frame>1269527</frame>
								<displayformat>NDF</displayformat>
								<reel>
									<name>B0260001</name>
								</reel>
							</timecode>
							<media>
								<video>
									<samplecharacteristics>
										<rate>
											<timebase>24</timebase>
											<ntsc>TRUE</ntsc>
										</rate>
										<width>4096</width>
										<height>2160</height>
										<anamorphic>FALSE</anamorphic>
										<pixelaspectratio>square</pixelaspectratio>
										<fielddominance>none</fielddominance>
									</samplecharacteristics>
								</video>
							</media>
						</file>
						<logginginfo>
							<description></description>
							<scene></scene>
							<shottake></shottake>
							<lognote></lognote>
							<good></good>
							<originalvideofilename></originalvideofilename>
							<originalaudiofilename></originalaudiofilename>
						</logginginfo>
						<colorinfo>
							<lut></lut>
							<lut1></lut1>
							<asc_sop></asc_sop>
							<asc_sat></asc_sat>
							<lut2></lut2>
						</colorinfo>
						<labels>
							<label2>Violet</label2>
						</labels>
					</clipitem>
					<clipitem id="clipitem-1535">
						<masterclipid>masterclip-1532</masterclipid>
						<name>TKO_021_HIG_Sh15920.mov</name>
						<enabled>TRUE</enabled>
						<duration>38</duration>
						<rate>
							<timebase>24</timebase>
							<ntsc>TRUE</ntsc>
						</rate>
						<start>107884</start>
						<end>107914</end>
						<in>4</in>
						<out>34</out>
						<pproTicksIn>42378336000</pproTicksIn>
						<pproTicksOut>360215856000</pproTicksOut>
						<alphatype>none</alphatype>
						<pixelaspectratio>square</pixelaspectratio>
						<anamorphic>FALSE</anamorphic>
						<file id="file-1532">
							<name>TKO_021_HIG_Sh15920.mov</name>
							<pathurl>file://tri-stor01/Projects/TKO/SHOTS/_Refs_Movs_Burnin_FrameCounter/TKO_021_HIG_Sh15920.mov</pathurl>
							<rate>
								<timebase>24</timebase>
								<ntsc>TRUE</ntsc>
							</rate>
							<duration>38</duration>
							<timecode>
								<rate>
									<timebase>24</timebase>
									<ntsc>TRUE</ntsc>
								</rate>
								<string>16:09:35:16</string>
								<frame>1396216</frame>
								<displayformat>NDF</displayformat>
								<reel>
									<name>A0300004</name>
								</reel>
							</timecode>
							<media>
								<video>
									<samplecharacteristics>
										<rate>
											<timebase>24</timebase>
											<ntsc>TRUE</ntsc>
										</rate>
										<width>4096</width>
										<height>2160</height>
										<anamorphic>FALSE</anamorphic>
										<pixelaspectratio>square</pixelaspectratio>
										<fielddominance>none</fielddominance>
									</samplecharacteristics>
								</video>
							</media>
						</file>
						<logginginfo>
							<description></description>
							<scene></scene>
							<shottake></shottake>
							<lognote></lognote>
							<good></good>
							<originalvideofilename></originalvideofilename>
							<originalaudiofilename></originalaudiofilename>
						</logginginfo>
						<colorinfo>
							<lut></lut>
							<lut1></lut1>
							<asc_sop></asc_sop>
							<asc_sat></asc_sat>
							<lut2></lut2>
						</colorinfo>
						<labels>
							<label2>Violet</label2>
						</labels>
					</clipitem>
					<clipitem id="clipitem-1536">
						<masterclipid>masterclip-1533</masterclipid>
						<name>TKO_021_HIG_Sh15930.mov</name>
						<enabled>TRUE</enabled>
						<duration>37</duration>
						<rate>
							<timebase>24</timebase>
							<ntsc>TRUE</ntsc>
						</rate>
						<start>107914</start>
						<end>107943</end>
						<in>4</in>
						<out>33</out>
						<pproTicksIn>42378336000</pproTicksIn>
						<pproTicksOut>349621272000</pproTicksOut>
						<alphatype>none</alphatype>
						<pixelaspectratio>square</pixelaspectratio>
						<anamorphic>FALSE</anamorphic>
						<file id="file-1533">
							<name>TKO_021_HIG_Sh15930.mov</name>
							<pathurl>file://tri-stor01/Projects/TKO/SHOTS/_Refs_Movs_Burnin_FrameCounter/TKO_021_HIG_Sh15930.mov</pathurl>
							<rate>
								<timebase>24</timebase>
								<ntsc>TRUE</ntsc>
							</rate>
							<duration>37</duration>
							<timecode>
								<rate>
									<timebase>24</timebase>
									<ntsc>TRUE</ntsc>
								</rate>
								<string>14:41:41:02</string>
								<frame>1269626</frame>
								<displayformat>NDF</displayformat>
								<reel>
									<name>B0260001</name>
								</reel>
							</timecode>
							<media>
								<video>
									<samplecharacteristics>
										<rate>
											<timebase>24</timebase>
											<ntsc>TRUE</ntsc>
										</rate>
										<width>4096</width>
										<height>2160</height>
										<anamorphic>FALSE</anamorphic>
										<pixelaspectratio>square</pixelaspectratio>
										<fielddominance>none</fielddominance>
									</samplecharacteristics>
								</video>
							</media>
						</file>
						<logginginfo>
							<description></description>
							<scene></scene>
							<shottake></shottake>
							<lognote></lognote>
							<good></good>
							<originalvideofilename></originalvideofilename>
							<originalaudiofilename></originalaudiofilename>
						</logginginfo>
						<colorinfo>
							<lut></lut>
							<lut1></lut1>
							<asc_sop></asc_sop>
							<asc_sat></asc_sat>
							<lut2></lut2>
						</colorinfo>
						<labels>
							<label2>Violet</label2>
						</labels>
					</clipitem>
					<clipitem id="clipitem-1537">
						<masterclipid>masterclip-1534</masterclipid>
						<name>TKO_021_HIG_Sh15940.mov</name>
						<enabled>TRUE</enabled>
						<duration>55</duration>
						<rate>
							<timebase>24</timebase>
							<ntsc>TRUE</ntsc>
						</rate>
						<start>107943</start>
						<end>107990</end>
						<in>4</in>
						<out>51</out>
						<pproTicksIn>42378336000</pproTicksIn>
						<pproTicksOut>540323784000</pproTicksOut>
						<alphatype>none</alphatype>
						<pixelaspectratio>square</pixelaspectratio>
						<anamorphic>FALSE</anamorphic>
						<file id="file-1534">
							<name>TKO_021_HIG_Sh15940.mov</name>
							<pathurl>file://tri-stor01/Projects/TKO/SHOTS/_Refs_Movs_Burnin_FrameCounter/TKO_021_HIG_Sh15940.mov</pathurl>
							<rate>
								<timebase>24</timebase>
								<ntsc>TRUE</ntsc>
							</rate>
							<duration>55</duration>
							<timecode>
								<rate>
									<timebase>24</timebase>
									<ntsc>TRUE</ntsc>
								</rate>
								<string>16:09:38:03</string>
								<frame>1396275</frame>
								<displayformat>NDF</displayformat>
								<reel>
									<name>A0300004</name>
								</reel>
							</timecode>
							<media>
								<video>
									<samplecharacteristics>
										<rate>
											<timebase>24</timebase>
											<ntsc>TRUE</ntsc>
										</rate>
										<width>4096</width>
										<height>2160</height>
										<anamorphic>FALSE</anamorphic>
										<pixelaspectratio>square</pixelaspectratio>
										<fielddominance>none</fielddominance>
									</samplecharacteristics>
								</video>
							</media>
						</file>
						<logginginfo>
							<description></description>
							<scene></scene>
							<shottake></shottake>
							<lognote></lognote>
							<good></good>
							<originalvideofilename></originalvideofilename>
							<originalaudiofilename></originalaudiofilename>
						</logginginfo>
						<colorinfo>
							<lut></lut>
							<lut1></lut1>
							<asc_sop></asc_sop>
							<asc_sat></asc_sat>
							<lut2></lut2>
						</colorinfo>
						<labels>
							<label2>Violet</label2>
						</labels>
					</clipitem>
					<clipitem id="clipitem-1538">
						<masterclipid>masterclip-1535</masterclipid>
						<name>TKO_021_HIG_Sh15950.mov</name>
						<enabled>TRUE</enabled>
						<duration>34</duration>
						<rate>
							<timebase>24</timebase>
							<ntsc>TRUE</ntsc>
						</rate>
						<start>107990</start>
						<end>108016</end>
						<in>4</in>
						<out>30</out>
						<pproTicksIn>42378336000</pproTicksIn>
						<pproTicksOut>317837520000</pproTicksOut>
						<alphatype>none</alphatype>
						<pixelaspectratio>square</pixelaspectratio>
						<anamorphic>FALSE</anamorphic>
						<file id="file-1535">
							<name>TKO_021_HIG_Sh15950.mov</name>
							<pathurl>file://tri-stor01/Projects/TKO/SHOTS/_Refs_Movs_Burnin_FrameCounter/TKO_021_HIG_Sh15950.mov</pathurl>
							<rate>
								<timebase>24</timebase>
								<ntsc>TRUE</ntsc>
							</rate>
							<duration>34</duration>
							<timecode>
								<rate>
									<timebase>24</timebase>
									<ntsc>TRUE</ntsc>
								</rate>
								<string>14:41:43:19</string>
								<frame>1269691</frame>
								<displayformat>NDF</displayformat>
								<reel>
									<name>B0260001</name>
								</reel>
							</timecode>
							<media>
								<video>
									<samplecharacteristics>
										<rate>
											<timebase>24</timebase>
											<ntsc>TRUE</ntsc>
										</rate>
										<width>4096</width>
										<height>2160</height>
										<anamorphic>FALSE</anamorphic>
										<pixelaspectratio>square</pixelaspectratio>
										<fielddominance>none</fielddominance>
									</samplecharacteristics>
								</video>
							</media>
						</file>
						<logginginfo>
							<description></description>
							<scene></scene>
							<shottake></shottake>
							<lognote></lognote>
							<good></good>
							<originalvideofilename></originalvideofilename>
							<originalaudiofilename></originalaudiofilename>
						</logginginfo>
						<colorinfo>
							<lut></lut>
							<lut1></lut1>
							<asc_sop></asc_sop>
							<asc_sat></asc_sat>
							<lut2></lut2>
						</colorinfo>
						<labels>
							<label2>Violet</label2>
						</labels>
					</clipitem>
					<clipitem id="clipitem-1539">
						<masterclipid>masterclip-1536</masterclipid>
						<name>TKO_021_HIG_Sh15960.mov</name>
						<enabled>TRUE</enabled>
						<duration>73</duration>
						<rate>
							<timebase>24</timebase>
							<ntsc>TRUE</ntsc>
						</rate>
						<start>108016</start>
						<end>108081</end>
						<in>4</in>
						<out>69</out>
						<pproTicksIn>42378336000</pproTicksIn>
						<pproTicksOut>731026296000</pproTicksOut>
						<alphatype>none</alphatype>
						<pixelaspectratio>square</pixelaspectratio>
						<anamorphic>FALSE</anamorphic>
						<file id="file-1536">
							<name>TKO_021_HIG_Sh15960.mov</name>
							<pathurl>file://tri-stor01/Projects/TKO/SHOTS/_Refs_Movs_Burnin_FrameCounter/TKO_021_HIG_Sh15960.mov</pathurl>
							<rate>
								<timebase>24</timebase>
								<ntsc>TRUE</ntsc>
							</rate>
							<duration>73</duration>
							<timecode>
								<rate>
									<timebase>24</timebase>
									<ntsc>TRUE</ntsc>
								</rate>
								<string>08:39:34:22</string>
								<frame>748198</frame>
								<displayformat>NDF</displayformat>
								<reel>
									<name>C0220003</name>
								</reel>
							</timecode>
							<media>
								<video>
									<samplecharacteristics>
										<rate>
											<timebase>24</timebase>
											<ntsc>TRUE</ntsc>
										</rate>
										<width>3840</width>
										<height>2160</height>
										<anamorphic>FALSE</anamorphic>
										<pixelaspectratio>square</pixelaspectratio>
										<fielddominance>none</fielddominance>
									</samplecharacteristics>
								</video>
							</media>
						</file>
						<logginginfo>
							<description></description>
							<scene></scene>
							<shottake></shottake>
							<lognote></lognote>
							<good></good>
							<originalvideofilename></originalvideofilename>
							<originalaudiofilename></originalaudiofilename>
						</logginginfo>
						<colorinfo>
							<lut></lut>
							<lut1></lut1>
							<asc_sop></asc_sop>
							<asc_sat></asc_sat>
							<lut2></lut2>
						</colorinfo>
						<labels>
							<label2>Violet</label2>
						</labels>
					</clipitem>
					<clipitem id="clipitem-1540">
						<masterclipid>masterclip-1537</masterclipid>
						<name>TKO_021_HIG_Sh15970.mov</name>
						<enabled>TRUE</enabled>
						<duration>45</duration>
						<rate>
							<timebase>24</timebase>
							<ntsc>TRUE</ntsc>
						</rate>
						<start>108081</start>
						<end>108118</end>
						<in>4</in>
						<out>41</out>
						<pproTicksIn>42378336000</pproTicksIn>
						<pproTicksOut>434377944000</pproTicksOut>
						<alphatype>none</alphatype>
						<pixelaspectratio>square</pixelaspectratio>
						<anamorphic>FALSE</anamorphic>
						<file id="file-1537">
							<name>TKO_021_HIG_Sh15970.mov</name>
							<pathurl>file://tri-stor01/Projects/TKO/SHOTS/_Refs_Movs_Burnin_FrameCounter/TKO_021_HIG_Sh15970.mov</pathurl>
							<rate>
								<timebase>24</timebase>
								<ntsc>TRUE</ntsc>
							</rate>
							<duration>45</duration>
							<timecode>
								<rate>
									<timebase>24</timebase>
									<ntsc>TRUE</ntsc>
								</rate>
								<string>08:49:12:15</string>
								<frame>762063</frame>
								<displayformat>NDF</displayformat>
								<reel>
									<name>C0220008</name>
								</reel>
							</timecode>
							<media>
								<video>
									<samplecharacteristics>
										<rate>
											<timebase>24</timebase>
											<ntsc>TRUE</ntsc>
										</rate>
										<width>3840</width>
										<height>2160</height>
										<anamorphic>FALSE</anamorphic>
										<pixelaspectratio>square</pixelaspectratio>
										<fielddominance>none</fielddominance>
									</samplecharacteristics>
								</video>
							</media>
						</file>
						<logginginfo>
							<description></description>
							<scene></scene>
							<shottake></shottake>
							<lognote></lognote>
							<good></good>
							<originalvideofilename></originalvideofilename>
							<originalaudiofilename></originalaudiofilename>
						</logginginfo>
						<colorinfo>
							<lut></lut>
							<lut1></lut1>
							<asc_sop></asc_sop>
							<asc_sat></asc_sat>
							<lut2></lut2>
						</colorinfo>
						<labels>
							<label2>Violet</label2>
						</labels>
					</clipitem>
					<clipitem id="clipitem-1541">
						<masterclipid>masterclip-1538</masterclipid>
						<name>TKO_021_HIG_Sh15980.mov</name>
						<enabled>TRUE</enabled>
						<duration>43</duration>
						<rate>
							<timebase>24</timebase>
							<ntsc>TRUE</ntsc>
						</rate>
						<start>108118</start>
						<end>108153</end>
						<in>4</in>
						<out>39</out>
						<pproTicksIn>42378336000</pproTicksIn>
						<pproTicksOut>413188776000</pproTicksOut>
						<alphatype>none</alphatype>
						<pixelaspectratio>square</pixelaspectratio>
						<anamorphic>FALSE</anamorphic>
						<file id="file-1538">
							<name>TKO_021_HIG_Sh15980.mov</name>
							<pathurl>file://tri-stor01/Projects/TKO/SHOTS/_Refs_Movs_Burnin_FrameCounter/TKO_021_HIG_Sh15980.mov</pathurl>
							<rate>
								<timebase>24</timebase>
								<ntsc>TRUE</ntsc>
							</rate>
							<duration>43</duration>
							<timecode>
								<rate>
									<timebase>24</timebase>
									<ntsc>TRUE</ntsc>
								</rate>
								<string>08:42:02:12</string>
								<frame>751740</frame>
								<displayformat>NDF</displayformat>
								<reel>
									<name>C0220005</name>
								</reel>
							</timecode>
							<media>
								<video>
									<samplecharacteristics>
										<rate>
											<timebase>24</timebase>
											<ntsc>TRUE</ntsc>
										</rate>
										<width>3840</width>
										<height>2160</height>
										<anamorphic>FALSE</anamorphic>
										<pixelaspectratio>square</pixelaspectratio>
										<fielddominance>none</fielddominance>
									</samplecharacteristics>
								</video>
							</media>
						</file>
						<logginginfo>
							<description></description>
							<scene></scene>
							<shottake></shottake>
							<lognote></lognote>
							<good></good>
							<originalvideofilename></originalvideofilename>
							<originalaudiofilename></originalaudiofilename>
						</logginginfo>
						<colorinfo>
							<lut></lut>
							<lut1></lut1>
							<asc_sop></asc_sop>
							<asc_sat></asc_sat>
							<lut2></lut2>
						</colorinfo>
						<labels>
							<label2>Violet</label2>
						</labels>
					</clipitem>
					<clipitem id="clipitem-1542">
						<masterclipid>masterclip-1539</masterclipid>
						<name>TKO_021_HIG_Sh15990.mov</name>
						<enabled>TRUE</enabled>
						<duration>33</duration>
						<rate>
							<timebase>24</timebase>
							<ntsc>TRUE</ntsc>
						</rate>
						<start>108153</start>
						<end>108178</end>
						<in>4</in>
						<out>29</out>
						<pproTicksIn>42378336000</pproTicksIn>
						<pproTicksOut>307242936000</pproTicksOut>
						<alphatype>none</alphatype>
						<pixelaspectratio>square</pixelaspectratio>
						<anamorphic>FALSE</anamorphic>
						<file id="file-1539">
							<name>TKO_021_HIG_Sh15990.mov</name>
							<pathurl>file://tri-stor01/Projects/TKO/SHOTS/_Refs_Movs_Burnin_FrameCounter/TKO_021_HIG_Sh15990.mov</pathurl>
							<rate>
								<timebase>24</timebase>
								<ntsc>TRUE</ntsc>
							</rate>
							<duration>33</duration>
							<timecode>
								<rate>
									<timebase>24</timebase>
									<ntsc>TRUE</ntsc>
								</rate>
								<string>17:16:20:13</string>
								<frame>1492333</frame>
								<displayformat>NDF</displayformat>
								<reel>
									<name>A0300009</name>
								</reel>
							</timecode>
							<media>
								<video>
									<samplecharacteristics>
										<rate>
											<timebase>24</timebase>
											<ntsc>TRUE</ntsc>
										</rate>
										<width>4096</width>
										<height>2160</height>
										<anamorphic>FALSE</anamorphic>
										<pixelaspectratio>square</pixelaspectratio>
										<fielddominance>none</fielddominance>
									</samplecharacteristics>
								</video>
							</media>
						</file>
						<logginginfo>
							<description></description>
							<scene></scene>
							<shottake></shottake>
							<lognote></lognote>
							<good></good>
							<originalvideofilename></originalvideofilename>
							<originalaudiofilename></originalaudiofilename>
						</logginginfo>
						<colorinfo>
							<lut></lut>
							<lut1></lut1>
							<asc_sop></asc_sop>
							<asc_sat></asc_sat>
							<lut2></lut2>
						</colorinfo>
						<labels>
							<label2>Violet</label2>
						</labels>
					</clipitem>
					<clipitem id="clipitem-1543">
						<masterclipid>masterclip-1540</masterclipid>
						<name>TKO_021_HIG_Sh16000.mov</name>
						<enabled>TRUE</enabled>
						<duration>39</duration>
						<rate>
							<timebase>24</timebase>
							<ntsc>TRUE</ntsc>
						</rate>
						<start>108178</start>
						<end>108209</end>
						<in>4</in>
						<out>35</out>
						<pproTicksIn>42378336000</pproTicksIn>
						<pproTicksOut>370810440000</pproTicksOut>
						<alphatype>none</alphatype>
						<pixelaspectratio>square</pixelaspectratio>
						<anamorphic>FALSE</anamorphic>
						<file id="file-1540">
							<name>TKO_021_HIG_Sh16000.mov</name>
							<pathurl>file://tri-stor01/Projects/TKO/SHOTS/_Refs_Movs_Burnin_FrameCounter/TKO_021_HIG_Sh16000.mov</pathurl>
							<rate>
								<timebase>24</timebase>
								<ntsc>TRUE</ntsc>
							</rate>
							<duration>39</duration>
							<timecode>
								<rate>
									<timebase>24</timebase>
									<ntsc>TRUE</ntsc>
								</rate>
								<string>16:50:24:16</string>
								<frame>1454992</frame>
								<displayformat>NDF</displayformat>
								<reel>
									<name>B0260007</name>
								</reel>
							</timecode>
							<media>
								<video>
									<samplecharacteristics>
										<rate>
											<timebase>24</timebase>
											<ntsc>TRUE</ntsc>
										</rate>
										<width>4096</width>
										<height>2160</height>
										<anamorphic>FALSE</anamorphic>
										<pixelaspectratio>square</pixelaspectratio>
										<fielddominance>none</fielddominance>
									</samplecharacteristics>
								</video>
							</media>
						</file>
						<logginginfo>
							<description></description>
							<scene></scene>
							<shottake></shottake>
							<lognote></lognote>
							<good></good>
							<originalvideofilename></originalvideofilename>
							<originalaudiofilename></originalaudiofilename>
						</logginginfo>
						<colorinfo>
							<lut></lut>
							<lut1></lut1>
							<asc_sop></asc_sop>
							<asc_sat></asc_sat>
							<lut2></lut2>
						</colorinfo>
						<labels>
							<label2>Violet</label2>
						</labels>
					</clipitem>
					<clipitem id="clipitem-1544">
						<masterclipid>masterclip-1541</masterclipid>
						<name>TKO_021_HIG_Sh16010.mov</name>
						<enabled>TRUE</enabled>
						<duration>32</duration>
						<rate>
							<timebase>24</timebase>
							<ntsc>TRUE</ntsc>
						</rate>
						<start>108209</start>
						<end>108233</end>
						<in>4</in>
						<out>28</out>
						<pproTicksIn>42378336000</pproTicksIn>
						<pproTicksOut>296648352000</pproTicksOut>
						<alphatype>none</alphatype>
						<pixelaspectratio>square</pixelaspectratio>
						<anamorphic>FALSE</anamorphic>
						<file id="file-1541">
							<name>TKO_021_HIG_Sh16010.mov</name>
							<pathurl>file://tri-stor01/Projects/TKO/SHOTS/_Refs_Movs_Burnin_FrameCounter/TKO_021_HIG_Sh16010.mov</pathurl>
							<rate>
								<timebase>24</timebase>
								<ntsc>TRUE</ntsc>
							</rate>
							<duration>32</duration>
							<timecode>
								<rate>
									<timebase>24</timebase>
									<ntsc>TRUE</ntsc>
								</rate>
								<string>13:03:23:09</string>
								<frame>1128081</frame>
								<displayformat>NDF</displayformat>
								<reel>
									<name>A0540012</name>
								</reel>
							</timecode>
							<media>
								<video>
									<samplecharacteristics>
										<rate>
											<timebase>24</timebase>
											<ntsc>TRUE</ntsc>
										</rate>
										<width>4096</width>
										<height>2160</height>
										<anamorphic>FALSE</anamorphic>
										<pixelaspectratio>square</pixelaspectratio>
										<fielddominance>none</fielddominance>
									</samplecharacteristics>
								</video>
							</media>
						</file>
						<logginginfo>
							<description></description>
							<scene></scene>
							<shottake></shottake>
							<lognote></lognote>
							<good></good>
							<originalvideofilename></originalvideofilename>
							<originalaudiofilename></originalaudiofilename>
						</logginginfo>
						<colorinfo>
							<lut></lut>
							<lut1></lut1>
							<asc_sop></asc_sop>
							<asc_sat></asc_sat>
							<lut2></lut2>
						</colorinfo>
						<labels>
							<label2>Violet</label2>
						</labels>
					</clipitem>
					<clipitem id="clipitem-1545">
						<masterclipid>masterclip-1542</masterclipid>
						<name>TKO_021_HIG_Sh16020.mov</name>
						<enabled>TRUE</enabled>
						<duration>34</duration>
						<rate>
							<timebase>24</timebase>
							<ntsc>TRUE</ntsc>
						</rate>
						<start>108233</start>
						<end>108259</end>
						<in>4</in>
						<out>30</out>
						<pproTicksIn>42378336000</pproTicksIn>
						<pproTicksOut>317837520000</pproTicksOut>
						<alphatype>none</alphatype>
						<pixelaspectratio>square</pixelaspectratio>
						<anamorphic>FALSE</anamorphic>
						<file id="file-1542">
							<name>TKO_021_HIG_Sh16020.mov</name>
							<pathurl>file://tri-stor01/Projects/TKO/SHOTS/_Refs_Movs_Burnin_FrameCounter/TKO_021_HIG_Sh16020.mov</pathurl>
							<rate>
								<timebase>24</timebase>
								<ntsc>TRUE</ntsc>
							</rate>
							<duration>34</duration>
							<timecode>
								<rate>
									<timebase>24</timebase>
									<ntsc>TRUE</ntsc>
								</rate>
								<string>16:50:27:02</string>
								<frame>1455050</frame>
								<displayformat>NDF</displayformat>
								<reel>
									<name>B0260007</name>
								</reel>
							</timecode>
							<media>
								<video>
									<samplecharacteristics>
										<rate>
											<timebase>24</timebase>
											<ntsc>TRUE</ntsc>
										</rate>
										<width>4096</width>
										<height>2160</height>
										<anamorphic>FALSE</anamorphic>
										<pixelaspectratio>square</pixelaspectratio>
										<fielddominance>none</fielddominance>
									</samplecharacteristics>
								</video>
							</media>
						</file>
						<logginginfo>
							<description></description>
							<scene></scene>
							<shottake></shottake>
							<lognote></lognote>
							<good></good>
							<originalvideofilename></originalvideofilename>
							<originalaudiofilename></originalaudiofilename>
						</logginginfo>
						<colorinfo>
							<lut></lut>
							<lut1></lut1>
							<asc_sop></asc_sop>
							<asc_sat></asc_sat>
							<lut2></lut2>
						</colorinfo>
						<labels>
							<label2>Violet</label2>
						</labels>
					</clipitem>
					<clipitem id="clipitem-1546">
						<masterclipid>masterclip-1543</masterclipid>
						<name>TKO_021_HIG_Sh16030.mov</name>
						<enabled>TRUE</enabled>
						<duration>28</duration>
						<rate>
							<timebase>24</timebase>
							<ntsc>TRUE</ntsc>
						</rate>
						<start>108259</start>
						<end>108279</end>
						<in>4</in>
						<out>24</out>
						<pproTicksIn>42378336000</pproTicksIn>
						<pproTicksOut>254270016000</pproTicksOut>
						<alphatype>none</alphatype>
						<pixelaspectratio>square</pixelaspectratio>
						<anamorphic>FALSE</anamorphic>
						<file id="file-1543">
							<name>TKO_021_HIG_Sh16030.mov</name>
							<pathurl>file://tri-stor01/Projects/TKO/SHOTS/_Refs_Movs_Burnin_FrameCounter/TKO_021_HIG_Sh16030.mov</pathurl>
							<rate>
								<timebase>24</timebase>
								<ntsc>TRUE</ntsc>
							</rate>
							<duration>28</duration>
							<timecode>
								<rate>
									<timebase>24</timebase>
									<ntsc>TRUE</ntsc>
								</rate>
								<string>08:42:08:08</string>
								<frame>751880</frame>
								<displayformat>NDF</displayformat>
								<reel>
									<name>C0220005</name>
								</reel>
							</timecode>
							<media>
								<video>
									<samplecharacteristics>
										<rate>
											<timebase>24</timebase>
											<ntsc>TRUE</ntsc>
										</rate>
										<width>3840</width>
										<height>2160</height>
										<anamorphic>FALSE</anamorphic>
										<pixelaspectratio>square</pixelaspectratio>
										<fielddominance>none</fielddominance>
									</samplecharacteristics>
								</video>
							</media>
						</file>
						<logginginfo>
							<description></description>
							<scene></scene>
							<shottake></shottake>
							<lognote></lognote>
							<good></good>
							<originalvideofilename></originalvideofilename>
							<originalaudiofilename></originalaudiofilename>
						</logginginfo>
						<colorinfo>
							<lut></lut>
							<lut1></lut1>
							<asc_sop></asc_sop>
							<asc_sat></asc_sat>
							<lut2></lut2>
						</colorinfo>
						<labels>
							<label2>Violet</label2>
						</labels>
					</clipitem>
					<clipitem id="clipitem-1547">
						<masterclipid>masterclip-1544</masterclipid>
						<name>TKO_021_HIG_Sh16040.mov</name>
						<enabled>TRUE</enabled>
						<duration>35</duration>
						<rate>
							<timebase>24</timebase>
							<ntsc>TRUE</ntsc>
						</rate>
						<start>108279</start>
						<end>108306</end>
						<in>4</in>
						<out>31</out>
						<pproTicksIn>42378336000</pproTicksIn>
						<pproTicksOut>328432104000</pproTicksOut>
						<alphatype>none</alphatype>
						<pixelaspectratio>square</pixelaspectratio>
						<anamorphic>FALSE</anamorphic>
						<file id="file-1544">
							<name>TKO_021_HIG_Sh16040.mov</name>
							<pathurl>file://tri-stor01/Projects/TKO/SHOTS/_Refs_Movs_Burnin_FrameCounter/TKO_021_HIG_Sh16040.mov</pathurl>
							<rate>
								<timebase>24</timebase>
								<ntsc>TRUE</ntsc>
							</rate>
							<duration>35</duration>
							<timecode>
								<rate>
									<timebase>24</timebase>
									<ntsc>TRUE</ntsc>
								</rate>
								<string>17:16:24:13</string>
								<frame>1492429</frame>
								<displayformat>NDF</displayformat>
								<reel>
									<name>A0300009</name>
								</reel>
							</timecode>
							<media>
								<video>
									<samplecharacteristics>
										<rate>
											<timebase>24</timebase>
											<ntsc>TRUE</ntsc>
										</rate>
										<width>4096</width>
										<height>2160</height>
										<anamorphic>FALSE</anamorphic>
										<pixelaspectratio>square</pixelaspectratio>
										<fielddominance>none</fielddominance>
									</samplecharacteristics>
								</video>
							</media>
						</file>
						<logginginfo>
							<description></description>
							<scene></scene>
							<shottake></shottake>
							<lognote></lognote>
							<good></good>
							<originalvideofilename></originalvideofilename>
							<originalaudiofilename></originalaudiofilename>
						</logginginfo>
						<colorinfo>
							<lut></lut>
							<lut1></lut1>
							<asc_sop></asc_sop>
							<asc_sat></asc_sat>
							<lut2></lut2>
						</colorinfo>
						<labels>
							<label2>Violet</label2>
						</labels>
					</clipitem>
					<clipitem id="clipitem-1548">
						<masterclipid>masterclip-1545</masterclipid>
						<name>TKO_021_HIG_Sh16050.mov</name>
						<enabled>TRUE</enabled>
						<duration>70</duration>
						<rate>
							<timebase>24</timebase>
							<ntsc>TRUE</ntsc>
						</rate>
						<start>108306</start>
						<end>108368</end>
						<in>4</in>
						<out>66</out>
						<pproTicksIn>42378336000</pproTicksIn>
						<pproTicksOut>699242544000</pproTicksOut>
						<alphatype>none</alphatype>
						<pixelaspectratio>square</pixelaspectratio>
						<anamorphic>FALSE</anamorphic>
						<file id="file-1545">
							<name>TKO_021_HIG_Sh16050.mov</name>
							<pathurl>file://tri-stor01/Projects/TKO/SHOTS/_Refs_Movs_Burnin_FrameCounter/TKO_021_HIG_Sh16050.mov</pathurl>
							<rate>
								<timebase>24</timebase>
								<ntsc>TRUE</ntsc>
							</rate>
							<duration>70</duration>
							<timecode>
								<rate>
									<timebase>24</timebase>
									<ntsc>TRUE</ntsc>
								</rate>
								<string>17:16:28:08</string>
								<frame>1492520</frame>
								<displayformat>NDF</displayformat>
								<reel>
									<name>B0260009</name>
								</reel>
							</timecode>
							<media>
								<video>
									<samplecharacteristics>
										<rate>
											<timebase>24</timebase>
											<ntsc>TRUE</ntsc>
										</rate>
										<width>4096</width>
										<height>2160</height>
										<anamorphic>FALSE</anamorphic>
										<pixelaspectratio>square</pixelaspectratio>
										<fielddominance>none</fielddominance>
									</samplecharacteristics>
								</video>
							</media>
						</file>
						<logginginfo>
							<description></description>
							<scene></scene>
							<shottake></shottake>
							<lognote></lognote>
							<good></good>
							<originalvideofilename></originalvideofilename>
							<originalaudiofilename></originalaudiofilename>
						</logginginfo>
						<colorinfo>
							<lut></lut>
							<lut1></lut1>
							<asc_sop></asc_sop>
							<asc_sat></asc_sat>
							<lut2></lut2>
						</colorinfo>
						<labels>
							<label2>Violet</label2>
						</labels>
					</clipitem>
					<clipitem id="clipitem-1549">
						<masterclipid>masterclip-1546</masterclipid>
						<name>TKO_021_HIG_Sh16060.mov</name>
						<enabled>TRUE</enabled>
						<duration>33</duration>
						<rate>
							<timebase>24</timebase>
							<ntsc>TRUE</ntsc>
						</rate>
						<start>108368</start>
						<end>108393</end>
						<in>4</in>
						<out>29</out>
						<pproTicksIn>42378336000</pproTicksIn>
						<pproTicksOut>307242936000</pproTicksOut>
						<alphatype>none</alphatype>
						<pixelaspectratio>square</pixelaspectratio>
						<anamorphic>FALSE</anamorphic>
						<file id="file-1546">
							<name>TKO_021_HIG_Sh16060.mov</name>
							<pathurl>file://tri-stor01/Projects/TKO/SHOTS/_Refs_Movs_Burnin_FrameCounter/TKO_021_HIG_Sh16060.mov</pathurl>
							<rate>
								<timebase>24</timebase>
								<ntsc>TRUE</ntsc>
							</rate>
							<duration>33</duration>
							<timecode>
								<rate>
									<timebase>24</timebase>
									<ntsc>TRUE</ntsc>
								</rate>
								<string>17:16:31:19</string>
								<frame>1492603</frame>
								<displayformat>NDF</displayformat>
								<reel>
									<name>A0300009</name>
								</reel>
							</timecode>
							<media>
								<video>
									<samplecharacteristics>
										<rate>
											<timebase>24</timebase>
											<ntsc>TRUE</ntsc>
										</rate>
										<width>4096</width>
										<height>2160</height>
										<anamorphic>FALSE</anamorphic>
										<pixelaspectratio>square</pixelaspectratio>
										<fielddominance>none</fielddominance>
									</samplecharacteristics>
								</video>
							</media>
						</file>
						<logginginfo>
							<description></description>
							<scene></scene>
							<shottake></shottake>
							<lognote></lognote>
							<good></good>
							<originalvideofilename></originalvideofilename>
							<originalaudiofilename></originalaudiofilename>
						</logginginfo>
						<colorinfo>
							<lut></lut>
							<lut1></lut1>
							<asc_sop></asc_sop>
							<asc_sat></asc_sat>
							<lut2></lut2>
						</colorinfo>
						<labels>
							<label2>Violet</label2>
						</labels>
					</clipitem>
					<clipitem id="clipitem-1550">
						<masterclipid>masterclip-1547</masterclipid>
						<name>TKO_021_HIG_Sh16070.mov</name>
						<enabled>TRUE</enabled>
						<duration>30</duration>
						<rate>
							<timebase>24</timebase>
							<ntsc>TRUE</ntsc>
						</rate>
						<start>108393</start>
						<end>108415</end>
						<in>4</in>
						<out>26</out>
						<pproTicksIn>42378336000</pproTicksIn>
						<pproTicksOut>275459184000</pproTicksOut>
						<alphatype>none</alphatype>
						<pixelaspectratio>square</pixelaspectratio>
						<anamorphic>FALSE</anamorphic>
						<file id="file-1547">
							<name>TKO_021_HIG_Sh16070.mov</name>
							<pathurl>file://tri-stor01/Projects/TKO/SHOTS/_Refs_Movs_Burnin_FrameCounter/TKO_021_HIG_Sh16070.mov</pathurl>
							<rate>
								<timebase>24</timebase>
								<ntsc>TRUE</ntsc>
							</rate>
							<duration>30</duration>
							<timecode>
								<rate>
									<timebase>24</timebase>
									<ntsc>TRUE</ntsc>
								</rate>
								<string>08:42:15:18</string>
								<frame>752058</frame>
								<displayformat>NDF</displayformat>
								<reel>
									<name>C0220005</name>
								</reel>
							</timecode>
							<media>
								<video>
									<samplecharacteristics>
										<rate>
											<timebase>24</timebase>
											<ntsc>TRUE</ntsc>
										</rate>
										<width>3840</width>
										<height>2160</height>
										<anamorphic>FALSE</anamorphic>
										<pixelaspectratio>square</pixelaspectratio>
										<fielddominance>none</fielddominance>
									</samplecharacteristics>
								</video>
							</media>
						</file>
						<logginginfo>
							<description></description>
							<scene></scene>
							<shottake></shottake>
							<lognote></lognote>
							<good></good>
							<originalvideofilename></originalvideofilename>
							<originalaudiofilename></originalaudiofilename>
						</logginginfo>
						<colorinfo>
							<lut></lut>
							<lut1></lut1>
							<asc_sop></asc_sop>
							<asc_sat></asc_sat>
							<lut2></lut2>
						</colorinfo>
						<labels>
							<label2>Violet</label2>
						</labels>
					</clipitem>
					<clipitem id="clipitem-1551">
						<masterclipid>masterclip-1548</masterclipid>
						<name>TKO_021_HIG_Sh16080.mov</name>
						<enabled>TRUE</enabled>
						<duration>70</duration>
						<rate>
							<timebase>24</timebase>
							<ntsc>TRUE</ntsc>
						</rate>
						<start>108415</start>
						<end>108477</end>
						<in>4</in>
						<out>66</out>
						<pproTicksIn>42378336000</pproTicksIn>
						<pproTicksOut>699242544000</pproTicksOut>
						<alphatype>none</alphatype>
						<pixelaspectratio>square</pixelaspectratio>
						<anamorphic>FALSE</anamorphic>
						<file id="file-1548">
							<name>TKO_021_HIG_Sh16080.mov</name>
							<pathurl>file://tri-stor01/Projects/TKO/SHOTS/_Refs_Movs_Burnin_FrameCounter/TKO_021_HIG_Sh16080.mov</pathurl>
							<rate>
								<timebase>24</timebase>
								<ntsc>TRUE</ntsc>
							</rate>
							<duration>70</duration>
							<timecode>
								<rate>
									<timebase>24</timebase>
									<ntsc>TRUE</ntsc>
								</rate>
								<string>08:49:26:14</string>
								<frame>762398</frame>
								<displayformat>NDF</displayformat>
								<reel>
									<name>C0220008</name>
								</reel>
							</timecode>
							<media>
								<video>
									<samplecharacteristics>
										<rate>
											<timebase>24</timebase>
											<ntsc>TRUE</ntsc>
										</rate>
										<width>3840</width>
										<height>2160</height>
										<anamorphic>FALSE</anamorphic>
										<pixelaspectratio>square</pixelaspectratio>
										<fielddominance>none</fielddominance>
									</samplecharacteristics>
								</video>
							</media>
						</file>
						<logginginfo>
							<description></description>
							<scene></scene>
							<shottake></shottake>
							<lognote></lognote>
							<good></good>
							<originalvideofilename></originalvideofilename>
							<originalaudiofilename></originalaudiofilename>
						</logginginfo>
						<colorinfo>
							<lut></lut>
							<lut1></lut1>
							<asc_sop></asc_sop>
							<asc_sat></asc_sat>
							<lut2></lut2>
						</colorinfo>
						<labels>
							<label2>Violet</label2>
						</labels>
					</clipitem>
					<clipitem id="clipitem-1552">
						<masterclipid>masterclip-1549</masterclipid>
						<name>TKO_021_HIG_Sh16090.mov</name>
						<enabled>TRUE</enabled>
						<duration>51</duration>
						<rate>
							<timebase>24</timebase>
							<ntsc>TRUE</ntsc>
						</rate>
						<start>108477</start>
						<end>108520</end>
						<in>4</in>
						<out>47</out>
						<pproTicksIn>42378336000</pproTicksIn>
						<pproTicksOut>497945448000</pproTicksOut>
						<alphatype>none</alphatype>
						<pixelaspectratio>square</pixelaspectratio>
						<anamorphic>FALSE</anamorphic>
						<file id="file-1549">
							<name>TKO_021_HIG_Sh16090.mov</name>
							<pathurl>file://tri-stor01/Projects/TKO/SHOTS/_Refs_Movs_Burnin_FrameCounter/TKO_021_HIG_Sh16090.mov</pathurl>
							<rate>
								<timebase>24</timebase>
								<ntsc>TRUE</ntsc>
							</rate>
							<duration>51</duration>
							<timecode>
								<rate>
									<timebase>24</timebase>
									<ntsc>TRUE</ntsc>
								</rate>
								<string>17:16:35:16</string>
								<frame>1492696</frame>
								<displayformat>NDF</displayformat>
								<reel>
									<name>A0300009</name>
								</reel>
							</timecode>
							<media>
								<video>
									<samplecharacteristics>
										<rate>
											<timebase>24</timebase>
											<ntsc>TRUE</ntsc>
										</rate>
										<width>4096</width>
										<height>2160</height>
										<anamorphic>FALSE</anamorphic>
										<pixelaspectratio>square</pixelaspectratio>
										<fielddominance>none</fielddominance>
									</samplecharacteristics>
								</video>
							</media>
						</file>
						<logginginfo>
							<description></description>
							<scene></scene>
							<shottake></shottake>
							<lognote></lognote>
							<good></good>
							<originalvideofilename></originalvideofilename>
							<originalaudiofilename></originalaudiofilename>
						</logginginfo>
						<colorinfo>
							<lut></lut>
							<lut1></lut1>
							<asc_sop></asc_sop>
							<asc_sat></asc_sat>
							<lut2></lut2>
						</colorinfo>
						<labels>
							<label2>Violet</label2>
						</labels>
					</clipitem>
					<clipitem id="clipitem-1553">
						<masterclipid>masterclip-1550</masterclipid>
						<name>TKO_021_HIG_Sh16100.mov</name>
						<enabled>TRUE</enabled>
						<duration>60</duration>
						<rate>
							<timebase>24</timebase>
							<ntsc>TRUE</ntsc>
						</rate>
						<start>108520</start>
						<end>108572</end>
						<in>4</in>
						<out>56</out>
						<pproTicksIn>42378336000</pproTicksIn>
						<pproTicksOut>593296704000</pproTicksOut>
						<alphatype>none</alphatype>
						<pixelaspectratio>square</pixelaspectratio>
						<anamorphic>FALSE</anamorphic>
						<file id="file-1550">
							<name>TKO_021_HIG_Sh16100.mov</name>
							<pathurl>file://tri-stor01/Projects/TKO/SHOTS/_Refs_Movs_Burnin_FrameCounter/TKO_021_HIG_Sh16100.mov</pathurl>
							<rate>
								<timebase>24</timebase>
								<ntsc>TRUE</ntsc>
							</rate>
							<duration>60</duration>
							<timecode>
								<rate>
									<timebase>24</timebase>
									<ntsc>TRUE</ntsc>
								</rate>
								<string>17:16:38:01</string>
								<frame>1492753</frame>
								<displayformat>NDF</displayformat>
								<reel>
									<name>B0260009</name>
								</reel>
							</timecode>
							<media>
								<video>
									<samplecharacteristics>
										<rate>
											<timebase>24</timebase>
											<ntsc>TRUE</ntsc>
										</rate>
										<width>4096</width>
										<height>2160</height>
										<anamorphic>FALSE</anamorphic>
										<pixelaspectratio>square</pixelaspectratio>
										<fielddominance>none</fielddominance>
									</samplecharacteristics>
								</video>
							</media>
						</file>
						<logginginfo>
							<description></description>
							<scene></scene>
							<shottake></shottake>
							<lognote></lognote>
							<good></good>
							<originalvideofilename></originalvideofilename>
							<originalaudiofilename></originalaudiofilename>
						</logginginfo>
						<colorinfo>
							<lut></lut>
							<lut1></lut1>
							<asc_sop></asc_sop>
							<asc_sat></asc_sat>
							<lut2></lut2>
						</colorinfo>
						<labels>
							<label2>Violet</label2>
						</labels>
					</clipitem>
					<clipitem id="clipitem-1554">
						<masterclipid>masterclip-1551</masterclipid>
						<name>TKO_021_HIG_Sh16110.mov</name>
						<enabled>TRUE</enabled>
						<duration>56</duration>
						<rate>
							<timebase>24</timebase>
							<ntsc>TRUE</ntsc>
						</rate>
						<start>108572</start>
						<end>108620</end>
						<in>4</in>
						<out>52</out>
						<pproTicksIn>42378336000</pproTicksIn>
						<pproTicksOut>550918368000</pproTicksOut>
						<alphatype>none</alphatype>
						<pixelaspectratio>square</pixelaspectratio>
						<anamorphic>FALSE</anamorphic>
						<file id="file-1551">
							<name>TKO_021_HIG_Sh16110.mov</name>
							<pathurl>file://tri-stor01/Projects/TKO/SHOTS/_Refs_Movs_Burnin_FrameCounter/TKO_021_HIG_Sh16110.mov</pathurl>
							<rate>
								<timebase>24</timebase>
								<ntsc>TRUE</ntsc>
							</rate>
							<duration>56</duration>
							<timecode>
								<rate>
									<timebase>24</timebase>
									<ntsc>TRUE</ntsc>
								</rate>
								<string>16:50:46:11</string>
								<frame>1455515</frame>
								<displayformat>NDF</displayformat>
								<reel>
									<name>B0260007</name>
								</reel>
							</timecode>
							<media>
								<video>
									<samplecharacteristics>
										<rate>
											<timebase>24</timebase>
											<ntsc>TRUE</ntsc>
										</rate>
										<width>4096</width>
										<height>2160</height>
										<anamorphic>FALSE</anamorphic>
										<pixelaspectratio>square</pixelaspectratio>
										<fielddominance>none</fielddominance>
									</samplecharacteristics>
								</video>
							</media>
						</file>
						<logginginfo>
							<description></description>
							<scene></scene>
							<shottake></shottake>
							<lognote></lognote>
							<good></good>
							<originalvideofilename></originalvideofilename>
							<originalaudiofilename></originalaudiofilename>
						</logginginfo>
						<colorinfo>
							<lut></lut>
							<lut1></lut1>
							<asc_sop></asc_sop>
							<asc_sat></asc_sat>
							<lut2></lut2>
						</colorinfo>
						<labels>
							<label2>Violet</label2>
						</labels>
					</clipitem>
					<clipitem id="clipitem-1555">
						<masterclipid>masterclip-1552</masterclipid>
						<name>TKO_021_HIG_Sh16120.mov</name>
						<enabled>TRUE</enabled>
						<duration>43</duration>
						<rate>
							<timebase>24</timebase>
							<ntsc>TRUE</ntsc>
						</rate>
						<start>108620</start>
						<end>108655</end>
						<in>4</in>
						<out>39</out>
						<pproTicksIn>42378336000</pproTicksIn>
						<pproTicksOut>413188776000</pproTicksOut>
						<alphatype>none</alphatype>
						<pixelaspectratio>square</pixelaspectratio>
						<anamorphic>FALSE</anamorphic>
						<file id="file-1552">
							<name>TKO_021_HIG_Sh16120.mov</name>
							<pathurl>file://tri-stor01/Projects/TKO/SHOTS/_Refs_Movs_Burnin_FrameCounter/TKO_021_HIG_Sh16120.mov</pathurl>
							<rate>
								<timebase>24</timebase>
								<ntsc>TRUE</ntsc>
							</rate>
							<duration>43</duration>
							<timecode>
								<rate>
									<timebase>24</timebase>
									<ntsc>TRUE</ntsc>
								</rate>
								<string>08:46:50:08</string>
								<frame>758648</frame>
								<displayformat>NDF</displayformat>
								<reel>
									<name>C0220007</name>
								</reel>
							</timecode>
							<media>
								<video>
									<samplecharacteristics>
										<rate>
											<timebase>24</timebase>
											<ntsc>TRUE</ntsc>
										</rate>
										<width>3840</width>
										<height>2160</height>
										<anamorphic>FALSE</anamorphic>
										<pixelaspectratio>square</pixelaspectratio>
										<fielddominance>none</fielddominance>
									</samplecharacteristics>
								</video>
							</media>
						</file>
						<logginginfo>
							<description></description>
							<scene></scene>
							<shottake></shottake>
							<lognote></lognote>
							<good></good>
							<originalvideofilename></originalvideofilename>
							<originalaudiofilename></originalaudiofilename>
						</logginginfo>
						<colorinfo>
							<lut></lut>
							<lut1></lut1>
							<asc_sop></asc_sop>
							<asc_sat></asc_sat>
							<lut2></lut2>
						</colorinfo>
						<labels>
							<label2>Violet</label2>
						</labels>
					</clipitem>
					<clipitem id="clipitem-1556">
						<masterclipid>masterclip-1553</masterclipid>
						<name>TKO_021_HIG_Sh16130.mov</name>
						<enabled>TRUE</enabled>
						<duration>47</duration>
						<rate>
							<timebase>24</timebase>
							<ntsc>TRUE</ntsc>
						</rate>
						<start>108655</start>
						<end>108694</end>
						<in>4</in>
						<out>43</out>
						<pproTicksIn>42378336000</pproTicksIn>
						<pproTicksOut>455567112000</pproTicksOut>
						<alphatype>none</alphatype>
						<pixelaspectratio>square</pixelaspectratio>
						<anamorphic>FALSE</anamorphic>
						<file id="file-1553">
							<name>TKO_021_HIG_Sh16130.mov</name>
							<pathurl>file://tri-stor01/Projects/TKO/SHOTS/_Refs_Movs_Burnin_FrameCounter/TKO_021_HIG_Sh16130.mov</pathurl>
							<rate>
								<timebase>24</timebase>
								<ntsc>TRUE</ntsc>
							</rate>
							<duration>47</duration>
							<timecode>
								<rate>
									<timebase>24</timebase>
									<ntsc>TRUE</ntsc>
								</rate>
								<string>08:42:27:00</string>
								<frame>752328</frame>
								<displayformat>NDF</displayformat>
								<reel>
									<name>C0220005</name>
								</reel>
							</timecode>
							<media>
								<video>
									<samplecharacteristics>
										<rate>
											<timebase>24</timebase>
											<ntsc>TRUE</ntsc>
										</rate>
										<width>3840</width>
										<height>2160</height>
										<anamorphic>FALSE</anamorphic>
										<pixelaspectratio>square</pixelaspectratio>
										<fielddominance>none</fielddominance>
									</samplecharacteristics>
								</video>
							</media>
						</file>
						<logginginfo>
							<description></description>
							<scene></scene>
							<shottake></shottake>
							<lognote></lognote>
							<good></good>
							<originalvideofilename></originalvideofilename>
							<originalaudiofilename></originalaudiofilename>
						</logginginfo>
						<colorinfo>
							<lut></lut>
							<lut1></lut1>
							<asc_sop></asc_sop>
							<asc_sat></asc_sat>
							<lut2></lut2>
						</colorinfo>
						<labels>
							<label2>Violet</label2>
						</labels>
					</clipitem>
					<clipitem id="clipitem-1557">
						<masterclipid>masterclip-1554</masterclipid>
						<name>TKO_021_HIG_Sh16140.mov</name>
						<enabled>TRUE</enabled>
						<duration>60</duration>
						<rate>
							<timebase>24</timebase>
							<ntsc>TRUE</ntsc>
						</rate>
						<start>108694</start>
						<end>108746</end>
						<in>4</in>
						<out>56</out>
						<pproTicksIn>42378336000</pproTicksIn>
						<pproTicksOut>593296704000</pproTicksOut>
						<alphatype>none</alphatype>
						<pixelaspectratio>square</pixelaspectratio>
						<anamorphic>FALSE</anamorphic>
						<file id="file-1554">
							<name>TKO_021_HIG_Sh16140.mov</name>
							<pathurl>file://tri-stor01/Projects/TKO/SHOTS/_Refs_Movs_Burnin_FrameCounter/TKO_021_HIG_Sh16140.mov</pathurl>
							<rate>
								<timebase>24</timebase>
								<ntsc>TRUE</ntsc>
							</rate>
							<duration>60</duration>
							<timecode>
								<rate>
									<timebase>24</timebase>
									<ntsc>TRUE</ntsc>
								</rate>
								<string>17:22:15:22</string>
								<frame>1500862</frame>
								<displayformat>NDF</displayformat>
								<reel>
									<name>A0300010</name>
								</reel>
							</timecode>
							<media>
								<video>
									<samplecharacteristics>
										<rate>
											<timebase>24</timebase>
											<ntsc>TRUE</ntsc>
										</rate>
										<width>4096</width>
										<height>2160</height>
										<anamorphic>FALSE</anamorphic>
										<pixelaspectratio>square</pixelaspectratio>
										<fielddominance>none</fielddominance>
									</samplecharacteristics>
								</video>
							</media>
						</file>
						<logginginfo>
							<description></description>
							<scene></scene>
							<shottake></shottake>
							<lognote></lognote>
							<good></good>
							<originalvideofilename></originalvideofilename>
							<originalaudiofilename></originalaudiofilename>
						</logginginfo>
						<colorinfo>
							<lut></lut>
							<lut1></lut1>
							<asc_sop></asc_sop>
							<asc_sat></asc_sat>
							<lut2></lut2>
						</colorinfo>
						<labels>
							<label2>Violet</label2>
						</labels>
					</clipitem>
					<clipitem id="clipitem-1558">
						<masterclipid>masterclip-1555</masterclipid>
						<name>TKO_021_HIG_Sh16150.mov</name>
						<enabled>TRUE</enabled>
						<duration>32</duration>
						<rate>
							<timebase>24</timebase>
							<ntsc>TRUE</ntsc>
						</rate>
						<start>108746</start>
						<end>108770</end>
						<in>4</in>
						<out>28</out>
						<pproTicksIn>42378336000</pproTicksIn>
						<pproTicksOut>296648352000</pproTicksOut>
						<alphatype>none</alphatype>
						<pixelaspectratio>square</pixelaspectratio>
						<anamorphic>FALSE</anamorphic>
						<file id="file-1555">
							<name>TKO_021_HIG_Sh16150.mov</name>
							<pathurl>file://tri-stor01/Projects/TKO/SHOTS/_Refs_Movs_Burnin_FrameCounter/TKO_021_HIG_Sh16150.mov</pathurl>
							<rate>
								<timebase>24</timebase>
								<ntsc>TRUE</ntsc>
							</rate>
							<duration>32</duration>
							<timecode>
								<rate>
									<timebase>24</timebase>
									<ntsc>TRUE</ntsc>
								</rate>
								<string>08:42:28:21</string>
								<frame>752373</frame>
								<displayformat>NDF</displayformat>
								<reel>
									<name>C0220005</name>
								</reel>
							</timecode>
							<media>
								<video>
									<samplecharacteristics>
										<rate>
											<timebase>24</timebase>
											<ntsc>TRUE</ntsc>
										</rate>
										<width>3840</width>
										<height>2160</height>
										<anamorphic>FALSE</anamorphic>
										<pixelaspectratio>square</pixelaspectratio>
										<fielddominance>none</fielddominance>
									</samplecharacteristics>
								</video>
							</media>
						</file>
						<logginginfo>
							<description></description>
							<scene></scene>
							<shottake></shottake>
							<lognote></lognote>
							<good></good>
							<originalvideofilename></originalvideofilename>
							<originalaudiofilename></originalaudiofilename>
						</logginginfo>
						<colorinfo>
							<lut></lut>
							<lut1></lut1>
							<asc_sop></asc_sop>
							<asc_sat></asc_sat>
							<lut2></lut2>
						</colorinfo>
						<labels>
							<label2>Violet</label2>
						</labels>
					</clipitem>
					<clipitem id="clipitem-1559">
						<masterclipid>masterclip-1556</masterclipid>
						<name>TKO_021_HIG_Sh16160.mov</name>
						<enabled>TRUE</enabled>
						<duration>49</duration>
						<rate>
							<timebase>24</timebase>
							<ntsc>TRUE</ntsc>
						</rate>
						<start>108770</start>
						<end>108811</end>
						<in>4</in>
						<out>45</out>
						<pproTicksIn>42378336000</pproTicksIn>
						<pproTicksOut>476756280000</pproTicksOut>
						<alphatype>none</alphatype>
						<pixelaspectratio>square</pixelaspectratio>
						<anamorphic>FALSE</anamorphic>
						<file id="file-1556">
							<name>TKO_021_HIG_Sh16160.mov</name>
							<pathurl>file://tri-stor01/Projects/TKO/SHOTS/_Refs_Movs_Burnin_FrameCounter/TKO_021_HIG_Sh16160.mov</pathurl>
							<rate>
								<timebase>24</timebase>
								<ntsc>TRUE</ntsc>
							</rate>
							<duration>49</duration>
							<timecode>
								<rate>
									<timebase>24</timebase>
									<ntsc>TRUE</ntsc>
								</rate>
								<string>16:18:47:20</string>
								<frame>1409468</frame>
								<displayformat>NDF</displayformat>
								<reel>
									<name>A0300005</name>
								</reel>
							</timecode>
							<media>
								<video>
									<samplecharacteristics>
										<rate>
											<timebase>24</timebase>
											<ntsc>TRUE</ntsc>
										</rate>
										<width>4096</width>
										<height>2160</height>
										<anamorphic>FALSE</anamorphic>
										<pixelaspectratio>square</pixelaspectratio>
										<fielddominance>none</fielddominance>
									</samplecharacteristics>
								</video>
							</media>
						</file>
						<logginginfo>
							<description></description>
							<scene></scene>
							<shottake></shottake>
							<lognote></lognote>
							<good></good>
							<originalvideofilename></originalvideofilename>
							<originalaudiofilename></originalaudiofilename>
						</logginginfo>
						<colorinfo>
							<lut></lut>
							<lut1></lut1>
							<asc_sop></asc_sop>
							<asc_sat></asc_sat>
							<lut2></lut2>
						</colorinfo>
						<labels>
							<label2>Violet</label2>
						</labels>
					</clipitem>
					<clipitem id="clipitem-1560">
						<masterclipid>masterclip-1557</masterclipid>
						<name>TKO_021_HIG_Sh16170.mov</name>
						<enabled>TRUE</enabled>
						<duration>54</duration>
						<rate>
							<timebase>24</timebase>
							<ntsc>TRUE</ntsc>
						</rate>
						<start>108811</start>
						<end>108857</end>
						<in>4</in>
						<out>50</out>
						<pproTicksIn>42378336000</pproTicksIn>
						<pproTicksOut>529729200000</pproTicksOut>
						<alphatype>none</alphatype>
						<pixelaspectratio>square</pixelaspectratio>
						<anamorphic>FALSE</anamorphic>
						<file id="file-1557">
							<name>TKO_021_HIG_Sh16170.mov</name>
							<pathurl>file://tri-stor01/Projects/TKO/SHOTS/_Refs_Movs_Burnin_FrameCounter/TKO_021_HIG_Sh16170.mov</pathurl>
							<rate>
								<timebase>24</timebase>
								<ntsc>TRUE</ntsc>
							</rate>
							<duration>54</duration>
							<timecode>
								<rate>
									<timebase>24</timebase>
									<ntsc>TRUE</ntsc>
								</rate>
								<string>08:46:54:21</string>
								<frame>758757</frame>
								<displayformat>NDF</displayformat>
								<reel>
									<name>C0220007</name>
								</reel>
							</timecode>
							<media>
								<video>
									<samplecharacteristics>
										<rate>
											<timebase>24</timebase>
											<ntsc>TRUE</ntsc>
										</rate>
										<width>3840</width>
										<height>2160</height>
										<anamorphic>FALSE</anamorphic>
										<pixelaspectratio>square</pixelaspectratio>
										<fielddominance>none</fielddominance>
									</samplecharacteristics>
								</video>
							</media>
						</file>
						<logginginfo>
							<description></description>
							<scene></scene>
							<shottake></shottake>
							<lognote></lognote>
							<good></good>
							<originalvideofilename></originalvideofilename>
							<originalaudiofilename></originalaudiofilename>
						</logginginfo>
						<colorinfo>
							<lut></lut>
							<lut1></lut1>
							<asc_sop></asc_sop>
							<asc_sat></asc_sat>
							<lut2></lut2>
						</colorinfo>
						<labels>
							<label2>Violet</label2>
						</labels>
					</clipitem>
					<clipitem id="clipitem-1561">
						<masterclipid>masterclip-1558</masterclipid>
						<name>TKO_021_HIG_Sh16180.mov</name>
						<enabled>TRUE</enabled>
						<duration>46</duration>
						<rate>
							<timebase>24</timebase>
							<ntsc>TRUE</ntsc>
						</rate>
						<start>108857</start>
						<end>108895</end>
						<in>4</in>
						<out>42</out>
						<pproTicksIn>42378336000</pproTicksIn>
						<pproTicksOut>444972528000</pproTicksOut>
						<alphatype>none</alphatype>
						<pixelaspectratio>square</pixelaspectratio>
						<anamorphic>FALSE</anamorphic>
						<file id="file-1558">
							<name>TKO_021_HIG_Sh16180.mov</name>
							<pathurl>file://tri-stor01/Projects/TKO/SHOTS/_Refs_Movs_Burnin_FrameCounter/TKO_021_HIG_Sh16180.mov</pathurl>
							<rate>
								<timebase>24</timebase>
								<ntsc>TRUE</ntsc>
							</rate>
							<duration>46</duration>
							<timecode>
								<rate>
									<timebase>24</timebase>
									<ntsc>TRUE</ntsc>
								</rate>
								<string>13:03:50:14</string>
								<frame>1128734</frame>
								<displayformat>NDF</displayformat>
								<reel>
									<name>A0540012</name>
								</reel>
							</timecode>
							<media>
								<video>
									<samplecharacteristics>
										<rate>
											<timebase>24</timebase>
											<ntsc>TRUE</ntsc>
										</rate>
										<width>4096</width>
										<height>2160</height>
										<anamorphic>FALSE</anamorphic>
										<pixelaspectratio>square</pixelaspectratio>
										<fielddominance>none</fielddominance>
									</samplecharacteristics>
								</video>
							</media>
						</file>
						<logginginfo>
							<description></description>
							<scene></scene>
							<shottake></shottake>
							<lognote></lognote>
							<good></good>
							<originalvideofilename></originalvideofilename>
							<originalaudiofilename></originalaudiofilename>
						</logginginfo>
						<colorinfo>
							<lut></lut>
							<lut1></lut1>
							<asc_sop></asc_sop>
							<asc_sat></asc_sat>
							<lut2></lut2>
						</colorinfo>
						<labels>
							<label2>Violet</label2>
						</labels>
					</clipitem>
					<clipitem id="clipitem-1562">
						<masterclipid>masterclip-1559</masterclipid>
						<name>TKO_021_HIG_Sh16190.mov</name>
						<enabled>TRUE</enabled>
						<duration>34</duration>
						<rate>
							<timebase>24</timebase>
							<ntsc>TRUE</ntsc>
						</rate>
						<start>108895</start>
						<end>108921</end>
						<in>4</in>
						<out>30</out>
						<pproTicksIn>42378336000</pproTicksIn>
						<pproTicksOut>317837520000</pproTicksOut>
						<alphatype>none</alphatype>
						<pixelaspectratio>square</pixelaspectratio>
						<anamorphic>FALSE</anamorphic>
						<file id="file-1559">
							<name>TKO_021_HIG_Sh16190.mov</name>
							<pathurl>file://tri-stor01/Projects/TKO/SHOTS/_Refs_Movs_Burnin_FrameCounter/TKO_021_HIG_Sh16190.mov</pathurl>
							<rate>
								<timebase>24</timebase>
								<ntsc>TRUE</ntsc>
							</rate>
							<duration>34</duration>
							<timecode>
								<rate>
									<timebase>24</timebase>
									<ntsc>TRUE</ntsc>
								</rate>
								<string>16:51:04:12</string>
								<frame>1455948</frame>
								<displayformat>NDF</displayformat>
								<reel>
									<name>B0260007</name>
								</reel>
							</timecode>
							<media>
								<video>
									<samplecharacteristics>
										<rate>
											<timebase>24</timebase>
											<ntsc>TRUE</ntsc>
										</rate>
										<width>4096</width>
										<height>2160</height>
										<anamorphic>FALSE</anamorphic>
										<pixelaspectratio>square</pixelaspectratio>
										<fielddominance>none</fielddominance>
									</samplecharacteristics>
								</video>
							</media>
						</file>
						<logginginfo>
							<description></description>
							<scene></scene>
							<shottake></shottake>
							<lognote></lognote>
							<good></good>
							<originalvideofilename></originalvideofilename>
							<originalaudiofilename></originalaudiofilename>
						</logginginfo>
						<colorinfo>
							<lut></lut>
							<lut1></lut1>
							<asc_sop></asc_sop>
							<asc_sat></asc_sat>
							<lut2></lut2>
						</colorinfo>
						<labels>
							<label2>Violet</label2>
						</labels>
					</clipitem>
					<clipitem id="clipitem-1563">
						<masterclipid>masterclip-1560</masterclipid>
						<name>TKO_021_HIG_Sh16200.mov</name>
						<enabled>TRUE</enabled>
						<duration>36</duration>
						<rate>
							<timebase>24</timebase>
							<ntsc>TRUE</ntsc>
						</rate>
						<start>108921</start>
						<end>108949</end>
						<in>4</in>
						<out>32</out>
						<pproTicksIn>42378336000</pproTicksIn>
						<pproTicksOut>339026688000</pproTicksOut>
						<alphatype>none</alphatype>
						<pixelaspectratio>square</pixelaspectratio>
						<anamorphic>FALSE</anamorphic>
						<file id="file-1560">
							<name>TKO_021_HIG_Sh16200.mov</name>
							<pathurl>file://tri-stor01/Projects/TKO/SHOTS/_Refs_Movs_Burnin_FrameCounter/TKO_021_HIG_Sh16200.mov</pathurl>
							<rate>
								<timebase>24</timebase>
								<ntsc>TRUE</ntsc>
							</rate>
							<duration>36</duration>
							<timecode>
								<rate>
									<timebase>24</timebase>
									<ntsc>TRUE</ntsc>
								</rate>
								<string>18:23:07:23</string>
								<frame>1588511</frame>
								<displayformat>NDF</displayformat>
								<reel>
									<name>A0320002</name>
								</reel>
							</timecode>
							<media>
								<video>
									<samplecharacteristics>
										<rate>
											<timebase>24</timebase>
											<ntsc>TRUE</ntsc>
										</rate>
										<width>3840</width>
										<height>2160</height>
										<anamorphic>FALSE</anamorphic>
										<pixelaspectratio>square</pixelaspectratio>
										<fielddominance>none</fielddominance>
									</samplecharacteristics>
								</video>
							</media>
						</file>
						<logginginfo>
							<description></description>
							<scene></scene>
							<shottake></shottake>
							<lognote></lognote>
							<good></good>
							<originalvideofilename></originalvideofilename>
							<originalaudiofilename></originalaudiofilename>
						</logginginfo>
						<colorinfo>
							<lut></lut>
							<lut1></lut1>
							<asc_sop></asc_sop>
							<asc_sat></asc_sat>
							<lut2></lut2>
						</colorinfo>
						<labels>
							<label2>Violet</label2>
						</labels>
					</clipitem>
					<clipitem id="clipitem-1564">
						<masterclipid>masterclip-1561</masterclipid>
						<name>TKO_021_HIG_Sh16210.mov</name>
						<enabled>TRUE</enabled>
						<duration>50</duration>
						<rate>
							<timebase>24</timebase>
							<ntsc>TRUE</ntsc>
						</rate>
						<start>108949</start>
						<end>108991</end>
						<in>4</in>
						<out>46</out>
						<pproTicksIn>42378336000</pproTicksIn>
						<pproTicksOut>487350864000</pproTicksOut>
						<alphatype>none</alphatype>
						<pixelaspectratio>square</pixelaspectratio>
						<anamorphic>FALSE</anamorphic>
						<file id="file-1561">
							<name>TKO_021_HIG_Sh16210.mov</name>
							<pathurl>file://tri-stor01/Projects/TKO/SHOTS/_Refs_Movs_Burnin_FrameCounter/TKO_021_HIG_Sh16210.mov</pathurl>
							<rate>
								<timebase>24</timebase>
								<ntsc>TRUE</ntsc>
							</rate>
							<duration>50</duration>
							<timecode>
								<rate>
									<timebase>24</timebase>
									<ntsc>TRUE</ntsc>
								</rate>
								<string>18:19:39:18</string>
								<frame>1583514</frame>
								<displayformat>NDF</displayformat>
								<reel>
									<name>B0260017</name>
								</reel>
							</timecode>
							<media>
								<video>
									<samplecharacteristics>
										<rate>
											<timebase>24</timebase>
											<ntsc>TRUE</ntsc>
										</rate>
										<width>3840</width>
										<height>2160</height>
										<anamorphic>FALSE</anamorphic>
										<pixelaspectratio>square</pixelaspectratio>
										<fielddominance>none</fielddominance>
									</samplecharacteristics>
								</video>
							</media>
						</file>
						<logginginfo>
							<description></description>
							<scene></scene>
							<shottake></shottake>
							<lognote></lognote>
							<good></good>
							<originalvideofilename></originalvideofilename>
							<originalaudiofilename></originalaudiofilename>
						</logginginfo>
						<colorinfo>
							<lut></lut>
							<lut1></lut1>
							<asc_sop></asc_sop>
							<asc_sat></asc_sat>
							<lut2></lut2>
						</colorinfo>
						<labels>
							<label2>Violet</label2>
						</labels>
					</clipitem>
					<clipitem id="clipitem-1565">
						<masterclipid>masterclip-1562</masterclipid>
						<name>TKO_021_HIG_Sh16220.mov</name>
						<enabled>TRUE</enabled>
						<duration>52</duration>
						<rate>
							<timebase>24</timebase>
							<ntsc>TRUE</ntsc>
						</rate>
						<start>108991</start>
						<end>109035</end>
						<in>4</in>
						<out>48</out>
						<pproTicksIn>42378336000</pproTicksIn>
						<pproTicksOut>508540032000</pproTicksOut>
						<alphatype>none</alphatype>
						<pixelaspectratio>square</pixelaspectratio>
						<anamorphic>FALSE</anamorphic>
						<file id="file-1562">
							<name>TKO_021_HIG_Sh16220.mov</name>
							<pathurl>file://tri-stor01/Projects/TKO/SHOTS/_Refs_Movs_Burnin_FrameCounter/TKO_021_HIG_Sh16220.mov</pathurl>
							<rate>
								<timebase>24</timebase>
								<ntsc>TRUE</ntsc>
							</rate>
							<duration>52</duration>
							<timecode>
								<rate>
									<timebase>24</timebase>
									<ntsc>TRUE</ntsc>
								</rate>
								<string>18:16:23:03</string>
								<frame>1578795</frame>
								<displayformat>NDF</displayformat>
								<reel>
									<name>B0260016</name>
								</reel>
							</timecode>
							<media>
								<video>
									<samplecharacteristics>
										<rate>
											<timebase>24</timebase>
											<ntsc>TRUE</ntsc>
										</rate>
										<width>3840</width>
										<height>2160</height>
										<anamorphic>FALSE</anamorphic>
										<pixelaspectratio>square</pixelaspectratio>
										<fielddominance>none</fielddominance>
									</samplecharacteristics>
								</video>
							</media>
						</file>
						<logginginfo>
							<description></description>
							<scene></scene>
							<shottake></shottake>
							<lognote></lognote>
							<good></good>
							<originalvideofilename></originalvideofilename>
							<originalaudiofilename></originalaudiofilename>
						</logginginfo>
						<colorinfo>
							<lut></lut>
							<lut1></lut1>
							<asc_sop></asc_sop>
							<asc_sat></asc_sat>
							<lut2></lut2>
						</colorinfo>
						<labels>
							<label2>Violet</label2>
						</labels>
					</clipitem>
					<clipitem id="clipitem-1566">
						<masterclipid>masterclip-1563</masterclipid>
						<name>TKO_021_HIG_Sh16230.mov</name>
						<enabled>TRUE</enabled>
						<duration>33</duration>
						<rate>
							<timebase>24</timebase>
							<ntsc>TRUE</ntsc>
						</rate>
						<start>109035</start>
						<end>109060</end>
						<in>4</in>
						<out>29</out>
						<pproTicksIn>42378336000</pproTicksIn>
						<pproTicksOut>307242936000</pproTicksOut>
						<alphatype>none</alphatype>
						<pixelaspectratio>square</pixelaspectratio>
						<anamorphic>FALSE</anamorphic>
						<file id="file-1563">
							<name>TKO_021_HIG_Sh16230.mov</name>
							<pathurl>file://tri-stor01/Projects/TKO/SHOTS/_Refs_Movs_Burnin_FrameCounter/TKO_021_HIG_Sh16230.mov</pathurl>
							<rate>
								<timebase>24</timebase>
								<ntsc>TRUE</ntsc>
							</rate>
							<duration>33</duration>
							<timecode>
								<rate>
									<timebase>24</timebase>
									<ntsc>TRUE</ntsc>
								</rate>
								<string>18:23:12:12</string>
								<frame>1588620</frame>
								<displayformat>NDF</displayformat>
								<reel>
									<name>A0320002</name>
								</reel>
							</timecode>
							<media>
								<video>
									<samplecharacteristics>
										<rate>
											<timebase>24</timebase>
											<ntsc>TRUE</ntsc>
										</rate>
										<width>3840</width>
										<height>2160</height>
										<anamorphic>FALSE</anamorphic>
										<pixelaspectratio>square</pixelaspectratio>
										<fielddominance>none</fielddominance>
									</samplecharacteristics>
								</video>
							</media>
						</file>
						<logginginfo>
							<description></description>
							<scene></scene>
							<shottake></shottake>
							<lognote></lognote>
							<good></good>
							<originalvideofilename></originalvideofilename>
							<originalaudiofilename></originalaudiofilename>
						</logginginfo>
						<colorinfo>
							<lut></lut>
							<lut1></lut1>
							<asc_sop></asc_sop>
							<asc_sat></asc_sat>
							<lut2></lut2>
						</colorinfo>
						<labels>
							<label2>Violet</label2>
						</labels>
					</clipitem>
					<clipitem id="clipitem-1567">
						<masterclipid>masterclip-1564</masterclipid>
						<name>TKO_021_HIG_Sh16240.mov</name>
						<enabled>TRUE</enabled>
						<duration>22</duration>
						<rate>
							<timebase>24</timebase>
							<ntsc>TRUE</ntsc>
						</rate>
						<start>109060</start>
						<end>109074</end>
						<in>4</in>
						<out>18</out>
						<pproTicksIn>42378336000</pproTicksIn>
						<pproTicksOut>190702512000</pproTicksOut>
						<alphatype>none</alphatype>
						<pixelaspectratio>square</pixelaspectratio>
						<anamorphic>FALSE</anamorphic>
						<file id="file-1564">
							<name>TKO_021_HIG_Sh16240.mov</name>
							<pathurl>file://tri-stor01/Projects/TKO/SHOTS/_Refs_Movs_Burnin_FrameCounter/TKO_021_HIG_Sh16240.mov</pathurl>
							<rate>
								<timebase>24</timebase>
								<ntsc>TRUE</ntsc>
							</rate>
							<duration>22</duration>
							<timecode>
								<rate>
									<timebase>24</timebase>
									<ntsc>TRUE</ntsc>
								</rate>
								<string>09:20:50:21</string>
								<frame>807621</frame>
								<displayformat>NDF</displayformat>
								<reel>
									<name>C0220014</name>
								</reel>
							</timecode>
							<media>
								<video>
									<samplecharacteristics>
										<rate>
											<timebase>24</timebase>
											<ntsc>TRUE</ntsc>
										</rate>
										<width>3840</width>
										<height>2160</height>
										<anamorphic>FALSE</anamorphic>
										<pixelaspectratio>square</pixelaspectratio>
										<fielddominance>none</fielddominance>
									</samplecharacteristics>
								</video>
							</media>
						</file>
						<logginginfo>
							<description></description>
							<scene></scene>
							<shottake></shottake>
							<lognote></lognote>
							<good></good>
							<originalvideofilename></originalvideofilename>
							<originalaudiofilename></originalaudiofilename>
						</logginginfo>
						<colorinfo>
							<lut></lut>
							<lut1></lut1>
							<asc_sop></asc_sop>
							<asc_sat></asc_sat>
							<lut2></lut2>
						</colorinfo>
						<labels>
							<label2>Violet</label2>
						</labels>
					</clipitem>
					<clipitem id="clipitem-1568">
						<masterclipid>masterclip-1565</masterclipid>
						<name>TKO_021_HIG_Sh16250.mov</name>
						<enabled>TRUE</enabled>
						<duration>30</duration>
						<rate>
							<timebase>24</timebase>
							<ntsc>TRUE</ntsc>
						</rate>
						<start>109074</start>
						<end>109096</end>
						<in>4</in>
						<out>26</out>
						<pproTicksIn>42378336000</pproTicksIn>
						<pproTicksOut>275459184000</pproTicksOut>
						<alphatype>none</alphatype>
						<pixelaspectratio>square</pixelaspectratio>
						<anamorphic>FALSE</anamorphic>
						<file id="file-1565">
							<name>TKO_021_HIG_Sh16250.mov</name>
							<pathurl>file://tri-stor01/Projects/TKO/SHOTS/_Refs_Movs_Burnin_FrameCounter/TKO_021_HIG_Sh16250.mov</pathurl>
							<rate>
								<timebase>24</timebase>
								<ntsc>TRUE</ntsc>
							</rate>
							<duration>30</duration>
							<timecode>
								<rate>
									<timebase>24</timebase>
									<ntsc>TRUE</ntsc>
								</rate>
								<string>18:19:44:23</string>
								<frame>1583639</frame>
								<displayformat>NDF</displayformat>
								<reel>
									<name>B0260017</name>
								</reel>
							</timecode>
							<media>
								<video>
									<samplecharacteristics>
										<rate>
											<timebase>24</timebase>
											<ntsc>TRUE</ntsc>
										</rate>
										<width>3840</width>
										<height>2160</height>
										<anamorphic>FALSE</anamorphic>
										<pixelaspectratio>square</pixelaspectratio>
										<fielddominance>none</fielddominance>
									</samplecharacteristics>
								</video>
							</media>
						</file>
						<logginginfo>
							<description></description>
							<scene></scene>
							<shottake></shottake>
							<lognote></lognote>
							<good></good>
							<originalvideofilename></originalvideofilename>
							<originalaudiofilename></originalaudiofilename>
						</logginginfo>
						<colorinfo>
							<lut></lut>
							<lut1></lut1>
							<asc_sop></asc_sop>
							<asc_sat></asc_sat>
							<lut2></lut2>
						</colorinfo>
						<labels>
							<label2>Violet</label2>
						</labels>
					</clipitem>
					<clipitem id="clipitem-1569">
						<masterclipid>masterclip-1566</masterclipid>
						<name>TKO_021_HIG_Sh16260.mov</name>
						<enabled>TRUE</enabled>
						<duration>37</duration>
						<rate>
							<timebase>24</timebase>
							<ntsc>TRUE</ntsc>
						</rate>
						<start>109096</start>
						<end>109125</end>
						<in>4</in>
						<out>33</out>
						<pproTicksIn>42378336000</pproTicksIn>
						<pproTicksOut>349621272000</pproTicksOut>
						<alphatype>none</alphatype>
						<pixelaspectratio>square</pixelaspectratio>
						<anamorphic>FALSE</anamorphic>
						<file id="file-1566">
							<name>TKO_021_HIG_Sh16260.mov</name>
							<pathurl>file://tri-stor01/Projects/TKO/SHOTS/_Refs_Movs_Burnin_FrameCounter/TKO_021_HIG_Sh16260.mov</pathurl>
							<rate>
								<timebase>24</timebase>
								<ntsc>TRUE</ntsc>
							</rate>
							<duration>37</duration>
							<timecode>
								<rate>
									<timebase>24</timebase>
									<ntsc>TRUE</ntsc>
								</rate>
								<string>09:20:52:09</string>
								<frame>807657</frame>
								<displayformat>NDF</displayformat>
								<reel>
									<name>C0220014</name>
								</reel>
							</timecode>
							<media>
								<video>
									<samplecharacteristics>
										<rate>
											<timebase>24</timebase>
											<ntsc>TRUE</ntsc>
										</rate>
										<width>3840</width>
										<height>2160</height>
										<anamorphic>FALSE</anamorphic>
										<pixelaspectratio>square</pixelaspectratio>
										<fielddominance>none</fielddominance>
									</samplecharacteristics>
								</video>
							</media>
						</file>
						<logginginfo>
							<description></description>
							<scene></scene>
							<shottake></shottake>
							<lognote></lognote>
							<good></good>
							<originalvideofilename></originalvideofilename>
							<originalaudiofilename></originalaudiofilename>
						</logginginfo>
						<colorinfo>
							<lut></lut>
							<lut1></lut1>
							<asc_sop></asc_sop>
							<asc_sat></asc_sat>
							<lut2></lut2>
						</colorinfo>
						<labels>
							<label2>Violet</label2>
						</labels>
					</clipitem>
					<clipitem id="clipitem-1570">
						<masterclipid>masterclip-1567</masterclipid>
						<name>TKO_021_HIG_Sh16270.mov</name>
						<enabled>TRUE</enabled>
						<duration>39</duration>
						<rate>
							<timebase>24</timebase>
							<ntsc>TRUE</ntsc>
						</rate>
						<start>109125</start>
						<end>109156</end>
						<in>4</in>
						<out>35</out>
						<pproTicksIn>42378336000</pproTicksIn>
						<pproTicksOut>370810440000</pproTicksOut>
						<alphatype>none</alphatype>
						<pixelaspectratio>square</pixelaspectratio>
						<anamorphic>FALSE</anamorphic>
						<file id="file-1567">
							<name>TKO_021_HIG_Sh16270.mov</name>
							<pathurl>file://tri-stor01/Projects/TKO/SHOTS/_Refs_Movs_Burnin_FrameCounter/TKO_021_HIG_Sh16270.mov</pathurl>
							<rate>
								<timebase>24</timebase>
								<ntsc>TRUE</ntsc>
							</rate>
							<duration>39</duration>
							<timecode>
								<rate>
									<timebase>24</timebase>
									<ntsc>TRUE</ntsc>
								</rate>
								<string>20:27:10:19</string>
								<frame>1767139</frame>
								<displayformat>NDF</displayformat>
								<reel>
									<name>B0260024</name>
								</reel>
							</timecode>
							<media>
								<video>
									<samplecharacteristics>
										<rate>
											<timebase>24</timebase>
											<ntsc>TRUE</ntsc>
										</rate>
										<width>4096</width>
										<height>2160</height>
										<anamorphic>FALSE</anamorphic>
										<pixelaspectratio>square</pixelaspectratio>
										<fielddominance>none</fielddominance>
									</samplecharacteristics>
								</video>
							</media>
						</file>
						<logginginfo>
							<description></description>
							<scene></scene>
							<shottake></shottake>
							<lognote></lognote>
							<good></good>
							<originalvideofilename></originalvideofilename>
							<originalaudiofilename></originalaudiofilename>
						</logginginfo>
						<colorinfo>
							<lut></lut>
							<lut1></lut1>
							<asc_sop></asc_sop>
							<asc_sat></asc_sat>
							<lut2></lut2>
						</colorinfo>
						<labels>
							<label2>Violet</label2>
						</labels>
					</clipitem>
					<clipitem id="clipitem-1571">
						<masterclipid>masterclip-1568</masterclipid>
						<name>TKO_021_HIG_Sh16280.mov</name>
						<enabled>TRUE</enabled>
						<duration>34</duration>
						<rate>
							<timebase>24</timebase>
							<ntsc>TRUE</ntsc>
						</rate>
						<start>109156</start>
						<end>109182</end>
						<in>4</in>
						<out>30</out>
						<pproTicksIn>42378336000</pproTicksIn>
						<pproTicksOut>317837520000</pproTicksOut>
						<alphatype>none</alphatype>
						<pixelaspectratio>square</pixelaspectratio>
						<anamorphic>FALSE</anamorphic>
						<file id="file-1568">
							<name>TKO_021_HIG_Sh16280.mov</name>
							<pathurl>file://tri-stor01/Projects/TKO/SHOTS/_Refs_Movs_Burnin_FrameCounter/TKO_021_HIG_Sh16280.mov</pathurl>
							<rate>
								<timebase>24</timebase>
								<ntsc>TRUE</ntsc>
							</rate>
							<duration>34</duration>
							<timecode>
								<rate>
									<timebase>24</timebase>
									<ntsc>TRUE</ntsc>
								</rate>
								<string>19:50:41:23</string>
								<frame>1714607</frame>
								<displayformat>NDF</displayformat>
								<reel>
									<name>B0430005</name>
								</reel>
							</timecode>
							<media>
								<video>
									<samplecharacteristics>
										<rate>
											<timebase>24</timebase>
											<ntsc>TRUE</ntsc>
										</rate>
										<width>3840</width>
										<height>2160</height>
										<anamorphic>FALSE</anamorphic>
										<pixelaspectratio>square</pixelaspectratio>
										<fielddominance>none</fielddominance>
									</samplecharacteristics>
								</video>
							</media>
						</file>
						<logginginfo>
							<description></description>
							<scene></scene>
							<shottake></shottake>
							<lognote></lognote>
							<good></good>
							<originalvideofilename></originalvideofilename>
							<originalaudiofilename></originalaudiofilename>
						</logginginfo>
						<colorinfo>
							<lut></lut>
							<lut1></lut1>
							<asc_sop></asc_sop>
							<asc_sat></asc_sat>
							<lut2></lut2>
						</colorinfo>
						<labels>
							<label2>Violet</label2>
						</labels>
					</clipitem>
					<clipitem id="clipitem-1572">
						<masterclipid>masterclip-1569</masterclipid>
						<name>TKO_021_HIG_Sh16290.mov</name>
						<enabled>TRUE</enabled>
						<duration>40</duration>
						<rate>
							<timebase>24</timebase>
							<ntsc>TRUE</ntsc>
						</rate>
						<start>109182</start>
						<end>109214</end>
						<in>4</in>
						<out>36</out>
						<pproTicksIn>42378336000</pproTicksIn>
						<pproTicksOut>381405024000</pproTicksOut>
						<alphatype>none</alphatype>
						<pixelaspectratio>square</pixelaspectratio>
						<anamorphic>FALSE</anamorphic>
						<file id="file-1569">
							<name>TKO_021_HIG_Sh16290.mov</name>
							<pathurl>file://tri-stor01/Projects/TKO/SHOTS/_Refs_Movs_Burnin_FrameCounter/TKO_021_HIG_Sh16290.mov</pathurl>
							<rate>
								<timebase>24</timebase>
								<ntsc>TRUE</ntsc>
							</rate>
							<duration>40</duration>
							<timecode>
								<rate>
									<timebase>24</timebase>
									<ntsc>TRUE</ntsc>
								</rate>
								<string>19:51:07:19</string>
								<frame>1715227</frame>
								<displayformat>NDF</displayformat>
								<reel>
									<name>A0500005</name>
								</reel>
							</timecode>
							<media>
								<video>
									<samplecharacteristics>
										<rate>
											<timebase>24</timebase>
											<ntsc>TRUE</ntsc>
										</rate>
										<width>3840</width>
										<height>2160</height>
										<anamorphic>FALSE</anamorphic>
										<pixelaspectratio>square</pixelaspectratio>
										<fielddominance>none</fielddominance>
									</samplecharacteristics>
								</video>
							</media>
						</file>
						<logginginfo>
							<description></description>
							<scene></scene>
							<shottake></shottake>
							<lognote></lognote>
							<good></good>
							<originalvideofilename></originalvideofilename>
							<originalaudiofilename></originalaudiofilename>
						</logginginfo>
						<colorinfo>
							<lut></lut>
							<lut1></lut1>
							<asc_sop></asc_sop>
							<asc_sat></asc_sat>
							<lut2></lut2>
						</colorinfo>
						<labels>
							<label2>Violet</label2>
						</labels>
					</clipitem>
					<clipitem id="clipitem-1573">
						<masterclipid>masterclip-1570</masterclipid>
						<name>TKO_021_HIG_Sh16300.mov</name>
						<enabled>TRUE</enabled>
						<duration>30</duration>
						<rate>
							<timebase>24</timebase>
							<ntsc>TRUE</ntsc>
						</rate>
						<start>109214</start>
						<end>109236</end>
						<in>4</in>
						<out>26</out>
						<pproTicksIn>42378336000</pproTicksIn>
						<pproTicksOut>275459184000</pproTicksOut>
						<alphatype>none</alphatype>
						<pixelaspectratio>square</pixelaspectratio>
						<anamorphic>FALSE</anamorphic>
						<file id="file-1570">
							<name>TKO_021_HIG_Sh16300.mov</name>
							<pathurl>file://tri-stor01/Projects/TKO/SHOTS/_Refs_Movs_Burnin_FrameCounter/TKO_021_HIG_Sh16300.mov</pathurl>
							<rate>
								<timebase>24</timebase>
								<ntsc>TRUE</ntsc>
							</rate>
							<duration>30</duration>
							<timecode>
								<rate>
									<timebase>24</timebase>
									<ntsc>TRUE</ntsc>
								</rate>
								<string>09:34:34:17</string>
								<frame>827393</frame>
								<displayformat>NDF</displayformat>
								<reel>
									<name>C0220021</name>
								</reel>
							</timecode>
							<media>
								<video>
									<samplecharacteristics>
										<rate>
											<timebase>24</timebase>
											<ntsc>TRUE</ntsc>
										</rate>
										<width>3840</width>
										<height>2160</height>
										<anamorphic>FALSE</anamorphic>
										<pixelaspectratio>square</pixelaspectratio>
										<fielddominance>none</fielddominance>
									</samplecharacteristics>
								</video>
							</media>
						</file>
						<logginginfo>
							<description></description>
							<scene></scene>
							<shottake></shottake>
							<lognote></lognote>
							<good></good>
							<originalvideofilename></originalvideofilename>
							<originalaudiofilename></originalaudiofilename>
						</logginginfo>
						<colorinfo>
							<lut></lut>
							<lut1></lut1>
							<asc_sop></asc_sop>
							<asc_sat></asc_sat>
							<lut2></lut2>
						</colorinfo>
						<labels>
							<label2>Violet</label2>
						</labels>
					</clipitem>
					<clipitem id="clipitem-1574">
						<masterclipid>masterclip-1571</masterclipid>
						<name>TKO_021_HIG_Sh16310.mov</name>
						<enabled>TRUE</enabled>
						<duration>35</duration>
						<rate>
							<timebase>24</timebase>
							<ntsc>TRUE</ntsc>
						</rate>
						<start>109236</start>
						<end>109263</end>
						<in>4</in>
						<out>31</out>
						<pproTicksIn>42378336000</pproTicksIn>
						<pproTicksOut>328432104000</pproTicksOut>
						<alphatype>none</alphatype>
						<pixelaspectratio>square</pixelaspectratio>
						<anamorphic>FALSE</anamorphic>
						<file id="file-1571">
							<name>TKO_021_HIG_Sh16310.mov</name>
							<pathurl>file://tri-stor01/Projects/TKO/SHOTS/_Refs_Movs_Burnin_FrameCounter/TKO_021_HIG_Sh16310.mov</pathurl>
							<rate>
								<timebase>24</timebase>
								<ntsc>TRUE</ntsc>
							</rate>
							<duration>35</duration>
							<timecode>
								<rate>
									<timebase>24</timebase>
									<ntsc>TRUE</ntsc>
								</rate>
								<string>09:10:41:12</string>
								<frame>792996</frame>
								<displayformat>NDF</displayformat>
								<reel>
									<name>C0220012</name>
								</reel>
							</timecode>
							<media>
								<video>
									<samplecharacteristics>
										<rate>
											<timebase>24</timebase>
											<ntsc>TRUE</ntsc>
										</rate>
										<width>3840</width>
										<height>2160</height>
										<anamorphic>FALSE</anamorphic>
										<pixelaspectratio>square</pixelaspectratio>
										<fielddominance>none</fielddominance>
									</samplecharacteristics>
								</video>
							</media>
						</file>
						<logginginfo>
							<description></description>
							<scene></scene>
							<shottake></shottake>
							<lognote></lognote>
							<good></good>
							<originalvideofilename></originalvideofilename>
							<originalaudiofilename></originalaudiofilename>
						</logginginfo>
						<colorinfo>
							<lut></lut>
							<lut1></lut1>
							<asc_sop></asc_sop>
							<asc_sat></asc_sat>
							<lut2></lut2>
						</colorinfo>
						<labels>
							<label2>Violet</label2>
						</labels>
					</clipitem>
					<clipitem id="clipitem-1575">
						<masterclipid>masterclip-1572</masterclipid>
						<name>TKO_021_HIG_Sh16320.mov</name>
						<enabled>TRUE</enabled>
						<duration>58</duration>
						<rate>
							<timebase>24</timebase>
							<ntsc>TRUE</ntsc>
						</rate>
						<start>109263</start>
						<end>109313</end>
						<in>4</in>
						<out>54</out>
						<pproTicksIn>42378336000</pproTicksIn>
						<pproTicksOut>572107536000</pproTicksOut>
						<alphatype>none</alphatype>
						<pixelaspectratio>square</pixelaspectratio>
						<anamorphic>FALSE</anamorphic>
						<file id="file-1572">
							<name>TKO_021_HIG_Sh16320.mov</name>
							<pathurl>file://tri-stor01/Projects/TKO/SHOTS/_Refs_Movs_Burnin_FrameCounter/TKO_021_HIG_Sh16320.mov</pathurl>
							<rate>
								<timebase>24</timebase>
								<ntsc>TRUE</ntsc>
							</rate>
							<duration>58</duration>
							<timecode>
								<rate>
									<timebase>24</timebase>
									<ntsc>TRUE</ntsc>
								</rate>
								<string>18:13:32:05</string>
								<frame>1574693</frame>
								<displayformat>NDF</displayformat>
								<reel>
									<name>B0260015</name>
								</reel>
							</timecode>
							<media>
								<video>
									<samplecharacteristics>
										<rate>
											<timebase>24</timebase>
											<ntsc>TRUE</ntsc>
										</rate>
										<width>3840</width>
										<height>2160</height>
										<anamorphic>FALSE</anamorphic>
										<pixelaspectratio>square</pixelaspectratio>
										<fielddominance>none</fielddominance>
									</samplecharacteristics>
								</video>
							</media>
						</file>
						<logginginfo>
							<description></description>
							<scene></scene>
							<shottake></shottake>
							<lognote></lognote>
							<good></good>
							<originalvideofilename></originalvideofilename>
							<originalaudiofilename></originalaudiofilename>
						</logginginfo>
						<colorinfo>
							<lut></lut>
							<lut1></lut1>
							<asc_sop></asc_sop>
							<asc_sat></asc_sat>
							<lut2></lut2>
						</colorinfo>
						<labels>
							<label2>Violet</label2>
						</labels>
					</clipitem>
					<clipitem id="clipitem-1576">
						<masterclipid>masterclip-1573</masterclipid>
						<name>TKO_021_HIG_Sh16330.mov</name>
						<enabled>TRUE</enabled>
						<duration>46</duration>
						<rate>
							<timebase>24</timebase>
							<ntsc>TRUE</ntsc>
						</rate>
						<start>109313</start>
						<end>109351</end>
						<in>4</in>
						<out>42</out>
						<pproTicksIn>42378336000</pproTicksIn>
						<pproTicksOut>444972528000</pproTicksOut>
						<alphatype>none</alphatype>
						<pixelaspectratio>square</pixelaspectratio>
						<anamorphic>FALSE</anamorphic>
						<file id="file-1573">
							<name>TKO_021_HIG_Sh16330.mov</name>
							<pathurl>file://tri-stor01/Projects/TKO/SHOTS/_Refs_Movs_Burnin_FrameCounter/TKO_021_HIG_Sh16330.mov</pathurl>
							<rate>
								<timebase>24</timebase>
								<ntsc>TRUE</ntsc>
							</rate>
							<duration>46</duration>
							<timecode>
								<rate>
									<timebase>24</timebase>
									<ntsc>TRUE</ntsc>
								</rate>
								<string>18:15:56:02</string>
								<frame>1578146</frame>
								<displayformat>NDF</displayformat>
								<reel>
									<name>A0310003</name>
								</reel>
							</timecode>
							<media>
								<video>
									<samplecharacteristics>
										<rate>
											<timebase>24</timebase>
											<ntsc>TRUE</ntsc>
										</rate>
										<width>3840</width>
										<height>2160</height>
										<anamorphic>FALSE</anamorphic>
										<pixelaspectratio>square</pixelaspectratio>
										<fielddominance>none</fielddominance>
									</samplecharacteristics>
								</video>
							</media>
						</file>
						<logginginfo>
							<description></description>
							<scene></scene>
							<shottake></shottake>
							<lognote></lognote>
							<good></good>
							<originalvideofilename></originalvideofilename>
							<originalaudiofilename></originalaudiofilename>
						</logginginfo>
						<colorinfo>
							<lut></lut>
							<lut1></lut1>
							<asc_sop></asc_sop>
							<asc_sat></asc_sat>
							<lut2></lut2>
						</colorinfo>
						<labels>
							<label2>Violet</label2>
						</labels>
					</clipitem>
					<clipitem id="clipitem-1577">
						<masterclipid>masterclip-1574</masterclipid>
						<name>TKO_021_HIG_Sh16340.mov</name>
						<enabled>TRUE</enabled>
						<duration>31</duration>
						<rate>
							<timebase>24</timebase>
							<ntsc>TRUE</ntsc>
						</rate>
						<start>109351</start>
						<end>109374</end>
						<in>4</in>
						<out>27</out>
						<pproTicksIn>42378336000</pproTicksIn>
						<pproTicksOut>286053768000</pproTicksOut>
						<alphatype>none</alphatype>
						<pixelaspectratio>square</pixelaspectratio>
						<anamorphic>FALSE</anamorphic>
						<file id="file-1574">
							<name>TKO_021_HIG_Sh16340.mov</name>
							<pathurl>file://tri-stor01/Projects/TKO/SHOTS/_Refs_Movs_Burnin_FrameCounter/TKO_021_HIG_Sh16340.mov</pathurl>
							<rate>
								<timebase>24</timebase>
								<ntsc>TRUE</ntsc>
							</rate>
							<duration>31</duration>
							<timecode>
								<rate>
									<timebase>24</timebase>
									<ntsc>TRUE</ntsc>
								</rate>
								<string>18:13:44:21</string>
								<frame>1574997</frame>
								<displayformat>NDF</displayformat>
								<reel>
									<name>B0260015</name>
								</reel>
							</timecode>
							<media>
								<video>
									<samplecharacteristics>
										<rate>
											<timebase>24</timebase>
											<ntsc>TRUE</ntsc>
										</rate>
										<width>3840</width>
										<height>2160</height>
										<anamorphic>FALSE</anamorphic>
										<pixelaspectratio>square</pixelaspectratio>
										<fielddominance>none</fielddominance>
									</samplecharacteristics>
								</video>
							</media>
						</file>
						<logginginfo>
							<description></description>
							<scene></scene>
							<shottake></shottake>
							<lognote></lognote>
							<good></good>
							<originalvideofilename></originalvideofilename>
							<originalaudiofilename></originalaudiofilename>
						</logginginfo>
						<colorinfo>
							<lut></lut>
							<lut1></lut1>
							<asc_sop></asc_sop>
							<asc_sat></asc_sat>
							<lut2></lut2>
						</colorinfo>
						<labels>
							<label2>Violet</label2>
						</labels>
					</clipitem>
					<clipitem id="clipitem-1578">
						<masterclipid>masterclip-1575</masterclipid>
						<name>TKO_021_HIG_Sh16350.mov</name>
						<enabled>TRUE</enabled>
						<duration>96</duration>
						<rate>
							<timebase>24</timebase>
							<ntsc>TRUE</ntsc>
						</rate>
						<start>109374</start>
						<end>109462</end>
						<in>4</in>
						<out>92</out>
						<pproTicksIn>42378336000</pproTicksIn>
						<pproTicksOut>974701728000</pproTicksOut>
						<alphatype>none</alphatype>
						<pixelaspectratio>square</pixelaspectratio>
						<anamorphic>FALSE</anamorphic>
						<file id="file-1575">
							<name>TKO_021_HIG_Sh16350.mov</name>
							<pathurl>file://tri-stor01/Projects/TKO/SHOTS/_Refs_Movs_Burnin_FrameCounter/TKO_021_HIG_Sh16350.mov</pathurl>
							<rate>
								<timebase>24</timebase>
								<ntsc>TRUE</ntsc>
							</rate>
							<duration>96</duration>
							<timecode>
								<rate>
									<timebase>24</timebase>
									<ntsc>TRUE</ntsc>
								</rate>
								<string>18:23:34:23</string>
								<frame>1589159</frame>
								<displayformat>NDF</displayformat>
								<reel>
									<name>A0320002</name>
								</reel>
							</timecode>
							<media>
								<video>
									<samplecharacteristics>
										<rate>
											<timebase>24</timebase>
											<ntsc>TRUE</ntsc>
										</rate>
										<width>3840</width>
										<height>2160</height>
										<anamorphic>FALSE</anamorphic>
										<pixelaspectratio>square</pixelaspectratio>
										<fielddominance>none</fielddominance>
									</samplecharacteristics>
								</video>
							</media>
						</file>
						<logginginfo>
							<description></description>
							<scene></scene>
							<shottake></shottake>
							<lognote></lognote>
							<good></good>
							<originalvideofilename></originalvideofilename>
							<originalaudiofilename></originalaudiofilename>
						</logginginfo>
						<colorinfo>
							<lut></lut>
							<lut1></lut1>
							<asc_sop></asc_sop>
							<asc_sat></asc_sat>
							<lut2></lut2>
						</colorinfo>
						<labels>
							<label2>Violet</label2>
						</labels>
					</clipitem>
					<clipitem id="clipitem-1579">
						<masterclipid>masterclip-1576</masterclipid>
						<name>TKO_021_HIG_Sh16360.mov</name>
						<enabled>TRUE</enabled>
						<duration>44</duration>
						<rate>
							<timebase>24</timebase>
							<ntsc>TRUE</ntsc>
						</rate>
						<start>109462</start>
						<end>109498</end>
						<in>4</in>
						<out>40</out>
						<pproTicksIn>42378336000</pproTicksIn>
						<pproTicksOut>423783360000</pproTicksOut>
						<alphatype>none</alphatype>
						<pixelaspectratio>square</pixelaspectratio>
						<anamorphic>FALSE</anamorphic>
						<file id="file-1576">
							<name>TKO_021_HIG_Sh16360.mov</name>
							<pathurl>file://tri-stor01/Projects/TKO/SHOTS/_Refs_Movs_Burnin_FrameCounter/TKO_021_HIG_Sh16360.mov</pathurl>
							<rate>
								<timebase>24</timebase>
								<ntsc>TRUE</ntsc>
							</rate>
							<duration>44</duration>
							<timecode>
								<rate>
									<timebase>24</timebase>
									<ntsc>TRUE</ntsc>
								</rate>
								<string>09:11:01:03</string>
								<frame>793467</frame>
								<displayformat>NDF</displayformat>
								<reel>
									<name>C0220012</name>
								</reel>
							</timecode>
							<media>
								<video>
									<samplecharacteristics>
										<rate>
											<timebase>24</timebase>
											<ntsc>TRUE</ntsc>
										</rate>
										<width>3840</width>
										<height>2160</height>
										<anamorphic>FALSE</anamorphic>
										<pixelaspectratio>square</pixelaspectratio>
										<fielddominance>none</fielddominance>
									</samplecharacteristics>
								</video>
							</media>
						</file>
						<logginginfo>
							<description></description>
							<scene></scene>
							<shottake></shottake>
							<lognote></lognote>
							<good></good>
							<originalvideofilename></originalvideofilename>
							<originalaudiofilename></originalaudiofilename>
						</logginginfo>
						<colorinfo>
							<lut></lut>
							<lut1></lut1>
							<asc_sop></asc_sop>
							<asc_sat></asc_sat>
							<lut2></lut2>
						</colorinfo>
						<labels>
							<label2>Violet</label2>
						</labels>
					</clipitem>
					<clipitem id="clipitem-1580">
						<masterclipid>masterclip-1577</masterclipid>
						<name>TKO_021_HIG_Sh16370.mov</name>
						<enabled>TRUE</enabled>
						<duration>64</duration>
						<rate>
							<timebase>24</timebase>
							<ntsc>TRUE</ntsc>
						</rate>
						<start>109498</start>
						<end>109554</end>
						<in>4</in>
						<out>60</out>
						<pproTicksIn>42378336000</pproTicksIn>
						<pproTicksOut>635675040000</pproTicksOut>
						<alphatype>none</alphatype>
						<pixelaspectratio>square</pixelaspectratio>
						<anamorphic>FALSE</anamorphic>
						<file id="file-1577">
							<name>TKO_021_HIG_Sh16370.mov</name>
							<pathurl>file://tri-stor01/Projects/TKO/SHOTS/_Refs_Movs_Burnin_FrameCounter/TKO_021_HIG_Sh16370.mov</pathurl>
							<rate>
								<timebase>24</timebase>
								<ntsc>TRUE</ntsc>
							</rate>
							<duration>64</duration>
							<timecode>
								<rate>
									<timebase>24</timebase>
									<ntsc>TRUE</ntsc>
								</rate>
								<string>08:35:52:03</string>
								<frame>742851</frame>
								<displayformat>NDF</displayformat>
								<reel>
									<name>B0370001</name>
								</reel>
							</timecode>
							<media>
								<video>
									<samplecharacteristics>
										<rate>
											<timebase>24</timebase>
											<ntsc>TRUE</ntsc>
										</rate>
										<width>3840</width>
										<height>2160</height>
										<anamorphic>FALSE</anamorphic>
										<pixelaspectratio>square</pixelaspectratio>
										<fielddominance>none</fielddominance>
									</samplecharacteristics>
								</video>
							</media>
						</file>
						<logginginfo>
							<description></description>
							<scene></scene>
							<shottake></shottake>
							<lognote></lognote>
							<good></good>
							<originalvideofilename></originalvideofilename>
							<originalaudiofilename></originalaudiofilename>
						</logginginfo>
						<colorinfo>
							<lut></lut>
							<lut1></lut1>
							<asc_sop></asc_sop>
							<asc_sat></asc_sat>
							<lut2></lut2>
						</colorinfo>
						<labels>
							<label2>Violet</label2>
						</labels>
					</clipitem>
					<clipitem id="clipitem-1581">
						<masterclipid>masterclip-1578</masterclipid>
						<name>TKO_021_HIG_Sh16380.mov</name>
						<enabled>TRUE</enabled>
						<duration>74</duration>
						<rate>
							<timebase>24</timebase>
							<ntsc>TRUE</ntsc>
						</rate>
						<start>109554</start>
						<end>109620</end>
						<in>4</in>
						<out>70</out>
						<pproTicksIn>42378336000</pproTicksIn>
						<pproTicksOut>741620880000</pproTicksOut>
						<alphatype>none</alphatype>
						<pixelaspectratio>square</pixelaspectratio>
						<anamorphic>FALSE</anamorphic>
						<file id="file-1578">
							<name>TKO_021_HIG_Sh16380.mov</name>
							<pathurl>file://tri-stor01/Projects/TKO/SHOTS/_Refs_Movs_Burnin_FrameCounter/TKO_021_HIG_Sh16380.mov</pathurl>
							<rate>
								<timebase>24</timebase>
								<ntsc>TRUE</ntsc>
							</rate>
							<duration>74</duration>
							<timecode>
								<rate>
									<timebase>24</timebase>
									<ntsc>TRUE</ntsc>
								</rate>
								<string>12:25:13:15</string>
								<frame>1073127</frame>
								<displayformat>NDF</displayformat>
								<reel>
									<name>C0290001</name>
								</reel>
							</timecode>
							<media>
								<video>
									<samplecharacteristics>
										<rate>
											<timebase>24</timebase>
											<ntsc>TRUE</ntsc>
										</rate>
										<width>3840</width>
										<height>2160</height>
										<anamorphic>FALSE</anamorphic>
										<pixelaspectratio>square</pixelaspectratio>
										<fielddominance>none</fielddominance>
									</samplecharacteristics>
								</video>
							</media>
						</file>
						<logginginfo>
							<description></description>
							<scene></scene>
							<shottake></shottake>
							<lognote></lognote>
							<good></good>
							<originalvideofilename></originalvideofilename>
							<originalaudiofilename></originalaudiofilename>
						</logginginfo>
						<colorinfo>
							<lut></lut>
							<lut1></lut1>
							<asc_sop></asc_sop>
							<asc_sat></asc_sat>
							<lut2></lut2>
						</colorinfo>
						<labels>
							<label2>Violet</label2>
						</labels>
					</clipitem>
					<clipitem id="clipitem-1582">
						<masterclipid>masterclip-1579</masterclipid>
						<name>TKO_021_HIG_Sh16390.mov</name>
						<enabled>TRUE</enabled>
						<duration>91</duration>
						<rate>
							<timebase>24</timebase>
							<ntsc>TRUE</ntsc>
						</rate>
						<start>109620</start>
						<end>109703</end>
						<in>4</in>
						<out>87</out>
						<pproTicksIn>42378336000</pproTicksIn>
						<pproTicksOut>921728808000</pproTicksOut>
						<alphatype>none</alphatype>
						<pixelaspectratio>square</pixelaspectratio>
						<anamorphic>FALSE</anamorphic>
						<file id="file-1579">
							<name>TKO_021_HIG_Sh16390.mov</name>
							<pathurl>file://tri-stor01/Projects/TKO/SHOTS/_Refs_Movs_Burnin_FrameCounter/TKO_021_HIG_Sh16390.mov</pathurl>
							<rate>
								<timebase>24</timebase>
								<ntsc>TRUE</ntsc>
							</rate>
							<duration>91</duration>
							<timecode>
								<rate>
									<timebase>24</timebase>
									<ntsc>TRUE</ntsc>
								</rate>
								<string>20:16:18:10</string>
								<frame>1751482</frame>
								<displayformat>NDF</displayformat>
								<reel>
									<name>B0260022</name>
								</reel>
							</timecode>
							<media>
								<video>
									<samplecharacteristics>
										<rate>
											<timebase>24</timebase>
											<ntsc>TRUE</ntsc>
										</rate>
										<width>4096</width>
										<height>2160</height>
										<anamorphic>FALSE</anamorphic>
										<pixelaspectratio>square</pixelaspectratio>
										<fielddominance>none</fielddominance>
									</samplecharacteristics>
								</video>
							</media>
						</file>
						<logginginfo>
							<description></description>
							<scene></scene>
							<shottake></shottake>
							<lognote></lognote>
							<good></good>
							<originalvideofilename></originalvideofilename>
							<originalaudiofilename></originalaudiofilename>
						</logginginfo>
						<colorinfo>
							<lut></lut>
							<lut1></lut1>
							<asc_sop></asc_sop>
							<asc_sat></asc_sat>
							<lut2></lut2>
						</colorinfo>
						<labels>
							<label2>Violet</label2>
						</labels>
					</clipitem>
					<clipitem id="clipitem-1583">
						<masterclipid>masterclip-1580</masterclipid>
						<name>TKO_021_HIG_Sh16400.mov</name>
						<enabled>TRUE</enabled>
						<duration>260</duration>
						<rate>
							<timebase>24</timebase>
							<ntsc>TRUE</ntsc>
						</rate>
						<start>109703</start>
						<end>109947</end>
						<in>8</in>
						<out>252</out>
						<pproTicksIn>42378336000</pproTicksIn>
						<pproTicksOut>1334917584000</pproTicksOut>
						<alphatype>none</alphatype>
						<pixelaspectratio>square</pixelaspectratio>
						<anamorphic>FALSE</anamorphic>
						<file id="file-1580">
							<name>TKO_021_HIG_Sh16400.mov</name>
							<pathurl>file://tri-stor01/Projects/TKO/SHOTS/_Refs_Movs_Burnin_FrameCounter/TKO_021_HIG_Sh16400.mov</pathurl>
							<rate>
								<timebase>24</timebase>
								<ntsc>TRUE</ntsc>
							</rate>
							<duration>130</duration>
							<timecode>
								<rate>
									<timebase>24</timebase>
									<ntsc>TRUE</ntsc>
								</rate>
								<string>20:16:18:21</string>
								<frame>1751493</frame>
								<displayformat>NDF</displayformat>
								<reel>
									<name>A0320007</name>
								</reel>
							</timecode>
							<media>
								<video>
									<samplecharacteristics>
										<rate>
											<timebase>24</timebase>
											<ntsc>TRUE</ntsc>
										</rate>
										<width>4096</width>
										<height>2160</height>
										<anamorphic>FALSE</anamorphic>
										<pixelaspectratio>square</pixelaspectratio>
										<fielddominance>none</fielddominance>
									</samplecharacteristics>
								</video>
							</media>
						</file>
						<filter>
							<effect>
								<name>Time Remap</name>
								<effectid>timeremap</effectid>
								<effectcategory>motion</effectcategory>
								<effecttype>motion</effecttype>
								<mediatype>video</mediatype>
								<parameter authoringApp="PremierePro">
									<parameterid>variablespeed</parameterid>
									<name>variablespeed</name>
									<valuemin>0</valuemin>
									<valuemax>1</valuemax>
									<value>0</value>
								</parameter>
								<parameter authoringApp="PremierePro">
									<parameterid>speed</parameterid>
									<name>speed</name>
									<valuemin>-100000</valuemin>
									<valuemax>100000</valuemax>
									<value>50</value>
								</parameter>
								<parameter authoringApp="PremierePro">
									<parameterid>reverse</parameterid>
									<name>reverse</name>
									<value>FALSE</value>
								</parameter>
								<parameter authoringApp="PremierePro">
									<parameterid>frameblending</parameterid>
									<name>frameblending</name>
									<value>FALSE</value>
								</parameter>
								<parameter authoringApp="PremierePro">
									<parameterid>graphdict</parameterid>
									<name>graphdict</name>
									<valuemin>0</valuemin>
									<valuemax>130</valuemax>
									<value>0</value>
									<keyframe>
										<when>0</when>
										<value>0</value>
										<speedvirtualkf>TRUE</speedvirtualkf>
										<speedkfstart>TRUE</speedkfstart>
									</keyframe>
									<keyframe>
										<when>8</when>
										<value>4</value>
										<speedvirtualkf>TRUE</speedvirtualkf>
										<speedkfin>TRUE</speedkfin>
									</keyframe>
									<keyframe>
										<when>252</when>
										<value>126</value>
										<speedvirtualkf>TRUE</speedvirtualkf>
										<speedkfout>TRUE</speedkfout>
									</keyframe>
									<keyframe>
										<when>260</when>
										<value>130</value>
										<speedvirtualkf>TRUE</speedvirtualkf>
										<speedkfend>TRUE</speedkfend>
									</keyframe>
									<interpolation>
										<name>FCPCurve</name>
									</interpolation>
								</parameter>
							</effect>
						</filter>
						<logginginfo>
							<description></description>
							<scene></scene>
							<shottake></shottake>
							<lognote></lognote>
							<good></good>
							<originalvideofilename></originalvideofilename>
							<originalaudiofilename></originalaudiofilename>
						</logginginfo>
						<colorinfo>
							<lut></lut>
							<lut1></lut1>
							<asc_sop></asc_sop>
							<asc_sat></asc_sat>
							<lut2></lut2>
						</colorinfo>
						<labels>
							<label2>Violet</label2>
						</labels>
					</clipitem>
					<clipitem id="clipitem-1584">
						<masterclipid>masterclip-1581</masterclipid>
						<name>TKO_022_CON_Sh16570.mov</name>
						<enabled>TRUE</enabled>
						<duration>120</duration>
						<rate>
							<timebase>24</timebase>
							<ntsc>TRUE</ntsc>
						</rate>
						<start>109947</start>
						<end>110059</end>
						<in>4</in>
						<out>116</out>
						<pproTicksIn>42378336000</pproTicksIn>
						<pproTicksOut>1228971744000</pproTicksOut>
						<alphatype>none</alphatype>
						<pixelaspectratio>square</pixelaspectratio>
						<anamorphic>FALSE</anamorphic>
						<file id="file-1581">
							<name>TKO_022_CON_Sh16570.mov</name>
							<pathurl>file://tri-stor01/Projects/TKO/SHOTS/_Refs_Movs_Burnin_FrameCounter/TKO_022_CON_Sh16570.mov</pathurl>
							<rate>
								<timebase>24</timebase>
								<ntsc>TRUE</ntsc>
							</rate>
							<duration>120</duration>
							<timecode>
								<rate>
									<timebase>24</timebase>
									<ntsc>TRUE</ntsc>
								</rate>
								<string>19:57:03:02</string>
								<frame>1723754</frame>
								<displayformat>NDF</displayformat>
								<reel>
									<name>A0340009</name>
								</reel>
							</timecode>
							<media>
								<video>
									<samplecharacteristics>
										<rate>
											<timebase>24</timebase>
											<ntsc>TRUE</ntsc>
										</rate>
										<width>4096</width>
										<height>2160</height>
										<anamorphic>FALSE</anamorphic>
										<pixelaspectratio>square</pixelaspectratio>
										<fielddominance>none</fielddominance>
									</samplecharacteristics>
								</video>
							</media>
						</file>
						<logginginfo>
							<description></description>
							<scene></scene>
							<shottake></shottake>
							<lognote></lognote>
							<good></good>
							<originalvideofilename></originalvideofilename>
							<originalaudiofilename></originalaudiofilename>
						</logginginfo>
						<colorinfo>
							<lut></lut>
							<lut1></lut1>
							<asc_sop></asc_sop>
							<asc_sat></asc_sat>
							<lut2></lut2>
						</colorinfo>
						<labels>
							<label2>Violet</label2>
						</labels>
					</clipitem>
					<clipitem id="clipitem-1585">
						<masterclipid>masterclip-1582</masterclipid>
						<name>TKO_022_CON_Sh16580.mov</name>
						<enabled>TRUE</enabled>
						<duration>70</duration>
						<rate>
							<timebase>24</timebase>
							<ntsc>TRUE</ntsc>
						</rate>
						<start>110059</start>
						<end>110121</end>
						<in>4</in>
						<out>66</out>
						<pproTicksIn>42378336000</pproTicksIn>
						<pproTicksOut>699242544000</pproTicksOut>
						<alphatype>none</alphatype>
						<pixelaspectratio>square</pixelaspectratio>
						<anamorphic>FALSE</anamorphic>
						<file id="file-1582">
							<name>TKO_022_CON_Sh16580.mov</name>
							<pathurl>file://tri-stor01/Projects/TKO/SHOTS/_Refs_Movs_Burnin_FrameCounter/TKO_022_CON_Sh16580.mov</pathurl>
							<rate>
								<timebase>24</timebase>
								<ntsc>TRUE</ntsc>
							</rate>
							<duration>70</duration>
							<timecode>
								<rate>
									<timebase>24</timebase>
									<ntsc>TRUE</ntsc>
								</rate>
								<string>10:13:07:13</string>
								<frame>882901</frame>
								<displayformat>NDF</displayformat>
								<reel>
									<name>C0240006</name>
								</reel>
							</timecode>
							<media>
								<video>
									<samplecharacteristics>
										<rate>
											<timebase>24</timebase>
											<ntsc>TRUE</ntsc>
										</rate>
										<width>3840</width>
										<height>2160</height>
										<anamorphic>FALSE</anamorphic>
										<pixelaspectratio>square</pixelaspectratio>
										<fielddominance>none</fielddominance>
									</samplecharacteristics>
								</video>
							</media>
						</file>
						<logginginfo>
							<description></description>
							<scene></scene>
							<shottake></shottake>
							<lognote></lognote>
							<good></good>
							<originalvideofilename></originalvideofilename>
							<originalaudiofilename></originalaudiofilename>
						</logginginfo>
						<colorinfo>
							<lut></lut>
							<lut1></lut1>
							<asc_sop></asc_sop>
							<asc_sat></asc_sat>
							<lut2></lut2>
						</colorinfo>
						<labels>
							<label2>Violet</label2>
						</labels>
					</clipitem>
					<clipitem id="clipitem-1586">
						<masterclipid>masterclip-1583</masterclipid>
						<name>TKO_022_CON_Sh16590.mov</name>
						<enabled>TRUE</enabled>
						<duration>83</duration>
						<rate>
							<timebase>24</timebase>
							<ntsc>TRUE</ntsc>
						</rate>
						<start>110121</start>
						<end>110196</end>
						<in>4</in>
						<out>79</out>
						<pproTicksIn>42378336000</pproTicksIn>
						<pproTicksOut>836972136000</pproTicksOut>
						<alphatype>none</alphatype>
						<pixelaspectratio>square</pixelaspectratio>
						<anamorphic>FALSE</anamorphic>
						<file id="file-1583">
							<name>TKO_022_CON_Sh16590.mov</name>
							<pathurl>file://tri-stor01/Projects/TKO/SHOTS/_Refs_Movs_Burnin_FrameCounter/TKO_022_CON_Sh16590.mov</pathurl>
							<rate>
								<timebase>24</timebase>
								<ntsc>TRUE</ntsc>
							</rate>
							<duration>83</duration>
							<timecode>
								<rate>
									<timebase>24</timebase>
									<ntsc>TRUE</ntsc>
								</rate>
								<string>20:37:17:03</string>
								<frame>1781691</frame>
								<displayformat>NDF</displayformat>
								<reel>
									<name>A0340010</name>
								</reel>
							</timecode>
							<media>
								<video>
									<samplecharacteristics>
										<rate>
											<timebase>24</timebase>
											<ntsc>TRUE</ntsc>
										</rate>
										<width>4096</width>
										<height>2160</height>
										<anamorphic>FALSE</anamorphic>
										<pixelaspectratio>square</pixelaspectratio>
										<fielddominance>none</fielddominance>
									</samplecharacteristics>
								</video>
							</media>
						</file>
						<logginginfo>
							<description></description>
							<scene></scene>
							<shottake></shottake>
							<lognote></lognote>
							<good></good>
							<originalvideofilename></originalvideofilename>
							<originalaudiofilename></originalaudiofilename>
						</logginginfo>
						<colorinfo>
							<lut></lut>
							<lut1></lut1>
							<asc_sop></asc_sop>
							<asc_sat></asc_sat>
							<lut2></lut2>
						</colorinfo>
						<labels>
							<label2>Violet</label2>
						</labels>
					</clipitem>
					<clipitem id="clipitem-1587">
						<masterclipid>masterclip-1584</masterclipid>
						<name>TKO_022_CON_Sh16600.mov</name>
						<enabled>TRUE</enabled>
						<duration>125</duration>
						<rate>
							<timebase>24</timebase>
							<ntsc>TRUE</ntsc>
						</rate>
						<start>110196</start>
						<end>110313</end>
						<in>4</in>
						<out>121</out>
						<pproTicksIn>42378336000</pproTicksIn>
						<pproTicksOut>1281944664000</pproTicksOut>
						<alphatype>none</alphatype>
						<pixelaspectratio>square</pixelaspectratio>
						<anamorphic>FALSE</anamorphic>
						<file id="file-1584">
							<name>TKO_022_CON_Sh16600.mov</name>
							<pathurl>file://tri-stor01/Projects/TKO/SHOTS/_Refs_Movs_Burnin_FrameCounter/TKO_022_CON_Sh16600.mov</pathurl>
							<rate>
								<timebase>24</timebase>
								<ntsc>TRUE</ntsc>
							</rate>
							<duration>125</duration>
							<timecode>
								<rate>
									<timebase>24</timebase>
									<ntsc>TRUE</ntsc>
								</rate>
								<string>19:57:13:11</string>
								<frame>1724003</frame>
								<displayformat>NDF</displayformat>
								<reel>
									<name>A0340009</name>
								</reel>
							</timecode>
							<media>
								<video>
									<samplecharacteristics>
										<rate>
											<timebase>24</timebase>
											<ntsc>TRUE</ntsc>
										</rate>
										<width>4096</width>
										<height>2160</height>
										<anamorphic>FALSE</anamorphic>
										<pixelaspectratio>square</pixelaspectratio>
										<fielddominance>none</fielddominance>
									</samplecharacteristics>
								</video>
							</media>
						</file>
						<logginginfo>
							<description></description>
							<scene></scene>
							<shottake></shottake>
							<lognote></lognote>
							<good></good>
							<originalvideofilename></originalvideofilename>
							<originalaudiofilename></originalaudiofilename>
						</logginginfo>
						<colorinfo>
							<lut></lut>
							<lut1></lut1>
							<asc_sop></asc_sop>
							<asc_sat></asc_sat>
							<lut2></lut2>
						</colorinfo>
						<labels>
							<label2>Violet</label2>
						</labels>
					</clipitem>
					<clipitem id="clipitem-1588">
						<masterclipid>masterclip-1585</masterclipid>
						<name>TKO_022_CON_Sh16610.mov</name>
						<enabled>TRUE</enabled>
						<duration>89</duration>
						<rate>
							<timebase>24</timebase>
							<ntsc>TRUE</ntsc>
						</rate>
						<start>110313</start>
						<end>110394</end>
						<in>4</in>
						<out>85</out>
						<pproTicksIn>42378336000</pproTicksIn>
						<pproTicksOut>900539640000</pproTicksOut>
						<alphatype>none</alphatype>
						<pixelaspectratio>square</pixelaspectratio>
						<anamorphic>FALSE</anamorphic>
						<file id="file-1585">
							<name>TKO_022_CON_Sh16610.mov</name>
							<pathurl>file://tri-stor01/Projects/TKO/SHOTS/_Refs_Movs_Burnin_FrameCounter/TKO_022_CON_Sh16610.mov</pathurl>
							<rate>
								<timebase>24</timebase>
								<ntsc>TRUE</ntsc>
							</rate>
							<duration>89</duration>
							<timecode>
								<rate>
									<timebase>24</timebase>
									<ntsc>TRUE</ntsc>
								</rate>
								<string>20:37:35:02</string>
								<frame>1782122</frame>
								<displayformat>NDF</displayformat>
								<reel>
									<name>A0340010</name>
								</reel>
							</timecode>
							<media>
								<video>
									<samplecharacteristics>
										<rate>
											<timebase>24</timebase>
											<ntsc>TRUE</ntsc>
										</rate>
										<width>4096</width>
										<height>2160</height>
										<anamorphic>FALSE</anamorphic>
										<pixelaspectratio>square</pixelaspectratio>
										<fielddominance>none</fielddominance>
									</samplecharacteristics>
								</video>
							</media>
						</file>
						<logginginfo>
							<description></description>
							<scene></scene>
							<shottake></shottake>
							<lognote></lognote>
							<good></good>
							<originalvideofilename></originalvideofilename>
							<originalaudiofilename></originalaudiofilename>
						</logginginfo>
						<colorinfo>
							<lut></lut>
							<lut1></lut1>
							<asc_sop></asc_sop>
							<asc_sat></asc_sat>
							<lut2></lut2>
						</colorinfo>
						<labels>
							<label2>Violet</label2>
						</labels>
					</clipitem>
					<clipitem id="clipitem-1589">
						<masterclipid>masterclip-1586</masterclipid>
						<name>TKO_022_CON_Sh16620.mov</name>
						<enabled>TRUE</enabled>
						<duration>152</duration>
						<rate>
							<timebase>24</timebase>
							<ntsc>TRUE</ntsc>
						</rate>
						<start>110394</start>
						<end>110538</end>
						<in>4</in>
						<out>148</out>
						<pproTicksIn>42378336000</pproTicksIn>
						<pproTicksOut>1567998432000</pproTicksOut>
						<alphatype>none</alphatype>
						<pixelaspectratio>square</pixelaspectratio>
						<anamorphic>FALSE</anamorphic>
						<file id="file-1586">
							<name>TKO_022_CON_Sh16620.mov</name>
							<pathurl>file://tri-stor01/Projects/TKO/SHOTS/_Refs_Movs_Burnin_FrameCounter/TKO_022_CON_Sh16620.mov</pathurl>
							<rate>
								<timebase>24</timebase>
								<ntsc>TRUE</ntsc>
							</rate>
							<duration>152</duration>
							<timecode>
								<rate>
									<timebase>24</timebase>
									<ntsc>TRUE</ntsc>
								</rate>
								<string>19:57:21:17</string>
								<frame>1724201</frame>
								<displayformat>NDF</displayformat>
								<reel>
									<name>A0340009</name>
								</reel>
							</timecode>
							<media>
								<video>
									<samplecharacteristics>
										<rate>
											<timebase>24</timebase>
											<ntsc>TRUE</ntsc>
										</rate>
										<width>4096</width>
										<height>2160</height>
										<anamorphic>FALSE</anamorphic>
										<pixelaspectratio>square</pixelaspectratio>
										<fielddominance>none</fielddominance>
									</samplecharacteristics>
								</video>
							</media>
						</file>
						<logginginfo>
							<description></description>
							<scene></scene>
							<shottake></shottake>
							<lognote></lognote>
							<good></good>
							<originalvideofilename></originalvideofilename>
							<originalaudiofilename></originalaudiofilename>
						</logginginfo>
						<colorinfo>
							<lut></lut>
							<lut1></lut1>
							<asc_sop></asc_sop>
							<asc_sat></asc_sat>
							<lut2></lut2>
						</colorinfo>
						<labels>
							<label2>Violet</label2>
						</labels>
					</clipitem>
					<clipitem id="clipitem-1590">
						<masterclipid>masterclip-1587</masterclipid>
						<name>TKO_022_CON_Sh16630.mov</name>
						<enabled>TRUE</enabled>
						<duration>187</duration>
						<rate>
							<timebase>24</timebase>
							<ntsc>TRUE</ntsc>
						</rate>
						<start>110538</start>
						<end>110717</end>
						<in>4</in>
						<out>183</out>
						<pproTicksIn>42378336000</pproTicksIn>
						<pproTicksOut>1938808872000</pproTicksOut>
						<alphatype>none</alphatype>
						<pixelaspectratio>square</pixelaspectratio>
						<anamorphic>FALSE</anamorphic>
						<file id="file-1587">
							<name>TKO_022_CON_Sh16630.mov</name>
							<pathurl>file://tri-stor01/Projects/TKO/SHOTS/_Refs_Movs_Burnin_FrameCounter/TKO_022_CON_Sh16630.mov</pathurl>
							<rate>
								<timebase>24</timebase>
								<ntsc>TRUE</ntsc>
							</rate>
							<duration>187</duration>
							<timecode>
								<rate>
									<timebase>24</timebase>
									<ntsc>TRUE</ntsc>
								</rate>
								<string>10:13:27:12</string>
								<frame>883380</frame>
								<displayformat>NDF</displayformat>
								<reel>
									<name>C0240006</name>
								</reel>
							</timecode>
							<media>
								<video>
									<samplecharacteristics>
										<rate>
											<timebase>24</timebase>
											<ntsc>TRUE</ntsc>
										</rate>
										<width>3840</width>
										<height>2160</height>
										<anamorphic>FALSE</anamorphic>
										<pixelaspectratio>square</pixelaspectratio>
										<fielddominance>none</fielddominance>
									</samplecharacteristics>
								</video>
							</media>
						</file>
						<logginginfo>
							<description></description>
							<scene></scene>
							<shottake></shottake>
							<lognote></lognote>
							<good></good>
							<originalvideofilename></originalvideofilename>
							<originalaudiofilename></originalaudiofilename>
						</logginginfo>
						<colorinfo>
							<lut></lut>
							<lut1></lut1>
							<asc_sop></asc_sop>
							<asc_sat></asc_sat>
							<lut2></lut2>
						</colorinfo>
						<labels>
							<label2>Violet</label2>
						</labels>
					</clipitem>
					<clipitem id="clipitem-1591">
						<masterclipid>masterclip-1588</masterclipid>
						<name>TKO_022_CON_Sh16640.mov</name>
						<enabled>TRUE</enabled>
						<duration>266</duration>
						<rate>
							<timebase>24</timebase>
							<ntsc>TRUE</ntsc>
						</rate>
						<start>110717</start>
						<end>110975</end>
						<in>4</in>
						<out>262</out>
						<pproTicksIn>42378336000</pproTicksIn>
						<pproTicksOut>2775781008000</pproTicksOut>
						<alphatype>none</alphatype>
						<pixelaspectratio>square</pixelaspectratio>
						<anamorphic>FALSE</anamorphic>
						<file id="file-1588">
							<name>TKO_022_CON_Sh16640.mov</name>
							<pathurl>file://tri-stor01/Projects/TKO/SHOTS/_Refs_Movs_Burnin_FrameCounter/TKO_022_CON_Sh16640.mov</pathurl>
							<rate>
								<timebase>24</timebase>
								<ntsc>TRUE</ntsc>
							</rate>
							<duration>266</duration>
							<timecode>
								<rate>
									<timebase>24</timebase>
									<ntsc>TRUE</ntsc>
								</rate>
								<string>10:19:37:23</string>
								<frame>892271</frame>
								<displayformat>NDF</displayformat>
								<reel>
									<name>C0240007</name>
								</reel>
							</timecode>
							<media>
								<video>
									<samplecharacteristics>
										<rate>
											<timebase>24</timebase>
											<ntsc>TRUE</ntsc>
										</rate>
										<width>3840</width>
										<height>2160</height>
										<anamorphic>FALSE</anamorphic>
										<pixelaspectratio>square</pixelaspectratio>
										<fielddominance>none</fielddominance>
									</samplecharacteristics>
								</video>
							</media>
						</file>
						<logginginfo>
							<description></description>
							<scene></scene>
							<shottake></shottake>
							<lognote></lognote>
							<good></good>
							<originalvideofilename></originalvideofilename>
							<originalaudiofilename></originalaudiofilename>
						</logginginfo>
						<colorinfo>
							<lut></lut>
							<lut1></lut1>
							<asc_sop></asc_sop>
							<asc_sat></asc_sat>
							<lut2></lut2>
						</colorinfo>
						<labels>
							<label2>Violet</label2>
						</labels>
					</clipitem>
					<clipitem id="clipitem-1592">
						<masterclipid>masterclip-1589</masterclipid>
						<name>TKO_022_CON_Sh16650.mov</name>
						<enabled>TRUE</enabled>
						<duration>249</duration>
						<rate>
							<timebase>24</timebase>
							<ntsc>TRUE</ntsc>
						</rate>
						<start>110975</start>
						<end>111216</end>
						<in>4</in>
						<out>245</out>
						<pproTicksIn>42378336000</pproTicksIn>
						<pproTicksOut>2595673080000</pproTicksOut>
						<alphatype>none</alphatype>
						<pixelaspectratio>square</pixelaspectratio>
						<anamorphic>FALSE</anamorphic>
						<file id="file-1589">
							<name>TKO_022_CON_Sh16650.mov</name>
							<pathurl>file://tri-stor01/Projects/TKO/SHOTS/_Refs_Movs_Burnin_FrameCounter/TKO_022_CON_Sh16650.mov</pathurl>
							<rate>
								<timebase>24</timebase>
								<ntsc>TRUE</ntsc>
							</rate>
							<duration>249</duration>
							<timecode>
								<rate>
									<timebase>24</timebase>
									<ntsc>TRUE</ntsc>
								</rate>
								<string>19:58:07:08</string>
								<frame>1725296</frame>
								<displayformat>NDF</displayformat>
								<reel>
									<name>B0280011</name>
								</reel>
							</timecode>
							<media>
								<video>
									<samplecharacteristics>
										<rate>
											<timebase>24</timebase>
											<ntsc>TRUE</ntsc>
										</rate>
										<width>4096</width>
										<height>2160</height>
										<anamorphic>FALSE</anamorphic>
										<pixelaspectratio>square</pixelaspectratio>
										<fielddominance>none</fielddominance>
									</samplecharacteristics>
								</video>
							</media>
						</file>
						<logginginfo>
							<description></description>
							<scene></scene>
							<shottake></shottake>
							<lognote></lognote>
							<good></good>
							<originalvideofilename></originalvideofilename>
							<originalaudiofilename></originalaudiofilename>
						</logginginfo>
						<colorinfo>
							<lut></lut>
							<lut1></lut1>
							<asc_sop></asc_sop>
							<asc_sat></asc_sat>
							<lut2></lut2>
						</colorinfo>
						<labels>
							<label2>Violet</label2>
						</labels>
					</clipitem>
					<clipitem id="clipitem-1593">
						<masterclipid>masterclip-1590</masterclipid>
						<name>TKO_022_CON_Sh16660.mov</name>
						<enabled>TRUE</enabled>
						<duration>223</duration>
						<rate>
							<timebase>24</timebase>
							<ntsc>TRUE</ntsc>
						</rate>
						<start>111216</start>
						<end>111431</end>
						<in>4</in>
						<out>219</out>
						<pproTicksIn>42378336000</pproTicksIn>
						<pproTicksOut>2320213896000</pproTicksOut>
						<alphatype>none</alphatype>
						<pixelaspectratio>square</pixelaspectratio>
						<anamorphic>FALSE</anamorphic>
						<file id="file-1590">
							<name>TKO_022_CON_Sh16660.mov</name>
							<pathurl>file://tri-stor01/Projects/TKO/SHOTS/_Refs_Movs_Burnin_FrameCounter/TKO_022_CON_Sh16660.mov</pathurl>
							<rate>
								<timebase>24</timebase>
								<ntsc>TRUE</ntsc>
							</rate>
							<duration>223</duration>
							<timecode>
								<rate>
									<timebase>24</timebase>
									<ntsc>TRUE</ntsc>
								</rate>
								<string>20:38:13:23</string>
								<frame>1783055</frame>
								<displayformat>NDF</displayformat>
								<reel>
									<name>A0340010</name>
								</reel>
							</timecode>
							<media>
								<video>
									<samplecharacteristics>
										<rate>
											<timebase>24</timebase>
											<ntsc>TRUE</ntsc>
										</rate>
										<width>4096</width>
										<height>2160</height>
										<anamorphic>FALSE</anamorphic>
										<pixelaspectratio>square</pixelaspectratio>
										<fielddominance>none</fielddominance>
									</samplecharacteristics>
								</video>
							</media>
						</file>
						<logginginfo>
							<description></description>
							<scene></scene>
							<shottake></shottake>
							<lognote></lognote>
							<good></good>
							<originalvideofilename></originalvideofilename>
							<originalaudiofilename></originalaudiofilename>
						</logginginfo>
						<colorinfo>
							<lut></lut>
							<lut1></lut1>
							<asc_sop></asc_sop>
							<asc_sat></asc_sat>
							<lut2></lut2>
						</colorinfo>
						<labels>
							<label2>Violet</label2>
						</labels>
					</clipitem>
					<clipitem id="clipitem-1594">
						<masterclipid>masterclip-1591</masterclipid>
						<name>TKO_022_CON_Sh16670.mov</name>
						<enabled>TRUE</enabled>
						<duration>196</duration>
						<rate>
							<timebase>24</timebase>
							<ntsc>TRUE</ntsc>
						</rate>
						<start>111431</start>
						<end>111619</end>
						<in>4</in>
						<out>192</out>
						<pproTicksIn>42378336000</pproTicksIn>
						<pproTicksOut>2034160128000</pproTicksOut>
						<alphatype>none</alphatype>
						<pixelaspectratio>square</pixelaspectratio>
						<anamorphic>FALSE</anamorphic>
						<file id="file-1591">
							<name>TKO_022_CON_Sh16670.mov</name>
							<pathurl>file://tri-stor01/Projects/TKO/SHOTS/_Refs_Movs_Burnin_FrameCounter/TKO_022_CON_Sh16670.mov</pathurl>
							<rate>
								<timebase>24</timebase>
								<ntsc>TRUE</ntsc>
							</rate>
							<duration>196</duration>
							<timecode>
								<rate>
									<timebase>24</timebase>
									<ntsc>TRUE</ntsc>
								</rate>
								<string>20:38:41:04</string>
								<frame>1783708</frame>
								<displayformat>NDF</displayformat>
								<reel>
									<name>B0280012</name>
								</reel>
							</timecode>
							<media>
								<video>
									<samplecharacteristics>
										<rate>
											<timebase>24</timebase>
											<ntsc>TRUE</ntsc>
										</rate>
										<width>4096</width>
										<height>2160</height>
										<anamorphic>FALSE</anamorphic>
										<pixelaspectratio>square</pixelaspectratio>
										<fielddominance>none</fielddominance>
									</samplecharacteristics>
								</video>
							</media>
						</file>
						<logginginfo>
							<description></description>
							<scene></scene>
							<shottake></shottake>
							<lognote></lognote>
							<good></good>
							<originalvideofilename></originalvideofilename>
							<originalaudiofilename></originalaudiofilename>
						</logginginfo>
						<colorinfo>
							<lut></lut>
							<lut1></lut1>
							<asc_sop></asc_sop>
							<asc_sat></asc_sat>
							<lut2></lut2>
						</colorinfo>
						<labels>
							<label2>Violet</label2>
						</labels>
					</clipitem>
					<clipitem id="clipitem-1595">
						<masterclipid>masterclip-1592</masterclipid>
						<name>TKO_023_GUY_Sh16680.mov</name>
						<enabled>TRUE</enabled>
						<duration>78</duration>
						<rate>
							<timebase>24</timebase>
							<ntsc>TRUE</ntsc>
						</rate>
						<start>111619</start>
						<end>111689</end>
						<in>4</in>
						<out>74</out>
						<pproTicksIn>42378336000</pproTicksIn>
						<pproTicksOut>783999216000</pproTicksOut>
						<alphatype>none</alphatype>
						<pixelaspectratio>square</pixelaspectratio>
						<anamorphic>FALSE</anamorphic>
						<file id="file-1592">
							<name>TKO_023_GUY_Sh16680.mov</name>
							<pathurl>file://tri-stor01/Projects/TKO/SHOTS/_Refs_Movs_Burnin_FrameCounter/TKO_023_GUY_Sh16680.mov</pathurl>
							<rate>
								<timebase>24</timebase>
								<ntsc>TRUE</ntsc>
							</rate>
							<duration>78</duration>
							<timecode>
								<rate>
									<timebase>24</timebase>
									<ntsc>TRUE</ntsc>
								</rate>
								<string>16:33:15:22</string>
								<frame>1430302</frame>
								<displayformat>NDF</displayformat>
								<reel>
									<name>A0360004</name>
								</reel>
							</timecode>
							<media>
								<video>
									<samplecharacteristics>
										<rate>
											<timebase>24</timebase>
											<ntsc>TRUE</ntsc>
										</rate>
										<width>4096</width>
										<height>2160</height>
										<anamorphic>FALSE</anamorphic>
										<pixelaspectratio>square</pixelaspectratio>
										<fielddominance>none</fielddominance>
									</samplecharacteristics>
								</video>
							</media>
						</file>
						<logginginfo>
							<description></description>
							<scene></scene>
							<shottake></shottake>
							<lognote></lognote>
							<good></good>
							<originalvideofilename></originalvideofilename>
							<originalaudiofilename></originalaudiofilename>
						</logginginfo>
						<colorinfo>
							<lut></lut>
							<lut1></lut1>
							<asc_sop></asc_sop>
							<asc_sat></asc_sat>
							<lut2></lut2>
						</colorinfo>
						<labels>
							<label2>Violet</label2>
						</labels>
					</clipitem>
					<clipitem id="clipitem-1596">
						<masterclipid>masterclip-1593</masterclipid>
						<name>TKO_023_GUY_Sh16690.mov</name>
						<enabled>TRUE</enabled>
						<duration>71</duration>
						<rate>
							<timebase>24</timebase>
							<ntsc>TRUE</ntsc>
						</rate>
						<start>111689</start>
						<end>111752</end>
						<in>4</in>
						<out>67</out>
						<pproTicksIn>42378336000</pproTicksIn>
						<pproTicksOut>709837128000</pproTicksOut>
						<alphatype>none</alphatype>
						<pixelaspectratio>square</pixelaspectratio>
						<anamorphic>FALSE</anamorphic>
						<file id="file-1593">
							<name>TKO_023_GUY_Sh16690.mov</name>
							<pathurl>file://tri-stor01/Projects/TKO/SHOTS/_Refs_Movs_Burnin_FrameCounter/TKO_023_GUY_Sh16690.mov</pathurl>
							<rate>
								<timebase>24</timebase>
								<ntsc>TRUE</ntsc>
							</rate>
							<duration>71</duration>
							<timecode>
								<rate>
									<timebase>24</timebase>
									<ntsc>TRUE</ntsc>
								</rate>
								<string>16:33:18:20</string>
								<frame>1430372</frame>
								<displayformat>NDF</displayformat>
								<reel>
									<name>B0300004</name>
								</reel>
							</timecode>
							<media>
								<video>
									<samplecharacteristics>
										<rate>
											<timebase>24</timebase>
											<ntsc>TRUE</ntsc>
										</rate>
										<width>4096</width>
										<height>2160</height>
										<anamorphic>FALSE</anamorphic>
										<pixelaspectratio>square</pixelaspectratio>
										<fielddominance>none</fielddominance>
									</samplecharacteristics>
								</video>
							</media>
						</file>
						<logginginfo>
							<description></description>
							<scene></scene>
							<shottake></shottake>
							<lognote></lognote>
							<good></good>
							<originalvideofilename></originalvideofilename>
							<originalaudiofilename></originalaudiofilename>
						</logginginfo>
						<colorinfo>
							<lut></lut>
							<lut1></lut1>
							<asc_sop></asc_sop>
							<asc_sat></asc_sat>
							<lut2></lut2>
						</colorinfo>
						<labels>
							<label2>Violet</label2>
						</labels>
					</clipitem>
					<clipitem id="clipitem-1597">
						<masterclipid>masterclip-1594</masterclipid>
						<name>TKO_023_GUY_Sh16700.mov</name>
						<enabled>TRUE</enabled>
						<duration>67</duration>
						<rate>
							<timebase>24</timebase>
							<ntsc>TRUE</ntsc>
						</rate>
						<start>111752</start>
						<end>111811</end>
						<in>4</in>
						<out>63</out>
						<pproTicksIn>42378336000</pproTicksIn>
						<pproTicksOut>667458792000</pproTicksOut>
						<alphatype>none</alphatype>
						<pixelaspectratio>square</pixelaspectratio>
						<anamorphic>FALSE</anamorphic>
						<file id="file-1594">
							<name>TKO_023_GUY_Sh16700.mov</name>
							<pathurl>file://tri-stor01/Projects/TKO/SHOTS/_Refs_Movs_Burnin_FrameCounter/TKO_023_GUY_Sh16700.mov</pathurl>
							<rate>
								<timebase>24</timebase>
								<ntsc>TRUE</ntsc>
							</rate>
							<duration>67</duration>
							<timecode>
								<rate>
									<timebase>24</timebase>
									<ntsc>TRUE</ntsc>
								</rate>
								<string>17:25:47:12</string>
								<frame>1505940</frame>
								<displayformat>NDF</displayformat>
								<reel>
									<name>A0360006</name>
								</reel>
							</timecode>
							<media>
								<video>
									<samplecharacteristics>
										<rate>
											<timebase>24</timebase>
											<ntsc>TRUE</ntsc>
										</rate>
										<width>4096</width>
										<height>2160</height>
										<anamorphic>FALSE</anamorphic>
										<pixelaspectratio>square</pixelaspectratio>
										<fielddominance>none</fielddominance>
									</samplecharacteristics>
								</video>
							</media>
						</file>
						<logginginfo>
							<description></description>
							<scene></scene>
							<shottake></shottake>
							<lognote></lognote>
							<good></good>
							<originalvideofilename></originalvideofilename>
							<originalaudiofilename></originalaudiofilename>
						</logginginfo>
						<colorinfo>
							<lut></lut>
							<lut1></lut1>
							<asc_sop></asc_sop>
							<asc_sat></asc_sat>
							<lut2></lut2>
						</colorinfo>
						<labels>
							<label2>Violet</label2>
						</labels>
					</clipitem>
					<clipitem id="clipitem-1598">
						<masterclipid>masterclip-1595</masterclipid>
						<name>TKO_023_GUY_Sh16710.mov</name>
						<enabled>TRUE</enabled>
						<duration>64</duration>
						<rate>
							<timebase>24</timebase>
							<ntsc>TRUE</ntsc>
						</rate>
						<start>111811</start>
						<end>111867</end>
						<in>4</in>
						<out>60</out>
						<pproTicksIn>42378336000</pproTicksIn>
						<pproTicksOut>635675040000</pproTicksOut>
						<alphatype>none</alphatype>
						<pixelaspectratio>square</pixelaspectratio>
						<anamorphic>FALSE</anamorphic>
						<file id="file-1595">
							<name>TKO_023_GUY_Sh16710.mov</name>
							<pathurl>file://tri-stor01/Projects/TKO/SHOTS/_Refs_Movs_Burnin_FrameCounter/TKO_023_GUY_Sh16710.mov</pathurl>
							<rate>
								<timebase>24</timebase>
								<ntsc>TRUE</ntsc>
							</rate>
							<duration>64</duration>
							<timecode>
								<rate>
									<timebase>24</timebase>
									<ntsc>TRUE</ntsc>
								</rate>
								<string>17:25:48:20</string>
								<frame>1505972</frame>
								<displayformat>NDF</displayformat>
								<reel>
									<name>B0300006</name>
								</reel>
							</timecode>
							<media>
								<video>
									<samplecharacteristics>
										<rate>
											<timebase>24</timebase>
											<ntsc>TRUE</ntsc>
										</rate>
										<width>4096</width>
										<height>2160</height>
										<anamorphic>FALSE</anamorphic>
										<pixelaspectratio>square</pixelaspectratio>
										<fielddominance>none</fielddominance>
									</samplecharacteristics>
								</video>
							</media>
						</file>
						<logginginfo>
							<description></description>
							<scene></scene>
							<shottake></shottake>
							<lognote></lognote>
							<good></good>
							<originalvideofilename></originalvideofilename>
							<originalaudiofilename></originalaudiofilename>
						</logginginfo>
						<colorinfo>
							<lut></lut>
							<lut1></lut1>
							<asc_sop></asc_sop>
							<asc_sat></asc_sat>
							<lut2></lut2>
						</colorinfo>
						<labels>
							<label2>Violet</label2>
						</labels>
					</clipitem>
					<clipitem id="clipitem-1599">
						<masterclipid>masterclip-1596</masterclipid>
						<name>TKO_023_GUY_Sh16720.mov</name>
						<enabled>TRUE</enabled>
						<duration>33</duration>
						<rate>
							<timebase>24</timebase>
							<ntsc>TRUE</ntsc>
						</rate>
						<start>111867</start>
						<end>111892</end>
						<in>4</in>
						<out>29</out>
						<pproTicksIn>42378336000</pproTicksIn>
						<pproTicksOut>307242936000</pproTicksOut>
						<alphatype>none</alphatype>
						<pixelaspectratio>square</pixelaspectratio>
						<anamorphic>FALSE</anamorphic>
						<file id="file-1596">
							<name>TKO_023_GUY_Sh16720.mov</name>
							<pathurl>file://tri-stor01/Projects/TKO/SHOTS/_Refs_Movs_Burnin_FrameCounter/TKO_023_GUY_Sh16720.mov</pathurl>
							<rate>
								<timebase>24</timebase>
								<ntsc>TRUE</ntsc>
							</rate>
							<duration>33</duration>
							<timecode>
								<rate>
									<timebase>24</timebase>
									<ntsc>TRUE</ntsc>
								</rate>
								<string>17:25:51:04</string>
								<frame>1506028</frame>
								<displayformat>NDF</displayformat>
								<reel>
									<name>A0360006</name>
								</reel>
							</timecode>
							<media>
								<video>
									<samplecharacteristics>
										<rate>
											<timebase>24</timebase>
											<ntsc>TRUE</ntsc>
										</rate>
										<width>4096</width>
										<height>2160</height>
										<anamorphic>FALSE</anamorphic>
										<pixelaspectratio>square</pixelaspectratio>
										<fielddominance>none</fielddominance>
									</samplecharacteristics>
								</video>
							</media>
						</file>
						<logginginfo>
							<description></description>
							<scene></scene>
							<shottake></shottake>
							<lognote></lognote>
							<good></good>
							<originalvideofilename></originalvideofilename>
							<originalaudiofilename></originalaudiofilename>
						</logginginfo>
						<colorinfo>
							<lut></lut>
							<lut1></lut1>
							<asc_sop></asc_sop>
							<asc_sat></asc_sat>
							<lut2></lut2>
						</colorinfo>
						<labels>
							<label2>Violet</label2>
						</labels>
					</clipitem>
					<clipitem id="clipitem-1600">
						<masterclipid>masterclip-1597</masterclipid>
						<name>TKO_023_GUY_Sh16730.mov</name>
						<enabled>TRUE</enabled>
						<duration>117</duration>
						<rate>
							<timebase>24</timebase>
							<ntsc>TRUE</ntsc>
						</rate>
						<start>111892</start>
						<end>112001</end>
						<in>4</in>
						<out>113</out>
						<pproTicksIn>42378336000</pproTicksIn>
						<pproTicksOut>1197187992000</pproTicksOut>
						<alphatype>none</alphatype>
						<pixelaspectratio>square</pixelaspectratio>
						<anamorphic>FALSE</anamorphic>
						<file id="file-1597">
							<name>TKO_023_GUY_Sh16730.mov</name>
							<pathurl>file://tri-stor01/Projects/TKO/SHOTS/_Refs_Movs_Burnin_FrameCounter/TKO_023_GUY_Sh16730.mov</pathurl>
							<rate>
								<timebase>24</timebase>
								<ntsc>TRUE</ntsc>
							</rate>
							<duration>117</duration>
							<timecode>
								<rate>
									<timebase>24</timebase>
									<ntsc>TRUE</ntsc>
								</rate>
								<string>17:25:53:04</string>
								<frame>1506076</frame>
								<displayformat>NDF</displayformat>
								<reel>
									<name>B0300006</name>
								</reel>
							</timecode>
							<media>
								<video>
									<samplecharacteristics>
										<rate>
											<timebase>24</timebase>
											<ntsc>TRUE</ntsc>
										</rate>
										<width>4096</width>
										<height>2160</height>
										<anamorphic>FALSE</anamorphic>
										<pixelaspectratio>square</pixelaspectratio>
										<fielddominance>none</fielddominance>
									</samplecharacteristics>
								</video>
							</media>
						</file>
						<logginginfo>
							<description></description>
							<scene></scene>
							<shottake></shottake>
							<lognote></lognote>
							<good></good>
							<originalvideofilename></originalvideofilename>
							<originalaudiofilename></originalaudiofilename>
						</logginginfo>
						<colorinfo>
							<lut></lut>
							<lut1></lut1>
							<asc_sop></asc_sop>
							<asc_sat></asc_sat>
							<lut2></lut2>
						</colorinfo>
						<labels>
							<label2>Violet</label2>
						</labels>
					</clipitem>
					<clipitem id="clipitem-1601">
						<masterclipid>masterclip-1598</masterclipid>
						<name>TKO_023_GUY_Sh16740.mov</name>
						<enabled>TRUE</enabled>
						<duration>56</duration>
						<rate>
							<timebase>24</timebase>
							<ntsc>TRUE</ntsc>
						</rate>
						<start>112001</start>
						<end>112049</end>
						<in>4</in>
						<out>52</out>
						<pproTicksIn>42378336000</pproTicksIn>
						<pproTicksOut>550918368000</pproTicksOut>
						<alphatype>none</alphatype>
						<pixelaspectratio>square</pixelaspectratio>
						<anamorphic>FALSE</anamorphic>
						<file id="file-1598">
							<name>TKO_023_GUY_Sh16740.mov</name>
							<pathurl>file://tri-stor01/Projects/TKO/SHOTS/_Refs_Movs_Burnin_FrameCounter/TKO_023_GUY_Sh16740.mov</pathurl>
							<rate>
								<timebase>24</timebase>
								<ntsc>TRUE</ntsc>
							</rate>
							<duration>56</duration>
							<timecode>
								<rate>
									<timebase>24</timebase>
									<ntsc>TRUE</ntsc>
								</rate>
								<string>10:54:29:00</string>
								<frame>942456</frame>
								<displayformat>NDF</displayformat>
								<reel>
									<name>C0260004</name>
								</reel>
							</timecode>
							<media>
								<video>
									<samplecharacteristics>
										<rate>
											<timebase>24</timebase>
											<ntsc>TRUE</ntsc>
										</rate>
										<width>3840</width>
										<height>2160</height>
										<anamorphic>FALSE</anamorphic>
										<pixelaspectratio>square</pixelaspectratio>
										<fielddominance>none</fielddominance>
									</samplecharacteristics>
								</video>
							</media>
						</file>
						<logginginfo>
							<description></description>
							<scene></scene>
							<shottake></shottake>
							<lognote></lognote>
							<good></good>
							<originalvideofilename></originalvideofilename>
							<originalaudiofilename></originalaudiofilename>
						</logginginfo>
						<colorinfo>
							<lut></lut>
							<lut1></lut1>
							<asc_sop></asc_sop>
							<asc_sat></asc_sat>
							<lut2></lut2>
						</colorinfo>
						<labels>
							<label2>Violet</label2>
						</labels>
					</clipitem>
					<clipitem id="clipitem-1602">
						<masterclipid>masterclip-1599</masterclipid>
						<name>TKO_023_GUY_Sh16750.mov</name>
						<enabled>TRUE</enabled>
						<duration>40</duration>
						<rate>
							<timebase>24</timebase>
							<ntsc>TRUE</ntsc>
						</rate>
						<start>112049</start>
						<end>112081</end>
						<in>4</in>
						<out>36</out>
						<pproTicksIn>42378336000</pproTicksIn>
						<pproTicksOut>381405024000</pproTicksOut>
						<alphatype>none</alphatype>
						<pixelaspectratio>square</pixelaspectratio>
						<anamorphic>FALSE</anamorphic>
						<file id="file-1599">
							<name>TKO_023_GUY_Sh16750.mov</name>
							<pathurl>file://tri-stor01/Projects/TKO/SHOTS/_Refs_Movs_Burnin_FrameCounter/TKO_023_GUY_Sh16750.mov</pathurl>
							<rate>
								<timebase>24</timebase>
								<ntsc>TRUE</ntsc>
							</rate>
							<duration>40</duration>
							<timecode>
								<rate>
									<timebase>24</timebase>
									<ntsc>TRUE</ntsc>
								</rate>
								<string>17:25:58:14</string>
								<frame>1506206</frame>
								<displayformat>NDF</displayformat>
								<reel>
									<name>B0300006</name>
								</reel>
							</timecode>
							<media>
								<video>
									<samplecharacteristics>
										<rate>
											<timebase>24</timebase>
											<ntsc>TRUE</ntsc>
										</rate>
										<width>4096</width>
										<height>2160</height>
										<anamorphic>FALSE</anamorphic>
										<pixelaspectratio>square</pixelaspectratio>
										<fielddominance>none</fielddominance>
									</samplecharacteristics>
								</video>
							</media>
						</file>
						<logginginfo>
							<description></description>
							<scene></scene>
							<shottake></shottake>
							<lognote></lognote>
							<good></good>
							<originalvideofilename></originalvideofilename>
							<originalaudiofilename></originalaudiofilename>
						</logginginfo>
						<colorinfo>
							<lut></lut>
							<lut1></lut1>
							<asc_sop></asc_sop>
							<asc_sat></asc_sat>
							<lut2></lut2>
						</colorinfo>
						<labels>
							<label2>Violet</label2>
						</labels>
					</clipitem>
					<clipitem id="clipitem-1603">
						<masterclipid>masterclip-1600</masterclipid>
						<name>TKO_023_GUY_Sh16760.mov</name>
						<enabled>TRUE</enabled>
						<duration>58</duration>
						<rate>
							<timebase>24</timebase>
							<ntsc>TRUE</ntsc>
						</rate>
						<start>112081</start>
						<end>112131</end>
						<in>4</in>
						<out>54</out>
						<pproTicksIn>42378336000</pproTicksIn>
						<pproTicksOut>572107536000</pproTicksOut>
						<alphatype>none</alphatype>
						<pixelaspectratio>square</pixelaspectratio>
						<anamorphic>FALSE</anamorphic>
						<file id="file-1600">
							<name>TKO_023_GUY_Sh16760.mov</name>
							<pathurl>file://tri-stor01/Projects/TKO/SHOTS/_Refs_Movs_Burnin_FrameCounter/TKO_023_GUY_Sh16760.mov</pathurl>
							<rate>
								<timebase>24</timebase>
								<ntsc>TRUE</ntsc>
							</rate>
							<duration>58</duration>
							<timecode>
								<rate>
									<timebase>24</timebase>
									<ntsc>TRUE</ntsc>
								</rate>
								<string>10:59:52:21</string>
								<frame>950229</frame>
								<displayformat>NDF</displayformat>
								<reel>
									<name>C0260006</name>
								</reel>
							</timecode>
							<media>
								<video>
									<samplecharacteristics>
										<rate>
											<timebase>24</timebase>
											<ntsc>TRUE</ntsc>
										</rate>
										<width>3840</width>
										<height>2160</height>
										<anamorphic>FALSE</anamorphic>
										<pixelaspectratio>square</pixelaspectratio>
										<fielddominance>none</fielddominance>
									</samplecharacteristics>
								</video>
							</media>
						</file>
						<logginginfo>
							<description></description>
							<scene></scene>
							<shottake></shottake>
							<lognote></lognote>
							<good></good>
							<originalvideofilename></originalvideofilename>
							<originalaudiofilename></originalaudiofilename>
						</logginginfo>
						<colorinfo>
							<lut></lut>
							<lut1></lut1>
							<asc_sop></asc_sop>
							<asc_sat></asc_sat>
							<lut2></lut2>
						</colorinfo>
						<labels>
							<label2>Violet</label2>
						</labels>
					</clipitem>
					<clipitem id="clipitem-1604">
						<masterclipid>masterclip-1601</masterclipid>
						<name>TKO_023_GUY_Sh16770.mov</name>
						<enabled>TRUE</enabled>
						<duration>150</duration>
						<rate>
							<timebase>24</timebase>
							<ntsc>TRUE</ntsc>
						</rate>
						<start>112131</start>
						<end>112273</end>
						<in>4</in>
						<out>146</out>
						<pproTicksIn>42378336000</pproTicksIn>
						<pproTicksOut>1546809264000</pproTicksOut>
						<alphatype>none</alphatype>
						<pixelaspectratio>square</pixelaspectratio>
						<anamorphic>FALSE</anamorphic>
						<file id="file-1601">
							<name>TKO_023_GUY_Sh16770.mov</name>
							<pathurl>file://tri-stor01/Projects/TKO/SHOTS/_Refs_Movs_Burnin_FrameCounter/TKO_023_GUY_Sh16770.mov</pathurl>
							<rate>
								<timebase>24</timebase>
								<ntsc>TRUE</ntsc>
							</rate>
							<duration>150</duration>
							<timecode>
								<rate>
									<timebase>24</timebase>
									<ntsc>TRUE</ntsc>
								</rate>
								<string>17:26:02:00</string>
								<frame>1506288</frame>
								<displayformat>NDF</displayformat>
								<reel>
									<name>A0360006</name>
								</reel>
							</timecode>
							<media>
								<video>
									<samplecharacteristics>
										<rate>
											<timebase>24</timebase>
											<ntsc>TRUE</ntsc>
										</rate>
										<width>4096</width>
										<height>2160</height>
										<anamorphic>FALSE</anamorphic>
										<pixelaspectratio>square</pixelaspectratio>
										<fielddominance>none</fielddominance>
									</samplecharacteristics>
								</video>
							</media>
						</file>
						<logginginfo>
							<description></description>
							<scene></scene>
							<shottake></shottake>
							<lognote></lognote>
							<good></good>
							<originalvideofilename></originalvideofilename>
							<originalaudiofilename></originalaudiofilename>
						</logginginfo>
						<colorinfo>
							<lut></lut>
							<lut1></lut1>
							<asc_sop></asc_sop>
							<asc_sat></asc_sat>
							<lut2></lut2>
						</colorinfo>
						<labels>
							<label2>Violet</label2>
						</labels>
					</clipitem>
					<clipitem id="clipitem-1605">
						<masterclipid>masterclip-1602</masterclipid>
						<name>TKO_023_GUY_Sh16780.mov</name>
						<enabled>TRUE</enabled>
						<duration>45</duration>
						<rate>
							<timebase>24</timebase>
							<ntsc>TRUE</ntsc>
						</rate>
						<start>112273</start>
						<end>112310</end>
						<in>4</in>
						<out>41</out>
						<pproTicksIn>42378336000</pproTicksIn>
						<pproTicksOut>434377944000</pproTicksOut>
						<alphatype>none</alphatype>
						<pixelaspectratio>square</pixelaspectratio>
						<anamorphic>FALSE</anamorphic>
						<file id="file-1602">
							<name>TKO_023_GUY_Sh16780.mov</name>
							<pathurl>file://tri-stor01/Projects/TKO/SHOTS/_Refs_Movs_Burnin_FrameCounter/TKO_023_GUY_Sh16780.mov</pathurl>
							<rate>
								<timebase>24</timebase>
								<ntsc>TRUE</ntsc>
							</rate>
							<duration>45</duration>
							<timecode>
								<rate>
									<timebase>24</timebase>
									<ntsc>TRUE</ntsc>
								</rate>
								<string>11:00:00:21</string>
								<frame>950421</frame>
								<displayformat>NDF</displayformat>
								<reel>
									<name>C0260006</name>
								</reel>
							</timecode>
							<media>
								<video>
									<samplecharacteristics>
										<rate>
											<timebase>24</timebase>
											<ntsc>TRUE</ntsc>
										</rate>
										<width>3840</width>
										<height>2160</height>
										<anamorphic>FALSE</anamorphic>
										<pixelaspectratio>square</pixelaspectratio>
										<fielddominance>none</fielddominance>
									</samplecharacteristics>
								</video>
							</media>
						</file>
						<logginginfo>
							<description></description>
							<scene></scene>
							<shottake></shottake>
							<lognote></lognote>
							<good></good>
							<originalvideofilename></originalvideofilename>
							<originalaudiofilename></originalaudiofilename>
						</logginginfo>
						<colorinfo>
							<lut></lut>
							<lut1></lut1>
							<asc_sop></asc_sop>
							<asc_sat></asc_sat>
							<lut2></lut2>
						</colorinfo>
						<labels>
							<label2>Violet</label2>
						</labels>
					</clipitem>
					<clipitem id="clipitem-1606">
						<masterclipid>masterclip-1603</masterclipid>
						<name>TKO_023_GUY_Sh16790.mov</name>
						<enabled>TRUE</enabled>
						<duration>47</duration>
						<rate>
							<timebase>24</timebase>
							<ntsc>TRUE</ntsc>
						</rate>
						<start>112310</start>
						<end>112349</end>
						<in>4</in>
						<out>43</out>
						<pproTicksIn>42378336000</pproTicksIn>
						<pproTicksOut>455567112000</pproTicksOut>
						<alphatype>none</alphatype>
						<pixelaspectratio>square</pixelaspectratio>
						<anamorphic>FALSE</anamorphic>
						<file id="file-1603">
							<name>TKO_023_GUY_Sh16790.mov</name>
							<pathurl>file://tri-stor01/Projects/TKO/SHOTS/_Refs_Movs_Burnin_FrameCounter/TKO_023_GUY_Sh16790.mov</pathurl>
							<rate>
								<timebase>24</timebase>
								<ntsc>TRUE</ntsc>
							</rate>
							<duration>47</duration>
							<timecode>
								<rate>
									<timebase>24</timebase>
									<ntsc>TRUE</ntsc>
								</rate>
								<string>17:26:09:11</string>
								<frame>1506467</frame>
								<displayformat>NDF</displayformat>
								<reel>
									<name>B0300006</name>
								</reel>
							</timecode>
							<media>
								<video>
									<samplecharacteristics>
										<rate>
											<timebase>24</timebase>
											<ntsc>TRUE</ntsc>
										</rate>
										<width>4096</width>
										<height>2160</height>
										<anamorphic>FALSE</anamorphic>
										<pixelaspectratio>square</pixelaspectratio>
										<fielddominance>none</fielddominance>
									</samplecharacteristics>
								</video>
							</media>
						</file>
						<logginginfo>
							<description></description>
							<scene></scene>
							<shottake></shottake>
							<lognote></lognote>
							<good></good>
							<originalvideofilename></originalvideofilename>
							<originalaudiofilename></originalaudiofilename>
						</logginginfo>
						<colorinfo>
							<lut></lut>
							<lut1></lut1>
							<asc_sop></asc_sop>
							<asc_sat></asc_sat>
							<lut2></lut2>
						</colorinfo>
						<labels>
							<label2>Violet</label2>
						</labels>
					</clipitem>
					<clipitem id="clipitem-1607">
						<masterclipid>masterclip-1604</masterclipid>
						<name>TKO_023_GUY_Sh16800.mov</name>
						<enabled>TRUE</enabled>
						<duration>85</duration>
						<rate>
							<timebase>24</timebase>
							<ntsc>TRUE</ntsc>
						</rate>
						<start>112349</start>
						<end>112426</end>
						<in>4</in>
						<out>81</out>
						<pproTicksIn>42378336000</pproTicksIn>
						<pproTicksOut>858161304000</pproTicksOut>
						<alphatype>none</alphatype>
						<pixelaspectratio>square</pixelaspectratio>
						<anamorphic>FALSE</anamorphic>
						<file id="file-1604">
							<name>TKO_023_GUY_Sh16800.mov</name>
							<pathurl>file://tri-stor01/Projects/TKO/SHOTS/_Refs_Movs_Burnin_FrameCounter/TKO_023_GUY_Sh16800.mov</pathurl>
							<rate>
								<timebase>24</timebase>
								<ntsc>TRUE</ntsc>
							</rate>
							<duration>85</duration>
							<timecode>
								<rate>
									<timebase>24</timebase>
									<ntsc>TRUE</ntsc>
								</rate>
								<string>17:26:11:02</string>
								<frame>1506506</frame>
								<displayformat>NDF</displayformat>
								<reel>
									<name>A0360006</name>
								</reel>
							</timecode>
							<media>
								<video>
									<samplecharacteristics>
										<rate>
											<timebase>24</timebase>
											<ntsc>TRUE</ntsc>
										</rate>
										<width>4096</width>
										<height>2160</height>
										<anamorphic>FALSE</anamorphic>
										<pixelaspectratio>square</pixelaspectratio>
										<fielddominance>none</fielddominance>
									</samplecharacteristics>
								</video>
							</media>
						</file>
						<logginginfo>
							<description></description>
							<scene></scene>
							<shottake></shottake>
							<lognote></lognote>
							<good></good>
							<originalvideofilename></originalvideofilename>
							<originalaudiofilename></originalaudiofilename>
						</logginginfo>
						<colorinfo>
							<lut></lut>
							<lut1></lut1>
							<asc_sop></asc_sop>
							<asc_sat></asc_sat>
							<lut2></lut2>
						</colorinfo>
						<labels>
							<label2>Violet</label2>
						</labels>
					</clipitem>
					<clipitem id="clipitem-1608">
						<masterclipid>masterclip-1605</masterclipid>
						<name>TKO_023_GUY_Sh16810.mov</name>
						<enabled>TRUE</enabled>
						<duration>116</duration>
						<rate>
							<timebase>24</timebase>
							<ntsc>TRUE</ntsc>
						</rate>
						<start>112426</start>
						<end>112534</end>
						<in>4</in>
						<out>112</out>
						<pproTicksIn>42378336000</pproTicksIn>
						<pproTicksOut>1186593408000</pproTicksOut>
						<alphatype>none</alphatype>
						<pixelaspectratio>square</pixelaspectratio>
						<anamorphic>FALSE</anamorphic>
						<file id="file-1605">
							<name>TKO_023_GUY_Sh16810.mov</name>
							<pathurl>file://tri-stor01/Projects/TKO/SHOTS/_Refs_Movs_Burnin_FrameCounter/TKO_023_GUY_Sh16810.mov</pathurl>
							<rate>
								<timebase>24</timebase>
								<ntsc>TRUE</ntsc>
							</rate>
							<duration>116</duration>
							<timecode>
								<rate>
									<timebase>24</timebase>
									<ntsc>TRUE</ntsc>
								</rate>
								<string>17:26:14:07</string>
								<frame>1506583</frame>
								<displayformat>NDF</displayformat>
								<reel>
									<name>B0300006</name>
								</reel>
							</timecode>
							<media>
								<video>
									<samplecharacteristics>
										<rate>
											<timebase>24</timebase>
											<ntsc>TRUE</ntsc>
										</rate>
										<width>4096</width>
										<height>2160</height>
										<anamorphic>FALSE</anamorphic>
										<pixelaspectratio>square</pixelaspectratio>
										<fielddominance>none</fielddominance>
									</samplecharacteristics>
								</video>
							</media>
						</file>
						<logginginfo>
							<description></description>
							<scene></scene>
							<shottake></shottake>
							<lognote></lognote>
							<good></good>
							<originalvideofilename></originalvideofilename>
							<originalaudiofilename></originalaudiofilename>
						</logginginfo>
						<colorinfo>
							<lut></lut>
							<lut1></lut1>
							<asc_sop></asc_sop>
							<asc_sat></asc_sat>
							<lut2></lut2>
						</colorinfo>
						<labels>
							<label2>Violet</label2>
						</labels>
					</clipitem>
					<clipitem id="clipitem-1609">
						<masterclipid>masterclip-1606</masterclipid>
						<name>TKO_023_GUY_Sh16820.mov</name>
						<enabled>TRUE</enabled>
						<duration>58</duration>
						<rate>
							<timebase>24</timebase>
							<ntsc>TRUE</ntsc>
						</rate>
						<start>112534</start>
						<end>112584</end>
						<in>4</in>
						<out>54</out>
						<pproTicksIn>42378336000</pproTicksIn>
						<pproTicksOut>572107536000</pproTicksOut>
						<alphatype>none</alphatype>
						<pixelaspectratio>square</pixelaspectratio>
						<anamorphic>FALSE</anamorphic>
						<file id="file-1606">
							<name>TKO_023_GUY_Sh16820.mov</name>
							<pathurl>file://tri-stor01/Projects/TKO/SHOTS/_Refs_Movs_Burnin_FrameCounter/TKO_023_GUY_Sh16820.mov</pathurl>
							<rate>
								<timebase>24</timebase>
								<ntsc>TRUE</ntsc>
							</rate>
							<duration>58</duration>
							<timecode>
								<rate>
									<timebase>24</timebase>
									<ntsc>TRUE</ntsc>
								</rate>
								<string>17:26:18:19</string>
								<frame>1506691</frame>
								<displayformat>NDF</displayformat>
								<reel>
									<name>A0360006</name>
								</reel>
							</timecode>
							<media>
								<video>
									<samplecharacteristics>
										<rate>
											<timebase>24</timebase>
											<ntsc>TRUE</ntsc>
										</rate>
										<width>4096</width>
										<height>2160</height>
										<anamorphic>FALSE</anamorphic>
										<pixelaspectratio>square</pixelaspectratio>
										<fielddominance>none</fielddominance>
									</samplecharacteristics>
								</video>
							</media>
						</file>
						<logginginfo>
							<description></description>
							<scene></scene>
							<shottake></shottake>
							<lognote></lognote>
							<good></good>
							<originalvideofilename></originalvideofilename>
							<originalaudiofilename></originalaudiofilename>
						</logginginfo>
						<colorinfo>
							<lut></lut>
							<lut1></lut1>
							<asc_sop></asc_sop>
							<asc_sat></asc_sat>
							<lut2></lut2>
						</colorinfo>
						<labels>
							<label2>Violet</label2>
						</labels>
					</clipitem>
					<clipitem id="clipitem-1610">
						<masterclipid>masterclip-1607</masterclipid>
						<name>TKO_023_GUY_Sh16830.mov</name>
						<enabled>TRUE</enabled>
						<duration>74</duration>
						<rate>
							<timebase>24</timebase>
							<ntsc>TRUE</ntsc>
						</rate>
						<start>112584</start>
						<end>112650</end>
						<in>4</in>
						<out>70</out>
						<pproTicksIn>42378336000</pproTicksIn>
						<pproTicksOut>741620880000</pproTicksOut>
						<alphatype>none</alphatype>
						<pixelaspectratio>square</pixelaspectratio>
						<anamorphic>FALSE</anamorphic>
						<file id="file-1607">
							<name>TKO_023_GUY_Sh16830.mov</name>
							<pathurl>file://tri-stor01/Projects/TKO/SHOTS/_Refs_Movs_Burnin_FrameCounter/TKO_023_GUY_Sh16830.mov</pathurl>
							<rate>
								<timebase>24</timebase>
								<ntsc>TRUE</ntsc>
							</rate>
							<duration>74</duration>
							<timecode>
								<rate>
									<timebase>24</timebase>
									<ntsc>TRUE</ntsc>
								</rate>
								<string>17:26:20:21</string>
								<frame>1506741</frame>
								<displayformat>NDF</displayformat>
								<reel>
									<name>B0300006</name>
								</reel>
							</timecode>
							<media>
								<video>
									<samplecharacteristics>
										<rate>
											<timebase>24</timebase>
											<ntsc>TRUE</ntsc>
										</rate>
										<width>4096</width>
										<height>2160</height>
										<anamorphic>FALSE</anamorphic>
										<pixelaspectratio>square</pixelaspectratio>
										<fielddominance>none</fielddominance>
									</samplecharacteristics>
								</video>
							</media>
						</file>
						<logginginfo>
							<description></description>
							<scene></scene>
							<shottake></shottake>
							<lognote></lognote>
							<good></good>
							<originalvideofilename></originalvideofilename>
							<originalaudiofilename></originalaudiofilename>
						</logginginfo>
						<colorinfo>
							<lut></lut>
							<lut1></lut1>
							<asc_sop></asc_sop>
							<asc_sat></asc_sat>
							<lut2></lut2>
						</colorinfo>
						<labels>
							<label2>Violet</label2>
						</labels>
					</clipitem>
					<clipitem id="clipitem-1611">
						<masterclipid>masterclip-1608</masterclipid>
						<name>TKO_023_GUY_Sh16840.mov</name>
						<enabled>TRUE</enabled>
						<duration>45</duration>
						<rate>
							<timebase>24</timebase>
							<ntsc>TRUE</ntsc>
						</rate>
						<start>112650</start>
						<end>112687</end>
						<in>4</in>
						<out>41</out>
						<pproTicksIn>42378336000</pproTicksIn>
						<pproTicksOut>434377944000</pproTicksOut>
						<alphatype>none</alphatype>
						<pixelaspectratio>square</pixelaspectratio>
						<anamorphic>FALSE</anamorphic>
						<file id="file-1608">
							<name>TKO_023_GUY_Sh16840.mov</name>
							<pathurl>file://tri-stor01/Projects/TKO/SHOTS/_Refs_Movs_Burnin_FrameCounter/TKO_023_GUY_Sh16840.mov</pathurl>
							<rate>
								<timebase>24</timebase>
								<ntsc>TRUE</ntsc>
							</rate>
							<duration>45</duration>
							<timecode>
								<rate>
									<timebase>24</timebase>
									<ntsc>TRUE</ntsc>
								</rate>
								<string>10:54:58:18</string>
								<frame>943170</frame>
								<displayformat>NDF</displayformat>
								<reel>
									<name>C0260004</name>
								</reel>
							</timecode>
							<media>
								<video>
									<samplecharacteristics>
										<rate>
											<timebase>24</timebase>
											<ntsc>TRUE</ntsc>
										</rate>
										<width>3840</width>
										<height>2160</height>
										<anamorphic>FALSE</anamorphic>
										<pixelaspectratio>square</pixelaspectratio>
										<fielddominance>none</fielddominance>
									</samplecharacteristics>
								</video>
							</media>
						</file>
						<logginginfo>
							<description></description>
							<scene></scene>
							<shottake></shottake>
							<lognote></lognote>
							<good></good>
							<originalvideofilename></originalvideofilename>
							<originalaudiofilename></originalaudiofilename>
						</logginginfo>
						<colorinfo>
							<lut></lut>
							<lut1></lut1>
							<asc_sop></asc_sop>
							<asc_sat></asc_sat>
							<lut2></lut2>
						</colorinfo>
						<labels>
							<label2>Violet</label2>
						</labels>
					</clipitem>
					<clipitem id="clipitem-1612">
						<masterclipid>masterclip-1609</masterclipid>
						<name>TKO_023_GUY_Sh16850.mov</name>
						<enabled>TRUE</enabled>
						<duration>103</duration>
						<rate>
							<timebase>24</timebase>
							<ntsc>TRUE</ntsc>
						</rate>
						<start>112687</start>
						<end>112782</end>
						<in>4</in>
						<out>99</out>
						<pproTicksIn>42378336000</pproTicksIn>
						<pproTicksOut>1048863816000</pproTicksOut>
						<alphatype>none</alphatype>
						<pixelaspectratio>square</pixelaspectratio>
						<anamorphic>FALSE</anamorphic>
						<file id="file-1609">
							<name>TKO_023_GUY_Sh16850.mov</name>
							<pathurl>file://tri-stor01/Projects/TKO/SHOTS/_Refs_Movs_Burnin_FrameCounter/TKO_023_GUY_Sh16850.mov</pathurl>
							<rate>
								<timebase>24</timebase>
								<ntsc>TRUE</ntsc>
							</rate>
							<duration>103</duration>
							<timecode>
								<rate>
									<timebase>24</timebase>
									<ntsc>TRUE</ntsc>
								</rate>
								<string>17:26:24:09</string>
								<frame>1506825</frame>
								<displayformat>NDF</displayformat>
								<reel>
									<name>A0360006</name>
								</reel>
							</timecode>
							<media>
								<video>
									<samplecharacteristics>
										<rate>
											<timebase>24</timebase>
											<ntsc>TRUE</ntsc>
										</rate>
										<width>4096</width>
										<height>2160</height>
										<anamorphic>FALSE</anamorphic>
										<pixelaspectratio>square</pixelaspectratio>
										<fielddominance>none</fielddominance>
									</samplecharacteristics>
								</video>
							</media>
						</file>
						<logginginfo>
							<description></description>
							<scene></scene>
							<shottake></shottake>
							<lognote></lognote>
							<good></good>
							<originalvideofilename></originalvideofilename>
							<originalaudiofilename></originalaudiofilename>
						</logginginfo>
						<colorinfo>
							<lut></lut>
							<lut1></lut1>
							<asc_sop></asc_sop>
							<asc_sat></asc_sat>
							<lut2></lut2>
						</colorinfo>
						<labels>
							<label2>Violet</label2>
						</labels>
					</clipitem>
					<clipitem id="clipitem-1613">
						<masterclipid>masterclip-1610</masterclipid>
						<name>TKO_023_GUY_Sh16860.mov</name>
						<enabled>TRUE</enabled>
						<duration>215</duration>
						<rate>
							<timebase>24</timebase>
							<ntsc>TRUE</ntsc>
						</rate>
						<start>112782</start>
						<end>112989</end>
						<in>4</in>
						<out>211</out>
						<pproTicksIn>42378336000</pproTicksIn>
						<pproTicksOut>2235457224000</pproTicksOut>
						<alphatype>none</alphatype>
						<pixelaspectratio>square</pixelaspectratio>
						<anamorphic>FALSE</anamorphic>
						<file id="file-1610">
							<name>TKO_023_GUY_Sh16860.mov</name>
							<pathurl>file://tri-stor01/Projects/TKO/SHOTS/_Refs_Movs_Burnin_FrameCounter/TKO_023_GUY_Sh16860.mov</pathurl>
							<rate>
								<timebase>24</timebase>
								<ntsc>TRUE</ntsc>
							</rate>
							<duration>215</duration>
							<timecode>
								<rate>
									<timebase>24</timebase>
									<ntsc>TRUE</ntsc>
								</rate>
								<string>17:52:29:05</string>
								<frame>1544381</frame>
								<displayformat>NDF</displayformat>
								<reel>
									<name>A0360011</name>
								</reel>
							</timecode>
							<media>
								<video>
									<samplecharacteristics>
										<rate>
											<timebase>24</timebase>
											<ntsc>TRUE</ntsc>
										</rate>
										<width>4096</width>
										<height>2160</height>
										<anamorphic>FALSE</anamorphic>
										<pixelaspectratio>square</pixelaspectratio>
										<fielddominance>none</fielddominance>
									</samplecharacteristics>
								</video>
							</media>
						</file>
						<logginginfo>
							<description></description>
							<scene></scene>
							<shottake></shottake>
							<lognote></lognote>
							<good></good>
							<originalvideofilename></originalvideofilename>
							<originalaudiofilename></originalaudiofilename>
						</logginginfo>
						<colorinfo>
							<lut></lut>
							<lut1></lut1>
							<asc_sop></asc_sop>
							<asc_sat></asc_sat>
							<lut2></lut2>
						</colorinfo>
						<labels>
							<label2>Violet</label2>
						</labels>
					</clipitem>
					<clipitem id="clipitem-1614">
						<masterclipid>masterclip-1611</masterclipid>
						<name>TKO_023_GUY_Sh16870.mov</name>
						<enabled>TRUE</enabled>
						<duration>78</duration>
						<rate>
							<timebase>24</timebase>
							<ntsc>TRUE</ntsc>
						</rate>
						<start>112989</start>
						<end>113059</end>
						<in>4</in>
						<out>74</out>
						<pproTicksIn>42378336000</pproTicksIn>
						<pproTicksOut>783999216000</pproTicksOut>
						<alphatype>none</alphatype>
						<pixelaspectratio>square</pixelaspectratio>
						<anamorphic>FALSE</anamorphic>
						<file id="file-1611">
							<name>TKO_023_GUY_Sh16870.mov</name>
							<pathurl>file://tri-stor01/Projects/TKO/SHOTS/_Refs_Movs_Burnin_FrameCounter/TKO_023_GUY_Sh16870.mov</pathurl>
							<rate>
								<timebase>24</timebase>
								<ntsc>TRUE</ntsc>
							</rate>
							<duration>78</duration>
							<timecode>
								<rate>
									<timebase>24</timebase>
									<ntsc>TRUE</ntsc>
								</rate>
								<string>17:45:40:20</string>
								<frame>1534580</frame>
								<displayformat>NDF</displayformat>
								<reel>
									<name>A0360009</name>
								</reel>
							</timecode>
							<media>
								<video>
									<samplecharacteristics>
										<rate>
											<timebase>24</timebase>
											<ntsc>TRUE</ntsc>
										</rate>
										<width>4096</width>
										<height>2160</height>
										<anamorphic>FALSE</anamorphic>
										<pixelaspectratio>square</pixelaspectratio>
										<fielddominance>none</fielddominance>
									</samplecharacteristics>
								</video>
							</media>
						</file>
						<logginginfo>
							<description></description>
							<scene></scene>
							<shottake></shottake>
							<lognote></lognote>
							<good></good>
							<originalvideofilename></originalvideofilename>
							<originalaudiofilename></originalaudiofilename>
						</logginginfo>
						<colorinfo>
							<lut></lut>
							<lut1></lut1>
							<asc_sop></asc_sop>
							<asc_sat></asc_sat>
							<lut2></lut2>
						</colorinfo>
						<labels>
							<label2>Violet</label2>
						</labels>
					</clipitem>
					<clipitem id="clipitem-1615">
						<masterclipid>masterclip-1612</masterclipid>
						<name>TKO_023_GUY_Sh16880.mov</name>
						<enabled>TRUE</enabled>
						<duration>36</duration>
						<rate>
							<timebase>24</timebase>
							<ntsc>TRUE</ntsc>
						</rate>
						<start>113059</start>
						<end>113087</end>
						<in>4</in>
						<out>32</out>
						<pproTicksIn>42378336000</pproTicksIn>
						<pproTicksOut>339026688000</pproTicksOut>
						<alphatype>none</alphatype>
						<pixelaspectratio>square</pixelaspectratio>
						<anamorphic>FALSE</anamorphic>
						<file id="file-1612">
							<name>TKO_023_GUY_Sh16880.mov</name>
							<pathurl>file://tri-stor01/Projects/TKO/SHOTS/_Refs_Movs_Burnin_FrameCounter/TKO_023_GUY_Sh16880.mov</pathurl>
							<rate>
								<timebase>24</timebase>
								<ntsc>TRUE</ntsc>
							</rate>
							<duration>36</duration>
							<timecode>
								<rate>
									<timebase>24</timebase>
									<ntsc>TRUE</ntsc>
								</rate>
								<string>17:26:39:23</string>
								<frame>1507199</frame>
								<displayformat>NDF</displayformat>
								<reel>
									<name>A0360006</name>
								</reel>
							</timecode>
							<media>
								<video>
									<samplecharacteristics>
										<rate>
											<timebase>24</timebase>
											<ntsc>TRUE</ntsc>
										</rate>
										<width>4096</width>
										<height>2160</height>
										<anamorphic>FALSE</anamorphic>
										<pixelaspectratio>square</pixelaspectratio>
										<fielddominance>none</fielddominance>
									</samplecharacteristics>
								</video>
							</media>
						</file>
						<logginginfo>
							<description></description>
							<scene></scene>
							<shottake></shottake>
							<lognote></lognote>
							<good></good>
							<originalvideofilename></originalvideofilename>
							<originalaudiofilename></originalaudiofilename>
						</logginginfo>
						<colorinfo>
							<lut></lut>
							<lut1></lut1>
							<asc_sop></asc_sop>
							<asc_sat></asc_sat>
							<lut2></lut2>
						</colorinfo>
						<labels>
							<label2>Violet</label2>
						</labels>
					</clipitem>
					<clipitem id="clipitem-1616">
						<masterclipid>masterclip-1613</masterclipid>
						<name>TKO_023_GUY_Sh16890.mov</name>
						<enabled>TRUE</enabled>
						<duration>65</duration>
						<rate>
							<timebase>24</timebase>
							<ntsc>TRUE</ntsc>
						</rate>
						<start>113087</start>
						<end>113144</end>
						<in>4</in>
						<out>61</out>
						<pproTicksIn>42378336000</pproTicksIn>
						<pproTicksOut>646269624000</pproTicksOut>
						<alphatype>none</alphatype>
						<pixelaspectratio>square</pixelaspectratio>
						<anamorphic>FALSE</anamorphic>
						<file id="file-1613">
							<name>TKO_023_GUY_Sh16890.mov</name>
							<pathurl>file://tri-stor01/Projects/TKO/SHOTS/_Refs_Movs_Burnin_FrameCounter/TKO_023_GUY_Sh16890.mov</pathurl>
							<rate>
								<timebase>24</timebase>
								<ntsc>TRUE</ntsc>
							</rate>
							<duration>65</duration>
							<timecode>
								<rate>
									<timebase>24</timebase>
									<ntsc>TRUE</ntsc>
								</rate>
								<string>17:45:44:12</string>
								<frame>1534668</frame>
								<displayformat>NDF</displayformat>
								<reel>
									<name>A0360009</name>
								</reel>
							</timecode>
							<media>
								<video>
									<samplecharacteristics>
										<rate>
											<timebase>24</timebase>
											<ntsc>TRUE</ntsc>
										</rate>
										<width>4096</width>
										<height>2160</height>
										<anamorphic>FALSE</anamorphic>
										<pixelaspectratio>square</pixelaspectratio>
										<fielddominance>none</fielddominance>
									</samplecharacteristics>
								</video>
							</media>
						</file>
						<logginginfo>
							<description></description>
							<scene></scene>
							<shottake></shottake>
							<lognote></lognote>
							<good></good>
							<originalvideofilename></originalvideofilename>
							<originalaudiofilename></originalaudiofilename>
						</logginginfo>
						<colorinfo>
							<lut></lut>
							<lut1></lut1>
							<asc_sop></asc_sop>
							<asc_sat></asc_sat>
							<lut2></lut2>
						</colorinfo>
						<labels>
							<label2>Violet</label2>
						</labels>
					</clipitem>
					<clipitem id="clipitem-1617">
						<masterclipid>masterclip-1614</masterclipid>
						<name>TKO_023_GUY_Sh16900.mov</name>
						<enabled>TRUE</enabled>
						<duration>50</duration>
						<rate>
							<timebase>24</timebase>
							<ntsc>TRUE</ntsc>
						</rate>
						<start>113144</start>
						<end>113186</end>
						<in>4</in>
						<out>46</out>
						<pproTicksIn>42378336000</pproTicksIn>
						<pproTicksOut>487350864000</pproTicksOut>
						<alphatype>none</alphatype>
						<pixelaspectratio>square</pixelaspectratio>
						<anamorphic>FALSE</anamorphic>
						<file id="file-1614">
							<name>TKO_023_GUY_Sh16900.mov</name>
							<pathurl>file://tri-stor01/Projects/TKO/SHOTS/_Refs_Movs_Burnin_FrameCounter/TKO_023_GUY_Sh16900.mov</pathurl>
							<rate>
								<timebase>24</timebase>
								<ntsc>TRUE</ntsc>
							</rate>
							<duration>50</duration>
							<timecode>
								<rate>
									<timebase>24</timebase>
									<ntsc>TRUE</ntsc>
								</rate>
								<string>17:26:42:23</string>
								<frame>1507271</frame>
								<displayformat>NDF</displayformat>
								<reel>
									<name>A0360006</name>
								</reel>
							</timecode>
							<media>
								<video>
									<samplecharacteristics>
										<rate>
											<timebase>24</timebase>
											<ntsc>TRUE</ntsc>
										</rate>
										<width>4096</width>
										<height>2160</height>
										<anamorphic>FALSE</anamorphic>
										<pixelaspectratio>square</pixelaspectratio>
										<fielddominance>none</fielddominance>
									</samplecharacteristics>
								</video>
							</media>
						</file>
						<logginginfo>
							<description></description>
							<scene></scene>
							<shottake></shottake>
							<lognote></lognote>
							<good></good>
							<originalvideofilename></originalvideofilename>
							<originalaudiofilename></originalaudiofilename>
						</logginginfo>
						<colorinfo>
							<lut></lut>
							<lut1></lut1>
							<asc_sop></asc_sop>
							<asc_sat></asc_sat>
							<lut2></lut2>
						</colorinfo>
						<labels>
							<label2>Violet</label2>
						</labels>
					</clipitem>
					<clipitem id="clipitem-1618">
						<masterclipid>masterclip-1615</masterclipid>
						<name>TKO_023_GUY_Sh16910.mov</name>
						<enabled>TRUE</enabled>
						<duration>43</duration>
						<rate>
							<timebase>24</timebase>
							<ntsc>TRUE</ntsc>
						</rate>
						<start>113186</start>
						<end>113221</end>
						<in>4</in>
						<out>39</out>
						<pproTicksIn>42378336000</pproTicksIn>
						<pproTicksOut>413188776000</pproTicksOut>
						<alphatype>none</alphatype>
						<pixelaspectratio>square</pixelaspectratio>
						<anamorphic>FALSE</anamorphic>
						<file id="file-1615">
							<name>TKO_023_GUY_Sh16910.mov</name>
							<pathurl>file://tri-stor01/Projects/TKO/SHOTS/_Refs_Movs_Burnin_FrameCounter/TKO_023_GUY_Sh16910.mov</pathurl>
							<rate>
								<timebase>24</timebase>
								<ntsc>TRUE</ntsc>
							</rate>
							<duration>43</duration>
							<timecode>
								<rate>
									<timebase>24</timebase>
									<ntsc>TRUE</ntsc>
								</rate>
								<string>17:45:49:23</string>
								<frame>1534799</frame>
								<displayformat>NDF</displayformat>
								<reel>
									<name>A0360009</name>
								</reel>
							</timecode>
							<media>
								<video>
									<samplecharacteristics>
										<rate>
											<timebase>24</timebase>
											<ntsc>TRUE</ntsc>
										</rate>
										<width>4096</width>
										<height>2160</height>
										<anamorphic>FALSE</anamorphic>
										<pixelaspectratio>square</pixelaspectratio>
										<fielddominance>none</fielddominance>
									</samplecharacteristics>
								</video>
							</media>
						</file>
						<logginginfo>
							<description></description>
							<scene></scene>
							<shottake></shottake>
							<lognote></lognote>
							<good></good>
							<originalvideofilename></originalvideofilename>
							<originalaudiofilename></originalaudiofilename>
						</logginginfo>
						<colorinfo>
							<lut></lut>
							<lut1></lut1>
							<asc_sop></asc_sop>
							<asc_sat></asc_sat>
							<lut2></lut2>
						</colorinfo>
						<labels>
							<label2>Violet</label2>
						</labels>
					</clipitem>
					<clipitem id="clipitem-1619">
						<masterclipid>masterclip-1616</masterclipid>
						<name>TKO_023_GUY_Sh16920.mov</name>
						<enabled>TRUE</enabled>
						<duration>30</duration>
						<rate>
							<timebase>24</timebase>
							<ntsc>TRUE</ntsc>
						</rate>
						<start>113221</start>
						<end>113243</end>
						<in>4</in>
						<out>26</out>
						<pproTicksIn>42378336000</pproTicksIn>
						<pproTicksOut>275459184000</pproTicksOut>
						<alphatype>none</alphatype>
						<pixelaspectratio>square</pixelaspectratio>
						<anamorphic>FALSE</anamorphic>
						<file id="file-1616">
							<name>TKO_023_GUY_Sh16920.mov</name>
							<pathurl>file://tri-stor01/Projects/TKO/SHOTS/_Refs_Movs_Burnin_FrameCounter/TKO_023_GUY_Sh16920.mov</pathurl>
							<rate>
								<timebase>24</timebase>
								<ntsc>TRUE</ntsc>
							</rate>
							<duration>30</duration>
							<timecode>
								<rate>
									<timebase>24</timebase>
									<ntsc>TRUE</ntsc>
								</rate>
								<string>17:26:46:16</string>
								<frame>1507360</frame>
								<displayformat>NDF</displayformat>
								<reel>
									<name>B0300006</name>
								</reel>
							</timecode>
							<media>
								<video>
									<samplecharacteristics>
										<rate>
											<timebase>24</timebase>
											<ntsc>TRUE</ntsc>
										</rate>
										<width>4096</width>
										<height>2160</height>
										<anamorphic>FALSE</anamorphic>
										<pixelaspectratio>square</pixelaspectratio>
										<fielddominance>none</fielddominance>
									</samplecharacteristics>
								</video>
							</media>
						</file>
						<logginginfo>
							<description></description>
							<scene></scene>
							<shottake></shottake>
							<lognote></lognote>
							<good></good>
							<originalvideofilename></originalvideofilename>
							<originalaudiofilename></originalaudiofilename>
						</logginginfo>
						<colorinfo>
							<lut></lut>
							<lut1></lut1>
							<asc_sop></asc_sop>
							<asc_sat></asc_sat>
							<lut2></lut2>
						</colorinfo>
						<labels>
							<label2>Violet</label2>
						</labels>
					</clipitem>
					<clipitem id="clipitem-1620">
						<masterclipid>masterclip-1617</masterclipid>
						<name>TKO_023_GUY_Sh16930.mov</name>
						<enabled>TRUE</enabled>
						<duration>70</duration>
						<rate>
							<timebase>24</timebase>
							<ntsc>TRUE</ntsc>
						</rate>
						<start>113243</start>
						<end>113305</end>
						<in>4</in>
						<out>66</out>
						<pproTicksIn>42378336000</pproTicksIn>
						<pproTicksOut>699242544000</pproTicksOut>
						<alphatype>none</alphatype>
						<pixelaspectratio>square</pixelaspectratio>
						<anamorphic>FALSE</anamorphic>
						<file id="file-1617">
							<name>TKO_023_GUY_Sh16930.mov</name>
							<pathurl>file://tri-stor01/Projects/TKO/SHOTS/_Refs_Movs_Burnin_FrameCounter/TKO_023_GUY_Sh16930.mov</pathurl>
							<rate>
								<timebase>24</timebase>
								<ntsc>TRUE</ntsc>
							</rate>
							<duration>70</duration>
							<timecode>
								<rate>
									<timebase>24</timebase>
									<ntsc>TRUE</ntsc>
								</rate>
								<string>17:45:51:22</string>
								<frame>1534846</frame>
								<displayformat>NDF</displayformat>
								<reel>
									<name>A0360009</name>
								</reel>
							</timecode>
							<media>
								<video>
									<samplecharacteristics>
										<rate>
											<timebase>24</timebase>
											<ntsc>TRUE</ntsc>
										</rate>
										<width>4096</width>
										<height>2160</height>
										<anamorphic>FALSE</anamorphic>
										<pixelaspectratio>square</pixelaspectratio>
										<fielddominance>none</fielddominance>
									</samplecharacteristics>
								</video>
							</media>
						</file>
						<logginginfo>
							<description></description>
							<scene></scene>
							<shottake></shottake>
							<lognote></lognote>
							<good></good>
							<originalvideofilename></originalvideofilename>
							<originalaudiofilename></originalaudiofilename>
						</logginginfo>
						<colorinfo>
							<lut></lut>
							<lut1></lut1>
							<asc_sop></asc_sop>
							<asc_sat></asc_sat>
							<lut2></lut2>
						</colorinfo>
						<labels>
							<label2>Violet</label2>
						</labels>
					</clipitem>
					<clipitem id="clipitem-1621">
						<masterclipid>masterclip-1618</masterclipid>
						<name>TKO_023_GUY_Sh16940.mov</name>
						<enabled>TRUE</enabled>
						<duration>104</duration>
						<rate>
							<timebase>24</timebase>
							<ntsc>TRUE</ntsc>
						</rate>
						<start>113305</start>
						<end>113401</end>
						<in>4</in>
						<out>100</out>
						<pproTicksIn>42378336000</pproTicksIn>
						<pproTicksOut>1059458400000</pproTicksOut>
						<alphatype>none</alphatype>
						<pixelaspectratio>square</pixelaspectratio>
						<anamorphic>FALSE</anamorphic>
						<file id="file-1618">
							<name>TKO_023_GUY_Sh16940.mov</name>
							<pathurl>file://tri-stor01/Projects/TKO/SHOTS/_Refs_Movs_Burnin_FrameCounter/TKO_023_GUY_Sh16940.mov</pathurl>
							<rate>
								<timebase>24</timebase>
								<ntsc>TRUE</ntsc>
							</rate>
							<duration>104</duration>
							<timecode>
								<rate>
									<timebase>24</timebase>
									<ntsc>TRUE</ntsc>
								</rate>
								<string>17:26:51:16</string>
								<frame>1507480</frame>
								<displayformat>NDF</displayformat>
								<reel>
									<name>A0360006</name>
								</reel>
							</timecode>
							<media>
								<video>
									<samplecharacteristics>
										<rate>
											<timebase>24</timebase>
											<ntsc>TRUE</ntsc>
										</rate>
										<width>4096</width>
										<height>2160</height>
										<anamorphic>FALSE</anamorphic>
										<pixelaspectratio>square</pixelaspectratio>
										<fielddominance>none</fielddominance>
									</samplecharacteristics>
								</video>
							</media>
						</file>
						<logginginfo>
							<description></description>
							<scene></scene>
							<shottake></shottake>
							<lognote></lognote>
							<good></good>
							<originalvideofilename></originalvideofilename>
							<originalaudiofilename></originalaudiofilename>
						</logginginfo>
						<colorinfo>
							<lut></lut>
							<lut1></lut1>
							<asc_sop></asc_sop>
							<asc_sat></asc_sat>
							<lut2></lut2>
						</colorinfo>
						<labels>
							<label2>Violet</label2>
						</labels>
					</clipitem>
					<clipitem id="clipitem-1622">
						<masterclipid>masterclip-1619</masterclipid>
						<name>TKO_023_GUY_Sh16950.mov</name>
						<enabled>TRUE</enabled>
						<duration>24</duration>
						<rate>
							<timebase>24</timebase>
							<ntsc>TRUE</ntsc>
						</rate>
						<start>113401</start>
						<end>113417</end>
						<in>4</in>
						<out>20</out>
						<pproTicksIn>42378336000</pproTicksIn>
						<pproTicksOut>211891680000</pproTicksOut>
						<alphatype>none</alphatype>
						<pixelaspectratio>square</pixelaspectratio>
						<anamorphic>FALSE</anamorphic>
						<file id="file-1619">
							<name>TKO_023_GUY_Sh16950.mov</name>
							<pathurl>file://tri-stor01/Projects/TKO/SHOTS/_Refs_Movs_Burnin_FrameCounter/TKO_023_GUY_Sh16950.mov</pathurl>
							<rate>
								<timebase>24</timebase>
								<ntsc>TRUE</ntsc>
							</rate>
							<duration>24</duration>
							<timecode>
								<rate>
									<timebase>24</timebase>
									<ntsc>TRUE</ntsc>
								</rate>
								<string>17:26:56:10</string>
								<frame>1507594</frame>
								<displayformat>NDF</displayformat>
								<reel>
									<name>B0300006</name>
								</reel>
							</timecode>
							<media>
								<video>
									<samplecharacteristics>
										<rate>
											<timebase>24</timebase>
											<ntsc>TRUE</ntsc>
										</rate>
										<width>4096</width>
										<height>2160</height>
										<anamorphic>FALSE</anamorphic>
										<pixelaspectratio>square</pixelaspectratio>
										<fielddominance>none</fielddominance>
									</samplecharacteristics>
								</video>
							</media>
						</file>
						<logginginfo>
							<description></description>
							<scene></scene>
							<shottake></shottake>
							<lognote></lognote>
							<good></good>
							<originalvideofilename></originalvideofilename>
							<originalaudiofilename></originalaudiofilename>
						</logginginfo>
						<colorinfo>
							<lut></lut>
							<lut1></lut1>
							<asc_sop></asc_sop>
							<asc_sat></asc_sat>
							<lut2></lut2>
						</colorinfo>
						<labels>
							<label2>Violet</label2>
						</labels>
					</clipitem>
					<clipitem id="clipitem-1623">
						<masterclipid>masterclip-1620</masterclipid>
						<name>TKO_023_GUY_Sh16960.mov</name>
						<enabled>TRUE</enabled>
						<duration>42</duration>
						<rate>
							<timebase>24</timebase>
							<ntsc>TRUE</ntsc>
						</rate>
						<start>113417</start>
						<end>113451</end>
						<in>4</in>
						<out>38</out>
						<pproTicksIn>42378336000</pproTicksIn>
						<pproTicksOut>402594192000</pproTicksOut>
						<alphatype>none</alphatype>
						<pixelaspectratio>square</pixelaspectratio>
						<anamorphic>FALSE</anamorphic>
						<file id="file-1620">
							<name>TKO_023_GUY_Sh16960.mov</name>
							<pathurl>file://tri-stor01/Projects/TKO/SHOTS/_Refs_Movs_Burnin_FrameCounter/TKO_023_GUY_Sh16960.mov</pathurl>
							<rate>
								<timebase>24</timebase>
								<ntsc>TRUE</ntsc>
							</rate>
							<duration>42</duration>
							<timecode>
								<rate>
									<timebase>24</timebase>
									<ntsc>TRUE</ntsc>
								</rate>
								<string>17:26:56:08</string>
								<frame>1507592</frame>
								<displayformat>NDF</displayformat>
								<reel>
									<name>A0360006</name>
								</reel>
							</timecode>
							<media>
								<video>
									<samplecharacteristics>
										<rate>
											<timebase>24</timebase>
											<ntsc>TRUE</ntsc>
										</rate>
										<width>4096</width>
										<height>2160</height>
										<anamorphic>FALSE</anamorphic>
										<pixelaspectratio>square</pixelaspectratio>
										<fielddominance>none</fielddominance>
									</samplecharacteristics>
								</video>
							</media>
						</file>
						<logginginfo>
							<description></description>
							<scene></scene>
							<shottake></shottake>
							<lognote></lognote>
							<good></good>
							<originalvideofilename></originalvideofilename>
							<originalaudiofilename></originalaudiofilename>
						</logginginfo>
						<colorinfo>
							<lut></lut>
							<lut1></lut1>
							<asc_sop></asc_sop>
							<asc_sat></asc_sat>
							<lut2></lut2>
						</colorinfo>
						<labels>
							<label2>Violet</label2>
						</labels>
					</clipitem>
					<clipitem id="clipitem-1624">
						<masterclipid>masterclip-1621</masterclipid>
						<name>TKO_023_GUY_Sh16970.mov</name>
						<enabled>TRUE</enabled>
						<duration>462</duration>
						<rate>
							<timebase>24</timebase>
							<ntsc>TRUE</ntsc>
						</rate>
						<start>113451</start>
						<end>113905</end>
						<in>4</in>
						<out>458</out>
						<pproTicksIn>42378336000</pproTicksIn>
						<pproTicksOut>4852319472000</pproTicksOut>
						<alphatype>none</alphatype>
						<pixelaspectratio>square</pixelaspectratio>
						<anamorphic>FALSE</anamorphic>
						<file id="file-1621">
							<name>TKO_023_GUY_Sh16970.mov</name>
							<pathurl>file://tri-stor01/Projects/TKO/SHOTS/_Refs_Movs_Burnin_FrameCounter/TKO_023_GUY_Sh16970.mov</pathurl>
							<rate>
								<timebase>24</timebase>
								<ntsc>TRUE</ntsc>
							</rate>
							<duration>462</duration>
							<timecode>
								<rate>
									<timebase>24</timebase>
									<ntsc>TRUE</ntsc>
								</rate>
								<string>16:34:34:06</string>
								<frame>1432182</frame>
								<displayformat>NDF</displayformat>
								<reel>
									<name>A0360004</name>
								</reel>
							</timecode>
							<media>
								<video>
									<samplecharacteristics>
										<rate>
											<timebase>24</timebase>
											<ntsc>TRUE</ntsc>
										</rate>
										<width>4096</width>
										<height>2160</height>
										<anamorphic>FALSE</anamorphic>
										<pixelaspectratio>square</pixelaspectratio>
										<fielddominance>none</fielddominance>
									</samplecharacteristics>
								</video>
							</media>
						</file>
						<logginginfo>
							<description></description>
							<scene></scene>
							<shottake></shottake>
							<lognote></lognote>
							<good></good>
							<originalvideofilename></originalvideofilename>
							<originalaudiofilename></originalaudiofilename>
						</logginginfo>
						<colorinfo>
							<lut></lut>
							<lut1></lut1>
							<asc_sop></asc_sop>
							<asc_sat></asc_sat>
							<lut2></lut2>
						</colorinfo>
						<labels>
							<label2>Violet</label2>
						</labels>
					</clipitem>
					<clipitem id="clipitem-1625">
						<masterclipid>masterclip-1622</masterclipid>
						<name>TKO_023_GUY_Sh16980.mov</name>
						<enabled>TRUE</enabled>
						<duration>136</duration>
						<rate>
							<timebase>24</timebase>
							<ntsc>TRUE</ntsc>
						</rate>
						<start>113905</start>
						<end>114033</end>
						<in>4</in>
						<out>132</out>
						<pproTicksIn>42378336000</pproTicksIn>
						<pproTicksOut>1398485088000</pproTicksOut>
						<alphatype>none</alphatype>
						<pixelaspectratio>square</pixelaspectratio>
						<anamorphic>FALSE</anamorphic>
						<file id="file-1622">
							<name>TKO_023_GUY_Sh16980.mov</name>
							<pathurl>file://tri-stor01/Projects/TKO/SHOTS/_Refs_Movs_Burnin_FrameCounter/TKO_023_GUY_Sh16980.mov</pathurl>
							<rate>
								<timebase>24</timebase>
								<ntsc>TRUE</ntsc>
							</rate>
							<duration>136</duration>
							<timecode>
								<rate>
									<timebase>24</timebase>
									<ntsc>TRUE</ntsc>
								</rate>
								<string>11:01:51:03</string>
								<frame>953067</frame>
								<displayformat>NDF</displayformat>
								<reel>
									<name>C0260007</name>
								</reel>
							</timecode>
							<media>
								<video>
									<samplecharacteristics>
										<rate>
											<timebase>24</timebase>
											<ntsc>TRUE</ntsc>
										</rate>
										<width>3840</width>
										<height>2160</height>
										<anamorphic>FALSE</anamorphic>
										<pixelaspectratio>square</pixelaspectratio>
										<fielddominance>none</fielddominance>
									</samplecharacteristics>
								</video>
							</media>
						</file>
						<logginginfo>
							<description></description>
							<scene></scene>
							<shottake></shottake>
							<lognote></lognote>
							<good></good>
							<originalvideofilename></originalvideofilename>
							<originalaudiofilename></originalaudiofilename>
						</logginginfo>
						<colorinfo>
							<lut></lut>
							<lut1></lut1>
							<asc_sop></asc_sop>
							<asc_sat></asc_sat>
							<lut2></lut2>
						</colorinfo>
						<labels>
							<label2>Violet</label2>
						</labels>
					</clipitem>
					<clipitem id="clipitem-1626">
						<masterclipid>masterclip-1623</masterclipid>
						<name>TKO_024_FIN_Sh16990.mov</name>
						<enabled>TRUE</enabled>
						<duration>119</duration>
						<rate>
							<timebase>24</timebase>
							<ntsc>TRUE</ntsc>
						</rate>
						<start>114033</start>
						<end>114144</end>
						<in>4</in>
						<out>115</out>
						<pproTicksIn>42378336000</pproTicksIn>
						<pproTicksOut>1218377160000</pproTicksOut>
						<alphatype>none</alphatype>
						<pixelaspectratio>square</pixelaspectratio>
						<anamorphic>FALSE</anamorphic>
						<file id="file-1623">
							<name>TKO_024_FIN_Sh16990.mov</name>
							<pathurl>file://tri-stor01/Projects/TKO/SHOTS/_Refs_Movs_Burnin_FrameCounter/TKO_024_FIN_Sh16990.mov</pathurl>
							<rate>
								<timebase>24</timebase>
								<ntsc>TRUE</ntsc>
							</rate>
							<duration>119</duration>
							<timecode>
								<rate>
									<timebase>24</timebase>
									<ntsc>TRUE</ntsc>
								</rate>
								<string>11:51:38:15</string>
								<frame>1024767</frame>
								<displayformat>NDF</displayformat>
								<reel>
									<name>A0180003</name>
								</reel>
							</timecode>
							<media>
								<video>
									<samplecharacteristics>
										<rate>
											<timebase>24</timebase>
											<ntsc>TRUE</ntsc>
										</rate>
										<width>4096</width>
										<height>2160</height>
										<anamorphic>FALSE</anamorphic>
										<pixelaspectratio>square</pixelaspectratio>
										<fielddominance>none</fielddominance>
									</samplecharacteristics>
								</video>
							</media>
						</file>
						<logginginfo>
							<description></description>
							<scene></scene>
							<shottake></shottake>
							<lognote></lognote>
							<good></good>
							<originalvideofilename></originalvideofilename>
							<originalaudiofilename></originalaudiofilename>
						</logginginfo>
						<colorinfo>
							<lut></lut>
							<lut1></lut1>
							<asc_sop></asc_sop>
							<asc_sat></asc_sat>
							<lut2></lut2>
						</colorinfo>
						<labels>
							<label2>Violet</label2>
						</labels>
					</clipitem>
					<clipitem id="clipitem-1627">
						<masterclipid>masterclip-1624</masterclipid>
						<name>TKO_024_FIN_Sh17000.mov</name>
						<enabled>TRUE</enabled>
						<duration>162</duration>
						<rate>
							<timebase>24</timebase>
							<ntsc>TRUE</ntsc>
						</rate>
						<start>114144</start>
						<end>114298</end>
						<in>4</in>
						<out>158</out>
						<pproTicksIn>42378336000</pproTicksIn>
						<pproTicksOut>1673944272000</pproTicksOut>
						<alphatype>none</alphatype>
						<pixelaspectratio>square</pixelaspectratio>
						<anamorphic>FALSE</anamorphic>
						<file id="file-1624">
							<name>TKO_024_FIN_Sh17000.mov</name>
							<pathurl>file://tri-stor01/Projects/TKO/SHOTS/_Refs_Movs_Burnin_FrameCounter/TKO_024_FIN_Sh17000.mov</pathurl>
							<rate>
								<timebase>24</timebase>
								<ntsc>TRUE</ntsc>
							</rate>
							<duration>162</duration>
							<timecode>
								<rate>
									<timebase>24</timebase>
									<ntsc>TRUE</ntsc>
								</rate>
								<string>11:51:43:19</string>
								<frame>1024891</frame>
								<displayformat>NDF</displayformat>
								<reel>
									<name>B0150003</name>
								</reel>
							</timecode>
							<media>
								<video>
									<samplecharacteristics>
										<rate>
											<timebase>24</timebase>
											<ntsc>TRUE</ntsc>
										</rate>
										<width>4096</width>
										<height>2160</height>
										<anamorphic>FALSE</anamorphic>
										<pixelaspectratio>square</pixelaspectratio>
										<fielddominance>none</fielddominance>
									</samplecharacteristics>
								</video>
							</media>
						</file>
						<logginginfo>
							<description></description>
							<scene></scene>
							<shottake></shottake>
							<lognote></lognote>
							<good></good>
							<originalvideofilename></originalvideofilename>
							<originalaudiofilename></originalaudiofilename>
						</logginginfo>
						<colorinfo>
							<lut></lut>
							<lut1></lut1>
							<asc_sop></asc_sop>
							<asc_sat></asc_sat>
							<lut2></lut2>
						</colorinfo>
						<labels>
							<label2>Violet</label2>
						</labels>
					</clipitem>
					<clipitem id="clipitem-1628">
						<masterclipid>masterclip-1625</masterclipid>
						<name>TKO_024_FIN_Sh17010.mov</name>
						<enabled>TRUE</enabled>
						<duration>150</duration>
						<rate>
							<timebase>24</timebase>
							<ntsc>TRUE</ntsc>
						</rate>
						<start>114298</start>
						<end>114440</end>
						<in>4</in>
						<out>146</out>
						<pproTicksIn>42378336000</pproTicksIn>
						<pproTicksOut>1546809264000</pproTicksOut>
						<alphatype>none</alphatype>
						<pixelaspectratio>square</pixelaspectratio>
						<anamorphic>FALSE</anamorphic>
						<file id="file-1625">
							<name>TKO_024_FIN_Sh17010.mov</name>
							<pathurl>file://tri-stor01/Projects/TKO/SHOTS/_Refs_Movs_Burnin_FrameCounter/TKO_024_FIN_Sh17010.mov</pathurl>
							<rate>
								<timebase>24</timebase>
								<ntsc>TRUE</ntsc>
							</rate>
							<duration>150</duration>
							<timecode>
								<rate>
									<timebase>24</timebase>
									<ntsc>TRUE</ntsc>
								</rate>
								<string>12:14:47:20</string>
								<frame>1058108</frame>
								<displayformat>NDF</displayformat>
								<reel>
									<name>B0150004</name>
								</reel>
							</timecode>
							<media>
								<video>
									<samplecharacteristics>
										<rate>
											<timebase>24</timebase>
											<ntsc>TRUE</ntsc>
										</rate>
										<width>4096</width>
										<height>2160</height>
										<anamorphic>FALSE</anamorphic>
										<pixelaspectratio>square</pixelaspectratio>
										<fielddominance>none</fielddominance>
									</samplecharacteristics>
								</video>
							</media>
						</file>
						<logginginfo>
							<description></description>
							<scene></scene>
							<shottake></shottake>
							<lognote></lognote>
							<good></good>
							<originalvideofilename></originalvideofilename>
							<originalaudiofilename></originalaudiofilename>
						</logginginfo>
						<colorinfo>
							<lut></lut>
							<lut1></lut1>
							<asc_sop></asc_sop>
							<asc_sat></asc_sat>
							<lut2></lut2>
						</colorinfo>
						<labels>
							<label2>Violet</label2>
						</labels>
					</clipitem>
					<clipitem id="clipitem-1629">
						<masterclipid>masterclip-1626</masterclipid>
						<name>TKO_024_FIN_Sh17020.mov</name>
						<enabled>TRUE</enabled>
						<duration>179</duration>
						<rate>
							<timebase>24</timebase>
							<ntsc>TRUE</ntsc>
						</rate>
						<start>114440</start>
						<end>114611</end>
						<in>4</in>
						<out>175</out>
						<pproTicksIn>42378336000</pproTicksIn>
						<pproTicksOut>1854052200000</pproTicksOut>
						<alphatype>none</alphatype>
						<pixelaspectratio>square</pixelaspectratio>
						<anamorphic>FALSE</anamorphic>
						<file id="file-1626">
							<name>TKO_024_FIN_Sh17020.mov</name>
							<pathurl>file://tri-stor01/Projects/TKO/SHOTS/_Refs_Movs_Burnin_FrameCounter/TKO_024_FIN_Sh17020.mov</pathurl>
							<rate>
								<timebase>24</timebase>
								<ntsc>TRUE</ntsc>
							</rate>
							<duration>179</duration>
							<timecode>
								<rate>
									<timebase>24</timebase>
									<ntsc>TRUE</ntsc>
								</rate>
								<string>11:51:52:21</string>
								<frame>1025109</frame>
								<displayformat>NDF</displayformat>
								<reel>
									<name>A0180003</name>
								</reel>
							</timecode>
							<media>
								<video>
									<samplecharacteristics>
										<rate>
											<timebase>24</timebase>
											<ntsc>TRUE</ntsc>
										</rate>
										<width>4096</width>
										<height>2160</height>
										<anamorphic>FALSE</anamorphic>
										<pixelaspectratio>square</pixelaspectratio>
										<fielddominance>none</fielddominance>
									</samplecharacteristics>
								</video>
							</media>
						</file>
						<logginginfo>
							<description></description>
							<scene></scene>
							<shottake></shottake>
							<lognote></lognote>
							<good></good>
							<originalvideofilename></originalvideofilename>
							<originalaudiofilename></originalaudiofilename>
						</logginginfo>
						<colorinfo>
							<lut></lut>
							<lut1></lut1>
							<asc_sop></asc_sop>
							<asc_sat></asc_sat>
							<lut2></lut2>
						</colorinfo>
						<labels>
							<label2>Violet</label2>
						</labels>
					</clipitem>
					<clipitem id="clipitem-1630">
						<masterclipid>masterclip-1627</masterclipid>
						<name>TKO_024_FIN_Sh17030.mov</name>
						<enabled>TRUE</enabled>
						<duration>54</duration>
						<rate>
							<timebase>24</timebase>
							<ntsc>TRUE</ntsc>
						</rate>
						<start>114611</start>
						<end>114657</end>
						<in>4</in>
						<out>50</out>
						<pproTicksIn>42378336000</pproTicksIn>
						<pproTicksOut>529729200000</pproTicksOut>
						<alphatype>none</alphatype>
						<pixelaspectratio>square</pixelaspectratio>
						<anamorphic>FALSE</anamorphic>
						<file id="file-1627">
							<name>TKO_024_FIN_Sh17030.mov</name>
							<pathurl>file://tri-stor01/Projects/TKO/SHOTS/_Refs_Movs_Burnin_FrameCounter/TKO_024_FIN_Sh17030.mov</pathurl>
							<rate>
								<timebase>24</timebase>
								<ntsc>TRUE</ntsc>
							</rate>
							<duration>54</duration>
							<timecode>
								<rate>
									<timebase>24</timebase>
									<ntsc>TRUE</ntsc>
								</rate>
								<string>13:44:23:05</string>
								<frame>1187117</frame>
								<displayformat>NDF</displayformat>
								<reel>
									<name>A0180009</name>
								</reel>
							</timecode>
							<media>
								<video>
									<samplecharacteristics>
										<rate>
											<timebase>24</timebase>
											<ntsc>TRUE</ntsc>
										</rate>
										<width>4096</width>
										<height>2160</height>
										<anamorphic>FALSE</anamorphic>
										<pixelaspectratio>square</pixelaspectratio>
										<fielddominance>none</fielddominance>
									</samplecharacteristics>
								</video>
							</media>
						</file>
						<logginginfo>
							<description></description>
							<scene></scene>
							<shottake></shottake>
							<lognote></lognote>
							<good></good>
							<originalvideofilename></originalvideofilename>
							<originalaudiofilename></originalaudiofilename>
						</logginginfo>
						<colorinfo>
							<lut></lut>
							<lut1></lut1>
							<asc_sop></asc_sop>
							<asc_sat></asc_sat>
							<lut2></lut2>
						</colorinfo>
						<labels>
							<label2>Violet</label2>
						</labels>
					</clipitem>
					<clipitem id="clipitem-1631">
						<masterclipid>masterclip-1628</masterclipid>
						<name>TKO_024_FIN_Sh17040.mov</name>
						<enabled>TRUE</enabled>
						<duration>108</duration>
						<rate>
							<timebase>24</timebase>
							<ntsc>TRUE</ntsc>
						</rate>
						<start>114657</start>
						<end>114757</end>
						<in>4</in>
						<out>104</out>
						<pproTicksIn>42378336000</pproTicksIn>
						<pproTicksOut>1101836736000</pproTicksOut>
						<alphatype>none</alphatype>
						<pixelaspectratio>square</pixelaspectratio>
						<anamorphic>FALSE</anamorphic>
						<file id="file-1628">
							<name>TKO_024_FIN_Sh17040.mov</name>
							<pathurl>file://tri-stor01/Projects/TKO/SHOTS/_Refs_Movs_Burnin_FrameCounter/TKO_024_FIN_Sh17040.mov</pathurl>
							<rate>
								<timebase>24</timebase>
								<ntsc>TRUE</ntsc>
							</rate>
							<duration>108</duration>
							<timecode>
								<rate>
									<timebase>24</timebase>
									<ntsc>TRUE</ntsc>
								</rate>
								<string>05:02:49:13</string>
								<frame>436069</frame>
								<displayformat>NDF</displayformat>
								<reel>
									<name>C0100006</name>
								</reel>
							</timecode>
							<media>
								<video>
									<samplecharacteristics>
										<rate>
											<timebase>24</timebase>
											<ntsc>TRUE</ntsc>
										</rate>
										<width>3840</width>
										<height>2160</height>
										<anamorphic>FALSE</anamorphic>
										<pixelaspectratio>square</pixelaspectratio>
										<fielddominance>none</fielddominance>
									</samplecharacteristics>
								</video>
							</media>
						</file>
						<logginginfo>
							<description></description>
							<scene></scene>
							<shottake></shottake>
							<lognote></lognote>
							<good></good>
							<originalvideofilename></originalvideofilename>
							<originalaudiofilename></originalaudiofilename>
						</logginginfo>
						<colorinfo>
							<lut></lut>
							<lut1></lut1>
							<asc_sop></asc_sop>
							<asc_sat></asc_sat>
							<lut2></lut2>
						</colorinfo>
						<labels>
							<label2>Violet</label2>
						</labels>
					</clipitem>
					<clipitem id="clipitem-1632">
						<masterclipid>masterclip-1629</masterclipid>
						<name>TKO_024_FIN_Sh17050.mov</name>
						<enabled>TRUE</enabled>
						<duration>369</duration>
						<rate>
							<timebase>24</timebase>
							<ntsc>TRUE</ntsc>
						</rate>
						<start>114757</start>
						<end>115118</end>
						<in>4</in>
						<out>365</out>
						<pproTicksIn>42378336000</pproTicksIn>
						<pproTicksOut>3867023160000</pproTicksOut>
						<alphatype>none</alphatype>
						<pixelaspectratio>square</pixelaspectratio>
						<anamorphic>FALSE</anamorphic>
						<file id="file-1629">
							<name>TKO_024_FIN_Sh17050.mov</name>
							<pathurl>file://tri-stor01/Projects/TKO/SHOTS/_Refs_Movs_Burnin_FrameCounter/TKO_024_FIN_Sh17050.mov</pathurl>
							<rate>
								<timebase>24</timebase>
								<ntsc>TRUE</ntsc>
							</rate>
							<duration>369</duration>
							<timecode>
								<rate>
									<timebase>24</timebase>
									<ntsc>TRUE</ntsc>
								</rate>
								<string>13:45:27:00</string>
								<frame>1188648</frame>
								<displayformat>NDF</displayformat>
								<reel>
									<name>A0180009</name>
								</reel>
							</timecode>
							<media>
								<video>
									<samplecharacteristics>
										<rate>
											<timebase>24</timebase>
											<ntsc>TRUE</ntsc>
										</rate>
										<width>4096</width>
										<height>2160</height>
										<anamorphic>FALSE</anamorphic>
										<pixelaspectratio>square</pixelaspectratio>
										<fielddominance>none</fielddominance>
									</samplecharacteristics>
								</video>
							</media>
						</file>
						<logginginfo>
							<description></description>
							<scene></scene>
							<shottake></shottake>
							<lognote></lognote>
							<good></good>
							<originalvideofilename></originalvideofilename>
							<originalaudiofilename></originalaudiofilename>
						</logginginfo>
						<colorinfo>
							<lut></lut>
							<lut1></lut1>
							<asc_sop></asc_sop>
							<asc_sat></asc_sat>
							<lut2></lut2>
						</colorinfo>
						<labels>
							<label2>Violet</label2>
						</labels>
					</clipitem>
					<clipitem id="clipitem-1633">
						<masterclipid>masterclip-1634</masterclipid>
						<name>TKO_024_FIN_Sh17060.mov</name>
						<enabled>TRUE</enabled>
						<duration>80</duration>
						<rate>
							<timebase>24</timebase>
							<ntsc>TRUE</ntsc>
						</rate>
						<start>115785</start>
						<end>115853</end>
						<in>4</in>
						<out>72</out>
						<pproTicksIn>42378336000</pproTicksIn>
						<pproTicksOut>370810440000</pproTicksOut>
						<alphatype>none</alphatype>
						<pixelaspectratio>square</pixelaspectratio>
						<anamorphic>FALSE</anamorphic>
						<file id="file-1634">
							<name>TKO_024_FIN_Sh17060.mov</name>
							<pathurl>file://tri-stor01/Projects/TKO/SHOTS/_Refs_Movs_Burnin_FrameCounter/TKO_024_FIN_Sh17060.mov</pathurl>
							<rate>
								<timebase>24</timebase>
								<ntsc>TRUE</ntsc>
							</rate>
							<duration>80</duration>
							<timecode>
								<rate>
									<timebase>24</timebase>
									<ntsc>TRUE</ntsc>
								</rate>
								<string>01:06:38:15</string>
								<frame>95967</frame>
								<displayformat>NDF</displayformat>
							</timecode>
							<media>
								<video>
									<samplecharacteristics>
										<rate>
											<timebase>24</timebase>
											<ntsc>TRUE</ntsc>
										</rate>
										<width>1280</width>
										<height>720</height>
										<anamorphic>FALSE</anamorphic>
										<pixelaspectratio>square</pixelaspectratio>
										<fielddominance>none</fielddominance>
									</samplecharacteristics>
								</video>
							</media>
						</file>
						<logginginfo>
							<description></description>
							<scene></scene>
							<shottake></shottake>
							<lognote></lognote>
							<good></good>
							<originalvideofilename></originalvideofilename>
							<originalaudiofilename></originalaudiofilename>
						</logginginfo>
						<colorinfo>
							<lut></lut>
							<lut1></lut1>
							<asc_sop></asc_sop>
							<asc_sat></asc_sat>
							<lut2></lut2>
						</colorinfo>
						<labels>
							<label2>Violet</label2>
						</labels>
					</clipitem>
					<clipitem id="clipitem-1635">
						<masterclipid>masterclip-1632</masterclipid>
						<name>TKO_024_FIN_Sh17080.mov</name>
						<enabled>TRUE</enabled>
						<duration>87</duration>
						<rate>
							<timebase>24</timebase>
							<ntsc>TRUE</ntsc>
						</rate>
						<start>115186</start>
						<end>115265</end>
						<in>4</in>
						<out>83</out>
						<pproTicksIn>42378336000</pproTicksIn>
						<pproTicksOut>879350472000</pproTicksOut>
						<alphatype>none</alphatype>
						<pixelaspectratio>square</pixelaspectratio>
						<anamorphic>FALSE</anamorphic>
						<file id="file-1632">
							<name>TKO_024_FIN_Sh17080.mov</name>
							<pathurl>file://tri-stor01/Projects/TKO/SHOTS/_Refs_Movs_Burnin_FrameCounter/TKO_024_FIN_Sh17080.mov</pathurl>
							<rate>
								<timebase>24</timebase>
								<ntsc>TRUE</ntsc>
							</rate>
							<duration>87</duration>
							<timecode>
								<rate>
									<timebase>24</timebase>
									<ntsc>TRUE</ntsc>
								</rate>
								<string>01:06:41:11</string>
								<frame>96035</frame>
								<displayformat>NDF</displayformat>
							</timecode>
							<media>
								<video>
									<samplecharacteristics>
										<rate>
											<timebase>24</timebase>
											<ntsc>TRUE</ntsc>
										</rate>
										<width>1280</width>
										<height>720</height>
										<anamorphic>FALSE</anamorphic>
										<pixelaspectratio>square</pixelaspectratio>
										<fielddominance>none</fielddominance>
									</samplecharacteristics>
								</video>
							</media>
						</file>
						<logginginfo>
							<description></description>
							<scene></scene>
							<shottake></shottake>
							<lognote></lognote>
							<good></good>
							<originalvideofilename></originalvideofilename>
							<originalaudiofilename></originalaudiofilename>
						</logginginfo>
						<colorinfo>
							<lut></lut>
							<lut1></lut1>
							<asc_sop></asc_sop>
							<asc_sat></asc_sat>
							<lut2></lut2>
						</colorinfo>
						<labels>
							<label2>Violet</label2>
						</labels>
					</clipitem>
					<clipitem id="clipitem-1636">
						<masterclipid>masterclip-1633</masterclipid>
						<name>TKO_024_FIN_Sh17090.mov</name>
						<enabled>TRUE</enabled>
						<duration>75</duration>
						<rate>
							<timebase>24</timebase>
							<ntsc>TRUE</ntsc>
						</rate>
						<start>115265</start>
						<end>115332</end>
						<in>4</in>
						<out>71</out>
						<pproTicksIn>42378336000</pproTicksIn>
						<pproTicksOut>752215464000</pproTicksOut>
						<alphatype>none</alphatype>
						<pixelaspectratio>square</pixelaspectratio>
						<anamorphic>FALSE</anamorphic>
						<file id="file-1633">
							<name>TKO_024_FIN_Sh17090.mov</name>
							<pathurl>file://tri-stor01/Projects/TKO/SHOTS/_Refs_Movs_Burnin_FrameCounter/TKO_024_FIN_Sh17090.mov</pathurl>
							<rate>
								<timebase>24</timebase>
								<ntsc>TRUE</ntsc>
							</rate>
							<duration>75</duration>
							<timecode>
								<rate>
									<timebase>24</timebase>
									<ntsc>TRUE</ntsc>
								</rate>
								<string>01:06:44:18</string>
								<frame>96114</frame>
								<displayformat>NDF</displayformat>
							</timecode>
							<media>
								<video>
									<samplecharacteristics>
										<rate>
											<timebase>24</timebase>
											<ntsc>TRUE</ntsc>
										</rate>
										<width>1280</width>
										<height>720</height>
										<anamorphic>FALSE</anamorphic>
										<pixelaspectratio>square</pixelaspectratio>
										<fielddominance>none</fielddominance>
									</samplecharacteristics>
								</video>
							</media>
						</file>
						<logginginfo>
							<description></description>
							<scene></scene>
							<shottake></shottake>
							<lognote></lognote>
							<good></good>
							<originalvideofilename></originalvideofilename>
							<originalaudiofilename></originalaudiofilename>
						</logginginfo>
						<colorinfo>
							<lut></lut>
							<lut1></lut1>
							<asc_sop></asc_sop>
							<asc_sat></asc_sat>
							<lut2></lut2>
						</colorinfo>
						<labels>
							<label2>Violet</label2>
						</labels>
					</clipitem>
					<clipitem id="clipitem-1637">
						<masterclipid>masterclip-1634</masterclipid>
						<name>TKO_024_FIN_Sh17100_Comp_V01.mov</name>
						<enabled>TRUE</enabled>
						<duration>43</duration>
						<rate>
							<timebase>24</timebase>
							<ntsc>TRUE</ntsc>
						</rate>
						<start>115332</start>
						<end>115367</end>
						<in>4</in>
						<out>39</out>
						<pproTicksIn>42378336000</pproTicksIn>
						<pproTicksOut>413188776000</pproTicksOut>
						<alphatype>straight</alphatype>
						<pixelaspectratio>square</pixelaspectratio>
						<anamorphic>FALSE</anamorphic>
						<file id="file-1634">
							<name>TKO_024_FIN_Sh17100_Comp_V01.mov</name>
							<pathurl>file://tri-stor01/Projects/TKO/SHOTS/TKO_024_FIN/TKO_024_FIN_Sh17100/COMP/V01/TKO_024_FIN_Sh17100_Comp_V01.mov</pathurl>
							<rate>
								<timebase>24</timebase>
								<ntsc>TRUE</ntsc>
							</rate>
							<duration>43</duration>
							<timecode>
								<rate>
									<timebase>24</timebase>
									<ntsc>TRUE</ntsc>
								</rate>
								<string>13:36:38:10</string>
								<frame>1175962</frame>
								<displayformat>NDF</displayformat>
								<reel>
									<name>B0150007</name>
								</reel>
							</timecode>
							<media>
								<video>
									<samplecharacteristics>
										<rate>
											<timebase>24</timebase>
											<ntsc>TRUE</ntsc>
										</rate>
										<width>4096</width>
										<height>2160</height>
										<anamorphic>FALSE</anamorphic>
										<pixelaspectratio>square</pixelaspectratio>
										<fielddominance>none</fielddominance>
									</samplecharacteristics>
								</video>
							</media>
						</file>
						<logginginfo>
							<description></description>
							<scene></scene>
							<shottake></shottake>
							<lognote></lognote>
							<good></good>
							<originalvideofilename></originalvideofilename>
							<originalaudiofilename></originalaudiofilename>
						</logginginfo>
						<colorinfo>
							<lut></lut>
							<lut1></lut1>
							<asc_sop></asc_sop>
							<asc_sat></asc_sat>
							<lut2></lut2>
						</colorinfo>
						<labels>
							<label2>Violet</label2>
						</labels>
					</clipitem>
					<clipitem id="clipitem-1638">
						<masterclipid>masterclip-1635</masterclipid>
						<name>TKO_024_FIN_Sh17110.mov</name>
						<enabled>TRUE</enabled>
						<duration>78</duration>
						<rate>
							<timebase>24</timebase>
							<ntsc>TRUE</ntsc>
						</rate>
						<start>115367</start>
						<end>115437</end>
						<in>4</in>
						<out>74</out>
						<pproTicksIn>42378336000</pproTicksIn>
						<pproTicksOut>783999216000</pproTicksOut>
						<alphatype>none</alphatype>
						<pixelaspectratio>square</pixelaspectratio>
						<anamorphic>FALSE</anamorphic>
						<file id="file-1635">
							<name>TKO_024_FIN_Sh17110.mov</name>
							<pathurl>file://tri-stor01/Projects/TKO/SHOTS/_Refs_Movs_Burnin_FrameCounter/TKO_024_FIN_Sh17110.mov</pathurl>
							<rate>
								<timebase>24</timebase>
								<ntsc>TRUE</ntsc>
							</rate>
							<duration>78</duration>
							<timecode>
								<rate>
									<timebase>24</timebase>
									<ntsc>TRUE</ntsc>
								</rate>
								<string>13:36:39:08</string>
								<frame>1175984</frame>
								<displayformat>NDF</displayformat>
								<reel>
									<name>A0180008</name>
								</reel>
							</timecode>
							<media>
								<video>
									<samplecharacteristics>
										<rate>
											<timebase>24</timebase>
											<ntsc>TRUE</ntsc>
										</rate>
										<width>4096</width>
										<height>2160</height>
										<anamorphic>FALSE</anamorphic>
										<pixelaspectratio>square</pixelaspectratio>
										<fielddominance>none</fielddominance>
									</samplecharacteristics>
								</video>
							</media>
						</file>
						<logginginfo>
							<description></description>
							<scene></scene>
							<shottake></shottake>
							<lognote></lognote>
							<good></good>
							<originalvideofilename></originalvideofilename>
							<originalaudiofilename></originalaudiofilename>
						</logginginfo>
						<colorinfo>
							<lut></lut>
							<lut1></lut1>
							<asc_sop></asc_sop>
							<asc_sat></asc_sat>
							<lut2></lut2>
						</colorinfo>
						<labels>
							<label2>Violet</label2>
						</labels>
					</clipitem>
					<clipitem id="clipitem-1639">
						<masterclipid>masterclip-1636</masterclipid>
						<name>TKO_024_FIN_Sh17120.mov</name>
						<enabled>TRUE</enabled>
						<duration>52</duration>
						<rate>
							<timebase>24</timebase>
							<ntsc>TRUE</ntsc>
						</rate>
						<start>115437</start>
						<end>115481</end>
						<in>4</in>
						<out>48</out>
						<pproTicksIn>42378336000</pproTicksIn>
						<pproTicksOut>508540032000</pproTicksOut>
						<alphatype>none</alphatype>
						<pixelaspectratio>square</pixelaspectratio>
						<anamorphic>FALSE</anamorphic>
						<file id="file-1636">
							<name>TKO_024_FIN_Sh17120.mov</name>
							<pathurl>file://tri-stor01/Projects/TKO/SHOTS/_Refs_Movs_Burnin_FrameCounter/TKO_024_FIN_Sh17120.mov</pathurl>
							<rate>
								<timebase>24</timebase>
								<ntsc>TRUE</ntsc>
							</rate>
							<duration>52</duration>
							<timecode>
								<rate>
									<timebase>24</timebase>
									<ntsc>TRUE</ntsc>
								</rate>
								<string>13:36:42:19</string>
								<frame>1176067</frame>
								<displayformat>NDF</displayformat>
								<reel>
									<name>B0150007</name>
								</reel>
							</timecode>
							<media>
								<video>
									<samplecharacteristics>
										<rate>
											<timebase>24</timebase>
											<ntsc>TRUE</ntsc>
										</rate>
										<width>4096</width>
										<height>2160</height>
										<anamorphic>FALSE</anamorphic>
										<pixelaspectratio>square</pixelaspectratio>
										<fielddominance>none</fielddominance>
									</samplecharacteristics>
								</video>
							</media>
						</file>
						<logginginfo>
							<description></description>
							<scene></scene>
							<shottake></shottake>
							<lognote></lognote>
							<good></good>
							<originalvideofilename></originalvideofilename>
							<originalaudiofilename></originalaudiofilename>
						</logginginfo>
						<colorinfo>
							<lut></lut>
							<lut1></lut1>
							<asc_sop></asc_sop>
							<asc_sat></asc_sat>
							<lut2></lut2>
						</colorinfo>
						<labels>
							<label2>Violet</label2>
						</labels>
					</clipitem>
					<clipitem id="clipitem-1640">
						<masterclipid>masterclip-1637</masterclipid>
						<name>TKO_024_FIN_Sh17130.mov</name>
						<enabled>TRUE</enabled>
						<duration>107</duration>
						<rate>
							<timebase>24</timebase>
							<ntsc>TRUE</ntsc>
						</rate>
						<start>115481</start>
						<end>115580</end>
						<in>4</in>
						<out>103</out>
						<pproTicksIn>42378336000</pproTicksIn>
						<pproTicksOut>1091242152000</pproTicksOut>
						<alphatype>none</alphatype>
						<pixelaspectratio>square</pixelaspectratio>
						<anamorphic>FALSE</anamorphic>
						<file id="file-1637">
							<name>TKO_024_FIN_Sh17130.mov</name>
							<pathurl>file://tri-stor01/Projects/TKO/SHOTS/_Refs_Movs_Burnin_FrameCounter/TKO_024_FIN_Sh17130.mov</pathurl>
							<rate>
								<timebase>24</timebase>
								<ntsc>TRUE</ntsc>
							</rate>
							<duration>107</duration>
							<timecode>
								<rate>
									<timebase>24</timebase>
									<ntsc>TRUE</ntsc>
								</rate>
								<string>13:36:44:02</string>
								<frame>1176098</frame>
								<displayformat>NDF</displayformat>
								<reel>
									<name>A0180008</name>
								</reel>
							</timecode>
							<media>
								<video>
									<samplecharacteristics>
										<rate>
											<timebase>24</timebase>
											<ntsc>TRUE</ntsc>
										</rate>
										<width>4096</width>
										<height>2160</height>
										<anamorphic>FALSE</anamorphic>
										<pixelaspectratio>square</pixelaspectratio>
										<fielddominance>none</fielddominance>
									</samplecharacteristics>
								</video>
							</media>
						</file>
						<logginginfo>
							<description></description>
							<scene></scene>
							<shottake></shottake>
							<lognote></lognote>
							<good></good>
							<originalvideofilename></originalvideofilename>
							<originalaudiofilename></originalaudiofilename>
						</logginginfo>
						<colorinfo>
							<lut></lut>
							<lut1></lut1>
							<asc_sop></asc_sop>
							<asc_sat></asc_sat>
							<lut2></lut2>
						</colorinfo>
						<labels>
							<label2>Violet</label2>
						</labels>
					</clipitem>
					<clipitem id="clipitem-1641">
						<masterclipid>masterclip-1638</masterclipid>
						<name>TKO_024_FIN_Sh17140.mov</name>
						<enabled>TRUE</enabled>
						<duration>95</duration>
						<rate>
							<timebase>24</timebase>
							<ntsc>TRUE</ntsc>
						</rate>
						<start>115580</start>
						<end>115667</end>
						<in>4</in>
						<out>91</out>
						<pproTicksIn>42378336000</pproTicksIn>
						<pproTicksOut>964107144000</pproTicksOut>
						<alphatype>none</alphatype>
						<pixelaspectratio>square</pixelaspectratio>
						<anamorphic>FALSE</anamorphic>
						<file id="file-1638">
							<name>TKO_024_FIN_Sh17140.mov</name>
							<pathurl>file://tri-stor01/Projects/TKO/SHOTS/_Refs_Movs_Burnin_FrameCounter/TKO_024_FIN_Sh17140.mov</pathurl>
							<rate>
								<timebase>24</timebase>
								<ntsc>TRUE</ntsc>
							</rate>
							<duration>95</duration>
							<timecode>
								<rate>
									<timebase>24</timebase>
									<ntsc>TRUE</ntsc>
								</rate>
								<string>04:56:53:15</string>
								<frame>427527</frame>
								<displayformat>NDF</displayformat>
								<reel>
									<name>C0100005</name>
								</reel>
							</timecode>
							<media>
								<video>
									<samplecharacteristics>
										<rate>
											<timebase>24</timebase>
											<ntsc>TRUE</ntsc>
										</rate>
										<width>3840</width>
										<height>2160</height>
										<anamorphic>FALSE</anamorphic>
										<pixelaspectratio>square</pixelaspectratio>
										<fielddominance>none</fielddominance>
									</samplecharacteristics>
								</video>
							</media>
						</file>
						<logginginfo>
							<description></description>
							<scene></scene>
							<shottake></shottake>
							<lognote></lognote>
							<good></good>
							<originalvideofilename></originalvideofilename>
							<originalaudiofilename></originalaudiofilename>
						</logginginfo>
						<colorinfo>
							<lut></lut>
							<lut1></lut1>
							<asc_sop></asc_sop>
							<asc_sat></asc_sat>
							<lut2></lut2>
						</colorinfo>
						<labels>
							<label2>Violet</label2>
						</labels>
					</clipitem>
					<clipitem id="clipitem-1642">
						<masterclipid>masterclip-1639</masterclipid>
						<name>TKO_024_FIN_Sh17150.mov</name>
						<enabled>TRUE</enabled>
						<duration>53</duration>
						<rate>
							<timebase>24</timebase>
							<ntsc>TRUE</ntsc>
						</rate>
						<start>115667</start>
						<end>115712</end>
						<in>4</in>
						<out>49</out>
						<pproTicksIn>42378336000</pproTicksIn>
						<pproTicksOut>519134616000</pproTicksOut>
						<alphatype>none</alphatype>
						<pixelaspectratio>square</pixelaspectratio>
						<anamorphic>FALSE</anamorphic>
						<file id="file-1639">
							<name>TKO_024_FIN_Sh17150.mov</name>
							<pathurl>file://tri-stor01/Projects/TKO/SHOTS/_Refs_Movs_Burnin_FrameCounter/TKO_024_FIN_Sh17150.mov</pathurl>
							<rate>
								<timebase>24</timebase>
								<ntsc>TRUE</ntsc>
							</rate>
							<duration>53</duration>
							<timecode>
								<rate>
									<timebase>24</timebase>
									<ntsc>TRUE</ntsc>
								</rate>
								<string>14:17:05:09</string>
								<frame>1234209</frame>
								<displayformat>NDF</displayformat>
								<reel>
									<name>A0180012</name>
								</reel>
							</timecode>
							<media>
								<video>
									<samplecharacteristics>
										<rate>
											<timebase>24</timebase>
											<ntsc>TRUE</ntsc>
										</rate>
										<width>4096</width>
										<height>2160</height>
										<anamorphic>FALSE</anamorphic>
										<pixelaspectratio>square</pixelaspectratio>
										<fielddominance>none</fielddominance>
									</samplecharacteristics>
								</video>
							</media>
						</file>
						<logginginfo>
							<description></description>
							<scene></scene>
							<shottake></shottake>
							<lognote></lognote>
							<good></good>
							<originalvideofilename></originalvideofilename>
							<originalaudiofilename></originalaudiofilename>
						</logginginfo>
						<colorinfo>
							<lut></lut>
							<lut1></lut1>
							<asc_sop></asc_sop>
							<asc_sat></asc_sat>
							<lut2></lut2>
						</colorinfo>
						<labels>
							<label2>Violet</label2>
						</labels>
					</clipitem>
					<clipitem id="clipitem-1643">
						<masterclipid>masterclip-1640</masterclipid>
						<name>TKO_024_FIN_Sh17160.mov</name>
						<enabled>TRUE</enabled>
						<duration>71</duration>
						<rate>
							<timebase>24</timebase>
							<ntsc>TRUE</ntsc>
						</rate>
						<start>115712</start>
						<end>115775</end>
						<in>4</in>
						<out>67</out>
						<pproTicksIn>42378336000</pproTicksIn>
						<pproTicksOut>709837128000</pproTicksOut>
						<alphatype>none</alphatype>
						<pixelaspectratio>square</pixelaspectratio>
						<anamorphic>FALSE</anamorphic>
						<file id="file-1640">
							<name>TKO_024_FIN_Sh17160.mov</name>
							<pathurl>file://tri-stor01/Projects/TKO/SHOTS/_Refs_Movs_Burnin_FrameCounter/TKO_024_FIN_Sh17160.mov</pathurl>
							<rate>
								<timebase>24</timebase>
								<ntsc>TRUE</ntsc>
							</rate>
							<duration>71</duration>
							<timecode>
								<rate>
									<timebase>24</timebase>
									<ntsc>TRUE</ntsc>
								</rate>
								<string>04:57:00:15</string>
								<frame>427695</frame>
								<displayformat>NDF</displayformat>
								<reel>
									<name>C0100005</name>
								</reel>
							</timecode>
							<media>
								<video>
									<samplecharacteristics>
										<rate>
											<timebase>24</timebase>
											<ntsc>TRUE</ntsc>
										</rate>
										<width>3840</width>
										<height>2160</height>
										<anamorphic>FALSE</anamorphic>
										<pixelaspectratio>square</pixelaspectratio>
										<fielddominance>none</fielddominance>
									</samplecharacteristics>
								</video>
							</media>
						</file>
						<logginginfo>
							<description></description>
							<scene></scene>
							<shottake></shottake>
							<lognote></lognote>
							<good></good>
							<originalvideofilename></originalvideofilename>
							<originalaudiofilename></originalaudiofilename>
						</logginginfo>
						<colorinfo>
							<lut></lut>
							<lut1></lut1>
							<asc_sop></asc_sop>
							<asc_sat></asc_sat>
							<lut2></lut2>
						</colorinfo>
						<labels>
							<label2>Violet</label2>
						</labels>
					</clipitem>
					<clipitem id="clipitem-1644">
						<masterclipid>masterclip-1641</masterclipid>
						<name>TKO_024_FIN_Sh17170.mov</name>
						<enabled>TRUE</enabled>
						<duration>207</duration>
						<rate>
							<timebase>24</timebase>
							<ntsc>TRUE</ntsc>
						</rate>
						<start>115775</start>
						<end>115974</end>
						<in>4</in>
						<out>203</out>
						<pproTicksIn>42378336000</pproTicksIn>
						<pproTicksOut>2150700552000</pproTicksOut>
						<alphatype>none</alphatype>
						<pixelaspectratio>square</pixelaspectratio>
						<anamorphic>FALSE</anamorphic>
						<file id="file-1641">
							<name>TKO_024_FIN_Sh17170.mov</name>
							<pathurl>file://tri-stor01/Projects/TKO/SHOTS/_Refs_Movs_Burnin_FrameCounter/TKO_024_FIN_Sh17170.mov</pathurl>
							<rate>
								<timebase>24</timebase>
								<ntsc>TRUE</ntsc>
							</rate>
							<duration>207</duration>
							<timecode>
								<rate>
									<timebase>24</timebase>
									<ntsc>TRUE</ntsc>
								</rate>
								<string>13:36:57:20</string>
								<frame>1176428</frame>
								<displayformat>NDF</displayformat>
								<reel>
									<name>A0180008</name>
								</reel>
							</timecode>
							<media>
								<video>
									<samplecharacteristics>
										<rate>
											<timebase>24</timebase>
											<ntsc>TRUE</ntsc>
										</rate>
										<width>4096</width>
										<height>2160</height>
										<anamorphic>FALSE</anamorphic>
										<pixelaspectratio>square</pixelaspectratio>
										<fielddominance>none</fielddominance>
									</samplecharacteristics>
								</video>
							</media>
						</file>
						<logginginfo>
							<description></description>
							<scene></scene>
							<shottake></shottake>
							<lognote></lognote>
							<good></good>
							<originalvideofilename></originalvideofilename>
							<originalaudiofilename></originalaudiofilename>
						</logginginfo>
						<colorinfo>
							<lut></lut>
							<lut1></lut1>
							<asc_sop></asc_sop>
							<asc_sat></asc_sat>
							<lut2></lut2>
						</colorinfo>
						<labels>
							<label2>Violet</label2>
						</labels>
					</clipitem>
					<clipitem id="clipitem-1645">
						<masterclipid>masterclip-1642</masterclipid>
						<name>TKO_024_FIN_Sh17180.mov</name>
						<enabled>TRUE</enabled>
						<duration>58</duration>
						<rate>
							<timebase>24</timebase>
							<ntsc>TRUE</ntsc>
						</rate>
						<start>115974</start>
						<end>116024</end>
						<in>4</in>
						<out>54</out>
						<pproTicksIn>42378336000</pproTicksIn>
						<pproTicksOut>572107536000</pproTicksOut>
						<alphatype>none</alphatype>
						<pixelaspectratio>square</pixelaspectratio>
						<anamorphic>FALSE</anamorphic>
						<file id="file-1642">
							<name>TKO_024_FIN_Sh17180.mov</name>
							<pathurl>file://tri-stor01/Projects/TKO/SHOTS/_Refs_Movs_Burnin_FrameCounter/TKO_024_FIN_Sh17180.mov</pathurl>
							<rate>
								<timebase>24</timebase>
								<ntsc>TRUE</ntsc>
							</rate>
							<duration>58</duration>
							<timecode>
								<rate>
									<timebase>24</timebase>
									<ntsc>TRUE</ntsc>
								</rate>
								<string>04:57:11:13</string>
								<frame>427957</frame>
								<displayformat>NDF</displayformat>
								<reel>
									<name>C0100005</name>
								</reel>
							</timecode>
							<media>
								<video>
									<samplecharacteristics>
										<rate>
											<timebase>24</timebase>
											<ntsc>TRUE</ntsc>
										</rate>
										<width>3840</width>
										<height>2160</height>
										<anamorphic>FALSE</anamorphic>
										<pixelaspectratio>square</pixelaspectratio>
										<fielddominance>none</fielddominance>
									</samplecharacteristics>
								</video>
							</media>
						</file>
						<logginginfo>
							<description></description>
							<scene></scene>
							<shottake></shottake>
							<lognote></lognote>
							<good></good>
							<originalvideofilename></originalvideofilename>
							<originalaudiofilename></originalaudiofilename>
						</logginginfo>
						<colorinfo>
							<lut></lut>
							<lut1></lut1>
							<asc_sop></asc_sop>
							<asc_sat></asc_sat>
							<lut2></lut2>
						</colorinfo>
						<labels>
							<label2>Violet</label2>
						</labels>
					</clipitem>
					<clipitem id="clipitem-1646">
						<masterclipid>masterclip-1643</masterclipid>
						<name>TKO_024_FIN_Sh17190_Comp_V01.mov</name>
						<enabled>TRUE</enabled>
						<duration>67</duration>
						<rate>
							<timebase>24</timebase>
							<ntsc>TRUE</ntsc>
						</rate>
						<start>116024</start>
						<end>116083</end>
						<in>4</in>
						<out>63</out>
						<pproTicksIn>42378336000</pproTicksIn>
						<pproTicksOut>667458792000</pproTicksOut>
						<alphatype>straight</alphatype>
						<pixelaspectratio>square</pixelaspectratio>
						<anamorphic>FALSE</anamorphic>
						<file id="file-1643">
							<name>TKO_024_FIN_Sh17190_Comp_V01.mov</name>
							<pathurl>file://tri-stor01/Projects/TKO/SHOTS/TKO_024_FIN/TKO_024_FIN_Sh17190/COMP/V01/TKO_024_FIN_Sh17190_Comp_V01.mov</pathurl>
							<rate>
								<timebase>24</timebase>
								<ntsc>TRUE</ntsc>
							</rate>
							<duration>67</duration>
							<timecode>
								<rate>
									<timebase>24</timebase>
									<ntsc>TRUE</ntsc>
								</rate>
								<string>14:11:17:12</string>
								<frame>1225860</frame>
								<displayformat>NDF</displayformat>
								<reel>
									<name>B0150009</name>
								</reel>
							</timecode>
							<media>
								<video>
									<samplecharacteristics>
										<rate>
											<timebase>24</timebase>
											<ntsc>TRUE</ntsc>
										</rate>
										<width>4096</width>
										<height>2160</height>
										<anamorphic>FALSE</anamorphic>
										<pixelaspectratio>square</pixelaspectratio>
										<fielddominance>none</fielddominance>
									</samplecharacteristics>
								</video>
							</media>
						</file>
						<logginginfo>
							<description></description>
							<scene></scene>
							<shottake></shottake>
							<lognote></lognote>
							<good></good>
							<originalvideofilename></originalvideofilename>
							<originalaudiofilename></originalaudiofilename>
						</logginginfo>
						<colorinfo>
							<lut></lut>
							<lut1></lut1>
							<asc_sop></asc_sop>
							<asc_sat></asc_sat>
							<lut2></lut2>
						</colorinfo>
						<labels>
							<label2>Violet</label2>
						</labels>
					</clipitem>
					<clipitem id="clipitem-1647">
						<masterclipid>masterclip-1644</masterclipid>
						<name>TKO_024_FIN_Sh17200_Comp_V01.mov</name>
						<enabled>TRUE</enabled>
						<duration>54</duration>
						<rate>
							<timebase>24</timebase>
							<ntsc>TRUE</ntsc>
						</rate>
						<start>116083</start>
						<end>116129</end>
						<in>4</in>
						<out>50</out>
						<pproTicksIn>42378336000</pproTicksIn>
						<pproTicksOut>529729200000</pproTicksOut>
						<alphatype>straight</alphatype>
						<pixelaspectratio>square</pixelaspectratio>
						<anamorphic>FALSE</anamorphic>
						<file id="file-1644">
							<name>TKO_024_FIN_Sh17200_Comp_V01.mov</name>
							<pathurl>file://tri-stor01/Projects/TKO/SHOTS/TKO_024_FIN/TKO_024_FIN_Sh17200/COMP/V01/TKO_024_FIN_Sh17200_Comp_V01.mov</pathurl>
							<rate>
								<timebase>24</timebase>
								<ntsc>TRUE</ntsc>
							</rate>
							<duration>54</duration>
							<timecode>
								<rate>
									<timebase>24</timebase>
									<ntsc>TRUE</ntsc>
								</rate>
								<string>00:00:00:00</string>
								<frame>0</frame>
								<displayformat>NDF</displayformat>
								<reel>
									<name>C0100007</name>
								</reel>
							</timecode>
							<media>
								<video>
									<samplecharacteristics>
										<rate>
											<timebase>24</timebase>
											<ntsc>TRUE</ntsc>
										</rate>
										<width>3840</width>
										<height>2160</height>
										<anamorphic>FALSE</anamorphic>
										<pixelaspectratio>square</pixelaspectratio>
										<fielddominance>none</fielddominance>
									</samplecharacteristics>
								</video>
							</media>
						</file>
						<logginginfo>
							<description></description>
							<scene></scene>
							<shottake></shottake>
							<lognote></lognote>
							<good></good>
							<originalvideofilename></originalvideofilename>
							<originalaudiofilename></originalaudiofilename>
						</logginginfo>
						<colorinfo>
							<lut></lut>
							<lut1></lut1>
							<asc_sop></asc_sop>
							<asc_sat></asc_sat>
							<lut2></lut2>
						</colorinfo>
						<labels>
							<label2>Violet</label2>
						</labels>
					</clipitem>
					<clipitem id="clipitem-1648">
						<masterclipid>masterclip-1645</masterclipid>
						<name>TKO_024_FIN_Sh17210.mov</name>
						<enabled>TRUE</enabled>
						<duration>254</duration>
						<rate>
							<timebase>24</timebase>
							<ntsc>TRUE</ntsc>
						</rate>
						<start>116129</start>
						<end>116375</end>
						<in>4</in>
						<out>250</out>
						<pproTicksIn>42378336000</pproTicksIn>
						<pproTicksOut>2648646000000</pproTicksOut>
						<alphatype>none</alphatype>
						<pixelaspectratio>square</pixelaspectratio>
						<anamorphic>FALSE</anamorphic>
						<file id="file-1645">
							<name>TKO_024_FIN_Sh17210.mov</name>
							<pathurl>file://tri-stor01/Projects/TKO/SHOTS/_Refs_Movs_Burnin_FrameCounter/TKO_024_FIN_Sh17210.mov</pathurl>
							<rate>
								<timebase>24</timebase>
								<ntsc>TRUE</ntsc>
							</rate>
							<duration>254</duration>
							<timecode>
								<rate>
									<timebase>24</timebase>
									<ntsc>TRUE</ntsc>
								</rate>
								<string>00:00:00:00</string>
								<frame>0</frame>
								<displayformat>NDF</displayformat>
							</timecode>
							<media>
								<video>
									<samplecharacteristics>
										<rate>
											<timebase>24</timebase>
											<ntsc>TRUE</ntsc>
										</rate>
										<width>4096</width>
										<height>2160</height>
										<anamorphic>FALSE</anamorphic>
										<pixelaspectratio>square</pixelaspectratio>
										<fielddominance>none</fielddominance>
									</samplecharacteristics>
								</video>
							</media>
						</file>
						<logginginfo>
							<description></description>
							<scene></scene>
							<shottake></shottake>
							<lognote></lognote>
							<good></good>
							<originalvideofilename></originalvideofilename>
							<originalaudiofilename></originalaudiofilename>
						</logginginfo>
						<colorinfo>
							<lut></lut>
							<lut1></lut1>
							<asc_sop></asc_sop>
							<asc_sat></asc_sat>
							<lut2></lut2>
						</colorinfo>
						<labels>
							<label2>Violet</label2>
						</labels>
					</clipitem>
					<clipitem id="clipitem-1649">
						<masterclipid>masterclip-1646</masterclipid>
						<name>TKO_001_INT_Sh00160_DirectorsComp.mov</name>
						<enabled>TRUE</enabled>
						<duration>210</duration>
						<rate>
							<timebase>24</timebase>
							<ntsc>TRUE</ntsc>
						</rate>
						<start>116402</start>
						<end>116596</end>
						<in>4</in>
						<out>198</out>
						<pproTicksIn>42378336000</pproTicksIn>
						<pproTicksOut>2097727632000</pproTicksOut>
						<alphatype>none</alphatype>
						<pixelaspectratio>square</pixelaspectratio>
						<anamorphic>FALSE</anamorphic>
						<file id="file-1646">
							<name>TKO_001_INT_Sh00160_DirectorsComp.mov</name>
							<pathurl>file://localhost/W%3a/TKO/SHOTS/TKO_001_INT/TKO_001_INT_Sh00160/COMP/DIRECTOR_COMP/TKO_001_INT_Sh00160_DirectorsComp.mov</pathurl>
							<rate>
								<timebase>24</timebase>
								<ntsc>TRUE</ntsc>
							</rate>
							<duration>210</duration>
							<timecode>
								<rate>
									<timebase>24</timebase>
									<ntsc>TRUE</ntsc>
								</rate>
								<string>00:00:00:00</string>
								<frame>0</frame>
								<displayformat>NDF</displayformat>
							</timecode>
							<media>
								<video>
									<samplecharacteristics>
										<rate>
											<timebase>24</timebase>
											<ntsc>TRUE</ntsc>
										</rate>
										<width>4096</width>
										<height>2160</height>
										<anamorphic>FALSE</anamorphic>
										<pixelaspectratio>square</pixelaspectratio>
										<fielddominance>none</fielddominance>
									</samplecharacteristics>
								</video>
							</media>
						</file>
						<logginginfo>
							<description></description>
							<scene></scene>
							<shottake></shottake>
							<lognote></lognote>
							<good></good>
							<originalvideofilename></originalvideofilename>
							<originalaudiofilename></originalaudiofilename>
						</logginginfo>
						<colorinfo>
							<lut></lut>
							<lut1></lut1>
							<asc_sop></asc_sop>
							<asc_sat></asc_sat>
							<lut2></lut2>
						</colorinfo>
						<labels>
							<label2>Violet</label2>
						</labels>
					</clipitem>
					<clipitem id="clipitem-1650">
						<masterclipid>masterclip-1647</masterclipid>
						<name>TKO_024_FIN_Sh17230.mov</name>
						<enabled>TRUE</enabled>
						<duration>176</duration>
						<rate>
							<timebase>24</timebase>
							<ntsc>TRUE</ntsc>
						</rate>
						<start>117483</start>
						<end>117651</end>
						<in>4</in>
						<out>172</out>
						<pproTicksIn>42378336000</pproTicksIn>
						<pproTicksOut>1822268448000</pproTicksOut>
						<alphatype>none</alphatype>
						<pixelaspectratio>square</pixelaspectratio>
						<anamorphic>FALSE</anamorphic>
						<file id="file-1647">
							<name>TKO_024_FIN_Sh17230.mov</name>
							<pathurl>file://tri-stor01/Projects/TKO/SHOTS/_Refs_Movs_Burnin_FrameCounter/TKO_024_FIN_Sh17230.mov</pathurl>
							<rate>
								<timebase>24</timebase>
								<ntsc>TRUE</ntsc>
							</rate>
							<duration>176</duration>
							<timecode>
								<rate>
									<timebase>24</timebase>
									<ntsc>TRUE</ntsc>
								</rate>
								<string>07:31:55:03</string>
								<frame>650763</frame>
								<displayformat>NDF</displayformat>
								<reel>
									<name>C0180008</name>
								</reel>
							</timecode>
							<media>
								<video>
									<samplecharacteristics>
										<rate>
											<timebase>24</timebase>
											<ntsc>TRUE</ntsc>
										</rate>
										<width>3840</width>
										<height>2160</height>
										<anamorphic>FALSE</anamorphic>
										<pixelaspectratio>square</pixelaspectratio>
										<fielddominance>none</fielddominance>
									</samplecharacteristics>
								</video>
							</media>
						</file>
						<logginginfo>
							<description></description>
							<scene></scene>
							<shottake></shottake>
							<lognote></lognote>
							<good></good>
							<originalvideofilename></originalvideofilename>
							<originalaudiofilename></originalaudiofilename>
						</logginginfo>
						<colorinfo>
							<lut></lut>
							<lut1></lut1>
							<asc_sop></asc_sop>
							<asc_sat></asc_sat>
							<lut2></lut2>
						</colorinfo>
						<labels>
							<label2>Violet</label2>
						</labels>
					</clipitem>
					<clipitem id="clipitem-1651">
						<masterclipid>masterclip-1648</masterclipid>
						<name>TKO_024_FIN_Sh17240.mov</name>
						<enabled>TRUE</enabled>
						<duration>101</duration>
						<rate>
							<timebase>24</timebase>
							<ntsc>TRUE</ntsc>
						</rate>
						<start>117651</start>
						<end>117744</end>
						<in>4</in>
						<out>97</out>
						<pproTicksIn>42378336000</pproTicksIn>
						<pproTicksOut>1027674648000</pproTicksOut>
						<alphatype>none</alphatype>
						<pixelaspectratio>square</pixelaspectratio>
						<anamorphic>FALSE</anamorphic>
						<file id="file-1648">
							<name>TKO_024_FIN_Sh17240.mov</name>
							<pathurl>file://tri-stor01/Projects/TKO/SHOTS/_Refs_Movs_Burnin_FrameCounter/TKO_024_FIN_Sh17240.mov</pathurl>
							<rate>
								<timebase>24</timebase>
								<ntsc>TRUE</ntsc>
							</rate>
							<duration>101</duration>
							<timecode>
								<rate>
									<timebase>24</timebase>
									<ntsc>TRUE</ntsc>
								</rate>
								<string>07:32:03:06</string>
								<frame>650958</frame>
								<displayformat>NDF</displayformat>
								<reel>
									<name>C0180008</name>
								</reel>
							</timecode>
							<media>
								<video>
									<samplecharacteristics>
										<rate>
											<timebase>24</timebase>
											<ntsc>TRUE</ntsc>
										</rate>
										<width>3840</width>
										<height>2160</height>
										<anamorphic>FALSE</anamorphic>
										<pixelaspectratio>square</pixelaspectratio>
										<fielddominance>none</fielddominance>
									</samplecharacteristics>
								</video>
							</media>
						</file>
						<logginginfo>
							<description></description>
							<scene></scene>
							<shottake></shottake>
							<lognote></lognote>
							<good></good>
							<originalvideofilename></originalvideofilename>
							<originalaudiofilename></originalaudiofilename>
						</logginginfo>
						<colorinfo>
							<lut></lut>
							<lut1></lut1>
							<asc_sop></asc_sop>
							<asc_sat></asc_sat>
							<lut2></lut2>
						</colorinfo>
						<labels>
							<label2>Violet</label2>
						</labels>
					</clipitem>
					<clipitem id="clipitem-1652">
						<masterclipid>masterclip-1649</masterclipid>
						<name>TKO_024_FIN_Sh17250.mov</name>
						<enabled>TRUE</enabled>
						<duration>145</duration>
						<rate>
							<timebase>24</timebase>
							<ntsc>TRUE</ntsc>
						</rate>
						<start>117744</start>
						<end>117881</end>
						<in>4</in>
						<out>141</out>
						<pproTicksIn>42378336000</pproTicksIn>
						<pproTicksOut>1493836344000</pproTicksOut>
						<alphatype>none</alphatype>
						<pixelaspectratio>square</pixelaspectratio>
						<anamorphic>FALSE</anamorphic>
						<file id="file-1649">
							<name>TKO_024_FIN_Sh17250.mov</name>
							<pathurl>file://tri-stor01/Projects/TKO/SHOTS/_Refs_Movs_Burnin_FrameCounter/TKO_024_FIN_Sh17250.mov</pathurl>
							<rate>
								<timebase>24</timebase>
								<ntsc>TRUE</ntsc>
							</rate>
							<duration>145</duration>
							<timecode>
								<rate>
									<timebase>24</timebase>
									<ntsc>TRUE</ntsc>
								</rate>
								<string>07:32:07:22</string>
								<frame>651070</frame>
								<displayformat>NDF</displayformat>
								<reel>
									<name>C0180008</name>
								</reel>
							</timecode>
							<media>
								<video>
									<samplecharacteristics>
										<rate>
											<timebase>24</timebase>
											<ntsc>TRUE</ntsc>
										</rate>
										<width>3840</width>
										<height>2160</height>
										<anamorphic>FALSE</anamorphic>
										<pixelaspectratio>square</pixelaspectratio>
										<fielddominance>none</fielddominance>
									</samplecharacteristics>
								</video>
							</media>
						</file>
						<logginginfo>
							<description></description>
							<scene></scene>
							<shottake></shottake>
							<lognote></lognote>
							<good></good>
							<originalvideofilename></originalvideofilename>
							<originalaudiofilename></originalaudiofilename>
						</logginginfo>
						<colorinfo>
							<lut></lut>
							<lut1></lut1>
							<asc_sop></asc_sop>
							<asc_sat></asc_sat>
							<lut2></lut2>
						</colorinfo>
						<labels>
							<label2>Violet</label2>
						</labels>
					</clipitem>
					<clipitem id="clipitem-1653">
						<masterclipid>masterclip-1650</masterclipid>
						<name>TKO_024_FIN_Sh17260.mov</name>
						<enabled>TRUE</enabled>
						<duration>65</duration>
						<rate>
							<timebase>24</timebase>
							<ntsc>TRUE</ntsc>
						</rate>
						<start>117881</start>
						<end>117938</end>
						<in>4</in>
						<out>61</out>
						<pproTicksIn>42378336000</pproTicksIn>
						<pproTicksOut>646269624000</pproTicksOut>
						<alphatype>none</alphatype>
						<pixelaspectratio>square</pixelaspectratio>
						<anamorphic>FALSE</anamorphic>
						<file id="file-1650">
							<name>TKO_024_FIN_Sh17260.mov</name>
							<pathurl>file://tri-stor01/Projects/TKO/SHOTS/_Refs_Movs_Burnin_FrameCounter/TKO_024_FIN_Sh17260.mov</pathurl>
							<rate>
								<timebase>24</timebase>
								<ntsc>TRUE</ntsc>
							</rate>
							<duration>65</duration>
							<timecode>
								<rate>
									<timebase>24</timebase>
									<ntsc>TRUE</ntsc>
								</rate>
								<string>07:32:14:14</string>
								<frame>651230</frame>
								<displayformat>NDF</displayformat>
								<reel>
									<name>C0180008</name>
								</reel>
							</timecode>
							<media>
								<video>
									<samplecharacteristics>
										<rate>
											<timebase>24</timebase>
											<ntsc>TRUE</ntsc>
										</rate>
										<width>3840</width>
										<height>2160</height>
										<anamorphic>FALSE</anamorphic>
										<pixelaspectratio>square</pixelaspectratio>
										<fielddominance>none</fielddominance>
									</samplecharacteristics>
								</video>
							</media>
						</file>
						<logginginfo>
							<description></description>
							<scene></scene>
							<shottake></shottake>
							<lognote></lognote>
							<good></good>
							<originalvideofilename></originalvideofilename>
							<originalaudiofilename></originalaudiofilename>
						</logginginfo>
						<colorinfo>
							<lut></lut>
							<lut1></lut1>
							<asc_sop></asc_sop>
							<asc_sat></asc_sat>
							<lut2></lut2>
						</colorinfo>
						<labels>
							<label2>Violet</label2>
						</labels>
					</clipitem>
					<enabled>TRUE</enabled>
					<locked>FALSE</locked>
				</track>
				<track TL.SQTrackShy="0" TL.SQTrackExpandedHeight="25" TL.SQTrackExpanded="0" MZ.TrackTargeted="0">
					<enabled>TRUE</enabled>
					<locked>FALSE</locked>
				</track>
				<track TL.SQTrackShy="0" TL.SQTrackExpandedHeight="25" TL.SQTrackExpanded="0" MZ.TrackTargeted="0">
					<clipitem id="clipitem-1654">
						<masterclipid>masterclip-1651</masterclipid>
						<name>Black Video</name>
						<enabled>TRUE</enabled>
						<duration>0</duration>
						<rate>
							<timebase>0</timebase>
							<ntsc>FALSE</ntsc>
						</rate>
						<start>0</start>
						<end>48</end>
						<in>0</in>
						<out>0</out>
						<pproTicksIn>914450328792000</pproTicksIn>
						<pproTicksOut>914958868824000</pproTicksOut>
						<alphatype>none</alphatype>
						<pixelaspectratio>NTSC-601</pixelaspectratio>
						<anamorphic>FALSE</anamorphic>
						<file id="file-1651">
							<name>Black Video</name>
							<mediaSource>Slug</mediaSource>
							<rate>
								<timebase>30</timebase>
								<ntsc>TRUE</ntsc>
							</rate>
							<timecode>
								<rate>
									<timebase>30</timebase>
									<ntsc>TRUE</ntsc>
								</rate>
								<string>00;00;00;00</string>
								<frame>0</frame>
								<displayformat>DF</displayformat>
							</timecode>
							<media>
								<video>
									<samplecharacteristics>
										<rate>
											<timebase>30</timebase>
											<ntsc>TRUE</ntsc>
										</rate>
										<width>720</width>
										<height>480</height>
										<anamorphic>FALSE</anamorphic>
										<pixelaspectratio>NTSC-601</pixelaspectratio>
										<fielddominance>none</fielddominance>
									</samplecharacteristics>
								</video>
							</media>
						</file>
						<filter>
							<effect>
								<name>Time Remap</name>
								<effectid>timeremap</effectid>
								<effectcategory>motion</effectcategory>
								<effecttype>motion</effecttype>
								<mediatype>video</mediatype>
								<parameter authoringApp="PremierePro">
									<parameterid>variablespeed</parameterid>
									<name>variablespeed</name>
									<valuemin>0</valuemin>
									<valuemax>1</valuemax>
									<value>0</value>
								</parameter>
								<parameter authoringApp="PremierePro">
									<parameterid>speed</parameterid>
									<name>speed</name>
									<valuemin>-100000</valuemin>
									<valuemax>100000</valuemax>
									<value>-nan(ind)</value>
								</parameter>
								<parameter authoringApp="PremierePro">
									<parameterid>reverse</parameterid>
									<name>reverse</name>
									<value>FALSE</value>
								</parameter>
								<parameter authoringApp="PremierePro">
									<parameterid>frameblending</parameterid>
									<name>frameblending</name>
									<value>FALSE</value>
								</parameter>
								<parameter authoringApp="PremierePro">
									<parameterid>graphdict</parameterid>
									<name>graphdict</name>
									<valuemin>0</valuemin>
									<valuemax>-9223372036854775808</valuemax>
									<value>0</value>
									<keyframe>
										<when>0</when>
										<value>0</value>
										<speedvirtualkf>TRUE</speedvirtualkf>
										<speedkfin>TRUE</speedkfin>
									</keyframe>
									<keyframe>
										<when>0</when>
										<value>-9223372036854775808</value>
										<speedvirtualkf>TRUE</speedvirtualkf>
										<speedkfout>TRUE</speedkfout>
									</keyframe>
									<interpolation>
										<name>FCPCurve</name>
									</interpolation>
								</parameter>
							</effect>
						</filter>
						<filter>
							<effect>
								<name>Distort</name>
								<effectid>deformation</effectid>
								<effectcategory>motion</effectcategory>
								<effecttype>motion</effecttype>
								<mediatype>video</mediatype>
								<parameter authoringApp="PremierePro">
									<parameterid>aspect</parameterid>
									<name>Aspect</name>
									<valuemin>-10000</valuemin>
									<valuemax>10000</valuemax>
									<value>10</value>
								</parameter>
							</effect>
						</filter>
						<logginginfo>
							<description></description>
							<scene></scene>
							<shottake></shottake>
							<lognote></lognote>
							<good></good>
							<originalvideofilename></originalvideofilename>
							<originalaudiofilename></originalaudiofilename>
						</logginginfo>
						<colorinfo>
							<lut></lut>
							<lut1></lut1>
							<asc_sop></asc_sop>
							<asc_sat></asc_sat>
							<lut2></lut2>
						</colorinfo>
						<labels>
							<label2>Lavender</label2>
						</labels>
					</clipitem>
					<enabled>TRUE</enabled>
					<locked>FALSE</locked>
				</track>
				<track TL.SQTrackShy="0" TL.SQTrackExpandedHeight="25" TL.SQTrackExpanded="0" MZ.TrackTargeted="0">
					<enabled>TRUE</enabled>
					<locked>FALSE</locked>
				</track>
				<track TL.SQTrackShy="0" TL.SQTrackExpandedHeight="25" TL.SQTrackExpanded="0" MZ.TrackTargeted="0">
					<enabled>TRUE</enabled>
					<locked>FALSE</locked>
				</track>
				<track TL.SQTrackShy="0" TL.SQTrackExpandedHeight="25" TL.SQTrackExpanded="0" MZ.TrackTargeted="0">
					<enabled>TRUE</enabled>
					<locked>FALSE</locked>
				</track>
			</video>
			<audio>
				<numOutputChannels>2</numOutputChannels>
				<format>
					<samplecharacteristics>
						<depth>16</depth>
						<samplerate>48000</samplerate>
					</samplecharacteristics>
				</format>
				<outputs>
					<group>
						<index>1</index>
						<numchannels>1</numchannels>
						<downmix>0</downmix>
						<channel>
							<index>1</index>
						</channel>
					</group>
					<group>
						<index>2</index>
						<numchannels>1</numchannels>
						<downmix>0</downmix>
						<channel>
							<index>2</index>
						</channel>
					</group>
				</outputs>
				<track TL.SQTrackAudioKeyframeStyle="0" TL.SQTrackShy="0" TL.SQTrackExpandedHeight="25" TL.SQTrackExpanded="0" MZ.TrackTargeted="1" PannerCurrentValue="0.5" PannerIsInverted="true" PannerStartKeyframe="-91445760000000000,0.5,0,0,0,0,0,0" PannerName="Balance" currentExplodedTrackIndex="0" totalExplodedTrackCount="2" premiereTrackType="Stereo">
					<enabled>TRUE</enabled>
					<locked>FALSE</locked>
					<outputchannelindex>1</outputchannelindex>
				</track>
				<track TL.SQTrackAudioKeyframeStyle="0" TL.SQTrackShy="0" TL.SQTrackExpandedHeight="25" TL.SQTrackExpanded="0" MZ.TrackTargeted="1" PannerCurrentValue="0.5" PannerIsInverted="true" PannerStartKeyframe="-91445760000000000,0.5,0,0,0,0,0,0" PannerName="Balance" currentExplodedTrackIndex="1" totalExplodedTrackCount="2" premiereTrackType="Stereo">
					<enabled>TRUE</enabled>
					<locked>FALSE</locked>
					<outputchannelindex>2</outputchannelindex>
				</track>
			</audio>
		</media>
		<timecode>
			<rate>
				<timebase>24</timebase>
				<ntsc>TRUE</ntsc>
			</rate>
			<string>00:59:58:00</string>
			<frame>86352</frame>
			<displayformat>NDF</displayformat>
		</timecode>
		<labels>
			<label2>Forest</label2>
		</labels>
		<logginginfo>
			<description></description>
			<scene></scene>
			<shottake></shottake>
			<lognote></lognote>
			<good></good>
			<originalvideofilename></originalvideofilename>
			<originalaudiofilename></originalaudiofilename>
		</logginginfo>
	</sequence>
</xmeml>
